<?xml version="1.0" encoding="UTF-8" standalone="no"?>
<!DOCTYPE svg PUBLIC "-//W3C//DTD SVG 1.1//EN"
 "http://www.w3.org/Graphics/SVG/1.1/DTD/svg11.dtd">
<!-- Generated by graphviz version 2.43.0 (0)
 -->
<!-- Title: AnsiCParserDriver.cpp Pages: 1 -->
<svg width="636pt" height="330pt"
 viewBox="0.00 0.00 635.50 330.00" xmlns="http://www.w3.org/2000/svg" xmlns:xlink="http://www.w3.org/1999/xlink">
<g id="graph0" class="graph" transform="scale(1 1) rotate(0) translate(4 326)">
<title>AnsiCParserDriver.cpp</title>
<polygon fill="white" stroke="transparent" points="-4,4 -4,-326 631.5,-326 631.5,4 -4,4"/>
<!-- Node1 -->
<g id="node1" class="node">
<title>Node1</title>
<g id="a_node1"><a xlink:title=" ">
<polygon fill="#bfbfbf" stroke="black" points="66.5,-302.5 66.5,-321.5 191.5,-321.5 191.5,-302.5 66.5,-302.5"/>
<text text-anchor="middle" x="129" y="-309.5" font-family="Helvetica,sans-Serif" font-size="10.00">AnsiCParserDriver.cpp</text>
</a>
</g>
</g>
<!-- Node2 -->
<g id="node2" class="node">
<title>Node2</title>
<g id="a_node2"><a xlink:href="AnsiCParserDriver_8h.html" target="_top" xlink:title=" ">
<polygon fill="white" stroke="black" points="72,-241 72,-260 186,-260 186,-241 72,-241"/>
<text text-anchor="middle" x="129" y="-248" font-family="Helvetica,sans-Serif" font-size="10.00">AnsiCParserDriver.h</text>
</a>
</g>
</g>
<!-- Node1&#45;&gt;Node2 -->
<g id="edge1" class="edge">
<title>Node1&#45;&gt;Node2</title>
<path fill="none" stroke="midnightblue" d="M129,-302.48C129,-294.08 129,-280.98 129,-270.16"/>
<polygon fill="midnightblue" stroke="midnightblue" points="132.5,-270.01 129,-260.01 125.5,-270.01 132.5,-270.01"/>
</g>
<!-- Node3 -->
<g id="node3" class="node">
<title>Node3</title>
<g id="a_node3"><a xlink:title=" ">
<polygon fill="white" stroke="#bfbfbf" points="0,-179.5 0,-198.5 96,-198.5 96,-179.5 0,-179.5"/>
<text text-anchor="middle" x="48" y="-186.5" font-family="Helvetica,sans-Serif" font-size="10.00">AnsiCParser.hpp</text>
</a>
</g>
</g>
<!-- Node1&#45;&gt;Node3 -->
<g id="edge4" class="edge">
<title>Node1&#45;&gt;Node3</title>
<path fill="none" stroke="midnightblue" d="M108.79,-302.42C93.78,-294.99 74.08,-282.78 63,-266 51.79,-249.02 48.59,-225.57 47.85,-209.22"/>
<polygon fill="midnightblue" stroke="midnightblue" points="51.34,-208.71 47.66,-198.77 44.34,-208.83 51.34,-208.71"/>
</g>
<!-- Node5 -->
<g id="node5" class="node">
<title>Node5</title>
<g id="a_node5"><a xlink:href="Log_8h.html" target="_top" xlink:title=" ">
<polygon fill="white" stroke="black" points="421.5,-235.5 421.5,-265.5 530.5,-265.5 530.5,-235.5 421.5,-235.5"/>
<text text-anchor="start" x="429.5" y="-253.5" font-family="Helvetica,sans-Serif" font-size="10.00">boomerang/util/log</text>
<text text-anchor="middle" x="476" y="-242.5" font-family="Helvetica,sans-Serif" font-size="10.00">/Log.h</text>
</a>
</g>
</g>
<!-- Node1&#45;&gt;Node5 -->
<g id="edge5" class="edge">
<title>Node1&#45;&gt;Node5</title>
<path fill="none" stroke="midnightblue" d="M178.72,-302.48C239.86,-291.99 343.79,-274.17 411.15,-262.62"/>
<polygon fill="midnightblue" stroke="midnightblue" points="411.96,-266.03 421.22,-260.89 410.78,-259.13 411.96,-266.03"/>
</g>
<!-- Node2&#45;&gt;Node3 -->
<g id="edge2" class="edge">
<title>Node2&#45;&gt;Node3</title>
<path fill="none" stroke="midnightblue" d="M117.39,-240.98C104.52,-231.52 83.53,-216.1 67.99,-204.69"/>
<polygon fill="midnightblue" stroke="midnightblue" points="69.72,-201.61 59.58,-198.51 65.57,-207.25 69.72,-201.61"/>
</g>
<!-- Node4 -->
<g id="node4" class="node">
<title>Node4</title>
<g id="a_node4"><a xlink:href="BoomerangAPI_8h.html" target="_top" xlink:title=" ">
<polygon fill="white" stroke="black" points="68.5,-56.5 68.5,-86.5 223.5,-86.5 223.5,-56.5 68.5,-56.5"/>
<text text-anchor="start" x="76.5" y="-74.5" font-family="Helvetica,sans-Serif" font-size="10.00">boomerang/core/Boomerang</text>
<text text-anchor="middle" x="146" y="-63.5" font-family="Helvetica,sans-Serif" font-size="10.00">API.h</text>
</a>
</g>
</g>
<!-- Node2&#45;&gt;Node4 -->
<g id="edge3" class="edge">
<title>Node2&#45;&gt;Node4</title>
<path fill="none" stroke="midnightblue" d="M129.82,-240.96C132.31,-215.03 139.85,-136.5 143.7,-96.49"/>
<polygon fill="midnightblue" stroke="midnightblue" points="147.18,-96.81 144.65,-86.52 140.21,-96.14 147.18,-96.81"/>
</g>
<!-- Node6 -->
<g id="node6" class="node">
<title>Node6</title>
<g id="a_node6"><a xlink:href="Address_8h.html" target="_top" xlink:title=" ">
<polygon fill="white" stroke="black" points="295,-179.5 295,-198.5 437,-198.5 437,-179.5 295,-179.5"/>
<text text-anchor="middle" x="366" y="-186.5" font-family="Helvetica,sans-Serif" font-size="10.00">boomerang/util/Address.h</text>
</a>
</g>
</g>
<!-- Node5&#45;&gt;Node6 -->
<g id="edge6" class="edge">
<title>Node5&#45;&gt;Node6</title>
<path fill="none" stroke="midnightblue" d="M449.93,-235.4C432.13,-225.77 408.69,-213.09 391.1,-203.58"/>
<polygon fill="midnightblue" stroke="midnightblue" points="392.47,-200.34 382.01,-198.66 389.14,-206.49 392.47,-200.34"/>
</g>
<!-- Node8 -->
<g id="node8" class="node">
<title>Node8</title>
<g id="a_node8"><a xlink:href="Types_8h.html" target="_top" xlink:title=" ">
<polygon fill="white" stroke="black" points="306.5,-62 306.5,-81 437.5,-81 437.5,-62 306.5,-62"/>
<text text-anchor="middle" x="372" y="-69" font-family="Helvetica,sans-Serif" font-size="10.00">boomerang/util/Types.h</text>
</a>
</g>
</g>
<!-- Node5&#45;&gt;Node8 -->
<g id="edge15" class="edge">
<title>Node5&#45;&gt;Node8</title>
<path fill="none" stroke="midnightblue" d="M477.59,-235.2C479.61,-210.18 480.42,-157.83 457,-123 445.28,-105.57 425.35,-93.27 407.73,-85.17"/>
<polygon fill="midnightblue" stroke="midnightblue" points="408.82,-81.83 398.25,-81.1 406.06,-88.26 408.82,-81.83"/>
</g>
<!-- Node12 -->
<g id="node12" class="node">
<title>Node12</title>
<g id="a_node12"><a xlink:title=" ">
<polygon fill="white" stroke="#bfbfbf" points="504,-179.5 504,-198.5 562,-198.5 562,-179.5 504,-179.5"/>
<text text-anchor="middle" x="533" y="-186.5" font-family="Helvetica,sans-Serif" font-size="10.00">memory</text>
</a>
</g>
</g>
<!-- Node5&#45;&gt;Node12 -->
<g id="edge16" class="edge">
<title>Node5&#45;&gt;Node12</title>
<path fill="none" stroke="midnightblue" d="M489.51,-235.4C497.96,-226.58 508.88,-215.18 517.66,-206.02"/>
<polygon fill="midnightblue" stroke="midnightblue" points="520.32,-208.3 524.71,-198.66 515.26,-203.46 520.32,-208.3"/>
</g>
<!-- Node13 -->
<g id="node13" class="node">
<title>Node13</title>
<g id="a_node13"><a xlink:title=" ">
<polygon fill="white" stroke="#bfbfbf" points="580.5,-179.5 580.5,-198.5 627.5,-198.5 627.5,-179.5 580.5,-179.5"/>
<text text-anchor="middle" x="604" y="-186.5" font-family="Helvetica,sans-Serif" font-size="10.00">vector</text>
</a>
</g>
</g>
<!-- Node5&#45;&gt;Node13 -->
<g id="edge17" class="edge">
<title>Node5&#45;&gt;Node13</title>
<path fill="none" stroke="midnightblue" d="M506.33,-235.4C527.52,-225.55 555.59,-212.5 576.2,-202.92"/>
<polygon fill="midnightblue" stroke="midnightblue" points="577.78,-206.05 585.37,-198.66 574.83,-199.7 577.78,-206.05"/>
</g>
<!-- Node6&#45;&gt;Node4 -->
<g id="edge7" class="edge">
<title>Node6&#45;&gt;Node4</title>
<path fill="none" stroke="midnightblue" d="M294.8,-184.27C258.17,-179.17 214.68,-167.81 183,-143 168,-131.26 158.43,-111.73 152.79,-96.2"/>
<polygon fill="midnightblue" stroke="midnightblue" points="156.1,-95.08 149.63,-86.69 149.46,-97.28 156.1,-95.08"/>
</g>
<!-- Node7 -->
<g id="node7" class="node">
<title>Node7</title>
<g id="a_node7"><a xlink:href="OStream_8h.html" target="_top" xlink:title=" ">
<polygon fill="white" stroke="black" points="192,-123.5 192,-142.5 338,-142.5 338,-123.5 192,-123.5"/>
<text text-anchor="middle" x="265" y="-130.5" font-family="Helvetica,sans-Serif" font-size="10.00">boomerang/util/OStream.h</text>
</a>
</g>
</g>
<!-- Node6&#45;&gt;Node7 -->
<g id="edge8" class="edge">
<title>Node6&#45;&gt;Node7</title>
<path fill="none" stroke="midnightblue" d="M349.77,-179.32C333.65,-170.7 308.7,-157.36 290.04,-147.39"/>
<polygon fill="midnightblue" stroke="midnightblue" points="291.66,-144.28 281.19,-142.65 288.36,-150.46 291.66,-144.28"/>
</g>
<!-- Node6&#45;&gt;Node8 -->
<g id="edge13" class="edge">
<title>Node6&#45;&gt;Node8</title>
<path fill="none" stroke="midnightblue" d="M366.45,-179.32C367.42,-160.76 369.7,-116.84 371.01,-91.47"/>
<polygon fill="midnightblue" stroke="midnightblue" points="374.52,-91.45 371.54,-81.28 367.53,-91.09 374.52,-91.45"/>
</g>
<!-- Node11 -->
<g id="node11" class="node">
<title>Node11</title>
<g id="a_node11"><a xlink:title=" ">
<polygon fill="white" stroke="#bfbfbf" points="394.5,-123.5 394.5,-142.5 447.5,-142.5 447.5,-123.5 394.5,-123.5"/>
<text text-anchor="middle" x="421" y="-130.5" font-family="Helvetica,sans-Serif" font-size="10.00">QString</text>
</a>
</g>
</g>
<!-- Node6&#45;&gt;Node11 -->
<g id="edge14" class="edge">
<title>Node6&#45;&gt;Node11</title>
<path fill="none" stroke="midnightblue" d="M375.08,-179.08C383.17,-171.14 395.2,-159.34 404.91,-149.8"/>
<polygon fill="midnightblue" stroke="midnightblue" points="407.4,-152.25 412.09,-142.75 402.5,-147.26 407.4,-152.25"/>
</g>
<!-- Node7&#45;&gt;Node4 -->
<g id="edge9" class="edge">
<title>Node7&#45;&gt;Node4</title>
<path fill="none" stroke="midnightblue" d="M247.95,-123.48C231.08,-115.04 204.71,-101.86 183.02,-91.01"/>
<polygon fill="midnightblue" stroke="midnightblue" points="184.56,-87.86 174.05,-86.52 181.42,-94.13 184.56,-87.86"/>
</g>
<!-- Node7&#45;&gt;Node8 -->
<g id="edge10" class="edge">
<title>Node7&#45;&gt;Node8</title>
<path fill="none" stroke="midnightblue" d="M280.33,-123.48C297.97,-113.67 327.16,-97.43 347.86,-85.92"/>
<polygon fill="midnightblue" stroke="midnightblue" points="349.66,-88.93 356.7,-81.01 346.26,-82.81 349.66,-88.93"/>
</g>
<!-- Node10 -->
<g id="node10" class="node">
<title>Node10</title>
<g id="a_node10"><a xlink:title=" ">
<polygon fill="white" stroke="#bfbfbf" points="242,-62 242,-81 288,-81 288,-62 242,-62"/>
<text text-anchor="middle" x="265" y="-69" font-family="Helvetica,sans-Serif" font-size="10.00">cstdio</text>
</a>
</g>
</g>
<!-- Node7&#45;&gt;Node10 -->
<g id="edge12" class="edge">
<title>Node7&#45;&gt;Node10</title>
<path fill="none" stroke="midnightblue" d="M265,-123.48C265,-115.08 265,-101.98 265,-91.16"/>
<polygon fill="midnightblue" stroke="midnightblue" points="268.5,-91.01 265,-81.01 261.5,-91.01 268.5,-91.01"/>
</g>
<!-- Node9 -->
<g id="node9" class="node">
<title>Node9</title>
<g id="a_node9"><a xlink:title=" ">
<polygon fill="white" stroke="#bfbfbf" points="347,-0.5 347,-19.5 397,-19.5 397,-0.5 347,-0.5"/>
<text text-anchor="middle" x="372" y="-7.5" font-family="Helvetica,sans-Serif" font-size="10.00">cstdint</text>
</a>
</g>
</g>
<!-- Node8&#45;&gt;Node9 -->
<g id="edge11" class="edge">
<title>Node8&#45;&gt;Node9</title>
<path fill="none" stroke="midnightblue" d="M372,-61.98C372,-53.58 372,-40.48 372,-29.66"/>
<polygon fill="midnightblue" stroke="midnightblue" points="375.5,-29.51 372,-19.51 368.5,-29.51 375.5,-29.51"/>
</g>
</g>
</svg>
