<?xml version="1.0" encoding="UTF-8" standalone="no"?>
<!DOCTYPE svg PUBLIC "-//W3C//DTD SVG 1.1//EN"
 "http://www.w3.org/Graphics/SVG/1.1/DTD/svg11.dtd">
<!-- Generated by graphviz version 2.43.0 (0)
 -->
<!-- Title: BinarySymbol.h Pages: 1 -->
<svg width="1744pt" height="84pt"
 viewBox="0.00 0.00 1744.00 84.00" xmlns="http://www.w3.org/2000/svg" xmlns:xlink="http://www.w3.org/1999/xlink">
<g id="graph0" class="graph" transform="scale(1 1) rotate(0) translate(4 80)">
<title>BinarySymbol.h</title>
<polygon fill="white" stroke="transparent" points="-4,4 -4,-80 1740,-80 1740,4 -4,4"/>
<!-- Node1 -->
<g id="node1" class="node">
<title>Node1</title>
<g id="a_node1"><a xlink:title=" ">
<polygon fill="#bfbfbf" stroke="black" points="755.5,-56.5 755.5,-75.5 849.5,-75.5 849.5,-56.5 755.5,-56.5"/>
<text text-anchor="middle" x="802.5" y="-63.5" font-family="Helvetica,sans-Serif" font-size="10.00">BinarySymbol.h</text>
</a>
</g>
</g>
<!-- Node2 -->
<g id="node2" class="node">
<title>Node2</title>
<g id="a_node2"><a xlink:href="BinarySymbol_8cpp.html" target="_top" xlink:title=" ">
<polygon fill="white" stroke="black" points="0,-0.5 0,-19.5 105,-19.5 105,-0.5 0,-0.5"/>
<text text-anchor="middle" x="52.5" y="-7.5" font-family="Helvetica,sans-Serif" font-size="10.00">BinarySymbol.cpp</text>
</a>
</g>
</g>
<!-- Node1&#45;&gt;Node2 -->
<g id="edge1" class="edge">
<title>Node1&#45;&gt;Node2</title>
<path fill="none" stroke="midnightblue" d="M744.91,-62.82C626.44,-57.99 346.94,-44.8 113.5,-20 110.73,-19.71 107.9,-19.38 105.04,-19.03"/>
<polygon fill="midnightblue" stroke="midnightblue" points="745.06,-66.33 755.19,-63.24 745.34,-59.34 745.06,-66.33"/>
</g>
<!-- Node3 -->
<g id="node3" class="node">
<title>Node3</title>
<g id="a_node3"><a xlink:href="BinarySymbolTable_8cpp.html" target="_top" xlink:title=" ">
<polygon fill="white" stroke="black" points="123,-0.5 123,-19.5 254,-19.5 254,-0.5 123,-0.5"/>
<text text-anchor="middle" x="188.5" y="-7.5" font-family="Helvetica,sans-Serif" font-size="10.00">BinarySymbolTable.cpp</text>
</a>
</g>
</g>
<!-- Node1&#45;&gt;Node3 -->
<g id="edge2" class="edge">
<title>Node1&#45;&gt;Node3</title>
<path fill="none" stroke="midnightblue" d="M745.18,-60.9C646.63,-53.69 438.77,-37.83 263.5,-20 260.5,-19.69 257.43,-19.37 254.34,-19.04"/>
<polygon fill="midnightblue" stroke="midnightblue" points="744.99,-64.39 755.22,-61.63 745.5,-57.41 744.99,-64.39"/>
</g>
<!-- Node4 -->
<g id="node4" class="node">
<title>Node4</title>
<g id="a_node4"><a xlink:href="Global_8cpp.html" target="_top" xlink:title=" ">
<polygon fill="white" stroke="black" points="272.5,-0.5 272.5,-19.5 340.5,-19.5 340.5,-0.5 272.5,-0.5"/>
<text text-anchor="middle" x="306.5" y="-7.5" font-family="Helvetica,sans-Serif" font-size="10.00">Global.cpp</text>
</a>
</g>
</g>
<!-- Node1&#45;&gt;Node4 -->
<g id="edge3" class="edge">
<title>Node1&#45;&gt;Node4</title>
<path fill="none" stroke="midnightblue" d="M745.24,-61.29C659.05,-55.26 490.99,-41.77 349.5,-20 346.64,-19.56 343.67,-19.05 340.71,-18.51"/>
<polygon fill="midnightblue" stroke="midnightblue" points="745.12,-64.79 755.34,-61.99 745.6,-57.81 745.12,-64.79"/>
</g>
<!-- Node5 -->
<g id="node5" class="node">
<title>Node5</title>
<g id="a_node5"><a xlink:href="Prog_8cpp.html" target="_top" xlink:title=" ">
<polygon fill="white" stroke="black" points="359,-0.5 359,-19.5 418,-19.5 418,-0.5 359,-0.5"/>
<text text-anchor="middle" x="388.5" y="-7.5" font-family="Helvetica,sans-Serif" font-size="10.00">Prog.cpp</text>
</a>
</g>
</g>
<!-- Node1&#45;&gt;Node5 -->
<g id="edge4" class="edge">
<title>Node1&#45;&gt;Node5</title>
<path fill="none" stroke="midnightblue" d="M745.48,-60.08C671.74,-53.28 539.47,-39.58 427.5,-20 424.49,-19.47 421.36,-18.86 418.24,-18.21"/>
<polygon fill="midnightblue" stroke="midnightblue" points="745.22,-63.57 755.49,-60.99 745.85,-56.6 745.22,-63.57"/>
</g>
<!-- Node6 -->
<g id="node6" class="node">
<title>Node6</title>
<g id="a_node6"><a xlink:href="DefaultFrontEnd_8cpp.html" target="_top" xlink:title=" ">
<polygon fill="white" stroke="black" points="436.5,-0.5 436.5,-19.5 552.5,-19.5 552.5,-0.5 436.5,-0.5"/>
<text text-anchor="middle" x="494.5" y="-7.5" font-family="Helvetica,sans-Serif" font-size="10.00">DefaultFrontEnd.cpp</text>
</a>
</g>
</g>
<!-- Node1&#45;&gt;Node6 -->
<g id="edge5" class="edge">
<title>Node1&#45;&gt;Node6</title>
<path fill="none" stroke="midnightblue" d="M745.26,-54.96C687.1,-44.77 597.99,-29.14 543.13,-19.53"/>
<polygon fill="midnightblue" stroke="midnightblue" points="744.93,-58.46 755.39,-56.74 746.14,-51.57 744.93,-58.46"/>
</g>
<!-- Node7 -->
<g id="node7" class="node">
<title>Node7</title>
<g id="a_node7"><a xlink:href="GlobalConstReplacePass_8cpp.html" target="_top" xlink:title=" ">
<polygon fill="white" stroke="black" points="570.5,-0.5 570.5,-19.5 728.5,-19.5 728.5,-0.5 570.5,-0.5"/>
<text text-anchor="middle" x="649.5" y="-7.5" font-family="Helvetica,sans-Serif" font-size="10.00">GlobalConstReplacePass.cpp</text>
</a>
</g>
</g>
<!-- Node1&#45;&gt;Node7 -->
<g id="edge6" class="edge">
<title>Node1&#45;&gt;Node7</title>
<path fill="none" stroke="midnightblue" d="M768.61,-53.04C739.82,-42.88 699.21,-28.55 673.63,-19.52"/>
<polygon fill="midnightblue" stroke="midnightblue" points="767.66,-56.42 778.26,-56.44 769.99,-49.81 767.66,-56.42"/>
</g>
<!-- Node8 -->
<g id="node8" class="node">
<title>Node8</title>
<g id="a_node8"><a xlink:href="SPARCFrontEnd_8cpp.html" target="_top" xlink:title=" ">
<polygon fill="white" stroke="black" points="746.5,-0.5 746.5,-19.5 858.5,-19.5 858.5,-0.5 746.5,-0.5"/>
<text text-anchor="middle" x="802.5" y="-7.5" font-family="Helvetica,sans-Serif" font-size="10.00">SPARCFrontEnd.cpp</text>
</a>
</g>
</g>
<!-- Node1&#45;&gt;Node8 -->
<g id="edge7" class="edge">
<title>Node1&#45;&gt;Node8</title>
<path fill="none" stroke="midnightblue" d="M802.5,-45.8C802.5,-36.91 802.5,-26.78 802.5,-19.75"/>
<polygon fill="midnightblue" stroke="midnightblue" points="799,-46.08 802.5,-56.08 806,-46.08 799,-46.08"/>
</g>
<!-- Node9 -->
<g id="node9" class="node">
<title>Node9</title>
<g id="a_node9"><a xlink:href="PentiumFrontEnd_8cpp.html" target="_top" xlink:title=" ">
<polygon fill="white" stroke="black" points="876.5,-0.5 876.5,-19.5 996.5,-19.5 996.5,-0.5 876.5,-0.5"/>
<text text-anchor="middle" x="936.5" y="-7.5" font-family="Helvetica,sans-Serif" font-size="10.00">PentiumFrontEnd.cpp</text>
</a>
</g>
</g>
<!-- Node1&#45;&gt;Node9 -->
<g id="edge8" class="edge">
<title>Node1&#45;&gt;Node9</title>
<path fill="none" stroke="midnightblue" d="M833.18,-52.64C858.32,-42.5 893.25,-28.43 915.37,-19.52"/>
<polygon fill="midnightblue" stroke="midnightblue" points="831.7,-49.46 823.73,-56.44 834.32,-55.95 831.7,-49.46"/>
</g>
<!-- Node10 -->
<g id="node10" class="node">
<title>Node10</title>
<g id="a_node10"><a xlink:href="DOS4GWBinaryLoader_8cpp.html" target="_top" xlink:title=" ">
<polygon fill="white" stroke="black" points="1014.5,-0.5 1014.5,-19.5 1160.5,-19.5 1160.5,-0.5 1014.5,-0.5"/>
<text text-anchor="middle" x="1087.5" y="-7.5" font-family="Helvetica,sans-Serif" font-size="10.00">DOS4GWBinaryLoader.cpp</text>
</a>
</g>
</g>
<!-- Node1&#45;&gt;Node10 -->
<g id="edge9" class="edge">
<title>Node1&#45;&gt;Node10</title>
<path fill="none" stroke="midnightblue" d="M857.72,-54.54C911.58,-44.33 992.5,-29 1042.55,-19.52"/>
<polygon fill="midnightblue" stroke="midnightblue" points="856.83,-51.14 847.66,-56.44 858.14,-58.02 856.83,-51.14"/>
</g>
<!-- Node11 -->
<g id="node11" class="node">
<title>Node11</title>
<g id="a_node11"><a xlink:href="ElfBinaryLoader_8cpp.html" target="_top" xlink:title=" ">
<polygon fill="white" stroke="black" points="1178.5,-0.5 1178.5,-19.5 1292.5,-19.5 1292.5,-0.5 1178.5,-0.5"/>
<text text-anchor="middle" x="1235.5" y="-7.5" font-family="Helvetica,sans-Serif" font-size="10.00">ElfBinaryLoader.cpp</text>
</a>
</g>
</g>
<!-- Node1&#45;&gt;Node11 -->
<g id="edge10" class="edge">
<title>Node1&#45;&gt;Node11</title>
<path fill="none" stroke="midnightblue" d="M859.99,-58.19C932.27,-49.58 1060.13,-34.16 1169.5,-20 1172.37,-19.63 1175.3,-19.24 1178.27,-18.85"/>
<polygon fill="midnightblue" stroke="midnightblue" points="859.26,-54.76 849.74,-59.41 860.09,-61.71 859.26,-54.76"/>
</g>
<!-- Node12 -->
<g id="node12" class="node">
<title>Node12</title>
<g id="a_node12"><a xlink:href="MachOBinaryLoader_8cpp.html" target="_top" xlink:title=" ">
<polygon fill="white" stroke="black" points="1311,-0.5 1311,-19.5 1446,-19.5 1446,-0.5 1311,-0.5"/>
<text text-anchor="middle" x="1378.5" y="-7.5" font-family="Helvetica,sans-Serif" font-size="10.00">MachOBinaryLoader.cpp</text>
</a>
</g>
</g>
<!-- Node1&#45;&gt;Node12 -->
<g id="edge11" class="edge">
<title>Node1&#45;&gt;Node12</title>
<path fill="none" stroke="midnightblue" d="M859.69,-60.34C952.49,-52.66 1141.59,-36.55 1301.5,-20 1304.58,-19.68 1307.73,-19.35 1310.91,-19"/>
<polygon fill="midnightblue" stroke="midnightblue" points="859.35,-56.85 849.67,-61.16 859.92,-63.83 859.35,-56.85"/>
</g>
<!-- Node13 -->
<g id="node13" class="node">
<title>Node13</title>
<g id="a_node13"><a xlink:href="Win32BinaryLoader_8cpp.html" target="_top" xlink:title=" ">
<polygon fill="white" stroke="black" points="1464.5,-0.5 1464.5,-19.5 1596.5,-19.5 1596.5,-0.5 1464.5,-0.5"/>
<text text-anchor="middle" x="1530.5" y="-7.5" font-family="Helvetica,sans-Serif" font-size="10.00">Win32BinaryLoader.cpp</text>
</a>
</g>
</g>
<!-- Node1&#45;&gt;Node13 -->
<g id="edge12" class="edge">
<title>Node1&#45;&gt;Node13</title>
<path fill="none" stroke="midnightblue" d="M859.9,-62.02C973.68,-55.91 1235.81,-40.74 1455.5,-20 1458.37,-19.73 1461.3,-19.44 1464.27,-19.13"/>
<polygon fill="midnightblue" stroke="midnightblue" points="859.48,-58.54 849.69,-62.57 859.86,-65.53 859.48,-58.54"/>
</g>
<!-- Node14 -->
<g id="node14" class="node">
<title>Node14</title>
<g id="a_node14"><a xlink:href="CSymbolProvider_8cpp.html" target="_top" xlink:title=" ">
<polygon fill="white" stroke="black" points="1615,-0.5 1615,-19.5 1736,-19.5 1736,-0.5 1615,-0.5"/>
<text text-anchor="middle" x="1675.5" y="-7.5" font-family="Helvetica,sans-Serif" font-size="10.00">CSymbolProvider.cpp</text>
</a>
</g>
</g>
<!-- Node1&#45;&gt;Node14 -->
<g id="edge13" class="edge">
<title>Node1&#45;&gt;Node14</title>
<path fill="none" stroke="midnightblue" d="M859.92,-63.2C991.83,-58.76 1326.63,-45.71 1605.5,-20 1608.55,-19.72 1611.67,-19.41 1614.82,-19.07"/>
<polygon fill="midnightblue" stroke="midnightblue" points="859.53,-59.71 849.65,-63.54 859.76,-66.71 859.53,-59.71"/>
</g>
</g>
</svg>
