<?xml version="1.0" encoding="UTF-8" standalone="no"?>
<!DOCTYPE svg PUBLIC "-//W3C//DTD SVG 1.1//EN"
 "http://www.w3.org/Graphics/SVG/1.1/DTD/svg11.dtd">
<!-- Generated by graphviz version 2.43.0 (0)
 -->
<!-- Title: BinaryImage.h Pages: 1 -->
<!--zoomable 263 -->
<svg id="main" version="1.1" xmlns="http://www.w3.org/2000/svg" xmlns:xlink="http://www.w3.org/1999/xlink" xml:space="preserve" onload="init(evt)">
<style type="text/css"><![CDATA[
.edge:hover path { stroke: red; }
.edge:hover polygon { stroke: red; fill: red; }
]]></style>
<script type="text/javascript"><![CDATA[
var edges = document.getElementsByTagName('g');
if (edges && edges.length) {
  for (var i=0;i<edges.length;i++) {
    if (edges[i].id.substr(0,4)=='edge') {
      edges[i].setAttribute('class','edge');
    }
  }
}
]]></script>
        <defs>
                <circle id="rim" cx="0" cy="0" r="7"/>
                <circle id="rim2" cx="0" cy="0" r="3.5"/>
                <g id="zoomPlus">
                        <use xlink:href="#rim" fill="#404040">
                                <set attributeName="fill" to="#808080" begin="zoomplus.mouseover" end="zoomplus.mouseout"/>
                        </use>
                        <path d="M-4,0h8M0,-4v8" fill="none" stroke="white" stroke-width="1.5" pointer-events="none"/>
                </g>
                <g id="zoomMin">
                        <use xlink:href="#rim" fill="#404040">
                                <set attributeName="fill" to="#808080" begin="zoomminus.mouseover" end="zoomminus.mouseout"/>
                        </use>
                        <path d="M-4,0h8" fill="none" stroke="white" stroke-width="1.5" pointer-events="none"/>
                </g>
                <g id="dirArrow">
                        <path fill="none" stroke="white" stroke-width="1.5" d="M0,-3.0v7 M-2.5,-0.5L0,-3.0L2.5,-0.5"/>
                </g>
               <g id="resetDef">
                       <use xlink:href="#rim2" fill="#404040">
                               <set attributeName="fill" to="#808080" begin="reset.mouseover" end="reset.mouseout"/>
                       </use>
               </g>
        </defs>

<script type="text/javascript">
var viewWidth = 846;
var viewHeight = 263;
var sectionId = 'dynsection-0';
</script>
<script xlink:href="svgpan.js"/>
<svg id="graph" class="graph">
<g id="viewport">
<title>BinaryImage.h</title>
<polygon fill="white" stroke="transparent" points="-4,4 -4,-259 842,-259 842,4 -4,4"/>
<!-- Node1 -->
<g id="node1" class="node">
<title>Node1</title>
<g id="a_node1"><a xlink:title=" ">
<polygon fill="#bfbfbf" stroke="black" points="615.5,-235.5 615.5,-254.5 703.5,-254.5 703.5,-235.5 615.5,-235.5"/>
<text text-anchor="middle" x="659.5" y="-242.5" font-family="Helvetica,sans-Serif" font-size="10.00">BinaryImage.h</text>
</a>
</g>
</g>
<!-- Node2 -->
<g id="node2" class="node">
<title>Node2</title>
<g id="a_node2"><a xlink:href="Address_8h.html" target="_top" xlink:title=" ">
<polygon fill="white" stroke="black" points="226.5,-179.5 226.5,-198.5 368.5,-198.5 368.5,-179.5 226.5,-179.5"/>
<text text-anchor="middle" x="297.5" y="-186.5" font-family="Helvetica,sans-Serif" font-size="10.00">boomerang/util/Address.h</text>
</a>
</g>
</g>
<!-- Node1&#45;&gt;Node2 -->
<g id="edge1" class="edge">
<title>Node1&#45;&gt;Node2</title>
<path fill="none" stroke="midnightblue" d="M615.47,-237.43C552.94,-228.1 437.87,-210.94 364.65,-200.02"/>
<polygon fill="midnightblue" stroke="midnightblue" points="365.01,-196.53 354.6,-198.52 363.98,-203.46 365.01,-196.53"/>
</g>
<!-- Node9 -->
<g id="node9" class="node">
<title>Node9</title>
<g id="a_node9"><a xlink:href="IntervalMap_8h.html" target="_top" xlink:title=" ">
<polygon fill="white" stroke="black" points="444,-179.5 444,-198.5 605,-198.5 605,-179.5 444,-179.5"/>
<text text-anchor="middle" x="524.5" y="-186.5" font-family="Helvetica,sans-Serif" font-size="10.00">boomerang/util/IntervalMap.h</text>
</a>
</g>
</g>
<!-- Node1&#45;&gt;Node9 -->
<g id="edge10" class="edge">
<title>Node1&#45;&gt;Node9</title>
<path fill="none" stroke="midnightblue" d="M638.11,-235.44C615.79,-226.52 580.6,-212.44 555.29,-202.32"/>
<polygon fill="midnightblue" stroke="midnightblue" points="556.38,-198.98 545.79,-198.52 553.78,-205.48 556.38,-198.98"/>
</g>
<!-- Node13 -->
<g id="node13" class="node">
<title>Node13</title>
<g id="a_node13"><a xlink:title=" ">
<polygon fill="white" stroke="#bfbfbf" points="623,-179.5 623,-198.5 696,-198.5 696,-179.5 623,-179.5"/>
<text text-anchor="middle" x="659.5" y="-186.5" font-family="Helvetica,sans-Serif" font-size="10.00">QByteArray</text>
</a>
</g>
</g>
<!-- Node1&#45;&gt;Node13 -->
<g id="edge14" class="edge">
<title>Node1&#45;&gt;Node13</title>
<path fill="none" stroke="midnightblue" d="M659.5,-235.08C659.5,-228.01 659.5,-217.86 659.5,-208.99"/>
<polygon fill="midnightblue" stroke="midnightblue" points="663,-208.75 659.5,-198.75 656,-208.75 663,-208.75"/>
</g>
<!-- Node14 -->
<g id="node14" class="node">
<title>Node14</title>
<g id="a_node14"><a xlink:title=" ">
<polygon fill="white" stroke="#bfbfbf" points="714.5,-179.5 714.5,-198.5 772.5,-198.5 772.5,-179.5 714.5,-179.5"/>
<text text-anchor="middle" x="743.5" y="-186.5" font-family="Helvetica,sans-Serif" font-size="10.00">memory</text>
</a>
</g>
</g>
<!-- Node1&#45;&gt;Node14 -->
<g id="edge15" class="edge">
<title>Node1&#45;&gt;Node14</title>
<path fill="none" stroke="midnightblue" d="M673,-235.32C686.1,-226.9 706.21,-213.97 721.61,-204.07"/>
<polygon fill="midnightblue" stroke="midnightblue" points="723.52,-207.01 730.04,-198.65 719.73,-201.12 723.52,-207.01"/>
</g>
<!-- Node15 -->
<g id="node15" class="node">
<title>Node15</title>
<g id="a_node15"><a xlink:title=" ">
<polygon fill="white" stroke="#bfbfbf" points="791,-179.5 791,-198.5 838,-198.5 838,-179.5 791,-179.5"/>
<text text-anchor="middle" x="814.5" y="-186.5" font-family="Helvetica,sans-Serif" font-size="10.00">vector</text>
</a>
</g>
</g>
<!-- Node1&#45;&gt;Node15 -->
<g id="edge16" class="edge">
<title>Node1&#45;&gt;Node15</title>
<path fill="none" stroke="midnightblue" d="M684.06,-235.44C710.25,-226.32 751.9,-211.81 781.07,-201.65"/>
<polygon fill="midnightblue" stroke="midnightblue" points="782.53,-204.85 790.82,-198.25 780.22,-198.24 782.53,-204.85"/>
</g>
<!-- Node3 -->
<g id="node3" class="node">
<title>Node3</title>
<g id="a_node3"><a xlink:href="BoomerangAPI_8h.html" target="_top" xlink:title=" ">
<polygon fill="white" stroke="black" points="0,-56.5 0,-86.5 155,-86.5 155,-56.5 0,-56.5"/>
<text text-anchor="start" x="8" y="-74.5" font-family="Helvetica,sans-Serif" font-size="10.00">boomerang/core/Boomerang</text>
<text text-anchor="middle" x="77.5" y="-63.5" font-family="Helvetica,sans-Serif" font-size="10.00">API.h</text>
</a>
</g>
</g>
<!-- Node2&#45;&gt;Node3 -->
<g id="edge2" class="edge">
<title>Node2&#45;&gt;Node3</title>
<path fill="none" stroke="midnightblue" d="M226.3,-184.27C189.67,-179.17 146.18,-167.81 114.5,-143 99.5,-131.26 89.93,-111.73 84.29,-96.2"/>
<polygon fill="midnightblue" stroke="midnightblue" points="87.6,-95.08 81.13,-86.69 80.96,-97.28 87.6,-95.08"/>
</g>
<!-- Node4 -->
<g id="node4" class="node">
<title>Node4</title>
<g id="a_node4"><a xlink:href="OStream_8h.html" target="_top" xlink:title=" ">
<polygon fill="white" stroke="black" points="123.5,-123.5 123.5,-142.5 269.5,-142.5 269.5,-123.5 123.5,-123.5"/>
<text text-anchor="middle" x="196.5" y="-130.5" font-family="Helvetica,sans-Serif" font-size="10.00">boomerang/util/OStream.h</text>
</a>
</g>
</g>
<!-- Node2&#45;&gt;Node4 -->
<g id="edge3" class="edge">
<title>Node2&#45;&gt;Node4</title>
<path fill="none" stroke="midnightblue" d="M281.27,-179.32C265.15,-170.7 240.2,-157.36 221.54,-147.39"/>
<polygon fill="midnightblue" stroke="midnightblue" points="223.16,-144.28 212.69,-142.65 219.86,-150.46 223.16,-144.28"/>
</g>
<!-- Node5 -->
<g id="node5" class="node">
<title>Node5</title>
<g id="a_node5"><a xlink:href="Types_8h.html" target="_top" xlink:title=" ">
<polygon fill="white" stroke="black" points="238,-62 238,-81 369,-81 369,-62 238,-62"/>
<text text-anchor="middle" x="303.5" y="-69" font-family="Helvetica,sans-Serif" font-size="10.00">boomerang/util/Types.h</text>
</a>
</g>
</g>
<!-- Node2&#45;&gt;Node5 -->
<g id="edge8" class="edge">
<title>Node2&#45;&gt;Node5</title>
<path fill="none" stroke="midnightblue" d="M297.95,-179.32C298.92,-160.76 301.2,-116.84 302.51,-91.47"/>
<polygon fill="midnightblue" stroke="midnightblue" points="306.02,-91.45 303.04,-81.28 299.03,-91.09 306.02,-91.45"/>
</g>
<!-- Node8 -->
<g id="node8" class="node">
<title>Node8</title>
<g id="a_node8"><a xlink:title=" ">
<polygon fill="white" stroke="#bfbfbf" points="326,-123.5 326,-142.5 379,-142.5 379,-123.5 326,-123.5"/>
<text text-anchor="middle" x="352.5" y="-130.5" font-family="Helvetica,sans-Serif" font-size="10.00">QString</text>
</a>
</g>
</g>
<!-- Node2&#45;&gt;Node8 -->
<g id="edge9" class="edge">
<title>Node2&#45;&gt;Node8</title>
<path fill="none" stroke="midnightblue" d="M306.58,-179.08C314.67,-171.14 326.7,-159.34 336.41,-149.8"/>
<polygon fill="midnightblue" stroke="midnightblue" points="338.9,-152.25 343.59,-142.75 334,-147.26 338.9,-152.25"/>
</g>
<!-- Node4&#45;&gt;Node3 -->
<g id="edge4" class="edge">
<title>Node4&#45;&gt;Node3</title>
<path fill="none" stroke="midnightblue" d="M179.45,-123.48C162.58,-115.04 136.21,-101.86 114.52,-91.01"/>
<polygon fill="midnightblue" stroke="midnightblue" points="116.06,-87.86 105.55,-86.52 112.92,-94.13 116.06,-87.86"/>
</g>
<!-- Node4&#45;&gt;Node5 -->
<g id="edge5" class="edge">
<title>Node4&#45;&gt;Node5</title>
<path fill="none" stroke="midnightblue" d="M211.83,-123.48C229.47,-113.67 258.66,-97.43 279.36,-85.92"/>
<polygon fill="midnightblue" stroke="midnightblue" points="281.16,-88.93 288.2,-81.01 277.76,-82.81 281.16,-88.93"/>
</g>
<!-- Node7 -->
<g id="node7" class="node">
<title>Node7</title>
<g id="a_node7"><a xlink:title=" ">
<polygon fill="white" stroke="#bfbfbf" points="173.5,-62 173.5,-81 219.5,-81 219.5,-62 173.5,-62"/>
<text text-anchor="middle" x="196.5" y="-69" font-family="Helvetica,sans-Serif" font-size="10.00">cstdio</text>
</a>
</g>
</g>
<!-- Node4&#45;&gt;Node7 -->
<g id="edge7" class="edge">
<title>Node4&#45;&gt;Node7</title>
<path fill="none" stroke="midnightblue" d="M196.5,-123.48C196.5,-115.08 196.5,-101.98 196.5,-91.16"/>
<polygon fill="midnightblue" stroke="midnightblue" points="200,-91.01 196.5,-81.01 193,-91.01 200,-91.01"/>
</g>
<!-- Node6 -->
<g id="node6" class="node">
<title>Node6</title>
<g id="a_node6"><a xlink:title=" ">
<polygon fill="white" stroke="#bfbfbf" points="278.5,-0.5 278.5,-19.5 328.5,-19.5 328.5,-0.5 278.5,-0.5"/>
<text text-anchor="middle" x="303.5" y="-7.5" font-family="Helvetica,sans-Serif" font-size="10.00">cstdint</text>
</a>
</g>
</g>
<!-- Node5&#45;&gt;Node6 -->
<g id="edge6" class="edge">
<title>Node5&#45;&gt;Node6</title>
<path fill="none" stroke="midnightblue" d="M303.5,-61.98C303.5,-53.58 303.5,-40.48 303.5,-29.66"/>
<polygon fill="midnightblue" stroke="midnightblue" points="307,-29.51 303.5,-19.51 300,-29.51 307,-29.51"/>
</g>
<!-- Node10 -->
<g id="node10" class="node">
<title>Node10</title>
<g id="a_node10"><a xlink:href="Interval_8h.html" target="_top" xlink:title=" ">
<polygon fill="white" stroke="black" points="397.5,-123.5 397.5,-142.5 537.5,-142.5 537.5,-123.5 397.5,-123.5"/>
<text text-anchor="middle" x="467.5" y="-130.5" font-family="Helvetica,sans-Serif" font-size="10.00">boomerang/util/Interval.h</text>
</a>
</g>
</g>
<!-- Node9&#45;&gt;Node10 -->
<g id="edge11" class="edge">
<title>Node9&#45;&gt;Node10</title>
<path fill="none" stroke="midnightblue" d="M515.34,-179.32C507,-171.42 494.47,-159.55 484.32,-149.94"/>
<polygon fill="midnightblue" stroke="midnightblue" points="486.49,-147.17 476.82,-142.83 481.68,-152.25 486.49,-147.17"/>
</g>
<!-- Node11 -->
<g id="node11" class="node">
<title>Node11</title>
<g id="a_node11"><a xlink:title=" ">
<polygon fill="white" stroke="#bfbfbf" points="555.5,-123.5 555.5,-142.5 607.5,-142.5 607.5,-123.5 555.5,-123.5"/>
<text text-anchor="middle" x="581.5" y="-130.5" font-family="Helvetica,sans-Serif" font-size="10.00">cassert</text>
</a>
</g>
</g>
<!-- Node9&#45;&gt;Node11 -->
<g id="edge12" class="edge">
<title>Node9&#45;&gt;Node11</title>
<path fill="none" stroke="midnightblue" d="M533.66,-179.32C542,-171.42 554.53,-159.55 564.68,-149.94"/>
<polygon fill="midnightblue" stroke="midnightblue" points="567.32,-152.25 572.18,-142.83 562.51,-147.17 567.32,-152.25"/>
</g>
<!-- Node12 -->
<g id="node12" class="node">
<title>Node12</title>
<g id="a_node12"><a xlink:title=" ">
<polygon fill="white" stroke="#bfbfbf" points="625.5,-123.5 625.5,-142.5 663.5,-142.5 663.5,-123.5 625.5,-123.5"/>
<text text-anchor="middle" x="644.5" y="-130.5" font-family="Helvetica,sans-Serif" font-size="10.00">map</text>
</a>
</g>
</g>
<!-- Node9&#45;&gt;Node12 -->
<g id="edge13" class="edge">
<title>Node9&#45;&gt;Node12</title>
<path fill="none" stroke="midnightblue" d="M543.51,-179.44C563.09,-170.64 593.81,-156.81 616.23,-146.72"/>
<polygon fill="midnightblue" stroke="midnightblue" points="617.89,-149.81 625.57,-142.52 615.02,-143.43 617.89,-149.81"/>
</g>
</g>
</svg>
        <g id="navigator" transform="translate(0 0)" fill="#404254">
                <rect fill="#f2f5e9" fill-opacity="0.5" stroke="#606060" stroke-width=".5" x="0" y="0" width="60" height="60"/>
                <use id="zoomplus" xlink:href="#zoomPlus" x="17" y="9" onmousedown="handleZoom(evt,'in')"/>
                <use id="zoomminus" xlink:href="#zoomMin" x="42" y="9" onmousedown="handleZoom(evt,'out')"/>
                <use id="reset" xlink:href="#resetDef" x="30" y="36" onmousedown="handleReset()"/>
                <g id="arrowUp" xlink:href="#dirArrow" transform="translate(30 24)" onmousedown="handlePan(0,-1)">
                  <use xlink:href="#rim" fill="#404040">
                        <set attributeName="fill" to="#808080" begin="arrowUp.mouseover" end="arrowUp.mouseout"/>
                  </use>
                  <path fill="none" stroke="white" stroke-width="1.5" d="M0,-3.0v7 M-2.5,-0.5L0,-3.0L2.5,-0.5"/>
                </g>
                <g id="arrowRight" xlink:href="#dirArrow" transform="rotate(90) translate(36 -43)" onmousedown="handlePan(1,0)">
                  <use xlink:href="#rim" fill="#404040">
                        <set attributeName="fill" to="#808080" begin="arrowRight.mouseover" end="arrowRight.mouseout"/>
                  </use>
                  <path fill="none" stroke="white" stroke-width="1.5" d="M0,-3.0v7 M-2.5,-0.5L0,-3.0L2.5,-0.5"/>
                </g>
                <g id="arrowDown" xlink:href="#dirArrow" transform="rotate(180) translate(-30 -48)" onmousedown="handlePan(0,1)">
                  <use xlink:href="#rim" fill="#404040">
                        <set attributeName="fill" to="#808080" begin="arrowDown.mouseover" end="arrowDown.mouseout"/>
                  </use>
                  <path fill="none" stroke="white" stroke-width="1.5" d="M0,-3.0v7 M-2.5,-0.5L0,-3.0L2.5,-0.5"/>
                </g>
                <g id="arrowLeft" xlink:href="#dirArrow" transform="rotate(270) translate(-36 17)" onmousedown="handlePan(-1,0)">
                  <use xlink:href="#rim" fill="#404040">
                        <set attributeName="fill" to="#808080" begin="arrowLeft.mouseover" end="arrowLeft.mouseout"/>
                  </use>
                  <path fill="none" stroke="white" stroke-width="1.5" d="M0,-3.0v7 M-2.5,-0.5L0,-3.0L2.5,-0.5"/>
                </g>
        </g>
        <svg viewBox="0 0 15 15" width="100%" height="30px" preserveAspectRatio="xMaxYMin meet">
         <g id="arrow_out" transform="scale(0.3 0.3)">
          <a xlink:href="BinaryImage_8h__incl_org.svg" target="_base">
           <rect id="button" ry="5" rx="5" y="6" x="6" height="38" width="38"
                fill="#f2f5e9" fill-opacity="0.5" stroke="#606060" stroke-width="1.0"/>
           <path id="arrow"
             d="M 11.500037,31.436501 C 11.940474,20.09759 22.043105,11.32322 32.158766,21.979434 L 37.068811,17.246167 C 37.068811,17.246167 37.088388,32 37.088388,32 L 22.160133,31.978069 C 22.160133,31.978069 26.997745,27.140456 26.997745,27.140456 C 18.528582,18.264221 13.291696,25.230495 11.500037,31.436501 z"
             style="fill:#404040;"/>
          </a>
         </g>
        </svg>
</svg>
