<?xml version="1.0" encoding="UTF-8" standalone="no"?>
<!DOCTYPE svg PUBLIC "-//W3C//DTD SVG 1.1//EN"
 "http://www.w3.org/Graphics/SVG/1.1/DTD/svg11.dtd">
<!-- Generated by graphviz version 2.43.0 (0)
 -->
<!-- Title: Binary.cpp Pages: 1 -->
<svg width="1655pt" height="408pt"
 viewBox="0.00 0.00 1654.50 408.00" xmlns="http://www.w3.org/2000/svg" xmlns:xlink="http://www.w3.org/1999/xlink">
<g id="graph0" class="graph" transform="scale(1 1) rotate(0) translate(4 404)">
<title>Binary.cpp</title>
<polygon fill="white" stroke="transparent" points="-4,4 -4,-404 1650.5,-404 1650.5,4 -4,4"/>
<!-- Node1 -->
<g id="node1" class="node">
<title>Node1</title>
<g id="a_node1"><a xlink:title=" ">
<polygon fill="#bfbfbf" stroke="black" points="844,-380.5 844,-399.5 911,-399.5 911,-380.5 844,-380.5"/>
<text text-anchor="middle" x="877.5" y="-387.5" font-family="Helvetica,sans-Serif" font-size="10.00">Binary.cpp</text>
</a>
</g>
</g>
<!-- Node2 -->
<g id="node2" class="node">
<title>Node2</title>
<g id="a_node2"><a xlink:href="Binary_8h.html" target="_top" xlink:title=" ">
<polygon fill="white" stroke="black" points="1018.5,-319 1018.5,-338 1074.5,-338 1074.5,-319 1018.5,-319"/>
<text text-anchor="middle" x="1046.5" y="-326" font-family="Helvetica,sans-Serif" font-size="10.00">Binary.h</text>
</a>
</g>
</g>
<!-- Node1&#45;&gt;Node2 -->
<g id="edge1" class="edge">
<title>Node1&#45;&gt;Node2</title>
<path fill="none" stroke="midnightblue" d="M903.19,-380.46C929.67,-371.59 972.1,-357.19 1008.5,-344 1010.6,-343.24 1012.77,-342.44 1014.95,-341.63"/>
<polygon fill="midnightblue" stroke="midnightblue" points="1016.32,-344.86 1024.44,-338.06 1013.85,-338.31 1016.32,-344.86"/>
</g>
<!-- Node18 -->
<g id="node18" class="node">
<title>Node18</title>
<g id="a_node18"><a xlink:href="Const_8h.html" target="_top" xlink:title=" ">
<polygon fill="white" stroke="black" points="221,-252 221,-271 370,-271 370,-252 221,-252"/>
<text text-anchor="middle" x="295.5" y="-259" font-family="Helvetica,sans-Serif" font-size="10.00">boomerang/ssl/exp/Const.h</text>
</a>
</g>
</g>
<!-- Node1&#45;&gt;Node18 -->
<g id="edge20" class="edge">
<title>Node1&#45;&gt;Node18</title>
<path fill="none" stroke="midnightblue" d="M843.95,-389.3C716.21,-390.12 265.19,-389.72 222.5,-344 200.51,-320.45 239.72,-292.32 268.68,-276.03"/>
<polygon fill="midnightblue" stroke="midnightblue" points="270.5,-279.02 277.63,-271.17 267.17,-272.86 270.5,-279.02"/>
</g>
<!-- Node21 -->
<g id="node21" class="node">
<title>Node21</title>
<g id="a_node21"><a xlink:href="RefExp_8h.html" target="_top" xlink:title=" ">
<polygon fill="white" stroke="black" points="1092.5,-319 1092.5,-338 1248.5,-338 1248.5,-319 1092.5,-319"/>
<text text-anchor="middle" x="1170.5" y="-326" font-family="Helvetica,sans-Serif" font-size="10.00">boomerang/ssl/exp/RefExp.h</text>
</a>
</g>
</g>
<!-- Node1&#45;&gt;Node21 -->
<g id="edge28" class="edge">
<title>Node1&#45;&gt;Node21</title>
<path fill="none" stroke="midnightblue" d="M911.11,-382.17C961.84,-371.87 1058.39,-352.27 1118.31,-340.1"/>
<polygon fill="midnightblue" stroke="midnightblue" points="1119.23,-343.48 1128.33,-338.06 1117.83,-336.62 1119.23,-343.48"/>
</g>
<!-- Node22 -->
<g id="node22" class="node">
<title>Node22</title>
<g id="a_node22"><a xlink:href="Terminal_8h.html" target="_top" xlink:title=" ">
<polygon fill="white" stroke="black" points="1122.5,-252 1122.5,-271 1286.5,-271 1286.5,-252 1122.5,-252"/>
<text text-anchor="middle" x="1204.5" y="-259" font-family="Helvetica,sans-Serif" font-size="10.00">boomerang/ssl/exp/Terminal.h</text>
</a>
</g>
</g>
<!-- Node1&#45;&gt;Node22 -->
<g id="edge30" class="edge">
<title>Node1&#45;&gt;Node22</title>
<path fill="none" stroke="midnightblue" d="M911.1,-387.53C999.74,-383.29 1234.64,-369.73 1257.5,-344 1276.3,-322.84 1247.71,-294.42 1225.76,-277.34"/>
<polygon fill="midnightblue" stroke="midnightblue" points="1227.61,-274.35 1217.5,-271.18 1223.43,-279.96 1227.61,-274.35"/>
</g>
<!-- Node23 -->
<g id="node23" class="node">
<title>Node23</title>
<g id="a_node23"><a xlink:href="BooleanType_8h.html" target="_top" xlink:title=" ">
<polygon fill="white" stroke="black" points="363,-313.5 363,-343.5 476,-343.5 476,-313.5 363,-313.5"/>
<text text-anchor="start" x="371" y="-331.5" font-family="Helvetica,sans-Serif" font-size="10.00">boomerang/ssl/type</text>
<text text-anchor="middle" x="419.5" y="-320.5" font-family="Helvetica,sans-Serif" font-size="10.00">/BooleanType.h</text>
</a>
</g>
</g>
<!-- Node1&#45;&gt;Node23 -->
<g id="edge32" class="edge">
<title>Node1&#45;&gt;Node23</title>
<path fill="none" stroke="midnightblue" d="M843.95,-386.36C777.46,-380.87 624.14,-366.93 486.06,-344.16"/>
<polygon fill="midnightblue" stroke="midnightblue" points="486.59,-340.7 476.15,-342.51 485.44,-347.61 486.59,-340.7"/>
</g>
<!-- Node25 -->
<g id="node25" class="node">
<title>Node25</title>
<g id="a_node25"><a xlink:href="CompoundType_8h.html" target="_top" xlink:title=" ">
<polygon fill="white" stroke="black" points="62,-313.5 62,-343.5 175,-343.5 175,-313.5 62,-313.5"/>
<text text-anchor="start" x="70" y="-331.5" font-family="Helvetica,sans-Serif" font-size="10.00">boomerang/ssl/type</text>
<text text-anchor="middle" x="118.5" y="-320.5" font-family="Helvetica,sans-Serif" font-size="10.00">/CompoundType.h</text>
</a>
</g>
</g>
<!-- Node1&#45;&gt;Node25 -->
<g id="edge39" class="edge">
<title>Node1&#45;&gt;Node25</title>
<path fill="none" stroke="midnightblue" d="M843.69,-388.42C743.44,-386.34 439.23,-377.51 189.5,-344 188.2,-343.83 186.89,-343.64 185.57,-343.45"/>
<polygon fill="midnightblue" stroke="midnightblue" points="185.78,-339.94 175.35,-341.82 184.67,-346.85 185.78,-339.94"/>
</g>
<!-- Node26 -->
<g id="node26" class="node">
<title>Node26</title>
<g id="a_node26"><a xlink:href="FloatType_8h.html" target="_top" xlink:title=" ">
<polygon fill="white" stroke="black" points="494,-313.5 494,-343.5 607,-343.5 607,-313.5 494,-313.5"/>
<text text-anchor="start" x="502" y="-331.5" font-family="Helvetica,sans-Serif" font-size="10.00">boomerang/ssl/type</text>
<text text-anchor="middle" x="550.5" y="-320.5" font-family="Helvetica,sans-Serif" font-size="10.00">/FloatType.h</text>
</a>
</g>
</g>
<!-- Node1&#45;&gt;Node26 -->
<g id="edge42" class="edge">
<title>Node1&#45;&gt;Node26</title>
<path fill="none" stroke="midnightblue" d="M843.9,-383.77C795.81,-376.17 704.34,-361.28 617.23,-344.29"/>
<polygon fill="midnightblue" stroke="midnightblue" points="617.67,-340.81 607.19,-342.32 616.32,-347.68 617.67,-340.81"/>
</g>
<!-- Node27 -->
<g id="node27" class="node">
<title>Node27</title>
<g id="a_node27"><a xlink:href="IntegerType_8h.html" target="_top" xlink:title=" ">
<polygon fill="white" stroke="black" points="625,-313.5 625,-343.5 738,-343.5 738,-313.5 625,-313.5"/>
<text text-anchor="start" x="633" y="-331.5" font-family="Helvetica,sans-Serif" font-size="10.00">boomerang/ssl/type</text>
<text text-anchor="middle" x="681.5" y="-320.5" font-family="Helvetica,sans-Serif" font-size="10.00">/IntegerType.h</text>
</a>
</g>
</g>
<!-- Node1&#45;&gt;Node27 -->
<g id="edge44" class="edge">
<title>Node1&#45;&gt;Node27</title>
<path fill="none" stroke="midnightblue" d="M849.42,-380.48C820.39,-371.66 774.29,-357.67 737.73,-346.57"/>
<polygon fill="midnightblue" stroke="midnightblue" points="738.28,-343.08 727.69,-343.52 736.25,-349.78 738.28,-343.08"/>
</g>
<!-- Node28 -->
<g id="node28" class="node">
<title>Node28</title>
<g id="a_node28"><a xlink:href="PointerType_8h.html" target="_top" xlink:title=" ">
<polygon fill="white" stroke="black" points="756,-313.5 756,-343.5 869,-343.5 869,-313.5 756,-313.5"/>
<text text-anchor="start" x="764" y="-331.5" font-family="Helvetica,sans-Serif" font-size="10.00">boomerang/ssl/type</text>
<text text-anchor="middle" x="812.5" y="-320.5" font-family="Helvetica,sans-Serif" font-size="10.00">/PointerType.h</text>
</a>
</g>
</g>
<!-- Node1&#45;&gt;Node28 -->
<g id="edge46" class="edge">
<title>Node1&#45;&gt;Node28</title>
<path fill="none" stroke="midnightblue" d="M868.19,-380.48C859.63,-372.64 846.6,-360.71 835.29,-350.37"/>
<polygon fill="midnightblue" stroke="midnightblue" points="837.56,-347.69 827.82,-343.52 832.83,-352.86 837.56,-347.69"/>
</g>
<!-- Node29 -->
<g id="node29" class="node">
<title>Node29</title>
<g id="a_node29"><a xlink:href="SizeType_8h.html" target="_top" xlink:title=" ">
<polygon fill="white" stroke="black" points="887,-313.5 887,-343.5 1000,-343.5 1000,-313.5 887,-313.5"/>
<text text-anchor="start" x="895" y="-331.5" font-family="Helvetica,sans-Serif" font-size="10.00">boomerang/ssl/type</text>
<text text-anchor="middle" x="943.5" y="-320.5" font-family="Helvetica,sans-Serif" font-size="10.00">/SizeType.h</text>
</a>
</g>
</g>
<!-- Node1&#45;&gt;Node29 -->
<g id="edge48" class="edge">
<title>Node1&#45;&gt;Node29</title>
<path fill="none" stroke="midnightblue" d="M886.96,-380.48C895.64,-372.64 908.88,-360.71 920.36,-350.37"/>
<polygon fill="midnightblue" stroke="midnightblue" points="922.86,-352.82 927.95,-343.52 918.17,-347.62 922.86,-352.82"/>
</g>
<!-- Node30 -->
<g id="node30" class="node">
<title>Node30</title>
<g id="a_node30"><a xlink:href="VoidType_8h.html" target="_top" xlink:title=" ">
<polygon fill="white" stroke="black" points="232,-313.5 232,-343.5 345,-343.5 345,-313.5 232,-313.5"/>
<text text-anchor="start" x="240" y="-331.5" font-family="Helvetica,sans-Serif" font-size="10.00">boomerang/ssl/type</text>
<text text-anchor="middle" x="288.5" y="-320.5" font-family="Helvetica,sans-Serif" font-size="10.00">/VoidType.h</text>
</a>
</g>
</g>
<!-- Node1&#45;&gt;Node30 -->
<g id="edge50" class="edge">
<title>Node1&#45;&gt;Node30</title>
<path fill="none" stroke="midnightblue" d="M843.9,-387.68C761.96,-384.11 545.18,-372.69 355.3,-344.15"/>
<polygon fill="midnightblue" stroke="midnightblue" points="355.55,-340.65 345.14,-342.6 354.49,-347.57 355.55,-340.65"/>
</g>
<!-- Node31 -->
<g id="node31" class="node">
<title>Node31</title>
<g id="a_node31"><a xlink:href="Log_8h.html" target="_top" xlink:title=" ">
<polygon fill="white" stroke="black" points="0,-246.5 0,-276.5 109,-276.5 109,-246.5 0,-246.5"/>
<text text-anchor="start" x="8" y="-264.5" font-family="Helvetica,sans-Serif" font-size="10.00">boomerang/util/log</text>
<text text-anchor="middle" x="54.5" y="-253.5" font-family="Helvetica,sans-Serif" font-size="10.00">/Log.h</text>
</a>
</g>
</g>
<!-- Node1&#45;&gt;Node31 -->
<g id="edge52" class="edge">
<title>Node1&#45;&gt;Node31</title>
<path fill="none" stroke="midnightblue" d="M843.85,-388.44C692.41,-385.77 80.15,-373.2 52.5,-344 38.28,-328.98 40.95,-304.55 45.85,-286.35"/>
<polygon fill="midnightblue" stroke="midnightblue" points="49.22,-287.31 48.8,-276.72 42.53,-285.26 49.22,-287.31"/>
</g>
<!-- Node32 -->
<g id="node32" class="node">
<title>Node32</title>
<g id="a_node32"><a xlink:href="ExpModifier_8h.html" target="_top" xlink:title=" ">
<polygon fill="white" stroke="black" points="1156.5,-123.5 1156.5,-153.5 1324.5,-153.5 1324.5,-123.5 1156.5,-123.5"/>
<text text-anchor="start" x="1164.5" y="-141.5" font-family="Helvetica,sans-Serif" font-size="10.00">boomerang/visitor/expmodifier</text>
<text text-anchor="middle" x="1240.5" y="-130.5" font-family="Helvetica,sans-Serif" font-size="10.00">/ExpModifier.h</text>
</a>
</g>
</g>
<!-- Node1&#45;&gt;Node32 -->
<g id="edge57" class="edge">
<title>Node1&#45;&gt;Node32</title>
<path fill="none" stroke="midnightblue" d="M911.02,-389.73C996.45,-390.9 1219.46,-389.42 1274.5,-344 1308.86,-315.65 1306.02,-289.28 1295.5,-246 1287.97,-215 1269.73,-182.93 1256.31,-162.2"/>
<polygon fill="midnightblue" stroke="midnightblue" points="1259.17,-160.17 1250.72,-153.77 1253.34,-164.04 1259.17,-160.17"/>
</g>
<!-- Node33 -->
<g id="node33" class="node">
<title>Node33</title>
<g id="a_node33"><a xlink:href="ExpVisitor_8h.html" target="_top" xlink:title=" ">
<polygon fill="white" stroke="black" points="1418.5,-123.5 1418.5,-153.5 1576.5,-153.5 1576.5,-123.5 1418.5,-123.5"/>
<text text-anchor="start" x="1426.5" y="-141.5" font-family="Helvetica,sans-Serif" font-size="10.00">boomerang/visitor/expvisitor</text>
<text text-anchor="middle" x="1497.5" y="-130.5" font-family="Helvetica,sans-Serif" font-size="10.00">/ExpVisitor.h</text>
</a>
</g>
</g>
<!-- Node1&#45;&gt;Node33 -->
<g id="edge60" class="edge">
<title>Node1&#45;&gt;Node33</title>
<path fill="none" stroke="midnightblue" d="M911.06,-388.34C998.48,-386.18 1231.13,-377.36 1299.5,-344 1385.75,-301.92 1455.08,-206.01 1483.53,-162.15"/>
<polygon fill="midnightblue" stroke="midnightblue" points="1486.54,-163.93 1488.97,-153.62 1480.64,-160.17 1486.54,-163.93"/>
</g>
<!-- Node34 -->
<g id="node34" class="node">
<title>Node34</title>
<g id="a_node34"><a xlink:title=" ">
<polygon fill="white" stroke="#bfbfbf" points="1457,-319 1457,-338 1572,-338 1572,-319 1457,-319"/>
<text text-anchor="middle" x="1514.5" y="-326" font-family="Helvetica,sans-Serif" font-size="10.00">QRegularExpression</text>
</a>
</g>
</g>
<!-- Node1&#45;&gt;Node34 -->
<g id="edge63" class="edge">
<title>Node1&#45;&gt;Node34</title>
<path fill="none" stroke="midnightblue" d="M911.09,-387.72C998.82,-384.09 1242,-372.07 1442.5,-344 1450.31,-342.91 1458.56,-341.49 1466.56,-339.98"/>
<polygon fill="midnightblue" stroke="midnightblue" points="1467.39,-343.39 1476.53,-338.03 1466.05,-336.52 1467.39,-343.39"/>
</g>
<!-- Node35 -->
<g id="node35" class="node">
<title>Node35</title>
<g id="a_node35"><a xlink:title=" ">
<polygon fill="white" stroke="#bfbfbf" points="1590.5,-319 1590.5,-338 1646.5,-338 1646.5,-319 1590.5,-319"/>
<text text-anchor="middle" x="1618.5" y="-326" font-family="Helvetica,sans-Serif" font-size="10.00">numeric</text>
</a>
</g>
</g>
<!-- Node1&#45;&gt;Node35 -->
<g id="edge64" class="edge">
<title>Node1&#45;&gt;Node35</title>
<path fill="none" stroke="midnightblue" d="M911.24,-388.22C1033.26,-385.2 1451.33,-372.93 1581.5,-344 1584.5,-343.33 1587.58,-342.46 1590.62,-341.47"/>
<polygon fill="midnightblue" stroke="midnightblue" points="1591.84,-344.75 1600.03,-338.03 1589.44,-338.17 1591.84,-344.75"/>
</g>
<!-- Node3 -->
<g id="node3" class="node">
<title>Node3</title>
<g id="a_node3"><a xlink:href="Unary_8h.html" target="_top" xlink:title=" ">
<polygon fill="white" stroke="black" points="955,-252 955,-271 1104,-271 1104,-252 955,-252"/>
<text text-anchor="middle" x="1029.5" y="-259" font-family="Helvetica,sans-Serif" font-size="10.00">boomerang/ssl/exp/Unary.h</text>
</a>
</g>
</g>
<!-- Node2&#45;&gt;Node3 -->
<g id="edge2" class="edge">
<title>Node2&#45;&gt;Node3</title>
<path fill="none" stroke="midnightblue" d="M1044.21,-318.73C1041.68,-309.09 1037.56,-293.3 1034.31,-280.91"/>
<polygon fill="midnightblue" stroke="midnightblue" points="1037.67,-279.92 1031.76,-271.13 1030.9,-281.69 1037.67,-279.92"/>
</g>
<!-- Node4 -->
<g id="node4" class="node">
<title>Node4</title>
<g id="a_node4"><a xlink:href="Exp_8h.html" target="_top" xlink:title=" ">
<polygon fill="white" stroke="black" points="820.5,-190.5 820.5,-209.5 960.5,-209.5 960.5,-190.5 820.5,-190.5"/>
<text text-anchor="middle" x="890.5" y="-197.5" font-family="Helvetica,sans-Serif" font-size="10.00">boomerang/ssl/exp/Exp.h</text>
</a>
</g>
</g>
<!-- Node3&#45;&gt;Node4 -->
<g id="edge3" class="edge">
<title>Node3&#45;&gt;Node4</title>
<path fill="none" stroke="midnightblue" d="M1009.58,-251.98C986.05,-241.9 946.69,-225.05 919.71,-213.5"/>
<polygon fill="midnightblue" stroke="midnightblue" points="920.95,-210.23 910.38,-209.51 918.19,-216.66 920.95,-210.23"/>
</g>
<!-- Node5 -->
<g id="node5" class="node">
<title>Node5</title>
<g id="a_node5"><a xlink:href="ExpHelp_8h.html" target="_top" xlink:title=" ">
<polygon fill="white" stroke="black" points="768.5,-129 768.5,-148 930.5,-148 930.5,-129 768.5,-129"/>
<text text-anchor="middle" x="849.5" y="-136" font-family="Helvetica,sans-Serif" font-size="10.00">boomerang/ssl/exp/ExpHelp.h</text>
</a>
</g>
</g>
<!-- Node4&#45;&gt;Node5 -->
<g id="edge4" class="edge">
<title>Node4&#45;&gt;Node5</title>
<path fill="none" stroke="midnightblue" d="M884.63,-190.48C878.54,-181.64 868.86,-167.59 861.2,-156.48"/>
<polygon fill="midnightblue" stroke="midnightblue" points="863.92,-154.26 855.36,-148.01 858.16,-158.23 863.92,-154.26"/>
</g>
<!-- Node7 -->
<g id="node7" class="node">
<title>Node7</title>
<g id="a_node7"><a xlink:title=" ">
<polygon fill="white" stroke="#bfbfbf" points="1267.5,-62 1267.5,-81 1325.5,-81 1325.5,-62 1267.5,-62"/>
<text text-anchor="middle" x="1296.5" y="-69" font-family="Helvetica,sans-Serif" font-size="10.00">memory</text>
</a>
</g>
</g>
<!-- Node4&#45;&gt;Node7 -->
<g id="edge17" class="edge">
<title>Node4&#45;&gt;Node7</title>
<path fill="none" stroke="midnightblue" d="M934.64,-190.45C965.26,-183.39 1006.34,-171.64 1039.5,-154 1058.74,-143.77 1057.93,-132.59 1077.5,-123 1136.34,-94.18 1212.22,-81.44 1257.46,-76.09"/>
<polygon fill="midnightblue" stroke="midnightblue" points="1257.91,-79.56 1267.45,-74.96 1257.13,-72.6 1257.91,-79.56"/>
</g>
<!-- Node8 -->
<g id="node8" class="node">
<title>Node8</title>
<g id="a_node8"><a xlink:href="Operator_8h.html" target="_top" xlink:title=" ">
<polygon fill="white" stroke="black" points="586.5,-129 586.5,-148 750.5,-148 750.5,-129 586.5,-129"/>
<text text-anchor="middle" x="668.5" y="-136" font-family="Helvetica,sans-Serif" font-size="10.00">boomerang/ssl/exp/Operator.h</text>
</a>
</g>
</g>
<!-- Node4&#45;&gt;Node8 -->
<g id="edge7" class="edge">
<title>Node4&#45;&gt;Node8</title>
<path fill="none" stroke="midnightblue" d="M858.69,-190.48C819.62,-180 753.24,-162.21 710.14,-150.66"/>
<polygon fill="midnightblue" stroke="midnightblue" points="710.81,-147.22 700.25,-148.01 709,-153.98 710.81,-147.22"/>
</g>
<!-- Node9 -->
<g id="node9" class="node">
<title>Node9</title>
<g id="a_node9"><a xlink:href="OStream_8h.html" target="_top" xlink:title=" ">
<polygon fill="white" stroke="black" points="274.5,-129 274.5,-148 420.5,-148 420.5,-129 274.5,-129"/>
<text text-anchor="middle" x="347.5" y="-136" font-family="Helvetica,sans-Serif" font-size="10.00">boomerang/util/OStream.h</text>
</a>
</g>
</g>
<!-- Node4&#45;&gt;Node9 -->
<g id="edge9" class="edge">
<title>Node4&#45;&gt;Node9</title>
<path fill="none" stroke="midnightblue" d="M820.35,-191.31C720.5,-180.37 537.71,-160.34 431.01,-148.65"/>
<polygon fill="midnightblue" stroke="midnightblue" points="431.25,-145.16 420.93,-147.55 430.49,-152.11 431.25,-145.16"/>
</g>
<!-- Node13 -->
<g id="node13" class="node">
<title>Node13</title>
<g id="a_node13"><a xlink:title=" ">
<polygon fill="white" stroke="#bfbfbf" points="515,-129 515,-148 568,-148 568,-129 515,-129"/>
<text text-anchor="middle" x="541.5" y="-136" font-family="Helvetica,sans-Serif" font-size="10.00">QString</text>
</a>
</g>
</g>
<!-- Node4&#45;&gt;Node13 -->
<g id="edge14" class="edge">
<title>Node4&#45;&gt;Node13</title>
<path fill="none" stroke="midnightblue" d="M820.22,-193.75C756.14,-187.83 659.27,-176 577.5,-154 574.99,-153.33 572.43,-152.53 569.88,-151.66"/>
<polygon fill="midnightblue" stroke="midnightblue" points="570.86,-148.28 560.27,-148.05 568.4,-154.84 570.86,-148.28"/>
</g>
<!-- Node14 -->
<g id="node14" class="node">
<title>Node14</title>
<g id="a_node14"><a xlink:title=" ">
<polygon fill="white" stroke="#bfbfbf" points="1086.5,-129 1086.5,-148 1138.5,-148 1138.5,-129 1086.5,-129"/>
<text text-anchor="middle" x="1112.5" y="-136" font-family="Helvetica,sans-Serif" font-size="10.00">cassert</text>
</a>
</g>
</g>
<!-- Node4&#45;&gt;Node14 -->
<g id="edge15" class="edge">
<title>Node4&#45;&gt;Node14</title>
<path fill="none" stroke="midnightblue" d="M930.24,-190.44C967.33,-182.16 1024.07,-168.72 1072.5,-154 1075.13,-153.2 1077.83,-152.33 1080.54,-151.42"/>
<polygon fill="midnightblue" stroke="midnightblue" points="1081.92,-154.65 1090.21,-148.05 1079.62,-148.04 1081.92,-154.65"/>
</g>
<!-- Node15 -->
<g id="node15" class="node">
<title>Node15</title>
<g id="a_node15"><a xlink:title=" ">
<polygon fill="white" stroke="#bfbfbf" points="948.5,-129 948.5,-148 980.5,-148 980.5,-129 948.5,-129"/>
<text text-anchor="middle" x="964.5" y="-136" font-family="Helvetica,sans-Serif" font-size="10.00">list</text>
</a>
</g>
</g>
<!-- Node4&#45;&gt;Node15 -->
<g id="edge16" class="edge">
<title>Node4&#45;&gt;Node15</title>
<path fill="none" stroke="midnightblue" d="M901.1,-190.48C912.75,-181.11 931.69,-165.88 945.83,-154.51"/>
<polygon fill="midnightblue" stroke="midnightblue" points="948.32,-157 953.92,-148.01 943.93,-151.55 948.32,-157"/>
</g>
<!-- Node16 -->
<g id="node16" class="node">
<title>Node16</title>
<g id="a_node16"><a xlink:title=" ">
<polygon fill="white" stroke="#bfbfbf" points="998.5,-129 998.5,-148 1030.5,-148 1030.5,-129 998.5,-129"/>
<text text-anchor="middle" x="1014.5" y="-136" font-family="Helvetica,sans-Serif" font-size="10.00">set</text>
</a>
</g>
</g>
<!-- Node4&#45;&gt;Node16 -->
<g id="edge18" class="edge">
<title>Node4&#45;&gt;Node16</title>
<path fill="none" stroke="midnightblue" d="M910.88,-190.44C931.09,-181.79 962.82,-167.76 989.5,-154 990.17,-153.66 990.85,-153.3 991.53,-152.94"/>
<polygon fill="midnightblue" stroke="midnightblue" points="993.32,-155.95 1000.36,-148.03 989.92,-149.83 993.32,-155.95"/>
</g>
<!-- Node17 -->
<g id="node17" class="node">
<title>Node17</title>
<g id="a_node17"><a xlink:title=" ">
<polygon fill="white" stroke="#bfbfbf" points="114,-129 114,-148 161,-148 161,-129 114,-129"/>
<text text-anchor="middle" x="137.5" y="-136" font-family="Helvetica,sans-Serif" font-size="10.00">vector</text>
</a>
</g>
</g>
<!-- Node4&#45;&gt;Node17 -->
<g id="edge19" class="edge">
<title>Node4&#45;&gt;Node17</title>
<path fill="none" stroke="midnightblue" d="M820.13,-194.87C704.34,-187.88 466.44,-172.61 265.5,-154 233.4,-151.03 196.87,-146.81 171.07,-143.68"/>
<polygon fill="midnightblue" stroke="midnightblue" points="171.41,-140.2 161.06,-142.46 170.56,-147.15 171.41,-140.2"/>
</g>
<!-- Node6 -->
<g id="node6" class="node">
<title>Node6</title>
<g id="a_node6"><a xlink:href="BoomerangAPI_8h.html" target="_top" xlink:title=" ">
<polygon fill="white" stroke="black" points="591,-56.5 591,-86.5 746,-86.5 746,-56.5 591,-56.5"/>
<text text-anchor="start" x="599" y="-74.5" font-family="Helvetica,sans-Serif" font-size="10.00">boomerang/core/Boomerang</text>
<text text-anchor="middle" x="668.5" y="-63.5" font-family="Helvetica,sans-Serif" font-size="10.00">API.h</text>
</a>
</g>
</g>
<!-- Node5&#45;&gt;Node6 -->
<g id="edge5" class="edge">
<title>Node5&#45;&gt;Node6</title>
<path fill="none" stroke="midnightblue" d="M825.46,-128.87C797.95,-118.99 752.18,-102.55 717.14,-89.97"/>
<polygon fill="midnightblue" stroke="midnightblue" points="718.16,-86.61 707.56,-86.53 715.79,-93.2 718.16,-86.61"/>
</g>
<!-- Node5&#45;&gt;Node7 -->
<g id="edge6" class="edge">
<title>Node5&#45;&gt;Node7</title>
<path fill="none" stroke="midnightblue" d="M901.35,-128.97C913.83,-126.97 927.14,-124.87 939.5,-123 1054.94,-105.54 1191.68,-86.71 1257.4,-77.78"/>
<polygon fill="midnightblue" stroke="midnightblue" points="1257.88,-81.25 1267.32,-76.43 1256.94,-74.31 1257.88,-81.25"/>
</g>
<!-- Node8&#45;&gt;Node6 -->
<g id="edge8" class="edge">
<title>Node8&#45;&gt;Node6</title>
<path fill="none" stroke="midnightblue" d="M668.5,-128.73C668.5,-120.54 668.5,-107.92 668.5,-96.71"/>
<polygon fill="midnightblue" stroke="midnightblue" points="672,-96.59 668.5,-86.59 665,-96.59 672,-96.59"/>
</g>
<!-- Node9&#45;&gt;Node6 -->
<g id="edge10" class="edge">
<title>Node9&#45;&gt;Node6</title>
<path fill="none" stroke="midnightblue" d="M389.8,-128.94C440.38,-118.69 526.1,-101.33 589.15,-88.57"/>
<polygon fill="midnightblue" stroke="midnightblue" points="589.96,-91.97 599.07,-86.56 588.57,-85.11 589.96,-91.97"/>
</g>
<!-- Node10 -->
<g id="node10" class="node">
<title>Node10</title>
<g id="a_node10"><a xlink:href="Types_8h.html" target="_top" xlink:title=" ">
<polygon fill="white" stroke="black" points="159,-62 159,-81 290,-81 290,-62 159,-62"/>
<text text-anchor="middle" x="224.5" y="-69" font-family="Helvetica,sans-Serif" font-size="10.00">boomerang/util/Types.h</text>
</a>
</g>
</g>
<!-- Node9&#45;&gt;Node10 -->
<g id="edge11" class="edge">
<title>Node9&#45;&gt;Node10</title>
<path fill="none" stroke="midnightblue" d="M331.17,-128.87C310.4,-117.89 274.31,-98.82 249.93,-85.94"/>
<polygon fill="midnightblue" stroke="midnightblue" points="251.38,-82.75 240.9,-81.17 248.11,-88.93 251.38,-82.75"/>
</g>
<!-- Node12 -->
<g id="node12" class="node">
<title>Node12</title>
<g id="a_node12"><a xlink:title=" ">
<polygon fill="white" stroke="#bfbfbf" points="324.5,-62 324.5,-81 370.5,-81 370.5,-62 324.5,-62"/>
<text text-anchor="middle" x="347.5" y="-69" font-family="Helvetica,sans-Serif" font-size="10.00">cstdio</text>
</a>
</g>
</g>
<!-- Node9&#45;&gt;Node12 -->
<g id="edge13" class="edge">
<title>Node9&#45;&gt;Node12</title>
<path fill="none" stroke="midnightblue" d="M347.5,-128.73C347.5,-119.18 347.5,-103.62 347.5,-91.28"/>
<polygon fill="midnightblue" stroke="midnightblue" points="351,-91.13 347.5,-81.13 344,-91.13 351,-91.13"/>
</g>
<!-- Node11 -->
<g id="node11" class="node">
<title>Node11</title>
<g id="a_node11"><a xlink:title=" ">
<polygon fill="white" stroke="#bfbfbf" points="199.5,-0.5 199.5,-19.5 249.5,-19.5 249.5,-0.5 199.5,-0.5"/>
<text text-anchor="middle" x="224.5" y="-7.5" font-family="Helvetica,sans-Serif" font-size="10.00">cstdint</text>
</a>
</g>
</g>
<!-- Node10&#45;&gt;Node11 -->
<g id="edge12" class="edge">
<title>Node10&#45;&gt;Node11</title>
<path fill="none" stroke="midnightblue" d="M224.5,-61.98C224.5,-53.58 224.5,-40.48 224.5,-29.66"/>
<polygon fill="midnightblue" stroke="midnightblue" points="228,-29.51 224.5,-19.51 221,-29.51 228,-29.51"/>
</g>
<!-- Node18&#45;&gt;Node4 -->
<g id="edge21" class="edge">
<title>Node18&#45;&gt;Node4</title>
<path fill="none" stroke="midnightblue" d="M370.25,-253.02C482.66,-241.78 694.33,-220.62 810,-209.05"/>
<polygon fill="midnightblue" stroke="midnightblue" points="810.61,-212.51 820.21,-208.03 809.91,-205.54 810.61,-212.51"/>
</g>
<!-- Node19 -->
<g id="node19" class="node">
<title>Node19</title>
<g id="a_node19"><a xlink:href="Address_8h.html" target="_top" xlink:title=" ">
<polygon fill="white" stroke="black" points="165.5,-190.5 165.5,-209.5 307.5,-209.5 307.5,-190.5 165.5,-190.5"/>
<text text-anchor="middle" x="236.5" y="-197.5" font-family="Helvetica,sans-Serif" font-size="10.00">boomerang/util/Address.h</text>
</a>
</g>
</g>
<!-- Node18&#45;&gt;Node19 -->
<g id="edge22" class="edge">
<title>Node18&#45;&gt;Node19</title>
<path fill="none" stroke="midnightblue" d="M287.05,-251.98C277.93,-242.78 263.23,-227.96 252.02,-216.66"/>
<polygon fill="midnightblue" stroke="midnightblue" points="254.46,-214.15 244.94,-209.51 249.49,-219.07 254.46,-214.15"/>
</g>
<!-- Node20 -->
<g id="node20" class="node">
<title>Node20</title>
<g id="a_node20"><a xlink:title=" ">
<polygon fill="white" stroke="#bfbfbf" points="326,-190.5 326,-209.5 377,-209.5 377,-190.5 326,-190.5"/>
<text text-anchor="middle" x="351.5" y="-197.5" font-family="Helvetica,sans-Serif" font-size="10.00">variant</text>
</a>
</g>
</g>
<!-- Node18&#45;&gt;Node20 -->
<g id="edge27" class="edge">
<title>Node18&#45;&gt;Node20</title>
<path fill="none" stroke="midnightblue" d="M303.52,-251.98C312.09,-242.87 325.86,-228.24 336.46,-216.98"/>
<polygon fill="midnightblue" stroke="midnightblue" points="339.19,-219.19 343.49,-209.51 334.09,-214.39 339.19,-219.19"/>
</g>
<!-- Node19&#45;&gt;Node6 -->
<g id="edge23" class="edge">
<title>Node19&#45;&gt;Node6</title>
<path fill="none" stroke="midnightblue" d="M301.15,-190.48C339.65,-183.83 388.79,-172.52 429.5,-154 450.95,-144.25 451.17,-133 472.5,-123 506.38,-107.12 545.99,-95.71 580.7,-87.8"/>
<polygon fill="midnightblue" stroke="midnightblue" points="581.81,-91.14 590.82,-85.56 580.3,-84.3 581.81,-91.14"/>
</g>
<!-- Node19&#45;&gt;Node9 -->
<g id="edge24" class="edge">
<title>Node19&#45;&gt;Node9</title>
<path fill="none" stroke="midnightblue" d="M252.4,-190.48C270.78,-180.62 301.26,-164.29 322.74,-152.77"/>
<polygon fill="midnightblue" stroke="midnightblue" points="324.47,-155.82 331.63,-148.01 321.16,-149.65 324.47,-155.82"/>
</g>
<!-- Node19&#45;&gt;Node10 -->
<g id="edge25" class="edge">
<title>Node19&#45;&gt;Node10</title>
<path fill="none" stroke="midnightblue" d="M235.68,-190.31C233.75,-169.99 228.92,-119.05 226.28,-91.28"/>
<polygon fill="midnightblue" stroke="midnightblue" points="229.76,-90.88 225.33,-81.26 222.79,-91.54 229.76,-90.88"/>
</g>
<!-- Node19&#45;&gt;Node13 -->
<g id="edge26" class="edge">
<title>Node19&#45;&gt;Node13</title>
<path fill="none" stroke="midnightblue" d="M280.2,-190.48C340.52,-178.71 448.23,-157.7 504.68,-146.68"/>
<polygon fill="midnightblue" stroke="midnightblue" points="505.45,-150.1 514.6,-144.75 504.11,-143.23 505.45,-150.1"/>
</g>
<!-- Node21&#45;&gt;Node3 -->
<g id="edge29" class="edge">
<title>Node21&#45;&gt;Node3</title>
<path fill="none" stroke="midnightblue" d="M1151.78,-318.87C1127.65,-307.75 1085.5,-288.32 1057.55,-275.43"/>
<polygon fill="midnightblue" stroke="midnightblue" points="1058.85,-272.18 1048.3,-271.17 1055.92,-278.53 1058.85,-272.18"/>
</g>
<!-- Node22&#45;&gt;Node4 -->
<g id="edge31" class="edge">
<title>Node22&#45;&gt;Node4</title>
<path fill="none" stroke="midnightblue" d="M1159.51,-251.98C1103.08,-241.28 1006.38,-222.96 945.58,-211.44"/>
<polygon fill="midnightblue" stroke="midnightblue" points="945.88,-207.93 935.41,-209.51 944.58,-214.81 945.88,-207.93"/>
</g>
<!-- Node24 -->
<g id="node24" class="node">
<title>Node24</title>
<g id="a_node24"><a xlink:href="Type_8h.html" target="_top" xlink:title=" ">
<polygon fill="white" stroke="black" points="491,-246.5 491,-276.5 604,-276.5 604,-246.5 491,-246.5"/>
<text text-anchor="start" x="499" y="-264.5" font-family="Helvetica,sans-Serif" font-size="10.00">boomerang/ssl/type</text>
<text text-anchor="middle" x="547.5" y="-253.5" font-family="Helvetica,sans-Serif" font-size="10.00">/Type.h</text>
</a>
</g>
</g>
<!-- Node23&#45;&gt;Node24 -->
<g id="edge33" class="edge">
<title>Node23&#45;&gt;Node24</title>
<path fill="none" stroke="midnightblue" d="M447.27,-313.4C465.89,-303.94 490.61,-291.39 510.84,-281.12"/>
<polygon fill="midnightblue" stroke="midnightblue" points="512.45,-284.23 519.78,-276.58 509.28,-277.98 512.45,-284.23"/>
</g>
<!-- Node24&#45;&gt;Node6 -->
<g id="edge34" class="edge">
<title>Node24&#45;&gt;Node6</title>
<path fill="none" stroke="midnightblue" d="M535.61,-246.25C514.91,-219.63 477.07,-161.58 505.5,-123 523.19,-99 552.16,-86.07 580.81,-79.21"/>
<polygon fill="midnightblue" stroke="midnightblue" points="581.87,-82.56 590.91,-77.02 580.4,-75.71 581.87,-82.56"/>
</g>
<!-- Node24&#45;&gt;Node7 -->
<g id="edge38" class="edge">
<title>Node24&#45;&gt;Node7</title>
<path fill="none" stroke="midnightblue" d="M604.06,-258.05C787.27,-249.97 1353.42,-223.91 1366.5,-210 1392.99,-181.83 1384.11,-157.42 1366.5,-123 1358.02,-106.43 1341.29,-94.05 1326.31,-85.69"/>
<polygon fill="midnightblue" stroke="midnightblue" points="1327.79,-82.52 1317.3,-81.01 1324.56,-88.73 1327.79,-82.52"/>
</g>
<!-- Node24&#45;&gt;Node10 -->
<g id="edge35" class="edge">
<title>Node24&#45;&gt;Node10</title>
<path fill="none" stroke="midnightblue" d="M518.07,-246.43C485.94,-231.36 432.74,-207.29 385.5,-190 333.21,-170.86 308.16,-189.79 265.5,-154 245.91,-137.57 234.73,-109.46 229.13,-90.93"/>
<polygon fill="midnightblue" stroke="midnightblue" points="232.44,-89.76 226.41,-81.05 225.7,-91.62 232.44,-89.76"/>
</g>
<!-- Node24&#45;&gt;Node13 -->
<g id="edge36" class="edge">
<title>Node24&#45;&gt;Node13</title>
<path fill="none" stroke="midnightblue" d="M546.79,-246.14C545.7,-224.2 543.62,-182.33 542.42,-158.09"/>
<polygon fill="midnightblue" stroke="midnightblue" points="545.92,-157.87 541.92,-148.05 538.92,-158.21 545.92,-157.87"/>
</g>
<!-- Node24&#45;&gt;Node14 -->
<g id="edge37" class="edge">
<title>Node24&#45;&gt;Node14</title>
<path fill="none" stroke="midnightblue" d="M604.01,-259.76C686.14,-257.35 842.53,-247.69 969.5,-210 1014.6,-196.61 1062.85,-169.93 1090.18,-153.5"/>
<polygon fill="midnightblue" stroke="midnightblue" points="1092.23,-156.35 1098.94,-148.16 1088.58,-150.38 1092.23,-156.35"/>
</g>
<!-- Node25&#45;&gt;Node17 -->
<g id="edge41" class="edge">
<title>Node25&#45;&gt;Node17</title>
<path fill="none" stroke="midnightblue" d="M119.93,-313.37C123.31,-279.94 131.79,-195.97 135.6,-158.3"/>
<polygon fill="midnightblue" stroke="midnightblue" points="139.1,-158.51 136.62,-148.21 132.13,-157.8 139.1,-158.51"/>
</g>
<!-- Node25&#45;&gt;Node24 -->
<g id="edge40" class="edge">
<title>Node25&#45;&gt;Node24</title>
<path fill="none" stroke="midnightblue" d="M175.03,-318.94C253.95,-306.98 396.91,-285.32 480.91,-272.59"/>
<polygon fill="midnightblue" stroke="midnightblue" points="481.49,-276.04 490.85,-271.08 480.44,-269.12 481.49,-276.04"/>
</g>
<!-- Node26&#45;&gt;Node24 -->
<g id="edge43" class="edge">
<title>Node26&#45;&gt;Node24</title>
<path fill="none" stroke="midnightblue" d="M549.85,-313.4C549.49,-305.64 549.04,-295.81 548.62,-286.86"/>
<polygon fill="midnightblue" stroke="midnightblue" points="552.11,-286.4 548.15,-276.58 545.11,-286.73 552.11,-286.4"/>
</g>
<!-- Node27&#45;&gt;Node24 -->
<g id="edge45" class="edge">
<title>Node27&#45;&gt;Node24</title>
<path fill="none" stroke="midnightblue" d="M652.42,-313.4C632.85,-303.9 606.82,-291.28 585.59,-280.98"/>
<polygon fill="midnightblue" stroke="midnightblue" points="587.04,-277.79 576.52,-276.58 583.99,-284.09 587.04,-277.79"/>
</g>
<!-- Node28&#45;&gt;Node24 -->
<g id="edge47" class="edge">
<title>Node28&#45;&gt;Node24</title>
<path fill="none" stroke="midnightblue" d="M755.98,-313.64C714.52,-303.47 658.06,-289.62 614.36,-278.9"/>
<polygon fill="midnightblue" stroke="midnightblue" points="614.94,-275.44 604.39,-276.46 613.27,-282.24 614.94,-275.44"/>
</g>
<!-- Node29&#45;&gt;Node24 -->
<g id="edge49" class="edge">
<title>Node29&#45;&gt;Node24</title>
<path fill="none" stroke="midnightblue" d="M886.67,-314.77C883.57,-314.15 880.5,-313.56 877.5,-313 786.58,-296.07 680.8,-280.63 614.01,-271.39"/>
<polygon fill="midnightblue" stroke="midnightblue" points="614.42,-267.92 604.03,-270.02 613.46,-274.85 614.42,-267.92"/>
</g>
<!-- Node30&#45;&gt;Node24 -->
<g id="edge51" class="edge">
<title>Node30&#45;&gt;Node24</title>
<path fill="none" stroke="midnightblue" d="M344.38,-313.48C384.58,-303.39 438.95,-289.74 481.33,-279.11"/>
<polygon fill="midnightblue" stroke="midnightblue" points="482.43,-282.44 491.27,-276.61 480.72,-275.65 482.43,-282.44"/>
</g>
<!-- Node31&#45;&gt;Node7 -->
<g id="edge55" class="edge">
<title>Node31&#45;&gt;Node7</title>
<path fill="none" stroke="midnightblue" d="M109.31,-254.83C139.44,-251.87 177.5,-248.38 211.5,-246 336.28,-237.28 1252.05,-248.94 1333.5,-154 1350.26,-134.47 1329.84,-106.09 1313.34,-88.49"/>
<polygon fill="midnightblue" stroke="midnightblue" points="1315.7,-85.9 1306.18,-81.24 1310.71,-90.81 1315.7,-85.9"/>
</g>
<!-- Node31&#45;&gt;Node10 -->
<g id="edge54" class="edge">
<title>Node31&#45;&gt;Node10</title>
<path fill="none" stroke="midnightblue" d="M55.9,-246.49C59.33,-219.25 70.53,-158.7 104.5,-123 122.77,-103.8 149.48,-91.6 173.06,-84"/>
<polygon fill="midnightblue" stroke="midnightblue" points="174.38,-87.26 182.94,-81.03 172.36,-80.56 174.38,-87.26"/>
</g>
<!-- Node31&#45;&gt;Node17 -->
<g id="edge56" class="edge">
<title>Node31&#45;&gt;Node17</title>
<path fill="none" stroke="midnightblue" d="M64.35,-246.14C79.74,-223.71 109.43,-180.42 125.86,-156.47"/>
<polygon fill="midnightblue" stroke="midnightblue" points="128.86,-158.28 131.63,-148.05 123.09,-154.32 128.86,-158.28"/>
</g>
<!-- Node31&#45;&gt;Node19 -->
<g id="edge53" class="edge">
<title>Node31&#45;&gt;Node19</title>
<path fill="none" stroke="midnightblue" d="M97.63,-246.4C129.08,-236.12 171.19,-222.35 200.77,-212.68"/>
<polygon fill="midnightblue" stroke="midnightblue" points="201.87,-216.01 210.28,-209.57 199.69,-209.35 201.87,-216.01"/>
</g>
<!-- Node32&#45;&gt;Node6 -->
<g id="edge58" class="edge">
<title>Node32&#45;&gt;Node6</title>
<path fill="none" stroke="midnightblue" d="M1156.38,-124.19C1153.38,-123.78 1150.42,-123.38 1147.5,-123 1011.16,-105.2 852.35,-89.43 756.18,-80.43"/>
<polygon fill="midnightblue" stroke="midnightblue" points="756.49,-76.94 746.21,-79.5 755.84,-83.91 756.49,-76.94"/>
</g>
<!-- Node32&#45;&gt;Node7 -->
<g id="edge59" class="edge">
<title>Node32&#45;&gt;Node7</title>
<path fill="none" stroke="midnightblue" d="M1252.65,-123.4C1261.38,-113.26 1273.18,-99.57 1282.34,-88.94"/>
<polygon fill="midnightblue" stroke="midnightblue" points="1285.13,-91.06 1289.01,-81.19 1279.83,-86.49 1285.13,-91.06"/>
</g>
<!-- Node33&#45;&gt;Node6 -->
<g id="edge61" class="edge">
<title>Node33&#45;&gt;Node6</title>
<path fill="none" stroke="midnightblue" d="M1418.27,-130.3C1391.37,-127.9 1361.13,-125.27 1333.5,-123 1126.63,-106 883.39,-88.05 756.16,-78.81"/>
<polygon fill="midnightblue" stroke="midnightblue" points="756.31,-75.31 746.08,-78.08 755.8,-82.29 756.31,-75.31"/>
</g>
<!-- Node33&#45;&gt;Node7 -->
<g id="edge62" class="edge">
<title>Node33&#45;&gt;Node7</title>
<path fill="none" stroke="midnightblue" d="M1453.89,-123.4C1417.53,-111.64 1366.35,-95.09 1332.34,-84.09"/>
<polygon fill="midnightblue" stroke="midnightblue" points="1333.4,-80.75 1322.81,-81.01 1331.24,-87.41 1333.4,-80.75"/>
</g>
</g>
</svg>
