<?xml version="1.0" encoding="UTF-8" standalone="no"?>
<!DOCTYPE svg PUBLIC "-//W3C//DTD SVG 1.1//EN"
 "http://www.w3.org/Graphics/SVG/1.1/DTD/svg11.dtd">
<!-- Generated by graphviz version 2.43.0 (0)
 -->
<!-- Title: BoolAssign.cpp Pages: 1 -->
<svg width="1496pt" height="553pt"
 viewBox="0.00 0.00 1495.50 553.00" xmlns="http://www.w3.org/2000/svg" xmlns:xlink="http://www.w3.org/1999/xlink">
<g id="graph0" class="graph" transform="scale(1 1) rotate(0) translate(4 549)">
<title>BoolAssign.cpp</title>
<polygon fill="white" stroke="transparent" points="-4,4 -4,-549 1491.5,-549 1491.5,4 -4,4"/>
<!-- Node1 -->
<g id="node1" class="node">
<title>Node1</title>
<g id="a_node1"><a xlink:title=" ">
<polygon fill="#bfbfbf" stroke="black" points="765.5,-525.5 765.5,-544.5 856.5,-544.5 856.5,-525.5 765.5,-525.5"/>
<text text-anchor="middle" x="811" y="-532.5" font-family="Helvetica,sans-Serif" font-size="10.00">BoolAssign.cpp</text>
</a>
</g>
</g>
<!-- Node2 -->
<g id="node2" class="node">
<title>Node2</title>
<g id="a_node2"><a xlink:href="BoolAssign_8h.html" target="_top" xlink:title=" ">
<polygon fill="white" stroke="black" points="50,-464 50,-483 130,-483 130,-464 50,-464"/>
<text text-anchor="middle" x="90" y="-471" font-family="Helvetica,sans-Serif" font-size="10.00">BoolAssign.h</text>
</a>
</g>
</g>
<!-- Node1&#45;&gt;Node2 -->
<g id="edge1" class="edge">
<title>Node1&#45;&gt;Node2</title>
<path fill="none" stroke="midnightblue" d="M765.35,-534.4C656.19,-534.6 371.78,-530.71 139,-489 134.28,-488.15 129.37,-487.02 124.56,-485.76"/>
<polygon fill="midnightblue" stroke="midnightblue" points="125.5,-482.38 114.92,-483.03 123.59,-489.12 125.5,-482.38"/>
</g>
<!-- Node17 -->
<g id="node17" class="node">
<title>Node17</title>
<g id="a_node17"><a xlink:href="ICodeGenerator_8h.html" target="_top" xlink:title=" ">
<polygon fill="white" stroke="black" points="259,-330 259,-349 435,-349 435,-330 259,-330"/>
<text text-anchor="middle" x="347" y="-337" font-family="Helvetica,sans-Serif" font-size="10.00">boomerang/ifc/ICodeGenerator.h</text>
</a>
</g>
</g>
<!-- Node1&#45;&gt;Node17 -->
<g id="edge19" class="edge">
<title>Node1&#45;&gt;Node17</title>
<path fill="none" stroke="midnightblue" d="M765.07,-530.08C717.6,-524.87 642.04,-513.33 581,-489 493.69,-454.19 403.38,-386.04 365.48,-355.7"/>
<polygon fill="midnightblue" stroke="midnightblue" points="367.38,-352.74 357.41,-349.17 362.98,-358.18 367.38,-352.74"/>
</g>
<!-- Node18 -->
<g id="node18" class="node">
<title>Node18</title>
<g id="a_node18"><a xlink:href="Const_8h.html" target="_top" xlink:title=" ">
<polygon fill="white" stroke="black" points="452.5,-330 452.5,-349 601.5,-349 601.5,-330 452.5,-330"/>
<text text-anchor="middle" x="527" y="-337" font-family="Helvetica,sans-Serif" font-size="10.00">boomerang/ssl/exp/Const.h</text>
</a>
</g>
</g>
<!-- Node1&#45;&gt;Node18 -->
<g id="edge21" class="edge">
<title>Node1&#45;&gt;Node18</title>
<path fill="none" stroke="midnightblue" d="M765.35,-528.1C705.24,-517.79 600.78,-490.59 546,-422 531.65,-404.03 527.78,-377.14 526.92,-359.22"/>
<polygon fill="midnightblue" stroke="midnightblue" points="530.42,-359.07 526.7,-349.15 523.42,-359.22 530.42,-359.07"/>
</g>
<!-- Node25 -->
<g id="node25" class="node">
<title>Node25</title>
<g id="a_node25"><a xlink:href="Terminal_8h.html" target="_top" xlink:title=" ">
<polygon fill="white" stroke="black" points="555,-397 555,-416 719,-416 719,-397 555,-397"/>
<text text-anchor="middle" x="637" y="-404" font-family="Helvetica,sans-Serif" font-size="10.00">boomerang/ssl/exp/Terminal.h</text>
</a>
</g>
</g>
<!-- Node1&#45;&gt;Node25 -->
<g id="edge35" class="edge">
<title>Node1&#45;&gt;Node25</title>
<path fill="none" stroke="midnightblue" d="M790.76,-525.46C772.53,-517.33 745.39,-504.11 724,-489 696.25,-469.4 668.32,-441.43 651.85,-423.88"/>
<polygon fill="midnightblue" stroke="midnightblue" points="654.09,-421.15 644.73,-416.18 648.95,-425.9 654.09,-421.15"/>
</g>
<!-- Node26 -->
<g id="node26" class="node">
<title>Node26</title>
<g id="a_node26"><a xlink:href="Ternary_8h.html" target="_top" xlink:title=" ">
<polygon fill="white" stroke="black" points="733,-464 733,-483 889,-483 889,-464 733,-464"/>
<text text-anchor="middle" x="811" y="-471" font-family="Helvetica,sans-Serif" font-size="10.00">boomerang/ssl/exp/Ternary.h</text>
</a>
</g>
</g>
<!-- Node1&#45;&gt;Node26 -->
<g id="edge37" class="edge">
<title>Node1&#45;&gt;Node26</title>
<path fill="none" stroke="midnightblue" d="M811,-525.48C811,-517.08 811,-503.98 811,-493.16"/>
<polygon fill="midnightblue" stroke="midnightblue" points="814.5,-493.01 811,-483.01 807.5,-493.01 814.5,-493.01"/>
</g>
<!-- Node29 -->
<g id="node29" class="node">
<title>Node29</title>
<g id="a_node29"><a xlink:href="Assign_8h.html" target="_top" xlink:title=" ">
<polygon fill="white" stroke="black" points="148.5,-458.5 148.5,-488.5 295.5,-488.5 295.5,-458.5 148.5,-458.5"/>
<text text-anchor="start" x="156.5" y="-476.5" font-family="Helvetica,sans-Serif" font-size="10.00">boomerang/ssl/statements</text>
<text text-anchor="middle" x="222" y="-465.5" font-family="Helvetica,sans-Serif" font-size="10.00">/Assign.h</text>
</a>
</g>
</g>
<!-- Node1&#45;&gt;Node29 -->
<g id="edge41" class="edge">
<title>Node1&#45;&gt;Node29</title>
<path fill="none" stroke="midnightblue" d="M765.16,-531.22C677.83,-525.65 481.44,-511.76 305.66,-489.01"/>
<polygon fill="midnightblue" stroke="midnightblue" points="306.09,-485.54 295.72,-487.71 305.18,-492.48 306.09,-485.54"/>
</g>
<!-- Node30 -->
<g id="node30" class="node">
<title>Node30</title>
<g id="a_node30"><a xlink:href="StatementHelper_8h.html" target="_top" xlink:title=" ">
<polygon fill="white" stroke="black" points="313.5,-458.5 313.5,-488.5 460.5,-488.5 460.5,-458.5 313.5,-458.5"/>
<text text-anchor="start" x="321.5" y="-476.5" font-family="Helvetica,sans-Serif" font-size="10.00">boomerang/ssl/statements</text>
<text text-anchor="middle" x="387" y="-465.5" font-family="Helvetica,sans-Serif" font-size="10.00">/StatementHelper.h</text>
</a>
</g>
</g>
<!-- Node1&#45;&gt;Node30 -->
<g id="edge43" class="edge">
<title>Node1&#45;&gt;Node30</title>
<path fill="none" stroke="midnightblue" d="M765.29,-528.32C700.58,-520.18 578.61,-504.47 475,-489 473.71,-488.81 472.41,-488.61 471.09,-488.41"/>
<polygon fill="midnightblue" stroke="midnightblue" points="471.33,-484.91 460.92,-486.85 470.27,-491.83 471.33,-484.91"/>
</g>
<!-- Node31 -->
<g id="node31" class="node">
<title>Node31</title>
<g id="a_node31"><a xlink:href="LocationSet_8h.html" target="_top" xlink:title=" ">
<polygon fill="white" stroke="black" points="824,-330 824,-349 984,-349 984,-330 824,-330"/>
<text text-anchor="middle" x="904" y="-337" font-family="Helvetica,sans-Serif" font-size="10.00">boomerang/util/LocationSet.h</text>
</a>
</g>
</g>
<!-- Node1&#45;&gt;Node31 -->
<g id="edge45" class="edge">
<title>Node1&#45;&gt;Node31</title>
<path fill="none" stroke="midnightblue" d="M845.29,-525.43C864.22,-518.79 886.22,-507.5 898,-489 923.68,-448.66 915.32,-388.9 908.75,-358.98"/>
<polygon fill="midnightblue" stroke="midnightblue" points="912.12,-358 906.4,-349.08 905.31,-359.62 912.12,-358"/>
</g>
<!-- Node34 -->
<g id="node34" class="node">
<title>Node34</title>
<g id="a_node34"><a xlink:href="ExpVisitor_8h.html" target="_top" xlink:title=" ">
<polygon fill="white" stroke="black" points="964,-190.5 964,-220.5 1122,-220.5 1122,-190.5 964,-190.5"/>
<text text-anchor="start" x="972" y="-208.5" font-family="Helvetica,sans-Serif" font-size="10.00">boomerang/visitor/expvisitor</text>
<text text-anchor="middle" x="1043" y="-197.5" font-family="Helvetica,sans-Serif" font-size="10.00">/ExpVisitor.h</text>
</a>
</g>
</g>
<!-- Node1&#45;&gt;Node34 -->
<g id="edge53" class="edge">
<title>Node1&#45;&gt;Node34</title>
<path fill="none" stroke="midnightblue" d="M856.61,-526.14C915.91,-513.01 1012,-480.48 1012,-407.5 1012,-407.5 1012,-407.5 1012,-338.5 1012,-299.64 1024.89,-256.01 1034.05,-229.92"/>
<polygon fill="midnightblue" stroke="midnightblue" points="1037.34,-231.1 1037.46,-220.51 1030.76,-228.71 1037.34,-231.1"/>
</g>
<!-- Node35 -->
<g id="node35" class="node">
<title>Node35</title>
<g id="a_node35"><a xlink:href="StmtExpVisitor_8h.html" target="_top" xlink:title=" ">
<polygon fill="white" stroke="black" points="1040,-391.5 1040,-421.5 1220,-421.5 1220,-391.5 1040,-391.5"/>
<text text-anchor="start" x="1048" y="-409.5" font-family="Helvetica,sans-Serif" font-size="10.00">boomerang/visitor/stmtexpvisitor</text>
<text text-anchor="middle" x="1130" y="-398.5" font-family="Helvetica,sans-Serif" font-size="10.00">/StmtExpVisitor.h</text>
</a>
</g>
</g>
<!-- Node1&#45;&gt;Node35 -->
<g id="edge56" class="edge">
<title>Node1&#45;&gt;Node35</title>
<path fill="none" stroke="midnightblue" d="M856.53,-530.53C901.4,-525.74 971.02,-514.58 1026,-489 1058.13,-474.05 1089.36,-447.46 1109.07,-428.73"/>
<polygon fill="midnightblue" stroke="midnightblue" points="1111.54,-431.2 1116.28,-421.73 1106.67,-426.18 1111.54,-431.2"/>
</g>
<!-- Node36 -->
<g id="node36" class="node">
<title>Node36</title>
<g id="a_node36"><a xlink:href="StmtModifier_8h.html" target="_top" xlink:title=" ">
<polygon fill="white" stroke="black" points="1161.5,-123.5 1161.5,-153.5 1334.5,-153.5 1334.5,-123.5 1161.5,-123.5"/>
<text text-anchor="start" x="1169.5" y="-141.5" font-family="Helvetica,sans-Serif" font-size="10.00">boomerang/visitor/stmtmodifier</text>
<text text-anchor="middle" x="1248" y="-130.5" font-family="Helvetica,sans-Serif" font-size="10.00">/StmtModifier.h</text>
</a>
</g>
</g>
<!-- Node1&#45;&gt;Node36 -->
<g id="edge58" class="edge">
<title>Node1&#45;&gt;Node36</title>
<path fill="none" stroke="midnightblue" d="M856.53,-530.54C968.46,-520.8 1248,-488.36 1248,-407.5 1248,-407.5 1248,-407.5 1248,-271.5 1248,-234 1248,-190.51 1248,-164.01"/>
<polygon fill="midnightblue" stroke="midnightblue" points="1251.5,-163.76 1248,-153.76 1244.5,-163.76 1251.5,-163.76"/>
</g>
<!-- Node37 -->
<g id="node37" class="node">
<title>Node37</title>
<g id="a_node37"><a xlink:href="StmtPartModifier_8h.html" target="_top" xlink:title=" ">
<polygon fill="white" stroke="black" points="1314.5,-458.5 1314.5,-488.5 1487.5,-488.5 1487.5,-458.5 1314.5,-458.5"/>
<text text-anchor="start" x="1322.5" y="-476.5" font-family="Helvetica,sans-Serif" font-size="10.00">boomerang/visitor/stmtmodifier</text>
<text text-anchor="middle" x="1401" y="-465.5" font-family="Helvetica,sans-Serif" font-size="10.00">/StmtPartModifier.h</text>
</a>
</g>
</g>
<!-- Node1&#45;&gt;Node37 -->
<g id="edge60" class="edge">
<title>Node1&#45;&gt;Node37</title>
<path fill="none" stroke="midnightblue" d="M856.59,-530.58C943.15,-523.92 1137.22,-508.16 1300,-489 1301.31,-488.85 1302.63,-488.69 1303.96,-488.53"/>
<polygon fill="midnightblue" stroke="midnightblue" points="1304.77,-491.95 1314.26,-487.24 1303.91,-485.01 1304.77,-491.95"/>
</g>
<!-- Node38 -->
<g id="node38" class="node">
<title>Node38</title>
<g id="a_node38"><a xlink:href="StmtVisitor_8h.html" target="_top" xlink:title=" ">
<polygon fill="white" stroke="black" points="1279,-391.5 1279,-421.5 1441,-421.5 1441,-391.5 1279,-391.5"/>
<text text-anchor="start" x="1287" y="-409.5" font-family="Helvetica,sans-Serif" font-size="10.00">boomerang/visitor/stmtvisitor</text>
<text text-anchor="middle" x="1360" y="-398.5" font-family="Helvetica,sans-Serif" font-size="10.00">/StmtVisitor.h</text>
</a>
</g>
</g>
<!-- Node1&#45;&gt;Node38 -->
<g id="edge61" class="edge">
<title>Node1&#45;&gt;Node38</title>
<path fill="none" stroke="midnightblue" d="M856.63,-532.82C956.15,-529.71 1189.6,-519.32 1262,-489 1278.78,-481.97 1314.43,-450.36 1337.79,-428.63"/>
<polygon fill="midnightblue" stroke="midnightblue" points="1340.29,-431.08 1345.19,-421.69 1335.5,-425.98 1340.29,-431.08"/>
</g>
<!-- Node3 -->
<g id="node3" class="node">
<title>Node3</title>
<g id="a_node3"><a xlink:href="Assignment_8h.html" target="_top" xlink:title=" ">
<polygon fill="white" stroke="black" points="55.5,-391.5 55.5,-421.5 202.5,-421.5 202.5,-391.5 55.5,-391.5"/>
<text text-anchor="start" x="63.5" y="-409.5" font-family="Helvetica,sans-Serif" font-size="10.00">boomerang/ssl/statements</text>
<text text-anchor="middle" x="129" y="-398.5" font-family="Helvetica,sans-Serif" font-size="10.00">/Assignment.h</text>
</a>
</g>
</g>
<!-- Node2&#45;&gt;Node3 -->
<g id="edge2" class="edge">
<title>Node2&#45;&gt;Node3</title>
<path fill="none" stroke="midnightblue" d="M95.26,-463.73C100.38,-455.2 108.38,-441.87 115.3,-430.33"/>
<polygon fill="midnightblue" stroke="midnightblue" points="118.4,-431.96 120.55,-421.59 112.4,-428.36 118.4,-431.96"/>
</g>
<!-- Node4 -->
<g id="node4" class="node">
<title>Node4</title>
<g id="a_node4"><a xlink:href="TypingStatement_8h.html" target="_top" xlink:title=" ">
<polygon fill="white" stroke="black" points="55.5,-324.5 55.5,-354.5 202.5,-354.5 202.5,-324.5 55.5,-324.5"/>
<text text-anchor="start" x="63.5" y="-342.5" font-family="Helvetica,sans-Serif" font-size="10.00">boomerang/ssl/statements</text>
<text text-anchor="middle" x="129" y="-331.5" font-family="Helvetica,sans-Serif" font-size="10.00">/TypingStatement.h</text>
</a>
</g>
</g>
<!-- Node3&#45;&gt;Node4 -->
<g id="edge3" class="edge">
<title>Node3&#45;&gt;Node4</title>
<path fill="none" stroke="midnightblue" d="M129,-391.4C129,-383.64 129,-373.81 129,-364.86"/>
<polygon fill="midnightblue" stroke="midnightblue" points="132.5,-364.58 129,-354.58 125.5,-364.58 132.5,-364.58"/>
</g>
<!-- Node5 -->
<g id="node5" class="node">
<title>Node5</title>
<g id="a_node5"><a xlink:href="Statement_8h.html" target="_top" xlink:title=" ">
<polygon fill="white" stroke="black" points="106.5,-257.5 106.5,-287.5 253.5,-287.5 253.5,-257.5 106.5,-257.5"/>
<text text-anchor="start" x="114.5" y="-275.5" font-family="Helvetica,sans-Serif" font-size="10.00">boomerang/ssl/statements</text>
<text text-anchor="middle" x="180" y="-264.5" font-family="Helvetica,sans-Serif" font-size="10.00">/Statement.h</text>
</a>
</g>
</g>
<!-- Node4&#45;&gt;Node5 -->
<g id="edge4" class="edge">
<title>Node4&#45;&gt;Node5</title>
<path fill="none" stroke="midnightblue" d="M140.07,-324.4C146.68,-315.96 155.23,-305.07 162.72,-295.52"/>
<polygon fill="midnightblue" stroke="midnightblue" points="165.54,-297.6 168.96,-287.58 160.03,-293.28 165.54,-297.6"/>
</g>
<!-- Node6 -->
<g id="node6" class="node">
<title>Node6</title>
<g id="a_node6"><a xlink:href="ExpHelp_8h.html" target="_top" xlink:title=" ">
<polygon fill="white" stroke="black" points="266,-196 266,-215 428,-215 428,-196 266,-196"/>
<text text-anchor="middle" x="347" y="-203" font-family="Helvetica,sans-Serif" font-size="10.00">boomerang/ssl/exp/ExpHelp.h</text>
</a>
</g>
</g>
<!-- Node5&#45;&gt;Node6 -->
<g id="edge5" class="edge">
<title>Node5&#45;&gt;Node6</title>
<path fill="none" stroke="midnightblue" d="M216.24,-257.4C245.93,-245.84 287.51,-229.66 315.75,-218.66"/>
<polygon fill="midnightblue" stroke="midnightblue" points="317.09,-221.9 325.14,-215.01 314.56,-215.37 317.09,-221.9"/>
</g>
<!-- Node9 -->
<g id="node9" class="node">
<title>Node9</title>
<g id="a_node9"><a xlink:href="Address_8h.html" target="_top" xlink:title=" ">
<polygon fill="white" stroke="black" points="56,-196 56,-215 198,-215 198,-196 56,-196"/>
<text text-anchor="middle" x="127" y="-203" font-family="Helvetica,sans-Serif" font-size="10.00">boomerang/util/Address.h</text>
</a>
</g>
</g>
<!-- Node5&#45;&gt;Node9 -->
<g id="edge8" class="edge">
<title>Node5&#45;&gt;Node9</title>
<path fill="none" stroke="midnightblue" d="M168.5,-257.4C160.32,-247.36 149.29,-233.84 140.66,-223.25"/>
<polygon fill="midnightblue" stroke="midnightblue" points="143.12,-220.73 134.09,-215.19 137.7,-225.16 143.12,-220.73"/>
</g>
<!-- Node15 -->
<g id="node15" class="node">
<title>Node15</title>
<g id="a_node15"><a xlink:title=" ">
<polygon fill="white" stroke="#bfbfbf" points="216,-196 216,-215 248,-215 248,-196 216,-196"/>
<text text-anchor="middle" x="232" y="-203" font-family="Helvetica,sans-Serif" font-size="10.00">list</text>
</a>
</g>
</g>
<!-- Node5&#45;&gt;Node15 -->
<g id="edge17" class="edge">
<title>Node5&#45;&gt;Node15</title>
<path fill="none" stroke="midnightblue" d="M191.28,-257.4C199.31,-247.36 210.13,-233.84 218.6,-223.25"/>
<polygon fill="midnightblue" stroke="midnightblue" points="221.53,-225.19 225.04,-215.19 216.06,-220.82 221.53,-225.19"/>
</g>
<!-- Node16 -->
<g id="node16" class="node">
<title>Node16</title>
<g id="a_node16"><a xlink:title=" ">
<polygon fill="white" stroke="#bfbfbf" points="0,-196 0,-215 38,-215 38,-196 0,-196"/>
<text text-anchor="middle" x="19" y="-203" font-family="Helvetica,sans-Serif" font-size="10.00">map</text>
</a>
</g>
</g>
<!-- Node5&#45;&gt;Node16 -->
<g id="edge18" class="edge">
<title>Node5&#45;&gt;Node16</title>
<path fill="none" stroke="midnightblue" d="M139.35,-257.44C112.76,-247.91 77.44,-234.61 47,-221 46,-220.55 44.99,-220.09 43.97,-219.61"/>
<polygon fill="midnightblue" stroke="midnightblue" points="45.35,-216.39 34.84,-215.1 42.25,-222.67 45.35,-216.39"/>
</g>
<!-- Node7 -->
<g id="node7" class="node">
<title>Node7</title>
<g id="a_node7"><a xlink:href="BoomerangAPI_8h.html" target="_top" xlink:title=" ">
<polygon fill="white" stroke="black" points="846.5,-56.5 846.5,-86.5 1001.5,-86.5 1001.5,-56.5 846.5,-56.5"/>
<text text-anchor="start" x="854.5" y="-74.5" font-family="Helvetica,sans-Serif" font-size="10.00">boomerang/core/Boomerang</text>
<text text-anchor="middle" x="924" y="-63.5" font-family="Helvetica,sans-Serif" font-size="10.00">API.h</text>
</a>
</g>
</g>
<!-- Node6&#45;&gt;Node7 -->
<g id="edge6" class="edge">
<title>Node6&#45;&gt;Node7</title>
<path fill="none" stroke="midnightblue" d="M355.51,-195.97C373.29,-178.75 416.45,-140.01 461,-123 527.45,-97.63 721.26,-83.28 835.97,-76.78"/>
<polygon fill="midnightblue" stroke="midnightblue" points="836.35,-80.27 846.14,-76.22 835.96,-73.28 836.35,-80.27"/>
</g>
<!-- Node8 -->
<g id="node8" class="node">
<title>Node8</title>
<g id="a_node8"><a xlink:title=" ">
<polygon fill="white" stroke="#bfbfbf" points="906,-129 906,-148 964,-148 964,-129 906,-129"/>
<text text-anchor="middle" x="935" y="-136" font-family="Helvetica,sans-Serif" font-size="10.00">memory</text>
</a>
</g>
</g>
<!-- Node6&#45;&gt;Node8 -->
<g id="edge7" class="edge">
<title>Node6&#45;&gt;Node8</title>
<path fill="none" stroke="midnightblue" d="M395.47,-195.95C408.89,-193.78 423.49,-191.62 437,-190 640.18,-165.71 696.18,-198.08 896,-154 899.08,-153.32 902.23,-152.45 905.36,-151.48"/>
<polygon fill="midnightblue" stroke="midnightblue" points="906.77,-154.69 915.08,-148.12 904.49,-148.08 906.77,-154.69"/>
</g>
<!-- Node9&#45;&gt;Node7 -->
<g id="edge9" class="edge">
<title>Node9&#45;&gt;Node7</title>
<path fill="none" stroke="midnightblue" d="M150.25,-195.99C197.28,-179.14 307.36,-141.58 403,-123 553.43,-93.78 731.75,-81.14 835.94,-75.92"/>
<polygon fill="midnightblue" stroke="midnightblue" points="836.28,-79.41 846.1,-75.42 835.94,-72.42 836.28,-79.41"/>
</g>
<!-- Node10 -->
<g id="node10" class="node">
<title>Node10</title>
<g id="a_node10"><a xlink:href="OStream_8h.html" target="_top" xlink:title=" ">
<polygon fill="white" stroke="black" points="557,-129 557,-148 703,-148 703,-129 557,-129"/>
<text text-anchor="middle" x="630" y="-136" font-family="Helvetica,sans-Serif" font-size="10.00">boomerang/util/OStream.h</text>
</a>
</g>
</g>
<!-- Node9&#45;&gt;Node10 -->
<g id="edge10" class="edge">
<title>Node9&#45;&gt;Node10</title>
<path fill="none" stroke="midnightblue" d="M170.92,-195.98C182.62,-193.86 195.27,-191.71 207,-190 350.81,-169.03 387.87,-172.64 532,-154 542.64,-152.62 553.92,-151.06 564.89,-149.47"/>
<polygon fill="midnightblue" stroke="midnightblue" points="565.46,-152.93 574.85,-148.02 564.45,-146 565.46,-152.93"/>
</g>
<!-- Node11 -->
<g id="node11" class="node">
<title>Node11</title>
<g id="a_node11"><a xlink:href="Types_8h.html" target="_top" xlink:title=" ">
<polygon fill="white" stroke="black" points="267.5,-62 267.5,-81 398.5,-81 398.5,-62 267.5,-62"/>
<text text-anchor="middle" x="333" y="-69" font-family="Helvetica,sans-Serif" font-size="10.00">boomerang/util/Types.h</text>
</a>
</g>
</g>
<!-- Node9&#45;&gt;Node11 -->
<g id="edge15" class="edge">
<title>Node9&#45;&gt;Node11</title>
<path fill="none" stroke="midnightblue" d="M140.52,-195.84C175.37,-173.5 268.56,-113.79 311.18,-86.48"/>
<polygon fill="midnightblue" stroke="midnightblue" points="313.17,-89.36 319.7,-81.02 309.39,-83.47 313.17,-89.36"/>
</g>
<!-- Node14 -->
<g id="node14" class="node">
<title>Node14</title>
<g id="a_node14"><a xlink:title=" ">
<polygon fill="white" stroke="#bfbfbf" points="469.5,-129 469.5,-148 522.5,-148 522.5,-129 469.5,-129"/>
<text text-anchor="middle" x="496" y="-136" font-family="Helvetica,sans-Serif" font-size="10.00">QString</text>
</a>
</g>
</g>
<!-- Node9&#45;&gt;Node14 -->
<g id="edge16" class="edge">
<title>Node9&#45;&gt;Node14</title>
<path fill="none" stroke="midnightblue" d="M173.95,-195.94C184.8,-193.98 196.3,-191.9 207,-190 297.69,-173.86 404.47,-155.32 459.35,-145.83"/>
<polygon fill="midnightblue" stroke="midnightblue" points="460.04,-149.26 469.29,-144.11 458.84,-142.36 460.04,-149.26"/>
</g>
<!-- Node10&#45;&gt;Node7 -->
<g id="edge11" class="edge">
<title>Node10&#45;&gt;Node7</title>
<path fill="none" stroke="midnightblue" d="M668.74,-128.94C714.87,-118.74 792.93,-101.48 850.61,-88.72"/>
<polygon fill="midnightblue" stroke="midnightblue" points="851.4,-92.14 860.41,-86.56 849.89,-85.3 851.4,-92.14"/>
</g>
<!-- Node10&#45;&gt;Node11 -->
<g id="edge12" class="edge">
<title>Node10&#45;&gt;Node11</title>
<path fill="none" stroke="midnightblue" d="M590.87,-128.94C537.22,-117.2 440.86,-96.11 382.33,-83.3"/>
<polygon fill="midnightblue" stroke="midnightblue" points="382.74,-79.8 372.22,-81.08 381.24,-86.64 382.74,-79.8"/>
</g>
<!-- Node13 -->
<g id="node13" class="node">
<title>Node13</title>
<g id="a_node13"><a xlink:title=" ">
<polygon fill="white" stroke="#bfbfbf" points="607,-62 607,-81 653,-81 653,-62 607,-62"/>
<text text-anchor="middle" x="630" y="-69" font-family="Helvetica,sans-Serif" font-size="10.00">cstdio</text>
</a>
</g>
</g>
<!-- Node10&#45;&gt;Node13 -->
<g id="edge14" class="edge">
<title>Node10&#45;&gt;Node13</title>
<path fill="none" stroke="midnightblue" d="M630,-128.73C630,-119.18 630,-103.62 630,-91.28"/>
<polygon fill="midnightblue" stroke="midnightblue" points="633.5,-91.13 630,-81.13 626.5,-91.13 633.5,-91.13"/>
</g>
<!-- Node12 -->
<g id="node12" class="node">
<title>Node12</title>
<g id="a_node12"><a xlink:title=" ">
<polygon fill="white" stroke="#bfbfbf" points="308,-0.5 308,-19.5 358,-19.5 358,-0.5 308,-0.5"/>
<text text-anchor="middle" x="333" y="-7.5" font-family="Helvetica,sans-Serif" font-size="10.00">cstdint</text>
</a>
</g>
</g>
<!-- Node11&#45;&gt;Node12 -->
<g id="edge13" class="edge">
<title>Node11&#45;&gt;Node12</title>
<path fill="none" stroke="midnightblue" d="M333,-61.98C333,-53.58 333,-40.48 333,-29.66"/>
<polygon fill="midnightblue" stroke="midnightblue" points="336.5,-29.51 333,-19.51 329.5,-29.51 336.5,-29.51"/>
</g>
<!-- Node17&#45;&gt;Node6 -->
<g id="edge20" class="edge">
<title>Node17&#45;&gt;Node6</title>
<path fill="none" stroke="midnightblue" d="M347,-329.84C347,-308.67 347,-253.95 347,-225.03"/>
<polygon fill="midnightblue" stroke="midnightblue" points="350.5,-225.02 347,-215.02 343.5,-225.02 350.5,-225.02"/>
</g>
<!-- Node18&#45;&gt;Node9 -->
<g id="edge33" class="edge">
<title>Node18&#45;&gt;Node9</title>
<path fill="none" stroke="midnightblue" d="M501.06,-329.94C431.67,-307.04 241.65,-244.33 162.42,-218.19"/>
<polygon fill="midnightblue" stroke="midnightblue" points="163.47,-214.85 152.88,-215.04 161.28,-221.5 163.47,-214.85"/>
</g>
<!-- Node19 -->
<g id="node19" class="node">
<title>Node19</title>
<g id="a_node19"><a xlink:href="Exp_8h.html" target="_top" xlink:title=" ">
<polygon fill="white" stroke="black" points="560,-263 560,-282 700,-282 700,-263 560,-263"/>
<text text-anchor="middle" x="630" y="-270" font-family="Helvetica,sans-Serif" font-size="10.00">boomerang/ssl/exp/Exp.h</text>
</a>
</g>
</g>
<!-- Node18&#45;&gt;Node19 -->
<g id="edge22" class="edge">
<title>Node18&#45;&gt;Node19</title>
<path fill="none" stroke="midnightblue" d="M540.89,-329.73C558.03,-318.92 587.4,-300.38 607.71,-287.57"/>
<polygon fill="midnightblue" stroke="midnightblue" points="609.74,-290.42 616.33,-282.13 606,-284.5 609.74,-290.42"/>
</g>
<!-- Node24 -->
<g id="node24" class="node">
<title>Node24</title>
<g id="a_node24"><a xlink:title=" ">
<polygon fill="white" stroke="#bfbfbf" points="490.5,-263 490.5,-282 541.5,-282 541.5,-263 490.5,-263"/>
<text text-anchor="middle" x="516" y="-270" font-family="Helvetica,sans-Serif" font-size="10.00">variant</text>
</a>
</g>
</g>
<!-- Node18&#45;&gt;Node24 -->
<g id="edge34" class="edge">
<title>Node18&#45;&gt;Node24</title>
<path fill="none" stroke="midnightblue" d="M525.52,-329.73C523.9,-320.18 521.27,-304.62 519.18,-292.28"/>
<polygon fill="midnightblue" stroke="midnightblue" points="522.58,-291.4 517.46,-282.13 515.68,-292.57 522.58,-291.4"/>
</g>
<!-- Node19&#45;&gt;Node6 -->
<g id="edge23" class="edge">
<title>Node19&#45;&gt;Node6</title>
<path fill="none" stroke="midnightblue" d="M592.71,-262.94C541.7,-251.22 450.15,-230.19 394.36,-217.38"/>
<polygon fill="midnightblue" stroke="midnightblue" points="394.9,-213.91 384.37,-215.08 393.33,-220.73 394.9,-213.91"/>
</g>
<!-- Node19&#45;&gt;Node8 -->
<g id="edge30" class="edge">
<title>Node19&#45;&gt;Node8</title>
<path fill="none" stroke="midnightblue" d="M640.93,-262.71C653.24,-252.76 673.77,-235.97 691,-221 706.44,-207.59 706.8,-199.32 725,-190 794.12,-154.59 821.4,-175.59 896,-154 898.64,-153.24 901.36,-152.38 904.07,-151.47"/>
<polygon fill="midnightblue" stroke="midnightblue" points="905.47,-154.69 913.73,-148.06 903.14,-148.09 905.47,-154.69"/>
</g>
<!-- Node19&#45;&gt;Node10 -->
<g id="edge26" class="edge">
<title>Node19&#45;&gt;Node10</title>
<path fill="none" stroke="midnightblue" d="M630,-262.84C630,-241.67 630,-186.95 630,-158.03"/>
<polygon fill="midnightblue" stroke="midnightblue" points="633.5,-158.02 630,-148.02 626.5,-158.02 633.5,-158.02"/>
</g>
<!-- Node19&#45;&gt;Node14 -->
<g id="edge27" class="edge">
<title>Node19&#45;&gt;Node14</title>
<path fill="none" stroke="midnightblue" d="M625.42,-262.85C616.75,-247.03 596.66,-212.97 573,-190 557.75,-175.2 537.58,-162.16 521.71,-153.03"/>
<polygon fill="midnightblue" stroke="midnightblue" points="523.37,-149.95 512.93,-148.13 519.96,-156.06 523.37,-149.95"/>
</g>
<!-- Node19&#45;&gt;Node15 -->
<g id="edge29" class="edge">
<title>Node19&#45;&gt;Node15</title>
<path fill="none" stroke="midnightblue" d="M586.2,-262.98C574.77,-260.89 562.44,-258.75 551,-257 420.87,-237.11 381.81,-262.87 257,-221 255.93,-220.64 254.85,-220.23 253.78,-219.79"/>
<polygon fill="midnightblue" stroke="midnightblue" points="255,-216.48 244.5,-215.07 251.83,-222.72 255,-216.48"/>
</g>
<!-- Node20 -->
<g id="node20" class="node">
<title>Node20</title>
<g id="a_node20"><a xlink:href="Operator_8h.html" target="_top" xlink:title=" ">
<polygon fill="white" stroke="black" points="723,-129 723,-148 887,-148 887,-129 723,-129"/>
<text text-anchor="middle" x="805" y="-136" font-family="Helvetica,sans-Serif" font-size="10.00">boomerang/ssl/exp/Operator.h</text>
</a>
</g>
</g>
<!-- Node19&#45;&gt;Node20 -->
<g id="edge24" class="edge">
<title>Node19&#45;&gt;Node20</title>
<path fill="none" stroke="midnightblue" d="M634.67,-262.74C643.75,-246.45 665.25,-211.21 692,-190 714.1,-172.48 743.24,-159.65 766.4,-151.31"/>
<polygon fill="midnightblue" stroke="midnightblue" points="767.61,-154.59 775.91,-148 765.32,-147.97 767.61,-154.59"/>
</g>
<!-- Node21 -->
<g id="node21" class="node">
<title>Node21</title>
<g id="a_node21"><a xlink:title=" ">
<polygon fill="white" stroke="#bfbfbf" points="446,-196 446,-215 498,-215 498,-196 446,-196"/>
<text text-anchor="middle" x="472" y="-203" font-family="Helvetica,sans-Serif" font-size="10.00">cassert</text>
</a>
</g>
</g>
<!-- Node19&#45;&gt;Node21 -->
<g id="edge28" class="edge">
<title>Node19&#45;&gt;Node21</title>
<path fill="none" stroke="midnightblue" d="M609.02,-262.87C581.75,-251.65 533.93,-231.98 502.61,-219.09"/>
<polygon fill="midnightblue" stroke="midnightblue" points="503.65,-215.74 493.07,-215.17 500.98,-222.21 503.65,-215.74"/>
</g>
<!-- Node22 -->
<g id="node22" class="node">
<title>Node22</title>
<g id="a_node22"><a xlink:title=" ">
<polygon fill="white" stroke="#bfbfbf" points="734,-196 734,-215 766,-215 766,-196 734,-196"/>
<text text-anchor="middle" x="750" y="-203" font-family="Helvetica,sans-Serif" font-size="10.00">set</text>
</a>
</g>
</g>
<!-- Node19&#45;&gt;Node22 -->
<g id="edge31" class="edge">
<title>Node19&#45;&gt;Node22</title>
<path fill="none" stroke="midnightblue" d="M646.18,-262.73C666.43,-251.77 701.3,-232.88 724.99,-220.05"/>
<polygon fill="midnightblue" stroke="midnightblue" points="726.95,-222.97 734.07,-215.13 723.61,-216.81 726.95,-222.97"/>
</g>
<!-- Node23 -->
<g id="node23" class="node">
<title>Node23</title>
<g id="a_node23"><a xlink:title=" ">
<polygon fill="white" stroke="#bfbfbf" points="516.5,-196 516.5,-215 563.5,-215 563.5,-196 516.5,-196"/>
<text text-anchor="middle" x="540" y="-203" font-family="Helvetica,sans-Serif" font-size="10.00">vector</text>
</a>
</g>
</g>
<!-- Node19&#45;&gt;Node23 -->
<g id="edge32" class="edge">
<title>Node19&#45;&gt;Node23</title>
<path fill="none" stroke="midnightblue" d="M617.86,-262.73C603.15,-252.11 578.14,-234.05 560.44,-221.26"/>
<polygon fill="midnightblue" stroke="midnightblue" points="562.1,-218.14 551.95,-215.13 558,-223.82 562.1,-218.14"/>
</g>
<!-- Node20&#45;&gt;Node7 -->
<g id="edge25" class="edge">
<title>Node20&#45;&gt;Node7</title>
<path fill="none" stroke="midnightblue" d="M821.05,-128.73C838.45,-119.23 866.74,-103.78 889.27,-91.47"/>
<polygon fill="midnightblue" stroke="midnightblue" points="891.11,-94.45 898.21,-86.59 887.75,-88.31 891.11,-94.45"/>
</g>
<!-- Node25&#45;&gt;Node19 -->
<g id="edge36" class="edge">
<title>Node25&#45;&gt;Node19</title>
<path fill="none" stroke="midnightblue" d="M636.54,-396.84C635.42,-375.67 632.52,-320.95 630.98,-292.03"/>
<polygon fill="midnightblue" stroke="midnightblue" points="634.48,-291.82 630.45,-282.02 627.49,-292.19 634.48,-291.82"/>
</g>
<!-- Node27 -->
<g id="node27" class="node">
<title>Node27</title>
<g id="a_node27"><a xlink:href="Binary_8h.html" target="_top" xlink:title=" ">
<polygon fill="white" stroke="black" points="737,-397 737,-416 889,-416 889,-397 737,-397"/>
<text text-anchor="middle" x="813" y="-404" font-family="Helvetica,sans-Serif" font-size="10.00">boomerang/ssl/exp/Binary.h</text>
</a>
</g>
</g>
<!-- Node26&#45;&gt;Node27 -->
<g id="edge38" class="edge">
<title>Node26&#45;&gt;Node27</title>
<path fill="none" stroke="midnightblue" d="M811.27,-463.73C811.56,-454.18 812.04,-438.62 812.42,-426.28"/>
<polygon fill="midnightblue" stroke="midnightblue" points="815.93,-426.23 812.73,-416.13 808.93,-426.01 815.93,-426.23"/>
</g>
<!-- Node28 -->
<g id="node28" class="node">
<title>Node28</title>
<g id="a_node28"><a xlink:href="Unary_8h.html" target="_top" xlink:title=" ">
<polygon fill="white" stroke="black" points="656.5,-330 656.5,-349 805.5,-349 805.5,-330 656.5,-330"/>
<text text-anchor="middle" x="731" y="-337" font-family="Helvetica,sans-Serif" font-size="10.00">boomerang/ssl/exp/Unary.h</text>
</a>
</g>
</g>
<!-- Node27&#45;&gt;Node28 -->
<g id="edge39" class="edge">
<title>Node27&#45;&gt;Node28</title>
<path fill="none" stroke="midnightblue" d="M801.94,-396.73C788.66,-386.21 766.17,-368.38 750.07,-355.62"/>
<polygon fill="midnightblue" stroke="midnightblue" points="751.89,-352.6 741.88,-349.13 747.55,-358.08 751.89,-352.6"/>
</g>
<!-- Node28&#45;&gt;Node19 -->
<g id="edge40" class="edge">
<title>Node28&#45;&gt;Node19</title>
<path fill="none" stroke="midnightblue" d="M717.38,-329.73C700.57,-318.92 671.77,-300.38 651.86,-287.57"/>
<polygon fill="midnightblue" stroke="midnightblue" points="653.71,-284.6 643.41,-282.13 649.92,-290.48 653.71,-284.6"/>
</g>
<!-- Node29&#45;&gt;Node3 -->
<g id="edge42" class="edge">
<title>Node29&#45;&gt;Node3</title>
<path fill="none" stroke="midnightblue" d="M201.82,-458.4C188.9,-449.37 171.94,-437.51 157.64,-427.52"/>
<polygon fill="midnightblue" stroke="midnightblue" points="159.34,-424.44 149.14,-421.58 155.33,-430.17 159.34,-424.44"/>
</g>
<!-- Node30&#45;&gt;Node5 -->
<g id="edge44" class="edge">
<title>Node30&#45;&gt;Node5</title>
<path fill="none" stroke="midnightblue" d="M368.94,-458.48C341.99,-437.23 290.12,-395.09 250,-355 231.01,-336.03 211.25,-312.63 197.59,-295.78"/>
<polygon fill="midnightblue" stroke="midnightblue" points="200.02,-293.22 191.03,-287.62 194.57,-297.61 200.02,-293.22"/>
</g>
<!-- Node31&#45;&gt;Node19 -->
<g id="edge46" class="edge">
<title>Node31&#45;&gt;Node19</title>
<path fill="none" stroke="midnightblue" d="M867.9,-329.94C818.61,-318.24 730.24,-297.28 676.19,-284.46"/>
<polygon fill="midnightblue" stroke="midnightblue" points="676.72,-280.99 666.18,-282.08 675.1,-287.8 676.72,-280.99"/>
</g>
<!-- Node32 -->
<g id="node32" class="node">
<title>Node32</title>
<g id="a_node32"><a xlink:href="ExpSet_8h.html" target="_top" xlink:title=" ">
<polygon fill="white" stroke="black" points="793.5,-263 793.5,-282 930.5,-282 930.5,-263 793.5,-263"/>
<text text-anchor="middle" x="862" y="-270" font-family="Helvetica,sans-Serif" font-size="10.00">boomerang/util/ExpSet.h</text>
</a>
</g>
</g>
<!-- Node31&#45;&gt;Node32 -->
<g id="edge47" class="edge">
<title>Node31&#45;&gt;Node32</title>
<path fill="none" stroke="midnightblue" d="M898.34,-329.73C891.91,-319.79 881.28,-303.34 873.17,-290.79"/>
<polygon fill="midnightblue" stroke="midnightblue" points="875.94,-288.63 867.57,-282.13 870.06,-292.43 875.94,-288.63"/>
</g>
<!-- Node32&#45;&gt;Node6 -->
<g id="edge48" class="edge">
<title>Node32&#45;&gt;Node6</title>
<path fill="none" stroke="midnightblue" d="M793.43,-264.24C709.33,-255.13 562.47,-238.55 437,-221 427.58,-219.68 417.62,-218.18 407.89,-216.66"/>
<polygon fill="midnightblue" stroke="midnightblue" points="408.3,-213.18 397.87,-215.07 407.2,-220.1 408.3,-213.18"/>
</g>
<!-- Node32&#45;&gt;Node8 -->
<g id="edge50" class="edge">
<title>Node32&#45;&gt;Node8</title>
<path fill="none" stroke="midnightblue" d="M873.63,-262.72C885.01,-253.52 902.06,-238.05 912,-221 923.54,-201.2 929.55,-175.3 932.49,-158.07"/>
<polygon fill="midnightblue" stroke="midnightblue" points="935.96,-158.56 934.01,-148.15 929.04,-157.5 935.96,-158.56"/>
</g>
<!-- Node32&#45;&gt;Node10 -->
<g id="edge49" class="edge">
<title>Node32&#45;&gt;Node10</title>
<path fill="none" stroke="midnightblue" d="M867.95,-262.79C878.22,-246.59 896.57,-211.49 879,-190 875.91,-186.22 758.16,-163.55 685.71,-149.9"/>
<polygon fill="midnightblue" stroke="midnightblue" points="686.28,-146.44 675.8,-148.03 684.98,-153.32 686.28,-146.44"/>
</g>
<!-- Node32&#45;&gt;Node22 -->
<g id="edge51" class="edge">
<title>Node32&#45;&gt;Node22</title>
<path fill="none" stroke="midnightblue" d="M846.9,-262.73C828.09,-251.82 795.75,-233.05 773.64,-220.22"/>
<polygon fill="midnightblue" stroke="midnightblue" points="775.27,-217.12 764.87,-215.13 771.76,-223.17 775.27,-217.12"/>
</g>
<!-- Node33 -->
<g id="node33" class="node">
<title>Node33</title>
<g id="a_node33"><a xlink:title=" ">
<polygon fill="white" stroke="#bfbfbf" points="784,-196 784,-215 870,-215 870,-196 784,-196"/>
<text text-anchor="middle" x="827" y="-203" font-family="Helvetica,sans-Serif" font-size="10.00">unordered_set</text>
</a>
</g>
</g>
<!-- Node32&#45;&gt;Node33 -->
<g id="edge52" class="edge">
<title>Node32&#45;&gt;Node33</title>
<path fill="none" stroke="midnightblue" d="M857.28,-262.73C851.98,-252.89 843.24,-236.66 836.51,-224.16"/>
<polygon fill="midnightblue" stroke="midnightblue" points="839.47,-222.27 831.65,-215.13 833.3,-225.59 839.47,-222.27"/>
</g>
<!-- Node34&#45;&gt;Node7 -->
<g id="edge54" class="edge">
<title>Node34&#45;&gt;Node7</title>
<path fill="none" stroke="midnightblue" d="M1031.36,-190.43C1017.67,-174.01 994.13,-146.14 973,-123 964.21,-113.37 954.23,-102.99 945.58,-94.16"/>
<polygon fill="midnightblue" stroke="midnightblue" points="947.9,-91.53 938.39,-86.86 942.91,-96.44 947.9,-91.53"/>
</g>
<!-- Node34&#45;&gt;Node8 -->
<g id="edge55" class="edge">
<title>Node34&#45;&gt;Node8</title>
<path fill="none" stroke="midnightblue" d="M1019.57,-190.4C1001.29,-179.39 976.04,-164.2 957.9,-153.28"/>
<polygon fill="midnightblue" stroke="midnightblue" points="959.51,-150.16 949.13,-148.01 955.9,-156.16 959.51,-150.16"/>
</g>
<!-- Node35&#45;&gt;Node7 -->
<g id="edge57" class="edge">
<title>Node35&#45;&gt;Node7</title>
<path fill="none" stroke="midnightblue" d="M1134.62,-391.41C1145.62,-355.08 1169.69,-256.44 1131,-190 1100.49,-137.6 1036.96,-106.67 988.28,-89.81"/>
<polygon fill="midnightblue" stroke="midnightblue" points="989.35,-86.48 978.76,-86.62 987.13,-93.12 989.35,-86.48"/>
</g>
<!-- Node36&#45;&gt;Node7 -->
<g id="edge59" class="edge">
<title>Node36&#45;&gt;Node7</title>
<path fill="none" stroke="midnightblue" d="M1178.1,-123.48C1126.98,-113.22 1057.54,-99.29 1004.17,-88.58"/>
<polygon fill="midnightblue" stroke="midnightblue" points="1004.55,-85.09 994.06,-86.55 1003.17,-91.95 1004.55,-85.09"/>
</g>
<!-- Node38&#45;&gt;Node7 -->
<g id="edge62" class="edge">
<title>Node38&#45;&gt;Node7</title>
<path fill="none" stroke="midnightblue" d="M1360.54,-391.24C1361.4,-367.04 1363,-316.37 1363,-273.5 1363,-273.5 1363,-273.5 1363,-204.5 1363,-167.31 1371.7,-147.82 1344,-123 1296.58,-80.5 1120.69,-72.41 1012.14,-71.61"/>
<polygon fill="midnightblue" stroke="midnightblue" points="1011.87,-68.11 1001.85,-71.55 1011.83,-75.11 1011.87,-68.11"/>
</g>
</g>
</svg>
