<?xml version="1.0" encoding="UTF-8" standalone="no"?>
<!DOCTYPE svg PUBLIC "-//W3C//DTD SVG 1.1//EN"
 "http://www.w3.org/Graphics/SVG/1.1/DTD/svg11.dtd">
<!-- Generated by graphviz version 2.43.0 (0)
 -->
<!-- Title: Main.cpp Pages: 1 -->
<svg width="1735pt" height="721pt"
 viewBox="0.00 0.00 1734.50 721.00" xmlns="http://www.w3.org/2000/svg" xmlns:xlink="http://www.w3.org/1999/xlink">
<g id="graph0" class="graph" transform="scale(1 1) rotate(0) translate(4 717)">
<title>Main.cpp</title>
<polygon fill="white" stroke="transparent" points="-4,4 -4,-717 1730.5,-717 1730.5,4 -4,4"/>
<!-- Node1 -->
<g id="node1" class="node">
<title>Node1</title>
<g id="a_node1"><a xlink:title=" ">
<polygon fill="#bfbfbf" stroke="black" points="1566.5,-693.5 1566.5,-712.5 1627.5,-712.5 1627.5,-693.5 1566.5,-693.5"/>
<text text-anchor="middle" x="1597" y="-700.5" font-family="Helvetica,sans-Serif" font-size="10.00">Main.cpp</text>
</a>
</g>
</g>
<!-- Node2 -->
<g id="node2" class="node">
<title>Node2</title>
<g id="a_node2"><a xlink:href="CommandlineDriver_8h.html" target="_top" xlink:title=" ">
<polygon fill="white" stroke="black" points="1308,-626.5 1308,-656.5 1466,-656.5 1466,-626.5 1308,-626.5"/>
<text text-anchor="start" x="1316" y="-644.5" font-family="Helvetica,sans-Serif" font-size="10.00">boomerang&#45;cli/Commandline</text>
<text text-anchor="middle" x="1387" y="-633.5" font-family="Helvetica,sans-Serif" font-size="10.00">Driver.h</text>
</a>
</g>
</g>
<!-- Node1&#45;&gt;Node2 -->
<g id="edge1" class="edge">
<title>Node1&#45;&gt;Node2</title>
<path fill="none" stroke="midnightblue" d="M1566.91,-693.48C1535.55,-684.59 1485.57,-670.43 1446.24,-659.29"/>
<polygon fill="midnightblue" stroke="midnightblue" points="1447.07,-655.88 1436.49,-656.52 1445.16,-662.62 1447.07,-655.88"/>
</g>
<!-- Node5 -->
<g id="node5" class="node">
<title>Node5</title>
<g id="a_node5"><a xlink:title=" ">
<polygon fill="white" stroke="#bfbfbf" points="1557,-509 1557,-528 1627,-528 1627,-509 1557,-509"/>
<text text-anchor="middle" x="1592" y="-516" font-family="Helvetica,sans-Serif" font-size="10.00">QStringList</text>
</a>
</g>
</g>
<!-- Node1&#45;&gt;Node5 -->
<g id="edge74" class="edge">
<title>Node1&#45;&gt;Node5</title>
<path fill="none" stroke="midnightblue" d="M1596.76,-693.2C1595.99,-665.19 1593.59,-577.71 1592.52,-538.66"/>
<polygon fill="midnightblue" stroke="midnightblue" points="1596.01,-538.11 1592.24,-528.21 1589.01,-538.31 1596.01,-538.11"/>
</g>
<!-- Node45 -->
<g id="node45" class="node">
<title>Node45</title>
<g id="a_node45"><a xlink:title=" ">
<polygon fill="white" stroke="#bfbfbf" points="1625.5,-632 1625.5,-651 1726.5,-651 1726.5,-632 1625.5,-632"/>
<text text-anchor="middle" x="1676" y="-639" font-family="Helvetica,sans-Serif" font-size="10.00">QCoreApplication</text>
</a>
</g>
</g>
<!-- Node1&#45;&gt;Node45 -->
<g id="edge73" class="edge">
<title>Node1&#45;&gt;Node45</title>
<path fill="none" stroke="midnightblue" d="M1608.32,-693.48C1620.87,-684.02 1641.35,-668.6 1656.5,-657.19"/>
<polygon fill="midnightblue" stroke="midnightblue" points="1658.82,-659.82 1664.7,-651.01 1654.61,-654.23 1658.82,-659.82"/>
</g>
<!-- Node3 -->
<g id="node3" class="node">
<title>Node3</title>
<g id="a_node3"><a xlink:href="Console_8h.html" target="_top" xlink:title=" ">
<polygon fill="white" stroke="black" points="1431,-570.5 1431,-589.5 1569,-589.5 1569,-570.5 1431,-570.5"/>
<text text-anchor="middle" x="1500" y="-577.5" font-family="Helvetica,sans-Serif" font-size="10.00">boomerang&#45;cli/Console.h</text>
</a>
</g>
</g>
<!-- Node2&#45;&gt;Node3 -->
<g id="edge2" class="edge">
<title>Node2&#45;&gt;Node3</title>
<path fill="none" stroke="midnightblue" d="M1413.78,-626.4C1432.06,-616.77 1456.15,-604.09 1474.21,-594.58"/>
<polygon fill="midnightblue" stroke="midnightblue" points="1476.34,-597.41 1483.56,-589.66 1473.08,-591.22 1476.34,-597.41"/>
</g>
<!-- Node6 -->
<g id="node6" class="node">
<title>Node6</title>
<g id="a_node6"><a xlink:href="Project_8h.html" target="_top" xlink:title=" ">
<polygon fill="white" stroke="black" points="1121,-570.5 1121,-589.5 1263,-589.5 1263,-570.5 1121,-570.5"/>
<text text-anchor="middle" x="1192" y="-577.5" font-family="Helvetica,sans-Serif" font-size="10.00">boomerang/core/Project.h</text>
</a>
</g>
</g>
<!-- Node2&#45;&gt;Node6 -->
<g id="edge5" class="edge">
<title>Node2&#45;&gt;Node6</title>
<path fill="none" stroke="midnightblue" d="M1340.79,-626.4C1306.95,-616.07 1261.58,-602.23 1229.87,-592.56"/>
<polygon fill="midnightblue" stroke="midnightblue" points="1230.68,-589.14 1220.09,-589.57 1228.63,-595.84 1230.68,-589.14"/>
</g>
<!-- Node43 -->
<g id="node43" class="node">
<title>Node43</title>
<g id="a_node43"><a xlink:title=" ">
<polygon fill="white" stroke="#bfbfbf" points="1287,-570.5 1287,-589.5 1343,-589.5 1343,-570.5 1287,-570.5"/>
<text text-anchor="middle" x="1315" y="-577.5" font-family="Helvetica,sans-Serif" font-size="10.00">QObject</text>
</a>
</g>
</g>
<!-- Node2&#45;&gt;Node43 -->
<g id="edge71" class="edge">
<title>Node2&#45;&gt;Node43</title>
<path fill="none" stroke="midnightblue" d="M1369.94,-626.4C1358.94,-617.31 1344.63,-605.49 1333.38,-596.19"/>
<polygon fill="midnightblue" stroke="midnightblue" points="1335.41,-593.33 1325.48,-589.66 1330.96,-598.73 1335.41,-593.33"/>
</g>
<!-- Node44 -->
<g id="node44" class="node">
<title>Node44</title>
<g id="a_node44"><a xlink:title=" ">
<polygon fill="white" stroke="#bfbfbf" points="1361,-570.5 1361,-589.5 1413,-589.5 1413,-570.5 1361,-570.5"/>
<text text-anchor="middle" x="1387" y="-577.5" font-family="Helvetica,sans-Serif" font-size="10.00">QTimer</text>
</a>
</g>
</g>
<!-- Node2&#45;&gt;Node44 -->
<g id="edge72" class="edge">
<title>Node2&#45;&gt;Node44</title>
<path fill="none" stroke="midnightblue" d="M1387,-626.4C1387,-618.47 1387,-608.46 1387,-599.86"/>
<polygon fill="midnightblue" stroke="midnightblue" points="1390.5,-599.66 1387,-589.66 1383.5,-599.66 1390.5,-599.66"/>
</g>
<!-- Node4 -->
<g id="node4" class="node">
<title>Node4</title>
<g id="a_node4"><a xlink:title=" ">
<polygon fill="white" stroke="#bfbfbf" points="1483.5,-509 1483.5,-528 1528.5,-528 1528.5,-509 1483.5,-509"/>
<text text-anchor="middle" x="1506" y="-516" font-family="Helvetica,sans-Serif" font-size="10.00">QMap</text>
</a>
</g>
</g>
<!-- Node3&#45;&gt;Node4 -->
<g id="edge3" class="edge">
<title>Node3&#45;&gt;Node4</title>
<path fill="none" stroke="midnightblue" d="M1500.86,-570.48C1501.71,-562.08 1503.03,-548.98 1504.12,-538.16"/>
<polygon fill="midnightblue" stroke="midnightblue" points="1507.62,-538.31 1505.14,-528.01 1500.66,-537.61 1507.62,-538.31"/>
</g>
<!-- Node3&#45;&gt;Node5 -->
<g id="edge4" class="edge">
<title>Node3&#45;&gt;Node5</title>
<path fill="none" stroke="midnightblue" d="M1513.18,-570.48C1528.07,-560.84 1552.54,-545.02 1570.27,-533.55"/>
<polygon fill="midnightblue" stroke="midnightblue" points="1572.35,-536.38 1578.84,-528.01 1568.55,-530.5 1572.35,-536.38"/>
</g>
<!-- Node7 -->
<g id="node7" class="node">
<title>Node7</title>
<g id="a_node7"><a xlink:href="BoomerangAPI_8h.html" target="_top" xlink:title=" ">
<polygon fill="white" stroke="black" points="203.5,-56.5 203.5,-86.5 358.5,-86.5 358.5,-56.5 203.5,-56.5"/>
<text text-anchor="start" x="211.5" y="-74.5" font-family="Helvetica,sans-Serif" font-size="10.00">boomerang/core/Boomerang</text>
<text text-anchor="middle" x="281" y="-63.5" font-family="Helvetica,sans-Serif" font-size="10.00">API.h</text>
</a>
</g>
</g>
<!-- Node6&#45;&gt;Node7 -->
<g id="edge6" class="edge">
<title>Node6&#45;&gt;Node7</title>
<path fill="none" stroke="midnightblue" d="M1120.56,-578.96C863.4,-577.89 0,-565.85 0,-452.5 0,-452.5 0,-452.5 0,-193.5 0,-108.09 110.86,-82.24 193.31,-74.82"/>
<polygon fill="midnightblue" stroke="midnightblue" points="193.79,-78.29 203.47,-73.99 193.22,-71.32 193.79,-78.29"/>
</g>
<!-- Node8 -->
<g id="node8" class="node">
<title>Node8</title>
<g id="a_node8"><a xlink:href="PluginManager_8h.html" target="_top" xlink:title=" ">
<polygon fill="white" stroke="black" points="927.5,-503.5 927.5,-533.5 1056.5,-533.5 1056.5,-503.5 927.5,-503.5"/>
<text text-anchor="start" x="935.5" y="-521.5" font-family="Helvetica,sans-Serif" font-size="10.00">boomerang/core/plugin</text>
<text text-anchor="middle" x="992" y="-510.5" font-family="Helvetica,sans-Serif" font-size="10.00">/PluginManager.h</text>
</a>
</g>
</g>
<!-- Node6&#45;&gt;Node8 -->
<g id="edge7" class="edge">
<title>Node6&#45;&gt;Node8</title>
<path fill="none" stroke="midnightblue" d="M1163.34,-570.48C1133.6,-561.63 1086.28,-547.55 1048.9,-536.43"/>
<polygon fill="midnightblue" stroke="midnightblue" points="1049.72,-533.02 1039.14,-533.52 1047.72,-539.73 1049.72,-533.02"/>
</g>
<!-- Node14 -->
<g id="node14" class="node">
<title>Node14</title>
<g id="a_node14"><a xlink:title=" ">
<polygon fill="white" stroke="#bfbfbf" points="573,-185 573,-204 631,-204 631,-185 573,-185"/>
<text text-anchor="middle" x="602" y="-192" font-family="Helvetica,sans-Serif" font-size="10.00">memory</text>
</a>
</g>
</g>
<!-- Node6&#45;&gt;Node14 -->
<g id="edge68" class="edge">
<title>Node6&#45;&gt;Node14</title>
<path fill="none" stroke="midnightblue" d="M1120.93,-573.04C1051.79,-566.23 952.43,-553.44 919,-534 878.71,-510.57 853,-499.11 853,-452.5 853,-452.5 853,-452.5 853,-383.5 853,-351.05 857.42,-335.46 834,-313 781.39,-262.55 736.73,-314.12 674,-277 659.78,-268.59 631.36,-233.59 614.79,-212.29"/>
<polygon fill="midnightblue" stroke="midnightblue" points="617.37,-209.9 608.5,-204.11 611.83,-214.17 617.37,-209.9"/>
</g>
<!-- Node17 -->
<g id="node17" class="node">
<title>Node17</title>
<g id="a_node17"><a xlink:href="Address_8h.html" target="_top" xlink:title=" ">
<polygon fill="white" stroke="black" points="1019,-185 1019,-204 1161,-204 1161,-185 1019,-185"/>
<text text-anchor="middle" x="1090" y="-192" font-family="Helvetica,sans-Serif" font-size="10.00">boomerang/util/Address.h</text>
</a>
</g>
</g>
<!-- Node6&#45;&gt;Node17 -->
<g id="edge67" class="edge">
<title>Node6&#45;&gt;Node17</title>
<path fill="none" stroke="midnightblue" d="M1192.8,-570.42C1194.64,-550.01 1199,-496.93 1199,-452.5 1199,-452.5 1199,-452.5 1199,-383.5 1199,-319.98 1196.8,-297.77 1160,-246 1148.86,-230.32 1131.29,-217.67 1116.54,-208.95"/>
<polygon fill="midnightblue" stroke="midnightblue" points="1118.24,-205.89 1107.81,-204.04 1114.81,-211.99 1118.24,-205.89"/>
</g>
<!-- Node28 -->
<g id="node28" class="node">
<title>Node28</title>
<g id="a_node28"><a xlink:href="IFileLoader_8h.html" target="_top" xlink:title=" ">
<polygon fill="white" stroke="black" points="1019,-313.5 1019,-332.5 1171,-332.5 1171,-313.5 1019,-313.5"/>
<text text-anchor="middle" x="1095" y="-320.5" font-family="Helvetica,sans-Serif" font-size="10.00">boomerang/ifc/IFileLoader.h</text>
</a>
</g>
</g>
<!-- Node6&#45;&gt;Node28 -->
<g id="edge66" class="edge">
<title>Node6&#45;&gt;Node28</title>
<path fill="none" stroke="midnightblue" d="M1188.66,-570.22C1174.76,-533.67 1121.28,-393.09 1101.99,-342.38"/>
<polygon fill="midnightblue" stroke="midnightblue" points="1105.15,-340.84 1098.32,-332.74 1098.61,-343.33 1105.15,-340.84"/>
</g>
<!-- Node36 -->
<g id="node36" class="node">
<title>Node36</title>
<g id="a_node36"><a xlink:title=" ">
<polygon fill="white" stroke="#bfbfbf" points="1358.5,-185 1358.5,-204 1405.5,-204 1405.5,-185 1358.5,-185"/>
<text text-anchor="middle" x="1382" y="-192" font-family="Helvetica,sans-Serif" font-size="10.00">vector</text>
</a>
</g>
</g>
<!-- Node6&#45;&gt;Node36 -->
<g id="edge70" class="edge">
<title>Node6&#45;&gt;Node36</title>
<path fill="none" stroke="midnightblue" d="M1248.24,-570.46C1311.35,-557.31 1405,-525.51 1405,-452.5 1405,-452.5 1405,-452.5 1405,-322 1405,-283.09 1394.34,-238.52 1387.53,-214.04"/>
<polygon fill="midnightblue" stroke="midnightblue" points="1390.86,-212.94 1384.73,-204.3 1384.13,-214.87 1390.86,-212.94"/>
</g>
<!-- Node42 -->
<g id="node42" class="node">
<title>Node42</title>
<g id="a_node42"><a xlink:title=" ">
<polygon fill="white" stroke="#bfbfbf" points="1433,-509 1433,-528 1465,-528 1465,-509 1433,-509"/>
<text text-anchor="middle" x="1449" y="-516" font-family="Helvetica,sans-Serif" font-size="10.00">set</text>
</a>
</g>
</g>
<!-- Node6&#45;&gt;Node42 -->
<g id="edge69" class="edge">
<title>Node6&#45;&gt;Node42</title>
<path fill="none" stroke="midnightblue" d="M1257.72,-570.5C1303.67,-563.47 1366.04,-551.72 1419,-534 1420.62,-533.46 1422.27,-532.85 1423.91,-532.19"/>
<polygon fill="midnightblue" stroke="midnightblue" points="1425.4,-535.36 1433.12,-528.1 1422.56,-528.96 1425.4,-535.36"/>
</g>
<!-- Node8&#45;&gt;Node7 -->
<g id="edge8" class="edge">
<title>Node8&#45;&gt;Node7</title>
<path fill="none" stroke="midnightblue" d="M927.18,-515.37C712.46,-507.47 38,-475.48 38,-385.5 38,-385.5 38,-385.5 38,-193.5 38,-160.93 34.36,-145.4 58,-123 77.67,-104.36 139.76,-91.24 193.45,-83.06"/>
<polygon fill="midnightblue" stroke="midnightblue" points="193.99,-86.51 203.36,-81.58 192.96,-79.59 193.99,-86.51"/>
</g>
<!-- Node9 -->
<g id="node9" class="node">
<title>Node9</title>
<g id="a_node9"><a xlink:href="Plugin_8h.html" target="_top" xlink:title=" ">
<polygon fill="white" stroke="black" points="927.5,-436.5 927.5,-466.5 1056.5,-466.5 1056.5,-436.5 927.5,-436.5"/>
<text text-anchor="start" x="935.5" y="-454.5" font-family="Helvetica,sans-Serif" font-size="10.00">boomerang/core/plugin</text>
<text text-anchor="middle" x="992" y="-443.5" font-family="Helvetica,sans-Serif" font-size="10.00">/Plugin.h</text>
</a>
</g>
</g>
<!-- Node8&#45;&gt;Node9 -->
<g id="edge9" class="edge">
<title>Node8&#45;&gt;Node9</title>
<path fill="none" stroke="midnightblue" d="M992,-503.4C992,-495.64 992,-485.81 992,-476.86"/>
<polygon fill="midnightblue" stroke="midnightblue" points="995.5,-476.58 992,-466.58 988.5,-476.58 995.5,-476.58"/>
</g>
<!-- Node10 -->
<g id="node10" class="node">
<title>Node10</title>
<g id="a_node10"><a xlink:href="PluginHandle_8h.html" target="_top" xlink:title=" ">
<polygon fill="white" stroke="black" points="881.5,-369.5 881.5,-399.5 1010.5,-399.5 1010.5,-369.5 881.5,-369.5"/>
<text text-anchor="start" x="889.5" y="-387.5" font-family="Helvetica,sans-Serif" font-size="10.00">boomerang/core/plugin</text>
<text text-anchor="middle" x="946" y="-376.5" font-family="Helvetica,sans-Serif" font-size="10.00">/PluginHandle.h</text>
</a>
</g>
</g>
<!-- Node9&#45;&gt;Node10 -->
<g id="edge10" class="edge">
<title>Node9&#45;&gt;Node10</title>
<path fill="none" stroke="midnightblue" d="M982.02,-436.4C976.11,-428.05 968.5,-417.29 961.79,-407.81"/>
<polygon fill="midnightblue" stroke="midnightblue" points="964.6,-405.72 955.96,-399.58 958.88,-409.76 964.6,-405.72"/>
</g>
<!-- Node11 -->
<g id="node11" class="node">
<title>Node11</title>
<g id="a_node11"><a xlink:href="PluginType_8h.html" target="_top" xlink:title=" ">
<polygon fill="white" stroke="black" points="580.5,-369.5 580.5,-399.5 709.5,-399.5 709.5,-369.5 580.5,-369.5"/>
<text text-anchor="start" x="588.5" y="-387.5" font-family="Helvetica,sans-Serif" font-size="10.00">boomerang/core/plugin</text>
<text text-anchor="middle" x="645" y="-376.5" font-family="Helvetica,sans-Serif" font-size="10.00">/PluginType.h</text>
</a>
</g>
</g>
<!-- Node9&#45;&gt;Node11 -->
<g id="edge11" class="edge">
<title>Node9&#45;&gt;Node11</title>
<path fill="none" stroke="midnightblue" d="M927.14,-438.35C868.24,-427.32 781.38,-411.05 719.62,-399.48"/>
<polygon fill="midnightblue" stroke="midnightblue" points="720.02,-395.99 709.54,-397.59 718.73,-402.87 720.02,-395.99"/>
</g>
<!-- Node22 -->
<g id="node22" class="node">
<title>Node22</title>
<g id="a_node22"><a xlink:title=" ">
<polygon fill="white" stroke="#bfbfbf" points="766.5,-123.5 766.5,-142.5 819.5,-142.5 819.5,-123.5 766.5,-123.5"/>
<text text-anchor="middle" x="793" y="-130.5" font-family="Helvetica,sans-Serif" font-size="10.00">QString</text>
</a>
</g>
</g>
<!-- Node9&#45;&gt;Node22 -->
<g id="edge64" class="edge">
<title>Node9&#45;&gt;Node22</title>
<path fill="none" stroke="midnightblue" d="M1002.44,-436.31C1008.9,-426.63 1016.59,-413.2 1020,-400 1023.45,-386.66 1021.86,-382.65 1020,-369 1017.76,-352.55 1014.21,-349.06 1010,-333 992.12,-264.81 1021.89,-228.81 972,-179 926.72,-133.8 893.44,-157.49 829.6,-143.93"/>
<polygon fill="midnightblue" stroke="midnightblue" points="830.06,-140.44 819.52,-141.53 828.44,-147.25 830.06,-140.44"/>
</g>
<!-- Node33 -->
<g id="node33" class="node">
<title>Node33</title>
<g id="a_node33"><a xlink:title=" ">
<polygon fill="white" stroke="#bfbfbf" points="1417,-123.5 1417,-142.5 1469,-142.5 1469,-123.5 1417,-123.5"/>
<text text-anchor="middle" x="1443" y="-130.5" font-family="Helvetica,sans-Serif" font-size="10.00">cassert</text>
</a>
</g>
</g>
<!-- Node9&#45;&gt;Node33 -->
<g id="edge65" class="edge">
<title>Node9&#45;&gt;Node33</title>
<path fill="none" stroke="midnightblue" d="M1056.84,-442.28C1171.06,-423.92 1405.53,-367.94 1506,-210 1513.4,-198.38 1512.3,-191.25 1506,-179 1498.92,-165.25 1485.48,-154.77 1472.82,-147.39"/>
<polygon fill="midnightblue" stroke="midnightblue" points="1474.31,-144.22 1463.85,-142.57 1471,-150.39 1474.31,-144.22"/>
</g>
<!-- Node12 -->
<g id="node12" class="node">
<title>Node12</title>
<g id="a_node12"><a xlink:href="ICodeGenerator_8h.html" target="_top" xlink:title=" ">
<polygon fill="white" stroke="black" points="290,-313.5 290,-332.5 466,-332.5 466,-313.5 290,-313.5"/>
<text text-anchor="middle" x="378" y="-320.5" font-family="Helvetica,sans-Serif" font-size="10.00">boomerang/ifc/ICodeGenerator.h</text>
</a>
</g>
</g>
<!-- Node11&#45;&gt;Node12 -->
<g id="edge12" class="edge">
<title>Node11&#45;&gt;Node12</title>
<path fill="none" stroke="midnightblue" d="M582.06,-369.47C534.29,-358.83 469.6,-344.41 425.97,-334.69"/>
<polygon fill="midnightblue" stroke="midnightblue" points="426.69,-331.27 416.17,-332.51 425.17,-338.1 426.69,-331.27"/>
</g>
<!-- Node15 -->
<g id="node15" class="node">
<title>Node15</title>
<g id="a_node15"><a xlink:href="IDecoder_8h.html" target="_top" xlink:title=" ">
<polygon fill="white" stroke="black" points="484.5,-313.5 484.5,-332.5 627.5,-332.5 627.5,-313.5 484.5,-313.5"/>
<text text-anchor="middle" x="556" y="-320.5" font-family="Helvetica,sans-Serif" font-size="10.00">boomerang/ifc/IDecoder.h</text>
</a>
</g>
</g>
<!-- Node11&#45;&gt;Node15 -->
<g id="edge16" class="edge">
<title>Node11&#45;&gt;Node15</title>
<path fill="none" stroke="midnightblue" d="M623.91,-369.4C609.91,-360.04 591.59,-347.79 577.51,-338.38"/>
<polygon fill="midnightblue" stroke="midnightblue" points="579.21,-335.31 568.95,-332.66 575.32,-341.13 579.21,-335.31"/>
</g>
<!-- Node11&#45;&gt;Node28 -->
<g id="edge38" class="edge">
<title>Node11&#45;&gt;Node28</title>
<path fill="none" stroke="midnightblue" d="M709.95,-374.91C792.25,-364.03 933.77,-345.32 1020.41,-333.86"/>
<polygon fill="midnightblue" stroke="midnightblue" points="1020.98,-337.32 1030.43,-332.54 1020.06,-330.38 1020.98,-337.32"/>
</g>
<!-- Node37 -->
<g id="node37" class="node">
<title>Node37</title>
<g id="a_node37"><a xlink:href="IFrontEnd_8h.html" target="_top" xlink:title=" ">
<polygon fill="white" stroke="black" points="817.5,-252 817.5,-271 962.5,-271 962.5,-252 817.5,-252"/>
<text text-anchor="middle" x="890" y="-259" font-family="Helvetica,sans-Serif" font-size="10.00">boomerang/ifc/IFrontEnd.h</text>
</a>
</g>
</g>
<!-- Node11&#45;&gt;Node37 -->
<g id="edge51" class="edge">
<title>Node11&#45;&gt;Node37</title>
<path fill="none" stroke="midnightblue" d="M709.56,-376.59C748.17,-370.05 796.79,-357.39 834,-333 854.35,-319.66 870.66,-296.47 880.32,-280.34"/>
<polygon fill="midnightblue" stroke="midnightblue" points="883.52,-281.79 885.45,-271.37 877.45,-278.32 883.52,-281.79"/>
</g>
<!-- Node39 -->
<g id="node39" class="node">
<title>Node39</title>
<g id="a_node39"><a xlink:href="ILogSink_8h.html" target="_top" xlink:title=" ">
<polygon fill="white" stroke="black" points="67,-123.5 67,-142.5 207,-142.5 207,-123.5 67,-123.5"/>
<text text-anchor="middle" x="137" y="-130.5" font-family="Helvetica,sans-Serif" font-size="10.00">boomerang/ifc/ILogSink.h</text>
</a>
</g>
</g>
<!-- Node11&#45;&gt;Node39 -->
<g id="edge58" class="edge">
<title>Node11&#45;&gt;Node39</title>
<path fill="none" stroke="midnightblue" d="M580.27,-382.36C441.69,-379.25 126.23,-368.32 94,-333 46.34,-280.77 99.42,-188.65 124.9,-150.88"/>
<polygon fill="midnightblue" stroke="midnightblue" points="127.89,-152.72 130.71,-142.5 122.14,-148.73 127.89,-152.72"/>
</g>
<!-- Node40 -->
<g id="node40" class="node">
<title>Node40</title>
<g id="a_node40"><a xlink:href="ISymbolProvider_8h.html" target="_top" xlink:title=" ">
<polygon fill="white" stroke="black" points="645.5,-313.5 645.5,-332.5 824.5,-332.5 824.5,-313.5 645.5,-313.5"/>
<text text-anchor="middle" x="735" y="-320.5" font-family="Helvetica,sans-Serif" font-size="10.00">boomerang/ifc/ISymbolProvider.h</text>
</a>
</g>
</g>
<!-- Node11&#45;&gt;Node40 -->
<g id="edge60" class="edge">
<title>Node11&#45;&gt;Node40</title>
<path fill="none" stroke="midnightblue" d="M666.33,-369.4C680.49,-360.04 699.01,-347.79 713.25,-338.38"/>
<polygon fill="midnightblue" stroke="midnightblue" points="715.49,-341.09 721.9,-332.66 711.63,-335.25 715.49,-341.09"/>
</g>
<!-- Node41 -->
<g id="node41" class="node">
<title>Node41</title>
<g id="a_node41"><a xlink:href="ITypeRecovery_8h.html" target="_top" xlink:title=" ">
<polygon fill="white" stroke="black" points="103.5,-313.5 103.5,-332.5 272.5,-332.5 272.5,-313.5 103.5,-313.5"/>
<text text-anchor="middle" x="188" y="-320.5" font-family="Helvetica,sans-Serif" font-size="10.00">boomerang/ifc/ITypeRecovery.h</text>
</a>
</g>
</g>
<!-- Node11&#45;&gt;Node41 -->
<g id="edge62" class="edge">
<title>Node11&#45;&gt;Node41</title>
<path fill="none" stroke="midnightblue" d="M580.49,-375.1C496.98,-364.23 351.7,-345.31 263.25,-333.8"/>
<polygon fill="midnightblue" stroke="midnightblue" points="263.66,-330.32 253.29,-332.5 262.75,-337.26 263.66,-330.32"/>
</g>
<!-- Node13 -->
<g id="node13" class="node">
<title>Node13</title>
<g id="a_node13"><a xlink:href="ExpHelp_8h.html" target="_top" xlink:title=" ">
<polygon fill="white" stroke="black" points="427,-252 427,-271 589,-271 589,-252 427,-252"/>
<text text-anchor="middle" x="508" y="-259" font-family="Helvetica,sans-Serif" font-size="10.00">boomerang/ssl/exp/ExpHelp.h</text>
</a>
</g>
</g>
<!-- Node12&#45;&gt;Node13 -->
<g id="edge13" class="edge">
<title>Node12&#45;&gt;Node13</title>
<path fill="none" stroke="midnightblue" d="M396.63,-313.48C418.44,-303.49 454.8,-286.85 480.02,-275.31"/>
<polygon fill="midnightblue" stroke="midnightblue" points="481.77,-278.35 489.41,-271.01 478.86,-271.99 481.77,-278.35"/>
</g>
<!-- Node13&#45;&gt;Node7 -->
<g id="edge14" class="edge">
<title>Node13&#45;&gt;Node7</title>
<path fill="none" stroke="midnightblue" d="M503.34,-251.81C494.53,-235.94 474.1,-201.79 450,-179 410.56,-141.71 356.17,-110.21 319.86,-91.36"/>
<polygon fill="midnightblue" stroke="midnightblue" points="321.08,-88.05 310.58,-86.61 317.89,-94.28 321.08,-88.05"/>
</g>
<!-- Node13&#45;&gt;Node14 -->
<g id="edge15" class="edge">
<title>Node13&#45;&gt;Node14</title>
<path fill="none" stroke="midnightblue" d="M520.68,-251.73C536.18,-241.01 562.64,-222.72 581.16,-209.91"/>
<polygon fill="midnightblue" stroke="midnightblue" points="583.29,-212.69 589.52,-204.13 579.31,-206.94 583.29,-212.69"/>
</g>
<!-- Node16 -->
<g id="node16" class="node">
<title>Node16</title>
<g id="a_node16"><a xlink:href="DecodeResult_8h.html" target="_top" xlink:title=" ">
<polygon fill="white" stroke="black" points="683,-246.5 683,-276.5 799,-276.5 799,-246.5 683,-246.5"/>
<text text-anchor="start" x="691" y="-264.5" font-family="Helvetica,sans-Serif" font-size="10.00">boomerang/frontend</text>
<text text-anchor="middle" x="741" y="-253.5" font-family="Helvetica,sans-Serif" font-size="10.00">/DecodeResult.h</text>
</a>
</g>
</g>
<!-- Node15&#45;&gt;Node16 -->
<g id="edge17" class="edge">
<title>Node15&#45;&gt;Node16</title>
<path fill="none" stroke="midnightblue" d="M582.51,-313.48C609.79,-304.7 653.05,-290.79 687.48,-279.71"/>
<polygon fill="midnightblue" stroke="midnightblue" points="688.95,-282.92 697.4,-276.52 686.81,-276.25 688.95,-282.92"/>
</g>
<!-- Node25 -->
<g id="node25" class="node">
<title>Node25</title>
<g id="a_node25"><a xlink:href="Register_8h.html" target="_top" xlink:title=" ">
<polygon fill="white" stroke="black" points="267.5,-252 267.5,-271 408.5,-271 408.5,-252 267.5,-252"/>
<text text-anchor="middle" x="338" y="-259" font-family="Helvetica,sans-Serif" font-size="10.00">boomerang/ssl/Register.h</text>
</a>
</g>
</g>
<!-- Node15&#45;&gt;Node25 -->
<g id="edge31" class="edge">
<title>Node15&#45;&gt;Node25</title>
<path fill="none" stroke="midnightblue" d="M524.77,-313.48C486.4,-303 421.21,-285.21 378.89,-273.66"/>
<polygon fill="midnightblue" stroke="midnightblue" points="379.74,-270.27 369.18,-271.01 377.9,-277.02 379.74,-270.27"/>
</g>
<!-- Node16&#45;&gt;Node14 -->
<g id="edge30" class="edge">
<title>Node16&#45;&gt;Node14</title>
<path fill="none" stroke="midnightblue" d="M710.84,-246.4C686.56,-235.04 652.72,-219.22 629.25,-208.24"/>
<polygon fill="midnightblue" stroke="midnightblue" points="630.73,-205.07 620.19,-204.01 627.77,-211.41 630.73,-205.07"/>
</g>
<!-- Node16&#45;&gt;Node17 -->
<g id="edge18" class="edge">
<title>Node16&#45;&gt;Node17</title>
<path fill="none" stroke="midnightblue" d="M799.21,-247.96C802.52,-247.29 805.8,-246.63 809,-246 884.93,-231.08 972.76,-215.58 1029.74,-205.75"/>
<polygon fill="midnightblue" stroke="midnightblue" points="1030.39,-209.19 1039.66,-204.04 1029.21,-202.29 1030.39,-209.19"/>
</g>
<!-- Node19 -->
<g id="node19" class="node">
<title>Node19</title>
<g id="a_node19"><a xlink:href="Types_8h.html" target="_top" xlink:title=" ">
<polygon fill="white" stroke="black" points="721.5,-62 721.5,-81 852.5,-81 852.5,-62 721.5,-62"/>
<text text-anchor="middle" x="787" y="-69" font-family="Helvetica,sans-Serif" font-size="10.00">boomerang/util/Types.h</text>
</a>
</g>
</g>
<!-- Node16&#45;&gt;Node19 -->
<g id="edge27" class="edge">
<title>Node16&#45;&gt;Node19</title>
<path fill="none" stroke="midnightblue" d="M740.84,-246.41C740.96,-221.02 743.12,-166.21 758,-123 762.05,-111.24 768.9,-99.12 774.93,-89.71"/>
<polygon fill="midnightblue" stroke="midnightblue" points="777.9,-91.56 780.55,-81.3 772.08,-87.67 777.9,-91.56"/>
</g>
<!-- Node23 -->
<g id="node23" class="node">
<title>Node23</title>
<g id="a_node23"><a xlink:title=" ">
<polygon fill="white" stroke="#bfbfbf" points="649.5,-185 649.5,-204 702.5,-204 702.5,-185 649.5,-185"/>
<text text-anchor="middle" x="676" y="-192" font-family="Helvetica,sans-Serif" font-size="10.00">cstddef</text>
</a>
</g>
</g>
<!-- Node16&#45;&gt;Node23 -->
<g id="edge28" class="edge">
<title>Node16&#45;&gt;Node23</title>
<path fill="none" stroke="midnightblue" d="M726.9,-246.4C716.56,-236.06 702.52,-222.02 691.81,-211.31"/>
<polygon fill="midnightblue" stroke="midnightblue" points="694.24,-208.79 684.69,-204.19 689.29,-213.74 694.24,-208.79"/>
</g>
<!-- Node24 -->
<g id="node24" class="node">
<title>Node24</title>
<g id="a_node24"><a xlink:title=" ">
<polygon fill="white" stroke="#bfbfbf" points="759,-185 759,-204 791,-204 791,-185 759,-185"/>
<text text-anchor="middle" x="775" y="-192" font-family="Helvetica,sans-Serif" font-size="10.00">list</text>
</a>
</g>
</g>
<!-- Node16&#45;&gt;Node24 -->
<g id="edge29" class="edge">
<title>Node16&#45;&gt;Node24</title>
<path fill="none" stroke="midnightblue" d="M748.38,-246.4C753.47,-236.66 760.28,-223.65 765.73,-213.21"/>
<polygon fill="midnightblue" stroke="midnightblue" points="768.92,-214.68 770.45,-204.19 762.72,-211.43 768.92,-214.68"/>
</g>
<!-- Node17&#45;&gt;Node7 -->
<g id="edge19" class="edge">
<title>Node17&#45;&gt;Node7</title>
<path fill="none" stroke="midnightblue" d="M1045.99,-184.96C990.78,-173.99 899.4,-154.96 867,-143 849.1,-136.39 847.3,-128.42 829,-123 745.19,-98.16 501.22,-83.03 368.86,-76.42"/>
<polygon fill="midnightblue" stroke="midnightblue" points="368.91,-72.92 358.75,-75.92 368.56,-79.91 368.91,-72.92"/>
</g>
<!-- Node18 -->
<g id="node18" class="node">
<title>Node18</title>
<g id="a_node18"><a xlink:href="OStream_8h.html" target="_top" xlink:title=" ">
<polygon fill="white" stroke="black" points="876,-123.5 876,-142.5 1022,-142.5 1022,-123.5 876,-123.5"/>
<text text-anchor="middle" x="949" y="-130.5" font-family="Helvetica,sans-Serif" font-size="10.00">boomerang/util/OStream.h</text>
</a>
</g>
</g>
<!-- Node17&#45;&gt;Node18 -->
<g id="edge20" class="edge">
<title>Node17&#45;&gt;Node18</title>
<path fill="none" stroke="midnightblue" d="M1069.8,-184.98C1045.93,-174.9 1006,-158.05 978.63,-146.5"/>
<polygon fill="midnightblue" stroke="midnightblue" points="979.74,-143.17 969.16,-142.51 977.02,-149.62 979.74,-143.17"/>
</g>
<!-- Node17&#45;&gt;Node19 -->
<g id="edge25" class="edge">
<title>Node17&#45;&gt;Node19</title>
<path fill="none" stroke="midnightblue" d="M1085.45,-184.96C1076.92,-169.86 1057.02,-138.57 1031,-123 1002.91,-106.2 922.77,-91.62 861.93,-82.5"/>
<polygon fill="midnightblue" stroke="midnightblue" points="862.37,-79.02 851.96,-81.03 861.34,-85.95 862.37,-79.02"/>
</g>
<!-- Node17&#45;&gt;Node22 -->
<g id="edge26" class="edge">
<title>Node17&#45;&gt;Node22</title>
<path fill="none" stroke="midnightblue" d="M1045.08,-184.94C993.92,-175.12 907.84,-158.39 834,-143 832.72,-142.73 831.41,-142.46 830.09,-142.18"/>
<polygon fill="midnightblue" stroke="midnightblue" points="830.4,-138.67 819.89,-139.99 828.93,-145.51 830.4,-138.67"/>
</g>
<!-- Node18&#45;&gt;Node7 -->
<g id="edge21" class="edge">
<title>Node18&#45;&gt;Node7</title>
<path fill="none" stroke="midnightblue" d="M875.91,-124.35C871.2,-123.89 866.53,-123.43 862,-123 687.11,-106.35 482.39,-89.07 368.62,-79.67"/>
<polygon fill="midnightblue" stroke="midnightblue" points="368.82,-76.17 358.57,-78.84 368.25,-83.15 368.82,-76.17"/>
</g>
<!-- Node18&#45;&gt;Node19 -->
<g id="edge22" class="edge">
<title>Node18&#45;&gt;Node19</title>
<path fill="none" stroke="midnightblue" d="M925.79,-123.48C898,-113.27 851.28,-96.11 819.81,-84.55"/>
<polygon fill="midnightblue" stroke="midnightblue" points="820.76,-81.17 810.17,-81.01 818.35,-87.74 820.76,-81.17"/>
</g>
<!-- Node21 -->
<g id="node21" class="node">
<title>Node21</title>
<g id="a_node21"><a xlink:title=" ">
<polygon fill="white" stroke="#bfbfbf" points="926,-62 926,-81 972,-81 972,-62 926,-62"/>
<text text-anchor="middle" x="949" y="-69" font-family="Helvetica,sans-Serif" font-size="10.00">cstdio</text>
</a>
</g>
</g>
<!-- Node18&#45;&gt;Node21 -->
<g id="edge24" class="edge">
<title>Node18&#45;&gt;Node21</title>
<path fill="none" stroke="midnightblue" d="M949,-123.48C949,-115.08 949,-101.98 949,-91.16"/>
<polygon fill="midnightblue" stroke="midnightblue" points="952.5,-91.01 949,-81.01 945.5,-91.01 952.5,-91.01"/>
</g>
<!-- Node20 -->
<g id="node20" class="node">
<title>Node20</title>
<g id="a_node20"><a xlink:title=" ">
<polygon fill="white" stroke="#bfbfbf" points="762,-0.5 762,-19.5 812,-19.5 812,-0.5 762,-0.5"/>
<text text-anchor="middle" x="787" y="-7.5" font-family="Helvetica,sans-Serif" font-size="10.00">cstdint</text>
</a>
</g>
</g>
<!-- Node19&#45;&gt;Node20 -->
<g id="edge23" class="edge">
<title>Node19&#45;&gt;Node20</title>
<path fill="none" stroke="midnightblue" d="M787,-61.98C787,-53.58 787,-40.48 787,-29.66"/>
<polygon fill="midnightblue" stroke="midnightblue" points="790.5,-29.51 787,-19.51 783.5,-29.51 790.5,-29.51"/>
</g>
<!-- Node25&#45;&gt;Node7 -->
<g id="edge32" class="edge">
<title>Node25&#45;&gt;Node7</title>
<path fill="none" stroke="midnightblue" d="M329.13,-251.72C320.19,-242.29 306.78,-226.43 300,-210 284.59,-172.63 281.22,-125.2 280.72,-96.94"/>
<polygon fill="midnightblue" stroke="midnightblue" points="284.22,-96.74 280.66,-86.77 277.22,-96.79 284.22,-96.74"/>
</g>
<!-- Node25&#45;&gt;Node14 -->
<g id="edge35" class="edge">
<title>Node25&#45;&gt;Node14</title>
<path fill="none" stroke="midnightblue" d="M381.1,-251.99C425.88,-242.84 497.83,-227.26 559,-210 562.01,-209.15 565.12,-208.22 568.23,-207.24"/>
<polygon fill="midnightblue" stroke="midnightblue" points="569.6,-210.48 578.03,-204.06 567.43,-203.82 569.6,-210.48"/>
</g>
<!-- Node25&#45;&gt;Node19 -->
<g id="edge33" class="edge">
<title>Node25&#45;&gt;Node19</title>
<path fill="none" stroke="midnightblue" d="M363.25,-251.86C386.79,-243.19 422.33,-228.48 450,-210 466.73,-198.82 465.8,-189.44 483,-179 564.96,-129.25 673.5,-98.37 736.25,-83.4"/>
<polygon fill="midnightblue" stroke="midnightblue" points="737.35,-86.73 746.29,-81.04 735.76,-79.92 737.35,-86.73"/>
</g>
<!-- Node25&#45;&gt;Node22 -->
<g id="edge34" class="edge">
<title>Node25&#45;&gt;Node22</title>
<path fill="none" stroke="midnightblue" d="M363.23,-251.97C392.22,-242.11 441.19,-225.28 483,-210 519.21,-196.77 526.95,-189.64 564,-179 630.66,-159.85 710.55,-146.19 756.18,-139.24"/>
<polygon fill="midnightblue" stroke="midnightblue" points="756.83,-142.68 766.2,-137.74 755.79,-135.76 756.83,-142.68"/>
</g>
<!-- Node26 -->
<g id="node26" class="node">
<title>Node26</title>
<g id="a_node26"><a xlink:title=" ">
<polygon fill="white" stroke="#bfbfbf" points="309,-185 309,-204 353,-204 353,-185 309,-185"/>
<text text-anchor="middle" x="331" y="-192" font-family="Helvetica,sans-Serif" font-size="10.00">string</text>
</a>
</g>
</g>
<!-- Node25&#45;&gt;Node26 -->
<g id="edge36" class="edge">
<title>Node25&#45;&gt;Node26</title>
<path fill="none" stroke="midnightblue" d="M337.06,-251.73C336.03,-242.18 334.35,-226.62 333.02,-214.28"/>
<polygon fill="midnightblue" stroke="midnightblue" points="336.48,-213.7 331.93,-204.13 329.52,-214.44 336.48,-213.7"/>
</g>
<!-- Node27 -->
<g id="node27" class="node">
<title>Node27</title>
<g id="a_node27"><a xlink:title=" ">
<polygon fill="white" stroke="#bfbfbf" points="371.5,-185 371.5,-204 440.5,-204 440.5,-185 371.5,-185"/>
<text text-anchor="middle" x="406" y="-192" font-family="Helvetica,sans-Serif" font-size="10.00">type_traits</text>
</a>
</g>
</g>
<!-- Node25&#45;&gt;Node27 -->
<g id="edge37" class="edge">
<title>Node25&#45;&gt;Node27</title>
<path fill="none" stroke="midnightblue" d="M347.17,-251.73C357.98,-241.4 376.15,-224.04 389.44,-211.33"/>
<polygon fill="midnightblue" stroke="midnightblue" points="392.16,-213.57 396.97,-204.13 387.33,-208.51 392.16,-213.57"/>
</g>
<!-- Node29 -->
<g id="node29" class="node">
<title>Node29</title>
<g id="a_node29"><a xlink:href="BinaryFile_8h.html" target="_top" xlink:title=" ">
<polygon fill="white" stroke="black" points="1029.5,-246.5 1029.5,-276.5 1150.5,-276.5 1150.5,-246.5 1029.5,-246.5"/>
<text text-anchor="start" x="1037.5" y="-264.5" font-family="Helvetica,sans-Serif" font-size="10.00">boomerang/db/binary</text>
<text text-anchor="middle" x="1090" y="-253.5" font-family="Helvetica,sans-Serif" font-size="10.00">/BinaryFile.h</text>
</a>
</g>
</g>
<!-- Node28&#45;&gt;Node29 -->
<g id="edge39" class="edge">
<title>Node28&#45;&gt;Node29</title>
<path fill="none" stroke="midnightblue" d="M1094.28,-313.48C1093.7,-306.47 1092.83,-296.19 1092.03,-286.7"/>
<polygon fill="midnightblue" stroke="midnightblue" points="1095.5,-286.19 1091.18,-276.52 1088.53,-286.78 1095.5,-286.19"/>
</g>
<!-- Node30 -->
<g id="node30" class="node">
<title>Node30</title>
<g id="a_node30"><a xlink:href="BinaryImage_8h.html" target="_top" xlink:title=" ">
<polygon fill="white" stroke="black" points="1217.5,-246.5 1217.5,-276.5 1338.5,-276.5 1338.5,-246.5 1217.5,-246.5"/>
<text text-anchor="start" x="1225.5" y="-264.5" font-family="Helvetica,sans-Serif" font-size="10.00">boomerang/db/binary</text>
<text text-anchor="middle" x="1278" y="-253.5" font-family="Helvetica,sans-Serif" font-size="10.00">/BinaryImage.h</text>
</a>
</g>
</g>
<!-- Node28&#45;&gt;Node30 -->
<g id="edge42" class="edge">
<title>Node28&#45;&gt;Node30</title>
<path fill="none" stroke="midnightblue" d="M1121.22,-313.48C1148.2,-304.7 1191,-290.79 1225.06,-279.71"/>
<polygon fill="midnightblue" stroke="midnightblue" points="1226.44,-282.94 1234.87,-276.52 1224.28,-276.29 1226.44,-282.94"/>
</g>
<!-- Node29&#45;&gt;Node14 -->
<g id="edge41" class="edge">
<title>Node29&#45;&gt;Node14</title>
<path fill="none" stroke="midnightblue" d="M1029.38,-252.89C1010.96,-250.62 990.66,-248.16 972,-246 825,-228.98 785.01,-244.05 641,-210 638,-209.29 634.92,-208.42 631.87,-207.45"/>
<polygon fill="midnightblue" stroke="midnightblue" points="632.95,-204.12 622.35,-204.15 630.65,-210.73 632.95,-204.12"/>
</g>
<!-- Node29&#45;&gt;Node17 -->
<g id="edge40" class="edge">
<title>Node29&#45;&gt;Node17</title>
<path fill="none" stroke="midnightblue" d="M1090,-246.4C1090,-237.06 1090,-224.71 1090,-214.52"/>
<polygon fill="midnightblue" stroke="midnightblue" points="1093.5,-214.19 1090,-204.19 1086.5,-214.19 1093.5,-214.19"/>
</g>
<!-- Node30&#45;&gt;Node14 -->
<g id="edge49" class="edge">
<title>Node30&#45;&gt;Node14</title>
<path fill="none" stroke="midnightblue" d="M1217.43,-252.43C1199.01,-250.15 1178.7,-247.8 1160,-246 929.84,-223.89 867.01,-258.79 641,-210 637.75,-209.3 634.41,-208.38 631.12,-207.35"/>
<polygon fill="midnightblue" stroke="midnightblue" points="632.11,-203.99 621.51,-204 629.8,-210.6 632.11,-203.99"/>
</g>
<!-- Node30&#45;&gt;Node17 -->
<g id="edge43" class="edge">
<title>Node30&#45;&gt;Node17</title>
<path fill="none" stroke="midnightblue" d="M1237.21,-246.4C1203.49,-234.74 1156.16,-218.37 1124.35,-207.38"/>
<polygon fill="midnightblue" stroke="midnightblue" points="1125.2,-203.97 1114.6,-204.01 1122.91,-210.58 1125.2,-203.97"/>
</g>
<!-- Node31 -->
<g id="node31" class="node">
<title>Node31</title>
<g id="a_node31"><a xlink:href="IntervalMap_8h.html" target="_top" xlink:title=" ">
<polygon fill="white" stroke="black" points="1179.5,-185 1179.5,-204 1340.5,-204 1340.5,-185 1179.5,-185"/>
<text text-anchor="middle" x="1260" y="-192" font-family="Helvetica,sans-Serif" font-size="10.00">boomerang/util/IntervalMap.h</text>
</a>
</g>
</g>
<!-- Node30&#45;&gt;Node31 -->
<g id="edge44" class="edge">
<title>Node30&#45;&gt;Node31</title>
<path fill="none" stroke="midnightblue" d="M1274.09,-246.4C1271.45,-236.86 1267.94,-224.18 1265.08,-213.86"/>
<polygon fill="midnightblue" stroke="midnightblue" points="1268.45,-212.9 1262.41,-204.19 1261.7,-214.77 1268.45,-212.9"/>
</g>
<!-- Node35 -->
<g id="node35" class="node">
<title>Node35</title>
<g id="a_node35"><a xlink:title=" ">
<polygon fill="white" stroke="#bfbfbf" points="1423.5,-185 1423.5,-204 1496.5,-204 1496.5,-185 1423.5,-185"/>
<text text-anchor="middle" x="1460" y="-192" font-family="Helvetica,sans-Serif" font-size="10.00">QByteArray</text>
</a>
</g>
</g>
<!-- Node30&#45;&gt;Node35 -->
<g id="edge48" class="edge">
<title>Node30&#45;&gt;Node35</title>
<path fill="none" stroke="midnightblue" d="M1317.49,-246.4C1350.13,-234.74 1395.96,-218.37 1426.75,-207.38"/>
<polygon fill="midnightblue" stroke="midnightblue" points="1427.94,-210.67 1436.18,-204.01 1425.59,-204.07 1427.94,-210.67"/>
</g>
<!-- Node30&#45;&gt;Node36 -->
<g id="edge50" class="edge">
<title>Node30&#45;&gt;Node36</title>
<path fill="none" stroke="midnightblue" d="M1300.57,-246.4C1318.01,-235.5 1342.03,-220.48 1359.47,-209.58"/>
<polygon fill="midnightblue" stroke="midnightblue" points="1361.76,-212.28 1368.39,-204.01 1358.05,-206.34 1361.76,-212.28"/>
</g>
<!-- Node32 -->
<g id="node32" class="node">
<title>Node32</title>
<g id="a_node32"><a xlink:href="Interval_8h.html" target="_top" xlink:title=" ">
<polygon fill="white" stroke="black" points="1102,-123.5 1102,-142.5 1242,-142.5 1242,-123.5 1102,-123.5"/>
<text text-anchor="middle" x="1172" y="-130.5" font-family="Helvetica,sans-Serif" font-size="10.00">boomerang/util/Interval.h</text>
</a>
</g>
</g>
<!-- Node31&#45;&gt;Node32 -->
<g id="edge45" class="edge">
<title>Node31&#45;&gt;Node32</title>
<path fill="none" stroke="midnightblue" d="M1247.39,-184.98C1233.28,-175.43 1210.17,-159.81 1193.25,-148.37"/>
<polygon fill="midnightblue" stroke="midnightblue" points="1194.83,-145.21 1184.58,-142.51 1190.91,-151.01 1194.83,-145.21"/>
</g>
<!-- Node31&#45;&gt;Node33 -->
<g id="edge46" class="edge">
<title>Node31&#45;&gt;Node33</title>
<path fill="none" stroke="midnightblue" d="M1286.22,-184.98C1318.02,-174.64 1371.77,-157.16 1407.32,-145.6"/>
<polygon fill="midnightblue" stroke="midnightblue" points="1408.4,-148.93 1416.83,-142.51 1406.24,-142.27 1408.4,-148.93"/>
</g>
<!-- Node34 -->
<g id="node34" class="node">
<title>Node34</title>
<g id="a_node34"><a xlink:title=" ">
<polygon fill="white" stroke="#bfbfbf" points="1260,-123.5 1260,-142.5 1298,-142.5 1298,-123.5 1260,-123.5"/>
<text text-anchor="middle" x="1279" y="-130.5" font-family="Helvetica,sans-Serif" font-size="10.00">map</text>
</a>
</g>
</g>
<!-- Node31&#45;&gt;Node34 -->
<g id="edge47" class="edge">
<title>Node31&#45;&gt;Node34</title>
<path fill="none" stroke="midnightblue" d="M1262.72,-184.98C1265.43,-176.49 1269.67,-163.2 1273.15,-152.32"/>
<polygon fill="midnightblue" stroke="midnightblue" points="1276.57,-153.1 1276.28,-142.51 1269.91,-150.97 1276.57,-153.1"/>
</g>
<!-- Node37&#45;&gt;Node7 -->
<g id="edge52" class="edge">
<title>Node37&#45;&gt;Node7</title>
<path fill="none" stroke="midnightblue" d="M880.94,-251.79C860.04,-231.77 809.5,-183.81 800,-179 659.92,-107.99 475.82,-84.33 368.74,-76.44"/>
<polygon fill="midnightblue" stroke="midnightblue" points="368.84,-72.94 358.62,-75.73 368.35,-79.92 368.84,-72.94"/>
</g>
<!-- Node37&#45;&gt;Node14 -->
<g id="edge56" class="edge">
<title>Node37&#45;&gt;Node14</title>
<path fill="none" stroke="midnightblue" d="M843.44,-251.96C782.31,-240.58 678.38,-220.67 641,-210 638.36,-209.25 635.64,-208.39 632.92,-207.49"/>
<polygon fill="midnightblue" stroke="midnightblue" points="633.85,-204.11 623.26,-204.09 631.52,-210.71 633.85,-204.11"/>
</g>
<!-- Node37&#45;&gt;Node17 -->
<g id="edge54" class="edge">
<title>Node37&#45;&gt;Node17</title>
<path fill="none" stroke="midnightblue" d="M916.56,-251.87C951.92,-240.38 1014.59,-220.01 1054.13,-207.16"/>
<polygon fill="midnightblue" stroke="midnightblue" points="1055.22,-210.48 1063.65,-204.06 1053.06,-203.83 1055.22,-210.48"/>
</g>
<!-- Node37&#45;&gt;Node24 -->
<g id="edge55" class="edge">
<title>Node37&#45;&gt;Node24</title>
<path fill="none" stroke="midnightblue" d="M874.49,-251.73C855.09,-240.77 821.67,-221.88 798.97,-209.05"/>
<polygon fill="midnightblue" stroke="midnightblue" points="800.69,-206 790.26,-204.13 797.25,-212.09 800.69,-206"/>
</g>
<!-- Node37&#45;&gt;Node36 -->
<g id="edge57" class="edge">
<title>Node37&#45;&gt;Node36</title>
<path fill="none" stroke="midnightblue" d="M962.75,-252.43C981.71,-250.33 1002.12,-248.08 1021,-246 1167.21,-229.91 1208.13,-248.84 1350,-210 1352.15,-209.41 1354.34,-208.69 1356.51,-207.9"/>
<polygon fill="midnightblue" stroke="midnightblue" points="1357.87,-211.12 1365.76,-204.06 1355.19,-204.66 1357.87,-211.12"/>
</g>
<!-- Node38 -->
<g id="node38" class="node">
<title>Node38</title>
<g id="a_node38"><a xlink:href="SigEnum_8h.html" target="_top" xlink:title=" ">
<polygon fill="white" stroke="black" points="847,-179.5 847,-209.5 963,-209.5 963,-179.5 847,-179.5"/>
<text text-anchor="start" x="855" y="-197.5" font-family="Helvetica,sans-Serif" font-size="10.00">boomerang/frontend</text>
<text text-anchor="middle" x="905" y="-186.5" font-family="Helvetica,sans-Serif" font-size="10.00">/SigEnum.h</text>
</a>
</g>
</g>
<!-- Node37&#45;&gt;Node38 -->
<g id="edge53" class="edge">
<title>Node37&#45;&gt;Node38</title>
<path fill="none" stroke="midnightblue" d="M892.02,-251.73C893.93,-243.46 896.89,-230.66 899.49,-219.37"/>
<polygon fill="midnightblue" stroke="midnightblue" points="902.91,-220.12 901.75,-209.59 896.09,-218.55 902.91,-220.12"/>
</g>
<!-- Node39&#45;&gt;Node7 -->
<g id="edge59" class="edge">
<title>Node39&#45;&gt;Node7</title>
<path fill="none" stroke="midnightblue" d="M157.63,-123.48C178.41,-114.89 211.1,-101.38 237.61,-90.43"/>
<polygon fill="midnightblue" stroke="midnightblue" points="239.16,-93.58 247.06,-86.52 236.48,-87.11 239.16,-93.58"/>
</g>
<!-- Node40&#45;&gt;Node14 -->
<g id="edge61" class="edge">
<title>Node40&#45;&gt;Node14</title>
<path fill="none" stroke="midnightblue" d="M704.75,-313.39C684.59,-306.35 658.65,-294.66 641,-277 623.28,-259.28 612.49,-231.94 606.88,-213.88"/>
<polygon fill="midnightblue" stroke="midnightblue" points="610.23,-212.88 604.1,-204.24 603.51,-214.82 610.23,-212.88"/>
</g>
<!-- Node41&#45;&gt;Node7 -->
<g id="edge63" class="edge">
<title>Node41&#45;&gt;Node7</title>
<path fill="none" stroke="midnightblue" d="M191.2,-313.41C204.05,-278.95 252.12,-149.98 272.15,-96.24"/>
<polygon fill="midnightblue" stroke="midnightblue" points="275.55,-97.14 275.77,-86.54 268.99,-94.69 275.55,-97.14"/>
</g>
</g>
</svg>
