<?xml version="1.0" encoding="UTF-8" standalone="no"?>
<!DOCTYPE svg PUBLIC "-//W3C//DTD SVG 1.1//EN"
 "http://www.w3.org/Graphics/SVG/1.1/DTD/svg11.dtd">
<!-- Generated by graphviz version 2.43.0 (0)
 -->
<!-- Title: main Pages: 1 -->
<svg width="363pt" height="105pt"
 viewBox="0.00 0.00 363.00 104.50" xmlns="http://www.w3.org/2000/svg" xmlns:xlink="http://www.w3.org/1999/xlink">
<g id="graph0" class="graph" transform="scale(1 1) rotate(0) translate(4 100.5)">
<title>main</title>
<polygon fill="white" stroke="transparent" points="-4,4 -4,-100.5 359,-100.5 359,4 -4,4"/>
<!-- Node1 -->
<g id="node1" class="node">
<title>Node1</title>
<g id="a_node1"><a xlink:title=" ">
<polygon fill="#bfbfbf" stroke="black" points="0,-30 0,-49 41,-49 41,-30 0,-30"/>
<text text-anchor="middle" x="20.5" y="-37" font-family="Helvetica,sans-Serif" font-size="10.00">main</text>
</a>
</g>
</g>
<!-- Node2 -->
<g id="node2" class="node">
<title>Node2</title>
<g id="a_node2"><a xlink:href="classCommandlineDriver.html#ab13986b57b9447e24b5e323727e6ec58" target="_top" xlink:title="Apply the list of command line arguments to the Settings.">
<polygon fill="white" stroke="black" points="77,-49.5 77,-79.5 198,-79.5 198,-49.5 77,-49.5"/>
<text text-anchor="start" x="85" y="-67.5" font-family="Helvetica,sans-Serif" font-size="10.00">CommandlineDriver::</text>
<text text-anchor="middle" x="137.5" y="-56.5" font-family="Helvetica,sans-Serif" font-size="10.00">applyCommandline</text>
</a>
</g>
</g>
<!-- Node1&#45;&gt;Node2 -->
<g id="edge1" class="edge">
<title>Node1&#45;&gt;Node2</title>
<path fill="none" stroke="midnightblue" d="M41.01,-43.74C48.43,-45.35 57.37,-47.3 66.78,-49.34"/>
<polygon fill="midnightblue" stroke="midnightblue" points="66.18,-52.8 76.7,-51.5 67.67,-45.96 66.18,-52.8"/>
</g>
<!-- Node5 -->
<g id="node5" class="node">
<title>Node5</title>
<g id="a_node5"><a xlink:href="classCommandlineDriver.html#a09fc7ba0f65fb03e7f1d5ae5b13e766d" target="_top" xlink:title="Do the whole works &#45; Load, decode, decompile and generate code for a binary file.">
<polygon fill="white" stroke="black" points="77,-0.5 77,-30.5 198,-30.5 198,-0.5 77,-0.5"/>
<text text-anchor="start" x="85" y="-18.5" font-family="Helvetica,sans-Serif" font-size="10.00">CommandlineDriver::</text>
<text text-anchor="middle" x="137.5" y="-7.5" font-family="Helvetica,sans-Serif" font-size="10.00">decompile</text>
</a>
</g>
</g>
<!-- Node1&#45;&gt;Node5 -->
<g id="edge4" class="edge">
<title>Node1&#45;&gt;Node5</title>
<path fill="none" stroke="midnightblue" d="M41.01,-35.43C48.43,-33.88 57.37,-32.01 66.78,-30.05"/>
<polygon fill="midnightblue" stroke="midnightblue" points="67.63,-33.45 76.7,-27.98 66.2,-26.6 67.63,-33.45"/>
</g>
<!-- Node3 -->
<g id="node3" class="node">
<title>Node3</title>
<g id="a_node3"><a xlink:href="CommandlineDriver_8cpp.html#ad8c51bbfda76f19f61c727838e6eee30" target="_top" xlink:title="Prints help about the command line switches.">
<polygon fill="white" stroke="black" points="275.5,-77 275.5,-96 313.5,-96 313.5,-77 275.5,-77"/>
<text text-anchor="middle" x="294.5" y="-84" font-family="Helvetica,sans-Serif" font-size="10.00">help</text>
</a>
</g>
</g>
<!-- Node2&#45;&gt;Node3 -->
<g id="edge2" class="edge">
<title>Node2&#45;&gt;Node3</title>
<path fill="none" stroke="midnightblue" d="M198.43,-73.01C221.46,-76.28 246.69,-79.86 265.36,-82.51"/>
<polygon fill="midnightblue" stroke="midnightblue" points="264.88,-85.97 275.27,-83.91 265.86,-79.04 264.88,-85.97"/>
</g>
<!-- Node4 -->
<g id="node4" class="node">
<title>Node4</title>
<g id="a_node4"><a xlink:href="classCommandlineDriver.html#ada528a64be1bd658e03538d0a1bb7898" target="_top" xlink:title="Displays a command line and processes the commands entered.">
<polygon fill="white" stroke="black" points="234,-27.5 234,-57.5 355,-57.5 355,-27.5 234,-27.5"/>
<text text-anchor="start" x="242" y="-45.5" font-family="Helvetica,sans-Serif" font-size="10.00">CommandlineDriver::</text>
<text text-anchor="middle" x="294.5" y="-34.5" font-family="Helvetica,sans-Serif" font-size="10.00">interactiveMain</text>
</a>
</g>
</g>
<!-- Node2&#45;&gt;Node4 -->
<g id="edge3" class="edge">
<title>Node2&#45;&gt;Node4</title>
<path fill="none" stroke="midnightblue" d="M198.43,-55.99C206.82,-54.8 215.49,-53.57 224.04,-52.36"/>
<polygon fill="midnightblue" stroke="midnightblue" points="224.58,-55.82 233.99,-50.95 223.6,-48.89 224.58,-55.82"/>
</g>
</g>
</svg>
