<?xml version="1.0" encoding="UTF-8" standalone="no"?>
<!DOCTYPE svg PUBLIC "-//W3C//DTD SVG 1.1//EN"
 "http://www.w3.org/Graphics/SVG/1.1/DTD/svg11.dtd">
<!-- Generated by graphviz version 2.43.0 (0)
 -->
<!-- Title: ByteUtil.h Pages: 1 -->
<!--zoomable 252 -->
<svg id="main" version="1.1" xmlns="http://www.w3.org/2000/svg" xmlns:xlink="http://www.w3.org/1999/xlink" xml:space="preserve" onload="init(evt)">
<style type="text/css"><![CDATA[
.edge:hover path { stroke: red; }
.edge:hover polygon { stroke: red; fill: red; }
]]></style>
<script type="text/javascript"><![CDATA[
var edges = document.getElementsByTagName('g');
if (edges && edges.length) {
  for (var i=0;i<edges.length;i++) {
    if (edges[i].id.substr(0,4)=='edge') {
      edges[i].setAttribute('class','edge');
    }
  }
}
]]></script>
        <defs>
                <circle id="rim" cx="0" cy="0" r="7"/>
                <circle id="rim2" cx="0" cy="0" r="3.5"/>
                <g id="zoomPlus">
                        <use xlink:href="#rim" fill="#404040">
                                <set attributeName="fill" to="#808080" begin="zoomplus.mouseover" end="zoomplus.mouseout"/>
                        </use>
                        <path d="M-4,0h8M0,-4v8" fill="none" stroke="white" stroke-width="1.5" pointer-events="none"/>
                </g>
                <g id="zoomMin">
                        <use xlink:href="#rim" fill="#404040">
                                <set attributeName="fill" to="#808080" begin="zoomminus.mouseover" end="zoomminus.mouseout"/>
                        </use>
                        <path d="M-4,0h8" fill="none" stroke="white" stroke-width="1.5" pointer-events="none"/>
                </g>
                <g id="dirArrow">
                        <path fill="none" stroke="white" stroke-width="1.5" d="M0,-3.0v7 M-2.5,-0.5L0,-3.0L2.5,-0.5"/>
                </g>
               <g id="resetDef">
                       <use xlink:href="#rim2" fill="#404040">
                               <set attributeName="fill" to="#808080" begin="reset.mouseover" end="reset.mouseout"/>
                       </use>
               </g>
        </defs>

<script type="text/javascript">
var viewWidth = 2287;
var viewHeight = 252;
var sectionId = 'dynsection-1';
</script>
<script xlink:href="svgpan.js"/>
<svg id="graph" class="graph">
<g id="viewport">
<title>ByteUtil.h</title>
<polygon fill="white" stroke="transparent" points="-4,4 -4,-248 2282.5,-248 2282.5,4 -4,4"/>
<!-- Node1 -->
<g id="node1" class="node">
<title>Node1</title>
<g id="a_node1"><a xlink:title=" ">
<polygon fill="#bfbfbf" stroke="black" points="1761.5,-224.5 1761.5,-243.5 1826.5,-243.5 1826.5,-224.5 1761.5,-224.5"/>
<text text-anchor="middle" x="1794" y="-231.5" font-family="Helvetica,sans-Serif" font-size="10.00">ByteUtil.h</text>
</a>
</g>
</g>
<!-- Node2 -->
<g id="node2" class="node">
<title>Node2</title>
<g id="a_node2"><a xlink:href="BinarySection_8h.html" target="_top" xlink:title=" ">
<polygon fill="white" stroke="black" points="854.5,-168.5 854.5,-187.5 947.5,-187.5 947.5,-168.5 854.5,-168.5"/>
<text text-anchor="middle" x="901" y="-175.5" font-family="Helvetica,sans-Serif" font-size="10.00">BinarySection.h</text>
</a>
</g>
</g>
<!-- Node1&#45;&gt;Node2 -->
<g id="edge1" class="edge">
<title>Node1&#45;&gt;Node2</title>
<path fill="none" stroke="midnightblue" d="M1751.27,-230.42C1601.77,-221.38 1102.8,-191.2 947.53,-181.81"/>
<polygon fill="midnightblue" stroke="midnightblue" points="1751.23,-233.92 1761.42,-231.03 1751.65,-226.93 1751.23,-233.92"/>
</g>
<!-- Node14 -->
<g id="node14" class="node">
<title>Node14</title>
<g id="a_node14"><a xlink:href="ST20BinaryLoader_8cpp.html" target="_top" xlink:title=" ">
<polygon fill="white" stroke="black" points="1387.5,-112.5 1387.5,-131.5 1512.5,-131.5 1512.5,-112.5 1387.5,-112.5"/>
<text text-anchor="middle" x="1450" y="-119.5" font-family="Helvetica,sans-Serif" font-size="10.00">ST20BinaryLoader.cpp</text>
</a>
</g>
</g>
<!-- Node1&#45;&gt;Node14 -->
<g id="edge36" class="edge">
<title>Node1&#45;&gt;Node14</title>
<path fill="none" stroke="midnightblue" d="M1756.89,-221.41C1728.01,-212.37 1686.93,-199.46 1651,-188 1588.28,-167.99 1514.7,-144.08 1476.32,-131.58"/>
<polygon fill="midnightblue" stroke="midnightblue" points="1755.98,-224.79 1766.57,-224.44 1758.07,-218.11 1755.98,-224.79"/>
</g>
<!-- Node15 -->
<g id="node15" class="node">
<title>Node15</title>
<g id="a_node15"><a xlink:href="RTLInstDict_8h.html" target="_top" xlink:title=" ">
<polygon fill="white" stroke="black" points="1659.5,-168.5 1659.5,-187.5 1740.5,-187.5 1740.5,-168.5 1659.5,-168.5"/>
<text text-anchor="middle" x="1700" y="-175.5" font-family="Helvetica,sans-Serif" font-size="10.00">RTLInstDict.h</text>
</a>
</g>
</g>
<!-- Node1&#45;&gt;Node15 -->
<g id="edge14" class="edge">
<title>Node1&#45;&gt;Node15</title>
<path fill="none" stroke="midnightblue" d="M1769.94,-219.18C1752.64,-209.24 1729.85,-196.15 1715.07,-187.65"/>
<polygon fill="midnightblue" stroke="midnightblue" points="1768.48,-222.38 1778.9,-224.32 1771.97,-216.31 1768.48,-222.38"/>
</g>
<!-- Node30 -->
<g id="node30" class="node">
<title>Node30</title>
<g id="a_node30"><a xlink:href="RegDB_8cpp.html" target="_top" xlink:title=" ">
<polygon fill="white" stroke="black" points="1759,-168.5 1759,-187.5 1829,-187.5 1829,-168.5 1759,-168.5"/>
<text text-anchor="middle" x="1794" y="-175.5" font-family="Helvetica,sans-Serif" font-size="10.00">RegDB.cpp</text>
</a>
</g>
</g>
<!-- Node1&#45;&gt;Node30 -->
<g id="edge29" class="edge">
<title>Node1&#45;&gt;Node30</title>
<path fill="none" stroke="midnightblue" d="M1794,-213.8C1794,-204.91 1794,-194.78 1794,-187.75"/>
<polygon fill="midnightblue" stroke="midnightblue" points="1790.5,-214.08 1794,-224.08 1797.5,-214.08 1790.5,-214.08"/>
</g>
<!-- Node31 -->
<g id="node31" class="node">
<title>Node31</title>
<g id="a_node31"><a xlink:href="Address_8cpp.html" target="_top" xlink:title=" ">
<polygon fill="white" stroke="black" points="1847,-168.5 1847,-187.5 1923,-187.5 1923,-168.5 1847,-168.5"/>
<text text-anchor="middle" x="1885" y="-175.5" font-family="Helvetica,sans-Serif" font-size="10.00">Address.cpp</text>
</a>
</g>
</g>
<!-- Node1&#45;&gt;Node31 -->
<g id="edge30" class="edge">
<title>Node1&#45;&gt;Node31</title>
<path fill="none" stroke="midnightblue" d="M1817.29,-219.18C1834.04,-209.24 1856.1,-196.15 1870.42,-187.65"/>
<polygon fill="midnightblue" stroke="midnightblue" points="1815.43,-216.21 1808.62,-224.32 1819.01,-222.23 1815.43,-216.21"/>
</g>
<!-- Node32 -->
<g id="node32" class="node">
<title>Node32</title>
<g id="a_node32"><a xlink:href="ByteUtil_8cpp.html" target="_top" xlink:title=" ">
<polygon fill="white" stroke="black" points="1941.5,-168.5 1941.5,-187.5 2018.5,-187.5 2018.5,-168.5 1941.5,-168.5"/>
<text text-anchor="middle" x="1980" y="-175.5" font-family="Helvetica,sans-Serif" font-size="10.00">ByteUtil.cpp</text>
</a>
</g>
</g>
<!-- Node1&#45;&gt;Node32 -->
<g id="edge31" class="edge">
<title>Node1&#45;&gt;Node32</title>
<path fill="none" stroke="midnightblue" d="M1833.38,-221.57C1868.47,-211.38 1919.02,-196.7 1950.67,-187.52"/>
<polygon fill="midnightblue" stroke="midnightblue" points="1832.1,-218.29 1823.47,-224.44 1834.05,-225.02 1832.1,-218.29"/>
</g>
<!-- Node33 -->
<g id="node33" class="node">
<title>Node33</title>
<g id="a_node33"><a xlink:href="ExpSimplifier_8cpp.html" target="_top" xlink:title=" ">
<polygon fill="white" stroke="black" points="2037,-168.5 2037,-187.5 2139,-187.5 2139,-168.5 2037,-168.5"/>
<text text-anchor="middle" x="2088" y="-175.5" font-family="Helvetica,sans-Serif" font-size="10.00">ExpSimplifier.cpp</text>
</a>
</g>
</g>
<!-- Node1&#45;&gt;Node33 -->
<g id="edge32" class="edge">
<title>Node1&#45;&gt;Node33</title>
<path fill="none" stroke="midnightblue" d="M1836.61,-225.17C1891.12,-215.16 1985.19,-197.88 2041.51,-187.54"/>
<polygon fill="midnightblue" stroke="midnightblue" points="1835.79,-221.77 1826.59,-227.01 1837.05,-228.65 1835.79,-221.77"/>
</g>
<!-- Node34 -->
<g id="node34" class="node">
<title>Node34</title>
<g id="a_node34"><a xlink:href="CCodeGenerator_8cpp.html" target="_top" xlink:title=" ">
<polygon fill="white" stroke="black" points="2157.5,-168.5 2157.5,-187.5 2274.5,-187.5 2274.5,-168.5 2157.5,-168.5"/>
<text text-anchor="middle" x="2216" y="-175.5" font-family="Helvetica,sans-Serif" font-size="10.00">CCodeGenerator.cpp</text>
</a>
</g>
</g>
<!-- Node1&#45;&gt;Node34 -->
<g id="edge33" class="edge">
<title>Node1&#45;&gt;Node34</title>
<path fill="none" stroke="midnightblue" d="M1836.81,-227.63C1903.38,-219.26 2035.74,-202.56 2148,-188 2151.07,-187.6 2154.22,-187.19 2157.4,-186.78"/>
<polygon fill="midnightblue" stroke="midnightblue" points="1836.19,-224.18 1826.71,-228.9 1837.06,-231.13 1836.19,-224.18"/>
</g>
<!-- Node35 -->
<g id="node35" class="node">
<title>Node35</title>
<g id="a_node35"><a xlink:href="ElfBinaryLoader_8h.html" target="_top" xlink:title=" ">
<polygon fill="white" stroke="black" points="1289.5,-168.5 1289.5,-187.5 1392.5,-187.5 1392.5,-168.5 1289.5,-168.5"/>
<text text-anchor="middle" x="1341" y="-175.5" font-family="Helvetica,sans-Serif" font-size="10.00">ElfBinaryLoader.h</text>
</a>
</g>
</g>
<!-- Node1&#45;&gt;Node35 -->
<g id="edge34" class="edge">
<title>Node1&#45;&gt;Node35</title>
<path fill="none" stroke="midnightblue" d="M1751.28,-227.91C1667.76,-217.95 1483.15,-195.94 1392.82,-185.18"/>
<polygon fill="midnightblue" stroke="midnightblue" points="1751.08,-231.41 1761.42,-229.12 1751.91,-224.46 1751.08,-231.41"/>
</g>
<!-- Node3 -->
<g id="node3" class="node">
<title>Node3</title>
<g id="a_node3"><a xlink:href="BinaryImage_8cpp.html" target="_top" xlink:title=" ">
<polygon fill="white" stroke="black" points="851.5,-112.5 851.5,-131.5 950.5,-131.5 950.5,-112.5 851.5,-112.5"/>
<text text-anchor="middle" x="901" y="-119.5" font-family="Helvetica,sans-Serif" font-size="10.00">BinaryImage.cpp</text>
</a>
</g>
</g>
<!-- Node2&#45;&gt;Node3 -->
<g id="edge2" class="edge">
<title>Node2&#45;&gt;Node3</title>
<path fill="none" stroke="midnightblue" d="M901,-157.8C901,-148.91 901,-138.78 901,-131.75"/>
<polygon fill="midnightblue" stroke="midnightblue" points="897.5,-158.08 901,-168.08 904.5,-158.08 897.5,-158.08"/>
</g>
<!-- Node4 -->
<g id="node4" class="node">
<title>Node4</title>
<g id="a_node4"><a xlink:href="BinarySection_8cpp.html" target="_top" xlink:title=" ">
<polygon fill="white" stroke="black" points="969,-112.5 969,-131.5 1073,-131.5 1073,-112.5 969,-112.5"/>
<text text-anchor="middle" x="1021" y="-119.5" font-family="Helvetica,sans-Serif" font-size="10.00">BinarySection.cpp</text>
</a>
</g>
</g>
<!-- Node2&#45;&gt;Node4 -->
<g id="edge3" class="edge">
<title>Node2&#45;&gt;Node4</title>
<path fill="none" stroke="midnightblue" d="M929.37,-164.23C951.82,-154.13 982.54,-140.31 1002.07,-131.52"/>
<polygon fill="midnightblue" stroke="midnightblue" points="927.7,-161.15 920.01,-168.44 930.57,-167.53 927.7,-161.15"/>
</g>
<!-- Node5 -->
<g id="node5" class="node">
<title>Node5</title>
<g id="a_node5"><a xlink:href="Global_8cpp.html" target="_top" xlink:title=" ">
<polygon fill="white" stroke="black" points="1091,-112.5 1091,-131.5 1159,-131.5 1159,-112.5 1091,-112.5"/>
<text text-anchor="middle" x="1125" y="-119.5" font-family="Helvetica,sans-Serif" font-size="10.00">Global.cpp</text>
</a>
</g>
</g>
<!-- Node2&#45;&gt;Node5 -->
<g id="edge4" class="edge">
<title>Node2&#45;&gt;Node5</title>
<path fill="none" stroke="midnightblue" d="M946.35,-166.07C989.07,-155.77 1052.13,-140.57 1090.77,-131.25"/>
<polygon fill="midnightblue" stroke="midnightblue" points="945.39,-162.7 936.49,-168.44 947.04,-169.5 945.39,-162.7"/>
</g>
<!-- Node6 -->
<g id="node6" class="node">
<title>Node6</title>
<g id="a_node6"><a xlink:href="Prog_8cpp.html" target="_top" xlink:title=" ">
<polygon fill="white" stroke="black" points="1177.5,-112.5 1177.5,-131.5 1236.5,-131.5 1236.5,-112.5 1177.5,-112.5"/>
<text text-anchor="middle" x="1207" y="-119.5" font-family="Helvetica,sans-Serif" font-size="10.00">Prog.cpp</text>
</a>
</g>
</g>
<!-- Node2&#45;&gt;Node6 -->
<g id="edge5" class="edge">
<title>Node2&#45;&gt;Node6</title>
<path fill="none" stroke="midnightblue" d="M958.04,-168.4C1012.22,-159.99 1095.89,-146.38 1168,-132 1171,-131.4 1174.12,-130.74 1177.23,-130.06"/>
<polygon fill="midnightblue" stroke="midnightblue" points="957.29,-164.97 947.94,-169.96 958.36,-171.89 957.29,-164.97"/>
</g>
<!-- Node7 -->
<g id="node7" class="node">
<title>Node7</title>
<g id="a_node7"><a xlink:href="DefaultFrontEnd_8cpp.html" target="_top" xlink:title=" ">
<polygon fill="white" stroke="black" points="0,-112.5 0,-131.5 116,-131.5 116,-112.5 0,-112.5"/>
<text text-anchor="middle" x="58" y="-119.5" font-family="Helvetica,sans-Serif" font-size="10.00">DefaultFrontEnd.cpp</text>
</a>
</g>
</g>
<!-- Node2&#45;&gt;Node7 -->
<g id="edge6" class="edge">
<title>Node2&#45;&gt;Node7</title>
<path fill="none" stroke="midnightblue" d="M844.1,-175.17C715.65,-170.73 393.44,-157.78 125,-132 122.08,-131.72 119.09,-131.41 116.07,-131.07"/>
<polygon fill="midnightblue" stroke="midnightblue" points="843.99,-178.67 854.11,-175.52 844.23,-171.68 843.99,-178.67"/>
</g>
<!-- Node8 -->
<g id="node8" class="node">
<title>Node8</title>
<g id="a_node8"><a xlink:href="Decompiler_8cpp.html" target="_top" xlink:title=" ">
<polygon fill="white" stroke="black" points="134.5,-112.5 134.5,-131.5 227.5,-131.5 227.5,-112.5 134.5,-112.5"/>
<text text-anchor="middle" x="181" y="-119.5" font-family="Helvetica,sans-Serif" font-size="10.00">Decompiler.cpp</text>
</a>
</g>
</g>
<!-- Node2&#45;&gt;Node8 -->
<g id="edge7" class="edge">
<title>Node2&#45;&gt;Node8</title>
<path fill="none" stroke="midnightblue" d="M843.85,-174.89C728.71,-170.26 460.76,-157.51 237,-132 233.97,-131.65 230.85,-131.26 227.71,-130.83"/>
<polygon fill="midnightblue" stroke="midnightblue" points="844.04,-178.4 854.18,-175.3 844.32,-171.41 844.04,-178.4"/>
</g>
<!-- Node9 -->
<g id="node9" class="node">
<title>Node9</title>
<g id="a_node9"><a xlink:href="DOS4GWBinaryLoader_8cpp.html" target="_top" xlink:title=" ">
<polygon fill="white" stroke="black" points="246,-112.5 246,-131.5 392,-131.5 392,-112.5 246,-112.5"/>
<text text-anchor="middle" x="319" y="-119.5" font-family="Helvetica,sans-Serif" font-size="10.00">DOS4GWBinaryLoader.cpp</text>
</a>
</g>
</g>
<!-- Node2&#45;&gt;Node9 -->
<g id="edge8" class="edge">
<title>Node2&#45;&gt;Node9</title>
<path fill="none" stroke="midnightblue" d="M844.43,-172.27C751.73,-164.44 561.7,-148.05 401,-132 398.15,-131.72 395.24,-131.42 392.31,-131.12"/>
<polygon fill="midnightblue" stroke="midnightblue" points="844.18,-175.76 854.44,-173.12 844.77,-168.79 844.18,-175.76"/>
</g>
<!-- Node10 -->
<g id="node10" class="node">
<title>Node10</title>
<g id="a_node10"><a xlink:href="ElfBinaryLoader_8cpp.html" target="_top" xlink:title=" ">
<polygon fill="white" stroke="black" points="1255,-112.5 1255,-131.5 1369,-131.5 1369,-112.5 1255,-112.5"/>
<text text-anchor="middle" x="1312" y="-119.5" font-family="Helvetica,sans-Serif" font-size="10.00">ElfBinaryLoader.cpp</text>
</a>
</g>
</g>
<!-- Node2&#45;&gt;Node10 -->
<g id="edge9" class="edge">
<title>Node2&#45;&gt;Node10</title>
<path fill="none" stroke="midnightblue" d="M957.85,-169.62C1026.07,-160.76 1143.91,-145.4 1245,-132 1248.26,-131.57 1251.6,-131.12 1254.98,-130.67"/>
<polygon fill="midnightblue" stroke="midnightblue" points="957.21,-166.18 947.75,-170.94 958.11,-173.12 957.21,-166.18"/>
</g>
<!-- Node11 -->
<g id="node11" class="node">
<title>Node11</title>
<g id="a_node11"><a xlink:href="ExeBinaryLoader_8cpp.html" target="_top" xlink:title=" ">
<polygon fill="white" stroke="black" points="410.5,-112.5 410.5,-131.5 529.5,-131.5 529.5,-112.5 410.5,-112.5"/>
<text text-anchor="middle" x="470" y="-119.5" font-family="Helvetica,sans-Serif" font-size="10.00">ExeBinaryLoader.cpp</text>
</a>
</g>
</g>
<!-- Node2&#45;&gt;Node11 -->
<g id="edge10" class="edge">
<title>Node2&#45;&gt;Node11</title>
<path fill="none" stroke="midnightblue" d="M844.14,-170.1C772.67,-161.39 646.21,-145.87 538,-132 535.28,-131.65 532.51,-131.29 529.7,-130.93"/>
<polygon fill="midnightblue" stroke="midnightblue" points="843.93,-173.6 854.28,-171.33 844.78,-166.65 843.93,-173.6"/>
</g>
<!-- Node12 -->
<g id="node12" class="node">
<title>Node12</title>
<g id="a_node12"><a xlink:href="MachOBinaryLoader_8cpp.html" target="_top" xlink:title=" ">
<polygon fill="white" stroke="black" points="547.5,-112.5 547.5,-131.5 682.5,-131.5 682.5,-112.5 547.5,-112.5"/>
<text text-anchor="middle" x="615" y="-119.5" font-family="Helvetica,sans-Serif" font-size="10.00">MachOBinaryLoader.cpp</text>
</a>
</g>
</g>
<!-- Node2&#45;&gt;Node12 -->
<g id="edge11" class="edge">
<title>Node2&#45;&gt;Node12</title>
<path fill="none" stroke="midnightblue" d="M845.59,-166.54C791.53,-156.33 710.33,-141 660.11,-131.52"/>
<polygon fill="midnightblue" stroke="midnightblue" points="845.21,-170.03 855.68,-168.44 846.51,-163.15 845.21,-170.03"/>
</g>
<!-- Node13 -->
<g id="node13" class="node">
<title>Node13</title>
<g id="a_node13"><a xlink:href="Win32BinaryLoader_8cpp.html" target="_top" xlink:title=" ">
<polygon fill="white" stroke="black" points="701,-112.5 701,-131.5 833,-131.5 833,-112.5 701,-112.5"/>
<text text-anchor="middle" x="767" y="-119.5" font-family="Helvetica,sans-Serif" font-size="10.00">Win32BinaryLoader.cpp</text>
</a>
</g>
</g>
<!-- Node2&#45;&gt;Node13 -->
<g id="edge12" class="edge">
<title>Node2&#45;&gt;Node13</title>
<path fill="none" stroke="midnightblue" d="M870.32,-164.64C845.18,-154.5 810.25,-140.43 788.13,-131.52"/>
<polygon fill="midnightblue" stroke="midnightblue" points="869.18,-167.95 879.77,-168.44 871.8,-161.46 869.18,-167.95"/>
</g>
<!-- Node2&#45;&gt;Node14 -->
<g id="edge13" class="edge">
<title>Node2&#45;&gt;Node14</title>
<path fill="none" stroke="midnightblue" d="M957.97,-172.19C1047.48,-164.5 1226.48,-148.61 1378,-132 1381.01,-131.67 1384.08,-131.32 1387.18,-130.97"/>
<polygon fill="midnightblue" stroke="midnightblue" points="957.43,-168.72 947.77,-173.06 958.03,-175.7 957.43,-168.72"/>
</g>
<!-- Node16 -->
<g id="node16" class="node">
<title>Node16</title>
<g id="a_node16"><a xlink:href="SSL2Parser_8cpp.html" target="_top" xlink:title=" ">
<polygon fill="white" stroke="black" points="1530.5,-112.5 1530.5,-131.5 1621.5,-131.5 1621.5,-112.5 1530.5,-112.5"/>
<text text-anchor="middle" x="1576" y="-119.5" font-family="Helvetica,sans-Serif" font-size="10.00">SSL2Parser.cpp</text>
</a>
</g>
</g>
<!-- Node15&#45;&gt;Node16 -->
<g id="edge15" class="edge">
<title>Node15&#45;&gt;Node16</title>
<path fill="none" stroke="midnightblue" d="M1670.99,-164.37C1647.77,-154.26 1615.84,-140.35 1595.56,-131.52"/>
<polygon fill="midnightblue" stroke="midnightblue" points="1669.79,-167.66 1680.35,-168.44 1672.58,-161.24 1669.79,-167.66"/>
</g>
<!-- Node17 -->
<g id="node17" class="node">
<title>Node17</title>
<g id="a_node17"><a xlink:href="SSL2ParserDriver_8cpp.html" target="_top" xlink:title=" ">
<polygon fill="white" stroke="black" points="1639.5,-112.5 1639.5,-131.5 1760.5,-131.5 1760.5,-112.5 1639.5,-112.5"/>
<text text-anchor="middle" x="1700" y="-119.5" font-family="Helvetica,sans-Serif" font-size="10.00">SSL2ParserDriver.cpp</text>
</a>
</g>
</g>
<!-- Node15&#45;&gt;Node17 -->
<g id="edge16" class="edge">
<title>Node15&#45;&gt;Node17</title>
<path fill="none" stroke="midnightblue" d="M1700,-157.8C1700,-148.91 1700,-138.78 1700,-131.75"/>
<polygon fill="midnightblue" stroke="midnightblue" points="1696.5,-158.08 1700,-168.08 1703.5,-158.08 1696.5,-158.08"/>
</g>
<!-- Node18 -->
<g id="node18" class="node">
<title>Node18</title>
<g id="a_node18"><a xlink:href="RTLInstDict_8cpp.html" target="_top" xlink:title=" ">
<polygon fill="white" stroke="black" points="1779,-112.5 1779,-131.5 1871,-131.5 1871,-112.5 1779,-112.5"/>
<text text-anchor="middle" x="1825" y="-119.5" font-family="Helvetica,sans-Serif" font-size="10.00">RTLInstDict.cpp</text>
</a>
</g>
</g>
<!-- Node15&#45;&gt;Node18 -->
<g id="edge17" class="edge">
<title>Node15&#45;&gt;Node18</title>
<path fill="none" stroke="midnightblue" d="M1729.24,-164.37C1752.65,-154.26 1784.84,-140.35 1805.29,-131.52"/>
<polygon fill="midnightblue" stroke="midnightblue" points="1727.6,-161.26 1719.81,-168.44 1730.37,-167.69 1727.6,-161.26"/>
</g>
<!-- Node19 -->
<g id="node19" class="node">
<title>Node19</title>
<g id="a_node19"><a xlink:href="CapstoneDecoder_8h.html" target="_top" xlink:title=" ">
<polygon fill="white" stroke="black" points="1889,-112.5 1889,-131.5 2001,-131.5 2001,-112.5 1889,-112.5"/>
<text text-anchor="middle" x="1945" y="-119.5" font-family="Helvetica,sans-Serif" font-size="10.00">CapstoneDecoder.h</text>
</a>
</g>
</g>
<!-- Node15&#45;&gt;Node19 -->
<g id="edge18" class="edge">
<title>Node15&#45;&gt;Node19</title>
<path fill="none" stroke="midnightblue" d="M1748.63,-166.28C1794.93,-156.08 1863.69,-140.92 1906.36,-131.52"/>
<polygon fill="midnightblue" stroke="midnightblue" points="1747.83,-162.87 1738.82,-168.44 1749.34,-169.71 1747.83,-162.87"/>
</g>
<!-- Node27 -->
<g id="node27" class="node">
<title>Node27</title>
<g id="a_node27"><a xlink:href="ST20Decoder_8h.html" target="_top" xlink:title=" ">
<polygon fill="white" stroke="black" points="2019,-112.5 2019,-131.5 2109,-131.5 2109,-112.5 2019,-112.5"/>
<text text-anchor="middle" x="2064" y="-119.5" font-family="Helvetica,sans-Serif" font-size="10.00">ST20Decoder.h</text>
</a>
</g>
</g>
<!-- Node15&#45;&gt;Node27 -->
<g id="edge26" class="edge">
<title>Node15&#45;&gt;Node27</title>
<path fill="none" stroke="midnightblue" d="M1750.64,-167.96C1866.88,-149.65 1897.83,-149.11 2010,-132 2012.91,-131.56 2015.91,-131.09 2018.93,-130.61"/>
<polygon fill="midnightblue" stroke="midnightblue" points="1749.96,-164.52 1740.64,-169.54 1751.06,-171.43 1749.96,-164.52"/>
</g>
<!-- Node29 -->
<g id="node29" class="node">
<title>Node29</title>
<g id="a_node29"><a xlink:href="PentiumFrontEnd_8cpp.html" target="_top" xlink:title=" ">
<polygon fill="white" stroke="black" points="2127,-112.5 2127,-131.5 2247,-131.5 2247,-112.5 2127,-112.5"/>
<text text-anchor="middle" x="2187" y="-119.5" font-family="Helvetica,sans-Serif" font-size="10.00">PentiumFrontEnd.cpp</text>
</a>
</g>
</g>
<!-- Node15&#45;&gt;Node29 -->
<g id="edge28" class="edge">
<title>Node15&#45;&gt;Node29</title>
<path fill="none" stroke="midnightblue" d="M1750.56,-168.03C1914.46,-145.62 1957.91,-150.27 2118,-132 2120.88,-131.67 2123.83,-131.33 2126.8,-130.97"/>
<polygon fill="midnightblue" stroke="midnightblue" points="1750.04,-164.57 1740.62,-169.41 1751,-171.51 1750.04,-164.57"/>
</g>
<!-- Node20 -->
<g id="node20" class="node">
<title>Node20</title>
<g id="a_node20"><a xlink:href="CapstoneDecoder_8cpp.html" target="_top" xlink:title=" ">
<polygon fill="white" stroke="black" points="1738.5,-56.5 1738.5,-75.5 1861.5,-75.5 1861.5,-56.5 1738.5,-56.5"/>
<text text-anchor="middle" x="1800" y="-63.5" font-family="Helvetica,sans-Serif" font-size="10.00">CapstoneDecoder.cpp</text>
</a>
</g>
</g>
<!-- Node19&#45;&gt;Node20 -->
<g id="edge19" class="edge">
<title>Node19&#45;&gt;Node20</title>
<path fill="none" stroke="midnightblue" d="M1912.52,-108.91C1885.26,-98.75 1847.01,-84.51 1822.87,-75.52"/>
<polygon fill="midnightblue" stroke="midnightblue" points="1911.43,-112.23 1922.02,-112.44 1913.87,-105.67 1911.43,-112.23"/>
</g>
<!-- Node21 -->
<g id="node21" class="node">
<title>Node21</title>
<g id="a_node21"><a xlink:href="CapstoneX86Decoder_8h.html" target="_top" xlink:title=" ">
<polygon fill="white" stroke="black" points="1879.5,-56.5 1879.5,-75.5 2010.5,-75.5 2010.5,-56.5 1879.5,-56.5"/>
<text text-anchor="middle" x="1945" y="-63.5" font-family="Helvetica,sans-Serif" font-size="10.00">CapstoneX86Decoder.h</text>
</a>
</g>
</g>
<!-- Node19&#45;&gt;Node21 -->
<g id="edge20" class="edge">
<title>Node19&#45;&gt;Node21</title>
<path fill="none" stroke="midnightblue" d="M1945,-101.8C1945,-92.91 1945,-82.78 1945,-75.75"/>
<polygon fill="midnightblue" stroke="midnightblue" points="1941.5,-102.08 1945,-112.08 1948.5,-102.08 1941.5,-102.08"/>
</g>
<!-- Node23 -->
<g id="node23" class="node">
<title>Node23</title>
<g id="a_node23"><a xlink:href="CapstonePPCDecoder_8h.html" target="_top" xlink:title=" ">
<polygon fill="white" stroke="black" points="2028.5,-56.5 2028.5,-75.5 2159.5,-75.5 2159.5,-56.5 2028.5,-56.5"/>
<text text-anchor="middle" x="2094" y="-63.5" font-family="Helvetica,sans-Serif" font-size="10.00">CapstonePPCDecoder.h</text>
</a>
</g>
</g>
<!-- Node19&#45;&gt;Node23 -->
<g id="edge22" class="edge">
<title>Node19&#45;&gt;Node23</title>
<path fill="none" stroke="midnightblue" d="M1978.37,-108.91C2006.38,-98.75 2045.7,-84.51 2070.5,-75.52"/>
<polygon fill="midnightblue" stroke="midnightblue" points="1976.82,-105.75 1968.61,-112.44 1979.2,-112.33 1976.82,-105.75"/>
</g>
<!-- Node25 -->
<g id="node25" class="node">
<title>Node25</title>
<g id="a_node25"><a xlink:href="CapstoneSPARCDecoder_8h.html" target="_top" xlink:title=" ">
<polygon fill="white" stroke="black" points="1576,-56.5 1576,-75.5 1720,-75.5 1720,-56.5 1576,-56.5"/>
<text text-anchor="middle" x="1648" y="-63.5" font-family="Helvetica,sans-Serif" font-size="10.00">CapstoneSPARCDecoder.h</text>
</a>
</g>
</g>
<!-- Node19&#45;&gt;Node25 -->
<g id="edge24" class="edge">
<title>Node19&#45;&gt;Node25</title>
<path fill="none" stroke="midnightblue" d="M1887.8,-110.6C1831.67,-100.4 1747.1,-85.02 1694.84,-75.52"/>
<polygon fill="midnightblue" stroke="midnightblue" points="1887.47,-114.1 1897.94,-112.44 1888.73,-107.21 1887.47,-114.1"/>
</g>
<!-- Node22 -->
<g id="node22" class="node">
<title>Node22</title>
<g id="a_node22"><a xlink:href="CapstoneX86Decoder_8cpp.html" target="_top" xlink:title=" ">
<polygon fill="white" stroke="black" points="1868,-0.5 1868,-19.5 2010,-19.5 2010,-0.5 1868,-0.5"/>
<text text-anchor="middle" x="1939" y="-7.5" font-family="Helvetica,sans-Serif" font-size="10.00">CapstoneX86Decoder.cpp</text>
</a>
</g>
</g>
<!-- Node21&#45;&gt;Node22 -->
<g id="edge21" class="edge">
<title>Node21&#45;&gt;Node22</title>
<path fill="none" stroke="midnightblue" d="M1942.9,-46.1C1941.9,-37.14 1940.76,-26.86 1939.97,-19.75"/>
<polygon fill="midnightblue" stroke="midnightblue" points="1939.43,-46.53 1944.01,-56.08 1946.38,-45.76 1939.43,-46.53"/>
</g>
<!-- Node24 -->
<g id="node24" class="node">
<title>Node24</title>
<g id="a_node24"><a xlink:href="CapstonePPCDecoder_8cpp.html" target="_top" xlink:title=" ">
<polygon fill="white" stroke="black" points="2028,-0.5 2028,-19.5 2170,-19.5 2170,-0.5 2028,-0.5"/>
<text text-anchor="middle" x="2099" y="-7.5" font-family="Helvetica,sans-Serif" font-size="10.00">CapstonePPCDecoder.cpp</text>
</a>
</g>
</g>
<!-- Node23&#45;&gt;Node24 -->
<g id="edge23" class="edge">
<title>Node23&#45;&gt;Node24</title>
<path fill="none" stroke="midnightblue" d="M2095.75,-46.1C2096.58,-37.14 2097.53,-26.86 2098.19,-19.75"/>
<polygon fill="midnightblue" stroke="midnightblue" points="2092.26,-45.8 2094.83,-56.08 2099.23,-46.45 2092.26,-45.8"/>
</g>
<!-- Node26 -->
<g id="node26" class="node">
<title>Node26</title>
<g id="a_node26"><a xlink:href="CapstoneSPARCDecoder_8cpp.html" target="_top" xlink:title=" ">
<polygon fill="white" stroke="black" points="1570.5,-0.5 1570.5,-19.5 1725.5,-19.5 1725.5,-0.5 1570.5,-0.5"/>
<text text-anchor="middle" x="1648" y="-7.5" font-family="Helvetica,sans-Serif" font-size="10.00">CapstoneSPARCDecoder.cpp</text>
</a>
</g>
</g>
<!-- Node25&#45;&gt;Node26 -->
<g id="edge25" class="edge">
<title>Node25&#45;&gt;Node26</title>
<path fill="none" stroke="midnightblue" d="M1648,-45.8C1648,-36.91 1648,-26.78 1648,-19.75"/>
<polygon fill="midnightblue" stroke="midnightblue" points="1644.5,-46.08 1648,-56.08 1651.5,-46.08 1644.5,-46.08"/>
</g>
<!-- Node28 -->
<g id="node28" class="node">
<title>Node28</title>
<g id="a_node28"><a xlink:href="ST20Decoder_8cpp.html" target="_top" xlink:title=" ">
<polygon fill="white" stroke="black" points="2177.5,-56.5 2177.5,-75.5 2278.5,-75.5 2278.5,-56.5 2177.5,-56.5"/>
<text text-anchor="middle" x="2228" y="-63.5" font-family="Helvetica,sans-Serif" font-size="10.00">ST20Decoder.cpp</text>
</a>
</g>
</g>
<!-- Node27&#45;&gt;Node28 -->
<g id="edge27" class="edge">
<title>Node27&#45;&gt;Node28</title>
<path fill="none" stroke="midnightblue" d="M2099.52,-109.3C2130.42,-99.13 2174.47,-84.62 2202.14,-75.52"/>
<polygon fill="midnightblue" stroke="midnightblue" points="2098.39,-105.99 2089.99,-112.44 2100.58,-112.64 2098.39,-105.99"/>
</g>
<!-- Node35&#45;&gt;Node10 -->
<g id="edge35" class="edge">
<title>Node35&#45;&gt;Node10</title>
<path fill="none" stroke="midnightblue" d="M1331.32,-158.98C1326.4,-149.82 1320.64,-139.09 1316.7,-131.75"/>
<polygon fill="midnightblue" stroke="midnightblue" points="1328.4,-160.93 1336.21,-168.08 1334.56,-157.62 1328.4,-160.93"/>
</g>
</g>
</svg>
        <g id="navigator" transform="translate(0 0)" fill="#404254">
                <rect fill="#f2f5e9" fill-opacity="0.5" stroke="#606060" stroke-width=".5" x="0" y="0" width="60" height="60"/>
                <use id="zoomplus" xlink:href="#zoomPlus" x="17" y="9" onmousedown="handleZoom(evt,'in')"/>
                <use id="zoomminus" xlink:href="#zoomMin" x="42" y="9" onmousedown="handleZoom(evt,'out')"/>
                <use id="reset" xlink:href="#resetDef" x="30" y="36" onmousedown="handleReset()"/>
                <g id="arrowUp" xlink:href="#dirArrow" transform="translate(30 24)" onmousedown="handlePan(0,-1)">
                  <use xlink:href="#rim" fill="#404040">
                        <set attributeName="fill" to="#808080" begin="arrowUp.mouseover" end="arrowUp.mouseout"/>
                  </use>
                  <path fill="none" stroke="white" stroke-width="1.5" d="M0,-3.0v7 M-2.5,-0.5L0,-3.0L2.5,-0.5"/>
                </g>
                <g id="arrowRight" xlink:href="#dirArrow" transform="rotate(90) translate(36 -43)" onmousedown="handlePan(1,0)">
                  <use xlink:href="#rim" fill="#404040">
                        <set attributeName="fill" to="#808080" begin="arrowRight.mouseover" end="arrowRight.mouseout"/>
                  </use>
                  <path fill="none" stroke="white" stroke-width="1.5" d="M0,-3.0v7 M-2.5,-0.5L0,-3.0L2.5,-0.5"/>
                </g>
                <g id="arrowDown" xlink:href="#dirArrow" transform="rotate(180) translate(-30 -48)" onmousedown="handlePan(0,1)">
                  <use xlink:href="#rim" fill="#404040">
                        <set attributeName="fill" to="#808080" begin="arrowDown.mouseover" end="arrowDown.mouseout"/>
                  </use>
                  <path fill="none" stroke="white" stroke-width="1.5" d="M0,-3.0v7 M-2.5,-0.5L0,-3.0L2.5,-0.5"/>
                </g>
                <g id="arrowLeft" xlink:href="#dirArrow" transform="rotate(270) translate(-36 17)" onmousedown="handlePan(-1,0)">
                  <use xlink:href="#rim" fill="#404040">
                        <set attributeName="fill" to="#808080" begin="arrowLeft.mouseover" end="arrowLeft.mouseout"/>
                  </use>
                  <path fill="none" stroke="white" stroke-width="1.5" d="M0,-3.0v7 M-2.5,-0.5L0,-3.0L2.5,-0.5"/>
                </g>
        </g>
        <svg viewBox="0 0 15 15" width="100%" height="30px" preserveAspectRatio="xMaxYMin meet">
         <g id="arrow_out" transform="scale(0.3 0.3)">
          <a xlink:href="ByteUtil_8h__dep__incl_org.svg" target="_base">
           <rect id="button" ry="5" rx="5" y="6" x="6" height="38" width="38"
                fill="#f2f5e9" fill-opacity="0.5" stroke="#606060" stroke-width="1.0"/>
           <path id="arrow"
             d="M 11.500037,31.436501 C 11.940474,20.09759 22.043105,11.32322 32.158766,21.979434 L 37.068811,17.246167 C 37.068811,17.246167 37.088388,32 37.088388,32 L 22.160133,31.978069 C 22.160133,31.978069 26.997745,27.140456 26.997745,27.140456 C 18.528582,18.264221 13.291696,25.230495 11.500037,31.436501 z"
             style="fill:#404040;"/>
          </a>
         </g>
        </svg>
</svg>
