<?xml version="1.0" encoding="UTF-8" standalone="no"?>
<!DOCTYPE svg PUBLIC "-//W3C//DTD SVG 1.1//EN"
 "http://www.w3.org/Graphics/SVG/1.1/DTD/svg11.dtd">
<!-- Generated by graphviz version 2.43.0 (0)
 -->
<!-- Title: CapstoneDecoder.h Pages: 1 -->
<!--zoomable 453 -->
<svg id="main" version="1.1" xmlns="http://www.w3.org/2000/svg" xmlns:xlink="http://www.w3.org/1999/xlink" xml:space="preserve" onload="init(evt)">
<style type="text/css"><![CDATA[
.edge:hover path { stroke: red; }
.edge:hover polygon { stroke: red; fill: red; }
]]></style>
<script type="text/javascript"><![CDATA[
var edges = document.getElementsByTagName('g');
if (edges && edges.length) {
  for (var i=0;i<edges.length;i++) {
    if (edges[i].id.substr(0,4)=='edge') {
      edges[i].setAttribute('class','edge');
    }
  }
}
]]></script>
        <defs>
                <circle id="rim" cx="0" cy="0" r="7"/>
                <circle id="rim2" cx="0" cy="0" r="3.5"/>
                <g id="zoomPlus">
                        <use xlink:href="#rim" fill="#404040">
                                <set attributeName="fill" to="#808080" begin="zoomplus.mouseover" end="zoomplus.mouseout"/>
                        </use>
                        <path d="M-4,0h8M0,-4v8" fill="none" stroke="white" stroke-width="1.5" pointer-events="none"/>
                </g>
                <g id="zoomMin">
                        <use xlink:href="#rim" fill="#404040">
                                <set attributeName="fill" to="#808080" begin="zoomminus.mouseover" end="zoomminus.mouseout"/>
                        </use>
                        <path d="M-4,0h8" fill="none" stroke="white" stroke-width="1.5" pointer-events="none"/>
                </g>
                <g id="dirArrow">
                        <path fill="none" stroke="white" stroke-width="1.5" d="M0,-3.0v7 M-2.5,-0.5L0,-3.0L2.5,-0.5"/>
                </g>
               <g id="resetDef">
                       <use xlink:href="#rim2" fill="#404040">
                               <set attributeName="fill" to="#808080" begin="reset.mouseover" end="reset.mouseout"/>
                       </use>
               </g>
        </defs>

<script type="text/javascript">
var viewWidth = 825;
var viewHeight = 453;
var sectionId = 'dynsection-0';
</script>
<script xlink:href="svgpan.js"/>
<svg id="graph" class="graph">
<g id="viewport">
<title>CapstoneDecoder.h</title>
<polygon fill="white" stroke="transparent" points="-4,4 -4,-449 821,-449 821,4 -4,4"/>
<!-- Node1 -->
<g id="node1" class="node">
<title>Node1</title>
<g id="a_node1"><a xlink:title=" ">
<polygon fill="#bfbfbf" stroke="black" points="518.5,-425.5 518.5,-444.5 630.5,-444.5 630.5,-425.5 518.5,-425.5"/>
<text text-anchor="middle" x="574.5" y="-432.5" font-family="Helvetica,sans-Serif" font-size="10.00">CapstoneDecoder.h</text>
</a>
</g>
</g>
<!-- Node2 -->
<g id="node2" class="node">
<title>Node2</title>
<g id="a_node2"><a xlink:href="IDecoder_8h.html" target="_top" xlink:title=" ">
<polygon fill="white" stroke="black" points="0,-308 0,-327 143,-327 143,-308 0,-308"/>
<text text-anchor="middle" x="71.5" y="-315" font-family="Helvetica,sans-Serif" font-size="10.00">boomerang/ifc/IDecoder.h</text>
</a>
</g>
</g>
<!-- Node1&#45;&gt;Node2 -->
<g id="edge1" class="edge">
<title>Node1&#45;&gt;Node2</title>
<path fill="none" stroke="midnightblue" d="M537.1,-425.41C446.97,-404.72 217.83,-352.1 118.56,-329.31"/>
<polygon fill="midnightblue" stroke="midnightblue" points="119.33,-325.89 108.8,-327.06 117.76,-332.71 119.33,-325.89"/>
</g>
<!-- Node17 -->
<g id="node17" class="node">
<title>Node17</title>
<g id="a_node17"><a xlink:href="RTLInstDict_8h.html" target="_top" xlink:title=" ">
<polygon fill="white" stroke="black" points="496.5,-369.5 496.5,-388.5 652.5,-388.5 652.5,-369.5 496.5,-369.5"/>
<text text-anchor="middle" x="574.5" y="-376.5" font-family="Helvetica,sans-Serif" font-size="10.00">boomerang/ssl/RTLInstDict.h</text>
</a>
</g>
</g>
<!-- Node1&#45;&gt;Node17 -->
<g id="edge23" class="edge">
<title>Node1&#45;&gt;Node17</title>
<path fill="none" stroke="midnightblue" d="M574.5,-425.08C574.5,-418.01 574.5,-407.86 574.5,-398.99"/>
<polygon fill="midnightblue" stroke="midnightblue" points="578,-398.75 574.5,-388.75 571,-398.75 578,-398.75"/>
</g>
<!-- Node27 -->
<g id="node27" class="node">
<title>Node27</title>
<g id="a_node27"><a xlink:title=" ">
<polygon fill="white" stroke="#bfbfbf" points="671,-369.5 671,-388.5 788,-388.5 788,-369.5 671,-369.5"/>
<text text-anchor="middle" x="729.5" y="-376.5" font-family="Helvetica,sans-Serif" font-size="10.00">capstone/capstone.h</text>
</a>
</g>
</g>
<!-- Node1&#45;&gt;Node27 -->
<g id="edge44" class="edge">
<title>Node1&#45;&gt;Node27</title>
<path fill="none" stroke="midnightblue" d="M599.06,-425.44C625.02,-416.4 666.17,-402.06 695.3,-391.92"/>
<polygon fill="midnightblue" stroke="midnightblue" points="696.76,-395.11 705.05,-388.52 694.46,-388.5 696.76,-395.11"/>
</g>
<!-- Node3 -->
<g id="node3" class="node">
<title>Node3</title>
<g id="a_node3"><a xlink:href="DecodeResult_8h.html" target="_top" xlink:title=" ">
<polygon fill="white" stroke="black" points="40.5,-235.5 40.5,-265.5 156.5,-265.5 156.5,-235.5 40.5,-235.5"/>
<text text-anchor="start" x="48.5" y="-253.5" font-family="Helvetica,sans-Serif" font-size="10.00">boomerang/frontend</text>
<text text-anchor="middle" x="98.5" y="-242.5" font-family="Helvetica,sans-Serif" font-size="10.00">/DecodeResult.h</text>
</a>
</g>
</g>
<!-- Node2&#45;&gt;Node3 -->
<g id="edge2" class="edge">
<title>Node2&#45;&gt;Node3</title>
<path fill="none" stroke="midnightblue" d="M75.14,-307.73C78.61,-299.37 84,-286.4 88.73,-275.02"/>
<polygon fill="midnightblue" stroke="midnightblue" points="92.04,-276.17 92.65,-265.59 85.58,-273.48 92.04,-276.17"/>
</g>
<!-- Node14 -->
<g id="node14" class="node">
<title>Node14</title>
<g id="a_node14"><a xlink:href="Register_8h.html" target="_top" xlink:title=" ">
<polygon fill="white" stroke="black" points="391,-241 391,-260 532,-260 532,-241 391,-241"/>
<text text-anchor="middle" x="461.5" y="-248" font-family="Helvetica,sans-Serif" font-size="10.00">boomerang/ssl/Register.h</text>
</a>
</g>
</g>
<!-- Node2&#45;&gt;Node14 -->
<g id="edge16" class="edge">
<title>Node2&#45;&gt;Node14</title>
<path fill="none" stroke="midnightblue" d="M118.59,-307.95C129.71,-305.96 141.52,-303.88 152.5,-302 237.26,-287.49 335.26,-271.63 397.77,-261.63"/>
<polygon fill="midnightblue" stroke="midnightblue" points="398.55,-265.05 407.87,-260.01 397.44,-258.13 398.55,-265.05"/>
</g>
<!-- Node4 -->
<g id="node4" class="node">
<title>Node4</title>
<g id="a_node4"><a xlink:href="Address_8h.html" target="_top" xlink:title=" ">
<polygon fill="white" stroke="black" points="279.5,-179.5 279.5,-198.5 421.5,-198.5 421.5,-179.5 279.5,-179.5"/>
<text text-anchor="middle" x="350.5" y="-186.5" font-family="Helvetica,sans-Serif" font-size="10.00">boomerang/util/Address.h</text>
</a>
</g>
</g>
<!-- Node3&#45;&gt;Node4 -->
<g id="edge3" class="edge">
<title>Node3&#45;&gt;Node4</title>
<path fill="none" stroke="midnightblue" d="M156.63,-235.77C201.62,-225.15 263.05,-210.65 304.61,-200.83"/>
<polygon fill="midnightblue" stroke="midnightblue" points="305.54,-204.21 314.47,-198.51 303.93,-197.4 305.54,-204.21"/>
</g>
<!-- Node7 -->
<g id="node7" class="node">
<title>Node7</title>
<g id="a_node7"><a xlink:href="Types_8h.html" target="_top" xlink:title=" ">
<polygon fill="white" stroke="black" points="221,-62 221,-81 352,-81 352,-62 221,-62"/>
<text text-anchor="middle" x="286.5" y="-69" font-family="Helvetica,sans-Serif" font-size="10.00">boomerang/util/Types.h</text>
</a>
</g>
</g>
<!-- Node3&#45;&gt;Node7 -->
<g id="edge12" class="edge">
<title>Node3&#45;&gt;Node7</title>
<path fill="none" stroke="midnightblue" d="M96.6,-235.3C95.32,-220.12 95.52,-195.96 106.5,-179 139.03,-128.78 204.26,-99.08 246.62,-84.3"/>
<polygon fill="midnightblue" stroke="midnightblue" points="247.98,-87.54 256.34,-81.03 245.74,-80.9 247.98,-87.54"/>
</g>
<!-- Node11 -->
<g id="node11" class="node">
<title>Node11</title>
<g id="a_node11"><a xlink:title=" ">
<polygon fill="white" stroke="#bfbfbf" points="6,-179.5 6,-198.5 59,-198.5 59,-179.5 6,-179.5"/>
<text text-anchor="middle" x="32.5" y="-186.5" font-family="Helvetica,sans-Serif" font-size="10.00">cstddef</text>
</a>
</g>
</g>
<!-- Node3&#45;&gt;Node11 -->
<g id="edge13" class="edge">
<title>Node3&#45;&gt;Node11</title>
<path fill="none" stroke="midnightblue" d="M82.86,-235.4C72.87,-226.4 59.92,-214.72 49.65,-205.47"/>
<polygon fill="midnightblue" stroke="midnightblue" points="51.87,-202.75 42.1,-198.66 47.19,-207.95 51.87,-202.75"/>
</g>
<!-- Node12 -->
<g id="node12" class="node">
<title>Node12</title>
<g id="a_node12"><a xlink:title=" ">
<polygon fill="white" stroke="#bfbfbf" points="115.5,-179.5 115.5,-198.5 147.5,-198.5 147.5,-179.5 115.5,-179.5"/>
<text text-anchor="middle" x="131.5" y="-186.5" font-family="Helvetica,sans-Serif" font-size="10.00">list</text>
</a>
</g>
</g>
<!-- Node3&#45;&gt;Node12 -->
<g id="edge14" class="edge">
<title>Node3&#45;&gt;Node12</title>
<path fill="none" stroke="midnightblue" d="M106.32,-235.4C110.97,-227.02 116.9,-216.33 121.84,-207.42"/>
<polygon fill="midnightblue" stroke="midnightblue" points="124.91,-209.1 126.7,-198.66 118.79,-205.71 124.91,-209.1"/>
</g>
<!-- Node13 -->
<g id="node13" class="node">
<title>Node13</title>
<g id="a_node13"><a xlink:title=" ">
<polygon fill="white" stroke="#bfbfbf" points="165.5,-179.5 165.5,-198.5 223.5,-198.5 223.5,-179.5 165.5,-179.5"/>
<text text-anchor="middle" x="194.5" y="-186.5" font-family="Helvetica,sans-Serif" font-size="10.00">memory</text>
</a>
</g>
</g>
<!-- Node3&#45;&gt;Node13 -->
<g id="edge15" class="edge">
<title>Node3&#45;&gt;Node13</title>
<path fill="none" stroke="midnightblue" d="M121.25,-235.4C136.49,-225.95 156.49,-213.56 171.74,-204.11"/>
<polygon fill="midnightblue" stroke="midnightblue" points="173.88,-206.9 180.53,-198.66 170.19,-200.95 173.88,-206.9"/>
</g>
<!-- Node5 -->
<g id="node5" class="node">
<title>Node5</title>
<g id="a_node5"><a xlink:href="BoomerangAPI_8h.html" target="_top" xlink:title=" ">
<polygon fill="white" stroke="black" points="500,-56.5 500,-86.5 655,-86.5 655,-56.5 500,-56.5"/>
<text text-anchor="start" x="508" y="-74.5" font-family="Helvetica,sans-Serif" font-size="10.00">boomerang/core/Boomerang</text>
<text text-anchor="middle" x="577.5" y="-63.5" font-family="Helvetica,sans-Serif" font-size="10.00">API.h</text>
</a>
</g>
</g>
<!-- Node4&#45;&gt;Node5 -->
<g id="edge4" class="edge">
<title>Node4&#45;&gt;Node5</title>
<path fill="none" stroke="midnightblue" d="M379.42,-179.48C404.66,-171.55 441.94,-158.61 472.5,-143 500.73,-128.58 530.51,-108 551.12,-92.8"/>
<polygon fill="midnightblue" stroke="midnightblue" points="553.44,-95.43 559.36,-86.64 549.25,-89.82 553.44,-95.43"/>
</g>
<!-- Node6 -->
<g id="node6" class="node">
<title>Node6</title>
<g id="a_node6"><a xlink:href="OStream_8h.html" target="_top" xlink:title=" ">
<polygon fill="white" stroke="black" points="317.5,-123.5 317.5,-142.5 463.5,-142.5 463.5,-123.5 317.5,-123.5"/>
<text text-anchor="middle" x="390.5" y="-130.5" font-family="Helvetica,sans-Serif" font-size="10.00">boomerang/util/OStream.h</text>
</a>
</g>
</g>
<!-- Node4&#45;&gt;Node6 -->
<g id="edge5" class="edge">
<title>Node4&#45;&gt;Node6</title>
<path fill="none" stroke="midnightblue" d="M357.11,-179.08C362.76,-171.46 371.04,-160.26 377.95,-150.94"/>
<polygon fill="midnightblue" stroke="midnightblue" points="380.88,-152.87 384.02,-142.75 375.25,-148.7 380.88,-152.87"/>
</g>
<!-- Node4&#45;&gt;Node7 -->
<g id="edge10" class="edge">
<title>Node4&#45;&gt;Node7</title>
<path fill="none" stroke="midnightblue" d="M340.12,-179.36C330.64,-170.97 316.88,-157.41 308.5,-143 299.05,-126.75 293.21,-105.99 289.94,-91.21"/>
<polygon fill="midnightblue" stroke="midnightblue" points="293.34,-90.36 287.93,-81.25 286.48,-91.75 293.34,-90.36"/>
</g>
<!-- Node10 -->
<g id="node10" class="node">
<title>Node10</title>
<g id="a_node10"><a xlink:title=" ">
<polygon fill="white" stroke="#bfbfbf" points="520,-123.5 520,-142.5 573,-142.5 573,-123.5 520,-123.5"/>
<text text-anchor="middle" x="546.5" y="-130.5" font-family="Helvetica,sans-Serif" font-size="10.00">QString</text>
</a>
</g>
</g>
<!-- Node4&#45;&gt;Node10 -->
<g id="edge11" class="edge">
<title>Node4&#45;&gt;Node10</title>
<path fill="none" stroke="midnightblue" d="M381.56,-179.44C416.48,-169.82 473.14,-154.21 510.12,-144.02"/>
<polygon fill="midnightblue" stroke="midnightblue" points="511.28,-147.33 519.99,-141.3 509.42,-140.59 511.28,-147.33"/>
</g>
<!-- Node6&#45;&gt;Node5 -->
<g id="edge6" class="edge">
<title>Node6&#45;&gt;Node5</title>
<path fill="none" stroke="midnightblue" d="M417.29,-123.48C444.99,-114.66 488.97,-100.67 523.85,-89.57"/>
<polygon fill="midnightblue" stroke="midnightblue" points="524.96,-92.89 533.43,-86.52 522.84,-86.22 524.96,-92.89"/>
</g>
<!-- Node6&#45;&gt;Node7 -->
<g id="edge7" class="edge">
<title>Node6&#45;&gt;Node7</title>
<path fill="none" stroke="midnightblue" d="M375.6,-123.48C358.53,-113.71 330.34,-97.58 310.24,-86.08"/>
<polygon fill="midnightblue" stroke="midnightblue" points="311.79,-82.94 301.37,-81.01 308.31,-89.01 311.79,-82.94"/>
</g>
<!-- Node9 -->
<g id="node9" class="node">
<title>Node9</title>
<g id="a_node9"><a xlink:title=" ">
<polygon fill="white" stroke="#bfbfbf" points="370.5,-62 370.5,-81 416.5,-81 416.5,-62 370.5,-62"/>
<text text-anchor="middle" x="393.5" y="-69" font-family="Helvetica,sans-Serif" font-size="10.00">cstdio</text>
</a>
</g>
</g>
<!-- Node6&#45;&gt;Node9 -->
<g id="edge9" class="edge">
<title>Node6&#45;&gt;Node9</title>
<path fill="none" stroke="midnightblue" d="M390.93,-123.48C391.35,-115.08 392.01,-101.98 392.56,-91.16"/>
<polygon fill="midnightblue" stroke="midnightblue" points="396.06,-91.17 393.07,-81.01 389.07,-90.82 396.06,-91.17"/>
</g>
<!-- Node8 -->
<g id="node8" class="node">
<title>Node8</title>
<g id="a_node8"><a xlink:title=" ">
<polygon fill="white" stroke="#bfbfbf" points="261.5,-0.5 261.5,-19.5 311.5,-19.5 311.5,-0.5 261.5,-0.5"/>
<text text-anchor="middle" x="286.5" y="-7.5" font-family="Helvetica,sans-Serif" font-size="10.00">cstdint</text>
</a>
</g>
</g>
<!-- Node7&#45;&gt;Node8 -->
<g id="edge8" class="edge">
<title>Node7&#45;&gt;Node8</title>
<path fill="none" stroke="midnightblue" d="M286.5,-61.98C286.5,-53.58 286.5,-40.48 286.5,-29.66"/>
<polygon fill="midnightblue" stroke="midnightblue" points="290,-29.51 286.5,-19.51 283,-29.51 290,-29.51"/>
</g>
<!-- Node14&#45;&gt;Node5 -->
<g id="edge17" class="edge">
<title>Node14&#45;&gt;Node5</title>
<path fill="none" stroke="midnightblue" d="M478.34,-240.83C506.07,-225.49 560.35,-190.6 581.5,-143 587.93,-128.54 586.85,-110.73 584.21,-96.64"/>
<polygon fill="midnightblue" stroke="midnightblue" points="587.59,-95.69 581.98,-86.69 580.76,-97.22 587.59,-95.69"/>
</g>
<!-- Node14&#45;&gt;Node7 -->
<g id="edge18" class="edge">
<title>Node14&#45;&gt;Node7</title>
<path fill="none" stroke="midnightblue" d="M396.97,-240.94C347.82,-232.94 286.04,-219.18 270.5,-199 246.06,-167.26 264.17,-117.17 276.89,-90.55"/>
<polygon fill="midnightblue" stroke="midnightblue" points="280.18,-91.79 281.55,-81.28 273.93,-88.64 280.18,-91.79"/>
</g>
<!-- Node14&#45;&gt;Node10 -->
<g id="edge19" class="edge">
<title>Node14&#45;&gt;Node10</title>
<path fill="none" stroke="midnightblue" d="M467.89,-240.82C481.92,-221.76 515.63,-175.95 534.02,-150.96"/>
<polygon fill="midnightblue" stroke="midnightblue" points="536.93,-152.91 540.04,-142.78 531.29,-148.76 536.93,-152.91"/>
</g>
<!-- Node14&#45;&gt;Node13 -->
<g id="edge20" class="edge">
<title>Node14&#45;&gt;Node13</title>
<path fill="none" stroke="midnightblue" d="M423.25,-240.98C372.79,-229.73 284.47,-210.05 233.6,-198.71"/>
<polygon fill="midnightblue" stroke="midnightblue" points="234.16,-195.25 223.64,-196.49 232.64,-202.09 234.16,-195.25"/>
</g>
<!-- Node15 -->
<g id="node15" class="node">
<title>Node15</title>
<g id="a_node15"><a xlink:title=" ">
<polygon fill="white" stroke="#bfbfbf" points="439.5,-179.5 439.5,-198.5 483.5,-198.5 483.5,-179.5 439.5,-179.5"/>
<text text-anchor="middle" x="461.5" y="-186.5" font-family="Helvetica,sans-Serif" font-size="10.00">string</text>
</a>
</g>
</g>
<!-- Node14&#45;&gt;Node15 -->
<g id="edge21" class="edge">
<title>Node14&#45;&gt;Node15</title>
<path fill="none" stroke="midnightblue" d="M461.5,-240.98C461.5,-232.58 461.5,-219.48 461.5,-208.66"/>
<polygon fill="midnightblue" stroke="midnightblue" points="465,-208.51 461.5,-198.51 458,-208.51 465,-208.51"/>
</g>
<!-- Node16 -->
<g id="node16" class="node">
<title>Node16</title>
<g id="a_node16"><a xlink:title=" ">
<polygon fill="white" stroke="#bfbfbf" points="578,-179.5 578,-198.5 647,-198.5 647,-179.5 578,-179.5"/>
<text text-anchor="middle" x="612.5" y="-186.5" font-family="Helvetica,sans-Serif" font-size="10.00">type_traits</text>
</a>
</g>
</g>
<!-- Node14&#45;&gt;Node16 -->
<g id="edge22" class="edge">
<title>Node14&#45;&gt;Node16</title>
<path fill="none" stroke="midnightblue" d="M483.13,-240.98C508.92,-230.81 552.21,-213.76 581.54,-202.2"/>
<polygon fill="midnightblue" stroke="midnightblue" points="582.88,-205.43 590.91,-198.51 580.32,-198.92 582.88,-205.43"/>
</g>
<!-- Node17&#45;&gt;Node14 -->
<g id="edge32" class="edge">
<title>Node17&#45;&gt;Node14</title>
<path fill="none" stroke="midnightblue" d="M496.35,-371.95C441.84,-365.92 375.87,-354.36 358.5,-333 334.43,-303.4 385.82,-277.68 424.32,-263.41"/>
<polygon fill="midnightblue" stroke="midnightblue" points="425.53,-266.69 433.77,-260.03 423.18,-260.1 425.53,-266.69"/>
</g>
<!-- Node18 -->
<g id="node18" class="node">
<title>Node18</title>
<g id="a_node18"><a xlink:href="RegDB_8h.html" target="_top" xlink:title=" ">
<polygon fill="white" stroke="black" points="507.5,-308 507.5,-327 641.5,-327 641.5,-308 507.5,-308"/>
<text text-anchor="middle" x="574.5" y="-315" font-family="Helvetica,sans-Serif" font-size="10.00">boomerang/ssl/RegDB.h</text>
</a>
</g>
</g>
<!-- Node17&#45;&gt;Node18 -->
<g id="edge24" class="edge">
<title>Node17&#45;&gt;Node18</title>
<path fill="none" stroke="midnightblue" d="M574.5,-369.48C574.5,-361.08 574.5,-347.98 574.5,-337.16"/>
<polygon fill="midnightblue" stroke="midnightblue" points="578,-337.01 574.5,-327.01 571,-337.01 578,-337.01"/>
</g>
<!-- Node20 -->
<g id="node20" class="node">
<title>Node20</title>
<g id="a_node20"><a xlink:title=" ">
<polygon fill="white" stroke="#bfbfbf" points="614.5,-241 614.5,-260 652.5,-260 652.5,-241 614.5,-241"/>
<text text-anchor="middle" x="633.5" y="-248" font-family="Helvetica,sans-Serif" font-size="10.00">map</text>
</a>
</g>
</g>
<!-- Node17&#45;&gt;Node20 -->
<g id="edge41" class="edge">
<title>Node17&#45;&gt;Node20</title>
<path fill="none" stroke="midnightblue" d="M630.34,-369.47C670.93,-361.99 720.87,-349.7 733.5,-333 741.81,-322.01 740.72,-313.73 733.5,-302 731.38,-298.56 689.86,-278.3 660.99,-264.51"/>
<polygon fill="midnightblue" stroke="midnightblue" points="662.3,-261.25 651.77,-260.11 659.29,-267.57 662.3,-261.25"/>
</g>
<!-- Node21 -->
<g id="node21" class="node">
<title>Node21</title>
<g id="a_node21"><a xlink:title=" ">
<polygon fill="white" stroke="#bfbfbf" points="559.5,-241 559.5,-260 591.5,-260 591.5,-241 559.5,-241"/>
<text text-anchor="middle" x="575.5" y="-248" font-family="Helvetica,sans-Serif" font-size="10.00">set</text>
</a>
</g>
</g>
<!-- Node17&#45;&gt;Node21 -->
<g id="edge42" class="edge">
<title>Node17&#45;&gt;Node21</title>
<path fill="none" stroke="midnightblue" d="M652.52,-371.2C676.96,-364.95 701.45,-353.55 716.5,-333 724.64,-321.88 724.6,-313.14 716.5,-302 686,-260.05 653.63,-285.33 605.5,-266 603.91,-265.36 602.29,-264.68 600.67,-263.97"/>
<polygon fill="midnightblue" stroke="midnightblue" points="602.06,-260.75 591.51,-259.74 599.12,-267.11 602.06,-260.75"/>
</g>
<!-- Node22 -->
<g id="node22" class="node">
<title>Node22</title>
<g id="a_node22"><a xlink:href="TableEntry_8h.html" target="_top" xlink:title=" ">
<polygon fill="white" stroke="black" points="161.5,-308 161.5,-327 311.5,-327 311.5,-308 161.5,-308"/>
<text text-anchor="middle" x="236.5" y="-315" font-family="Helvetica,sans-Serif" font-size="10.00">boomerang/ssl/TableEntry.h</text>
</a>
</g>
</g>
<!-- Node17&#45;&gt;Node22 -->
<g id="edge33" class="edge">
<title>Node17&#45;&gt;Node22</title>
<path fill="none" stroke="midnightblue" d="M526.07,-369.48C465.08,-358.74 360.37,-340.31 294.98,-328.79"/>
<polygon fill="midnightblue" stroke="midnightblue" points="295.29,-325.3 284.84,-327.01 294.08,-332.19 295.29,-325.3"/>
</g>
<!-- Node23 -->
<g id="node23" class="node">
<title>Node23</title>
<g id="a_node23"><a xlink:title=" ">
<polygon fill="white" stroke="#bfbfbf" points="367.5,-302.5 367.5,-332.5 489.5,-332.5 489.5,-302.5 367.5,-302.5"/>
<text text-anchor="start" x="375.5" y="-320.5" font-family="Helvetica,sans-Serif" font-size="10.00">boomerang/ssl/parser</text>
<text text-anchor="middle" x="428.5" y="-309.5" font-family="Helvetica,sans-Serif" font-size="10.00">/SSL2Parser.hpp</text>
</a>
</g>
</g>
<!-- Node17&#45;&gt;Node23 -->
<g id="edge35" class="edge">
<title>Node17&#45;&gt;Node23</title>
<path fill="none" stroke="midnightblue" d="M553.58,-369.48C532.51,-360.89 499.37,-347.38 472.49,-336.43"/>
<polygon fill="midnightblue" stroke="midnightblue" points="473.49,-333.06 462.91,-332.52 470.85,-339.54 473.49,-333.06"/>
</g>
<!-- Node24 -->
<g id="node24" class="node">
<title>Node24</title>
<g id="a_node24"><a xlink:href="ByteUtil_8h.html" target="_top" xlink:title=" ">
<polygon fill="white" stroke="black" points="674,-241 674,-260 817,-260 817,-241 674,-241"/>
<text text-anchor="middle" x="745.5" y="-248" font-family="Helvetica,sans-Serif" font-size="10.00">boomerang/util/ByteUtil.h</text>
</a>
</g>
</g>
<!-- Node17&#45;&gt;Node24 -->
<g id="edge36" class="edge">
<title>Node17&#45;&gt;Node24</title>
<path fill="none" stroke="midnightblue" d="M640.51,-369.5C684.24,-362.35 735.95,-350.48 749.5,-333 763.37,-315.12 758.37,-287.82 752.65,-269.81"/>
<polygon fill="midnightblue" stroke="midnightblue" points="755.89,-268.46 749.25,-260.2 749.29,-270.8 755.89,-268.46"/>
</g>
<!-- Node26 -->
<g id="node26" class="node">
<title>Node26</title>
<g id="a_node26"><a xlink:title=" ">
<polygon fill="white" stroke="#bfbfbf" points="660,-308 660,-327 707,-327 707,-308 660,-308"/>
<text text-anchor="middle" x="683.5" y="-315" font-family="Helvetica,sans-Serif" font-size="10.00">vector</text>
</a>
</g>
</g>
<!-- Node17&#45;&gt;Node26 -->
<g id="edge43" class="edge">
<title>Node17&#45;&gt;Node26</title>
<path fill="none" stroke="midnightblue" d="M590.12,-369.48C608.09,-359.67 637.82,-343.43 658.91,-331.92"/>
<polygon fill="midnightblue" stroke="midnightblue" points="660.81,-334.87 667.91,-327.01 657.46,-328.73 660.81,-334.87"/>
</g>
<!-- Node18&#45;&gt;Node14 -->
<g id="edge29" class="edge">
<title>Node18&#45;&gt;Node14</title>
<path fill="none" stroke="midnightblue" d="M559.26,-307.73C540.28,-296.82 507.65,-278.05 485.35,-265.22"/>
<polygon fill="midnightblue" stroke="midnightblue" points="486.91,-262.08 476.5,-260.13 483.42,-268.15 486.91,-262.08"/>
</g>
<!-- Node19 -->
<g id="node19" class="node">
<title>Node19</title>
<g id="a_node19"><a xlink:href="RTL_8h.html" target="_top" xlink:title=" ">
<polygon fill="white" stroke="black" points="177,-241 177,-260 296,-260 296,-241 177,-241"/>
<text text-anchor="middle" x="236.5" y="-248" font-family="Helvetica,sans-Serif" font-size="10.00">boomerang/ssl/RTL.h</text>
</a>
</g>
</g>
<!-- Node18&#45;&gt;Node19 -->
<g id="edge25" class="edge">
<title>Node18&#45;&gt;Node19</title>
<path fill="none" stroke="midnightblue" d="M529.96,-307.94C468.33,-296.08 357.12,-274.7 290.72,-261.93"/>
<polygon fill="midnightblue" stroke="midnightblue" points="291.35,-258.48 280.86,-260.03 290.02,-265.36 291.35,-258.48"/>
</g>
<!-- Node18&#45;&gt;Node20 -->
<g id="edge30" class="edge">
<title>Node18&#45;&gt;Node20</title>
<path fill="none" stroke="midnightblue" d="M582.46,-307.73C591.75,-297.5 607.3,-280.36 618.8,-267.69"/>
<polygon fill="midnightblue" stroke="midnightblue" points="621.54,-269.88 625.67,-260.13 616.36,-265.18 621.54,-269.88"/>
</g>
<!-- Node18&#45;&gt;Node21 -->
<g id="edge31" class="edge">
<title>Node18&#45;&gt;Node21</title>
<path fill="none" stroke="midnightblue" d="M574.63,-307.73C574.78,-298.18 575.02,-282.62 575.21,-270.28"/>
<polygon fill="midnightblue" stroke="midnightblue" points="578.71,-270.18 575.37,-260.13 571.71,-270.07 578.71,-270.18"/>
</g>
<!-- Node19&#45;&gt;Node4 -->
<g id="edge26" class="edge">
<title>Node19&#45;&gt;Node4</title>
<path fill="none" stroke="midnightblue" d="M252.83,-240.98C271.71,-231.12 303.01,-214.79 325.08,-203.27"/>
<polygon fill="midnightblue" stroke="midnightblue" points="326.95,-206.24 334.2,-198.51 323.71,-200.03 326.95,-206.24"/>
</g>
<!-- Node19&#45;&gt;Node12 -->
<g id="edge27" class="edge">
<title>Node19&#45;&gt;Node12</title>
<path fill="none" stroke="midnightblue" d="M221.46,-240.98C204.22,-231.21 175.76,-215.08 155.47,-203.58"/>
<polygon fill="midnightblue" stroke="midnightblue" points="156.94,-200.39 146.52,-198.51 153.49,-206.48 156.94,-200.39"/>
</g>
<!-- Node19&#45;&gt;Node13 -->
<g id="edge28" class="edge">
<title>Node19&#45;&gt;Node13</title>
<path fill="none" stroke="midnightblue" d="M230.48,-240.98C224.24,-232.14 214.33,-218.09 206.48,-206.98"/>
<polygon fill="midnightblue" stroke="midnightblue" points="209.13,-204.66 200.51,-198.51 203.41,-208.7 209.13,-204.66"/>
</g>
<!-- Node22&#45;&gt;Node19 -->
<g id="edge34" class="edge">
<title>Node22&#45;&gt;Node19</title>
<path fill="none" stroke="midnightblue" d="M236.5,-307.73C236.5,-298.18 236.5,-282.62 236.5,-270.28"/>
<polygon fill="midnightblue" stroke="midnightblue" points="240,-270.13 236.5,-260.13 233,-270.13 240,-270.13"/>
</g>
<!-- Node24&#45;&gt;Node5 -->
<g id="edge37" class="edge">
<title>Node24&#45;&gt;Node5</title>
<path fill="none" stroke="midnightblue" d="M759.8,-240.86C779.5,-227.82 811,-202.18 796.5,-179 766.49,-131.03 708.01,-104.11 659.02,-89.34"/>
<polygon fill="midnightblue" stroke="midnightblue" points="659.94,-85.97 649.36,-86.55 658,-92.69 659.94,-85.97"/>
</g>
<!-- Node24&#45;&gt;Node7 -->
<g id="edge38" class="edge">
<title>Node24&#45;&gt;Node7</title>
<path fill="none" stroke="midnightblue" d="M737.62,-240.93C715.54,-217.56 650.24,-152.47 581.5,-123 490.44,-83.96 459.04,-104.41 361.5,-87 354.41,-85.73 346.95,-84.35 339.6,-82.96"/>
<polygon fill="midnightblue" stroke="midnightblue" points="340.17,-79.51 329.69,-81.07 338.86,-86.38 340.17,-79.51"/>
</g>
<!-- Node24&#45;&gt;Node16 -->
<g id="edge40" class="edge">
<title>Node24&#45;&gt;Node16</title>
<path fill="none" stroke="midnightblue" d="M726.44,-240.98C704.03,-230.95 666.59,-214.2 640.79,-202.65"/>
<polygon fill="midnightblue" stroke="midnightblue" points="642.08,-199.4 631.52,-198.51 639.22,-205.79 642.08,-199.4"/>
</g>
<!-- Node25 -->
<g id="node25" class="node">
<title>Node25</title>
<g id="a_node25"><a xlink:title=" ">
<polygon fill="white" stroke="#bfbfbf" points="704,-179.5 704,-198.5 787,-198.5 787,-179.5 704,-179.5"/>
<text text-anchor="middle" x="745.5" y="-186.5" font-family="Helvetica,sans-Serif" font-size="10.00">initializer_list</text>
</a>
</g>
</g>
<!-- Node24&#45;&gt;Node25 -->
<g id="edge39" class="edge">
<title>Node24&#45;&gt;Node25</title>
<path fill="none" stroke="midnightblue" d="M745.5,-240.98C745.5,-232.58 745.5,-219.48 745.5,-208.66"/>
<polygon fill="midnightblue" stroke="midnightblue" points="749,-208.51 745.5,-198.51 742,-208.51 749,-208.51"/>
</g>
</g>
</svg>
        <g id="navigator" transform="translate(0 0)" fill="#404254">
                <rect fill="#f2f5e9" fill-opacity="0.5" stroke="#606060" stroke-width=".5" x="0" y="0" width="60" height="60"/>
                <use id="zoomplus" xlink:href="#zoomPlus" x="17" y="9" onmousedown="handleZoom(evt,'in')"/>
                <use id="zoomminus" xlink:href="#zoomMin" x="42" y="9" onmousedown="handleZoom(evt,'out')"/>
                <use id="reset" xlink:href="#resetDef" x="30" y="36" onmousedown="handleReset()"/>
                <g id="arrowUp" xlink:href="#dirArrow" transform="translate(30 24)" onmousedown="handlePan(0,-1)">
                  <use xlink:href="#rim" fill="#404040">
                        <set attributeName="fill" to="#808080" begin="arrowUp.mouseover" end="arrowUp.mouseout"/>
                  </use>
                  <path fill="none" stroke="white" stroke-width="1.5" d="M0,-3.0v7 M-2.5,-0.5L0,-3.0L2.5,-0.5"/>
                </g>
                <g id="arrowRight" xlink:href="#dirArrow" transform="rotate(90) translate(36 -43)" onmousedown="handlePan(1,0)">
                  <use xlink:href="#rim" fill="#404040">
                        <set attributeName="fill" to="#808080" begin="arrowRight.mouseover" end="arrowRight.mouseout"/>
                  </use>
                  <path fill="none" stroke="white" stroke-width="1.5" d="M0,-3.0v7 M-2.5,-0.5L0,-3.0L2.5,-0.5"/>
                </g>
                <g id="arrowDown" xlink:href="#dirArrow" transform="rotate(180) translate(-30 -48)" onmousedown="handlePan(0,1)">
                  <use xlink:href="#rim" fill="#404040">
                        <set attributeName="fill" to="#808080" begin="arrowDown.mouseover" end="arrowDown.mouseout"/>
                  </use>
                  <path fill="none" stroke="white" stroke-width="1.5" d="M0,-3.0v7 M-2.5,-0.5L0,-3.0L2.5,-0.5"/>
                </g>
                <g id="arrowLeft" xlink:href="#dirArrow" transform="rotate(270) translate(-36 17)" onmousedown="handlePan(-1,0)">
                  <use xlink:href="#rim" fill="#404040">
                        <set attributeName="fill" to="#808080" begin="arrowLeft.mouseover" end="arrowLeft.mouseout"/>
                  </use>
                  <path fill="none" stroke="white" stroke-width="1.5" d="M0,-3.0v7 M-2.5,-0.5L0,-3.0L2.5,-0.5"/>
                </g>
        </g>
        <svg viewBox="0 0 15 15" width="100%" height="30px" preserveAspectRatio="xMaxYMin meet">
         <g id="arrow_out" transform="scale(0.3 0.3)">
          <a xlink:href="CapstoneDecoder_8h__incl_org.svg" target="_base">
           <rect id="button" ry="5" rx="5" y="6" x="6" height="38" width="38"
                fill="#f2f5e9" fill-opacity="0.5" stroke="#606060" stroke-width="1.0"/>
           <path id="arrow"
             d="M 11.500037,31.436501 C 11.940474,20.09759 22.043105,11.32322 32.158766,21.979434 L 37.068811,17.246167 C 37.068811,17.246167 37.088388,32 37.088388,32 L 22.160133,31.978069 C 22.160133,31.978069 26.997745,27.140456 26.997745,27.140456 C 18.528582,18.264221 13.291696,25.230495 11.500037,31.436501 z"
             style="fill:#404040;"/>
          </a>
         </g>
        </svg>
</svg>
