<?xml version="1.0" encoding="UTF-8" standalone="no"?>
<!DOCTYPE svg PUBLIC "-//W3C//DTD SVG 1.1//EN"
 "http://www.w3.org/Graphics/SVG/1.1/DTD/svg11.dtd">
<!-- Generated by graphviz version 2.43.0 (0)
 -->
<!-- Title: CaseStatement.h Pages: 1 -->
<svg width="1289pt" height="84pt"
 viewBox="0.00 0.00 1289.00 84.00" xmlns="http://www.w3.org/2000/svg" xmlns:xlink="http://www.w3.org/1999/xlink">
<g id="graph0" class="graph" transform="scale(1 1) rotate(0) translate(4 80)">
<title>CaseStatement.h</title>
<polygon fill="white" stroke="transparent" points="-4,4 -4,-80 1285,-80 1285,4 -4,4"/>
<!-- Node1 -->
<g id="node1" class="node">
<title>Node1</title>
<g id="a_node1"><a xlink:title=" ">
<polygon fill="#bfbfbf" stroke="black" points="544.5,-56.5 544.5,-75.5 645.5,-75.5 645.5,-56.5 544.5,-56.5"/>
<text text-anchor="middle" x="595" y="-63.5" font-family="Helvetica,sans-Serif" font-size="10.00">CaseStatement.h</text>
</a>
</g>
</g>
<!-- Node2 -->
<g id="node2" class="node">
<title>Node2</title>
<g id="a_node2"><a xlink:href="BasicBlock_8cpp.html" target="_top" xlink:title=" ">
<polygon fill="white" stroke="black" points="0,-0.5 0,-19.5 90,-19.5 90,-0.5 0,-0.5"/>
<text text-anchor="middle" x="45" y="-7.5" font-family="Helvetica,sans-Serif" font-size="10.00">BasicBlock.cpp</text>
</a>
</g>
</g>
<!-- Node1&#45;&gt;Node2 -->
<g id="edge1" class="edge">
<title>Node1&#45;&gt;Node2</title>
<path fill="none" stroke="midnightblue" d="M534.02,-60.94C440.28,-54.37 255.23,-40.08 99,-20 96.08,-19.62 93.07,-19.21 90.04,-18.77"/>
<polygon fill="midnightblue" stroke="midnightblue" points="533.95,-64.44 544.17,-61.65 534.43,-57.46 533.95,-64.44"/>
</g>
<!-- Node3 -->
<g id="node3" class="node">
<title>Node3</title>
<g id="a_node3"><a xlink:href="IndirectJumpAnalyzer_8cpp.html" target="_top" xlink:title=" ">
<polygon fill="white" stroke="black" points="108.5,-0.5 108.5,-19.5 249.5,-19.5 249.5,-0.5 108.5,-0.5"/>
<text text-anchor="middle" x="179" y="-7.5" font-family="Helvetica,sans-Serif" font-size="10.00">IndirectJumpAnalyzer.cpp</text>
</a>
</g>
</g>
<!-- Node1&#45;&gt;Node3 -->
<g id="edge2" class="edge">
<title>Node1&#45;&gt;Node3</title>
<path fill="none" stroke="midnightblue" d="M534.35,-57.13C457.11,-47.1 324.16,-29.84 244.62,-19.52"/>
<polygon fill="midnightblue" stroke="midnightblue" points="534.04,-60.62 544.41,-58.43 534.94,-53.67 534.04,-60.62"/>
</g>
<!-- Node4 -->
<g id="node4" class="node">
<title>Node4</title>
<g id="a_node4"><a xlink:href="CaseStatement_8cpp.html" target="_top" xlink:title=" ">
<polygon fill="white" stroke="black" points="268,-0.5 268,-19.5 380,-19.5 380,-0.5 268,-0.5"/>
<text text-anchor="middle" x="324" y="-7.5" font-family="Helvetica,sans-Serif" font-size="10.00">CaseStatement.cpp</text>
</a>
</g>
</g>
<!-- Node1&#45;&gt;Node4 -->
<g id="edge3" class="edge">
<title>Node1&#45;&gt;Node4</title>
<path fill="none" stroke="midnightblue" d="M542.17,-54.47C490.96,-44.27 414.23,-28.98 366.74,-19.52"/>
<polygon fill="midnightblue" stroke="midnightblue" points="541.57,-57.92 552.06,-56.44 542.94,-51.06 541.57,-57.92"/>
</g>
<!-- Node5 -->
<g id="node5" class="node">
<title>Node5</title>
<g id="a_node5"><a xlink:href="CCodeGenerator_8cpp.html" target="_top" xlink:title=" ">
<polygon fill="white" stroke="black" points="398.5,-0.5 398.5,-19.5 515.5,-19.5 515.5,-0.5 398.5,-0.5"/>
<text text-anchor="middle" x="457" y="-7.5" font-family="Helvetica,sans-Serif" font-size="10.00">CCodeGenerator.cpp</text>
</a>
</g>
</g>
<!-- Node1&#45;&gt;Node5 -->
<g id="edge4" class="edge">
<title>Node1&#45;&gt;Node5</title>
<path fill="none" stroke="midnightblue" d="M563.75,-52.77C537.83,-42.63 501.64,-28.47 478.76,-19.52"/>
<polygon fill="midnightblue" stroke="midnightblue" points="562.55,-56.06 573.13,-56.44 565.1,-49.54 562.55,-56.06"/>
</g>
<!-- Node6 -->
<g id="node6" class="node">
<title>Node6</title>
<g id="a_node6"><a xlink:href="CapstoneDecoder_8cpp.html" target="_top" xlink:title=" ">
<polygon fill="white" stroke="black" points="533.5,-0.5 533.5,-19.5 656.5,-19.5 656.5,-0.5 533.5,-0.5"/>
<text text-anchor="middle" x="595" y="-7.5" font-family="Helvetica,sans-Serif" font-size="10.00">CapstoneDecoder.cpp</text>
</a>
</g>
</g>
<!-- Node1&#45;&gt;Node6 -->
<g id="edge5" class="edge">
<title>Node1&#45;&gt;Node6</title>
<path fill="none" stroke="midnightblue" d="M595,-45.8C595,-36.91 595,-26.78 595,-19.75"/>
<polygon fill="midnightblue" stroke="midnightblue" points="591.5,-46.08 595,-56.08 598.5,-46.08 591.5,-46.08"/>
</g>
<!-- Node7 -->
<g id="node7" class="node">
<title>Node7</title>
<g id="a_node7"><a xlink:href="CapstoneX86Decoder_8cpp.html" target="_top" xlink:title=" ">
<polygon fill="white" stroke="black" points="675,-0.5 675,-19.5 817,-19.5 817,-0.5 675,-0.5"/>
<text text-anchor="middle" x="746" y="-7.5" font-family="Helvetica,sans-Serif" font-size="10.00">CapstoneX86Decoder.cpp</text>
</a>
</g>
</g>
<!-- Node1&#45;&gt;Node7 -->
<g id="edge6" class="edge">
<title>Node1&#45;&gt;Node7</title>
<path fill="none" stroke="midnightblue" d="M628.45,-53.04C656.86,-42.88 696.94,-28.55 722.19,-19.52"/>
<polygon fill="midnightblue" stroke="midnightblue" points="627.16,-49.78 618.93,-56.44 629.52,-56.37 627.16,-49.78"/>
</g>
<!-- Node8 -->
<g id="node8" class="node">
<title>Node8</title>
<g id="a_node8"><a xlink:href="CapstonePPCDecoder_8cpp.html" target="_top" xlink:title=" ">
<polygon fill="white" stroke="black" points="835,-0.5 835,-19.5 977,-19.5 977,-0.5 835,-0.5"/>
<text text-anchor="middle" x="906" y="-7.5" font-family="Helvetica,sans-Serif" font-size="10.00">CapstonePPCDecoder.cpp</text>
</a>
</g>
</g>
<!-- Node1&#45;&gt;Node8 -->
<g id="edge7" class="edge">
<title>Node1&#45;&gt;Node8</title>
<path fill="none" stroke="midnightblue" d="M654.16,-54.73C712.93,-44.52 802,-29.06 856.95,-19.52"/>
<polygon fill="midnightblue" stroke="midnightblue" points="653.53,-51.28 644.28,-56.44 654.73,-58.18 653.53,-51.28"/>
</g>
<!-- Node9 -->
<g id="node9" class="node">
<title>Node9</title>
<g id="a_node9"><a xlink:href="CapstoneSPARCDecoder_8cpp.html" target="_top" xlink:title=" ">
<polygon fill="white" stroke="black" points="995.5,-0.5 995.5,-19.5 1150.5,-19.5 1150.5,-0.5 995.5,-0.5"/>
<text text-anchor="middle" x="1073" y="-7.5" font-family="Helvetica,sans-Serif" font-size="10.00">CapstoneSPARCDecoder.cpp</text>
</a>
</g>
</g>
<!-- Node1&#45;&gt;Node9 -->
<g id="edge8" class="edge">
<title>Node1&#45;&gt;Node9</title>
<path fill="none" stroke="midnightblue" d="M655.69,-58.14C742.7,-48.31 902.82,-30.23 997.41,-19.54"/>
<polygon fill="midnightblue" stroke="midnightblue" points="655.25,-54.67 645.7,-59.27 656.03,-61.63 655.25,-54.67"/>
</g>
<!-- Node10 -->
<g id="node10" class="node">
<title>Node10</title>
<g id="a_node10"><a xlink:href="SPARCFrontEnd_8cpp.html" target="_top" xlink:title=" ">
<polygon fill="white" stroke="black" points="1169,-0.5 1169,-19.5 1281,-19.5 1281,-0.5 1169,-0.5"/>
<text text-anchor="middle" x="1225" y="-7.5" font-family="Helvetica,sans-Serif" font-size="10.00">SPARCFrontEnd.cpp</text>
</a>
</g>
</g>
<!-- Node1&#45;&gt;Node10 -->
<g id="edge9" class="edge">
<title>Node1&#45;&gt;Node10</title>
<path fill="none" stroke="midnightblue" d="M656.02,-61.31C759.74,-54.77 977,-39.94 1160,-20 1162.83,-19.69 1165.73,-19.36 1168.65,-19.01"/>
<polygon fill="midnightblue" stroke="midnightblue" points="655.5,-57.83 645.74,-61.95 655.94,-64.82 655.5,-57.83"/>
</g>
</g>
</svg>
