<?xml version="1.0" encoding="UTF-8" standalone="no"?>
<!DOCTYPE svg PUBLIC "-//W3C//DTD SVG 1.1//EN"
 "http://www.w3.org/Graphics/SVG/1.1/DTD/svg11.dtd">
<!-- Generated by graphviz version 2.43.0 (0)
 -->
<!-- Title: CaseStatement.cpp Pages: 1 -->
<!--zoomable 475 -->
<svg id="main" version="1.1" xmlns="http://www.w3.org/2000/svg" xmlns:xlink="http://www.w3.org/1999/xlink" xml:space="preserve" onload="init(evt)">
<style type="text/css"><![CDATA[
.edge:hover path { stroke: red; }
.edge:hover polygon { stroke: red; fill: red; }
]]></style>
<script type="text/javascript"><![CDATA[
var edges = document.getElementsByTagName('g');
if (edges && edges.length) {
  for (var i=0;i<edges.length;i++) {
    if (edges[i].id.substr(0,4)=='edge') {
      edges[i].setAttribute('class','edge');
    }
  }
}
]]></script>
        <defs>
                <circle id="rim" cx="0" cy="0" r="7"/>
                <circle id="rim2" cx="0" cy="0" r="3.5"/>
                <g id="zoomPlus">
                        <use xlink:href="#rim" fill="#404040">
                                <set attributeName="fill" to="#808080" begin="zoomplus.mouseover" end="zoomplus.mouseout"/>
                        </use>
                        <path d="M-4,0h8M0,-4v8" fill="none" stroke="white" stroke-width="1.5" pointer-events="none"/>
                </g>
                <g id="zoomMin">
                        <use xlink:href="#rim" fill="#404040">
                                <set attributeName="fill" to="#808080" begin="zoomminus.mouseover" end="zoomminus.mouseout"/>
                        </use>
                        <path d="M-4,0h8" fill="none" stroke="white" stroke-width="1.5" pointer-events="none"/>
                </g>
                <g id="dirArrow">
                        <path fill="none" stroke="white" stroke-width="1.5" d="M0,-3.0v7 M-2.5,-0.5L0,-3.0L2.5,-0.5"/>
                </g>
               <g id="resetDef">
                       <use xlink:href="#rim2" fill="#404040">
                               <set attributeName="fill" to="#808080" begin="reset.mouseover" end="reset.mouseout"/>
                       </use>
               </g>
        </defs>

<script type="text/javascript">
var viewWidth = 1625;
var viewHeight = 475;
var sectionId = 'dynsection-0';
</script>
<script xlink:href="svgpan.js"/>
<svg id="graph" class="graph">
<g id="viewport">
<title>CaseStatement.cpp</title>
<polygon fill="white" stroke="transparent" points="-4,4 -4,-471 1620.5,-471 1620.5,4 -4,4"/>
<!-- Node1 -->
<g id="node1" class="node">
<title>Node1</title>
<g id="a_node1"><a xlink:title=" ">
<polygon fill="#bfbfbf" stroke="black" points="1145.5,-447.5 1145.5,-466.5 1257.5,-466.5 1257.5,-447.5 1145.5,-447.5"/>
<text text-anchor="middle" x="1201.5" y="-454.5" font-family="Helvetica,sans-Serif" font-size="10.00">CaseStatement.cpp</text>
</a>
</g>
</g>
<!-- Node2 -->
<g id="node2" class="node">
<title>Node2</title>
<g id="a_node2"><a xlink:href="CaseStatement_8h.html" target="_top" xlink:title=" ">
<polygon fill="white" stroke="black" points="766,-386 766,-405 867,-405 867,-386 766,-386"/>
<text text-anchor="middle" x="816.5" y="-393" font-family="Helvetica,sans-Serif" font-size="10.00">CaseStatement.h</text>
</a>
</g>
</g>
<!-- Node1&#45;&gt;Node2 -->
<g id="edge1" class="edge">
<title>Node1&#45;&gt;Node2</title>
<path fill="none" stroke="midnightblue" d="M1145.28,-448.57C1083.27,-440.19 980.58,-425.81 892.5,-411 885.04,-409.75 877.18,-408.34 869.47,-406.91"/>
<polygon fill="midnightblue" stroke="midnightblue" points="869.92,-403.44 859.45,-405.03 868.63,-410.32 869.92,-403.44"/>
</g>
<!-- Node16 -->
<g id="node16" class="node">
<title>Node16</title>
<g id="a_node16"><a xlink:href="Exp_8h.html" target="_top" xlink:title=" ">
<polygon fill="white" stroke="black" points="564.5,-190.5 564.5,-209.5 704.5,-209.5 704.5,-190.5 564.5,-190.5"/>
<text text-anchor="middle" x="634.5" y="-197.5" font-family="Helvetica,sans-Serif" font-size="10.00">boomerang/ssl/exp/Exp.h</text>
</a>
</g>
</g>
<!-- Node1&#45;&gt;Node16 -->
<g id="edge18" class="edge">
<title>Node1&#45;&gt;Node16</title>
<path fill="none" stroke="midnightblue" d="M1166.42,-447.44C1135.43,-439.44 1089.26,-426.42 1050.5,-411 895.34,-349.28 719.95,-250.57 657.82,-214.64"/>
<polygon fill="midnightblue" stroke="midnightblue" points="659.57,-211.61 649.16,-209.62 656.06,-217.67 659.57,-211.61"/>
</g>
<!-- Node21 -->
<g id="node21" class="node">
<title>Node21</title>
<g id="a_node21"><a xlink:href="ExpVisitor_8h.html" target="_top" xlink:title=" ">
<polygon fill="white" stroke="black" points="1003.5,-123.5 1003.5,-153.5 1161.5,-153.5 1161.5,-123.5 1003.5,-123.5"/>
<text text-anchor="start" x="1011.5" y="-141.5" font-family="Helvetica,sans-Serif" font-size="10.00">boomerang/visitor/expvisitor</text>
<text text-anchor="middle" x="1082.5" y="-130.5" font-family="Helvetica,sans-Serif" font-size="10.00">/ExpVisitor.h</text>
</a>
</g>
</g>
<!-- Node1&#45;&gt;Node21 -->
<g id="edge29" class="edge">
<title>Node1&#45;&gt;Node21</title>
<path fill="none" stroke="midnightblue" d="M1178.88,-447.38C1139.97,-430.9 1064.5,-391.01 1064.5,-329.5 1064.5,-329.5 1064.5,-329.5 1064.5,-260.5 1064.5,-226.46 1071.56,-187.61 1076.83,-163.32"/>
<polygon fill="midnightblue" stroke="midnightblue" points="1080.25,-164.08 1079.03,-153.56 1073.42,-162.54 1080.25,-164.08"/>
</g>
<!-- Node22 -->
<g id="node22" class="node">
<title>Node22</title>
<g id="a_node22"><a xlink:href="StmtExpVisitor_8h.html" target="_top" xlink:title=" ">
<polygon fill="white" stroke="black" points="1092.5,-313.5 1092.5,-343.5 1272.5,-343.5 1272.5,-313.5 1092.5,-313.5"/>
<text text-anchor="start" x="1100.5" y="-331.5" font-family="Helvetica,sans-Serif" font-size="10.00">boomerang/visitor/stmtexpvisitor</text>
<text text-anchor="middle" x="1182.5" y="-320.5" font-family="Helvetica,sans-Serif" font-size="10.00">/StmtExpVisitor.h</text>
</a>
</g>
</g>
<!-- Node1&#45;&gt;Node22 -->
<g id="edge32" class="edge">
<title>Node1&#45;&gt;Node22</title>
<path fill="none" stroke="midnightblue" d="M1200.19,-447.31C1197.34,-428.3 1190.46,-382.47 1186.16,-353.9"/>
<polygon fill="midnightblue" stroke="midnightblue" points="1189.61,-353.26 1184.66,-343.89 1182.69,-354.3 1189.61,-353.26"/>
</g>
<!-- Node23 -->
<g id="node23" class="node">
<title>Node23</title>
<g id="a_node23"><a xlink:href="StmtModifier_8h.html" target="_top" xlink:title=" ">
<polygon fill="white" stroke="black" points="1218,-246.5 1218,-276.5 1391,-276.5 1391,-246.5 1218,-246.5"/>
<text text-anchor="start" x="1226" y="-264.5" font-family="Helvetica,sans-Serif" font-size="10.00">boomerang/visitor/stmtmodifier</text>
<text text-anchor="middle" x="1304.5" y="-253.5" font-family="Helvetica,sans-Serif" font-size="10.00">/StmtModifier.h</text>
</a>
</g>
</g>
<!-- Node1&#45;&gt;Node23 -->
<g id="edge34" class="edge">
<title>Node1&#45;&gt;Node23</title>
<path fill="none" stroke="midnightblue" d="M1204.51,-447.39C1209.94,-432.6 1222.43,-401.86 1239.5,-380 1254.63,-360.62 1268.26,-364.72 1281.5,-344 1292.54,-326.72 1298.38,-304.09 1301.4,-287.05"/>
<polygon fill="midnightblue" stroke="midnightblue" points="1304.92,-287.2 1303.01,-276.78 1298.01,-286.12 1304.92,-287.2"/>
</g>
<!-- Node24 -->
<g id="node24" class="node">
<title>Node24</title>
<g id="a_node24"><a xlink:href="StmtPartModifier_8h.html" target="_top" xlink:title=" ">
<polygon fill="white" stroke="black" points="1249,-380.5 1249,-410.5 1422,-410.5 1422,-380.5 1249,-380.5"/>
<text text-anchor="start" x="1257" y="-398.5" font-family="Helvetica,sans-Serif" font-size="10.00">boomerang/visitor/stmtmodifier</text>
<text text-anchor="middle" x="1335.5" y="-387.5" font-family="Helvetica,sans-Serif" font-size="10.00">/StmtPartModifier.h</text>
</a>
</g>
</g>
<!-- Node1&#45;&gt;Node24 -->
<g id="edge36" class="edge">
<title>Node1&#45;&gt;Node24</title>
<path fill="none" stroke="midnightblue" d="M1220.7,-447.48C1239.87,-438.96 1269.92,-425.62 1294.47,-414.72"/>
<polygon fill="midnightblue" stroke="midnightblue" points="1296.2,-417.78 1303.92,-410.52 1293.36,-411.38 1296.2,-417.78"/>
</g>
<!-- Node25 -->
<g id="node25" class="node">
<title>Node25</title>
<g id="a_node25"><a xlink:href="StmtVisitor_8h.html" target="_top" xlink:title=" ">
<polygon fill="white" stroke="black" points="1360.5,-313.5 1360.5,-343.5 1522.5,-343.5 1522.5,-313.5 1360.5,-313.5"/>
<text text-anchor="start" x="1368.5" y="-331.5" font-family="Helvetica,sans-Serif" font-size="10.00">boomerang/visitor/stmtvisitor</text>
<text text-anchor="middle" x="1441.5" y="-320.5" font-family="Helvetica,sans-Serif" font-size="10.00">/StmtVisitor.h</text>
</a>
</g>
</g>
<!-- Node1&#45;&gt;Node25 -->
<g id="edge37" class="edge">
<title>Node1&#45;&gt;Node25</title>
<path fill="none" stroke="midnightblue" d="M1257.72,-452.43C1318.07,-447.37 1408.42,-435.79 1431.5,-411 1445.57,-395.9 1446.92,-371.81 1445.44,-353.73"/>
<polygon fill="midnightblue" stroke="midnightblue" points="1448.9,-353.18 1444.28,-343.64 1441.95,-353.98 1448.9,-353.18"/>
</g>
<!-- Node26 -->
<g id="node26" class="node">
<title>Node26</title>
<g id="a_node26"><a xlink:title=" ">
<polygon fill="white" stroke="#bfbfbf" points="1478.5,-386 1478.5,-405 1616.5,-405 1616.5,-386 1478.5,-386"/>
<text text-anchor="middle" x="1547.5" y="-393" font-family="Helvetica,sans-Serif" font-size="10.00">QTextStreamManipulator</text>
</a>
</g>
</g>
<!-- Node1&#45;&gt;Node26 -->
<g id="edge39" class="edge">
<title>Node1&#45;&gt;Node26</title>
<path fill="none" stroke="midnightblue" d="M1251.93,-447.43C1304.88,-438.41 1390.55,-423.79 1464.5,-411 1472.39,-409.64 1480.7,-408.19 1488.89,-406.76"/>
<polygon fill="midnightblue" stroke="midnightblue" points="1489.54,-410.21 1498.79,-405.04 1488.34,-403.31 1489.54,-410.21"/>
</g>
<!-- Node3 -->
<g id="node3" class="node">
<title>Node3</title>
<g id="a_node3"><a xlink:href="GotoStatement_8h.html" target="_top" xlink:title=" ">
<polygon fill="white" stroke="black" points="491,-313.5 491,-343.5 638,-343.5 638,-313.5 491,-313.5"/>
<text text-anchor="start" x="499" y="-331.5" font-family="Helvetica,sans-Serif" font-size="10.00">boomerang/ssl/statements</text>
<text text-anchor="middle" x="564.5" y="-320.5" font-family="Helvetica,sans-Serif" font-size="10.00">/GotoStatement.h</text>
</a>
</g>
</g>
<!-- Node2&#45;&gt;Node3 -->
<g id="edge2" class="edge">
<title>Node2&#45;&gt;Node3</title>
<path fill="none" stroke="midnightblue" d="M783.3,-385.94C744.16,-375.84 678.22,-358.83 628.94,-346.12"/>
<polygon fill="midnightblue" stroke="midnightblue" points="629.56,-342.67 619.01,-343.56 627.82,-349.45 629.56,-342.67"/>
</g>
<!-- Node4 -->
<g id="node4" class="node">
<title>Node4</title>
<g id="a_node4"><a xlink:href="Statement_8h.html" target="_top" xlink:title=" ">
<polygon fill="white" stroke="black" points="375,-246.5 375,-276.5 522,-276.5 522,-246.5 375,-246.5"/>
<text text-anchor="start" x="383" y="-264.5" font-family="Helvetica,sans-Serif" font-size="10.00">boomerang/ssl/statements</text>
<text text-anchor="middle" x="448.5" y="-253.5" font-family="Helvetica,sans-Serif" font-size="10.00">/Statement.h</text>
</a>
</g>
</g>
<!-- Node3&#45;&gt;Node4 -->
<g id="edge3" class="edge">
<title>Node3&#45;&gt;Node4</title>
<path fill="none" stroke="midnightblue" d="M539.33,-313.4C522.76,-304.11 500.86,-291.84 482.72,-281.67"/>
<polygon fill="midnightblue" stroke="midnightblue" points="484.06,-278.41 473.62,-276.58 480.63,-284.52 484.06,-278.41"/>
</g>
<!-- Node5 -->
<g id="node5" class="node">
<title>Node5</title>
<g id="a_node5"><a xlink:href="ExpHelp_8h.html" target="_top" xlink:title=" ">
<polygon fill="white" stroke="black" points="367.5,-129 367.5,-148 529.5,-148 529.5,-129 367.5,-129"/>
<text text-anchor="middle" x="448.5" y="-136" font-family="Helvetica,sans-Serif" font-size="10.00">boomerang/ssl/exp/ExpHelp.h</text>
</a>
</g>
</g>
<!-- Node4&#45;&gt;Node5 -->
<g id="edge4" class="edge">
<title>Node4&#45;&gt;Node5</title>
<path fill="none" stroke="midnightblue" d="M448.5,-246.14C448.5,-224.2 448.5,-182.33 448.5,-158.09"/>
<polygon fill="midnightblue" stroke="midnightblue" points="452,-158.05 448.5,-148.05 445,-158.05 452,-158.05"/>
</g>
<!-- Node8 -->
<g id="node8" class="node">
<title>Node8</title>
<g id="a_node8"><a xlink:href="Address_8h.html" target="_top" xlink:title=" ">
<polygon fill="white" stroke="black" points="224.5,-190.5 224.5,-209.5 366.5,-209.5 366.5,-190.5 224.5,-190.5"/>
<text text-anchor="middle" x="295.5" y="-197.5" font-family="Helvetica,sans-Serif" font-size="10.00">boomerang/util/Address.h</text>
</a>
</g>
</g>
<!-- Node4&#45;&gt;Node8 -->
<g id="edge7" class="edge">
<title>Node4&#45;&gt;Node8</title>
<path fill="none" stroke="midnightblue" d="M412.24,-246.4C386.46,-236.37 352.14,-223.03 327.4,-213.4"/>
<polygon fill="midnightblue" stroke="midnightblue" points="328.35,-210.02 317.76,-209.66 325.81,-216.54 328.35,-210.02"/>
</g>
<!-- Node14 -->
<g id="node14" class="node">
<title>Node14</title>
<g id="a_node14"><a xlink:title=" ">
<polygon fill="white" stroke="#bfbfbf" points="547.5,-129 547.5,-148 579.5,-148 579.5,-129 547.5,-129"/>
<text text-anchor="middle" x="563.5" y="-136" font-family="Helvetica,sans-Serif" font-size="10.00">list</text>
</a>
</g>
</g>
<!-- Node4&#45;&gt;Node14 -->
<g id="edge16" class="edge">
<title>Node4&#45;&gt;Node14</title>
<path fill="none" stroke="midnightblue" d="M462.14,-246.14C483.75,-223.41 525.7,-179.27 548.27,-155.53"/>
<polygon fill="midnightblue" stroke="midnightblue" points="551.02,-157.71 555.37,-148.05 545.95,-152.89 551.02,-157.71"/>
</g>
<!-- Node15 -->
<g id="node15" class="node">
<title>Node15</title>
<g id="a_node15"><a xlink:title=" ">
<polygon fill="white" stroke="#bfbfbf" points="168.5,-190.5 168.5,-209.5 206.5,-209.5 206.5,-190.5 168.5,-190.5"/>
<text text-anchor="middle" x="187.5" y="-197.5" font-family="Helvetica,sans-Serif" font-size="10.00">map</text>
</a>
</g>
</g>
<!-- Node4&#45;&gt;Node15 -->
<g id="edge17" class="edge">
<title>Node4&#45;&gt;Node15</title>
<path fill="none" stroke="midnightblue" d="M374.86,-246.45C331.22,-237.68 274.7,-225.55 216.45,-210.06"/>
<polygon fill="midnightblue" stroke="midnightblue" points="217.27,-206.66 206.71,-207.45 215.46,-213.42 217.27,-206.66"/>
</g>
<!-- Node6 -->
<g id="node6" class="node">
<title>Node6</title>
<g id="a_node6"><a xlink:href="BoomerangAPI_8h.html" target="_top" xlink:title=" ">
<polygon fill="white" stroke="black" points="915,-56.5 915,-86.5 1070,-86.5 1070,-56.5 915,-56.5"/>
<text text-anchor="start" x="923" y="-74.5" font-family="Helvetica,sans-Serif" font-size="10.00">boomerang/core/Boomerang</text>
<text text-anchor="middle" x="992.5" y="-63.5" font-family="Helvetica,sans-Serif" font-size="10.00">API.h</text>
</a>
</g>
</g>
<!-- Node5&#45;&gt;Node6 -->
<g id="edge5" class="edge">
<title>Node5&#45;&gt;Node6</title>
<path fill="none" stroke="midnightblue" d="M498.89,-128.94C511.79,-126.87 525.64,-124.75 538.5,-123 665.56,-105.71 813.22,-90.11 904.78,-80.97"/>
<polygon fill="midnightblue" stroke="midnightblue" points="905.23,-84.44 914.84,-79.97 904.54,-77.48 905.23,-84.44"/>
</g>
<!-- Node7 -->
<g id="node7" class="node">
<title>Node7</title>
<g id="a_node7"><a xlink:title=" ">
<polygon fill="white" stroke="#bfbfbf" points="578.5,-62 578.5,-81 636.5,-81 636.5,-62 578.5,-62"/>
<text text-anchor="middle" x="607.5" y="-69" font-family="Helvetica,sans-Serif" font-size="10.00">memory</text>
</a>
</g>
</g>
<!-- Node5&#45;&gt;Node7 -->
<g id="edge6" class="edge">
<title>Node5&#45;&gt;Node7</title>
<path fill="none" stroke="midnightblue" d="M469.61,-128.87C497.13,-117.62 545.45,-97.87 576.96,-84.99"/>
<polygon fill="midnightblue" stroke="midnightblue" points="578.62,-88.09 586.55,-81.06 575.97,-81.61 578.62,-88.09"/>
</g>
<!-- Node8&#45;&gt;Node6 -->
<g id="edge8" class="edge">
<title>Node8&#45;&gt;Node6</title>
<path fill="none" stroke="midnightblue" d="M290.71,-190.38C282.73,-174.74 269.21,-141.57 286.5,-123 307.28,-100.68 720.29,-82.61 904.79,-75.62"/>
<polygon fill="midnightblue" stroke="midnightblue" points="905.14,-79.11 915,-75.24 904.88,-72.12 905.14,-79.11"/>
</g>
<!-- Node9 -->
<g id="node9" class="node">
<title>Node9</title>
<g id="a_node9"><a xlink:href="OStream_8h.html" target="_top" xlink:title=" ">
<polygon fill="white" stroke="black" points="93.5,-129 93.5,-148 239.5,-148 239.5,-129 93.5,-129"/>
<text text-anchor="middle" x="166.5" y="-136" font-family="Helvetica,sans-Serif" font-size="10.00">boomerang/util/OStream.h</text>
</a>
</g>
</g>
<!-- Node8&#45;&gt;Node9 -->
<g id="edge9" class="edge">
<title>Node8&#45;&gt;Node9</title>
<path fill="none" stroke="midnightblue" d="M277.02,-190.48C255.37,-180.49 219.29,-163.85 194.27,-152.31"/>
<polygon fill="midnightblue" stroke="midnightblue" points="195.49,-149.02 184.95,-148.01 192.56,-155.38 195.49,-149.02"/>
</g>
<!-- Node10 -->
<g id="node10" class="node">
<title>Node10</title>
<g id="a_node10"><a xlink:href="Types_8h.html" target="_top" xlink:title=" ">
<polygon fill="white" stroke="black" points="0,-62 0,-81 131,-81 131,-62 0,-62"/>
<text text-anchor="middle" x="65.5" y="-69" font-family="Helvetica,sans-Serif" font-size="10.00">boomerang/util/Types.h</text>
</a>
</g>
</g>
<!-- Node8&#45;&gt;Node10 -->
<g id="edge14" class="edge">
<title>Node8&#45;&gt;Node10</title>
<path fill="none" stroke="midnightblue" d="M241.04,-190.48C182.31,-180.81 95.68,-164.97 84.5,-154 67.84,-137.65 64.61,-109.73 64.51,-91.19"/>
<polygon fill="midnightblue" stroke="midnightblue" points="68.01,-91.14 64.76,-81.05 61.02,-90.96 68.01,-91.14"/>
</g>
<!-- Node13 -->
<g id="node13" class="node">
<title>Node13</title>
<g id="a_node13"><a xlink:title=" ">
<polygon fill="white" stroke="#bfbfbf" points="296,-129 296,-148 349,-148 349,-129 296,-129"/>
<text text-anchor="middle" x="322.5" y="-136" font-family="Helvetica,sans-Serif" font-size="10.00">QString</text>
</a>
</g>
</g>
<!-- Node8&#45;&gt;Node13 -->
<g id="edge15" class="edge">
<title>Node8&#45;&gt;Node13</title>
<path fill="none" stroke="midnightblue" d="M299.37,-190.48C303.3,-181.82 309.5,-168.15 314.49,-157.15"/>
<polygon fill="midnightblue" stroke="midnightblue" points="317.69,-158.56 318.64,-148.01 311.32,-155.67 317.69,-158.56"/>
</g>
<!-- Node9&#45;&gt;Node6 -->
<g id="edge10" class="edge">
<title>Node9&#45;&gt;Node6</title>
<path fill="none" stroke="midnightblue" d="M212.44,-128.99C225.65,-126.77 240.12,-124.57 253.5,-123 487.91,-95.52 766.04,-81.49 904.72,-75.74"/>
<polygon fill="midnightblue" stroke="midnightblue" points="905.02,-79.23 914.87,-75.33 904.74,-72.24 905.02,-79.23"/>
</g>
<!-- Node9&#45;&gt;Node10 -->
<g id="edge11" class="edge">
<title>Node9&#45;&gt;Node10</title>
<path fill="none" stroke="midnightblue" d="M152.88,-128.73C136.07,-117.92 107.27,-99.38 87.36,-86.57"/>
<polygon fill="midnightblue" stroke="midnightblue" points="89.21,-83.6 78.91,-81.13 85.42,-89.48 89.21,-83.6"/>
</g>
<!-- Node12 -->
<g id="node12" class="node">
<title>Node12</title>
<g id="a_node12"><a xlink:title=" ">
<polygon fill="white" stroke="#bfbfbf" points="149.5,-62 149.5,-81 195.5,-81 195.5,-62 149.5,-62"/>
<text text-anchor="middle" x="172.5" y="-69" font-family="Helvetica,sans-Serif" font-size="10.00">cstdio</text>
</a>
</g>
</g>
<!-- Node9&#45;&gt;Node12 -->
<g id="edge13" class="edge">
<title>Node9&#45;&gt;Node12</title>
<path fill="none" stroke="midnightblue" d="M167.31,-128.73C168.19,-119.18 169.63,-103.62 170.77,-91.28"/>
<polygon fill="midnightblue" stroke="midnightblue" points="174.27,-91.41 171.7,-81.13 167.3,-90.76 174.27,-91.41"/>
</g>
<!-- Node11 -->
<g id="node11" class="node">
<title>Node11</title>
<g id="a_node11"><a xlink:title=" ">
<polygon fill="white" stroke="#bfbfbf" points="40.5,-0.5 40.5,-19.5 90.5,-19.5 90.5,-0.5 40.5,-0.5"/>
<text text-anchor="middle" x="65.5" y="-7.5" font-family="Helvetica,sans-Serif" font-size="10.00">cstdint</text>
</a>
</g>
</g>
<!-- Node10&#45;&gt;Node11 -->
<g id="edge12" class="edge">
<title>Node10&#45;&gt;Node11</title>
<path fill="none" stroke="midnightblue" d="M65.5,-61.98C65.5,-53.58 65.5,-40.48 65.5,-29.66"/>
<polygon fill="midnightblue" stroke="midnightblue" points="69,-29.51 65.5,-19.51 62,-29.51 69,-29.51"/>
</g>
<!-- Node16&#45;&gt;Node5 -->
<g id="edge19" class="edge">
<title>Node16&#45;&gt;Node5</title>
<path fill="none" stroke="midnightblue" d="M607.85,-190.48C575.53,-180.14 520.9,-162.66 484.77,-151.1"/>
<polygon fill="midnightblue" stroke="midnightblue" points="485.69,-147.72 475.1,-148.01 483.56,-154.39 485.69,-147.72"/>
</g>
<!-- Node16&#45;&gt;Node7 -->
<g id="edge26" class="edge">
<title>Node16&#45;&gt;Node7</title>
<path fill="none" stroke="midnightblue" d="M632.64,-190.31C628.31,-169.99 617.44,-119.05 611.51,-91.28"/>
<polygon fill="midnightblue" stroke="midnightblue" points="614.88,-90.3 609.37,-81.26 608.03,-91.77 614.88,-90.3"/>
</g>
<!-- Node16&#45;&gt;Node9 -->
<g id="edge22" class="edge">
<title>Node16&#45;&gt;Node9</title>
<path fill="none" stroke="midnightblue" d="M567.45,-190.48C481.78,-179.58 333.83,-160.77 243.6,-149.3"/>
<polygon fill="midnightblue" stroke="midnightblue" points="243.79,-145.8 233.43,-148.01 242.91,-152.74 243.79,-145.8"/>
</g>
<!-- Node16&#45;&gt;Node13 -->
<g id="edge23" class="edge">
<title>Node16&#45;&gt;Node13</title>
<path fill="none" stroke="midnightblue" d="M564.39,-191.91C508.04,-185.18 427.24,-173.19 358.5,-154 356.06,-153.32 353.56,-152.52 351.07,-151.66"/>
<polygon fill="midnightblue" stroke="midnightblue" points="352.25,-148.37 341.66,-148.13 349.79,-154.92 352.25,-148.37"/>
</g>
<!-- Node16&#45;&gt;Node14 -->
<g id="edge25" class="edge">
<title>Node16&#45;&gt;Node14</title>
<path fill="none" stroke="midnightblue" d="M624.33,-190.48C613.15,-181.11 594.98,-165.88 581.41,-154.51"/>
<polygon fill="midnightblue" stroke="midnightblue" points="583.57,-151.75 573.65,-148.01 579.07,-157.11 583.57,-151.75"/>
</g>
<!-- Node17 -->
<g id="node17" class="node">
<title>Node17</title>
<g id="a_node17"><a xlink:href="Operator_8h.html" target="_top" xlink:title=" ">
<polygon fill="white" stroke="black" points="821.5,-129 821.5,-148 985.5,-148 985.5,-129 821.5,-129"/>
<text text-anchor="middle" x="903.5" y="-136" font-family="Helvetica,sans-Serif" font-size="10.00">boomerang/ssl/exp/Operator.h</text>
</a>
</g>
</g>
<!-- Node16&#45;&gt;Node17 -->
<g id="edge20" class="edge">
<title>Node16&#45;&gt;Node17</title>
<path fill="none" stroke="midnightblue" d="M673.04,-190.48C720.98,-179.87 802.86,-161.76 855.01,-150.22"/>
<polygon fill="midnightblue" stroke="midnightblue" points="856.02,-153.59 865.03,-148.01 854.51,-146.75 856.02,-153.59"/>
</g>
<!-- Node18 -->
<g id="node18" class="node">
<title>Node18</title>
<g id="a_node18"><a xlink:title=" ">
<polygon fill="white" stroke="#bfbfbf" points="635.5,-129 635.5,-148 687.5,-148 687.5,-129 635.5,-129"/>
<text text-anchor="middle" x="661.5" y="-136" font-family="Helvetica,sans-Serif" font-size="10.00">cassert</text>
</a>
</g>
</g>
<!-- Node16&#45;&gt;Node18 -->
<g id="edge24" class="edge">
<title>Node16&#45;&gt;Node18</title>
<path fill="none" stroke="midnightblue" d="M638.37,-190.48C642.3,-181.82 648.5,-168.15 653.49,-157.15"/>
<polygon fill="midnightblue" stroke="midnightblue" points="656.69,-158.56 657.64,-148.01 650.32,-155.67 656.69,-158.56"/>
</g>
<!-- Node19 -->
<g id="node19" class="node">
<title>Node19</title>
<g id="a_node19"><a xlink:title=" ">
<polygon fill="white" stroke="#bfbfbf" points="705.5,-129 705.5,-148 737.5,-148 737.5,-129 705.5,-129"/>
<text text-anchor="middle" x="721.5" y="-136" font-family="Helvetica,sans-Serif" font-size="10.00">set</text>
</a>
</g>
</g>
<!-- Node16&#45;&gt;Node19 -->
<g id="edge27" class="edge">
<title>Node16&#45;&gt;Node19</title>
<path fill="none" stroke="midnightblue" d="M646.96,-190.48C660.92,-180.93 683.76,-165.31 700.49,-153.87"/>
<polygon fill="midnightblue" stroke="midnightblue" points="702.78,-156.54 709.06,-148.01 698.83,-150.77 702.78,-156.54"/>
</g>
<!-- Node20 -->
<g id="node20" class="node">
<title>Node20</title>
<g id="a_node20"><a xlink:title=" ">
<polygon fill="white" stroke="#bfbfbf" points="756,-129 756,-148 803,-148 803,-129 756,-129"/>
<text text-anchor="middle" x="779.5" y="-136" font-family="Helvetica,sans-Serif" font-size="10.00">vector</text>
</a>
</g>
</g>
<!-- Node16&#45;&gt;Node20 -->
<g id="edge28" class="edge">
<title>Node16&#45;&gt;Node20</title>
<path fill="none" stroke="midnightblue" d="M656.47,-190.41C679.12,-181.5 715.4,-167.08 746.5,-154 747.91,-153.41 749.34,-152.8 750.79,-152.18"/>
<polygon fill="midnightblue" stroke="midnightblue" points="752.57,-155.23 760.35,-148.04 749.78,-148.8 752.57,-155.23"/>
</g>
<!-- Node17&#45;&gt;Node6 -->
<g id="edge21" class="edge">
<title>Node17&#45;&gt;Node6</title>
<path fill="none" stroke="midnightblue" d="M915.5,-128.73C928.11,-119.53 948.37,-104.73 964.94,-92.63"/>
<polygon fill="midnightblue" stroke="midnightblue" points="967.2,-95.31 973.21,-86.59 963.07,-89.66 967.2,-95.31"/>
</g>
<!-- Node21&#45;&gt;Node6 -->
<g id="edge30" class="edge">
<title>Node21&#45;&gt;Node6</title>
<path fill="none" stroke="midnightblue" d="M1062.97,-123.4C1050.47,-114.37 1034.06,-102.51 1020.22,-92.52"/>
<polygon fill="midnightblue" stroke="midnightblue" points="1022.15,-89.59 1011.99,-86.58 1018.05,-95.27 1022.15,-89.59"/>
</g>
<!-- Node21&#45;&gt;Node7 -->
<g id="edge31" class="edge">
<title>Node21&#45;&gt;Node7</title>
<path fill="none" stroke="midnightblue" d="M1003.37,-124.33C1000.37,-123.88 997.41,-123.43 994.5,-123 867.62,-104.27 716.8,-85.63 646.8,-77.19"/>
<polygon fill="midnightblue" stroke="midnightblue" points="647.02,-73.69 636.67,-75.97 646.18,-80.64 647.02,-73.69"/>
</g>
<!-- Node22&#45;&gt;Node6 -->
<g id="edge33" class="edge">
<title>Node22&#45;&gt;Node6</title>
<path fill="none" stroke="midnightblue" d="M1186.62,-313.42C1196.28,-277.26 1216.26,-179.99 1170.5,-123 1158.5,-108.05 1118.98,-96.06 1080.22,-87.52"/>
<polygon fill="midnightblue" stroke="midnightblue" points="1080.91,-84.09 1070.4,-85.43 1079.45,-90.94 1080.91,-84.09"/>
</g>
<!-- Node23&#45;&gt;Node6 -->
<g id="edge35" class="edge">
<title>Node23&#45;&gt;Node6</title>
<path fill="none" stroke="midnightblue" d="M1298.23,-246.24C1285.03,-218 1251.62,-154.95 1203.5,-123 1167.12,-98.85 1120.42,-86.21 1080.21,-79.62"/>
<polygon fill="midnightblue" stroke="midnightblue" points="1080.55,-76.13 1070.14,-78.07 1079.49,-83.05 1080.55,-76.13"/>
</g>
<!-- Node25&#45;&gt;Node6 -->
<g id="edge38" class="edge">
<title>Node25&#45;&gt;Node6</title>
<path fill="none" stroke="midnightblue" d="M1436.49,-313.39C1429.91,-296.17 1417.07,-266.79 1399.5,-246 1340.7,-176.41 1318.54,-160.5 1235.5,-123 1186.56,-100.9 1127.67,-88.34 1080.13,-81.28"/>
<polygon fill="midnightblue" stroke="midnightblue" points="1080.56,-77.81 1070.16,-79.86 1079.57,-84.74 1080.56,-77.81"/>
</g>
</g>
</svg>
        <g id="navigator" transform="translate(0 0)" fill="#404254">
                <rect fill="#f2f5e9" fill-opacity="0.5" stroke="#606060" stroke-width=".5" x="0" y="0" width="60" height="60"/>
                <use id="zoomplus" xlink:href="#zoomPlus" x="17" y="9" onmousedown="handleZoom(evt,'in')"/>
                <use id="zoomminus" xlink:href="#zoomMin" x="42" y="9" onmousedown="handleZoom(evt,'out')"/>
                <use id="reset" xlink:href="#resetDef" x="30" y="36" onmousedown="handleReset()"/>
                <g id="arrowUp" xlink:href="#dirArrow" transform="translate(30 24)" onmousedown="handlePan(0,-1)">
                  <use xlink:href="#rim" fill="#404040">
                        <set attributeName="fill" to="#808080" begin="arrowUp.mouseover" end="arrowUp.mouseout"/>
                  </use>
                  <path fill="none" stroke="white" stroke-width="1.5" d="M0,-3.0v7 M-2.5,-0.5L0,-3.0L2.5,-0.5"/>
                </g>
                <g id="arrowRight" xlink:href="#dirArrow" transform="rotate(90) translate(36 -43)" onmousedown="handlePan(1,0)">
                  <use xlink:href="#rim" fill="#404040">
                        <set attributeName="fill" to="#808080" begin="arrowRight.mouseover" end="arrowRight.mouseout"/>
                  </use>
                  <path fill="none" stroke="white" stroke-width="1.5" d="M0,-3.0v7 M-2.5,-0.5L0,-3.0L2.5,-0.5"/>
                </g>
                <g id="arrowDown" xlink:href="#dirArrow" transform="rotate(180) translate(-30 -48)" onmousedown="handlePan(0,1)">
                  <use xlink:href="#rim" fill="#404040">
                        <set attributeName="fill" to="#808080" begin="arrowDown.mouseover" end="arrowDown.mouseout"/>
                  </use>
                  <path fill="none" stroke="white" stroke-width="1.5" d="M0,-3.0v7 M-2.5,-0.5L0,-3.0L2.5,-0.5"/>
                </g>
                <g id="arrowLeft" xlink:href="#dirArrow" transform="rotate(270) translate(-36 17)" onmousedown="handlePan(-1,0)">
                  <use xlink:href="#rim" fill="#404040">
                        <set attributeName="fill" to="#808080" begin="arrowLeft.mouseover" end="arrowLeft.mouseout"/>
                  </use>
                  <path fill="none" stroke="white" stroke-width="1.5" d="M0,-3.0v7 M-2.5,-0.5L0,-3.0L2.5,-0.5"/>
                </g>
        </g>
        <svg viewBox="0 0 15 15" width="100%" height="30px" preserveAspectRatio="xMaxYMin meet">
         <g id="arrow_out" transform="scale(0.3 0.3)">
          <a xlink:href="CaseStatement_8cpp__incl_org.svg" target="_base">
           <rect id="button" ry="5" rx="5" y="6" x="6" height="38" width="38"
                fill="#f2f5e9" fill-opacity="0.5" stroke="#606060" stroke-width="1.0"/>
           <path id="arrow"
             d="M 11.500037,31.436501 C 11.940474,20.09759 22.043105,11.32322 32.158766,21.979434 L 37.068811,17.246167 C 37.068811,17.246167 37.088388,32 37.088388,32 L 22.160133,31.978069 C 22.160133,31.978069 26.997745,27.140456 26.997745,27.140456 C 18.528582,18.264221 13.291696,25.230495 11.500037,31.436501 z"
             style="fill:#404040;"/>
          </a>
         </g>
        </svg>
</svg>
