<?xml version="1.0" encoding="UTF-8" standalone="no"?>
<!DOCTYPE svg PUBLIC "-//W3C//DTD SVG 1.1//EN"
 "http://www.w3.org/Graphics/SVG/1.1/DTD/svg11.dtd">
<!-- Generated by graphviz version 2.43.0 (0)
 -->
<!-- Title: Interval::operator+= Pages: 1 -->
<svg width="417pt" height="75pt"
 viewBox="0.00 0.00 417.00 75.00" xmlns="http://www.w3.org/2000/svg" xmlns:xlink="http://www.w3.org/1999/xlink">
<g id="graph0" class="graph" transform="scale(1 1) rotate(0) translate(4 71)">
<title>Interval::operator+=</title>
<polygon fill="white" stroke="transparent" points="-4,4 -4,-71 413,-71 413,4 -4,4"/>
<!-- Node1 -->
<g id="node1" class="node">
<title>Node1</title>
<g id="a_node1"><a xlink:title=" ">
<polygon fill="#bfbfbf" stroke="black" points="0,-28.5 0,-47.5 118,-47.5 118,-28.5 0,-28.5"/>
<text text-anchor="middle" x="59" y="-35.5" font-family="Helvetica,sans-Serif" font-size="10.00">Interval::operator+=</text>
</a>
</g>
</g>
<!-- Node2 -->
<g id="node2" class="node">
<title>Node2</title>
<g id="a_node2"><a xlink:href="classInterval.html#a317957c86c12ce2b01980d4d3003922f" target="_top" xlink:title=" ">
<polygon fill="white" stroke="black" points="154,-28.5 154,-47.5 285,-47.5 285,-28.5 154,-28.5"/>
<text text-anchor="middle" x="219.5" y="-35.5" font-family="Helvetica,sans-Serif" font-size="10.00">Interval::canMergeWith</text>
</a>
</g>
</g>
<!-- Node1&#45;&gt;Node2 -->
<g id="edge1" class="edge">
<title>Node1&#45;&gt;Node2</title>
<path fill="none" stroke="midnightblue" d="M118.12,-38C126.5,-38 135.22,-38 143.87,-38"/>
<polygon fill="midnightblue" stroke="midnightblue" points="143.97,-41.5 153.97,-38 143.97,-34.5 143.97,-41.5"/>
</g>
<!-- Node3 -->
<g id="node3" class="node">
<title>Node3</title>
<g id="a_node3"><a xlink:href="classInterval.html#a3786acb6e72600bc88cd4491a636cd91" target="_top" xlink:title=" ">
<polygon fill="white" stroke="black" points="321.5,-47.5 321.5,-66.5 408.5,-66.5 408.5,-47.5 321.5,-47.5"/>
<text text-anchor="middle" x="365" y="-54.5" font-family="Helvetica,sans-Serif" font-size="10.00">Interval::lower</text>
</a>
</g>
</g>
<!-- Node1&#45;&gt;Node3 -->
<g id="edge4" class="edge">
<title>Node1&#45;&gt;Node3</title>
<path fill="none" stroke="midnightblue" d="M98.15,-47.51C115.13,-51.27 135.45,-55.14 154,-57 207.29,-62.33 268.56,-61.54 311.11,-59.91"/>
<polygon fill="midnightblue" stroke="midnightblue" points="311.4,-63.4 321.24,-59.49 311.11,-56.4 311.4,-63.4"/>
</g>
<!-- Node4 -->
<g id="node4" class="node">
<title>Node4</title>
<g id="a_node4"><a xlink:href="classInterval.html#a0c4a2805d92653c0347f0e335e3c5904" target="_top" xlink:title=" ">
<polygon fill="white" stroke="black" points="321,-0.5 321,-19.5 409,-19.5 409,-0.5 321,-0.5"/>
<text text-anchor="middle" x="365" y="-7.5" font-family="Helvetica,sans-Serif" font-size="10.00">Interval::upper</text>
</a>
</g>
</g>
<!-- Node1&#45;&gt;Node4 -->
<g id="edge5" class="edge">
<title>Node1&#45;&gt;Node4</title>
<path fill="none" stroke="midnightblue" d="M100.03,-28.47C116.63,-24.89 136.15,-21.17 154,-19 207.04,-12.54 268.11,-10.53 310.67,-9.99"/>
<polygon fill="midnightblue" stroke="midnightblue" points="310.84,-13.48 320.8,-9.88 310.77,-6.49 310.84,-13.48"/>
</g>
<!-- Node2&#45;&gt;Node3 -->
<g id="edge2" class="edge">
<title>Node2&#45;&gt;Node3</title>
<path fill="none" stroke="midnightblue" d="M285.11,-46.56C293.79,-47.7 302.6,-48.87 311.04,-49.99"/>
<polygon fill="midnightblue" stroke="midnightblue" points="310.75,-53.48 321.12,-51.32 311.66,-46.54 310.75,-53.48"/>
</g>
<!-- Node2&#45;&gt;Node4 -->
<g id="edge3" class="edge">
<title>Node2&#45;&gt;Node4</title>
<path fill="none" stroke="midnightblue" d="M269.48,-28.44C282.81,-25.84 297.31,-23.01 310.86,-20.37"/>
<polygon fill="midnightblue" stroke="midnightblue" points="311.85,-23.74 321,-18.39 310.51,-16.87 311.85,-23.74"/>
</g>
</g>
</svg>
