<?xml version="1.0" encoding="UTF-8" standalone="no"?>
<!DOCTYPE svg PUBLIC "-//W3C//DTD SVG 1.1//EN"
 "http://www.w3.org/Graphics/SVG/1.1/DTD/svg11.dtd">
<!-- Generated by graphviz version 2.43.0 (0)
 -->
<!-- Title: ExpPrinter::print Pages: 1 -->
<svg width="481pt" height="28pt"
 viewBox="0.00 0.00 481.00 28.00" xmlns="http://www.w3.org/2000/svg" xmlns:xlink="http://www.w3.org/1999/xlink">
<g id="graph0" class="graph" transform="scale(1 1) rotate(0) translate(4 24)">
<title>ExpPrinter::print</title>
<polygon fill="white" stroke="transparent" points="-4,4 -4,-24 477,-24 477,4 -4,4"/>
<!-- Node1 -->
<g id="node1" class="node">
<title>Node1</title>
<g id="a_node1"><a xlink:title="print exp to os">
<polygon fill="#bfbfbf" stroke="black" points="0,-0.5 0,-19.5 95,-19.5 95,-0.5 0,-0.5"/>
<text text-anchor="middle" x="47.5" y="-7.5" font-family="Helvetica,sans-Serif" font-size="10.00">ExpPrinter::print</text>
</a>
</g>
</g>
<!-- Node2 -->
<g id="node2" class="node">
<title>Node2</title>
<g id="a_node2"><a xlink:href="classExpPrinter.html#a734d955c257757bb20048d6383850323" target="_top" xlink:title="print exp to os">
<polygon fill="white" stroke="black" points="131,-0.5 131,-19.5 250,-19.5 250,-0.5 131,-0.5"/>
<text text-anchor="middle" x="190.5" y="-7.5" font-family="Helvetica,sans-Serif" font-size="10.00">ExpPrinter::printPlain</text>
</a>
</g>
</g>
<!-- Node1&#45;&gt;Node2 -->
<g id="edge1" class="edge">
<title>Node1&#45;&gt;Node2</title>
<path fill="none" stroke="midnightblue" d="M95.06,-3.61C103.3,-3.35 112.04,-3.23 120.75,-3.25"/>
<polygon fill="midnightblue" stroke="midnightblue" points="120.89,-6.75 130.92,-3.34 120.95,0.25 120.89,-6.75"/>
</g>
<!-- Node2&#45;&gt;Node1 -->
<g id="edge3" class="edge">
<title>Node2&#45;&gt;Node1</title>
<path fill="none" stroke="midnightblue" d="M130.92,-16.66C122.42,-16.79 113.68,-16.78 105.21,-16.63"/>
<polygon fill="midnightblue" stroke="midnightblue" points="105.14,-13.13 95.06,-16.39 104.97,-20.13 105.14,-13.13"/>
</g>
<!-- Node3 -->
<g id="node3" class="node">
<title>Node3</title>
<g id="a_node3"><a xlink:href="classExpPrinter.html#a127fcfb148efbbc71e26e48689753b73" target="_top" xlink:title="Given an expression, and an immediate child expression, determine if the child expression needs to be...">
<polygon fill="white" stroke="black" points="286,-0.5 286,-19.5 473,-19.5 473,-0.5 286,-0.5"/>
<text text-anchor="middle" x="379.5" y="-7.5" font-family="Helvetica,sans-Serif" font-size="10.00">ExpPrinter::childNeedsParentheses</text>
</a>
</g>
</g>
<!-- Node2&#45;&gt;Node3 -->
<g id="edge2" class="edge">
<title>Node2&#45;&gt;Node3</title>
<path fill="none" stroke="midnightblue" d="M250.15,-10C258.32,-10 266.89,-10 275.57,-10"/>
<polygon fill="midnightblue" stroke="midnightblue" points="275.8,-13.5 285.8,-10 275.8,-6.5 275.8,-13.5"/>
</g>
</g>
</svg>
