<?xml version="1.0" encoding="UTF-8" standalone="no"?>
<!DOCTYPE svg PUBLIC "-//W3C//DTD SVG 1.1//EN"
 "http://www.w3.org/Graphics/SVG/1.1/DTD/svg11.dtd">
<!-- Generated by graphviz version 2.43.0 (0)
 -->
<!-- Title: CFGCompressor::compressCFG Pages: 1 -->
<svg width="406pt" height="78pt"
 viewBox="0.00 0.00 406.00 77.50" xmlns="http://www.w3.org/2000/svg" xmlns:xlink="http://www.w3.org/1999/xlink">
<g id="graph0" class="graph" transform="scale(1 1) rotate(0) translate(4 73.5)">
<title>CFGCompressor::compressCFG</title>
<polygon fill="white" stroke="transparent" points="-4,4 -4,-73.5 402,-73.5 402,4 -4,4"/>
<!-- Node1 -->
<g id="node1" class="node">
<title>Node1</title>
<g id="a_node1"><a xlink:title="Given a well&#45;formed ProcCFG, optimizations are performed on the graph to reduce the number of basic b...">
<polygon fill="#bfbfbf" stroke="black" points="0,-22.5 0,-41.5 169,-41.5 169,-22.5 0,-22.5"/>
<text text-anchor="middle" x="84.5" y="-29.5" font-family="Helvetica,sans-Serif" font-size="10.00">CFGCompressor::compressCFG</text>
</a>
</g>
</g>
<!-- Node2 -->
<g id="node2" class="node">
<title>Node2</title>
<g id="a_node2"><a xlink:href="classCFGCompressor.html#ab47e619e95a666b0c03eba279dcc7490" target="_top" xlink:title="Removes empty jumps and empty BBs.">
<polygon fill="white" stroke="black" points="216.5,-39 216.5,-69 386.5,-69 386.5,-39 216.5,-39"/>
<text text-anchor="start" x="224.5" y="-57" font-family="Helvetica,sans-Serif" font-size="10.00">CFGCompressor::removeEmpty</text>
<text text-anchor="middle" x="301.5" y="-46" font-family="Helvetica,sans-Serif" font-size="10.00">Jumps</text>
</a>
</g>
</g>
<!-- Node1&#45;&gt;Node2 -->
<g id="edge1" class="edge">
<title>Node1&#45;&gt;Node2</title>
<path fill="none" stroke="midnightblue" d="M169.24,-40.57C181.31,-41.8 193.79,-43.08 206.05,-44.34"/>
<polygon fill="midnightblue" stroke="midnightblue" points="205.98,-47.85 216.28,-45.38 206.69,-40.88 205.98,-47.85"/>
</g>
<!-- Node3 -->
<g id="node3" class="node">
<title>Node3</title>
<g id="a_node3"><a xlink:href="classCFGCompressor.html#abecebe7c26674121d6dea26434f39591" target="_top" xlink:title="Removes BBs that are not reachable from the entry BB.">
<polygon fill="white" stroke="black" points="205,-0.5 205,-19.5 398,-19.5 398,-0.5 205,-0.5"/>
<text text-anchor="middle" x="301.5" y="-7.5" font-family="Helvetica,sans-Serif" font-size="10.00">CFGCompressor::removeOrphanBBs</text>
</a>
</g>
</g>
<!-- Node1&#45;&gt;Node3 -->
<g id="edge2" class="edge">
<title>Node1&#45;&gt;Node3</title>
<path fill="none" stroke="midnightblue" d="M169.24,-23.43C178.42,-22.49 187.84,-21.53 197.22,-20.57"/>
<polygon fill="midnightblue" stroke="midnightblue" points="197.77,-24.03 207.37,-19.53 197.06,-17.07 197.77,-24.03"/>
</g>
</g>
</svg>
