<?xml version="1.0" encoding="UTF-8" standalone="no"?>
<!DOCTYPE svg PUBLIC "-//W3C//DTD SVG 1.1//EN"
 "http://www.w3.org/Graphics/SVG/1.1/DTD/svg11.dtd">
<!-- Generated by graphviz version 2.43.0 (0)
 -->
<!-- Title: ExpSet::operator== Pages: 1 -->
<svg width="241pt" height="104pt"
 viewBox="0.00 0.00 241.00 104.00" xmlns="http://www.w3.org/2000/svg" xmlns:xlink="http://www.w3.org/1999/xlink">
<g id="graph0" class="graph" transform="scale(1 1) rotate(0) translate(4 100)">
<title>ExpSet::operator==</title>
<polygon fill="white" stroke="transparent" points="-4,4 -4,-100 237,-100 237,4 -4,4"/>
<!-- Node1 -->
<g id="node1" class="node">
<title>Node1</title>
<g id="a_node1"><a xlink:title=" ">
<polygon fill="#bfbfbf" stroke="black" points="0,-38.5 0,-57.5 114,-57.5 114,-38.5 0,-38.5"/>
<text text-anchor="middle" x="57" y="-45.5" font-family="Helvetica,sans-Serif" font-size="10.00">ExpSet::operator==</text>
</a>
</g>
</g>
<!-- Node2 -->
<g id="node2" class="node">
<title>Node2</title>
<g id="a_node2"><a xlink:href="classExpSet.html#a14f4c62991a88e832f9bc41c4d1daf09" target="_top" xlink:title=" ">
<polygon fill="white" stroke="black" points="150,-76.5 150,-95.5 233,-95.5 233,-76.5 150,-76.5"/>
<text text-anchor="middle" x="191.5" y="-83.5" font-family="Helvetica,sans-Serif" font-size="10.00">ExpSet::begin</text>
</a>
</g>
</g>
<!-- Node1&#45;&gt;Node2 -->
<g id="edge1" class="edge">
<title>Node1&#45;&gt;Node2</title>
<path fill="none" stroke="midnightblue" d="M91.44,-57.59C108.38,-62.45 129.16,-68.41 147.31,-73.61"/>
<polygon fill="midnightblue" stroke="midnightblue" points="146.5,-77.02 157.08,-76.41 148.43,-70.29 146.5,-77.02"/>
</g>
<!-- Node3 -->
<g id="node3" class="node">
<title>Node3</title>
<g id="a_node3"><a xlink:href="classExpSet.html#a4fce8858c6ade057ca222d51b5d94d56" target="_top" xlink:title=" ">
<polygon fill="white" stroke="black" points="154.5,-38.5 154.5,-57.5 228.5,-57.5 228.5,-38.5 154.5,-38.5"/>
<text text-anchor="middle" x="191.5" y="-45.5" font-family="Helvetica,sans-Serif" font-size="10.00">ExpSet::end</text>
</a>
</g>
</g>
<!-- Node1&#45;&gt;Node3 -->
<g id="edge2" class="edge">
<title>Node1&#45;&gt;Node3</title>
<path fill="none" stroke="midnightblue" d="M114.19,-48C124.14,-48 134.39,-48 144.03,-48"/>
<polygon fill="midnightblue" stroke="midnightblue" points="144.21,-51.5 154.21,-48 144.21,-44.5 144.21,-51.5"/>
</g>
<!-- Node4 -->
<g id="node4" class="node">
<title>Node4</title>
<g id="a_node4"><a xlink:href="classExpSet.html#a7048f4602a53e9858b36a238bf210edc" target="_top" xlink:title=" ">
<polygon fill="white" stroke="black" points="153.5,-0.5 153.5,-19.5 229.5,-19.5 229.5,-0.5 153.5,-0.5"/>
<text text-anchor="middle" x="191.5" y="-7.5" font-family="Helvetica,sans-Serif" font-size="10.00">ExpSet::size</text>
</a>
</g>
</g>
<!-- Node1&#45;&gt;Node4 -->
<g id="edge3" class="edge">
<title>Node1&#45;&gt;Node4</title>
<path fill="none" stroke="midnightblue" d="M91.44,-38.41C108.38,-33.55 129.16,-27.59 147.31,-22.39"/>
<polygon fill="midnightblue" stroke="midnightblue" points="148.43,-25.71 157.08,-19.59 146.5,-18.98 148.43,-25.71"/>
</g>
</g>
</svg>
