<?xml version="1.0" encoding="UTF-8" standalone="no"?>
<!DOCTYPE svg PUBLIC "-//W3C//DTD SVG 1.1//EN"
 "http://www.w3.org/Graphics/SVG/1.1/DTD/svg11.dtd">
<!-- Generated by graphviz version 2.43.0 (0)
 -->
<!-- Title: DFATypeAnalyzer::visit Pages: 1 -->
<svg width="707pt" height="28pt"
 viewBox="0.00 0.00 707.00 28.00" xmlns="http://www.w3.org/2000/svg" xmlns:xlink="http://www.w3.org/1999/xlink">
<g id="graph0" class="graph" transform="scale(1 1) rotate(0) translate(4 24)">
<title>DFATypeAnalyzer::visit</title>
<polygon fill="white" stroke="transparent" points="-4,4 -4,-24 703,-24 703,4 -4,4"/>
<!-- Node1 -->
<g id="node1" class="node">
<title>Node1</title>
<g id="a_node1"><a xlink:title=" ">
<polygon fill="#bfbfbf" stroke="black" points="0,-0.5 0,-19.5 128,-19.5 128,-0.5 0,-0.5"/>
<text text-anchor="middle" x="64" y="-7.5" font-family="Helvetica,sans-Serif" font-size="10.00">DFATypeAnalyzer::visit</text>
</a>
</g>
</g>
<!-- Node2 -->
<g id="node2" class="node">
<title>Node2</title>
<g id="a_node2"><a xlink:href="classDFATypeAnalyzer.html#ad1e9c2875763e44d64adcdc94efc5552" target="_top" xlink:title=" ">
<polygon fill="white" stroke="black" points="164,-0.5 164,-19.5 292,-19.5 292,-0.5 164,-0.5"/>
<text text-anchor="middle" x="228" y="-7.5" font-family="Helvetica,sans-Serif" font-size="10.00">DFATypeAnalyzer::visit</text>
</a>
</g>
</g>
<!-- Node1&#45;&gt;Node2 -->
<g id="edge1" class="edge">
<title>Node1&#45;&gt;Node2</title>
<path fill="none" stroke="midnightblue" d="M128.1,-10C136.43,-10 145.04,-10 153.53,-10"/>
<polygon fill="midnightblue" stroke="midnightblue" points="153.81,-13.5 163.81,-10 153.81,-6.5 153.81,-13.5"/>
</g>
<!-- Node3 -->
<g id="node3" class="node">
<title>Node3</title>
<g id="a_node3"><a xlink:href="classDFATypeAnalyzer.html#a25fa9a6acb419e8d9d278c38a8470dcf" target="_top" xlink:title="Code common to DFA type recovery of assignments.">
<polygon fill="white" stroke="black" points="328,-0.5 328,-19.5 513,-19.5 513,-0.5 328,-0.5"/>
<text text-anchor="middle" x="420.5" y="-7.5" font-family="Helvetica,sans-Serif" font-size="10.00">DFATypeAnalyzer::visitAssignment</text>
</a>
</g>
</g>
<!-- Node2&#45;&gt;Node3 -->
<g id="edge2" class="edge">
<title>Node2&#45;&gt;Node3</title>
<path fill="none" stroke="midnightblue" d="M292.17,-10C300.42,-10 309.04,-10 317.72,-10"/>
<polygon fill="midnightblue" stroke="midnightblue" points="317.94,-13.5 327.94,-10 317.94,-6.5 317.94,-13.5"/>
</g>
<!-- Node4 -->
<g id="node4" class="node">
<title>Node4</title>
<g id="a_node4"><a xlink:href="namespaceUtil.html#a5d611b6241a4e63890026a9fea549312" target="_top" xlink:title=" ">
<polygon fill="white" stroke="black" points="549,-0.5 549,-19.5 699,-19.5 699,-0.5 549,-0.5"/>
<text text-anchor="middle" x="624" y="-7.5" font-family="Helvetica,sans-Serif" font-size="10.00">Util::getStackRegisterIndex</text>
</a>
</g>
</g>
<!-- Node3&#45;&gt;Node4 -->
<g id="edge3" class="edge">
<title>Node3&#45;&gt;Node4</title>
<path fill="none" stroke="midnightblue" d="M513.11,-10C521.61,-10 530.2,-10 538.63,-10"/>
<polygon fill="midnightblue" stroke="midnightblue" points="538.82,-13.5 548.82,-10 538.82,-6.5 538.82,-13.5"/>
</g>
</g>
</svg>
