<?xml version="1.0" encoding="UTF-8" standalone="no"?>
<!DOCTYPE svg PUBLIC "-//W3C//DTD SVG 1.1//EN"
 "http://www.w3.org/Graphics/SVG/1.1/DTD/svg11.dtd">
<!-- Generated by graphviz version 2.43.0 (0)
 -->
<!-- Title: ControlFlowAnalyzer::structConds Pages: 1 -->
<!--zoomable 421 -->
<svg id="main" version="1.1" xmlns="http://www.w3.org/2000/svg" xmlns:xlink="http://www.w3.org/1999/xlink" xml:space="preserve" onload="init(evt)">
<style type="text/css"><![CDATA[
.edge:hover path { stroke: red; }
.edge:hover polygon { stroke: red; fill: red; }
]]></style>
<script type="text/javascript"><![CDATA[
var edges = document.getElementsByTagName('g');
if (edges && edges.length) {
  for (var i=0;i<edges.length;i++) {
    if (edges[i].id.substr(0,4)=='edge') {
      edges[i].setAttribute('class','edge');
    }
  }
}
]]></script>
        <defs>
                <circle id="rim" cx="0" cy="0" r="7"/>
                <circle id="rim2" cx="0" cy="0" r="3.5"/>
                <g id="zoomPlus">
                        <use xlink:href="#rim" fill="#404040">
                                <set attributeName="fill" to="#808080" begin="zoomplus.mouseover" end="zoomplus.mouseout"/>
                        </use>
                        <path d="M-4,0h8M0,-4v8" fill="none" stroke="white" stroke-width="1.5" pointer-events="none"/>
                </g>
                <g id="zoomMin">
                        <use xlink:href="#rim" fill="#404040">
                                <set attributeName="fill" to="#808080" begin="zoomminus.mouseover" end="zoomminus.mouseout"/>
                        </use>
                        <path d="M-4,0h8" fill="none" stroke="white" stroke-width="1.5" pointer-events="none"/>
                </g>
                <g id="dirArrow">
                        <path fill="none" stroke="white" stroke-width="1.5" d="M0,-3.0v7 M-2.5,-0.5L0,-3.0L2.5,-0.5"/>
                </g>
               <g id="resetDef">
                       <use xlink:href="#rim2" fill="#404040">
                               <set attributeName="fill" to="#808080" begin="reset.mouseover" end="reset.mouseout"/>
                       </use>
               </g>
        </defs>

<script type="text/javascript">
var viewWidth = 588;
var viewHeight = 421;
var sectionId = 'dynsection-15';
</script>
<script xlink:href="svgpan.js"/>
<svg id="graph" class="graph">
<g id="viewport">
<title>ControlFlowAnalyzer::structConds</title>
<polygon fill="white" stroke="transparent" points="-4,4 -4,-417 584,-417 584,4 -4,4"/>
<!-- Node1 -->
<g id="node1" class="node">
<title>Node1</title>
<g id="a_node1"><a xlink:title="Structures all conditional headers (i.e. nodes with more than one outedge)">
<polygon fill="#bfbfbf" stroke="black" points="0,-235.5 0,-265.5 118,-265.5 118,-235.5 0,-235.5"/>
<text text-anchor="start" x="8" y="-253.5" font-family="Helvetica,sans-Serif" font-size="10.00">ControlFlowAnalyzer</text>
<text text-anchor="middle" x="59" y="-242.5" font-family="Helvetica,sans-Serif" font-size="10.00">::structConds</text>
</a>
</g>
</g>
<!-- Node2 -->
<g id="node2" class="node">
<title>Node2</title>
<g id="a_node2"><a xlink:href="classControlFlowAnalyzer.html#a9a91184f0a06b9970a229179e4bed433" target="_top" xlink:title=" ">
<polygon fill="white" stroke="black" points="308,-196.5 308,-226.5 426,-226.5 426,-196.5 308,-196.5"/>
<text text-anchor="start" x="316" y="-214.5" font-family="Helvetica,sans-Serif" font-size="10.00">ControlFlowAnalyzer</text>
<text text-anchor="middle" x="367" y="-203.5" font-family="Helvetica,sans-Serif" font-size="10.00">::getCondFollow</text>
</a>
</g>
</g>
<!-- Node1&#45;&gt;Node2 -->
<g id="edge1" class="edge">
<title>Node1&#45;&gt;Node2</title>
<path fill="none" stroke="midnightblue" d="M109.37,-235.45C123.65,-231.62 139.34,-227.91 154,-225.5 201.58,-217.68 255.85,-214.19 297.56,-212.66"/>
<polygon fill="midnightblue" stroke="midnightblue" points="297.74,-216.15 307.62,-212.32 297.5,-209.16 297.74,-216.15"/>
</g>
<!-- Node3 -->
<g id="node3" class="node">
<title>Node3</title>
<g id="a_node3"><a xlink:href="classControlFlowAnalyzer.html#a532fd13049d2e9305ec038fa9c2398f6" target="_top" xlink:title=" ">
<polygon fill="white" stroke="black" points="154,-382.5 154,-412.5 272,-412.5 272,-382.5 154,-382.5"/>
<text text-anchor="start" x="162" y="-400.5" font-family="Helvetica,sans-Serif" font-size="10.00">ControlFlowAnalyzer</text>
<text text-anchor="middle" x="213" y="-389.5" font-family="Helvetica,sans-Serif" font-size="10.00">::getCondType</text>
</a>
</g>
</g>
<!-- Node1&#45;&gt;Node3 -->
<g id="edge2" class="edge">
<title>Node1&#45;&gt;Node3</title>
<path fill="none" stroke="midnightblue" d="M68.12,-265.82C82.36,-291.36 114.15,-342.87 154,-373.5 155.79,-374.88 157.67,-376.19 159.61,-377.43"/>
<polygon fill="midnightblue" stroke="midnightblue" points="158.05,-380.57 168.47,-382.49 161.52,-374.49 158.05,-380.57"/>
</g>
<!-- Node5 -->
<g id="node5" class="node">
<title>Node5</title>
<g id="a_node5"><a xlink:href="classControlFlowAnalyzer.html#a96d26b722b3edba2dc439bf94880f364" target="_top" xlink:title=" ">
<polygon fill="white" stroke="black" points="154,-284.5 154,-314.5 272,-314.5 272,-284.5 154,-284.5"/>
<text text-anchor="start" x="162" y="-302.5" font-family="Helvetica,sans-Serif" font-size="10.00">ControlFlowAnalyzer</text>
<text text-anchor="middle" x="213" y="-291.5" font-family="Helvetica,sans-Serif" font-size="10.00">::getImmPDom</text>
</a>
</g>
</g>
<!-- Node1&#45;&gt;Node5 -->
<g id="edge4" class="edge">
<title>Node1&#45;&gt;Node5</title>
<path fill="none" stroke="midnightblue" d="M106.85,-265.6C122.23,-270.56 139.5,-276.13 155.52,-281.29"/>
<polygon fill="midnightblue" stroke="midnightblue" points="154.72,-284.71 165.31,-284.45 156.87,-278.05 154.72,-284.71"/>
</g>
<!-- Node6 -->
<g id="node6" class="node">
<title>Node6</title>
<g id="a_node6"><a xlink:href="classControlFlowAnalyzer.html#a9fe4f4d27b0e5046f01c6f71c454d2ae" target="_top" xlink:title="establish if this bb has any back edges leading FROM it">
<polygon fill="white" stroke="black" points="154,-235.5 154,-265.5 272,-265.5 272,-235.5 154,-235.5"/>
<text text-anchor="start" x="162" y="-253.5" font-family="Helvetica,sans-Serif" font-size="10.00">ControlFlowAnalyzer</text>
<text text-anchor="middle" x="213" y="-242.5" font-family="Helvetica,sans-Serif" font-size="10.00">::hasBackEdge</text>
</a>
</g>
</g>
<!-- Node1&#45;&gt;Node6 -->
<g id="edge5" class="edge">
<title>Node1&#45;&gt;Node6</title>
<path fill="none" stroke="midnightblue" d="M118.33,-250.5C126.61,-250.5 135.17,-250.5 143.62,-250.5"/>
<polygon fill="midnightblue" stroke="midnightblue" points="143.82,-254 153.82,-250.5 143.82,-247 143.82,-254"/>
</g>
<!-- Node7 -->
<g id="node7" class="node">
<title>Node7</title>
<g id="a_node7"><a xlink:href="classControlFlowAnalyzer.html#aaebeb1ba205ecccb006dc3ad3ebb66b6" target="_top" xlink:title=" ">
<polygon fill="white" stroke="black" points="154,-98.5 154,-128.5 272,-128.5 272,-98.5 154,-98.5"/>
<text text-anchor="start" x="162" y="-116.5" font-family="Helvetica,sans-Serif" font-size="10.00">ControlFlowAnalyzer</text>
<text text-anchor="middle" x="213" y="-105.5" font-family="Helvetica,sans-Serif" font-size="10.00">::setCaseHead</text>
</a>
</g>
</g>
<!-- Node1&#45;&gt;Node7 -->
<g id="edge6" class="edge">
<title>Node1&#45;&gt;Node7</title>
<path fill="none" stroke="midnightblue" d="M69.15,-235.32C84.17,-211.53 116.19,-165.34 154,-137.5 155.85,-136.14 157.8,-134.83 159.8,-133.59"/>
<polygon fill="midnightblue" stroke="midnightblue" points="161.86,-136.45 168.9,-128.53 158.46,-130.33 161.86,-136.45"/>
</g>
<!-- Node13 -->
<g id="node13" class="node">
<title>Node13</title>
<g id="a_node13"><a xlink:href="classControlFlowAnalyzer.html#a51378dfbc2d4c5545f47f07c3bb3e5a8" target="_top" xlink:title=" ">
<polygon fill="white" stroke="black" points="154,-147.5 154,-177.5 272,-177.5 272,-147.5 154,-147.5"/>
<text text-anchor="start" x="162" y="-165.5" font-family="Helvetica,sans-Serif" font-size="10.00">ControlFlowAnalyzer</text>
<text text-anchor="middle" x="213" y="-154.5" font-family="Helvetica,sans-Serif" font-size="10.00">::setCondFollow</text>
</a>
</g>
</g>
<!-- Node1&#45;&gt;Node13 -->
<g id="edge13" class="edge">
<title>Node1&#45;&gt;Node13</title>
<path fill="none" stroke="midnightblue" d="M83.27,-235.46C102.12,-223.45 129.47,-206.39 154,-192.5 159.97,-189.12 166.35,-185.67 172.62,-182.36"/>
<polygon fill="midnightblue" stroke="midnightblue" points="174.42,-185.37 181.67,-177.64 171.18,-179.16 174.42,-185.37"/>
</g>
<!-- Node14 -->
<g id="node14" class="node">
<title>Node14</title>
<g id="a_node14"><a xlink:href="classControlFlowAnalyzer.html#a3c071bacab7378fc72a7e9ea4ff93615" target="_top" xlink:title=" ">
<polygon fill="white" stroke="black" points="154,-333.5 154,-363.5 272,-363.5 272,-333.5 154,-333.5"/>
<text text-anchor="start" x="162" y="-351.5" font-family="Helvetica,sans-Serif" font-size="10.00">ControlFlowAnalyzer</text>
<text text-anchor="middle" x="213" y="-340.5" font-family="Helvetica,sans-Serif" font-size="10.00">::setStructType</text>
</a>
</g>
</g>
<!-- Node1&#45;&gt;Node14 -->
<g id="edge14" class="edge">
<title>Node1&#45;&gt;Node14</title>
<path fill="none" stroke="midnightblue" d="M76.72,-265.62C94.82,-281.46 125,-306.37 154,-323.5 157.21,-325.4 160.59,-327.23 164.04,-328.98"/>
<polygon fill="midnightblue" stroke="midnightblue" points="162.73,-332.24 173.26,-333.43 165.77,-325.93 162.73,-332.24"/>
</g>
<!-- Node4 -->
<g id="node4" class="node">
<title>Node4</title>
<g id="a_node4"><a xlink:href="classControlFlowAnalyzer.html#ae11edf3f264f0d33252186f3bad37214" target="_top" xlink:title=" ">
<polygon fill="white" stroke="black" points="308,-382.5 308,-412.5 426,-412.5 426,-382.5 308,-382.5"/>
<text text-anchor="start" x="316" y="-400.5" font-family="Helvetica,sans-Serif" font-size="10.00">ControlFlowAnalyzer</text>
<text text-anchor="middle" x="367" y="-389.5" font-family="Helvetica,sans-Serif" font-size="10.00">::getStructType</text>
</a>
</g>
</g>
<!-- Node3&#45;&gt;Node4 -->
<g id="edge3" class="edge">
<title>Node3&#45;&gt;Node4</title>
<path fill="none" stroke="midnightblue" d="M272.33,-397.5C280.61,-397.5 289.17,-397.5 297.62,-397.5"/>
<polygon fill="midnightblue" stroke="midnightblue" points="297.82,-401 307.82,-397.5 297.82,-394 297.82,-401"/>
</g>
<!-- Node7&#45;&gt;Node2 -->
<g id="edge8" class="edge">
<title>Node7&#45;&gt;Node2</title>
<path fill="none" stroke="midnightblue" d="M257.9,-128.58C262.89,-131.18 267.71,-134.14 272,-137.5 293.27,-154.17 286.85,-169.68 308,-186.5 310.06,-188.14 312.25,-189.7 314.53,-191.17"/>
<polygon fill="midnightblue" stroke="midnightblue" points="313.2,-194.44 323.61,-196.41 316.7,-188.38 313.2,-194.44"/>
</g>
<!-- Node8 -->
<g id="node8" class="node">
<title>Node8</title>
<g id="a_node8"><a xlink:href="classControlFlowAnalyzer.html#aad375c721693b3565ca614fee65d2c38" target="_top" xlink:title=" ">
<polygon fill="white" stroke="black" points="308,-98.5 308,-128.5 426,-128.5 426,-98.5 308,-98.5"/>
<text text-anchor="start" x="316" y="-116.5" font-family="Helvetica,sans-Serif" font-size="10.00">ControlFlowAnalyzer</text>
<text text-anchor="middle" x="367" y="-105.5" font-family="Helvetica,sans-Serif" font-size="10.00">::getCaseHead</text>
</a>
</g>
</g>
<!-- Node7&#45;&gt;Node8 -->
<g id="edge7" class="edge">
<title>Node7&#45;&gt;Node8</title>
<path fill="none" stroke="midnightblue" d="M272.33,-113.5C280.61,-113.5 289.17,-113.5 297.62,-113.5"/>
<polygon fill="midnightblue" stroke="midnightblue" points="297.82,-117 307.82,-113.5 297.82,-110 297.82,-117"/>
</g>
<!-- Node9 -->
<g id="node9" class="node">
<title>Node9</title>
<g id="a_node9"><a xlink:href="classControlFlowAnalyzer.html#adfab7ad443d9393de78f874c0c1f92e2" target="_top" xlink:title=" ">
<polygon fill="white" stroke="black" points="308,-49.5 308,-79.5 426,-79.5 426,-49.5 308,-49.5"/>
<text text-anchor="start" x="316" y="-67.5" font-family="Helvetica,sans-Serif" font-size="10.00">ControlFlowAnalyzer</text>
<text text-anchor="middle" x="367" y="-56.5" font-family="Helvetica,sans-Serif" font-size="10.00">::getTravType</text>
</a>
</g>
</g>
<!-- Node7&#45;&gt;Node9 -->
<g id="edge9" class="edge">
<title>Node7&#45;&gt;Node9</title>
<path fill="none" stroke="midnightblue" d="M260.85,-98.4C276.23,-93.44 293.5,-87.87 309.52,-82.71"/>
<polygon fill="midnightblue" stroke="midnightblue" points="310.87,-85.95 319.31,-79.55 308.72,-79.29 310.87,-85.95"/>
</g>
<!-- Node10 -->
<g id="node10" class="node">
<title>Node10</title>
<g id="a_node10"><a xlink:href="classControlFlowAnalyzer.html#aab04fac3f3e65aa0ee98eadf2dd109bf" target="_top" xlink:title="establish if source has a back edge to dest">
<polygon fill="white" stroke="black" points="308,-0.5 308,-30.5 426,-30.5 426,-0.5 308,-0.5"/>
<text text-anchor="start" x="316" y="-18.5" font-family="Helvetica,sans-Serif" font-size="10.00">ControlFlowAnalyzer</text>
<text text-anchor="middle" x="367" y="-7.5" font-family="Helvetica,sans-Serif" font-size="10.00">::isBackEdge</text>
</a>
</g>
</g>
<!-- Node7&#45;&gt;Node10 -->
<g id="edge10" class="edge">
<title>Node7&#45;&gt;Node10</title>
<path fill="none" stroke="midnightblue" d="M230.31,-98.37C248.29,-82.24 278.6,-56.71 308,-39.5 310.64,-37.95 313.4,-36.46 316.22,-35.02"/>
<polygon fill="midnightblue" stroke="midnightblue" points="317.87,-38.11 325.37,-30.63 314.84,-31.8 317.87,-38.11"/>
</g>
<!-- Node12 -->
<g id="node12" class="node">
<title>Node12</title>
<g id="a_node12"><a xlink:href="classControlFlowAnalyzer.html#ab3980fcd8dc3ba50859a21431cc4506f" target="_top" xlink:title=" ">
<polygon fill="white" stroke="black" points="308,-147.5 308,-177.5 426,-177.5 426,-147.5 308,-147.5"/>
<text text-anchor="start" x="316" y="-165.5" font-family="Helvetica,sans-Serif" font-size="10.00">ControlFlowAnalyzer</text>
<text text-anchor="middle" x="367" y="-154.5" font-family="Helvetica,sans-Serif" font-size="10.00">::setTravType</text>
</a>
</g>
</g>
<!-- Node7&#45;&gt;Node12 -->
<g id="edge12" class="edge">
<title>Node7&#45;&gt;Node12</title>
<path fill="none" stroke="midnightblue" d="M260.85,-128.6C276.23,-133.56 293.5,-139.13 309.52,-144.29"/>
<polygon fill="midnightblue" stroke="midnightblue" points="308.72,-147.71 319.31,-147.45 310.87,-141.05 308.72,-147.71"/>
</g>
<!-- Node11 -->
<g id="node11" class="node">
<title>Node11</title>
<g id="a_node11"><a xlink:href="classControlFlowAnalyzer.html#a42173fd86d56369d9a460bb942af3ccb" target="_top" xlink:title=" ">
<polygon fill="white" stroke="black" points="462,-0.5 462,-30.5 580,-30.5 580,-0.5 462,-0.5"/>
<text text-anchor="start" x="470" y="-18.5" font-family="Helvetica,sans-Serif" font-size="10.00">ControlFlowAnalyzer</text>
<text text-anchor="middle" x="521" y="-7.5" font-family="Helvetica,sans-Serif" font-size="10.00">::isAncestorOf</text>
</a>
</g>
</g>
<!-- Node10&#45;&gt;Node11 -->
<g id="edge11" class="edge">
<title>Node10&#45;&gt;Node11</title>
<path fill="none" stroke="midnightblue" d="M426.33,-15.5C434.61,-15.5 443.17,-15.5 451.62,-15.5"/>
<polygon fill="midnightblue" stroke="midnightblue" points="451.82,-19 461.82,-15.5 451.82,-12 451.82,-19"/>
</g>
<!-- Node14&#45;&gt;Node2 -->
<g id="edge15" class="edge">
<title>Node14&#45;&gt;Node2</title>
<path fill="none" stroke="midnightblue" d="M255.56,-333.43C261.33,-330.54 266.99,-327.23 272,-323.5 305.19,-298.8 334.22,-260.15 350.93,-235.33"/>
<polygon fill="midnightblue" stroke="midnightblue" points="353.94,-237.14 356.52,-226.86 348.09,-233.28 353.94,-237.14"/>
</g>
</g>
</svg>
        <g id="navigator" transform="translate(0 0)" fill="#404254">
                <rect fill="#f2f5e9" fill-opacity="0.5" stroke="#606060" stroke-width=".5" x="0" y="0" width="60" height="60"/>
                <use id="zoomplus" xlink:href="#zoomPlus" x="17" y="9" onmousedown="handleZoom(evt,'in')"/>
                <use id="zoomminus" xlink:href="#zoomMin" x="42" y="9" onmousedown="handleZoom(evt,'out')"/>
                <use id="reset" xlink:href="#resetDef" x="30" y="36" onmousedown="handleReset()"/>
                <g id="arrowUp" xlink:href="#dirArrow" transform="translate(30 24)" onmousedown="handlePan(0,-1)">
                  <use xlink:href="#rim" fill="#404040">
                        <set attributeName="fill" to="#808080" begin="arrowUp.mouseover" end="arrowUp.mouseout"/>
                  </use>
                  <path fill="none" stroke="white" stroke-width="1.5" d="M0,-3.0v7 M-2.5,-0.5L0,-3.0L2.5,-0.5"/>
                </g>
                <g id="arrowRight" xlink:href="#dirArrow" transform="rotate(90) translate(36 -43)" onmousedown="handlePan(1,0)">
                  <use xlink:href="#rim" fill="#404040">
                        <set attributeName="fill" to="#808080" begin="arrowRight.mouseover" end="arrowRight.mouseout"/>
                  </use>
                  <path fill="none" stroke="white" stroke-width="1.5" d="M0,-3.0v7 M-2.5,-0.5L0,-3.0L2.5,-0.5"/>
                </g>
                <g id="arrowDown" xlink:href="#dirArrow" transform="rotate(180) translate(-30 -48)" onmousedown="handlePan(0,1)">
                  <use xlink:href="#rim" fill="#404040">
                        <set attributeName="fill" to="#808080" begin="arrowDown.mouseover" end="arrowDown.mouseout"/>
                  </use>
                  <path fill="none" stroke="white" stroke-width="1.5" d="M0,-3.0v7 M-2.5,-0.5L0,-3.0L2.5,-0.5"/>
                </g>
                <g id="arrowLeft" xlink:href="#dirArrow" transform="rotate(270) translate(-36 17)" onmousedown="handlePan(-1,0)">
                  <use xlink:href="#rim" fill="#404040">
                        <set attributeName="fill" to="#808080" begin="arrowLeft.mouseover" end="arrowLeft.mouseout"/>
                  </use>
                  <path fill="none" stroke="white" stroke-width="1.5" d="M0,-3.0v7 M-2.5,-0.5L0,-3.0L2.5,-0.5"/>
                </g>
        </g>
        <svg viewBox="0 0 15 15" width="100%" height="30px" preserveAspectRatio="xMaxYMin meet">
         <g id="arrow_out" transform="scale(0.3 0.3)">
          <a xlink:href="classControlFlowAnalyzer_a7b426b6a02775b18ea4ed0ff1a1ab588_cgraph_org.svg" target="_base">
           <rect id="button" ry="5" rx="5" y="6" x="6" height="38" width="38"
                fill="#f2f5e9" fill-opacity="0.5" stroke="#606060" stroke-width="1.0"/>
           <path id="arrow"
             d="M 11.500037,31.436501 C 11.940474,20.09759 22.043105,11.32322 32.158766,21.979434 L 37.068811,17.246167 C 37.068811,17.246167 37.088388,32 37.088388,32 L 22.160133,31.978069 C 22.160133,31.978069 26.997745,27.140456 26.997745,27.140456 C 18.528582,18.264221 13.291696,25.230495 11.500037,31.436501 z"
             style="fill:#404040;"/>
          </a>
         </g>
        </svg>
</svg>
