<?xml version="1.0" encoding="UTF-8" standalone="no"?>
<!DOCTYPE svg PUBLIC "-//W3C//DTD SVG 1.1//EN"
 "http://www.w3.org/Graphics/SVG/1.1/DTD/svg11.dtd">
<!-- Generated by graphviz version 2.43.0 (0)
 -->
<!-- Title: MainWindow::on_tblUserProcs_cellDoubleClicked Pages: 1 -->
<svg width="733pt" height="39pt"
 viewBox="0.00 0.00 733.00 39.00" xmlns="http://www.w3.org/2000/svg" xmlns:xlink="http://www.w3.org/1999/xlink">
<g id="graph0" class="graph" transform="scale(1 1) rotate(0) translate(4 35)">
<title>MainWindow::on_tblUserProcs_cellDoubleClicked</title>
<polygon fill="white" stroke="transparent" points="-4,4 -4,-35 729,-35 729,4 -4,4"/>
<!-- Node1 -->
<g id="node1" class="node">
<title>Node1</title>
<g id="a_node1"><a xlink:title=" ">
<polygon fill="#bfbfbf" stroke="black" points="0,-0.5 0,-30.5 164,-30.5 164,-0.5 0,-0.5"/>
<text text-anchor="start" x="8" y="-18.5" font-family="Helvetica,sans-Serif" font-size="10.00">MainWindow::on_tblUserProcs</text>
<text text-anchor="middle" x="82" y="-7.5" font-family="Helvetica,sans-Serif" font-size="10.00">_cellDoubleClicked</text>
</a>
</g>
</g>
<!-- Node2 -->
<g id="node2" class="node">
<title>Node2</title>
<g id="a_node2"><a xlink:href="classMainWindow.html#abe7ab7352fd7f1eb4fc8fb2b6c29494c" target="_top" xlink:title=" ">
<polygon fill="white" stroke="black" points="200,-6 200,-25 358,-25 358,-6 200,-6"/>
<text text-anchor="middle" x="279" y="-13" font-family="Helvetica,sans-Serif" font-size="10.00">MainWindow::showRTLEditor</text>
</a>
</g>
</g>
<!-- Node1&#45;&gt;Node2 -->
<g id="edge1" class="edge">
<title>Node1&#45;&gt;Node2</title>
<path fill="none" stroke="midnightblue" d="M164,-15.5C172.5,-15.5 181.17,-15.5 189.75,-15.5"/>
<polygon fill="midnightblue" stroke="midnightblue" points="189.75,-19 199.75,-15.5 189.75,-12 189.75,-19"/>
</g>
<!-- Node3 -->
<g id="node3" class="node">
<title>Node3</title>
<g id="a_node3"><a xlink:href="classRTLEditor.html#a5ab9cbd3a837af145b73136fb16e1a0a" target="_top" xlink:title=" ">
<polygon fill="white" stroke="black" points="394,-6 394,-25 540,-25 540,-6 394,-6"/>
<text text-anchor="middle" x="467" y="-13" font-family="Helvetica,sans-Serif" font-size="10.00">RTLEditor::updateContents</text>
</a>
</g>
</g>
<!-- Node2&#45;&gt;Node3 -->
<g id="edge2" class="edge">
<title>Node2&#45;&gt;Node3</title>
<path fill="none" stroke="midnightblue" d="M358.07,-15.5C366.48,-15.5 375.06,-15.5 383.52,-15.5"/>
<polygon fill="midnightblue" stroke="midnightblue" points="383.76,-19 393.76,-15.5 383.76,-12 383.76,-19"/>
</g>
<!-- Node4 -->
<g id="node4" class="node">
<title>Node4</title>
<g id="a_node4"><a xlink:href="classDecompiler.html#a43663f3e50785559cfe242384edcfcf4" target="_top" xlink:title=" ">
<polygon fill="white" stroke="black" points="576,-6 576,-25 725,-25 725,-6 576,-6"/>
<text text-anchor="middle" x="650.5" y="-13" font-family="Helvetica,sans-Serif" font-size="10.00">Decompiler::getRTLForProc</text>
</a>
</g>
</g>
<!-- Node3&#45;&gt;Node4 -->
<g id="edge3" class="edge">
<title>Node3&#45;&gt;Node4</title>
<path fill="none" stroke="midnightblue" d="M540.26,-15.5C548.55,-15.5 557.06,-15.5 565.49,-15.5"/>
<polygon fill="midnightblue" stroke="midnightblue" points="565.71,-19 575.71,-15.5 565.71,-12 565.71,-19"/>
</g>
</g>
</svg>
