<?xml version="1.0" encoding="UTF-8" standalone="no"?>
<!DOCTYPE svg PUBLIC "-//W3C//DTD SVG 1.1//EN"
 "http://www.w3.org/Graphics/SVG/1.1/DTD/svg11.dtd">
<!-- Generated by graphviz version 2.43.0 (0)
 -->
<!-- Title: Plugin::Plugin Pages: 1 -->
<svg width="318pt" height="28pt"
 viewBox="0.00 0.00 318.00 28.00" xmlns="http://www.w3.org/2000/svg" xmlns:xlink="http://www.w3.org/1999/xlink">
<g id="graph0" class="graph" transform="scale(1 1) rotate(0) translate(4 24)">
<title>Plugin::Plugin</title>
<polygon fill="white" stroke="transparent" points="-4,4 -4,-24 314,-24 314,4 -4,4"/>
<!-- Node1 -->
<g id="node1" class="node">
<title>Node1</title>
<g id="a_node1"><a xlink:title="Create a plugin from a dynamic library file.">
<polygon fill="#bfbfbf" stroke="black" points="0,-0.5 0,-19.5 83,-19.5 83,-0.5 0,-0.5"/>
<text text-anchor="middle" x="41.5" y="-7.5" font-family="Helvetica,sans-Serif" font-size="10.00">Plugin::Plugin</text>
</a>
</g>
</g>
<!-- Node2 -->
<g id="node2" class="node">
<title>Node2</title>
<g id="a_node2"><a xlink:href="classPlugin.html#ad70d69970f56daa61d463d5fbf1b9c0b" target="_top" xlink:title="Initialize the plugin.">
<polygon fill="white" stroke="black" points="119,-0.5 119,-19.5 187,-19.5 187,-0.5 119,-0.5"/>
<text text-anchor="middle" x="153" y="-7.5" font-family="Helvetica,sans-Serif" font-size="10.00">Plugin::init</text>
</a>
</g>
</g>
<!-- Node1&#45;&gt;Node2 -->
<g id="edge1" class="edge">
<title>Node1&#45;&gt;Node2</title>
<path fill="none" stroke="midnightblue" d="M83.27,-10C91.48,-10 100.14,-10 108.44,-10"/>
<polygon fill="midnightblue" stroke="midnightblue" points="108.7,-13.5 118.7,-10 108.7,-6.5 108.7,-13.5"/>
</g>
<!-- Node3 -->
<g id="node3" class="node">
<title>Node3</title>
<g id="a_node3"><a xlink:href="classPlugin.html#a2f1ff5f3f9988127d68e8982e70283f8" target="_top" xlink:title="Get information about the plugin.">
<polygon fill="white" stroke="black" points="223,-0.5 223,-19.5 310,-19.5 310,-0.5 223,-0.5"/>
<text text-anchor="middle" x="266.5" y="-7.5" font-family="Helvetica,sans-Serif" font-size="10.00">Plugin::getInfo</text>
</a>
</g>
</g>
<!-- Node2&#45;&gt;Node3 -->
<g id="edge2" class="edge">
<title>Node2&#45;&gt;Node3</title>
<path fill="none" stroke="midnightblue" d="M187.15,-10C195.18,-10 203.96,-10 212.65,-10"/>
<polygon fill="midnightblue" stroke="midnightblue" points="212.75,-13.5 222.75,-10 212.75,-6.5 212.75,-13.5"/>
</g>
</g>
</svg>
