<?xml version="1.0" encoding="UTF-8" standalone="no"?>
<!DOCTYPE svg PUBLIC "-//W3C//DTD SVG 1.1//EN"
 "http://www.w3.org/Graphics/SVG/1.1/DTD/svg11.dtd">
<!-- Generated by graphviz version 2.43.0 (0)
 -->
<!-- Title: MainWindow::on_tblLibProcs_cellDoubleClicked Pages: 1 -->
<svg width="357pt" height="78pt"
 viewBox="0.00 0.00 357.00 77.50" xmlns="http://www.w3.org/2000/svg" xmlns:xlink="http://www.w3.org/1999/xlink">
<g id="graph0" class="graph" transform="scale(1 1) rotate(0) translate(4 73.5)">
<title>MainWindow::on_tblLibProcs_cellDoubleClicked</title>
<polygon fill="white" stroke="transparent" points="-4,4 -4,-73.5 353,-73.5 353,4 -4,4"/>
<!-- Node1 -->
<g id="node1" class="node">
<title>Node1</title>
<g id="a_node1"><a xlink:title=" ">
<polygon fill="#bfbfbf" stroke="black" points="0,-17 0,-47 156,-47 156,-17 0,-17"/>
<text text-anchor="start" x="8" y="-35" font-family="Helvetica,sans-Serif" font-size="10.00">MainWindow::on_tblLibProcs</text>
<text text-anchor="middle" x="78" y="-24" font-family="Helvetica,sans-Serif" font-size="10.00">_cellDoubleClicked</text>
</a>
</g>
</g>
<!-- Node2 -->
<g id="node2" class="node">
<title>Node2</title>
<g id="a_node2"><a xlink:href="classMainWindow.html#aa063ede64706716c2c8e0118a55fb722" target="_top" xlink:title=" ">
<polygon fill="white" stroke="black" points="192,-39 192,-69 349,-69 349,-39 192,-39"/>
<text text-anchor="start" x="200" y="-57" font-family="Helvetica,sans-Serif" font-size="10.00">MainWindow::currentTabText</text>
<text text-anchor="middle" x="270.5" y="-46" font-family="Helvetica,sans-Serif" font-size="10.00">Changed</text>
</a>
</g>
</g>
<!-- Node1&#45;&gt;Node2 -->
<g id="edge1" class="edge">
<title>Node1&#45;&gt;Node2</title>
<path fill="none" stroke="midnightblue" d="M156.21,-40.92C164.66,-41.89 173.31,-42.89 181.87,-43.88"/>
<polygon fill="midnightblue" stroke="midnightblue" points="181.54,-47.36 191.87,-45.04 182.34,-40.41 181.54,-47.36"/>
</g>
<!-- Node3 -->
<g id="node3" class="node">
<title>Node3</title>
<g id="a_node3"><a xlink:href="classDecompiler.html#a5b9e7e6b003fe7cd25d7502905b3cfac" target="_top" xlink:title=" ">
<polygon fill="white" stroke="black" points="196.5,-0.5 196.5,-19.5 344.5,-19.5 344.5,-0.5 196.5,-0.5"/>
<text text-anchor="middle" x="270.5" y="-7.5" font-family="Helvetica,sans-Serif" font-size="10.00">Decompiler::getSigFilePath</text>
</a>
</g>
</g>
<!-- Node1&#45;&gt;Node3 -->
<g id="edge2" class="edge">
<title>Node1&#45;&gt;Node3</title>
<path fill="none" stroke="midnightblue" d="M156.21,-23.08C166.19,-21.93 176.44,-20.75 186.51,-19.58"/>
<polygon fill="midnightblue" stroke="midnightblue" points="186.96,-23.06 196.5,-18.43 186.16,-16.1 186.96,-23.06"/>
</g>
</g>
</svg>
