<?xml version="1.0" encoding="UTF-8" standalone="no"?>
<!DOCTYPE svg PUBLIC "-//W3C//DTD SVG 1.1//EN"
 "http://www.w3.org/Graphics/SVG/1.1/DTD/svg11.dtd">
<!-- Generated by graphviz version 2.43.0 (0)
 -->
<!-- Title: CodeWriter.cpp Pages: 1 -->
<svg width="537pt" height="330pt"
 viewBox="0.00 0.00 536.84 330.00" xmlns="http://www.w3.org/2000/svg" xmlns:xlink="http://www.w3.org/1999/xlink">
<g id="graph0" class="graph" transform="scale(1 1) rotate(0) translate(4 326)">
<title>CodeWriter.cpp</title>
<polygon fill="white" stroke="transparent" points="-4,4 -4,-326 532.84,-326 532.84,4 -4,4"/>
<!-- Node1 -->
<g id="node1" class="node">
<title>Node1</title>
<g id="a_node1"><a xlink:title=" ">
<polygon fill="#bfbfbf" stroke="black" points="348.84,-302.5 348.84,-321.5 440.84,-321.5 440.84,-302.5 348.84,-302.5"/>
<text text-anchor="middle" x="394.84" y="-309.5" font-family="Helvetica,sans-Serif" font-size="10.00">CodeWriter.cpp</text>
</a>
</g>
</g>
<!-- Node2 -->
<g id="node2" class="node">
<title>Node2</title>
<g id="a_node2"><a xlink:href="CodeWriter_8h.html" target="_top" xlink:title=" ">
<polygon fill="white" stroke="black" points="69.84,-241 69.84,-260 149.84,-260 149.84,-241 69.84,-241"/>
<text text-anchor="middle" x="109.84" y="-248" font-family="Helvetica,sans-Serif" font-size="10.00">CodeWriter.h</text>
</a>
</g>
</g>
<!-- Node1&#45;&gt;Node2 -->
<g id="edge1" class="edge">
<title>Node1&#45;&gt;Node2</title>
<path fill="none" stroke="midnightblue" d="M354.01,-302.48C302.86,-291.8 215.24,-273.51 160.05,-261.98"/>
<polygon fill="midnightblue" stroke="midnightblue" points="160.64,-258.53 150.14,-259.91 159.21,-265.38 160.64,-258.53"/>
</g>
<!-- Node11 -->
<g id="node11" class="node">
<title>Node11</title>
<g id="a_node11"><a xlink:href="Module_8h.html" target="_top" xlink:title=" ">
<polygon fill="white" stroke="black" points="331.34,-235.5 331.34,-265.5 458.34,-265.5 458.34,-235.5 331.34,-235.5"/>
<text text-anchor="start" x="339.34" y="-253.5" font-family="Helvetica,sans-Serif" font-size="10.00">boomerang/db/module</text>
<text text-anchor="middle" x="394.84" y="-242.5" font-family="Helvetica,sans-Serif" font-size="10.00">/Module.h</text>
</a>
</g>
</g>
<!-- Node1&#45;&gt;Node11 -->
<g id="edge10" class="edge">
<title>Node1&#45;&gt;Node11</title>
<path fill="none" stroke="midnightblue" d="M394.84,-302.48C394.84,-295.47 394.84,-285.19 394.84,-275.7"/>
<polygon fill="midnightblue" stroke="midnightblue" points="398.34,-275.52 394.84,-265.52 391.34,-275.52 398.34,-275.52"/>
</g>
<!-- Node16 -->
<g id="node16" class="node">
<title>Node16</title>
<g id="a_node16"><a xlink:title=" ">
<polygon fill="white" stroke="#bfbfbf" points="476.84,-241 476.84,-260 528.84,-260 528.84,-241 476.84,-241"/>
<text text-anchor="middle" x="502.84" y="-248" font-family="Helvetica,sans-Serif" font-size="10.00">cassert</text>
</a>
</g>
</g>
<!-- Node1&#45;&gt;Node16 -->
<g id="edge21" class="edge">
<title>Node1&#45;&gt;Node16</title>
<path fill="none" stroke="midnightblue" d="M410.31,-302.48C428.12,-292.67 457.58,-276.43 478.47,-264.92"/>
<polygon fill="midnightblue" stroke="midnightblue" points="480.32,-267.9 487.39,-260.01 476.95,-261.77 480.32,-267.9"/>
</g>
<!-- Node3 -->
<g id="node3" class="node">
<title>Node3</title>
<g id="a_node3"><a xlink:href="OStream_8h.html" target="_top" xlink:title=" ">
<polygon fill="white" stroke="black" points="115.84,-123.5 115.84,-142.5 261.84,-142.5 261.84,-123.5 115.84,-123.5"/>
<text text-anchor="middle" x="188.84" y="-130.5" font-family="Helvetica,sans-Serif" font-size="10.00">boomerang/util/OStream.h</text>
</a>
</g>
</g>
<!-- Node2&#45;&gt;Node3 -->
<g id="edge2" class="edge">
<title>Node2&#45;&gt;Node3</title>
<path fill="none" stroke="midnightblue" d="M75.11,-240.96C36.65,-229.82 -17.1,-208.27 5.84,-179 18.73,-162.55 64.33,-151.31 106.79,-144.18"/>
<polygon fill="midnightblue" stroke="midnightblue" points="107.6,-147.59 116.92,-142.54 106.49,-140.68 107.6,-147.59"/>
</g>
<!-- Node8 -->
<g id="node8" class="node">
<title>Node8</title>
<g id="a_node8"><a xlink:title=" ">
<polygon fill="white" stroke="#bfbfbf" points="15.34,-179.5 15.34,-198.5 56.34,-198.5 56.34,-179.5 15.34,-179.5"/>
<text text-anchor="middle" x="35.84" y="-186.5" font-family="Helvetica,sans-Serif" font-size="10.00">QFile</text>
</a>
</g>
</g>
<!-- Node2&#45;&gt;Node8 -->
<g id="edge7" class="edge">
<title>Node2&#45;&gt;Node8</title>
<path fill="none" stroke="midnightblue" d="M99.24,-240.98C87.59,-231.61 68.65,-216.38 54.51,-205.01"/>
<polygon fill="midnightblue" stroke="midnightblue" points="56.41,-202.05 46.42,-198.51 52.02,-207.5 56.41,-202.05"/>
</g>
<!-- Node9 -->
<g id="node9" class="node">
<title>Node9</title>
<g id="a_node9"><a xlink:title=" ">
<polygon fill="white" stroke="#bfbfbf" points="74.84,-179.5 74.84,-198.5 144.84,-198.5 144.84,-179.5 74.84,-179.5"/>
<text text-anchor="middle" x="109.84" y="-186.5" font-family="Helvetica,sans-Serif" font-size="10.00">QStringList</text>
</a>
</g>
</g>
<!-- Node2&#45;&gt;Node9 -->
<g id="edge8" class="edge">
<title>Node2&#45;&gt;Node9</title>
<path fill="none" stroke="midnightblue" d="M109.84,-240.98C109.84,-232.58 109.84,-219.48 109.84,-208.66"/>
<polygon fill="midnightblue" stroke="midnightblue" points="113.34,-208.51 109.84,-198.51 106.34,-208.51 113.34,-208.51"/>
</g>
<!-- Node10 -->
<g id="node10" class="node">
<title>Node10</title>
<g id="a_node10"><a xlink:title=" ">
<polygon fill="white" stroke="#bfbfbf" points="162.84,-179.5 162.84,-198.5 200.84,-198.5 200.84,-179.5 162.84,-179.5"/>
<text text-anchor="middle" x="181.84" y="-186.5" font-family="Helvetica,sans-Serif" font-size="10.00">map</text>
</a>
</g>
</g>
<!-- Node2&#45;&gt;Node10 -->
<g id="edge9" class="edge">
<title>Node2&#45;&gt;Node10</title>
<path fill="none" stroke="midnightblue" d="M120.16,-240.98C131.49,-231.61 149.91,-216.38 163.68,-205.01"/>
<polygon fill="midnightblue" stroke="midnightblue" points="166.06,-207.58 171.54,-198.51 161.61,-202.18 166.06,-207.58"/>
</g>
<!-- Node4 -->
<g id="node4" class="node">
<title>Node4</title>
<g id="a_node4"><a xlink:href="BoomerangAPI_8h.html" target="_top" xlink:title=" ">
<polygon fill="white" stroke="black" points="338.34,-56.5 338.34,-86.5 493.34,-86.5 493.34,-56.5 338.34,-56.5"/>
<text text-anchor="start" x="346.34" y="-74.5" font-family="Helvetica,sans-Serif" font-size="10.00">boomerang/core/Boomerang</text>
<text text-anchor="middle" x="415.84" y="-63.5" font-family="Helvetica,sans-Serif" font-size="10.00">API.h</text>
</a>
</g>
</g>
<!-- Node3&#45;&gt;Node4 -->
<g id="edge3" class="edge">
<title>Node3&#45;&gt;Node4</title>
<path fill="none" stroke="midnightblue" d="M221.36,-123.48C255.48,-114.53 309.98,-100.25 352.61,-89.07"/>
<polygon fill="midnightblue" stroke="midnightblue" points="353.55,-92.44 362.34,-86.52 351.78,-85.67 353.55,-92.44"/>
</g>
<!-- Node5 -->
<g id="node5" class="node">
<title>Node5</title>
<g id="a_node5"><a xlink:href="Types_8h.html" target="_top" xlink:title=" ">
<polygon fill="white" stroke="black" points="189.34,-62 189.34,-81 320.34,-81 320.34,-62 189.34,-62"/>
<text text-anchor="middle" x="254.84" y="-69" font-family="Helvetica,sans-Serif" font-size="10.00">boomerang/util/Types.h</text>
</a>
</g>
</g>
<!-- Node3&#45;&gt;Node5 -->
<g id="edge4" class="edge">
<title>Node3&#45;&gt;Node5</title>
<path fill="none" stroke="midnightblue" d="M198.3,-123.48C208.59,-114.2 225.26,-99.17 237.83,-87.83"/>
<polygon fill="midnightblue" stroke="midnightblue" points="240.32,-90.3 245.4,-81.01 235.63,-85.11 240.32,-90.3"/>
</g>
<!-- Node7 -->
<g id="node7" class="node">
<title>Node7</title>
<g id="a_node7"><a xlink:title=" ">
<polygon fill="white" stroke="#bfbfbf" points="124.84,-62 124.84,-81 170.84,-81 170.84,-62 124.84,-62"/>
<text text-anchor="middle" x="147.84" y="-69" font-family="Helvetica,sans-Serif" font-size="10.00">cstdio</text>
</a>
</g>
</g>
<!-- Node3&#45;&gt;Node7 -->
<g id="edge6" class="edge">
<title>Node3&#45;&gt;Node7</title>
<path fill="none" stroke="midnightblue" d="M182.97,-123.48C176.88,-114.64 167.19,-100.59 159.54,-89.48"/>
<polygon fill="midnightblue" stroke="midnightblue" points="162.26,-87.26 153.7,-81.01 156.5,-91.23 162.26,-87.26"/>
</g>
<!-- Node6 -->
<g id="node6" class="node">
<title>Node6</title>
<g id="a_node6"><a xlink:title=" ">
<polygon fill="white" stroke="#bfbfbf" points="229.84,-0.5 229.84,-19.5 279.84,-19.5 279.84,-0.5 229.84,-0.5"/>
<text text-anchor="middle" x="254.84" y="-7.5" font-family="Helvetica,sans-Serif" font-size="10.00">cstdint</text>
</a>
</g>
</g>
<!-- Node5&#45;&gt;Node6 -->
<g id="edge5" class="edge">
<title>Node5&#45;&gt;Node6</title>
<path fill="none" stroke="midnightblue" d="M254.84,-61.98C254.84,-53.58 254.84,-40.48 254.84,-29.66"/>
<polygon fill="midnightblue" stroke="midnightblue" points="258.34,-29.51 254.84,-19.51 251.34,-29.51 258.34,-29.51"/>
</g>
<!-- Node11&#45;&gt;Node4 -->
<g id="edge11" class="edge">
<title>Node11&#45;&gt;Node4</title>
<path fill="none" stroke="midnightblue" d="M452.55,-235.41C471.22,-227.83 489.9,-216.32 500.84,-199 508.33,-187.13 514.38,-150.83 497.84,-123 489.78,-109.44 476.53,-99.02 463,-91.26"/>
<polygon fill="midnightblue" stroke="midnightblue" points="464.6,-88.14 454.13,-86.54 461.31,-94.33 464.6,-88.14"/>
</g>
<!-- Node11&#45;&gt;Node10 -->
<g id="edge19" class="edge">
<title>Node11&#45;&gt;Node10</title>
<path fill="none" stroke="midnightblue" d="M340.83,-235.43C306.15,-226.25 259.94,-213.72 210.92,-199.23"/>
<polygon fill="midnightblue" stroke="midnightblue" points="211.67,-195.8 201.08,-196.31 209.67,-202.51 211.67,-195.8"/>
</g>
<!-- Node12 -->
<g id="node12" class="node">
<title>Node12</title>
<g id="a_node12"><a xlink:href="Address_8h.html" target="_top" xlink:title=" ">
<polygon fill="white" stroke="black" points="218.84,-179.5 218.84,-198.5 360.84,-198.5 360.84,-179.5 218.84,-179.5"/>
<text text-anchor="middle" x="289.84" y="-186.5" font-family="Helvetica,sans-Serif" font-size="10.00">boomerang/util/Address.h</text>
</a>
</g>
</g>
<!-- Node11&#45;&gt;Node12 -->
<g id="edge12" class="edge">
<title>Node11&#45;&gt;Node12</title>
<path fill="none" stroke="midnightblue" d="M369.96,-235.4C353.13,-225.86 331,-213.32 314.27,-203.84"/>
<polygon fill="midnightblue" stroke="midnightblue" points="315.54,-200.54 305.12,-198.66 312.09,-206.63 315.54,-200.54"/>
</g>
<!-- Node13 -->
<g id="node13" class="node">
<title>Node13</title>
<g id="a_node13"><a xlink:title=" ">
<polygon fill="white" stroke="#bfbfbf" points="435.34,-123.5 435.34,-142.5 488.34,-142.5 488.34,-123.5 435.34,-123.5"/>
<text text-anchor="middle" x="461.84" y="-130.5" font-family="Helvetica,sans-Serif" font-size="10.00">QString</text>
</a>
</g>
</g>
<!-- Node11&#45;&gt;Node13 -->
<g id="edge17" class="edge">
<title>Node11&#45;&gt;Node13</title>
<path fill="none" stroke="midnightblue" d="M440.51,-235.46C457.87,-227.65 475.85,-215.97 485.84,-199 494.85,-183.69 485.48,-164.42 475.94,-150.85"/>
<polygon fill="midnightblue" stroke="midnightblue" points="478.68,-148.68 469.83,-142.85 473.12,-152.92 478.68,-148.68"/>
</g>
<!-- Node14 -->
<g id="node14" class="node">
<title>Node14</title>
<g id="a_node14"><a xlink:title=" ">
<polygon fill="white" stroke="#bfbfbf" points="378.84,-179.5 378.84,-198.5 410.84,-198.5 410.84,-179.5 378.84,-179.5"/>
<text text-anchor="middle" x="394.84" y="-186.5" font-family="Helvetica,sans-Serif" font-size="10.00">list</text>
</a>
</g>
</g>
<!-- Node11&#45;&gt;Node14 -->
<g id="edge18" class="edge">
<title>Node11&#45;&gt;Node14</title>
<path fill="none" stroke="midnightblue" d="M394.84,-235.4C394.84,-227.47 394.84,-217.46 394.84,-208.86"/>
<polygon fill="midnightblue" stroke="midnightblue" points="398.34,-208.66 394.84,-198.66 391.34,-208.66 398.34,-208.66"/>
</g>
<!-- Node15 -->
<g id="node15" class="node">
<title>Node15</title>
<g id="a_node15"><a xlink:title=" ">
<polygon fill="white" stroke="#bfbfbf" points="429.34,-179.5 429.34,-198.5 476.34,-198.5 476.34,-179.5 429.34,-179.5"/>
<text text-anchor="middle" x="452.84" y="-186.5" font-family="Helvetica,sans-Serif" font-size="10.00">vector</text>
</a>
</g>
</g>
<!-- Node11&#45;&gt;Node15 -->
<g id="edge20" class="edge">
<title>Node11&#45;&gt;Node15</title>
<path fill="none" stroke="midnightblue" d="M408.58,-235.4C417.19,-226.58 428.29,-215.18 437.23,-206.02"/>
<polygon fill="midnightblue" stroke="midnightblue" points="439.93,-208.26 444.4,-198.66 434.91,-203.38 439.93,-208.26"/>
</g>
<!-- Node12&#45;&gt;Node3 -->
<g id="edge14" class="edge">
<title>Node12&#45;&gt;Node3</title>
<path fill="none" stroke="midnightblue" d="M273.61,-179.32C257.49,-170.7 232.54,-157.36 213.88,-147.39"/>
<polygon fill="midnightblue" stroke="midnightblue" points="215.5,-144.28 205.03,-142.65 212.2,-150.46 215.5,-144.28"/>
</g>
<!-- Node12&#45;&gt;Node4 -->
<g id="edge13" class="edge">
<title>Node12&#45;&gt;Node4</title>
<path fill="none" stroke="midnightblue" d="M299.31,-179.32C319,-161.27 364.84,-119.25 392.8,-93.62"/>
<polygon fill="midnightblue" stroke="midnightblue" points="395.51,-95.88 400.52,-86.55 390.78,-90.72 395.51,-95.88"/>
</g>
<!-- Node12&#45;&gt;Node5 -->
<g id="edge15" class="edge">
<title>Node12&#45;&gt;Node5</title>
<path fill="none" stroke="midnightblue" d="M287.32,-179.15C283.74,-166.62 276.94,-143.02 270.84,-123 267.57,-112.26 263.78,-100.28 260.71,-90.69"/>
<polygon fill="midnightblue" stroke="midnightblue" points="264.01,-89.51 257.62,-81.06 257.34,-91.65 264.01,-89.51"/>
</g>
<!-- Node12&#45;&gt;Node13 -->
<g id="edge16" class="edge">
<title>Node12&#45;&gt;Node13</title>
<path fill="none" stroke="midnightblue" d="M317.09,-179.44C346.45,-170.23 393.31,-155.52 425.72,-145.34"/>
<polygon fill="midnightblue" stroke="midnightblue" points="426.79,-148.67 435.28,-142.34 424.69,-142 426.79,-148.67"/>
</g>
</g>
</svg>
