<?xml version="1.0" encoding="UTF-8" standalone="no"?>
<!DOCTYPE svg PUBLIC "-//W3C//DTD SVG 1.1//EN"
 "http://www.w3.org/Graphics/SVG/1.1/DTD/svg11.dtd">
<!-- Generated by graphviz version 2.43.0 (0)
 -->
<!-- Title: Const.cpp Pages: 1 -->
<!--zoomable 352 -->
<svg id="main" version="1.1" xmlns="http://www.w3.org/2000/svg" xmlns:xlink="http://www.w3.org/1999/xlink" xml:space="preserve" onload="init(evt)">
<style type="text/css"><![CDATA[
.edge:hover path { stroke: red; }
.edge:hover polygon { stroke: red; fill: red; }
]]></style>
<script type="text/javascript"><![CDATA[
var edges = document.getElementsByTagName('g');
if (edges && edges.length) {
  for (var i=0;i<edges.length;i++) {
    if (edges[i].id.substr(0,4)=='edge') {
      edges[i].setAttribute('class','edge');
    }
  }
}
]]></script>
        <defs>
                <circle id="rim" cx="0" cy="0" r="7"/>
                <circle id="rim2" cx="0" cy="0" r="3.5"/>
                <g id="zoomPlus">
                        <use xlink:href="#rim" fill="#404040">
                                <set attributeName="fill" to="#808080" begin="zoomplus.mouseover" end="zoomplus.mouseout"/>
                        </use>
                        <path d="M-4,0h8M0,-4v8" fill="none" stroke="white" stroke-width="1.5" pointer-events="none"/>
                </g>
                <g id="zoomMin">
                        <use xlink:href="#rim" fill="#404040">
                                <set attributeName="fill" to="#808080" begin="zoomminus.mouseover" end="zoomminus.mouseout"/>
                        </use>
                        <path d="M-4,0h8" fill="none" stroke="white" stroke-width="1.5" pointer-events="none"/>
                </g>
                <g id="dirArrow">
                        <path fill="none" stroke="white" stroke-width="1.5" d="M0,-3.0v7 M-2.5,-0.5L0,-3.0L2.5,-0.5"/>
                </g>
               <g id="resetDef">
                       <use xlink:href="#rim2" fill="#404040">
                               <set attributeName="fill" to="#808080" begin="reset.mouseover" end="reset.mouseout"/>
                       </use>
               </g>
        </defs>

<script type="text/javascript">
var viewWidth = 1475;
var viewHeight = 352;
var sectionId = 'dynsection-0';
</script>
<script xlink:href="svgpan.js"/>
<svg id="graph" class="graph">
<g id="viewport">
<title>Const.cpp</title>
<polygon fill="white" stroke="transparent" points="-4,4 -4,-348 1470.87,-348 1470.87,4 -4,4"/>
<!-- Node1 -->
<g id="node1" class="node">
<title>Node1</title>
<g id="a_node1"><a xlink:title=" ">
<polygon fill="#bfbfbf" stroke="black" points="841.22,-324.5 841.22,-343.5 906.22,-343.5 906.22,-324.5 841.22,-324.5"/>
<text text-anchor="middle" x="873.72" y="-331.5" font-family="Helvetica,sans-Serif" font-size="10.00">Const.cpp</text>
</a>
</g>
</g>
<!-- Node2 -->
<g id="node2" class="node">
<title>Node2</title>
<g id="a_node2"><a xlink:href="Const_8h.html" target="_top" xlink:title=" ">
<polygon fill="white" stroke="black" points="353.22,-263 353.22,-282 406.22,-282 406.22,-263 353.22,-263"/>
<text text-anchor="middle" x="379.72" y="-270" font-family="Helvetica,sans-Serif" font-size="10.00">Const.h</text>
</a>
</g>
</g>
<!-- Node1&#45;&gt;Node2 -->
<g id="edge1" class="edge">
<title>Node1&#45;&gt;Node2</title>
<path fill="none" stroke="midnightblue" d="M841.17,-333.07C765.25,-332.54 571.04,-327.12 414.72,-288 412.21,-287.37 409.64,-286.59 407.09,-285.73"/>
<polygon fill="midnightblue" stroke="midnightblue" points="408.13,-282.38 397.54,-282.07 405.63,-288.91 408.13,-282.38"/>
</g>
<!-- Node19 -->
<g id="node19" class="node">
<title>Node19</title>
<g id="a_node19"><a xlink:href="Proc_8h.html" target="_top" xlink:title=" ">
<polygon fill="white" stroke="black" points="170.72,-263 170.72,-282 314.72,-282 314.72,-263 170.72,-263"/>
<text text-anchor="middle" x="242.72" y="-270" font-family="Helvetica,sans-Serif" font-size="10.00">boomerang/db/proc/Proc.h</text>
</a>
</g>
</g>
<!-- Node1&#45;&gt;Node19 -->
<g id="edge25" class="edge">
<title>Node1&#45;&gt;Node19</title>
<path fill="none" stroke="midnightblue" d="M841.09,-330.89C757.97,-325.37 531.58,-309.44 343.72,-288 332.22,-286.69 320.01,-285.1 308.2,-283.46"/>
<polygon fill="midnightblue" stroke="midnightblue" points="308.34,-279.95 297.95,-282.02 307.36,-286.88 308.34,-279.95"/>
</g>
<!-- Node20 -->
<g id="node20" class="node">
<title>Node20</title>
<g id="a_node20"><a xlink:href="CharType_8h.html" target="_top" xlink:title=" ">
<polygon fill="white" stroke="black" points="817.22,-257.5 817.22,-287.5 930.22,-287.5 930.22,-257.5 817.22,-257.5"/>
<text text-anchor="start" x="825.22" y="-275.5" font-family="Helvetica,sans-Serif" font-size="10.00">boomerang/ssl/type</text>
<text text-anchor="middle" x="873.72" y="-264.5" font-family="Helvetica,sans-Serif" font-size="10.00">/CharType.h</text>
</a>
</g>
</g>
<!-- Node1&#45;&gt;Node20 -->
<g id="edge31" class="edge">
<title>Node1&#45;&gt;Node20</title>
<path fill="none" stroke="midnightblue" d="M873.72,-324.48C873.72,-317.47 873.72,-307.19 873.72,-297.7"/>
<polygon fill="midnightblue" stroke="midnightblue" points="877.22,-297.52 873.72,-287.52 870.22,-297.52 877.22,-297.52"/>
</g>
<!-- Node22 -->
<g id="node22" class="node">
<title>Node22</title>
<g id="a_node22"><a xlink:href="FloatType_8h.html" target="_top" xlink:title=" ">
<polygon fill="white" stroke="black" points="948.22,-257.5 948.22,-287.5 1061.22,-287.5 1061.22,-257.5 948.22,-257.5"/>
<text text-anchor="start" x="956.22" y="-275.5" font-family="Helvetica,sans-Serif" font-size="10.00">boomerang/ssl/type</text>
<text text-anchor="middle" x="1004.72" y="-264.5" font-family="Helvetica,sans-Serif" font-size="10.00">/FloatType.h</text>
</a>
</g>
</g>
<!-- Node1&#45;&gt;Node22 -->
<g id="edge38" class="edge">
<title>Node1&#45;&gt;Node22</title>
<path fill="none" stroke="midnightblue" d="M892.49,-324.48C911.23,-315.96 940.61,-302.62 964.61,-291.72"/>
<polygon fill="midnightblue" stroke="midnightblue" points="966.19,-294.85 973.85,-287.52 963.29,-288.47 966.19,-294.85"/>
</g>
<!-- Node23 -->
<g id="node23" class="node">
<title>Node23</title>
<g id="a_node23"><a xlink:href="FuncType_8h.html" target="_top" xlink:title=" ">
<polygon fill="white" stroke="black" points="1079.22,-257.5 1079.22,-287.5 1192.22,-287.5 1192.22,-257.5 1079.22,-257.5"/>
<text text-anchor="start" x="1087.22" y="-275.5" font-family="Helvetica,sans-Serif" font-size="10.00">boomerang/ssl/type</text>
<text text-anchor="middle" x="1135.72" y="-264.5" font-family="Helvetica,sans-Serif" font-size="10.00">/FuncType.h</text>
</a>
</g>
</g>
<!-- Node1&#45;&gt;Node23 -->
<g id="edge40" class="edge">
<title>Node1&#45;&gt;Node23</title>
<path fill="none" stroke="midnightblue" d="M906.37,-325.58C946.97,-316.37 1017.25,-300.4 1069.35,-288.57"/>
<polygon fill="midnightblue" stroke="midnightblue" points="1070.2,-291.97 1079.18,-286.34 1068.65,-285.14 1070.2,-291.97"/>
</g>
<!-- Node24 -->
<g id="node24" class="node">
<title>Node24</title>
<g id="a_node24"><a xlink:href="IntegerType_8h.html" target="_top" xlink:title=" ">
<polygon fill="white" stroke="black" points="424.22,-257.5 424.22,-287.5 537.22,-287.5 537.22,-257.5 424.22,-257.5"/>
<text text-anchor="start" x="432.22" y="-275.5" font-family="Helvetica,sans-Serif" font-size="10.00">boomerang/ssl/type</text>
<text text-anchor="middle" x="480.72" y="-264.5" font-family="Helvetica,sans-Serif" font-size="10.00">/IntegerType.h</text>
</a>
</g>
</g>
<!-- Node1&#45;&gt;Node24 -->
<g id="edge42" class="edge">
<title>Node1&#45;&gt;Node24</title>
<path fill="none" stroke="midnightblue" d="M840.99,-329.42C783.49,-322.94 660.43,-308.19 547.25,-288.19"/>
<polygon fill="midnightblue" stroke="midnightblue" points="547.84,-284.74 537.38,-286.43 546.61,-291.63 547.84,-284.74"/>
</g>
<!-- Node25 -->
<g id="node25" class="node">
<title>Node25</title>
<g id="a_node25"><a xlink:href="PointerType_8h.html" target="_top" xlink:title=" ">
<polygon fill="white" stroke="black" points="555.22,-257.5 555.22,-287.5 668.22,-287.5 668.22,-257.5 555.22,-257.5"/>
<text text-anchor="start" x="563.22" y="-275.5" font-family="Helvetica,sans-Serif" font-size="10.00">boomerang/ssl/type</text>
<text text-anchor="middle" x="611.72" y="-264.5" font-family="Helvetica,sans-Serif" font-size="10.00">/PointerType.h</text>
</a>
</g>
</g>
<!-- Node1&#45;&gt;Node25 -->
<g id="edge44" class="edge">
<title>Node1&#45;&gt;Node25</title>
<path fill="none" stroke="midnightblue" d="M841.07,-325.58C800.47,-316.37 730.19,-300.4 678.09,-288.57"/>
<polygon fill="midnightblue" stroke="midnightblue" points="678.79,-285.14 668.26,-286.34 677.24,-291.97 678.79,-285.14"/>
</g>
<!-- Node26 -->
<g id="node26" class="node">
<title>Node26</title>
<g id="a_node26"><a xlink:href="VoidType_8h.html" target="_top" xlink:title=" ">
<polygon fill="white" stroke="black" points="686.22,-257.5 686.22,-287.5 799.22,-287.5 799.22,-257.5 686.22,-257.5"/>
<text text-anchor="start" x="694.22" y="-275.5" font-family="Helvetica,sans-Serif" font-size="10.00">boomerang/ssl/type</text>
<text text-anchor="middle" x="742.72" y="-264.5" font-family="Helvetica,sans-Serif" font-size="10.00">/VoidType.h</text>
</a>
</g>
</g>
<!-- Node1&#45;&gt;Node26 -->
<g id="edge46" class="edge">
<title>Node1&#45;&gt;Node26</title>
<path fill="none" stroke="midnightblue" d="M854.95,-324.48C836.21,-315.96 806.83,-302.62 782.83,-291.72"/>
<polygon fill="midnightblue" stroke="midnightblue" points="784.15,-288.47 773.59,-287.52 781.25,-294.85 784.15,-288.47"/>
</g>
<!-- Node27 -->
<g id="node27" class="node">
<title>Node27</title>
<g id="a_node27"><a xlink:href="Log_8h.html" target="_top" xlink:title=" ">
<polygon fill="white" stroke="black" points="1210.22,-257.5 1210.22,-287.5 1319.22,-287.5 1319.22,-257.5 1210.22,-257.5"/>
<text text-anchor="start" x="1218.22" y="-275.5" font-family="Helvetica,sans-Serif" font-size="10.00">boomerang/util/log</text>
<text text-anchor="middle" x="1264.72" y="-264.5" font-family="Helvetica,sans-Serif" font-size="10.00">/Log.h</text>
</a>
</g>
</g>
<!-- Node1&#45;&gt;Node27 -->
<g id="edge48" class="edge">
<title>Node1&#45;&gt;Node27</title>
<path fill="none" stroke="midnightblue" d="M906.46,-329.5C963.98,-323.13 1087.07,-308.55 1200.28,-288.17"/>
<polygon fill="midnightblue" stroke="midnightblue" points="1200.94,-291.61 1210.15,-286.38 1199.68,-284.72 1200.94,-291.61"/>
</g>
<!-- Node28 -->
<g id="node28" class="node">
<title>Node28</title>
<g id="a_node28"><a xlink:href="ExpModifier_8h.html" target="_top" xlink:title=" ">
<polygon fill="white" stroke="black" points="1101.72,-123.5 1101.72,-153.5 1269.72,-153.5 1269.72,-123.5 1101.72,-123.5"/>
<text text-anchor="start" x="1109.72" y="-141.5" font-family="Helvetica,sans-Serif" font-size="10.00">boomerang/visitor/expmodifier</text>
<text text-anchor="middle" x="1185.72" y="-130.5" font-family="Helvetica,sans-Serif" font-size="10.00">/ExpModifier.h</text>
</a>
</g>
</g>
<!-- Node1&#45;&gt;Node28 -->
<g id="edge53" class="edge">
<title>Node1&#45;&gt;Node28</title>
<path fill="none" stroke="midnightblue" d="M906.57,-332.24C1006.28,-329.6 1300.44,-319.21 1328.72,-288 1372.2,-240.01 1282.79,-185.68 1226.62,-157.94"/>
<polygon fill="midnightblue" stroke="midnightblue" points="1228.1,-154.77 1217.57,-153.56 1225.05,-161.07 1228.1,-154.77"/>
</g>
<!-- Node29 -->
<g id="node29" class="node">
<title>Node29</title>
<g id="a_node29"><a xlink:href="ExpVisitor_8h.html" target="_top" xlink:title=" ">
<polygon fill="white" stroke="black" points="1287.72,-123.5 1287.72,-153.5 1445.72,-153.5 1445.72,-123.5 1287.72,-123.5"/>
<text text-anchor="start" x="1295.72" y="-141.5" font-family="Helvetica,sans-Serif" font-size="10.00">boomerang/visitor/expvisitor</text>
<text text-anchor="middle" x="1366.72" y="-130.5" font-family="Helvetica,sans-Serif" font-size="10.00">/ExpVisitor.h</text>
</a>
</g>
</g>
<!-- Node1&#45;&gt;Node29 -->
<g id="edge56" class="edge">
<title>Node1&#45;&gt;Node29</title>
<path fill="none" stroke="midnightblue" d="M906.31,-332.22C1008.24,-329.46 1316.06,-318.65 1347.72,-288 1380.78,-256.01 1377.21,-197.27 1371.85,-164.06"/>
<polygon fill="midnightblue" stroke="midnightblue" points="1375.23,-163.08 1370.02,-153.85 1368.34,-164.31 1375.23,-163.08"/>
</g>
<!-- Node3 -->
<g id="node3" class="node">
<title>Node3</title>
<g id="a_node3"><a xlink:href="Exp_8h.html" target="_top" xlink:title=" ">
<polygon fill="white" stroke="black" points="438.72,-196 438.72,-215 578.72,-215 578.72,-196 438.72,-196"/>
<text text-anchor="middle" x="508.72" y="-203" font-family="Helvetica,sans-Serif" font-size="10.00">boomerang/ssl/exp/Exp.h</text>
</a>
</g>
</g>
<!-- Node2&#45;&gt;Node3 -->
<g id="edge2" class="edge">
<title>Node2&#45;&gt;Node3</title>
<path fill="none" stroke="midnightblue" d="M396.85,-262.87C418.73,-251.84 456.81,-232.66 482.39,-219.77"/>
<polygon fill="midnightblue" stroke="midnightblue" points="484.16,-222.79 491.52,-215.17 481.01,-216.54 484.16,-222.79"/>
</g>
<!-- Node17 -->
<g id="node17" class="node">
<title>Node17</title>
<g id="a_node17"><a xlink:href="Address_8h.html" target="_top" xlink:title=" ">
<polygon fill="white" stroke="black" points="240.72,-196 240.72,-215 382.72,-215 382.72,-196 240.72,-196"/>
<text text-anchor="middle" x="311.72" y="-203" font-family="Helvetica,sans-Serif" font-size="10.00">boomerang/util/Address.h</text>
</a>
</g>
</g>
<!-- Node2&#45;&gt;Node17 -->
<g id="edge19" class="edge">
<title>Node2&#45;&gt;Node17</title>
<path fill="none" stroke="midnightblue" d="M370.55,-262.73C359.74,-252.4 341.57,-235.04 328.28,-222.33"/>
<polygon fill="midnightblue" stroke="midnightblue" points="330.39,-219.51 320.75,-215.13 325.56,-224.57 330.39,-219.51"/>
</g>
<!-- Node18 -->
<g id="node18" class="node">
<title>Node18</title>
<g id="a_node18"><a xlink:title=" ">
<polygon fill="white" stroke="#bfbfbf" points="597.22,-196 597.22,-215 648.22,-215 648.22,-196 597.22,-196"/>
<text text-anchor="middle" x="622.72" y="-203" font-family="Helvetica,sans-Serif" font-size="10.00">variant</text>
</a>
</g>
</g>
<!-- Node2&#45;&gt;Node18 -->
<g id="edge24" class="edge">
<title>Node2&#45;&gt;Node18</title>
<path fill="none" stroke="midnightblue" d="M398.74,-262.86C403.86,-260.75 409.44,-258.63 414.72,-257 489.77,-233.87 512.67,-244.13 587.72,-221 589.87,-220.34 592.06,-219.6 594.25,-218.81"/>
<polygon fill="midnightblue" stroke="midnightblue" points="595.65,-222.02 603.7,-215.14 593.11,-215.49 595.65,-222.02"/>
</g>
<!-- Node4 -->
<g id="node4" class="node">
<title>Node4</title>
<g id="a_node4"><a xlink:href="ExpHelp_8h.html" target="_top" xlink:title=" ">
<polygon fill="white" stroke="black" points="291.72,-129 291.72,-148 453.72,-148 453.72,-129 291.72,-129"/>
<text text-anchor="middle" x="372.72" y="-136" font-family="Helvetica,sans-Serif" font-size="10.00">boomerang/ssl/exp/ExpHelp.h</text>
</a>
</g>
</g>
<!-- Node3&#45;&gt;Node4 -->
<g id="edge3" class="edge">
<title>Node3&#45;&gt;Node4</title>
<path fill="none" stroke="midnightblue" d="M490.66,-195.87C467.49,-184.8 427.09,-165.49 400.13,-152.6"/>
<polygon fill="midnightblue" stroke="midnightblue" points="401.39,-149.32 390.85,-148.17 398.37,-155.64 401.39,-149.32"/>
</g>
<!-- Node6 -->
<g id="node6" class="node">
<title>Node6</title>
<g id="a_node6"><a xlink:title=" ">
<polygon fill="white" stroke="#bfbfbf" points="1081.72,-62 1081.72,-81 1139.72,-81 1139.72,-62 1081.72,-62"/>
<text text-anchor="middle" x="1110.72" y="-69" font-family="Helvetica,sans-Serif" font-size="10.00">memory</text>
</a>
</g>
</g>
<!-- Node3&#45;&gt;Node6 -->
<g id="edge16" class="edge">
<title>Node3&#45;&gt;Node6</title>
<path fill="none" stroke="midnightblue" d="M555.33,-195.98C627.04,-182.79 757.18,-158.48 766.72,-154 786.45,-144.74 784.85,-131.97 804.72,-123 894.07,-82.68 1011.11,-74.17 1071.25,-72.61"/>
<polygon fill="midnightblue" stroke="midnightblue" points="1071.53,-76.11 1081.45,-72.4 1071.38,-69.11 1071.53,-76.11"/>
</g>
<!-- Node7 -->
<g id="node7" class="node">
<title>Node7</title>
<g id="a_node7"><a xlink:href="Operator_8h.html" target="_top" xlink:title=" ">
<polygon fill="white" stroke="black" points="543.72,-129 543.72,-148 707.72,-148 707.72,-129 543.72,-129"/>
<text text-anchor="middle" x="625.72" y="-136" font-family="Helvetica,sans-Serif" font-size="10.00">boomerang/ssl/exp/Operator.h</text>
</a>
</g>
</g>
<!-- Node3&#45;&gt;Node7 -->
<g id="edge6" class="edge">
<title>Node3&#45;&gt;Node7</title>
<path fill="none" stroke="midnightblue" d="M524.5,-195.73C544.24,-184.77 578.23,-165.88 601.33,-153.05"/>
<polygon fill="midnightblue" stroke="midnightblue" points="603.15,-156.04 610.19,-148.13 599.75,-149.92 603.15,-156.04"/>
</g>
<!-- Node8 -->
<g id="node8" class="node">
<title>Node8</title>
<g id="a_node8"><a xlink:href="OStream_8h.html" target="_top" xlink:title=" ">
<polygon fill="white" stroke="black" points="89.72,-129 89.72,-148 235.72,-148 235.72,-129 89.72,-129"/>
<text text-anchor="middle" x="162.72" y="-136" font-family="Helvetica,sans-Serif" font-size="10.00">boomerang/util/OStream.h</text>
</a>
</g>
</g>
<!-- Node3&#45;&gt;Node8 -->
<g id="edge8" class="edge">
<title>Node3&#45;&gt;Node8</title>
<path fill="none" stroke="midnightblue" d="M463.13,-195.94C400.03,-184.08 286.2,-162.7 218.23,-149.93"/>
<polygon fill="midnightblue" stroke="midnightblue" points="218.61,-146.44 208.14,-148.03 217.32,-153.32 218.61,-146.44"/>
</g>
<!-- Node12 -->
<g id="node12" class="node">
<title>Node12</title>
<g id="a_node12"><a xlink:title=" ">
<polygon fill="white" stroke="#bfbfbf" points="472.22,-129 472.22,-148 525.22,-148 525.22,-129 472.22,-129"/>
<text text-anchor="middle" x="498.72" y="-136" font-family="Helvetica,sans-Serif" font-size="10.00">QString</text>
</a>
</g>
</g>
<!-- Node3&#45;&gt;Node12 -->
<g id="edge13" class="edge">
<title>Node3&#45;&gt;Node12</title>
<path fill="none" stroke="midnightblue" d="M507.37,-195.73C505.9,-186.18 503.51,-170.62 501.61,-158.28"/>
<polygon fill="midnightblue" stroke="midnightblue" points="505.03,-157.48 500.05,-148.13 498.11,-158.54 505.03,-157.48"/>
</g>
<!-- Node13 -->
<g id="node13" class="node">
<title>Node13</title>
<g id="a_node13"><a xlink:title=" ">
<polygon fill="white" stroke="#bfbfbf" points="813.72,-129 813.72,-148 865.72,-148 865.72,-129 813.72,-129"/>
<text text-anchor="middle" x="839.72" y="-136" font-family="Helvetica,sans-Serif" font-size="10.00">cassert</text>
</a>
</g>
</g>
<!-- Node3&#45;&gt;Node13 -->
<g id="edge14" class="edge">
<title>Node3&#45;&gt;Node13</title>
<path fill="none" stroke="midnightblue" d="M555.24,-195.98C566.21,-194 577.88,-191.91 588.72,-190 682.41,-173.52 707.75,-178.31 799.72,-154 802.7,-153.21 805.76,-152.3 808.81,-151.32"/>
<polygon fill="midnightblue" stroke="midnightblue" points="810.03,-154.6 818.35,-148.04 807.76,-147.98 810.03,-154.6"/>
</g>
<!-- Node14 -->
<g id="node14" class="node">
<title>Node14</title>
<g id="a_node14"><a xlink:title=" ">
<polygon fill="white" stroke="#bfbfbf" points="725.72,-129 725.72,-148 757.72,-148 757.72,-129 725.72,-129"/>
<text text-anchor="middle" x="741.72" y="-136" font-family="Helvetica,sans-Serif" font-size="10.00">list</text>
</a>
</g>
</g>
<!-- Node3&#45;&gt;Node14 -->
<g id="edge15" class="edge">
<title>Node3&#45;&gt;Node14</title>
<path fill="none" stroke="midnightblue" d="M549.84,-195.98C601.41,-185.05 686.72,-166.05 716.72,-154 717.6,-153.65 718.48,-153.27 719.36,-152.87"/>
<polygon fill="midnightblue" stroke="midnightblue" points="721.34,-155.79 728.59,-148.06 718.1,-149.58 721.34,-155.79"/>
</g>
<!-- Node15 -->
<g id="node15" class="node">
<title>Node15</title>
<g id="a_node15"><a xlink:title=" ">
<polygon fill="white" stroke="#bfbfbf" points="39.72,-129 39.72,-148 71.72,-148 71.72,-129 39.72,-129"/>
<text text-anchor="middle" x="55.72" y="-136" font-family="Helvetica,sans-Serif" font-size="10.00">set</text>
</a>
</g>
</g>
<!-- Node3&#45;&gt;Node15 -->
<g id="edge17" class="edge">
<title>Node3&#45;&gt;Node15</title>
<path fill="none" stroke="midnightblue" d="M440.68,-195.97C424.63,-193.99 407.57,-191.9 391.72,-190 253.56,-173.44 212.78,-197.83 80.72,-154 79.65,-153.64 78.57,-153.24 77.5,-152.8"/>
<polygon fill="midnightblue" stroke="midnightblue" points="78.72,-149.49 68.22,-148.09 75.55,-155.73 78.72,-149.49"/>
</g>
<!-- Node16 -->
<g id="node16" class="node">
<title>Node16</title>
<g id="a_node16"><a xlink:title=" ">
<polygon fill="white" stroke="#bfbfbf" points="960.22,-129 960.22,-148 1007.22,-148 1007.22,-129 960.22,-129"/>
<text text-anchor="middle" x="983.72" y="-136" font-family="Helvetica,sans-Serif" font-size="10.00">vector</text>
</a>
</g>
</g>
<!-- Node3&#45;&gt;Node16 -->
<g id="edge18" class="edge">
<title>Node3&#45;&gt;Node16</title>
<path fill="none" stroke="midnightblue" d="M553.5,-195.94C564.96,-193.87 577.28,-191.76 588.72,-190 715.35,-170.57 747.67,-170.45 874.72,-154 899.94,-150.74 928.42,-146.94 949.95,-144.05"/>
<polygon fill="midnightblue" stroke="midnightblue" points="950.47,-147.52 959.91,-142.72 949.53,-140.58 950.47,-147.52"/>
</g>
<!-- Node5 -->
<g id="node5" class="node">
<title>Node5</title>
<g id="a_node5"><a xlink:href="BoomerangAPI_8h.html" target="_top" xlink:title=" ">
<polygon fill="white" stroke="black" points="392.22,-56.5 392.22,-86.5 547.22,-86.5 547.22,-56.5 392.22,-56.5"/>
<text text-anchor="start" x="400.22" y="-74.5" font-family="Helvetica,sans-Serif" font-size="10.00">boomerang/core/Boomerang</text>
<text text-anchor="middle" x="469.72" y="-63.5" font-family="Helvetica,sans-Serif" font-size="10.00">API.h</text>
</a>
</g>
</g>
<!-- Node4&#45;&gt;Node5 -->
<g id="edge4" class="edge">
<title>Node4&#45;&gt;Node5</title>
<path fill="none" stroke="midnightblue" d="M385.8,-128.73C399.67,-119.44 422.02,-104.46 440.18,-92.3"/>
<polygon fill="midnightblue" stroke="midnightblue" points="442.34,-95.06 448.7,-86.59 438.44,-89.25 442.34,-95.06"/>
</g>
<!-- Node4&#45;&gt;Node6 -->
<g id="edge5" class="edge">
<title>Node4&#45;&gt;Node6</title>
<path fill="none" stroke="midnightblue" d="M421.19,-128.94C434.61,-126.78 449.21,-124.61 462.72,-123 581.82,-108.79 949.96,-83.36 1071.41,-75.14"/>
<polygon fill="midnightblue" stroke="midnightblue" points="1071.97,-78.61 1081.71,-74.44 1071.5,-71.62 1071.97,-78.61"/>
</g>
<!-- Node7&#45;&gt;Node5 -->
<g id="edge7" class="edge">
<title>Node7&#45;&gt;Node5</title>
<path fill="none" stroke="midnightblue" d="M605,-128.87C581.6,-119.12 542.85,-102.97 512.81,-90.45"/>
<polygon fill="midnightblue" stroke="midnightblue" points="513.96,-87.14 503.39,-86.53 511.27,-93.61 513.96,-87.14"/>
</g>
<!-- Node8&#45;&gt;Node5 -->
<g id="edge9" class="edge">
<title>Node8&#45;&gt;Node5</title>
<path fill="none" stroke="midnightblue" d="M203.17,-128.94C251.45,-118.71 333.2,-101.41 393.46,-88.65"/>
<polygon fill="midnightblue" stroke="midnightblue" points="394.26,-92.05 403.32,-86.56 392.81,-85.21 394.26,-92.05"/>
</g>
<!-- Node9 -->
<g id="node9" class="node">
<title>Node9</title>
<g id="a_node9"><a xlink:href="Types_8h.html" target="_top" xlink:title=" ">
<polygon fill="white" stroke="black" points="738.22,-62 738.22,-81 869.22,-81 869.22,-62 738.22,-62"/>
<text text-anchor="middle" x="803.72" y="-69" font-family="Helvetica,sans-Serif" font-size="10.00">boomerang/util/Types.h</text>
</a>
</g>
</g>
<!-- Node8&#45;&gt;Node9 -->
<g id="edge10" class="edge">
<title>Node8&#45;&gt;Node9</title>
<path fill="none" stroke="midnightblue" d="M210.04,-128.96C222.88,-126.82 236.81,-124.66 249.72,-123 420,-101.08 620.93,-85.25 727.83,-77.62"/>
<polygon fill="midnightblue" stroke="midnightblue" points="728.15,-81.11 737.88,-76.91 727.66,-74.13 728.15,-81.11"/>
</g>
<!-- Node11 -->
<g id="node11" class="node">
<title>Node11</title>
<g id="a_node11"><a xlink:title=" ">
<polygon fill="white" stroke="#bfbfbf" points="139.72,-62 139.72,-81 185.72,-81 185.72,-62 139.72,-62"/>
<text text-anchor="middle" x="162.72" y="-69" font-family="Helvetica,sans-Serif" font-size="10.00">cstdio</text>
</a>
</g>
</g>
<!-- Node8&#45;&gt;Node11 -->
<g id="edge12" class="edge">
<title>Node8&#45;&gt;Node11</title>
<path fill="none" stroke="midnightblue" d="M162.72,-128.73C162.72,-119.18 162.72,-103.62 162.72,-91.28"/>
<polygon fill="midnightblue" stroke="midnightblue" points="166.22,-91.13 162.72,-81.13 159.22,-91.13 166.22,-91.13"/>
</g>
<!-- Node10 -->
<g id="node10" class="node">
<title>Node10</title>
<g id="a_node10"><a xlink:title=" ">
<polygon fill="white" stroke="#bfbfbf" points="778.72,-0.5 778.72,-19.5 828.72,-19.5 828.72,-0.5 778.72,-0.5"/>
<text text-anchor="middle" x="803.72" y="-7.5" font-family="Helvetica,sans-Serif" font-size="10.00">cstdint</text>
</a>
</g>
</g>
<!-- Node9&#45;&gt;Node10 -->
<g id="edge11" class="edge">
<title>Node9&#45;&gt;Node10</title>
<path fill="none" stroke="midnightblue" d="M803.72,-61.98C803.72,-53.58 803.72,-40.48 803.72,-29.66"/>
<polygon fill="midnightblue" stroke="midnightblue" points="807.22,-29.51 803.72,-19.51 800.22,-29.51 807.22,-29.51"/>
</g>
<!-- Node17&#45;&gt;Node5 -->
<g id="edge20" class="edge">
<title>Node17&#45;&gt;Node5</title>
<path fill="none" stroke="midnightblue" d="M240.69,-205.32C138.57,-204.18 -31.05,-192.29 30.72,-123 53.66,-97.27 260.7,-82.78 382.08,-76.43"/>
<polygon fill="midnightblue" stroke="midnightblue" points="382.3,-79.92 392.11,-75.91 381.94,-72.93 382.3,-79.92"/>
</g>
<!-- Node17&#45;&gt;Node8 -->
<g id="edge21" class="edge">
<title>Node17&#45;&gt;Node8</title>
<path fill="none" stroke="midnightblue" d="M291.93,-195.87C266.33,-184.7 221.51,-165.15 191.97,-152.26"/>
<polygon fill="midnightblue" stroke="midnightblue" points="193.15,-148.96 182.59,-148.17 190.35,-155.37 193.15,-148.96"/>
</g>
<!-- Node17&#45;&gt;Node9 -->
<g id="edge22" class="edge">
<title>Node17&#45;&gt;Node9</title>
<path fill="none" stroke="midnightblue" d="M303.56,-195.77C289.34,-179.52 263.34,-144.35 282.72,-123 297.48,-106.74 586.96,-86.25 727.9,-77.18"/>
<polygon fill="midnightblue" stroke="midnightblue" points="728.44,-80.65 738.2,-76.52 727.99,-73.67 728.44,-80.65"/>
</g>
<!-- Node17&#45;&gt;Node12 -->
<g id="edge23" class="edge">
<title>Node17&#45;&gt;Node12</title>
<path fill="none" stroke="midnightblue" d="M338.9,-195.96C369.26,-186.28 419.79,-169.81 462.72,-154 464.57,-153.32 466.47,-152.6 468.38,-151.87"/>
<polygon fill="midnightblue" stroke="midnightblue" points="469.83,-155.06 477.86,-148.15 467.28,-148.54 469.83,-155.06"/>
</g>
<!-- Node19&#45;&gt;Node4 -->
<g id="edge27" class="edge">
<title>Node19&#45;&gt;Node4</title>
<path fill="none" stroke="midnightblue" d="M238.04,-262.97C230.02,-247.05 215.94,-212.41 231.72,-190 245.54,-170.37 267.73,-158.33 290.45,-150.96"/>
<polygon fill="midnightblue" stroke="midnightblue" points="291.6,-154.27 300.2,-148.08 289.61,-147.56 291.6,-154.27"/>
</g>
<!-- Node19&#45;&gt;Node5 -->
<g id="edge26" class="edge">
<title>Node19&#45;&gt;Node5</title>
<path fill="none" stroke="midnightblue" d="M203.76,-263C123.22,-243.76 -49.02,-193.07 13.72,-123 37.81,-96.1 256.58,-81.97 382.13,-76.02"/>
<polygon fill="midnightblue" stroke="midnightblue" points="382.3,-79.51 392.12,-75.55 381.97,-72.52 382.3,-79.51"/>
</g>
<!-- Node19&#45;&gt;Node12 -->
<g id="edge29" class="edge">
<title>Node19&#45;&gt;Node12</title>
<path fill="none" stroke="midnightblue" d="M279.45,-262.98C310.58,-254.86 355.76,-240.91 391.72,-221 410.79,-210.44 412.48,-203.33 429.72,-190 445.81,-177.56 464.44,-163.98 478.28,-154.03"/>
<polygon fill="midnightblue" stroke="midnightblue" points="480.52,-156.74 486.61,-148.07 476.44,-151.04 480.52,-156.74"/>
</g>
<!-- Node19&#45;&gt;Node15 -->
<g id="edge30" class="edge">
<title>Node19&#45;&gt;Node15</title>
<path fill="none" stroke="midnightblue" d="M230.45,-262.84C199.01,-240.64 115.28,-181.54 76.26,-154"/>
<polygon fill="midnightblue" stroke="midnightblue" points="77.98,-150.93 67.79,-148.02 73.94,-156.65 77.98,-150.93"/>
</g>
<!-- Node19&#45;&gt;Node17 -->
<g id="edge28" class="edge">
<title>Node19&#45;&gt;Node17</title>
<path fill="none" stroke="midnightblue" d="M252.03,-262.73C262.99,-252.4 281.43,-235.04 294.91,-222.33"/>
<polygon fill="midnightblue" stroke="midnightblue" points="297.68,-224.53 302.56,-215.13 292.88,-219.44 297.68,-224.53"/>
</g>
<!-- Node21 -->
<g id="node21" class="node">
<title>Node21</title>
<g id="a_node21"><a xlink:href="Type_8h.html" target="_top" xlink:title=" ">
<polygon fill="white" stroke="black" points="817.22,-190.5 817.22,-220.5 930.22,-220.5 930.22,-190.5 817.22,-190.5"/>
<text text-anchor="start" x="825.22" y="-208.5" font-family="Helvetica,sans-Serif" font-size="10.00">boomerang/ssl/type</text>
<text text-anchor="middle" x="873.72" y="-197.5" font-family="Helvetica,sans-Serif" font-size="10.00">/Type.h</text>
</a>
</g>
</g>
<!-- Node20&#45;&gt;Node21 -->
<g id="edge32" class="edge">
<title>Node20&#45;&gt;Node21</title>
<path fill="none" stroke="midnightblue" d="M873.72,-257.4C873.72,-249.64 873.72,-239.81 873.72,-230.86"/>
<polygon fill="midnightblue" stroke="midnightblue" points="877.22,-230.58 873.72,-220.58 870.22,-230.58 877.22,-230.58"/>
</g>
<!-- Node21&#45;&gt;Node5 -->
<g id="edge33" class="edge">
<title>Node21&#45;&gt;Node5</title>
<path fill="none" stroke="midnightblue" d="M878.98,-190.45C884.7,-172.47 891.02,-141.46 874.72,-123 854.06,-99.61 670.02,-84.49 557.26,-77.34"/>
<polygon fill="midnightblue" stroke="midnightblue" points="557.45,-73.85 547.25,-76.72 557.01,-80.84 557.45,-73.85"/>
</g>
<!-- Node21&#45;&gt;Node6 -->
<g id="edge37" class="edge">
<title>Node21&#45;&gt;Node6</title>
<path fill="none" stroke="midnightblue" d="M928.45,-190.44C956.01,-182.08 989.3,-169.95 1016.72,-154 1047.81,-135.92 1078.22,-106.88 1095.68,-88.79"/>
<polygon fill="midnightblue" stroke="midnightblue" points="1098.42,-90.99 1102.75,-81.32 1093.34,-86.18 1098.42,-90.99"/>
</g>
<!-- Node21&#45;&gt;Node9 -->
<g id="edge34" class="edge">
<title>Node21&#45;&gt;Node9</title>
<path fill="none" stroke="midnightblue" d="M887.6,-190.27C902.25,-173.44 921.47,-144.96 907.72,-123 895.72,-103.83 874.14,-91.76 853.74,-84.24"/>
<polygon fill="midnightblue" stroke="midnightblue" points="854.77,-80.9 844.18,-81 852.53,-87.53 854.77,-80.9"/>
</g>
<!-- Node21&#45;&gt;Node12 -->
<g id="edge35" class="edge">
<title>Node21&#45;&gt;Node12</title>
<path fill="none" stroke="midnightblue" d="M817.1,-200.16C749.11,-194.02 632.05,-180.45 534.72,-154 532.22,-153.32 529.65,-152.52 527.1,-151.64"/>
<polygon fill="midnightblue" stroke="midnightblue" points="528.08,-148.27 517.49,-148.03 525.62,-154.82 528.08,-148.27"/>
</g>
<!-- Node21&#45;&gt;Node13 -->
<g id="edge36" class="edge">
<title>Node21&#45;&gt;Node13</title>
<path fill="none" stroke="midnightblue" d="M866.34,-190.4C861.25,-180.66 854.44,-167.65 848.99,-157.21"/>
<polygon fill="midnightblue" stroke="midnightblue" points="852,-155.43 844.27,-148.19 845.8,-158.68 852,-155.43"/>
</g>
<!-- Node22&#45;&gt;Node21 -->
<g id="edge39" class="edge">
<title>Node22&#45;&gt;Node21</title>
<path fill="none" stroke="midnightblue" d="M976.3,-257.4C957.24,-247.94 931.94,-235.39 911.24,-225.12"/>
<polygon fill="midnightblue" stroke="midnightblue" points="912.6,-221.89 902.09,-220.58 909.49,-228.16 912.6,-221.89"/>
</g>
<!-- Node23&#45;&gt;Node21 -->
<g id="edge41" class="edge">
<title>Node23&#45;&gt;Node21</title>
<path fill="none" stroke="midnightblue" d="M1079.19,-257.48C1038.44,-247.37 983.29,-233.68 940.39,-223.04"/>
<polygon fill="midnightblue" stroke="midnightblue" points="941.15,-219.62 930.6,-220.61 939.46,-226.42 941.15,-219.62"/>
</g>
<!-- Node24&#45;&gt;Node21 -->
<g id="edge43" class="edge">
<title>Node24&#45;&gt;Node21</title>
<path fill="none" stroke="midnightblue" d="M537.39,-258.62C540.21,-258.06 542.99,-257.51 545.72,-257 635.79,-240.04 740.58,-224.66 807.01,-215.44"/>
<polygon fill="midnightblue" stroke="midnightblue" points="807.51,-218.91 816.93,-214.07 806.55,-211.97 807.51,-218.91"/>
</g>
<!-- Node25&#45;&gt;Node21 -->
<g id="edge45" class="edge">
<title>Node25&#45;&gt;Node21</title>
<path fill="none" stroke="midnightblue" d="M668.25,-257.48C709,-247.37 764.15,-233.68 807.05,-223.04"/>
<polygon fill="midnightblue" stroke="midnightblue" points="807.98,-226.42 816.84,-220.61 806.29,-219.62 807.98,-226.42"/>
</g>
<!-- Node26&#45;&gt;Node21 -->
<g id="edge47" class="edge">
<title>Node26&#45;&gt;Node21</title>
<path fill="none" stroke="midnightblue" d="M771.15,-257.4C790.2,-247.94 815.5,-235.39 836.2,-225.12"/>
<polygon fill="midnightblue" stroke="midnightblue" points="837.95,-228.16 845.35,-220.58 834.84,-221.89 837.95,-228.16"/>
</g>
<!-- Node27&#45;&gt;Node6 -->
<g id="edge51" class="edge">
<title>Node27&#45;&gt;Node6</title>
<path fill="none" stroke="midnightblue" d="M1310.99,-257.48C1382.26,-233.62 1505.63,-181.93 1454.72,-123 1415.73,-77.86 1231.93,-72.32 1150.14,-72.14"/>
<polygon fill="midnightblue" stroke="midnightblue" points="1149.76,-68.64 1139.76,-72.14 1149.76,-75.64 1149.76,-68.64"/>
</g>
<!-- Node27&#45;&gt;Node9 -->
<g id="edge50" class="edge">
<title>Node27&#45;&gt;Node9</title>
<path fill="none" stroke="midnightblue" d="M1245.87,-257.41C1205.79,-228.1 1108.3,-160.24 1016.72,-123 969.46,-103.79 913.2,-90.84 870.37,-82.87"/>
<polygon fill="midnightblue" stroke="midnightblue" points="870.8,-79.39 860.34,-81.04 869.55,-86.27 870.8,-79.39"/>
</g>
<!-- Node27&#45;&gt;Node16 -->
<g id="edge52" class="edge">
<title>Node27&#45;&gt;Node16</title>
<path fill="none" stroke="midnightblue" d="M1210.01,-258.84C1151.55,-245.18 1066.32,-224.87 1059.72,-221 1032.03,-204.74 1008.3,-175.31 995.04,-156.62"/>
<polygon fill="midnightblue" stroke="midnightblue" points="997.79,-154.44 989.24,-148.18 992.02,-158.41 997.79,-154.44"/>
</g>
<!-- Node27&#45;&gt;Node17 -->
<g id="edge49" class="edge">
<title>Node27&#45;&gt;Node17</title>
<path fill="none" stroke="midnightblue" d="M1210.2,-258.32C1207.34,-257.83 1204.5,-257.38 1201.72,-257 861.43,-210.29 771.98,-249.97 429.72,-221 414.93,-219.75 399.14,-218.06 384.08,-216.27"/>
<polygon fill="midnightblue" stroke="midnightblue" points="384.14,-212.75 373.79,-215.02 383.29,-219.7 384.14,-212.75"/>
</g>
<!-- Node28&#45;&gt;Node5 -->
<g id="edge54" class="edge">
<title>Node28&#45;&gt;Node5</title>
<path fill="none" stroke="midnightblue" d="M1101.48,-129.85C964.89,-117.45 696.41,-93.08 557.55,-80.47"/>
<polygon fill="midnightblue" stroke="midnightblue" points="557.64,-76.97 547.37,-79.55 557.01,-83.94 557.64,-76.97"/>
</g>
<!-- Node28&#45;&gt;Node6 -->
<g id="edge55" class="edge">
<title>Node28&#45;&gt;Node6</title>
<path fill="none" stroke="midnightblue" d="M1169.45,-123.4C1157.41,-112.96 1141.01,-98.75 1128.6,-88"/>
<polygon fill="midnightblue" stroke="midnightblue" points="1130.6,-85.1 1120.75,-81.19 1126.02,-90.39 1130.6,-85.1"/>
</g>
<!-- Node29&#45;&gt;Node5 -->
<g id="edge57" class="edge">
<title>Node29&#45;&gt;Node5</title>
<path fill="none" stroke="midnightblue" d="M1287.62,-124.08C1284.62,-123.69 1281.64,-123.33 1278.72,-123 1208.66,-115.06 752.47,-88.6 557.67,-77.49"/>
<polygon fill="midnightblue" stroke="midnightblue" points="557.65,-73.98 547.47,-76.9 557.25,-80.97 557.65,-73.98"/>
</g>
<!-- Node29&#45;&gt;Node6 -->
<g id="edge58" class="edge">
<title>Node29&#45;&gt;Node6</title>
<path fill="none" stroke="midnightblue" d="M1311.49,-123.48C1262.77,-111.11 1193,-93.39 1149.84,-82.43"/>
<polygon fill="midnightblue" stroke="midnightblue" points="1150.56,-79 1140,-79.93 1148.83,-85.79 1150.56,-79"/>
</g>
</g>
</svg>
        <g id="navigator" transform="translate(0 0)" fill="#404254">
                <rect fill="#f2f5e9" fill-opacity="0.5" stroke="#606060" stroke-width=".5" x="0" y="0" width="60" height="60"/>
                <use id="zoomplus" xlink:href="#zoomPlus" x="17" y="9" onmousedown="handleZoom(evt,'in')"/>
                <use id="zoomminus" xlink:href="#zoomMin" x="42" y="9" onmousedown="handleZoom(evt,'out')"/>
                <use id="reset" xlink:href="#resetDef" x="30" y="36" onmousedown="handleReset()"/>
                <g id="arrowUp" xlink:href="#dirArrow" transform="translate(30 24)" onmousedown="handlePan(0,-1)">
                  <use xlink:href="#rim" fill="#404040">
                        <set attributeName="fill" to="#808080" begin="arrowUp.mouseover" end="arrowUp.mouseout"/>
                  </use>
                  <path fill="none" stroke="white" stroke-width="1.5" d="M0,-3.0v7 M-2.5,-0.5L0,-3.0L2.5,-0.5"/>
                </g>
                <g id="arrowRight" xlink:href="#dirArrow" transform="rotate(90) translate(36 -43)" onmousedown="handlePan(1,0)">
                  <use xlink:href="#rim" fill="#404040">
                        <set attributeName="fill" to="#808080" begin="arrowRight.mouseover" end="arrowRight.mouseout"/>
                  </use>
                  <path fill="none" stroke="white" stroke-width="1.5" d="M0,-3.0v7 M-2.5,-0.5L0,-3.0L2.5,-0.5"/>
                </g>
                <g id="arrowDown" xlink:href="#dirArrow" transform="rotate(180) translate(-30 -48)" onmousedown="handlePan(0,1)">
                  <use xlink:href="#rim" fill="#404040">
                        <set attributeName="fill" to="#808080" begin="arrowDown.mouseover" end="arrowDown.mouseout"/>
                  </use>
                  <path fill="none" stroke="white" stroke-width="1.5" d="M0,-3.0v7 M-2.5,-0.5L0,-3.0L2.5,-0.5"/>
                </g>
                <g id="arrowLeft" xlink:href="#dirArrow" transform="rotate(270) translate(-36 17)" onmousedown="handlePan(-1,0)">
                  <use xlink:href="#rim" fill="#404040">
                        <set attributeName="fill" to="#808080" begin="arrowLeft.mouseover" end="arrowLeft.mouseout"/>
                  </use>
                  <path fill="none" stroke="white" stroke-width="1.5" d="M0,-3.0v7 M-2.5,-0.5L0,-3.0L2.5,-0.5"/>
                </g>
        </g>
        <svg viewBox="0 0 15 15" width="100%" height="30px" preserveAspectRatio="xMaxYMin meet">
         <g id="arrow_out" transform="scale(0.3 0.3)">
          <a xlink:href="Const_8cpp__incl_org.svg" target="_base">
           <rect id="button" ry="5" rx="5" y="6" x="6" height="38" width="38"
                fill="#f2f5e9" fill-opacity="0.5" stroke="#606060" stroke-width="1.0"/>
           <path id="arrow"
             d="M 11.500037,31.436501 C 11.940474,20.09759 22.043105,11.32322 32.158766,21.979434 L 37.068811,17.246167 C 37.068811,17.246167 37.088388,32 37.088388,32 L 22.160133,31.978069 C 22.160133,31.978069 26.997745,27.140456 26.997745,27.140456 C 18.528582,18.264221 13.291696,25.230495 11.500037,31.436501 z"
             style="fill:#404040;"/>
          </a>
         </g>
        </svg>
</svg>
