<?xml version="1.0" encoding="UTF-8" standalone="no"?>
<!DOCTYPE svg PUBLIC "-//W3C//DTD SVG 1.1//EN"
 "http://www.w3.org/Graphics/SVG/1.1/DTD/svg11.dtd">
<!-- Generated by graphviz version 2.43.0 (0)
 -->
<!-- Title: ControlFlowAnalyzer.cpp Pages: 1 -->
<!--zoomable 710 -->
<svg id="main" version="1.1" xmlns="http://www.w3.org/2000/svg" xmlns:xlink="http://www.w3.org/1999/xlink" xml:space="preserve" onload="init(evt)">
<style type="text/css"><![CDATA[
.edge:hover path { stroke: red; }
.edge:hover polygon { stroke: red; fill: red; }
]]></style>
<script type="text/javascript"><![CDATA[
var edges = document.getElementsByTagName('g');
if (edges && edges.length) {
  for (var i=0;i<edges.length;i++) {
    if (edges[i].id.substr(0,4)=='edge') {
      edges[i].setAttribute('class','edge');
    }
  }
}
]]></script>
        <defs>
                <circle id="rim" cx="0" cy="0" r="7"/>
                <circle id="rim2" cx="0" cy="0" r="3.5"/>
                <g id="zoomPlus">
                        <use xlink:href="#rim" fill="#404040">
                                <set attributeName="fill" to="#808080" begin="zoomplus.mouseover" end="zoomplus.mouseout"/>
                        </use>
                        <path d="M-4,0h8M0,-4v8" fill="none" stroke="white" stroke-width="1.5" pointer-events="none"/>
                </g>
                <g id="zoomMin">
                        <use xlink:href="#rim" fill="#404040">
                                <set attributeName="fill" to="#808080" begin="zoomminus.mouseover" end="zoomminus.mouseout"/>
                        </use>
                        <path d="M-4,0h8" fill="none" stroke="white" stroke-width="1.5" pointer-events="none"/>
                </g>
                <g id="dirArrow">
                        <path fill="none" stroke="white" stroke-width="1.5" d="M0,-3.0v7 M-2.5,-0.5L0,-3.0L2.5,-0.5"/>
                </g>
               <g id="resetDef">
                       <use xlink:href="#rim2" fill="#404040">
                               <set attributeName="fill" to="#808080" begin="reset.mouseover" end="reset.mouseout"/>
                       </use>
               </g>
        </defs>

<script type="text/javascript">
var viewWidth = 1158;
var viewHeight = 710;
var sectionId = 'dynsection-0';
</script>
<script xlink:href="svgpan.js"/>
<svg id="graph" class="graph">
<g id="viewport">
<title>ControlFlowAnalyzer.cpp</title>
<polygon fill="white" stroke="transparent" points="-4,4 -4,-706 1153.97,-706 1153.97,4 -4,4"/>
<!-- Node1 -->
<g id="node1" class="node">
<title>Node1</title>
<g id="a_node1"><a xlink:title=" ">
<polygon fill="#bfbfbf" stroke="black" points="321.5,-682.5 321.5,-701.5 459.5,-701.5 459.5,-682.5 321.5,-682.5"/>
<text text-anchor="middle" x="390.5" y="-689.5" font-family="Helvetica,sans-Serif" font-size="10.00">ControlFlowAnalyzer.cpp</text>
</a>
</g>
</g>
<!-- Node2 -->
<g id="node2" class="node">
<title>Node2</title>
<g id="a_node2"><a xlink:href="ControlFlowAnalyzer_8h.html" target="_top" xlink:title=" ">
<polygon fill="white" stroke="black" points="86,-626.5 86,-645.5 213,-645.5 213,-626.5 86,-626.5"/>
<text text-anchor="middle" x="149.5" y="-633.5" font-family="Helvetica,sans-Serif" font-size="10.00">ControlFlowAnalyzer.h</text>
</a>
</g>
</g>
<!-- Node1&#45;&gt;Node2 -->
<g id="edge1" class="edge">
<title>Node1&#45;&gt;Node2</title>
<path fill="none" stroke="midnightblue" d="M352.31,-682.44C310.36,-673.04 242.91,-657.93 197.43,-647.74"/>
<polygon fill="midnightblue" stroke="midnightblue" points="198.03,-644.29 187.51,-645.52 196.5,-651.12 198.03,-644.29"/>
</g>
<!-- Node5 -->
<g id="node5" class="node">
<title>Node5</title>
<g id="a_node5"><a xlink:href="BasicBlock_8h.html" target="_top" xlink:title=" ">
<polygon fill="white" stroke="black" points="372.5,-626.5 372.5,-645.5 524.5,-645.5 524.5,-626.5 372.5,-626.5"/>
<text text-anchor="middle" x="448.5" y="-633.5" font-family="Helvetica,sans-Serif" font-size="10.00">boomerang/db/BasicBlock.h</text>
</a>
</g>
</g>
<!-- Node1&#45;&gt;Node5 -->
<g id="edge4" class="edge">
<title>Node1&#45;&gt;Node5</title>
<path fill="none" stroke="midnightblue" d="M399.82,-682.32C408.39,-674.34 421.31,-662.31 431.69,-652.65"/>
<polygon fill="midnightblue" stroke="midnightblue" points="434.08,-655.21 439.01,-645.83 429.31,-650.09 434.08,-655.21"/>
</g>
<!-- Node29 -->
<g id="node29" class="node">
<title>Node29</title>
<g id="a_node29"><a xlink:href="ProcCFG_8h.html" target="_top" xlink:title=" ">
<polygon fill="white" stroke="black" points="844.5,-241 844.5,-260 1008.5,-260 1008.5,-241 844.5,-241"/>
<text text-anchor="middle" x="926.5" y="-248" font-family="Helvetica,sans-Serif" font-size="10.00">boomerang/db/proc/ProcCFG.h</text>
</a>
</g>
</g>
<!-- Node1&#45;&gt;Node29 -->
<g id="edge44" class="edge">
<title>Node1&#45;&gt;Node29</title>
<path fill="none" stroke="midnightblue" d="M459.54,-687.13C639.75,-676.1 1110.5,-641.01 1110.5,-575.5 1110.5,-575.5 1110.5,-575.5 1110.5,-383.5 1110.5,-315.77 1027.17,-279.42 972.67,-262.89"/>
<polygon fill="midnightblue" stroke="midnightblue" points="973.43,-259.47 962.85,-260.03 971.47,-266.19 973.43,-259.47"/>
</g>
<!-- Node32 -->
<g id="node32" class="node">
<title>Node32</title>
<g id="a_node32"><a xlink:href="Log_8h.html" target="_top" xlink:title=" ">
<polygon fill="white" stroke="black" points="64,-235.5 64,-265.5 173,-265.5 173,-235.5 64,-235.5"/>
<text text-anchor="start" x="72" y="-253.5" font-family="Helvetica,sans-Serif" font-size="10.00">boomerang/util/log</text>
<text text-anchor="middle" x="118.5" y="-242.5" font-family="Helvetica,sans-Serif" font-size="10.00">/Log.h</text>
</a>
</g>
</g>
<!-- Node1&#45;&gt;Node32 -->
<g id="edge52" class="edge">
<title>Node1&#45;&gt;Node32</title>
<path fill="none" stroke="midnightblue" d="M359.99,-682.44C316.4,-668.13 241.5,-634.9 241.5,-575.5 241.5,-575.5 241.5,-575.5 241.5,-512 241.5,-415.41 171.5,-316.3 137.11,-273.44"/>
<polygon fill="midnightblue" stroke="midnightblue" points="139.78,-271.17 130.74,-265.64 134.36,-275.6 139.78,-271.17"/>
</g>
<!-- Node3 -->
<g id="node3" class="node">
<title>Node3</title>
<g id="a_node3"><a xlink:title=" ">
<polygon fill="white" stroke="#bfbfbf" points="82,-565 82,-584 175,-584 175,-565 82,-565"/>
<text text-anchor="middle" x="128.5" y="-572" font-family="Helvetica,sans-Serif" font-size="10.00">unordered_map</text>
</a>
</g>
</g>
<!-- Node2&#45;&gt;Node3 -->
<g id="edge2" class="edge">
<title>Node2&#45;&gt;Node3</title>
<path fill="none" stroke="midnightblue" d="M146.49,-626.48C143.47,-617.9 138.71,-604.43 134.85,-593.48"/>
<polygon fill="midnightblue" stroke="midnightblue" points="138.13,-592.27 131.5,-584.01 131.53,-594.6 138.13,-592.27"/>
</g>
<!-- Node4 -->
<g id="node4" class="node">
<title>Node4</title>
<g id="a_node4"><a xlink:title=" ">
<polygon fill="white" stroke="#bfbfbf" points="95,-179.5 95,-198.5 142,-198.5 142,-179.5 95,-179.5"/>
<text text-anchor="middle" x="118.5" y="-186.5" font-family="Helvetica,sans-Serif" font-size="10.00">vector</text>
</a>
</g>
</g>
<!-- Node2&#45;&gt;Node4 -->
<g id="edge3" class="edge">
<title>Node2&#45;&gt;Node4</title>
<path fill="none" stroke="midnightblue" d="M157.66,-626.38C165.37,-617.8 176.74,-603.92 183.5,-590 198.76,-558.58 203.5,-548.93 203.5,-514 203.5,-514 203.5,-514 203.5,-316.5 203.5,-278.98 202.9,-265.81 181.5,-235 172.37,-221.85 158.1,-211.2 145.45,-203.56"/>
<polygon fill="midnightblue" stroke="midnightblue" points="147.04,-200.44 136.62,-198.55 143.58,-206.53 147.04,-200.44"/>
</g>
<!-- Node5&#45;&gt;Node4 -->
<g id="edge43" class="edge">
<title>Node5&#45;&gt;Node4</title>
<path fill="none" stroke="midnightblue" d="M414.31,-626.48C365.98,-612.16 283.5,-578.3 283.5,-514 283.5,-514 283.5,-514 283.5,-316.5 283.5,-250.79 200.06,-214.56 151.85,-199.12"/>
<polygon fill="midnightblue" stroke="midnightblue" points="152.73,-195.73 142.14,-196.14 150.67,-202.42 152.73,-195.73"/>
</g>
<!-- Node6 -->
<g id="node6" class="node">
<title>Node6</title>
<g id="a_node6"><a xlink:href="Address_8h.html" target="_top" xlink:title=" ">
<polygon fill="white" stroke="black" points="198.5,-179.5 198.5,-198.5 340.5,-198.5 340.5,-179.5 198.5,-179.5"/>
<text text-anchor="middle" x="269.5" y="-186.5" font-family="Helvetica,sans-Serif" font-size="10.00">boomerang/util/Address.h</text>
</a>
</g>
</g>
<!-- Node5&#45;&gt;Node6 -->
<g id="edge5" class="edge">
<title>Node5&#45;&gt;Node6</title>
<path fill="none" stroke="midnightblue" d="M427.86,-626.46C392.36,-610.24 323.5,-571.39 323.5,-514 323.5,-514 323.5,-514 323.5,-316.5 323.5,-274.53 298.04,-230.55 282.08,-207.11"/>
<polygon fill="midnightblue" stroke="midnightblue" points="284.74,-204.81 276.12,-198.66 279.02,-208.85 284.74,-204.81"/>
</g>
<!-- Node13 -->
<g id="node13" class="node">
<title>Node13</title>
<g id="a_node13"><a xlink:href="StatementList_8h.html" target="_top" xlink:title=" ">
<polygon fill="white" stroke="black" points="434,-559.5 434,-589.5 579,-589.5 579,-559.5 434,-559.5"/>
<text text-anchor="start" x="442" y="-577.5" font-family="Helvetica,sans-Serif" font-size="10.00">boomerang/util/Statement</text>
<text text-anchor="middle" x="506.5" y="-566.5" font-family="Helvetica,sans-Serif" font-size="10.00">List.h</text>
</a>
</g>
</g>
<!-- Node5&#45;&gt;Node13 -->
<g id="edge14" class="edge">
<title>Node5&#45;&gt;Node13</title>
<path fill="none" stroke="midnightblue" d="M456.81,-626.48C464.3,-618.79 475.63,-607.17 485.58,-596.96"/>
<polygon fill="midnightblue" stroke="midnightblue" points="488.36,-599.13 492.83,-589.52 483.34,-594.24 488.36,-599.13"/>
</g>
<!-- Node18 -->
<g id="node18" class="node">
<title>Node18</title>
<g id="a_node18"><a xlink:title=" ">
<polygon fill="white" stroke="#bfbfbf" points="571.5,-123.5 571.5,-142.5 629.5,-142.5 629.5,-123.5 571.5,-123.5"/>
<text text-anchor="middle" x="600.5" y="-130.5" font-family="Helvetica,sans-Serif" font-size="10.00">memory</text>
</a>
</g>
</g>
<!-- Node5&#45;&gt;Node18 -->
<g id="edge42" class="edge">
<title>Node5&#45;&gt;Node18</title>
<path fill="none" stroke="midnightblue" d="M524.74,-634.77C706.17,-629.82 1148.5,-589.91 1148.5,-318.5 1148.5,-318.5 1148.5,-318.5 1148.5,-249.5 1148.5,-217.05 1154.4,-199.81 1129.5,-179 1092.17,-147.8 756.51,-137.45 640.07,-134.79"/>
<polygon fill="midnightblue" stroke="midnightblue" points="639.9,-131.28 629.82,-134.56 639.74,-138.28 639.9,-131.28"/>
</g>
<!-- Node21 -->
<g id="node21" class="node">
<title>Node21</title>
<g id="a_node21"><a xlink:title=" ">
<polygon fill="white" stroke="#bfbfbf" points="810.5,-179.5 810.5,-198.5 842.5,-198.5 842.5,-179.5 810.5,-179.5"/>
<text text-anchor="middle" x="826.5" y="-186.5" font-family="Helvetica,sans-Serif" font-size="10.00">list</text>
</a>
</g>
</g>
<!-- Node5&#45;&gt;Node21 -->
<g id="edge41" class="edge">
<title>Node5&#45;&gt;Node21</title>
<path fill="none" stroke="midnightblue" d="M518.58,-626.48C625.36,-611.51 816.5,-576.04 816.5,-514 816.5,-514 816.5,-514 816.5,-316.5 816.5,-278.08 821.14,-233.31 824.1,-208.66"/>
<polygon fill="midnightblue" stroke="midnightblue" points="827.59,-208.93 825.35,-198.57 820.65,-208.06 827.59,-208.93"/>
</g>
<!-- Node7 -->
<g id="node7" class="node">
<title>Node7</title>
<g id="a_node7"><a xlink:href="BoomerangAPI_8h.html" target="_top" xlink:title=" ">
<polygon fill="white" stroke="black" points="296,-56.5 296,-86.5 451,-86.5 451,-56.5 296,-56.5"/>
<text text-anchor="start" x="304" y="-74.5" font-family="Helvetica,sans-Serif" font-size="10.00">boomerang/core/Boomerang</text>
<text text-anchor="middle" x="373.5" y="-63.5" font-family="Helvetica,sans-Serif" font-size="10.00">API.h</text>
</a>
</g>
</g>
<!-- Node6&#45;&gt;Node7 -->
<g id="edge6" class="edge">
<title>Node6&#45;&gt;Node7</title>
<path fill="none" stroke="midnightblue" d="M270.57,-179.1C272.57,-165.66 277.99,-139.96 291.5,-123 301.84,-110.02 316.49,-99.51 330.55,-91.51"/>
<polygon fill="midnightblue" stroke="midnightblue" points="332.5,-94.44 339.65,-86.62 329.19,-88.27 332.5,-94.44"/>
</g>
<!-- Node8 -->
<g id="node8" class="node">
<title>Node8</title>
<g id="a_node8"><a xlink:href="OStream_8h.html" target="_top" xlink:title=" ">
<polygon fill="white" stroke="black" points="97.5,-123.5 97.5,-142.5 243.5,-142.5 243.5,-123.5 97.5,-123.5"/>
<text text-anchor="middle" x="170.5" y="-130.5" font-family="Helvetica,sans-Serif" font-size="10.00">boomerang/util/OStream.h</text>
</a>
</g>
</g>
<!-- Node6&#45;&gt;Node8 -->
<g id="edge7" class="edge">
<title>Node6&#45;&gt;Node8</title>
<path fill="none" stroke="midnightblue" d="M253.59,-179.32C237.86,-170.74 213.56,-157.49 195.29,-147.52"/>
<polygon fill="midnightblue" stroke="midnightblue" points="196.82,-144.37 186.37,-142.65 193.47,-150.52 196.82,-144.37"/>
</g>
<!-- Node9 -->
<g id="node9" class="node">
<title>Node9</title>
<g id="a_node9"><a xlink:href="Types_8h.html" target="_top" xlink:title=" ">
<polygon fill="white" stroke="black" points="0,-62 0,-81 131,-81 131,-62 0,-62"/>
<text text-anchor="middle" x="65.5" y="-69" font-family="Helvetica,sans-Serif" font-size="10.00">boomerang/util/Types.h</text>
</a>
</g>
</g>
<!-- Node6&#45;&gt;Node9 -->
<g id="edge12" class="edge">
<title>Node6&#45;&gt;Node9</title>
<path fill="none" stroke="midnightblue" d="M198.2,-186.26C161.27,-181.77 117.89,-170.36 88.5,-143 74.24,-129.73 68.8,-107.52 66.74,-91.58"/>
<polygon fill="midnightblue" stroke="midnightblue" points="70.19,-90.91 65.76,-81.29 63.22,-91.58 70.19,-90.91"/>
</g>
<!-- Node12 -->
<g id="node12" class="node">
<title>Node12</title>
<g id="a_node12"><a xlink:title=" ">
<polygon fill="white" stroke="#bfbfbf" points="300,-123.5 300,-142.5 353,-142.5 353,-123.5 300,-123.5"/>
<text text-anchor="middle" x="326.5" y="-130.5" font-family="Helvetica,sans-Serif" font-size="10.00">QString</text>
</a>
</g>
</g>
<!-- Node6&#45;&gt;Node12 -->
<g id="edge13" class="edge">
<title>Node6&#45;&gt;Node12</title>
<path fill="none" stroke="midnightblue" d="M278.66,-179.32C287,-171.42 299.53,-159.55 309.68,-149.94"/>
<polygon fill="midnightblue" stroke="midnightblue" points="312.32,-152.25 317.18,-142.83 307.51,-147.17 312.32,-152.25"/>
</g>
<!-- Node8&#45;&gt;Node7 -->
<g id="edge8" class="edge">
<title>Node8&#45;&gt;Node7</title>
<path fill="none" stroke="midnightblue" d="M199.58,-123.48C229.78,-114.63 277.8,-100.55 315.75,-89.43"/>
<polygon fill="midnightblue" stroke="midnightblue" points="317.05,-92.69 325.66,-86.52 315.08,-85.98 317.05,-92.69"/>
</g>
<!-- Node8&#45;&gt;Node9 -->
<g id="edge9" class="edge">
<title>Node8&#45;&gt;Node9</title>
<path fill="none" stroke="midnightblue" d="M155.46,-123.48C138.22,-113.71 109.76,-97.58 89.47,-86.08"/>
<polygon fill="midnightblue" stroke="midnightblue" points="90.94,-82.89 80.52,-81.01 87.49,-88.98 90.94,-82.89"/>
</g>
<!-- Node11 -->
<g id="node11" class="node">
<title>Node11</title>
<g id="a_node11"><a xlink:title=" ">
<polygon fill="white" stroke="#bfbfbf" points="149.5,-62 149.5,-81 195.5,-81 195.5,-62 149.5,-62"/>
<text text-anchor="middle" x="172.5" y="-69" font-family="Helvetica,sans-Serif" font-size="10.00">cstdio</text>
</a>
</g>
</g>
<!-- Node8&#45;&gt;Node11 -->
<g id="edge11" class="edge">
<title>Node8&#45;&gt;Node11</title>
<path fill="none" stroke="midnightblue" d="M170.79,-123.48C171.07,-115.08 171.51,-101.98 171.87,-91.16"/>
<polygon fill="midnightblue" stroke="midnightblue" points="175.38,-91.12 172.21,-81.01 168.38,-90.89 175.38,-91.12"/>
</g>
<!-- Node10 -->
<g id="node10" class="node">
<title>Node10</title>
<g id="a_node10"><a xlink:title=" ">
<polygon fill="white" stroke="#bfbfbf" points="40.5,-0.5 40.5,-19.5 90.5,-19.5 90.5,-0.5 40.5,-0.5"/>
<text text-anchor="middle" x="65.5" y="-7.5" font-family="Helvetica,sans-Serif" font-size="10.00">cstdint</text>
</a>
</g>
</g>
<!-- Node9&#45;&gt;Node10 -->
<g id="edge10" class="edge">
<title>Node9&#45;&gt;Node10</title>
<path fill="none" stroke="midnightblue" d="M65.5,-61.98C65.5,-53.58 65.5,-40.48 65.5,-29.66"/>
<polygon fill="midnightblue" stroke="midnightblue" points="69,-29.51 65.5,-19.51 62,-29.51 69,-29.51"/>
</g>
<!-- Node14 -->
<g id="node14" class="node">
<title>Node14</title>
<g id="a_node14"><a xlink:href="StatementSet_8h.html" target="_top" xlink:title=" ">
<polygon fill="white" stroke="black" points="460.5,-503.5 460.5,-522.5 552.5,-522.5 552.5,-503.5 460.5,-503.5"/>
<text text-anchor="middle" x="506.5" y="-510.5" font-family="Helvetica,sans-Serif" font-size="10.00">StatementSet.h</text>
</a>
</g>
</g>
<!-- Node13&#45;&gt;Node14 -->
<g id="edge15" class="edge">
<title>Node13&#45;&gt;Node14</title>
<path fill="none" stroke="midnightblue" d="M506.5,-559.4C506.5,-551.47 506.5,-541.46 506.5,-532.86"/>
<polygon fill="midnightblue" stroke="midnightblue" points="510,-532.66 506.5,-522.66 503,-532.66 510,-532.66"/>
</g>
<!-- Node13&#45;&gt;Node21 -->
<g id="edge40" class="edge">
<title>Node13&#45;&gt;Node21</title>
<path fill="none" stroke="midnightblue" d="M579.03,-571.37C659.61,-564.67 778.5,-539.98 778.5,-452.5 778.5,-452.5 778.5,-452.5 778.5,-316.5 778.5,-275.21 801.13,-230.98 815.31,-207.32"/>
<polygon fill="midnightblue" stroke="midnightblue" points="818.32,-209.11 820.61,-198.77 812.37,-205.42 818.32,-209.11"/>
</g>
<!-- Node15 -->
<g id="node15" class="node">
<title>Node15</title>
<g id="a_node15"><a xlink:href="Terminal_8h.html" target="_top" xlink:title=" ">
<polygon fill="white" stroke="black" points="397.5,-375 397.5,-394 561.5,-394 561.5,-375 397.5,-375"/>
<text text-anchor="middle" x="479.5" y="-382" font-family="Helvetica,sans-Serif" font-size="10.00">boomerang/ssl/exp/Terminal.h</text>
</a>
</g>
</g>
<!-- Node14&#45;&gt;Node15 -->
<g id="edge16" class="edge">
<title>Node14&#45;&gt;Node15</title>
<path fill="none" stroke="midnightblue" d="M502.47,-503.24C498.54,-494.31 492.7,-479.97 489.5,-467 484.29,-445.86 481.74,-420.93 480.52,-404.26"/>
<polygon fill="midnightblue" stroke="midnightblue" points="484.01,-403.95 479.88,-394.19 477.03,-404.39 484.01,-403.95"/>
</g>
<!-- Node14&#45;&gt;Node18 -->
<g id="edge38" class="edge">
<title>Node14&#45;&gt;Node18</title>
<path fill="none" stroke="midnightblue" d="M483.71,-503.42C444.52,-487.02 368.5,-447.25 368.5,-385.5 368.5,-385.5 368.5,-385.5 368.5,-249.5 368.5,-206.92 495.33,-164.16 561.44,-144.77"/>
<polygon fill="midnightblue" stroke="midnightblue" points="562.48,-148.11 571.12,-141.97 560.54,-141.39 562.48,-148.11"/>
</g>
<!-- Node23 -->
<g id="node23" class="node">
<title>Node23</title>
<g id="a_node23"><a xlink:href="Assign_8h.html" target="_top" xlink:title=" ">
<polygon fill="white" stroke="black" points="603,-436.5 603,-466.5 750,-466.5 750,-436.5 603,-436.5"/>
<text text-anchor="start" x="611" y="-454.5" font-family="Helvetica,sans-Serif" font-size="10.00">boomerang/ssl/statements</text>
<text text-anchor="middle" x="676.5" y="-443.5" font-family="Helvetica,sans-Serif" font-size="10.00">/Assign.h</text>
</a>
</g>
</g>
<!-- Node14&#45;&gt;Node23 -->
<g id="edge30" class="edge">
<title>Node14&#45;&gt;Node23</title>
<path fill="none" stroke="midnightblue" d="M530.86,-503.48C555.82,-494.74 595.34,-480.91 626.91,-469.86"/>
<polygon fill="midnightblue" stroke="midnightblue" points="628.15,-473.13 636.43,-466.52 625.84,-466.52 628.15,-473.13"/>
</g>
<!-- Node28 -->
<g id="node28" class="node">
<title>Node28</title>
<g id="a_node28"><a xlink:title=" ">
<polygon fill="white" stroke="#bfbfbf" points="498.5,-442 498.5,-461 584.5,-461 584.5,-442 498.5,-442"/>
<text text-anchor="middle" x="541.5" y="-449" font-family="Helvetica,sans-Serif" font-size="10.00">unordered_set</text>
</a>
</g>
</g>
<!-- Node14&#45;&gt;Node28 -->
<g id="edge39" class="edge">
<title>Node14&#45;&gt;Node28</title>
<path fill="none" stroke="midnightblue" d="M511.51,-503.48C516.66,-494.73 524.81,-480.87 531.32,-469.81"/>
<polygon fill="midnightblue" stroke="midnightblue" points="534.44,-471.4 536.49,-461.01 528.41,-467.85 534.44,-471.4"/>
</g>
<!-- Node16 -->
<g id="node16" class="node">
<title>Node16</title>
<g id="a_node16"><a xlink:href="Exp_8h.html" target="_top" xlink:title=" ">
<polygon fill="white" stroke="black" points="410.5,-241 410.5,-260 550.5,-260 550.5,-241 410.5,-241"/>
<text text-anchor="middle" x="480.5" y="-248" font-family="Helvetica,sans-Serif" font-size="10.00">boomerang/ssl/exp/Exp.h</text>
</a>
</g>
</g>
<!-- Node15&#45;&gt;Node16 -->
<g id="edge17" class="edge">
<title>Node15&#45;&gt;Node16</title>
<path fill="none" stroke="midnightblue" d="M479.57,-374.84C479.73,-353.67 480.14,-298.95 480.36,-270.03"/>
<polygon fill="midnightblue" stroke="midnightblue" points="483.86,-270.05 480.44,-260.02 476.86,-269.99 483.86,-270.05"/>
</g>
<!-- Node16&#45;&gt;Node4 -->
<g id="edge29" class="edge">
<title>Node16&#45;&gt;Node4</title>
<path fill="none" stroke="midnightblue" d="M416.31,-241C350.75,-231.97 246.16,-216.58 156.5,-199 155.04,-198.71 153.56,-198.41 152.06,-198.1"/>
<polygon fill="midnightblue" stroke="midnightblue" points="152.68,-194.65 142.15,-195.9 151.16,-201.48 152.68,-194.65"/>
</g>
<!-- Node16&#45;&gt;Node8 -->
<g id="edge23" class="edge">
<title>Node16&#45;&gt;Node8</title>
<path fill="none" stroke="midnightblue" d="M410.34,-245.73C334.85,-240.25 221.33,-227.44 189.5,-199 176.5,-187.39 172.19,-167.44 170.86,-152.69"/>
<polygon fill="midnightblue" stroke="midnightblue" points="174.35,-152.46 170.33,-142.65 167.36,-152.82 174.35,-152.46"/>
</g>
<!-- Node16&#45;&gt;Node12 -->
<g id="edge24" class="edge">
<title>Node16&#45;&gt;Node12</title>
<path fill="none" stroke="midnightblue" d="M468.92,-240.82C442.84,-221.25 379.19,-173.52 346.54,-149.03"/>
<polygon fill="midnightblue" stroke="midnightblue" points="348.31,-145.98 338.21,-142.78 344.11,-151.58 348.31,-145.98"/>
</g>
<!-- Node17 -->
<g id="node17" class="node">
<title>Node17</title>
<g id="a_node17"><a xlink:href="ExpHelp_8h.html" target="_top" xlink:title=" ">
<polygon fill="white" stroke="black" points="630.5,-179.5 630.5,-198.5 792.5,-198.5 792.5,-179.5 630.5,-179.5"/>
<text text-anchor="middle" x="711.5" y="-186.5" font-family="Helvetica,sans-Serif" font-size="10.00">boomerang/ssl/exp/ExpHelp.h</text>
</a>
</g>
</g>
<!-- Node16&#45;&gt;Node17 -->
<g id="edge18" class="edge">
<title>Node16&#45;&gt;Node17</title>
<path fill="none" stroke="midnightblue" d="M513.6,-240.98C554.42,-230.46 623.91,-212.56 668.74,-201.01"/>
<polygon fill="midnightblue" stroke="midnightblue" points="669.65,-204.39 678.46,-198.51 667.91,-197.61 669.65,-204.39"/>
</g>
<!-- Node16&#45;&gt;Node18 -->
<g id="edge27" class="edge">
<title>Node16&#45;&gt;Node18</title>
<path fill="none" stroke="midnightblue" d="M480.85,-240.59C481.88,-226.01 485.89,-196.91 501.5,-179 517.06,-161.14 541.15,-149.98 561.67,-143.24"/>
<polygon fill="midnightblue" stroke="midnightblue" points="562.86,-146.54 571.4,-140.27 560.82,-139.84 562.86,-146.54"/>
</g>
<!-- Node19 -->
<g id="node19" class="node">
<title>Node19</title>
<g id="a_node19"><a xlink:href="Operator_8h.html" target="_top" xlink:title=" ">
<polygon fill="white" stroke="black" points="371.5,-123.5 371.5,-142.5 535.5,-142.5 535.5,-123.5 371.5,-123.5"/>
<text text-anchor="middle" x="453.5" y="-130.5" font-family="Helvetica,sans-Serif" font-size="10.00">boomerang/ssl/exp/Operator.h</text>
</a>
</g>
</g>
<!-- Node16&#45;&gt;Node19 -->
<g id="edge21" class="edge">
<title>Node16&#45;&gt;Node19</title>
<path fill="none" stroke="midnightblue" d="M478.44,-240.93C476.04,-230.88 471.95,-213.74 468.5,-199 464.86,-183.48 460.8,-165.85 457.82,-152.87"/>
<polygon fill="midnightblue" stroke="midnightblue" points="461.17,-151.8 455.52,-142.84 454.34,-153.36 461.17,-151.8"/>
</g>
<!-- Node20 -->
<g id="node20" class="node">
<title>Node20</title>
<g id="a_node20"><a xlink:title=" ">
<polygon fill="white" stroke="#bfbfbf" points="510.5,-179.5 510.5,-198.5 562.5,-198.5 562.5,-179.5 510.5,-179.5"/>
<text text-anchor="middle" x="536.5" y="-186.5" font-family="Helvetica,sans-Serif" font-size="10.00">cassert</text>
</a>
</g>
</g>
<!-- Node16&#45;&gt;Node20 -->
<g id="edge25" class="edge">
<title>Node16&#45;&gt;Node20</title>
<path fill="none" stroke="midnightblue" d="M488.52,-240.98C497.09,-231.87 510.86,-217.24 521.46,-205.98"/>
<polygon fill="midnightblue" stroke="midnightblue" points="524.19,-208.19 528.49,-198.51 519.09,-203.39 524.19,-208.19"/>
</g>
<!-- Node16&#45;&gt;Node21 -->
<g id="edge26" class="edge">
<title>Node16&#45;&gt;Node21</title>
<path fill="none" stroke="midnightblue" d="M543.91,-240.98C618.79,-230.67 739.86,-213.21 800.36,-198.82"/>
<polygon fill="midnightblue" stroke="midnightblue" points="801.38,-202.18 810.23,-196.36 799.68,-195.38 801.38,-202.18"/>
</g>
<!-- Node22 -->
<g id="node22" class="node">
<title>Node22</title>
<g id="a_node22"><a xlink:title=" ">
<polygon fill="white" stroke="#bfbfbf" points="580.5,-179.5 580.5,-198.5 612.5,-198.5 612.5,-179.5 580.5,-179.5"/>
<text text-anchor="middle" x="596.5" y="-186.5" font-family="Helvetica,sans-Serif" font-size="10.00">set</text>
</a>
</g>
</g>
<!-- Node16&#45;&gt;Node22 -->
<g id="edge28" class="edge">
<title>Node16&#45;&gt;Node22</title>
<path fill="none" stroke="midnightblue" d="M497.12,-240.98C516.52,-231.02 548.82,-214.45 571.31,-202.92"/>
<polygon fill="midnightblue" stroke="midnightblue" points="572.98,-206 580.28,-198.32 569.79,-199.77 572.98,-206"/>
</g>
<!-- Node17&#45;&gt;Node7 -->
<g id="edge19" class="edge">
<title>Node17&#45;&gt;Node7</title>
<path fill="none" stroke="midnightblue" d="M704.46,-179.21C692.52,-164.94 666.81,-136.95 638.5,-123 583.25,-95.77 514.82,-83.19 461.34,-77.39"/>
<polygon fill="midnightblue" stroke="midnightblue" points="461.5,-73.89 451.19,-76.36 460.79,-80.86 461.5,-73.89"/>
</g>
<!-- Node17&#45;&gt;Node18 -->
<g id="edge20" class="edge">
<title>Node17&#45;&gt;Node18</title>
<path fill="none" stroke="midnightblue" d="M693.67,-179.32C675.78,-170.62 648.02,-157.12 627.45,-147.11"/>
<polygon fill="midnightblue" stroke="midnightblue" points="628.81,-143.88 618.29,-142.65 625.75,-150.18 628.81,-143.88"/>
</g>
<!-- Node19&#45;&gt;Node7 -->
<g id="edge22" class="edge">
<title>Node19&#45;&gt;Node7</title>
<path fill="none" stroke="midnightblue" d="M442.04,-123.48C431.3,-115.49 414.85,-103.25 400.75,-92.77"/>
<polygon fill="midnightblue" stroke="midnightblue" points="402.47,-89.68 392.35,-86.52 398.29,-95.3 402.47,-89.68"/>
</g>
<!-- Node24 -->
<g id="node24" class="node">
<title>Node24</title>
<g id="a_node24"><a xlink:href="Assignment_8h.html" target="_top" xlink:title=" ">
<polygon fill="white" stroke="black" points="603,-369.5 603,-399.5 750,-399.5 750,-369.5 603,-369.5"/>
<text text-anchor="start" x="611" y="-387.5" font-family="Helvetica,sans-Serif" font-size="10.00">boomerang/ssl/statements</text>
<text text-anchor="middle" x="676.5" y="-376.5" font-family="Helvetica,sans-Serif" font-size="10.00">/Assignment.h</text>
</a>
</g>
</g>
<!-- Node23&#45;&gt;Node24 -->
<g id="edge31" class="edge">
<title>Node23&#45;&gt;Node24</title>
<path fill="none" stroke="midnightblue" d="M676.5,-436.4C676.5,-428.64 676.5,-418.81 676.5,-409.86"/>
<polygon fill="midnightblue" stroke="midnightblue" points="680,-409.58 676.5,-399.58 673,-409.58 680,-409.58"/>
</g>
<!-- Node25 -->
<g id="node25" class="node">
<title>Node25</title>
<g id="a_node25"><a xlink:href="TypingStatement_8h.html" target="_top" xlink:title=" ">
<polygon fill="white" stroke="black" points="603,-302.5 603,-332.5 750,-332.5 750,-302.5 603,-302.5"/>
<text text-anchor="start" x="611" y="-320.5" font-family="Helvetica,sans-Serif" font-size="10.00">boomerang/ssl/statements</text>
<text text-anchor="middle" x="676.5" y="-309.5" font-family="Helvetica,sans-Serif" font-size="10.00">/TypingStatement.h</text>
</a>
</g>
</g>
<!-- Node24&#45;&gt;Node25 -->
<g id="edge32" class="edge">
<title>Node24&#45;&gt;Node25</title>
<path fill="none" stroke="midnightblue" d="M676.5,-369.4C676.5,-361.64 676.5,-351.81 676.5,-342.86"/>
<polygon fill="midnightblue" stroke="midnightblue" points="680,-342.58 676.5,-332.58 673,-342.58 680,-342.58"/>
</g>
<!-- Node26 -->
<g id="node26" class="node">
<title>Node26</title>
<g id="a_node26"><a xlink:href="Statement_8h.html" target="_top" xlink:title=" ">
<polygon fill="white" stroke="black" points="603,-235.5 603,-265.5 750,-265.5 750,-235.5 603,-235.5"/>
<text text-anchor="start" x="611" y="-253.5" font-family="Helvetica,sans-Serif" font-size="10.00">boomerang/ssl/statements</text>
<text text-anchor="middle" x="676.5" y="-242.5" font-family="Helvetica,sans-Serif" font-size="10.00">/Statement.h</text>
</a>
</g>
</g>
<!-- Node25&#45;&gt;Node26 -->
<g id="edge33" class="edge">
<title>Node25&#45;&gt;Node26</title>
<path fill="none" stroke="midnightblue" d="M676.5,-302.4C676.5,-294.64 676.5,-284.81 676.5,-275.86"/>
<polygon fill="midnightblue" stroke="midnightblue" points="680,-275.58 676.5,-265.58 673,-275.58 680,-275.58"/>
</g>
<!-- Node26&#45;&gt;Node6 -->
<g id="edge35" class="edge">
<title>Node26&#45;&gt;Node6</title>
<path fill="none" stroke="midnightblue" d="M602.8,-238.72C527.42,-227.71 411.28,-210.73 337.9,-200"/>
<polygon fill="midnightblue" stroke="midnightblue" points="338.24,-196.51 327.84,-198.53 337.22,-203.44 338.24,-196.51"/>
</g>
<!-- Node26&#45;&gt;Node17 -->
<g id="edge34" class="edge">
<title>Node26&#45;&gt;Node17</title>
<path fill="none" stroke="midnightblue" d="M684.79,-235.4C689.72,-227.02 696.01,-216.33 701.25,-207.42"/>
<polygon fill="midnightblue" stroke="midnightblue" points="704.35,-209.05 706.41,-198.66 698.32,-205.5 704.35,-209.05"/>
</g>
<!-- Node26&#45;&gt;Node21 -->
<g id="edge36" class="edge">
<title>Node26&#45;&gt;Node21</title>
<path fill="none" stroke="midnightblue" d="M712.05,-235.4C739.46,-224.53 776.7,-209.75 801.15,-200.05"/>
<polygon fill="midnightblue" stroke="midnightblue" points="802.47,-203.3 810.47,-196.36 799.89,-196.79 802.47,-203.3"/>
</g>
<!-- Node27 -->
<g id="node27" class="node">
<title>Node27</title>
<g id="a_node27"><a xlink:title=" ">
<polygon fill="white" stroke="#bfbfbf" points="860.5,-179.5 860.5,-198.5 898.5,-198.5 898.5,-179.5 860.5,-179.5"/>
<text text-anchor="middle" x="879.5" y="-186.5" font-family="Helvetica,sans-Serif" font-size="10.00">map</text>
</a>
</g>
</g>
<!-- Node26&#45;&gt;Node27 -->
<g id="edge37" class="edge">
<title>Node26&#45;&gt;Node27</title>
<path fill="none" stroke="midnightblue" d="M726.78,-235.42C759.56,-226.15 803.5,-213.53 850.49,-199.25"/>
<polygon fill="midnightblue" stroke="midnightblue" points="851.7,-202.54 860.24,-196.27 849.66,-195.84 851.7,-202.54"/>
</g>
<!-- Node29&#45;&gt;Node6 -->
<g id="edge46" class="edge">
<title>Node29&#45;&gt;Node6</title>
<path fill="none" stroke="midnightblue" d="M844.29,-242.05C717.74,-230.59 476.67,-208.76 350.72,-197.36"/>
<polygon fill="midnightblue" stroke="midnightblue" points="351.02,-193.87 340.75,-196.45 350.39,-200.84 351.02,-193.87"/>
</g>
<!-- Node29&#45;&gt;Node17 -->
<g id="edge45" class="edge">
<title>Node29&#45;&gt;Node17</title>
<path fill="none" stroke="midnightblue" d="M895.7,-240.98C857.94,-230.53 793.84,-212.79 752.09,-201.23"/>
<polygon fill="midnightblue" stroke="midnightblue" points="752.82,-197.8 742.25,-198.51 750.95,-204.55 752.82,-197.8"/>
</g>
<!-- Node29&#45;&gt;Node18 -->
<g id="edge51" class="edge">
<title>Node29&#45;&gt;Node18</title>
<path fill="none" stroke="midnightblue" d="M926.96,-240.57C927.21,-225.43 925.31,-194.83 907.5,-179 868.59,-144.42 713.49,-136.41 639.79,-134.55"/>
<polygon fill="midnightblue" stroke="midnightblue" points="639.6,-131.05 629.52,-134.32 639.44,-138.05 639.6,-131.05"/>
</g>
<!-- Node29&#45;&gt;Node21 -->
<g id="edge49" class="edge">
<title>Node29&#45;&gt;Node21</title>
<path fill="none" stroke="midnightblue" d="M912.17,-240.98C895.84,-231.25 868.9,-215.23 849.59,-203.74"/>
<polygon fill="midnightblue" stroke="midnightblue" points="851.18,-200.61 840.8,-198.51 847.61,-206.63 851.18,-200.61"/>
</g>
<!-- Node29&#45;&gt;Node27 -->
<g id="edge50" class="edge">
<title>Node29&#45;&gt;Node27</title>
<path fill="none" stroke="midnightblue" d="M919.77,-240.98C912.72,-232.05 901.47,-217.81 892.65,-206.64"/>
<polygon fill="midnightblue" stroke="midnightblue" points="895.17,-204.19 886.22,-198.51 889.67,-208.53 895.17,-204.19"/>
</g>
<!-- Node30 -->
<g id="node30" class="node">
<title>Node30</title>
<g id="a_node30"><a xlink:href="MapIterators_8h.html" target="_top" xlink:title=" ">
<polygon fill="white" stroke="black" points="955,-179.5 955,-198.5 1120,-198.5 1120,-179.5 955,-179.5"/>
<text text-anchor="middle" x="1037.5" y="-186.5" font-family="Helvetica,sans-Serif" font-size="10.00">boomerang/util/MapIterators.h</text>
</a>
</g>
</g>
<!-- Node29&#45;&gt;Node30 -->
<g id="edge47" class="edge">
<title>Node29&#45;&gt;Node30</title>
<path fill="none" stroke="midnightblue" d="M942.4,-240.98C960.78,-231.12 991.26,-214.79 1012.74,-203.27"/>
<polygon fill="midnightblue" stroke="midnightblue" points="1014.47,-206.32 1021.63,-198.51 1011.16,-200.15 1014.47,-206.32"/>
</g>
<!-- Node31 -->
<g id="node31" class="node">
<title>Node31</title>
<g id="a_node31"><a xlink:title=" ">
<polygon fill="white" stroke="#bfbfbf" points="1011,-123.5 1011,-142.5 1064,-142.5 1064,-123.5 1011,-123.5"/>
<text text-anchor="middle" x="1037.5" y="-130.5" font-family="Helvetica,sans-Serif" font-size="10.00">iterator</text>
</a>
</g>
</g>
<!-- Node30&#45;&gt;Node31 -->
<g id="edge48" class="edge">
<title>Node30&#45;&gt;Node31</title>
<path fill="none" stroke="midnightblue" d="M1037.5,-179.08C1037.5,-172.01 1037.5,-161.86 1037.5,-152.99"/>
<polygon fill="midnightblue" stroke="midnightblue" points="1041,-152.75 1037.5,-142.75 1034,-152.75 1041,-152.75"/>
</g>
<!-- Node32&#45;&gt;Node4 -->
<g id="edge56" class="edge">
<title>Node32&#45;&gt;Node4</title>
<path fill="none" stroke="midnightblue" d="M118.5,-235.4C118.5,-227.47 118.5,-217.46 118.5,-208.86"/>
<polygon fill="midnightblue" stroke="midnightblue" points="122,-208.66 118.5,-198.66 115,-208.66 122,-208.66"/>
</g>
<!-- Node32&#45;&gt;Node6 -->
<g id="edge53" class="edge">
<title>Node32&#45;&gt;Node6</title>
<path fill="none" stroke="midnightblue" d="M154.28,-235.4C179.73,-225.37 213.6,-212.03 238.02,-202.4"/>
<polygon fill="midnightblue" stroke="midnightblue" points="239.51,-205.58 247.53,-198.66 236.94,-199.07 239.51,-205.58"/>
</g>
<!-- Node32&#45;&gt;Node9 -->
<g id="edge54" class="edge">
<title>Node32&#45;&gt;Node9</title>
<path fill="none" stroke="midnightblue" d="M102.53,-235.23C93.23,-225.91 82.24,-212.91 76.5,-199 61.7,-163.13 62.05,-116.77 63.72,-91.32"/>
<polygon fill="midnightblue" stroke="midnightblue" points="67.22,-91.45 64.52,-81.2 60.24,-90.89 67.22,-91.45"/>
</g>
<!-- Node32&#45;&gt;Node18 -->
<g id="edge55" class="edge">
<title>Node32&#45;&gt;Node18</title>
<path fill="none" stroke="midnightblue" d="M103.22,-235.31C88.45,-219.93 70.36,-195.37 85.5,-179 120.23,-141.44 493.7,-149.06 544.5,-143 550,-142.34 555.79,-141.54 561.47,-140.69"/>
<polygon fill="midnightblue" stroke="midnightblue" points="562.16,-144.12 571.5,-139.12 561.08,-137.21 562.16,-144.12"/>
</g>
</g>
</svg>
        <g id="navigator" transform="translate(0 0)" fill="#404254">
                <rect fill="#f2f5e9" fill-opacity="0.5" stroke="#606060" stroke-width=".5" x="0" y="0" width="60" height="60"/>
                <use id="zoomplus" xlink:href="#zoomPlus" x="17" y="9" onmousedown="handleZoom(evt,'in')"/>
                <use id="zoomminus" xlink:href="#zoomMin" x="42" y="9" onmousedown="handleZoom(evt,'out')"/>
                <use id="reset" xlink:href="#resetDef" x="30" y="36" onmousedown="handleReset()"/>
                <g id="arrowUp" xlink:href="#dirArrow" transform="translate(30 24)" onmousedown="handlePan(0,-1)">
                  <use xlink:href="#rim" fill="#404040">
                        <set attributeName="fill" to="#808080" begin="arrowUp.mouseover" end="arrowUp.mouseout"/>
                  </use>
                  <path fill="none" stroke="white" stroke-width="1.5" d="M0,-3.0v7 M-2.5,-0.5L0,-3.0L2.5,-0.5"/>
                </g>
                <g id="arrowRight" xlink:href="#dirArrow" transform="rotate(90) translate(36 -43)" onmousedown="handlePan(1,0)">
                  <use xlink:href="#rim" fill="#404040">
                        <set attributeName="fill" to="#808080" begin="arrowRight.mouseover" end="arrowRight.mouseout"/>
                  </use>
                  <path fill="none" stroke="white" stroke-width="1.5" d="M0,-3.0v7 M-2.5,-0.5L0,-3.0L2.5,-0.5"/>
                </g>
                <g id="arrowDown" xlink:href="#dirArrow" transform="rotate(180) translate(-30 -48)" onmousedown="handlePan(0,1)">
                  <use xlink:href="#rim" fill="#404040">
                        <set attributeName="fill" to="#808080" begin="arrowDown.mouseover" end="arrowDown.mouseout"/>
                  </use>
                  <path fill="none" stroke="white" stroke-width="1.5" d="M0,-3.0v7 M-2.5,-0.5L0,-3.0L2.5,-0.5"/>
                </g>
                <g id="arrowLeft" xlink:href="#dirArrow" transform="rotate(270) translate(-36 17)" onmousedown="handlePan(-1,0)">
                  <use xlink:href="#rim" fill="#404040">
                        <set attributeName="fill" to="#808080" begin="arrowLeft.mouseover" end="arrowLeft.mouseout"/>
                  </use>
                  <path fill="none" stroke="white" stroke-width="1.5" d="M0,-3.0v7 M-2.5,-0.5L0,-3.0L2.5,-0.5"/>
                </g>
        </g>
        <svg viewBox="0 0 15 15" width="100%" height="30px" preserveAspectRatio="xMaxYMin meet">
         <g id="arrow_out" transform="scale(0.3 0.3)">
          <a xlink:href="ControlFlowAnalyzer_8cpp__incl_org.svg" target="_base">
           <rect id="button" ry="5" rx="5" y="6" x="6" height="38" width="38"
                fill="#f2f5e9" fill-opacity="0.5" stroke="#606060" stroke-width="1.0"/>
           <path id="arrow"
             d="M 11.500037,31.436501 C 11.940474,20.09759 22.043105,11.32322 32.158766,21.979434 L 37.068811,17.246167 C 37.068811,17.246167 37.088388,32 37.088388,32 L 22.160133,31.978069 C 22.160133,31.978069 26.997745,27.140456 26.997745,27.140456 C 18.528582,18.264221 13.291696,25.230495 11.500037,31.436501 z"
             style="fill:#404040;"/>
          </a>
         </g>
        </svg>
</svg>
