<?xml version="1.0" encoding="UTF-8" standalone="no"?>
<!DOCTYPE svg PUBLIC "-//W3C//DTD SVG 1.1//EN"
 "http://www.w3.org/Graphics/SVG/1.1/DTD/svg11.dtd">
<!-- Generated by graphviz version 2.43.0 (0)
 -->
<!-- Title: DataFlow.h Pages: 1 -->
<!--zoomable 207 -->
<svg id="main" version="1.1" xmlns="http://www.w3.org/2000/svg" xmlns:xlink="http://www.w3.org/1999/xlink" xml:space="preserve" onload="init(evt)">
<style type="text/css"><![CDATA[
.edge:hover path { stroke: red; }
.edge:hover polygon { stroke: red; fill: red; }
]]></style>
<script type="text/javascript"><![CDATA[
var edges = document.getElementsByTagName('g');
if (edges && edges.length) {
  for (var i=0;i<edges.length;i++) {
    if (edges[i].id.substr(0,4)=='edge') {
      edges[i].setAttribute('class','edge');
    }
  }
}
]]></script>
        <defs>
                <circle id="rim" cx="0" cy="0" r="7"/>
                <circle id="rim2" cx="0" cy="0" r="3.5"/>
                <g id="zoomPlus">
                        <use xlink:href="#rim" fill="#404040">
                                <set attributeName="fill" to="#808080" begin="zoomplus.mouseover" end="zoomplus.mouseout"/>
                        </use>
                        <path d="M-4,0h8M0,-4v8" fill="none" stroke="white" stroke-width="1.5" pointer-events="none"/>
                </g>
                <g id="zoomMin">
                        <use xlink:href="#rim" fill="#404040">
                                <set attributeName="fill" to="#808080" begin="zoomminus.mouseover" end="zoomminus.mouseout"/>
                        </use>
                        <path d="M-4,0h8" fill="none" stroke="white" stroke-width="1.5" pointer-events="none"/>
                </g>
                <g id="dirArrow">
                        <path fill="none" stroke="white" stroke-width="1.5" d="M0,-3.0v7 M-2.5,-0.5L0,-3.0L2.5,-0.5"/>
                </g>
               <g id="resetDef">
                       <use xlink:href="#rim2" fill="#404040">
                               <set attributeName="fill" to="#808080" begin="reset.mouseover" end="reset.mouseout"/>
                       </use>
               </g>
        </defs>

<script type="text/javascript">
var viewWidth = 6915;
var viewHeight = 207;
var sectionId = 'dynsection-1';
</script>
<script xlink:href="svgpan.js"/>
<svg id="graph" class="graph">
<g id="viewport">
<title>DataFlow.h</title>
<polygon fill="white" stroke="transparent" points="-4,4 -4,-203 6911,-203 6911,4 -4,4"/>
<!-- Node1 -->
<g id="node1" class="node">
<title>Node1</title>
<g id="a_node1"><a xlink:title=" ">
<polygon fill="#bfbfbf" stroke="black" points="1453,-179.5 1453,-198.5 1524,-198.5 1524,-179.5 1453,-179.5"/>
<text text-anchor="middle" x="1488.5" y="-186.5" font-family="Helvetica,sans-Serif" font-size="10.00">DataFlow.h</text>
</a>
</g>
</g>
<!-- Node2 -->
<g id="node2" class="node">
<title>Node2</title>
<g id="a_node2"><a xlink:href="UserProc_8h.html" target="_top" xlink:title=" ">
<polygon fill="white" stroke="red" points="2901,-123.5 2901,-142.5 2970,-142.5 2970,-123.5 2901,-123.5"/>
<text text-anchor="middle" x="2935.5" y="-130.5" font-family="Helvetica,sans-Serif" font-size="10.00">UserProc.h</text>
</a>
</g>
</g>
<!-- Node1&#45;&gt;Node2 -->
<g id="edge1" class="edge">
<title>Node1&#45;&gt;Node2</title>
<path fill="none" stroke="midnightblue" d="M1534.55,-186.28C1755.83,-178.02 2707.24,-142.52 2900.98,-135.29"/>
<polygon fill="midnightblue" stroke="midnightblue" points="1534.13,-182.79 1524.27,-186.67 1534.39,-189.79 1534.13,-182.79"/>
</g>
<!-- Node4 -->
<g id="node4" class="node">
<title>Node4</title>
<g id="a_node4"><a xlink:href="DataFlow_8cpp.html" target="_top" xlink:title=" ">
<polygon fill="white" stroke="black" points="0,-62 0,-81 83,-81 83,-62 0,-62"/>
<text text-anchor="middle" x="41.5" y="-69" font-family="Helvetica,sans-Serif" font-size="10.00">DataFlow.cpp</text>
</a>
</g>
</g>
<!-- Node1&#45;&gt;Node4 -->
<g id="edge51" class="edge">
<title>Node1&#45;&gt;Node4</title>
<path fill="none" stroke="midnightblue" d="M1442.65,-188.07C1266.5,-187.65 616.92,-179.51 92.5,-87 84.34,-85.56 75.62,-83.34 67.73,-81.07"/>
<polygon fill="midnightblue" stroke="midnightblue" points="1442.84,-191.58 1452.84,-188.09 1442.85,-184.58 1442.84,-191.58"/>
</g>
<!-- Node3 -->
<g id="node3" class="node">
<title>Node3</title>
<g id="a_node3"><a xlink:href="BasicBlock_8cpp.html" target="_top" xlink:title=" ">
<polygon fill="white" stroke="black" points="101.5,-62 101.5,-81 191.5,-81 191.5,-62 101.5,-62"/>
<text text-anchor="middle" x="146.5" y="-69" font-family="Helvetica,sans-Serif" font-size="10.00">BasicBlock.cpp</text>
</a>
</g>
</g>
<!-- Node2&#45;&gt;Node3 -->
<g id="edge2" class="edge">
<title>Node2&#45;&gt;Node3</title>
<path fill="none" stroke="midnightblue" d="M2890.27,-131.91C2556.32,-131.19 478.15,-125.17 201.5,-87 192.3,-85.73 182.45,-83.44 173.65,-81.05"/>
<polygon fill="midnightblue" stroke="midnightblue" points="2890.52,-135.41 2900.53,-131.94 2890.54,-128.41 2890.52,-135.41"/>
</g>
<!-- Node2&#45;&gt;Node4 -->
<g id="edge3" class="edge">
<title>Node2&#45;&gt;Node4</title>
<path fill="none" stroke="midnightblue" d="M2890.97,-131.63C2540.56,-128.65 236.86,-108.29 92.5,-87 83.94,-85.74 74.79,-83.45 66.64,-81.05"/>
<polygon fill="midnightblue" stroke="midnightblue" points="2890.96,-135.13 2900.99,-131.71 2891.02,-128.13 2890.96,-135.13"/>
</g>
<!-- Node5 -->
<g id="node5" class="node">
<title>Node5</title>
<g id="a_node5"><a xlink:href="DebugInfo_8cpp.html" target="_top" xlink:title=" ">
<polygon fill="white" stroke="black" points="210,-62 210,-81 297,-81 297,-62 210,-62"/>
<text text-anchor="middle" x="253.5" y="-69" font-family="Helvetica,sans-Serif" font-size="10.00">DebugInfo.cpp</text>
</a>
</g>
</g>
<!-- Node2&#45;&gt;Node5 -->
<g id="edge4" class="edge">
<title>Node2&#45;&gt;Node5</title>
<path fill="none" stroke="midnightblue" d="M2890.51,-131.91C2564.69,-131.15 571.94,-124.97 306.5,-87 297.62,-85.73 288.12,-83.44 279.65,-81.05"/>
<polygon fill="midnightblue" stroke="midnightblue" points="2890.95,-135.41 2900.96,-131.93 2890.97,-128.41 2890.95,-135.41"/>
</g>
<!-- Node6 -->
<g id="node6" class="node">
<title>Node6</title>
<g id="a_node6"><a xlink:href="Module_8cpp.html" target="_top" xlink:title=" ">
<polygon fill="white" stroke="black" points="315,-62 315,-81 388,-81 388,-62 315,-62"/>
<text text-anchor="middle" x="351.5" y="-69" font-family="Helvetica,sans-Serif" font-size="10.00">Module.cpp</text>
</a>
</g>
</g>
<!-- Node2&#45;&gt;Node6 -->
<g id="edge5" class="edge">
<title>Node2&#45;&gt;Node6</title>
<path fill="none" stroke="midnightblue" d="M2890.47,-131.57C2560.54,-128.37 525.38,-107.84 397.5,-87 389.73,-85.73 381.47,-83.44 374.12,-81.05"/>
<polygon fill="midnightblue" stroke="midnightblue" points="2890.58,-135.07 2900.61,-131.67 2890.65,-128.07 2890.58,-135.07"/>
</g>
<!-- Node7 -->
<g id="node7" class="node">
<title>Node7</title>
<g id="a_node7"><a xlink:href="ProcCFG_8cpp.html" target="_top" xlink:title=" ">
<polygon fill="white" stroke="black" points="406.5,-62 406.5,-81 484.5,-81 484.5,-62 406.5,-62"/>
<text text-anchor="middle" x="445.5" y="-69" font-family="Helvetica,sans-Serif" font-size="10.00">ProcCFG.cpp</text>
</a>
</g>
</g>
<!-- Node2&#45;&gt;Node7 -->
<g id="edge6" class="edge">
<title>Node2&#45;&gt;Node7</title>
<path fill="none" stroke="midnightblue" d="M2890.43,-131.84C2578.31,-130.66 743.64,-122.23 498.5,-87 489.62,-85.72 480.12,-83.43 471.65,-81.04"/>
<polygon fill="midnightblue" stroke="midnightblue" points="2890.87,-135.34 2900.88,-131.88 2890.89,-128.34 2890.87,-135.34"/>
</g>
<!-- Node8 -->
<g id="node8" class="node">
<title>Node8</title>
<g id="a_node8"><a xlink:href="UserProc_8cpp.html" target="_top" xlink:title=" ">
<polygon fill="white" stroke="black" points="512.5,-0.5 512.5,-19.5 592.5,-19.5 592.5,-0.5 512.5,-0.5"/>
<text text-anchor="middle" x="552.5" y="-7.5" font-family="Helvetica,sans-Serif" font-size="10.00">UserProc.cpp</text>
</a>
</g>
</g>
<!-- Node2&#45;&gt;Node8 -->
<g id="edge7" class="edge">
<title>Node2&#45;&gt;Node8</title>
<path fill="none" stroke="midnightblue" d="M2890.33,-132.02C2563.73,-132.1 575.42,-130.73 532.5,-87 514.25,-68.4 534.36,-35.25 545.76,-19.61"/>
<polygon fill="midnightblue" stroke="midnightblue" points="2890.81,-135.52 2900.81,-132.02 2890.81,-128.52 2890.81,-135.52"/>
</g>
<!-- Node9 -->
<g id="node9" class="node">
<title>Node9</title>
<g id="a_node9"><a xlink:href="ProcDecompiler_8h.html" target="_top" xlink:title=" ">
<polygon fill="white" stroke="red" points="541,-62 541,-81 644,-81 644,-62 541,-62"/>
<text text-anchor="middle" x="592.5" y="-69" font-family="Helvetica,sans-Serif" font-size="10.00">ProcDecompiler.h</text>
</a>
</g>
</g>
<!-- Node2&#45;&gt;Node9 -->
<g id="edge8" class="edge">
<title>Node2&#45;&gt;Node9</title>
<path fill="none" stroke="midnightblue" d="M2890.96,-131.69C2592.06,-129.57 882.95,-116.19 653.5,-87 643.35,-85.71 632.43,-83.41 622.67,-81.02"/>
<polygon fill="midnightblue" stroke="midnightblue" points="2890.97,-135.19 2900.99,-131.77 2891.02,-128.19 2890.97,-135.19"/>
</g>
<!-- Node11 -->
<g id="node10" class="node">
<title>Node11</title>
<g id="a_node10"><a xlink:href="Prog_8cpp.html" target="_top" xlink:title=" ">
<polygon fill="white" stroke="black" points="662,-62 662,-81 721,-81 721,-62 662,-62"/>
<text text-anchor="middle" x="691.5" y="-69" font-family="Helvetica,sans-Serif" font-size="10.00">Prog.cpp</text>
</a>
</g>
</g>
<!-- Node2&#45;&gt;Node11 -->
<g id="edge10" class="edge">
<title>Node2&#45;&gt;Node11</title>
<path fill="none" stroke="midnightblue" d="M2890.59,-131.99C2596.4,-131.77 949.59,-128.72 730.5,-87 723.83,-85.73 716.8,-83.44 710.57,-81.04"/>
<polygon fill="midnightblue" stroke="midnightblue" points="2890.87,-135.49 2900.87,-131.99 2890.88,-128.49 2890.87,-135.49"/>
</g>
<!-- Node12 -->
<g id="node11" class="node">
<title>Node12</title>
<g id="a_node11"><a xlink:href="PentiumSignature_8cpp.html" target="_top" xlink:title=" ">
<polygon fill="white" stroke="black" points="739.5,-62 739.5,-81 863.5,-81 863.5,-62 739.5,-62"/>
<text text-anchor="middle" x="801.5" y="-69" font-family="Helvetica,sans-Serif" font-size="10.00">PentiumSignature.cpp</text>
</a>
</g>
</g>
<!-- Node2&#45;&gt;Node12 -->
<g id="edge11" class="edge">
<title>Node2&#45;&gt;Node12</title>
<path fill="none" stroke="midnightblue" d="M2890.57,-132.12C2627.35,-132.64 1282.9,-133.01 872.5,-87 860.87,-85.7 848.32,-83.43 837.06,-81.06"/>
<polygon fill="midnightblue" stroke="midnightblue" points="2890.89,-135.62 2900.89,-132.1 2890.88,-128.62 2890.89,-135.62"/>
</g>
<!-- Node13 -->
<g id="node12" class="node">
<title>Node13</title>
<g id="a_node12"><a xlink:href="PPCSignature_8cpp.html" target="_top" xlink:title=" ">
<polygon fill="white" stroke="black" points="881.5,-62 881.5,-81 983.5,-81 983.5,-62 881.5,-62"/>
<text text-anchor="middle" x="932.5" y="-69" font-family="Helvetica,sans-Serif" font-size="10.00">PPCSignature.cpp</text>
</a>
</g>
</g>
<!-- Node2&#45;&gt;Node13 -->
<g id="edge12" class="edge">
<title>Node2&#45;&gt;Node13</title>
<path fill="none" stroke="midnightblue" d="M2890.39,-132.24C2635.91,-133.41 1377.64,-136.55 993.5,-87 983.46,-85.71 972.66,-83.44 962.99,-81.07"/>
<polygon fill="midnightblue" stroke="midnightblue" points="2890.74,-135.74 2900.73,-132.19 2890.71,-128.74 2890.74,-135.74"/>
</g>
<!-- Node14 -->
<g id="node13" class="node">
<title>Node14</title>
<g id="a_node13"><a xlink:href="Signature_8cpp.html" target="_top" xlink:title=" ">
<polygon fill="white" stroke="black" points="1002,-62 1002,-81 1085,-81 1085,-62 1002,-62"/>
<text text-anchor="middle" x="1043.5" y="-69" font-family="Helvetica,sans-Serif" font-size="10.00">Signature.cpp</text>
</a>
</g>
</g>
<!-- Node2&#45;&gt;Node14 -->
<g id="edge13" class="edge">
<title>Node2&#45;&gt;Node14</title>
<path fill="none" stroke="midnightblue" d="M2890.38,-131.58C2625.37,-129.01 1276.79,-114.68 1094.5,-87 1085.95,-85.7 1076.8,-83.4 1068.64,-81.01"/>
<polygon fill="midnightblue" stroke="midnightblue" points="2890.73,-135.08 2900.76,-131.68 2890.8,-128.08 2890.73,-135.08"/>
</g>
<!-- Node15 -->
<g id="node14" class="node">
<title>Node15</title>
<g id="a_node14"><a xlink:href="SPARCSignature_8cpp.html" target="_top" xlink:title=" ">
<polygon fill="white" stroke="black" points="1103.5,-62 1103.5,-81 1219.5,-81 1219.5,-62 1103.5,-62"/>
<text text-anchor="middle" x="1161.5" y="-69" font-family="Helvetica,sans-Serif" font-size="10.00">SPARCSignature.cpp</text>
</a>
</g>
</g>
<!-- Node2&#45;&gt;Node15 -->
<g id="edge14" class="edge">
<title>Node2&#45;&gt;Node15</title>
<path fill="none" stroke="midnightblue" d="M2890.76,-131.93C2656.05,-131.41 1564.9,-126.84 1229.5,-87 1218.35,-85.68 1206.33,-83.4 1195.54,-81.04"/>
<polygon fill="midnightblue" stroke="midnightblue" points="2890.96,-135.43 2900.97,-131.95 2890.98,-128.43 2890.96,-135.43"/>
</g>
<!-- Node16 -->
<g id="node15" class="node">
<title>Node16</title>
<g id="a_node15"><a xlink:href="ST20Signature_8cpp.html" target="_top" xlink:title=" ">
<polygon fill="white" stroke="black" points="1238,-62 1238,-81 1345,-81 1345,-62 1238,-62"/>
<text text-anchor="middle" x="1291.5" y="-69" font-family="Helvetica,sans-Serif" font-size="10.00">ST20Signature.cpp</text>
</a>
</g>
</g>
<!-- Node2&#45;&gt;Node16 -->
<g id="edge15" class="edge">
<title>Node2&#45;&gt;Node16</title>
<path fill="none" stroke="midnightblue" d="M2890.83,-131.92C2666.73,-131.34 1663.5,-126.56 1354.5,-87 1344.15,-85.67 1333,-83.4 1323.01,-81.04"/>
<polygon fill="midnightblue" stroke="midnightblue" points="2890.9,-135.42 2900.91,-131.95 2890.92,-128.42 2890.9,-135.42"/>
</g>
<!-- Node17 -->
<g id="node16" class="node">
<title>Node17</title>
<g id="a_node16"><a xlink:href="Win32Signature_8cpp.html" target="_top" xlink:title=" ">
<polygon fill="white" stroke="black" points="1363.5,-62 1363.5,-81 1477.5,-81 1477.5,-62 1363.5,-62"/>
<text text-anchor="middle" x="1420.5" y="-69" font-family="Helvetica,sans-Serif" font-size="10.00">Win32Signature.cpp</text>
</a>
</g>
</g>
<!-- Node2&#45;&gt;Node17 -->
<g id="edge16" class="edge">
<title>Node2&#45;&gt;Node17</title>
<path fill="none" stroke="midnightblue" d="M2890.56,-131.71C2677.64,-130.14 1768.9,-121.53 1487.5,-87 1476.51,-85.65 1464.67,-83.37 1454.04,-81.01"/>
<polygon fill="midnightblue" stroke="midnightblue" points="2890.72,-135.21 2900.75,-131.78 2890.77,-128.21 2890.72,-135.21"/>
</g>
<!-- Node18 -->
<g id="node17" class="node">
<title>Node18</title>
<g id="a_node17"><a xlink:href="IndirectJumpAnalyzer_8cpp.html" target="_top" xlink:title=" ">
<polygon fill="white" stroke="black" points="1496,-62 1496,-81 1637,-81 1637,-62 1496,-62"/>
<text text-anchor="middle" x="1566.5" y="-69" font-family="Helvetica,sans-Serif" font-size="10.00">IndirectJumpAnalyzer.cpp</text>
</a>
</g>
</g>
<!-- Node2&#45;&gt;Node18 -->
<g id="edge17" class="edge">
<title>Node2&#45;&gt;Node18</title>
<path fill="none" stroke="midnightblue" d="M2890.81,-131.31C2693.04,-128.11 1895.44,-113.76 1646.5,-87 1633.59,-85.61 1619.63,-83.35 1607.03,-81.02"/>
<polygon fill="midnightblue" stroke="midnightblue" points="2890.79,-134.81 2900.84,-131.47 2890.9,-127.81 2890.79,-134.81"/>
</g>
<!-- Node19 -->
<g id="node18" class="node">
<title>Node19</title>
<g id="a_node18"><a xlink:href="InterferenceFinder_8cpp.html" target="_top" xlink:title=" ">
<polygon fill="white" stroke="black" points="1655,-62 1655,-81 1780,-81 1780,-62 1655,-62"/>
<text text-anchor="middle" x="1717.5" y="-69" font-family="Helvetica,sans-Serif" font-size="10.00">InterferenceFinder.cpp</text>
</a>
</g>
</g>
<!-- Node2&#45;&gt;Node19 -->
<g id="edge18" class="edge">
<title>Node2&#45;&gt;Node19</title>
<path fill="none" stroke="midnightblue" d="M2890.78,-131.2C2706.91,-127.75 2008.53,-113.19 1789.5,-87 1777.85,-85.61 1765.28,-83.34 1753.95,-81.01"/>
<polygon fill="midnightblue" stroke="midnightblue" points="2890.84,-134.7 2900.9,-131.39 2890.97,-127.7 2890.84,-134.7"/>
</g>
<!-- Node20 -->
<g id="node19" class="node">
<title>Node20</title>
<g id="a_node19"><a xlink:href="LivenessAnalyzer_8cpp.html" target="_top" xlink:title=" ">
<polygon fill="white" stroke="black" points="1798.5,-62 1798.5,-81 1920.5,-81 1920.5,-62 1798.5,-62"/>
<text text-anchor="middle" x="1859.5" y="-69" font-family="Helvetica,sans-Serif" font-size="10.00">LivenessAnalyzer.cpp</text>
</a>
</g>
</g>
<!-- Node2&#45;&gt;Node20 -->
<g id="edge19" class="edge">
<title>Node2&#45;&gt;Node20</title>
<path fill="none" stroke="midnightblue" d="M2890.57,-132.49C2748.9,-133.5 2299.14,-132.61 1930.5,-87 1919.14,-85.59 1906.88,-83.36 1895.8,-81.05"/>
<polygon fill="midnightblue" stroke="midnightblue" points="2890.65,-135.99 2900.62,-132.41 2890.59,-128.99 2890.65,-135.99"/>
</g>
<!-- Node21 -->
<g id="node20" class="node">
<title>Node21</title>
<g id="a_node20"><a xlink:href="ProgDecompiler_8cpp.html" target="_top" xlink:title=" ">
<polygon fill="white" stroke="black" points="1939,-62 1939,-81 2054,-81 2054,-62 1939,-62"/>
<text text-anchor="middle" x="1996.5" y="-69" font-family="Helvetica,sans-Serif" font-size="10.00">ProgDecompiler.cpp</text>
</a>
</g>
</g>
<!-- Node2&#45;&gt;Node21 -->
<g id="edge20" class="edge">
<title>Node2&#45;&gt;Node21</title>
<path fill="none" stroke="midnightblue" d="M2890.55,-132.23C2761.35,-132.36 2378.1,-128.88 2063.5,-87 2052.76,-85.57 2041.2,-83.33 2030.74,-81.02"/>
<polygon fill="midnightblue" stroke="midnightblue" points="2890.84,-135.73 2900.84,-132.22 2890.83,-128.73 2890.84,-135.73"/>
</g>
<!-- Node22 -->
<g id="node21" class="node">
<title>Node22</title>
<g id="a_node21"><a xlink:href="UnusedReturnRemover_8cpp.html" target="_top" xlink:title=" ">
<polygon fill="white" stroke="black" points="2072.5,-62 2072.5,-81 2222.5,-81 2222.5,-62 2072.5,-62"/>
<text text-anchor="middle" x="2147.5" y="-69" font-family="Helvetica,sans-Serif" font-size="10.00">UnusedReturnRemover.cpp</text>
</a>
</g>
</g>
<!-- Node2&#45;&gt;Node22 -->
<g id="edge21" class="edge">
<title>Node2&#45;&gt;Node22</title>
<path fill="none" stroke="midnightblue" d="M2890.74,-130.8C2779.12,-127.45 2479.53,-116.25 2231.5,-87 2218.57,-85.47 2204.6,-83.28 2191.84,-81.07"/>
<polygon fill="midnightblue" stroke="midnightblue" points="2890.85,-134.31 2900.95,-131.1 2891.06,-127.31 2890.85,-134.31"/>
</g>
<!-- Node23 -->
<g id="node22" class="node">
<title>Node23</title>
<g id="a_node22"><a xlink:href="DefaultFrontEnd_8cpp.html" target="_top" xlink:title=" ">
<polygon fill="white" stroke="black" points="2240.5,-62 2240.5,-81 2356.5,-81 2356.5,-62 2240.5,-62"/>
<text text-anchor="middle" x="2298.5" y="-69" font-family="Helvetica,sans-Serif" font-size="10.00">DefaultFrontEnd.cpp</text>
</a>
</g>
</g>
<!-- Node2&#45;&gt;Node23 -->
<g id="edge22" class="edge">
<title>Node2&#45;&gt;Node23</title>
<path fill="none" stroke="midnightblue" d="M2890.42,-130.44C2793.89,-126.67 2560.26,-115.2 2366.5,-87 2355.99,-85.47 2344.67,-83.28 2334.34,-81.06"/>
<polygon fill="midnightblue" stroke="midnightblue" points="2890.56,-133.95 2900.68,-130.84 2890.83,-126.96 2890.56,-133.95"/>
</g>
<!-- Node24 -->
<g id="node23" class="node">
<title>Node24</title>
<g id="a_node23"><a xlink:href="CallArgumentUpdatePass_8cpp.html" target="_top" xlink:title=" ">
<polygon fill="white" stroke="black" points="2375,-62 2375,-81 2536,-81 2536,-62 2375,-62"/>
<text text-anchor="middle" x="2455.5" y="-69" font-family="Helvetica,sans-Serif" font-size="10.00">CallArgumentUpdatePass.cpp</text>
</a>
</g>
</g>
<!-- Node2&#45;&gt;Node24 -->
<g id="edge23" class="edge">
<title>Node2&#45;&gt;Node24</title>
<path fill="none" stroke="midnightblue" d="M2890.58,-127.48C2817.92,-120.02 2670.18,-104.23 2545.5,-87 2532.64,-85.22 2518.79,-83.1 2505.9,-81.03"/>
<polygon fill="midnightblue" stroke="midnightblue" points="2890.43,-130.98 2900.74,-128.52 2891.15,-124.02 2890.43,-130.98"/>
</g>
<!-- Node25 -->
<g id="node24" class="node">
<title>Node25</title>
<g id="a_node24"><a xlink:href="CallDefineUpdatePass_8cpp.html" target="_top" xlink:title=" ">
<polygon fill="white" stroke="black" points="2554.5,-62 2554.5,-81 2700.5,-81 2700.5,-62 2554.5,-62"/>
<text text-anchor="middle" x="2627.5" y="-69" font-family="Helvetica,sans-Serif" font-size="10.00">CallDefineUpdatePass.cpp</text>
</a>
</g>
</g>
<!-- Node2&#45;&gt;Node25 -->
<g id="edge24" class="edge">
<title>Node2&#45;&gt;Node25</title>
<path fill="none" stroke="midnightblue" d="M2890.69,-123.34C2832.01,-112.01 2729.78,-92.26 2671.51,-81"/>
<polygon fill="midnightblue" stroke="midnightblue" points="2890.28,-126.83 2900.77,-125.29 2891.61,-119.96 2890.28,-126.83"/>
</g>
<!-- Node26 -->
<g id="node25" class="node">
<title>Node26</title>
<g id="a_node25"><a xlink:href="BlockVarRenamePass_8cpp.html" target="_top" xlink:title=" ">
<polygon fill="white" stroke="black" points="2719,-62 2719,-81 2862,-81 2862,-62 2719,-62"/>
<text text-anchor="middle" x="2790.5" y="-69" font-family="Helvetica,sans-Serif" font-size="10.00">BlockVarRenamePass.cpp</text>
</a>
</g>
</g>
<!-- Node2&#45;&gt;Node26 -->
<g id="edge25" class="edge">
<title>Node2&#45;&gt;Node26</title>
<path fill="none" stroke="midnightblue" d="M2905.36,-119.63C2877.19,-108.07 2835.88,-91.12 2811.24,-81.01"/>
<polygon fill="midnightblue" stroke="midnightblue" points="2904.14,-122.92 2914.73,-123.48 2906.8,-116.44 2904.14,-122.92"/>
</g>
<!-- Node27 -->
<g id="node26" class="node">
<title>Node27</title>
<g id="a_node26"><a xlink:href="DominatorPass_8cpp.html" target="_top" xlink:title=" ">
<polygon fill="white" stroke="black" points="2880,-62 2880,-81 2991,-81 2991,-62 2880,-62"/>
<text text-anchor="middle" x="2935.5" y="-69" font-family="Helvetica,sans-Serif" font-size="10.00">DominatorPass.cpp</text>
</a>
</g>
</g>
<!-- Node2&#45;&gt;Node27 -->
<g id="edge26" class="edge">
<title>Node2&#45;&gt;Node27</title>
<path fill="none" stroke="midnightblue" d="M2935.5,-113.32C2935.5,-102.5 2935.5,-89.4 2935.5,-81.01"/>
<polygon fill="midnightblue" stroke="midnightblue" points="2932,-113.48 2935.5,-123.48 2939,-113.48 2932,-113.48"/>
</g>
<!-- Node28 -->
<g id="node27" class="node">
<title>Node28</title>
<g id="a_node27"><a xlink:href="PhiPlacementPass_8cpp.html" target="_top" xlink:title=" ">
<polygon fill="white" stroke="black" points="3009.5,-62 3009.5,-81 3135.5,-81 3135.5,-62 3009.5,-62"/>
<text text-anchor="middle" x="3072.5" y="-69" font-family="Helvetica,sans-Serif" font-size="10.00">PhiPlacementPass.cpp</text>
</a>
</g>
</g>
<!-- Node2&#45;&gt;Node28 -->
<g id="edge27" class="edge">
<title>Node2&#45;&gt;Node28</title>
<path fill="none" stroke="midnightblue" d="M2964.33,-119.48C2990.94,-107.92 3029.73,-91.08 3052.91,-81.01"/>
<polygon fill="midnightblue" stroke="midnightblue" points="2962.91,-116.28 2955.13,-123.48 2965.7,-122.7 2962.91,-116.28"/>
</g>
<!-- Node29 -->
<g id="node28" class="node">
<title>Node29</title>
<g id="a_node28"><a xlink:href="BBSimplifyPass_8cpp.html" target="_top" xlink:title=" ">
<polygon fill="white" stroke="black" points="3154,-62 3154,-81 3267,-81 3267,-62 3154,-62"/>
<text text-anchor="middle" x="3210.5" y="-69" font-family="Helvetica,sans-Serif" font-size="10.00">BBSimplifyPass.cpp</text>
</a>
</g>
</g>
<!-- Node2&#45;&gt;Node29 -->
<g id="edge28" class="edge">
<title>Node2&#45;&gt;Node29</title>
<path fill="none" stroke="midnightblue" d="M2980.25,-122.42C3022.58,-113.35 3087.88,-99.32 3144.5,-87 3153.33,-85.08 3162.81,-83 3171.77,-81.04"/>
<polygon fill="midnightblue" stroke="midnightblue" points="2979.32,-119.04 2970.27,-124.56 2980.78,-125.89 2979.32,-119.04"/>
</g>
<!-- Node30 -->
<g id="node29" class="node">
<title>Node30</title>
<g id="a_node29"><a xlink:href="GlobalConstReplacePass_8cpp.html" target="_top" xlink:title=" ">
<polygon fill="white" stroke="black" points="3285.5,-62 3285.5,-81 3443.5,-81 3443.5,-62 3285.5,-62"/>
<text text-anchor="middle" x="3364.5" y="-69" font-family="Helvetica,sans-Serif" font-size="10.00">GlobalConstReplacePass.cpp</text>
</a>
</g>
</g>
<!-- Node2&#45;&gt;Node30 -->
<g id="edge29" class="edge">
<title>Node2&#45;&gt;Node30</title>
<path fill="none" stroke="midnightblue" d="M2980.36,-126.55C3045.62,-118.51 3170.53,-102.72 3276.5,-87 3288.75,-85.18 3301.94,-83.08 3314.28,-81.06"/>
<polygon fill="midnightblue" stroke="midnightblue" points="2979.9,-123.08 2970.41,-127.77 2980.76,-130.02 2979.9,-123.08"/>
</g>
<!-- Node31 -->
<g id="node30" class="node">
<title>Node31</title>
<g id="a_node30"><a xlink:href="StatementInitPass_8cpp.html" target="_top" xlink:title=" ">
<polygon fill="white" stroke="black" points="3461.5,-62 3461.5,-81 3587.5,-81 3587.5,-62 3461.5,-62"/>
<text text-anchor="middle" x="3524.5" y="-69" font-family="Helvetica,sans-Serif" font-size="10.00">StatementInitPass.cpp</text>
</a>
</g>
</g>
<!-- Node2&#45;&gt;Node31 -->
<g id="edge30" class="edge">
<title>Node2&#45;&gt;Node31</title>
<path fill="none" stroke="midnightblue" d="M2980.25,-129.8C3070.11,-124.99 3278.79,-111.97 3452.5,-87 3463.48,-85.42 3475.31,-83.24 3486.15,-81.05"/>
<polygon fill="midnightblue" stroke="midnightblue" points="2979.94,-126.31 2970.14,-130.33 2980.31,-133.3 2979.94,-126.31"/>
</g>
<!-- Node32 -->
<g id="node31" class="node">
<title>Node32</title>
<g id="a_node31"><a xlink:href="StatementPropagationPass_8cpp.html" target="_top" xlink:title=" ">
<polygon fill="white" stroke="black" points="3606,-62 3606,-81 3775,-81 3775,-62 3606,-62"/>
<text text-anchor="middle" x="3690.5" y="-69" font-family="Helvetica,sans-Serif" font-size="10.00">StatementPropagationPass.cpp</text>
</a>
</g>
</g>
<!-- Node2&#45;&gt;Node32 -->
<g id="edge31" class="edge">
<title>Node2&#45;&gt;Node32</title>
<path fill="none" stroke="midnightblue" d="M2980.46,-130.26C3087.46,-125.83 3365.55,-112.63 3596.5,-87 3610.78,-85.42 3626.21,-83.23 3640.36,-81.04"/>
<polygon fill="midnightblue" stroke="midnightblue" points="2980.2,-126.77 2970.35,-130.67 2980.49,-133.76 2980.2,-126.77"/>
</g>
<!-- Node33 -->
<g id="node32" class="node">
<title>Node33</title>
<g id="a_node32"><a xlink:href="BranchAnalysisPass_8cpp.html" target="_top" xlink:title=" ">
<polygon fill="white" stroke="black" points="3793.5,-62 3793.5,-81 3927.5,-81 3927.5,-62 3793.5,-62"/>
<text text-anchor="middle" x="3860.5" y="-69" font-family="Helvetica,sans-Serif" font-size="10.00">BranchAnalysisPass.cpp</text>
</a>
</g>
</g>
<!-- Node2&#45;&gt;Node33 -->
<g id="edge32" class="edge">
<title>Node2&#45;&gt;Node33</title>
<path fill="none" stroke="midnightblue" d="M2980.1,-131.76C3106.61,-130.63 3478.43,-124.13 3784.5,-87 3796.5,-85.54 3809.46,-83.32 3821.21,-81.05"/>
<polygon fill="midnightblue" stroke="midnightblue" points="2979.99,-128.26 2970.02,-131.85 2980.04,-135.26 2979.99,-128.26"/>
</g>
<!-- Node34 -->
<g id="node33" class="node">
<title>Node34</title>
<g id="a_node33"><a xlink:href="CallLivenessRemovalPass_8cpp.html" target="_top" xlink:title=" ">
<polygon fill="white" stroke="black" points="3945.5,-62 3945.5,-81 4109.5,-81 4109.5,-62 3945.5,-62"/>
<text text-anchor="middle" x="4027.5" y="-69" font-family="Helvetica,sans-Serif" font-size="10.00">CallLivenessRemovalPass.cpp</text>
</a>
</g>
</g>
<!-- Node2&#45;&gt;Node34 -->
<g id="edge33" class="edge">
<title>Node2&#45;&gt;Node34</title>
<path fill="none" stroke="midnightblue" d="M2980.6,-131.79C3121.95,-130.73 3568.8,-124.44 3936.5,-87 3950.82,-85.54 3966.32,-83.32 3980.4,-81.04"/>
<polygon fill="midnightblue" stroke="midnightblue" points="2980.16,-128.29 2970.18,-131.86 2980.2,-135.29 2980.16,-128.29"/>
</g>
<!-- Node35 -->
<g id="node34" class="node">
<title>Node35</title>
<g id="a_node34"><a xlink:href="FinalParameterSearchPass_8cpp.html" target="_top" xlink:title=" ">
<polygon fill="white" stroke="black" points="4127.5,-62 4127.5,-81 4293.5,-81 4293.5,-62 4127.5,-62"/>
<text text-anchor="middle" x="4210.5" y="-69" font-family="Helvetica,sans-Serif" font-size="10.00">FinalParameterSearchPass.cpp</text>
</a>
</g>
</g>
<!-- Node2&#45;&gt;Node35 -->
<g id="edge34" class="edge">
<title>Node2&#45;&gt;Node35</title>
<path fill="none" stroke="midnightblue" d="M2980.68,-132.2C3138.05,-132.5 3676.57,-130.08 4118.5,-87 4133.14,-85.57 4149,-83.33 4163.36,-81.03"/>
<polygon fill="midnightblue" stroke="midnightblue" points="2980.45,-128.7 2970.44,-132.18 2980.43,-135.7 2980.45,-128.7"/>
</g>
<!-- Node36 -->
<g id="node35" class="node">
<title>Node36</title>
<g id="a_node35"><a xlink:href="FromSSAFormPass_8cpp.html" target="_top" xlink:title=" ">
<polygon fill="white" stroke="black" points="4311.5,-62 4311.5,-81 4439.5,-81 4439.5,-62 4311.5,-62"/>
<text text-anchor="middle" x="4375.5" y="-69" font-family="Helvetica,sans-Serif" font-size="10.00">FromSSAFormPass.cpp</text>
</a>
</g>
</g>
<!-- Node2&#45;&gt;Node36 -->
<g id="edge35" class="edge">
<title>Node2&#45;&gt;Node36</title>
<path fill="none" stroke="midnightblue" d="M2980.21,-131.51C3185.33,-129.11 4037.59,-117.46 4302.5,-87 4314.31,-85.64 4327.06,-83.39 4338.55,-81.06"/>
<polygon fill="midnightblue" stroke="midnightblue" points="2980.06,-128.01 2970.1,-131.63 2980.14,-135.01 2980.06,-128.01"/>
</g>
<!-- Node37 -->
<g id="node36" class="node">
<title>Node37</title>
<g id="a_node36"><a xlink:href="ImplicitPlacementPass_8cpp.html" target="_top" xlink:title=" ">
<polygon fill="white" stroke="black" points="4457.5,-62 4457.5,-81 4605.5,-81 4605.5,-62 4457.5,-62"/>
<text text-anchor="middle" x="4531.5" y="-69" font-family="Helvetica,sans-Serif" font-size="10.00">ImplicitPlacementPass.cpp</text>
</a>
</g>
</g>
<!-- Node2&#45;&gt;Node37 -->
<g id="edge36" class="edge">
<title>Node2&#45;&gt;Node37</title>
<path fill="none" stroke="midnightblue" d="M2980.3,-131.53C3198.65,-129.13 4152.85,-117.07 4448.5,-87 4461.89,-85.64 4476.37,-83.38 4489.44,-81.05"/>
<polygon fill="midnightblue" stroke="midnightblue" points="2980.13,-128.04 2970.17,-131.64 2980.2,-135.04 2980.13,-128.04"/>
</g>
<!-- Node38 -->
<g id="node37" class="node">
<title>Node38</title>
<g id="a_node37"><a xlink:href="LocalAndParamMapPass_8cpp.html" target="_top" xlink:title=" ">
<polygon fill="white" stroke="black" points="4623.5,-62 4623.5,-81 4779.5,-81 4779.5,-62 4623.5,-62"/>
<text text-anchor="middle" x="4701.5" y="-69" font-family="Helvetica,sans-Serif" font-size="10.00">LocalAndParamMapPass.cpp</text>
</a>
</g>
</g>
<!-- Node2&#45;&gt;Node38 -->
<g id="edge37" class="edge">
<title>Node2&#45;&gt;Node38</title>
<path fill="none" stroke="midnightblue" d="M2980.25,-131.64C3212.67,-129.64 4283.97,-118.82 4614.5,-87 4628.52,-85.65 4643.7,-83.4 4657.4,-81.07"/>
<polygon fill="midnightblue" stroke="midnightblue" points="2980.11,-128.14 2970.14,-131.73 2980.16,-135.14 2980.11,-128.14"/>
</g>
<!-- Node39 -->
<g id="node38" class="node">
<title>Node39</title>
<g id="a_node38"><a xlink:href="LocalTypeAnalysisPass_8cpp.html" target="_top" xlink:title=" ">
<polygon fill="white" stroke="black" points="4798,-62 4798,-81 4947,-81 4947,-62 4798,-62"/>
<text text-anchor="middle" x="4872.5" y="-69" font-family="Helvetica,sans-Serif" font-size="10.00">LocalTypeAnalysisPass.cpp</text>
</a>
</g>
</g>
<!-- Node2&#45;&gt;Node39 -->
<g id="edge38" class="edge">
<title>Node2&#45;&gt;Node39</title>
<path fill="none" stroke="midnightblue" d="M2980.08,-131.81C3226.24,-130.6 4421.46,-122.94 4788.5,-87 4802.2,-85.66 4817.03,-83.38 4830.36,-81.02"/>
<polygon fill="midnightblue" stroke="midnightblue" points="2980.05,-128.31 2970.07,-131.85 2980.08,-135.31 2980.05,-128.31"/>
</g>
<!-- Node40 -->
<g id="node39" class="node">
<title>Node40</title>
<g id="a_node39"><a xlink:href="UnusedLocalRemovalPass_8cpp.html" target="_top" xlink:title=" ">
<polygon fill="white" stroke="black" points="4965,-62 4965,-81 5130,-81 5130,-62 4965,-62"/>
<text text-anchor="middle" x="5047.5" y="-69" font-family="Helvetica,sans-Serif" font-size="10.00">UnusedLocalRemovalPass.cpp</text>
</a>
</g>
</g>
<!-- Node2&#45;&gt;Node40 -->
<g id="edge39" class="edge">
<title>Node2&#45;&gt;Node40</title>
<path fill="none" stroke="midnightblue" d="M2980.32,-131.83C3240.01,-130.72 4554,-123.38 4956.5,-87 4971.32,-85.66 4987.38,-83.38 5001.82,-81.02"/>
<polygon fill="midnightblue" stroke="midnightblue" points="2980.12,-128.33 2970.13,-131.87 2980.15,-135.33 2980.12,-128.33"/>
</g>
<!-- Node41 -->
<g id="node40" class="node">
<title>Node41</title>
<g id="a_node40"><a xlink:href="UnusedParamRemovalPass_8cpp.html" target="_top" xlink:title=" ">
<polygon fill="white" stroke="black" points="5148,-62 5148,-81 5319,-81 5319,-62 5148,-62"/>
<text text-anchor="middle" x="5233.5" y="-69" font-family="Helvetica,sans-Serif" font-size="10.00">UnusedParamRemovalPass.cpp</text>
</a>
</g>
</g>
<!-- Node2&#45;&gt;Node41 -->
<g id="edge40" class="edge">
<title>Node2&#45;&gt;Node41</title>
<path fill="none" stroke="midnightblue" d="M2980.39,-131.9C3253.84,-131.14 4698.34,-125.36 5139.5,-87 5154.8,-85.67 5171.39,-83.39 5186.31,-81.03"/>
<polygon fill="midnightblue" stroke="midnightblue" points="2980.06,-128.4 2970.07,-131.92 2980.08,-135.4 2980.06,-128.4"/>
</g>
<!-- Node42 -->
<g id="node41" class="node">
<title>Node42</title>
<g id="a_node41"><a xlink:href="UnusedStatementRemovalPass_8cpp.html" target="_top" xlink:title=" ">
<polygon fill="white" stroke="black" points="5337,-62 5337,-81 5528,-81 5528,-62 5337,-62"/>
<text text-anchor="middle" x="5432.5" y="-69" font-family="Helvetica,sans-Serif" font-size="10.00">UnusedStatementRemovalPass.cpp</text>
</a>
</g>
</g>
<!-- Node2&#45;&gt;Node42 -->
<g id="edge41" class="edge">
<title>Node2&#45;&gt;Node42</title>
<path fill="none" stroke="midnightblue" d="M2980.11,-131.89C3266.24,-131.09 4846.94,-124.96 5328.5,-87 5345.4,-85.67 5363.75,-83.39 5380.26,-81.03"/>
<polygon fill="midnightblue" stroke="midnightblue" points="2980.09,-128.39 2970.1,-131.92 2980.11,-135.39 2980.09,-128.39"/>
</g>
<!-- Node43 -->
<g id="node42" class="node">
<title>Node43</title>
<g id="a_node42"><a xlink:href="AssignRemovalPass_8cpp.html" target="_top" xlink:title=" ">
<polygon fill="white" stroke="black" points="5546,-62 5546,-81 5681,-81 5681,-62 5546,-62"/>
<text text-anchor="middle" x="5613.5" y="-69" font-family="Helvetica,sans-Serif" font-size="10.00">AssignRemovalPass.cpp</text>
</a>
</g>
</g>
<!-- Node2&#45;&gt;Node43 -->
<g id="edge42" class="edge">
<title>Node2&#45;&gt;Node43</title>
<path fill="none" stroke="midnightblue" d="M2980.51,-131.69C3304.37,-129.37 5273.66,-114.25 5537.5,-87 5550.06,-85.7 5563.64,-83.4 5575.8,-81.01"/>
<polygon fill="midnightblue" stroke="midnightblue" points="2980.1,-128.19 2970.12,-131.76 2980.15,-135.19 2980.1,-128.19"/>
</g>
<!-- Node44 -->
<g id="node43" class="node">
<title>Node44</title>
<g id="a_node43"><a xlink:href="CallAndPhiFixPass_8cpp.html" target="_top" xlink:title=" ">
<polygon fill="white" stroke="black" points="5699,-62 5699,-81 5824,-81 5824,-62 5699,-62"/>
<text text-anchor="middle" x="5761.5" y="-69" font-family="Helvetica,sans-Serif" font-size="10.00">CallAndPhiFixPass.cpp</text>
</a>
</g>
</g>
<!-- Node2&#45;&gt;Node44 -->
<g id="edge43" class="edge">
<title>Node2&#45;&gt;Node44</title>
<path fill="none" stroke="midnightblue" d="M2980.53,-131.77C3315.23,-129.98 5410.6,-117.6 5690.5,-87 5702.26,-85.71 5714.95,-83.42 5726.31,-81.03"/>
<polygon fill="midnightblue" stroke="midnightblue" points="2980.23,-128.27 2970.25,-131.82 2980.27,-135.27 2980.23,-128.27"/>
</g>
<!-- Node45 -->
<g id="node44" class="node">
<title>Node45</title>
<g id="a_node44"><a xlink:href="DuplicateArgsRemovalPass_8cpp.html" target="_top" xlink:title=" ">
<polygon fill="white" stroke="black" points="5842,-62 5842,-81 6013,-81 6013,-62 5842,-62"/>
<text text-anchor="middle" x="5927.5" y="-69" font-family="Helvetica,sans-Serif" font-size="10.00">DuplicateArgsRemovalPass.cpp</text>
</a>
</g>
</g>
<!-- Node2&#45;&gt;Node45 -->
<g id="edge44" class="edge">
<title>Node2&#45;&gt;Node45</title>
<path fill="none" stroke="midnightblue" d="M2980.6,-132.15C3301.67,-133.1 5245.39,-136.69 5833.5,-87 5848.97,-85.69 5865.75,-83.39 5880.79,-81"/>
<polygon fill="midnightblue" stroke="midnightblue" points="2980.3,-128.65 2970.29,-132.12 2980.28,-135.65 2980.3,-128.65"/>
</g>
<!-- Node46 -->
<g id="node45" class="node">
<title>Node46</title>
<g id="a_node45"><a xlink:href="ParameterSymbolMapPass_8cpp.html" target="_top" xlink:title=" ">
<polygon fill="white" stroke="black" points="6031.5,-62 6031.5,-81 6199.5,-81 6199.5,-62 6031.5,-62"/>
<text text-anchor="middle" x="6115.5" y="-69" font-family="Helvetica,sans-Serif" font-size="10.00">ParameterSymbolMapPass.cpp</text>
</a>
</g>
</g>
<!-- Node2&#45;&gt;Node46 -->
<g id="edge45" class="edge">
<title>Node2&#45;&gt;Node46</title>
<path fill="none" stroke="midnightblue" d="M2980.52,-131.73C3337.61,-129.5 5706.58,-113.8 6022.5,-87 6037.81,-85.7 6054.41,-83.4 6069.3,-81.01"/>
<polygon fill="midnightblue" stroke="midnightblue" points="2980.29,-128.23 2970.31,-131.79 2980.33,-135.23 2980.29,-128.23"/>
</g>
<!-- Node47 -->
<g id="node46" class="node">
<title>Node47</title>
<g id="a_node46"><a xlink:href="PreservationAnalysisPass_8cpp.html" target="_top" xlink:title=" ">
<polygon fill="white" stroke="black" points="6217.5,-62 6217.5,-81 6379.5,-81 6379.5,-62 6217.5,-62"/>
<text text-anchor="middle" x="6298.5" y="-69" font-family="Helvetica,sans-Serif" font-size="10.00">PreservationAnalysisPass.cpp</text>
</a>
</g>
</g>
<!-- Node2&#45;&gt;Node47 -->
<g id="edge46" class="edge">
<title>Node2&#45;&gt;Node47</title>
<path fill="none" stroke="midnightblue" d="M2980.32,-131.78C3348.77,-129.92 5872.74,-116.2 6208.5,-87 6223.32,-85.71 6239.39,-83.41 6253.8,-81.02"/>
<polygon fill="midnightblue" stroke="midnightblue" points="2980.04,-128.28 2970.06,-131.83 2980.07,-135.28 2980.04,-128.28"/>
</g>
<!-- Node48 -->
<g id="node47" class="node">
<title>Node48</title>
<g id="a_node47"><a xlink:href="SPPreservationPass_8cpp.html" target="_top" xlink:title=" ">
<polygon fill="white" stroke="black" points="6398,-62 6398,-81 6531,-81 6531,-62 6398,-62"/>
<text text-anchor="middle" x="6464.5" y="-69" font-family="Helvetica,sans-Serif" font-size="10.00">SPPreservationPass.cpp</text>
</a>
</g>
</g>
<!-- Node2&#45;&gt;Node48 -->
<g id="edge47" class="edge">
<title>Node2&#45;&gt;Node48</title>
<path fill="none" stroke="midnightblue" d="M2980.13,-131.89C3359.2,-130.93 6033.93,-122.85 6388.5,-87 6401.06,-85.73 6414.65,-83.44 6426.81,-81.04"/>
<polygon fill="midnightblue" stroke="midnightblue" points="2980.08,-128.39 2970.08,-131.92 2980.09,-135.39 2980.08,-128.39"/>
</g>
<!-- Node49 -->
<g id="node48" class="node">
<title>Node49</title>
<g id="a_node48"><a xlink:href="StrengthReductionReversalPass_8cpp.html" target="_top" xlink:title=" ">
<polygon fill="white" stroke="black" points="6549,-56.5 6549,-86.5 6698,-86.5 6698,-56.5 6549,-56.5"/>
<text text-anchor="start" x="6557" y="-74.5" font-family="Helvetica,sans-Serif" font-size="10.00">StrengthReductionReversal</text>
<text text-anchor="middle" x="6623.5" y="-63.5" font-family="Helvetica,sans-Serif" font-size="10.00">Pass.cpp</text>
</a>
</g>
</g>
<!-- Node2&#45;&gt;Node49 -->
<g id="edge48" class="edge">
<title>Node2&#45;&gt;Node49</title>
<path fill="none" stroke="midnightblue" d="M2980.26,-131.88C3369.15,-130.75 6169.46,-121.5 6540.5,-87 6543.27,-86.74 6546.08,-86.44 6548.92,-86.11"/>
<polygon fill="midnightblue" stroke="midnightblue" points="2980.22,-128.38 2970.23,-131.91 2980.24,-135.38 2980.22,-128.38"/>
</g>
<!-- Node50 -->
<g id="node49" class="node">
<title>Node50</title>
<g id="a_node49"><a xlink:href="PassManager_8cpp.html" target="_top" xlink:title=" ">
<polygon fill="white" stroke="black" points="6715.5,-62 6715.5,-81 6817.5,-81 6817.5,-62 6715.5,-62"/>
<text text-anchor="middle" x="6766.5" y="-69" font-family="Helvetica,sans-Serif" font-size="10.00">PassManager.cpp</text>
</a>
</g>
</g>
<!-- Node2&#45;&gt;Node50 -->
<g id="edge49" class="edge">
<title>Node2&#45;&gt;Node50</title>
<path fill="none" stroke="midnightblue" d="M2980.18,-132.09C3378.84,-132.79 6320.01,-136.26 6707.5,-87 6717.34,-85.75 6727.9,-83.46 6737.34,-81.07"/>
<polygon fill="midnightblue" stroke="midnightblue" points="2980.18,-128.59 2970.18,-132.07 2980.17,-135.59 2980.18,-128.59"/>
</g>
<!-- Node51 -->
<g id="node50" class="node">
<title>Node51</title>
<g id="a_node50"><a xlink:href="Ternary_8cpp.html" target="_top" xlink:title=" ">
<polygon fill="white" stroke="black" points="6836,-62 6836,-81 6907,-81 6907,-62 6836,-62"/>
<text text-anchor="middle" x="6871.5" y="-69" font-family="Helvetica,sans-Serif" font-size="10.00">Ternary.cpp</text>
</a>
</g>
</g>
<!-- Node2&#45;&gt;Node51 -->
<g id="edge50" class="edge">
<title>Node2&#45;&gt;Node51</title>
<path fill="none" stroke="midnightblue" d="M2980.4,-131.87C3400.24,-130.56 6627.05,-119.52 6826.5,-87 6834.12,-85.76 6842.2,-83.47 6849.39,-81.08"/>
<polygon fill="midnightblue" stroke="midnightblue" points="2980.17,-128.37 2970.18,-131.9 2980.19,-135.37 2980.17,-128.37"/>
</g>
<!-- Node9&#45;&gt;Node8 -->
<g id="edge9" class="edge">
<title>Node9&#45;&gt;Node8</title>
<path fill="none" stroke="midnightblue" d="M581.07,-53.51C573.6,-42.39 564.16,-28.34 558.22,-19.51"/>
<polygon fill="midnightblue" stroke="midnightblue" points="578.29,-55.63 586.77,-61.98 584.09,-51.72 578.29,-55.63"/>
</g>
</g>
</svg>
        <g id="navigator" transform="translate(0 0)" fill="#404254">
                <rect fill="#f2f5e9" fill-opacity="0.5" stroke="#606060" stroke-width=".5" x="0" y="0" width="60" height="60"/>
                <use id="zoomplus" xlink:href="#zoomPlus" x="17" y="9" onmousedown="handleZoom(evt,'in')"/>
                <use id="zoomminus" xlink:href="#zoomMin" x="42" y="9" onmousedown="handleZoom(evt,'out')"/>
                <use id="reset" xlink:href="#resetDef" x="30" y="36" onmousedown="handleReset()"/>
                <g id="arrowUp" xlink:href="#dirArrow" transform="translate(30 24)" onmousedown="handlePan(0,-1)">
                  <use xlink:href="#rim" fill="#404040">
                        <set attributeName="fill" to="#808080" begin="arrowUp.mouseover" end="arrowUp.mouseout"/>
                  </use>
                  <path fill="none" stroke="white" stroke-width="1.5" d="M0,-3.0v7 M-2.5,-0.5L0,-3.0L2.5,-0.5"/>
                </g>
                <g id="arrowRight" xlink:href="#dirArrow" transform="rotate(90) translate(36 -43)" onmousedown="handlePan(1,0)">
                  <use xlink:href="#rim" fill="#404040">
                        <set attributeName="fill" to="#808080" begin="arrowRight.mouseover" end="arrowRight.mouseout"/>
                  </use>
                  <path fill="none" stroke="white" stroke-width="1.5" d="M0,-3.0v7 M-2.5,-0.5L0,-3.0L2.5,-0.5"/>
                </g>
                <g id="arrowDown" xlink:href="#dirArrow" transform="rotate(180) translate(-30 -48)" onmousedown="handlePan(0,1)">
                  <use xlink:href="#rim" fill="#404040">
                        <set attributeName="fill" to="#808080" begin="arrowDown.mouseover" end="arrowDown.mouseout"/>
                  </use>
                  <path fill="none" stroke="white" stroke-width="1.5" d="M0,-3.0v7 M-2.5,-0.5L0,-3.0L2.5,-0.5"/>
                </g>
                <g id="arrowLeft" xlink:href="#dirArrow" transform="rotate(270) translate(-36 17)" onmousedown="handlePan(-1,0)">
                  <use xlink:href="#rim" fill="#404040">
                        <set attributeName="fill" to="#808080" begin="arrowLeft.mouseover" end="arrowLeft.mouseout"/>
                  </use>
                  <path fill="none" stroke="white" stroke-width="1.5" d="M0,-3.0v7 M-2.5,-0.5L0,-3.0L2.5,-0.5"/>
                </g>
        </g>
        <svg viewBox="0 0 15 15" width="100%" height="30px" preserveAspectRatio="xMaxYMin meet">
         <g id="arrow_out" transform="scale(0.3 0.3)">
          <a xlink:href="DataFlow_8h__dep__incl_org.svg" target="_base">
           <rect id="button" ry="5" rx="5" y="6" x="6" height="38" width="38"
                fill="#f2f5e9" fill-opacity="0.5" stroke="#606060" stroke-width="1.0"/>
           <path id="arrow"
             d="M 11.500037,31.436501 C 11.940474,20.09759 22.043105,11.32322 32.158766,21.979434 L 37.068811,17.246167 C 37.068811,17.246167 37.088388,32 37.088388,32 L 22.160133,31.978069 C 22.160133,31.978069 26.997745,27.140456 26.997745,27.140456 C 18.528582,18.264221 13.291696,25.230495 11.500037,31.436501 z"
             style="fill:#404040;"/>
          </a>
         </g>
        </svg>
</svg>
