<?xml version="1.0" encoding="UTF-8" standalone="no"?>
<!DOCTYPE svg PUBLIC "-//W3C//DTD SVG 1.1//EN"
 "http://www.w3.org/Graphics/SVG/1.1/DTD/svg11.dtd">
<!-- Generated by graphviz version 2.43.0 (0)
 -->
<!-- Title: DecodeResult.h Pages: 1 -->
<svg width="3705pt" height="364pt"
 viewBox="0.00 0.00 3705.00 364.00" xmlns="http://www.w3.org/2000/svg" xmlns:xlink="http://www.w3.org/1999/xlink">
<g id="graph0" class="graph" transform="scale(1 1) rotate(0) translate(4 360)">
<title>DecodeResult.h</title>
<polygon fill="white" stroke="transparent" points="-4,4 -4,-360 3701,-360 3701,4 -4,4"/>
<!-- Node1 -->
<g id="node1" class="node">
<title>Node1</title>
<g id="a_node1"><a xlink:title=" ">
<polygon fill="#bfbfbf" stroke="black" points="3518.5,-336.5 3518.5,-355.5 3611.5,-355.5 3611.5,-336.5 3518.5,-336.5"/>
<text text-anchor="middle" x="3565" y="-343.5" font-family="Helvetica,sans-Serif" font-size="10.00">DecodeResult.h</text>
</a>
</g>
</g>
<!-- Node2 -->
<g id="node2" class="node">
<title>Node2</title>
<g id="a_node2"><a xlink:href="IDecoder_8h.html" target="_top" xlink:title=" ">
<polygon fill="white" stroke="black" points="3311.5,-280.5 3311.5,-299.5 3380.5,-299.5 3380.5,-280.5 3311.5,-280.5"/>
<text text-anchor="middle" x="3346" y="-287.5" font-family="Helvetica,sans-Serif" font-size="10.00">IDecoder.h</text>
</a>
</g>
</g>
<!-- Node1&#45;&gt;Node2 -->
<g id="edge1" class="edge">
<title>Node1&#45;&gt;Node2</title>
<path fill="none" stroke="midnightblue" d="M3520.49,-334.02C3479.12,-323.82 3418.36,-308.84 3380.54,-299.52"/>
<polygon fill="midnightblue" stroke="midnightblue" points="3519.75,-337.45 3530.3,-336.44 3521.43,-330.65 3519.75,-337.45"/>
</g>
<!-- Node21 -->
<g id="node21" class="node">
<title>Node21</title>
<g id="a_node21"><a xlink:href="DefaultFrontEnd_8cpp.html" target="_top" xlink:title=" ">
<polygon fill="white" stroke="black" points="3513,-0.5 3513,-19.5 3629,-19.5 3629,-0.5 3513,-0.5"/>
<text text-anchor="middle" x="3571" y="-7.5" font-family="Helvetica,sans-Serif" font-size="10.00">DefaultFrontEnd.cpp</text>
</a>
</g>
</g>
<!-- Node1&#45;&gt;Node21 -->
<g id="edge59" class="edge">
<title>Node1&#45;&gt;Node21</title>
<path fill="none" stroke="midnightblue" d="M3565,-326.25C3565,-304.36 3565,-267.05 3565,-235 3565,-235 3565,-235 3565,-121 3565,-83.13 3568.59,-38.04 3570.22,-19.55"/>
<polygon fill="midnightblue" stroke="midnightblue" points="3561.5,-326.44 3565,-336.44 3568.5,-326.44 3561.5,-326.44"/>
</g>
<!-- Node77 -->
<g id="node50" class="node">
<title>Node77</title>
<g id="a_node50"><a xlink:href="DecodeResult_8cpp.html" target="_top" xlink:title=" ">
<polygon fill="white" stroke="black" points="3593,-280.5 3593,-299.5 3697,-299.5 3697,-280.5 3593,-280.5"/>
<text text-anchor="middle" x="3645" y="-287.5" font-family="Helvetica,sans-Serif" font-size="10.00">DecodeResult.cpp</text>
</a>
</g>
</g>
<!-- Node1&#45;&gt;Node77 -->
<g id="edge58" class="edge">
<title>Node1&#45;&gt;Node77</title>
<path fill="none" stroke="midnightblue" d="M3586.3,-330.62C3600.92,-320.76 3619.83,-307.99 3632.18,-299.65"/>
<polygon fill="midnightblue" stroke="midnightblue" points="3584.18,-327.83 3577.85,-336.32 3588.1,-333.63 3584.18,-327.83"/>
</g>
<!-- Node3 -->
<g id="node3" class="node">
<title>Node3</title>
<g id="a_node3"><a xlink:href="PluginType_8h.html" target="_top" xlink:title=" ">
<polygon fill="white" stroke="black" points="2584,-224.5 2584,-243.5 2662,-243.5 2662,-224.5 2584,-224.5"/>
<text text-anchor="middle" x="2623" y="-231.5" font-family="Helvetica,sans-Serif" font-size="10.00">PluginType.h</text>
</a>
</g>
</g>
<!-- Node2&#45;&gt;Node3 -->
<g id="edge2" class="edge">
<title>Node2&#45;&gt;Node3</title>
<path fill="none" stroke="midnightblue" d="M3300.99,-285.64C3169.33,-275.8 2786.36,-247.2 2662.29,-237.93"/>
<polygon fill="midnightblue" stroke="midnightblue" points="3300.9,-289.14 3311.13,-286.4 3301.42,-282.16 3300.9,-289.14"/>
</g>
<!-- Node14 -->
<g id="node14" class="node">
<title>Node14</title>
<g id="a_node14"><a xlink:href="Prog_8cpp.html" target="_top" xlink:title=" ">
<polygon fill="white" stroke="black" points="3316.5,-0.5 3316.5,-19.5 3375.5,-19.5 3375.5,-0.5 3316.5,-0.5"/>
<text text-anchor="middle" x="3346" y="-7.5" font-family="Helvetica,sans-Serif" font-size="10.00">Prog.cpp</text>
</a>
</g>
</g>
<!-- Node2&#45;&gt;Node14 -->
<g id="edge44" class="edge">
<title>Node2&#45;&gt;Node14</title>
<path fill="none" stroke="midnightblue" d="M3346,-270.25C3346,-248.36 3346,-211.05 3346,-179 3346,-179 3346,-179 3346,-121 3346,-83.19 3346,-38.06 3346,-19.56"/>
<polygon fill="midnightblue" stroke="midnightblue" points="3342.5,-270.44 3346,-280.44 3349.5,-270.44 3342.5,-270.44"/>
</g>
<!-- Node2&#45;&gt;Node21 -->
<g id="edge45" class="edge">
<title>Node2&#45;&gt;Node21</title>
<path fill="none" stroke="midnightblue" d="M3390.35,-279C3438.01,-265.32 3507,-235.73 3507,-179 3507,-179 3507,-179 3507,-121 3507,-78.14 3543.75,-37.07 3561.56,-19.69"/>
<polygon fill="midnightblue" stroke="midnightblue" points="3389.26,-275.67 3380.54,-281.68 3391.11,-282.42 3389.26,-275.67"/>
</g>
<!-- Node71 -->
<g id="node44" class="node">
<title>Node71</title>
<g id="a_node44"><a xlink:href="CapstoneDecoder_8h.html" target="_top" xlink:title=" ">
<polygon fill="white" stroke="black" points="1047,-224.5 1047,-243.5 1159,-243.5 1159,-224.5 1047,-224.5"/>
<text text-anchor="middle" x="1103" y="-231.5" font-family="Helvetica,sans-Serif" font-size="10.00">CapstoneDecoder.h</text>
</a>
</g>
</g>
<!-- Node2&#45;&gt;Node71 -->
<g id="edge46" class="edge">
<title>Node2&#45;&gt;Node71</title>
<path fill="none" stroke="midnightblue" d="M3300.88,-287.91C3016.45,-281.07 1473.79,-243.93 1159.08,-236.35"/>
<polygon fill="midnightblue" stroke="midnightblue" points="3301.14,-291.42 3311.22,-288.16 3301.31,-284.42 3301.14,-291.42"/>
</g>
<!-- Node75 -->
<g id="node48" class="node">
<title>Node75</title>
<g id="a_node48"><a xlink:href="ST20Decoder_8h.html" target="_top" xlink:title=" ">
<polygon fill="white" stroke="black" points="3384,-56.5 3384,-75.5 3474,-75.5 3474,-56.5 3384,-56.5"/>
<text text-anchor="middle" x="3429" y="-63.5" font-family="Helvetica,sans-Serif" font-size="10.00">ST20Decoder.h</text>
</a>
</g>
</g>
<!-- Node2&#45;&gt;Node75 -->
<g id="edge54" class="edge">
<title>Node2&#45;&gt;Node75</title>
<path fill="none" stroke="midnightblue" d="M3352.78,-270.87C3369.69,-225.63 3413.3,-108.99 3425.68,-75.88"/>
<polygon fill="midnightblue" stroke="midnightblue" points="3349.48,-269.7 3349.25,-280.3 3356.03,-272.16 3349.48,-269.7"/>
</g>
<!-- Node76 -->
<g id="node49" class="node">
<title>Node76</title>
<g id="a_node49"><a xlink:href="SPARCFrontEnd_8h.html" target="_top" xlink:title=" ">
<polygon fill="white" stroke="black" points="846.5,-224.5 846.5,-243.5 947.5,-243.5 947.5,-224.5 846.5,-224.5"/>
<text text-anchor="middle" x="897" y="-231.5" font-family="Helvetica,sans-Serif" font-size="10.00">SPARCFrontEnd.h</text>
</a>
</g>
</g>
<!-- Node2&#45;&gt;Node76 -->
<g id="edge56" class="edge">
<title>Node2&#45;&gt;Node76</title>
<path fill="none" stroke="midnightblue" d="M3301.2,-288.86C3065.99,-288 1949.96,-281.98 1038,-244 1007.98,-242.75 974.4,-240.64 947.55,-238.77"/>
<polygon fill="midnightblue" stroke="midnightblue" points="3301.41,-292.37 3311.42,-288.9 3301.43,-285.37 3301.41,-292.37"/>
</g>
<!-- Node4 -->
<g id="node4" class="node">
<title>Node4</title>
<g id="a_node4"><a xlink:href="Plugin_8h.html" target="_top" xlink:title=" ">
<polygon fill="white" stroke="black" points="1830,-168.5 1830,-187.5 1886,-187.5 1886,-168.5 1830,-168.5"/>
<text text-anchor="middle" x="1858" y="-175.5" font-family="Helvetica,sans-Serif" font-size="10.00">Plugin.h</text>
</a>
</g>
</g>
<!-- Node3&#45;&gt;Node4 -->
<g id="edge3" class="edge">
<title>Node3&#45;&gt;Node4</title>
<path fill="none" stroke="midnightblue" d="M2573.73,-229.52C2427.68,-219.21 2000.25,-189.04 1886.23,-180.99"/>
<polygon fill="midnightblue" stroke="midnightblue" points="2573.53,-233.02 2583.75,-230.23 2574.02,-226.03 2573.53,-233.02"/>
</g>
<!-- Node5 -->
<g id="node5" class="node">
<title>Node5</title>
<g id="a_node5"><a xlink:href="Plugin_8cpp.html" target="_top" xlink:title=" ">
<polygon fill="white" stroke="black" points="2376.5,-112.5 2376.5,-131.5 2443.5,-131.5 2443.5,-112.5 2376.5,-112.5"/>
<text text-anchor="middle" x="2410" y="-119.5" font-family="Helvetica,sans-Serif" font-size="10.00">Plugin.cpp</text>
</a>
</g>
</g>
<!-- Node4&#45;&gt;Node5 -->
<g id="edge4" class="edge">
<title>Node4&#45;&gt;Node5</title>
<path fill="none" stroke="midnightblue" d="M1896.28,-175.24C1981.45,-170.96 2192.89,-158.38 2368,-132 2370.65,-131.6 2373.39,-131.13 2376.14,-130.63"/>
<polygon fill="midnightblue" stroke="midnightblue" points="1895.88,-171.75 1886.06,-175.74 1896.22,-178.74 1895.88,-171.75"/>
</g>
<!-- Node6 -->
<g id="node6" class="node">
<title>Node6</title>
<g id="a_node6"><a xlink:href="PluginManager_8h.html" target="_top" xlink:title=" ">
<polygon fill="white" stroke="black" points="1674,-112.5 1674,-131.5 1772,-131.5 1772,-112.5 1674,-112.5"/>
<text text-anchor="middle" x="1723" y="-119.5" font-family="Helvetica,sans-Serif" font-size="10.00">PluginManager.h</text>
</a>
</g>
</g>
<!-- Node4&#45;&gt;Node6 -->
<g id="edge5" class="edge">
<title>Node4&#45;&gt;Node6</title>
<path fill="none" stroke="midnightblue" d="M1827.09,-164.64C1801.76,-154.5 1766.57,-140.43 1744.29,-131.52"/>
<polygon fill="midnightblue" stroke="midnightblue" points="1826.02,-167.98 1836.61,-168.44 1828.62,-161.48 1826.02,-167.98"/>
</g>
<!-- Node54 -->
<g id="node32" class="node">
<title>Node54</title>
<g id="a_node32"><a xlink:href="CapstoneX86Decoder_8cpp.html" target="_top" xlink:title=" ">
<polygon fill="white" stroke="black" points="130,-0.5 130,-19.5 272,-19.5 272,-0.5 130,-0.5"/>
<text text-anchor="middle" x="201" y="-7.5" font-family="Helvetica,sans-Serif" font-size="10.00">CapstoneX86Decoder.cpp</text>
</a>
</g>
</g>
<!-- Node4&#45;&gt;Node54 -->
<g id="edge34" class="edge">
<title>Node4&#45;&gt;Node54</title>
<path fill="none" stroke="midnightblue" d="M1819.73,-175.18C1723.65,-170.32 1474.33,-155.73 1395,-132 1376.72,-126.53 1375.31,-117.38 1357,-112 1081.77,-31.16 999.83,-80.33 714,-56 521.59,-39.62 473.19,-38.8 281,-20 278.08,-19.71 275.1,-19.41 272.09,-19.11"/>
<polygon fill="midnightblue" stroke="midnightblue" points="1819.71,-178.69 1829.87,-175.69 1820.05,-171.69 1819.71,-178.69"/>
</g>
<!-- Node62 -->
<g id="node35" class="node">
<title>Node62</title>
<g id="a_node35"><a xlink:href="CapstonePPCDecoder_8cpp.html" target="_top" xlink:title=" ">
<polygon fill="white" stroke="black" points="1032,-112.5 1032,-131.5 1174,-131.5 1174,-112.5 1032,-112.5"/>
<text text-anchor="middle" x="1103" y="-119.5" font-family="Helvetica,sans-Serif" font-size="10.00">CapstonePPCDecoder.cpp</text>
</a>
</g>
</g>
<!-- Node4&#45;&gt;Node62 -->
<g id="edge35" class="edge">
<title>Node4&#45;&gt;Node62</title>
<path fill="none" stroke="midnightblue" d="M1819.48,-175.02C1716.36,-169.6 1425.44,-153.46 1184,-132 1180.76,-131.71 1177.45,-131.4 1174.1,-131.08"/>
<polygon fill="midnightblue" stroke="midnightblue" points="1819.54,-178.53 1829.71,-175.56 1819.91,-171.54 1819.54,-178.53"/>
</g>
<!-- Node63 -->
<g id="node36" class="node">
<title>Node63</title>
<g id="a_node36"><a xlink:href="CapstoneSPARCDecoder_8cpp.html" target="_top" xlink:title=" ">
<polygon fill="white" stroke="black" points="1192.5,-112.5 1192.5,-131.5 1347.5,-131.5 1347.5,-112.5 1192.5,-112.5"/>
<text text-anchor="middle" x="1270" y="-119.5" font-family="Helvetica,sans-Serif" font-size="10.00">CapstoneSPARCDecoder.cpp</text>
</a>
</g>
</g>
<!-- Node4&#45;&gt;Node63 -->
<g id="edge36" class="edge">
<title>Node4&#45;&gt;Node63</title>
<path fill="none" stroke="midnightblue" d="M1819.74,-173.62C1736.5,-166.25 1532.68,-148.09 1362,-132 1357.37,-131.56 1352.6,-131.11 1347.8,-130.65"/>
<polygon fill="midnightblue" stroke="midnightblue" points="1819.48,-177.11 1829.75,-174.51 1820.1,-170.14 1819.48,-177.11"/>
</g>
<!-- Node64 -->
<g id="node37" class="node">
<title>Node64</title>
<g id="a_node37"><a xlink:href="DOS4GWBinaryLoader_8cpp.html" target="_top" xlink:title=" ">
<polygon fill="white" stroke="black" points="2462,-112.5 2462,-131.5 2608,-131.5 2608,-112.5 2462,-112.5"/>
<text text-anchor="middle" x="2535" y="-119.5" font-family="Helvetica,sans-Serif" font-size="10.00">DOS4GWBinaryLoader.cpp</text>
</a>
</g>
</g>
<!-- Node4&#45;&gt;Node64 -->
<g id="edge37" class="edge">
<title>Node4&#45;&gt;Node64</title>
<path fill="none" stroke="midnightblue" d="M1896.45,-174.54C1991.14,-168.4 2243.18,-151.44 2453,-132 2455.85,-131.74 2458.76,-131.46 2461.69,-131.17"/>
<polygon fill="midnightblue" stroke="midnightblue" points="1895.96,-171.07 1886.21,-175.21 1896.42,-178.05 1895.96,-171.07"/>
</g>
<!-- Node65 -->
<g id="node38" class="node">
<title>Node65</title>
<g id="a_node38"><a xlink:href="ElfBinaryLoader_8cpp.html" target="_top" xlink:title=" ">
<polygon fill="white" stroke="black" points="1404,-112.5 1404,-131.5 1518,-131.5 1518,-112.5 1404,-112.5"/>
<text text-anchor="middle" x="1461" y="-119.5" font-family="Helvetica,sans-Serif" font-size="10.00">ElfBinaryLoader.cpp</text>
</a>
</g>
</g>
<!-- Node4&#45;&gt;Node65 -->
<g id="edge38" class="edge">
<title>Node4&#45;&gt;Node65</title>
<path fill="none" stroke="midnightblue" d="M1819.6,-171.78C1749.43,-162.23 1600.14,-141.93 1518.04,-130.76"/>
<polygon fill="midnightblue" stroke="midnightblue" points="1819.39,-175.28 1829.77,-173.16 1820.33,-168.34 1819.39,-175.28"/>
</g>
<!-- Node66 -->
<g id="node39" class="node">
<title>Node66</title>
<g id="a_node39"><a xlink:href="ExeBinaryLoader_8cpp.html" target="_top" xlink:title=" ">
<polygon fill="white" stroke="black" points="1536.5,-112.5 1536.5,-131.5 1655.5,-131.5 1655.5,-112.5 1536.5,-112.5"/>
<text text-anchor="middle" x="1596" y="-119.5" font-family="Helvetica,sans-Serif" font-size="10.00">ExeBinaryLoader.cpp</text>
</a>
</g>
</g>
<!-- Node4&#45;&gt;Node66 -->
<g id="edge39" class="edge">
<title>Node4&#45;&gt;Node66</title>
<path fill="none" stroke="midnightblue" d="M1819.87,-169.14C1771.31,-159.13 1687.71,-141.9 1637.57,-131.57"/>
<polygon fill="midnightblue" stroke="midnightblue" points="1819.46,-172.63 1829.96,-171.22 1820.87,-165.77 1819.46,-172.63"/>
</g>
<!-- Node67 -->
<g id="node40" class="node">
<title>Node67</title>
<g id="a_node40"><a xlink:href="MachOBinaryLoader_8cpp.html" target="_top" xlink:title=" ">
<polygon fill="white" stroke="black" points="1790.5,-112.5 1790.5,-131.5 1925.5,-131.5 1925.5,-112.5 1790.5,-112.5"/>
<text text-anchor="middle" x="1858" y="-119.5" font-family="Helvetica,sans-Serif" font-size="10.00">MachOBinaryLoader.cpp</text>
</a>
</g>
</g>
<!-- Node4&#45;&gt;Node67 -->
<g id="edge40" class="edge">
<title>Node4&#45;&gt;Node67</title>
<path fill="none" stroke="midnightblue" d="M1858,-157.8C1858,-148.91 1858,-138.78 1858,-131.75"/>
<polygon fill="midnightblue" stroke="midnightblue" points="1854.5,-158.08 1858,-168.08 1861.5,-158.08 1854.5,-158.08"/>
</g>
<!-- Node68 -->
<g id="node41" class="node">
<title>Node68</title>
<g id="a_node41"><a xlink:href="Win32BinaryLoader_8cpp.html" target="_top" xlink:title=" ">
<polygon fill="white" stroke="black" points="1944,-112.5 1944,-131.5 2076,-131.5 2076,-112.5 1944,-112.5"/>
<text text-anchor="middle" x="2010" y="-119.5" font-family="Helvetica,sans-Serif" font-size="10.00">Win32BinaryLoader.cpp</text>
</a>
</g>
</g>
<!-- Node4&#45;&gt;Node68 -->
<g id="edge41" class="edge">
<title>Node4&#45;&gt;Node68</title>
<path fill="none" stroke="midnightblue" d="M1891.67,-165.04C1920.27,-154.88 1960.61,-140.55 1986.03,-131.52"/>
<polygon fill="midnightblue" stroke="midnightblue" points="1890.34,-161.8 1882.08,-168.44 1892.68,-168.39 1890.34,-161.8"/>
</g>
<!-- Node69 -->
<g id="node42" class="node">
<title>Node69</title>
<g id="a_node42"><a xlink:href="ST20BinaryLoader_8cpp.html" target="_top" xlink:title=" ">
<polygon fill="white" stroke="black" points="2094.5,-112.5 2094.5,-131.5 2219.5,-131.5 2219.5,-112.5 2094.5,-112.5"/>
<text text-anchor="middle" x="2157" y="-119.5" font-family="Helvetica,sans-Serif" font-size="10.00">ST20BinaryLoader.cpp</text>
</a>
</g>
</g>
<!-- Node4&#45;&gt;Node69 -->
<g id="edge42" class="edge">
<title>Node4&#45;&gt;Node69</title>
<path fill="none" stroke="midnightblue" d="M1896.07,-170.13C1950.51,-160.29 2050.57,-142.22 2109.7,-131.54"/>
<polygon fill="midnightblue" stroke="midnightblue" points="1895.35,-166.7 1886.13,-171.92 1896.59,-173.59 1895.35,-166.7"/>
</g>
<!-- Node70 -->
<g id="node43" class="node">
<title>Node70</title>
<g id="a_node43"><a xlink:href="CSymbolProvider_8cpp.html" target="_top" xlink:title=" ">
<polygon fill="white" stroke="black" points="2237.5,-112.5 2237.5,-131.5 2358.5,-131.5 2358.5,-112.5 2237.5,-112.5"/>
<text text-anchor="middle" x="2298" y="-119.5" font-family="Helvetica,sans-Serif" font-size="10.00">CSymbolProvider.cpp</text>
</a>
</g>
</g>
<!-- Node4&#45;&gt;Node70 -->
<g id="edge43" class="edge">
<title>Node4&#45;&gt;Node70</title>
<path fill="none" stroke="midnightblue" d="M1896.55,-172.44C1963.98,-164.44 2107.71,-147.27 2229,-132 2231.76,-131.65 2234.58,-131.3 2237.42,-130.93"/>
<polygon fill="midnightblue" stroke="midnightblue" points="1895.92,-168.99 1886.4,-173.64 1896.75,-175.94 1895.92,-168.99"/>
</g>
<!-- Node7 -->
<g id="node7" class="node">
<title>Node7</title>
<g id="a_node7"><a xlink:href="PluginManager_8cpp.html" target="_top" xlink:title=" ">
<polygon fill="white" stroke="black" points="1668,-56.5 1668,-75.5 1778,-75.5 1778,-56.5 1668,-56.5"/>
<text text-anchor="middle" x="1723" y="-63.5" font-family="Helvetica,sans-Serif" font-size="10.00">PluginManager.cpp</text>
</a>
</g>
</g>
<!-- Node6&#45;&gt;Node7 -->
<g id="edge6" class="edge">
<title>Node6&#45;&gt;Node7</title>
<path fill="none" stroke="midnightblue" d="M1723,-101.8C1723,-92.91 1723,-82.78 1723,-75.75"/>
<polygon fill="midnightblue" stroke="midnightblue" points="1719.5,-102.08 1723,-112.08 1726.5,-102.08 1719.5,-102.08"/>
</g>
<!-- Node8 -->
<g id="node8" class="node">
<title>Node8</title>
<g id="a_node8"><a xlink:href="Project_8h.html" target="_top" xlink:title=" ">
<polygon fill="white" stroke="red" points="1905.5,-56.5 1905.5,-75.5 1964.5,-75.5 1964.5,-56.5 1905.5,-56.5"/>
<text text-anchor="middle" x="1935" y="-63.5" font-family="Helvetica,sans-Serif" font-size="10.00">Project.h</text>
</a>
</g>
</g>
<!-- Node6&#45;&gt;Node8 -->
<g id="edge7" class="edge">
<title>Node6&#45;&gt;Node8</title>
<path fill="none" stroke="midnightblue" d="M1766.41,-109.94C1807.86,-99.39 1869.19,-83.76 1905.33,-74.56"/>
<polygon fill="midnightblue" stroke="midnightblue" points="1765.42,-106.58 1756.59,-112.44 1767.15,-113.37 1765.42,-106.58"/>
</g>
<!-- Node9 -->
<g id="node9" class="node">
<title>Node9</title>
<g id="a_node9"><a xlink:href="Project_8cpp.html" target="_top" xlink:title=" ">
<polygon fill="white" stroke="black" points="1804.5,-0.5 1804.5,-19.5 1875.5,-19.5 1875.5,-0.5 1804.5,-0.5"/>
<text text-anchor="middle" x="1840" y="-7.5" font-family="Helvetica,sans-Serif" font-size="10.00">Project.cpp</text>
</a>
</g>
</g>
<!-- Node8&#45;&gt;Node9 -->
<g id="edge8" class="edge">
<title>Node8&#45;&gt;Node9</title>
<path fill="none" stroke="midnightblue" d="M1910.68,-51.18C1893.2,-41.24 1870.17,-28.15 1855.23,-19.65"/>
<polygon fill="midnightblue" stroke="midnightblue" points="1909.31,-54.43 1919.74,-56.32 1912.77,-48.34 1909.31,-54.43"/>
</g>
<!-- Node10 -->
<g id="node10" class="node">
<title>Node10</title>
<g id="a_node10"><a xlink:href="DataFlow_8cpp.html" target="_top" xlink:title=" ">
<polygon fill="white" stroke="black" points="1893.5,-0.5 1893.5,-19.5 1976.5,-19.5 1976.5,-0.5 1893.5,-0.5"/>
<text text-anchor="middle" x="1935" y="-7.5" font-family="Helvetica,sans-Serif" font-size="10.00">DataFlow.cpp</text>
</a>
</g>
</g>
<!-- Node8&#45;&gt;Node10 -->
<g id="edge9" class="edge">
<title>Node8&#45;&gt;Node10</title>
<path fill="none" stroke="midnightblue" d="M1935,-45.8C1935,-36.91 1935,-26.78 1935,-19.75"/>
<polygon fill="midnightblue" stroke="midnightblue" points="1931.5,-46.08 1935,-56.08 1938.5,-46.08 1931.5,-46.08"/>
</g>
<!-- Node11 -->
<g id="node11" class="node">
<title>Node11</title>
<g id="a_node11"><a xlink:href="Module_8cpp.html" target="_top" xlink:title=" ">
<polygon fill="white" stroke="black" points="1994.5,-0.5 1994.5,-19.5 2067.5,-19.5 2067.5,-0.5 1994.5,-0.5"/>
<text text-anchor="middle" x="2031" y="-7.5" font-family="Helvetica,sans-Serif" font-size="10.00">Module.cpp</text>
</a>
</g>
</g>
<!-- Node8&#45;&gt;Node11 -->
<g id="edge10" class="edge">
<title>Node8&#45;&gt;Node11</title>
<path fill="none" stroke="midnightblue" d="M1959.57,-51.18C1977.24,-41.24 2000.51,-28.15 2015.61,-19.65"/>
<polygon fill="midnightblue" stroke="midnightblue" points="1957.42,-48.37 1950.42,-56.32 1960.86,-54.47 1957.42,-48.37"/>
</g>
<!-- Node12 -->
<g id="node12" class="node">
<title>Node12</title>
<g id="a_node12"><a xlink:href="Proc_8cpp.html" target="_top" xlink:title=" ">
<polygon fill="white" stroke="black" points="2086,-0.5 2086,-19.5 2144,-19.5 2144,-0.5 2086,-0.5"/>
<text text-anchor="middle" x="2115" y="-7.5" font-family="Helvetica,sans-Serif" font-size="10.00">Proc.cpp</text>
</a>
</g>
</g>
<!-- Node8&#45;&gt;Node12 -->
<g id="edge11" class="edge">
<title>Node8&#45;&gt;Node12</title>
<path fill="none" stroke="midnightblue" d="M1973.11,-53.57C2007.06,-43.38 2055.99,-28.7 2086.61,-19.52"/>
<polygon fill="midnightblue" stroke="midnightblue" points="1972.09,-50.22 1963.52,-56.44 1974.11,-56.92 1972.09,-50.22"/>
</g>
<!-- Node13 -->
<g id="node13" class="node">
<title>Node13</title>
<g id="a_node13"><a xlink:href="UserProc_8cpp.html" target="_top" xlink:title=" ">
<polygon fill="white" stroke="black" points="2162,-0.5 2162,-19.5 2242,-19.5 2242,-0.5 2162,-0.5"/>
<text text-anchor="middle" x="2202" y="-7.5" font-family="Helvetica,sans-Serif" font-size="10.00">UserProc.cpp</text>
</a>
</g>
</g>
<!-- Node8&#45;&gt;Node13 -->
<g id="edge12" class="edge">
<title>Node8&#45;&gt;Node13</title>
<path fill="none" stroke="midnightblue" d="M1974.45,-57.02C2024.75,-46.85 2111.24,-29.36 2161.86,-19.12"/>
<polygon fill="midnightblue" stroke="midnightblue" points="1973.7,-53.6 1964.59,-59.01 1975.09,-60.46 1973.7,-53.6"/>
</g>
<!-- Node8&#45;&gt;Node14 -->
<g id="edge13" class="edge">
<title>Node8&#45;&gt;Node14</title>
<path fill="none" stroke="midnightblue" d="M1974.94,-64.77C2171.82,-63.46 3040.33,-55.72 3308,-20 3310.69,-19.64 3313.46,-19.17 3316.23,-18.64"/>
<polygon fill="midnightblue" stroke="midnightblue" points="1974.74,-61.27 1964.76,-64.83 1974.78,-68.27 1974.74,-61.27"/>
</g>
<!-- Node15 -->
<g id="node15" class="node">
<title>Node15</title>
<g id="a_node15"><a xlink:href="IndirectJumpAnalyzer_8cpp.html" target="_top" xlink:title=" ">
<polygon fill="white" stroke="black" points="2260.5,-0.5 2260.5,-19.5 2401.5,-19.5 2401.5,-0.5 2260.5,-0.5"/>
<text text-anchor="middle" x="2331" y="-7.5" font-family="Helvetica,sans-Serif" font-size="10.00">IndirectJumpAnalyzer.cpp</text>
</a>
</g>
</g>
<!-- Node8&#45;&gt;Node15 -->
<g id="edge14" class="edge">
<title>Node8&#45;&gt;Node15</title>
<path fill="none" stroke="midnightblue" d="M1974.8,-59.57C2043.86,-50.16 2186.35,-30.72 2268.65,-19.5"/>
<polygon fill="midnightblue" stroke="midnightblue" points="1974.2,-56.12 1964.76,-60.94 1975.15,-63.06 1974.2,-56.12"/>
</g>
<!-- Node16 -->
<g id="node16" class="node">
<title>Node16</title>
<g id="a_node16"><a xlink:href="InterferenceFinder_8cpp.html" target="_top" xlink:title=" ">
<polygon fill="white" stroke="black" points="2419.5,-0.5 2419.5,-19.5 2544.5,-19.5 2544.5,-0.5 2419.5,-0.5"/>
<text text-anchor="middle" x="2482" y="-7.5" font-family="Helvetica,sans-Serif" font-size="10.00">InterferenceFinder.cpp</text>
</a>
</g>
</g>
<!-- Node8&#45;&gt;Node16 -->
<g id="edge15" class="edge">
<title>Node8&#45;&gt;Node16</title>
<path fill="none" stroke="midnightblue" d="M1974.9,-61.66C2056.74,-54.71 2249.53,-37.86 2411,-20 2413.72,-19.7 2416.49,-19.38 2419.29,-19.06"/>
<polygon fill="midnightblue" stroke="midnightblue" points="1974.23,-58.2 1964.56,-62.54 1974.82,-65.18 1974.23,-58.2"/>
</g>
<!-- Node17 -->
<g id="node17" class="node">
<title>Node17</title>
<g id="a_node17"><a xlink:href="LivenessAnalyzer_8cpp.html" target="_top" xlink:title=" ">
<polygon fill="white" stroke="black" points="2563,-0.5 2563,-19.5 2685,-19.5 2685,-0.5 2563,-0.5"/>
<text text-anchor="middle" x="2624" y="-7.5" font-family="Helvetica,sans-Serif" font-size="10.00">LivenessAnalyzer.cpp</text>
</a>
</g>
</g>
<!-- Node8&#45;&gt;Node17 -->
<g id="edge16" class="edge">
<title>Node8&#45;&gt;Node17</title>
<path fill="none" stroke="midnightblue" d="M1974.78,-62.87C2073.16,-57.45 2335.74,-41.95 2554,-20 2556.93,-19.71 2559.92,-19.39 2562.94,-19.05"/>
<polygon fill="midnightblue" stroke="midnightblue" points="1974.48,-59.38 1964.69,-63.43 1974.86,-66.37 1974.48,-59.38"/>
</g>
<!-- Node18 -->
<g id="node18" class="node">
<title>Node18</title>
<g id="a_node18"><a xlink:href="ProcDecompiler_8cpp.html" target="_top" xlink:title=" ">
<polygon fill="white" stroke="black" points="2703,-0.5 2703,-19.5 2817,-19.5 2817,-0.5 2703,-0.5"/>
<text text-anchor="middle" x="2760" y="-7.5" font-family="Helvetica,sans-Serif" font-size="10.00">ProcDecompiler.cpp</text>
</a>
</g>
</g>
<!-- Node8&#45;&gt;Node18 -->
<g id="edge17" class="edge">
<title>Node8&#45;&gt;Node18</title>
<path fill="none" stroke="midnightblue" d="M1974.97,-63.71C2088.04,-59.81 2419.73,-46.79 2694,-20 2696.88,-19.72 2699.82,-19.41 2702.79,-19.07"/>
<polygon fill="midnightblue" stroke="midnightblue" points="1974.6,-60.22 1964.72,-64.05 1974.83,-67.21 1974.6,-60.22"/>
</g>
<!-- Node19 -->
<g id="node19" class="node">
<title>Node19</title>
<g id="a_node19"><a xlink:href="ProgDecompiler_8cpp.html" target="_top" xlink:title=" ">
<polygon fill="white" stroke="black" points="2835.5,-0.5 2835.5,-19.5 2950.5,-19.5 2950.5,-0.5 2835.5,-0.5"/>
<text text-anchor="middle" x="2893" y="-7.5" font-family="Helvetica,sans-Serif" font-size="10.00">ProgDecompiler.cpp</text>
</a>
</g>
</g>
<!-- Node8&#45;&gt;Node19 -->
<g id="edge18" class="edge">
<title>Node8&#45;&gt;Node19</title>
<path fill="none" stroke="midnightblue" d="M1974.95,-64.16C2100.49,-61.29 2498.18,-50.24 2826,-20 2829.04,-19.72 2832.15,-19.4 2835.29,-19.06"/>
<polygon fill="midnightblue" stroke="midnightblue" points="1974.59,-60.67 1964.67,-64.4 1974.75,-67.67 1974.59,-60.67"/>
</g>
<!-- Node20 -->
<g id="node20" class="node">
<title>Node20</title>
<g id="a_node20"><a xlink:href="UnusedReturnRemover_8cpp.html" target="_top" xlink:title=" ">
<polygon fill="white" stroke="black" points="2969,-0.5 2969,-19.5 3119,-19.5 3119,-0.5 2969,-0.5"/>
<text text-anchor="middle" x="3044" y="-7.5" font-family="Helvetica,sans-Serif" font-size="10.00">UnusedReturnRemover.cpp</text>
</a>
</g>
</g>
<!-- Node8&#45;&gt;Node20 -->
<g id="edge19" class="edge">
<title>Node8&#45;&gt;Node20</title>
<path fill="none" stroke="midnightblue" d="M1974.85,-64.15C2111.98,-61.04 2577,-48.9 2960,-20 2962.93,-19.78 2965.91,-19.54 2968.92,-19.28"/>
<polygon fill="midnightblue" stroke="midnightblue" points="1974.73,-60.65 1964.81,-64.38 1974.89,-67.65 1974.73,-60.65"/>
</g>
<!-- Node8&#45;&gt;Node21 -->
<g id="edge20" class="edge">
<title>Node8&#45;&gt;Node21</title>
<path fill="none" stroke="midnightblue" d="M1974.95,-65.39C2153.57,-66.83 2896.79,-69.35 3504,-20 3506.92,-19.76 3509.92,-19.49 3512.94,-19.18"/>
<polygon fill="midnightblue" stroke="midnightblue" points="1974.75,-61.89 1964.72,-65.31 1974.69,-68.89 1974.75,-61.89"/>
</g>
<!-- Node22 -->
<g id="node22" class="node">
<title>Node22</title>
<g id="a_node22"><a xlink:href="CallArgumentUpdatePass_8cpp.html" target="_top" xlink:title=" ">
<polygon fill="white" stroke="black" points="3137.5,-0.5 3137.5,-19.5 3298.5,-19.5 3298.5,-0.5 3137.5,-0.5"/>
<text text-anchor="middle" x="3218" y="-7.5" font-family="Helvetica,sans-Serif" font-size="10.00">CallArgumentUpdatePass.cpp</text>
</a>
</g>
</g>
<!-- Node8&#45;&gt;Node22 -->
<g id="edge21" class="edge">
<title>Node8&#45;&gt;Node22</title>
<path fill="none" stroke="midnightblue" d="M1974.7,-64.4C2125.29,-61.91 2675.68,-51.12 3128,-20 3130.98,-19.8 3134.01,-19.57 3137.07,-19.33"/>
<polygon fill="midnightblue" stroke="midnightblue" points="1974.49,-60.9 1964.55,-64.56 1974.61,-67.9 1974.49,-60.9"/>
</g>
<!-- Node23 -->
<g id="node23" class="node">
<title>Node23</title>
<g id="a_node23"><a xlink:href="CallDefineUpdatePass_8cpp.html" target="_top" xlink:title=" ">
<polygon fill="white" stroke="black" points="432,-0.5 432,-19.5 578,-19.5 578,-0.5 432,-0.5"/>
<text text-anchor="middle" x="505" y="-7.5" font-family="Helvetica,sans-Serif" font-size="10.00">CallDefineUpdatePass.cpp</text>
</a>
</g>
</g>
<!-- Node8&#45;&gt;Node23 -->
<g id="edge22" class="edge">
<title>Node8&#45;&gt;Node23</title>
<path fill="none" stroke="midnightblue" d="M1895.24,-62.25C1865.45,-60.27 1823.69,-57.67 1787,-56 1254.42,-31.82 1119.86,-56.76 588,-20 584.82,-19.78 581.57,-19.53 578.29,-19.26"/>
<polygon fill="midnightblue" stroke="midnightblue" points="1895.04,-65.74 1905.25,-62.92 1895.51,-58.76 1895.04,-65.74"/>
</g>
<!-- Node24 -->
<g id="node24" class="node">
<title>Node24</title>
<g id="a_node24"><a xlink:href="BlockVarRenamePass_8cpp.html" target="_top" xlink:title=" ">
<polygon fill="white" stroke="black" points="596.5,-0.5 596.5,-19.5 739.5,-19.5 739.5,-0.5 596.5,-0.5"/>
<text text-anchor="middle" x="668" y="-7.5" font-family="Helvetica,sans-Serif" font-size="10.00">BlockVarRenamePass.cpp</text>
</a>
</g>
</g>
<!-- Node8&#45;&gt;Node24 -->
<g id="edge23" class="edge">
<title>Node8&#45;&gt;Node24</title>
<path fill="none" stroke="midnightblue" d="M1895.24,-62.3C1865.45,-60.35 1823.69,-57.75 1787,-56 1325.91,-33.99 1209.39,-53.51 749,-20 745.9,-19.77 742.73,-19.52 739.53,-19.25"/>
<polygon fill="midnightblue" stroke="midnightblue" points="1895.04,-65.79 1905.25,-62.96 1895.5,-58.81 1895.04,-65.79"/>
</g>
<!-- Node25 -->
<g id="node25" class="node">
<title>Node25</title>
<g id="a_node25"><a xlink:href="StatementPropagationPass_8cpp.html" target="_top" xlink:title=" ">
<polygon fill="white" stroke="black" points="757.5,-0.5 757.5,-19.5 926.5,-19.5 926.5,-0.5 757.5,-0.5"/>
<text text-anchor="middle" x="842" y="-7.5" font-family="Helvetica,sans-Serif" font-size="10.00">StatementPropagationPass.cpp</text>
</a>
</g>
</g>
<!-- Node8&#45;&gt;Node25 -->
<g id="edge24" class="edge">
<title>Node8&#45;&gt;Node25</title>
<path fill="none" stroke="midnightblue" d="M1895.23,-62.38C1865.45,-60.47 1823.68,-57.89 1787,-56 1408.94,-36.51 1313.66,-46.05 936,-20 932.89,-19.79 929.73,-19.55 926.53,-19.31"/>
<polygon fill="midnightblue" stroke="midnightblue" points="1895.04,-65.88 1905.24,-63.03 1895.49,-58.89 1895.04,-65.88"/>
</g>
<!-- Node26 -->
<g id="node26" class="node">
<title>Node26</title>
<g id="a_node26"><a xlink:href="FromSSAFormPass_8cpp.html" target="_top" xlink:title=" ">
<polygon fill="white" stroke="black" points="945,-0.5 945,-19.5 1073,-19.5 1073,-0.5 945,-0.5"/>
<text text-anchor="middle" x="1009" y="-7.5" font-family="Helvetica,sans-Serif" font-size="10.00">FromSSAFormPass.cpp</text>
</a>
</g>
</g>
<!-- Node8&#45;&gt;Node26 -->
<g id="edge25" class="edge">
<title>Node8&#45;&gt;Node26</title>
<path fill="none" stroke="midnightblue" d="M1895.23,-62.48C1865.44,-60.61 1823.67,-58.05 1787,-56 1473.75,-38.48 1394.56,-47.21 1082,-20 1079.07,-19.75 1076.08,-19.46 1073.07,-19.16"/>
<polygon fill="midnightblue" stroke="midnightblue" points="1895.04,-65.97 1905.24,-63.11 1895.48,-58.99 1895.04,-65.97"/>
</g>
<!-- Node27 -->
<g id="node27" class="node">
<title>Node27</title>
<g id="a_node27"><a xlink:href="LocalAndParamMapPass_8cpp.html" target="_top" xlink:title=" ">
<polygon fill="white" stroke="black" points="1091,-0.5 1091,-19.5 1247,-19.5 1247,-0.5 1091,-0.5"/>
<text text-anchor="middle" x="1169" y="-7.5" font-family="Helvetica,sans-Serif" font-size="10.00">LocalAndParamMapPass.cpp</text>
</a>
</g>
</g>
<!-- Node8&#45;&gt;Node27 -->
<g id="edge26" class="edge">
<title>Node8&#45;&gt;Node27</title>
<path fill="none" stroke="midnightblue" d="M1895.14,-62.54C1769.45,-54.76 1382.36,-30.57 1257,-20 1253.79,-19.73 1250.51,-19.44 1247.2,-19.14"/>
<polygon fill="midnightblue" stroke="midnightblue" points="1895.25,-66.06 1905.45,-63.18 1895.69,-59.07 1895.25,-66.06"/>
</g>
<!-- Node28 -->
<g id="node28" class="node">
<title>Node28</title>
<g id="a_node28"><a xlink:href="LocalTypeAnalysisPass_8cpp.html" target="_top" xlink:title=" ">
<polygon fill="white" stroke="black" points="1265.5,-0.5 1265.5,-19.5 1414.5,-19.5 1414.5,-0.5 1265.5,-0.5"/>
<text text-anchor="middle" x="1340" y="-7.5" font-family="Helvetica,sans-Serif" font-size="10.00">LocalTypeAnalysisPass.cpp</text>
</a>
</g>
</g>
<!-- Node8&#45;&gt;Node28 -->
<g id="edge27" class="edge">
<title>Node8&#45;&gt;Node28</title>
<path fill="none" stroke="midnightblue" d="M1895.21,-61.75C1809.19,-54.68 1599.5,-37.13 1424,-20 1420.93,-19.7 1417.81,-19.39 1414.65,-19.07"/>
<polygon fill="midnightblue" stroke="midnightblue" points="1895.06,-65.25 1905.32,-62.58 1895.64,-58.28 1895.06,-65.25"/>
</g>
<!-- Node29 -->
<g id="node29" class="node">
<title>Node29</title>
<g id="a_node29"><a xlink:href="UnusedLocalRemovalPass_8cpp.html" target="_top" xlink:title=" ">
<polygon fill="white" stroke="black" points="1432.5,-0.5 1432.5,-19.5 1597.5,-19.5 1597.5,-0.5 1432.5,-0.5"/>
<text text-anchor="middle" x="1515" y="-7.5" font-family="Helvetica,sans-Serif" font-size="10.00">UnusedLocalRemovalPass.cpp</text>
</a>
</g>
</g>
<!-- Node8&#45;&gt;Node29 -->
<g id="edge28" class="edge">
<title>Node8&#45;&gt;Node29</title>
<path fill="none" stroke="midnightblue" d="M1895.43,-59.91C1823.25,-50.63 1669.55,-30.87 1581.19,-19.51"/>
<polygon fill="midnightblue" stroke="midnightblue" points="1895.1,-63.4 1905.47,-61.2 1895.99,-56.46 1895.1,-63.4"/>
</g>
<!-- Node30 -->
<g id="node30" class="node">
<title>Node30</title>
<g id="a_node30"><a xlink:href="UnusedParamRemovalPass_8cpp.html" target="_top" xlink:title=" ">
<polygon fill="white" stroke="black" points="1615.5,-0.5 1615.5,-19.5 1786.5,-19.5 1786.5,-0.5 1615.5,-0.5"/>
<text text-anchor="middle" x="1701" y="-7.5" font-family="Helvetica,sans-Serif" font-size="10.00">UnusedParamRemovalPass.cpp</text>
</a>
</g>
</g>
<!-- Node8&#45;&gt;Node30 -->
<g id="edge29" class="edge">
<title>Node8&#45;&gt;Node30</title>
<path fill="none" stroke="midnightblue" d="M1895.6,-55.91C1851.65,-45.77 1781.09,-29.48 1738.1,-19.56"/>
<polygon fill="midnightblue" stroke="midnightblue" points="1894.83,-59.32 1905.36,-58.16 1896.41,-52.5 1894.83,-59.32"/>
</g>
<!-- Node53 -->
<g id="node31" class="node">
<title>Node53</title>
<g id="a_node31"><a xlink:href="CapstoneDecoder_8cpp.html" target="_top" xlink:title=" ">
<polygon fill="white" stroke="black" points="290.5,-0.5 290.5,-19.5 413.5,-19.5 413.5,-0.5 290.5,-0.5"/>
<text text-anchor="middle" x="352" y="-7.5" font-family="Helvetica,sans-Serif" font-size="10.00">CapstoneDecoder.cpp</text>
</a>
</g>
</g>
<!-- Node8&#45;&gt;Node53 -->
<g id="edge30" class="edge">
<title>Node8&#45;&gt;Node53</title>
<path fill="none" stroke="midnightblue" d="M1895.24,-62.21C1865.46,-60.21 1823.69,-57.6 1787,-56 1181.14,-29.59 1027.67,-66.19 423,-20 419.9,-19.76 416.73,-19.49 413.54,-19.18"/>
<polygon fill="midnightblue" stroke="midnightblue" points="1895.04,-65.7 1905.25,-62.89 1895.51,-58.72 1895.04,-65.7"/>
</g>
<!-- Node8&#45;&gt;Node54 -->
<g id="edge31" class="edge">
<title>Node8&#45;&gt;Node54</title>
<path fill="none" stroke="midnightblue" d="M1895.24,-62.18C1865.46,-60.17 1823.7,-57.55 1787,-56 1118.07,-27.68 948.98,-65.47 281,-20 278.07,-19.8 275.09,-19.57 272.07,-19.32"/>
<polygon fill="midnightblue" stroke="midnightblue" points="1895.04,-65.68 1905.25,-62.87 1895.51,-58.69 1895.04,-65.68"/>
</g>
<!-- Node55 -->
<g id="node33" class="node">
<title>Node55</title>
<g id="a_node33"><a xlink:href="ST20Decoder_8cpp.html" target="_top" xlink:title=" ">
<polygon fill="white" stroke="black" points="3393.5,-0.5 3393.5,-19.5 3494.5,-19.5 3494.5,-0.5 3393.5,-0.5"/>
<text text-anchor="middle" x="3444" y="-7.5" font-family="Helvetica,sans-Serif" font-size="10.00">ST20Decoder.cpp</text>
</a>
</g>
</g>
<!-- Node8&#45;&gt;Node55 -->
<g id="edge32" class="edge">
<title>Node8&#45;&gt;Node55</title>
<path fill="none" stroke="midnightblue" d="M1974.82,-64.41C2177.92,-61.32 3099.94,-46.07 3385,-20 3387.68,-19.75 3390.43,-19.47 3393.2,-19.15"/>
<polygon fill="midnightblue" stroke="midnightblue" points="1974.56,-60.92 1964.61,-64.57 1974.67,-67.92 1974.56,-60.92"/>
</g>
<!-- Node57 -->
<g id="node34" class="node">
<title>Node57</title>
<g id="a_node34"><a xlink:href="SPARCFrontEnd_8cpp.html" target="_top" xlink:title=" ">
<polygon fill="white" stroke="black" points="0,-0.5 0,-19.5 112,-19.5 112,-0.5 0,-0.5"/>
<text text-anchor="middle" x="56" y="-7.5" font-family="Helvetica,sans-Serif" font-size="10.00">SPARCFrontEnd.cpp</text>
</a>
</g>
</g>
<!-- Node8&#45;&gt;Node57 -->
<g id="edge33" class="edge">
<title>Node8&#45;&gt;Node57</title>
<path fill="none" stroke="midnightblue" d="M1895.25,-62.16C1865.46,-60.13 1823.7,-57.51 1787,-56 1047.01,-25.52 859.27,-78.89 121,-20 118.16,-19.77 115.26,-19.51 112.33,-19.21"/>
<polygon fill="midnightblue" stroke="midnightblue" points="1895.04,-65.65 1905.25,-62.85 1895.52,-58.67 1895.04,-65.65"/>
</g>
<!-- Node71&#45;&gt;Node53 -->
<g id="edge47" class="edge">
<title>Node71&#45;&gt;Node53</title>
<path fill="none" stroke="midnightblue" d="M1079.52,-219.21C1020.41,-185.21 859.77,-97.14 714,-56 588.58,-20.61 552.31,-36.19 423,-20 419.92,-19.61 416.76,-19.22 413.57,-18.82"/>
<polygon fill="midnightblue" stroke="midnightblue" points="1078.02,-222.39 1088.43,-224.37 1081.53,-216.33 1078.02,-222.39"/>
</g>
<!-- Node72 -->
<g id="node45" class="node">
<title>Node72</title>
<g id="a_node45"><a xlink:href="CapstoneX86Decoder_8h.html" target="_top" xlink:title=" ">
<polygon fill="white" stroke="black" points="573.5,-56.5 573.5,-75.5 704.5,-75.5 704.5,-56.5 573.5,-56.5"/>
<text text-anchor="middle" x="639" y="-63.5" font-family="Helvetica,sans-Serif" font-size="10.00">CapstoneX86Decoder.h</text>
</a>
</g>
</g>
<!-- Node71&#45;&gt;Node72 -->
<g id="edge48" class="edge">
<title>Node71&#45;&gt;Node72</title>
<path fill="none" stroke="midnightblue" d="M1056.08,-222.01C1022.36,-213.71 975.97,-201.47 936,-188 828.63,-151.82 704.29,-96.7 657.8,-75.61"/>
<polygon fill="midnightblue" stroke="midnightblue" points="1055.58,-225.49 1066.12,-224.45 1057.24,-218.69 1055.58,-225.49"/>
</g>
<!-- Node73 -->
<g id="node46" class="node">
<title>Node73</title>
<g id="a_node46"><a xlink:href="CapstonePPCDecoder_8h.html" target="_top" xlink:title=" ">
<polygon fill="white" stroke="black" points="1037.5,-168.5 1037.5,-187.5 1168.5,-187.5 1168.5,-168.5 1037.5,-168.5"/>
<text text-anchor="middle" x="1103" y="-175.5" font-family="Helvetica,sans-Serif" font-size="10.00">CapstonePPCDecoder.h</text>
</a>
</g>
</g>
<!-- Node71&#45;&gt;Node73 -->
<g id="edge50" class="edge">
<title>Node71&#45;&gt;Node73</title>
<path fill="none" stroke="midnightblue" d="M1103,-213.8C1103,-204.91 1103,-194.78 1103,-187.75"/>
<polygon fill="midnightblue" stroke="midnightblue" points="1099.5,-214.08 1103,-224.08 1106.5,-214.08 1099.5,-214.08"/>
</g>
<!-- Node74 -->
<g id="node47" class="node">
<title>Node74</title>
<g id="a_node47"><a xlink:href="CapstoneSPARCDecoder_8h.html" target="_top" xlink:title=" ">
<polygon fill="white" stroke="black" points="1193,-168.5 1193,-187.5 1337,-187.5 1337,-168.5 1193,-168.5"/>
<text text-anchor="middle" x="1265" y="-175.5" font-family="Helvetica,sans-Serif" font-size="10.00">CapstoneSPARCDecoder.h</text>
</a>
</g>
</g>
<!-- Node71&#45;&gt;Node74 -->
<g id="edge52" class="edge">
<title>Node71&#45;&gt;Node74</title>
<path fill="none" stroke="midnightblue" d="M1138.48,-221.17C1168.99,-211 1212.24,-196.59 1239.45,-187.52"/>
<polygon fill="midnightblue" stroke="midnightblue" points="1137.05,-217.96 1128.67,-224.44 1139.26,-224.6 1137.05,-217.96"/>
</g>
<!-- Node72&#45;&gt;Node54 -->
<g id="edge49" class="edge">
<title>Node72&#45;&gt;Node54</title>
<path fill="none" stroke="midnightblue" d="M563.37,-55.68C480.93,-45.51 350.13,-29.39 270.28,-19.54"/>
<polygon fill="midnightblue" stroke="midnightblue" points="563.07,-59.17 573.43,-56.92 563.93,-52.22 563.07,-59.17"/>
</g>
<!-- Node73&#45;&gt;Node62 -->
<g id="edge51" class="edge">
<title>Node73&#45;&gt;Node62</title>
<path fill="none" stroke="midnightblue" d="M1103,-157.8C1103,-148.91 1103,-138.78 1103,-131.75"/>
<polygon fill="midnightblue" stroke="midnightblue" points="1099.5,-158.08 1103,-168.08 1106.5,-158.08 1099.5,-158.08"/>
</g>
<!-- Node74&#45;&gt;Node63 -->
<g id="edge53" class="edge">
<title>Node74&#45;&gt;Node63</title>
<path fill="none" stroke="midnightblue" d="M1266.75,-158.1C1267.58,-149.14 1268.53,-138.86 1269.19,-131.75"/>
<polygon fill="midnightblue" stroke="midnightblue" points="1263.26,-157.8 1265.83,-168.08 1270.23,-158.45 1263.26,-157.8"/>
</g>
<!-- Node75&#45;&gt;Node55 -->
<g id="edge55" class="edge">
<title>Node75&#45;&gt;Node55</title>
<path fill="none" stroke="midnightblue" d="M3434.17,-46.4C3436.68,-37.36 3439.57,-26.94 3441.57,-19.75"/>
<polygon fill="midnightblue" stroke="midnightblue" points="3430.78,-45.51 3431.48,-56.08 3437.53,-47.38 3430.78,-45.51"/>
</g>
<!-- Node76&#45;&gt;Node57 -->
<g id="edge57" class="edge">
<title>Node76&#45;&gt;Node57</title>
<path fill="none" stroke="midnightblue" d="M854.53,-221.79C707.03,-182.85 218.92,-54.01 88.36,-19.54"/>
<polygon fill="midnightblue" stroke="midnightblue" points="853.98,-225.27 864.55,-224.43 855.77,-218.5 853.98,-225.27"/>
</g>
</g>
</svg>
