<?xml version="1.0" encoding="UTF-8" standalone="no"?>
<!DOCTYPE svg PUBLIC "-//W3C//DTD SVG 1.1//EN"
 "http://www.w3.org/Graphics/SVG/1.1/DTD/svg11.dtd">
<!-- Generated by graphviz version 2.43.0 (0)
 -->
<!-- Title: DefaultFrontEnd.h Pages: 1 -->
<svg width="580pt" height="341pt"
 viewBox="0.00 0.00 579.50 341.00" xmlns="http://www.w3.org/2000/svg" xmlns:xlink="http://www.w3.org/1999/xlink">
<g id="graph0" class="graph" transform="scale(1 1) rotate(0) translate(4 337)">
<title>DefaultFrontEnd.h</title>
<polygon fill="white" stroke="transparent" points="-4,4 -4,-337 575.5,-337 575.5,4 -4,4"/>
<!-- Node1 -->
<g id="node1" class="node">
<title>Node1</title>
<g id="a_node1"><a xlink:title=" ">
<polygon fill="#bfbfbf" stroke="black" points="332.5,-313.5 332.5,-332.5 436.5,-332.5 436.5,-313.5 332.5,-313.5"/>
<text text-anchor="middle" x="384.5" y="-320.5" font-family="Helvetica,sans-Serif" font-size="10.00">DefaultFrontEnd.h</text>
</a>
</g>
</g>
<!-- Node2 -->
<g id="node2" class="node">
<title>Node2</title>
<g id="a_node2"><a xlink:href="SigEnum_8h.html" target="_top" xlink:title=" ">
<polygon fill="white" stroke="black" points="225.5,-179.5 225.5,-209.5 341.5,-209.5 341.5,-179.5 225.5,-179.5"/>
<text text-anchor="start" x="233.5" y="-197.5" font-family="Helvetica,sans-Serif" font-size="10.00">boomerang/frontend</text>
<text text-anchor="middle" x="283.5" y="-186.5" font-family="Helvetica,sans-Serif" font-size="10.00">/SigEnum.h</text>
</a>
</g>
</g>
<!-- Node1&#45;&gt;Node2 -->
<g id="edge1" class="edge">
<title>Node1&#45;&gt;Node2</title>
<path fill="none" stroke="midnightblue" d="M357.32,-313.38C339.46,-306.34 316.97,-294.64 303.5,-277 290.91,-260.51 286.13,-237.14 284.38,-219.65"/>
<polygon fill="midnightblue" stroke="midnightblue" points="287.87,-219.35 283.63,-209.63 280.89,-219.87 287.87,-219.35"/>
</g>
<!-- Node3 -->
<g id="node3" class="node">
<title>Node3</title>
<g id="a_node3"><a xlink:href="TargetQueue_8h.html" target="_top" xlink:title=" ">
<polygon fill="white" stroke="black" points="78.5,-246.5 78.5,-276.5 194.5,-276.5 194.5,-246.5 78.5,-246.5"/>
<text text-anchor="start" x="86.5" y="-264.5" font-family="Helvetica,sans-Serif" font-size="10.00">boomerang/frontend</text>
<text text-anchor="middle" x="136.5" y="-253.5" font-family="Helvetica,sans-Serif" font-size="10.00">/TargetQueue.h</text>
</a>
</g>
</g>
<!-- Node1&#45;&gt;Node3 -->
<g id="edge2" class="edge">
<title>Node1&#45;&gt;Node3</title>
<path fill="none" stroke="midnightblue" d="M348.97,-313.48C311.46,-304.48 251.41,-290.07 204.7,-278.86"/>
<polygon fill="midnightblue" stroke="midnightblue" points="205.49,-275.45 194.95,-276.52 203.86,-282.26 205.49,-275.45"/>
</g>
<!-- Node12 -->
<g id="node12" class="node">
<title>Node12</title>
<g id="a_node12"><a xlink:href="IFrontEnd_8h.html" target="_top" xlink:title=" ">
<polygon fill="white" stroke="black" points="312,-252 312,-271 457,-271 457,-252 312,-252"/>
<text text-anchor="middle" x="384.5" y="-259" font-family="Helvetica,sans-Serif" font-size="10.00">boomerang/ifc/IFrontEnd.h</text>
</a>
</g>
</g>
<!-- Node1&#45;&gt;Node12 -->
<g id="edge13" class="edge">
<title>Node1&#45;&gt;Node12</title>
<path fill="none" stroke="midnightblue" d="M384.5,-313.48C384.5,-305.08 384.5,-291.98 384.5,-281.16"/>
<polygon fill="midnightblue" stroke="midnightblue" points="388,-281.01 384.5,-271.01 381,-281.01 388,-281.01"/>
</g>
<!-- Node14 -->
<g id="node14" class="node">
<title>Node14</title>
<g id="a_node14"><a xlink:title=" ">
<polygon fill="white" stroke="#bfbfbf" points="513.5,-185 513.5,-204 571.5,-204 571.5,-185 513.5,-185"/>
<text text-anchor="middle" x="542.5" y="-192" font-family="Helvetica,sans-Serif" font-size="10.00">memory</text>
</a>
</g>
</g>
<!-- Node1&#45;&gt;Node14 -->
<g id="edge21" class="edge">
<title>Node1&#45;&gt;Node14</title>
<path fill="none" stroke="midnightblue" d="M404.12,-313.42C421.43,-305.35 446.89,-292.25 466.5,-277 491.34,-257.68 515.29,-230.01 529.46,-212.4"/>
<polygon fill="midnightblue" stroke="midnightblue" points="532.48,-214.22 535.93,-204.21 526.99,-209.89 532.48,-214.22"/>
</g>
<!-- Node16 -->
<g id="node16" class="node">
<title>Node16</title>
<g id="a_node16"><a xlink:title=" ">
<polygon fill="white" stroke="#bfbfbf" points="513.5,-252 513.5,-271 551.5,-271 551.5,-252 513.5,-252"/>
<text text-anchor="middle" x="532.5" y="-259" font-family="Helvetica,sans-Serif" font-size="10.00">map</text>
</a>
</g>
</g>
<!-- Node1&#45;&gt;Node16 -->
<g id="edge20" class="edge">
<title>Node1&#45;&gt;Node16</title>
<path fill="none" stroke="midnightblue" d="M407.09,-313.48C430.35,-304.62 467.62,-290.23 499.5,-277 500.91,-276.42 502.35,-275.81 503.8,-275.19"/>
<polygon fill="midnightblue" stroke="midnightblue" points="505.57,-278.24 513.36,-271.07 502.79,-271.82 505.57,-278.24"/>
</g>
<!-- Node4 -->
<g id="node4" class="node">
<title>Node4</title>
<g id="a_node4"><a xlink:href="Address_8h.html" target="_top" xlink:title=" ">
<polygon fill="white" stroke="black" points="65.5,-185 65.5,-204 207.5,-204 207.5,-185 65.5,-185"/>
<text text-anchor="middle" x="136.5" y="-192" font-family="Helvetica,sans-Serif" font-size="10.00">boomerang/util/Address.h</text>
</a>
</g>
</g>
<!-- Node3&#45;&gt;Node4 -->
<g id="edge3" class="edge">
<title>Node3&#45;&gt;Node4</title>
<path fill="none" stroke="midnightblue" d="M136.5,-246.4C136.5,-237.06 136.5,-224.71 136.5,-214.52"/>
<polygon fill="midnightblue" stroke="midnightblue" points="140,-214.19 136.5,-204.19 133,-214.19 140,-214.19"/>
</g>
<!-- Node11 -->
<g id="node11" class="node">
<title>Node11</title>
<g id="a_node11"><a xlink:title=" ">
<polygon fill="white" stroke="#bfbfbf" points="0,-185 0,-204 47,-204 47,-185 0,-185"/>
<text text-anchor="middle" x="23.5" y="-192" font-family="Helvetica,sans-Serif" font-size="10.00">queue</text>
</a>
</g>
</g>
<!-- Node3&#45;&gt;Node11 -->
<g id="edge12" class="edge">
<title>Node3&#45;&gt;Node11</title>
<path fill="none" stroke="midnightblue" d="M111.98,-246.4C92.77,-235.34 66.2,-220.06 47.2,-209.13"/>
<polygon fill="midnightblue" stroke="midnightblue" points="48.7,-205.96 38.29,-204.01 45.21,-212.03 48.7,-205.96"/>
</g>
<!-- Node5 -->
<g id="node5" class="node">
<title>Node5</title>
<g id="a_node5"><a xlink:href="BoomerangAPI_8h.html" target="_top" xlink:title=" ">
<polygon fill="white" stroke="black" points="282,-56.5 282,-86.5 437,-86.5 437,-56.5 282,-56.5"/>
<text text-anchor="start" x="290" y="-74.5" font-family="Helvetica,sans-Serif" font-size="10.00">boomerang/core/Boomerang</text>
<text text-anchor="middle" x="359.5" y="-63.5" font-family="Helvetica,sans-Serif" font-size="10.00">API.h</text>
</a>
</g>
</g>
<!-- Node4&#45;&gt;Node5 -->
<g id="edge4" class="edge">
<title>Node4&#45;&gt;Node5</title>
<path fill="none" stroke="midnightblue" d="M184.03,-184.95C231.49,-175.64 300.32,-159.83 321.5,-143 336.5,-131.08 346.36,-111.56 352.27,-96.08"/>
<polygon fill="midnightblue" stroke="midnightblue" points="355.59,-97.21 355.6,-86.61 348.98,-94.89 355.59,-97.21"/>
</g>
<!-- Node6 -->
<g id="node6" class="node">
<title>Node6</title>
<g id="a_node6"><a xlink:href="OStream_8h.html" target="_top" xlink:title=" ">
<polygon fill="white" stroke="black" points="166.5,-123.5 166.5,-142.5 312.5,-142.5 312.5,-123.5 166.5,-123.5"/>
<text text-anchor="middle" x="239.5" y="-130.5" font-family="Helvetica,sans-Serif" font-size="10.00">boomerang/util/OStream.h</text>
</a>
</g>
</g>
<!-- Node4&#45;&gt;Node6 -->
<g id="edge5" class="edge">
<title>Node4&#45;&gt;Node6</title>
<path fill="none" stroke="midnightblue" d="M151.26,-184.98C168.16,-175.21 196.08,-159.08 215.99,-147.58"/>
<polygon fill="midnightblue" stroke="midnightblue" points="217.86,-150.54 224.77,-142.51 214.36,-144.48 217.86,-150.54"/>
</g>
<!-- Node7 -->
<g id="node7" class="node">
<title>Node7</title>
<g id="a_node7"><a xlink:href="Types_8h.html" target="_top" xlink:title=" ">
<polygon fill="white" stroke="black" points="68,-62 68,-81 199,-81 199,-62 68,-62"/>
<text text-anchor="middle" x="133.5" y="-69" font-family="Helvetica,sans-Serif" font-size="10.00">boomerang/util/Types.h</text>
</a>
</g>
</g>
<!-- Node4&#45;&gt;Node7 -->
<g id="edge10" class="edge">
<title>Node4&#45;&gt;Node7</title>
<path fill="none" stroke="midnightblue" d="M136.28,-184.8C135.8,-165.35 134.63,-117.99 133.97,-91.4"/>
<polygon fill="midnightblue" stroke="midnightblue" points="137.46,-91.03 133.71,-81.12 130.46,-91.21 137.46,-91.03"/>
</g>
<!-- Node10 -->
<g id="node10" class="node">
<title>Node10</title>
<g id="a_node10"><a xlink:title=" ">
<polygon fill="white" stroke="#bfbfbf" points="55,-123.5 55,-142.5 108,-142.5 108,-123.5 55,-123.5"/>
<text text-anchor="middle" x="81.5" y="-130.5" font-family="Helvetica,sans-Serif" font-size="10.00">QString</text>
</a>
</g>
</g>
<!-- Node4&#45;&gt;Node10 -->
<g id="edge11" class="edge">
<title>Node4&#45;&gt;Node10</title>
<path fill="none" stroke="midnightblue" d="M128.62,-184.98C120.21,-175.87 106.68,-161.24 96.27,-149.98"/>
<polygon fill="midnightblue" stroke="midnightblue" points="98.72,-147.48 89.37,-142.51 93.58,-152.23 98.72,-147.48"/>
</g>
<!-- Node6&#45;&gt;Node5 -->
<g id="edge6" class="edge">
<title>Node6&#45;&gt;Node5</title>
<path fill="none" stroke="midnightblue" d="M256.69,-123.48C273.7,-115.04 300.3,-101.86 322.17,-91.01"/>
<polygon fill="midnightblue" stroke="midnightblue" points="323.81,-94.1 331.22,-86.52 320.7,-87.83 323.81,-94.1"/>
</g>
<!-- Node6&#45;&gt;Node7 -->
<g id="edge7" class="edge">
<title>Node6&#45;&gt;Node7</title>
<path fill="none" stroke="midnightblue" d="M224.31,-123.48C206.84,-113.67 177.92,-97.43 157.42,-85.92"/>
<polygon fill="midnightblue" stroke="midnightblue" points="159.09,-82.85 148.66,-81.01 155.67,-88.96 159.09,-82.85"/>
</g>
<!-- Node9 -->
<g id="node9" class="node">
<title>Node9</title>
<g id="a_node9"><a xlink:title=" ">
<polygon fill="white" stroke="#bfbfbf" points="217.5,-62 217.5,-81 263.5,-81 263.5,-62 217.5,-62"/>
<text text-anchor="middle" x="240.5" y="-69" font-family="Helvetica,sans-Serif" font-size="10.00">cstdio</text>
</a>
</g>
</g>
<!-- Node6&#45;&gt;Node9 -->
<g id="edge9" class="edge">
<title>Node6&#45;&gt;Node9</title>
<path fill="none" stroke="midnightblue" d="M239.64,-123.48C239.78,-115.08 240,-101.98 240.19,-91.16"/>
<polygon fill="midnightblue" stroke="midnightblue" points="243.69,-91.07 240.36,-81.01 236.69,-90.95 243.69,-91.07"/>
</g>
<!-- Node8 -->
<g id="node8" class="node">
<title>Node8</title>
<g id="a_node8"><a xlink:title=" ">
<polygon fill="white" stroke="#bfbfbf" points="108.5,-0.5 108.5,-19.5 158.5,-19.5 158.5,-0.5 108.5,-0.5"/>
<text text-anchor="middle" x="133.5" y="-7.5" font-family="Helvetica,sans-Serif" font-size="10.00">cstdint</text>
</a>
</g>
</g>
<!-- Node7&#45;&gt;Node8 -->
<g id="edge8" class="edge">
<title>Node7&#45;&gt;Node8</title>
<path fill="none" stroke="midnightblue" d="M133.5,-61.98C133.5,-53.58 133.5,-40.48 133.5,-29.66"/>
<polygon fill="midnightblue" stroke="midnightblue" points="137,-29.51 133.5,-19.51 130,-29.51 137,-29.51"/>
</g>
<!-- Node12&#45;&gt;Node2 -->
<g id="edge15" class="edge">
<title>Node12&#45;&gt;Node2</title>
<path fill="none" stroke="midnightblue" d="M370.88,-251.73C356.38,-242.4 332.95,-227.32 314,-215.13"/>
<polygon fill="midnightblue" stroke="midnightblue" points="315.7,-212.06 305.39,-209.59 311.91,-217.94 315.7,-212.06"/>
</g>
<!-- Node12&#45;&gt;Node4 -->
<g id="edge16" class="edge">
<title>Node12&#45;&gt;Node4</title>
<path fill="none" stroke="midnightblue" d="M351.82,-251.94C307.49,-240.32 228.23,-219.54 179.22,-206.7"/>
<polygon fill="midnightblue" stroke="midnightblue" points="179.81,-203.23 169.25,-204.08 178.03,-210 179.81,-203.23"/>
</g>
<!-- Node12&#45;&gt;Node5 -->
<g id="edge14" class="edge">
<title>Node12&#45;&gt;Node5</title>
<path fill="none" stroke="midnightblue" d="M392.09,-251.96C399.96,-242.48 411.76,-226.35 416.5,-210 420.34,-196.77 419.85,-192.36 416.5,-179 408.68,-147.81 389.78,-115.78 375.88,-95.11"/>
<polygon fill="midnightblue" stroke="midnightblue" points="378.65,-92.96 370.09,-86.71 372.89,-96.93 378.65,-92.96"/>
</g>
<!-- Node13 -->
<g id="node13" class="node">
<title>Node13</title>
<g id="a_node13"><a xlink:title=" ">
<polygon fill="white" stroke="#bfbfbf" points="463.5,-185 463.5,-204 495.5,-204 495.5,-185 463.5,-185"/>
<text text-anchor="middle" x="479.5" y="-192" font-family="Helvetica,sans-Serif" font-size="10.00">list</text>
</a>
</g>
</g>
<!-- Node12&#45;&gt;Node13 -->
<g id="edge17" class="edge">
<title>Node12&#45;&gt;Node13</title>
<path fill="none" stroke="midnightblue" d="M397.31,-251.73C412.98,-241.01 439.72,-222.72 458.43,-209.91"/>
<polygon fill="midnightblue" stroke="midnightblue" points="460.61,-212.66 466.89,-204.13 456.66,-206.89 460.61,-212.66"/>
</g>
<!-- Node12&#45;&gt;Node14 -->
<g id="edge18" class="edge">
<title>Node12&#45;&gt;Node14</title>
<path fill="none" stroke="midnightblue" d="M405.48,-251.87C432.75,-240.65 480.57,-220.98 511.89,-208.09"/>
<polygon fill="midnightblue" stroke="midnightblue" points="513.52,-211.21 521.43,-204.17 510.85,-204.74 513.52,-211.21"/>
</g>
<!-- Node15 -->
<g id="node15" class="node">
<title>Node15</title>
<g id="a_node15"><a xlink:title=" ">
<polygon fill="white" stroke="#bfbfbf" points="360,-185 360,-204 407,-204 407,-185 360,-185"/>
<text text-anchor="middle" x="383.5" y="-192" font-family="Helvetica,sans-Serif" font-size="10.00">vector</text>
</a>
</g>
</g>
<!-- Node12&#45;&gt;Node15 -->
<g id="edge19" class="edge">
<title>Node12&#45;&gt;Node15</title>
<path fill="none" stroke="midnightblue" d="M384.37,-251.73C384.22,-242.18 383.98,-226.62 383.79,-214.28"/>
<polygon fill="midnightblue" stroke="midnightblue" points="387.29,-214.07 383.63,-204.13 380.29,-214.18 387.29,-214.07"/>
</g>
</g>
</svg>
