<?xml version="1.0" encoding="UTF-8" standalone="no"?>
<!DOCTYPE svg PUBLIC "-//W3C//DTD SVG 1.1//EN"
 "http://www.w3.org/Graphics/SVG/1.1/DTD/svg11.dtd">
<!-- Generated by graphviz version 2.43.0 (0)
 -->
<!-- Title: DFATypeRecovery.h Pages: 1 -->
<svg width="413pt" height="207pt"
 viewBox="0.00 0.00 412.50 207.00" xmlns="http://www.w3.org/2000/svg" xmlns:xlink="http://www.w3.org/1999/xlink">
<g id="graph0" class="graph" transform="scale(1 1) rotate(0) translate(4 203)">
<title>DFATypeRecovery.h</title>
<polygon fill="white" stroke="transparent" points="-4,4 -4,-203 408.5,-203 408.5,4 -4,4"/>
<!-- Node1 -->
<g id="node1" class="node">
<title>Node1</title>
<g id="a_node1"><a xlink:title=" ">
<polygon fill="#bfbfbf" stroke="black" points="235,-179.5 235,-198.5 346,-198.5 346,-179.5 235,-179.5"/>
<text text-anchor="middle" x="290.5" y="-186.5" font-family="Helvetica,sans-Serif" font-size="10.00">DFATypeRecovery.h</text>
</a>
</g>
</g>
<!-- Node2 -->
<g id="node2" class="node">
<title>Node2</title>
<g id="a_node2"><a xlink:href="TypeRecovery_8h.html" target="_top" xlink:title=" ">
<polygon fill="white" stroke="black" points="148.5,-123.5 148.5,-142.5 240.5,-142.5 240.5,-123.5 148.5,-123.5"/>
<text text-anchor="middle" x="194.5" y="-130.5" font-family="Helvetica,sans-Serif" font-size="10.00">TypeRecovery.h</text>
</a>
</g>
</g>
<!-- Node1&#45;&gt;Node2 -->
<g id="edge1" class="edge">
<title>Node1&#45;&gt;Node2</title>
<path fill="none" stroke="midnightblue" d="M275.08,-179.32C259.96,-170.82 236.68,-157.73 219.03,-147.8"/>
<polygon fill="midnightblue" stroke="midnightblue" points="220.32,-144.51 209.89,-142.65 216.89,-150.61 220.32,-144.51"/>
</g>
<!-- Node4 -->
<g id="node4" class="node">
<title>Node4</title>
<g id="a_node4"><a xlink:href="BoomerangAPI_8h.html" target="_top" xlink:title=" ">
<polygon fill="white" stroke="black" points="99,-0.5 99,-30.5 254,-30.5 254,-0.5 99,-0.5"/>
<text text-anchor="start" x="107" y="-18.5" font-family="Helvetica,sans-Serif" font-size="10.00">boomerang/core/Boomerang</text>
<text text-anchor="middle" x="176.5" y="-7.5" font-family="Helvetica,sans-Serif" font-size="10.00">API.h</text>
</a>
</g>
</g>
<!-- Node1&#45;&gt;Node4 -->
<g id="edge5" class="edge">
<title>Node1&#45;&gt;Node4</title>
<path fill="none" stroke="midnightblue" d="M289.44,-179.21C286.51,-157.97 276.61,-102.95 249.5,-67 240.08,-54.5 226.64,-43.97 213.86,-35.82"/>
<polygon fill="midnightblue" stroke="midnightblue" points="215.54,-32.74 205.17,-30.56 211.91,-38.73 215.54,-32.74"/>
</g>
<!-- Node6 -->
<g id="node6" class="node">
<title>Node6</title>
<g id="a_node6"><a xlink:title=" ">
<polygon fill="white" stroke="#bfbfbf" points="296.5,-123.5 296.5,-142.5 328.5,-142.5 328.5,-123.5 296.5,-123.5"/>
<text text-anchor="middle" x="312.5" y="-130.5" font-family="Helvetica,sans-Serif" font-size="10.00">list</text>
</a>
</g>
</g>
<!-- Node1&#45;&gt;Node6 -->
<g id="edge6" class="edge">
<title>Node1&#45;&gt;Node6</title>
<path fill="none" stroke="midnightblue" d="M294.13,-179.08C297.11,-171.77 301.43,-161.18 305.12,-152.1"/>
<polygon fill="midnightblue" stroke="midnightblue" points="308.4,-153.33 308.93,-142.75 301.92,-150.69 308.4,-153.33"/>
</g>
<!-- Node7 -->
<g id="node7" class="node">
<title>Node7</title>
<g id="a_node7"><a xlink:title=" ">
<polygon fill="white" stroke="#bfbfbf" points="346.5,-123.5 346.5,-142.5 404.5,-142.5 404.5,-123.5 346.5,-123.5"/>
<text text-anchor="middle" x="375.5" y="-130.5" font-family="Helvetica,sans-Serif" font-size="10.00">memory</text>
</a>
</g>
</g>
<!-- Node1&#45;&gt;Node7 -->
<g id="edge7" class="edge">
<title>Node1&#45;&gt;Node7</title>
<path fill="none" stroke="midnightblue" d="M304.16,-179.32C317.42,-170.9 337.77,-157.97 353.35,-148.07"/>
<polygon fill="midnightblue" stroke="midnightblue" points="355.31,-150.97 361.88,-142.65 351.56,-145.06 355.31,-150.97"/>
</g>
<!-- Node3 -->
<g id="node3" class="node">
<title>Node3</title>
<g id="a_node3"><a xlink:href="ITypeRecovery_8h.html" target="_top" xlink:title=" ">
<polygon fill="white" stroke="black" points="0,-67.5 0,-86.5 169,-86.5 169,-67.5 0,-67.5"/>
<text text-anchor="middle" x="84.5" y="-74.5" font-family="Helvetica,sans-Serif" font-size="10.00">boomerang/ifc/ITypeRecovery.h</text>
</a>
</g>
</g>
<!-- Node2&#45;&gt;Node3 -->
<g id="edge2" class="edge">
<title>Node2&#45;&gt;Node3</title>
<path fill="none" stroke="midnightblue" d="M176.83,-123.32C159.11,-114.62 131.6,-101.12 111.21,-91.11"/>
<polygon fill="midnightblue" stroke="midnightblue" points="112.65,-87.92 102.13,-86.65 109.56,-94.2 112.65,-87.92"/>
</g>
<!-- Node5 -->
<g id="node5" class="node">
<title>Node5</title>
<g id="a_node5"><a xlink:title=" ">
<polygon fill="white" stroke="#bfbfbf" points="187,-67.5 187,-86.5 240,-86.5 240,-67.5 187,-67.5"/>
<text text-anchor="middle" x="213.5" y="-74.5" font-family="Helvetica,sans-Serif" font-size="10.00">QString</text>
</a>
</g>
</g>
<!-- Node2&#45;&gt;Node5 -->
<g id="edge4" class="edge">
<title>Node2&#45;&gt;Node5</title>
<path fill="none" stroke="midnightblue" d="M197.64,-123.08C200.18,-115.85 203.86,-105.41 207.03,-96.4"/>
<polygon fill="midnightblue" stroke="midnightblue" points="210.4,-97.35 210.42,-86.75 203.8,-95.02 210.4,-97.35"/>
</g>
<!-- Node3&#45;&gt;Node4 -->
<g id="edge3" class="edge">
<title>Node3&#45;&gt;Node4</title>
<path fill="none" stroke="midnightblue" d="M97.68,-67.48C110.26,-59.34 129.66,-46.79 146.07,-36.18"/>
<polygon fill="midnightblue" stroke="midnightblue" points="148.32,-38.89 154.82,-30.52 144.52,-33.01 148.32,-38.89"/>
</g>
</g>
</svg>
