<?xml version="1.0" encoding="UTF-8" standalone="no"?>
<!DOCTYPE svg PUBLIC "-//W3C//DTD SVG 1.1//EN"
 "http://www.w3.org/Graphics/SVG/1.1/DTD/svg11.dtd">
<!-- Generated by graphviz version 2.43.0 (0)
 -->
<!-- Title: DFGWriter.cpp Pages: 1 -->
<!--zoomable 710 -->
<svg id="main" version="1.1" xmlns="http://www.w3.org/2000/svg" xmlns:xlink="http://www.w3.org/1999/xlink" xml:space="preserve" onload="init(evt)">
<style type="text/css"><![CDATA[
.edge:hover path { stroke: red; }
.edge:hover polygon { stroke: red; fill: red; }
]]></style>
<script type="text/javascript"><![CDATA[
var edges = document.getElementsByTagName('g');
if (edges && edges.length) {
  for (var i=0;i<edges.length;i++) {
    if (edges[i].id.substr(0,4)=='edge') {
      edges[i].setAttribute('class','edge');
    }
  }
}
]]></script>
        <defs>
                <circle id="rim" cx="0" cy="0" r="7"/>
                <circle id="rim2" cx="0" cy="0" r="3.5"/>
                <g id="zoomPlus">
                        <use xlink:href="#rim" fill="#404040">
                                <set attributeName="fill" to="#808080" begin="zoomplus.mouseover" end="zoomplus.mouseout"/>
                        </use>
                        <path d="M-4,0h8M0,-4v8" fill="none" stroke="white" stroke-width="1.5" pointer-events="none"/>
                </g>
                <g id="zoomMin">
                        <use xlink:href="#rim" fill="#404040">
                                <set attributeName="fill" to="#808080" begin="zoomminus.mouseover" end="zoomminus.mouseout"/>
                        </use>
                        <path d="M-4,0h8" fill="none" stroke="white" stroke-width="1.5" pointer-events="none"/>
                </g>
                <g id="dirArrow">
                        <path fill="none" stroke="white" stroke-width="1.5" d="M0,-3.0v7 M-2.5,-0.5L0,-3.0L2.5,-0.5"/>
                </g>
               <g id="resetDef">
                       <use xlink:href="#rim2" fill="#404040">
                               <set attributeName="fill" to="#808080" begin="reset.mouseover" end="reset.mouseout"/>
                       </use>
               </g>
        </defs>

<script type="text/javascript">
var viewWidth = 1454;
var viewHeight = 710;
var sectionId = 'dynsection-0';
</script>
<script xlink:href="svgpan.js"/>
<svg id="graph" class="graph">
<g id="viewport">
<title>DFGWriter.cpp</title>
<polygon fill="white" stroke="transparent" points="-4,4 -4,-706 1449.5,-706 1449.5,4 -4,4"/>
<!-- Node1 -->
<g id="node1" class="node">
<title>Node1</title>
<g id="a_node1"><a xlink:title=" ">
<polygon fill="#bfbfbf" stroke="black" points="895,-682.5 895,-701.5 983,-701.5 983,-682.5 895,-682.5"/>
<text text-anchor="middle" x="939" y="-689.5" font-family="Helvetica,sans-Serif" font-size="10.00">DFGWriter.cpp</text>
</a>
</g>
</g>
<!-- Node2 -->
<g id="node2" class="node">
<title>Node2</title>
<g id="a_node2"><a xlink:href="DFGWriter_8h.html" target="_top" xlink:title=" ">
<polygon fill="white" stroke="black" points="44.5,-503.5 44.5,-522.5 121.5,-522.5 121.5,-503.5 44.5,-503.5"/>
<text text-anchor="middle" x="83" y="-510.5" font-family="Helvetica,sans-Serif" font-size="10.00">DFGWriter.h</text>
</a>
</g>
</g>
<!-- Node1&#45;&gt;Node2 -->
<g id="edge1" class="edge">
<title>Node1&#45;&gt;Node2</title>
<path fill="none" stroke="midnightblue" d="M894.84,-691.63C803.28,-691.97 586.64,-687.83 411,-646 293.23,-617.95 162.25,-554.77 108.31,-527.24"/>
<polygon fill="midnightblue" stroke="midnightblue" points="109.65,-524 99.15,-522.53 106.44,-530.22 109.65,-524"/>
</g>
<!-- Node4 -->
<g id="node4" class="node">
<title>Node4</title>
<g id="a_node4"><a xlink:href="UserProc_8h.html" target="_top" xlink:title=" ">
<polygon fill="white" stroke="black" points="715.5,-626.5 715.5,-645.5 882.5,-645.5 882.5,-626.5 715.5,-626.5"/>
<text text-anchor="middle" x="799" y="-633.5" font-family="Helvetica,sans-Serif" font-size="10.00">boomerang/db/proc/UserProc.h</text>
</a>
</g>
</g>
<!-- Node1&#45;&gt;Node4 -->
<g id="edge3" class="edge">
<title>Node1&#45;&gt;Node4</title>
<path fill="none" stroke="midnightblue" d="M916.82,-682.44C893.57,-673.48 856.85,-659.31 830.58,-649.18"/>
<polygon fill="midnightblue" stroke="midnightblue" points="831.67,-645.85 821.08,-645.52 829.15,-652.38 831.67,-645.85"/>
</g>
<!-- Node15 -->
<g id="node15" class="node">
<title>Node15</title>
<g id="a_node15"><a xlink:title=" ">
<polygon fill="white" stroke="#bfbfbf" points="1270.5,-123.5 1270.5,-142.5 1323.5,-142.5 1323.5,-123.5 1270.5,-123.5"/>
<text text-anchor="middle" x="1297" y="-130.5" font-family="Helvetica,sans-Serif" font-size="10.00">QString</text>
</a>
</g>
</g>
<!-- Node1&#45;&gt;Node15 -->
<g id="edge75" class="edge">
<title>Node1&#45;&gt;Node15</title>
<path fill="none" stroke="midnightblue" d="M983.31,-688.7C1094.4,-681.74 1376,-656.13 1376,-575.5 1376,-575.5 1376,-575.5 1376,-249.5 1376,-207.52 1340.01,-169.6 1316.62,-149.37"/>
<polygon fill="midnightblue" stroke="midnightblue" points="1318.58,-146.46 1308.66,-142.75 1314.1,-151.84 1318.58,-146.46"/>
</g>
<!-- Node37 -->
<g id="node37" class="node">
<title>Node37</title>
<g id="a_node37"><a xlink:href="RefExp_8h.html" target="_top" xlink:title=" ">
<polygon fill="white" stroke="black" points="420,-626.5 420,-645.5 576,-645.5 576,-626.5 420,-626.5"/>
<text text-anchor="middle" x="498" y="-633.5" font-family="Helvetica,sans-Serif" font-size="10.00">boomerang/ssl/exp/RefExp.h</text>
</a>
</g>
</g>
<!-- Node1&#45;&gt;Node37 -->
<g id="edge66" class="edge">
<title>Node1&#45;&gt;Node37</title>
<path fill="none" stroke="midnightblue" d="M894.7,-685.58C820.59,-676.5 670.5,-658.12 577.67,-646.76"/>
<polygon fill="midnightblue" stroke="midnightblue" points="577.83,-643.25 567.48,-645.51 576.98,-650.2 577.83,-643.25"/>
</g>
<!-- Node39 -->
<g id="node39" class="node">
<title>Node39</title>
<g id="a_node39"><a xlink:href="Log_8h.html" target="_top" xlink:title=" ">
<polygon fill="white" stroke="black" points="1146.5,-235.5 1146.5,-265.5 1255.5,-265.5 1255.5,-235.5 1146.5,-235.5"/>
<text text-anchor="start" x="1154.5" y="-253.5" font-family="Helvetica,sans-Serif" font-size="10.00">boomerang/util/log</text>
<text text-anchor="middle" x="1201" y="-242.5" font-family="Helvetica,sans-Serif" font-size="10.00">/Log.h</text>
</a>
</g>
</g>
<!-- Node1&#45;&gt;Node39 -->
<g id="edge69" class="edge">
<title>Node1&#45;&gt;Node39</title>
<path fill="none" stroke="midnightblue" d="M983.25,-682.63C1036.25,-669.74 1118,-639.48 1118,-575.5 1118,-575.5 1118,-575.5 1118,-383.5 1118,-338.85 1152.45,-296.94 1176.97,-272.78"/>
<polygon fill="midnightblue" stroke="midnightblue" points="1179.39,-275.3 1184.2,-265.86 1174.55,-270.24 1179.39,-275.3"/>
</g>
<!-- Node40 -->
<g id="node40" class="node">
<title>Node40</title>
<g id="a_node40"><a xlink:title=" ">
<polygon fill="white" stroke="#bfbfbf" points="1404.5,-626.5 1404.5,-645.5 1445.5,-645.5 1445.5,-626.5 1404.5,-626.5"/>
<text text-anchor="middle" x="1425" y="-633.5" font-family="Helvetica,sans-Serif" font-size="10.00">QFile</text>
</a>
</g>
</g>
<!-- Node1&#45;&gt;Node40 -->
<g id="edge74" class="edge">
<title>Node1&#45;&gt;Node40</title>
<path fill="none" stroke="midnightblue" d="M983.16,-688.83C1064.27,-684.35 1242.21,-672.22 1390,-646 1391.47,-645.74 1392.96,-645.45 1394.47,-645.14"/>
<polygon fill="midnightblue" stroke="midnightblue" points="1395.43,-648.51 1404.39,-642.86 1393.86,-641.69 1395.43,-648.51"/>
</g>
<!-- Node3 -->
<g id="node3" class="node">
<title>Node3</title>
<g id="a_node3"><a xlink:href="BoomerangAPI_8h.html" target="_top" xlink:title=" ">
<polygon fill="white" stroke="black" points="542.5,-56.5 542.5,-86.5 697.5,-86.5 697.5,-56.5 542.5,-56.5"/>
<text text-anchor="start" x="550.5" y="-74.5" font-family="Helvetica,sans-Serif" font-size="10.00">boomerang/core/Boomerang</text>
<text text-anchor="middle" x="620" y="-63.5" font-family="Helvetica,sans-Serif" font-size="10.00">API.h</text>
</a>
</g>
</g>
<!-- Node2&#45;&gt;Node3 -->
<g id="edge2" class="edge">
<title>Node2&#45;&gt;Node3</title>
<path fill="none" stroke="midnightblue" d="M72.15,-503.47C49.65,-484.74 0,-437.51 0,-385.5 0,-385.5 0,-385.5 0,-188 0,-86.24 345.94,-105.32 504,-87 513.2,-85.93 522.81,-84.79 532.39,-83.62"/>
<polygon fill="midnightblue" stroke="midnightblue" points="532.84,-87.09 542.34,-82.4 531.99,-80.14 532.84,-87.09"/>
</g>
<!-- Node5 -->
<g id="node5" class="node">
<title>Node5</title>
<g id="a_node5"><a xlink:href="DataFlow_8h.html" target="_top" xlink:title=" ">
<polygon fill="white" stroke="black" points="562.5,-375 562.5,-394 707.5,-394 707.5,-375 562.5,-375"/>
<text text-anchor="middle" x="635" y="-382" font-family="Helvetica,sans-Serif" font-size="10.00">boomerang/db/DataFlow.h</text>
</a>
</g>
</g>
<!-- Node4&#45;&gt;Node5 -->
<g id="edge4" class="edge">
<title>Node4&#45;&gt;Node5</title>
<path fill="none" stroke="midnightblue" d="M793.35,-626.41C769.7,-590.42 678.29,-451.37 646.21,-402.55"/>
<polygon fill="midnightblue" stroke="midnightblue" points="649.04,-400.49 640.62,-394.05 643.19,-404.33 649.04,-400.49"/>
</g>
<!-- Node24 -->
<g id="node24" class="node">
<title>Node24</title>
<g id="a_node24"><a xlink:href="UseCollector_8h.html" target="_top" xlink:title=" ">
<polygon fill="white" stroke="black" points="507.5,-565 507.5,-584 668.5,-584 668.5,-565 507.5,-565"/>
<text text-anchor="middle" x="588" y="-572" font-family="Helvetica,sans-Serif" font-size="10.00">boomerang/db/UseCollector.h</text>
</a>
</g>
</g>
<!-- Node4&#45;&gt;Node24 -->
<g id="edge31" class="edge">
<title>Node4&#45;&gt;Node24</title>
<path fill="none" stroke="midnightblue" d="M768.77,-626.48C731.71,-616.03 668.81,-598.29 627.84,-586.73"/>
<polygon fill="midnightblue" stroke="midnightblue" points="628.75,-583.35 618.18,-584.01 626.85,-590.09 628.75,-583.35"/>
</g>
<!-- Node25 -->
<g id="node25" class="node">
<title>Node25</title>
<g id="a_node25"><a xlink:href="Proc_8h.html" target="_top" xlink:title=" ">
<polygon fill="white" stroke="black" points="983,-241 983,-260 1127,-260 1127,-241 983,-241"/>
<text text-anchor="middle" x="1055" y="-248" font-family="Helvetica,sans-Serif" font-size="10.00">boomerang/db/proc/Proc.h</text>
</a>
</g>
</g>
<!-- Node4&#45;&gt;Node25 -->
<g id="edge33" class="edge">
<title>Node4&#45;&gt;Node25</title>
<path fill="none" stroke="midnightblue" d="M850.76,-626.45C909.43,-613.46 997,-582.59 997,-514 997,-514 997,-514 997,-383.5 997,-338.89 1025.11,-292.41 1042.19,-268.29"/>
<polygon fill="midnightblue" stroke="midnightblue" points="1045.04,-270.33 1048.12,-260.19 1039.39,-266.2 1045.04,-270.33"/>
</g>
<!-- Node27 -->
<g id="node27" class="node">
<title>Node27</title>
<g id="a_node27"><a xlink:href="ProcCFG_8h.html" target="_top" xlink:title=" ">
<polygon fill="white" stroke="black" points="799,-241 799,-260 963,-260 963,-241 799,-241"/>
<text text-anchor="middle" x="881" y="-248" font-family="Helvetica,sans-Serif" font-size="10.00">boomerang/db/proc/ProcCFG.h</text>
</a>
</g>
</g>
<!-- Node4&#45;&gt;Node27 -->
<g id="edge43" class="edge">
<title>Node4&#45;&gt;Node27</title>
<path fill="none" stroke="midnightblue" d="M814.49,-626.26C843.03,-608.87 901,-567.03 901,-514 901,-514 901,-514 901,-383.5 901,-342.51 891.46,-295.17 885.56,-269.8"/>
<polygon fill="midnightblue" stroke="midnightblue" points="888.96,-268.98 883.22,-260.08 882.15,-270.62 888.96,-268.98"/>
</g>
<!-- Node30 -->
<g id="node30" class="node">
<title>Node30</title>
<g id="a_node30"><a xlink:href="StatementList_8h.html" target="_top" xlink:title=" ">
<polygon fill="white" stroke="black" points="305.5,-559.5 305.5,-589.5 450.5,-589.5 450.5,-559.5 305.5,-559.5"/>
<text text-anchor="start" x="313.5" y="-577.5" font-family="Helvetica,sans-Serif" font-size="10.00">boomerang/util/Statement</text>
<text text-anchor="middle" x="378" y="-566.5" font-family="Helvetica,sans-Serif" font-size="10.00">List.h</text>
</a>
</g>
</g>
<!-- Node4&#45;&gt;Node30 -->
<g id="edge51" class="edge">
<title>Node4&#45;&gt;Node30</title>
<path fill="none" stroke="midnightblue" d="M738.68,-626.48C665.67,-616.16 542.37,-598.73 460.58,-587.17"/>
<polygon fill="midnightblue" stroke="midnightblue" points="460.96,-583.69 450.57,-585.76 459.98,-590.62 460.96,-583.69"/>
</g>
<!-- Node6 -->
<g id="node6" class="node">
<title>Node6</title>
<g id="a_node6"><a xlink:href="LocationSet_8h.html" target="_top" xlink:title=" ">
<polygon fill="white" stroke="black" points="346,-308 346,-327 506,-327 506,-308 346,-308"/>
<text text-anchor="middle" x="426" y="-315" font-family="Helvetica,sans-Serif" font-size="10.00">boomerang/util/LocationSet.h</text>
</a>
</g>
</g>
<!-- Node5&#45;&gt;Node6 -->
<g id="edge5" class="edge">
<title>Node5&#45;&gt;Node6</title>
<path fill="none" stroke="midnightblue" d="M607.25,-374.87C570.21,-363.35 504.53,-342.92 463.22,-330.08"/>
<polygon fill="midnightblue" stroke="midnightblue" points="464.12,-326.69 453.54,-327.06 462.04,-333.38 464.12,-326.69"/>
</g>
<!-- Node22 -->
<g id="node22" class="node">
<title>Node22</title>
<g id="a_node22"><a xlink:title=" ">
<polygon fill="white" stroke="#bfbfbf" points="748,-179.5 748,-198.5 786,-198.5 786,-179.5 748,-179.5"/>
<text text-anchor="middle" x="767" y="-186.5" font-family="Helvetica,sans-Serif" font-size="10.00">map</text>
</a>
</g>
</g>
<!-- Node5&#45;&gt;Node22 -->
<g id="edge29" class="edge">
<title>Node5&#45;&gt;Node22</title>
<path fill="none" stroke="midnightblue" d="M628.11,-374.83C620.97,-365.24 610.27,-349.02 606,-333 594.57,-290.13 594.1,-266.83 625,-235 659.92,-199.04 685.35,-213.24 737.95,-199.08"/>
<polygon fill="midnightblue" stroke="midnightblue" points="739.12,-202.39 747.72,-196.21 737.14,-195.67 739.12,-202.39"/>
</g>
<!-- Node23 -->
<g id="node23" class="node">
<title>Node23</title>
<g id="a_node23"><a xlink:title=" ">
<polygon fill="white" stroke="#bfbfbf" points="614.5,-308 614.5,-327 707.5,-327 707.5,-308 614.5,-308"/>
<text text-anchor="middle" x="661" y="-315" font-family="Helvetica,sans-Serif" font-size="10.00">unordered_map</text>
</a>
</g>
</g>
<!-- Node5&#45;&gt;Node23 -->
<g id="edge30" class="edge">
<title>Node5&#45;&gt;Node23</title>
<path fill="none" stroke="midnightblue" d="M638.51,-374.73C642.4,-364.99 648.81,-348.98 653.79,-336.53"/>
<polygon fill="midnightblue" stroke="midnightblue" points="657.08,-337.71 657.55,-327.13 650.59,-335.11 657.08,-337.71"/>
</g>
<!-- Node7 -->
<g id="node7" class="node">
<title>Node7</title>
<g id="a_node7"><a xlink:href="Exp_8h.html" target="_top" xlink:title=" ">
<polygon fill="white" stroke="black" points="353,-241 353,-260 493,-260 493,-241 353,-241"/>
<text text-anchor="middle" x="423" y="-248" font-family="Helvetica,sans-Serif" font-size="10.00">boomerang/ssl/exp/Exp.h</text>
</a>
</g>
</g>
<!-- Node6&#45;&gt;Node7 -->
<g id="edge6" class="edge">
<title>Node6&#45;&gt;Node7</title>
<path fill="none" stroke="midnightblue" d="M425.6,-307.73C425.15,-298.18 424.44,-282.62 423.87,-270.28"/>
<polygon fill="midnightblue" stroke="midnightblue" points="427.36,-269.96 423.4,-260.13 420.36,-270.28 427.36,-269.96"/>
</g>
<!-- Node20 -->
<g id="node20" class="node">
<title>Node20</title>
<g id="a_node20"><a xlink:href="ExpSet_8h.html" target="_top" xlink:title=" ">
<polygon fill="white" stroke="black" points="191.5,-241 191.5,-260 328.5,-260 328.5,-241 191.5,-241"/>
<text text-anchor="middle" x="260" y="-248" font-family="Helvetica,sans-Serif" font-size="10.00">boomerang/util/ExpSet.h</text>
</a>
</g>
</g>
<!-- Node6&#45;&gt;Node20 -->
<g id="edge23" class="edge">
<title>Node6&#45;&gt;Node20</title>
<path fill="none" stroke="midnightblue" d="M403.96,-307.87C375.1,-296.57 324.35,-276.7 291.46,-263.82"/>
<polygon fill="midnightblue" stroke="midnightblue" points="292.46,-260.45 281.87,-260.06 289.91,-266.97 292.46,-260.45"/>
</g>
<!-- Node8 -->
<g id="node8" class="node">
<title>Node8</title>
<g id="a_node8"><a xlink:href="ExpHelp_8h.html" target="_top" xlink:title=" ">
<polygon fill="white" stroke="black" points="568,-179.5 568,-198.5 730,-198.5 730,-179.5 568,-179.5"/>
<text text-anchor="middle" x="649" y="-186.5" font-family="Helvetica,sans-Serif" font-size="10.00">boomerang/ssl/exp/ExpHelp.h</text>
</a>
</g>
</g>
<!-- Node7&#45;&gt;Node8 -->
<g id="edge7" class="edge">
<title>Node7&#45;&gt;Node8</title>
<path fill="none" stroke="midnightblue" d="M455.38,-240.98C495.24,-230.48 563.02,-212.64 606.89,-201.09"/>
<polygon fill="midnightblue" stroke="midnightblue" points="607.9,-204.44 616.68,-198.51 606.12,-197.67 607.9,-204.44"/>
</g>
<!-- Node9 -->
<g id="node9" class="node">
<title>Node9</title>
<g id="a_node9"><a xlink:title=" ">
<polygon fill="white" stroke="#bfbfbf" points="563,-123.5 563,-142.5 621,-142.5 621,-123.5 563,-123.5"/>
<text text-anchor="middle" x="592" y="-130.5" font-family="Helvetica,sans-Serif" font-size="10.00">memory</text>
</a>
</g>
</g>
<!-- Node7&#45;&gt;Node9 -->
<g id="edge20" class="edge">
<title>Node7&#45;&gt;Node9</title>
<path fill="none" stroke="midnightblue" d="M427.37,-240.9C435.22,-226.25 453.05,-196.38 476,-179 488.86,-169.26 526.21,-155.56 555.09,-145.85"/>
<polygon fill="midnightblue" stroke="midnightblue" points="556.52,-149.06 564.9,-142.59 554.31,-142.42 556.52,-149.06"/>
</g>
<!-- Node10 -->
<g id="node10" class="node">
<title>Node10</title>
<g id="a_node10"><a xlink:href="Operator_8h.html" target="_top" xlink:title=" ">
<polygon fill="white" stroke="black" points="176,-123.5 176,-142.5 340,-142.5 340,-123.5 176,-123.5"/>
<text text-anchor="middle" x="258" y="-130.5" font-family="Helvetica,sans-Serif" font-size="10.00">boomerang/ssl/exp/Operator.h</text>
</a>
</g>
</g>
<!-- Node7&#45;&gt;Node10 -->
<g id="edge10" class="edge">
<title>Node7&#45;&gt;Node10</title>
<path fill="none" stroke="midnightblue" d="M390.1,-240.93C364.63,-233.09 329.52,-219.56 304,-199 287.9,-186.03 274.92,-166.04 266.9,-151.66"/>
<polygon fill="midnightblue" stroke="midnightblue" points="269.95,-149.93 262.17,-142.75 263.77,-153.22 269.95,-149.93"/>
</g>
<!-- Node11 -->
<g id="node11" class="node">
<title>Node11</title>
<g id="a_node11"><a xlink:href="OStream_8h.html" target="_top" xlink:title=" ">
<polygon fill="white" stroke="black" points="399,-123.5 399,-142.5 545,-142.5 545,-123.5 399,-123.5"/>
<text text-anchor="middle" x="472" y="-130.5" font-family="Helvetica,sans-Serif" font-size="10.00">boomerang/util/OStream.h</text>
</a>
</g>
</g>
<!-- Node7&#45;&gt;Node11 -->
<g id="edge12" class="edge">
<title>Node7&#45;&gt;Node11</title>
<path fill="none" stroke="midnightblue" d="M384.43,-240.91C344.25,-230.13 290.08,-209.3 313,-179 324.6,-163.67 367.63,-152.05 406.01,-144.47"/>
<polygon fill="midnightblue" stroke="midnightblue" points="406.99,-147.85 416.16,-142.53 405.68,-140.97 406.99,-147.85"/>
</g>
<!-- Node7&#45;&gt;Node15 -->
<g id="edge17" class="edge">
<title>Node7&#45;&gt;Node15</title>
<path fill="none" stroke="midnightblue" d="M432.05,-240.83C450.33,-223.55 491.37,-185.87 509,-179 544.38,-165.2 1109.36,-141.56 1260.22,-135.47"/>
<polygon fill="midnightblue" stroke="midnightblue" points="1260.5,-138.96 1270.35,-135.06 1260.22,-131.96 1260.5,-138.96"/>
</g>
<!-- Node16 -->
<g id="node16" class="node">
<title>Node16</title>
<g id="a_node16"><a xlink:title=" ">
<polygon fill="white" stroke="#bfbfbf" points="372,-179.5 372,-198.5 424,-198.5 424,-179.5 372,-179.5"/>
<text text-anchor="middle" x="398" y="-186.5" font-family="Helvetica,sans-Serif" font-size="10.00">cassert</text>
</a>
</g>
</g>
<!-- Node7&#45;&gt;Node16 -->
<g id="edge18" class="edge">
<title>Node7&#45;&gt;Node16</title>
<path fill="none" stroke="midnightblue" d="M419.42,-240.98C415.82,-232.4 410.15,-218.93 405.56,-207.98"/>
<polygon fill="midnightblue" stroke="midnightblue" points="408.68,-206.37 401.58,-198.51 402.22,-209.08 408.68,-206.37"/>
</g>
<!-- Node17 -->
<g id="node17" class="node">
<title>Node17</title>
<g id="a_node17"><a xlink:title=" ">
<polygon fill="white" stroke="#bfbfbf" points="518,-179.5 518,-198.5 550,-198.5 550,-179.5 518,-179.5"/>
<text text-anchor="middle" x="534" y="-186.5" font-family="Helvetica,sans-Serif" font-size="10.00">list</text>
</a>
</g>
</g>
<!-- Node7&#45;&gt;Node17 -->
<g id="edge19" class="edge">
<title>Node7&#45;&gt;Node17</title>
<path fill="none" stroke="midnightblue" d="M438.9,-240.98C457.28,-231.12 487.76,-214.79 509.24,-203.27"/>
<polygon fill="midnightblue" stroke="midnightblue" points="510.97,-206.32 518.13,-198.51 507.66,-200.15 510.97,-206.32"/>
</g>
<!-- Node18 -->
<g id="node18" class="node">
<title>Node18</title>
<g id="a_node18"><a xlink:title=" ">
<polygon fill="white" stroke="#bfbfbf" points="322,-179.5 322,-198.5 354,-198.5 354,-179.5 322,-179.5"/>
<text text-anchor="middle" x="338" y="-186.5" font-family="Helvetica,sans-Serif" font-size="10.00">set</text>
</a>
</g>
</g>
<!-- Node7&#45;&gt;Node18 -->
<g id="edge21" class="edge">
<title>Node7&#45;&gt;Node18</title>
<path fill="none" stroke="midnightblue" d="M410.82,-240.98C397.19,-231.43 374.87,-215.81 358.53,-204.37"/>
<polygon fill="midnightblue" stroke="midnightblue" points="360.36,-201.38 350.16,-198.51 356.34,-207.11 360.36,-201.38"/>
</g>
<!-- Node19 -->
<g id="node19" class="node">
<title>Node19</title>
<g id="a_node19"><a xlink:title=" ">
<polygon fill="white" stroke="#bfbfbf" points="804.5,-179.5 804.5,-198.5 851.5,-198.5 851.5,-179.5 804.5,-179.5"/>
<text text-anchor="middle" x="828" y="-186.5" font-family="Helvetica,sans-Serif" font-size="10.00">vector</text>
</a>
</g>
</g>
<!-- Node7&#45;&gt;Node19 -->
<g id="edge22" class="edge">
<title>Node7&#45;&gt;Node19</title>
<path fill="none" stroke="midnightblue" d="M493.05,-242.77C565.97,-235.13 683.59,-221.06 794.29,-198.89"/>
<polygon fill="midnightblue" stroke="midnightblue" points="795.19,-202.28 804.3,-196.86 793.8,-195.42 795.19,-202.28"/>
</g>
<!-- Node8&#45;&gt;Node3 -->
<g id="edge8" class="edge">
<title>Node8&#45;&gt;Node3</title>
<path fill="none" stroke="midnightblue" d="M646.82,-179.32C642.44,-161.89 632.45,-122.1 625.98,-96.31"/>
<polygon fill="midnightblue" stroke="midnightblue" points="629.36,-95.39 623.53,-86.55 622.57,-97.1 629.36,-95.39"/>
</g>
<!-- Node8&#45;&gt;Node9 -->
<g id="edge9" class="edge">
<title>Node8&#45;&gt;Node9</title>
<path fill="none" stroke="midnightblue" d="M639.84,-179.32C631.5,-171.42 618.97,-159.55 608.82,-149.94"/>
<polygon fill="midnightblue" stroke="midnightblue" points="610.99,-147.17 601.32,-142.83 606.18,-152.25 610.99,-147.17"/>
</g>
<!-- Node10&#45;&gt;Node3 -->
<g id="edge11" class="edge">
<title>Node10&#45;&gt;Node3</title>
<path fill="none" stroke="midnightblue" d="M309.87,-123.48C367.82,-113.95 462.62,-98.37 532.18,-86.94"/>
<polygon fill="midnightblue" stroke="midnightblue" points="532.95,-90.36 542.25,-85.28 531.81,-83.45 532.95,-90.36"/>
</g>
<!-- Node11&#45;&gt;Node3 -->
<g id="edge13" class="edge">
<title>Node11&#45;&gt;Node3</title>
<path fill="none" stroke="midnightblue" d="M493.2,-123.48C514.65,-114.85 548.45,-101.26 575.76,-90.29"/>
<polygon fill="midnightblue" stroke="midnightblue" points="577.15,-93.5 585.12,-86.52 574.54,-87.01 577.15,-93.5"/>
</g>
<!-- Node12 -->
<g id="node12" class="node">
<title>Node12</title>
<g id="a_node12"><a xlink:href="Types_8h.html" target="_top" xlink:title=" ">
<polygon fill="white" stroke="black" points="1135.5,-62 1135.5,-81 1266.5,-81 1266.5,-62 1135.5,-62"/>
<text text-anchor="middle" x="1201" y="-69" font-family="Helvetica,sans-Serif" font-size="10.00">boomerang/util/Types.h</text>
</a>
</g>
</g>
<!-- Node11&#45;&gt;Node12 -->
<g id="edge14" class="edge">
<title>Node11&#45;&gt;Node12</title>
<path fill="none" stroke="midnightblue" d="M545.31,-123.84C548.24,-123.55 551.15,-123.27 554,-123 760.28,-103.63 1004.05,-86.03 1125.02,-77.65"/>
<polygon fill="midnightblue" stroke="midnightblue" points="1125.54,-81.13 1135.28,-76.94 1125.06,-74.14 1125.54,-81.13"/>
</g>
<!-- Node14 -->
<g id="node14" class="node">
<title>Node14</title>
<g id="a_node14"><a xlink:title=" ">
<polygon fill="white" stroke="#bfbfbf" points="449,-62 449,-81 495,-81 495,-62 449,-62"/>
<text text-anchor="middle" x="472" y="-69" font-family="Helvetica,sans-Serif" font-size="10.00">cstdio</text>
</a>
</g>
</g>
<!-- Node11&#45;&gt;Node14 -->
<g id="edge16" class="edge">
<title>Node11&#45;&gt;Node14</title>
<path fill="none" stroke="midnightblue" d="M472,-123.48C472,-115.08 472,-101.98 472,-91.16"/>
<polygon fill="midnightblue" stroke="midnightblue" points="475.5,-91.01 472,-81.01 468.5,-91.01 475.5,-91.01"/>
</g>
<!-- Node13 -->
<g id="node13" class="node">
<title>Node13</title>
<g id="a_node13"><a xlink:title=" ">
<polygon fill="white" stroke="#bfbfbf" points="1176,-0.5 1176,-19.5 1226,-19.5 1226,-0.5 1176,-0.5"/>
<text text-anchor="middle" x="1201" y="-7.5" font-family="Helvetica,sans-Serif" font-size="10.00">cstdint</text>
</a>
</g>
</g>
<!-- Node12&#45;&gt;Node13 -->
<g id="edge15" class="edge">
<title>Node12&#45;&gt;Node13</title>
<path fill="none" stroke="midnightblue" d="M1201,-61.98C1201,-53.58 1201,-40.48 1201,-29.66"/>
<polygon fill="midnightblue" stroke="midnightblue" points="1204.5,-29.51 1201,-19.51 1197.5,-29.51 1204.5,-29.51"/>
</g>
<!-- Node20&#45;&gt;Node8 -->
<g id="edge24" class="edge">
<title>Node20&#45;&gt;Node8</title>
<path fill="none" stroke="midnightblue" d="M308.38,-240.94C320.04,-238.94 332.46,-236.85 344,-235 424.1,-222.18 516.26,-208.77 578.13,-199.96"/>
<polygon fill="midnightblue" stroke="midnightblue" points="578.76,-203.4 588.17,-198.53 577.78,-196.47 578.76,-203.4"/>
</g>
<!-- Node20&#45;&gt;Node9 -->
<g id="edge26" class="edge">
<title>Node20&#45;&gt;Node9</title>
<path fill="none" stroke="midnightblue" d="M263.77,-240.83C270.92,-225.51 288,-193.89 313,-179 403.32,-125.2 445.18,-161.24 552.68,-143.02"/>
<polygon fill="midnightblue" stroke="midnightblue" points="553.38,-146.45 562.59,-141.22 552.13,-139.57 553.38,-146.45"/>
</g>
<!-- Node20&#45;&gt;Node11 -->
<g id="edge25" class="edge">
<title>Node20&#45;&gt;Node11</title>
<path fill="none" stroke="midnightblue" d="M253.35,-240.64C243.33,-226.14 227.07,-197.14 242,-179 260.57,-156.44 330.7,-145.03 388.69,-139.36"/>
<polygon fill="midnightblue" stroke="midnightblue" points="389.36,-142.81 398.99,-138.4 388.71,-135.84 389.36,-142.81"/>
</g>
<!-- Node20&#45;&gt;Node18 -->
<g id="edge27" class="edge">
<title>Node20&#45;&gt;Node18</title>
<path fill="none" stroke="midnightblue" d="M271.18,-240.98C283.57,-231.52 303.79,-216.1 318.75,-204.69"/>
<polygon fill="midnightblue" stroke="midnightblue" points="321.02,-207.36 326.85,-198.51 316.77,-201.79 321.02,-207.36"/>
</g>
<!-- Node21 -->
<g id="node21" class="node">
<title>Node21</title>
<g id="a_node21"><a xlink:title=" ">
<polygon fill="white" stroke="#bfbfbf" points="66,-179.5 66,-198.5 152,-198.5 152,-179.5 66,-179.5"/>
<text text-anchor="middle" x="109" y="-186.5" font-family="Helvetica,sans-Serif" font-size="10.00">unordered_set</text>
</a>
</g>
</g>
<!-- Node20&#45;&gt;Node21 -->
<g id="edge28" class="edge">
<title>Node20&#45;&gt;Node21</title>
<path fill="none" stroke="midnightblue" d="M238.37,-240.98C212.58,-230.81 169.29,-213.76 139.96,-202.2"/>
<polygon fill="midnightblue" stroke="midnightblue" points="141.18,-198.92 130.59,-198.51 138.62,-205.43 141.18,-198.92"/>
</g>
<!-- Node24&#45;&gt;Node6 -->
<g id="edge32" class="edge">
<title>Node24&#45;&gt;Node6</title>
<path fill="none" stroke="midnightblue" d="M588.36,-564.77C588.9,-541.97 587.87,-479.35 563,-436 535.87,-388.71 482.33,-351.42 450.81,-332.39"/>
<polygon fill="midnightblue" stroke="midnightblue" points="452.19,-329.13 441.79,-327.07 448.63,-335.17 452.19,-329.13"/>
</g>
<!-- Node25&#45;&gt;Node3 -->
<g id="edge34" class="edge">
<title>Node25&#45;&gt;Node3</title>
<path fill="none" stroke="midnightblue" d="M1062.97,-240.78C1074.15,-227.44 1092.17,-201.14 1083,-179 1069.53,-146.48 1058.63,-138.45 1027,-123 972.52,-96.38 810.36,-82.83 707.93,-76.74"/>
<polygon fill="midnightblue" stroke="midnightblue" points="708.09,-73.24 697.9,-76.16 707.68,-80.23 708.09,-73.24"/>
</g>
<!-- Node25&#45;&gt;Node8 -->
<g id="edge35" class="edge">
<title>Node25&#45;&gt;Node8</title>
<path fill="none" stroke="midnightblue" d="M1007.64,-240.94C996,-238.91 983.56,-236.81 972,-235 887.72,-221.77 790.74,-208.52 725.22,-199.86"/>
<polygon fill="midnightblue" stroke="midnightblue" points="725.35,-196.35 714.98,-198.51 724.44,-203.29 725.35,-196.35"/>
</g>
<!-- Node25&#45;&gt;Node15 -->
<g id="edge41" class="edge">
<title>Node25&#45;&gt;Node15</title>
<path fill="none" stroke="midnightblue" d="M1098.57,-240.99C1162.38,-228.35 1274.45,-205.42 1281,-199 1293.19,-187.07 1296.66,-167.45 1297.4,-152.89"/>
<polygon fill="midnightblue" stroke="midnightblue" points="1300.91,-152.57 1297.53,-142.53 1293.91,-152.49 1300.91,-152.57"/>
</g>
<!-- Node25&#45;&gt;Node18 -->
<g id="edge42" class="edge">
<title>Node25&#45;&gt;Node18</title>
<path fill="none" stroke="midnightblue" d="M1011.63,-240.96C998.9,-238.72 984.93,-236.51 972,-235 705.97,-204 630.45,-252.27 364.17,-198.63"/>
<polygon fill="midnightblue" stroke="midnightblue" points="364.71,-195.17 354.21,-196.59 363.31,-202.02 364.71,-195.17"/>
</g>
<!-- Node26 -->
<g id="node26" class="node">
<title>Node26</title>
<g id="a_node26"><a xlink:href="Address_8h.html" target="_top" xlink:title=" ">
<polygon fill="white" stroke="black" points="1130,-179.5 1130,-198.5 1272,-198.5 1272,-179.5 1130,-179.5"/>
<text text-anchor="middle" x="1201" y="-186.5" font-family="Helvetica,sans-Serif" font-size="10.00">boomerang/util/Address.h</text>
</a>
</g>
</g>
<!-- Node25&#45;&gt;Node26 -->
<g id="edge36" class="edge">
<title>Node25&#45;&gt;Node26</title>
<path fill="none" stroke="midnightblue" d="M1075.92,-240.98C1100.75,-230.86 1142.34,-213.9 1170.69,-202.35"/>
<polygon fill="midnightblue" stroke="midnightblue" points="1172.18,-205.52 1180.12,-198.51 1169.54,-199.04 1172.18,-205.52"/>
</g>
<!-- Node26&#45;&gt;Node3 -->
<g id="edge37" class="edge">
<title>Node26&#45;&gt;Node3</title>
<path fill="none" stroke="midnightblue" d="M1193.07,-179.4C1179.09,-164.89 1148.47,-135.86 1116,-123 1043.89,-94.44 829.67,-81.12 707.64,-75.7"/>
<polygon fill="midnightblue" stroke="midnightblue" points="707.72,-72.2 697.58,-75.26 707.41,-79.19 707.72,-72.2"/>
</g>
<!-- Node26&#45;&gt;Node11 -->
<g id="edge38" class="edge">
<title>Node26&#45;&gt;Node11</title>
<path fill="none" stroke="midnightblue" d="M1129.87,-182.48C1114.42,-181.31 1098.16,-180.09 1083,-179 851.28,-162.28 790.44,-163.81 555.53,-143.1"/>
<polygon fill="midnightblue" stroke="midnightblue" points="555.57,-139.59 545.3,-142.2 554.95,-146.57 555.57,-139.59"/>
</g>
<!-- Node26&#45;&gt;Node12 -->
<g id="edge39" class="edge">
<title>Node26&#45;&gt;Node12</title>
<path fill="none" stroke="midnightblue" d="M1201,-179.32C1201,-160.76 1201,-116.84 1201,-91.47"/>
<polygon fill="midnightblue" stroke="midnightblue" points="1204.5,-91.28 1201,-81.28 1197.5,-91.28 1204.5,-91.28"/>
</g>
<!-- Node26&#45;&gt;Node15 -->
<g id="edge40" class="edge">
<title>Node26&#45;&gt;Node15</title>
<path fill="none" stroke="midnightblue" d="M1216.42,-179.32C1231.54,-170.82 1254.82,-157.73 1272.47,-147.8"/>
<polygon fill="midnightblue" stroke="midnightblue" points="1274.61,-150.61 1281.61,-142.65 1271.18,-144.51 1274.61,-150.61"/>
</g>
<!-- Node27&#45;&gt;Node8 -->
<g id="edge44" class="edge">
<title>Node27&#45;&gt;Node8</title>
<path fill="none" stroke="midnightblue" d="M847.76,-240.98C806.76,-230.46 736.97,-212.56 691.95,-201.01"/>
<polygon fill="midnightblue" stroke="midnightblue" points="692.73,-197.6 682.18,-198.51 691,-204.38 692.73,-197.6"/>
</g>
<!-- Node27&#45;&gt;Node9 -->
<g id="edge50" class="edge">
<title>Node27&#45;&gt;Node9</title>
<path fill="none" stroke="midnightblue" d="M881.29,-240.6C881.25,-225.5 878.82,-194.95 861,-179 827.76,-149.25 697.73,-138.92 631.39,-135.53"/>
<polygon fill="midnightblue" stroke="midnightblue" points="631.47,-132.03 621.32,-135.05 631.14,-139.02 631.47,-132.03"/>
</g>
<!-- Node27&#45;&gt;Node17 -->
<g id="edge48" class="edge">
<title>Node27&#45;&gt;Node17</title>
<path fill="none" stroke="midnightblue" d="M827.59,-240.96C815.25,-238.99 802.17,-236.92 790,-235 690.47,-219.31 661.42,-224.38 559.98,-198.84"/>
<polygon fill="midnightblue" stroke="midnightblue" points="560.82,-195.45 550.27,-196.36 559.09,-202.23 560.82,-195.45"/>
</g>
<!-- Node27&#45;&gt;Node22 -->
<g id="edge49" class="edge">
<title>Node27&#45;&gt;Node22</title>
<path fill="none" stroke="midnightblue" d="M864.67,-240.98C845.79,-231.12 814.49,-214.79 792.42,-203.27"/>
<polygon fill="midnightblue" stroke="midnightblue" points="793.79,-200.03 783.3,-198.51 790.55,-206.24 793.79,-200.03"/>
</g>
<!-- Node27&#45;&gt;Node26 -->
<g id="edge45" class="edge">
<title>Node27&#45;&gt;Node26</title>
<path fill="none" stroke="midnightblue" d="M926.85,-240.98C984.47,-230.26 1083.31,-211.88 1145.25,-200.37"/>
<polygon fill="midnightblue" stroke="midnightblue" points="1146.05,-203.78 1155.24,-198.51 1144.77,-196.9 1146.05,-203.78"/>
</g>
<!-- Node28 -->
<g id="node28" class="node">
<title>Node28</title>
<g id="a_node28"><a xlink:href="MapIterators_8h.html" target="_top" xlink:title=" ">
<polygon fill="white" stroke="black" points="908.5,-179.5 908.5,-198.5 1073.5,-198.5 1073.5,-179.5 908.5,-179.5"/>
<text text-anchor="middle" x="991" y="-186.5" font-family="Helvetica,sans-Serif" font-size="10.00">boomerang/util/MapIterators.h</text>
</a>
</g>
</g>
<!-- Node27&#45;&gt;Node28 -->
<g id="edge46" class="edge">
<title>Node27&#45;&gt;Node28</title>
<path fill="none" stroke="midnightblue" d="M896.76,-240.98C914.98,-231.12 945.17,-214.79 966.47,-203.27"/>
<polygon fill="midnightblue" stroke="midnightblue" points="968.14,-206.35 975.27,-198.51 964.81,-200.19 968.14,-206.35"/>
</g>
<!-- Node29 -->
<g id="node29" class="node">
<title>Node29</title>
<g id="a_node29"><a xlink:title=" ">
<polygon fill="white" stroke="#bfbfbf" points="964.5,-123.5 964.5,-142.5 1017.5,-142.5 1017.5,-123.5 964.5,-123.5"/>
<text text-anchor="middle" x="991" y="-130.5" font-family="Helvetica,sans-Serif" font-size="10.00">iterator</text>
</a>
</g>
</g>
<!-- Node28&#45;&gt;Node29 -->
<g id="edge47" class="edge">
<title>Node28&#45;&gt;Node29</title>
<path fill="none" stroke="midnightblue" d="M991,-179.08C991,-172.01 991,-161.86 991,-152.99"/>
<polygon fill="midnightblue" stroke="midnightblue" points="994.5,-152.75 991,-142.75 987.5,-152.75 994.5,-152.75"/>
</g>
<!-- Node30&#45;&gt;Node17 -->
<g id="edge65" class="edge">
<title>Node30&#45;&gt;Node17</title>
<path fill="none" stroke="midnightblue" d="M376.68,-559.24C374.91,-533.1 374.21,-476.49 396,-436 429.15,-374.41 481.79,-394.56 515,-333 536.63,-292.9 537.11,-237.57 535.58,-208.91"/>
<polygon fill="midnightblue" stroke="midnightblue" points="539.06,-208.43 534.88,-198.7 532.07,-208.91 539.06,-208.43"/>
</g>
<!-- Node31 -->
<g id="node31" class="node">
<title>Node31</title>
<g id="a_node31"><a xlink:href="StatementSet_8h.html" target="_top" xlink:title=" ">
<polygon fill="white" stroke="black" points="222,-503.5 222,-522.5 314,-522.5 314,-503.5 222,-503.5"/>
<text text-anchor="middle" x="268" y="-510.5" font-family="Helvetica,sans-Serif" font-size="10.00">StatementSet.h</text>
</a>
</g>
</g>
<!-- Node30&#45;&gt;Node31 -->
<g id="edge52" class="edge">
<title>Node30&#45;&gt;Node31</title>
<path fill="none" stroke="midnightblue" d="M351.93,-559.4C334.13,-549.77 310.69,-537.09 293.1,-527.58"/>
<polygon fill="midnightblue" stroke="midnightblue" points="294.47,-524.34 284.01,-522.66 291.14,-530.49 294.47,-524.34"/>
</g>
<!-- Node31&#45;&gt;Node9 -->
<g id="edge63" class="edge">
<title>Node31&#45;&gt;Node9</title>
<path fill="none" stroke="midnightblue" d="M221.73,-507.23C154.57,-497.47 38,-468.55 38,-385.5 38,-385.5 38,-385.5 38,-249.5 38,-217.05 31.97,-199.65 57,-179 97.87,-145.27 465.6,-150.83 552.66,-142.64"/>
<polygon fill="midnightblue" stroke="midnightblue" points="553.12,-146.11 562.63,-141.45 552.29,-139.16 553.12,-146.11"/>
</g>
<!-- Node31&#45;&gt;Node21 -->
<g id="edge64" class="edge">
<title>Node31&#45;&gt;Node21</title>
<path fill="none" stroke="midnightblue" d="M240.23,-503.36C220.67,-496.15 194.88,-484.25 177,-467 147.38,-438.42 133,-426.66 133,-385.5 133,-385.5 133,-385.5 133,-316.5 133,-277.54 121.87,-232.99 114.77,-208.52"/>
<polygon fill="midnightblue" stroke="midnightblue" points="118.08,-207.36 111.85,-198.79 111.37,-209.37 118.08,-207.36"/>
</g>
<!-- Node32 -->
<g id="node32" class="node">
<title>Node32</title>
<g id="a_node32"><a xlink:href="Terminal_8h.html" target="_top" xlink:title=" ">
<polygon fill="white" stroke="black" points="186,-442 186,-461 350,-461 350,-442 186,-442"/>
<text text-anchor="middle" x="268" y="-449" font-family="Helvetica,sans-Serif" font-size="10.00">boomerang/ssl/exp/Terminal.h</text>
</a>
</g>
</g>
<!-- Node31&#45;&gt;Node32 -->
<g id="edge53" class="edge">
<title>Node31&#45;&gt;Node32</title>
<path fill="none" stroke="midnightblue" d="M268,-503.48C268,-495.08 268,-481.98 268,-471.16"/>
<polygon fill="midnightblue" stroke="midnightblue" points="271.5,-471.01 268,-461.01 264.5,-471.01 271.5,-471.01"/>
</g>
<!-- Node33 -->
<g id="node33" class="node">
<title>Node33</title>
<g id="a_node33"><a xlink:href="Assign_8h.html" target="_top" xlink:title=" ">
<polygon fill="white" stroke="black" points="725.5,-436.5 725.5,-466.5 872.5,-466.5 872.5,-436.5 725.5,-436.5"/>
<text text-anchor="start" x="733.5" y="-454.5" font-family="Helvetica,sans-Serif" font-size="10.00">boomerang/ssl/statements</text>
<text text-anchor="middle" x="799" y="-443.5" font-family="Helvetica,sans-Serif" font-size="10.00">/Assign.h</text>
</a>
</g>
</g>
<!-- Node31&#45;&gt;Node33 -->
<g id="edge55" class="edge">
<title>Node31&#45;&gt;Node33</title>
<path fill="none" stroke="midnightblue" d="M314.19,-506.82C403.72,-496.79 601.96,-474.58 715.27,-461.88"/>
<polygon fill="midnightblue" stroke="midnightblue" points="715.74,-465.35 725.29,-460.76 714.96,-458.39 715.74,-465.35"/>
</g>
<!-- Node32&#45;&gt;Node7 -->
<g id="edge54" class="edge">
<title>Node32&#45;&gt;Node7</title>
<path fill="none" stroke="midnightblue" d="M269.47,-441.7C274.02,-416.86 289.99,-345.26 329,-302 344.71,-284.58 367.87,-272.04 387.27,-263.81"/>
<polygon fill="midnightblue" stroke="midnightblue" points="388.76,-266.99 396.73,-260.01 386.15,-260.49 388.76,-266.99"/>
</g>
<!-- Node34 -->
<g id="node34" class="node">
<title>Node34</title>
<g id="a_node34"><a xlink:href="Assignment_8h.html" target="_top" xlink:title=" ">
<polygon fill="white" stroke="black" points="725.5,-369.5 725.5,-399.5 872.5,-399.5 872.5,-369.5 725.5,-369.5"/>
<text text-anchor="start" x="733.5" y="-387.5" font-family="Helvetica,sans-Serif" font-size="10.00">boomerang/ssl/statements</text>
<text text-anchor="middle" x="799" y="-376.5" font-family="Helvetica,sans-Serif" font-size="10.00">/Assignment.h</text>
</a>
</g>
</g>
<!-- Node33&#45;&gt;Node34 -->
<g id="edge56" class="edge">
<title>Node33&#45;&gt;Node34</title>
<path fill="none" stroke="midnightblue" d="M799,-436.4C799,-428.64 799,-418.81 799,-409.86"/>
<polygon fill="midnightblue" stroke="midnightblue" points="802.5,-409.58 799,-399.58 795.5,-409.58 802.5,-409.58"/>
</g>
<!-- Node35 -->
<g id="node35" class="node">
<title>Node35</title>
<g id="a_node35"><a xlink:href="TypingStatement_8h.html" target="_top" xlink:title=" ">
<polygon fill="white" stroke="black" points="725.5,-302.5 725.5,-332.5 872.5,-332.5 872.5,-302.5 725.5,-302.5"/>
<text text-anchor="start" x="733.5" y="-320.5" font-family="Helvetica,sans-Serif" font-size="10.00">boomerang/ssl/statements</text>
<text text-anchor="middle" x="799" y="-309.5" font-family="Helvetica,sans-Serif" font-size="10.00">/TypingStatement.h</text>
</a>
</g>
</g>
<!-- Node34&#45;&gt;Node35 -->
<g id="edge57" class="edge">
<title>Node34&#45;&gt;Node35</title>
<path fill="none" stroke="midnightblue" d="M799,-369.4C799,-361.64 799,-351.81 799,-342.86"/>
<polygon fill="midnightblue" stroke="midnightblue" points="802.5,-342.58 799,-332.58 795.5,-342.58 802.5,-342.58"/>
</g>
<!-- Node36 -->
<g id="node36" class="node">
<title>Node36</title>
<g id="a_node36"><a xlink:href="Statement_8h.html" target="_top" xlink:title=" ">
<polygon fill="white" stroke="black" points="633.5,-235.5 633.5,-265.5 780.5,-265.5 780.5,-235.5 633.5,-235.5"/>
<text text-anchor="start" x="641.5" y="-253.5" font-family="Helvetica,sans-Serif" font-size="10.00">boomerang/ssl/statements</text>
<text text-anchor="middle" x="707" y="-242.5" font-family="Helvetica,sans-Serif" font-size="10.00">/Statement.h</text>
</a>
</g>
</g>
<!-- Node35&#45;&gt;Node36 -->
<g id="edge58" class="edge">
<title>Node35&#45;&gt;Node36</title>
<path fill="none" stroke="midnightblue" d="M779.04,-302.4C766.26,-293.37 749.48,-281.51 735.33,-271.52"/>
<polygon fill="midnightblue" stroke="midnightblue" points="737.11,-268.49 726.92,-265.58 733.07,-274.21 737.11,-268.49"/>
</g>
<!-- Node36&#45;&gt;Node8 -->
<g id="edge59" class="edge">
<title>Node36&#45;&gt;Node8</title>
<path fill="none" stroke="midnightblue" d="M693.25,-235.4C684.65,-226.58 673.55,-215.18 664.61,-206.02"/>
<polygon fill="midnightblue" stroke="midnightblue" points="666.93,-203.38 657.44,-198.66 661.91,-208.26 666.93,-203.38"/>
</g>
<!-- Node36&#45;&gt;Node17 -->
<g id="edge61" class="edge">
<title>Node36&#45;&gt;Node17</title>
<path fill="none" stroke="midnightblue" d="M665.15,-235.43C637.62,-226.12 600.57,-213.51 559.73,-199.22"/>
<polygon fill="midnightblue" stroke="midnightblue" points="560.72,-195.86 550.12,-195.85 558.4,-202.46 560.72,-195.86"/>
</g>
<!-- Node36&#45;&gt;Node22 -->
<g id="edge62" class="edge">
<title>Node36&#45;&gt;Node22</title>
<path fill="none" stroke="midnightblue" d="M721.22,-235.4C730.21,-226.49 741.84,-214.95 751.13,-205.74"/>
<polygon fill="midnightblue" stroke="midnightblue" points="753.63,-208.18 758.27,-198.66 748.7,-203.21 753.63,-208.18"/>
</g>
<!-- Node36&#45;&gt;Node26 -->
<g id="edge60" class="edge">
<title>Node36&#45;&gt;Node26</title>
<path fill="none" stroke="midnightblue" d="M780.73,-236.37C783.86,-235.89 786.96,-235.43 790,-235 904.1,-218.8 1036.74,-205.22 1119.79,-197.35"/>
<polygon fill="midnightblue" stroke="midnightblue" points="1120.29,-200.82 1129.92,-196.39 1119.63,-193.85 1120.29,-200.82"/>
</g>
<!-- Node38 -->
<g id="node38" class="node">
<title>Node38</title>
<g id="a_node38"><a xlink:href="Unary_8h.html" target="_top" xlink:title=" ">
<polygon fill="white" stroke="black" points="405.5,-442 405.5,-461 554.5,-461 554.5,-442 405.5,-442"/>
<text text-anchor="middle" x="480" y="-449" font-family="Helvetica,sans-Serif" font-size="10.00">boomerang/ssl/exp/Unary.h</text>
</a>
</g>
</g>
<!-- Node37&#45;&gt;Node38 -->
<g id="edge67" class="edge">
<title>Node37&#45;&gt;Node38</title>
<path fill="none" stroke="midnightblue" d="M497.13,-626.2C494.37,-598.19 485.74,-510.71 481.89,-471.66"/>
<polygon fill="midnightblue" stroke="midnightblue" points="485.32,-470.82 480.86,-461.21 478.36,-471.51 485.32,-470.82"/>
</g>
<!-- Node38&#45;&gt;Node7 -->
<g id="edge68" class="edge">
<title>Node38&#45;&gt;Node7</title>
<path fill="none" stroke="midnightblue" d="M461.33,-441.98C428.87,-425.99 363.02,-388.05 337,-333 331.11,-320.54 330.16,-313.96 337,-302 347.23,-284.12 366.53,-271.96 384.25,-264.05"/>
<polygon fill="midnightblue" stroke="midnightblue" points="385.96,-267.13 393.87,-260.09 383.29,-260.66 385.96,-267.13"/>
</g>
<!-- Node39&#45;&gt;Node9 -->
<g id="edge72" class="edge">
<title>Node39&#45;&gt;Node9</title>
<path fill="none" stroke="midnightblue" d="M1236.84,-235.41C1266.5,-221.78 1300.81,-200.14 1281,-179 1258.66,-155.16 774.54,-139.28 631.47,-135.1"/>
<polygon fill="midnightblue" stroke="midnightblue" points="631.48,-131.6 621.39,-134.81 631.28,-138.6 631.48,-131.6"/>
</g>
<!-- Node39&#45;&gt;Node12 -->
<g id="edge71" class="edge">
<title>Node39&#45;&gt;Node12</title>
<path fill="none" stroke="midnightblue" d="M1236.74,-235.48C1286.1,-213.97 1365.57,-170.33 1333,-123 1319.43,-103.28 1297.03,-91.26 1274.5,-83.93"/>
<polygon fill="midnightblue" stroke="midnightblue" points="1275.45,-80.56 1264.87,-81.06 1273.46,-87.27 1275.45,-80.56"/>
</g>
<!-- Node39&#45;&gt;Node19 -->
<g id="edge73" class="edge">
<title>Node39&#45;&gt;Node19</title>
<path fill="none" stroke="midnightblue" d="M1146.44,-237.02C1142.92,-236.31 1139.41,-235.63 1136,-235 1083.91,-225.4 931.02,-204.12 862.23,-194.67"/>
<polygon fill="midnightblue" stroke="midnightblue" points="862.32,-191.15 851.94,-193.26 861.37,-198.09 862.32,-191.15"/>
</g>
<!-- Node39&#45;&gt;Node26 -->
<g id="edge70" class="edge">
<title>Node39&#45;&gt;Node26</title>
<path fill="none" stroke="midnightblue" d="M1201,-235.4C1201,-227.47 1201,-217.46 1201,-208.86"/>
<polygon fill="midnightblue" stroke="midnightblue" points="1204.5,-208.66 1201,-198.66 1197.5,-208.66 1204.5,-208.66"/>
</g>
</g>
</svg>
        <g id="navigator" transform="translate(0 0)" fill="#404254">
                <rect fill="#f2f5e9" fill-opacity="0.5" stroke="#606060" stroke-width=".5" x="0" y="0" width="60" height="60"/>
                <use id="zoomplus" xlink:href="#zoomPlus" x="17" y="9" onmousedown="handleZoom(evt,'in')"/>
                <use id="zoomminus" xlink:href="#zoomMin" x="42" y="9" onmousedown="handleZoom(evt,'out')"/>
                <use id="reset" xlink:href="#resetDef" x="30" y="36" onmousedown="handleReset()"/>
                <g id="arrowUp" xlink:href="#dirArrow" transform="translate(30 24)" onmousedown="handlePan(0,-1)">
                  <use xlink:href="#rim" fill="#404040">
                        <set attributeName="fill" to="#808080" begin="arrowUp.mouseover" end="arrowUp.mouseout"/>
                  </use>
                  <path fill="none" stroke="white" stroke-width="1.5" d="M0,-3.0v7 M-2.5,-0.5L0,-3.0L2.5,-0.5"/>
                </g>
                <g id="arrowRight" xlink:href="#dirArrow" transform="rotate(90) translate(36 -43)" onmousedown="handlePan(1,0)">
                  <use xlink:href="#rim" fill="#404040">
                        <set attributeName="fill" to="#808080" begin="arrowRight.mouseover" end="arrowRight.mouseout"/>
                  </use>
                  <path fill="none" stroke="white" stroke-width="1.5" d="M0,-3.0v7 M-2.5,-0.5L0,-3.0L2.5,-0.5"/>
                </g>
                <g id="arrowDown" xlink:href="#dirArrow" transform="rotate(180) translate(-30 -48)" onmousedown="handlePan(0,1)">
                  <use xlink:href="#rim" fill="#404040">
                        <set attributeName="fill" to="#808080" begin="arrowDown.mouseover" end="arrowDown.mouseout"/>
                  </use>
                  <path fill="none" stroke="white" stroke-width="1.5" d="M0,-3.0v7 M-2.5,-0.5L0,-3.0L2.5,-0.5"/>
                </g>
                <g id="arrowLeft" xlink:href="#dirArrow" transform="rotate(270) translate(-36 17)" onmousedown="handlePan(-1,0)">
                  <use xlink:href="#rim" fill="#404040">
                        <set attributeName="fill" to="#808080" begin="arrowLeft.mouseover" end="arrowLeft.mouseout"/>
                  </use>
                  <path fill="none" stroke="white" stroke-width="1.5" d="M0,-3.0v7 M-2.5,-0.5L0,-3.0L2.5,-0.5"/>
                </g>
        </g>
        <svg viewBox="0 0 15 15" width="100%" height="30px" preserveAspectRatio="xMaxYMin meet">
         <g id="arrow_out" transform="scale(0.3 0.3)">
          <a xlink:href="DFGWriter_8cpp__incl_org.svg" target="_base">
           <rect id="button" ry="5" rx="5" y="6" x="6" height="38" width="38"
                fill="#f2f5e9" fill-opacity="0.5" stroke="#606060" stroke-width="1.0"/>
           <path id="arrow"
             d="M 11.500037,31.436501 C 11.940474,20.09759 22.043105,11.32322 32.158766,21.979434 L 37.068811,17.246167 C 37.068811,17.246167 37.088388,32 37.088388,32 L 22.160133,31.978069 C 22.160133,31.978069 26.997745,27.140456 26.997745,27.140456 C 18.528582,18.264221 13.291696,25.230495 11.500037,31.436501 z"
             style="fill:#404040;"/>
          </a>
         </g>
        </svg>
</svg>
