<?xml version="1.0" encoding="UTF-8" standalone="no"?>
<!DOCTYPE svg PUBLIC "-//W3C//DTD SVG 1.1//EN"
 "http://www.w3.org/Graphics/SVG/1.1/DTD/svg11.dtd">
<!-- Generated by graphviz version 2.43.0 (0)
 -->
<!-- Title: proc Pages: 1 -->
<svg width="912pt" height="548pt"
 viewBox="0.00 0.00 912.00 548.00" xmlns="http://www.w3.org/2000/svg" xmlns:xlink="http://www.w3.org/1999/xlink">
<g id="graph0" class="graph" transform="scale(1 1) rotate(0) translate(4 544)">
<title>proc</title>
<polygon fill="white" stroke="transparent" points="-4,4 -4,-544 908,-544 908,4 -4,4"/>
<g id="clust1" class="cluster">
<title>clusterdir_cacbc0f8d661c3f2ef6995c140cb013b</title>
<g id="a_clust1"><a xlink:href="dir_cacbc0f8d661c3f2ef6995c140cb013b.html" target="_top" xlink:title="db">
<polygon fill="#ddddee" stroke="black" points="231,-352 231,-423 301,-423 301,-352 231,-352"/>
<text text-anchor="middle" x="266" y="-411" font-family="Helvetica,sans-Serif" font-size="10.00">db</text>
</a>
</g>
</g>
<!-- dir_636445051267db0da9873ee5fca752ef -->
<g id="node1" class="node">
<title>dir_636445051267db0da9873ee5fca752ef</title>
<g id="a_node1"><a xlink:href="dir_636445051267db0da9873ee5fca752ef.html" target="_top" xlink:title="proc">
<polygon fill="#eeeeff" stroke="black" points="293,-396 239,-396 239,-360 293,-360 293,-396"/>
<text text-anchor="middle" x="266" y="-375.5" font-family="Helvetica,sans-Serif" font-size="10.00">proc</text>
</a>
</g>
</g>
<!-- dir_00cea25d4360966f2fbb8df56cdad836 -->
<g id="node2" class="node">
<title>dir_00cea25d4360966f2fbb8df56cdad836</title>
<g id="a_node2"><a xlink:href="dir_00cea25d4360966f2fbb8df56cdad836.html" target="_top" xlink:title="ifc">
<polygon fill="none" stroke="black" points="502,-540 448,-540 448,-504 502,-504 502,-540"/>
<text text-anchor="middle" x="475" y="-519.5" font-family="Helvetica,sans-Serif" font-size="10.00">ifc</text>
</a>
</g>
</g>
<!-- dir_636445051267db0da9873ee5fca752ef&#45;&gt;dir_00cea25d4360966f2fbb8df56cdad836 -->
<g id="edge27" class="edge">
<title>dir_636445051267db0da9873ee5fca752ef&#45;&gt;dir_00cea25d4360966f2fbb8df56cdad836</title>
<path fill="none" stroke="black" d="M273.46,-396.16C282.94,-416.09 301.11,-448.7 326,-468 359.08,-493.66 405.62,-507.56 437.85,-514.6"/>
<polygon fill="black" stroke="black" points="437.27,-518.05 447.77,-516.65 438.69,-511.2 437.27,-518.05"/>
<g id="a_edge27&#45;headlabel"><a xlink:href="dir_000047_000045.html" target="_top" xlink:title="2">
<text text-anchor="middle" x="433.18" y="-517.61" font-family="Helvetica,sans-Serif" font-size="10.00">2</text>
</a>
</g>
</g>
<!-- dir_3731137dd4cde3a8f32b6960f0d2e696 -->
<g id="node3" class="node">
<title>dir_3731137dd4cde3a8f32b6960f0d2e696</title>
<g id="a_node3"><a xlink:href="dir_3731137dd4cde3a8f32b6960f0d2e696.html" target="_top" xlink:title="passes">
<polygon fill="white" stroke="red" points="542,-252 488,-252 488,-216 542,-216 542,-252"/>
<text text-anchor="middle" x="515" y="-231.5" font-family="Helvetica,sans-Serif" font-size="10.00">passes</text>
</a>
</g>
</g>
<!-- dir_636445051267db0da9873ee5fca752ef&#45;&gt;dir_3731137dd4cde3a8f32b6960f0d2e696 -->
<g id="edge28" class="edge">
<title>dir_636445051267db0da9873ee5fca752ef&#45;&gt;dir_3731137dd4cde3a8f32b6960f0d2e696</title>
<path fill="none" stroke="black" d="M272.48,-359.88C280.99,-339.68 297.89,-306.51 323,-288 369.22,-253.93 436.26,-241.76 477.66,-237.41"/>
<polygon fill="black" stroke="black" points="478.23,-240.87 487.86,-236.45 477.57,-233.91 478.23,-240.87"/>
<g id="a_edge28&#45;headlabel"><a xlink:href="dir_000047_000010.html" target="_top" xlink:title="1">
<text text-anchor="middle" x="474.92" y="-241.54" font-family="Helvetica,sans-Serif" font-size="10.00">1</text>
</a>
</g>
</g>
<!-- dir_014c721151abc8438874b072d5fa83c2 -->
<g id="node4" class="node">
<title>dir_014c721151abc8438874b072d5fa83c2</title>
<g id="a_node4"><a xlink:href="dir_014c721151abc8438874b072d5fa83c2.html" target="_top" xlink:title="visitor">
<polygon fill="white" stroke="red" points="622,-108 568,-108 568,-72 622,-72 622,-108"/>
<text text-anchor="middle" x="595" y="-87.5" font-family="Helvetica,sans-Serif" font-size="10.00">visitor</text>
</a>
</g>
</g>
<!-- dir_636445051267db0da9873ee5fca752ef&#45;&gt;dir_014c721151abc8438874b072d5fa83c2 -->
<g id="edge29" class="edge">
<title>dir_636445051267db0da9873ee5fca752ef&#45;&gt;dir_014c721151abc8438874b072d5fa83c2</title>
<path fill="none" stroke="black" d="M261.95,-359.89C258.45,-341.17 255.56,-310.78 267,-288 325.11,-172.3 484.88,-118.58 557.81,-99.53"/>
<polygon fill="black" stroke="black" points="559.09,-102.82 567.92,-96.97 557.37,-96.04 559.09,-102.82"/>
<g id="a_edge29&#45;headlabel"><a xlink:href="dir_000047_000012.html" target="_top" xlink:title="2">
<text text-anchor="middle" x="556.3" y="-103.96" font-family="Helvetica,sans-Serif" font-size="10.00">2</text>
</a>
</g>
</g>
<!-- dir_fd773920032524e4bfcd78f5916cd097 -->
<g id="node5" class="node">
<title>dir_fd773920032524e4bfcd78f5916cd097</title>
<g id="a_node5"><a xlink:href="dir_fd773920032524e4bfcd78f5916cd097.html" target="_top" xlink:title="signature">
<polygon fill="none" stroke="black" points="571,-36 509,-36 509,0 571,0 571,-36"/>
<text text-anchor="middle" x="540" y="-15.5" font-family="Helvetica,sans-Serif" font-size="10.00">signature</text>
</a>
</g>
</g>
<!-- dir_636445051267db0da9873ee5fca752ef&#45;&gt;dir_fd773920032524e4bfcd78f5916cd097 -->
<g id="edge30" class="edge">
<title>dir_636445051267db0da9873ee5fca752ef&#45;&gt;dir_fd773920032524e4bfcd78f5916cd097</title>
<path fill="none" stroke="black" d="M238.54,-375.12C170.57,-368.82 0,-342.32 0,-235 0,-235 0,-235 0,-161 0,-94.24 59,-96.76 121,-72 189.19,-44.76 407.14,-27.7 498.78,-21.57"/>
<polygon fill="black" stroke="black" points="499.05,-25.06 508.8,-20.91 498.59,-18.07 499.05,-25.06"/>
<g id="a_edge30&#45;headlabel"><a xlink:href="dir_000047_000033.html" target="_top" xlink:title="4">
<text text-anchor="middle" x="495.65" y="-25.63" font-family="Helvetica,sans-Serif" font-size="10.00">4</text>
</a>
</g>
</g>
<!-- dir_1670a14e30757f4c1b31e1e530e46487 -->
<g id="node6" class="node">
<title>dir_1670a14e30757f4c1b31e1e530e46487</title>
<g id="a_node6"><a xlink:href="dir_1670a14e30757f4c1b31e1e530e46487.html" target="_top" xlink:title="decomp">
<polygon fill="none" stroke="black" points="388,-324 332,-324 332,-288 388,-288 388,-324"/>
<text text-anchor="middle" x="360" y="-303.5" font-family="Helvetica,sans-Serif" font-size="10.00">decomp</text>
</a>
</g>
</g>
<!-- dir_636445051267db0da9873ee5fca752ef&#45;&gt;dir_1670a14e30757f4c1b31e1e530e46487 -->
<g id="edge31" class="edge">
<title>dir_636445051267db0da9873ee5fca752ef&#45;&gt;dir_1670a14e30757f4c1b31e1e530e46487</title>
<path fill="none" stroke="black" d="M283.32,-359.7C294.63,-350.58 309.65,-339.28 323.45,-329.49"/>
<polygon fill="black" stroke="black" points="325.65,-332.22 331.84,-323.62 321.63,-326.49 325.65,-332.22"/>
<g id="a_edge31&#45;headlabel"><a xlink:href="dir_000047_000029.html" target="_top" xlink:title="1">
<text text-anchor="middle" x="324.33" y="-334.11" font-family="Helvetica,sans-Serif" font-size="10.00">1</text>
</a>
</g>
</g>
<!-- dir_b7264726bdfa508dc9a1f79664d9f9a2 -->
<g id="node7" class="node">
<title>dir_b7264726bdfa508dc9a1f79664d9f9a2</title>
<g id="a_node7"><a xlink:href="dir_b7264726bdfa508dc9a1f79664d9f9a2.html" target="_top" xlink:title="ssl">
<polygon fill="white" stroke="red" points="589,-468 535,-468 535,-432 589,-432 589,-468"/>
<text text-anchor="middle" x="562" y="-447.5" font-family="Helvetica,sans-Serif" font-size="10.00">ssl</text>
</a>
</g>
</g>
<!-- dir_636445051267db0da9873ee5fca752ef&#45;&gt;dir_b7264726bdfa508dc9a1f79664d9f9a2 -->
<g id="edge32" class="edge">
<title>dir_636445051267db0da9873ee5fca752ef&#45;&gt;dir_b7264726bdfa508dc9a1f79664d9f9a2</title>
<path fill="none" stroke="black" d="M293.07,-393.74C312.31,-403.56 339.06,-415.93 364,-423 418.66,-438.5 484.46,-444.81 524.75,-447.34"/>
<polygon fill="black" stroke="black" points="524.73,-450.85 534.92,-447.94 525.14,-443.86 524.73,-450.85"/>
<g id="a_edge32&#45;headlabel"><a xlink:href="dir_000047_000007.html" target="_top" xlink:title="17">
<text text-anchor="middle" x="520.98" y="-450.97" font-family="Helvetica,sans-Serif" font-size="10.00">17</text>
</a>
</g>
</g>
<!-- dir_5646c4a3c156db227fe899778b3c4cdf -->
<g id="node8" class="node">
<title>dir_5646c4a3c156db227fe899778b3c4cdf</title>
<g id="a_node8"><a xlink:href="dir_5646c4a3c156db227fe899778b3c4cdf.html" target="_top" xlink:title="util">
<polygon fill="white" stroke="red" points="660,-180 606,-180 606,-144 660,-144 660,-180"/>
<text text-anchor="middle" x="633" y="-159.5" font-family="Helvetica,sans-Serif" font-size="10.00">util</text>
</a>
</g>
</g>
<!-- dir_636445051267db0da9873ee5fca752ef&#45;&gt;dir_5646c4a3c156db227fe899778b3c4cdf -->
<g id="edge33" class="edge">
<title>dir_636445051267db0da9873ee5fca752ef&#45;&gt;dir_5646c4a3c156db227fe899778b3c4cdf</title>
<path fill="none" stroke="black" d="M266.24,-359.84C267.35,-340.51 271.77,-309.05 288,-288 363.64,-189.91 523.4,-168.71 595.86,-164.19"/>
<polygon fill="black" stroke="black" points="596.11,-167.68 605.9,-163.64 595.72,-160.69 596.11,-167.68"/>
<g id="a_edge33&#45;headlabel"><a xlink:href="dir_000047_000002.html" target="_top" xlink:title="10">
<text text-anchor="middle" x="592.68" y="-168.22" font-family="Helvetica,sans-Serif" font-size="10.00">10</text>
</a>
</g>
</g>
<!-- dir_89a2a0f8e65887f6f5e7f07c9ce97f37 -->
<g id="node9" class="node">
<title>dir_89a2a0f8e65887f6f5e7f07c9ce97f37</title>
<g id="a_node9"><a xlink:href="dir_89a2a0f8e65887f6f5e7f07c9ce97f37.html" target="_top" xlink:title="core">
<polygon fill="white" stroke="red" points="502,-396 448,-396 448,-360 502,-360 502,-396"/>
<text text-anchor="middle" x="475" y="-375.5" font-family="Helvetica,sans-Serif" font-size="10.00">core</text>
</a>
</g>
</g>
<!-- dir_636445051267db0da9873ee5fca752ef&#45;&gt;dir_89a2a0f8e65887f6f5e7f07c9ce97f37 -->
<g id="edge34" class="edge">
<title>dir_636445051267db0da9873ee5fca752ef&#45;&gt;dir_89a2a0f8e65887f6f5e7f07c9ce97f37</title>
<path fill="none" stroke="black" d="M293.35,-378C341.38,-378 389.41,-378 437.43,-378"/>
<polygon fill="black" stroke="black" points="437.68,-381.5 447.68,-378 437.68,-374.5 437.68,-381.5"/>
<g id="a_edge34&#45;headlabel"><a xlink:href="dir_000047_000019.html" target="_top" xlink:title="5">
<text text-anchor="middle" x="434.09" y="-381.84" font-family="Helvetica,sans-Serif" font-size="10.00">5</text>
</a>
</g>
</g>
<!-- dir_38c79c2c60b3a2288bf5bca92c333acf -->
<g id="node10" class="node">
<title>dir_38c79c2c60b3a2288bf5bca92c333acf</title>
<g id="a_node10"><a xlink:href="dir_38c79c2c60b3a2288bf5bca92c333acf.html" target="_top" xlink:title="module">
<polygon fill="none" stroke="black" points="481,-108 427,-108 427,-72 481,-72 481,-108"/>
<text text-anchor="middle" x="454" y="-87.5" font-family="Helvetica,sans-Serif" font-size="10.00">module</text>
</a>
</g>
</g>
<!-- dir_636445051267db0da9873ee5fca752ef&#45;&gt;dir_38c79c2c60b3a2288bf5bca92c333acf -->
<g id="edge35" class="edge">
<title>dir_636445051267db0da9873ee5fca752ef&#45;&gt;dir_38c79c2c60b3a2288bf5bca92c333acf</title>
<path fill="none" stroke="black" d="M242.25,-359.91C231.45,-350.65 219.8,-338.2 214,-324 183.74,-249.94 163.9,-206.37 214,-144 217.2,-140.01 350.25,-112.27 416.83,-98.59"/>
<polygon fill="black" stroke="black" points="417.83,-101.96 426.92,-96.52 416.42,-95.1 417.83,-101.96"/>
<g id="a_edge35&#45;headlabel"><a xlink:href="dir_000047_000030.html" target="_top" xlink:title="3">
<text text-anchor="middle" x="414.88" y="-102.96" font-family="Helvetica,sans-Serif" font-size="10.00">3</text>
</a>
</g>
</g>
<!-- dir_00cea25d4360966f2fbb8df56cdad836&#45;&gt;dir_b7264726bdfa508dc9a1f79664d9f9a2 -->
<g id="edge1" class="edge">
<title>dir_00cea25d4360966f2fbb8df56cdad836&#45;&gt;dir_b7264726bdfa508dc9a1f79664d9f9a2</title>
<path fill="none" stroke="black" d="M490.59,-503.7C500.73,-494.8 514.21,-483.82 526.77,-474.2"/>
<polygon fill="black" stroke="black" points="528.97,-476.92 534.85,-468.1 524.76,-471.33 528.97,-476.92"/>
<g id="a_edge1&#45;headlabel"><a xlink:href="dir_000045_000007.html" target="_top" xlink:title="2">
<text text-anchor="middle" x="527.81" y="-478.85" font-family="Helvetica,sans-Serif" font-size="10.00">2</text>
</a>
</g>
</g>
<!-- dir_00cea25d4360966f2fbb8df56cdad836&#45;&gt;dir_5646c4a3c156db227fe899778b3c4cdf -->
<g id="edge2" class="edge">
<title>dir_00cea25d4360966f2fbb8df56cdad836&#45;&gt;dir_5646c4a3c156db227fe899778b3c4cdf</title>
<path fill="none" stroke="black" d="M502.15,-520.72C576.01,-518.2 774,-499.85 774,-379 774,-379 774,-379 774,-305 774,-245.66 711.32,-203.7 669.43,-181.45"/>
<polygon fill="black" stroke="black" points="670.81,-178.22 660.32,-176.74 667.59,-184.44 670.81,-178.22"/>
<g id="a_edge2&#45;headlabel"><a xlink:href="dir_000045_000002.html" target="_top" xlink:title="1">
<text text-anchor="middle" x="675.3" y="-174.85" font-family="Helvetica,sans-Serif" font-size="10.00">1</text>
</a>
</g>
</g>
<!-- dir_00cea25d4360966f2fbb8df56cdad836&#45;&gt;dir_89a2a0f8e65887f6f5e7f07c9ce97f37 -->
<g id="edge3" class="edge">
<title>dir_00cea25d4360966f2fbb8df56cdad836&#45;&gt;dir_89a2a0f8e65887f6f5e7f07c9ce97f37</title>
<path fill="none" stroke="black" d="M470.42,-503.87C467.86,-479.67 467.57,-435.21 469.54,-406.39"/>
<polygon fill="black" stroke="black" points="473.05,-406.45 470.41,-396.19 466.07,-405.86 473.05,-406.45"/>
<g id="a_edge3&#45;headlabel"><a xlink:href="dir_000045_000019.html" target="_top" xlink:title="3">
<text text-anchor="middle" x="475.57" y="-407.77" font-family="Helvetica,sans-Serif" font-size="10.00">3</text>
</a>
</g>
</g>
<!-- dir_3731137dd4cde3a8f32b6960f0d2e696&#45;&gt;dir_00cea25d4360966f2fbb8df56cdad836 -->
<g id="edge4" class="edge">
<title>dir_3731137dd4cde3a8f32b6960f0d2e696&#45;&gt;dir_00cea25d4360966f2fbb8df56cdad836</title>
<path fill="none" stroke="black" d="M498.99,-252.37C480.37,-273.88 450.7,-312.52 439,-352 424.26,-401.74 445.86,-461.4 461.43,-494.88"/>
<polygon fill="black" stroke="black" points="458.33,-496.5 465.83,-503.99 464.64,-493.46 458.33,-496.5"/>
<g id="a_edge4&#45;headlabel"><a xlink:href="dir_000010_000045.html" target="_top" xlink:title="1">
<text text-anchor="middle" x="454.21" y="-492" font-family="Helvetica,sans-Serif" font-size="10.00">1</text>
</a>
</g>
</g>
<!-- dir_3731137dd4cde3a8f32b6960f0d2e696&#45;&gt;dir_014c721151abc8438874b072d5fa83c2 -->
<g id="edge5" class="edge">
<title>dir_3731137dd4cde3a8f32b6960f0d2e696&#45;&gt;dir_014c721151abc8438874b072d5fa83c2</title>
<path fill="none" stroke="black" d="M528.93,-215.95C536.82,-205.84 546.57,-192.59 554,-180 565.89,-159.85 576.84,-135.66 584.42,-117.59"/>
<polygon fill="black" stroke="black" points="587.7,-118.83 588.28,-108.25 581.23,-116.16 587.7,-118.83"/>
<g id="a_edge5&#45;headlabel"><a xlink:href="dir_000010_000012.html" target="_top" xlink:title="20">
<text text-anchor="middle" x="588.96" y="-120.73" font-family="Helvetica,sans-Serif" font-size="10.00">20</text>
</a>
</g>
</g>
<!-- dir_3731137dd4cde3a8f32b6960f0d2e696&#45;&gt;dir_fd773920032524e4bfcd78f5916cd097 -->
<g id="edge6" class="edge">
<title>dir_3731137dd4cde3a8f32b6960f0d2e696&#45;&gt;dir_fd773920032524e4bfcd78f5916cd097</title>
<path fill="none" stroke="black" d="M517,-215.85C521.33,-178.83 531.57,-91.18 536.8,-46.39"/>
<polygon fill="black" stroke="black" points="540.3,-46.57 537.99,-36.23 533.35,-45.76 540.3,-46.57"/>
<g id="a_edge6&#45;headlabel"><a xlink:href="dir_000010_000033.html" target="_top" xlink:title="6">
<text text-anchor="middle" x="542.71" y="-47.97" font-family="Helvetica,sans-Serif" font-size="10.00">6</text>
</a>
</g>
</g>
<!-- dir_3731137dd4cde3a8f32b6960f0d2e696&#45;&gt;dir_1670a14e30757f4c1b31e1e530e46487 -->
<g id="edge7" class="edge">
<title>dir_3731137dd4cde3a8f32b6960f0d2e696&#45;&gt;dir_1670a14e30757f4c1b31e1e530e46487</title>
<path fill="none" stroke="black" d="M487.79,-249.83C462.72,-261.83 425.51,-278.63 397.63,-290.53"/>
<polygon fill="black" stroke="black" points="396.04,-287.4 388.19,-294.52 398.76,-293.85 396.04,-287.4"/>
<g id="a_edge7&#45;headlabel"><a xlink:href="dir_000010_000029.html" target="_top" xlink:title="2">
<text text-anchor="middle" x="398.24" y="-280.89" font-family="Helvetica,sans-Serif" font-size="10.00">2</text>
</a>
</g>
</g>
<!-- dir_3731137dd4cde3a8f32b6960f0d2e696&#45;&gt;dir_b7264726bdfa508dc9a1f79664d9f9a2 -->
<g id="edge8" class="edge">
<title>dir_3731137dd4cde3a8f32b6960f0d2e696&#45;&gt;dir_b7264726bdfa508dc9a1f79664d9f9a2</title>
<path fill="none" stroke="black" d="M522.67,-252.23C534.35,-289.32 553.87,-376.98 560.69,-421.71"/>
<polygon fill="black" stroke="black" points="557.26,-422.43 562.11,-431.85 564.19,-421.46 557.26,-422.43"/>
<g id="a_edge8&#45;headlabel"><a xlink:href="dir_000010_000007.html" target="_top" xlink:title="56">
<text text-anchor="middle" x="553.95" y="-416.76" font-family="Helvetica,sans-Serif" font-size="10.00">56</text>
</a>
</g>
</g>
<!-- dir_3731137dd4cde3a8f32b6960f0d2e696&#45;&gt;dir_5646c4a3c156db227fe899778b3c4cdf -->
<g id="edge9" class="edge">
<title>dir_3731137dd4cde3a8f32b6960f0d2e696&#45;&gt;dir_5646c4a3c156db227fe899778b3c4cdf</title>
<path fill="none" stroke="black" d="M542.07,-216.94C558.3,-207.32 579.13,-194.96 596.76,-184.5"/>
<polygon fill="black" stroke="black" points="598.83,-187.34 605.65,-179.23 595.26,-181.32 598.83,-187.34"/>
<g id="a_edge9&#45;headlabel"><a xlink:href="dir_000010_000002.html" target="_top" xlink:title="30">
<text text-anchor="middle" x="597.19" y="-189.12" font-family="Helvetica,sans-Serif" font-size="10.00">30</text>
</a>
</g>
</g>
<!-- dir_3731137dd4cde3a8f32b6960f0d2e696&#45;&gt;dir_89a2a0f8e65887f6f5e7f07c9ce97f37 -->
<g id="edge10" class="edge">
<title>dir_3731137dd4cde3a8f32b6960f0d2e696&#45;&gt;dir_89a2a0f8e65887f6f5e7f07c9ce97f37</title>
<path fill="none" stroke="black" d="M510.16,-252.19C503.3,-276.53 490.7,-321.28 482.59,-350.06"/>
<polygon fill="black" stroke="black" points="479.17,-349.3 479.82,-359.87 485.91,-351.2 479.17,-349.3"/>
<g id="a_edge10&#45;headlabel"><a xlink:href="dir_000010_000019.html" target="_top" xlink:title="25">
<text text-anchor="middle" x="477.41" y="-342.57" font-family="Helvetica,sans-Serif" font-size="10.00">25</text>
</a>
</g>
</g>
<!-- dir_014c721151abc8438874b072d5fa83c2&#45;&gt;dir_fd773920032524e4bfcd78f5916cd097 -->
<g id="edge11" class="edge">
<title>dir_014c721151abc8438874b072d5fa83c2&#45;&gt;dir_fd773920032524e4bfcd78f5916cd097</title>
<path fill="none" stroke="black" d="M581.4,-71.7C574.88,-63.39 566.93,-53.28 559.75,-44.14"/>
<polygon fill="black" stroke="black" points="562.37,-41.81 553.44,-36.1 556.87,-46.13 562.37,-41.81"/>
<g id="a_edge11&#45;headlabel"><a xlink:href="dir_000012_000033.html" target="_top" xlink:title="1">
<text text-anchor="middle" x="566.82" y="-40.38" font-family="Helvetica,sans-Serif" font-size="10.00">1</text>
</a>
</g>
</g>
<!-- dir_014c721151abc8438874b072d5fa83c2&#45;&gt;dir_b7264726bdfa508dc9a1f79664d9f9a2 -->
<g id="edge12" class="edge">
<title>dir_014c721151abc8438874b072d5fa83c2&#45;&gt;dir_b7264726bdfa508dc9a1f79664d9f9a2</title>
<path fill="none" stroke="black" d="M622.16,-93.41C687.7,-101.17 848,-131.3 848,-233 848,-307 848,-307 848,-307 848,-415.65 677.16,-441.22 599.46,-447.2"/>
<polygon fill="black" stroke="black" points="598.87,-443.73 589.14,-447.92 599.36,-450.71 598.87,-443.73"/>
<g id="a_edge12&#45;headlabel"><a xlink:href="dir_000012_000007.html" target="_top" xlink:title="112">
<text text-anchor="middle" x="602.26" y="-438.15" font-family="Helvetica,sans-Serif" font-size="10.00">112</text>
</a>
</g>
</g>
<!-- dir_014c721151abc8438874b072d5fa83c2&#45;&gt;dir_5646c4a3c156db227fe899778b3c4cdf -->
<g id="edge13" class="edge">
<title>dir_014c721151abc8438874b072d5fa83c2&#45;&gt;dir_5646c4a3c156db227fe899778b3c4cdf</title>
<path fill="none" stroke="black" d="M610.18,-108.1C615.32,-116.04 620.77,-125.67 625.19,-134.51"/>
<polygon fill="black" stroke="black" points="622.09,-136.15 629.52,-143.7 628.42,-133.16 622.09,-136.15"/>
<g id="a_edge13&#45;headlabel"><a xlink:href="dir_000012_000002.html" target="_top" xlink:title="7">
<text text-anchor="middle" x="617.99" y="-131.61" font-family="Helvetica,sans-Serif" font-size="10.00">7</text>
</a>
</g>
</g>
<!-- dir_014c721151abc8438874b072d5fa83c2&#45;&gt;dir_89a2a0f8e65887f6f5e7f07c9ce97f37 -->
<g id="edge14" class="edge">
<title>dir_014c721151abc8438874b072d5fa83c2&#45;&gt;dir_89a2a0f8e65887f6f5e7f07c9ce97f37</title>
<path fill="none" stroke="black" d="M622.06,-102.42C638.91,-111.12 659.18,-124.88 669,-144 676.31,-158.23 674.42,-164.94 669,-180 640.24,-259.94 558.52,-323.51 510.82,-355.13"/>
<polygon fill="black" stroke="black" points="508.8,-352.27 502.33,-360.66 512.62,-358.13 508.8,-352.27"/>
<g id="a_edge14&#45;headlabel"><a xlink:href="dir_000012_000019.html" target="_top" xlink:title="7">
<text text-anchor="middle" x="510.26" y="-345.43" font-family="Helvetica,sans-Serif" font-size="10.00">7</text>
</a>
</g>
</g>
<!-- dir_fd773920032524e4bfcd78f5916cd097&#45;&gt;dir_636445051267db0da9873ee5fca752ef -->
<g id="edge15" class="edge">
<title>dir_fd773920032524e4bfcd78f5916cd097&#45;&gt;dir_636445051267db0da9873ee5fca752ef</title>
<path fill="none" stroke="black" d="M508.84,-21.72C404.8,-31.65 76,-70.23 76,-161 76,-235 76,-235 76,-235 76,-310.6 173.7,-350.79 228.98,-367.49"/>
<polygon fill="black" stroke="black" points="228.2,-370.9 238.78,-370.33 230.15,-364.18 228.2,-370.9"/>
<g id="a_edge15&#45;headlabel"><a xlink:href="dir_000033_000047.html" target="_top" xlink:title="7">
<text text-anchor="middle" x="223.95" y="-370.13" font-family="Helvetica,sans-Serif" font-size="10.00">7</text>
</a>
</g>
</g>
<!-- dir_fd773920032524e4bfcd78f5916cd097&#45;&gt;dir_b7264726bdfa508dc9a1f79664d9f9a2 -->
<g id="edge16" class="edge">
<title>dir_fd773920032524e4bfcd78f5916cd097&#45;&gt;dir_b7264726bdfa508dc9a1f79664d9f9a2</title>
<path fill="none" stroke="black" d="M571.12,-23.8C659.39,-39.19 904,-90.47 904,-161 904,-307 904,-307 904,-307 904,-374.49 865.56,-391.25 806,-423 771.57,-441.35 658.71,-446.79 599.18,-448.37"/>
<polygon fill="black" stroke="black" points="598.98,-444.87 589.07,-448.61 599.15,-451.87 598.98,-444.87"/>
<g id="a_edge16&#45;headlabel"><a xlink:href="dir_000033_000007.html" target="_top" xlink:title="50">
<text text-anchor="middle" x="602.5" y="-439.44" font-family="Helvetica,sans-Serif" font-size="10.00">50</text>
</a>
</g>
</g>
<!-- dir_fd773920032524e4bfcd78f5916cd097&#45;&gt;dir_5646c4a3c156db227fe899778b3c4cdf -->
<g id="edge17" class="edge">
<title>dir_fd773920032524e4bfcd78f5916cd097&#45;&gt;dir_5646c4a3c156db227fe899778b3c4cdf</title>
<path fill="none" stroke="black" d="M571.11,-28.2C592,-36.17 618,-49.95 631,-72 641.95,-90.56 641.56,-115.3 638.94,-133.98"/>
<polygon fill="black" stroke="black" points="635.48,-133.48 637.27,-143.93 642.38,-134.65 635.48,-133.48"/>
<g id="a_edge17&#45;headlabel"><a xlink:href="dir_000033_000002.html" target="_top" xlink:title="8">
<text text-anchor="middle" x="633.28" y="-126.97" font-family="Helvetica,sans-Serif" font-size="10.00">8</text>
</a>
</g>
</g>
<!-- dir_1670a14e30757f4c1b31e1e530e46487&#45;&gt;dir_636445051267db0da9873ee5fca752ef -->
<g id="edge22" class="edge">
<title>dir_1670a14e30757f4c1b31e1e530e46487&#45;&gt;dir_636445051267db0da9873ee5fca752ef</title>
<path fill="none" stroke="black" d="M343,-324.04C331.42,-333.4 315.85,-345.1 301.68,-355.13"/>
<polygon fill="black" stroke="black" points="299.29,-352.53 293.09,-361.12 303.3,-358.27 299.29,-352.53"/>
<g id="a_edge22&#45;headlabel"><a xlink:href="dir_000029_000047.html" target="_top" xlink:title="8">
<text text-anchor="middle" x="300.62" y="-345.64" font-family="Helvetica,sans-Serif" font-size="10.00">8</text>
</a>
</g>
</g>
<!-- dir_1670a14e30757f4c1b31e1e530e46487&#45;&gt;dir_00cea25d4360966f2fbb8df56cdad836 -->
<g id="edge18" class="edge">
<title>dir_1670a14e30757f4c1b31e1e530e46487&#45;&gt;dir_00cea25d4360966f2fbb8df56cdad836</title>
<path fill="none" stroke="black" d="M359.67,-324.37C359.99,-356.68 365.22,-426.48 402,-468 412.63,-480 426.43,-490.88 439.17,-499.61"/>
<polygon fill="black" stroke="black" points="437.5,-502.7 447.77,-505.31 441.36,-496.87 437.5,-502.7"/>
<g id="a_edge18&#45;headlabel"><a xlink:href="dir_000029_000045.html" target="_top" xlink:title="1">
<text text-anchor="middle" x="432.93" y="-500.59" font-family="Helvetica,sans-Serif" font-size="10.00">1</text>
</a>
</g>
</g>
<!-- dir_1670a14e30757f4c1b31e1e530e46487&#45;&gt;dir_3731137dd4cde3a8f32b6960f0d2e696 -->
<g id="edge19" class="edge">
<title>dir_1670a14e30757f4c1b31e1e530e46487&#45;&gt;dir_3731137dd4cde3a8f32b6960f0d2e696</title>
<path fill="none" stroke="black" d="M388.32,-289.64C413.65,-277.54 450.73,-260.82 478.31,-249.07"/>
<polygon fill="black" stroke="black" points="479.78,-252.25 487.63,-245.14 477.06,-245.8 479.78,-252.25"/>
<g id="a_edge19&#45;headlabel"><a xlink:href="dir_000029_000010.html" target="_top" xlink:title="3">
<text text-anchor="middle" x="477.57" y="-253.76" font-family="Helvetica,sans-Serif" font-size="10.00">3</text>
</a>
</g>
</g>
<!-- dir_1670a14e30757f4c1b31e1e530e46487&#45;&gt;dir_014c721151abc8438874b072d5fa83c2 -->
<g id="edge20" class="edge">
<title>dir_1670a14e30757f4c1b31e1e530e46487&#45;&gt;dir_014c721151abc8438874b072d5fa83c2</title>
<path fill="none" stroke="black" d="M369.03,-287.95C379.6,-269.01 398.42,-238.17 420,-216 462.25,-172.59 521.24,-133.99 558.78,-111.55"/>
<polygon fill="black" stroke="black" points="561.01,-114.3 567.84,-106.2 557.45,-108.27 561.01,-114.3"/>
<g id="a_edge20&#45;headlabel"><a xlink:href="dir_000029_000012.html" target="_top" xlink:title="2">
<text text-anchor="middle" x="559.36" y="-116.07" font-family="Helvetica,sans-Serif" font-size="10.00">2</text>
</a>
</g>
</g>
<!-- dir_1670a14e30757f4c1b31e1e530e46487&#45;&gt;dir_fd773920032524e4bfcd78f5916cd097 -->
<g id="edge21" class="edge">
<title>dir_1670a14e30757f4c1b31e1e530e46487&#45;&gt;dir_fd773920032524e4bfcd78f5916cd097</title>
<path fill="none" stroke="black" d="M338.43,-287.98C328.19,-278.56 316.92,-265.96 311,-252 292.26,-207.77 284.07,-186.21 307,-144 345.99,-72.23 443.34,-39.84 499.08,-26.76"/>
<polygon fill="black" stroke="black" points="500,-30.14 508.99,-24.54 498.46,-23.31 500,-30.14"/>
<g id="a_edge21&#45;headlabel"><a xlink:href="dir_000029_000033.html" target="_top" xlink:title="1">
<text text-anchor="middle" x="497.11" y="-31.2" font-family="Helvetica,sans-Serif" font-size="10.00">1</text>
</a>
</g>
</g>
<!-- dir_1670a14e30757f4c1b31e1e530e46487&#45;&gt;dir_b7264726bdfa508dc9a1f79664d9f9a2 -->
<g id="edge23" class="edge">
<title>dir_1670a14e30757f4c1b31e1e530e46487&#45;&gt;dir_b7264726bdfa508dc9a1f79664d9f9a2</title>
<path fill="none" stroke="black" d="M366.75,-324.28C377.78,-350.09 402.17,-398.31 439,-423 464.33,-439.99 498.66,-446.17 524.62,-448.29"/>
<polygon fill="black" stroke="black" points="524.61,-451.8 534.82,-448.95 525.07,-444.81 524.61,-451.8"/>
<g id="a_edge23&#45;headlabel"><a xlink:href="dir_000029_000007.html" target="_top" xlink:title="26">
<text text-anchor="middle" x="520.84" y="-451.9" font-family="Helvetica,sans-Serif" font-size="10.00">26</text>
</a>
</g>
</g>
<!-- dir_1670a14e30757f4c1b31e1e530e46487&#45;&gt;dir_5646c4a3c156db227fe899778b3c4cdf -->
<g id="edge24" class="edge">
<title>dir_1670a14e30757f4c1b31e1e530e46487&#45;&gt;dir_5646c4a3c156db227fe899778b3c4cdf</title>
<path fill="none" stroke="black" d="M378.94,-287.87C401.42,-268.27 440.69,-236.28 479,-216 516.88,-195.95 563.9,-181.06 595.95,-172.25"/>
<polygon fill="black" stroke="black" points="597.05,-175.58 605.8,-169.61 595.24,-168.82 597.05,-175.58"/>
<g id="a_edge24&#45;headlabel"><a xlink:href="dir_000029_000002.html" target="_top" xlink:title="10">
<text text-anchor="middle" x="594.32" y="-176.75" font-family="Helvetica,sans-Serif" font-size="10.00">10</text>
</a>
</g>
</g>
<!-- dir_1670a14e30757f4c1b31e1e530e46487&#45;&gt;dir_89a2a0f8e65887f6f5e7f07c9ce97f37 -->
<g id="edge25" class="edge">
<title>dir_1670a14e30757f4c1b31e1e530e46487&#45;&gt;dir_89a2a0f8e65887f6f5e7f07c9ce97f37</title>
<path fill="none" stroke="black" d="M388.34,-320.9C405.29,-330.43 426.73,-343.31 444.1,-354.32"/>
<polygon fill="black" stroke="black" points="442.46,-357.42 452.76,-359.88 446.24,-351.53 442.46,-357.42"/>
<g id="a_edge25&#45;headlabel"><a xlink:href="dir_000029_000019.html" target="_top" xlink:title="15">
<text text-anchor="middle" x="437.9" y="-355.37" font-family="Helvetica,sans-Serif" font-size="10.00">15</text>
</a>
</g>
</g>
<!-- dir_1670a14e30757f4c1b31e1e530e46487&#45;&gt;dir_38c79c2c60b3a2288bf5bca92c333acf -->
<g id="edge26" class="edge">
<title>dir_1670a14e30757f4c1b31e1e530e46487&#45;&gt;dir_38c79c2c60b3a2288bf5bca92c333acf</title>
<path fill="none" stroke="black" d="M345.25,-287.63C337.91,-277.85 329.81,-265.01 326,-252 312.5,-205.94 299.33,-183.91 326,-144 346.08,-113.95 386.7,-100.91 416.82,-95.28"/>
<polygon fill="black" stroke="black" points="417.7,-98.68 426.98,-93.57 416.54,-91.77 417.7,-98.68"/>
<g id="a_edge26&#45;headlabel"><a xlink:href="dir_000029_000030.html" target="_top" xlink:title="2">
<text text-anchor="middle" x="414.62" y="-99.57" font-family="Helvetica,sans-Serif" font-size="10.00">2</text>
</a>
</g>
</g>
<!-- dir_b7264726bdfa508dc9a1f79664d9f9a2&#45;&gt;dir_00cea25d4360966f2fbb8df56cdad836 -->
<g id="edge36" class="edge">
<title>dir_b7264726bdfa508dc9a1f79664d9f9a2&#45;&gt;dir_00cea25d4360966f2fbb8df56cdad836</title>
<path fill="none" stroke="black" d="M546.64,-468.1C536.54,-476.97 523.08,-487.94 510.51,-497.59"/>
<polygon fill="black" stroke="black" points="508.29,-494.88 502.42,-503.7 512.51,-500.46 508.29,-494.88"/>
<g id="a_edge36&#45;headlabel"><a xlink:href="dir_000007_000045.html" target="_top" xlink:title="5">
<text text-anchor="middle" x="509.45" y="-487.94" font-family="Helvetica,sans-Serif" font-size="10.00">5</text>
</a>
</g>
</g>
<!-- dir_b7264726bdfa508dc9a1f79664d9f9a2&#45;&gt;dir_3731137dd4cde3a8f32b6960f0d2e696 -->
<g id="edge37" class="edge">
<title>dir_b7264726bdfa508dc9a1f79664d9f9a2&#45;&gt;dir_3731137dd4cde3a8f32b6960f0d2e696</title>
<path fill="none" stroke="black" d="M554.36,-431.85C542.69,-394.83 523.17,-307.18 516.32,-262.39"/>
<polygon fill="black" stroke="black" points="519.75,-261.65 514.9,-252.23 512.82,-262.62 519.75,-261.65"/>
<g id="a_edge37&#45;headlabel"><a xlink:href="dir_000007_000010.html" target="_top" xlink:title="1">
<text text-anchor="middle" x="523.06" y="-262.32" font-family="Helvetica,sans-Serif" font-size="10.00">1</text>
</a>
</g>
</g>
<!-- dir_b7264726bdfa508dc9a1f79664d9f9a2&#45;&gt;dir_014c721151abc8438874b072d5fa83c2 -->
<g id="edge38" class="edge">
<title>dir_b7264726bdfa508dc9a1f79664d9f9a2&#45;&gt;dir_014c721151abc8438874b072d5fa83c2</title>
<path fill="none" stroke="black" d="M589.2,-447.28C657.53,-441.47 830,-416.16 830,-307 830,-307 830,-307 830,-233 830,-140.88 698.49,-107.49 632.12,-96.24"/>
<polygon fill="black" stroke="black" points="632.49,-92.75 622.06,-94.62 631.38,-99.67 632.49,-92.75"/>
<g id="a_edge38&#45;headlabel"><a xlink:href="dir_000007_000012.html" target="_top" xlink:title="81">
<text text-anchor="middle" x="636.49" y="-88.02" font-family="Helvetica,sans-Serif" font-size="10.00">81</text>
</a>
</g>
</g>
<!-- dir_b7264726bdfa508dc9a1f79664d9f9a2&#45;&gt;dir_fd773920032524e4bfcd78f5916cd097 -->
<g id="edge39" class="edge">
<title>dir_b7264726bdfa508dc9a1f79664d9f9a2&#45;&gt;dir_fd773920032524e4bfcd78f5916cd097</title>
<path fill="none" stroke="black" d="M589.04,-448.35C641.4,-446.75 753.68,-441.3 788,-423 847.56,-391.25 886,-374.49 886,-307 886,-307 886,-307 886,-161 886,-95.17 672.87,-46.1 581.08,-27.34"/>
<polygon fill="black" stroke="black" points="581.52,-23.86 571.03,-25.31 580.13,-30.72 581.52,-23.86"/>
<g id="a_edge39&#45;headlabel"><a xlink:href="dir_000007_000033.html" target="_top" xlink:title="6">
<text text-anchor="middle" x="585.61" y="-19.29" font-family="Helvetica,sans-Serif" font-size="10.00">6</text>
</a>
</g>
</g>
<!-- dir_b7264726bdfa508dc9a1f79664d9f9a2&#45;&gt;dir_5646c4a3c156db227fe899778b3c4cdf -->
<g id="edge40" class="edge">
<title>dir_b7264726bdfa508dc9a1f79664d9f9a2&#45;&gt;dir_5646c4a3c156db227fe899778b3c4cdf</title>
<path fill="none" stroke="black" d="M583.59,-431.88C586.41,-429.23 589,-426.27 591,-423 636.42,-348.67 632.36,-240.1 631.19,-190.08"/>
<polygon fill="black" stroke="black" points="634.69,-189.98 631,-180.05 627.69,-190.11 634.69,-189.98"/>
<g id="a_edge40&#45;headlabel"><a xlink:href="dir_000007_000002.html" target="_top" xlink:title="56">
<text text-anchor="middle" x="637.6" y="-191.02" font-family="Helvetica,sans-Serif" font-size="10.00">56</text>
</a>
</g>
</g>
<!-- dir_b7264726bdfa508dc9a1f79664d9f9a2&#45;&gt;dir_89a2a0f8e65887f6f5e7f07c9ce97f37 -->
<g id="edge41" class="edge">
<title>dir_b7264726bdfa508dc9a1f79664d9f9a2&#45;&gt;dir_89a2a0f8e65887f6f5e7f07c9ce97f37</title>
<path fill="none" stroke="black" d="M534.84,-435.47C528.42,-431.79 521.76,-427.54 516,-423 508.81,-417.33 501.73,-410.38 495.54,-403.7"/>
<polygon fill="black" stroke="black" points="497.99,-401.19 488.72,-396.06 492.77,-405.85 497.99,-401.19"/>
<g id="a_edge41&#45;headlabel"><a xlink:href="dir_000007_000019.html" target="_top" xlink:title="7">
<text text-anchor="middle" x="502.5" y="-399.48" font-family="Helvetica,sans-Serif" font-size="10.00">7</text>
</a>
</g>
</g>
<!-- dir_5646c4a3c156db227fe899778b3c4cdf&#45;&gt;dir_00cea25d4360966f2fbb8df56cdad836 -->
<g id="edge42" class="edge">
<title>dir_5646c4a3c156db227fe899778b3c4cdf&#45;&gt;dir_00cea25d4360966f2fbb8df56cdad836</title>
<path fill="none" stroke="black" d="M660.22,-171.71C705.86,-189.76 792,-235.43 792,-305 792,-379 792,-379 792,-379 792,-499.13 596.37,-517.97 512.38,-520.67"/>
<polygon fill="black" stroke="black" points="512.14,-517.18 502.24,-520.94 512.32,-524.18 512.14,-517.18"/>
<g id="a_edge42&#45;headlabel"><a xlink:href="dir_000002_000045.html" target="_top" xlink:title="2">
<text text-anchor="middle" x="515.66" y="-511.75" font-family="Helvetica,sans-Serif" font-size="10.00">2</text>
</a>
</g>
</g>
<!-- dir_5646c4a3c156db227fe899778b3c4cdf&#45;&gt;dir_014c721151abc8438874b072d5fa83c2 -->
<g id="edge43" class="edge">
<title>dir_5646c4a3c156db227fe899778b3c4cdf&#45;&gt;dir_014c721151abc8438874b072d5fa83c2</title>
<path fill="none" stroke="black" d="M617.69,-143.7C612.54,-135.73 607.1,-126.1 602.7,-117.26"/>
<polygon fill="black" stroke="black" points="605.81,-115.66 598.39,-108.1 599.48,-118.64 605.81,-115.66"/>
<g id="a_edge43&#45;headlabel"><a xlink:href="dir_000002_000012.html" target="_top" xlink:title="2">
<text text-anchor="middle" x="609.91" y="-115.21" font-family="Helvetica,sans-Serif" font-size="10.00">2</text>
</a>
</g>
</g>
<!-- dir_5646c4a3c156db227fe899778b3c4cdf&#45;&gt;dir_b7264726bdfa508dc9a1f79664d9f9a2 -->
<g id="edge44" class="edge">
<title>dir_5646c4a3c156db227fe899778b3c4cdf&#45;&gt;dir_b7264726bdfa508dc9a1f79664d9f9a2</title>
<path fill="none" stroke="black" d="M639.69,-180.05C649.5,-223.98 657.75,-343.21 609,-423 606.19,-427.6 602.22,-431.59 597.73,-434.96"/>
<polygon fill="black" stroke="black" points="595.79,-432.04 589.23,-440.36 599.54,-437.95 595.79,-432.04"/>
<g id="a_edge44&#45;headlabel"><a xlink:href="dir_000002_000007.html" target="_top" xlink:title="38">
<text text-anchor="middle" x="597.3" y="-425.22" font-family="Helvetica,sans-Serif" font-size="10.00">38</text>
</a>
</g>
</g>
<!-- dir_5646c4a3c156db227fe899778b3c4cdf&#45;&gt;dir_89a2a0f8e65887f6f5e7f07c9ce97f37 -->
<g id="edge45" class="edge">
<title>dir_5646c4a3c156db227fe899778b3c4cdf&#45;&gt;dir_89a2a0f8e65887f6f5e7f07c9ce97f37</title>
<path fill="none" stroke="black" d="M624.16,-180.23C599.9,-217.95 533.66,-307.96 498.03,-351.94"/>
<polygon fill="black" stroke="black" points="495.18,-349.9 491.54,-359.85 500.59,-354.34 495.18,-349.9"/>
<g id="a_edge45&#45;headlabel"><a xlink:href="dir_000002_000019.html" target="_top" xlink:title="15">
<text text-anchor="middle" x="495.27" y="-342.82" font-family="Helvetica,sans-Serif" font-size="10.00">15</text>
</a>
</g>
</g>
<!-- dir_5646c4a3c156db227fe899778b3c4cdf&#45;&gt;dir_38c79c2c60b3a2288bf5bca92c333acf -->
<g id="edge46" class="edge">
<title>dir_5646c4a3c156db227fe899778b3c4cdf&#45;&gt;dir_38c79c2c60b3a2288bf5bca92c333acf</title>
<path fill="none" stroke="black" d="M605.66,-152.13C574.85,-140.98 524.92,-121.61 490.75,-107.66"/>
<polygon fill="black" stroke="black" points="491.71,-104.27 481.13,-103.7 489.05,-110.74 491.71,-104.27"/>
<g id="a_edge46&#45;headlabel"><a xlink:href="dir_000002_000030.html" target="_top" xlink:title="2">
<text text-anchor="middle" x="496.12" y="-100.51" font-family="Helvetica,sans-Serif" font-size="10.00">2</text>
</a>
</g>
</g>
<!-- dir_89a2a0f8e65887f6f5e7f07c9ce97f37&#45;&gt;dir_00cea25d4360966f2fbb8df56cdad836 -->
<g id="edge47" class="edge">
<title>dir_89a2a0f8e65887f6f5e7f07c9ce97f37&#45;&gt;dir_00cea25d4360966f2fbb8df56cdad836</title>
<path fill="none" stroke="black" d="M479.59,-396.19C482.15,-420.42 482.43,-464.89 480.45,-493.68"/>
<polygon fill="black" stroke="black" points="476.95,-493.61 479.58,-503.87 483.92,-494.21 476.95,-493.61"/>
<g id="a_edge47&#45;headlabel"><a xlink:href="dir_000019_000045.html" target="_top" xlink:title="8">
<text text-anchor="middle" x="474.42" y="-487.29" font-family="Helvetica,sans-Serif" font-size="10.00">8</text>
</a>
</g>
</g>
<!-- dir_89a2a0f8e65887f6f5e7f07c9ce97f37&#45;&gt;dir_1670a14e30757f4c1b31e1e530e46487 -->
<g id="edge48" class="edge">
<title>dir_89a2a0f8e65887f6f5e7f07c9ce97f37&#45;&gt;dir_1670a14e30757f4c1b31e1e530e46487</title>
<path fill="none" stroke="black" d="M447.96,-363.83C430.85,-354.26 408.83,-341.05 391.04,-329.77"/>
<polygon fill="black" stroke="black" points="392.48,-326.53 382.17,-324.08 388.7,-332.43 392.48,-326.53"/>
<g id="a_edge48&#45;headlabel"><a xlink:href="dir_000019_000029.html" target="_top" xlink:title="1">
<text text-anchor="middle" x="397.04" y="-323.59" font-family="Helvetica,sans-Serif" font-size="10.00">1</text>
</a>
</g>
</g>
<!-- dir_89a2a0f8e65887f6f5e7f07c9ce97f37&#45;&gt;dir_5646c4a3c156db227fe899778b3c4cdf -->
<g id="edge49" class="edge">
<title>dir_89a2a0f8e65887f6f5e7f07c9ce97f37&#45;&gt;dir_5646c4a3c156db227fe899778b3c4cdf</title>
<path fill="none" stroke="black" d="M483.79,-359.85C507.98,-322.21 574.21,-232.2 609.89,-188.15"/>
<polygon fill="black" stroke="black" points="612.75,-190.18 616.39,-180.23 607.34,-185.74 612.75,-190.18"/>
<g id="a_edge49&#45;headlabel"><a xlink:href="dir_000019_000002.html" target="_top" xlink:title="8">
<text text-anchor="middle" x="612.67" y="-192.26" font-family="Helvetica,sans-Serif" font-size="10.00">8</text>
</a>
</g>
</g>
<!-- dir_38c79c2c60b3a2288bf5bca92c333acf&#45;&gt;dir_636445051267db0da9873ee5fca752ef -->
<g id="edge52" class="edge">
<title>dir_38c79c2c60b3a2288bf5bca92c333acf&#45;&gt;dir_636445051267db0da9873ee5fca752ef</title>
<path fill="none" stroke="black" d="M426.77,-96.54C410.33,-99.88 388.97,-104.2 370,-108 289.15,-124.18 243.79,-83.28 188,-144 133.81,-202.98 153.52,-256.73 197,-324 205.39,-336.99 218.11,-348.06 230.35,-356.68"/>
<polygon fill="black" stroke="black" points="228.42,-359.6 238.68,-362.24 232.31,-353.78 228.42,-359.6"/>
<g id="a_edge52&#45;headlabel"><a xlink:href="dir_000030_000047.html" target="_top" xlink:title="2">
<text text-anchor="middle" x="223.86" y="-357.47" font-family="Helvetica,sans-Serif" font-size="10.00">2</text>
</a>
</g>
</g>
<!-- dir_38c79c2c60b3a2288bf5bca92c333acf&#45;&gt;dir_00cea25d4360966f2fbb8df56cdad836 -->
<g id="edge50" class="edge">
<title>dir_38c79c2c60b3a2288bf5bca92c333acf&#45;&gt;dir_00cea25d4360966f2fbb8df56cdad836</title>
<path fill="none" stroke="black" d="M426.9,-91.86C373.65,-94.39 252.5,-104.42 160,-144 98.29,-170.4 38,-165.88 38,-233 38,-379 38,-379 38,-379 38,-462.78 332.17,-504.67 437.8,-517.01"/>
<polygon fill="black" stroke="black" points="437.66,-520.52 447.99,-518.18 438.46,-513.57 437.66,-520.52"/>
<g id="a_edge50&#45;headlabel"><a xlink:href="dir_000030_000045.html" target="_top" xlink:title="1">
<text text-anchor="middle" x="433.77" y="-520.43" font-family="Helvetica,sans-Serif" font-size="10.00">1</text>
</a>
</g>
</g>
<!-- dir_38c79c2c60b3a2288bf5bca92c333acf&#45;&gt;dir_fd773920032524e4bfcd78f5916cd097 -->
<g id="edge51" class="edge">
<title>dir_38c79c2c60b3a2288bf5bca92c333acf&#45;&gt;dir_fd773920032524e4bfcd78f5916cd097</title>
<path fill="none" stroke="black" d="M475.26,-71.7C486.09,-62.88 499.42,-52.03 511.16,-42.47"/>
<polygon fill="black" stroke="black" points="513.44,-45.13 518.99,-36.1 509.02,-39.7 513.44,-45.13"/>
<g id="a_edge51&#45;headlabel"><a xlink:href="dir_000030_000033.html" target="_top" xlink:title="1">
<text text-anchor="middle" x="512.44" y="-47.1" font-family="Helvetica,sans-Serif" font-size="10.00">1</text>
</a>
</g>
</g>
<!-- dir_38c79c2c60b3a2288bf5bca92c333acf&#45;&gt;dir_b7264726bdfa508dc9a1f79664d9f9a2 -->
<g id="edge53" class="edge">
<title>dir_38c79c2c60b3a2288bf5bca92c333acf&#45;&gt;dir_b7264726bdfa508dc9a1f79664d9f9a2</title>
<path fill="none" stroke="black" d="M472.1,-108.11C494.62,-130.57 532.36,-172.29 551,-216 586.01,-298.12 586.35,-329.68 570.56,-421.85"/>
<polygon fill="black" stroke="black" points="567.08,-421.42 568.83,-431.87 573.98,-422.61 567.08,-421.42"/>
<g id="a_edge53&#45;headlabel"><a xlink:href="dir_000030_000007.html" target="_top" xlink:title="3">
<text text-anchor="middle" x="564.9" y="-414.89" font-family="Helvetica,sans-Serif" font-size="10.00">3</text>
</a>
</g>
</g>
<!-- dir_38c79c2c60b3a2288bf5bca92c333acf&#45;&gt;dir_5646c4a3c156db227fe899778b3c4cdf -->
<g id="edge54" class="edge">
<title>dir_38c79c2c60b3a2288bf5bca92c333acf&#45;&gt;dir_5646c4a3c156db227fe899778b3c4cdf</title>
<path fill="none" stroke="black" d="M481.21,-99.82C512.02,-110.96 562.07,-130.38 596.29,-144.36"/>
<polygon fill="black" stroke="black" points="595.35,-147.75 605.92,-148.32 598.01,-141.28 595.35,-147.75"/>
<g id="a_edge54&#45;headlabel"><a xlink:href="dir_000030_000002.html" target="_top" xlink:title="2">
<text text-anchor="middle" x="590.94" y="-146.51" font-family="Helvetica,sans-Serif" font-size="10.00">2</text>
</a>
</g>
</g>
<!-- dir_38c79c2c60b3a2288bf5bca92c333acf&#45;&gt;dir_89a2a0f8e65887f6f5e7f07c9ce97f37 -->
<g id="edge55" class="edge">
<title>dir_38c79c2c60b3a2288bf5bca92c333acf&#45;&gt;dir_89a2a0f8e65887f6f5e7f07c9ce97f37</title>
<path fill="none" stroke="black" d="M455.27,-108.31C458.8,-156.31 468.72,-291.44 473,-349.7"/>
<polygon fill="black" stroke="black" points="469.53,-350.25 473.75,-359.97 476.51,-349.74 469.53,-350.25"/>
<g id="a_edge55&#45;headlabel"><a xlink:href="dir_000030_000019.html" target="_top" xlink:title="4">
<text text-anchor="middle" x="466.43" y="-344.37" font-family="Helvetica,sans-Serif" font-size="10.00">4</text>
</a>
</g>
</g>
</g>
</svg>
