<?xml version="1.0" encoding="UTF-8" standalone="no"?>
<!DOCTYPE svg PUBLIC "-//W3C//DTD SVG 1.1//EN"
 "http://www.w3.org/Graphics/SVG/1.1/DTD/svg11.dtd">
<!-- Generated by graphviz version 2.43.0 (0)
 -->
<!-- Title: ifc Pages: 1 -->
<svg width="292pt" height="332pt"
 viewBox="0.00 0.00 291.87 332.00" xmlns="http://www.w3.org/2000/svg" xmlns:xlink="http://www.w3.org/1999/xlink">
<g id="graph0" class="graph" transform="scale(1 1) rotate(0) translate(4 328)">
<title>ifc</title>
<polygon fill="white" stroke="transparent" points="-4,4 -4,-328 287.87,-328 287.87,4 -4,4"/>
<g id="clust1" class="cluster">
<title>clusterdir_8622b0e63b7fb230ba833b193101c161</title>
<g id="a_clust1"><a xlink:href="dir_8622b0e63b7fb230ba833b193101c161.html" target="_top" xlink:title="boomerang">
<polygon fill="#ddddee" stroke="black" points="88.87,-208 88.87,-279 160.87,-279 160.87,-208 88.87,-208"/>
<text text-anchor="middle" x="124.87" y="-267" font-family="Helvetica,sans-Serif" font-size="10.00">boomerang</text>
</a>
</g>
</g>
<!-- dir_00cea25d4360966f2fbb8df56cdad836 -->
<g id="node1" class="node">
<title>dir_00cea25d4360966f2fbb8df56cdad836</title>
<g id="a_node1"><a xlink:href="dir_00cea25d4360966f2fbb8df56cdad836.html" target="_top" xlink:title="ifc">
<polygon fill="#eeeeff" stroke="black" points="151.87,-252 97.87,-252 97.87,-216 151.87,-216 151.87,-252"/>
<text text-anchor="middle" x="124.87" y="-231.5" font-family="Helvetica,sans-Serif" font-size="10.00">ifc</text>
</a>
</g>
</g>
<!-- dir_cacbc0f8d661c3f2ef6995c140cb013b -->
<g id="node2" class="node">
<title>dir_cacbc0f8d661c3f2ef6995c140cb013b</title>
<g id="a_node2"><a xlink:href="dir_cacbc0f8d661c3f2ef6995c140cb013b.html" target="_top" xlink:title="db">
<polygon fill="white" stroke="red" points="151.87,-324 97.87,-324 97.87,-288 151.87,-288 151.87,-324"/>
<text text-anchor="middle" x="124.87" y="-303.5" font-family="Helvetica,sans-Serif" font-size="10.00">db</text>
</a>
</g>
</g>
<!-- dir_00cea25d4360966f2fbb8df56cdad836&#45;&gt;dir_cacbc0f8d661c3f2ef6995c140cb013b -->
<g id="edge5" class="edge">
<title>dir_00cea25d4360966f2fbb8df56cdad836&#45;&gt;dir_cacbc0f8d661c3f2ef6995c140cb013b</title>
<path fill="none" stroke="black" d="M124.87,-252.1C124.87,-259.79 124.87,-269.05 124.87,-277.67"/>
<polygon fill="black" stroke="black" points="121.37,-277.7 124.87,-287.7 128.37,-277.7 121.37,-277.7"/>
<g id="a_edge5&#45;headlabel"><a xlink:href="dir_000045_000014.html" target="_top" xlink:title="2">
<text text-anchor="middle" x="118.53" y="-271.6" font-family="Helvetica,sans-Serif" font-size="10.00">2</text>
</a>
</g>
</g>
<!-- dir_b7264726bdfa508dc9a1f79664d9f9a2 -->
<g id="node3" class="node">
<title>dir_b7264726bdfa508dc9a1f79664d9f9a2</title>
<g id="a_node3"><a xlink:href="dir_b7264726bdfa508dc9a1f79664d9f9a2.html" target="_top" xlink:title="ssl">
<polygon fill="white" stroke="red" points="87.87,-180 33.87,-180 33.87,-144 87.87,-144 87.87,-180"/>
<text text-anchor="middle" x="60.87" y="-159.5" font-family="Helvetica,sans-Serif" font-size="10.00">ssl</text>
</a>
</g>
</g>
<!-- dir_00cea25d4360966f2fbb8df56cdad836&#45;&gt;dir_b7264726bdfa508dc9a1f79664d9f9a2 -->
<g id="edge6" class="edge">
<title>dir_00cea25d4360966f2fbb8df56cdad836&#45;&gt;dir_b7264726bdfa508dc9a1f79664d9f9a2</title>
<path fill="none" stroke="black" d="M109.05,-215.7C101.3,-207.22 91.83,-196.86 83.34,-187.58"/>
<polygon fill="black" stroke="black" points="85.84,-185.12 76.51,-180.1 80.67,-189.85 85.84,-185.12"/>
<g id="a_edge6&#45;headlabel"><a xlink:href="dir_000045_000007.html" target="_top" xlink:title="2">
<text text-anchor="middle" x="90.36" y="-183.36" font-family="Helvetica,sans-Serif" font-size="10.00">2</text>
</a>
</g>
</g>
<!-- dir_5646c4a3c156db227fe899778b3c4cdf -->
<g id="node4" class="node">
<title>dir_5646c4a3c156db227fe899778b3c4cdf</title>
<g id="a_node4"><a xlink:href="dir_5646c4a3c156db227fe899778b3c4cdf.html" target="_top" xlink:title="util">
<polygon fill="white" stroke="red" points="87.87,-36 33.87,-36 33.87,0 87.87,0 87.87,-36"/>
<text text-anchor="middle" x="60.87" y="-15.5" font-family="Helvetica,sans-Serif" font-size="10.00">util</text>
</a>
</g>
</g>
<!-- dir_00cea25d4360966f2fbb8df56cdad836&#45;&gt;dir_5646c4a3c156db227fe899778b3c4cdf -->
<g id="edge7" class="edge">
<title>dir_00cea25d4360966f2fbb8df56cdad836&#45;&gt;dir_5646c4a3c156db227fe899778b3c4cdf</title>
<path fill="none" stroke="black" d="M97.79,-226.95C73.92,-220.02 40.57,-206.1 24.87,-180 -0.78,-137.38 24.94,-78.49 44.14,-45.02"/>
<polygon fill="black" stroke="black" points="47.23,-46.67 49.33,-36.29 41.21,-43.09 47.23,-46.67"/>
<g id="a_edge7&#45;headlabel"><a xlink:href="dir_000045_000002.html" target="_top" xlink:title="1">
<text text-anchor="middle" x="47.83" y="-48.71" font-family="Helvetica,sans-Serif" font-size="10.00">1</text>
</a>
</g>
</g>
<!-- dir_89a2a0f8e65887f6f5e7f07c9ce97f37 -->
<g id="node5" class="node">
<title>dir_89a2a0f8e65887f6f5e7f07c9ce97f37</title>
<g id="a_node5"><a xlink:href="dir_89a2a0f8e65887f6f5e7f07c9ce97f37.html" target="_top" xlink:title="core">
<polygon fill="white" stroke="red" points="166.87,-108 112.87,-108 112.87,-72 166.87,-72 166.87,-108"/>
<text text-anchor="middle" x="139.87" y="-87.5" font-family="Helvetica,sans-Serif" font-size="10.00">core</text>
</a>
</g>
</g>
<!-- dir_00cea25d4360966f2fbb8df56cdad836&#45;&gt;dir_89a2a0f8e65887f6f5e7f07c9ce97f37 -->
<g id="edge8" class="edge">
<title>dir_00cea25d4360966f2fbb8df56cdad836&#45;&gt;dir_89a2a0f8e65887f6f5e7f07c9ce97f37</title>
<path fill="none" stroke="black" d="M126.68,-215.87C129.23,-191.67 133.93,-147.21 136.97,-118.39"/>
<polygon fill="black" stroke="black" points="140.48,-118.5 138.05,-108.19 133.52,-117.77 140.48,-118.5"/>
<g id="a_edge8&#45;headlabel"><a xlink:href="dir_000045_000019.html" target="_top" xlink:title="3">
<text text-anchor="middle" x="142.93" y="-119.87" font-family="Helvetica,sans-Serif" font-size="10.00">3</text>
</a>
</g>
</g>
<!-- dir_aac219575a8964e652fd39152cd8590e -->
<g id="node6" class="node">
<title>dir_aac219575a8964e652fd39152cd8590e</title>
<g id="a_node6"><a xlink:href="dir_aac219575a8964e652fd39152cd8590e.html" target="_top" xlink:title="frontend">
<polygon fill="none" stroke="black" points="283.87,-252 225.87,-252 225.87,-216 283.87,-216 283.87,-252"/>
<text text-anchor="middle" x="254.87" y="-231.5" font-family="Helvetica,sans-Serif" font-size="10.00">frontend</text>
</a>
</g>
</g>
<!-- dir_00cea25d4360966f2fbb8df56cdad836&#45;&gt;dir_aac219575a8964e652fd39152cd8590e -->
<g id="edge9" class="edge">
<title>dir_00cea25d4360966f2fbb8df56cdad836&#45;&gt;dir_aac219575a8964e652fd39152cd8590e</title>
<path fill="none" stroke="black" d="M152.04,-234C173.19,-234 194.34,-234 215.5,-234"/>
<polygon fill="black" stroke="black" points="215.55,-237.5 225.55,-234 215.55,-230.5 215.55,-237.5"/>
<g id="a_edge9&#45;headlabel"><a xlink:href="dir_000045_000035.html" target="_top" xlink:title="2">
<text text-anchor="middle" x="211.95" y="-237.84" font-family="Helvetica,sans-Serif" font-size="10.00">2</text>
</a>
</g>
</g>
<!-- dir_cacbc0f8d661c3f2ef6995c140cb013b&#45;&gt;dir_b7264726bdfa508dc9a1f79664d9f9a2 -->
<g id="edge1" class="edge">
<title>dir_cacbc0f8d661c3f2ef6995c140cb013b&#45;&gt;dir_b7264726bdfa508dc9a1f79664d9f9a2</title>
<path fill="none" stroke="black" d="M97.86,-296.85C89.41,-292.59 81.1,-286.66 75.87,-279 57.88,-252.67 52.88,-215.68 53.73,-190.6"/>
<polygon fill="black" stroke="black" points="57.24,-190.55 54.47,-180.33 50.26,-190.05 57.24,-190.55"/>
<g id="a_edge1&#45;headlabel"><a xlink:href="dir_000014_000007.html" target="_top" xlink:title="122">
<text text-anchor="middle" x="59.82" y="-191.84" font-family="Helvetica,sans-Serif" font-size="10.00">122</text>
</a>
</g>
</g>
<!-- dir_cacbc0f8d661c3f2ef6995c140cb013b&#45;&gt;dir_5646c4a3c156db227fe899778b3c4cdf -->
<g id="edge2" class="edge">
<title>dir_cacbc0f8d661c3f2ef6995c140cb013b&#45;&gt;dir_5646c4a3c156db227fe899778b3c4cdf</title>
<path fill="none" stroke="black" d="M97.76,-301.27C81.87,-297.68 62.79,-290.97 49.87,-279 14,-245.77 12.81,-227.66 1.87,-180 -2.79,-159.69 2.75,-79.7 5.87,-72 10.33,-61 18.06,-50.69 26.42,-42.14"/>
<polygon fill="black" stroke="black" points="29,-44.53 33.86,-35.11 24.19,-39.44 29,-44.53"/>
<g id="a_edge2&#45;headlabel"><a xlink:href="dir_000014_000002.html" target="_top" xlink:title="55">
<text text-anchor="middle" x="28.33" y="-46.56" font-family="Helvetica,sans-Serif" font-size="10.00">55</text>
</a>
</g>
</g>
<!-- dir_cacbc0f8d661c3f2ef6995c140cb013b&#45;&gt;dir_89a2a0f8e65887f6f5e7f07c9ce97f37 -->
<g id="edge3" class="edge">
<title>dir_cacbc0f8d661c3f2ef6995c140cb013b&#45;&gt;dir_89a2a0f8e65887f6f5e7f07c9ce97f37</title>
<path fill="none" stroke="black" d="M148.84,-287.98C151.6,-285.33 154.05,-282.35 155.87,-279 183.93,-227.29 160.64,-156.16 147.07,-117.93"/>
<polygon fill="black" stroke="black" points="150.2,-116.3 143.55,-108.06 143.61,-118.65 150.2,-116.3"/>
<g id="a_edge3&#45;headlabel"><a xlink:href="dir_000014_000019.html" target="_top" xlink:title="14">
<text text-anchor="middle" x="154.09" y="-116.23" font-family="Helvetica,sans-Serif" font-size="10.00">14</text>
</a>
</g>
</g>
<!-- dir_cacbc0f8d661c3f2ef6995c140cb013b&#45;&gt;dir_aac219575a8964e652fd39152cd8590e -->
<g id="edge4" class="edge">
<title>dir_cacbc0f8d661c3f2ef6995c140cb013b&#45;&gt;dir_aac219575a8964e652fd39152cd8590e</title>
<path fill="none" stroke="black" d="M152.26,-298.66C167.89,-294.68 187.22,-288.46 202.87,-279 211.33,-273.89 219.29,-266.72 226.43,-259.66"/>
<polygon fill="black" stroke="black" points="229.32,-261.71 233.85,-252.13 224.34,-256.8 229.32,-261.71"/>
<g id="a_edge4&#45;headlabel"><a xlink:href="dir_000014_000035.html" target="_top" xlink:title="2">
<text text-anchor="middle" x="228.82" y="-263.76" font-family="Helvetica,sans-Serif" font-size="10.00">2</text>
</a>
</g>
</g>
<!-- dir_b7264726bdfa508dc9a1f79664d9f9a2&#45;&gt;dir_cacbc0f8d661c3f2ef6995c140cb013b -->
<g id="edge10" class="edge">
<title>dir_b7264726bdfa508dc9a1f79664d9f9a2&#45;&gt;dir_cacbc0f8d661c3f2ef6995c140cb013b</title>
<path fill="none" stroke="black" d="M66.42,-180.33C69.68,-204.5 73.22,-248.77 93.87,-279 94.22,-279.51 94.58,-280.02 94.96,-280.52"/>
<polygon fill="black" stroke="black" points="92.53,-283.04 101.94,-287.9 97.61,-278.23 92.53,-283.04"/>
<g id="a_edge10&#45;headlabel"><a xlink:href="dir_000007_000014.html" target="_top" xlink:title="35">
<text text-anchor="middle" x="88" y="-279.88" font-family="Helvetica,sans-Serif" font-size="10.00">35</text>
</a>
</g>
</g>
<!-- dir_b7264726bdfa508dc9a1f79664d9f9a2&#45;&gt;dir_5646c4a3c156db227fe899778b3c4cdf -->
<g id="edge11" class="edge">
<title>dir_b7264726bdfa508dc9a1f79664d9f9a2&#45;&gt;dir_5646c4a3c156db227fe899778b3c4cdf</title>
<path fill="none" stroke="black" d="M56.28,-143.87C53.73,-119.67 53.43,-75.21 55.41,-46.39"/>
<polygon fill="black" stroke="black" points="58.92,-46.45 56.28,-36.19 51.94,-45.86 58.92,-46.45"/>
<g id="a_edge11&#45;headlabel"><a xlink:href="dir_000007_000002.html" target="_top" xlink:title="56">
<text text-anchor="middle" x="61.44" y="-47.77" font-family="Helvetica,sans-Serif" font-size="10.00">56</text>
</a>
</g>
</g>
<!-- dir_b7264726bdfa508dc9a1f79664d9f9a2&#45;&gt;dir_89a2a0f8e65887f6f5e7f07c9ce97f37 -->
<g id="edge12" class="edge">
<title>dir_b7264726bdfa508dc9a1f79664d9f9a2&#45;&gt;dir_89a2a0f8e65887f6f5e7f07c9ce97f37</title>
<path fill="none" stroke="black" d="M80.4,-143.7C90.25,-134.97 102.35,-124.24 113.06,-114.75"/>
<polygon fill="black" stroke="black" points="115.4,-117.36 120.56,-108.1 110.76,-112.12 115.4,-117.36"/>
<g id="a_edge12&#45;headlabel"><a xlink:href="dir_000007_000019.html" target="_top" xlink:title="7">
<text text-anchor="middle" x="114.59" y="-119.36" font-family="Helvetica,sans-Serif" font-size="10.00">7</text>
</a>
</g>
</g>
<!-- dir_5646c4a3c156db227fe899778b3c4cdf&#45;&gt;dir_cacbc0f8d661c3f2ef6995c140cb013b -->
<g id="edge13" class="edge">
<title>dir_5646c4a3c156db227fe899778b3c4cdf&#45;&gt;dir_cacbc0f8d661c3f2ef6995c140cb013b</title>
<path fill="none" stroke="black" d="M48.87,-36.04C40.16,-45.54 29.45,-58.22 23.87,-72 20.75,-79.7 15.21,-159.69 19.87,-180 30.81,-227.66 32,-245.77 67.87,-279 73.84,-284.53 81.13,-288.94 88.5,-292.44"/>
<polygon fill="black" stroke="black" points="87.21,-295.7 97.78,-296.39 89.96,-289.26 87.21,-295.7"/>
<g id="a_edge13&#45;headlabel"><a xlink:href="dir_000002_000014.html" target="_top" xlink:title="16">
<text text-anchor="middle" x="82.79" y="-294.4" font-family="Helvetica,sans-Serif" font-size="10.00">16</text>
</a>
</g>
</g>
<!-- dir_5646c4a3c156db227fe899778b3c4cdf&#45;&gt;dir_b7264726bdfa508dc9a1f79664d9f9a2 -->
<g id="edge14" class="edge">
<title>dir_5646c4a3c156db227fe899778b3c4cdf&#45;&gt;dir_b7264726bdfa508dc9a1f79664d9f9a2</title>
<path fill="none" stroke="black" d="M65.46,-36.19C68.01,-60.42 68.3,-104.89 66.32,-133.68"/>
<polygon fill="black" stroke="black" points="62.82,-133.61 65.45,-143.87 69.79,-134.21 62.82,-133.61"/>
<g id="a_edge14&#45;headlabel"><a xlink:href="dir_000002_000007.html" target="_top" xlink:title="38">
<text text-anchor="middle" x="60.29" y="-127.29" font-family="Helvetica,sans-Serif" font-size="10.00">38</text>
</a>
</g>
</g>
<!-- dir_5646c4a3c156db227fe899778b3c4cdf&#45;&gt;dir_89a2a0f8e65887f6f5e7f07c9ce97f37 -->
<g id="edge15" class="edge">
<title>dir_5646c4a3c156db227fe899778b3c4cdf&#45;&gt;dir_89a2a0f8e65887f6f5e7f07c9ce97f37</title>
<path fill="none" stroke="black" d="M86.07,-36.1C96.69,-44.72 108.84,-55.32 118.96,-64.76"/>
<polygon fill="black" stroke="black" points="116.6,-67.34 126.26,-71.7 121.43,-62.27 116.6,-67.34"/>
<g id="a_edge15&#45;headlabel"><a xlink:href="dir_000002_000019.html" target="_top" xlink:title="15">
<text text-anchor="middle" x="112.04" y="-64.41" font-family="Helvetica,sans-Serif" font-size="10.00">15</text>
</a>
</g>
</g>
<!-- dir_89a2a0f8e65887f6f5e7f07c9ce97f37&#45;&gt;dir_00cea25d4360966f2fbb8df56cdad836 -->
<g id="edge17" class="edge">
<title>dir_89a2a0f8e65887f6f5e7f07c9ce97f37&#45;&gt;dir_00cea25d4360966f2fbb8df56cdad836</title>
<path fill="none" stroke="black" d="M141.26,-108.16C142.4,-126.15 143.31,-155.21 139.87,-180 138.69,-188.52 136.48,-197.61 134.12,-205.8"/>
<polygon fill="black" stroke="black" points="130.7,-205.01 131.11,-215.59 137.39,-207.06 130.7,-205.01"/>
<g id="a_edge17&#45;headlabel"><a xlink:href="dir_000019_000045.html" target="_top" xlink:title="8">
<text text-anchor="middle" x="129.04" y="-198.24" font-family="Helvetica,sans-Serif" font-size="10.00">8</text>
</a>
</g>
</g>
<!-- dir_89a2a0f8e65887f6f5e7f07c9ce97f37&#45;&gt;dir_cacbc0f8d661c3f2ef6995c140cb013b -->
<g id="edge16" class="edge">
<title>dir_89a2a0f8e65887f6f5e7f07c9ce97f37&#45;&gt;dir_cacbc0f8d661c3f2ef6995c140cb013b</title>
<path fill="none" stroke="black" d="M153.53,-108.06C173.8,-142.62 204.57,-222.42 173.87,-279 170.91,-284.45 166.27,-288.93 160.95,-292.55"/>
<polygon fill="black" stroke="black" points="159.15,-289.55 152.18,-297.54 162.61,-295.63 159.15,-289.55"/>
<g id="a_edge16&#45;headlabel"><a xlink:href="dir_000019_000014.html" target="_top" xlink:title="2">
<text text-anchor="middle" x="160.87" y="-282.8" font-family="Helvetica,sans-Serif" font-size="10.00">2</text>
</a>
</g>
</g>
<!-- dir_89a2a0f8e65887f6f5e7f07c9ce97f37&#45;&gt;dir_5646c4a3c156db227fe899778b3c4cdf -->
<g id="edge18" class="edge">
<title>dir_89a2a0f8e65887f6f5e7f07c9ce97f37&#45;&gt;dir_5646c4a3c156db227fe899778b3c4cdf</title>
<path fill="none" stroke="black" d="M114.42,-71.7C103.77,-63.05 91.63,-52.45 81.54,-43.03"/>
<polygon fill="black" stroke="black" points="83.93,-40.47 74.28,-36.1 79.1,-45.54 83.93,-40.47"/>
<g id="a_edge18&#45;headlabel"><a xlink:href="dir_000019_000002.html" target="_top" xlink:title="8">
<text text-anchor="middle" x="88.49" y="-38.4" font-family="Helvetica,sans-Serif" font-size="10.00">8</text>
</a>
</g>
</g>
<!-- dir_aac219575a8964e652fd39152cd8590e&#45;&gt;dir_00cea25d4360966f2fbb8df56cdad836 -->
<g id="edge20" class="edge">
<title>dir_aac219575a8964e652fd39152cd8590e&#45;&gt;dir_00cea25d4360966f2fbb8df56cdad836</title>
<path fill="none" stroke="black" d="M225.55,-234C204.39,-234 183.24,-234 162.09,-234"/>
<polygon fill="black" stroke="black" points="162.04,-230.5 152.04,-234 162.04,-237.5 162.04,-230.5"/>
<g id="a_edge20&#45;headlabel"><a xlink:href="dir_000035_000045.html" target="_top" xlink:title="2">
<text text-anchor="middle" x="165.63" y="-225.16" font-family="Helvetica,sans-Serif" font-size="10.00">2</text>
</a>
</g>
</g>
<!-- dir_aac219575a8964e652fd39152cd8590e&#45;&gt;dir_cacbc0f8d661c3f2ef6995c140cb013b -->
<g id="edge19" class="edge">
<title>dir_aac219575a8964e652fd39152cd8590e&#45;&gt;dir_cacbc0f8d661c3f2ef6995c140cb013b</title>
<path fill="none" stroke="black" d="M249.7,-252.13C242.98,-261.27 232.39,-272.04 220.87,-279 203.22,-289.66 180.9,-296.22 162.09,-300.08"/>
<polygon fill="black" stroke="black" points="161.23,-296.68 152.05,-301.95 162.52,-303.56 161.23,-296.68"/>
<g id="a_edge19&#45;headlabel"><a xlink:href="dir_000035_000014.html" target="_top" xlink:title="10">
<text text-anchor="middle" x="164.24" y="-290.73" font-family="Helvetica,sans-Serif" font-size="10.00">10</text>
</a>
</g>
</g>
<!-- dir_aac219575a8964e652fd39152cd8590e&#45;&gt;dir_b7264726bdfa508dc9a1f79664d9f9a2 -->
<g id="edge21" class="edge">
<title>dir_aac219575a8964e652fd39152cd8590e&#45;&gt;dir_b7264726bdfa508dc9a1f79664d9f9a2</title>
<path fill="none" stroke="black" d="M225.82,-222.52C191.57,-210.16 134.6,-189.6 97.39,-176.18"/>
<polygon fill="black" stroke="black" points="98.51,-172.86 87.92,-172.76 96.14,-179.45 98.51,-172.86"/>
<g id="a_edge21&#45;headlabel"><a xlink:href="dir_000035_000007.html" target="_top" xlink:title="8">
<text text-anchor="middle" x="102.86" y="-168.91" font-family="Helvetica,sans-Serif" font-size="10.00">8</text>
</a>
</g>
</g>
<!-- dir_aac219575a8964e652fd39152cd8590e&#45;&gt;dir_5646c4a3c156db227fe899778b3c4cdf -->
<g id="edge22" class="edge">
<title>dir_aac219575a8964e652fd39152cd8590e&#45;&gt;dir_5646c4a3c156db227fe899778b3c4cdf</title>
<path fill="none" stroke="black" d="M256.66,-215.72C257.84,-197.12 257.57,-167.08 246.87,-144 218.52,-82.83 143.32,-47.2 97.69,-30.56"/>
<polygon fill="black" stroke="black" points="98.75,-27.22 88.16,-27.2 96.43,-33.82 98.75,-27.22"/>
<g id="a_edge22&#45;headlabel"><a xlink:href="dir_000035_000002.html" target="_top" xlink:title="5">
<text text-anchor="middle" x="103.09" y="-23.24" font-family="Helvetica,sans-Serif" font-size="10.00">5</text>
</a>
</g>
</g>
<!-- dir_aac219575a8964e652fd39152cd8590e&#45;&gt;dir_89a2a0f8e65887f6f5e7f07c9ce97f37 -->
<g id="edge23" class="edge">
<title>dir_aac219575a8964e652fd39152cd8590e&#45;&gt;dir_89a2a0f8e65887f6f5e7f07c9ce97f37</title>
<path fill="none" stroke="black" d="M252.4,-215.96C248.88,-196.75 240.87,-165.39 223.87,-144 211.29,-128.17 192.6,-115.72 176.05,-106.87"/>
<polygon fill="black" stroke="black" points="177.62,-103.75 167.12,-102.33 174.45,-109.99 177.62,-103.75"/>
<g id="a_edge23&#45;headlabel"><a xlink:href="dir_000035_000019.html" target="_top" xlink:title="2">
<text text-anchor="middle" x="182.11" y="-100.35" font-family="Helvetica,sans-Serif" font-size="10.00">2</text>
</a>
</g>
</g>
</g>
</svg>
