<?xml version="1.0" encoding="UTF-8" standalone="no"?>
<!DOCTYPE svg PUBLIC "-//W3C//DTD SVG 1.1//EN"
 "http://www.w3.org/Graphics/SVG/1.1/DTD/svg11.dtd">
<!-- Generated by graphviz version 2.43.0 (0)
 -->
<!-- Title: decoder Pages: 1 -->
<svg width="400pt" height="159pt"
 viewBox="0.00 0.00 400.00 159.00" xmlns="http://www.w3.org/2000/svg" xmlns:xlink="http://www.w3.org/1999/xlink">
<g id="graph0" class="graph" transform="scale(1 1) rotate(0) translate(4 155)">
<title>decoder</title>
<polygon fill="white" stroke="transparent" points="-4,4 -4,-155 396,-155 396,4 -4,4"/>
<g id="clust1" class="cluster">
<title>clusterdir_673183c191e84783e502f000e39cf706</title>
<g id="a_clust1"><a xlink:href="dir_673183c191e84783e502f000e39cf706.html" target="_top" xlink:title="boomerang&#45;plugins">
<polygon fill="#ddddee" stroke="black" points="8,-56 8,-143 384,-143 384,-56 8,-56"/>
<text text-anchor="middle" x="196" y="-131" font-family="Helvetica,sans-Serif" font-size="10.00">boomerang&#45;plugins</text>
</a>
</g>
</g>
<g id="clust2" class="cluster">
<title>clusterdir_172359ee9690668144b051e2e32ba7c5</title>
<g id="a_clust2"><a xlink:href="dir_172359ee9690668144b051e2e32ba7c5.html" target="_top">
<polygon fill="#eeeeff" stroke="black" points="16,-64 16,-116 376,-116 376,-64 16,-64"/>
</a>
</g>
</g>
<!-- dir_172359ee9690668144b051e2e32ba7c5 -->
<g id="node1" class="node">
<title>dir_172359ee9690668144b051e2e32ba7c5</title>
<text text-anchor="middle" x="340" y="-87.5" font-family="Helvetica,sans-Serif" font-size="10.00">decoder</text>
</g>
<!-- dir_75c77d582816b7faca27d38f977ba4c3 -->
<g id="node2" class="node">
<title>dir_75c77d582816b7faca27d38f977ba4c3</title>
<g id="a_node2"><a xlink:href="dir_75c77d582816b7faca27d38f977ba4c3.html" target="_top" xlink:title="csx86">
<polygon fill="white" stroke="black" points="294,-108 240,-108 240,-72 294,-72 294,-108"/>
<text text-anchor="middle" x="267" y="-87.5" font-family="Helvetica,sans-Serif" font-size="10.00">csx86</text>
</a>
</g>
</g>
<!-- dir_8622b0e63b7fb230ba833b193101c161 -->
<g id="node6" class="node">
<title>dir_8622b0e63b7fb230ba833b193101c161</title>
<g id="a_node6"><a xlink:href="dir_8622b0e63b7fb230ba833b193101c161.html" target="_top" xlink:title="boomerang">
<polygon fill="white" stroke="red" points="195,-36 123,-36 123,0 195,0 195,-36"/>
<text text-anchor="middle" x="159" y="-15.5" font-family="Helvetica,sans-Serif" font-size="10.00">boomerang</text>
</a>
</g>
</g>
<!-- dir_75c77d582816b7faca27d38f977ba4c3&#45;&gt;dir_8622b0e63b7fb230ba833b193101c161 -->
<g id="edge2" class="edge">
<title>dir_75c77d582816b7faca27d38f977ba4c3&#45;&gt;dir_8622b0e63b7fb230ba833b193101c161</title>
<path fill="none" stroke="black" d="M250.22,-71.89C244.41,-66.46 237.68,-60.65 231,-56 222.7,-50.22 213.37,-44.76 204.25,-39.9"/>
<polygon fill="black" stroke="black" points="205.74,-36.73 195.24,-35.26 202.53,-42.95 205.74,-36.73"/>
<g id="a_edge2&#45;headlabel"><a xlink:href="dir_000026_000001.html" target="_top" xlink:title="16">
<text text-anchor="middle" x="210.23" y="-33.36" font-family="Helvetica,sans-Serif" font-size="10.00">16</text>
</a>
</g>
</g>
<!-- dir_af8db4a5e11b20e31508884e568b4ff6 -->
<g id="node3" class="node">
<title>dir_af8db4a5e11b20e31508884e568b4ff6</title>
<g id="a_node3"><a xlink:href="dir_af8db4a5e11b20e31508884e568b4ff6.html" target="_top" xlink:title="ppc">
<polygon fill="white" stroke="black" points="222,-108 168,-108 168,-72 222,-72 222,-108"/>
<text text-anchor="middle" x="195" y="-87.5" font-family="Helvetica,sans-Serif" font-size="10.00">ppc</text>
</a>
</g>
</g>
<!-- dir_af8db4a5e11b20e31508884e568b4ff6&#45;&gt;dir_8622b0e63b7fb230ba833b193101c161 -->
<g id="edge3" class="edge">
<title>dir_af8db4a5e11b20e31508884e568b4ff6&#45;&gt;dir_8622b0e63b7fb230ba833b193101c161</title>
<path fill="none" stroke="black" d="M186.1,-71.7C182,-63.73 177.05,-54.1 172.51,-45.26"/>
<polygon fill="black" stroke="black" points="175.48,-43.4 167.8,-36.1 169.26,-46.6 175.48,-43.4"/>
<g id="a_edge3&#45;headlabel"><a xlink:href="dir_000024_000001.html" target="_top" xlink:title="10">
<text text-anchor="middle" x="179.65" y="-42.79" font-family="Helvetica,sans-Serif" font-size="10.00">10</text>
</a>
</g>
</g>
<!-- dir_6831949fd5903f0f8f88df7357b8ff28 -->
<g id="node4" class="node">
<title>dir_6831949fd5903f0f8f88df7357b8ff28</title>
<g id="a_node4"><a xlink:href="dir_6831949fd5903f0f8f88df7357b8ff28.html" target="_top" xlink:title="sparc">
<polygon fill="white" stroke="black" points="150,-108 96,-108 96,-72 150,-72 150,-108"/>
<text text-anchor="middle" x="123" y="-87.5" font-family="Helvetica,sans-Serif" font-size="10.00">sparc</text>
</a>
</g>
</g>
<!-- dir_6831949fd5903f0f8f88df7357b8ff28&#45;&gt;dir_8622b0e63b7fb230ba833b193101c161 -->
<g id="edge4" class="edge">
<title>dir_6831949fd5903f0f8f88df7357b8ff28&#45;&gt;dir_8622b0e63b7fb230ba833b193101c161</title>
<path fill="none" stroke="black" d="M131.9,-71.7C136,-63.73 140.95,-54.1 145.49,-45.26"/>
<polygon fill="black" stroke="black" points="148.74,-46.6 150.2,-36.1 142.52,-43.4 148.74,-46.6"/>
<g id="a_edge4&#45;headlabel"><a xlink:href="dir_000025_000001.html" target="_top" xlink:title="9">
<text text-anchor="middle" x="149.62" y="-48.59" font-family="Helvetica,sans-Serif" font-size="10.00">9</text>
</a>
</g>
</g>
<!-- dir_5e95ae6b85fc488515ab26a6ffa4273c -->
<g id="node5" class="node">
<title>dir_5e95ae6b85fc488515ab26a6ffa4273c</title>
<g id="a_node5"><a xlink:href="dir_5e95ae6b85fc488515ab26a6ffa4273c.html" target="_top" xlink:title="st20">
<polygon fill="white" stroke="black" points="78,-108 24,-108 24,-72 78,-72 78,-108"/>
<text text-anchor="middle" x="51" y="-87.5" font-family="Helvetica,sans-Serif" font-size="10.00">st20</text>
</a>
</g>
</g>
<!-- dir_5e95ae6b85fc488515ab26a6ffa4273c&#45;&gt;dir_8622b0e63b7fb230ba833b193101c161 -->
<g id="edge1" class="edge">
<title>dir_5e95ae6b85fc488515ab26a6ffa4273c&#45;&gt;dir_8622b0e63b7fb230ba833b193101c161</title>
<path fill="none" stroke="black" d="M67.78,-71.89C73.59,-66.46 80.32,-60.65 87,-56 95.3,-50.22 104.63,-44.76 113.75,-39.9"/>
<polygon fill="black" stroke="black" points="115.47,-42.95 122.76,-35.26 112.26,-36.73 115.47,-42.95"/>
<g id="a_edge1&#45;headlabel"><a xlink:href="dir_000055_000001.html" target="_top" xlink:title="11">
<text text-anchor="middle" x="113.58" y="-44.62" font-family="Helvetica,sans-Serif" font-size="10.00">11</text>
</a>
</g>
</g>
</g>
</svg>
