<?xml version="1.0" encoding="UTF-8" standalone="no"?>
<!DOCTYPE svg PUBLIC "-//W3C//DTD SVG 1.1//EN"
 "http://www.w3.org/Graphics/SVG/1.1/DTD/svg11.dtd">
<!-- Generated by graphviz version 2.43.0 (0)
 -->
<!-- Title: call Pages: 1 -->
<svg width="161pt" height="367pt"
 viewBox="0.00 0.00 161.12 367.00" xmlns="http://www.w3.org/2000/svg" xmlns:xlink="http://www.w3.org/1999/xlink">
<g id="graph0" class="graph" transform="scale(1 1) rotate(0) translate(4 363)">
<title>call</title>
<polygon fill="white" stroke="transparent" points="-4,4 -4,-363 157.12,-363 157.12,4 -4,4"/>
<g id="clust1" class="cluster">
<title>clusterdir_3731137dd4cde3a8f32b6960f0d2e696</title>
<g id="a_clust1"><a xlink:href="dir_3731137dd4cde3a8f32b6960f0d2e696.html" target="_top" xlink:title="passes">
<polygon fill="#ddddee" stroke="black" points="54.12,-280 54.12,-351 124.12,-351 124.12,-280 54.12,-280"/>
<text text-anchor="middle" x="89.12" y="-339" font-family="Helvetica,sans-Serif" font-size="10.00">passes</text>
</a>
</g>
</g>
<!-- dir_bb98609144441fd2e271ddb95af1acb7 -->
<g id="node1" class="node">
<title>dir_bb98609144441fd2e271ddb95af1acb7</title>
<g id="a_node1"><a xlink:href="dir_bb98609144441fd2e271ddb95af1acb7.html" target="_top" xlink:title="call">
<polygon fill="#eeeeff" stroke="black" points="116.12,-324 62.12,-324 62.12,-288 116.12,-288 116.12,-324"/>
<text text-anchor="middle" x="89.12" y="-303.5" font-family="Helvetica,sans-Serif" font-size="10.00">call</text>
</a>
</g>
</g>
<!-- dir_cacbc0f8d661c3f2ef6995c140cb013b -->
<g id="node2" class="node">
<title>dir_cacbc0f8d661c3f2ef6995c140cb013b</title>
<g id="a_node2"><a xlink:href="dir_cacbc0f8d661c3f2ef6995c140cb013b.html" target="_top" xlink:title="db">
<polygon fill="white" stroke="red" points="89.12,-252 35.12,-252 35.12,-216 89.12,-216 89.12,-252"/>
<text text-anchor="middle" x="62.12" y="-231.5" font-family="Helvetica,sans-Serif" font-size="10.00">db</text>
</a>
</g>
</g>
<!-- dir_bb98609144441fd2e271ddb95af1acb7&#45;&gt;dir_cacbc0f8d661c3f2ef6995c140cb013b -->
<g id="edge12" class="edge">
<title>dir_bb98609144441fd2e271ddb95af1acb7&#45;&gt;dir_cacbc0f8d661c3f2ef6995c140cb013b</title>
<path fill="none" stroke="black" d="M82.44,-287.7C79.4,-279.81 75.74,-270.3 72.36,-261.55"/>
<polygon fill="black" stroke="black" points="75.58,-260.17 68.72,-252.1 69.05,-262.69 75.58,-260.17"/>
<g id="a_edge12&#45;headlabel"><a xlink:href="dir_000021_000014.html" target="_top" xlink:title="6">
<text text-anchor="middle" x="79.52" y="-260.01" font-family="Helvetica,sans-Serif" font-size="10.00">6</text>
</a>
</g>
</g>
<!-- dir_b7264726bdfa508dc9a1f79664d9f9a2 -->
<g id="node3" class="node">
<title>dir_b7264726bdfa508dc9a1f79664d9f9a2</title>
<g id="a_node3"><a xlink:href="dir_b7264726bdfa508dc9a1f79664d9f9a2.html" target="_top" xlink:title="ssl">
<polygon fill="white" stroke="red" points="89.12,-180 35.12,-180 35.12,-144 89.12,-144 89.12,-180"/>
<text text-anchor="middle" x="62.12" y="-159.5" font-family="Helvetica,sans-Serif" font-size="10.00">ssl</text>
</a>
</g>
</g>
<!-- dir_bb98609144441fd2e271ddb95af1acb7&#45;&gt;dir_b7264726bdfa508dc9a1f79664d9f9a2 -->
<g id="edge13" class="edge">
<title>dir_bb98609144441fd2e271ddb95af1acb7&#45;&gt;dir_b7264726bdfa508dc9a1f79664d9f9a2</title>
<path fill="none" stroke="black" d="M94.76,-287.88C99.88,-269.66 105.56,-240.2 98.12,-216 95.11,-206.22 89.61,-196.62 83.8,-188.33"/>
<polygon fill="black" stroke="black" points="86.53,-186.13 77.73,-180.23 80.92,-190.33 86.53,-186.13"/>
<g id="a_edge13&#45;headlabel"><a xlink:href="dir_000021_000007.html" target="_top" xlink:title="4">
<text text-anchor="middle" x="90.95" y="-184.8" font-family="Helvetica,sans-Serif" font-size="10.00">4</text>
</a>
</g>
</g>
<!-- dir_5646c4a3c156db227fe899778b3c4cdf -->
<g id="node4" class="node">
<title>dir_5646c4a3c156db227fe899778b3c4cdf</title>
<g id="a_node4"><a xlink:href="dir_5646c4a3c156db227fe899778b3c4cdf.html" target="_top" xlink:title="util">
<polygon fill="white" stroke="red" points="89.12,-36 35.12,-36 35.12,0 89.12,0 89.12,-36"/>
<text text-anchor="middle" x="62.12" y="-15.5" font-family="Helvetica,sans-Serif" font-size="10.00">util</text>
</a>
</g>
</g>
<!-- dir_bb98609144441fd2e271ddb95af1acb7&#45;&gt;dir_5646c4a3c156db227fe899778b3c4cdf -->
<g id="edge14" class="edge">
<title>dir_bb98609144441fd2e271ddb95af1acb7&#45;&gt;dir_5646c4a3c156db227fe899778b3c4cdf</title>
<path fill="none" stroke="black" d="M61.84,-289.05C48.79,-279.93 34.27,-267.25 26.12,-252 -11.61,-181.44 -4.46,-147.11 23.12,-72 26.78,-62.03 32.93,-52.3 39.27,-43.97"/>
<polygon fill="black" stroke="black" points="42.04,-46.11 45.6,-36.14 36.59,-41.72 42.04,-46.11"/>
<g id="a_edge14&#45;headlabel"><a xlink:href="dir_000021_000002.html" target="_top" xlink:title="3">
<text text-anchor="middle" x="41.99" y="-48.19" font-family="Helvetica,sans-Serif" font-size="10.00">3</text>
</a>
</g>
</g>
<!-- dir_89a2a0f8e65887f6f5e7f07c9ce97f37 -->
<g id="node5" class="node">
<title>dir_89a2a0f8e65887f6f5e7f07c9ce97f37</title>
<g id="a_node5"><a xlink:href="dir_89a2a0f8e65887f6f5e7f07c9ce97f37.html" target="_top" xlink:title="core">
<polygon fill="white" stroke="red" points="153.12,-108 99.12,-108 99.12,-72 153.12,-72 153.12,-108"/>
<text text-anchor="middle" x="126.12" y="-87.5" font-family="Helvetica,sans-Serif" font-size="10.00">core</text>
</a>
</g>
</g>
<!-- dir_bb98609144441fd2e271ddb95af1acb7&#45;&gt;dir_89a2a0f8e65887f6f5e7f07c9ce97f37 -->
<g id="edge15" class="edge">
<title>dir_bb98609144441fd2e271ddb95af1acb7&#45;&gt;dir_89a2a0f8e65887f6f5e7f07c9ce97f37</title>
<path fill="none" stroke="black" d="M98.52,-287.76C103.73,-277.6 109.98,-264.35 114.12,-252 129.5,-206.05 130.49,-192.44 129.12,-144 128.88,-135.67 128.44,-126.62 127.96,-118.39"/>
<polygon fill="black" stroke="black" points="131.44,-117.94 127.34,-108.18 124.46,-118.37 131.44,-117.94"/>
<g id="a_edge15&#45;headlabel"><a xlink:href="dir_000021_000019.html" target="_top" xlink:title="4">
<text text-anchor="middle" x="134.5" y="-118.86" font-family="Helvetica,sans-Serif" font-size="10.00">4</text>
</a>
</g>
</g>
<!-- dir_cacbc0f8d661c3f2ef6995c140cb013b&#45;&gt;dir_b7264726bdfa508dc9a1f79664d9f9a2 -->
<g id="edge1" class="edge">
<title>dir_cacbc0f8d661c3f2ef6995c140cb013b&#45;&gt;dir_b7264726bdfa508dc9a1f79664d9f9a2</title>
<path fill="none" stroke="black" d="M56.2,-215.7C55.41,-207.98 55.18,-198.71 55.52,-190.11"/>
<polygon fill="black" stroke="black" points="59.02,-190.32 56.22,-180.1 52.03,-189.84 59.02,-190.32"/>
<g id="a_edge1&#45;headlabel"><a xlink:href="dir_000014_000007.html" target="_top" xlink:title="122">
<text text-anchor="middle" x="61.6" y="-191.61" font-family="Helvetica,sans-Serif" font-size="10.00">122</text>
</a>
</g>
</g>
<!-- dir_cacbc0f8d661c3f2ef6995c140cb013b&#45;&gt;dir_5646c4a3c156db227fe899778b3c4cdf -->
<g id="edge2" class="edge">
<title>dir_cacbc0f8d661c3f2ef6995c140cb013b&#45;&gt;dir_5646c4a3c156db227fe899778b3c4cdf</title>
<path fill="none" stroke="black" d="M38.53,-215.77C29.75,-206.03 21.17,-193.18 17.12,-180 2.71,-133.16 23.65,-77.01 41.8,-44.92"/>
<polygon fill="black" stroke="black" points="44.92,-46.53 47.06,-36.15 38.92,-42.93 44.92,-46.53"/>
<g id="a_edge2&#45;headlabel"><a xlink:href="dir_000014_000002.html" target="_top" xlink:title="55">
<text text-anchor="middle" x="45.51" y="-48.57" font-family="Helvetica,sans-Serif" font-size="10.00">55</text>
</a>
</g>
</g>
<!-- dir_cacbc0f8d661c3f2ef6995c140cb013b&#45;&gt;dir_89a2a0f8e65887f6f5e7f07c9ce97f37 -->
<g id="edge3" class="edge">
<title>dir_cacbc0f8d661c3f2ef6995c140cb013b&#45;&gt;dir_89a2a0f8e65887f6f5e7f07c9ce97f37</title>
<path fill="none" stroke="black" d="M67.89,-215.64C74.2,-205.65 83.01,-192.62 89.12,-180 98.78,-160.04 106.11,-135.98 112.22,-117.91"/>
<polygon fill="black" stroke="black" points="115.59,-118.89 115.59,-108.29 108.98,-116.57 115.59,-118.89"/>
<g id="a_edge3&#45;headlabel"><a xlink:href="dir_000014_000019.html" target="_top" xlink:title="14">
<text text-anchor="middle" x="117.08" y="-120.72" font-family="Helvetica,sans-Serif" font-size="10.00">14</text>
</a>
</g>
</g>
<!-- dir_b7264726bdfa508dc9a1f79664d9f9a2&#45;&gt;dir_cacbc0f8d661c3f2ef6995c140cb013b -->
<g id="edge4" class="edge">
<title>dir_b7264726bdfa508dc9a1f79664d9f9a2&#45;&gt;dir_cacbc0f8d661c3f2ef6995c140cb013b</title>
<path fill="none" stroke="black" d="M68.01,-180.1C68.82,-187.79 69.06,-197.05 68.72,-205.67"/>
<polygon fill="black" stroke="black" points="65.23,-205.48 68.03,-215.7 72.21,-205.96 65.23,-205.48"/>
<g id="a_edge4&#45;headlabel"><a xlink:href="dir_000007_000014.html" target="_top" xlink:title="35">
<text text-anchor="middle" x="62.64" y="-199.2" font-family="Helvetica,sans-Serif" font-size="10.00">35</text>
</a>
</g>
</g>
<!-- dir_b7264726bdfa508dc9a1f79664d9f9a2&#45;&gt;dir_5646c4a3c156db227fe899778b3c4cdf -->
<g id="edge5" class="edge">
<title>dir_b7264726bdfa508dc9a1f79664d9f9a2&#45;&gt;dir_5646c4a3c156db227fe899778b3c4cdf</title>
<path fill="none" stroke="black" d="M57.53,-143.87C54.98,-119.67 54.68,-75.21 56.66,-46.39"/>
<polygon fill="black" stroke="black" points="60.17,-46.45 57.53,-36.19 53.19,-45.86 60.17,-46.45"/>
<g id="a_edge5&#45;headlabel"><a xlink:href="dir_000007_000002.html" target="_top" xlink:title="56">
<text text-anchor="middle" x="62.69" y="-47.77" font-family="Helvetica,sans-Serif" font-size="10.00">56</text>
</a>
</g>
</g>
<!-- dir_b7264726bdfa508dc9a1f79664d9f9a2&#45;&gt;dir_89a2a0f8e65887f6f5e7f07c9ce97f37 -->
<g id="edge6" class="edge">
<title>dir_b7264726bdfa508dc9a1f79664d9f9a2&#45;&gt;dir_89a2a0f8e65887f6f5e7f07c9ce97f37</title>
<path fill="none" stroke="black" d="M77.94,-143.7C85.69,-135.22 95.16,-124.86 103.64,-115.58"/>
<polygon fill="black" stroke="black" points="106.32,-117.85 110.48,-108.1 101.15,-113.12 106.32,-117.85"/>
<g id="a_edge6&#45;headlabel"><a xlink:href="dir_000007_000019.html" target="_top" xlink:title="7">
<text text-anchor="middle" x="105.99" y="-119.92" font-family="Helvetica,sans-Serif" font-size="10.00">7</text>
</a>
</g>
</g>
<!-- dir_5646c4a3c156db227fe899778b3c4cdf&#45;&gt;dir_cacbc0f8d661c3f2ef6995c140cb013b -->
<g id="edge7" class="edge">
<title>dir_5646c4a3c156db227fe899778b3c4cdf&#45;&gt;dir_cacbc0f8d661c3f2ef6995c140cb013b</title>
<path fill="none" stroke="black" d="M57.93,-36.15C46.13,-65.83 19.29,-128.53 35.12,-180 38.1,-189.68 43.51,-199.18 48.85,-207.4"/>
<polygon fill="black" stroke="black" points="45.99,-209.44 54.49,-215.77 51.8,-205.52 45.99,-209.44"/>
<g id="a_edge7&#45;headlabel"><a xlink:href="dir_000002_000014.html" target="_top" xlink:title="16">
<text text-anchor="middle" x="41.63" y="-205.54" font-family="Helvetica,sans-Serif" font-size="10.00">16</text>
</a>
</g>
</g>
<!-- dir_5646c4a3c156db227fe899778b3c4cdf&#45;&gt;dir_b7264726bdfa508dc9a1f79664d9f9a2 -->
<g id="edge8" class="edge">
<title>dir_5646c4a3c156db227fe899778b3c4cdf&#45;&gt;dir_b7264726bdfa508dc9a1f79664d9f9a2</title>
<path fill="none" stroke="black" d="M66.71,-36.19C69.26,-60.42 69.55,-104.89 67.57,-133.68"/>
<polygon fill="black" stroke="black" points="64.07,-133.61 66.7,-143.87 71.04,-134.21 64.07,-133.61"/>
<g id="a_edge8&#45;headlabel"><a xlink:href="dir_000002_000007.html" target="_top" xlink:title="38">
<text text-anchor="middle" x="61.54" y="-127.29" font-family="Helvetica,sans-Serif" font-size="10.00">38</text>
</a>
</g>
</g>
<!-- dir_5646c4a3c156db227fe899778b3c4cdf&#45;&gt;dir_89a2a0f8e65887f6f5e7f07c9ce97f37 -->
<g id="edge9" class="edge">
<title>dir_5646c4a3c156db227fe899778b3c4cdf&#45;&gt;dir_89a2a0f8e65887f6f5e7f07c9ce97f37</title>
<path fill="none" stroke="black" d="M83.65,-36.1C92.17,-44.47 101.73,-54.69 109.69,-63.92"/>
<polygon fill="black" stroke="black" points="107.11,-66.28 116.21,-71.7 112.47,-61.79 107.11,-66.28"/>
<g id="a_edge9&#45;headlabel"><a xlink:href="dir_000002_000019.html" target="_top" xlink:title="15">
<text text-anchor="middle" x="102.62" y="-62.85" font-family="Helvetica,sans-Serif" font-size="10.00">15</text>
</a>
</g>
</g>
<!-- dir_89a2a0f8e65887f6f5e7f07c9ce97f37&#45;&gt;dir_cacbc0f8d661c3f2ef6995c140cb013b -->
<g id="edge10" class="edge">
<title>dir_89a2a0f8e65887f6f5e7f07c9ce97f37&#45;&gt;dir_cacbc0f8d661c3f2ef6995c140cb013b</title>
<path fill="none" stroke="black" d="M128.95,-108.29C126.83,-126.65 118.62,-156.23 107.12,-180 102.54,-189.46 96.44,-199.16 90.1,-207.63"/>
<polygon fill="black" stroke="black" points="87.22,-205.63 83.74,-215.64 92.7,-209.98 87.22,-205.63"/>
<g id="a_edge10&#45;headlabel"><a xlink:href="dir_000019_000014.html" target="_top" xlink:title="2">
<text text-anchor="middle" x="87.23" y="-198.55" font-family="Helvetica,sans-Serif" font-size="10.00">2</text>
</a>
</g>
</g>
<!-- dir_89a2a0f8e65887f6f5e7f07c9ce97f37&#45;&gt;dir_5646c4a3c156db227fe899778b3c4cdf -->
<g id="edge11" class="edge">
<title>dir_89a2a0f8e65887f6f5e7f07c9ce97f37&#45;&gt;dir_5646c4a3c156db227fe899778b3c4cdf</title>
<path fill="none" stroke="black" d="M104.38,-71.7C95.84,-63.3 86.3,-53.07 78.36,-43.86"/>
<polygon fill="black" stroke="black" points="80.97,-41.52 71.86,-36.1 75.6,-46.02 80.97,-41.52"/>
<g id="a_edge11&#45;headlabel"><a xlink:href="dir_000019_000002.html" target="_top" xlink:title="8">
<text text-anchor="middle" x="85.45" y="-39.96" font-family="Helvetica,sans-Serif" font-size="10.00">8</text>
</a>
</g>
</g>
</g>
</svg>
