<?xml version="1.0" encoding="UTF-8" standalone="no"?>
<!DOCTYPE svg PUBLIC "-//W3C//DTD SVG 1.1//EN"
 "http://www.w3.org/Graphics/SVG/1.1/DTD/svg11.dtd">
<!-- Generated by graphviz version 2.43.0 (0)
 -->
<!-- Title: util Pages: 1 -->
<svg width="269pt" height="339pt"
 viewBox="0.00 0.00 269.28 339.00" xmlns="http://www.w3.org/2000/svg" xmlns:xlink="http://www.w3.org/1999/xlink">
<g id="graph0" class="graph" transform="scale(1 1) rotate(0) translate(4 335)">
<title>util</title>
<polygon fill="white" stroke="transparent" points="-4,4 -4,-335 265.28,-335 265.28,4 -4,4"/>
<g id="clust1" class="cluster">
<title>clusterdir_8622b0e63b7fb230ba833b193101c161</title>
<g id="a_clust1"><a xlink:href="dir_8622b0e63b7fb230ba833b193101c161.html" target="_top" xlink:title="boomerang">
<polygon fill="#ddddee" stroke="black" points="160.84,-128 160.84,-287 246.84,-287 246.84,-128 160.84,-128"/>
<text text-anchor="middle" x="203.84" y="-275" font-family="Helvetica,sans-Serif" font-size="10.00">boomerang</text>
</a>
</g>
</g>
<g id="clust2" class="cluster">
<title>clusterdir_5646c4a3c156db227fe899778b3c4cdf</title>
<g id="a_clust2"><a xlink:href="dir_5646c4a3c156db227fe899778b3c4cdf.html" target="_top">
<polygon fill="#eeeeff" stroke="black" points="168.84,-136 168.84,-260 238.84,-260 238.84,-136 168.84,-136"/>
</a>
</g>
</g>
<!-- dir_5646c4a3c156db227fe899778b3c4cdf -->
<g id="node1" class="node">
<title>dir_5646c4a3c156db227fe899778b3c4cdf</title>
<text text-anchor="middle" x="203.84" y="-231.5" font-family="Helvetica,sans-Serif" font-size="10.00">util</text>
</g>
<!-- dir_0206be61934c463294420ec2e5af8b30 -->
<g id="node2" class="node">
<title>dir_0206be61934c463294420ec2e5af8b30</title>
<g id="a_node2"><a xlink:href="dir_0206be61934c463294420ec2e5af8b30.html" target="_top" xlink:title="log">
<polygon fill="white" stroke="black" points="230.84,-180 176.84,-180 176.84,-144 230.84,-144 230.84,-180"/>
<text text-anchor="middle" x="203.84" y="-159.5" font-family="Helvetica,sans-Serif" font-size="10.00">log</text>
</a>
</g>
</g>
<!-- dir_5646c4a3c156db227fe899778b3c4cdf&#45;&gt;dir_0206be61934c463294420ec2e5af8b30 -->
<g id="edge21" class="edge">
<title>dir_5646c4a3c156db227fe899778b3c4cdf&#45;&gt;dir_0206be61934c463294420ec2e5af8b30</title>
<path fill="none" stroke="black" d="M203.84,-215.7C203.84,-207.98 203.84,-198.71 203.84,-190.11"/>
<polygon fill="black" stroke="black" points="207.34,-190.1 203.84,-180.1 200.34,-190.1 207.34,-190.1"/>
<g id="a_edge21&#45;headlabel"><a xlink:href="dir_000002_000032.html" target="_top" xlink:title="10">
<text text-anchor="middle" x="210.18" y="-191.2" font-family="Helvetica,sans-Serif" font-size="10.00">10</text>
</a>
</g>
</g>
<!-- dir_014c721151abc8438874b072d5fa83c2 -->
<g id="node5" class="node">
<title>dir_014c721151abc8438874b072d5fa83c2</title>
<g id="a_node5"><a xlink:href="dir_014c721151abc8438874b072d5fa83c2.html" target="_top" xlink:title="visitor">
<polygon fill="white" stroke="red" points="88.84,-331 34.84,-331 34.84,-295 88.84,-295 88.84,-331"/>
<text text-anchor="middle" x="61.84" y="-310.5" font-family="Helvetica,sans-Serif" font-size="10.00">visitor</text>
</a>
</g>
</g>
<!-- dir_5646c4a3c156db227fe899778b3c4cdf&#45;&gt;dir_014c721151abc8438874b072d5fa83c2 -->
<g id="edge19" class="edge">
<title>dir_5646c4a3c156db227fe899778b3c4cdf&#45;&gt;dir_014c721151abc8438874b072d5fa83c2</title>
<path fill="none" stroke="black" d="M188.94,-252.18C178.26,-263.53 162.95,-277.93 146.84,-287 132.11,-295.3 114.36,-301.08 98.9,-304.97"/>
<polygon fill="black" stroke="black" points="98.06,-301.57 89.12,-307.27 99.66,-308.39 98.06,-301.57"/>
<g id="a_edge19&#45;headlabel"><a xlink:href="dir_000002_000012.html" target="_top" xlink:title="2">
<text text-anchor="middle" x="100.91" y="-295.49" font-family="Helvetica,sans-Serif" font-size="10.00">2</text>
</a>
</g>
</g>
<!-- dir_89a2a0f8e65887f6f5e7f07c9ce97f37 -->
<g id="node7" class="node">
<title>dir_89a2a0f8e65887f6f5e7f07c9ce97f37</title>
<g id="a_node7"><a xlink:href="dir_89a2a0f8e65887f6f5e7f07c9ce97f37.html" target="_top" xlink:title="core">
<polygon fill="white" stroke="red" points="160.84,-36 106.84,-36 106.84,0 160.84,0 160.84,-36"/>
<text text-anchor="middle" x="133.84" y="-15.5" font-family="Helvetica,sans-Serif" font-size="10.00">core</text>
</a>
</g>
</g>
<!-- dir_5646c4a3c156db227fe899778b3c4cdf&#45;&gt;dir_89a2a0f8e65887f6f5e7f07c9ce97f37 -->
<g id="edge20" class="edge">
<title>dir_5646c4a3c156db227fe899778b3c4cdf&#45;&gt;dir_89a2a0f8e65887f6f5e7f07c9ce97f37</title>
<path fill="none" stroke="black" d="M219.45,-215.77C227.22,-206.03 235.79,-193.18 239.84,-180 246.64,-157.91 248.54,-149.41 239.84,-128 225.39,-92.4 193.11,-62.05 167.94,-42.48"/>
<polygon fill="black" stroke="black" points="169.81,-39.51 159.72,-36.27 165.59,-45.09 169.81,-39.51"/>
<g id="a_edge20&#45;headlabel"><a xlink:href="dir_000002_000019.html" target="_top" xlink:title="15">
<text text-anchor="middle" x="174.39" y="-36.91" font-family="Helvetica,sans-Serif" font-size="10.00">15</text>
</a>
</g>
</g>
<!-- dir_cacbc0f8d661c3f2ef6995c140cb013b -->
<g id="node3" class="node">
<title>dir_cacbc0f8d661c3f2ef6995c140cb013b</title>
<g id="a_node3"><a xlink:href="dir_cacbc0f8d661c3f2ef6995c140cb013b.html" target="_top" xlink:title="db">
<polygon fill="white" stroke="red" points="88.84,-252 34.84,-252 34.84,-216 88.84,-216 88.84,-252"/>
<text text-anchor="middle" x="61.84" y="-231.5" font-family="Helvetica,sans-Serif" font-size="10.00">db</text>
</a>
</g>
</g>
<!-- dir_0206be61934c463294420ec2e5af8b30&#45;&gt;dir_cacbc0f8d661c3f2ef6995c140cb013b -->
<g id="edge26" class="edge">
<title>dir_0206be61934c463294420ec2e5af8b30&#45;&gt;dir_cacbc0f8d661c3f2ef6995c140cb013b</title>
<path fill="none" stroke="black" d="M176.64,-173.92C154.23,-184.1 122.48,-199.56 97.98,-212.11"/>
<polygon fill="black" stroke="black" points="96.26,-209.06 88.98,-216.76 99.47,-215.28 96.26,-209.06"/>
<g id="a_edge26&#45;headlabel"><a xlink:href="dir_000032_000014.html" target="_top" xlink:title="1">
<text text-anchor="middle" x="98.14" y="-202.39" font-family="Helvetica,sans-Serif" font-size="10.00">1</text>
</a>
</g>
</g>
<!-- dir_00cea25d4360966f2fbb8df56cdad836 -->
<g id="node4" class="node">
<title>dir_00cea25d4360966f2fbb8df56cdad836</title>
<g id="a_node4"><a xlink:href="dir_00cea25d4360966f2fbb8df56cdad836.html" target="_top" xlink:title="ifc">
<polygon fill="none" stroke="black" points="152.84,-180 98.84,-180 98.84,-144 152.84,-144 152.84,-180"/>
<text text-anchor="middle" x="125.84" y="-159.5" font-family="Helvetica,sans-Serif" font-size="10.00">ifc</text>
</a>
</g>
</g>
<!-- dir_0206be61934c463294420ec2e5af8b30&#45;&gt;dir_00cea25d4360966f2fbb8df56cdad836 -->
<g id="edge27" class="edge">
<title>dir_0206be61934c463294420ec2e5af8b30&#45;&gt;dir_00cea25d4360966f2fbb8df56cdad836</title>
<path fill="none" stroke="black" d="M176.81,-162C172.22,-162 167.62,-162 163.02,-162"/>
<polygon fill="black" stroke="black" points="162.96,-158.5 152.96,-162 162.96,-165.5 162.96,-158.5"/>
<g id="a_edge27&#45;headlabel"><a xlink:href="dir_000032_000045.html" target="_top" xlink:title="2">
<text text-anchor="middle" x="166.56" y="-153.16" font-family="Helvetica,sans-Serif" font-size="10.00">2</text>
</a>
</g>
</g>
<!-- dir_b7264726bdfa508dc9a1f79664d9f9a2 -->
<g id="node6" class="node">
<title>dir_b7264726bdfa508dc9a1f79664d9f9a2</title>
<g id="a_node6"><a xlink:href="dir_b7264726bdfa508dc9a1f79664d9f9a2.html" target="_top" xlink:title="ssl">
<polygon fill="white" stroke="red" points="96.84,-108 42.84,-108 42.84,-72 96.84,-72 96.84,-108"/>
<text text-anchor="middle" x="69.84" y="-87.5" font-family="Helvetica,sans-Serif" font-size="10.00">ssl</text>
</a>
</g>
</g>
<!-- dir_0206be61934c463294420ec2e5af8b30&#45;&gt;dir_b7264726bdfa508dc9a1f79664d9f9a2 -->
<g id="edge28" class="edge">
<title>dir_0206be61934c463294420ec2e5af8b30&#45;&gt;dir_b7264726bdfa508dc9a1f79664d9f9a2</title>
<path fill="none" stroke="black" d="M176.54,-144.34C169.04,-138.69 160.87,-132.64 152.84,-128 138.17,-119.52 121.18,-112.09 106.34,-106.16"/>
<polygon fill="black" stroke="black" points="107.52,-102.86 96.94,-102.48 104.97,-109.38 107.52,-102.86"/>
<g id="a_edge28&#45;headlabel"><a xlink:href="dir_000032_000007.html" target="_top" xlink:title="4">
<text text-anchor="middle" x="111.91" y="-99.03" font-family="Helvetica,sans-Serif" font-size="10.00">4</text>
</a>
</g>
</g>
<!-- dir_cacbc0f8d661c3f2ef6995c140cb013b&#45;&gt;dir_0206be61934c463294420ec2e5af8b30 -->
<g id="edge5" class="edge">
<title>dir_cacbc0f8d661c3f2ef6995c140cb013b&#45;&gt;dir_0206be61934c463294420ec2e5af8b30</title>
<path fill="none" stroke="black" d="M89.09,-222.06C111.52,-211.87 143.3,-196.39 167.8,-183.84"/>
<polygon fill="black" stroke="black" points="169.52,-186.89 176.8,-179.19 166.3,-180.67 169.52,-186.89"/>
<g id="a_edge5&#45;headlabel"><a xlink:href="dir_000014_000032.html" target="_top" xlink:title="19">
<text text-anchor="middle" x="167.63" y="-188.57" font-family="Helvetica,sans-Serif" font-size="10.00">19</text>
</a>
</g>
</g>
<!-- dir_cacbc0f8d661c3f2ef6995c140cb013b&#45;&gt;dir_00cea25d4360966f2fbb8df56cdad836 -->
<g id="edge1" class="edge">
<title>dir_cacbc0f8d661c3f2ef6995c140cb013b&#45;&gt;dir_00cea25d4360966f2fbb8df56cdad836</title>
<path fill="none" stroke="black" d="M71.75,-215.7C78.69,-207.14 88.09,-196.66 97.16,-187.3"/>
<polygon fill="black" stroke="black" points="99.75,-189.67 104.31,-180.1 94.78,-184.73 99.75,-189.67"/>
<g id="a_edge1&#45;headlabel"><a xlink:href="dir_000014_000045.html" target="_top" xlink:title="7">
<text text-anchor="middle" x="99.23" y="-191.72" font-family="Helvetica,sans-Serif" font-size="10.00">7</text>
</a>
</g>
</g>
<!-- dir_cacbc0f8d661c3f2ef6995c140cb013b&#45;&gt;dir_014c721151abc8438874b072d5fa83c2 -->
<g id="edge2" class="edge">
<title>dir_cacbc0f8d661c3f2ef6995c140cb013b&#45;&gt;dir_014c721151abc8438874b072d5fa83c2</title>
<path fill="none" stroke="black" d="M67.56,-252.04C68.59,-261.6 68.85,-273.76 68.34,-284.62"/>
<polygon fill="black" stroke="black" points="64.82,-284.68 67.56,-294.91 71.8,-285.2 64.82,-284.68"/>
<g id="a_edge2&#45;headlabel"><a xlink:href="dir_000014_000012.html" target="_top" xlink:title="5">
<text text-anchor="middle" x="62.26" y="-278.38" font-family="Helvetica,sans-Serif" font-size="10.00">5</text>
</a>
</g>
</g>
<!-- dir_cacbc0f8d661c3f2ef6995c140cb013b&#45;&gt;dir_b7264726bdfa508dc9a1f79664d9f9a2 -->
<g id="edge3" class="edge">
<title>dir_cacbc0f8d661c3f2ef6995c140cb013b&#45;&gt;dir_b7264726bdfa508dc9a1f79664d9f9a2</title>
<path fill="none" stroke="black" d="M58.23,-215.87C57.03,-191.67 59.24,-147.21 62.84,-118.39"/>
<polygon fill="black" stroke="black" points="66.35,-118.58 64.29,-108.19 59.42,-117.6 66.35,-118.58"/>
<g id="a_edge3&#45;headlabel"><a xlink:href="dir_000014_000007.html" target="_top" xlink:title="122">
<text text-anchor="middle" x="68.66" y="-120.04" font-family="Helvetica,sans-Serif" font-size="10.00">122</text>
</a>
</g>
</g>
<!-- dir_cacbc0f8d661c3f2ef6995c140cb013b&#45;&gt;dir_89a2a0f8e65887f6f5e7f07c9ce97f37 -->
<g id="edge4" class="edge">
<title>dir_cacbc0f8d661c3f2ef6995c140cb013b&#45;&gt;dir_89a2a0f8e65887f6f5e7f07c9ce97f37</title>
<path fill="none" stroke="black" d="M46.36,-215.62C25.94,-184.5 -2.95,-118.19 24.84,-72 39.96,-46.88 71.42,-33.04 96.82,-25.86"/>
<polygon fill="black" stroke="black" points="97.76,-29.23 106.57,-23.34 96.01,-22.46 97.76,-29.23"/>
<g id="a_edge4&#45;headlabel"><a xlink:href="dir_000014_000019.html" target="_top" xlink:title="14">
<text text-anchor="middle" x="94.99" y="-30.38" font-family="Helvetica,sans-Serif" font-size="10.00">14</text>
</a>
</g>
</g>
<!-- dir_00cea25d4360966f2fbb8df56cdad836&#45;&gt;dir_5646c4a3c156db227fe899778b3c4cdf -->
<g id="edge8" class="edge">
<title>dir_00cea25d4360966f2fbb8df56cdad836&#45;&gt;dir_5646c4a3c156db227fe899778b3c4cdf</title>
<path fill="none" stroke="black" d="M144.9,-180.1C154.5,-188.72 166.31,-199.32 176.83,-208.76"/>
<polygon fill="black" stroke="black" points="174.78,-211.62 184.56,-215.7 179.46,-206.41 174.78,-211.62"/>
<g id="a_edge8&#45;headlabel"><a xlink:href="dir_000045_000002.html" target="_top" xlink:title="1">
<text text-anchor="middle" x="170.21" y="-208.83" font-family="Helvetica,sans-Serif" font-size="10.00">1</text>
</a>
</g>
</g>
<!-- dir_00cea25d4360966f2fbb8df56cdad836&#45;&gt;dir_cacbc0f8d661c3f2ef6995c140cb013b -->
<g id="edge6" class="edge">
<title>dir_00cea25d4360966f2fbb8df56cdad836&#45;&gt;dir_cacbc0f8d661c3f2ef6995c140cb013b</title>
<path fill="none" stroke="black" d="M116.1,-180.1C109.2,-188.64 99.81,-199.11 90.74,-208.48"/>
<polygon fill="black" stroke="black" points="88.14,-206.13 83.58,-215.7 93.11,-211.06 88.14,-206.13"/>
<g id="a_edge6&#45;headlabel"><a xlink:href="dir_000045_000014.html" target="_top" xlink:title="2">
<text text-anchor="middle" x="88.65" y="-199.08" font-family="Helvetica,sans-Serif" font-size="10.00">2</text>
</a>
</g>
</g>
<!-- dir_00cea25d4360966f2fbb8df56cdad836&#45;&gt;dir_b7264726bdfa508dc9a1f79664d9f9a2 -->
<g id="edge7" class="edge">
<title>dir_00cea25d4360966f2fbb8df56cdad836&#45;&gt;dir_b7264726bdfa508dc9a1f79664d9f9a2</title>
<path fill="none" stroke="black" d="M106.09,-143.7C98.66,-135.47 90.47,-125.48 83.66,-116.42"/>
<polygon fill="black" stroke="black" points="86.34,-114.15 77.63,-108.1 80.67,-118.26 86.34,-114.15"/>
<g id="a_edge7&#45;headlabel"><a xlink:href="dir_000045_000007.html" target="_top" xlink:title="2">
<text text-anchor="middle" x="90.74" y="-112.89" font-family="Helvetica,sans-Serif" font-size="10.00">2</text>
</a>
</g>
</g>
<!-- dir_00cea25d4360966f2fbb8df56cdad836&#45;&gt;dir_89a2a0f8e65887f6f5e7f07c9ce97f37 -->
<g id="edge9" class="edge">
<title>dir_00cea25d4360966f2fbb8df56cdad836&#45;&gt;dir_89a2a0f8e65887f6f5e7f07c9ce97f37</title>
<path fill="none" stroke="black" d="M122.23,-143.87C121.03,-119.67 123.24,-75.21 126.84,-46.39"/>
<polygon fill="black" stroke="black" points="130.35,-46.58 128.29,-36.19 123.42,-45.6 130.35,-46.58"/>
<g id="a_edge9&#45;headlabel"><a xlink:href="dir_000045_000019.html" target="_top" xlink:title="3">
<text text-anchor="middle" x="132.66" y="-48.04" font-family="Helvetica,sans-Serif" font-size="10.00">3</text>
</a>
</g>
</g>
<!-- dir_014c721151abc8438874b072d5fa83c2&#45;&gt;dir_0206be61934c463294420ec2e5af8b30 -->
<g id="edge13" class="edge">
<title>dir_014c721151abc8438874b072d5fa83c2&#45;&gt;dir_0206be61934c463294420ec2e5af8b30</title>
<path fill="none" stroke="black" d="M88.4,-294.73C91.68,-292.26 94.91,-289.65 97.84,-287 131.81,-256.28 165.17,-214.89 185.12,-188.57"/>
<polygon fill="black" stroke="black" points="188.16,-190.36 191.36,-180.26 182.56,-186.15 188.16,-190.36"/>
<g id="a_edge13&#45;headlabel"><a xlink:href="dir_000012_000032.html" target="_top" xlink:title="4">
<text text-anchor="middle" x="188.27" y="-192.43" font-family="Helvetica,sans-Serif" font-size="10.00">4</text>
</a>
</g>
</g>
<!-- dir_014c721151abc8438874b072d5fa83c2&#45;&gt;dir_cacbc0f8d661c3f2ef6995c140cb013b -->
<g id="edge10" class="edge">
<title>dir_014c721151abc8438874b072d5fa83c2&#45;&gt;dir_cacbc0f8d661c3f2ef6995c140cb013b</title>
<path fill="none" stroke="black" d="M56.12,-294.91C55.09,-285.34 54.84,-273.18 55.35,-262.32"/>
<polygon fill="black" stroke="black" points="58.87,-262.28 56.13,-252.04 51.89,-261.75 58.87,-262.28"/>
<g id="a_edge10&#45;headlabel"><a xlink:href="dir_000012_000014.html" target="_top" xlink:title="15">
<text text-anchor="middle" x="61.43" y="-263.57" font-family="Helvetica,sans-Serif" font-size="10.00">15</text>
</a>
</g>
</g>
<!-- dir_014c721151abc8438874b072d5fa83c2&#45;&gt;dir_b7264726bdfa508dc9a1f79664d9f9a2 -->
<g id="edge11" class="edge">
<title>dir_014c721151abc8438874b072d5fa83c2&#45;&gt;dir_b7264726bdfa508dc9a1f79664d9f9a2</title>
<path fill="none" stroke="black" d="M34.74,-303.67C27.4,-299.66 20.58,-294.15 16.84,-287 2.22,-259.04 11.53,-247.1 16.84,-216 22.89,-180.61 37.92,-141.91 50.77,-117.09"/>
<polygon fill="black" stroke="black" points="53.85,-118.75 55.56,-108.3 47.7,-115.4 53.85,-118.75"/>
<g id="a_edge11&#45;headlabel"><a xlink:href="dir_000012_000007.html" target="_top" xlink:title="112">
<text text-anchor="middle" x="54.62" y="-120.77" font-family="Helvetica,sans-Serif" font-size="10.00">112</text>
</a>
</g>
</g>
<!-- dir_014c721151abc8438874b072d5fa83c2&#45;&gt;dir_89a2a0f8e65887f6f5e7f07c9ce97f37 -->
<g id="edge12" class="edge">
<title>dir_014c721151abc8438874b072d5fa83c2&#45;&gt;dir_89a2a0f8e65887f6f5e7f07c9ce97f37</title>
<path fill="none" stroke="black" d="M34.58,-303.58C26.84,-299.8 19.32,-294.45 14.84,-287 -1.87,-259.18 -8.86,-113.98 18.84,-72 36.24,-45.64 70.32,-32.18 96.89,-25.44"/>
<polygon fill="black" stroke="black" points="97.7,-28.84 106.65,-23.17 96.12,-22.02 97.7,-28.84"/>
<g id="a_edge12&#45;headlabel"><a xlink:href="dir_000012_000019.html" target="_top" xlink:title="7">
<text text-anchor="middle" x="94.84" y="-29.92" font-family="Helvetica,sans-Serif" font-size="10.00">7</text>
</a>
</g>
</g>
<!-- dir_b7264726bdfa508dc9a1f79664d9f9a2&#45;&gt;dir_0206be61934c463294420ec2e5af8b30 -->
<g id="edge18" class="edge">
<title>dir_b7264726bdfa508dc9a1f79664d9f9a2&#45;&gt;dir_0206be61934c463294420ec2e5af8b30</title>
<path fill="none" stroke="black" d="M96.91,-97.25C118.14,-103.62 147.45,-114.47 170.84,-128 175.54,-130.72 180.28,-133.91 184.7,-137.23"/>
<polygon fill="black" stroke="black" points="182.71,-140.12 192.69,-143.66 187.1,-134.67 182.71,-140.12"/>
<g id="a_edge18&#45;headlabel"><a xlink:href="dir_000007_000032.html" target="_top" xlink:title="30">
<text text-anchor="middle" x="178.13" y="-137.58" font-family="Helvetica,sans-Serif" font-size="10.00">30</text>
</a>
</g>
</g>
<!-- dir_b7264726bdfa508dc9a1f79664d9f9a2&#45;&gt;dir_cacbc0f8d661c3f2ef6995c140cb013b -->
<g id="edge14" class="edge">
<title>dir_b7264726bdfa508dc9a1f79664d9f9a2&#45;&gt;dir_cacbc0f8d661c3f2ef6995c140cb013b</title>
<path fill="none" stroke="black" d="M73.47,-108.19C74.66,-132.42 72.44,-176.89 68.84,-205.68"/>
<polygon fill="black" stroke="black" points="65.33,-205.48 67.39,-215.87 72.26,-206.46 65.33,-205.48"/>
<g id="a_edge14&#45;headlabel"><a xlink:href="dir_000007_000014.html" target="_top" xlink:title="35">
<text text-anchor="middle" x="63.02" y="-199.02" font-family="Helvetica,sans-Serif" font-size="10.00">35</text>
</a>
</g>
</g>
<!-- dir_b7264726bdfa508dc9a1f79664d9f9a2&#45;&gt;dir_00cea25d4360966f2fbb8df56cdad836 -->
<g id="edge15" class="edge">
<title>dir_b7264726bdfa508dc9a1f79664d9f9a2&#45;&gt;dir_00cea25d4360966f2fbb8df56cdad836</title>
<path fill="none" stroke="black" d="M89.42,-108.1C96.84,-116.3 105.04,-126.28 111.86,-135.36"/>
<polygon fill="black" stroke="black" points="109.21,-137.66 117.92,-143.7 114.87,-133.55 109.21,-137.66"/>
<g id="a_edge15&#45;headlabel"><a xlink:href="dir_000007_000045.html" target="_top" xlink:title="5">
<text text-anchor="middle" x="104.8" y="-133.92" font-family="Helvetica,sans-Serif" font-size="10.00">5</text>
</a>
</g>
</g>
<!-- dir_b7264726bdfa508dc9a1f79664d9f9a2&#45;&gt;dir_014c721151abc8438874b072d5fa83c2 -->
<g id="edge16" class="edge">
<title>dir_b7264726bdfa508dc9a1f79664d9f9a2&#45;&gt;dir_014c721151abc8438874b072d5fa83c2</title>
<path fill="none" stroke="black" d="M67.71,-108.3C59.9,-131.97 41.66,-176.09 34.84,-216 30.01,-244.31 21.86,-256.74 35.73,-285.66"/>
<polygon fill="black" stroke="black" points="32.75,-287.51 40.5,-294.73 38.94,-284.25 32.75,-287.51"/>
<g id="a_edge16&#45;headlabel"><a xlink:href="dir_000007_000012.html" target="_top" xlink:title="81">
<text text-anchor="middle" x="28.56" y="-283.15" font-family="Helvetica,sans-Serif" font-size="10.00">81</text>
</a>
</g>
</g>
<!-- dir_b7264726bdfa508dc9a1f79664d9f9a2&#45;&gt;dir_89a2a0f8e65887f6f5e7f07c9ce97f37 -->
<g id="edge17" class="edge">
<title>dir_b7264726bdfa508dc9a1f79664d9f9a2&#45;&gt;dir_89a2a0f8e65887f6f5e7f07c9ce97f37</title>
<path fill="none" stroke="black" d="M85.66,-71.7C93.42,-63.22 102.88,-52.86 111.37,-43.58"/>
<polygon fill="black" stroke="black" points="114.04,-45.85 118.21,-36.1 108.88,-41.12 114.04,-45.85"/>
<g id="a_edge17&#45;headlabel"><a xlink:href="dir_000007_000019.html" target="_top" xlink:title="7">
<text text-anchor="middle" x="113.71" y="-47.92" font-family="Helvetica,sans-Serif" font-size="10.00">7</text>
</a>
</g>
</g>
<!-- dir_89a2a0f8e65887f6f5e7f07c9ce97f37&#45;&gt;dir_5646c4a3c156db227fe899778b3c4cdf -->
<g id="edge24" class="edge">
<title>dir_89a2a0f8e65887f6f5e7f07c9ce97f37&#45;&gt;dir_5646c4a3c156db227fe899778b3c4cdf</title>
<path fill="none" stroke="black" d="M160.92,-28.83C181.7,-37.51 209.94,-51.93 228.84,-72 247.79,-92.11 249.69,-101.06 255.84,-128 260.99,-150.53 264.59,-158.61 255.84,-180 251.36,-190.98 243.37,-200.92 234.99,-209.14"/>
<polygon fill="black" stroke="black" points="232.61,-206.58 227.6,-215.91 237.34,-211.74 232.61,-206.58"/>
<g id="a_edge24&#45;headlabel"><a xlink:href="dir_000019_000002.html" target="_top" xlink:title="8">
<text text-anchor="middle" x="233.34" y="-199.55" font-family="Helvetica,sans-Serif" font-size="10.00">8</text>
</a>
</g>
</g>
<!-- dir_89a2a0f8e65887f6f5e7f07c9ce97f37&#45;&gt;dir_0206be61934c463294420ec2e5af8b30 -->
<g id="edge25" class="edge">
<title>dir_89a2a0f8e65887f6f5e7f07c9ce97f37&#45;&gt;dir_0206be61934c463294420ec2e5af8b30</title>
<path fill="none" stroke="black" d="M142.32,-36.19C154.42,-60.74 176.76,-106.07 190.94,-134.81"/>
<polygon fill="black" stroke="black" points="187.84,-136.45 195.4,-143.87 194.12,-133.35 187.84,-136.45"/>
<g id="a_edge25&#45;headlabel"><a xlink:href="dir_000019_000032.html" target="_top" xlink:title="3">
<text text-anchor="middle" x="183.7" y="-131.98" font-family="Helvetica,sans-Serif" font-size="10.00">3</text>
</a>
</g>
</g>
<!-- dir_89a2a0f8e65887f6f5e7f07c9ce97f37&#45;&gt;dir_cacbc0f8d661c3f2ef6995c140cb013b -->
<g id="edge22" class="edge">
<title>dir_89a2a0f8e65887f6f5e7f07c9ce97f37&#45;&gt;dir_cacbc0f8d661c3f2ef6995c140cb013b</title>
<path fill="none" stroke="black" d="M106.66,-27.43C85.2,-34.98 56.93,-48.6 42.84,-72 17.66,-113.86 39.02,-172.24 52.97,-205.99"/>
<polygon fill="black" stroke="black" points="49.91,-207.75 57,-215.62 56.37,-205.05 49.91,-207.75"/>
<g id="a_edge22&#45;headlabel"><a xlink:href="dir_000019_000014.html" target="_top" xlink:title="2">
<text text-anchor="middle" x="45.9" y="-203.03" font-family="Helvetica,sans-Serif" font-size="10.00">2</text>
</a>
</g>
</g>
<!-- dir_89a2a0f8e65887f6f5e7f07c9ce97f37&#45;&gt;dir_00cea25d4360966f2fbb8df56cdad836 -->
<g id="edge23" class="edge">
<title>dir_89a2a0f8e65887f6f5e7f07c9ce97f37&#45;&gt;dir_00cea25d4360966f2fbb8df56cdad836</title>
<path fill="none" stroke="black" d="M137.47,-36.19C138.66,-60.42 136.44,-104.89 132.84,-133.68"/>
<polygon fill="black" stroke="black" points="129.33,-133.48 131.39,-143.87 136.26,-134.46 129.33,-133.48"/>
<g id="a_edge23&#45;headlabel"><a xlink:href="dir_000019_000045.html" target="_top" xlink:title="8">
<text text-anchor="middle" x="127.02" y="-127.02" font-family="Helvetica,sans-Serif" font-size="10.00">8</text>
</a>
</g>
</g>
</g>
</svg>
