<?xml version="1.0" encoding="UTF-8" standalone="no"?>
<!DOCTYPE svg PUBLIC "-//W3C//DTD SVG 1.1//EN"
 "http://www.w3.org/Graphics/SVG/1.1/DTD/svg11.dtd">
<!-- Generated by graphviz version 2.43.0 (0)
 -->
<!-- Title: module Pages: 1 -->
<svg width="289pt" height="404pt"
 viewBox="0.00 0.00 289.43 404.00" xmlns="http://www.w3.org/2000/svg" xmlns:xlink="http://www.w3.org/1999/xlink">
<g id="graph0" class="graph" transform="scale(1 1) rotate(0) translate(4 400)">
<title>module</title>
<polygon fill="white" stroke="transparent" points="-4,4 -4,-400 285.43,-400 285.43,4 -4,4"/>
<g id="clust1" class="cluster">
<title>clusterdir_cacbc0f8d661c3f2ef6995c140cb013b</title>
<g id="a_clust1"><a xlink:href="dir_cacbc0f8d661c3f2ef6995c140cb013b.html" target="_top" xlink:title="db">
<polygon fill="#ddddee" stroke="black" points="15.48,-280 15.48,-351 85.48,-351 85.48,-280 15.48,-280"/>
<text text-anchor="middle" x="50.48" y="-339" font-family="Helvetica,sans-Serif" font-size="10.00">db</text>
</a>
</g>
</g>
<!-- dir_38c79c2c60b3a2288bf5bca92c333acf -->
<g id="node1" class="node">
<title>dir_38c79c2c60b3a2288bf5bca92c333acf</title>
<g id="a_node1"><a xlink:href="dir_38c79c2c60b3a2288bf5bca92c333acf.html" target="_top" xlink:title="module">
<polygon fill="#eeeeff" stroke="black" points="77.48,-324 23.48,-324 23.48,-288 77.48,-288 77.48,-324"/>
<text text-anchor="middle" x="50.48" y="-303.5" font-family="Helvetica,sans-Serif" font-size="10.00">module</text>
</a>
</g>
</g>
<!-- dir_00cea25d4360966f2fbb8df56cdad836 -->
<g id="node2" class="node">
<title>dir_00cea25d4360966f2fbb8df56cdad836</title>
<g id="a_node2"><a xlink:href="dir_00cea25d4360966f2fbb8df56cdad836.html" target="_top" xlink:title="ifc">
<polygon fill="none" stroke="black" points="187.48,-396 133.48,-396 133.48,-360 187.48,-360 187.48,-396"/>
<text text-anchor="middle" x="160.48" y="-375.5" font-family="Helvetica,sans-Serif" font-size="10.00">ifc</text>
</a>
</g>
</g>
<!-- dir_38c79c2c60b3a2288bf5bca92c333acf&#45;&gt;dir_00cea25d4360966f2fbb8df56cdad836 -->
<g id="edge25" class="edge">
<title>dir_38c79c2c60b3a2288bf5bca92c333acf&#45;&gt;dir_00cea25d4360966f2fbb8df56cdad836</title>
<path fill="none" stroke="black" d="M69.51,-324.05C79.75,-332.74 92.83,-343.1 105.48,-351 111.32,-354.65 117.75,-358.12 124.1,-361.27"/>
<polygon fill="black" stroke="black" points="122.71,-364.49 133.25,-365.65 125.73,-358.18 122.71,-364.49"/>
<g id="a_edge25&#45;headlabel"><a xlink:href="dir_000030_000045.html" target="_top" xlink:title="1">
<text text-anchor="middle" x="118.25" y="-363" font-family="Helvetica,sans-Serif" font-size="10.00">1</text>
</a>
</g>
</g>
<!-- dir_fd773920032524e4bfcd78f5916cd097 -->
<g id="node3" class="node">
<title>dir_fd773920032524e4bfcd78f5916cd097</title>
<g id="a_node3"><a xlink:href="dir_fd773920032524e4bfcd78f5916cd097.html" target="_top" xlink:title="signature">
<polygon fill="none" stroke="black" points="209.48,-36 147.48,-36 147.48,0 209.48,0 209.48,-36"/>
<text text-anchor="middle" x="178.48" y="-15.5" font-family="Helvetica,sans-Serif" font-size="10.00">signature</text>
</a>
</g>
</g>
<!-- dir_38c79c2c60b3a2288bf5bca92c333acf&#45;&gt;dir_fd773920032524e4bfcd78f5916cd097 -->
<g id="edge26" class="edge">
<title>dir_38c79c2c60b3a2288bf5bca92c333acf&#45;&gt;dir_fd773920032524e4bfcd78f5916cd097</title>
<path fill="none" stroke="black" d="M40.94,-287.93C35.84,-277.82 30.09,-264.57 27.48,-252 22.55,-228.24 32.91,-145.14 33.48,-144 56.48,-98.36 104.16,-62.45 138.58,-41.05"/>
<polygon fill="black" stroke="black" points="140.72,-43.84 147.46,-35.66 137.09,-37.86 140.72,-43.84"/>
<g id="a_edge26&#45;headlabel"><a xlink:href="dir_000030_000033.html" target="_top" xlink:title="1">
<text text-anchor="middle" x="139.12" y="-45.63" font-family="Helvetica,sans-Serif" font-size="10.00">1</text>
</a>
</g>
</g>
<!-- dir_636445051267db0da9873ee5fca752ef -->
<g id="node4" class="node">
<title>dir_636445051267db0da9873ee5fca752ef</title>
<g id="a_node4"><a xlink:href="dir_636445051267db0da9873ee5fca752ef.html" target="_top" xlink:title="proc">
<polygon fill="none" stroke="black" points="178.48,-108 124.48,-108 124.48,-72 178.48,-72 178.48,-108"/>
<text text-anchor="middle" x="151.48" y="-87.5" font-family="Helvetica,sans-Serif" font-size="10.00">proc</text>
</a>
</g>
</g>
<!-- dir_38c79c2c60b3a2288bf5bca92c333acf&#45;&gt;dir_636445051267db0da9873ee5fca752ef -->
<g id="edge27" class="edge">
<title>dir_38c79c2c60b3a2288bf5bca92c333acf&#45;&gt;dir_636445051267db0da9873ee5fca752ef</title>
<path fill="none" stroke="black" d="M44.25,-287.59C40.92,-277.37 37.17,-264.12 35.48,-252 28.72,-203.3 28.38,-182.08 59.48,-144 73.95,-126.29 96,-113.3 114.88,-104.61"/>
<polygon fill="black" stroke="black" points="116.37,-107.78 124.13,-100.58 113.57,-101.37 116.37,-107.78"/>
<g id="a_edge27&#45;headlabel"><a xlink:href="dir_000030_000047.html" target="_top" xlink:title="2">
<text text-anchor="middle" x="114.21" y="-109.32" font-family="Helvetica,sans-Serif" font-size="10.00">2</text>
</a>
</g>
</g>
<!-- dir_b7264726bdfa508dc9a1f79664d9f9a2 -->
<g id="node5" class="node">
<title>dir_b7264726bdfa508dc9a1f79664d9f9a2</title>
<g id="a_node5"><a xlink:href="dir_b7264726bdfa508dc9a1f79664d9f9a2.html" target="_top" xlink:title="ssl">
<polygon fill="white" stroke="red" points="279.48,-324 225.48,-324 225.48,-288 279.48,-288 279.48,-324"/>
<text text-anchor="middle" x="252.48" y="-303.5" font-family="Helvetica,sans-Serif" font-size="10.00">ssl</text>
</a>
</g>
</g>
<!-- dir_38c79c2c60b3a2288bf5bca92c333acf&#45;&gt;dir_b7264726bdfa508dc9a1f79664d9f9a2 -->
<g id="edge28" class="edge">
<title>dir_38c79c2c60b3a2288bf5bca92c333acf&#45;&gt;dir_b7264726bdfa508dc9a1f79664d9f9a2</title>
<path fill="none" stroke="black" d="M77.71,-306C123.5,-306 169.3,-306 215.09,-306"/>
<polygon fill="black" stroke="black" points="215.17,-309.5 225.17,-306 215.17,-302.5 215.17,-309.5"/>
<g id="a_edge28&#45;headlabel"><a xlink:href="dir_000030_000007.html" target="_top" xlink:title="3">
<text text-anchor="middle" x="211.58" y="-309.84" font-family="Helvetica,sans-Serif" font-size="10.00">3</text>
</a>
</g>
</g>
<!-- dir_5646c4a3c156db227fe899778b3c4cdf -->
<g id="node6" class="node">
<title>dir_5646c4a3c156db227fe899778b3c4cdf</title>
<g id="a_node6"><a xlink:href="dir_5646c4a3c156db227fe899778b3c4cdf.html" target="_top" xlink:title="util">
<polygon fill="white" stroke="red" points="206.48,-180 152.48,-180 152.48,-144 206.48,-144 206.48,-180"/>
<text text-anchor="middle" x="179.48" y="-159.5" font-family="Helvetica,sans-Serif" font-size="10.00">util</text>
</a>
</g>
</g>
<!-- dir_38c79c2c60b3a2288bf5bca92c333acf&#45;&gt;dir_5646c4a3c156db227fe899778b3c4cdf -->
<g id="edge29" class="edge">
<title>dir_38c79c2c60b3a2288bf5bca92c333acf&#45;&gt;dir_5646c4a3c156db227fe899778b3c4cdf</title>
<path fill="none" stroke="black" d="M48.19,-287.78C46.57,-268.4 46.94,-236.89 62.48,-216 81.61,-190.3 116.11,-176.76 142.71,-169.82"/>
<polygon fill="black" stroke="black" points="143.56,-173.21 152.47,-167.47 141.93,-166.4 143.56,-173.21"/>
<g id="a_edge29&#45;headlabel"><a xlink:href="dir_000030_000002.html" target="_top" xlink:title="2">
<text text-anchor="middle" x="140.73" y="-174.31" font-family="Helvetica,sans-Serif" font-size="10.00">2</text>
</a>
</g>
</g>
<!-- dir_89a2a0f8e65887f6f5e7f07c9ce97f37 -->
<g id="node7" class="node">
<title>dir_89a2a0f8e65887f6f5e7f07c9ce97f37</title>
<g id="a_node7"><a xlink:href="dir_89a2a0f8e65887f6f5e7f07c9ce97f37.html" target="_top" xlink:title="core">
<polygon fill="white" stroke="red" points="151.48,-252 97.48,-252 97.48,-216 151.48,-216 151.48,-252"/>
<text text-anchor="middle" x="124.48" y="-231.5" font-family="Helvetica,sans-Serif" font-size="10.00">core</text>
</a>
</g>
</g>
<!-- dir_38c79c2c60b3a2288bf5bca92c333acf&#45;&gt;dir_89a2a0f8e65887f6f5e7f07c9ce97f37 -->
<g id="edge30" class="edge">
<title>dir_38c79c2c60b3a2288bf5bca92c333acf&#45;&gt;dir_89a2a0f8e65887f6f5e7f07c9ce97f37</title>
<path fill="none" stroke="black" d="M68.78,-287.7C77.92,-279.05 89.12,-268.45 99.08,-259.03"/>
<polygon fill="black" stroke="black" points="101.54,-261.52 106.4,-252.1 96.73,-256.43 101.54,-261.52"/>
<g id="a_edge30&#45;headlabel"><a xlink:href="dir_000030_000019.html" target="_top" xlink:title="4">
<text text-anchor="middle" x="100.88" y="-263.55" font-family="Helvetica,sans-Serif" font-size="10.00">4</text>
</a>
</g>
</g>
<!-- dir_00cea25d4360966f2fbb8df56cdad836&#45;&gt;dir_b7264726bdfa508dc9a1f79664d9f9a2 -->
<g id="edge1" class="edge">
<title>dir_00cea25d4360966f2fbb8df56cdad836&#45;&gt;dir_b7264726bdfa508dc9a1f79664d9f9a2</title>
<path fill="none" stroke="black" d="M187.66,-360.63C192.75,-357.7 197.88,-354.47 202.48,-351 209.95,-345.37 217.22,-338.29 223.89,-331.47"/>
<polygon fill="black" stroke="black" points="226.44,-333.86 230.88,-324.24 221.41,-328.99 226.44,-333.86"/>
<g id="a_edge1&#45;headlabel"><a xlink:href="dir_000045_000007.html" target="_top" xlink:title="2">
<text text-anchor="middle" x="225.98" y="-335.92" font-family="Helvetica,sans-Serif" font-size="10.00">2</text>
</a>
</g>
</g>
<!-- dir_00cea25d4360966f2fbb8df56cdad836&#45;&gt;dir_5646c4a3c156db227fe899778b3c4cdf -->
<g id="edge2" class="edge">
<title>dir_00cea25d4360966f2fbb8df56cdad836&#45;&gt;dir_5646c4a3c156db227fe899778b3c4cdf</title>
<path fill="none" stroke="black" d="M155.19,-359.98C155.59,-357 156.1,-353.92 156.48,-351 164.06,-294.01 167.83,-226.71 172.36,-190.09"/>
<polygon fill="black" stroke="black" points="175.83,-190.56 173.73,-180.18 168.89,-189.6 175.83,-190.56"/>
<g id="a_edge2&#45;headlabel"><a xlink:href="dir_000045_000002.html" target="_top" xlink:title="1">
<text text-anchor="middle" x="178.15" y="-192.01" font-family="Helvetica,sans-Serif" font-size="10.00">1</text>
</a>
</g>
</g>
<!-- dir_00cea25d4360966f2fbb8df56cdad836&#45;&gt;dir_89a2a0f8e65887f6f5e7f07c9ce97f37 -->
<g id="edge3" class="edge">
<title>dir_00cea25d4360966f2fbb8df56cdad836&#45;&gt;dir_89a2a0f8e65887f6f5e7f07c9ce97f37</title>
<path fill="none" stroke="black" d="M151.56,-359.87C142.86,-335.67 131.3,-291.21 125.97,-262.39"/>
<polygon fill="black" stroke="black" points="129.36,-261.47 124.25,-252.19 122.46,-262.63 129.36,-261.47"/>
<g id="a_edge3&#45;headlabel"><a xlink:href="dir_000045_000019.html" target="_top" xlink:title="3">
<text text-anchor="middle" x="132.76" y="-262.04" font-family="Helvetica,sans-Serif" font-size="10.00">3</text>
</a>
</g>
</g>
<!-- dir_fd773920032524e4bfcd78f5916cd097&#45;&gt;dir_636445051267db0da9873ee5fca752ef -->
<g id="edge4" class="edge">
<title>dir_fd773920032524e4bfcd78f5916cd097&#45;&gt;dir_636445051267db0da9873ee5fca752ef</title>
<path fill="none" stroke="black" d="M177.78,-36.1C175.55,-44.04 172.06,-53.67 168.27,-62.51"/>
<polygon fill="black" stroke="black" points="165.05,-61.15 164.07,-71.7 171.41,-64.06 165.05,-61.15"/>
<g id="a_edge4&#45;headlabel"><a xlink:href="dir_000033_000047.html" target="_top" xlink:title="7">
<text text-anchor="middle" x="163.96" y="-54.2" font-family="Helvetica,sans-Serif" font-size="10.00">7</text>
</a>
</g>
</g>
<!-- dir_fd773920032524e4bfcd78f5916cd097&#45;&gt;dir_b7264726bdfa508dc9a1f79664d9f9a2 -->
<g id="edge5" class="edge">
<title>dir_fd773920032524e4bfcd78f5916cd097&#45;&gt;dir_b7264726bdfa508dc9a1f79664d9f9a2</title>
<path fill="none" stroke="black" d="M195.68,-36.11C221.69,-69.03 267.84,-144.28 279.48,-216 282.05,-231.79 282.09,-236.21 279.48,-252 278.03,-260.82 275.29,-270.15 271.97,-278.48"/>
<polygon fill="black" stroke="black" points="268.73,-277.15 267.84,-287.7 275.12,-280.01 268.73,-277.15"/>
<g id="a_edge5&#45;headlabel"><a xlink:href="dir_000033_000007.html" target="_top" xlink:title="50">
<text text-anchor="middle" x="267.61" y="-270.21" font-family="Helvetica,sans-Serif" font-size="10.00">50</text>
</a>
</g>
</g>
<!-- dir_fd773920032524e4bfcd78f5916cd097&#45;&gt;dir_5646c4a3c156db227fe899778b3c4cdf -->
<g id="edge6" class="edge">
<title>dir_fd773920032524e4bfcd78f5916cd097&#45;&gt;dir_5646c4a3c156db227fe899778b3c4cdf</title>
<path fill="none" stroke="black" d="M182.14,-36.09C184.16,-46.43 186.46,-59.91 187.48,-72 188.83,-87.94 188.68,-92.04 187.48,-108 186.85,-116.48 185.65,-125.66 184.36,-133.96"/>
<polygon fill="black" stroke="black" points="180.9,-133.45 182.73,-143.89 187.81,-134.59 180.9,-133.45"/>
<g id="a_edge6&#45;headlabel"><a xlink:href="dir_000033_000002.html" target="_top" xlink:title="8">
<text text-anchor="middle" x="178.68" y="-126.95" font-family="Helvetica,sans-Serif" font-size="10.00">8</text>
</a>
</g>
</g>
<!-- dir_636445051267db0da9873ee5fca752ef&#45;&gt;dir_38c79c2c60b3a2288bf5bca92c333acf -->
<g id="edge12" class="edge">
<title>dir_636445051267db0da9873ee5fca752ef&#45;&gt;dir_38c79c2c60b3a2288bf5bca92c333acf</title>
<path fill="none" stroke="black" d="M129.53,-108.04C103.47,-129.8 61.42,-170.18 44.48,-216 37.17,-235.79 39.34,-259.73 42.97,-277.79"/>
<polygon fill="black" stroke="black" points="39.59,-278.7 45.22,-287.67 46.41,-277.14 39.59,-278.7"/>
<g id="a_edge12&#45;headlabel"><a xlink:href="dir_000047_000030.html" target="_top" xlink:title="3">
<text text-anchor="middle" x="36.02" y="-273.32" font-family="Helvetica,sans-Serif" font-size="10.00">3</text>
</a>
</g>
</g>
<!-- dir_636445051267db0da9873ee5fca752ef&#45;&gt;dir_00cea25d4360966f2fbb8df56cdad836 -->
<g id="edge7" class="edge">
<title>dir_636445051267db0da9873ee5fca752ef&#45;&gt;dir_00cea25d4360966f2fbb8df56cdad836</title>
<path fill="none" stroke="black" d="M124.4,-95.52C97,-101.58 55.63,-115.14 33.48,-144 13.78,-169.68 -16.39,-317.84 11.48,-351 25.48,-367.65 83.78,-373.64 123.17,-375.79"/>
<polygon fill="black" stroke="black" points="123.07,-379.29 133.23,-376.28 123.41,-372.3 123.07,-379.29"/>
<g id="a_edge7&#45;headlabel"><a xlink:href="dir_000047_000045.html" target="_top" xlink:title="2">
<text text-anchor="middle" x="119.34" y="-379.45" font-family="Helvetica,sans-Serif" font-size="10.00">2</text>
</a>
</g>
</g>
<!-- dir_636445051267db0da9873ee5fca752ef&#45;&gt;dir_fd773920032524e4bfcd78f5916cd097 -->
<g id="edge8" class="edge">
<title>dir_636445051267db0da9873ee5fca752ef&#45;&gt;dir_fd773920032524e4bfcd78f5916cd097</title>
<path fill="none" stroke="black" d="M152.24,-71.7C154.49,-63.73 157.99,-54.1 161.79,-45.26"/>
<polygon fill="black" stroke="black" points="165.01,-46.65 165.99,-36.1 158.64,-43.74 165.01,-46.65"/>
<g id="a_edge8&#45;headlabel"><a xlink:href="dir_000047_000033.html" target="_top" xlink:title="4">
<text text-anchor="middle" x="166.09" y="-48.6" font-family="Helvetica,sans-Serif" font-size="10.00">4</text>
</a>
</g>
</g>
<!-- dir_636445051267db0da9873ee5fca752ef&#45;&gt;dir_b7264726bdfa508dc9a1f79664d9f9a2 -->
<g id="edge9" class="edge">
<title>dir_636445051267db0da9873ee5fca752ef&#45;&gt;dir_b7264726bdfa508dc9a1f79664d9f9a2</title>
<path fill="none" stroke="black" d="M178.65,-103.24C194.21,-112.83 212.6,-127.31 224.48,-144 253.16,-184.26 260,-243.28 258.65,-277.56"/>
<polygon fill="black" stroke="black" points="255.15,-277.54 257.95,-287.76 262.13,-278.03 255.15,-277.54"/>
<g id="a_edge9&#45;headlabel"><a xlink:href="dir_000047_000007.html" target="_top" xlink:title="17">
<text text-anchor="middle" x="252.56" y="-271.26" font-family="Helvetica,sans-Serif" font-size="10.00">17</text>
</a>
</g>
</g>
<!-- dir_636445051267db0da9873ee5fca752ef&#45;&gt;dir_5646c4a3c156db227fe899778b3c4cdf -->
<g id="edge10" class="edge">
<title>dir_636445051267db0da9873ee5fca752ef&#45;&gt;dir_5646c4a3c156db227fe899778b3c4cdf</title>
<path fill="none" stroke="black" d="M164.22,-108.1C168.14,-115.88 172.13,-125.26 175.26,-133.95"/>
<polygon fill="black" stroke="black" points="172.02,-135.3 178.48,-143.7 178.66,-133.1 172.02,-135.3"/>
<g id="a_edge10&#45;headlabel"><a xlink:href="dir_000047_000002.html" target="_top" xlink:title="10">
<text text-anchor="middle" x="168.19" y="-130.28" font-family="Helvetica,sans-Serif" font-size="10.00">10</text>
</a>
</g>
</g>
<!-- dir_636445051267db0da9873ee5fca752ef&#45;&gt;dir_89a2a0f8e65887f6f5e7f07c9ce97f37 -->
<g id="edge11" class="edge">
<title>dir_636445051267db0da9873ee5fca752ef&#45;&gt;dir_89a2a0f8e65887f6f5e7f07c9ce97f37</title>
<path fill="none" stroke="black" d="M148.22,-108.19C143.61,-132.42 135.15,-176.89 129.68,-205.68"/>
<polygon fill="black" stroke="black" points="126.17,-205.39 127.74,-215.87 133.05,-206.7 126.17,-205.39"/>
<g id="a_edge11&#45;headlabel"><a xlink:href="dir_000047_000019.html" target="_top" xlink:title="5">
<text text-anchor="middle" x="124.05" y="-198.83" font-family="Helvetica,sans-Serif" font-size="10.00">5</text>
</a>
</g>
</g>
<!-- dir_b7264726bdfa508dc9a1f79664d9f9a2&#45;&gt;dir_00cea25d4360966f2fbb8df56cdad836 -->
<g id="edge13" class="edge">
<title>dir_b7264726bdfa508dc9a1f79664d9f9a2&#45;&gt;dir_00cea25d4360966f2fbb8df56cdad836</title>
<path fill="none" stroke="black" d="M246.93,-324.24C240.44,-332.98 230.65,-343.33 220.48,-351 213.39,-356.35 205.04,-361.13 196.78,-365.09"/>
<polygon fill="black" stroke="black" points="195.28,-361.93 187.58,-369.2 198.13,-368.32 195.28,-361.93"/>
<g id="a_edge13&#45;headlabel"><a xlink:href="dir_000007_000045.html" target="_top" xlink:title="5">
<text text-anchor="middle" x="197.41" y="-355.37" font-family="Helvetica,sans-Serif" font-size="10.00">5</text>
</a>
</g>
</g>
<!-- dir_b7264726bdfa508dc9a1f79664d9f9a2&#45;&gt;dir_fd773920032524e4bfcd78f5916cd097 -->
<g id="edge14" class="edge">
<title>dir_b7264726bdfa508dc9a1f79664d9f9a2&#45;&gt;dir_fd773920032524e4bfcd78f5916cd097</title>
<path fill="none" stroke="black" d="M252.09,-287.7C254.96,-277.52 259.46,-264.27 261.48,-252 264.09,-236.21 264.05,-231.79 261.48,-216 250.8,-150.16 211.03,-81.35 190.38,-45.04"/>
<polygon fill="black" stroke="black" points="193.3,-43.1 185.34,-36.11 187.21,-46.54 193.3,-43.1"/>
<g id="a_edge14&#45;headlabel"><a xlink:href="dir_000007_000033.html" target="_top" xlink:title="6">
<text text-anchor="middle" x="197.54" y="-42.33" font-family="Helvetica,sans-Serif" font-size="10.00">6</text>
</a>
</g>
</g>
<!-- dir_b7264726bdfa508dc9a1f79664d9f9a2&#45;&gt;dir_636445051267db0da9873ee5fca752ef -->
<g id="edge15" class="edge">
<title>dir_b7264726bdfa508dc9a1f79664d9f9a2&#45;&gt;dir_636445051267db0da9873ee5fca752ef</title>
<path fill="none" stroke="black" d="M247.42,-287.76C243.22,-256.28 238.27,-188.62 206.48,-144 198.56,-132.87 187.74,-122.73 177.71,-114.36"/>
<polygon fill="black" stroke="black" points="179.88,-111.61 169.9,-108.04 175.48,-117.05 179.88,-111.61"/>
<g id="a_edge15&#45;headlabel"><a xlink:href="dir_000007_000047.html" target="_top" xlink:title="13">
<text text-anchor="middle" x="184.46" y="-109.17" font-family="Helvetica,sans-Serif" font-size="10.00">13</text>
</a>
</g>
</g>
<!-- dir_b7264726bdfa508dc9a1f79664d9f9a2&#45;&gt;dir_5646c4a3c156db227fe899778b3c4cdf -->
<g id="edge16" class="edge">
<title>dir_b7264726bdfa508dc9a1f79664d9f9a2&#45;&gt;dir_5646c4a3c156db227fe899778b3c4cdf</title>
<path fill="none" stroke="black" d="M238.65,-288C228.54,-269.88 215.47,-240.5 202.48,-216 197.8,-207.17 192.3,-197.76 187.62,-189.36"/>
<polygon fill="black" stroke="black" points="190.61,-187.52 182.78,-180.38 184.45,-190.85 190.61,-187.52"/>
<g id="a_edge16&#45;headlabel"><a xlink:href="dir_000007_000002.html" target="_top" xlink:title="56">
<text text-anchor="middle" x="194.81" y="-186.83" font-family="Helvetica,sans-Serif" font-size="10.00">56</text>
</a>
</g>
</g>
<!-- dir_b7264726bdfa508dc9a1f79664d9f9a2&#45;&gt;dir_89a2a0f8e65887f6f5e7f07c9ce97f37 -->
<g id="edge17" class="edge">
<title>dir_b7264726bdfa508dc9a1f79664d9f9a2&#45;&gt;dir_89a2a0f8e65887f6f5e7f07c9ce97f37</title>
<path fill="none" stroke="black" d="M225.34,-290.15C206.42,-279.81 180.97,-265.89 160.38,-254.63"/>
<polygon fill="black" stroke="black" points="162.04,-251.55 151.59,-249.82 158.68,-257.69 162.04,-251.55"/>
<g id="a_edge17&#45;headlabel"><a xlink:href="dir_000007_000019.html" target="_top" xlink:title="7">
<text text-anchor="middle" x="166.56" y="-248.28" font-family="Helvetica,sans-Serif" font-size="10.00">7</text>
</a>
</g>
</g>
<!-- dir_5646c4a3c156db227fe899778b3c4cdf&#45;&gt;dir_38c79c2c60b3a2288bf5bca92c333acf -->
<g id="edge22" class="edge">
<title>dir_5646c4a3c156db227fe899778b3c4cdf&#45;&gt;dir_38c79c2c60b3a2288bf5bca92c333acf</title>
<path fill="none" stroke="black" d="M152.48,-173.23C132.53,-181.96 105.91,-196.27 88.48,-216 72.81,-233.74 62.88,-258.92 57.12,-277.97"/>
<polygon fill="black" stroke="black" points="53.68,-277.26 54.33,-287.83 60.42,-279.16 53.68,-277.26"/>
<g id="a_edge22&#45;headlabel"><a xlink:href="dir_000002_000030.html" target="_top" xlink:title="2">
<text text-anchor="middle" x="51.92" y="-270.53" font-family="Helvetica,sans-Serif" font-size="10.00">2</text>
</a>
</g>
</g>
<!-- dir_5646c4a3c156db227fe899778b3c4cdf&#45;&gt;dir_00cea25d4360966f2fbb8df56cdad836 -->
<g id="edge18" class="edge">
<title>dir_5646c4a3c156db227fe899778b3c4cdf&#45;&gt;dir_00cea25d4360966f2fbb8df56cdad836</title>
<path fill="none" stroke="black" d="M184.01,-180.18C186.42,-211.77 183.14,-281.44 174.26,-349.9"/>
<polygon fill="black" stroke="black" points="170.77,-349.61 172.91,-359.98 177.7,-350.54 170.77,-349.61"/>
<g id="a_edge18&#45;headlabel"><a xlink:href="dir_000002_000045.html" target="_top" xlink:title="2">
<text text-anchor="middle" x="168.43" y="-343.17" font-family="Helvetica,sans-Serif" font-size="10.00">2</text>
</a>
</g>
</g>
<!-- dir_5646c4a3c156db227fe899778b3c4cdf&#45;&gt;dir_636445051267db0da9873ee5fca752ef -->
<g id="edge19" class="edge">
<title>dir_5646c4a3c156db227fe899778b3c4cdf&#45;&gt;dir_636445051267db0da9873ee5fca752ef</title>
<path fill="none" stroke="black" d="M166.65,-143.7C162.72,-135.9 158.74,-126.51 155.63,-117.83"/>
<polygon fill="black" stroke="black" points="158.88,-116.51 152.43,-108.1 152.23,-118.7 158.88,-116.51"/>
<g id="a_edge19&#45;headlabel"><a xlink:href="dir_000002_000047.html" target="_top" xlink:title="8">
<text text-anchor="middle" x="162.7" y="-116.54" font-family="Helvetica,sans-Serif" font-size="10.00">8</text>
</a>
</g>
</g>
<!-- dir_5646c4a3c156db227fe899778b3c4cdf&#45;&gt;dir_b7264726bdfa508dc9a1f79664d9f9a2 -->
<g id="edge20" class="edge">
<title>dir_5646c4a3c156db227fe899778b3c4cdf&#45;&gt;dir_b7264726bdfa508dc9a1f79664d9f9a2</title>
<path fill="none" stroke="black" d="M198.53,-180.38C206.04,-190.59 214.04,-203.84 220.48,-216 231.39,-236.58 242.36,-260.6 248.82,-278.49"/>
<polygon fill="black" stroke="black" points="245.51,-279.62 252,-288 252.15,-277.4 245.51,-279.62"/>
<g id="a_edge20&#45;headlabel"><a xlink:href="dir_000002_000007.html" target="_top" xlink:title="38">
<text text-anchor="middle" x="241.68" y="-274.61" font-family="Helvetica,sans-Serif" font-size="10.00">38</text>
</a>
</g>
</g>
<!-- dir_5646c4a3c156db227fe899778b3c4cdf&#45;&gt;dir_89a2a0f8e65887f6f5e7f07c9ce97f37 -->
<g id="edge21" class="edge">
<title>dir_5646c4a3c156db227fe899778b3c4cdf&#45;&gt;dir_89a2a0f8e65887f6f5e7f07c9ce97f37</title>
<path fill="none" stroke="black" d="M171.94,-180.1C166.25,-188.47 158.41,-198.69 150.69,-207.92"/>
<polygon fill="black" stroke="black" points="147.87,-205.84 143.99,-215.7 153.17,-210.4 147.87,-205.84"/>
<g id="a_edge21&#45;headlabel"><a xlink:href="dir_000002_000019.html" target="_top" xlink:title="15">
<text text-anchor="middle" x="148.06" y="-198.76" font-family="Helvetica,sans-Serif" font-size="10.00">15</text>
</a>
</g>
</g>
<!-- dir_89a2a0f8e65887f6f5e7f07c9ce97f37&#45;&gt;dir_00cea25d4360966f2fbb8df56cdad836 -->
<g id="edge23" class="edge">
<title>dir_89a2a0f8e65887f6f5e7f07c9ce97f37&#45;&gt;dir_00cea25d4360966f2fbb8df56cdad836</title>
<path fill="none" stroke="black" d="M133.43,-252.19C142.13,-276.42 153.69,-320.89 159.01,-349.68"/>
<polygon fill="black" stroke="black" points="155.62,-350.59 160.73,-359.87 162.52,-349.43 155.62,-350.59"/>
<g id="a_edge23&#45;headlabel"><a xlink:href="dir_000019_000045.html" target="_top" xlink:title="8">
<text text-anchor="middle" x="152.22" y="-345.02" font-family="Helvetica,sans-Serif" font-size="10.00">8</text>
</a>
</g>
</g>
<!-- dir_89a2a0f8e65887f6f5e7f07c9ce97f37&#45;&gt;dir_5646c4a3c156db227fe899778b3c4cdf -->
<g id="edge24" class="edge">
<title>dir_89a2a0f8e65887f6f5e7f07c9ce97f37&#45;&gt;dir_5646c4a3c156db227fe899778b3c4cdf</title>
<path fill="none" stroke="black" d="M132.16,-215.7C137.89,-207.3 145.74,-197.07 153.46,-187.86"/>
<polygon fill="black" stroke="black" points="156.27,-189.96 160.15,-180.1 150.97,-185.39 156.27,-189.96"/>
<g id="a_edge24&#45;headlabel"><a xlink:href="dir_000019_000002.html" target="_top" xlink:title="8">
<text text-anchor="middle" x="156.07" y="-192.04" font-family="Helvetica,sans-Serif" font-size="10.00">8</text>
</a>
</g>
</g>
</g>
</svg>
