<?xml version="1.0" encoding="UTF-8" standalone="no"?>
<!DOCTYPE svg PUBLIC "-//W3C//DTD SVG 1.1//EN"
 "http://www.w3.org/Graphics/SVG/1.1/DTD/svg11.dtd">
<!-- Generated by graphviz version 2.43.0 (0)
 -->
<!-- Title: exp Pages: 1 -->
<svg width="485pt" height="404pt"
 viewBox="0.00 0.00 484.50 404.00" xmlns="http://www.w3.org/2000/svg" xmlns:xlink="http://www.w3.org/1999/xlink">
<g id="graph0" class="graph" transform="scale(1 1) rotate(0) translate(4 400)">
<title>exp</title>
<polygon fill="white" stroke="transparent" points="-4,4 -4,-400 480.5,-400 480.5,4 -4,4"/>
<g id="clust1" class="cluster">
<title>clusterdir_b7264726bdfa508dc9a1f79664d9f9a2</title>
<g id="a_clust1"><a xlink:href="dir_b7264726bdfa508dc9a1f79664d9f9a2.html" target="_top" xlink:title="ssl">
<polygon fill="#ddddee" stroke="black" points="107.5,-280 107.5,-351 177.5,-351 177.5,-280 107.5,-280"/>
<text text-anchor="middle" x="142.5" y="-339" font-family="Helvetica,sans-Serif" font-size="10.00">ssl</text>
</a>
</g>
</g>
<!-- dir_1cc991b776bed98ebc69792ba0e99102 -->
<g id="node1" class="node">
<title>dir_1cc991b776bed98ebc69792ba0e99102</title>
<g id="a_node1"><a xlink:href="dir_1cc991b776bed98ebc69792ba0e99102.html" target="_top" xlink:title="exp">
<polygon fill="#eeeeff" stroke="black" points="169.5,-324 115.5,-324 115.5,-288 169.5,-288 169.5,-324"/>
<text text-anchor="middle" x="142.5" y="-303.5" font-family="Helvetica,sans-Serif" font-size="10.00">exp</text>
</a>
</g>
</g>
<!-- dir_cacbc0f8d661c3f2ef6995c140cb013b -->
<g id="node2" class="node">
<title>dir_cacbc0f8d661c3f2ef6995c140cb013b</title>
<g id="a_node2"><a xlink:href="dir_cacbc0f8d661c3f2ef6995c140cb013b.html" target="_top" xlink:title="db">
<polygon fill="white" stroke="red" points="318.5,-396 264.5,-396 264.5,-360 318.5,-360 318.5,-396"/>
<text text-anchor="middle" x="291.5" y="-375.5" font-family="Helvetica,sans-Serif" font-size="10.00">db</text>
</a>
</g>
</g>
<!-- dir_1cc991b776bed98ebc69792ba0e99102&#45;&gt;dir_cacbc0f8d661c3f2ef6995c140cb013b -->
<g id="edge12" class="edge">
<title>dir_1cc991b776bed98ebc69792ba0e99102&#45;&gt;dir_cacbc0f8d661c3f2ef6995c140cb013b</title>
<path fill="none" stroke="black" d="M152.1,-324.09C161.24,-333.22 174.78,-343.99 188.5,-351 208.88,-361.41 233.95,-368.08 254.39,-372.05"/>
<polygon fill="black" stroke="black" points="253.85,-375.51 264.31,-373.84 255.09,-368.62 253.85,-375.51"/>
<g id="a_edge12&#45;headlabel"><a xlink:href="dir_000016_000014.html" target="_top" xlink:title="9">
<text text-anchor="middle" x="249.81" y="-375.17" font-family="Helvetica,sans-Serif" font-size="10.00">9</text>
</a>
</g>
</g>
<!-- dir_014c721151abc8438874b072d5fa83c2 -->
<g id="node3" class="node">
<title>dir_014c721151abc8438874b072d5fa83c2</title>
<g id="a_node3"><a xlink:href="dir_014c721151abc8438874b072d5fa83c2.html" target="_top" xlink:title="visitor">
<polygon fill="white" stroke="red" points="318.5,-324 264.5,-324 264.5,-288 318.5,-288 318.5,-324"/>
<text text-anchor="middle" x="291.5" y="-303.5" font-family="Helvetica,sans-Serif" font-size="10.00">visitor</text>
</a>
</g>
</g>
<!-- dir_1cc991b776bed98ebc69792ba0e99102&#45;&gt;dir_014c721151abc8438874b072d5fa83c2 -->
<g id="edge13" class="edge">
<title>dir_1cc991b776bed98ebc69792ba0e99102&#45;&gt;dir_014c721151abc8438874b072d5fa83c2</title>
<path fill="none" stroke="black" d="M169.57,-306C197.71,-306 225.85,-306 253.99,-306"/>
<polygon fill="black" stroke="black" points="254.35,-309.5 264.35,-306 254.35,-302.5 254.35,-309.5"/>
<g id="a_edge13&#45;headlabel"><a xlink:href="dir_000016_000012.html" target="_top" xlink:title="27">
<text text-anchor="middle" x="250.76" y="-309.84" font-family="Helvetica,sans-Serif" font-size="10.00">27</text>
</a>
</g>
</g>
<!-- dir_5646c4a3c156db227fe899778b3c4cdf -->
<g id="node4" class="node">
<title>dir_5646c4a3c156db227fe899778b3c4cdf</title>
<g id="a_node4"><a xlink:href="dir_5646c4a3c156db227fe899778b3c4cdf.html" target="_top" xlink:title="util">
<polygon fill="white" stroke="red" points="270.5,-108 216.5,-108 216.5,-72 270.5,-72 270.5,-108"/>
<text text-anchor="middle" x="243.5" y="-87.5" font-family="Helvetica,sans-Serif" font-size="10.00">util</text>
</a>
</g>
</g>
<!-- dir_1cc991b776bed98ebc69792ba0e99102&#45;&gt;dir_5646c4a3c156db227fe899778b3c4cdf -->
<g id="edge14" class="edge">
<title>dir_1cc991b776bed98ebc69792ba0e99102&#45;&gt;dir_5646c4a3c156db227fe899778b3c4cdf</title>
<path fill="none" stroke="black" d="M144.27,-287.71C146.59,-269.35 151.58,-239.77 161.5,-216 177.15,-178.51 204.33,-140.13 223.08,-115.96"/>
<polygon fill="black" stroke="black" points="225.88,-118.06 229.32,-108.03 220.39,-113.72 225.88,-118.06"/>
<g id="a_edge14&#45;headlabel"><a xlink:href="dir_000016_000002.html" target="_top" xlink:title="17">
<text text-anchor="middle" x="225.89" y="-120.14" font-family="Helvetica,sans-Serif" font-size="10.00">17</text>
</a>
</g>
</g>
<!-- dir_89a2a0f8e65887f6f5e7f07c9ce97f37 -->
<g id="node5" class="node">
<title>dir_89a2a0f8e65887f6f5e7f07c9ce97f37</title>
<g id="a_node5"><a xlink:href="dir_89a2a0f8e65887f6f5e7f07c9ce97f37.html" target="_top" xlink:title="core">
<polygon fill="white" stroke="red" points="130.5,-180 76.5,-180 76.5,-144 130.5,-144 130.5,-180"/>
<text text-anchor="middle" x="103.5" y="-159.5" font-family="Helvetica,sans-Serif" font-size="10.00">core</text>
</a>
</g>
</g>
<!-- dir_1cc991b776bed98ebc69792ba0e99102&#45;&gt;dir_89a2a0f8e65887f6f5e7f07c9ce97f37 -->
<g id="edge15" class="edge">
<title>dir_1cc991b776bed98ebc69792ba0e99102&#45;&gt;dir_89a2a0f8e65887f6f5e7f07c9ce97f37</title>
<path fill="none" stroke="black" d="M137.8,-287.87C131.12,-263.56 118.83,-218.82 110.92,-190.01"/>
<polygon fill="black" stroke="black" points="114.25,-188.91 108.22,-180.19 107.5,-190.76 114.25,-188.91"/>
<g id="a_edge15&#45;headlabel"><a xlink:href="dir_000016_000019.html" target="_top" xlink:title="2">
<text text-anchor="middle" x="117.94" y="-189.12" font-family="Helvetica,sans-Serif" font-size="10.00">2</text>
</a>
</g>
</g>
<!-- dir_ce2dbf2f59050224e9f81d9bf5259747 -->
<g id="node6" class="node">
<title>dir_ce2dbf2f59050224e9f81d9bf5259747</title>
<g id="a_node6"><a xlink:href="dir_ce2dbf2f59050224e9f81d9bf5259747.html" target="_top" xlink:title="statements">
<polygon fill="none" stroke="black" points="279.5,-36 207.5,-36 207.5,0 279.5,0 279.5,-36"/>
<text text-anchor="middle" x="243.5" y="-15.5" font-family="Helvetica,sans-Serif" font-size="10.00">statements</text>
</a>
</g>
</g>
<!-- dir_1cc991b776bed98ebc69792ba0e99102&#45;&gt;dir_ce2dbf2f59050224e9f81d9bf5259747 -->
<g id="edge16" class="edge">
<title>dir_1cc991b776bed98ebc69792ba0e99102&#45;&gt;dir_ce2dbf2f59050224e9f81d9bf5259747</title>
<path fill="none" stroke="black" d="M115.3,-300.08C89.47,-293.8 52.07,-280.18 34.5,-252 -7.81,-184.1 -14.62,-135.14 34.5,-72 54.3,-46.55 142.1,-31.35 197.42,-24.13"/>
<polygon fill="black" stroke="black" points="197.86,-27.6 207.34,-22.88 196.98,-20.66 197.86,-27.6"/>
<g id="a_edge16&#45;headlabel"><a xlink:href="dir_000016_000009.html" target="_top" xlink:title="2">
<text text-anchor="middle" x="194.65" y="-28.37" font-family="Helvetica,sans-Serif" font-size="10.00">2</text>
</a>
</g>
</g>
<!-- dir_175e5c1b3af505175d15180c337822cd -->
<g id="node7" class="node">
<title>dir_175e5c1b3af505175d15180c337822cd</title>
<g id="a_node7"><a xlink:href="dir_175e5c1b3af505175d15180c337822cd.html" target="_top" xlink:title="type">
<polygon fill="none" stroke="black" points="224.5,-252 170.5,-252 170.5,-216 224.5,-216 224.5,-252"/>
<text text-anchor="middle" x="197.5" y="-231.5" font-family="Helvetica,sans-Serif" font-size="10.00">type</text>
</a>
</g>
</g>
<!-- dir_1cc991b776bed98ebc69792ba0e99102&#45;&gt;dir_175e5c1b3af505175d15180c337822cd -->
<g id="edge17" class="edge">
<title>dir_1cc991b776bed98ebc69792ba0e99102&#45;&gt;dir_175e5c1b3af505175d15180c337822cd</title>
<path fill="none" stroke="black" d="M150.18,-287.7C155.91,-279.3 163.76,-269.07 171.48,-259.86"/>
<polygon fill="black" stroke="black" points="174.29,-261.96 178.17,-252.1 168.99,-257.39 174.29,-261.96"/>
<g id="a_edge17&#45;headlabel"><a xlink:href="dir_000016_000008.html" target="_top" xlink:title="28">
<text text-anchor="middle" x="174.09" y="-264.04" font-family="Helvetica,sans-Serif" font-size="10.00">28</text>
</a>
</g>
</g>
<!-- dir_cacbc0f8d661c3f2ef6995c140cb013b&#45;&gt;dir_1cc991b776bed98ebc69792ba0e99102 -->
<g id="edge2" class="edge">
<title>dir_cacbc0f8d661c3f2ef6995c140cb013b&#45;&gt;dir_1cc991b776bed98ebc69792ba0e99102</title>
<path fill="none" stroke="black" d="M264.35,-370.81C247.11,-366.74 224.9,-360.4 206.5,-351 195.89,-345.58 185.39,-337.91 175.95,-330.49"/>
<polygon fill="black" stroke="black" points="177.95,-327.61 167.96,-324.09 173.58,-333.07 177.95,-327.61"/>
<g id="a_edge2&#45;headlabel"><a xlink:href="dir_000014_000016.html" target="_top" xlink:title="56">
<text text-anchor="middle" x="182.53" y="-325.14" font-family="Helvetica,sans-Serif" font-size="10.00">56</text>
</a>
</g>
</g>
<!-- dir_cacbc0f8d661c3f2ef6995c140cb013b&#45;&gt;dir_014c721151abc8438874b072d5fa83c2 -->
<g id="edge1" class="edge">
<title>dir_cacbc0f8d661c3f2ef6995c140cb013b&#45;&gt;dir_014c721151abc8438874b072d5fa83c2</title>
<path fill="none" stroke="black" d="M285.59,-359.7C284.79,-351.98 284.56,-342.71 284.91,-334.11"/>
<polygon fill="black" stroke="black" points="288.4,-334.32 285.61,-324.1 281.42,-333.84 288.4,-334.32"/>
<g id="a_edge1&#45;headlabel"><a xlink:href="dir_000014_000012.html" target="_top" xlink:title="5">
<text text-anchor="middle" x="290.98" y="-335.61" font-family="Helvetica,sans-Serif" font-size="10.00">5</text>
</a>
</g>
</g>
<!-- dir_cacbc0f8d661c3f2ef6995c140cb013b&#45;&gt;dir_5646c4a3c156db227fe899778b3c4cdf -->
<g id="edge3" class="edge">
<title>dir_cacbc0f8d661c3f2ef6995c140cb013b&#45;&gt;dir_5646c4a3c156db227fe899778b3c4cdf</title>
<path fill="none" stroke="black" d="M311.9,-359.92C314.5,-357.27 316.82,-354.29 318.5,-351 332.87,-322.9 323.52,-311.15 318.5,-280 308.37,-217.14 302.73,-200.56 273.5,-144 268.6,-134.51 262.07,-124.88 256.2,-116.48"/>
<polygon fill="black" stroke="black" points="259.03,-114.41 250.42,-108.23 253.29,-118.43 259.03,-114.41"/>
<g id="a_edge3&#45;headlabel"><a xlink:href="dir_000014_000002.html" target="_top" xlink:title="55">
<text text-anchor="middle" x="263.41" y="-113.22" font-family="Helvetica,sans-Serif" font-size="10.00">55</text>
</a>
</g>
</g>
<!-- dir_cacbc0f8d661c3f2ef6995c140cb013b&#45;&gt;dir_89a2a0f8e65887f6f5e7f07c9ce97f37 -->
<g id="edge4" class="edge">
<title>dir_cacbc0f8d661c3f2ef6995c140cb013b&#45;&gt;dir_89a2a0f8e65887f6f5e7f07c9ce97f37</title>
<path fill="none" stroke="black" d="M264.27,-377.4C215.15,-377.66 115.77,-375.41 94.5,-351 55.37,-306.08 72.04,-229.64 88.09,-189.47"/>
<polygon fill="black" stroke="black" points="91.4,-190.64 92.13,-180.07 84.97,-187.88 91.4,-190.64"/>
<g id="a_edge4&#45;headlabel"><a xlink:href="dir_000014_000019.html" target="_top" xlink:title="14">
<text text-anchor="middle" x="92.59" y="-192.57" font-family="Helvetica,sans-Serif" font-size="10.00">14</text>
</a>
</g>
</g>
<!-- dir_cacbc0f8d661c3f2ef6995c140cb013b&#45;&gt;dir_ce2dbf2f59050224e9f81d9bf5259747 -->
<g id="edge5" class="edge">
<title>dir_cacbc0f8d661c3f2ef6995c140cb013b&#45;&gt;dir_ce2dbf2f59050224e9f81d9bf5259747</title>
<path fill="none" stroke="black" d="M318.62,-367.19C366.09,-349.67 458.5,-307.83 458.5,-235 458.5,-235 458.5,-235 458.5,-161 458.5,-79.92 352.53,-43.2 289.29,-28.17"/>
<polygon fill="black" stroke="black" points="290.06,-24.76 279.53,-25.94 288.5,-31.58 290.06,-24.76"/>
<g id="a_edge5&#45;headlabel"><a xlink:href="dir_000014_000009.html" target="_top" xlink:title="23">
<text text-anchor="middle" x="294.2" y="-20.29" font-family="Helvetica,sans-Serif" font-size="10.00">23</text>
</a>
</g>
</g>
<!-- dir_cacbc0f8d661c3f2ef6995c140cb013b&#45;&gt;dir_175e5c1b3af505175d15180c337822cd -->
<g id="edge6" class="edge">
<title>dir_cacbc0f8d661c3f2ef6995c140cb013b&#45;&gt;dir_175e5c1b3af505175d15180c337822cd</title>
<path fill="none" stroke="black" d="M264.39,-366.09C257.82,-361.92 251.4,-356.76 246.5,-351 223.79,-324.28 207.25,-287.14 199.8,-262.14"/>
<polygon fill="black" stroke="black" points="203.12,-261.01 197.17,-252.24 196.35,-262.8 203.12,-261.01"/>
<g id="a_edge6&#45;headlabel"><a xlink:href="dir_000014_000008.html" target="_top" xlink:title="35">
<text text-anchor="middle" x="206.78" y="-261.25" font-family="Helvetica,sans-Serif" font-size="10.00">35</text>
</a>
</g>
</g>
<!-- dir_014c721151abc8438874b072d5fa83c2&#45;&gt;dir_cacbc0f8d661c3f2ef6995c140cb013b -->
<g id="edge7" class="edge">
<title>dir_014c721151abc8438874b072d5fa83c2&#45;&gt;dir_cacbc0f8d661c3f2ef6995c140cb013b</title>
<path fill="none" stroke="black" d="M297.4,-324.1C298.2,-331.79 298.44,-341.05 298.11,-349.67"/>
<polygon fill="black" stroke="black" points="294.61,-349.48 297.42,-359.7 301.59,-349.96 294.61,-349.48"/>
<g id="a_edge7&#45;headlabel"><a xlink:href="dir_000012_000014.html" target="_top" xlink:title="15">
<text text-anchor="middle" x="292.02" y="-343.2" font-family="Helvetica,sans-Serif" font-size="10.00">15</text>
</a>
</g>
</g>
<!-- dir_014c721151abc8438874b072d5fa83c2&#45;&gt;dir_5646c4a3c156db227fe899778b3c4cdf -->
<g id="edge8" class="edge">
<title>dir_014c721151abc8438874b072d5fa83c2&#45;&gt;dir_5646c4a3c156db227fe899778b3c4cdf</title>
<path fill="none" stroke="black" d="M283.78,-287.85C271.94,-250.83 252.01,-163.18 244.95,-118.39"/>
<polygon fill="black" stroke="black" points="248.38,-117.63 243.48,-108.23 241.45,-118.63 248.38,-117.63"/>
<g id="a_edge8&#45;headlabel"><a xlink:href="dir_000012_000002.html" target="_top" xlink:title="7">
<text text-anchor="middle" x="251.7" y="-118.28" font-family="Helvetica,sans-Serif" font-size="10.00">7</text>
</a>
</g>
</g>
<!-- dir_014c721151abc8438874b072d5fa83c2&#45;&gt;dir_89a2a0f8e65887f6f5e7f07c9ce97f37 -->
<g id="edge9" class="edge">
<title>dir_014c721151abc8438874b072d5fa83c2&#45;&gt;dir_89a2a0f8e65887f6f5e7f07c9ce97f37</title>
<path fill="none" stroke="black" d="M284.12,-287.67C274.91,-267.89 257.39,-235.73 233.5,-216 206.3,-193.54 168.31,-179.54 140.42,-171.61"/>
<polygon fill="black" stroke="black" points="141.2,-168.19 130.64,-168.95 139.37,-174.95 141.2,-168.19"/>
<g id="a_edge9&#45;headlabel"><a xlink:href="dir_000012_000019.html" target="_top" xlink:title="7">
<text text-anchor="middle" x="145.42" y="-163.89" font-family="Helvetica,sans-Serif" font-size="10.00">7</text>
</a>
</g>
</g>
<!-- dir_014c721151abc8438874b072d5fa83c2&#45;&gt;dir_ce2dbf2f59050224e9f81d9bf5259747 -->
<g id="edge10" class="edge">
<title>dir_014c721151abc8438874b072d5fa83c2&#45;&gt;dir_ce2dbf2f59050224e9f81d9bf5259747</title>
<path fill="none" stroke="black" d="M289.41,-287.91C290.24,-248.37 299.22,-148.18 270.5,-72 266.93,-62.52 261.34,-53.08 256.03,-44.85"/>
<polygon fill="black" stroke="black" points="258.92,-42.87 250.49,-36.45 253.08,-46.72 258.92,-42.87"/>
<g id="a_edge10&#45;headlabel"><a xlink:href="dir_000012_000009.html" target="_top" xlink:title="33">
<text text-anchor="middle" x="263.27" y="-41.8" font-family="Helvetica,sans-Serif" font-size="10.00">33</text>
</a>
</g>
</g>
<!-- dir_014c721151abc8438874b072d5fa83c2&#45;&gt;dir_175e5c1b3af505175d15180c337822cd -->
<g id="edge11" class="edge">
<title>dir_014c721151abc8438874b072d5fa83c2&#45;&gt;dir_175e5c1b3af505175d15180c337822cd</title>
<path fill="none" stroke="black" d="M268.27,-287.7C256.31,-278.8 241.58,-267.82 228.65,-258.2"/>
<polygon fill="black" stroke="black" points="230.58,-255.27 220.47,-252.1 226.4,-260.88 230.58,-255.27"/>
<g id="a_edge11&#45;headlabel"><a xlink:href="dir_000012_000008.html" target="_top" xlink:title="8">
<text text-anchor="middle" x="235.16" y="-252.64" font-family="Helvetica,sans-Serif" font-size="10.00">8</text>
</a>
</g>
</g>
<!-- dir_5646c4a3c156db227fe899778b3c4cdf&#45;&gt;dir_cacbc0f8d661c3f2ef6995c140cb013b -->
<g id="edge18" class="edge">
<title>dir_5646c4a3c156db227fe899778b3c4cdf&#45;&gt;dir_cacbc0f8d661c3f2ef6995c140cb013b</title>
<path fill="none" stroke="black" d="M266.27,-108.23C275.34,-118.17 284.89,-131.21 291.5,-144 320.73,-200.56 326.37,-217.14 336.5,-280 341.52,-311.15 350.87,-322.9 336.5,-351 334.29,-355.32 330.99,-359.09 327.14,-362.31"/>
<polygon fill="black" stroke="black" points="324.88,-359.62 318.63,-368.18 328.85,-365.39 324.88,-359.62"/>
<g id="a_edge18&#45;headlabel"><a xlink:href="dir_000002_000014.html" target="_top" xlink:title="16">
<text text-anchor="middle" x="326.23" y="-352.75" font-family="Helvetica,sans-Serif" font-size="10.00">16</text>
</a>
</g>
</g>
<!-- dir_5646c4a3c156db227fe899778b3c4cdf&#45;&gt;dir_014c721151abc8438874b072d5fa83c2 -->
<g id="edge19" class="edge">
<title>dir_5646c4a3c156db227fe899778b3c4cdf&#45;&gt;dir_014c721151abc8438874b072d5fa83c2</title>
<path fill="none" stroke="black" d="M251.25,-108.23C263.1,-145.32 283.03,-232.98 290.07,-277.71"/>
<polygon fill="black" stroke="black" points="286.64,-278.45 291.53,-287.85 293.57,-277.45 286.64,-278.45"/>
<g id="a_edge19&#45;headlabel"><a xlink:href="dir_000002_000012.html" target="_top" xlink:title="2">
<text text-anchor="middle" x="283.31" y="-272.8" font-family="Helvetica,sans-Serif" font-size="10.00">2</text>
</a>
</g>
</g>
<!-- dir_5646c4a3c156db227fe899778b3c4cdf&#45;&gt;dir_89a2a0f8e65887f6f5e7f07c9ce97f37 -->
<g id="edge20" class="edge">
<title>dir_5646c4a3c156db227fe899778b3c4cdf&#45;&gt;dir_89a2a0f8e65887f6f5e7f07c9ce97f37</title>
<path fill="none" stroke="black" d="M216.31,-107.51C194.48,-119.06 163.82,-134.37 139.91,-145.65"/>
<polygon fill="black" stroke="black" points="138.36,-142.51 130.77,-149.91 141.32,-148.85 138.36,-142.51"/>
<g id="a_edge20&#45;headlabel"><a xlink:href="dir_000002_000019.html" target="_top" xlink:title="15">
<text text-anchor="middle" x="140.41" y="-135.92" font-family="Helvetica,sans-Serif" font-size="10.00">15</text>
</a>
</g>
</g>
<!-- dir_5646c4a3c156db227fe899778b3c4cdf&#45;&gt;dir_ce2dbf2f59050224e9f81d9bf5259747 -->
<g id="edge21" class="edge">
<title>dir_5646c4a3c156db227fe899778b3c4cdf&#45;&gt;dir_ce2dbf2f59050224e9f81d9bf5259747</title>
<path fill="none" stroke="black" d="M237.59,-71.7C236.79,-63.98 236.56,-54.71 236.91,-46.11"/>
<polygon fill="black" stroke="black" points="240.4,-46.32 237.61,-36.1 233.42,-45.84 240.4,-46.32"/>
<g id="a_edge21&#45;headlabel"><a xlink:href="dir_000002_000009.html" target="_top" xlink:title="4">
<text text-anchor="middle" x="242.98" y="-47.61" font-family="Helvetica,sans-Serif" font-size="10.00">4</text>
</a>
</g>
</g>
<!-- dir_5646c4a3c156db227fe899778b3c4cdf&#45;&gt;dir_175e5c1b3af505175d15180c337822cd -->
<g id="edge22" class="edge">
<title>dir_5646c4a3c156db227fe899778b3c4cdf&#45;&gt;dir_175e5c1b3af505175d15180c337822cd</title>
<path fill="none" stroke="black" d="M242.52,-108.19C237.18,-132.64 222.86,-177.67 211.51,-206.44"/>
<polygon fill="black" stroke="black" points="208.2,-205.29 207.64,-215.87 214.67,-207.95 208.2,-205.29"/>
<g id="a_edge22&#45;headlabel"><a xlink:href="dir_000002_000008.html" target="_top" xlink:title="3">
<text text-anchor="middle" x="206.93" y="-198.39" font-family="Helvetica,sans-Serif" font-size="10.00">3</text>
</a>
</g>
</g>
<!-- dir_89a2a0f8e65887f6f5e7f07c9ce97f37&#45;&gt;dir_cacbc0f8d661c3f2ef6995c140cb013b -->
<g id="edge29" class="edge">
<title>dir_89a2a0f8e65887f6f5e7f07c9ce97f37&#45;&gt;dir_cacbc0f8d661c3f2ef6995c140cb013b</title>
<path fill="none" stroke="black" d="M101.8,-180.07C93.27,-216.46 70.05,-302.27 112.5,-351 130.81,-372.02 207.05,-376.61 254.04,-377.31"/>
<polygon fill="black" stroke="black" points="254.13,-380.81 264.16,-377.41 254.19,-373.81 254.13,-380.81"/>
<g id="a_edge29&#45;headlabel"><a xlink:href="dir_000019_000014.html" target="_top" xlink:title="2">
<text text-anchor="middle" x="250.51" y="-381.11" font-family="Helvetica,sans-Serif" font-size="10.00">2</text>
</a>
</g>
</g>
<!-- dir_89a2a0f8e65887f6f5e7f07c9ce97f37&#45;&gt;dir_5646c4a3c156db227fe899778b3c4cdf -->
<g id="edge30" class="edge">
<title>dir_89a2a0f8e65887f6f5e7f07c9ce97f37&#45;&gt;dir_5646c4a3c156db227fe899778b3c4cdf</title>
<path fill="none" stroke="black" d="M130.51,-144.59C152.34,-133.03 183.12,-117.66 207.11,-106.35"/>
<polygon fill="black" stroke="black" points="208.69,-109.47 216.27,-102.07 205.73,-103.13 208.69,-109.47"/>
<g id="a_edge30&#45;headlabel"><a xlink:href="dir_000019_000002.html" target="_top" xlink:title="8">
<text text-anchor="middle" x="206.63" y="-111.07" font-family="Helvetica,sans-Serif" font-size="10.00">8</text>
</a>
</g>
</g>
<!-- dir_ce2dbf2f59050224e9f81d9bf5259747&#45;&gt;dir_1cc991b776bed98ebc69792ba0e99102 -->
<g id="edge25" class="edge">
<title>dir_ce2dbf2f59050224e9f81d9bf5259747&#45;&gt;dir_1cc991b776bed98ebc69792ba0e99102</title>
<path fill="none" stroke="black" d="M207.44,-27.98C180.27,-36.1 143.25,-50.18 116.5,-72 86.51,-96.47 78.9,-107.01 67.5,-144 52,-194.32 90.54,-249.13 117.93,-280.07"/>
<polygon fill="black" stroke="black" points="115.63,-282.74 124.96,-287.76 120.8,-278.02 115.63,-282.74"/>
<g id="a_edge25&#45;headlabel"><a xlink:href="dir_000009_000016.html" target="_top" xlink:title="32">
<text text-anchor="middle" x="111.11" y="-279.5" font-family="Helvetica,sans-Serif" font-size="10.00">32</text>
</a>
</g>
</g>
<!-- dir_ce2dbf2f59050224e9f81d9bf5259747&#45;&gt;dir_cacbc0f8d661c3f2ef6995c140cb013b -->
<g id="edge23" class="edge">
<title>dir_ce2dbf2f59050224e9f81d9bf5259747&#45;&gt;dir_cacbc0f8d661c3f2ef6995c140cb013b</title>
<path fill="none" stroke="black" d="M279.61,-23.87C345.2,-35.46 476.5,-70.75 476.5,-161 476.5,-235 476.5,-235 476.5,-235 476.5,-308.55 382.25,-350.5 328.16,-367.71"/>
<polygon fill="black" stroke="black" points="327.11,-364.37 318.57,-370.64 329.15,-371.07 327.11,-364.37"/>
<g id="a_edge23&#45;headlabel"><a xlink:href="dir_000009_000014.html" target="_top" xlink:title="22">
<text text-anchor="middle" x="329.72" y="-358.11" font-family="Helvetica,sans-Serif" font-size="10.00">22</text>
</a>
</g>
</g>
<!-- dir_ce2dbf2f59050224e9f81d9bf5259747&#45;&gt;dir_014c721151abc8438874b072d5fa83c2 -->
<g id="edge24" class="edge">
<title>dir_ce2dbf2f59050224e9f81d9bf5259747&#45;&gt;dir_014c721151abc8438874b072d5fa83c2</title>
<path fill="none" stroke="black" d="M266.44,-36.45C275.04,-46.26 283.64,-59.09 288.5,-72 315.03,-142.38 309.39,-233.25 300.85,-277.85"/>
<polygon fill="black" stroke="black" points="297.37,-277.39 298.7,-287.91 304.22,-278.86 297.37,-277.39"/>
<g id="a_edge24&#45;headlabel"><a xlink:href="dir_000009_000012.html" target="_top" xlink:title="54">
<text text-anchor="middle" x="295.35" y="-270.78" font-family="Helvetica,sans-Serif" font-size="10.00">54</text>
</a>
</g>
</g>
<!-- dir_ce2dbf2f59050224e9f81d9bf5259747&#45;&gt;dir_5646c4a3c156db227fe899778b3c4cdf -->
<g id="edge26" class="edge">
<title>dir_ce2dbf2f59050224e9f81d9bf5259747&#45;&gt;dir_5646c4a3c156db227fe899778b3c4cdf</title>
<path fill="none" stroke="black" d="M249.4,-36.1C250.2,-43.79 250.44,-53.05 250.11,-61.67"/>
<polygon fill="black" stroke="black" points="246.61,-61.48 249.42,-71.7 253.59,-61.96 246.61,-61.48"/>
<g id="a_edge26&#45;headlabel"><a xlink:href="dir_000009_000002.html" target="_top" xlink:title="16">
<text text-anchor="middle" x="244.02" y="-55.2" font-family="Helvetica,sans-Serif" font-size="10.00">16</text>
</a>
</g>
</g>
<!-- dir_ce2dbf2f59050224e9f81d9bf5259747&#45;&gt;dir_89a2a0f8e65887f6f5e7f07c9ce97f37 -->
<g id="edge27" class="edge">
<title>dir_ce2dbf2f59050224e9f81d9bf5259747&#45;&gt;dir_89a2a0f8e65887f6f5e7f07c9ce97f37</title>
<path fill="none" stroke="black" d="M207.31,-31.67C186.75,-40.38 161.75,-53.69 144.5,-72 127.99,-89.53 117.2,-114.89 110.86,-134.05"/>
<polygon fill="black" stroke="black" points="107.48,-133.12 107.86,-143.71 114.17,-135.2 107.48,-133.12"/>
<g id="a_edge27&#45;headlabel"><a xlink:href="dir_000009_000019.html" target="_top" xlink:title="3">
<text text-anchor="middle" x="105.84" y="-126.34" font-family="Helvetica,sans-Serif" font-size="10.00">3</text>
</a>
</g>
</g>
<!-- dir_ce2dbf2f59050224e9f81d9bf5259747&#45;&gt;dir_175e5c1b3af505175d15180c337822cd -->
<g id="edge28" class="edge">
<title>dir_ce2dbf2f59050224e9f81d9bf5259747&#45;&gt;dir_175e5c1b3af505175d15180c337822cd</title>
<path fill="none" stroke="black" d="M228.22,-36.33C220.55,-46.11 211.96,-58.95 207.5,-72 192.12,-117 192.75,-173.14 194.91,-205.84"/>
<polygon fill="black" stroke="black" points="191.43,-206.28 195.68,-215.98 198.41,-205.74 191.43,-206.28"/>
<g id="a_edge28&#45;headlabel"><a xlink:href="dir_000009_000008.html" target="_top" xlink:title="16">
<text text-anchor="middle" x="188.33" y="-200.41" font-family="Helvetica,sans-Serif" font-size="10.00">16</text>
</a>
</g>
</g>
<!-- dir_175e5c1b3af505175d15180c337822cd&#45;&gt;dir_1cc991b776bed98ebc69792ba0e99102 -->
<g id="edge32" class="edge">
<title>dir_175e5c1b3af505175d15180c337822cd&#45;&gt;dir_1cc991b776bed98ebc69792ba0e99102</title>
<path fill="none" stroke="black" d="M189.96,-252.1C184.26,-260.47 176.43,-270.69 168.71,-279.92"/>
<polygon fill="black" stroke="black" points="165.89,-277.84 162.01,-287.7 171.19,-282.4 165.89,-277.84"/>
<g id="a_edge32&#45;headlabel"><a xlink:href="dir_000008_000016.html" target="_top" xlink:title="5">
<text text-anchor="middle" x="166.08" y="-270.76" font-family="Helvetica,sans-Serif" font-size="10.00">5</text>
</a>
</g>
</g>
<!-- dir_175e5c1b3af505175d15180c337822cd&#45;&gt;dir_cacbc0f8d661c3f2ef6995c140cb013b -->
<g id="edge31" class="edge">
<title>dir_175e5c1b3af505175d15180c337822cd&#45;&gt;dir_cacbc0f8d661c3f2ef6995c140cb013b</title>
<path fill="none" stroke="black" d="M209.12,-252.24C220.64,-276.31 238.55,-320.46 264.5,-351 265.01,-351.59 265.53,-352.18 266.07,-352.76"/>
<polygon fill="black" stroke="black" points="263.92,-355.56 273.58,-359.91 268.74,-350.48 263.92,-355.56"/>
<g id="a_edge31&#45;headlabel"><a xlink:href="dir_000008_000014.html" target="_top" xlink:title="4">
<text text-anchor="middle" x="259.36" y="-352.64" font-family="Helvetica,sans-Serif" font-size="10.00">4</text>
</a>
</g>
</g>
<!-- dir_175e5c1b3af505175d15180c337822cd&#45;&gt;dir_5646c4a3c156db227fe899778b3c4cdf -->
<g id="edge33" class="edge">
<title>dir_175e5c1b3af505175d15180c337822cd&#45;&gt;dir_5646c4a3c156db227fe899778b3c4cdf</title>
<path fill="none" stroke="black" d="M198.47,-215.87C203.79,-191.46 218.11,-146.43 229.47,-117.64"/>
<polygon fill="black" stroke="black" points="232.79,-118.77 233.34,-108.19 226.31,-116.11 232.79,-118.77"/>
<g id="a_edge33&#45;headlabel"><a xlink:href="dir_000008_000002.html" target="_top" xlink:title="10">
<text text-anchor="middle" x="234.05" y="-120.67" font-family="Helvetica,sans-Serif" font-size="10.00">10</text>
</a>
</g>
</g>
<!-- dir_175e5c1b3af505175d15180c337822cd&#45;&gt;dir_89a2a0f8e65887f6f5e7f07c9ce97f37 -->
<g id="edge34" class="edge">
<title>dir_175e5c1b3af505175d15180c337822cd&#45;&gt;dir_89a2a0f8e65887f6f5e7f07c9ce97f37</title>
<path fill="none" stroke="black" d="M174.27,-215.7C162.31,-206.8 147.58,-195.82 134.65,-186.2"/>
<polygon fill="black" stroke="black" points="136.58,-183.27 126.47,-180.1 132.4,-188.88 136.58,-183.27"/>
<g id="a_edge34&#45;headlabel"><a xlink:href="dir_000008_000019.html" target="_top" xlink:title="1">
<text text-anchor="middle" x="141.16" y="-180.64" font-family="Helvetica,sans-Serif" font-size="10.00">1</text>
</a>
</g>
</g>
</g>
</svg>
