<?xml version="1.0" encoding="UTF-8" standalone="no"?>
<!DOCTYPE svg PUBLIC "-//W3C//DTD SVG 1.1//EN"
 "http://www.w3.org/Graphics/SVG/1.1/DTD/svg11.dtd">
<!-- Generated by graphviz version 2.43.0 (0)
 -->
<!-- Title: early Pages: 1 -->
<!--zoomable 511 -->
<svg id="main" version="1.1" xmlns="http://www.w3.org/2000/svg" xmlns:xlink="http://www.w3.org/1999/xlink" xml:space="preserve" onload="init(evt)">
<style type="text/css"><![CDATA[
.edge:hover path { stroke: red; }
.edge:hover polygon { stroke: red; fill: red; }
]]></style>
<script type="text/javascript"><![CDATA[
var edges = document.getElementsByTagName('g');
if (edges && edges.length) {
  for (var i=0;i<edges.length;i++) {
    if (edges[i].id.substr(0,4)=='edge') {
      edges[i].setAttribute('class','edge');
    }
  }
}
]]></script>
        <defs>
                <circle id="rim" cx="0" cy="0" r="7"/>
                <circle id="rim2" cx="0" cy="0" r="3.5"/>
                <g id="zoomPlus">
                        <use xlink:href="#rim" fill="#404040">
                                <set attributeName="fill" to="#808080" begin="zoomplus.mouseover" end="zoomplus.mouseout"/>
                        </use>
                        <path d="M-4,0h8M0,-4v8" fill="none" stroke="white" stroke-width="1.5" pointer-events="none"/>
                </g>
                <g id="zoomMin">
                        <use xlink:href="#rim" fill="#404040">
                                <set attributeName="fill" to="#808080" begin="zoomminus.mouseover" end="zoomminus.mouseout"/>
                        </use>
                        <path d="M-4,0h8" fill="none" stroke="white" stroke-width="1.5" pointer-events="none"/>
                </g>
                <g id="dirArrow">
                        <path fill="none" stroke="white" stroke-width="1.5" d="M0,-3.0v7 M-2.5,-0.5L0,-3.0L2.5,-0.5"/>
                </g>
               <g id="resetDef">
                       <use xlink:href="#rim2" fill="#404040">
                               <set attributeName="fill" to="#808080" begin="reset.mouseover" end="reset.mouseout"/>
                       </use>
               </g>
        </defs>

<script type="text/javascript">
var viewWidth = 437;
var viewHeight = 511;
var sectionId = 'dynsection-0';
</script>
<script xlink:href="svgpan.js"/>
<svg id="graph" class="graph">
<g id="viewport">
<title>early</title>
<polygon fill="white" stroke="transparent" points="-4,4 -4,-507 432.67,-507 432.67,4 -4,4"/>
<g id="clust1" class="cluster">
<title>clusterdir_3731137dd4cde3a8f32b6960f0d2e696</title>
<g id="a_clust1"><a xlink:href="dir_3731137dd4cde3a8f32b6960f0d2e696.html" target="_top" xlink:title="passes">
<polygon fill="#ddddee" stroke="black" points="209,-424 209,-495 279,-495 279,-424 209,-424"/>
<text text-anchor="middle" x="244" y="-483" font-family="Helvetica,sans-Serif" font-size="10.00">passes</text>
</a>
</g>
</g>
<!-- dir_fcc89f6ed6254cf0f66598ecc284e899 -->
<g id="node1" class="node">
<title>dir_fcc89f6ed6254cf0f66598ecc284e899</title>
<g id="a_node1"><a xlink:href="dir_fcc89f6ed6254cf0f66598ecc284e899.html" target="_top" xlink:title="early">
<polygon fill="#eeeeff" stroke="black" points="271,-468 217,-468 217,-432 271,-432 271,-468"/>
<text text-anchor="middle" x="244" y="-447.5" font-family="Helvetica,sans-Serif" font-size="10.00">early</text>
</a>
</g>
</g>
<!-- dir_cacbc0f8d661c3f2ef6995c140cb013b -->
<g id="node2" class="node">
<title>dir_cacbc0f8d661c3f2ef6995c140cb013b</title>
<g id="a_node2"><a xlink:href="dir_cacbc0f8d661c3f2ef6995c140cb013b.html" target="_top" xlink:title="db">
<polygon fill="white" stroke="red" points="299,-396 245,-396 245,-360 299,-360 299,-396"/>
<text text-anchor="middle" x="272" y="-375.5" font-family="Helvetica,sans-Serif" font-size="10.00">db</text>
</a>
</g>
</g>
<!-- dir_fcc89f6ed6254cf0f66598ecc284e899&#45;&gt;dir_cacbc0f8d661c3f2ef6995c140cb013b -->
<g id="edge15" class="edge">
<title>dir_fcc89f6ed6254cf0f66598ecc284e899&#45;&gt;dir_cacbc0f8d661c3f2ef6995c140cb013b</title>
<path fill="none" stroke="black" d="M250.92,-431.7C254.07,-423.81 257.88,-414.3 261.38,-405.55"/>
<polygon fill="black" stroke="black" points="264.69,-406.69 265.16,-396.1 258.19,-404.09 264.69,-406.69"/>
<g id="a_edge15&#45;headlabel"><a xlink:href="dir_000015_000014.html" target="_top" xlink:title="12">
<text text-anchor="middle" x="266" y="-408.58" font-family="Helvetica,sans-Serif" font-size="10.00">12</text>
</a>
</g>
</g>
<!-- dir_014c721151abc8438874b072d5fa83c2 -->
<g id="node3" class="node">
<title>dir_014c721151abc8438874b072d5fa83c2</title>
<g id="a_node3"><a xlink:href="dir_014c721151abc8438874b072d5fa83c2.html" target="_top" xlink:title="visitor">
<polygon fill="white" stroke="red" points="187,-324 133,-324 133,-288 187,-288 187,-324"/>
<text text-anchor="middle" x="160" y="-303.5" font-family="Helvetica,sans-Serif" font-size="10.00">visitor</text>
</a>
</g>
</g>
<!-- dir_fcc89f6ed6254cf0f66598ecc284e899&#45;&gt;dir_014c721151abc8438874b072d5fa83c2 -->
<g id="edge16" class="edge">
<title>dir_fcc89f6ed6254cf0f66598ecc284e899&#45;&gt;dir_014c721151abc8438874b072d5fa83c2</title>
<path fill="none" stroke="black" d="M233.87,-431.87C219.3,-407.24 192.32,-361.64 175.31,-332.88"/>
<polygon fill="black" stroke="black" points="178.27,-331.01 170.17,-324.19 172.25,-334.58 178.27,-331.01"/>
<g id="a_edge16&#45;headlabel"><a xlink:href="dir_000015_000012.html" target="_top" xlink:title="2">
<text text-anchor="middle" x="182.55" y="-330.16" font-family="Helvetica,sans-Serif" font-size="10.00">2</text>
</a>
</g>
</g>
<!-- dir_1670a14e30757f4c1b31e1e530e46487 -->
<g id="node4" class="node">
<title>dir_1670a14e30757f4c1b31e1e530e46487</title>
<g id="a_node4"><a xlink:href="dir_1670a14e30757f4c1b31e1e530e46487.html" target="_top" xlink:title="decomp">
<polygon fill="none" stroke="black" points="402,-180 346,-180 346,-144 402,-144 402,-180"/>
<text text-anchor="middle" x="374" y="-159.5" font-family="Helvetica,sans-Serif" font-size="10.00">decomp</text>
</a>
</g>
</g>
<!-- dir_fcc89f6ed6254cf0f66598ecc284e899&#45;&gt;dir_1670a14e30757f4c1b31e1e530e46487 -->
<g id="edge17" class="edge">
<title>dir_fcc89f6ed6254cf0f66598ecc284e899&#45;&gt;dir_1670a14e30757f4c1b31e1e530e46487</title>
<path fill="none" stroke="black" d="M271.09,-438.03C289.6,-429.24 313.35,-415.19 328,-396 375.13,-334.29 377.81,-237.27 375.94,-190.3"/>
<polygon fill="black" stroke="black" points="379.43,-190.08 375.43,-180.27 372.44,-190.43 379.43,-190.08"/>
<g id="a_edge17&#45;headlabel"><a xlink:href="dir_000015_000029.html" target="_top" xlink:title="1">
<text text-anchor="middle" x="382.45" y="-191.03" font-family="Helvetica,sans-Serif" font-size="10.00">1</text>
</a>
</g>
</g>
<!-- dir_b7264726bdfa508dc9a1f79664d9f9a2 -->
<g id="node5" class="node">
<title>dir_b7264726bdfa508dc9a1f79664d9f9a2</title>
<g id="a_node5"><a xlink:href="dir_b7264726bdfa508dc9a1f79664d9f9a2.html" target="_top" xlink:title="ssl">
<polygon fill="white" stroke="red" points="242,-36 188,-36 188,0 242,0 242,-36"/>
<text text-anchor="middle" x="215" y="-15.5" font-family="Helvetica,sans-Serif" font-size="10.00">ssl</text>
</a>
</g>
</g>
<!-- dir_fcc89f6ed6254cf0f66598ecc284e899&#45;&gt;dir_b7264726bdfa508dc9a1f79664d9f9a2 -->
<g id="edge18" class="edge">
<title>dir_fcc89f6ed6254cf0f66598ecc284e899&#45;&gt;dir_b7264726bdfa508dc9a1f79664d9f9a2</title>
<path fill="none" stroke="black" d="M216.96,-446.05C153.43,-437.49 0,-406.5 0,-307 0,-307 0,-307 0,-161 0,-76.85 116.1,-39.7 177.66,-25.91"/>
<polygon fill="black" stroke="black" points="178.72,-29.26 187.77,-23.74 177.26,-22.42 178.72,-29.26"/>
<g id="a_edge18&#45;headlabel"><a xlink:href="dir_000015_000007.html" target="_top" xlink:title="6">
<text text-anchor="middle" x="175.8" y="-30.29" font-family="Helvetica,sans-Serif" font-size="10.00">6</text>
</a>
</g>
</g>
<!-- dir_5646c4a3c156db227fe899778b3c4cdf -->
<g id="node6" class="node">
<title>dir_5646c4a3c156db227fe899778b3c4cdf</title>
<g id="a_node6"><a xlink:href="dir_5646c4a3c156db227fe899778b3c4cdf.html" target="_top" xlink:title="util">
<polygon fill="white" stroke="red" points="242,-108 188,-108 188,-72 242,-72 242,-108"/>
<text text-anchor="middle" x="215" y="-87.5" font-family="Helvetica,sans-Serif" font-size="10.00">util</text>
</a>
</g>
</g>
<!-- dir_fcc89f6ed6254cf0f66598ecc284e899&#45;&gt;dir_5646c4a3c156db227fe899778b3c4cdf -->
<g id="edge19" class="edge">
<title>dir_fcc89f6ed6254cf0f66598ecc284e899&#45;&gt;dir_5646c4a3c156db227fe899778b3c4cdf</title>
<path fill="none" stroke="black" d="M218.17,-431.94C188.7,-410.73 142.25,-371.45 124,-324 94.78,-248.03 157.12,-158.41 192.62,-115.85"/>
<polygon fill="black" stroke="black" points="195.29,-118.1 199.11,-108.22 189.97,-113.57 195.29,-118.1"/>
<g id="a_edge19&#45;headlabel"><a xlink:href="dir_000015_000002.html" target="_top" xlink:title="3">
<text text-anchor="middle" x="195.12" y="-120.18" font-family="Helvetica,sans-Serif" font-size="10.00">3</text>
</a>
</g>
</g>
<!-- dir_89a2a0f8e65887f6f5e7f07c9ce97f37 -->
<g id="node7" class="node">
<title>dir_89a2a0f8e65887f6f5e7f07c9ce97f37</title>
<g id="a_node7"><a xlink:href="dir_89a2a0f8e65887f6f5e7f07c9ce97f37.html" target="_top" xlink:title="core">
<polygon fill="white" stroke="red" points="326,-252 272,-252 272,-216 326,-216 326,-252"/>
<text text-anchor="middle" x="299" y="-231.5" font-family="Helvetica,sans-Serif" font-size="10.00">core</text>
</a>
</g>
</g>
<!-- dir_fcc89f6ed6254cf0f66598ecc284e899&#45;&gt;dir_89a2a0f8e65887f6f5e7f07c9ce97f37 -->
<g id="edge20" class="edge">
<title>dir_fcc89f6ed6254cf0f66598ecc284e899&#45;&gt;dir_89a2a0f8e65887f6f5e7f07c9ce97f37</title>
<path fill="none" stroke="black" d="M271.01,-434.35C284.77,-425.28 300.21,-412.27 308,-396 328.73,-352.71 317.65,-295.19 308.08,-261.92"/>
<polygon fill="black" stroke="black" points="311.33,-260.57 305.07,-252.02 304.63,-262.61 311.33,-260.57"/>
<g id="a_edge20&#45;headlabel"><a xlink:href="dir_000015_000019.html" target="_top" xlink:title="1">
<text text-anchor="middle" x="315.09" y="-260.68" font-family="Helvetica,sans-Serif" font-size="10.00">1</text>
</a>
</g>
</g>
<!-- dir_cacbc0f8d661c3f2ef6995c140cb013b&#45;&gt;dir_014c721151abc8438874b072d5fa83c2 -->
<g id="edge1" class="edge">
<title>dir_cacbc0f8d661c3f2ef6995c140cb013b&#45;&gt;dir_014c721151abc8438874b072d5fa83c2</title>
<path fill="none" stroke="black" d="M244.95,-363.5C228.36,-353.96 207.22,-340.94 190.11,-329.8"/>
<polygon fill="black" stroke="black" points="191.86,-326.76 181.58,-324.18 188.01,-332.61 191.86,-326.76"/>
<g id="a_edge1&#45;headlabel"><a xlink:href="dir_000014_000012.html" target="_top" xlink:title="5">
<text text-anchor="middle" x="196.42" y="-323.87" font-family="Helvetica,sans-Serif" font-size="10.00">5</text>
</a>
</g>
</g>
<!-- dir_cacbc0f8d661c3f2ef6995c140cb013b&#45;&gt;dir_1670a14e30757f4c1b31e1e530e46487 -->
<g id="edge2" class="edge">
<title>dir_cacbc0f8d661c3f2ef6995c140cb013b&#45;&gt;dir_1670a14e30757f4c1b31e1e530e46487</title>
<path fill="none" stroke="black" d="M277.49,-359.97C283.91,-349.88 293.16,-336.63 300,-324 324.6,-278.61 345.38,-221.88 359.13,-189.31"/>
<polygon fill="black" stroke="black" points="362.4,-190.58 363.17,-180.02 355.98,-187.79 362.4,-190.58"/>
<g id="a_edge2&#45;headlabel"><a xlink:href="dir_000014_000029.html" target="_top" xlink:title="1">
<text text-anchor="middle" x="363.57" y="-192.51" font-family="Helvetica,sans-Serif" font-size="10.00">1</text>
</a>
</g>
</g>
<!-- dir_cacbc0f8d661c3f2ef6995c140cb013b&#45;&gt;dir_b7264726bdfa508dc9a1f79664d9f9a2 -->
<g id="edge3" class="edge">
<title>dir_cacbc0f8d661c3f2ef6995c140cb013b&#45;&gt;dir_b7264726bdfa508dc9a1f79664d9f9a2</title>
<path fill="none" stroke="black" d="M291.96,-359.91C304.67,-350.57 320.54,-338.05 332,-324 386.25,-257.48 429.14,-225.43 402,-144 389.35,-106.05 380.03,-95.96 348,-72 319.1,-50.38 280.41,-36.71 252.09,-28.68"/>
<polygon fill="black" stroke="black" points="252.74,-25.23 242.17,-25.98 250.9,-31.99 252.74,-25.23"/>
<g id="a_edge3&#45;headlabel"><a xlink:href="dir_000014_000007.html" target="_top" xlink:title="122">
<text text-anchor="middle" x="256.95" y="-20.94" font-family="Helvetica,sans-Serif" font-size="10.00">122</text>
</a>
</g>
</g>
<!-- dir_cacbc0f8d661c3f2ef6995c140cb013b&#45;&gt;dir_5646c4a3c156db227fe899778b3c4cdf -->
<g id="edge4" class="edge">
<title>dir_cacbc0f8d661c3f2ef6995c140cb013b&#45;&gt;dir_5646c4a3c156db227fe899778b3c4cdf</title>
<path fill="none" stroke="black" d="M265.19,-359.97C251.49,-312.19 224.22,-176.62 216.27,-118.27"/>
<polygon fill="black" stroke="black" points="219.73,-117.79 215.01,-108.31 212.79,-118.67 219.73,-117.79"/>
<g id="a_edge4&#45;headlabel"><a xlink:href="dir_000014_000002.html" target="_top" xlink:title="55">
<text text-anchor="middle" x="223" y="-118.5" font-family="Helvetica,sans-Serif" font-size="10.00">55</text>
</a>
</g>
</g>
<!-- dir_cacbc0f8d661c3f2ef6995c140cb013b&#45;&gt;dir_89a2a0f8e65887f6f5e7f07c9ce97f37 -->
<g id="edge5" class="edge">
<title>dir_cacbc0f8d661c3f2ef6995c140cb013b&#45;&gt;dir_89a2a0f8e65887f6f5e7f07c9ce97f37</title>
<path fill="none" stroke="black" d="M270.67,-359.87C272.72,-335.56 280.95,-290.82 288.43,-262.01"/>
<polygon fill="black" stroke="black" points="291.86,-262.76 291.14,-252.19 285.11,-260.9 291.86,-262.76"/>
<g id="a_edge5&#45;headlabel"><a xlink:href="dir_000014_000019.html" target="_top" xlink:title="14">
<text text-anchor="middle" x="293.64" y="-264.48" font-family="Helvetica,sans-Serif" font-size="10.00">14</text>
</a>
</g>
</g>
<!-- dir_014c721151abc8438874b072d5fa83c2&#45;&gt;dir_cacbc0f8d661c3f2ef6995c140cb013b -->
<g id="edge6" class="edge">
<title>dir_014c721151abc8438874b072d5fa83c2&#45;&gt;dir_cacbc0f8d661c3f2ef6995c140cb013b</title>
<path fill="none" stroke="black" d="M187.35,-320.67C203.94,-330.22 224.99,-343.19 242.01,-354.28"/>
<polygon fill="black" stroke="black" points="240.22,-357.29 250.5,-359.88 244.08,-351.45 240.22,-357.29"/>
<g id="a_edge6&#45;headlabel"><a xlink:href="dir_000012_000014.html" target="_top" xlink:title="15">
<text text-anchor="middle" x="235.66" y="-355.18" font-family="Helvetica,sans-Serif" font-size="10.00">15</text>
</a>
</g>
</g>
<!-- dir_014c721151abc8438874b072d5fa83c2&#45;&gt;dir_b7264726bdfa508dc9a1f79664d9f9a2 -->
<g id="edge7" class="edge">
<title>dir_014c721151abc8438874b072d5fa83c2&#45;&gt;dir_b7264726bdfa508dc9a1f79664d9f9a2</title>
<path fill="none" stroke="black" d="M153.73,-287.97C146.26,-248.56 142.01,-148.63 170,-72 173.55,-62.28 179.27,-52.63 185.55,-44.28"/>
<polygon fill="black" stroke="black" points="188.36,-46.37 191.95,-36.41 182.93,-41.96 188.36,-46.37"/>
<g id="a_edge7&#45;headlabel"><a xlink:href="dir_000012_000007.html" target="_top" xlink:title="112">
<text text-anchor="middle" x="188.29" y="-48.45" font-family="Helvetica,sans-Serif" font-size="10.00">112</text>
</a>
</g>
</g>
<!-- dir_014c721151abc8438874b072d5fa83c2&#45;&gt;dir_5646c4a3c156db227fe899778b3c4cdf -->
<g id="edge8" class="edge">
<title>dir_014c721151abc8438874b072d5fa83c2&#45;&gt;dir_5646c4a3c156db227fe899778b3c4cdf</title>
<path fill="none" stroke="black" d="M156.76,-287.78C157.25,-258 167.02,-195.14 183,-144 185.78,-135.1 189.58,-125.67 193.72,-117.27"/>
<polygon fill="black" stroke="black" points="196.88,-118.78 198.5,-108.31 190.7,-115.48 196.88,-118.78"/>
<g id="a_edge8&#45;headlabel"><a xlink:href="dir_000012_000002.html" target="_top" xlink:title="7">
<text text-anchor="middle" x="197.69" y="-120.79" font-family="Helvetica,sans-Serif" font-size="10.00">7</text>
</a>
</g>
</g>
<!-- dir_014c721151abc8438874b072d5fa83c2&#45;&gt;dir_89a2a0f8e65887f6f5e7f07c9ce97f37 -->
<g id="edge9" class="edge">
<title>dir_014c721151abc8438874b072d5fa83c2&#45;&gt;dir_89a2a0f8e65887f6f5e7f07c9ce97f37</title>
<path fill="none" stroke="black" d="M187.13,-291.34C208.75,-280.45 239.22,-265.1 262.9,-253.18"/>
<polygon fill="black" stroke="black" points="264.58,-256.25 271.94,-248.63 261.43,-250 264.58,-256.25"/>
<g id="a_edge9&#45;headlabel"><a xlink:href="dir_000012_000019.html" target="_top" xlink:title="7">
<text text-anchor="middle" x="262.65" y="-257.9" font-family="Helvetica,sans-Serif" font-size="10.00">7</text>
</a>
</g>
</g>
<!-- dir_1670a14e30757f4c1b31e1e530e46487&#45;&gt;dir_cacbc0f8d661c3f2ef6995c140cb013b -->
<g id="edge10" class="edge">
<title>dir_1670a14e30757f4c1b31e1e530e46487&#45;&gt;dir_cacbc0f8d661c3f2ef6995c140cb013b</title>
<path fill="none" stroke="black" d="M373.93,-180.02C367.64,-210.03 345.14,-273.91 318,-324 312.81,-333.57 306.25,-343.5 299.6,-352.14"/>
<polygon fill="black" stroke="black" points="296.82,-350 293.24,-359.97 302.26,-354.41 296.82,-350"/>
<g id="a_edge10&#45;headlabel"><a xlink:href="dir_000029_000014.html" target="_top" xlink:title="22">
<text text-anchor="middle" x="296.88" y="-342.92" font-family="Helvetica,sans-Serif" font-size="10.00">22</text>
</a>
</g>
</g>
<!-- dir_1670a14e30757f4c1b31e1e530e46487&#45;&gt;dir_014c721151abc8438874b072d5fa83c2 -->
<g id="edge11" class="edge">
<title>dir_1670a14e30757f4c1b31e1e530e46487&#45;&gt;dir_014c721151abc8438874b072d5fa83c2</title>
<path fill="none" stroke="black" d="M345.99,-173.91C322.87,-183.49 289.63,-198.59 263,-216 234.01,-234.95 204.46,-261.37 184.49,-280.5"/>
<polygon fill="black" stroke="black" points="181.81,-278.22 177.07,-287.69 186.68,-283.25 181.81,-278.22"/>
<g id="a_edge11&#45;headlabel"><a xlink:href="dir_000029_000012.html" target="_top" xlink:title="2">
<text text-anchor="middle" x="182.41" y="-271.18" font-family="Helvetica,sans-Serif" font-size="10.00">2</text>
</a>
</g>
</g>
<!-- dir_1670a14e30757f4c1b31e1e530e46487&#45;&gt;dir_b7264726bdfa508dc9a1f79664d9f9a2 -->
<g id="edge12" class="edge">
<title>dir_1670a14e30757f4c1b31e1e530e46487&#45;&gt;dir_b7264726bdfa508dc9a1f79664d9f9a2</title>
<path fill="none" stroke="black" d="M369.77,-143.82C364.15,-124.17 352.45,-92.14 332,-72 309.84,-50.18 277.09,-36.4 251.87,-28.38"/>
<polygon fill="black" stroke="black" points="252.86,-25.02 242.27,-25.49 250.84,-31.72 252.86,-25.02"/>
<g id="a_edge12&#45;headlabel"><a xlink:href="dir_000029_000007.html" target="_top" xlink:title="26">
<text text-anchor="middle" x="257.12" y="-20.84" font-family="Helvetica,sans-Serif" font-size="10.00">26</text>
</a>
</g>
</g>
<!-- dir_1670a14e30757f4c1b31e1e530e46487&#45;&gt;dir_5646c4a3c156db227fe899778b3c4cdf -->
<g id="edge13" class="edge">
<title>dir_1670a14e30757f4c1b31e1e530e46487&#45;&gt;dir_5646c4a3c156db227fe899778b3c4cdf</title>
<path fill="none" stroke="black" d="M345.94,-148.65C319.67,-137.08 280.26,-119.73 251.54,-107.09"/>
<polygon fill="black" stroke="black" points="252.81,-103.82 242.25,-103 249.99,-110.23 252.81,-103.82"/>
<g id="a_edge13&#45;headlabel"><a xlink:href="dir_000029_000002.html" target="_top" xlink:title="10">
<text text-anchor="middle" x="257.24" y="-100.17" font-family="Helvetica,sans-Serif" font-size="10.00">10</text>
</a>
</g>
</g>
<!-- dir_1670a14e30757f4c1b31e1e530e46487&#45;&gt;dir_89a2a0f8e65887f6f5e7f07c9ce97f37 -->
<g id="edge14" class="edge">
<title>dir_1670a14e30757f4c1b31e1e530e46487&#45;&gt;dir_89a2a0f8e65887f6f5e7f07c9ce97f37</title>
<path fill="none" stroke="black" d="M361.57,-180.1C353.16,-188.8 341.86,-199.52 331.12,-209.03"/>
<polygon fill="black" stroke="black" points="328.71,-206.49 323.46,-215.7 333.3,-211.78 328.71,-206.49"/>
<g id="a_edge14&#45;headlabel"><a xlink:href="dir_000029_000019.html" target="_top" xlink:title="15">
<text text-anchor="middle" x="329.56" y="-199.49" font-family="Helvetica,sans-Serif" font-size="10.00">15</text>
</a>
</g>
</g>
<!-- dir_b7264726bdfa508dc9a1f79664d9f9a2&#45;&gt;dir_cacbc0f8d661c3f2ef6995c140cb013b -->
<g id="edge21" class="edge">
<title>dir_b7264726bdfa508dc9a1f79664d9f9a2&#45;&gt;dir_cacbc0f8d661c3f2ef6995c140cb013b</title>
<path fill="none" stroke="black" d="M242.04,-22.95C274.49,-29.28 328.49,-43.94 366,-72 398.03,-95.96 407.35,-106.05 420,-144 447.14,-225.43 404.25,-257.48 350,-324 338.54,-338.06 322.65,-350.59 308.08,-359.93"/>
<polygon fill="black" stroke="black" points="305.94,-357.13 299.22,-365.32 309.59,-363.11 305.94,-357.13"/>
<g id="a_edge21&#45;headlabel"><a xlink:href="dir_000007_000014.html" target="_top" xlink:title="35">
<text text-anchor="middle" x="307.54" y="-350.34" font-family="Helvetica,sans-Serif" font-size="10.00">35</text>
</a>
</g>
</g>
<!-- dir_b7264726bdfa508dc9a1f79664d9f9a2&#45;&gt;dir_014c721151abc8438874b072d5fa83c2 -->
<g id="edge22" class="edge">
<title>dir_b7264726bdfa508dc9a1f79664d9f9a2&#45;&gt;dir_014c721151abc8438874b072d5fa83c2</title>
<path fill="none" stroke="black" d="M207.91,-36.41C201.33,-46.2 192.73,-59.04 188,-72 162.14,-142.79 163.8,-233.47 163.23,-277.95"/>
<polygon fill="black" stroke="black" points="159.73,-277.9 163.02,-287.97 166.73,-278.04 159.73,-277.9"/>
<g id="a_edge22&#45;headlabel"><a xlink:href="dir_000007_000012.html" target="_top" xlink:title="81">
<text text-anchor="middle" x="156.96" y="-271.75" font-family="Helvetica,sans-Serif" font-size="10.00">81</text>
</a>
</g>
</g>
<!-- dir_b7264726bdfa508dc9a1f79664d9f9a2&#45;&gt;dir_5646c4a3c156db227fe899778b3c4cdf -->
<g id="edge23" class="edge">
<title>dir_b7264726bdfa508dc9a1f79664d9f9a2&#45;&gt;dir_5646c4a3c156db227fe899778b3c4cdf</title>
<path fill="none" stroke="black" d="M220.9,-36.1C221.7,-43.79 221.94,-53.05 221.6,-61.67"/>
<polygon fill="black" stroke="black" points="218.11,-61.48 220.92,-71.7 225.09,-61.96 218.11,-61.48"/>
<g id="a_edge23&#45;headlabel"><a xlink:href="dir_000007_000002.html" target="_top" xlink:title="56">
<text text-anchor="middle" x="215.52" y="-55.2" font-family="Helvetica,sans-Serif" font-size="10.00">56</text>
</a>
</g>
</g>
<!-- dir_b7264726bdfa508dc9a1f79664d9f9a2&#45;&gt;dir_89a2a0f8e65887f6f5e7f07c9ce97f37 -->
<g id="edge24" class="edge">
<title>dir_b7264726bdfa508dc9a1f79664d9f9a2&#45;&gt;dir_89a2a0f8e65887f6f5e7f07c9ce97f37</title>
<path fill="none" stroke="black" d="M227.98,-36.08C235.3,-46.19 244.3,-59.44 251,-72 267.23,-102.44 269.92,-111.01 280,-144 286.22,-164.37 291.16,-187.96 294.44,-205.73"/>
<polygon fill="black" stroke="black" points="291.02,-206.48 296.22,-215.71 297.91,-205.25 291.02,-206.48"/>
<g id="a_edge24&#45;headlabel"><a xlink:href="dir_000007_000019.html" target="_top" xlink:title="7">
<text text-anchor="middle" x="287.59" y="-200.94" font-family="Helvetica,sans-Serif" font-size="10.00">7</text>
</a>
</g>
</g>
<!-- dir_5646c4a3c156db227fe899778b3c4cdf&#45;&gt;dir_cacbc0f8d661c3f2ef6995c140cb013b -->
<g id="edge25" class="edge">
<title>dir_5646c4a3c156db227fe899778b3c4cdf&#45;&gt;dir_cacbc0f8d661c3f2ef6995c140cb013b</title>
<path fill="none" stroke="black" d="M221.89,-108.31C235.61,-156.31 262.79,-291.44 270.73,-349.7"/>
<polygon fill="black" stroke="black" points="267.3,-350.48 272.02,-359.97 274.25,-349.61 267.3,-350.48"/>
<g id="a_edge25&#45;headlabel"><a xlink:href="dir_000002_000014.html" target="_top" xlink:title="16">
<text text-anchor="middle" x="264.04" y="-344.77" font-family="Helvetica,sans-Serif" font-size="10.00">16</text>
</a>
</g>
</g>
<!-- dir_5646c4a3c156db227fe899778b3c4cdf&#45;&gt;dir_014c721151abc8438874b072d5fa83c2 -->
<g id="edge26" class="edge">
<title>dir_5646c4a3c156db227fe899778b3c4cdf&#45;&gt;dir_014c721151abc8438874b072d5fa83c2</title>
<path fill="none" stroke="black" d="M214.25,-108.31C210.58,-118.5 204.83,-131.75 201,-144 186.65,-189.94 177.3,-245.35 170.02,-277.73"/>
<polygon fill="black" stroke="black" points="166.54,-277.24 167.63,-287.78 173.35,-278.86 166.54,-277.24"/>
<g id="a_edge26&#45;headlabel"><a xlink:href="dir_000002_000012.html" target="_top" xlink:title="2">
<text text-anchor="middle" x="164.61" y="-270.59" font-family="Helvetica,sans-Serif" font-size="10.00">2</text>
</a>
</g>
</g>
<!-- dir_5646c4a3c156db227fe899778b3c4cdf&#45;&gt;dir_b7264726bdfa508dc9a1f79664d9f9a2 -->
<g id="edge27" class="edge">
<title>dir_5646c4a3c156db227fe899778b3c4cdf&#45;&gt;dir_b7264726bdfa508dc9a1f79664d9f9a2</title>
<path fill="none" stroke="black" d="M209.08,-71.7C208.29,-63.98 208.06,-54.71 208.4,-46.11"/>
<polygon fill="black" stroke="black" points="211.9,-46.32 209.1,-36.1 204.92,-45.84 211.9,-46.32"/>
<g id="a_edge27&#45;headlabel"><a xlink:href="dir_000002_000007.html" target="_top" xlink:title="38">
<text text-anchor="middle" x="214.48" y="-47.61" font-family="Helvetica,sans-Serif" font-size="10.00">38</text>
</a>
</g>
</g>
<!-- dir_5646c4a3c156db227fe899778b3c4cdf&#45;&gt;dir_89a2a0f8e65887f6f5e7f07c9ce97f37 -->
<g id="edge28" class="edge">
<title>dir_5646c4a3c156db227fe899778b3c4cdf&#45;&gt;dir_89a2a0f8e65887f6f5e7f07c9ce97f37</title>
<path fill="none" stroke="black" d="M229.76,-108.19C246.87,-132.74 273.94,-178.07 288.88,-206.81"/>
<polygon fill="black" stroke="black" points="285.82,-208.52 293.45,-215.87 292.07,-205.37 285.82,-208.52"/>
<g id="a_edge28&#45;headlabel"><a xlink:href="dir_000002_000019.html" target="_top" xlink:title="15">
<text text-anchor="middle" x="281.67" y="-204.09" font-family="Helvetica,sans-Serif" font-size="10.00">15</text>
</a>
</g>
</g>
<!-- dir_89a2a0f8e65887f6f5e7f07c9ce97f37&#45;&gt;dir_cacbc0f8d661c3f2ef6995c140cb013b -->
<g id="edge29" class="edge">
<title>dir_89a2a0f8e65887f6f5e7f07c9ce97f37&#45;&gt;dir_cacbc0f8d661c3f2ef6995c140cb013b</title>
<path fill="none" stroke="black" d="M300.32,-252.19C298.26,-276.53 290.03,-321.28 282.55,-350.06"/>
<polygon fill="black" stroke="black" points="279.13,-349.3 279.84,-359.87 285.88,-351.16 279.13,-349.3"/>
<g id="a_edge29&#45;headlabel"><a xlink:href="dir_000019_000014.html" target="_top" xlink:title="2">
<text text-anchor="middle" x="277.35" y="-342.58" font-family="Helvetica,sans-Serif" font-size="10.00">2</text>
</a>
</g>
</g>
<!-- dir_89a2a0f8e65887f6f5e7f07c9ce97f37&#45;&gt;dir_1670a14e30757f4c1b31e1e530e46487 -->
<g id="edge30" class="edge">
<title>dir_89a2a0f8e65887f6f5e7f07c9ce97f37&#45;&gt;dir_1670a14e30757f4c1b31e1e530e46487</title>
<path fill="none" stroke="black" d="M311.62,-215.7C320.08,-206.97 331.4,-196.24 342.12,-186.75"/>
<polygon fill="black" stroke="black" points="344.52,-189.3 349.78,-180.1 339.93,-184.02 344.52,-189.3"/>
<g id="a_edge30&#45;headlabel"><a xlink:href="dir_000019_000029.html" target="_top" xlink:title="1">
<text text-anchor="middle" x="343.67" y="-191.3" font-family="Helvetica,sans-Serif" font-size="10.00">1</text>
</a>
</g>
</g>
<!-- dir_89a2a0f8e65887f6f5e7f07c9ce97f37&#45;&gt;dir_5646c4a3c156db227fe899778b3c4cdf -->
<g id="edge31" class="edge">
<title>dir_89a2a0f8e65887f6f5e7f07c9ce97f37&#45;&gt;dir_5646c4a3c156db227fe899778b3c4cdf</title>
<path fill="none" stroke="black" d="M284.28,-215.87C267.19,-191.35 240.11,-146.03 225.15,-117.26"/>
<polygon fill="black" stroke="black" points="228.21,-115.54 220.58,-108.19 221.96,-118.69 228.21,-115.54"/>
<g id="a_edge31&#45;headlabel"><a xlink:href="dir_000019_000002.html" target="_top" xlink:title="8">
<text text-anchor="middle" x="232.36" y="-114.97" font-family="Helvetica,sans-Serif" font-size="10.00">8</text>
</a>
</g>
</g>
</g>
</svg>
        <g id="navigator" transform="translate(0 0)" fill="#404254">
                <rect fill="#f2f5e9" fill-opacity="0.5" stroke="#606060" stroke-width=".5" x="0" y="0" width="60" height="60"/>
                <use id="zoomplus" xlink:href="#zoomPlus" x="17" y="9" onmousedown="handleZoom(evt,'in')"/>
                <use id="zoomminus" xlink:href="#zoomMin" x="42" y="9" onmousedown="handleZoom(evt,'out')"/>
                <use id="reset" xlink:href="#resetDef" x="30" y="36" onmousedown="handleReset()"/>
                <g id="arrowUp" xlink:href="#dirArrow" transform="translate(30 24)" onmousedown="handlePan(0,-1)">
                  <use xlink:href="#rim" fill="#404040">
                        <set attributeName="fill" to="#808080" begin="arrowUp.mouseover" end="arrowUp.mouseout"/>
                  </use>
                  <path fill="none" stroke="white" stroke-width="1.5" d="M0,-3.0v7 M-2.5,-0.5L0,-3.0L2.5,-0.5"/>
                </g>
                <g id="arrowRight" xlink:href="#dirArrow" transform="rotate(90) translate(36 -43)" onmousedown="handlePan(1,0)">
                  <use xlink:href="#rim" fill="#404040">
                        <set attributeName="fill" to="#808080" begin="arrowRight.mouseover" end="arrowRight.mouseout"/>
                  </use>
                  <path fill="none" stroke="white" stroke-width="1.5" d="M0,-3.0v7 M-2.5,-0.5L0,-3.0L2.5,-0.5"/>
                </g>
                <g id="arrowDown" xlink:href="#dirArrow" transform="rotate(180) translate(-30 -48)" onmousedown="handlePan(0,1)">
                  <use xlink:href="#rim" fill="#404040">
                        <set attributeName="fill" to="#808080" begin="arrowDown.mouseover" end="arrowDown.mouseout"/>
                  </use>
                  <path fill="none" stroke="white" stroke-width="1.5" d="M0,-3.0v7 M-2.5,-0.5L0,-3.0L2.5,-0.5"/>
                </g>
                <g id="arrowLeft" xlink:href="#dirArrow" transform="rotate(270) translate(-36 17)" onmousedown="handlePan(-1,0)">
                  <use xlink:href="#rim" fill="#404040">
                        <set attributeName="fill" to="#808080" begin="arrowLeft.mouseover" end="arrowLeft.mouseout"/>
                  </use>
                  <path fill="none" stroke="white" stroke-width="1.5" d="M0,-3.0v7 M-2.5,-0.5L0,-3.0L2.5,-0.5"/>
                </g>
        </g>
        <svg viewBox="0 0 15 15" width="100%" height="30px" preserveAspectRatio="xMaxYMin meet">
         <g id="arrow_out" transform="scale(0.3 0.3)">
          <a xlink:href="dir_fcc89f6ed6254cf0f66598ecc284e899_dep_org.svg" target="_base">
           <rect id="button" ry="5" rx="5" y="6" x="6" height="38" width="38"
                fill="#f2f5e9" fill-opacity="0.5" stroke="#606060" stroke-width="1.0"/>
           <path id="arrow"
             d="M 11.500037,31.436501 C 11.940474,20.09759 22.043105,11.32322 32.158766,21.979434 L 37.068811,17.246167 C 37.068811,17.246167 37.088388,32 37.088388,32 L 22.160133,31.978069 C 22.160133,31.978069 26.997745,27.140456 26.997745,27.140456 C 18.528582,18.264221 13.291696,25.230495 11.500037,31.436501 z"
             style="fill:#404040;"/>
          </a>
         </g>
        </svg>
</svg>
