<?xml version="1.0" encoding="UTF-8" standalone="no"?>
<!DOCTYPE svg PUBLIC "-//W3C//DTD SVG 1.1//EN"
 "http://www.w3.org/Graphics/SVG/1.1/DTD/svg11.dtd">
<!-- Generated by graphviz version 2.43.0 (0)
 -->
<!-- Title: ExpDestCounter.h Pages: 1 -->
<svg width="402pt" height="162pt"
 viewBox="0.00 0.00 402.00 162.00" xmlns="http://www.w3.org/2000/svg" xmlns:xlink="http://www.w3.org/1999/xlink">
<g id="graph0" class="graph" transform="scale(1 1) rotate(0) translate(4 158)">
<title>ExpDestCounter.h</title>
<polygon fill="white" stroke="transparent" points="-4,4 -4,-158 398,-158 398,4 -4,4"/>
<!-- Node1 -->
<g id="node1" class="node">
<title>Node1</title>
<g id="a_node1"><a xlink:title=" ">
<polygon fill="#bfbfbf" stroke="black" points="205,-134.5 205,-153.5 309,-153.5 309,-134.5 205,-134.5"/>
<text text-anchor="middle" x="257" y="-141.5" font-family="Helvetica,sans-Serif" font-size="10.00">ExpDestCounter.h</text>
</a>
</g>
</g>
<!-- Node2 -->
<g id="node2" class="node">
<title>Node2</title>
<g id="a_node2"><a xlink:href="ExpHelp_8h.html" target="_top" xlink:title=" ">
<polygon fill="white" stroke="black" points="176,-73 176,-92 338,-92 338,-73 176,-73"/>
<text text-anchor="middle" x="257" y="-80" font-family="Helvetica,sans-Serif" font-size="10.00">boomerang/ssl/exp/ExpHelp.h</text>
</a>
</g>
</g>
<!-- Node1&#45;&gt;Node2 -->
<g id="edge1" class="edge">
<title>Node1&#45;&gt;Node2</title>
<path fill="none" stroke="midnightblue" d="M257,-134.48C257,-126.08 257,-112.98 257,-102.16"/>
<polygon fill="midnightblue" stroke="midnightblue" points="260.5,-102.01 257,-92.01 253.5,-102.01 260.5,-102.01"/>
</g>
<!-- Node5 -->
<g id="node5" class="node">
<title>Node5</title>
<g id="a_node5"><a xlink:href="ExpVisitor_8h.html" target="_top" xlink:title=" ">
<polygon fill="white" stroke="black" points="0,-67.5 0,-97.5 158,-97.5 158,-67.5 0,-67.5"/>
<text text-anchor="start" x="8" y="-85.5" font-family="Helvetica,sans-Serif" font-size="10.00">boomerang/visitor/expvisitor</text>
<text text-anchor="middle" x="79" y="-74.5" font-family="Helvetica,sans-Serif" font-size="10.00">/ExpVisitor.h</text>
</a>
</g>
</g>
<!-- Node1&#45;&gt;Node5 -->
<g id="edge4" class="edge">
<title>Node1&#45;&gt;Node5</title>
<path fill="none" stroke="midnightblue" d="M231.5,-134.48C205.25,-125.7 163.63,-111.79 130.49,-100.71"/>
<polygon fill="midnightblue" stroke="midnightblue" points="131.54,-97.37 120.95,-97.52 129.33,-104.01 131.54,-97.37"/>
</g>
<!-- Node6 -->
<g id="node6" class="node">
<title>Node6</title>
<g id="a_node6"><a xlink:title=" ">
<polygon fill="white" stroke="#bfbfbf" points="356,-73 356,-92 394,-92 394,-73 356,-73"/>
<text text-anchor="middle" x="375" y="-80" font-family="Helvetica,sans-Serif" font-size="10.00">map</text>
</a>
</g>
</g>
<!-- Node1&#45;&gt;Node6 -->
<g id="edge7" class="edge">
<title>Node1&#45;&gt;Node6</title>
<path fill="none" stroke="midnightblue" d="M274.29,-134.45C292.44,-125.45 321.78,-110.84 347,-98 347.81,-97.59 348.63,-97.17 349.47,-96.74"/>
<polygon fill="midnightblue" stroke="midnightblue" points="351.15,-99.81 358.44,-92.13 347.94,-93.59 351.15,-99.81"/>
</g>
<!-- Node3 -->
<g id="node3" class="node">
<title>Node3</title>
<g id="a_node3"><a xlink:href="BoomerangAPI_8h.html" target="_top" xlink:title=" ">
<polygon fill="white" stroke="black" points="27.5,-0.5 27.5,-30.5 182.5,-30.5 182.5,-0.5 27.5,-0.5"/>
<text text-anchor="start" x="35.5" y="-18.5" font-family="Helvetica,sans-Serif" font-size="10.00">boomerang/core/Boomerang</text>
<text text-anchor="middle" x="105" y="-7.5" font-family="Helvetica,sans-Serif" font-size="10.00">API.h</text>
</a>
</g>
</g>
<!-- Node2&#45;&gt;Node3 -->
<g id="edge2" class="edge">
<title>Node2&#45;&gt;Node3</title>
<path fill="none" stroke="midnightblue" d="M236.82,-72.87C214.11,-63.16 176.58,-47.11 147.36,-34.61"/>
<polygon fill="midnightblue" stroke="midnightblue" points="148.37,-31.24 137.8,-30.53 145.62,-37.68 148.37,-31.24"/>
</g>
<!-- Node4 -->
<g id="node4" class="node">
<title>Node4</title>
<g id="a_node4"><a xlink:title=" ">
<polygon fill="white" stroke="#bfbfbf" points="214,-6 214,-25 272,-25 272,-6 214,-6"/>
<text text-anchor="middle" x="243" y="-13" font-family="Helvetica,sans-Serif" font-size="10.00">memory</text>
</a>
</g>
</g>
<!-- Node2&#45;&gt;Node4 -->
<g id="edge3" class="edge">
<title>Node2&#45;&gt;Node4</title>
<path fill="none" stroke="midnightblue" d="M255.11,-72.73C253.03,-63.09 249.63,-47.3 246.96,-34.91"/>
<polygon fill="midnightblue" stroke="midnightblue" points="250.39,-34.17 244.86,-25.13 243.54,-35.64 250.39,-34.17"/>
</g>
<!-- Node5&#45;&gt;Node3 -->
<g id="edge5" class="edge">
<title>Node5&#45;&gt;Node3</title>
<path fill="none" stroke="midnightblue" d="M84.64,-67.4C87.84,-59.39 91.94,-49.16 95.61,-39.98"/>
<polygon fill="midnightblue" stroke="midnightblue" points="98.91,-41.16 99.37,-30.58 92.41,-38.56 98.91,-41.16"/>
</g>
<!-- Node5&#45;&gt;Node4 -->
<g id="edge6" class="edge">
<title>Node5&#45;&gt;Node4</title>
<path fill="none" stroke="midnightblue" d="M114.59,-67.4C143.62,-55.89 184.22,-39.8 211.95,-28.81"/>
<polygon fill="midnightblue" stroke="midnightblue" points="213.53,-31.95 221.54,-25.01 210.95,-25.44 213.53,-31.95"/>
</g>
</g>
</svg>
