<?xml version="1.0" encoding="UTF-8" standalone="no"?>
<!DOCTYPE svg PUBLIC "-//W3C//DTD SVG 1.1//EN"
 "http://www.w3.org/Graphics/SVG/1.1/DTD/svg11.dtd">
<!-- Generated by graphviz version 2.43.0 (0)
 -->
<!-- Title: ExpDestCounter.cpp Pages: 1 -->
<svg width="1169pt" height="397pt"
 viewBox="0.00 0.00 1168.50 397.00" xmlns="http://www.w3.org/2000/svg" xmlns:xlink="http://www.w3.org/1999/xlink">
<g id="graph0" class="graph" transform="scale(1 1) rotate(0) translate(4 393)">
<title>ExpDestCounter.cpp</title>
<polygon fill="white" stroke="transparent" points="-4,4 -4,-393 1164.5,-393 1164.5,4 -4,4"/>
<!-- Node1 -->
<g id="node1" class="node">
<title>Node1</title>
<g id="a_node1"><a xlink:title=" ">
<polygon fill="#bfbfbf" stroke="black" points="328,-369.5 328,-388.5 444,-388.5 444,-369.5 328,-369.5"/>
<text text-anchor="middle" x="386" y="-376.5" font-family="Helvetica,sans-Serif" font-size="10.00">ExpDestCounter.cpp</text>
</a>
</g>
</g>
<!-- Node2 -->
<g id="node2" class="node">
<title>Node2</title>
<g id="a_node2"><a xlink:href="ExpDestCounter_8h.html" target="_top" xlink:title=" ">
<polygon fill="white" stroke="black" points="190,-252 190,-271 294,-271 294,-252 190,-252"/>
<text text-anchor="middle" x="242" y="-259" font-family="Helvetica,sans-Serif" font-size="10.00">ExpDestCounter.h</text>
</a>
</g>
</g>
<!-- Node1&#45;&gt;Node2 -->
<g id="edge1" class="edge">
<title>Node1&#45;&gt;Node2</title>
<path fill="none" stroke="midnightblue" d="M375.18,-369.32C350.89,-349.84 291.78,-302.42 261.13,-277.84"/>
<polygon fill="midnightblue" stroke="midnightblue" points="262.94,-274.81 252.95,-271.28 258.56,-280.27 262.94,-274.81"/>
</g>
<!-- Node8 -->
<g id="node8" class="node">
<title>Node8</title>
<g id="a_node8"><a xlink:href="RefExp_8h.html" target="_top" xlink:title=" ">
<polygon fill="white" stroke="black" points="501,-313.5 501,-332.5 657,-332.5 657,-313.5 501,-313.5"/>
<text text-anchor="middle" x="579" y="-320.5" font-family="Helvetica,sans-Serif" font-size="10.00">boomerang/ssl/exp/RefExp.h</text>
</a>
</g>
</g>
<!-- Node1&#45;&gt;Node8 -->
<g id="edge9" class="edge">
<title>Node1&#45;&gt;Node8</title>
<path fill="none" stroke="midnightblue" d="M416.58,-369.44C449.61,-360.2 502.39,-345.44 538.77,-335.26"/>
<polygon fill="midnightblue" stroke="midnightblue" points="539.87,-338.58 548.56,-332.52 537.99,-331.84 539.87,-338.58"/>
</g>
<!-- Node21 -->
<g id="node21" class="node">
<title>Node21</title>
<g id="a_node21"><a xlink:href="Statement_8h.html" target="_top" xlink:title=" ">
<polygon fill="white" stroke="black" points="312.5,-246.5 312.5,-276.5 459.5,-276.5 459.5,-246.5 312.5,-246.5"/>
<text text-anchor="start" x="320.5" y="-264.5" font-family="Helvetica,sans-Serif" font-size="10.00">boomerang/ssl/statements</text>
<text text-anchor="middle" x="386" y="-253.5" font-family="Helvetica,sans-Serif" font-size="10.00">/Statement.h</text>
</a>
</g>
</g>
<!-- Node1&#45;&gt;Node21 -->
<g id="edge26" class="edge">
<title>Node1&#45;&gt;Node21</title>
<path fill="none" stroke="midnightblue" d="M386,-369.32C386,-351.97 386,-312.46 386,-286.66"/>
<polygon fill="midnightblue" stroke="midnightblue" points="389.5,-286.55 386,-276.55 382.5,-286.55 389.5,-286.55"/>
</g>
<!-- Node3 -->
<g id="node3" class="node">
<title>Node3</title>
<g id="a_node3"><a xlink:href="ExpHelp_8h.html" target="_top" xlink:title=" ">
<polygon fill="white" stroke="black" points="176,-129 176,-148 338,-148 338,-129 176,-129"/>
<text text-anchor="middle" x="257" y="-136" font-family="Helvetica,sans-Serif" font-size="10.00">boomerang/ssl/exp/ExpHelp.h</text>
</a>
</g>
</g>
<!-- Node2&#45;&gt;Node3 -->
<g id="edge2" class="edge">
<title>Node2&#45;&gt;Node3</title>
<path fill="none" stroke="midnightblue" d="M243.08,-251.8C245.49,-232.35 251.36,-184.99 254.66,-158.4"/>
<polygon fill="midnightblue" stroke="midnightblue" points="258.17,-158.48 255.93,-148.12 251.23,-157.62 258.17,-158.48"/>
</g>
<!-- Node6 -->
<g id="node6" class="node">
<title>Node6</title>
<g id="a_node6"><a xlink:href="ExpVisitor_8h.html" target="_top" xlink:title=" ">
<polygon fill="white" stroke="black" points="0,-123.5 0,-153.5 158,-153.5 158,-123.5 0,-123.5"/>
<text text-anchor="start" x="8" y="-141.5" font-family="Helvetica,sans-Serif" font-size="10.00">boomerang/visitor/expvisitor</text>
<text text-anchor="middle" x="79" y="-130.5" font-family="Helvetica,sans-Serif" font-size="10.00">/ExpVisitor.h</text>
</a>
</g>
</g>
<!-- Node2&#45;&gt;Node6 -->
<g id="edge5" class="edge">
<title>Node2&#45;&gt;Node6</title>
<path fill="none" stroke="midnightblue" d="M230.54,-251.99C204.91,-232.97 142.39,-186.56 106.17,-159.67"/>
<polygon fill="midnightblue" stroke="midnightblue" points="108.11,-156.75 97.99,-153.6 103.94,-162.37 108.11,-156.75"/>
</g>
<!-- Node7 -->
<g id="node7" class="node">
<title>Node7</title>
<g id="a_node7"><a xlink:title=" ">
<polygon fill="white" stroke="#bfbfbf" points="277,-190.5 277,-209.5 315,-209.5 315,-190.5 277,-190.5"/>
<text text-anchor="middle" x="296" y="-197.5" font-family="Helvetica,sans-Serif" font-size="10.00">map</text>
</a>
</g>
</g>
<!-- Node2&#45;&gt;Node7 -->
<g id="edge8" class="edge">
<title>Node2&#45;&gt;Node7</title>
<path fill="none" stroke="midnightblue" d="M249.74,-251.98C258,-242.87 271.28,-228.24 281.49,-216.98"/>
<polygon fill="midnightblue" stroke="midnightblue" points="284.15,-219.27 288.28,-209.51 278.97,-214.56 284.15,-219.27"/>
</g>
<!-- Node4 -->
<g id="node4" class="node">
<title>Node4</title>
<g id="a_node4"><a xlink:href="BoomerangAPI_8h.html" target="_top" xlink:title=" ">
<polygon fill="white" stroke="black" points="448.5,-56.5 448.5,-86.5 603.5,-86.5 603.5,-56.5 448.5,-56.5"/>
<text text-anchor="start" x="456.5" y="-74.5" font-family="Helvetica,sans-Serif" font-size="10.00">boomerang/core/Boomerang</text>
<text text-anchor="middle" x="526" y="-63.5" font-family="Helvetica,sans-Serif" font-size="10.00">API.h</text>
</a>
</g>
</g>
<!-- Node3&#45;&gt;Node4 -->
<g id="edge3" class="edge">
<title>Node3&#45;&gt;Node4</title>
<path fill="none" stroke="midnightblue" d="M292.44,-128.94C334.39,-118.8 405.19,-101.69 457.87,-88.96"/>
<polygon fill="midnightblue" stroke="midnightblue" points="458.92,-92.31 467.82,-86.56 457.27,-85.51 458.92,-92.31"/>
</g>
<!-- Node5 -->
<g id="node5" class="node">
<title>Node5</title>
<g id="a_node5"><a xlink:title=" ">
<polygon fill="white" stroke="#bfbfbf" points="228,-62 228,-81 286,-81 286,-62 228,-62"/>
<text text-anchor="middle" x="257" y="-69" font-family="Helvetica,sans-Serif" font-size="10.00">memory</text>
</a>
</g>
</g>
<!-- Node3&#45;&gt;Node5 -->
<g id="edge4" class="edge">
<title>Node3&#45;&gt;Node5</title>
<path fill="none" stroke="midnightblue" d="M257,-128.73C257,-119.18 257,-103.62 257,-91.28"/>
<polygon fill="midnightblue" stroke="midnightblue" points="260.5,-91.13 257,-81.13 253.5,-91.13 260.5,-91.13"/>
</g>
<!-- Node6&#45;&gt;Node4 -->
<g id="edge6" class="edge">
<title>Node6&#45;&gt;Node4</title>
<path fill="none" stroke="midnightblue" d="M158.14,-124.37C161.13,-123.9 164.09,-123.44 167,-123 259.4,-108.89 365.42,-94.16 438.15,-84.27"/>
<polygon fill="midnightblue" stroke="midnightblue" points="438.75,-87.72 448.19,-82.91 437.81,-80.78 438.75,-87.72"/>
</g>
<!-- Node6&#45;&gt;Node5 -->
<g id="edge7" class="edge">
<title>Node6&#45;&gt;Node5</title>
<path fill="none" stroke="midnightblue" d="M117.62,-123.4C149.41,-111.79 193.98,-95.51 224.09,-84.52"/>
<polygon fill="midnightblue" stroke="midnightblue" points="225.51,-87.72 233.7,-81.01 223.11,-81.15 225.51,-87.72"/>
</g>
<!-- Node9 -->
<g id="node9" class="node">
<title>Node9</title>
<g id="a_node9"><a xlink:href="Unary_8h.html" target="_top" xlink:title=" ">
<polygon fill="white" stroke="black" points="519.5,-252 519.5,-271 668.5,-271 668.5,-252 519.5,-252"/>
<text text-anchor="middle" x="594" y="-259" font-family="Helvetica,sans-Serif" font-size="10.00">boomerang/ssl/exp/Unary.h</text>
</a>
</g>
</g>
<!-- Node8&#45;&gt;Node9 -->
<g id="edge10" class="edge">
<title>Node8&#45;&gt;Node9</title>
<path fill="none" stroke="midnightblue" d="M581.15,-313.48C583.29,-304.99 586.64,-291.7 589.38,-280.82"/>
<polygon fill="midnightblue" stroke="midnightblue" points="592.8,-281.56 591.85,-271.01 586.02,-279.85 592.8,-281.56"/>
</g>
<!-- Node10 -->
<g id="node10" class="node">
<title>Node10</title>
<g id="a_node10"><a xlink:href="Exp_8h.html" target="_top" xlink:title=" ">
<polygon fill="white" stroke="black" points="539,-190.5 539,-209.5 679,-209.5 679,-190.5 539,-190.5"/>
<text text-anchor="middle" x="609" y="-197.5" font-family="Helvetica,sans-Serif" font-size="10.00">boomerang/ssl/exp/Exp.h</text>
</a>
</g>
</g>
<!-- Node9&#45;&gt;Node10 -->
<g id="edge11" class="edge">
<title>Node9&#45;&gt;Node10</title>
<path fill="none" stroke="midnightblue" d="M596.15,-251.98C598.29,-243.49 601.64,-230.2 604.38,-219.32"/>
<polygon fill="midnightblue" stroke="midnightblue" points="607.8,-220.06 606.85,-209.51 601.02,-218.35 607.8,-220.06"/>
</g>
<!-- Node10&#45;&gt;Node3 -->
<g id="edge12" class="edge">
<title>Node10&#45;&gt;Node3</title>
<path fill="none" stroke="midnightblue" d="M558.57,-190.48C494.92,-179.72 385.56,-161.23 317.48,-149.72"/>
<polygon fill="midnightblue" stroke="midnightblue" points="317.78,-146.22 307.34,-148.01 316.62,-153.13 317.78,-146.22"/>
</g>
<!-- Node10&#45;&gt;Node5 -->
<g id="edge23" class="edge">
<title>Node10&#45;&gt;Node5</title>
<path fill="none" stroke="midnightblue" d="M551.14,-190.5C516.18,-183.81 471.47,-172.46 435,-154 415.55,-144.15 415.97,-133.74 397,-123 364.82,-104.78 324.86,-91.15 295.88,-82.67"/>
<polygon fill="midnightblue" stroke="midnightblue" points="296.7,-79.26 286.12,-79.88 294.78,-85.99 296.7,-79.26"/>
</g>
<!-- Node11 -->
<g id="node11" class="node">
<title>Node11</title>
<g id="a_node11"><a xlink:href="Operator_8h.html" target="_top" xlink:title=" ">
<polygon fill="white" stroke="black" points="444,-129 444,-148 608,-148 608,-129 444,-129"/>
<text text-anchor="middle" x="526" y="-136" font-family="Helvetica,sans-Serif" font-size="10.00">boomerang/ssl/exp/Operator.h</text>
</a>
</g>
</g>
<!-- Node10&#45;&gt;Node11 -->
<g id="edge13" class="edge">
<title>Node10&#45;&gt;Node11</title>
<path fill="none" stroke="midnightblue" d="M597.11,-190.48C583.8,-180.93 562,-165.31 546.04,-153.87"/>
<polygon fill="midnightblue" stroke="midnightblue" points="548.04,-150.99 537.87,-148.01 543.96,-156.68 548.04,-150.99"/>
</g>
<!-- Node12 -->
<g id="node12" class="node">
<title>Node12</title>
<g id="a_node12"><a xlink:href="OStream_8h.html" target="_top" xlink:title=" ">
<polygon fill="white" stroke="black" points="921,-129 921,-148 1067,-148 1067,-129 921,-129"/>
<text text-anchor="middle" x="994" y="-136" font-family="Helvetica,sans-Serif" font-size="10.00">boomerang/util/OStream.h</text>
</a>
</g>
</g>
<!-- Node10&#45;&gt;Node12 -->
<g id="edge15" class="edge">
<title>Node10&#45;&gt;Node12</title>
<path fill="none" stroke="midnightblue" d="M664.16,-190.48C734.06,-179.67 854.37,-161.08 928.76,-149.58"/>
<polygon fill="midnightblue" stroke="midnightblue" points="929.59,-153 938.94,-148.01 928.52,-146.08 929.59,-153"/>
</g>
<!-- Node16 -->
<g id="node16" class="node">
<title>Node16</title>
<g id="a_node16"><a xlink:title=" ">
<polygon fill="white" stroke="#bfbfbf" points="811.5,-129 811.5,-148 864.5,-148 864.5,-129 811.5,-129"/>
<text text-anchor="middle" x="838" y="-136" font-family="Helvetica,sans-Serif" font-size="10.00">QString</text>
</a>
</g>
</g>
<!-- Node10&#45;&gt;Node16 -->
<g id="edge20" class="edge">
<title>Node10&#45;&gt;Node16</title>
<path fill="none" stroke="midnightblue" d="M655.44,-190.47C695.11,-182.65 753.45,-169.89 803,-154 805.14,-153.31 807.33,-152.55 809.52,-151.75"/>
<polygon fill="midnightblue" stroke="midnightblue" points="810.92,-154.96 818.96,-148.06 808.37,-148.44 810.92,-154.96"/>
</g>
<!-- Node17 -->
<g id="node17" class="node">
<title>Node17</title>
<g id="a_node17"><a xlink:title=" ">
<polygon fill="white" stroke="#bfbfbf" points="626,-129 626,-148 678,-148 678,-129 626,-129"/>
<text text-anchor="middle" x="652" y="-136" font-family="Helvetica,sans-Serif" font-size="10.00">cassert</text>
</a>
</g>
</g>
<!-- Node10&#45;&gt;Node17 -->
<g id="edge21" class="edge">
<title>Node10&#45;&gt;Node17</title>
<path fill="none" stroke="midnightblue" d="M615.16,-190.48C621.61,-181.55 631.9,-167.31 639.97,-156.14"/>
<polygon fill="midnightblue" stroke="midnightblue" points="642.83,-158.16 645.85,-148.01 637.16,-154.06 642.83,-158.16"/>
</g>
<!-- Node18 -->
<g id="node18" class="node">
<title>Node18</title>
<g id="a_node18"><a xlink:title=" ">
<polygon fill="white" stroke="#bfbfbf" points="356,-129 356,-148 388,-148 388,-129 356,-129"/>
<text text-anchor="middle" x="372" y="-136" font-family="Helvetica,sans-Serif" font-size="10.00">list</text>
</a>
</g>
</g>
<!-- Node10&#45;&gt;Node18 -->
<g id="edge22" class="edge">
<title>Node10&#45;&gt;Node18</title>
<path fill="none" stroke="midnightblue" d="M552.67,-190.46C510.48,-183.18 451.72,-171.15 402,-154 400.38,-153.44 398.74,-152.82 397.1,-152.16"/>
<polygon fill="midnightblue" stroke="midnightblue" points="398.45,-148.93 387.9,-148.04 395.6,-155.32 398.45,-148.93"/>
</g>
<!-- Node19 -->
<g id="node19" class="node">
<title>Node19</title>
<g id="a_node19"><a xlink:title=" ">
<polygon fill="white" stroke="#bfbfbf" points="696,-129 696,-148 728,-148 728,-129 696,-129"/>
<text text-anchor="middle" x="712" y="-136" font-family="Helvetica,sans-Serif" font-size="10.00">set</text>
</a>
</g>
</g>
<!-- Node10&#45;&gt;Node19 -->
<g id="edge24" class="edge">
<title>Node10&#45;&gt;Node19</title>
<path fill="none" stroke="midnightblue" d="M623.96,-190.38C639.67,-181.33 665.08,-166.68 687,-154 687.41,-153.76 687.83,-153.52 688.25,-153.28"/>
<polygon fill="midnightblue" stroke="midnightblue" points="690.3,-156.13 697.2,-148.09 686.79,-150.08 690.3,-156.13"/>
</g>
<!-- Node20 -->
<g id="node20" class="node">
<title>Node20</title>
<g id="a_node20"><a xlink:title=" ">
<polygon fill="white" stroke="#bfbfbf" points="746.5,-129 746.5,-148 793.5,-148 793.5,-129 746.5,-129"/>
<text text-anchor="middle" x="770" y="-136" font-family="Helvetica,sans-Serif" font-size="10.00">vector</text>
</a>
</g>
</g>
<!-- Node10&#45;&gt;Node20 -->
<g id="edge25" class="edge">
<title>Node10&#45;&gt;Node20</title>
<path fill="none" stroke="midnightblue" d="M635.2,-190.44C661.22,-181.78 702.16,-167.75 737,-154 738.6,-153.37 740.24,-152.7 741.89,-152.02"/>
<polygon fill="midnightblue" stroke="midnightblue" points="743.43,-155.17 751.26,-148.03 740.68,-148.73 743.43,-155.17"/>
</g>
<!-- Node11&#45;&gt;Node4 -->
<g id="edge14" class="edge">
<title>Node11&#45;&gt;Node4</title>
<path fill="none" stroke="midnightblue" d="M526,-128.73C526,-120.54 526,-107.92 526,-96.71"/>
<polygon fill="midnightblue" stroke="midnightblue" points="529.5,-96.59 526,-86.59 522.5,-96.59 529.5,-96.59"/>
</g>
<!-- Node12&#45;&gt;Node4 -->
<g id="edge16" class="edge">
<title>Node12&#45;&gt;Node4</title>
<path fill="none" stroke="midnightblue" d="M944.36,-128.93C932.15,-126.91 919.12,-124.81 907,-123 806.74,-108 691.29,-93.02 614,-83.32"/>
<polygon fill="midnightblue" stroke="midnightblue" points="614.18,-79.81 603.82,-82.04 613.31,-86.76 614.18,-79.81"/>
</g>
<!-- Node13 -->
<g id="node13" class="node">
<title>Node13</title>
<g id="a_node13"><a xlink:href="Types_8h.html" target="_top" xlink:title=" ">
<polygon fill="white" stroke="black" points="1029.5,-62 1029.5,-81 1160.5,-81 1160.5,-62 1029.5,-62"/>
<text text-anchor="middle" x="1095" y="-69" font-family="Helvetica,sans-Serif" font-size="10.00">boomerang/util/Types.h</text>
</a>
</g>
</g>
<!-- Node12&#45;&gt;Node13 -->
<g id="edge17" class="edge">
<title>Node12&#45;&gt;Node13</title>
<path fill="none" stroke="midnightblue" d="M1007.62,-128.73C1024.43,-117.92 1053.23,-99.38 1073.14,-86.57"/>
<polygon fill="midnightblue" stroke="midnightblue" points="1075.08,-89.48 1081.59,-81.13 1071.29,-83.6 1075.08,-89.48"/>
</g>
<!-- Node15 -->
<g id="node15" class="node">
<title>Node15</title>
<g id="a_node15"><a xlink:title=" ">
<polygon fill="white" stroke="#bfbfbf" points="965,-62 965,-81 1011,-81 1011,-62 965,-62"/>
<text text-anchor="middle" x="988" y="-69" font-family="Helvetica,sans-Serif" font-size="10.00">cstdio</text>
</a>
</g>
</g>
<!-- Node12&#45;&gt;Node15 -->
<g id="edge19" class="edge">
<title>Node12&#45;&gt;Node15</title>
<path fill="none" stroke="midnightblue" d="M993.19,-128.73C992.31,-119.18 990.87,-103.62 989.73,-91.28"/>
<polygon fill="midnightblue" stroke="midnightblue" points="993.2,-90.76 988.8,-81.13 986.23,-91.41 993.2,-90.76"/>
</g>
<!-- Node14 -->
<g id="node14" class="node">
<title>Node14</title>
<g id="a_node14"><a xlink:title=" ">
<polygon fill="white" stroke="#bfbfbf" points="1070,-0.5 1070,-19.5 1120,-19.5 1120,-0.5 1070,-0.5"/>
<text text-anchor="middle" x="1095" y="-7.5" font-family="Helvetica,sans-Serif" font-size="10.00">cstdint</text>
</a>
</g>
</g>
<!-- Node13&#45;&gt;Node14 -->
<g id="edge18" class="edge">
<title>Node13&#45;&gt;Node14</title>
<path fill="none" stroke="midnightblue" d="M1095,-61.98C1095,-53.58 1095,-40.48 1095,-29.66"/>
<polygon fill="midnightblue" stroke="midnightblue" points="1098.5,-29.51 1095,-19.51 1091.5,-29.51 1098.5,-29.51"/>
</g>
<!-- Node21&#45;&gt;Node3 -->
<g id="edge27" class="edge">
<title>Node21&#45;&gt;Node3</title>
<path fill="none" stroke="midnightblue" d="M375.11,-246.5C363.29,-231.71 343.48,-208.06 324,-190 309.63,-176.68 291.86,-163.41 278.23,-153.82"/>
<polygon fill="midnightblue" stroke="midnightblue" points="280.17,-150.9 269.95,-148.09 276.18,-156.66 280.17,-150.9"/>
</g>
<!-- Node21&#45;&gt;Node7 -->
<g id="edge34" class="edge">
<title>Node21&#45;&gt;Node7</title>
<path fill="none" stroke="midnightblue" d="M364.67,-246.4C350.51,-237.04 331.99,-224.79 317.75,-215.38"/>
<polygon fill="midnightblue" stroke="midnightblue" points="319.37,-212.25 309.1,-209.66 315.51,-218.09 319.37,-212.25"/>
</g>
<!-- Node21&#45;&gt;Node18 -->
<g id="edge33" class="edge">
<title>Node21&#45;&gt;Node18</title>
<path fill="none" stroke="midnightblue" d="M384.34,-246.14C381.8,-224.2 376.96,-182.33 374.15,-158.09"/>
<polygon fill="midnightblue" stroke="midnightblue" points="377.62,-157.58 372.99,-148.05 370.66,-158.39 377.62,-157.58"/>
</g>
<!-- Node22 -->
<g id="node22" class="node">
<title>Node22</title>
<g id="a_node22"><a xlink:href="Address_8h.html" target="_top" xlink:title=" ">
<polygon fill="white" stroke="black" points="822,-190.5 822,-209.5 964,-209.5 964,-190.5 822,-190.5"/>
<text text-anchor="middle" x="893" y="-197.5" font-family="Helvetica,sans-Serif" font-size="10.00">boomerang/util/Address.h</text>
</a>
</g>
</g>
<!-- Node21&#45;&gt;Node22 -->
<g id="edge28" class="edge">
<title>Node21&#45;&gt;Node22</title>
<path fill="none" stroke="midnightblue" d="M459.72,-251.85C553.36,-240.86 714.41,-221.96 811.58,-210.56"/>
<polygon fill="midnightblue" stroke="midnightblue" points="812.12,-214.02 821.65,-209.37 811.31,-207.06 812.12,-214.02"/>
</g>
<!-- Node22&#45;&gt;Node4 -->
<g id="edge29" class="edge">
<title>Node22&#45;&gt;Node4</title>
<path fill="none" stroke="midnightblue" d="M893.66,-190.41C894.37,-174.51 893.37,-140.51 874,-123 836.82,-89.4 704.21,-78.12 613.85,-74.36"/>
<polygon fill="midnightblue" stroke="midnightblue" points="613.73,-70.85 603.6,-73.96 613.46,-77.85 613.73,-70.85"/>
</g>
<!-- Node22&#45;&gt;Node12 -->
<g id="edge30" class="edge">
<title>Node22&#45;&gt;Node12</title>
<path fill="none" stroke="midnightblue" d="M907.47,-190.48C923.97,-180.75 951.18,-164.73 970.68,-153.24"/>
<polygon fill="midnightblue" stroke="midnightblue" points="972.72,-156.1 979.56,-148.01 969.16,-150.07 972.72,-156.1"/>
</g>
<!-- Node22&#45;&gt;Node13 -->
<g id="edge31" class="edge">
<title>Node22&#45;&gt;Node13</title>
<path fill="none" stroke="midnightblue" d="M956.98,-190.47C1002.83,-183.07 1059.33,-170.87 1076,-154 1092.32,-137.48 1095.67,-109.82 1095.88,-91.37"/>
<polygon fill="midnightblue" stroke="midnightblue" points="1099.38,-91.19 1095.69,-81.25 1092.38,-91.32 1099.38,-91.19"/>
</g>
<!-- Node22&#45;&gt;Node16 -->
<g id="edge32" class="edge">
<title>Node22&#45;&gt;Node16</title>
<path fill="none" stroke="midnightblue" d="M885.12,-190.48C876.71,-181.37 863.18,-166.74 852.77,-155.48"/>
<polygon fill="midnightblue" stroke="midnightblue" points="855.22,-152.98 845.87,-148.01 850.08,-157.73 855.22,-152.98"/>
</g>
</g>
</svg>
