<?xml version="1.0" encoding="UTF-8" standalone="no"?>
<!DOCTYPE svg PUBLIC "-//W3C//DTD SVG 1.1//EN"
 "http://www.w3.org/Graphics/SVG/1.1/DTD/svg11.dtd">
<!-- Generated by graphviz version 2.43.0 (0)
 -->
<!-- Title: ExpSubscripter.cpp Pages: 1 -->
<svg width="1165pt" height="386pt"
 viewBox="0.00 0.00 1164.97 386.00" xmlns="http://www.w3.org/2000/svg" xmlns:xlink="http://www.w3.org/1999/xlink">
<g id="graph0" class="graph" transform="scale(1 1) rotate(0) translate(4 382)">
<title>ExpSubscripter.cpp</title>
<polygon fill="white" stroke="transparent" points="-4,4 -4,-382 1160.97,-382 1160.97,4 -4,4"/>
<!-- Node1 -->
<g id="node1" class="node">
<title>Node1</title>
<g id="a_node1"><a xlink:title=" ">
<polygon fill="#bfbfbf" stroke="black" points="524.5,-358.5 524.5,-377.5 634.5,-377.5 634.5,-358.5 524.5,-358.5"/>
<text text-anchor="middle" x="579.5" y="-365.5" font-family="Helvetica,sans-Serif" font-size="10.00">ExpSubscripter.cpp</text>
</a>
</g>
</g>
<!-- Node2 -->
<g id="node2" class="node">
<title>Node2</title>
<g id="a_node2"><a xlink:href="ExpSubscripter_8h.html" target="_top" xlink:title=" ">
<polygon fill="white" stroke="black" points="886.5,-246.5 886.5,-265.5 984.5,-265.5 984.5,-246.5 886.5,-246.5"/>
<text text-anchor="middle" x="935.5" y="-253.5" font-family="Helvetica,sans-Serif" font-size="10.00">ExpSubscripter.h</text>
</a>
</g>
</g>
<!-- Node1&#45;&gt;Node2 -->
<g id="edge1" class="edge">
<title>Node1&#45;&gt;Node2</title>
<path fill="none" stroke="midnightblue" d="M607.14,-358.46C670.49,-338.89 826.22,-290.77 898.07,-268.57"/>
<polygon fill="midnightblue" stroke="midnightblue" points="899.11,-271.91 907.63,-265.61 897.05,-265.22 899.11,-271.91"/>
</g>
<!-- Node6 -->
<g id="node6" class="node">
<title>Node6</title>
<g id="a_node6"><a xlink:href="Binary_8h.html" target="_top" xlink:title=" ">
<polygon fill="white" stroke="black" points="503.5,-302.5 503.5,-321.5 655.5,-321.5 655.5,-302.5 503.5,-302.5"/>
<text text-anchor="middle" x="579.5" y="-309.5" font-family="Helvetica,sans-Serif" font-size="10.00">boomerang/ssl/exp/Binary.h</text>
</a>
</g>
</g>
<!-- Node1&#45;&gt;Node6 -->
<g id="edge5" class="edge">
<title>Node1&#45;&gt;Node6</title>
<path fill="none" stroke="midnightblue" d="M579.5,-358.08C579.5,-351.01 579.5,-340.86 579.5,-331.99"/>
<polygon fill="midnightblue" stroke="midnightblue" points="583,-331.75 579.5,-321.75 576,-331.75 583,-331.75"/>
</g>
<!-- Node20 -->
<g id="node20" class="node">
<title>Node20</title>
<g id="a_node20"><a xlink:href="Location_8h.html" target="_top" xlink:title=" ">
<polygon fill="white" stroke="black" points="148,-302.5 148,-321.5 311,-321.5 311,-302.5 148,-302.5"/>
<text text-anchor="middle" x="229.5" y="-309.5" font-family="Helvetica,sans-Serif" font-size="10.00">boomerang/ssl/exp/Location.h</text>
</a>
</g>
</g>
<!-- Node1&#45;&gt;Node20 -->
<g id="edge24" class="edge">
<title>Node1&#45;&gt;Node20</title>
<path fill="none" stroke="midnightblue" d="M524.43,-358.5C462.17,-348.9 360.89,-333.27 294.73,-323.06"/>
<polygon fill="midnightblue" stroke="midnightblue" points="295.25,-319.6 284.83,-321.54 294.18,-326.52 295.25,-319.6"/>
</g>
<!-- Node24 -->
<g id="node24" class="node">
<title>Node24</title>
<g id="a_node24"><a xlink:href="RefExp_8h.html" target="_top" xlink:title=" ">
<polygon fill="white" stroke="black" points="329.5,-302.5 329.5,-321.5 485.5,-321.5 485.5,-302.5 329.5,-302.5"/>
<text text-anchor="middle" x="407.5" y="-309.5" font-family="Helvetica,sans-Serif" font-size="10.00">boomerang/ssl/exp/RefExp.h</text>
</a>
</g>
</g>
<!-- Node1&#45;&gt;Node24 -->
<g id="edge33" class="edge">
<title>Node1&#45;&gt;Node24</title>
<path fill="none" stroke="midnightblue" d="M552.25,-358.44C523.06,-349.28 476.58,-334.69 444.19,-324.52"/>
<polygon fill="midnightblue" stroke="midnightblue" points="445.22,-321.17 434.63,-321.52 443.12,-327.85 445.22,-321.17"/>
</g>
<!-- Node25 -->
<g id="node25" class="node">
<title>Node25</title>
<g id="a_node25"><a xlink:href="Terminal_8h.html" target="_top" xlink:title=" ">
<polygon fill="white" stroke="black" points="569.5,-246.5 569.5,-265.5 733.5,-265.5 733.5,-246.5 569.5,-246.5"/>
<text text-anchor="middle" x="651.5" y="-253.5" font-family="Helvetica,sans-Serif" font-size="10.00">boomerang/ssl/exp/Terminal.h</text>
</a>
</g>
</g>
<!-- Node1&#45;&gt;Node25 -->
<g id="edge35" class="edge">
<title>Node1&#45;&gt;Node25</title>
<path fill="none" stroke="midnightblue" d="M613.3,-358.39C631.89,-351.74 653.39,-340.45 664.5,-322 673.19,-307.56 667.69,-288.37 661.38,-274.59"/>
<polygon fill="midnightblue" stroke="midnightblue" points="664.49,-272.98 656.84,-265.66 658.25,-276.16 664.49,-272.98"/>
</g>
<!-- Node3 -->
<g id="node3" class="node">
<title>Node3</title>
<g id="a_node3"><a xlink:href="ExpModifier_8h.html" target="_top" xlink:title=" ">
<polygon fill="white" stroke="black" points="968.5,-123.5 968.5,-153.5 1136.5,-153.5 1136.5,-123.5 968.5,-123.5"/>
<text text-anchor="start" x="976.5" y="-141.5" font-family="Helvetica,sans-Serif" font-size="10.00">boomerang/visitor/expmodifier</text>
<text text-anchor="middle" x="1052.5" y="-130.5" font-family="Helvetica,sans-Serif" font-size="10.00">/ExpModifier.h</text>
</a>
</g>
</g>
<!-- Node2&#45;&gt;Node3 -->
<g id="edge2" class="edge">
<title>Node2&#45;&gt;Node3</title>
<path fill="none" stroke="midnightblue" d="M944.29,-246.32C962.58,-228.27 1005.15,-186.25 1031.11,-160.62"/>
<polygon fill="midnightblue" stroke="midnightblue" points="1033.61,-163.06 1038.27,-153.55 1028.7,-158.08 1033.61,-163.06"/>
</g>
<!-- Node4 -->
<g id="node4" class="node">
<title>Node4</title>
<g id="a_node4"><a xlink:href="BoomerangAPI_8h.html" target="_top" xlink:title=" ">
<polygon fill="white" stroke="black" points="541,-56.5 541,-86.5 696,-86.5 696,-56.5 541,-56.5"/>
<text text-anchor="start" x="549" y="-74.5" font-family="Helvetica,sans-Serif" font-size="10.00">boomerang/core/Boomerang</text>
<text text-anchor="middle" x="618.5" y="-63.5" font-family="Helvetica,sans-Serif" font-size="10.00">API.h</text>
</a>
</g>
</g>
<!-- Node3&#45;&gt;Node4 -->
<g id="edge3" class="edge">
<title>Node3&#45;&gt;Node4</title>
<path fill="none" stroke="midnightblue" d="M968.35,-124.35C965.37,-123.89 962.41,-123.44 959.5,-123 873.36,-109.91 774.91,-95.37 706.01,-85.27"/>
<polygon fill="midnightblue" stroke="midnightblue" points="706.46,-81.8 696.06,-83.81 705.45,-88.73 706.46,-81.8"/>
</g>
<!-- Node5 -->
<g id="node5" class="node">
<title>Node5</title>
<g id="a_node5"><a xlink:title=" ">
<polygon fill="white" stroke="#bfbfbf" points="896.5,-62 896.5,-81 954.5,-81 954.5,-62 896.5,-62"/>
<text text-anchor="middle" x="925.5" y="-69" font-family="Helvetica,sans-Serif" font-size="10.00">memory</text>
</a>
</g>
</g>
<!-- Node3&#45;&gt;Node5 -->
<g id="edge4" class="edge">
<title>Node3&#45;&gt;Node5</title>
<path fill="none" stroke="midnightblue" d="M1024.94,-123.4C1003.05,-112.19 972.67,-96.64 951.26,-85.69"/>
<polygon fill="midnightblue" stroke="midnightblue" points="952.62,-82.45 942.12,-81.01 949.43,-88.68 952.62,-82.45"/>
</g>
<!-- Node7 -->
<g id="node7" class="node">
<title>Node7</title>
<g id="a_node7"><a xlink:href="Unary_8h.html" target="_top" xlink:title=" ">
<polygon fill="white" stroke="black" points="352,-246.5 352,-265.5 501,-265.5 501,-246.5 352,-246.5"/>
<text text-anchor="middle" x="426.5" y="-253.5" font-family="Helvetica,sans-Serif" font-size="10.00">boomerang/ssl/exp/Unary.h</text>
</a>
</g>
</g>
<!-- Node6&#45;&gt;Node7 -->
<g id="edge6" class="edge">
<title>Node6&#45;&gt;Node7</title>
<path fill="none" stroke="midnightblue" d="M555.26,-302.44C529.63,-293.4 489.01,-279.06 460.26,-268.92"/>
<polygon fill="midnightblue" stroke="midnightblue" points="461.22,-265.54 450.63,-265.52 458.89,-272.15 461.22,-265.54"/>
</g>
<!-- Node8 -->
<g id="node8" class="node">
<title>Node8</title>
<g id="a_node8"><a xlink:href="Exp_8h.html" target="_top" xlink:title=" ">
<polygon fill="white" stroke="black" points="375.5,-190.5 375.5,-209.5 515.5,-209.5 515.5,-190.5 375.5,-190.5"/>
<text text-anchor="middle" x="445.5" y="-197.5" font-family="Helvetica,sans-Serif" font-size="10.00">boomerang/ssl/exp/Exp.h</text>
</a>
</g>
</g>
<!-- Node7&#45;&gt;Node8 -->
<g id="edge7" class="edge">
<title>Node7&#45;&gt;Node8</title>
<path fill="none" stroke="midnightblue" d="M429.64,-246.08C432.18,-238.85 435.86,-228.41 439.03,-219.4"/>
<polygon fill="midnightblue" stroke="midnightblue" points="442.4,-220.35 442.42,-209.75 435.8,-218.02 442.4,-220.35"/>
</g>
<!-- Node8&#45;&gt;Node5 -->
<g id="edge21" class="edge">
<title>Node8&#45;&gt;Node5</title>
<path fill="none" stroke="midnightblue" d="M515.55,-197.05C688.65,-191.91 1124.17,-176.75 1145.5,-154 1200.12,-95.76 1042.09,-78.92 965.05,-74.23"/>
<polygon fill="midnightblue" stroke="midnightblue" points="964.93,-70.72 954.75,-73.65 964.54,-77.71 964.93,-70.72"/>
</g>
<!-- Node9 -->
<g id="node9" class="node">
<title>Node9</title>
<g id="a_node9"><a xlink:href="ExpHelp_8h.html" target="_top" xlink:title=" ">
<polygon fill="white" stroke="black" points="718.5,-129 718.5,-148 880.5,-148 880.5,-129 718.5,-129"/>
<text text-anchor="middle" x="799.5" y="-136" font-family="Helvetica,sans-Serif" font-size="10.00">boomerang/ssl/exp/ExpHelp.h</text>
</a>
</g>
</g>
<!-- Node8&#45;&gt;Node9 -->
<g id="edge8" class="edge">
<title>Node8&#45;&gt;Node9</title>
<path fill="none" stroke="midnightblue" d="M496.22,-190.48C560.23,-179.72 670.21,-161.23 738.67,-149.72"/>
<polygon fill="midnightblue" stroke="midnightblue" points="739.59,-153.12 748.87,-148.01 738.43,-146.22 739.59,-153.12"/>
</g>
<!-- Node10 -->
<g id="node10" class="node">
<title>Node10</title>
<g id="a_node10"><a xlink:href="Operator_8h.html" target="_top" xlink:title=" ">
<polygon fill="white" stroke="black" points="536.5,-129 536.5,-148 700.5,-148 700.5,-129 536.5,-129"/>
<text text-anchor="middle" x="618.5" y="-136" font-family="Helvetica,sans-Serif" font-size="10.00">boomerang/ssl/exp/Operator.h</text>
</a>
</g>
</g>
<!-- Node8&#45;&gt;Node10 -->
<g id="edge11" class="edge">
<title>Node8&#45;&gt;Node10</title>
<path fill="none" stroke="midnightblue" d="M470.29,-190.48C500.09,-180.22 550.29,-162.96 583.9,-151.4"/>
<polygon fill="midnightblue" stroke="midnightblue" points="585.44,-154.57 593.76,-148.01 583.16,-147.95 585.44,-154.57"/>
</g>
<!-- Node11 -->
<g id="node11" class="node">
<title>Node11</title>
<g id="a_node11"><a xlink:href="OStream_8h.html" target="_top" xlink:title=" ">
<polygon fill="white" stroke="black" points="372.5,-129 372.5,-148 518.5,-148 518.5,-129 372.5,-129"/>
<text text-anchor="middle" x="445.5" y="-136" font-family="Helvetica,sans-Serif" font-size="10.00">boomerang/util/OStream.h</text>
</a>
</g>
</g>
<!-- Node8&#45;&gt;Node11 -->
<g id="edge13" class="edge">
<title>Node8&#45;&gt;Node11</title>
<path fill="none" stroke="midnightblue" d="M445.5,-190.48C445.5,-182.08 445.5,-168.98 445.5,-158.16"/>
<polygon fill="midnightblue" stroke="midnightblue" points="449,-158.01 445.5,-148.01 442,-158.01 449,-158.01"/>
</g>
<!-- Node15 -->
<g id="node15" class="node">
<title>Node15</title>
<g id="a_node15"><a xlink:title=" ">
<polygon fill="white" stroke="#bfbfbf" points="0,-62 0,-81 53,-81 53,-62 0,-62"/>
<text text-anchor="middle" x="26.5" y="-69" font-family="Helvetica,sans-Serif" font-size="10.00">QString</text>
</a>
</g>
</g>
<!-- Node8&#45;&gt;Node15 -->
<g id="edge18" class="edge">
<title>Node8&#45;&gt;Node15</title>
<path fill="none" stroke="midnightblue" d="M375.1,-195.89C264.75,-190.34 61.15,-177.08 37.5,-154 21.01,-137.9 20.94,-109.7 23.14,-91.06"/>
<polygon fill="midnightblue" stroke="midnightblue" points="26.61,-91.53 24.64,-81.12 19.69,-90.49 26.61,-91.53"/>
</g>
<!-- Node16 -->
<g id="node16" class="node">
<title>Node16</title>
<g id="a_node16"><a xlink:title=" ">
<polygon fill="white" stroke="#bfbfbf" points="898.5,-129 898.5,-148 950.5,-148 950.5,-129 898.5,-129"/>
<text text-anchor="middle" x="924.5" y="-136" font-family="Helvetica,sans-Serif" font-size="10.00">cassert</text>
</a>
</g>
</g>
<!-- Node8&#45;&gt;Node16 -->
<g id="edge19" class="edge">
<title>Node8&#45;&gt;Node16</title>
<path fill="none" stroke="midnightblue" d="M515.8,-198.16C604.27,-195.69 760.28,-186.57 889.5,-154 892.01,-153.37 894.58,-152.59 897.12,-151.72"/>
<polygon fill="midnightblue" stroke="midnightblue" points="898.59,-154.9 906.68,-148.06 896.09,-148.37 898.59,-154.9"/>
</g>
<!-- Node17 -->
<g id="node17" class="node">
<title>Node17</title>
<g id="a_node17"><a xlink:title=" ">
<polygon fill="white" stroke="#bfbfbf" points="206.5,-129 206.5,-148 238.5,-148 238.5,-129 206.5,-129"/>
<text text-anchor="middle" x="222.5" y="-136" font-family="Helvetica,sans-Serif" font-size="10.00">list</text>
</a>
</g>
</g>
<!-- Node8&#45;&gt;Node17 -->
<g id="edge20" class="edge">
<title>Node8&#45;&gt;Node17</title>
<path fill="none" stroke="midnightblue" d="M386.94,-190.47C346.77,-183.48 292.77,-171.8 247.5,-154 246.62,-153.65 245.74,-153.28 244.85,-152.89"/>
<polygon fill="midnightblue" stroke="midnightblue" points="246.11,-149.6 235.62,-148.1 242.89,-155.81 246.11,-149.6"/>
</g>
<!-- Node18 -->
<g id="node18" class="node">
<title>Node18</title>
<g id="a_node18"><a xlink:title=" ">
<polygon fill="white" stroke="#bfbfbf" points="256.5,-129 256.5,-148 288.5,-148 288.5,-129 256.5,-129"/>
<text text-anchor="middle" x="272.5" y="-136" font-family="Helvetica,sans-Serif" font-size="10.00">set</text>
</a>
</g>
</g>
<!-- Node8&#45;&gt;Node18 -->
<g id="edge22" class="edge">
<title>Node8&#45;&gt;Node18</title>
<path fill="none" stroke="midnightblue" d="M409.08,-190.43C378.61,-182.67 334.32,-170.02 297.5,-154 296.65,-153.63 295.8,-153.24 294.95,-152.84"/>
<polygon fill="midnightblue" stroke="midnightblue" points="296.43,-149.66 285.96,-148.06 293.15,-155.84 296.43,-149.66"/>
</g>
<!-- Node19 -->
<g id="node19" class="node">
<title>Node19</title>
<g id="a_node19"><a xlink:title=" ">
<polygon fill="white" stroke="#bfbfbf" points="307,-129 307,-148 354,-148 354,-129 307,-129"/>
<text text-anchor="middle" x="330.5" y="-136" font-family="Helvetica,sans-Serif" font-size="10.00">vector</text>
</a>
</g>
</g>
<!-- Node8&#45;&gt;Node19 -->
<g id="edge23" class="edge">
<title>Node8&#45;&gt;Node19</title>
<path fill="none" stroke="midnightblue" d="M429.02,-190.48C409.89,-180.58 378.13,-164.14 355.85,-152.62"/>
<polygon fill="midnightblue" stroke="midnightblue" points="357.44,-149.5 346.95,-148.01 354.22,-155.71 357.44,-149.5"/>
</g>
<!-- Node9&#45;&gt;Node4 -->
<g id="edge9" class="edge">
<title>Node9&#45;&gt;Node4</title>
<path fill="none" stroke="midnightblue" d="M775.46,-128.87C747.95,-118.99 702.18,-102.55 667.14,-89.97"/>
<polygon fill="midnightblue" stroke="midnightblue" points="668.16,-86.61 657.56,-86.53 665.79,-93.2 668.16,-86.61"/>
</g>
<!-- Node9&#45;&gt;Node5 -->
<g id="edge10" class="edge">
<title>Node9&#45;&gt;Node5</title>
<path fill="none" stroke="midnightblue" d="M816.23,-128.87C837.6,-117.84 874.8,-98.66 899.78,-85.77"/>
<polygon fill="midnightblue" stroke="midnightblue" points="901.42,-88.86 908.7,-81.17 898.21,-82.64 901.42,-88.86"/>
</g>
<!-- Node10&#45;&gt;Node4 -->
<g id="edge12" class="edge">
<title>Node10&#45;&gt;Node4</title>
<path fill="none" stroke="midnightblue" d="M618.5,-128.73C618.5,-120.54 618.5,-107.92 618.5,-96.71"/>
<polygon fill="midnightblue" stroke="midnightblue" points="622,-96.59 618.5,-86.59 615,-96.59 622,-96.59"/>
</g>
<!-- Node11&#45;&gt;Node4 -->
<g id="edge14" class="edge">
<title>Node11&#45;&gt;Node4</title>
<path fill="none" stroke="midnightblue" d="M468.47,-128.87C494.66,-119.03 538.15,-102.69 571.58,-90.13"/>
<polygon fill="midnightblue" stroke="midnightblue" points="573.03,-93.32 581.16,-86.53 570.57,-86.77 573.03,-93.32"/>
</g>
<!-- Node12 -->
<g id="node12" class="node">
<title>Node12</title>
<g id="a_node12"><a xlink:href="Types_8h.html" target="_top" xlink:title=" ">
<polygon fill="white" stroke="black" points="251,-62 251,-81 382,-81 382,-62 251,-62"/>
<text text-anchor="middle" x="316.5" y="-69" font-family="Helvetica,sans-Serif" font-size="10.00">boomerang/util/Types.h</text>
</a>
</g>
</g>
<!-- Node11&#45;&gt;Node12 -->
<g id="edge15" class="edge">
<title>Node11&#45;&gt;Node12</title>
<path fill="none" stroke="midnightblue" d="M428.37,-128.87C406.49,-117.84 368.41,-98.66 342.83,-85.77"/>
<polygon fill="midnightblue" stroke="midnightblue" points="344.21,-82.54 333.7,-81.17 341.06,-88.79 344.21,-82.54"/>
</g>
<!-- Node14 -->
<g id="node14" class="node">
<title>Node14</title>
<g id="a_node14"><a xlink:title=" ">
<polygon fill="white" stroke="#bfbfbf" points="422.5,-62 422.5,-81 468.5,-81 468.5,-62 422.5,-62"/>
<text text-anchor="middle" x="445.5" y="-69" font-family="Helvetica,sans-Serif" font-size="10.00">cstdio</text>
</a>
</g>
</g>
<!-- Node11&#45;&gt;Node14 -->
<g id="edge17" class="edge">
<title>Node11&#45;&gt;Node14</title>
<path fill="none" stroke="midnightblue" d="M445.5,-128.73C445.5,-119.18 445.5,-103.62 445.5,-91.28"/>
<polygon fill="midnightblue" stroke="midnightblue" points="449,-91.13 445.5,-81.13 442,-91.13 449,-91.13"/>
</g>
<!-- Node13 -->
<g id="node13" class="node">
<title>Node13</title>
<g id="a_node13"><a xlink:title=" ">
<polygon fill="white" stroke="#bfbfbf" points="291.5,-0.5 291.5,-19.5 341.5,-19.5 341.5,-0.5 291.5,-0.5"/>
<text text-anchor="middle" x="316.5" y="-7.5" font-family="Helvetica,sans-Serif" font-size="10.00">cstdint</text>
</a>
</g>
</g>
<!-- Node12&#45;&gt;Node13 -->
<g id="edge16" class="edge">
<title>Node12&#45;&gt;Node13</title>
<path fill="none" stroke="midnightblue" d="M316.5,-61.98C316.5,-53.58 316.5,-40.48 316.5,-29.66"/>
<polygon fill="midnightblue" stroke="midnightblue" points="320,-29.51 316.5,-19.51 313,-29.51 320,-29.51"/>
</g>
<!-- Node20&#45;&gt;Node7 -->
<g id="edge32" class="edge">
<title>Node20&#45;&gt;Node7</title>
<path fill="none" stroke="midnightblue" d="M260.72,-302.44C294.43,-293.2 348.3,-278.44 385.43,-268.26"/>
<polygon fill="midnightblue" stroke="midnightblue" points="386.71,-271.54 395.43,-265.52 384.86,-264.78 386.71,-271.54"/>
</g>
<!-- Node21 -->
<g id="node21" class="node">
<title>Node21</title>
<g id="a_node21"><a xlink:href="Register_8h.html" target="_top" xlink:title=" ">
<polygon fill="white" stroke="black" points="47,-129 47,-148 188,-148 188,-129 47,-129"/>
<text text-anchor="middle" x="117.5" y="-136" font-family="Helvetica,sans-Serif" font-size="10.00">boomerang/ssl/Register.h</text>
</a>
</g>
</g>
<!-- Node20&#45;&gt;Node21 -->
<g id="edge25" class="edge">
<title>Node20&#45;&gt;Node21</title>
<path fill="none" stroke="midnightblue" d="M223.79,-302.26C206.11,-275.19 152.06,-192.41 128.58,-156.46"/>
<polygon fill="midnightblue" stroke="midnightblue" points="131.46,-154.48 123.06,-148.02 125.6,-158.31 131.46,-154.48"/>
</g>
<!-- Node21&#45;&gt;Node4 -->
<g id="edge26" class="edge">
<title>Node21&#45;&gt;Node4</title>
<path fill="none" stroke="midnightblue" d="M161.85,-128.97C173.43,-126.88 185.91,-124.74 197.5,-123 312.22,-105.74 445.24,-90.59 530.56,-81.5"/>
<polygon fill="midnightblue" stroke="midnightblue" points="531.14,-84.95 540.72,-80.42 530.4,-77.99 531.14,-84.95"/>
</g>
<!-- Node21&#45;&gt;Node5 -->
<g id="edge29" class="edge">
<title>Node21&#45;&gt;Node5</title>
<path fill="none" stroke="midnightblue" d="M159.72,-128.95C171.87,-126.73 185.17,-124.54 197.5,-123 231.88,-118.71 739.17,-84.87 885.98,-75.12"/>
<polygon fill="midnightblue" stroke="midnightblue" points="886.56,-78.59 896.31,-74.43 886.1,-71.6 886.56,-78.59"/>
</g>
<!-- Node21&#45;&gt;Node12 -->
<g id="edge27" class="edge">
<title>Node21&#45;&gt;Node12</title>
<path fill="none" stroke="midnightblue" d="M143.93,-128.87C179.04,-117.4 241.2,-97.09 280.56,-84.24"/>
<polygon fill="midnightblue" stroke="midnightblue" points="281.86,-87.5 290.28,-81.06 279.69,-80.84 281.86,-87.5"/>
</g>
<!-- Node21&#45;&gt;Node15 -->
<g id="edge28" class="edge">
<title>Node21&#45;&gt;Node15</title>
<path fill="none" stroke="midnightblue" d="M105.23,-128.73C90.35,-118.11 65.07,-100.05 47.17,-87.26"/>
<polygon fill="midnightblue" stroke="midnightblue" points="48.75,-84.09 38.58,-81.13 44.68,-89.79 48.75,-84.09"/>
</g>
<!-- Node22 -->
<g id="node22" class="node">
<title>Node22</title>
<g id="a_node22"><a xlink:title=" ">
<polygon fill="white" stroke="#bfbfbf" points="79.5,-62 79.5,-81 123.5,-81 123.5,-62 79.5,-62"/>
<text text-anchor="middle" x="101.5" y="-69" font-family="Helvetica,sans-Serif" font-size="10.00">string</text>
</a>
</g>
</g>
<!-- Node21&#45;&gt;Node22 -->
<g id="edge30" class="edge">
<title>Node21&#45;&gt;Node22</title>
<path fill="none" stroke="midnightblue" d="M115.34,-128.73C112.97,-119.09 109.08,-103.3 106.03,-90.91"/>
<polygon fill="midnightblue" stroke="midnightblue" points="109.41,-90 103.62,-81.13 102.62,-91.67 109.41,-90"/>
</g>
<!-- Node23 -->
<g id="node23" class="node">
<title>Node23</title>
<g id="a_node23"><a xlink:title=" ">
<polygon fill="white" stroke="#bfbfbf" points="142,-62 142,-81 211,-81 211,-62 142,-62"/>
<text text-anchor="middle" x="176.5" y="-69" font-family="Helvetica,sans-Serif" font-size="10.00">type_traits</text>
</a>
</g>
</g>
<!-- Node21&#45;&gt;Node23 -->
<g id="edge31" class="edge">
<title>Node21&#45;&gt;Node23</title>
<path fill="none" stroke="midnightblue" d="M125.46,-128.73C134.75,-118.5 150.3,-101.36 161.8,-88.69"/>
<polygon fill="midnightblue" stroke="midnightblue" points="164.54,-90.88 168.67,-81.13 159.36,-86.18 164.54,-90.88"/>
</g>
<!-- Node24&#45;&gt;Node7 -->
<g id="edge34" class="edge">
<title>Node24&#45;&gt;Node7</title>
<path fill="none" stroke="midnightblue" d="M410.64,-302.08C413.18,-294.85 416.86,-284.41 420.03,-275.4"/>
<polygon fill="midnightblue" stroke="midnightblue" points="423.4,-276.35 423.42,-265.75 416.8,-274.02 423.4,-276.35"/>
</g>
<!-- Node25&#45;&gt;Node8 -->
<g id="edge36" class="edge">
<title>Node25&#45;&gt;Node8</title>
<path fill="none" stroke="midnightblue" d="M618.86,-246.44C583.45,-237.16 526.79,-222.31 487.95,-212.13"/>
<polygon fill="midnightblue" stroke="midnightblue" points="488.55,-208.67 477.99,-209.52 486.77,-215.44 488.55,-208.67"/>
</g>
</g>
</svg>
