<?xml version="1.0" encoding="UTF-8" standalone="no"?>
<!DOCTYPE svg PUBLIC "-//W3C//DTD SVG 1.1//EN"
 "http://www.w3.org/Graphics/SVG/1.1/DTD/svg11.dtd">
<!-- Generated by graphviz version 2.43.0 (0)
 -->
<!-- Title: FlagsFinder.cpp Pages: 1 -->
<svg width="1041pt" height="386pt"
 viewBox="0.00 0.00 1041.00 386.00" xmlns="http://www.w3.org/2000/svg" xmlns:xlink="http://www.w3.org/1999/xlink">
<g id="graph0" class="graph" transform="scale(1 1) rotate(0) translate(4 382)">
<title>FlagsFinder.cpp</title>
<polygon fill="white" stroke="transparent" points="-4,4 -4,-382 1037,-382 1037,4 -4,4"/>
<!-- Node1 -->
<g id="node1" class="node">
<title>Node1</title>
<g id="a_node1"><a xlink:title=" ">
<polygon fill="#bfbfbf" stroke="black" points="202,-358.5 202,-377.5 294,-377.5 294,-358.5 202,-358.5"/>
<text text-anchor="middle" x="248" y="-365.5" font-family="Helvetica,sans-Serif" font-size="10.00">FlagsFinder.cpp</text>
</a>
</g>
</g>
<!-- Node2 -->
<g id="node2" class="node">
<title>Node2</title>
<g id="a_node2"><a xlink:href="FlagsFinder_8h.html" target="_top" xlink:title=" ">
<polygon fill="white" stroke="black" points="140.5,-302.5 140.5,-321.5 221.5,-321.5 221.5,-302.5 140.5,-302.5"/>
<text text-anchor="middle" x="181" y="-309.5" font-family="Helvetica,sans-Serif" font-size="10.00">FlagsFinder.h</text>
</a>
</g>
</g>
<!-- Node1&#45;&gt;Node2 -->
<g id="edge1" class="edge">
<title>Node1&#45;&gt;Node2</title>
<path fill="none" stroke="midnightblue" d="M237.24,-358.32C227.23,-350.26 212.11,-338.08 200.07,-328.37"/>
<polygon fill="midnightblue" stroke="midnightblue" points="201.94,-325.38 191.96,-321.83 197.55,-330.83 201.94,-325.38"/>
</g>
<!-- Node6 -->
<g id="node6" class="node">
<title>Node6</title>
<g id="a_node6"><a xlink:href="Binary_8h.html" target="_top" xlink:title=" ">
<polygon fill="white" stroke="black" points="279,-302.5 279,-321.5 431,-321.5 431,-302.5 279,-302.5"/>
<text text-anchor="middle" x="355" y="-309.5" font-family="Helvetica,sans-Serif" font-size="10.00">boomerang/ssl/exp/Binary.h</text>
</a>
</g>
</g>
<!-- Node1&#45;&gt;Node6 -->
<g id="edge5" class="edge">
<title>Node1&#45;&gt;Node6</title>
<path fill="none" stroke="midnightblue" d="M265.19,-358.32C282.35,-349.66 308.95,-336.24 328.75,-326.25"/>
<polygon fill="midnightblue" stroke="midnightblue" points="330.5,-329.28 337.85,-321.65 327.35,-323.04 330.5,-329.28"/>
</g>
<!-- Node3 -->
<g id="node3" class="node">
<title>Node3</title>
<g id="a_node3"><a xlink:href="ExpVisitor_8h.html" target="_top" xlink:title=" ">
<polygon fill="white" stroke="black" points="0,-123.5 0,-153.5 158,-153.5 158,-123.5 0,-123.5"/>
<text text-anchor="start" x="8" y="-141.5" font-family="Helvetica,sans-Serif" font-size="10.00">boomerang/visitor/expvisitor</text>
<text text-anchor="middle" x="79" y="-130.5" font-family="Helvetica,sans-Serif" font-size="10.00">/ExpVisitor.h</text>
</a>
</g>
</g>
<!-- Node2&#45;&gt;Node3 -->
<g id="edge2" class="edge">
<title>Node2&#45;&gt;Node3</title>
<path fill="none" stroke="midnightblue" d="M175.8,-302.26C160.57,-276.65 115.68,-201.17 92.78,-162.66"/>
<polygon fill="midnightblue" stroke="midnightblue" points="95.58,-160.53 87.46,-153.72 89.56,-164.11 95.58,-160.53"/>
</g>
<!-- Node4 -->
<g id="node4" class="node">
<title>Node4</title>
<g id="a_node4"><a xlink:href="BoomerangAPI_8h.html" target="_top" xlink:title=" ">
<polygon fill="white" stroke="black" points="568.5,-56.5 568.5,-86.5 723.5,-86.5 723.5,-56.5 568.5,-56.5"/>
<text text-anchor="start" x="576.5" y="-74.5" font-family="Helvetica,sans-Serif" font-size="10.00">boomerang/core/Boomerang</text>
<text text-anchor="middle" x="646" y="-63.5" font-family="Helvetica,sans-Serif" font-size="10.00">API.h</text>
</a>
</g>
</g>
<!-- Node3&#45;&gt;Node4 -->
<g id="edge3" class="edge">
<title>Node3&#45;&gt;Node4</title>
<path fill="none" stroke="midnightblue" d="M158.31,-128.37C173.79,-126.58 189.91,-124.73 205,-123 327.56,-108.93 469.28,-92.71 558.28,-82.53"/>
<polygon fill="midnightblue" stroke="midnightblue" points="558.79,-85.99 568.33,-81.38 557.99,-79.04 558.79,-85.99"/>
</g>
<!-- Node5 -->
<g id="node5" class="node">
<title>Node5</title>
<g id="a_node5"><a xlink:title=" ">
<polygon fill="white" stroke="#bfbfbf" points="157,-62 157,-81 215,-81 215,-62 157,-62"/>
<text text-anchor="middle" x="186" y="-69" font-family="Helvetica,sans-Serif" font-size="10.00">memory</text>
</a>
</g>
</g>
<!-- Node3&#45;&gt;Node5 -->
<g id="edge4" class="edge">
<title>Node3&#45;&gt;Node5</title>
<path fill="none" stroke="midnightblue" d="M102.22,-123.4C120.33,-112.39 145.34,-97.2 163.31,-86.28"/>
<polygon fill="midnightblue" stroke="midnightblue" points="165.27,-89.19 172,-81.01 161.63,-83.21 165.27,-89.19"/>
</g>
<!-- Node7 -->
<g id="node7" class="node">
<title>Node7</title>
<g id="a_node7"><a xlink:href="Unary_8h.html" target="_top" xlink:title=" ">
<polygon fill="white" stroke="black" points="300.5,-246.5 300.5,-265.5 449.5,-265.5 449.5,-246.5 300.5,-246.5"/>
<text text-anchor="middle" x="375" y="-253.5" font-family="Helvetica,sans-Serif" font-size="10.00">boomerang/ssl/exp/Unary.h</text>
</a>
</g>
</g>
<!-- Node6&#45;&gt;Node7 -->
<g id="edge6" class="edge">
<title>Node6&#45;&gt;Node7</title>
<path fill="none" stroke="midnightblue" d="M358.3,-302.08C360.98,-294.85 364.85,-284.41 368.19,-275.4"/>
<polygon fill="midnightblue" stroke="midnightblue" points="371.57,-276.34 371.76,-265.75 365,-273.91 371.57,-276.34"/>
</g>
<!-- Node8 -->
<g id="node8" class="node">
<title>Node8</title>
<g id="a_node8"><a xlink:href="Exp_8h.html" target="_top" xlink:title=" ">
<polygon fill="white" stroke="black" points="327,-190.5 327,-209.5 467,-209.5 467,-190.5 327,-190.5"/>
<text text-anchor="middle" x="397" y="-197.5" font-family="Helvetica,sans-Serif" font-size="10.00">boomerang/ssl/exp/Exp.h</text>
</a>
</g>
</g>
<!-- Node7&#45;&gt;Node8 -->
<g id="edge7" class="edge">
<title>Node7&#45;&gt;Node8</title>
<path fill="none" stroke="midnightblue" d="M378.63,-246.08C381.61,-238.77 385.93,-228.18 389.62,-219.1"/>
<polygon fill="midnightblue" stroke="midnightblue" points="392.9,-220.33 393.43,-209.75 386.42,-217.69 392.9,-220.33"/>
</g>
<!-- Node8&#45;&gt;Node5 -->
<g id="edge21" class="edge">
<title>Node8&#45;&gt;Node5</title>
<path fill="none" stroke="midnightblue" d="M327.41,-190.48C279.78,-183.25 222.24,-171.26 205,-154 188.5,-137.49 185.23,-109.6 185.08,-91.12"/>
<polygon fill="midnightblue" stroke="midnightblue" points="188.58,-91.09 185.3,-81.02 181.58,-90.94 188.58,-91.09"/>
</g>
<!-- Node9 -->
<g id="node9" class="node">
<title>Node9</title>
<g id="a_node9"><a xlink:href="ExpHelp_8h.html" target="_top" xlink:title=" ">
<polygon fill="white" stroke="black" points="522,-129 522,-148 684,-148 684,-129 522,-129"/>
<text text-anchor="middle" x="603" y="-136" font-family="Helvetica,sans-Serif" font-size="10.00">boomerang/ssl/exp/ExpHelp.h</text>
</a>
</g>
</g>
<!-- Node8&#45;&gt;Node9 -->
<g id="edge8" class="edge">
<title>Node8&#45;&gt;Node9</title>
<path fill="none" stroke="midnightblue" d="M426.51,-190.48C462.62,-180.05 523.85,-162.36 563.85,-150.81"/>
<polygon fill="midnightblue" stroke="midnightblue" points="564.9,-154.15 573.54,-148.01 562.96,-147.42 564.9,-154.15"/>
</g>
<!-- Node10 -->
<g id="node10" class="node">
<title>Node10</title>
<g id="a_node10"><a xlink:href="Operator_8h.html" target="_top" xlink:title=" ">
<polygon fill="white" stroke="black" points="702,-129 702,-148 866,-148 866,-129 702,-129"/>
<text text-anchor="middle" x="784" y="-136" font-family="Helvetica,sans-Serif" font-size="10.00">boomerang/ssl/exp/Operator.h</text>
</a>
</g>
</g>
<!-- Node8&#45;&gt;Node10 -->
<g id="edge11" class="edge">
<title>Node8&#45;&gt;Node10</title>
<path fill="none" stroke="midnightblue" d="M453.76,-190.49C513.36,-181.53 609.8,-166.95 693,-154 701.94,-152.61 711.37,-151.12 720.64,-149.66"/>
<polygon fill="midnightblue" stroke="midnightblue" points="721.27,-153.1 730.6,-148.07 720.17,-146.19 721.27,-153.1"/>
</g>
<!-- Node11 -->
<g id="node11" class="node">
<title>Node11</title>
<g id="a_node11"><a xlink:href="OStream_8h.html" target="_top" xlink:title=" ">
<polygon fill="white" stroke="black" points="884,-129 884,-148 1030,-148 1030,-129 884,-129"/>
<text text-anchor="middle" x="957" y="-136" font-family="Helvetica,sans-Serif" font-size="10.00">boomerang/util/OStream.h</text>
</a>
</g>
</g>
<!-- Node8&#45;&gt;Node11 -->
<g id="edge13" class="edge">
<title>Node8&#45;&gt;Node11</title>
<path fill="none" stroke="midnightblue" d="M467.27,-194.18C560.64,-187.36 730.65,-173.52 875,-154 883.85,-152.8 893.2,-151.34 902.3,-149.81"/>
<polygon fill="midnightblue" stroke="midnightblue" points="903.16,-153.21 912.42,-148.06 901.97,-146.31 903.16,-153.21"/>
</g>
<!-- Node15 -->
<g id="node15" class="node">
<title>Node15</title>
<g id="a_node15"><a xlink:title=" ">
<polygon fill="white" stroke="#bfbfbf" points="214.5,-129 214.5,-148 267.5,-148 267.5,-129 214.5,-129"/>
<text text-anchor="middle" x="241" y="-136" font-family="Helvetica,sans-Serif" font-size="10.00">QString</text>
</a>
</g>
</g>
<!-- Node8&#45;&gt;Node15 -->
<g id="edge18" class="edge">
<title>Node8&#45;&gt;Node15</title>
<path fill="none" stroke="midnightblue" d="M373.48,-190.37C349.24,-181.43 310.39,-166.98 277,-154 275.16,-153.29 273.28,-152.55 271.37,-151.79"/>
<polygon fill="midnightblue" stroke="midnightblue" points="272.49,-148.47 261.91,-148.02 269.9,-154.97 272.49,-148.47"/>
</g>
<!-- Node16 -->
<g id="node16" class="node">
<title>Node16</title>
<g id="a_node16"><a xlink:title=" ">
<polygon fill="white" stroke="#bfbfbf" points="286,-129 286,-148 338,-148 338,-129 286,-129"/>
<text text-anchor="middle" x="312" y="-136" font-family="Helvetica,sans-Serif" font-size="10.00">cassert</text>
</a>
</g>
</g>
<!-- Node8&#45;&gt;Node16 -->
<g id="edge19" class="edge">
<title>Node8&#45;&gt;Node16</title>
<path fill="none" stroke="midnightblue" d="M384.82,-190.48C371.19,-180.93 348.87,-165.31 332.53,-153.87"/>
<polygon fill="midnightblue" stroke="midnightblue" points="334.36,-150.88 324.16,-148.01 330.34,-156.61 334.36,-150.88"/>
</g>
<!-- Node17 -->
<g id="node17" class="node">
<title>Node17</title>
<g id="a_node17"><a xlink:title=" ">
<polygon fill="white" stroke="#bfbfbf" points="356,-129 356,-148 388,-148 388,-129 356,-129"/>
<text text-anchor="middle" x="372" y="-136" font-family="Helvetica,sans-Serif" font-size="10.00">list</text>
</a>
</g>
</g>
<!-- Node8&#45;&gt;Node17 -->
<g id="edge20" class="edge">
<title>Node8&#45;&gt;Node17</title>
<path fill="none" stroke="midnightblue" d="M393.42,-190.48C389.82,-181.9 384.15,-168.43 379.56,-157.48"/>
<polygon fill="midnightblue" stroke="midnightblue" points="382.68,-155.87 375.58,-148.01 376.22,-158.58 382.68,-155.87"/>
</g>
<!-- Node18 -->
<g id="node18" class="node">
<title>Node18</title>
<g id="a_node18"><a xlink:title=" ">
<polygon fill="white" stroke="#bfbfbf" points="406,-129 406,-148 438,-148 438,-129 406,-129"/>
<text text-anchor="middle" x="422" y="-136" font-family="Helvetica,sans-Serif" font-size="10.00">set</text>
</a>
</g>
</g>
<!-- Node8&#45;&gt;Node18 -->
<g id="edge22" class="edge">
<title>Node8&#45;&gt;Node18</title>
<path fill="none" stroke="midnightblue" d="M400.58,-190.48C404.18,-181.9 409.85,-168.43 414.44,-157.48"/>
<polygon fill="midnightblue" stroke="midnightblue" points="417.78,-158.58 418.42,-148.01 411.32,-155.87 417.78,-158.58"/>
</g>
<!-- Node19 -->
<g id="node19" class="node">
<title>Node19</title>
<g id="a_node19"><a xlink:title=" ">
<polygon fill="white" stroke="#bfbfbf" points="456.5,-129 456.5,-148 503.5,-148 503.5,-129 456.5,-129"/>
<text text-anchor="middle" x="480" y="-136" font-family="Helvetica,sans-Serif" font-size="10.00">vector</text>
</a>
</g>
</g>
<!-- Node8&#45;&gt;Node19 -->
<g id="edge23" class="edge">
<title>Node8&#45;&gt;Node19</title>
<path fill="none" stroke="midnightblue" d="M408.89,-190.48C422.2,-180.93 444,-165.31 459.96,-153.87"/>
<polygon fill="midnightblue" stroke="midnightblue" points="462.04,-156.68 468.13,-148.01 457.96,-150.99 462.04,-156.68"/>
</g>
<!-- Node9&#45;&gt;Node4 -->
<g id="edge9" class="edge">
<title>Node9&#45;&gt;Node4</title>
<path fill="none" stroke="midnightblue" d="M608.8,-128.73C614.5,-120.12 623.43,-106.61 631.12,-94.99"/>
<polygon fill="midnightblue" stroke="midnightblue" points="634.08,-96.86 636.68,-86.59 628.24,-93 634.08,-96.86"/>
</g>
<!-- Node9&#45;&gt;Node5 -->
<g id="edge10" class="edge">
<title>Node9&#45;&gt;Node5</title>
<path fill="none" stroke="midnightblue" d="M550.18,-128.93C537.98,-126.97 525.04,-124.9 513,-123 409.21,-106.62 286.79,-87.87 225.36,-78.49"/>
<polygon fill="midnightblue" stroke="midnightblue" points="225.74,-75.01 215.32,-76.96 224.68,-81.93 225.74,-75.01"/>
</g>
<!-- Node10&#45;&gt;Node4 -->
<g id="edge12" class="edge">
<title>Node10&#45;&gt;Node4</title>
<path fill="none" stroke="midnightblue" d="M765.67,-128.87C745.24,-119.24 711.58,-103.39 685.15,-90.94"/>
<polygon fill="midnightblue" stroke="midnightblue" points="686.32,-87.62 675.78,-86.53 683.34,-93.96 686.32,-87.62"/>
</g>
<!-- Node11&#45;&gt;Node4 -->
<g id="edge14" class="edge">
<title>Node11&#45;&gt;Node4</title>
<path fill="none" stroke="midnightblue" d="M916.02,-128.94C867.12,-118.71 784.3,-101.41 723.25,-88.65"/>
<polygon fill="midnightblue" stroke="midnightblue" points="723.77,-85.18 713.27,-86.56 722.34,-92.03 723.77,-85.18"/>
</g>
<!-- Node12 -->
<g id="node12" class="node">
<title>Node12</title>
<g id="a_node12"><a xlink:href="Types_8h.html" target="_top" xlink:title=" ">
<polygon fill="white" stroke="black" points="837.5,-62 837.5,-81 968.5,-81 968.5,-62 837.5,-62"/>
<text text-anchor="middle" x="903" y="-69" font-family="Helvetica,sans-Serif" font-size="10.00">boomerang/util/Types.h</text>
</a>
</g>
</g>
<!-- Node11&#45;&gt;Node12 -->
<g id="edge15" class="edge">
<title>Node11&#45;&gt;Node12</title>
<path fill="none" stroke="midnightblue" d="M949.72,-128.73C941.3,-118.6 927.25,-101.69 916.75,-89.06"/>
<polygon fill="midnightblue" stroke="midnightblue" points="919.25,-86.58 910.17,-81.13 913.87,-91.06 919.25,-86.58"/>
</g>
<!-- Node14 -->
<g id="node14" class="node">
<title>Node14</title>
<g id="a_node14"><a xlink:title=" ">
<polygon fill="white" stroke="#bfbfbf" points="987,-62 987,-81 1033,-81 1033,-62 987,-62"/>
<text text-anchor="middle" x="1010" y="-69" font-family="Helvetica,sans-Serif" font-size="10.00">cstdio</text>
</a>
</g>
</g>
<!-- Node11&#45;&gt;Node14 -->
<g id="edge17" class="edge">
<title>Node11&#45;&gt;Node14</title>
<path fill="none" stroke="midnightblue" d="M964.15,-128.73C972.41,-118.6 986.2,-101.69 996.5,-89.06"/>
<polygon fill="midnightblue" stroke="midnightblue" points="999.36,-91.09 1002.97,-81.13 993.93,-86.67 999.36,-91.09"/>
</g>
<!-- Node13 -->
<g id="node13" class="node">
<title>Node13</title>
<g id="a_node13"><a xlink:title=" ">
<polygon fill="white" stroke="#bfbfbf" points="878,-0.5 878,-19.5 928,-19.5 928,-0.5 878,-0.5"/>
<text text-anchor="middle" x="903" y="-7.5" font-family="Helvetica,sans-Serif" font-size="10.00">cstdint</text>
</a>
</g>
</g>
<!-- Node12&#45;&gt;Node13 -->
<g id="edge16" class="edge">
<title>Node12&#45;&gt;Node13</title>
<path fill="none" stroke="midnightblue" d="M903,-61.98C903,-53.58 903,-40.48 903,-29.66"/>
<polygon fill="midnightblue" stroke="midnightblue" points="906.5,-29.51 903,-19.51 899.5,-29.51 906.5,-29.51"/>
</g>
</g>
</svg>
