<?xml version="1.0" encoding="UTF-8" standalone="no"?>
<!DOCTYPE svg PUBLIC "-//W3C//DTD SVG 1.1//EN"
 "http://www.w3.org/Graphics/SVG/1.1/DTD/svg11.dtd">
<!-- Generated by graphviz version 2.43.0 (0)
 -->
<!-- Title: FloatType.cpp Pages: 1 -->
<svg width="544pt" height="285pt"
 viewBox="0.00 0.00 544.00 285.00" xmlns="http://www.w3.org/2000/svg" xmlns:xlink="http://www.w3.org/1999/xlink">
<g id="graph0" class="graph" transform="scale(1 1) rotate(0) translate(4 281)">
<title>FloatType.cpp</title>
<polygon fill="white" stroke="transparent" points="-4,4 -4,-281 540,-281 540,4 -4,4"/>
<!-- Node1 -->
<g id="node1" class="node">
<title>Node1</title>
<g id="a_node1"><a xlink:title=" ">
<polygon fill="#bfbfbf" stroke="black" points="306.5,-257.5 306.5,-276.5 390.5,-276.5 390.5,-257.5 306.5,-257.5"/>
<text text-anchor="middle" x="348.5" y="-264.5" font-family="Helvetica,sans-Serif" font-size="10.00">FloatType.cpp</text>
</a>
</g>
</g>
<!-- Node2 -->
<g id="node2" class="node">
<title>Node2</title>
<g id="a_node2"><a xlink:href="FloatType_8h.html" target="_top" xlink:title=" ">
<polygon fill="white" stroke="black" points="201,-196 201,-215 274,-215 274,-196 201,-196"/>
<text text-anchor="middle" x="237.5" y="-203" font-family="Helvetica,sans-Serif" font-size="10.00">FloatType.h</text>
</a>
</g>
</g>
<!-- Node1&#45;&gt;Node2 -->
<g id="edge1" class="edge">
<title>Node1&#45;&gt;Node2</title>
<path fill="none" stroke="midnightblue" d="M332.6,-257.48C314.22,-247.62 283.74,-231.29 262.26,-219.77"/>
<polygon fill="midnightblue" stroke="midnightblue" points="263.84,-216.65 253.37,-215.01 260.53,-222.82 263.84,-216.65"/>
</g>
<!-- Node10 -->
<g id="node10" class="node">
<title>Node10</title>
<g id="a_node10"><a xlink:href="ArrayType_8h.html" target="_top" xlink:title=" ">
<polygon fill="white" stroke="black" points="292,-190.5 292,-220.5 405,-220.5 405,-190.5 292,-190.5"/>
<text text-anchor="start" x="300" y="-208.5" font-family="Helvetica,sans-Serif" font-size="10.00">boomerang/ssl/type</text>
<text text-anchor="middle" x="348.5" y="-197.5" font-family="Helvetica,sans-Serif" font-size="10.00">/ArrayType.h</text>
</a>
</g>
</g>
<!-- Node1&#45;&gt;Node10 -->
<g id="edge9" class="edge">
<title>Node1&#45;&gt;Node10</title>
<path fill="none" stroke="midnightblue" d="M348.5,-257.48C348.5,-250.47 348.5,-240.19 348.5,-230.7"/>
<polygon fill="midnightblue" stroke="midnightblue" points="352,-230.52 348.5,-220.52 345,-230.52 352,-230.52"/>
</g>
<!-- Node11 -->
<g id="node11" class="node">
<title>Node11</title>
<g id="a_node11"><a xlink:href="SizeType_8h.html" target="_top" xlink:title=" ">
<polygon fill="white" stroke="black" points="423,-190.5 423,-220.5 536,-220.5 536,-190.5 423,-190.5"/>
<text text-anchor="start" x="431" y="-208.5" font-family="Helvetica,sans-Serif" font-size="10.00">boomerang/ssl/type</text>
<text text-anchor="middle" x="479.5" y="-197.5" font-family="Helvetica,sans-Serif" font-size="10.00">/SizeType.h</text>
</a>
</g>
</g>
<!-- Node1&#45;&gt;Node11 -->
<g id="edge11" class="edge">
<title>Node1&#45;&gt;Node11</title>
<path fill="none" stroke="midnightblue" d="M367.27,-257.48C386.01,-248.96 415.39,-235.62 439.39,-224.72"/>
<polygon fill="midnightblue" stroke="midnightblue" points="440.97,-227.85 448.63,-220.52 438.07,-221.47 440.97,-227.85"/>
</g>
<!-- Node3 -->
<g id="node3" class="node">
<title>Node3</title>
<g id="a_node3"><a xlink:href="Type_8h.html" target="_top" xlink:title=" ">
<polygon fill="white" stroke="black" points="292,-123.5 292,-153.5 405,-153.5 405,-123.5 292,-123.5"/>
<text text-anchor="start" x="300" y="-141.5" font-family="Helvetica,sans-Serif" font-size="10.00">boomerang/ssl/type</text>
<text text-anchor="middle" x="348.5" y="-130.5" font-family="Helvetica,sans-Serif" font-size="10.00">/Type.h</text>
</a>
</g>
</g>
<!-- Node2&#45;&gt;Node3 -->
<g id="edge2" class="edge">
<title>Node2&#45;&gt;Node3</title>
<path fill="none" stroke="midnightblue" d="M252.47,-195.73C268.55,-186.32 294.62,-171.05 315.54,-158.8"/>
<polygon fill="midnightblue" stroke="midnightblue" points="317.58,-161.66 324.44,-153.59 314.04,-155.62 317.58,-161.66"/>
</g>
<!-- Node4 -->
<g id="node4" class="node">
<title>Node4</title>
<g id="a_node4"><a xlink:href="BoomerangAPI_8h.html" target="_top" xlink:title=" ">
<polygon fill="white" stroke="black" points="0,-56.5 0,-86.5 155,-86.5 155,-56.5 0,-56.5"/>
<text text-anchor="start" x="8" y="-74.5" font-family="Helvetica,sans-Serif" font-size="10.00">boomerang/core/Boomerang</text>
<text text-anchor="middle" x="77.5" y="-63.5" font-family="Helvetica,sans-Serif" font-size="10.00">API.h</text>
</a>
</g>
</g>
<!-- Node3&#45;&gt;Node4 -->
<g id="edge3" class="edge">
<title>Node3&#45;&gt;Node4</title>
<path fill="none" stroke="midnightblue" d="M291.69,-123.87C249.27,-113.7 191.1,-99.75 146.08,-88.95"/>
<polygon fill="midnightblue" stroke="midnightblue" points="146.65,-85.49 136.11,-86.56 145.02,-92.29 146.65,-85.49"/>
</g>
<!-- Node5 -->
<g id="node5" class="node">
<title>Node5</title>
<g id="a_node5"><a xlink:href="Types_8h.html" target="_top" xlink:title=" ">
<polygon fill="white" stroke="black" points="173,-62 173,-81 304,-81 304,-62 173,-62"/>
<text text-anchor="middle" x="238.5" y="-69" font-family="Helvetica,sans-Serif" font-size="10.00">boomerang/util/Types.h</text>
</a>
</g>
</g>
<!-- Node3&#45;&gt;Node5 -->
<g id="edge4" class="edge">
<title>Node3&#45;&gt;Node5</title>
<path fill="none" stroke="midnightblue" d="M324.63,-123.4C305.93,-112.34 280.06,-97.06 261.57,-86.13"/>
<polygon fill="midnightblue" stroke="midnightblue" points="263.29,-83.08 252.9,-81.01 259.73,-89.11 263.29,-83.08"/>
</g>
<!-- Node7 -->
<g id="node7" class="node">
<title>Node7</title>
<g id="a_node7"><a xlink:title=" ">
<polygon fill="white" stroke="#bfbfbf" points="322,-62 322,-81 375,-81 375,-62 322,-62"/>
<text text-anchor="middle" x="348.5" y="-69" font-family="Helvetica,sans-Serif" font-size="10.00">QString</text>
</a>
</g>
</g>
<!-- Node3&#45;&gt;Node7 -->
<g id="edge6" class="edge">
<title>Node3&#45;&gt;Node7</title>
<path fill="none" stroke="midnightblue" d="M348.5,-123.4C348.5,-114.06 348.5,-101.71 348.5,-91.52"/>
<polygon fill="midnightblue" stroke="midnightblue" points="352,-91.19 348.5,-81.19 345,-91.19 352,-91.19"/>
</g>
<!-- Node8 -->
<g id="node8" class="node">
<title>Node8</title>
<g id="a_node8"><a xlink:title=" ">
<polygon fill="white" stroke="#bfbfbf" points="393.5,-62 393.5,-81 445.5,-81 445.5,-62 393.5,-62"/>
<text text-anchor="middle" x="419.5" y="-69" font-family="Helvetica,sans-Serif" font-size="10.00">cassert</text>
</a>
</g>
</g>
<!-- Node3&#45;&gt;Node8 -->
<g id="edge7" class="edge">
<title>Node3&#45;&gt;Node8</title>
<path fill="none" stroke="midnightblue" d="M363.91,-123.4C375.31,-112.96 390.83,-98.75 402.57,-88"/>
<polygon fill="midnightblue" stroke="midnightblue" points="404.99,-90.53 410,-81.19 400.26,-85.37 404.99,-90.53"/>
</g>
<!-- Node9 -->
<g id="node9" class="node">
<title>Node9</title>
<g id="a_node9"><a xlink:title=" ">
<polygon fill="white" stroke="#bfbfbf" points="463.5,-62 463.5,-81 521.5,-81 521.5,-62 463.5,-62"/>
<text text-anchor="middle" x="492.5" y="-69" font-family="Helvetica,sans-Serif" font-size="10.00">memory</text>
</a>
</g>
</g>
<!-- Node3&#45;&gt;Node9 -->
<g id="edge8" class="edge">
<title>Node3&#45;&gt;Node9</title>
<path fill="none" stroke="midnightblue" d="M379.75,-123.4C404.9,-112.04 439.95,-96.22 464.27,-85.24"/>
<polygon fill="midnightblue" stroke="midnightblue" points="465.98,-88.31 473.65,-81.01 463.1,-81.93 465.98,-88.31"/>
</g>
<!-- Node6 -->
<g id="node6" class="node">
<title>Node6</title>
<g id="a_node6"><a xlink:title=" ">
<polygon fill="white" stroke="#bfbfbf" points="213.5,-0.5 213.5,-19.5 263.5,-19.5 263.5,-0.5 213.5,-0.5"/>
<text text-anchor="middle" x="238.5" y="-7.5" font-family="Helvetica,sans-Serif" font-size="10.00">cstdint</text>
</a>
</g>
</g>
<!-- Node5&#45;&gt;Node6 -->
<g id="edge5" class="edge">
<title>Node5&#45;&gt;Node6</title>
<path fill="none" stroke="midnightblue" d="M238.5,-61.98C238.5,-53.58 238.5,-40.48 238.5,-29.66"/>
<polygon fill="midnightblue" stroke="midnightblue" points="242,-29.51 238.5,-19.51 235,-29.51 242,-29.51"/>
</g>
<!-- Node10&#45;&gt;Node3 -->
<g id="edge10" class="edge">
<title>Node10&#45;&gt;Node3</title>
<path fill="none" stroke="midnightblue" d="M348.5,-190.4C348.5,-182.64 348.5,-172.81 348.5,-163.86"/>
<polygon fill="midnightblue" stroke="midnightblue" points="352,-163.58 348.5,-153.58 345,-163.58 352,-163.58"/>
</g>
<!-- Node11&#45;&gt;Node3 -->
<g id="edge12" class="edge">
<title>Node11&#45;&gt;Node3</title>
<path fill="none" stroke="midnightblue" d="M451.07,-190.4C432.02,-180.94 406.72,-168.39 386.02,-158.12"/>
<polygon fill="midnightblue" stroke="midnightblue" points="387.38,-154.89 376.87,-153.58 384.27,-161.16 387.38,-154.89"/>
</g>
</g>
</svg>
