<?xml version="1.0" encoding="UTF-8" standalone="no"?>
<!DOCTYPE svg PUBLIC "-//W3C//DTD SVG 1.1//EN"
 "http://www.w3.org/Graphics/SVG/1.1/DTD/svg11.dtd">
<!-- Generated by graphviz version 2.43.0 (0)
 -->
<!-- Title: Global.h Pages: 1 -->
<!--zoomable 274 -->
<svg id="main" version="1.1" xmlns="http://www.w3.org/2000/svg" xmlns:xlink="http://www.w3.org/1999/xlink" xml:space="preserve" onload="init(evt)">
<style type="text/css"><![CDATA[
.edge:hover path { stroke: red; }
.edge:hover polygon { stroke: red; fill: red; }
]]></style>
<script type="text/javascript"><![CDATA[
var edges = document.getElementsByTagName('g');
if (edges && edges.length) {
  for (var i=0;i<edges.length;i++) {
    if (edges[i].id.substr(0,4)=='edge') {
      edges[i].setAttribute('class','edge');
    }
  }
}
]]></script>
        <defs>
                <circle id="rim" cx="0" cy="0" r="7"/>
                <circle id="rim2" cx="0" cy="0" r="3.5"/>
                <g id="zoomPlus">
                        <use xlink:href="#rim" fill="#404040">
                                <set attributeName="fill" to="#808080" begin="zoomplus.mouseover" end="zoomplus.mouseout"/>
                        </use>
                        <path d="M-4,0h8M0,-4v8" fill="none" stroke="white" stroke-width="1.5" pointer-events="none"/>
                </g>
                <g id="zoomMin">
                        <use xlink:href="#rim" fill="#404040">
                                <set attributeName="fill" to="#808080" begin="zoomminus.mouseover" end="zoomminus.mouseout"/>
                        </use>
                        <path d="M-4,0h8" fill="none" stroke="white" stroke-width="1.5" pointer-events="none"/>
                </g>
                <g id="dirArrow">
                        <path fill="none" stroke="white" stroke-width="1.5" d="M0,-3.0v7 M-2.5,-0.5L0,-3.0L2.5,-0.5"/>
                </g>
               <g id="resetDef">
                       <use xlink:href="#rim2" fill="#404040">
                               <set attributeName="fill" to="#808080" begin="reset.mouseover" end="reset.mouseout"/>
                       </use>
               </g>
        </defs>

<script type="text/javascript">
var viewWidth = 575;
var viewHeight = 274;
var sectionId = 'dynsection-0';
</script>
<script xlink:href="svgpan.js"/>
<svg id="graph" class="graph">
<g id="viewport">
<title>Global.h</title>
<polygon fill="white" stroke="transparent" points="-4,4 -4,-270 571,-270 571,4 -4,4"/>
<!-- Node1 -->
<g id="node1" class="node">
<title>Node1</title>
<g id="a_node1"><a xlink:title=" ">
<polygon fill="#bfbfbf" stroke="black" points="291.5,-246.5 291.5,-265.5 348.5,-265.5 348.5,-246.5 291.5,-246.5"/>
<text text-anchor="middle" x="320" y="-253.5" font-family="Helvetica,sans-Serif" font-size="10.00">Global.h</text>
</a>
</g>
</g>
<!-- Node2 -->
<g id="node2" class="node">
<title>Node2</title>
<g id="a_node2"><a xlink:href="Type_8h.html" target="_top" xlink:title=" ">
<polygon fill="white" stroke="black" points="398.5,-179.5 398.5,-209.5 511.5,-209.5 511.5,-179.5 398.5,-179.5"/>
<text text-anchor="start" x="406.5" y="-197.5" font-family="Helvetica,sans-Serif" font-size="10.00">boomerang/ssl/type</text>
<text text-anchor="middle" x="455" y="-186.5" font-family="Helvetica,sans-Serif" font-size="10.00">/Type.h</text>
</a>
</g>
</g>
<!-- Node1&#45;&gt;Node2 -->
<g id="edge1" class="edge">
<title>Node1&#45;&gt;Node2</title>
<path fill="none" stroke="midnightblue" d="M339.34,-246.48C358.74,-237.93 389.2,-224.5 413.99,-213.57"/>
<polygon fill="midnightblue" stroke="midnightblue" points="415.44,-216.76 423.18,-209.52 412.62,-210.35 415.44,-216.76"/>
</g>
<!-- Node9 -->
<g id="node9" class="node">
<title>Node9</title>
<g id="a_node9"><a xlink:href="Address_8h.html" target="_top" xlink:title=" ">
<polygon fill="white" stroke="black" points="100,-185 100,-204 242,-204 242,-185 100,-185"/>
<text text-anchor="middle" x="171" y="-192" font-family="Helvetica,sans-Serif" font-size="10.00">boomerang/util/Address.h</text>
</a>
</g>
</g>
<!-- Node1&#45;&gt;Node9 -->
<g id="edge8" class="edge">
<title>Node1&#45;&gt;Node9</title>
<path fill="none" stroke="midnightblue" d="M298.65,-246.48C273.31,-236.36 230.86,-219.4 201.93,-207.85"/>
<polygon fill="midnightblue" stroke="midnightblue" points="202.89,-204.47 192.31,-204.01 200.3,-210.97 202.89,-204.47"/>
</g>
<!-- Node12 -->
<g id="node12" class="node">
<title>Node12</title>
<g id="a_node12"><a xlink:href="Util_8h.html" target="_top" xlink:title=" ">
<polygon fill="white" stroke="black" points="260,-185 260,-204 380,-204 380,-185 260,-185"/>
<text text-anchor="middle" x="320" y="-192" font-family="Helvetica,sans-Serif" font-size="10.00">boomerang/util/Util.h</text>
</a>
</g>
</g>
<!-- Node1&#45;&gt;Node12 -->
<g id="edge16" class="edge">
<title>Node1&#45;&gt;Node12</title>
<path fill="none" stroke="midnightblue" d="M320,-246.48C320,-238.08 320,-224.98 320,-214.16"/>
<polygon fill="midnightblue" stroke="midnightblue" points="323.5,-214.01 320,-204.01 316.5,-214.01 323.5,-214.01"/>
</g>
<!-- Node3 -->
<g id="node3" class="node">
<title>Node3</title>
<g id="a_node3"><a xlink:href="BoomerangAPI_8h.html" target="_top" xlink:title=" ">
<polygon fill="white" stroke="black" points="221.5,-56.5 221.5,-86.5 376.5,-86.5 376.5,-56.5 221.5,-56.5"/>
<text text-anchor="start" x="229.5" y="-74.5" font-family="Helvetica,sans-Serif" font-size="10.00">boomerang/core/Boomerang</text>
<text text-anchor="middle" x="299" y="-63.5" font-family="Helvetica,sans-Serif" font-size="10.00">API.h</text>
</a>
</g>
</g>
<!-- Node2&#45;&gt;Node3 -->
<g id="edge2" class="edge">
<title>Node2&#45;&gt;Node3</title>
<path fill="none" stroke="midnightblue" d="M461.89,-179.31C468.26,-163.91 475.07,-139.35 463,-123 445.03,-98.67 415.52,-85.69 386.45,-78.89"/>
<polygon fill="midnightblue" stroke="midnightblue" points="387.14,-75.46 376.63,-76.82 385.69,-82.31 387.14,-75.46"/>
</g>
<!-- Node4 -->
<g id="node4" class="node">
<title>Node4</title>
<g id="a_node4"><a xlink:href="Types_8h.html" target="_top" xlink:title=" ">
<polygon fill="white" stroke="black" points="72.5,-62 72.5,-81 203.5,-81 203.5,-62 72.5,-62"/>
<text text-anchor="middle" x="138" y="-69" font-family="Helvetica,sans-Serif" font-size="10.00">boomerang/util/Types.h</text>
</a>
</g>
</g>
<!-- Node2&#45;&gt;Node4 -->
<g id="edge3" class="edge">
<title>Node2&#45;&gt;Node4</title>
<path fill="none" stroke="midnightblue" d="M454.13,-179.49C452.33,-163.3 446.83,-137.09 430,-123 354.69,-59.97 308.64,-104.44 212,-87 205.16,-85.77 197.98,-84.42 190.89,-83.06"/>
<polygon fill="midnightblue" stroke="midnightblue" points="191.09,-79.54 180.61,-81.08 189.77,-86.41 191.09,-79.54"/>
</g>
<!-- Node6 -->
<g id="node6" class="node">
<title>Node6</title>
<g id="a_node6"><a xlink:title=" ">
<polygon fill="white" stroke="#bfbfbf" points="291.5,-123.5 291.5,-142.5 344.5,-142.5 344.5,-123.5 291.5,-123.5"/>
<text text-anchor="middle" x="318" y="-130.5" font-family="Helvetica,sans-Serif" font-size="10.00">QString</text>
</a>
</g>
</g>
<!-- Node2&#45;&gt;Node6 -->
<g id="edge5" class="edge">
<title>Node2&#45;&gt;Node6</title>
<path fill="none" stroke="midnightblue" d="M422.53,-179.4C399.65,-169.46 369.27,-156.26 347.16,-146.66"/>
<polygon fill="midnightblue" stroke="midnightblue" points="348.5,-143.43 337.93,-142.66 345.71,-149.85 348.5,-143.43"/>
</g>
<!-- Node7 -->
<g id="node7" class="node">
<title>Node7</title>
<g id="a_node7"><a xlink:title=" ">
<polygon fill="white" stroke="#bfbfbf" points="515,-123.5 515,-142.5 567,-142.5 567,-123.5 515,-123.5"/>
<text text-anchor="middle" x="541" y="-130.5" font-family="Helvetica,sans-Serif" font-size="10.00">cassert</text>
</a>
</g>
</g>
<!-- Node2&#45;&gt;Node7 -->
<g id="edge6" class="edge">
<title>Node2&#45;&gt;Node7</title>
<path fill="none" stroke="midnightblue" d="M475.38,-179.4C488.91,-170.04 506.61,-157.79 520.22,-148.38"/>
<polygon fill="midnightblue" stroke="midnightblue" points="522.25,-151.23 528.49,-142.66 518.27,-145.47 522.25,-151.23"/>
</g>
<!-- Node8 -->
<g id="node8" class="node">
<title>Node8</title>
<g id="a_node8"><a xlink:title=" ">
<polygon fill="white" stroke="#bfbfbf" points="363,-123.5 363,-142.5 421,-142.5 421,-123.5 363,-123.5"/>
<text text-anchor="middle" x="392" y="-130.5" font-family="Helvetica,sans-Serif" font-size="10.00">memory</text>
</a>
</g>
</g>
<!-- Node2&#45;&gt;Node8 -->
<g id="edge7" class="edge">
<title>Node2&#45;&gt;Node8</title>
<path fill="none" stroke="midnightblue" d="M440.07,-179.4C430.63,-170.49 418.42,-158.95 408.67,-149.74"/>
<polygon fill="midnightblue" stroke="midnightblue" points="410.84,-146.98 401.17,-142.66 406.03,-152.07 410.84,-146.98"/>
</g>
<!-- Node5 -->
<g id="node5" class="node">
<title>Node5</title>
<g id="a_node5"><a xlink:title=" ">
<polygon fill="white" stroke="#bfbfbf" points="113,-0.5 113,-19.5 163,-19.5 163,-0.5 113,-0.5"/>
<text text-anchor="middle" x="138" y="-7.5" font-family="Helvetica,sans-Serif" font-size="10.00">cstdint</text>
</a>
</g>
</g>
<!-- Node4&#45;&gt;Node5 -->
<g id="edge4" class="edge">
<title>Node4&#45;&gt;Node5</title>
<path fill="none" stroke="midnightblue" d="M138,-61.98C138,-53.58 138,-40.48 138,-29.66"/>
<polygon fill="midnightblue" stroke="midnightblue" points="141.5,-29.51 138,-19.51 134.5,-29.51 141.5,-29.51"/>
</g>
<!-- Node9&#45;&gt;Node3 -->
<g id="edge9" class="edge">
<title>Node9&#45;&gt;Node3</title>
<path fill="none" stroke="midnightblue" d="M180.21,-184.8C200.22,-165.88 248.19,-120.53 276.67,-93.61"/>
<polygon fill="midnightblue" stroke="midnightblue" points="279.29,-95.95 284.15,-86.54 274.48,-90.87 279.29,-95.95"/>
</g>
<!-- Node9&#45;&gt;Node4 -->
<g id="edge14" class="edge">
<title>Node9&#45;&gt;Node4</title>
<path fill="none" stroke="midnightblue" d="M169.31,-184.75C166.66,-171.35 161.18,-144.99 155,-123 151.98,-112.26 148.03,-100.43 144.7,-90.92"/>
<polygon fill="midnightblue" stroke="midnightblue" points="147.95,-89.59 141.29,-81.35 141.35,-91.95 147.95,-89.59"/>
</g>
<!-- Node9&#45;&gt;Node6 -->
<g id="edge15" class="edge">
<title>Node9&#45;&gt;Node6</title>
<path fill="none" stroke="midnightblue" d="M192.06,-184.98C217.06,-174.86 258.94,-157.9 287.49,-146.35"/>
<polygon fill="midnightblue" stroke="midnightblue" points="289.02,-149.51 296.98,-142.51 286.39,-143.02 289.02,-149.51"/>
</g>
<!-- Node10 -->
<g id="node10" class="node">
<title>Node10</title>
<g id="a_node10"><a xlink:href="OStream_8h.html" target="_top" xlink:title=" ">
<polygon fill="white" stroke="black" points="0,-123.5 0,-142.5 146,-142.5 146,-123.5 0,-123.5"/>
<text text-anchor="middle" x="73" y="-130.5" font-family="Helvetica,sans-Serif" font-size="10.00">boomerang/util/OStream.h</text>
</a>
</g>
</g>
<!-- Node9&#45;&gt;Node10 -->
<g id="edge10" class="edge">
<title>Node9&#45;&gt;Node10</title>
<path fill="none" stroke="midnightblue" d="M156.96,-184.98C140.95,-175.25 114.55,-159.23 95.63,-147.74"/>
<polygon fill="midnightblue" stroke="midnightblue" points="97.38,-144.71 87.01,-142.51 93.75,-150.69 97.38,-144.71"/>
</g>
<!-- Node10&#45;&gt;Node3 -->
<g id="edge11" class="edge">
<title>Node10&#45;&gt;Node3</title>
<path fill="none" stroke="midnightblue" d="M105.38,-123.48C139.35,-114.53 193.6,-100.25 236.05,-89.07"/>
<polygon fill="midnightblue" stroke="midnightblue" points="236.96,-92.45 245.74,-86.52 235.17,-85.68 236.96,-92.45"/>
</g>
<!-- Node10&#45;&gt;Node4 -->
<g id="edge12" class="edge">
<title>Node10&#45;&gt;Node4</title>
<path fill="none" stroke="midnightblue" d="M82.31,-123.48C92.45,-114.2 108.86,-99.17 121.25,-87.83"/>
<polygon fill="midnightblue" stroke="midnightblue" points="123.69,-90.34 128.7,-81.01 118.96,-85.18 123.69,-90.34"/>
</g>
<!-- Node11 -->
<g id="node11" class="node">
<title>Node11</title>
<g id="a_node11"><a xlink:title=" ">
<polygon fill="white" stroke="#bfbfbf" points="8,-62 8,-81 54,-81 54,-62 8,-62"/>
<text text-anchor="middle" x="31" y="-69" font-family="Helvetica,sans-Serif" font-size="10.00">cstdio</text>
</a>
</g>
</g>
<!-- Node10&#45;&gt;Node11 -->
<g id="edge13" class="edge">
<title>Node10&#45;&gt;Node11</title>
<path fill="none" stroke="midnightblue" d="M66.98,-123.48C60.74,-114.64 50.83,-100.59 42.98,-89.48"/>
<polygon fill="midnightblue" stroke="midnightblue" points="45.63,-87.16 37.01,-81.01 39.91,-91.2 45.63,-87.16"/>
</g>
<!-- Node12&#45;&gt;Node3 -->
<g id="edge17" class="edge">
<title>Node12&#45;&gt;Node3</title>
<path fill="none" stroke="midnightblue" d="M310.91,-184.84C301.84,-175.51 288.47,-159.73 283,-143 277.98,-127.64 282.05,-109.9 287.35,-96.06"/>
<polygon fill="midnightblue" stroke="midnightblue" points="290.61,-97.33 291.3,-86.75 284.17,-94.59 290.61,-97.33"/>
</g>
<!-- Node12&#45;&gt;Node6 -->
<g id="edge18" class="edge">
<title>Node12&#45;&gt;Node6</title>
<path fill="none" stroke="midnightblue" d="M319.71,-184.98C319.43,-176.58 318.99,-163.48 318.63,-152.66"/>
<polygon fill="midnightblue" stroke="midnightblue" points="322.12,-152.39 318.29,-142.51 315.12,-152.62 322.12,-152.39"/>
</g>
<!-- Node12&#45;&gt;Node8 -->
<g id="edge19" class="edge">
<title>Node12&#45;&gt;Node8</title>
<path fill="none" stroke="midnightblue" d="M330.32,-184.98C341.65,-175.61 360.07,-160.38 373.84,-149.01"/>
<polygon fill="midnightblue" stroke="midnightblue" points="376.22,-151.58 381.7,-142.51 371.77,-146.18 376.22,-151.58"/>
</g>
</g>
</svg>
        <g id="navigator" transform="translate(0 0)" fill="#404254">
                <rect fill="#f2f5e9" fill-opacity="0.5" stroke="#606060" stroke-width=".5" x="0" y="0" width="60" height="60"/>
                <use id="zoomplus" xlink:href="#zoomPlus" x="17" y="9" onmousedown="handleZoom(evt,'in')"/>
                <use id="zoomminus" xlink:href="#zoomMin" x="42" y="9" onmousedown="handleZoom(evt,'out')"/>
                <use id="reset" xlink:href="#resetDef" x="30" y="36" onmousedown="handleReset()"/>
                <g id="arrowUp" xlink:href="#dirArrow" transform="translate(30 24)" onmousedown="handlePan(0,-1)">
                  <use xlink:href="#rim" fill="#404040">
                        <set attributeName="fill" to="#808080" begin="arrowUp.mouseover" end="arrowUp.mouseout"/>
                  </use>
                  <path fill="none" stroke="white" stroke-width="1.5" d="M0,-3.0v7 M-2.5,-0.5L0,-3.0L2.5,-0.5"/>
                </g>
                <g id="arrowRight" xlink:href="#dirArrow" transform="rotate(90) translate(36 -43)" onmousedown="handlePan(1,0)">
                  <use xlink:href="#rim" fill="#404040">
                        <set attributeName="fill" to="#808080" begin="arrowRight.mouseover" end="arrowRight.mouseout"/>
                  </use>
                  <path fill="none" stroke="white" stroke-width="1.5" d="M0,-3.0v7 M-2.5,-0.5L0,-3.0L2.5,-0.5"/>
                </g>
                <g id="arrowDown" xlink:href="#dirArrow" transform="rotate(180) translate(-30 -48)" onmousedown="handlePan(0,1)">
                  <use xlink:href="#rim" fill="#404040">
                        <set attributeName="fill" to="#808080" begin="arrowDown.mouseover" end="arrowDown.mouseout"/>
                  </use>
                  <path fill="none" stroke="white" stroke-width="1.5" d="M0,-3.0v7 M-2.5,-0.5L0,-3.0L2.5,-0.5"/>
                </g>
                <g id="arrowLeft" xlink:href="#dirArrow" transform="rotate(270) translate(-36 17)" onmousedown="handlePan(-1,0)">
                  <use xlink:href="#rim" fill="#404040">
                        <set attributeName="fill" to="#808080" begin="arrowLeft.mouseover" end="arrowLeft.mouseout"/>
                  </use>
                  <path fill="none" stroke="white" stroke-width="1.5" d="M0,-3.0v7 M-2.5,-0.5L0,-3.0L2.5,-0.5"/>
                </g>
        </g>
        <svg viewBox="0 0 15 15" width="100%" height="30px" preserveAspectRatio="xMaxYMin meet">
         <g id="arrow_out" transform="scale(0.3 0.3)">
          <a xlink:href="Global_8h__incl_org.svg" target="_base">
           <rect id="button" ry="5" rx="5" y="6" x="6" height="38" width="38"
                fill="#f2f5e9" fill-opacity="0.5" stroke="#606060" stroke-width="1.0"/>
           <path id="arrow"
             d="M 11.500037,31.436501 C 11.940474,20.09759 22.043105,11.32322 32.158766,21.979434 L 37.068811,17.246167 C 37.068811,17.246167 37.088388,32 37.088388,32 L 22.160133,31.978069 C 22.160133,31.978069 26.997745,27.140456 26.997745,27.140456 C 18.528582,18.264221 13.291696,25.230495 11.500037,31.436501 z"
             style="fill:#404040;"/>
          </a>
         </g>
        </svg>
</svg>
