<?xml version="1.0" encoding="UTF-8" standalone="no"?>
<!DOCTYPE svg PUBLIC "-//W3C//DTD SVG 1.1//EN"
 "http://www.w3.org/Graphics/SVG/1.1/DTD/svg11.dtd">
<!-- Generated by graphviz version 2.43.0 (0)
 -->
<!-- Title: Global.h Pages: 1 -->
<svg width="6400pt" height="140pt"
 viewBox="0.00 0.00 6400.00 140.00" xmlns="http://www.w3.org/2000/svg" xmlns:xlink="http://www.w3.org/1999/xlink">
<g id="graph0" class="graph" transform="scale(1 1) rotate(0) translate(4 136)">
<title>Global.h</title>
<polygon fill="white" stroke="transparent" points="-4,4 -4,-136 6396,-136 6396,4 -4,4"/>
<!-- Node1 -->
<g id="node1" class="node">
<title>Node1</title>
<g id="a_node1"><a xlink:title=" ">
<polygon fill="#bfbfbf" stroke="black" points="192.5,-112.5 192.5,-131.5 249.5,-131.5 249.5,-112.5 192.5,-112.5"/>
<text text-anchor="middle" x="221" y="-119.5" font-family="Helvetica,sans-Serif" font-size="10.00">Global.h</text>
</a>
</g>
</g>
<!-- Node2 -->
<g id="node2" class="node">
<title>Node2</title>
<g id="a_node2"><a xlink:href="Prog_8h.html" target="_top" xlink:title=" ">
<polygon fill="white" stroke="red" points="3623.5,-56.5 3623.5,-75.5 3670.5,-75.5 3670.5,-56.5 3623.5,-56.5"/>
<text text-anchor="middle" x="3647" y="-63.5" font-family="Helvetica,sans-Serif" font-size="10.00">Prog.h</text>
</a>
</g>
</g>
<!-- Node1&#45;&gt;Node2 -->
<g id="edge1" class="edge">
<title>Node1&#45;&gt;Node2</title>
<path fill="none" stroke="midnightblue" d="M259.71,-120.39C617.39,-114.75 3339.63,-71.84 3623.15,-67.38"/>
<polygon fill="midnightblue" stroke="midnightblue" points="259.53,-116.89 249.59,-120.55 259.64,-123.89 259.53,-116.89"/>
</g>
<!-- Node5 -->
<g id="node5" class="node">
<title>Node5</title>
<g id="a_node5"><a xlink:href="Global_8cpp.html" target="_top" xlink:title=" ">
<polygon fill="white" stroke="black" points="0,-0.5 0,-19.5 68,-19.5 68,-0.5 0,-0.5"/>
<text text-anchor="middle" x="34" y="-7.5" font-family="Helvetica,sans-Serif" font-size="10.00">Global.cpp</text>
</a>
</g>
</g>
<!-- Node1&#45;&gt;Node5 -->
<g id="edge50" class="edge">
<title>Node1&#45;&gt;Node5</title>
<path fill="none" stroke="midnightblue" d="M197.21,-107.01C157.96,-83.92 80.77,-38.51 48.61,-19.59"/>
<polygon fill="midnightblue" stroke="midnightblue" points="195.93,-110.32 206.33,-112.37 199.48,-104.28 195.93,-110.32"/>
</g>
<!-- Node10 -->
<g id="node10" class="node">
<title>Node10</title>
<g id="a_node10"><a xlink:href="Prog_8cpp.html" target="_top" xlink:title=" ">
<polygon fill="white" stroke="black" points="86.5,-0.5 86.5,-19.5 145.5,-19.5 145.5,-0.5 86.5,-0.5"/>
<text text-anchor="middle" x="116" y="-7.5" font-family="Helvetica,sans-Serif" font-size="10.00">Prog.cpp</text>
</a>
</g>
</g>
<!-- Node1&#45;&gt;Node10 -->
<g id="edge51" class="edge">
<title>Node1&#45;&gt;Node10</title>
<path fill="none" stroke="midnightblue" d="M205.63,-104.9C183.06,-81.25 141.72,-37.95 124.2,-19.59"/>
<polygon fill="midnightblue" stroke="midnightblue" points="203.32,-107.55 212.76,-112.37 208.39,-102.72 203.32,-107.55"/>
</g>
<!-- Node21 -->
<g id="node21" class="node">
<title>Node21</title>
<g id="a_node21"><a xlink:href="ProgDecompiler_8cpp.html" target="_top" xlink:title=" ">
<polygon fill="white" stroke="black" points="163.5,-0.5 163.5,-19.5 278.5,-19.5 278.5,-0.5 163.5,-0.5"/>
<text text-anchor="middle" x="221" y="-7.5" font-family="Helvetica,sans-Serif" font-size="10.00">ProgDecompiler.cpp</text>
</a>
</g>
</g>
<!-- Node1&#45;&gt;Node21 -->
<g id="edge52" class="edge">
<title>Node1&#45;&gt;Node21</title>
<path fill="none" stroke="midnightblue" d="M221,-102.35C221,-78.25 221,-37.31 221,-19.59"/>
<polygon fill="midnightblue" stroke="midnightblue" points="217.5,-102.37 221,-112.37 224.5,-102.37 217.5,-102.37"/>
</g>
<!-- Node52 -->
<g id="node50" class="node">
<title>Node52</title>
<g id="a_node50"><a xlink:href="ConstGlobalConverter_8cpp.html" target="_top" xlink:title=" ">
<polygon fill="white" stroke="black" points="6248,-0.5 6248,-19.5 6392,-19.5 6392,-0.5 6248,-0.5"/>
<text text-anchor="middle" x="6320" y="-7.5" font-family="Helvetica,sans-Serif" font-size="10.00">ConstGlobalConverter.cpp</text>
</a>
</g>
</g>
<!-- Node1&#45;&gt;Node52 -->
<g id="edge53" class="edge">
<title>Node1&#45;&gt;Node52</title>
<path fill="none" stroke="midnightblue" d="M259.9,-120.62C539.39,-117.9 2270.63,-100.57 3679,-76 4816.88,-56.15 5103.45,-95.36 6239,-20 6241.82,-19.81 6244.7,-19.6 6247.6,-19.37"/>
<polygon fill="midnightblue" stroke="midnightblue" points="259.81,-117.13 249.84,-120.72 259.88,-124.12 259.81,-117.13"/>
</g>
<!-- Node3 -->
<g id="node3" class="node">
<title>Node3</title>
<g id="a_node3"><a xlink:href="Project_8cpp.html" target="_top" xlink:title=" ">
<polygon fill="white" stroke="black" points="4946.5,-0.5 4946.5,-19.5 5017.5,-19.5 5017.5,-0.5 4946.5,-0.5"/>
<text text-anchor="middle" x="4982" y="-7.5" font-family="Helvetica,sans-Serif" font-size="10.00">Project.cpp</text>
</a>
</g>
</g>
<!-- Node2&#45;&gt;Node3 -->
<g id="edge2" class="edge">
<title>Node2&#45;&gt;Node3</title>
<path fill="none" stroke="midnightblue" d="M3680.6,-64.57C3857.59,-62.18 4683.15,-49.61 4937,-20 4940.01,-19.65 4943.11,-19.2 4946.22,-18.7"/>
<polygon fill="midnightblue" stroke="midnightblue" points="3680.53,-61.07 3670.58,-64.7 3680.62,-68.07 3680.53,-61.07"/>
</g>
<!-- Node4 -->
<g id="node4" class="node">
<title>Node4</title>
<g id="a_node4"><a xlink:href="DataFlow_8cpp.html" target="_top" xlink:title=" ">
<polygon fill="white" stroke="black" points="5035.5,-0.5 5035.5,-19.5 5118.5,-19.5 5118.5,-0.5 5035.5,-0.5"/>
<text text-anchor="middle" x="5077" y="-7.5" font-family="Helvetica,sans-Serif" font-size="10.00">DataFlow.cpp</text>
</a>
</g>
</g>
<!-- Node2&#45;&gt;Node4 -->
<g id="edge3" class="edge">
<title>Node2&#45;&gt;Node4</title>
<path fill="none" stroke="midnightblue" d="M3680.85,-64.57C3865.64,-62.09 4754.13,-48.85 5027,-20 5029.72,-19.71 5032.51,-19.36 5035.32,-18.97"/>
<polygon fill="midnightblue" stroke="midnightblue" points="3680.61,-61.07 3670.66,-64.7 3680.7,-68.07 3680.61,-61.07"/>
</g>
<!-- Node2&#45;&gt;Node5 -->
<g id="edge4" class="edge">
<title>Node2&#45;&gt;Node5</title>
<path fill="none" stroke="midnightblue" d="M3613.18,-64.97C3271.44,-64.64 447.37,-60.7 77,-20 74.12,-19.68 71.15,-19.26 68.17,-18.78"/>
<polygon fill="midnightblue" stroke="midnightblue" points="3613.21,-68.47 3623.21,-64.98 3613.22,-61.47 3613.21,-68.47"/>
</g>
<!-- Node6 -->
<g id="node6" class="node">
<title>Node6</title>
<g id="a_node6"><a xlink:href="Module_8cpp.html" target="_top" xlink:title=" ">
<polygon fill="white" stroke="black" points="5136.5,-0.5 5136.5,-19.5 5209.5,-19.5 5209.5,-0.5 5136.5,-0.5"/>
<text text-anchor="middle" x="5173" y="-7.5" font-family="Helvetica,sans-Serif" font-size="10.00">Module.cpp</text>
</a>
</g>
</g>
<!-- Node2&#45;&gt;Node6 -->
<g id="edge5" class="edge">
<title>Node2&#45;&gt;Node6</title>
<path fill="none" stroke="midnightblue" d="M3680.57,-64.74C3872.63,-63.15 4834.06,-53.62 5128,-20 5130.69,-19.69 5133.46,-19.31 5136.24,-18.87"/>
<polygon fill="midnightblue" stroke="midnightblue" points="3680.48,-61.24 3670.51,-64.82 3680.54,-68.24 3680.48,-61.24"/>
</g>
<!-- Node7 -->
<g id="node7" class="node">
<title>Node7</title>
<g id="a_node7"><a xlink:href="LibProc_8cpp.html" target="_top" xlink:title=" ">
<polygon fill="white" stroke="black" points="5228,-0.5 5228,-19.5 5300,-19.5 5300,-0.5 5228,-0.5"/>
<text text-anchor="middle" x="5264" y="-7.5" font-family="Helvetica,sans-Serif" font-size="10.00">LibProc.cpp</text>
</a>
</g>
</g>
<!-- Node2&#45;&gt;Node7 -->
<g id="edge6" class="edge">
<title>Node2&#45;&gt;Node7</title>
<path fill="none" stroke="midnightblue" d="M3680.72,-64.81C3880.03,-63.57 4906,-55.52 5219,-20 5221.85,-19.68 5224.79,-19.27 5227.73,-18.8"/>
<polygon fill="midnightblue" stroke="midnightblue" points="3680.54,-61.31 3670.56,-64.87 3680.59,-68.31 3680.54,-61.31"/>
</g>
<!-- Node8 -->
<g id="node8" class="node">
<title>Node8</title>
<g id="a_node8"><a xlink:href="Proc_8cpp.html" target="_top" xlink:title=" ">
<polygon fill="white" stroke="black" points="5318,-0.5 5318,-19.5 5376,-19.5 5376,-0.5 5318,-0.5"/>
<text text-anchor="middle" x="5347" y="-7.5" font-family="Helvetica,sans-Serif" font-size="10.00">Proc.cpp</text>
</a>
</g>
</g>
<!-- Node2&#45;&gt;Node8 -->
<g id="edge7" class="edge">
<title>Node2&#45;&gt;Node8</title>
<path fill="none" stroke="midnightblue" d="M3680.7,-65.03C3886.64,-65.08 4977.73,-63.25 5309,-20 5311.82,-19.63 5314.74,-19.14 5317.65,-18.58"/>
<polygon fill="midnightblue" stroke="midnightblue" points="3680.5,-61.53 3670.5,-65.03 3680.5,-68.53 3680.5,-61.53"/>
</g>
<!-- Node9 -->
<g id="node9" class="node">
<title>Node9</title>
<g id="a_node9"><a xlink:href="UserProc_8cpp.html" target="_top" xlink:title=" ">
<polygon fill="white" stroke="black" points="5394,-0.5 5394,-19.5 5474,-19.5 5474,-0.5 5394,-0.5"/>
<text text-anchor="middle" x="5434" y="-7.5" font-family="Helvetica,sans-Serif" font-size="10.00">UserProc.cpp</text>
</a>
</g>
</g>
<!-- Node2&#45;&gt;Node9 -->
<g id="edge8" class="edge">
<title>Node2&#45;&gt;Node9</title>
<path fill="none" stroke="midnightblue" d="M3680.87,-64.84C3892.63,-63.76 5036.8,-56.26 5385,-20 5387.92,-19.7 5390.94,-19.31 5393.96,-18.88"/>
<polygon fill="midnightblue" stroke="midnightblue" points="3680.66,-61.34 3670.68,-64.89 3680.7,-68.34 3680.66,-61.34"/>
</g>
<!-- Node2&#45;&gt;Node10 -->
<g id="edge9" class="edge">
<title>Node2&#45;&gt;Node10</title>
<path fill="none" stroke="midnightblue" d="M3613.14,-65.02C3275.27,-65.12 515.55,-64.59 154,-20 151.31,-19.67 148.53,-19.22 145.76,-18.7"/>
<polygon fill="midnightblue" stroke="midnightblue" points="3613.28,-68.52 3623.28,-65.01 3613.28,-61.52 3613.28,-68.52"/>
</g>
<!-- Node11 -->
<g id="node11" class="node">
<title>Node11</title>
<g id="a_node11"><a xlink:href="PentiumSignature_8cpp.html" target="_top" xlink:title=" ">
<polygon fill="white" stroke="black" points="5492,-0.5 5492,-19.5 5616,-19.5 5616,-0.5 5492,-0.5"/>
<text text-anchor="middle" x="5554" y="-7.5" font-family="Helvetica,sans-Serif" font-size="10.00">PentiumSignature.cpp</text>
</a>
</g>
</g>
<!-- Node2&#45;&gt;Node11 -->
<g id="edge10" class="edge">
<title>Node2&#45;&gt;Node11</title>
<path fill="none" stroke="midnightblue" d="M3681.02,-64.64C3899.98,-62.25 5113.27,-47.89 5483,-20 5485.85,-19.79 5488.76,-19.54 5491.7,-19.26"/>
<polygon fill="midnightblue" stroke="midnightblue" points="3680.75,-61.14 3670.79,-64.75 3680.83,-68.14 3680.75,-61.14"/>
</g>
<!-- Node12 -->
<g id="node12" class="node">
<title>Node12</title>
<g id="a_node12"><a xlink:href="PPCSignature_8cpp.html" target="_top" xlink:title=" ">
<polygon fill="white" stroke="black" points="5634,-0.5 5634,-19.5 5736,-19.5 5736,-0.5 5634,-0.5"/>
<text text-anchor="middle" x="5685" y="-7.5" font-family="Helvetica,sans-Serif" font-size="10.00">PPCSignature.cpp</text>
</a>
</g>
</g>
<!-- Node2&#45;&gt;Node12 -->
<g id="edge11" class="edge">
<title>Node2&#45;&gt;Node12</title>
<path fill="none" stroke="midnightblue" d="M3680.77,-64.82C3908.7,-63.48 5225.38,-54.38 5625,-20 5627.94,-19.75 5630.95,-19.44 5633.99,-19.1"/>
<polygon fill="midnightblue" stroke="midnightblue" points="3680.72,-61.32 3670.74,-64.87 3680.76,-68.32 3680.72,-61.32"/>
</g>
<!-- Node13 -->
<g id="node13" class="node">
<title>Node13</title>
<g id="a_node13"><a xlink:href="Signature_8cpp.html" target="_top" xlink:title=" ">
<polygon fill="white" stroke="black" points="5754.5,-0.5 5754.5,-19.5 5837.5,-19.5 5837.5,-0.5 5754.5,-0.5"/>
<text text-anchor="middle" x="5796" y="-7.5" font-family="Helvetica,sans-Serif" font-size="10.00">Signature.cpp</text>
</a>
</g>
</g>
<!-- Node2&#45;&gt;Node13 -->
<g id="edge12" class="edge">
<title>Node2&#45;&gt;Node13</title>
<path fill="none" stroke="midnightblue" d="M3680.59,-64.99C3915.9,-64.78 5320.3,-61.78 5745,-20 5748.04,-19.7 5751.18,-19.32 5754.32,-18.89"/>
<polygon fill="midnightblue" stroke="midnightblue" points="3680.57,-61.49 3670.58,-64.99 3680.58,-68.49 3680.57,-61.49"/>
</g>
<!-- Node14 -->
<g id="node14" class="node">
<title>Node14</title>
<g id="a_node14"><a xlink:href="SPARCSignature_8cpp.html" target="_top" xlink:title=" ">
<polygon fill="white" stroke="black" points="5856,-0.5 5856,-19.5 5972,-19.5 5972,-0.5 5856,-0.5"/>
<text text-anchor="middle" x="5914" y="-7.5" font-family="Helvetica,sans-Serif" font-size="10.00">SPARCSignature.cpp</text>
</a>
</g>
</g>
<!-- Node2&#45;&gt;Node14 -->
<g id="edge13" class="edge">
<title>Node2&#45;&gt;Node14</title>
<path fill="none" stroke="midnightblue" d="M3681.05,-64.83C3924.19,-63.56 5400.13,-54.47 5847,-20 5849.93,-19.77 5852.92,-19.51 5855.94,-19.21"/>
<polygon fill="midnightblue" stroke="midnightblue" points="3680.7,-61.33 3670.72,-64.89 3680.74,-68.33 3680.7,-61.33"/>
</g>
<!-- Node15 -->
<g id="node15" class="node">
<title>Node15</title>
<g id="a_node15"><a xlink:href="ST20Signature_8cpp.html" target="_top" xlink:title=" ">
<polygon fill="white" stroke="black" points="5990.5,-0.5 5990.5,-19.5 6097.5,-19.5 6097.5,-0.5 5990.5,-0.5"/>
<text text-anchor="middle" x="6044" y="-7.5" font-family="Helvetica,sans-Serif" font-size="10.00">ST20Signature.cpp</text>
</a>
</g>
</g>
<!-- Node2&#45;&gt;Node15 -->
<g id="edge14" class="edge">
<title>Node2&#45;&gt;Node15</title>
<path fill="none" stroke="midnightblue" d="M3681.14,-64.92C3932.96,-64.22 5505.83,-58.38 5981,-20 5984.08,-19.75 5987.25,-19.45 5990.43,-19.11"/>
<polygon fill="midnightblue" stroke="midnightblue" points="3680.79,-61.42 3670.8,-64.95 3680.8,-68.42 3680.79,-61.42"/>
</g>
<!-- Node16 -->
<g id="node16" class="node">
<title>Node16</title>
<g id="a_node16"><a xlink:href="Win32Signature_8cpp.html" target="_top" xlink:title=" ">
<polygon fill="white" stroke="black" points="6116,-0.5 6116,-19.5 6230,-19.5 6230,-0.5 6116,-0.5"/>
<text text-anchor="middle" x="6173" y="-7.5" font-family="Helvetica,sans-Serif" font-size="10.00">Win32Signature.cpp</text>
</a>
</g>
</g>
<!-- Node2&#45;&gt;Node16 -->
<g id="edge15" class="edge">
<title>Node2&#45;&gt;Node16</title>
<path fill="none" stroke="midnightblue" d="M3680.95,-64.93C3939.78,-64.29 5604.74,-58.7 6107,-20 6109.88,-19.78 6112.83,-19.51 6115.81,-19.22"/>
<polygon fill="midnightblue" stroke="midnightblue" points="3680.66,-61.43 3670.67,-64.95 3680.68,-68.43 3680.66,-61.43"/>
</g>
<!-- Node17 -->
<g id="node17" class="node">
<title>Node17</title>
<g id="a_node17"><a xlink:href="IndirectJumpAnalyzer_8cpp.html" target="_top" xlink:title=" ">
<polygon fill="white" stroke="black" points="296.5,-0.5 296.5,-19.5 437.5,-19.5 437.5,-0.5 296.5,-0.5"/>
<text text-anchor="middle" x="367" y="-7.5" font-family="Helvetica,sans-Serif" font-size="10.00">IndirectJumpAnalyzer.cpp</text>
</a>
</g>
</g>
<!-- Node2&#45;&gt;Node17 -->
<g id="edge16" class="edge">
<title>Node2&#45;&gt;Node17</title>
<path fill="none" stroke="midnightblue" d="M3613.17,-64.99C3313.43,-64.83 1107.23,-62.21 446,-20 443.24,-19.82 440.44,-19.62 437.6,-19.4"/>
<polygon fill="midnightblue" stroke="midnightblue" points="3613.4,-68.49 3623.41,-64.99 3613.41,-61.49 3613.4,-68.49"/>
</g>
<!-- Node18 -->
<g id="node18" class="node">
<title>Node18</title>
<g id="a_node18"><a xlink:href="InterferenceFinder_8cpp.html" target="_top" xlink:title=" ">
<polygon fill="white" stroke="black" points="455.5,-0.5 455.5,-19.5 580.5,-19.5 580.5,-0.5 455.5,-0.5"/>
<text text-anchor="middle" x="518" y="-7.5" font-family="Helvetica,sans-Serif" font-size="10.00">InterferenceFinder.cpp</text>
</a>
</g>
</g>
<!-- Node2&#45;&gt;Node18 -->
<g id="edge17" class="edge">
<title>Node2&#45;&gt;Node18</title>
<path fill="none" stroke="midnightblue" d="M3612.91,-65.01C3319.78,-65.07 1219.95,-63.88 590,-20 586.98,-19.79 583.9,-19.54 580.79,-19.26"/>
<polygon fill="midnightblue" stroke="midnightblue" points="3613.32,-68.51 3623.32,-65.01 3613.31,-61.51 3613.32,-68.51"/>
</g>
<!-- Node19 -->
<g id="node19" class="node">
<title>Node19</title>
<g id="a_node19"><a xlink:href="LivenessAnalyzer_8cpp.html" target="_top" xlink:title=" ">
<polygon fill="white" stroke="black" points="599,-0.5 599,-19.5 721,-19.5 721,-0.5 599,-0.5"/>
<text text-anchor="middle" x="660" y="-7.5" font-family="Helvetica,sans-Serif" font-size="10.00">LivenessAnalyzer.cpp</text>
</a>
</g>
</g>
<!-- Node2&#45;&gt;Node19 -->
<g id="edge18" class="edge">
<title>Node2&#45;&gt;Node19</title>
<path fill="none" stroke="midnightblue" d="M3613.15,-65C3328.52,-64.96 1330.08,-63.07 730,-20 727.07,-19.79 724.07,-19.54 721.04,-19.26"/>
<polygon fill="midnightblue" stroke="midnightblue" points="3613.28,-68.5 3623.28,-65 3613.28,-61.5 3613.28,-68.5"/>
</g>
<!-- Node20 -->
<g id="node20" class="node">
<title>Node20</title>
<g id="a_node20"><a xlink:href="ProcDecompiler_8cpp.html" target="_top" xlink:title=" ">
<polygon fill="white" stroke="black" points="739,-0.5 739,-19.5 853,-19.5 853,-0.5 739,-0.5"/>
<text text-anchor="middle" x="796" y="-7.5" font-family="Helvetica,sans-Serif" font-size="10.00">ProcDecompiler.cpp</text>
</a>
</g>
</g>
<!-- Node2&#45;&gt;Node20 -->
<g id="edge19" class="edge">
<title>Node2&#45;&gt;Node20</title>
<path fill="none" stroke="midnightblue" d="M3612.99,-65.01C3335.08,-65.01 1433.58,-63.43 862,-20 859.12,-19.78 856.17,-19.52 853.19,-19.22"/>
<polygon fill="midnightblue" stroke="midnightblue" points="3613.25,-68.51 3623.25,-65.01 3613.25,-61.51 3613.25,-68.51"/>
</g>
<!-- Node2&#45;&gt;Node21 -->
<g id="edge20" class="edge">
<title>Node2&#45;&gt;Node21</title>
<path fill="none" stroke="midnightblue" d="M3613.4,-65.12C3306.28,-66.11 981.97,-71.84 287,-20 284.23,-19.79 281.4,-19.55 278.55,-19.27"/>
<polygon fill="midnightblue" stroke="midnightblue" points="3613.47,-68.62 3623.46,-65.08 3613.45,-61.62 3613.47,-68.62"/>
</g>
<!-- Node22 -->
<g id="node22" class="node">
<title>Node22</title>
<g id="a_node22"><a xlink:href="UnusedReturnRemover_8cpp.html" target="_top" xlink:title=" ">
<polygon fill="white" stroke="black" points="871,-0.5 871,-19.5 1021,-19.5 1021,-0.5 871,-0.5"/>
<text text-anchor="middle" x="946" y="-7.5" font-family="Helvetica,sans-Serif" font-size="10.00">UnusedReturnRemover.cpp</text>
</a>
</g>
</g>
<!-- Node2&#45;&gt;Node22 -->
<g id="edge21" class="edge">
<title>Node2&#45;&gt;Node22</title>
<path fill="none" stroke="midnightblue" d="M3613,-64.84C3344.78,-63.47 1566.24,-53.27 1030,-20 1027.07,-19.82 1024.09,-19.61 1021.08,-19.38"/>
<polygon fill="midnightblue" stroke="midnightblue" points="3613.26,-68.34 3623.28,-64.89 3613.29,-61.34 3613.26,-68.34"/>
</g>
<!-- Node23 -->
<g id="node23" class="node">
<title>Node23</title>
<g id="a_node23"><a xlink:href="DefaultFrontEnd_8cpp.html" target="_top" xlink:title=" ">
<polygon fill="white" stroke="black" points="1039,-0.5 1039,-19.5 1155,-19.5 1155,-0.5 1039,-0.5"/>
<text text-anchor="middle" x="1097" y="-7.5" font-family="Helvetica,sans-Serif" font-size="10.00">DefaultFrontEnd.cpp</text>
</a>
</g>
</g>
<!-- Node2&#45;&gt;Node23 -->
<g id="edge22" class="edge">
<title>Node2&#45;&gt;Node23</title>
<path fill="none" stroke="midnightblue" d="M3613.14,-64.92C3353.24,-64.26 1671.26,-58.54 1164,-20 1161.07,-19.78 1158.08,-19.51 1155.06,-19.22"/>
<polygon fill="midnightblue" stroke="midnightblue" points="3613.45,-68.43 3623.45,-64.95 3613.46,-61.43 3613.45,-68.43"/>
</g>
<!-- Node24 -->
<g id="node24" class="node">
<title>Node24</title>
<g id="a_node24"><a xlink:href="CallArgumentUpdatePass_8cpp.html" target="_top" xlink:title=" ">
<polygon fill="white" stroke="black" points="1173.5,-0.5 1173.5,-19.5 1334.5,-19.5 1334.5,-0.5 1173.5,-0.5"/>
<text text-anchor="middle" x="1254" y="-7.5" font-family="Helvetica,sans-Serif" font-size="10.00">CallArgumentUpdatePass.cpp</text>
</a>
</g>
</g>
<!-- Node2&#45;&gt;Node24 -->
<g id="edge23" class="edge">
<title>Node2&#45;&gt;Node24</title>
<path fill="none" stroke="midnightblue" d="M3612.93,-64.71C3363.32,-62.53 1813.31,-48.01 1344,-20 1341.02,-19.82 1337.99,-19.62 1334.93,-19.4"/>
<polygon fill="midnightblue" stroke="midnightblue" points="3613.17,-68.21 3623.2,-64.8 3613.23,-61.21 3613.17,-68.21"/>
</g>
<!-- Node25 -->
<g id="node25" class="node">
<title>Node25</title>
<g id="a_node25"><a xlink:href="CallDefineUpdatePass_8cpp.html" target="_top" xlink:title=" ">
<polygon fill="white" stroke="black" points="1353,-0.5 1353,-19.5 1499,-19.5 1499,-0.5 1353,-0.5"/>
<text text-anchor="middle" x="1426" y="-7.5" font-family="Helvetica,sans-Serif" font-size="10.00">CallDefineUpdatePass.cpp</text>
</a>
</g>
</g>
<!-- Node2&#45;&gt;Node25 -->
<g id="edge24" class="edge">
<title>Node2&#45;&gt;Node25</title>
<path fill="none" stroke="midnightblue" d="M3613.16,-64.7C3374.55,-62.51 1942.39,-48.35 1508,-20 1505.14,-19.81 1502.23,-19.6 1499.29,-19.37"/>
<polygon fill="midnightblue" stroke="midnightblue" points="3613.27,-68.2 3623.3,-64.79 3613.34,-61.2 3613.27,-68.2"/>
</g>
<!-- Node26 -->
<g id="node26" class="node">
<title>Node26</title>
<g id="a_node26"><a xlink:href="BlockVarRenamePass_8cpp.html" target="_top" xlink:title=" ">
<polygon fill="white" stroke="black" points="1517.5,-0.5 1517.5,-19.5 1660.5,-19.5 1660.5,-0.5 1517.5,-0.5"/>
<text text-anchor="middle" x="1589" y="-7.5" font-family="Helvetica,sans-Serif" font-size="10.00">BlockVarRenamePass.cpp</text>
</a>
</g>
</g>
<!-- Node2&#45;&gt;Node26 -->
<g id="edge25" class="edge">
<title>Node2&#45;&gt;Node26</title>
<path fill="none" stroke="midnightblue" d="M3613.26,-64.64C3385.54,-62.14 2070.01,-46.72 1670,-20 1666.89,-19.79 1663.72,-19.55 1660.52,-19.29"/>
<polygon fill="midnightblue" stroke="midnightblue" points="3613.24,-68.14 3623.28,-64.75 3613.32,-61.14 3613.24,-68.14"/>
</g>
<!-- Node27 -->
<g id="node27" class="node">
<title>Node27</title>
<g id="a_node27"><a xlink:href="GlobalConstReplacePass_8cpp.html" target="_top" xlink:title=" ">
<polygon fill="white" stroke="black" points="1679,-0.5 1679,-19.5 1837,-19.5 1837,-0.5 1679,-0.5"/>
<text text-anchor="middle" x="1758" y="-7.5" font-family="Helvetica,sans-Serif" font-size="10.00">GlobalConstReplacePass.cpp</text>
</a>
</g>
</g>
<!-- Node2&#45;&gt;Node27 -->
<g id="edge26" class="edge">
<title>Node2&#45;&gt;Node27</title>
<path fill="none" stroke="midnightblue" d="M3613.11,-65.14C3431.76,-65.68 2557.72,-65.69 1845,-20 1842.42,-19.83 1839.81,-19.65 1837.16,-19.45"/>
<polygon fill="midnightblue" stroke="midnightblue" points="3613.36,-68.64 3623.35,-65.11 3613.34,-61.64 3613.36,-68.64"/>
</g>
<!-- Node28 -->
<g id="node28" class="node">
<title>Node28</title>
<g id="a_node28"><a xlink:href="StatementPropagationPass_8cpp.html" target="_top" xlink:title=" ">
<polygon fill="white" stroke="black" points="1854.5,-0.5 1854.5,-19.5 2023.5,-19.5 2023.5,-0.5 1854.5,-0.5"/>
<text text-anchor="middle" x="1939" y="-7.5" font-family="Helvetica,sans-Serif" font-size="10.00">StatementPropagationPass.cpp</text>
</a>
</g>
</g>
<!-- Node2&#45;&gt;Node28 -->
<g id="edge27" class="edge">
<title>Node2&#45;&gt;Node28</title>
<path fill="none" stroke="midnightblue" d="M3613.2,-64.9C3443.46,-64.25 2667.1,-59.15 2033,-20 2029.89,-19.81 2026.73,-19.6 2023.53,-19.37"/>
<polygon fill="midnightblue" stroke="midnightblue" points="3613.27,-68.41 3623.28,-64.94 3613.29,-61.41 3613.27,-68.41"/>
</g>
<!-- Node29 -->
<g id="node29" class="node">
<title>Node29</title>
<g id="a_node29"><a xlink:href="FromSSAFormPass_8cpp.html" target="_top" xlink:title=" ">
<polygon fill="white" stroke="black" points="2042,-0.5 2042,-19.5 2170,-19.5 2170,-0.5 2042,-0.5"/>
<text text-anchor="middle" x="2106" y="-7.5" font-family="Helvetica,sans-Serif" font-size="10.00">FromSSAFormPass.cpp</text>
</a>
</g>
</g>
<!-- Node2&#45;&gt;Node29 -->
<g id="edge28" class="edge">
<title>Node2&#45;&gt;Node29</title>
<path fill="none" stroke="midnightblue" d="M3612.97,-65.11C3452.02,-65.4 2751.22,-63.95 2179,-20 2176.07,-19.78 2173.08,-19.52 2170.06,-19.24"/>
<polygon fill="midnightblue" stroke="midnightblue" points="3613.21,-68.61 3623.2,-65.09 3613.19,-61.61 3613.21,-68.61"/>
</g>
<!-- Node30 -->
<g id="node30" class="node">
<title>Node30</title>
<g id="a_node30"><a xlink:href="LocalAndParamMapPass_8cpp.html" target="_top" xlink:title=" ">
<polygon fill="white" stroke="black" points="2188,-0.5 2188,-19.5 2344,-19.5 2344,-0.5 2188,-0.5"/>
<text text-anchor="middle" x="2266" y="-7.5" font-family="Helvetica,sans-Serif" font-size="10.00">LocalAndParamMapPass.cpp</text>
</a>
</g>
</g>
<!-- Node2&#45;&gt;Node30 -->
<g id="edge29" class="edge">
<title>Node2&#45;&gt;Node30</title>
<path fill="none" stroke="midnightblue" d="M3612.81,-64.67C3463.39,-63.04 2852.91,-54.51 2353,-20 2350.12,-19.8 2347.19,-19.58 2344.23,-19.35"/>
<polygon fill="midnightblue" stroke="midnightblue" points="3613.11,-68.17 3623.15,-64.78 3613.19,-61.17 3613.11,-68.17"/>
</g>
<!-- Node31 -->
<g id="node31" class="node">
<title>Node31</title>
<g id="a_node31"><a xlink:href="LocalTypeAnalysisPass_8cpp.html" target="_top" xlink:title=" ">
<polygon fill="white" stroke="black" points="2362.5,-0.5 2362.5,-19.5 2511.5,-19.5 2511.5,-0.5 2362.5,-0.5"/>
<text text-anchor="middle" x="2437" y="-7.5" font-family="Helvetica,sans-Serif" font-size="10.00">LocalTypeAnalysisPass.cpp</text>
</a>
</g>
</g>
<!-- Node2&#45;&gt;Node31 -->
<g id="edge30" class="edge">
<title>Node2&#45;&gt;Node31</title>
<path fill="none" stroke="midnightblue" d="M3612.89,-64.49C3475.66,-62.24 2950.65,-51.91 2520,-20 2517.25,-19.8 2514.46,-19.57 2511.63,-19.34"/>
<polygon fill="midnightblue" stroke="midnightblue" points="3613.12,-67.99 3623.17,-64.65 3613.23,-60.99 3613.12,-67.99"/>
</g>
<!-- Node32 -->
<g id="node32" class="node">
<title>Node32</title>
<g id="a_node32"><a xlink:href="UnusedLocalRemovalPass_8cpp.html" target="_top" xlink:title=" ">
<polygon fill="white" stroke="black" points="2529.5,-0.5 2529.5,-19.5 2694.5,-19.5 2694.5,-0.5 2529.5,-0.5"/>
<text text-anchor="middle" x="2612" y="-7.5" font-family="Helvetica,sans-Serif" font-size="10.00">UnusedLocalRemovalPass.cpp</text>
</a>
</g>
</g>
<!-- Node2&#45;&gt;Node32 -->
<g id="edge31" class="edge">
<title>Node2&#45;&gt;Node32</title>
<path fill="none" stroke="midnightblue" d="M3613,-64.01C3490.25,-60.28 3058.41,-46.03 2703,-20 2700.31,-19.8 2697.57,-19.59 2694.81,-19.37"/>
<polygon fill="midnightblue" stroke="midnightblue" points="3613.16,-67.51 3623.26,-64.31 3613.37,-60.52 3613.16,-67.51"/>
</g>
<!-- Node33 -->
<g id="node33" class="node">
<title>Node33</title>
<g id="a_node33"><a xlink:href="UnusedParamRemovalPass_8cpp.html" target="_top" xlink:title=" ">
<polygon fill="white" stroke="black" points="2712.5,-0.5 2712.5,-19.5 2883.5,-19.5 2883.5,-0.5 2712.5,-0.5"/>
<text text-anchor="middle" x="2798" y="-7.5" font-family="Helvetica,sans-Serif" font-size="10.00">UnusedParamRemovalPass.cpp</text>
</a>
</g>
</g>
<!-- Node2&#45;&gt;Node33 -->
<g id="edge32" class="edge">
<title>Node2&#45;&gt;Node33</title>
<path fill="none" stroke="midnightblue" d="M3613.4,-63.43C3507.38,-58.38 3170.45,-41.62 2892,-20 2889.22,-19.78 2886.4,-19.56 2883.55,-19.32"/>
<polygon fill="midnightblue" stroke="midnightblue" points="3613.34,-66.93 3623.49,-63.91 3613.67,-59.94 3613.34,-66.93"/>
</g>
<!-- Node34 -->
<g id="node34" class="node">
<title>Node34</title>
<g id="a_node34"><a xlink:href="UnusedStatementRemovalPass_8cpp.html" target="_top" xlink:title=" ">
<polygon fill="white" stroke="black" points="2901.5,-0.5 2901.5,-19.5 3092.5,-19.5 3092.5,-0.5 2901.5,-0.5"/>
<text text-anchor="middle" x="2997" y="-7.5" font-family="Helvetica,sans-Serif" font-size="10.00">UnusedStatementRemovalPass.cpp</text>
</a>
</g>
</g>
<!-- Node2&#45;&gt;Node34 -->
<g id="edge33" class="edge">
<title>Node2&#45;&gt;Node34</title>
<path fill="none" stroke="midnightblue" d="M3613.14,-62.26C3527.41,-55.3 3294.82,-36.37 3101,-20 3098.29,-19.77 3095.54,-19.54 3092.77,-19.3"/>
<polygon fill="midnightblue" stroke="midnightblue" points="3613.07,-65.76 3623.32,-63.08 3613.63,-58.79 3613.07,-65.76"/>
</g>
<!-- Node35 -->
<g id="node35" class="node">
<title>Node35</title>
<g id="a_node35"><a xlink:href="AssignRemovalPass_8cpp.html" target="_top" xlink:title=" ">
<polygon fill="white" stroke="black" points="3110.5,-0.5 3110.5,-19.5 3245.5,-19.5 3245.5,-0.5 3110.5,-0.5"/>
<text text-anchor="middle" x="3178" y="-7.5" font-family="Helvetica,sans-Serif" font-size="10.00">AssignRemovalPass.cpp</text>
</a>
</g>
</g>
<!-- Node2&#45;&gt;Node35 -->
<g id="edge34" class="edge">
<title>Node2&#45;&gt;Node35</title>
<path fill="none" stroke="midnightblue" d="M3613.01,-61.12C3545.02,-53.36 3387.41,-35.34 3255,-20 3251.92,-19.64 3248.78,-19.28 3245.61,-18.91"/>
<polygon fill="midnightblue" stroke="midnightblue" points="3612.8,-64.62 3623.13,-62.28 3613.6,-57.67 3612.8,-64.62"/>
</g>
<!-- Node36 -->
<g id="node36" class="node">
<title>Node36</title>
<g id="a_node36"><a xlink:href="PreservationAnalysisPass_8cpp.html" target="_top" xlink:title=" ">
<polygon fill="white" stroke="black" points="3264,-0.5 3264,-19.5 3426,-19.5 3426,-0.5 3264,-0.5"/>
<text text-anchor="middle" x="3345" y="-7.5" font-family="Helvetica,sans-Serif" font-size="10.00">PreservationAnalysisPass.cpp</text>
</a>
</g>
</g>
<!-- Node2&#45;&gt;Node36 -->
<g id="edge35" class="edge">
<title>Node2&#45;&gt;Node36</title>
<path fill="none" stroke="midnightblue" d="M3613.26,-58.97C3559.49,-49.35 3454.17,-30.52 3392.7,-19.53"/>
<polygon fill="midnightblue" stroke="midnightblue" points="3612.84,-62.45 3623.3,-60.76 3614.07,-55.56 3612.84,-62.45"/>
</g>
<!-- Node37 -->
<g id="node37" class="node">
<title>Node37</title>
<g id="a_node37"><a xlink:href="SPPreservationPass_8cpp.html" target="_top" xlink:title=" ">
<polygon fill="white" stroke="black" points="3444.5,-0.5 3444.5,-19.5 3577.5,-19.5 3577.5,-0.5 3444.5,-0.5"/>
<text text-anchor="middle" x="3511" y="-7.5" font-family="Helvetica,sans-Serif" font-size="10.00">SPPreservationPass.cpp</text>
</a>
</g>
</g>
<!-- Node2&#45;&gt;Node37 -->
<g id="edge36" class="edge">
<title>Node2&#45;&gt;Node37</title>
<path fill="none" stroke="midnightblue" d="M3615.87,-52.64C3590.34,-42.5 3554.89,-28.43 3532.45,-19.52"/>
<polygon fill="midnightblue" stroke="midnightblue" points="3614.86,-56.01 3625.45,-56.44 3617.45,-49.5 3614.86,-56.01"/>
</g>
<!-- Node38 -->
<g id="node38" class="node">
<title>Node38</title>
<g id="a_node38"><a xlink:href="PassManager_8cpp.html" target="_top" xlink:title=" ">
<polygon fill="white" stroke="black" points="3596,-0.5 3596,-19.5 3698,-19.5 3698,-0.5 3596,-0.5"/>
<text text-anchor="middle" x="3647" y="-7.5" font-family="Helvetica,sans-Serif" font-size="10.00">PassManager.cpp</text>
</a>
</g>
</g>
<!-- Node2&#45;&gt;Node38 -->
<g id="edge37" class="edge">
<title>Node2&#45;&gt;Node38</title>
<path fill="none" stroke="midnightblue" d="M3647,-45.8C3647,-36.91 3647,-26.78 3647,-19.75"/>
<polygon fill="midnightblue" stroke="midnightblue" points="3643.5,-46.08 3647,-56.08 3650.5,-46.08 3643.5,-46.08"/>
</g>
<!-- Node39 -->
<g id="node39" class="node">
<title>Node39</title>
<g id="a_node39"><a xlink:href="Exp_8cpp.html" target="_top" xlink:title=" ">
<polygon fill="white" stroke="black" points="3716.5,-0.5 3716.5,-19.5 3771.5,-19.5 3771.5,-0.5 3716.5,-0.5"/>
<text text-anchor="middle" x="3744" y="-7.5" font-family="Helvetica,sans-Serif" font-size="10.00">Exp.cpp</text>
</a>
</g>
</g>
<!-- Node2&#45;&gt;Node39 -->
<g id="edge38" class="edge">
<title>Node2&#45;&gt;Node39</title>
<path fill="none" stroke="midnightblue" d="M3671.34,-51.45C3689.24,-41.48 3713.05,-28.23 3728.45,-19.65"/>
<polygon fill="midnightblue" stroke="midnightblue" points="3669.62,-48.4 3662.58,-56.32 3673.02,-54.52 3669.62,-48.4"/>
</g>
<!-- Node40 -->
<g id="node40" class="node">
<title>Node40</title>
<g id="a_node40"><a xlink:href="Ternary_8cpp.html" target="_top" xlink:title=" ">
<polygon fill="white" stroke="black" points="3789.5,-0.5 3789.5,-19.5 3860.5,-19.5 3860.5,-0.5 3789.5,-0.5"/>
<text text-anchor="middle" x="3825" y="-7.5" font-family="Helvetica,sans-Serif" font-size="10.00">Ternary.cpp</text>
</a>
</g>
</g>
<!-- Node2&#45;&gt;Node40 -->
<g id="edge39" class="edge">
<title>Node2&#45;&gt;Node40</title>
<path fill="none" stroke="midnightblue" d="M3680.46,-54.85C3714.07,-44.65 3765.28,-29.12 3796.86,-19.54"/>
<polygon fill="midnightblue" stroke="midnightblue" points="3679.19,-51.58 3670.64,-57.83 3681.22,-58.28 3679.19,-51.58"/>
</g>
<!-- Node41 -->
<g id="node41" class="node">
<title>Node41</title>
<g id="a_node41"><a xlink:href="Unary_8cpp.html" target="_top" xlink:title=" ">
<polygon fill="white" stroke="black" points="3878.5,-0.5 3878.5,-19.5 3943.5,-19.5 3943.5,-0.5 3878.5,-0.5"/>
<text text-anchor="middle" x="3911" y="-7.5" font-family="Helvetica,sans-Serif" font-size="10.00">Unary.cpp</text>
</a>
</g>
</g>
<!-- Node2&#45;&gt;Node41 -->
<g id="edge40" class="edge">
<title>Node2&#45;&gt;Node41</title>
<path fill="none" stroke="midnightblue" d="M3680.71,-58.29C3724.23,-49.59 3802.32,-33.9 3869,-20 3872.07,-19.36 3875.26,-18.69 3878.45,-18.01"/>
<polygon fill="midnightblue" stroke="midnightblue" points="3679.8,-54.9 3670.67,-60.29 3681.17,-61.77 3679.8,-54.9"/>
</g>
<!-- Node42 -->
<g id="node42" class="node">
<title>Node42</title>
<g id="a_node42"><a xlink:href="Assign_8cpp.html" target="_top" xlink:title=" ">
<polygon fill="white" stroke="black" points="3961.5,-0.5 3961.5,-19.5 4030.5,-19.5 4030.5,-0.5 3961.5,-0.5"/>
<text text-anchor="middle" x="3996" y="-7.5" font-family="Helvetica,sans-Serif" font-size="10.00">Assign.cpp</text>
</a>
</g>
</g>
<!-- Node2&#45;&gt;Node42 -->
<g id="edge41" class="edge">
<title>Node2&#45;&gt;Node42</title>
<path fill="none" stroke="midnightblue" d="M3680.94,-60.62C3737.36,-53.19 3853.94,-37.25 3952,-20 3955.07,-19.46 3958.26,-18.87 3961.45,-18.26"/>
<polygon fill="midnightblue" stroke="midnightblue" points="3680.26,-57.18 3670.8,-61.94 3681.17,-64.12 3680.26,-57.18"/>
</g>
<!-- Node43 -->
<g id="node43" class="node">
<title>Node43</title>
<g id="a_node43"><a xlink:href="Assignment_8cpp.html" target="_top" xlink:title=" ">
<polygon fill="white" stroke="black" points="4048.5,-0.5 4048.5,-19.5 4143.5,-19.5 4143.5,-0.5 4048.5,-0.5"/>
<text text-anchor="middle" x="4096" y="-7.5" font-family="Helvetica,sans-Serif" font-size="10.00">Assignment.cpp</text>
</a>
</g>
</g>
<!-- Node2&#45;&gt;Node43 -->
<g id="edge42" class="edge">
<title>Node2&#45;&gt;Node43</title>
<path fill="none" stroke="midnightblue" d="M3681.05,-61.58C3749.14,-54.64 3906.92,-38 4039,-20 4042.08,-19.58 4045.25,-19.13 4048.44,-18.66"/>
<polygon fill="midnightblue" stroke="midnightblue" points="3680.5,-58.12 3670.91,-62.61 3681.21,-65.08 3680.5,-58.12"/>
</g>
<!-- Node44 -->
<g id="node44" class="node">
<title>Node44</title>
<g id="a_node44"><a xlink:href="CallStatement_8cpp.html" target="_top" xlink:title=" ">
<polygon fill="white" stroke="black" points="4161.5,-0.5 4161.5,-19.5 4268.5,-19.5 4268.5,-0.5 4161.5,-0.5"/>
<text text-anchor="middle" x="4215" y="-7.5" font-family="Helvetica,sans-Serif" font-size="10.00">CallStatement.cpp</text>
</a>
</g>
</g>
<!-- Node2&#45;&gt;Node44 -->
<g id="edge43" class="edge">
<title>Node2&#45;&gt;Node44</title>
<path fill="none" stroke="midnightblue" d="M3680.86,-62.61C3762.2,-56.72 3975.02,-40.51 4152,-20 4155.07,-19.64 4158.23,-19.26 4161.41,-18.85"/>
<polygon fill="midnightblue" stroke="midnightblue" points="3680.43,-59.13 3670.71,-63.34 3680.93,-66.11 3680.43,-59.13"/>
</g>
<!-- Node45 -->
<g id="node45" class="node">
<title>Node45</title>
<g id="a_node45"><a xlink:href="ReturnStatement_8cpp.html" target="_top" xlink:title=" ">
<polygon fill="white" stroke="black" points="4287,-0.5 4287,-19.5 4407,-19.5 4407,-0.5 4287,-0.5"/>
<text text-anchor="middle" x="4347" y="-7.5" font-family="Helvetica,sans-Serif" font-size="10.00">ReturnStatement.cpp</text>
</a>
</g>
</g>
<!-- Node2&#45;&gt;Node45 -->
<g id="edge44" class="edge">
<title>Node2&#45;&gt;Node45</title>
<path fill="none" stroke="midnightblue" d="M3680.9,-63.26C3775.4,-58.24 4049.8,-42.7 4277,-20 4280.17,-19.68 4283.42,-19.34 4286.7,-18.97"/>
<polygon fill="midnightblue" stroke="midnightblue" points="3680.59,-59.77 3670.78,-63.79 3680.95,-66.76 3680.59,-59.77"/>
</g>
<!-- Node46 -->
<g id="node46" class="node">
<title>Node46</title>
<g id="a_node46"><a xlink:href="Statement_8cpp.html" target="_top" xlink:title=" ">
<polygon fill="white" stroke="black" points="4425,-0.5 4425,-19.5 4513,-19.5 4513,-0.5 4425,-0.5"/>
<text text-anchor="middle" x="4469" y="-7.5" font-family="Helvetica,sans-Serif" font-size="10.00">Statement.cpp</text>
</a>
</g>
</g>
<!-- Node2&#45;&gt;Node46 -->
<g id="edge45" class="edge">
<title>Node2&#45;&gt;Node46</title>
<path fill="none" stroke="midnightblue" d="M3680.94,-64.34C3788.76,-61.97 4133.05,-52.2 4416,-20 4418.87,-19.67 4421.83,-19.29 4424.81,-18.88"/>
<polygon fill="midnightblue" stroke="midnightblue" points="3680.6,-60.85 3670.68,-64.56 3680.75,-67.85 3680.6,-60.85"/>
</g>
<!-- Node47 -->
<g id="node47" class="node">
<title>Node47</title>
<g id="a_node47"><a xlink:href="CallGraphDotWriter_8cpp.html" target="_top" xlink:title=" ">
<polygon fill="white" stroke="black" points="4531,-0.5 4531,-19.5 4663,-19.5 4663,-0.5 4531,-0.5"/>
<text text-anchor="middle" x="4597" y="-7.5" font-family="Helvetica,sans-Serif" font-size="10.00">CallGraphDotWriter.cpp</text>
</a>
</g>
</g>
<!-- Node2&#45;&gt;Node47 -->
<g id="edge46" class="edge">
<title>Node2&#45;&gt;Node47</title>
<path fill="none" stroke="midnightblue" d="M3680.82,-64.09C3797.64,-60.77 4195,-48 4522,-20 4524.87,-19.75 4527.81,-19.48 4530.77,-19.2"/>
<polygon fill="midnightblue" stroke="midnightblue" points="3680.6,-60.59 3670.71,-64.37 3680.8,-67.59 3680.6,-60.59"/>
</g>
<!-- Node48 -->
<g id="node48" class="node">
<title>Node48</title>
<g id="a_node48"><a xlink:href="CFGDotWriter_8cpp.html" target="_top" xlink:title=" ">
<polygon fill="white" stroke="black" points="4681,-0.5 4681,-19.5 4785,-19.5 4785,-0.5 4681,-0.5"/>
<text text-anchor="middle" x="4733" y="-7.5" font-family="Helvetica,sans-Serif" font-size="10.00">CFGDotWriter.cpp</text>
</a>
</g>
</g>
<!-- Node2&#45;&gt;Node48 -->
<g id="edge47" class="edge">
<title>Node2&#45;&gt;Node48</title>
<path fill="none" stroke="midnightblue" d="M3680.55,-64.78C3809.23,-63.65 4283.52,-57.09 4672,-20 4674.88,-19.73 4677.83,-19.41 4680.8,-19.06"/>
<polygon fill="midnightblue" stroke="midnightblue" points="3680.5,-61.28 3670.53,-64.86 3680.55,-68.28 3680.5,-61.28"/>
</g>
<!-- Node49 -->
<g id="node49" class="node">
<title>Node49</title>
<g id="a_node49"><a xlink:href="ProgSymbolWriter_8cpp.html" target="_top" xlink:title=" ">
<polygon fill="white" stroke="black" points="4803.5,-0.5 4803.5,-19.5 4928.5,-19.5 4928.5,-0.5 4803.5,-0.5"/>
<text text-anchor="middle" x="4866" y="-7.5" font-family="Helvetica,sans-Serif" font-size="10.00">ProgSymbolWriter.cpp</text>
</a>
</g>
</g>
<!-- Node2&#45;&gt;Node49 -->
<g id="edge48" class="edge">
<title>Node2&#45;&gt;Node49</title>
<path fill="none" stroke="midnightblue" d="M3681.27,-64.72C3820.28,-63.36 4355.51,-55.94 4794,-20 4797.01,-19.75 4800.09,-19.47 4803.2,-19.17"/>
<polygon fill="midnightblue" stroke="midnightblue" points="3680.83,-61.22 3670.86,-64.82 3680.89,-68.22 3680.83,-61.22"/>
</g>
<!-- Node2&#45;&gt;Node52 -->
<g id="edge49" class="edge">
<title>Node2&#45;&gt;Node52</title>
<path fill="none" stroke="midnightblue" d="M3681.09,-64.85C3948.17,-63.58 5708.22,-54.02 6239,-20 6241.82,-19.82 6244.7,-19.61 6247.61,-19.38"/>
<polygon fill="midnightblue" stroke="midnightblue" points="3680.84,-61.35 3670.85,-64.89 3680.87,-68.35 3680.84,-61.35"/>
</g>
</g>
</svg>
