<?xml version="1.0" encoding="UTF-8" standalone="no"?>
<!DOCTYPE svg PUBLIC "-//W3C//DTD SVG 1.1//EN"
 "http://www.w3.org/Graphics/SVG/1.1/DTD/svg11.dtd">
<!-- Generated by graphviz version 2.43.0 (0)
 -->
<!-- Title: IFrontEnd.h Pages: 1 -->
<svg width="564pt" height="274pt"
 viewBox="0.00 0.00 564.00 274.00" xmlns="http://www.w3.org/2000/svg" xmlns:xlink="http://www.w3.org/1999/xlink">
<g id="graph0" class="graph" transform="scale(1 1) rotate(0) translate(4 270)">
<title>IFrontEnd.h</title>
<polygon fill="white" stroke="transparent" points="-4,4 -4,-270 560,-270 560,4 -4,4"/>
<!-- Node1 -->
<g id="node1" class="node">
<title>Node1</title>
<g id="a_node1"><a xlink:title=" ">
<polygon fill="#bfbfbf" stroke="black" points="310,-246.5 310,-265.5 381,-265.5 381,-246.5 310,-246.5"/>
<text text-anchor="middle" x="345.5" y="-253.5" font-family="Helvetica,sans-Serif" font-size="10.00">IFrontEnd.h</text>
</a>
</g>
</g>
<!-- Node2 -->
<g id="node2" class="node">
<title>Node2</title>
<g id="a_node2"><a xlink:href="BoomerangAPI_8h.html" target="_top" xlink:title=" ">
<polygon fill="white" stroke="black" points="0,-56.5 0,-86.5 155,-86.5 155,-56.5 0,-56.5"/>
<text text-anchor="start" x="8" y="-74.5" font-family="Helvetica,sans-Serif" font-size="10.00">boomerang/core/Boomerang</text>
<text text-anchor="middle" x="77.5" y="-63.5" font-family="Helvetica,sans-Serif" font-size="10.00">API.h</text>
</a>
</g>
</g>
<!-- Node1&#45;&gt;Node2 -->
<g id="edge1" class="edge">
<title>Node1&#45;&gt;Node2</title>
<path fill="none" stroke="midnightblue" d="M309.94,-254.38C244.46,-252.42 108.85,-244.22 79.5,-210 52.53,-178.55 61.21,-126.55 69.59,-96.32"/>
<polygon fill="midnightblue" stroke="midnightblue" points="72.99,-97.19 72.49,-86.6 66.28,-95.19 72.99,-97.19"/>
</g>
<!-- Node3 -->
<g id="node3" class="node">
<title>Node3</title>
<g id="a_node3"><a xlink:href="SigEnum_8h.html" target="_top" xlink:title=" ">
<polygon fill="white" stroke="black" points="88.5,-179.5 88.5,-209.5 204.5,-209.5 204.5,-179.5 88.5,-179.5"/>
<text text-anchor="start" x="96.5" y="-197.5" font-family="Helvetica,sans-Serif" font-size="10.00">boomerang/frontend</text>
<text text-anchor="middle" x="146.5" y="-186.5" font-family="Helvetica,sans-Serif" font-size="10.00">/SigEnum.h</text>
</a>
</g>
</g>
<!-- Node1&#45;&gt;Node3 -->
<g id="edge2" class="edge">
<title>Node1&#45;&gt;Node3</title>
<path fill="none" stroke="midnightblue" d="M316.99,-246.48C287.39,-237.63 240.31,-223.55 203.12,-212.43"/>
<polygon fill="midnightblue" stroke="midnightblue" points="203.98,-209.03 193.4,-209.52 201.98,-215.74 203.98,-209.03"/>
</g>
<!-- Node4 -->
<g id="node4" class="node">
<title>Node4</title>
<g id="a_node4"><a xlink:href="Address_8h.html" target="_top" xlink:title=" ">
<polygon fill="white" stroke="black" points="222.5,-185 222.5,-204 364.5,-204 364.5,-185 222.5,-185"/>
<text text-anchor="middle" x="293.5" y="-192" font-family="Helvetica,sans-Serif" font-size="10.00">boomerang/util/Address.h</text>
</a>
</g>
</g>
<!-- Node1&#45;&gt;Node4 -->
<g id="edge3" class="edge">
<title>Node1&#45;&gt;Node4</title>
<path fill="none" stroke="midnightblue" d="M338.05,-246.48C330.17,-237.46 317.56,-223.02 307.76,-211.81"/>
<polygon fill="midnightblue" stroke="midnightblue" points="310.15,-209.24 300.94,-204.01 304.88,-213.84 310.15,-209.24"/>
</g>
<!-- Node10 -->
<g id="node10" class="node">
<title>Node10</title>
<g id="a_node10"><a xlink:title=" ">
<polygon fill="white" stroke="#bfbfbf" points="382.5,-185 382.5,-204 414.5,-204 414.5,-185 382.5,-185"/>
<text text-anchor="middle" x="398.5" y="-192" font-family="Helvetica,sans-Serif" font-size="10.00">list</text>
</a>
</g>
</g>
<!-- Node1&#45;&gt;Node10 -->
<g id="edge12" class="edge">
<title>Node1&#45;&gt;Node10</title>
<path fill="none" stroke="midnightblue" d="M353.09,-246.48C361.2,-237.37 374.23,-222.74 384.26,-211.48"/>
<polygon fill="midnightblue" stroke="midnightblue" points="386.88,-213.8 390.92,-204.01 381.66,-209.15 386.88,-213.8"/>
</g>
<!-- Node11 -->
<g id="node11" class="node">
<title>Node11</title>
<g id="a_node11"><a xlink:title=" ">
<polygon fill="white" stroke="#bfbfbf" points="432.5,-185 432.5,-204 490.5,-204 490.5,-185 432.5,-185"/>
<text text-anchor="middle" x="461.5" y="-192" font-family="Helvetica,sans-Serif" font-size="10.00">memory</text>
</a>
</g>
</g>
<!-- Node1&#45;&gt;Node11 -->
<g id="edge13" class="edge">
<title>Node1&#45;&gt;Node11</title>
<path fill="none" stroke="midnightblue" d="M362.12,-246.48C381.42,-236.58 413.46,-220.14 435.93,-208.62"/>
<polygon fill="midnightblue" stroke="midnightblue" points="437.61,-211.69 444.91,-204.01 434.42,-205.46 437.61,-211.69"/>
</g>
<!-- Node12 -->
<g id="node12" class="node">
<title>Node12</title>
<g id="a_node12"><a xlink:title=" ">
<polygon fill="white" stroke="#bfbfbf" points="509,-185 509,-204 556,-204 556,-185 509,-185"/>
<text text-anchor="middle" x="532.5" y="-192" font-family="Helvetica,sans-Serif" font-size="10.00">vector</text>
</a>
</g>
</g>
<!-- Node1&#45;&gt;Node12 -->
<g id="edge14" class="edge">
<title>Node1&#45;&gt;Node12</title>
<path fill="none" stroke="midnightblue" d="M379.25,-246.49C410.72,-238.24 458.8,-224.82 499.5,-210 501.16,-209.4 502.85,-208.75 504.55,-208.08"/>
<polygon fill="midnightblue" stroke="midnightblue" points="506.29,-211.14 514.17,-204.06 503.59,-204.68 506.29,-211.14"/>
</g>
<!-- Node4&#45;&gt;Node2 -->
<g id="edge4" class="edge">
<title>Node4&#45;&gt;Node2</title>
<path fill="none" stroke="midnightblue" d="M249.99,-184.96C204.86,-175.42 138.04,-159.18 117.5,-143 102.26,-131 91.84,-111.49 85.46,-96.03"/>
<polygon fill="midnightblue" stroke="midnightblue" points="88.69,-94.67 81.85,-86.58 82.15,-97.17 88.69,-94.67"/>
</g>
<!-- Node5 -->
<g id="node5" class="node">
<title>Node5</title>
<g id="a_node5"><a xlink:href="OStream_8h.html" target="_top" xlink:title=" ">
<polygon fill="white" stroke="black" points="126.5,-123.5 126.5,-142.5 272.5,-142.5 272.5,-123.5 126.5,-123.5"/>
<text text-anchor="middle" x="199.5" y="-130.5" font-family="Helvetica,sans-Serif" font-size="10.00">boomerang/util/OStream.h</text>
</a>
</g>
</g>
<!-- Node4&#45;&gt;Node5 -->
<g id="edge5" class="edge">
<title>Node4&#45;&gt;Node5</title>
<path fill="none" stroke="midnightblue" d="M280.03,-184.98C264.82,-175.34 239.81,-159.52 221.7,-148.05"/>
<polygon fill="midnightblue" stroke="midnightblue" points="223.26,-144.9 212.94,-142.51 219.52,-150.81 223.26,-144.9"/>
</g>
<!-- Node6 -->
<g id="node6" class="node">
<title>Node6</title>
<g id="a_node6"><a xlink:href="Types_8h.html" target="_top" xlink:title=" ">
<polygon fill="white" stroke="black" points="238,-62 238,-81 369,-81 369,-62 238,-62"/>
<text text-anchor="middle" x="303.5" y="-69" font-family="Helvetica,sans-Serif" font-size="10.00">boomerang/util/Types.h</text>
</a>
</g>
</g>
<!-- Node4&#45;&gt;Node6 -->
<g id="edge10" class="edge">
<title>Node4&#45;&gt;Node6</title>
<path fill="none" stroke="midnightblue" d="M294.22,-184.8C295.83,-165.35 299.74,-117.99 301.94,-91.4"/>
<polygon fill="midnightblue" stroke="midnightblue" points="305.45,-91.38 302.79,-81.12 298.48,-90.8 305.45,-91.38"/>
</g>
<!-- Node9 -->
<g id="node9" class="node">
<title>Node9</title>
<g id="a_node9"><a xlink:title=" ">
<polygon fill="white" stroke="#bfbfbf" points="329,-123.5 329,-142.5 382,-142.5 382,-123.5 329,-123.5"/>
<text text-anchor="middle" x="355.5" y="-130.5" font-family="Helvetica,sans-Serif" font-size="10.00">QString</text>
</a>
</g>
</g>
<!-- Node4&#45;&gt;Node9 -->
<g id="edge11" class="edge">
<title>Node4&#45;&gt;Node9</title>
<path fill="none" stroke="midnightblue" d="M302.38,-184.98C311.96,-175.78 327.41,-160.96 339.19,-149.66"/>
<polygon fill="midnightblue" stroke="midnightblue" points="341.84,-151.96 346.63,-142.51 336.99,-146.91 341.84,-151.96"/>
</g>
<!-- Node5&#45;&gt;Node2 -->
<g id="edge6" class="edge">
<title>Node5&#45;&gt;Node2</title>
<path fill="none" stroke="midnightblue" d="M182.02,-123.48C164.73,-115.04 137.69,-101.86 115.45,-91.01"/>
<polygon fill="midnightblue" stroke="midnightblue" points="116.78,-87.76 106.25,-86.52 113.71,-94.05 116.78,-87.76"/>
</g>
<!-- Node5&#45;&gt;Node6 -->
<g id="edge7" class="edge">
<title>Node5&#45;&gt;Node6</title>
<path fill="none" stroke="midnightblue" d="M214.4,-123.48C231.47,-113.71 259.66,-97.58 279.76,-86.08"/>
<polygon fill="midnightblue" stroke="midnightblue" points="281.69,-89.01 288.63,-81.01 278.21,-82.94 281.69,-89.01"/>
</g>
<!-- Node8 -->
<g id="node8" class="node">
<title>Node8</title>
<g id="a_node8"><a xlink:title=" ">
<polygon fill="white" stroke="#bfbfbf" points="173.5,-62 173.5,-81 219.5,-81 219.5,-62 173.5,-62"/>
<text text-anchor="middle" x="196.5" y="-69" font-family="Helvetica,sans-Serif" font-size="10.00">cstdio</text>
</a>
</g>
</g>
<!-- Node5&#45;&gt;Node8 -->
<g id="edge9" class="edge">
<title>Node5&#45;&gt;Node8</title>
<path fill="none" stroke="midnightblue" d="M199.07,-123.48C198.65,-115.08 197.99,-101.98 197.44,-91.16"/>
<polygon fill="midnightblue" stroke="midnightblue" points="200.93,-90.82 196.93,-81.01 193.94,-91.17 200.93,-90.82"/>
</g>
<!-- Node7 -->
<g id="node7" class="node">
<title>Node7</title>
<g id="a_node7"><a xlink:title=" ">
<polygon fill="white" stroke="#bfbfbf" points="278.5,-0.5 278.5,-19.5 328.5,-19.5 328.5,-0.5 278.5,-0.5"/>
<text text-anchor="middle" x="303.5" y="-7.5" font-family="Helvetica,sans-Serif" font-size="10.00">cstdint</text>
</a>
</g>
</g>
<!-- Node6&#45;&gt;Node7 -->
<g id="edge8" class="edge">
<title>Node6&#45;&gt;Node7</title>
<path fill="none" stroke="midnightblue" d="M303.5,-61.98C303.5,-53.58 303.5,-40.48 303.5,-29.66"/>
<polygon fill="midnightblue" stroke="midnightblue" points="307,-29.51 303.5,-19.51 300,-29.51 307,-29.51"/>
</g>
</g>
</svg>
