<?xml version="1.0" encoding="UTF-8" standalone="no"?>
<!DOCTYPE svg PUBLIC "-//W3C//DTD SVG 1.1//EN"
 "http://www.w3.org/Graphics/SVG/1.1/DTD/svg11.dtd">
<!-- Generated by graphviz version 2.43.0 (0)
 -->
<!-- Title: IFrontEnd.h Pages: 1 -->
<!--zoomable 308 -->
<svg id="main" version="1.1" xmlns="http://www.w3.org/2000/svg" xmlns:xlink="http://www.w3.org/1999/xlink" xml:space="preserve" onload="init(evt)">
<style type="text/css"><![CDATA[
.edge:hover path { stroke: red; }
.edge:hover polygon { stroke: red; fill: red; }
]]></style>
<script type="text/javascript"><![CDATA[
var edges = document.getElementsByTagName('g');
if (edges && edges.length) {
  for (var i=0;i<edges.length;i++) {
    if (edges[i].id.substr(0,4)=='edge') {
      edges[i].setAttribute('class','edge');
    }
  }
}
]]></script>
        <defs>
                <circle id="rim" cx="0" cy="0" r="7"/>
                <circle id="rim2" cx="0" cy="0" r="3.5"/>
                <g id="zoomPlus">
                        <use xlink:href="#rim" fill="#404040">
                                <set attributeName="fill" to="#808080" begin="zoomplus.mouseover" end="zoomplus.mouseout"/>
                        </use>
                        <path d="M-4,0h8M0,-4v8" fill="none" stroke="white" stroke-width="1.5" pointer-events="none"/>
                </g>
                <g id="zoomMin">
                        <use xlink:href="#rim" fill="#404040">
                                <set attributeName="fill" to="#808080" begin="zoomminus.mouseover" end="zoomminus.mouseout"/>
                        </use>
                        <path d="M-4,0h8" fill="none" stroke="white" stroke-width="1.5" pointer-events="none"/>
                </g>
                <g id="dirArrow">
                        <path fill="none" stroke="white" stroke-width="1.5" d="M0,-3.0v7 M-2.5,-0.5L0,-3.0L2.5,-0.5"/>
                </g>
               <g id="resetDef">
                       <use xlink:href="#rim2" fill="#404040">
                               <set attributeName="fill" to="#808080" begin="reset.mouseover" end="reset.mouseout"/>
                       </use>
               </g>
        </defs>

<script type="text/javascript">
var viewWidth = 4412;
var viewHeight = 308;
var sectionId = 'dynsection-1';
</script>
<script xlink:href="svgpan.js"/>
<svg id="graph" class="graph">
<g id="viewport">
<title>IFrontEnd.h</title>
<polygon fill="white" stroke="transparent" points="-4,4 -4,-304 4408,-304 4408,4 -4,4"/>
<!-- Node1 -->
<g id="node1" class="node">
<title>Node1</title>
<g id="a_node1"><a xlink:title=" ">
<polygon fill="#bfbfbf" stroke="black" points="3260,-280.5 3260,-299.5 3331,-299.5 3331,-280.5 3260,-280.5"/>
<text text-anchor="middle" x="3295.5" y="-287.5" font-family="Helvetica,sans-Serif" font-size="10.00">IFrontEnd.h</text>
</a>
</g>
</g>
<!-- Node2 -->
<g id="node2" class="node">
<title>Node2</title>
<g id="a_node2"><a xlink:href="PluginType_8h.html" target="_top" xlink:title=" ">
<polygon fill="white" stroke="black" points="3256.5,-224.5 3256.5,-243.5 3334.5,-243.5 3334.5,-224.5 3256.5,-224.5"/>
<text text-anchor="middle" x="3295.5" y="-231.5" font-family="Helvetica,sans-Serif" font-size="10.00">PluginType.h</text>
</a>
</g>
</g>
<!-- Node1&#45;&gt;Node2 -->
<g id="edge1" class="edge">
<title>Node1&#45;&gt;Node2</title>
<path fill="none" stroke="midnightblue" d="M3295.5,-269.8C3295.5,-260.91 3295.5,-250.78 3295.5,-243.75"/>
<polygon fill="midnightblue" stroke="midnightblue" points="3292,-270.08 3295.5,-280.08 3299,-270.08 3292,-270.08"/>
</g>
<!-- Node10 -->
<g id="node10" class="node">
<title>Node10</title>
<g id="a_node10"><a xlink:href="Module_8cpp.html" target="_top" xlink:title=" ">
<polygon fill="white" stroke="black" points="0,-0.5 0,-19.5 73,-19.5 73,-0.5 0,-0.5"/>
<text text-anchor="middle" x="36.5" y="-7.5" font-family="Helvetica,sans-Serif" font-size="10.00">Module.cpp</text>
</a>
</g>
</g>
<!-- Node1&#45;&gt;Node10 -->
<g id="edge43" class="edge">
<title>Node1&#45;&gt;Node10</title>
<path fill="none" stroke="midnightblue" d="M3249.9,-288.57C2873.11,-284.85 288.5,-256.49 288.5,-179 288.5,-179 288.5,-179 288.5,-121 288.5,-74.58 143.03,-35.2 73.14,-18.96"/>
<polygon fill="midnightblue" stroke="midnightblue" points="3249.87,-292.07 3259.9,-288.67 3249.94,-285.07 3249.87,-292.07"/>
</g>
<!-- Node13 -->
<g id="node13" class="node">
<title>Node13</title>
<g id="a_node13"><a xlink:href="Prog_8cpp.html" target="_top" xlink:title=" ">
<polygon fill="white" stroke="black" points="91,-0.5 91,-19.5 150,-19.5 150,-0.5 91,-0.5"/>
<text text-anchor="middle" x="120.5" y="-7.5" font-family="Helvetica,sans-Serif" font-size="10.00">Prog.cpp</text>
</a>
</g>
</g>
<!-- Node1&#45;&gt;Node13 -->
<g id="edge45" class="edge">
<title>Node1&#45;&gt;Node13</title>
<path fill="none" stroke="midnightblue" d="M3249.15,-289.27C2924.84,-290.88 1008.5,-295.44 1008.5,-179 1008.5,-179 1008.5,-179 1008.5,-121 1008.5,-26 253.09,-36.32 159.5,-20 156.49,-19.47 153.36,-18.86 150.24,-18.21"/>
<polygon fill="midnightblue" stroke="midnightblue" points="3249.59,-292.77 3259.58,-289.22 3249.56,-285.77 3249.59,-292.77"/>
</g>
<!-- Node17 -->
<g id="node17" class="node">
<title>Node17</title>
<g id="a_node17"><a xlink:href="ProcDecompiler_8cpp.html" target="_top" xlink:title=" ">
<polygon fill="white" stroke="black" points="168.5,-0.5 168.5,-19.5 282.5,-19.5 282.5,-0.5 168.5,-0.5"/>
<text text-anchor="middle" x="225.5" y="-7.5" font-family="Helvetica,sans-Serif" font-size="10.00">ProcDecompiler.cpp</text>
</a>
</g>
</g>
<!-- Node1&#45;&gt;Node17 -->
<g id="edge46" class="edge">
<title>Node1&#45;&gt;Node17</title>
<path fill="none" stroke="midnightblue" d="M3249.76,-288.82C2959.63,-287.42 1387.5,-275.38 1387.5,-179 1387.5,-179 1387.5,-179 1387.5,-121 1387.5,43.77 1186.23,-74.53 1022.5,-56 699.28,-19.41 615.4,-50 291.5,-20 288.62,-19.73 285.68,-19.43 282.7,-19.11"/>
<polygon fill="midnightblue" stroke="midnightblue" points="3249.91,-292.33 3259.93,-288.87 3249.94,-285.33 3249.91,-292.33"/>
</g>
<!-- Node69 -->
<g id="node42" class="node">
<title>Node69</title>
<g id="a_node42"><a xlink:href="CSymbolProvider_8cpp.html" target="_top" xlink:title=" ">
<polygon fill="white" stroke="black" points="4283,-112.5 4283,-131.5 4404,-131.5 4404,-112.5 4283,-112.5"/>
<text text-anchor="middle" x="4343.5" y="-119.5" font-family="Helvetica,sans-Serif" font-size="10.00">CSymbolProvider.cpp</text>
</a>
</g>
</g>
<!-- Node1&#45;&gt;Node69 -->
<g id="edge59" class="edge">
<title>Node1&#45;&gt;Node69</title>
<path fill="none" stroke="midnightblue" d="M3310.93,-273.09C3326.98,-257.64 3353.62,-234.97 3381.5,-224 3752.77,-77.88 3878.2,-178.25 4274.5,-132 4277.26,-131.68 4280.08,-131.34 4282.93,-130.99"/>
<polygon fill="midnightblue" stroke="midnightblue" points="3308.18,-270.88 3303.55,-280.41 3313.11,-275.85 3308.18,-270.88"/>
</g>
<!-- Node70 -->
<g id="node43" class="node">
<title>Node70</title>
<g id="a_node43"><a xlink:href="LibProc_8cpp.html" target="_top" xlink:title=" ">
<polygon fill="white" stroke="black" points="3390.5,-224.5 3390.5,-243.5 3462.5,-243.5 3462.5,-224.5 3390.5,-224.5"/>
<text text-anchor="middle" x="3426.5" y="-231.5" font-family="Helvetica,sans-Serif" font-size="10.00">LibProc.cpp</text>
</a>
</g>
</g>
<!-- Node1&#45;&gt;Node70 -->
<g id="edge44" class="edge">
<title>Node1&#45;&gt;Node70</title>
<path fill="none" stroke="midnightblue" d="M3325.82,-276.5C3350.38,-266.38 3384.32,-252.39 3405.84,-243.52"/>
<polygon fill="midnightblue" stroke="midnightblue" points="3324.17,-273.4 3316.26,-280.44 3326.84,-279.87 3324.17,-273.4"/>
</g>
<!-- Node71 -->
<g id="node44" class="node">
<title>Node71</title>
<g id="a_node44"><a xlink:href="DefaultFrontEnd_8h.html" target="_top" xlink:title=" ">
<polygon fill="white" stroke="black" points="2908.5,-112.5 2908.5,-131.5 3012.5,-131.5 3012.5,-112.5 2908.5,-112.5"/>
<text text-anchor="middle" x="2960.5" y="-119.5" font-family="Helvetica,sans-Serif" font-size="10.00">DefaultFrontEnd.h</text>
</a>
</g>
</g>
<!-- Node1&#45;&gt;Node71 -->
<g id="edge47" class="edge">
<title>Node1&#45;&gt;Node71</title>
<path fill="none" stroke="midnightblue" d="M3268.6,-275.67C3202.35,-242.84 3032.69,-158.77 2977.87,-131.61"/>
<polygon fill="midnightblue" stroke="midnightblue" points="3267.45,-279 3277.96,-280.31 3270.55,-272.73 3267.45,-279"/>
</g>
<!-- Node76 -->
<g id="node49" class="node">
<title>Node76</title>
<g id="a_node49"><a xlink:href="ReturnStatement_8cpp.html" target="_top" xlink:title=" ">
<polygon fill="white" stroke="black" points="3480.5,-224.5 3480.5,-243.5 3600.5,-243.5 3600.5,-224.5 3480.5,-224.5"/>
<text text-anchor="middle" x="3540.5" y="-231.5" font-family="Helvetica,sans-Serif" font-size="10.00">ReturnStatement.cpp</text>
</a>
</g>
</g>
<!-- Node1&#45;&gt;Node76 -->
<g id="edge57" class="edge">
<title>Node1&#45;&gt;Node76</title>
<path fill="none" stroke="midnightblue" d="M3341.16,-278.94C3387.35,-268.76 3457.98,-253.19 3501.59,-243.58"/>
<polygon fill="midnightblue" stroke="midnightblue" points="3340.14,-275.58 3331.13,-281.15 3341.64,-282.41 3340.14,-275.58"/>
</g>
<!-- Node47 -->
<g id="node50" class="node">
<title>Node47</title>
<g id="a_node50"><a xlink:href="Decompiler_8cpp.html" target="_top" xlink:title=" ">
<polygon fill="white" stroke="black" points="3619,-224.5 3619,-243.5 3712,-243.5 3712,-224.5 3619,-224.5"/>
<text text-anchor="middle" x="3665.5" y="-231.5" font-family="Helvetica,sans-Serif" font-size="10.00">Decompiler.cpp</text>
</a>
</g>
</g>
<!-- Node1&#45;&gt;Node47 -->
<g id="edge58" class="edge">
<title>Node1&#45;&gt;Node47</title>
<path fill="none" stroke="midnightblue" d="M3341.42,-282.67C3402.62,-274.17 3514.28,-258.47 3609.5,-244 3612.52,-243.54 3615.63,-243.06 3618.76,-242.57"/>
<polygon fill="midnightblue" stroke="midnightblue" points="3340.74,-279.23 3331.32,-284.07 3341.7,-286.16 3340.74,-279.23"/>
</g>
<!-- Node3 -->
<g id="node3" class="node">
<title>Node3</title>
<g id="a_node3"><a xlink:href="Plugin_8h.html" target="_top" xlink:title=" ">
<polygon fill="white" stroke="black" points="3278.5,-168.5 3278.5,-187.5 3334.5,-187.5 3334.5,-168.5 3278.5,-168.5"/>
<text text-anchor="middle" x="3306.5" y="-175.5" font-family="Helvetica,sans-Serif" font-size="10.00">Plugin.h</text>
</a>
</g>
</g>
<!-- Node2&#45;&gt;Node3 -->
<g id="edge2" class="edge">
<title>Node2&#45;&gt;Node3</title>
<path fill="none" stroke="midnightblue" d="M3299.35,-214.1C3301.18,-205.14 3303.27,-194.86 3304.72,-187.75"/>
<polygon fill="midnightblue" stroke="midnightblue" points="3295.88,-213.59 3297.32,-224.08 3302.74,-214.98 3295.88,-213.59"/>
</g>
<!-- Node4 -->
<g id="node4" class="node">
<title>Node4</title>
<g id="a_node4"><a xlink:href="Plugin_8cpp.html" target="_top" xlink:title=" ">
<polygon fill="white" stroke="black" points="2171,-112.5 2171,-131.5 2238,-131.5 2238,-112.5 2171,-112.5"/>
<text text-anchor="middle" x="2204.5" y="-119.5" font-family="Helvetica,sans-Serif" font-size="10.00">Plugin.cpp</text>
</a>
</g>
</g>
<!-- Node3&#45;&gt;Node4 -->
<g id="edge3" class="edge">
<title>Node3&#45;&gt;Node4</title>
<path fill="none" stroke="midnightblue" d="M3268.08,-176.21C3102.73,-172.69 2450.97,-157.44 2247.5,-132 2244.47,-131.62 2241.34,-131.14 2238.21,-130.6"/>
<polygon fill="midnightblue" stroke="midnightblue" points="3268.18,-179.71 3278.25,-176.43 3268.33,-172.72 3268.18,-179.71"/>
</g>
<!-- Node5 -->
<g id="node5" class="node">
<title>Node5</title>
<g id="a_node5"><a xlink:href="PluginManager_8h.html" target="_top" xlink:title=" ">
<polygon fill="white" stroke="black" points="2256.5,-112.5 2256.5,-131.5 2354.5,-131.5 2354.5,-112.5 2256.5,-112.5"/>
<text text-anchor="middle" x="2305.5" y="-119.5" font-family="Helvetica,sans-Serif" font-size="10.00">PluginManager.h</text>
</a>
</g>
</g>
<!-- Node3&#45;&gt;Node5 -->
<g id="edge4" class="edge">
<title>Node3&#45;&gt;Node5</title>
<path fill="none" stroke="midnightblue" d="M3268.41,-174.95C3113.22,-166.57 2528.57,-135.03 2354.62,-125.65"/>
<polygon fill="midnightblue" stroke="midnightblue" points="3268.25,-178.44 3278.42,-175.49 3268.62,-171.45 3268.25,-178.44"/>
</g>
<!-- Node53 -->
<g id="node29" class="node">
<title>Node53</title>
<g id="a_node29"><a xlink:href="CapstoneX86Decoder_8cpp.html" target="_top" xlink:title=" ">
<polygon fill="white" stroke="black" points="3414.5,-0.5 3414.5,-19.5 3556.5,-19.5 3556.5,-0.5 3414.5,-0.5"/>
<text text-anchor="middle" x="3485.5" y="-7.5" font-family="Helvetica,sans-Serif" font-size="10.00">CapstoneX86Decoder.cpp</text>
</a>
</g>
</g>
<!-- Node3&#45;&gt;Node53 -->
<g id="edge33" class="edge">
<title>Node3&#45;&gt;Node53</title>
<path fill="none" stroke="midnightblue" d="M3268.2,-175.78C3205.59,-172.9 3085.63,-163.32 3059.5,-132 3053.81,-125.17 3053.67,-118.71 3059.5,-112 3096.88,-68.95 3258.28,-90.16 3313.5,-76 3371.01,-61.25 3435.75,-33.62 3466.85,-19.61"/>
<polygon fill="midnightblue" stroke="midnightblue" points="3268.33,-179.29 3278.47,-176.22 3268.62,-172.3 3268.33,-179.29"/>
</g>
<!-- Node61 -->
<g id="node34" class="node">
<title>Node61</title>
<g id="a_node34"><a xlink:href="CapstonePPCDecoder_8cpp.html" target="_top" xlink:title=" ">
<polygon fill="white" stroke="black" points="3068.5,-112.5 3068.5,-131.5 3210.5,-131.5 3210.5,-112.5 3068.5,-112.5"/>
<text text-anchor="middle" x="3139.5" y="-119.5" font-family="Helvetica,sans-Serif" font-size="10.00">CapstonePPCDecoder.cpp</text>
</a>
</g>
</g>
<!-- Node3&#45;&gt;Node61 -->
<g id="edge34" class="edge">
<title>Node3&#45;&gt;Node61</title>
<path fill="none" stroke="midnightblue" d="M3270.33,-165.3C3238.86,-155.13 3194.01,-140.62 3165.84,-131.52"/>
<polygon fill="midnightblue" stroke="midnightblue" points="3269.45,-168.7 3280.04,-168.44 3271.6,-162.04 3269.45,-168.7"/>
</g>
<!-- Node62 -->
<g id="node35" class="node">
<title>Node62</title>
<g id="a_node35"><a xlink:href="CapstoneSPARCDecoder_8cpp.html" target="_top" xlink:title=" ">
<polygon fill="white" stroke="black" points="3229,-112.5 3229,-131.5 3384,-131.5 3384,-112.5 3229,-112.5"/>
<text text-anchor="middle" x="3306.5" y="-119.5" font-family="Helvetica,sans-Serif" font-size="10.00">CapstoneSPARCDecoder.cpp</text>
</a>
</g>
</g>
<!-- Node3&#45;&gt;Node62 -->
<g id="edge35" class="edge">
<title>Node3&#45;&gt;Node62</title>
<path fill="none" stroke="midnightblue" d="M3306.5,-157.8C3306.5,-148.91 3306.5,-138.78 3306.5,-131.75"/>
<polygon fill="midnightblue" stroke="midnightblue" points="3303,-158.08 3306.5,-168.08 3310,-158.08 3303,-158.08"/>
</g>
<!-- Node63 -->
<g id="node36" class="node">
<title>Node63</title>
<g id="a_node36"><a xlink:href="DOS4GWBinaryLoader_8cpp.html" target="_top" xlink:title=" ">
<polygon fill="white" stroke="black" points="3402.5,-112.5 3402.5,-131.5 3548.5,-131.5 3548.5,-112.5 3402.5,-112.5"/>
<text text-anchor="middle" x="3475.5" y="-119.5" font-family="Helvetica,sans-Serif" font-size="10.00">DOS4GWBinaryLoader.cpp</text>
</a>
</g>
</g>
<!-- Node3&#45;&gt;Node63 -->
<g id="edge36" class="edge">
<title>Node3&#45;&gt;Node63</title>
<path fill="none" stroke="midnightblue" d="M3343.1,-165.3C3374.95,-155.13 3420.34,-140.62 3448.85,-131.52"/>
<polygon fill="midnightblue" stroke="midnightblue" points="3341.74,-162.07 3333.28,-168.44 3343.87,-168.73 3341.74,-162.07"/>
</g>
<!-- Node64 -->
<g id="node37" class="node">
<title>Node64</title>
<g id="a_node37"><a xlink:href="ElfBinaryLoader_8cpp.html" target="_top" xlink:title=" ">
<polygon fill="white" stroke="black" points="3566.5,-112.5 3566.5,-131.5 3680.5,-131.5 3680.5,-112.5 3566.5,-112.5"/>
<text text-anchor="middle" x="3623.5" y="-119.5" font-family="Helvetica,sans-Serif" font-size="10.00">ElfBinaryLoader.cpp</text>
</a>
</g>
</g>
<!-- Node3&#45;&gt;Node64 -->
<g id="edge37" class="edge">
<title>Node3&#45;&gt;Node64</title>
<path fill="none" stroke="midnightblue" d="M3344.74,-168.72C3346.01,-168.48 3347.26,-168.23 3348.5,-168 3423.61,-153.82 3510.76,-140 3566.48,-131.5"/>
<polygon fill="midnightblue" stroke="midnightblue" points="3344.03,-165.3 3334.93,-170.71 3345.42,-172.16 3344.03,-165.3"/>
</g>
<!-- Node65 -->
<g id="node38" class="node">
<title>Node65</title>
<g id="a_node38"><a xlink:href="ExeBinaryLoader_8cpp.html" target="_top" xlink:title=" ">
<polygon fill="white" stroke="black" points="3699,-112.5 3699,-131.5 3818,-131.5 3818,-112.5 3699,-112.5"/>
<text text-anchor="middle" x="3758.5" y="-119.5" font-family="Helvetica,sans-Serif" font-size="10.00">ExeBinaryLoader.cpp</text>
</a>
</g>
</g>
<!-- Node3&#45;&gt;Node65 -->
<g id="edge38" class="edge">
<title>Node3&#45;&gt;Node65</title>
<path fill="none" stroke="midnightblue" d="M3344.72,-168.63C3346,-168.41 3347.26,-168.2 3348.5,-168 3499,-144 3538.15,-149.86 3689.5,-132 3692.5,-131.65 3695.57,-131.28 3698.67,-130.89"/>
<polygon fill="midnightblue" stroke="midnightblue" points="3344.07,-165.19 3334.89,-170.49 3345.37,-172.07 3344.07,-165.19"/>
</g>
<!-- Node66 -->
<g id="node39" class="node">
<title>Node66</title>
<g id="a_node39"><a xlink:href="MachOBinaryLoader_8cpp.html" target="_top" xlink:title=" ">
<polygon fill="white" stroke="black" points="3836,-112.5 3836,-131.5 3971,-131.5 3971,-112.5 3836,-112.5"/>
<text text-anchor="middle" x="3903.5" y="-119.5" font-family="Helvetica,sans-Serif" font-size="10.00">MachOBinaryLoader.cpp</text>
</a>
</g>
</g>
<!-- Node3&#45;&gt;Node66 -->
<g id="edge39" class="edge">
<title>Node3&#45;&gt;Node66</title>
<path fill="none" stroke="midnightblue" d="M3344.72,-168.58C3345.99,-168.37 3347.25,-168.18 3348.5,-168 3559.81,-137.56 3615,-152.56 3827.5,-132 3830.28,-131.73 3833.11,-131.45 3835.97,-131.15"/>
<polygon fill="midnightblue" stroke="midnightblue" points="3344.08,-165.14 3334.87,-170.37 3345.34,-172.03 3344.08,-165.14"/>
</g>
<!-- Node67 -->
<g id="node40" class="node">
<title>Node67</title>
<g id="a_node40"><a xlink:href="Win32BinaryLoader_8cpp.html" target="_top" xlink:title=" ">
<polygon fill="white" stroke="black" points="3989.5,-112.5 3989.5,-131.5 4121.5,-131.5 4121.5,-112.5 3989.5,-112.5"/>
<text text-anchor="middle" x="4055.5" y="-119.5" font-family="Helvetica,sans-Serif" font-size="10.00">Win32BinaryLoader.cpp</text>
</a>
</g>
</g>
<!-- Node3&#45;&gt;Node67 -->
<g id="edge40" class="edge">
<title>Node3&#45;&gt;Node67</title>
<path fill="none" stroke="midnightblue" d="M3344.71,-168.55C3345.99,-168.35 3347.25,-168.17 3348.5,-168 3627.32,-130.41 3700.25,-156.77 3980.5,-132 3983.37,-131.75 3986.31,-131.47 3989.27,-131.18"/>
<polygon fill="midnightblue" stroke="midnightblue" points="3344.1,-165.11 3334.86,-170.3 3345.32,-172 3344.1,-165.11"/>
</g>
<!-- Node68 -->
<g id="node41" class="node">
<title>Node68</title>
<g id="a_node41"><a xlink:href="ST20BinaryLoader_8cpp.html" target="_top" xlink:title=" ">
<polygon fill="white" stroke="black" points="4140,-112.5 4140,-131.5 4265,-131.5 4265,-112.5 4140,-112.5"/>
<text text-anchor="middle" x="4202.5" y="-119.5" font-family="Helvetica,sans-Serif" font-size="10.00">ST20BinaryLoader.cpp</text>
</a>
</g>
</g>
<!-- Node3&#45;&gt;Node68 -->
<g id="edge41" class="edge">
<title>Node3&#45;&gt;Node68</title>
<path fill="none" stroke="midnightblue" d="M3344.71,-168.53C3345.99,-168.34 3347.25,-168.16 3348.5,-168 3693.55,-123.4 3783.84,-161.6 4130.5,-132 4133.51,-131.74 4136.59,-131.45 4139.7,-131.14"/>
<polygon fill="midnightblue" stroke="midnightblue" points="3344.1,-165.09 3334.86,-170.26 3345.31,-171.98 3344.1,-165.09"/>
</g>
<!-- Node3&#45;&gt;Node69 -->
<g id="edge42" class="edge">
<title>Node3&#45;&gt;Node69</title>
<path fill="none" stroke="midnightblue" d="M3344.71,-168.52C3345.98,-168.33 3347.25,-168.16 3348.5,-168 3757.15,-116.66 3864.1,-166.67 4274.5,-132 4277.27,-131.77 4280.1,-131.5 4282.95,-131.21"/>
<polygon fill="midnightblue" stroke="midnightblue" points="3344.11,-165.07 3334.85,-170.23 3345.3,-171.97 3344.11,-165.07"/>
</g>
<!-- Node6 -->
<g id="node6" class="node">
<title>Node6</title>
<g id="a_node6"><a xlink:href="PluginManager_8cpp.html" target="_top" xlink:title=" ">
<polygon fill="white" stroke="black" points="1586.5,-56.5 1586.5,-75.5 1696.5,-75.5 1696.5,-56.5 1586.5,-56.5"/>
<text text-anchor="middle" x="1641.5" y="-63.5" font-family="Helvetica,sans-Serif" font-size="10.00">PluginManager.cpp</text>
</a>
</g>
</g>
<!-- Node5&#45;&gt;Node6 -->
<g id="edge5" class="edge">
<title>Node5&#45;&gt;Node6</title>
<path fill="none" stroke="midnightblue" d="M2246.16,-112.07C2005.23,-86.21 1941.92,-100.46 1705.5,-76 1702.6,-75.7 1699.63,-75.37 1696.63,-75.01"/>
<polygon fill="midnightblue" stroke="midnightblue" points="2245.97,-115.57 2256.29,-113.17 2246.72,-108.61 2245.97,-115.57"/>
</g>
<!-- Node7 -->
<g id="node7" class="node">
<title>Node7</title>
<g id="a_node7"><a xlink:href="Project_8h.html" target="_top" xlink:title=" ">
<polygon fill="white" stroke="red" points="1715,-56.5 1715,-75.5 1774,-75.5 1774,-56.5 1715,-56.5"/>
<text text-anchor="middle" x="1744.5" y="-63.5" font-family="Helvetica,sans-Serif" font-size="10.00">Project.h</text>
</a>
</g>
</g>
<!-- Node5&#45;&gt;Node7 -->
<g id="edge6" class="edge">
<title>Node5&#45;&gt;Node7</title>
<path fill="none" stroke="midnightblue" d="M2246.31,-112.06C2060.23,-89.82 1850.7,-74.35 1774.27,-69.02"/>
<polygon fill="midnightblue" stroke="midnightblue" points="2245.93,-115.54 2256.28,-113.26 2246.77,-108.59 2245.93,-115.54"/>
</g>
<!-- Node8 -->
<g id="node8" class="node">
<title>Node8</title>
<g id="a_node8"><a xlink:href="Project_8cpp.html" target="_top" xlink:title=" ">
<polygon fill="white" stroke="black" points="301,-0.5 301,-19.5 372,-19.5 372,-0.5 301,-0.5"/>
<text text-anchor="middle" x="336.5" y="-7.5" font-family="Helvetica,sans-Serif" font-size="10.00">Project.cpp</text>
</a>
</g>
</g>
<!-- Node7&#45;&gt;Node8 -->
<g id="edge7" class="edge">
<title>Node7&#45;&gt;Node8</title>
<path fill="none" stroke="midnightblue" d="M1704.84,-56.24C1119.38,17.42 962.46,-86.91 380.5,-20 377.87,-19.7 375.16,-19.32 372.44,-18.88"/>
<polygon fill="midnightblue" stroke="midnightblue" points="1704.44,-59.71 1714.8,-57.5 1705.32,-52.77 1704.44,-59.71"/>
</g>
<!-- Node9 -->
<g id="node9" class="node">
<title>Node9</title>
<g id="a_node9"><a xlink:href="DataFlow_8cpp.html" target="_top" xlink:title=" ">
<polygon fill="white" stroke="black" points="390,-0.5 390,-19.5 473,-19.5 473,-0.5 390,-0.5"/>
<text text-anchor="middle" x="431.5" y="-7.5" font-family="Helvetica,sans-Serif" font-size="10.00">DataFlow.cpp</text>
</a>
</g>
</g>
<!-- Node7&#45;&gt;Node9 -->
<g id="edge8" class="edge">
<title>Node7&#45;&gt;Node9</title>
<path fill="none" stroke="midnightblue" d="M1704.8,-56.23C1164.41,12.4 1020.16,-75.06 482.5,-20 479.46,-19.69 476.33,-19.3 473.18,-18.86"/>
<polygon fill="midnightblue" stroke="midnightblue" points="1704.44,-59.71 1714.8,-57.51 1705.33,-52.77 1704.44,-59.71"/>
</g>
<!-- Node7&#45;&gt;Node10 -->
<g id="edge9" class="edge">
<title>Node7&#45;&gt;Node10</title>
<path fill="none" stroke="midnightblue" d="M1704.74,-56.23C987.36,32.41 795.78,-98.73 81.5,-20 78.81,-19.7 76.04,-19.33 73.26,-18.9"/>
<polygon fill="midnightblue" stroke="midnightblue" points="1704.45,-59.72 1714.8,-57.49 1705.31,-52.78 1704.45,-59.72"/>
</g>
<!-- Node11 -->
<g id="node11" class="node">
<title>Node11</title>
<g id="a_node11"><a xlink:href="Proc_8cpp.html" target="_top" xlink:title=" ">
<polygon fill="white" stroke="black" points="491.5,-0.5 491.5,-19.5 549.5,-19.5 549.5,-0.5 491.5,-0.5"/>
<text text-anchor="middle" x="520.5" y="-7.5" font-family="Helvetica,sans-Serif" font-size="10.00">Proc.cpp</text>
</a>
</g>
</g>
<!-- Node7&#45;&gt;Node11 -->
<g id="edge10" class="edge">
<title>Node7&#45;&gt;Node11</title>
<path fill="none" stroke="midnightblue" d="M1704.66,-56.21C1197.91,8.39 1060.76,-86.67 558.5,-20 555.68,-19.63 552.76,-19.13 549.85,-18.57"/>
<polygon fill="midnightblue" stroke="midnightblue" points="1704.43,-59.71 1714.8,-57.52 1705.33,-52.77 1704.43,-59.71"/>
</g>
<!-- Node12 -->
<g id="node12" class="node">
<title>Node12</title>
<g id="a_node12"><a xlink:href="UserProc_8cpp.html" target="_top" xlink:title=" ">
<polygon fill="white" stroke="black" points="567.5,-0.5 567.5,-19.5 647.5,-19.5 647.5,-0.5 567.5,-0.5"/>
<text text-anchor="middle" x="607.5" y="-7.5" font-family="Helvetica,sans-Serif" font-size="10.00">UserProc.cpp</text>
</a>
</g>
</g>
<!-- Node7&#45;&gt;Node12 -->
<g id="edge11" class="edge">
<title>Node7&#45;&gt;Node12</title>
<path fill="none" stroke="midnightblue" d="M1704.83,-56.22C1241.22,3.67 1117,-69.92 656.5,-20 653.58,-19.68 650.57,-19.29 647.54,-18.85"/>
<polygon fill="midnightblue" stroke="midnightblue" points="1704.43,-59.7 1714.8,-57.53 1705.33,-52.76 1704.43,-59.7"/>
</g>
<!-- Node7&#45;&gt;Node13 -->
<g id="edge12" class="edge">
<title>Node7&#45;&gt;Node13</title>
<path fill="none" stroke="midnightblue" d="M1704.71,-56.23C1021.78,28.4 838.1,-105.3 159.5,-20 156.47,-19.62 153.32,-19.1 150.2,-18.51"/>
<polygon fill="midnightblue" stroke="midnightblue" points="1704.44,-59.72 1714.8,-57.49 1705.31,-52.78 1704.44,-59.72"/>
</g>
<!-- Node14 -->
<g id="node14" class="node">
<title>Node14</title>
<g id="a_node14"><a xlink:href="IndirectJumpAnalyzer_8cpp.html" target="_top" xlink:title=" ">
<polygon fill="white" stroke="black" points="666,-0.5 666,-19.5 807,-19.5 807,-0.5 666,-0.5"/>
<text text-anchor="middle" x="736.5" y="-7.5" font-family="Helvetica,sans-Serif" font-size="10.00">IndirectJumpAnalyzer.cpp</text>
</a>
</g>
</g>
<!-- Node7&#45;&gt;Node14 -->
<g id="edge13" class="edge">
<title>Node7&#45;&gt;Node14</title>
<path fill="none" stroke="midnightblue" d="M1704.85,-56.21C1311.42,-4.04 1206.93,-50.17 815.5,-20 812.75,-19.79 809.94,-19.55 807.11,-19.3"/>
<polygon fill="midnightblue" stroke="midnightblue" points="1704.42,-59.69 1714.79,-57.54 1705.35,-52.75 1704.42,-59.69"/>
</g>
<!-- Node15 -->
<g id="node15" class="node">
<title>Node15</title>
<g id="a_node15"><a xlink:href="InterferenceFinder_8cpp.html" target="_top" xlink:title=" ">
<polygon fill="white" stroke="black" points="825,-0.5 825,-19.5 950,-19.5 950,-0.5 825,-0.5"/>
<text text-anchor="middle" x="887.5" y="-7.5" font-family="Helvetica,sans-Serif" font-size="10.00">InterferenceFinder.cpp</text>
</a>
</g>
</g>
<!-- Node7&#45;&gt;Node15 -->
<g id="edge14" class="edge">
<title>Node7&#45;&gt;Node15</title>
<path fill="none" stroke="midnightblue" d="M1704.47,-56.15C1374.89,-11.27 1286.82,-48.31 959.5,-20 956.49,-19.74 953.41,-19.45 950.3,-19.14"/>
<polygon fill="midnightblue" stroke="midnightblue" points="1704.41,-59.67 1714.79,-57.57 1705.36,-52.74 1704.41,-59.67"/>
</g>
<!-- Node16 -->
<g id="node16" class="node">
<title>Node16</title>
<g id="a_node16"><a xlink:href="LivenessAnalyzer_8cpp.html" target="_top" xlink:title=" ">
<polygon fill="white" stroke="black" points="968.5,-0.5 968.5,-19.5 1090.5,-19.5 1090.5,-0.5 968.5,-0.5"/>
<text text-anchor="middle" x="1029.5" y="-7.5" font-family="Helvetica,sans-Serif" font-size="10.00">LivenessAnalyzer.cpp</text>
</a>
</g>
</g>
<!-- Node7&#45;&gt;Node16 -->
<g id="edge15" class="edge">
<title>Node7&#45;&gt;Node16</title>
<path fill="none" stroke="midnightblue" d="M1704.76,-56.17C1436.7,-18.2 1364.85,-44.91 1099.5,-20 1096.57,-19.73 1093.58,-19.42 1090.56,-19.1"/>
<polygon fill="midnightblue" stroke="midnightblue" points="1704.39,-59.65 1714.79,-57.6 1705.38,-52.72 1704.39,-59.65"/>
</g>
<!-- Node7&#45;&gt;Node17 -->
<g id="edge16" class="edge">
<title>Node7&#45;&gt;Node17</title>
<path fill="none" stroke="midnightblue" d="M1704.64,-56.21C1080.07,22.08 914.75,-70.27 291.5,-20 288.62,-19.77 285.67,-19.49 282.7,-19.19"/>
<polygon fill="midnightblue" stroke="midnightblue" points="1704.44,-59.72 1714.8,-57.5 1705.32,-52.77 1704.44,-59.72"/>
</g>
<!-- Node18 -->
<g id="node18" class="node">
<title>Node18</title>
<g id="a_node18"><a xlink:href="ProgDecompiler_8cpp.html" target="_top" xlink:title=" ">
<polygon fill="white" stroke="black" points="1109,-0.5 1109,-19.5 1224,-19.5 1224,-0.5 1109,-0.5"/>
<text text-anchor="middle" x="1166.5" y="-7.5" font-family="Helvetica,sans-Serif" font-size="10.00">ProgDecompiler.cpp</text>
</a>
</g>
</g>
<!-- Node7&#45;&gt;Node18 -->
<g id="edge17" class="edge">
<title>Node7&#45;&gt;Node18</title>
<path fill="none" stroke="midnightblue" d="M1704.71,-56.13C1495.77,-24.8 1439.46,-41.67 1233.5,-20 1230.47,-19.68 1227.36,-19.33 1224.22,-18.97"/>
<polygon fill="midnightblue" stroke="midnightblue" points="1704.37,-59.61 1714.78,-57.66 1705.42,-52.69 1704.37,-59.61"/>
</g>
<!-- Node19 -->
<g id="node19" class="node">
<title>Node19</title>
<g id="a_node19"><a xlink:href="UnusedReturnRemover_8cpp.html" target="_top" xlink:title=" ">
<polygon fill="white" stroke="black" points="1242.5,-0.5 1242.5,-19.5 1392.5,-19.5 1392.5,-0.5 1242.5,-0.5"/>
<text text-anchor="middle" x="1317.5" y="-7.5" font-family="Helvetica,sans-Serif" font-size="10.00">UnusedReturnRemover.cpp</text>
</a>
</g>
</g>
<!-- Node7&#45;&gt;Node19 -->
<g id="edge18" class="edge">
<title>Node7&#45;&gt;Node19</title>
<path fill="none" stroke="midnightblue" d="M1704.82,-56.17C1651.43,-48.12 1489.7,-29.99 1392.7,-19.27"/>
<polygon fill="midnightblue" stroke="midnightblue" points="1704.33,-59.64 1714.76,-57.78 1705.44,-52.73 1704.33,-59.64"/>
</g>
<!-- Node20 -->
<g id="node20" class="node">
<title>Node20</title>
<g id="a_node20"><a xlink:href="DefaultFrontEnd_8cpp.html" target="_top" xlink:title=" ">
<polygon fill="white" stroke="black" points="2774.5,-0.5 2774.5,-19.5 2890.5,-19.5 2890.5,-0.5 2774.5,-0.5"/>
<text text-anchor="middle" x="2832.5" y="-7.5" font-family="Helvetica,sans-Serif" font-size="10.00">DefaultFrontEnd.cpp</text>
</a>
</g>
</g>
<!-- Node7&#45;&gt;Node20 -->
<g id="edge19" class="edge">
<title>Node7&#45;&gt;Node20</title>
<path fill="none" stroke="midnightblue" d="M1784.19,-64.5C1920.74,-62.5 2383.75,-53.53 2764.5,-20 2767.7,-19.72 2770.99,-19.4 2774.3,-19.04"/>
<polygon fill="midnightblue" stroke="midnightblue" points="1784.14,-61 1774.19,-64.64 1784.23,-68 1784.14,-61"/>
</g>
<!-- Node21 -->
<g id="node21" class="node">
<title>Node21</title>
<g id="a_node21"><a xlink:href="CallArgumentUpdatePass_8cpp.html" target="_top" xlink:title=" ">
<polygon fill="white" stroke="black" points="1411,-0.5 1411,-19.5 1572,-19.5 1572,-0.5 1411,-0.5"/>
<text text-anchor="middle" x="1491.5" y="-7.5" font-family="Helvetica,sans-Serif" font-size="10.00">CallArgumentUpdatePass.cpp</text>
</a>
</g>
</g>
<!-- Node7&#45;&gt;Node21 -->
<g id="edge20" class="edge">
<title>Node7&#45;&gt;Node21</title>
<path fill="none" stroke="midnightblue" d="M1704.61,-55.84C1639.11,-41.44 1574.45,-28 1533.38,-19.55"/>
<polygon fill="midnightblue" stroke="midnightblue" points="1704.18,-59.33 1714.7,-58.06 1705.69,-52.49 1704.18,-59.33"/>
</g>
<!-- Node22 -->
<g id="node22" class="node">
<title>Node22</title>
<g id="a_node22"><a xlink:href="CallDefineUpdatePass_8cpp.html" target="_top" xlink:title=" ">
<polygon fill="white" stroke="black" points="1590.5,-0.5 1590.5,-19.5 1736.5,-19.5 1736.5,-0.5 1590.5,-0.5"/>
<text text-anchor="middle" x="1663.5" y="-7.5" font-family="Helvetica,sans-Serif" font-size="10.00">CallDefineUpdatePass.cpp</text>
</a>
</g>
</g>
<!-- Node7&#45;&gt;Node22 -->
<g id="edge21" class="edge">
<title>Node7&#45;&gt;Node22</title>
<path fill="none" stroke="midnightblue" d="M1722.93,-50.62C1708.14,-40.76 1688.99,-27.99 1676.48,-19.65"/>
<polygon fill="midnightblue" stroke="midnightblue" points="1721.22,-53.69 1731.49,-56.32 1725.11,-47.86 1721.22,-53.69"/>
</g>
<!-- Node23 -->
<g id="node23" class="node">
<title>Node23</title>
<g id="a_node23"><a xlink:href="BlockVarRenamePass_8cpp.html" target="_top" xlink:title=" ">
<polygon fill="white" stroke="black" points="1755,-0.5 1755,-19.5 1898,-19.5 1898,-0.5 1755,-0.5"/>
<text text-anchor="middle" x="1826.5" y="-7.5" font-family="Helvetica,sans-Serif" font-size="10.00">BlockVarRenamePass.cpp</text>
</a>
</g>
</g>
<!-- Node7&#45;&gt;Node23 -->
<g id="edge22" class="edge">
<title>Node7&#45;&gt;Node23</title>
<path fill="none" stroke="midnightblue" d="M1766.33,-50.62C1781.31,-40.76 1800.7,-27.99 1813.36,-19.65"/>
<polygon fill="midnightblue" stroke="midnightblue" points="1764.1,-47.9 1757.67,-56.32 1767.95,-53.75 1764.1,-47.9"/>
</g>
<!-- Node24 -->
<g id="node24" class="node">
<title>Node24</title>
<g id="a_node24"><a xlink:href="StatementPropagationPass_8cpp.html" target="_top" xlink:title=" ">
<polygon fill="white" stroke="black" points="1916,-0.5 1916,-19.5 2085,-19.5 2085,-0.5 1916,-0.5"/>
<text text-anchor="middle" x="2000.5" y="-7.5" font-family="Helvetica,sans-Serif" font-size="10.00">StatementPropagationPass.cpp</text>
</a>
</g>
</g>
<!-- Node7&#45;&gt;Node24 -->
<g id="edge23" class="edge">
<title>Node7&#45;&gt;Node24</title>
<path fill="none" stroke="midnightblue" d="M1784.08,-56.65C1831.8,-46.59 1911.58,-29.76 1959.8,-19.59"/>
<polygon fill="midnightblue" stroke="midnightblue" points="1783.18,-53.26 1774.12,-58.75 1784.62,-60.11 1783.18,-53.26"/>
</g>
<!-- Node25 -->
<g id="node25" class="node">
<title>Node25</title>
<g id="a_node25"><a xlink:href="FromSSAFormPass_8cpp.html" target="_top" xlink:title=" ">
<polygon fill="white" stroke="black" points="2103.5,-0.5 2103.5,-19.5 2231.5,-19.5 2231.5,-0.5 2103.5,-0.5"/>
<text text-anchor="middle" x="2167.5" y="-7.5" font-family="Helvetica,sans-Serif" font-size="10.00">FromSSAFormPass.cpp</text>
</a>
</g>
</g>
<!-- Node7&#45;&gt;Node25 -->
<g id="edge24" class="edge">
<title>Node7&#45;&gt;Node25</title>
<path fill="none" stroke="midnightblue" d="M1784.45,-59.9C1857.81,-50.53 2014.61,-30.52 2103.16,-19.21"/>
<polygon fill="midnightblue" stroke="midnightblue" points="1783.72,-56.46 1774.24,-61.2 1784.61,-63.41 1783.72,-56.46"/>
</g>
<!-- Node26 -->
<g id="node26" class="node">
<title>Node26</title>
<g id="a_node26"><a xlink:href="LocalAndParamMapPass_8cpp.html" target="_top" xlink:title=" ">
<polygon fill="white" stroke="black" points="2249.5,-0.5 2249.5,-19.5 2405.5,-19.5 2405.5,-0.5 2249.5,-0.5"/>
<text text-anchor="middle" x="2327.5" y="-7.5" font-family="Helvetica,sans-Serif" font-size="10.00">LocalAndParamMapPass.cpp</text>
</a>
</g>
</g>
<!-- Node7&#45;&gt;Node26 -->
<g id="edge25" class="edge">
<title>Node7&#45;&gt;Node26</title>
<path fill="none" stroke="midnightblue" d="M1784.29,-61.56C1868.49,-54.25 2070.9,-36.47 2240.5,-20 2243.37,-19.72 2246.3,-19.43 2249.25,-19.14"/>
<polygon fill="midnightblue" stroke="midnightblue" points="1783.8,-58.09 1774.14,-62.44 1784.41,-65.06 1783.8,-58.09"/>
</g>
<!-- Node27 -->
<g id="node27" class="node">
<title>Node27</title>
<g id="a_node27"><a xlink:href="LocalTypeAnalysisPass_8cpp.html" target="_top" xlink:title=" ">
<polygon fill="white" stroke="black" points="2424,-0.5 2424,-19.5 2573,-19.5 2573,-0.5 2424,-0.5"/>
<text text-anchor="middle" x="2498.5" y="-7.5" font-family="Helvetica,sans-Serif" font-size="10.00">LocalTypeAnalysisPass.cpp</text>
</a>
</g>
</g>
<!-- Node7&#45;&gt;Node27 -->
<g id="edge26" class="edge">
<title>Node7&#45;&gt;Node27</title>
<path fill="none" stroke="midnightblue" d="M1784.29,-62.88C1888.08,-57.23 2175.61,-40.81 2414.5,-20 2417.57,-19.73 2420.7,-19.45 2423.86,-19.15"/>
<polygon fill="midnightblue" stroke="midnightblue" points="1784.05,-59.39 1774.25,-63.42 1784.43,-66.38 1784.05,-59.39"/>
</g>
<!-- Node28 -->
<g id="node28" class="node">
<title>Node28</title>
<g id="a_node28"><a xlink:href="UnusedLocalRemovalPass_8cpp.html" target="_top" xlink:title=" ">
<polygon fill="white" stroke="black" points="2591,-0.5 2591,-19.5 2756,-19.5 2756,-0.5 2591,-0.5"/>
<text text-anchor="middle" x="2673.5" y="-7.5" font-family="Helvetica,sans-Serif" font-size="10.00">UnusedLocalRemovalPass.cpp</text>
</a>
</g>
</g>
<!-- Node7&#45;&gt;Node28 -->
<g id="edge27" class="edge">
<title>Node7&#45;&gt;Node28</title>
<path fill="none" stroke="midnightblue" d="M1784.39,-63.48C1904.81,-58.74 2275.14,-43.21 2581.5,-20 2584.54,-19.77 2587.64,-19.52 2590.76,-19.27"/>
<polygon fill="midnightblue" stroke="midnightblue" points="1784.04,-59.99 1774.18,-63.88 1784.31,-66.98 1784.04,-59.99"/>
</g>
<!-- Node7&#45;&gt;Node53 -->
<g id="edge28" class="edge">
<title>Node7&#45;&gt;Node53</title>
<path fill="none" stroke="midnightblue" d="M1784.07,-65.17C1968.14,-65.68 2759.04,-65.04 3405.5,-20 3408.43,-19.8 3411.41,-19.56 3414.43,-19.31"/>
<polygon fill="midnightblue" stroke="midnightblue" points="1784.05,-61.67 1774.04,-65.14 1784.03,-68.67 1784.05,-61.67"/>
</g>
<!-- Node55 -->
<g id="node30" class="node">
<title>Node55</title>
<g id="a_node30"><a xlink:href="PPCFrontEnd_8cpp.html" target="_top" xlink:title=" ">
<polygon fill="white" stroke="black" points="2908.5,-0.5 2908.5,-19.5 3006.5,-19.5 3006.5,-0.5 2908.5,-0.5"/>
<text text-anchor="middle" x="2957.5" y="-7.5" font-family="Helvetica,sans-Serif" font-size="10.00">PPCFrontEnd.cpp</text>
</a>
</g>
</g>
<!-- Node7&#45;&gt;Node55 -->
<g id="edge29" class="edge">
<title>Node7&#45;&gt;Node55</title>
<path fill="none" stroke="midnightblue" d="M1784.42,-65.1C1932.46,-65.14 2463.98,-62.13 2899.5,-20 2902.34,-19.73 2905.25,-19.4 2908.19,-19.05"/>
<polygon fill="midnightblue" stroke="midnightblue" points="1784.04,-61.6 1774.03,-65.1 1784.03,-68.6 1784.04,-61.6"/>
</g>
<!-- Node56 -->
<g id="node31" class="node">
<title>Node56</title>
<g id="a_node31"><a xlink:href="SPARCFrontEnd_8cpp.html" target="_top" xlink:title=" ">
<polygon fill="white" stroke="black" points="3024.5,-0.5 3024.5,-19.5 3136.5,-19.5 3136.5,-0.5 3024.5,-0.5"/>
<text text-anchor="middle" x="3080.5" y="-7.5" font-family="Helvetica,sans-Serif" font-size="10.00">SPARCFrontEnd.cpp</text>
</a>
</g>
</g>
<!-- Node7&#45;&gt;Node56 -->
<g id="edge30" class="edge">
<title>Node7&#45;&gt;Node56</title>
<path fill="none" stroke="midnightblue" d="M1784.24,-65.07C1941.01,-65.03 2531.68,-61.95 3015.5,-20 3018.34,-19.75 3021.24,-19.47 3024.17,-19.16"/>
<polygon fill="midnightblue" stroke="midnightblue" points="1784.13,-61.57 1774.13,-65.07 1784.13,-68.57 1784.13,-61.57"/>
</g>
<!-- Node57 -->
<g id="node32" class="node">
<title>Node57</title>
<g id="a_node32"><a xlink:href="ST20FrontEnd_8cpp.html" target="_top" xlink:title=" ">
<polygon fill="white" stroke="black" points="3154.5,-0.5 3154.5,-19.5 3258.5,-19.5 3258.5,-0.5 3154.5,-0.5"/>
<text text-anchor="middle" x="3206.5" y="-7.5" font-family="Helvetica,sans-Serif" font-size="10.00">ST20FrontEnd.cpp</text>
</a>
</g>
</g>
<!-- Node7&#45;&gt;Node57 -->
<g id="edge31" class="edge">
<title>Node7&#45;&gt;Node57</title>
<path fill="none" stroke="midnightblue" d="M1784.42,-65.39C1951.17,-66.64 2608.29,-68.1 3145.5,-20 3148.38,-19.74 3151.33,-19.44 3154.3,-19.1"/>
<polygon fill="midnightblue" stroke="midnightblue" points="1784.18,-61.88 1774.15,-65.3 1784.13,-68.88 1784.18,-61.88"/>
</g>
<!-- Node58 -->
<g id="node33" class="node">
<title>Node58</title>
<g id="a_node33"><a xlink:href="PentiumFrontEnd_8cpp.html" target="_top" xlink:title=" ">
<polygon fill="white" stroke="black" points="3276.5,-0.5 3276.5,-19.5 3396.5,-19.5 3396.5,-0.5 3276.5,-0.5"/>
<text text-anchor="middle" x="3336.5" y="-7.5" font-family="Helvetica,sans-Serif" font-size="10.00">PentiumFrontEnd.cpp</text>
</a>
</g>
</g>
<!-- Node7&#45;&gt;Node58 -->
<g id="edge32" class="edge">
<title>Node7&#45;&gt;Node58</title>
<path fill="none" stroke="midnightblue" d="M1784.14,-65.29C1959.01,-66.24 2678.98,-66.96 3267.5,-20 3270.39,-19.77 3273.34,-19.5 3276.33,-19.21"/>
<polygon fill="midnightblue" stroke="midnightblue" points="1784.13,-61.79 1774.11,-65.23 1784.09,-68.79 1784.13,-61.79"/>
</g>
<!-- Node71&#45;&gt;Node20 -->
<g id="edge48" class="edge">
<title>Node71&#45;&gt;Node20</title>
<path fill="none" stroke="midnightblue" d="M2907.1,-109.41C2887.23,-102.66 2866.02,-92.16 2851.5,-76 2837.04,-59.91 2833.55,-33.37 2832.73,-19.71"/>
<polygon fill="midnightblue" stroke="midnightblue" points="2906.12,-112.77 2916.71,-112.43 2908.22,-106.09 2906.12,-112.77"/>
</g>
<!-- Node72 -->
<g id="node45" class="node">
<title>Node72</title>
<g id="a_node45"><a xlink:href="PPCFrontEnd_8h.html" target="_top" xlink:title=" ">
<polygon fill="white" stroke="black" points="2861,-56.5 2861,-75.5 2948,-75.5 2948,-56.5 2861,-56.5"/>
<text text-anchor="middle" x="2904.5" y="-63.5" font-family="Helvetica,sans-Serif" font-size="10.00">PPCFrontEnd.h</text>
</a>
</g>
</g>
<!-- Node71&#45;&gt;Node72 -->
<g id="edge49" class="edge">
<title>Node71&#45;&gt;Node72</title>
<path fill="none" stroke="midnightblue" d="M2944.17,-105.25C2934.24,-95.67 2921.91,-83.79 2913.66,-75.83"/>
<polygon fill="midnightblue" stroke="midnightblue" points="2941.87,-107.9 2951.5,-112.32 2946.73,-102.86 2941.87,-107.9"/>
</g>
<!-- Node73 -->
<g id="node46" class="node">
<title>Node73</title>
<g id="a_node46"><a xlink:href="SPARCFrontEnd_8h.html" target="_top" xlink:title=" ">
<polygon fill="white" stroke="black" points="2966,-56.5 2966,-75.5 3067,-75.5 3067,-56.5 2966,-56.5"/>
<text text-anchor="middle" x="3016.5" y="-63.5" font-family="Helvetica,sans-Serif" font-size="10.00">SPARCFrontEnd.h</text>
</a>
</g>
</g>
<!-- Node71&#45;&gt;Node73 -->
<g id="edge51" class="edge">
<title>Node71&#45;&gt;Node73</title>
<path fill="none" stroke="midnightblue" d="M2976.83,-105.25C2986.76,-95.67 2999.09,-83.79 3007.34,-75.83"/>
<polygon fill="midnightblue" stroke="midnightblue" points="2974.27,-102.86 2969.5,-112.32 2979.13,-107.9 2974.27,-102.86"/>
</g>
<!-- Node74 -->
<g id="node47" class="node">
<title>Node74</title>
<g id="a_node47"><a xlink:href="ST20FrontEnd_8h.html" target="_top" xlink:title=" ">
<polygon fill="white" stroke="black" points="3085.5,-56.5 3085.5,-75.5 3177.5,-75.5 3177.5,-56.5 3085.5,-56.5"/>
<text text-anchor="middle" x="3131.5" y="-63.5" font-family="Helvetica,sans-Serif" font-size="10.00">ST20FrontEnd.h</text>
</a>
</g>
</g>
<!-- Node71&#45;&gt;Node74 -->
<g id="edge53" class="edge">
<title>Node71&#45;&gt;Node74</title>
<path fill="none" stroke="midnightblue" d="M2997.54,-109.3C3029.76,-99.13 3075.69,-84.62 3104.53,-75.52"/>
<polygon fill="midnightblue" stroke="midnightblue" points="2996.08,-106.09 2987.6,-112.44 2998.19,-112.77 2996.08,-106.09"/>
</g>
<!-- Node75 -->
<g id="node48" class="node">
<title>Node75</title>
<g id="a_node48"><a xlink:href="PentiumFrontEnd_8h.html" target="_top" xlink:title=" ">
<polygon fill="white" stroke="black" points="3196,-56.5 3196,-75.5 3305,-75.5 3305,-56.5 3196,-56.5"/>
<text text-anchor="middle" x="3250.5" y="-63.5" font-family="Helvetica,sans-Serif" font-size="10.00">PentiumFrontEnd.h</text>
</a>
</g>
</g>
<!-- Node71&#45;&gt;Node75 -->
<g id="edge55" class="edge">
<title>Node71&#45;&gt;Node75</title>
<path fill="none" stroke="midnightblue" d="M3016.35,-110.6C3071.15,-100.4 3153.73,-85.02 3204.76,-75.52"/>
<polygon fill="midnightblue" stroke="midnightblue" points="3015.64,-107.17 3006.45,-112.44 3016.92,-114.05 3015.64,-107.17"/>
</g>
<!-- Node72&#45;&gt;Node55 -->
<g id="edge50" class="edge">
<title>Node72&#45;&gt;Node55</title>
<path fill="none" stroke="midnightblue" d="M2920.48,-48.72C2929.82,-39.2 2941.25,-27.56 2948.91,-19.75"/>
<polygon fill="midnightblue" stroke="midnightblue" points="2917.76,-46.49 2913.25,-56.08 2922.75,-51.4 2917.76,-46.49"/>
</g>
<!-- Node73&#45;&gt;Node56 -->
<g id="edge52" class="edge">
<title>Node73&#45;&gt;Node56</title>
<path fill="none" stroke="midnightblue" d="M3034.49,-49.82C3045.96,-40.15 3060.41,-27.95 3070.03,-19.83"/>
<polygon fill="midnightblue" stroke="midnightblue" points="3032.17,-47.2 3026.78,-56.32 3036.68,-52.55 3032.17,-47.2"/>
</g>
<!-- Node74&#45;&gt;Node57 -->
<g id="edge54" class="edge">
<title>Node74&#45;&gt;Node57</title>
<path fill="none" stroke="midnightblue" d="M3151.81,-50.38C3165.36,-40.62 3182.74,-28.11 3194.23,-19.83"/>
<polygon fill="midnightblue" stroke="midnightblue" points="3149.62,-47.64 3143.55,-56.32 3153.71,-53.32 3149.62,-47.64"/>
</g>
<!-- Node75&#45;&gt;Node58 -->
<g id="edge56" class="edge">
<title>Node75&#45;&gt;Node58</title>
<path fill="none" stroke="midnightblue" d="M3272.95,-50.9C3288.72,-41 3309.31,-28.07 3322.72,-19.65"/>
<polygon fill="midnightblue" stroke="midnightblue" points="3270.93,-48.04 3264.32,-56.32 3274.65,-53.97 3270.93,-48.04"/>
</g>
</g>
</svg>
        <g id="navigator" transform="translate(0 0)" fill="#404254">
                <rect fill="#f2f5e9" fill-opacity="0.5" stroke="#606060" stroke-width=".5" x="0" y="0" width="60" height="60"/>
                <use id="zoomplus" xlink:href="#zoomPlus" x="17" y="9" onmousedown="handleZoom(evt,'in')"/>
                <use id="zoomminus" xlink:href="#zoomMin" x="42" y="9" onmousedown="handleZoom(evt,'out')"/>
                <use id="reset" xlink:href="#resetDef" x="30" y="36" onmousedown="handleReset()"/>
                <g id="arrowUp" xlink:href="#dirArrow" transform="translate(30 24)" onmousedown="handlePan(0,-1)">
                  <use xlink:href="#rim" fill="#404040">
                        <set attributeName="fill" to="#808080" begin="arrowUp.mouseover" end="arrowUp.mouseout"/>
                  </use>
                  <path fill="none" stroke="white" stroke-width="1.5" d="M0,-3.0v7 M-2.5,-0.5L0,-3.0L2.5,-0.5"/>
                </g>
                <g id="arrowRight" xlink:href="#dirArrow" transform="rotate(90) translate(36 -43)" onmousedown="handlePan(1,0)">
                  <use xlink:href="#rim" fill="#404040">
                        <set attributeName="fill" to="#808080" begin="arrowRight.mouseover" end="arrowRight.mouseout"/>
                  </use>
                  <path fill="none" stroke="white" stroke-width="1.5" d="M0,-3.0v7 M-2.5,-0.5L0,-3.0L2.5,-0.5"/>
                </g>
                <g id="arrowDown" xlink:href="#dirArrow" transform="rotate(180) translate(-30 -48)" onmousedown="handlePan(0,1)">
                  <use xlink:href="#rim" fill="#404040">
                        <set attributeName="fill" to="#808080" begin="arrowDown.mouseover" end="arrowDown.mouseout"/>
                  </use>
                  <path fill="none" stroke="white" stroke-width="1.5" d="M0,-3.0v7 M-2.5,-0.5L0,-3.0L2.5,-0.5"/>
                </g>
                <g id="arrowLeft" xlink:href="#dirArrow" transform="rotate(270) translate(-36 17)" onmousedown="handlePan(-1,0)">
                  <use xlink:href="#rim" fill="#404040">
                        <set attributeName="fill" to="#808080" begin="arrowLeft.mouseover" end="arrowLeft.mouseout"/>
                  </use>
                  <path fill="none" stroke="white" stroke-width="1.5" d="M0,-3.0v7 M-2.5,-0.5L0,-3.0L2.5,-0.5"/>
                </g>
        </g>
        <svg viewBox="0 0 15 15" width="100%" height="30px" preserveAspectRatio="xMaxYMin meet">
         <g id="arrow_out" transform="scale(0.3 0.3)">
          <a xlink:href="IFrontEnd_8h__dep__incl_org.svg" target="_base">
           <rect id="button" ry="5" rx="5" y="6" x="6" height="38" width="38"
                fill="#f2f5e9" fill-opacity="0.5" stroke="#606060" stroke-width="1.0"/>
           <path id="arrow"
             d="M 11.500037,31.436501 C 11.940474,20.09759 22.043105,11.32322 32.158766,21.979434 L 37.068811,17.246167 C 37.068811,17.246167 37.088388,32 37.088388,32 L 22.160133,31.978069 C 22.160133,31.978069 26.997745,27.140456 26.997745,27.140456 C 18.528582,18.264221 13.291696,25.230495 11.500037,31.436501 z"
             style="fill:#404040;"/>
          </a>
         </g>
        </svg>
</svg>
