<?xml version="1.0" encoding="UTF-8" standalone="no"?>
<!DOCTYPE svg PUBLIC "-//W3C//DTD SVG 1.1//EN"
 "http://www.w3.org/Graphics/SVG/1.1/DTD/svg11.dtd">
<!-- Generated by graphviz version 2.43.0 (0)
 -->
<!-- Title: ImplicitPlacementPass.cpp Pages: 1 -->
<svg width="1706pt" height="732pt"
 viewBox="0.00 0.00 1705.50 732.00" xmlns="http://www.w3.org/2000/svg" xmlns:xlink="http://www.w3.org/1999/xlink">
<g id="graph0" class="graph" transform="scale(1 1) rotate(0) translate(4 728)">
<title>ImplicitPlacementPass.cpp</title>
<polygon fill="white" stroke="transparent" points="-4,4 -4,-728 1701.5,-728 1701.5,4 -4,4"/>
<!-- Node1 -->
<g id="node1" class="node">
<title>Node1</title>
<g id="a_node1"><a xlink:title=" ">
<polygon fill="#bfbfbf" stroke="black" points="635.5,-704.5 635.5,-723.5 783.5,-723.5 783.5,-704.5 635.5,-704.5"/>
<text text-anchor="middle" x="709.5" y="-711.5" font-family="Helvetica,sans-Serif" font-size="10.00">ImplicitPlacementPass.cpp</text>
</a>
</g>
</g>
<!-- Node2 -->
<g id="node2" class="node">
<title>Node2</title>
<g id="a_node2"><a xlink:href="ImplicitPlacementPass_8h.html" target="_top" xlink:title=" ">
<polygon fill="white" stroke="black" points="394,-643 394,-662 531,-662 531,-643 394,-643"/>
<text text-anchor="middle" x="462.5" y="-650" font-family="Helvetica,sans-Serif" font-size="10.00">ImplicitPlacementPass.h</text>
</a>
</g>
</g>
<!-- Node1&#45;&gt;Node2 -->
<g id="edge1" class="edge">
<title>Node1&#45;&gt;Node2</title>
<path fill="none" stroke="midnightblue" d="M674.11,-704.48C630.27,-693.92 555.53,-675.91 507.62,-664.37"/>
<polygon fill="midnightblue" stroke="midnightblue" points="508.37,-660.95 497.82,-662.01 506.73,-667.75 508.37,-660.95"/>
</g>
<!-- Node5 -->
<g id="node5" class="node">
<title>Node5</title>
<g id="a_node5"><a xlink:href="UserProc_8h.html" target="_top" xlink:title=" ">
<polygon fill="white" stroke="black" points="626,-643 626,-662 793,-662 793,-643 626,-643"/>
<text text-anchor="middle" x="709.5" y="-650" font-family="Helvetica,sans-Serif" font-size="10.00">boomerang/db/proc/UserProc.h</text>
</a>
</g>
</g>
<!-- Node1&#45;&gt;Node5 -->
<g id="edge4" class="edge">
<title>Node1&#45;&gt;Node5</title>
<path fill="none" stroke="midnightblue" d="M709.5,-704.48C709.5,-696.08 709.5,-682.98 709.5,-672.16"/>
<polygon fill="midnightblue" stroke="midnightblue" points="713,-672.01 709.5,-662.01 706,-672.01 713,-672.01"/>
</g>
<!-- Node31 -->
<g id="node31" class="node">
<title>Node31</title>
<g id="a_node31"><a xlink:href="StatementList_8h.html" target="_top" xlink:title=" ">
<polygon fill="white" stroke="black" points="917,-570.5 917,-600.5 1062,-600.5 1062,-570.5 917,-570.5"/>
<text text-anchor="start" x="925" y="-588.5" font-family="Helvetica,sans-Serif" font-size="10.00">boomerang/util/Statement</text>
<text text-anchor="middle" x="989.5" y="-577.5" font-family="Helvetica,sans-Serif" font-size="10.00">List.h</text>
</a>
</g>
</g>
<!-- Node1&#45;&gt;Node31 -->
<g id="edge67" class="edge">
<title>Node1&#45;&gt;Node31</title>
<path fill="none" stroke="midnightblue" d="M728.75,-704.31C773.9,-683.91 887.44,-632.61 948.74,-604.92"/>
<polygon fill="midnightblue" stroke="midnightblue" points="950.44,-607.99 958.11,-600.68 947.55,-601.61 950.44,-607.99"/>
</g>
<!-- Node38 -->
<g id="node38" class="node">
<title>Node38</title>
<g id="a_node38"><a xlink:href="ImplicitConverter_8h.html" target="_top" xlink:title=" ">
<polygon fill="white" stroke="black" points="1317.5,-570.5 1317.5,-600.5 1485.5,-600.5 1485.5,-570.5 1317.5,-570.5"/>
<text text-anchor="start" x="1325.5" y="-588.5" font-family="Helvetica,sans-Serif" font-size="10.00">boomerang/visitor/expmodifier</text>
<text text-anchor="middle" x="1401.5" y="-577.5" font-family="Helvetica,sans-Serif" font-size="10.00">/ImplicitConverter.h</text>
</a>
</g>
</g>
<!-- Node1&#45;&gt;Node38 -->
<g id="edge68" class="edge">
<title>Node1&#45;&gt;Node38</title>
<path fill="none" stroke="midnightblue" d="M756.25,-704.45C870.81,-683.51 1166.97,-629.37 1314.84,-602.34"/>
<polygon fill="midnightblue" stroke="midnightblue" points="1315.59,-605.76 1324.79,-600.52 1314.33,-598.88 1315.59,-605.76"/>
</g>
<!-- Node40 -->
<g id="node40" class="node">
<title>Node40</title>
<g id="a_node40"><a xlink:href="StmtImplicitConverter_8h.html" target="_top" xlink:title=" ">
<polygon fill="white" stroke="black" points="49,-637.5 49,-667.5 222,-667.5 222,-637.5 49,-637.5"/>
<text text-anchor="start" x="57" y="-655.5" font-family="Helvetica,sans-Serif" font-size="10.00">boomerang/visitor/stmtmodifier</text>
<text text-anchor="middle" x="135.5" y="-644.5" font-family="Helvetica,sans-Serif" font-size="10.00">/StmtImplicitConverter.h</text>
</a>
</g>
</g>
<!-- Node1&#45;&gt;Node40 -->
<g id="edge72" class="edge">
<title>Node1&#45;&gt;Node40</title>
<path fill="none" stroke="midnightblue" d="M635.34,-705.31C532.38,-694.64 345.97,-675.32 232.2,-663.52"/>
<polygon fill="midnightblue" stroke="midnightblue" points="232.41,-660.03 222.1,-662.48 231.68,-666.99 232.41,-660.03"/>
</g>
<!-- Node3 -->
<g id="node3" class="node">
<title>Node3</title>
<g id="a_node3"><a xlink:href="Pass_8h.html" target="_top" xlink:title=" ">
<polygon fill="white" stroke="black" points="195,-514.5 195,-533.5 338,-533.5 338,-514.5 195,-514.5"/>
<text text-anchor="middle" x="266.5" y="-521.5" font-family="Helvetica,sans-Serif" font-size="10.00">boomerang/passes/Pass.h</text>
</a>
</g>
</g>
<!-- Node2&#45;&gt;Node3 -->
<g id="edge2" class="edge">
<title>Node2&#45;&gt;Node3</title>
<path fill="none" stroke="midnightblue" d="M449.03,-642.81C415.66,-621.27 328.93,-565.29 288.21,-539.01"/>
<polygon fill="midnightblue" stroke="midnightblue" points="290.11,-536.07 279.81,-533.59 286.31,-541.95 290.11,-536.07"/>
</g>
<!-- Node4 -->
<g id="node4" class="node">
<title>Node4</title>
<g id="a_node4"><a xlink:title=" ">
<polygon fill="white" stroke="#bfbfbf" points="316,-123.5 316,-142.5 369,-142.5 369,-123.5 316,-123.5"/>
<text text-anchor="middle" x="342.5" y="-130.5" font-family="Helvetica,sans-Serif" font-size="10.00">QString</text>
</a>
</g>
</g>
<!-- Node3&#45;&gt;Node4 -->
<g id="edge3" class="edge">
<title>Node3&#45;&gt;Node4</title>
<path fill="none" stroke="midnightblue" d="M258.27,-514.29C240.78,-494.82 201.5,-445.64 201.5,-396.5 201.5,-396.5 201.5,-396.5 201.5,-260.5 201.5,-202.68 268,-164.62 309.66,-146.44"/>
<polygon fill="midnightblue" stroke="midnightblue" points="311.04,-149.66 318.9,-142.56 308.32,-143.21 311.04,-149.66"/>
</g>
<!-- Node6 -->
<g id="node6" class="node">
<title>Node6</title>
<g id="a_node6"><a xlink:href="DataFlow_8h.html" target="_top" xlink:title=" ">
<polygon fill="white" stroke="black" points="536,-386 536,-405 681,-405 681,-386 536,-386"/>
<text text-anchor="middle" x="608.5" y="-393" font-family="Helvetica,sans-Serif" font-size="10.00">boomerang/db/DataFlow.h</text>
</a>
</g>
</g>
<!-- Node5&#45;&gt;Node6 -->
<g id="edge5" class="edge">
<title>Node5&#45;&gt;Node6</title>
<path fill="none" stroke="midnightblue" d="M706.02,-642.72C691.52,-606.09 635.63,-465 615.65,-414.56"/>
<polygon fill="midnightblue" stroke="midnightblue" points="618.9,-413.25 611.96,-405.24 612.39,-415.83 618.9,-413.25"/>
</g>
<!-- Node25 -->
<g id="node25" class="node">
<title>Node25</title>
<g id="a_node25"><a xlink:href="UseCollector_8h.html" target="_top" xlink:title=" ">
<polygon fill="white" stroke="black" points="738,-576 738,-595 899,-595 899,-576 738,-576"/>
<text text-anchor="middle" x="818.5" y="-583" font-family="Helvetica,sans-Serif" font-size="10.00">boomerang/db/UseCollector.h</text>
</a>
</g>
</g>
<!-- Node5&#45;&gt;Node25 -->
<g id="edge32" class="edge">
<title>Node5&#45;&gt;Node25</title>
<path fill="none" stroke="midnightblue" d="M724.2,-642.73C742.42,-631.87 773.7,-613.22 795.2,-600.39"/>
<polygon fill="midnightblue" stroke="midnightblue" points="797.24,-603.26 804.03,-595.13 793.65,-597.24 797.24,-603.26"/>
</g>
<!-- Node26 -->
<g id="node26" class="node">
<title>Node26</title>
<g id="a_node26"><a xlink:href="Proc_8h.html" target="_top" xlink:title=" ">
<polygon fill="white" stroke="black" points="304.5,-252 304.5,-271 448.5,-271 448.5,-252 304.5,-252"/>
<text text-anchor="middle" x="376.5" y="-259" font-family="Helvetica,sans-Serif" font-size="10.00">boomerang/db/proc/Proc.h</text>
</a>
</g>
</g>
<!-- Node5&#45;&gt;Node26 -->
<g id="edge34" class="edge">
<title>Node5&#45;&gt;Node26</title>
<path fill="none" stroke="midnightblue" d="M666.87,-642.95C583.62,-625.04 407.5,-580.57 407.5,-525 407.5,-525 407.5,-525 407.5,-394.5 407.5,-352.89 392.72,-305.82 383.57,-280.66"/>
<polygon fill="midnightblue" stroke="midnightblue" points="386.85,-279.42 380.06,-271.29 380.3,-281.89 386.85,-279.42"/>
</g>
<!-- Node28 -->
<g id="node28" class="node">
<title>Node28</title>
<g id="a_node28"><a xlink:href="ProcCFG_8h.html" target="_top" xlink:title=" ">
<polygon fill="white" stroke="black" points="670.5,-252 670.5,-271 834.5,-271 834.5,-252 670.5,-252"/>
<text text-anchor="middle" x="752.5" y="-259" font-family="Helvetica,sans-Serif" font-size="10.00">boomerang/db/proc/ProcCFG.h</text>
</a>
</g>
</g>
<!-- Node5&#45;&gt;Node28 -->
<g id="edge44" class="edge">
<title>Node5&#45;&gt;Node28</title>
<path fill="none" stroke="midnightblue" d="M709.5,-642.91C709.5,-622.48 709.5,-569.36 709.5,-525 709.5,-525 709.5,-525 709.5,-394.5 709.5,-351.71 730.18,-304.78 742.86,-280.04"/>
<polygon fill="midnightblue" stroke="midnightblue" points="745.98,-281.62 747.57,-271.14 739.8,-278.34 745.98,-281.62"/>
</g>
<!-- Node5&#45;&gt;Node31 -->
<g id="edge52" class="edge">
<title>Node5&#45;&gt;Node31</title>
<path fill="none" stroke="midnightblue" d="M746.39,-642.94C790.15,-632.78 864.06,-615.62 918.93,-602.88"/>
<polygon fill="midnightblue" stroke="midnightblue" points="919.99,-606.23 928.94,-600.56 918.41,-599.41 919.99,-606.23"/>
</g>
<!-- Node7 -->
<g id="node7" class="node">
<title>Node7</title>
<g id="a_node7"><a xlink:href="LocationSet_8h.html" target="_top" xlink:title=" ">
<polygon fill="white" stroke="black" points="837.5,-319 837.5,-338 997.5,-338 997.5,-319 837.5,-319"/>
<text text-anchor="middle" x="917.5" y="-326" font-family="Helvetica,sans-Serif" font-size="10.00">boomerang/util/LocationSet.h</text>
</a>
</g>
</g>
<!-- Node6&#45;&gt;Node7 -->
<g id="edge6" class="edge">
<title>Node6&#45;&gt;Node7</title>
<path fill="none" stroke="midnightblue" d="M649.21,-385.94C705.14,-374.17 805.7,-353.02 866.55,-340.22"/>
<polygon fill="midnightblue" stroke="midnightblue" points="867.63,-343.57 876.7,-338.08 866.19,-336.72 867.63,-343.57"/>
</g>
<!-- Node23 -->
<g id="node23" class="node">
<title>Node23</title>
<g id="a_node23"><a xlink:title=" ">
<polygon fill="white" stroke="#bfbfbf" points="465.5,-185 465.5,-204 503.5,-204 503.5,-185 465.5,-185"/>
<text text-anchor="middle" x="484.5" y="-192" font-family="Helvetica,sans-Serif" font-size="10.00">map</text>
</a>
</g>
</g>
<!-- Node6&#45;&gt;Node23 -->
<g id="edge30" class="edge">
<title>Node6&#45;&gt;Node23</title>
<path fill="none" stroke="midnightblue" d="M595.8,-385.97C571.33,-368.72 518.08,-327.05 495.5,-277 486.44,-256.91 484.3,-231.41 484.04,-214.34"/>
<polygon fill="midnightblue" stroke="midnightblue" points="487.54,-214.05 484.09,-204.03 480.54,-214.01 487.54,-214.05"/>
</g>
<!-- Node24 -->
<g id="node24" class="node">
<title>Node24</title>
<g id="a_node24"><a xlink:title=" ">
<polygon fill="white" stroke="#bfbfbf" points="562,-319 562,-338 655,-338 655,-319 562,-319"/>
<text text-anchor="middle" x="608.5" y="-326" font-family="Helvetica,sans-Serif" font-size="10.00">unordered_map</text>
</a>
</g>
</g>
<!-- Node6&#45;&gt;Node24 -->
<g id="edge31" class="edge">
<title>Node6&#45;&gt;Node24</title>
<path fill="none" stroke="midnightblue" d="M608.5,-385.73C608.5,-376.18 608.5,-360.62 608.5,-348.28"/>
<polygon fill="midnightblue" stroke="midnightblue" points="612,-348.13 608.5,-338.13 605,-348.13 612,-348.13"/>
</g>
<!-- Node8 -->
<g id="node8" class="node">
<title>Node8</title>
<g id="a_node8"><a xlink:href="Exp_8h.html" target="_top" xlink:title=" ">
<polygon fill="white" stroke="black" points="1219.5,-252 1219.5,-271 1359.5,-271 1359.5,-252 1219.5,-252"/>
<text text-anchor="middle" x="1289.5" y="-259" font-family="Helvetica,sans-Serif" font-size="10.00">boomerang/ssl/exp/Exp.h</text>
</a>
</g>
</g>
<!-- Node7&#45;&gt;Node8 -->
<g id="edge7" class="edge">
<title>Node7&#45;&gt;Node8</title>
<path fill="none" stroke="midnightblue" d="M966.52,-318.94C1034.63,-307.03 1157.75,-285.52 1230.72,-272.77"/>
<polygon fill="midnightblue" stroke="midnightblue" points="1231.42,-276.2 1240.67,-271.03 1230.22,-269.31 1231.42,-276.2"/>
</g>
<!-- Node21 -->
<g id="node21" class="node">
<title>Node21</title>
<g id="a_node21"><a xlink:href="ExpSet_8h.html" target="_top" xlink:title=" ">
<polygon fill="white" stroke="black" points="934,-252 934,-271 1071,-271 1071,-252 934,-252"/>
<text text-anchor="middle" x="1002.5" y="-259" font-family="Helvetica,sans-Serif" font-size="10.00">boomerang/util/ExpSet.h</text>
</a>
</g>
</g>
<!-- Node7&#45;&gt;Node21 -->
<g id="edge24" class="edge">
<title>Node7&#45;&gt;Node21</title>
<path fill="none" stroke="midnightblue" d="M928.96,-318.73C942.86,-308.11 966.48,-290.05 983.19,-277.26"/>
<polygon fill="midnightblue" stroke="midnightblue" points="985.4,-279.98 991.22,-271.13 981.15,-274.42 985.4,-279.98"/>
</g>
<!-- Node8&#45;&gt;Node4 -->
<g id="edge18" class="edge">
<title>Node8&#45;&gt;Node4</title>
<path fill="none" stroke="midnightblue" d="M1278.33,-251.79C1265.76,-241.9 1244.84,-225.18 1227.5,-210 1212.36,-196.75 1213.01,-186.9 1194.5,-179 1175.48,-170.88 541.02,-142.67 379.58,-135.61"/>
<polygon fill="midnightblue" stroke="midnightblue" points="379.35,-132.1 369.21,-135.16 379.05,-139.09 379.35,-132.1"/>
</g>
<!-- Node9 -->
<g id="node9" class="node">
<title>Node9</title>
<g id="a_node9"><a xlink:href="ExpHelp_8h.html" target="_top" xlink:title=" ">
<polygon fill="white" stroke="black" points="705.5,-185 705.5,-204 867.5,-204 867.5,-185 705.5,-185"/>
<text text-anchor="middle" x="786.5" y="-192" font-family="Helvetica,sans-Serif" font-size="10.00">boomerang/ssl/exp/ExpHelp.h</text>
</a>
</g>
</g>
<!-- Node8&#45;&gt;Node9 -->
<g id="edge8" class="edge">
<title>Node8&#45;&gt;Node9</title>
<path fill="none" stroke="midnightblue" d="M1223.48,-251.97C1130.42,-239.94 961.08,-218.06 862.76,-205.36"/>
<polygon fill="midnightblue" stroke="midnightblue" points="862.96,-201.85 852.6,-204.04 862.07,-208.79 862.96,-201.85"/>
</g>
<!-- Node11 -->
<g id="node11" class="node">
<title>Node11</title>
<g id="a_node11"><a xlink:title=" ">
<polygon fill="white" stroke="#bfbfbf" points="1041.5,-123.5 1041.5,-142.5 1099.5,-142.5 1099.5,-123.5 1041.5,-123.5"/>
<text text-anchor="middle" x="1070.5" y="-130.5" font-family="Helvetica,sans-Serif" font-size="10.00">memory</text>
</a>
</g>
</g>
<!-- Node8&#45;&gt;Node11 -->
<g id="edge21" class="edge">
<title>Node8&#45;&gt;Node11</title>
<path fill="none" stroke="midnightblue" d="M1289.62,-251.93C1289.37,-235.31 1286.33,-198.62 1265.5,-179 1243.37,-158.15 1160.33,-144.77 1110.02,-138.4"/>
<polygon fill="midnightblue" stroke="midnightblue" points="1110.17,-134.89 1099.82,-137.14 1109.32,-141.84 1110.17,-134.89"/>
</g>
<!-- Node12 -->
<g id="node12" class="node">
<title>Node12</title>
<g id="a_node12"><a xlink:href="Operator_8h.html" target="_top" xlink:title=" ">
<polygon fill="white" stroke="black" points="1273.5,-123.5 1273.5,-142.5 1437.5,-142.5 1437.5,-123.5 1273.5,-123.5"/>
<text text-anchor="middle" x="1355.5" y="-130.5" font-family="Helvetica,sans-Serif" font-size="10.00">boomerang/ssl/exp/Operator.h</text>
</a>
</g>
</g>
<!-- Node8&#45;&gt;Node12 -->
<g id="edge11" class="edge">
<title>Node8&#45;&gt;Node12</title>
<path fill="none" stroke="midnightblue" d="M1359.76,-255.7C1391,-249.65 1425.05,-236.8 1444.5,-210 1452.59,-198.85 1451.72,-190.74 1444.5,-179 1434.95,-163.47 1418.19,-153.1 1401.77,-146.27"/>
<polygon fill="midnightblue" stroke="midnightblue" points="1402.79,-142.92 1392.2,-142.65 1400.32,-149.46 1402.79,-142.92"/>
</g>
<!-- Node13 -->
<g id="node13" class="node">
<title>Node13</title>
<g id="a_node13"><a xlink:href="OStream_8h.html" target="_top" xlink:title=" ">
<polygon fill="white" stroke="black" points="753.5,-123.5 753.5,-142.5 899.5,-142.5 899.5,-123.5 753.5,-123.5"/>
<text text-anchor="middle" x="826.5" y="-130.5" font-family="Helvetica,sans-Serif" font-size="10.00">boomerang/util/OStream.h</text>
</a>
</g>
</g>
<!-- Node8&#45;&gt;Node13 -->
<g id="edge13" class="edge">
<title>Node8&#45;&gt;Node13</title>
<path fill="none" stroke="midnightblue" d="M1285.75,-251.74C1277.84,-234.44 1257.65,-196.11 1227.5,-179 1200.54,-163.7 1019.22,-148.05 909.84,-139.84"/>
<polygon fill="midnightblue" stroke="midnightblue" points="910.04,-136.35 899.81,-139.1 909.52,-143.33 910.04,-136.35"/>
</g>
<!-- Node17 -->
<g id="node17" class="node">
<title>Node17</title>
<g id="a_node17"><a xlink:title=" ">
<polygon fill="white" stroke="#bfbfbf" points="1317.5,-185 1317.5,-204 1369.5,-204 1369.5,-185 1317.5,-185"/>
<text text-anchor="middle" x="1343.5" y="-192" font-family="Helvetica,sans-Serif" font-size="10.00">cassert</text>
</a>
</g>
</g>
<!-- Node8&#45;&gt;Node17 -->
<g id="edge19" class="edge">
<title>Node8&#45;&gt;Node17</title>
<path fill="none" stroke="midnightblue" d="M1296.78,-251.73C1305.2,-241.6 1319.25,-224.69 1329.75,-212.06"/>
<polygon fill="midnightblue" stroke="midnightblue" points="1332.63,-214.06 1336.33,-204.13 1327.25,-209.58 1332.63,-214.06"/>
</g>
<!-- Node18 -->
<g id="node18" class="node">
<title>Node18</title>
<g id="a_node18"><a xlink:title=" ">
<polygon fill="white" stroke="#bfbfbf" points="923.5,-185 923.5,-204 955.5,-204 955.5,-185 923.5,-185"/>
<text text-anchor="middle" x="939.5" y="-192" font-family="Helvetica,sans-Serif" font-size="10.00">list</text>
</a>
</g>
</g>
<!-- Node8&#45;&gt;Node18 -->
<g id="edge20" class="edge">
<title>Node8&#45;&gt;Node18</title>
<path fill="none" stroke="midnightblue" d="M1243.38,-251.94C1168.94,-238.11 1024.68,-211.32 965.64,-200.36"/>
<polygon fill="midnightblue" stroke="midnightblue" points="966.12,-196.88 955.65,-198.5 964.84,-203.77 966.12,-196.88"/>
</g>
<!-- Node19 -->
<g id="node19" class="node">
<title>Node19</title>
<g id="a_node19"><a xlink:title=" ">
<polygon fill="white" stroke="#bfbfbf" points="1049.5,-185 1049.5,-204 1081.5,-204 1081.5,-185 1049.5,-185"/>
<text text-anchor="middle" x="1065.5" y="-192" font-family="Helvetica,sans-Serif" font-size="10.00">set</text>
</a>
</g>
</g>
<!-- Node8&#45;&gt;Node19 -->
<g id="edge22" class="edge">
<title>Node8&#45;&gt;Node19</title>
<path fill="none" stroke="midnightblue" d="M1240.45,-252C1199.42,-243.96 1139.85,-230.11 1090.5,-210 1089.63,-209.64 1088.75,-209.26 1087.86,-208.86"/>
<polygon fill="midnightblue" stroke="midnightblue" points="1089.13,-205.57 1078.65,-204.04 1085.88,-211.77 1089.13,-205.57"/>
</g>
<!-- Node20 -->
<g id="node20" class="node">
<title>Node20</title>
<g id="a_node20"><a xlink:title=" ">
<polygon fill="white" stroke="#bfbfbf" points="1388,-185 1388,-204 1435,-204 1435,-185 1388,-185"/>
<text text-anchor="middle" x="1411.5" y="-192" font-family="Helvetica,sans-Serif" font-size="10.00">vector</text>
</a>
</g>
</g>
<!-- Node8&#45;&gt;Node20 -->
<g id="edge23" class="edge">
<title>Node8&#45;&gt;Node20</title>
<path fill="none" stroke="midnightblue" d="M1305.7,-251.87C1326.3,-240.89 1362.09,-221.82 1386.28,-208.94"/>
<polygon fill="midnightblue" stroke="midnightblue" points="1388.05,-211.96 1395.23,-204.17 1384.76,-205.78 1388.05,-211.96"/>
</g>
<!-- Node10 -->
<g id="node10" class="node">
<title>Node10</title>
<g id="a_node10"><a xlink:href="BoomerangAPI_8h.html" target="_top" xlink:title=" ">
<polygon fill="white" stroke="black" points="639,-56.5 639,-86.5 794,-86.5 794,-56.5 639,-56.5"/>
<text text-anchor="start" x="647" y="-74.5" font-family="Helvetica,sans-Serif" font-size="10.00">boomerang/core/Boomerang</text>
<text text-anchor="middle" x="716.5" y="-63.5" font-family="Helvetica,sans-Serif" font-size="10.00">API.h</text>
</a>
</g>
</g>
<!-- Node9&#45;&gt;Node10 -->
<g id="edge9" class="edge">
<title>Node9&#45;&gt;Node10</title>
<path fill="none" stroke="midnightblue" d="M777.83,-184.85C768.6,-175.28 754.05,-159.08 744.5,-143 735.82,-128.38 728.77,-110.58 723.92,-96.52"/>
<polygon fill="midnightblue" stroke="midnightblue" points="727.11,-95.01 720.65,-86.62 720.46,-97.21 727.11,-95.01"/>
</g>
<!-- Node9&#45;&gt;Node11 -->
<g id="edge10" class="edge">
<title>Node9&#45;&gt;Node11</title>
<path fill="none" stroke="midnightblue" d="M827.19,-184.98C881.66,-173.56 977.61,-153.46 1031.31,-142.21"/>
<polygon fill="midnightblue" stroke="midnightblue" points="1032.07,-145.63 1041.14,-140.15 1030.63,-138.78 1032.07,-145.63"/>
</g>
<!-- Node12&#45;&gt;Node10 -->
<g id="edge12" class="edge">
<title>Node12&#45;&gt;Node10</title>
<path fill="none" stroke="midnightblue" d="M1273.45,-127.47C1167.49,-121.13 977.19,-108.1 804.29,-87.03"/>
<polygon fill="midnightblue" stroke="midnightblue" points="804.59,-83.54 794.24,-85.79 803.74,-90.48 804.59,-83.54"/>
</g>
<!-- Node13&#45;&gt;Node10 -->
<g id="edge14" class="edge">
<title>Node13&#45;&gt;Node10</title>
<path fill="none" stroke="midnightblue" d="M810.74,-123.48C795.28,-115.12 771.2,-102.09 751.25,-91.3"/>
<polygon fill="midnightblue" stroke="midnightblue" points="752.89,-88.2 742.42,-86.52 749.56,-94.36 752.89,-88.2"/>
</g>
<!-- Node14 -->
<g id="node14" class="node">
<title>Node14</title>
<g id="a_node14"><a xlink:href="Types_8h.html" target="_top" xlink:title=" ">
<polygon fill="white" stroke="black" points="399,-62 399,-81 530,-81 530,-62 399,-62"/>
<text text-anchor="middle" x="464.5" y="-69" font-family="Helvetica,sans-Serif" font-size="10.00">boomerang/util/Types.h</text>
</a>
</g>
</g>
<!-- Node13&#45;&gt;Node14 -->
<g id="edge15" class="edge">
<title>Node13&#45;&gt;Node14</title>
<path fill="none" stroke="midnightblue" d="M774.63,-123.48C709.04,-112.69 596.25,-94.15 526.27,-82.65"/>
<polygon fill="midnightblue" stroke="midnightblue" points="526.7,-79.18 516.27,-81.01 525.57,-86.08 526.7,-79.18"/>
</g>
<!-- Node16 -->
<g id="node16" class="node">
<title>Node16</title>
<g id="a_node16"><a xlink:title=" ">
<polygon fill="white" stroke="#bfbfbf" points="812.5,-62 812.5,-81 858.5,-81 858.5,-62 812.5,-62"/>
<text text-anchor="middle" x="835.5" y="-69" font-family="Helvetica,sans-Serif" font-size="10.00">cstdio</text>
</a>
</g>
</g>
<!-- Node13&#45;&gt;Node16 -->
<g id="edge17" class="edge">
<title>Node13&#45;&gt;Node16</title>
<path fill="none" stroke="midnightblue" d="M827.79,-123.48C829.06,-115.08 831.04,-101.98 832.68,-91.16"/>
<polygon fill="midnightblue" stroke="midnightblue" points="836.18,-91.42 834.21,-81.01 829.26,-90.37 836.18,-91.42"/>
</g>
<!-- Node15 -->
<g id="node15" class="node">
<title>Node15</title>
<g id="a_node15"><a xlink:title=" ">
<polygon fill="white" stroke="#bfbfbf" points="439.5,-0.5 439.5,-19.5 489.5,-19.5 489.5,-0.5 439.5,-0.5"/>
<text text-anchor="middle" x="464.5" y="-7.5" font-family="Helvetica,sans-Serif" font-size="10.00">cstdint</text>
</a>
</g>
</g>
<!-- Node14&#45;&gt;Node15 -->
<g id="edge16" class="edge">
<title>Node14&#45;&gt;Node15</title>
<path fill="none" stroke="midnightblue" d="M464.5,-61.98C464.5,-53.58 464.5,-40.48 464.5,-29.66"/>
<polygon fill="midnightblue" stroke="midnightblue" points="468,-29.51 464.5,-19.51 461,-29.51 468,-29.51"/>
</g>
<!-- Node21&#45;&gt;Node9 -->
<g id="edge25" class="edge">
<title>Node21&#45;&gt;Node9</title>
<path fill="none" stroke="midnightblue" d="M973.82,-251.87C935.46,-240.33 867.37,-219.84 824.7,-207"/>
<polygon fill="midnightblue" stroke="midnightblue" points="825.54,-203.59 814.96,-204.06 823.52,-210.3 825.54,-203.59"/>
</g>
<!-- Node21&#45;&gt;Node11 -->
<g id="edge27" class="edge">
<title>Node21&#45;&gt;Node11</title>
<path fill="none" stroke="midnightblue" d="M1006.07,-251.72C1012.37,-236.55 1026.12,-204.58 1040.5,-179 1045.85,-169.49 1052.53,-159.33 1058.22,-151.08"/>
<polygon fill="midnightblue" stroke="midnightblue" points="1061.22,-152.91 1064.11,-142.71 1055.5,-148.88 1061.22,-152.91"/>
</g>
<!-- Node21&#45;&gt;Node13 -->
<g id="edge26" class="edge">
<title>Node21&#45;&gt;Node13</title>
<path fill="none" stroke="midnightblue" d="M1000.83,-251.75C997.2,-235.16 987.06,-198.98 964.5,-179 945.52,-162.19 920.13,-151.64 896.31,-145.03"/>
<polygon fill="midnightblue" stroke="midnightblue" points="897.14,-141.62 886.58,-142.51 895.39,-148.4 897.14,-141.62"/>
</g>
<!-- Node21&#45;&gt;Node19 -->
<g id="edge28" class="edge">
<title>Node21&#45;&gt;Node19</title>
<path fill="none" stroke="midnightblue" d="M1011,-251.73C1021.01,-241.4 1037.84,-224.04 1050.16,-211.33"/>
<polygon fill="midnightblue" stroke="midnightblue" points="1052.69,-213.74 1057.14,-204.13 1047.67,-208.87 1052.69,-213.74"/>
</g>
<!-- Node22 -->
<g id="node22" class="node">
<title>Node22</title>
<g id="a_node22"><a xlink:title=" ">
<polygon fill="white" stroke="#bfbfbf" points="1099.5,-185 1099.5,-204 1185.5,-204 1185.5,-185 1099.5,-185"/>
<text text-anchor="middle" x="1142.5" y="-192" font-family="Helvetica,sans-Serif" font-size="10.00">unordered_set</text>
</a>
</g>
</g>
<!-- Node21&#45;&gt;Node22 -->
<g id="edge29" class="edge">
<title>Node21&#45;&gt;Node22</title>
<path fill="none" stroke="midnightblue" d="M1021.09,-251.87C1045.04,-240.75 1086.89,-221.32 1114.65,-208.43"/>
<polygon fill="midnightblue" stroke="midnightblue" points="1116.24,-211.55 1123.83,-204.17 1113.29,-205.2 1116.24,-211.55"/>
</g>
<!-- Node25&#45;&gt;Node7 -->
<g id="edge33" class="edge">
<title>Node25&#45;&gt;Node7</title>
<path fill="none" stroke="midnightblue" d="M821.91,-575.72C836.1,-539.17 890.68,-398.59 910.37,-347.88"/>
<polygon fill="midnightblue" stroke="midnightblue" points="913.75,-348.83 914.11,-338.24 907.22,-346.3 913.75,-348.83"/>
</g>
<!-- Node26&#45;&gt;Node4 -->
<g id="edge42" class="edge">
<title>Node26&#45;&gt;Node4</title>
<path fill="none" stroke="midnightblue" d="M350.52,-251.85C331.8,-244.1 307.92,-230.71 296.5,-210 289.85,-197.93 291.16,-191.7 296.5,-179 301.53,-167.05 311.44,-156.69 320.79,-148.93"/>
<polygon fill="midnightblue" stroke="midnightblue" points="322.94,-151.69 328.71,-142.81 318.66,-146.15 322.94,-151.69"/>
</g>
<!-- Node26&#45;&gt;Node9 -->
<g id="edge36" class="edge">
<title>Node26&#45;&gt;Node9</title>
<path fill="none" stroke="midnightblue" d="M430.86,-251.98C494.54,-241.98 603.19,-224.88 696.5,-210 705.24,-208.61 714.46,-207.13 723.54,-205.67"/>
<polygon fill="midnightblue" stroke="midnightblue" points="724.36,-209.08 733.68,-204.04 723.25,-202.17 724.36,-209.08"/>
</g>
<!-- Node26&#45;&gt;Node10 -->
<g id="edge35" class="edge">
<title>Node26&#45;&gt;Node10</title>
<path fill="none" stroke="midnightblue" d="M346.28,-251.94C326.02,-244.44 300.86,-231.34 288.5,-210 268.71,-175.83 276.08,-148.17 306.5,-123 318.78,-112.84 511.81,-92.43 628.57,-80.91"/>
<polygon fill="midnightblue" stroke="midnightblue" points="628.97,-84.39 638.58,-79.93 628.29,-77.42 628.97,-84.39"/>
</g>
<!-- Node26&#45;&gt;Node19 -->
<g id="edge43" class="edge">
<title>Node26&#45;&gt;Node19</title>
<path fill="none" stroke="midnightblue" d="M441.91,-252C459.31,-249.88 478.1,-247.73 495.5,-246 703.54,-225.35 756.7,-232.87 964.5,-210 990.02,-207.19 1019.02,-202.91 1039.38,-199.73"/>
<polygon fill="midnightblue" stroke="midnightblue" points="1040.12,-203.16 1049.45,-198.14 1039.02,-196.25 1040.12,-203.16"/>
</g>
<!-- Node27 -->
<g id="node27" class="node">
<title>Node27</title>
<g id="a_node27"><a xlink:href="Address_8h.html" target="_top" xlink:title=" ">
<polygon fill="white" stroke="black" points="305.5,-185 305.5,-204 447.5,-204 447.5,-185 305.5,-185"/>
<text text-anchor="middle" x="376.5" y="-192" font-family="Helvetica,sans-Serif" font-size="10.00">boomerang/util/Address.h</text>
</a>
</g>
</g>
<!-- Node26&#45;&gt;Node27 -->
<g id="edge37" class="edge">
<title>Node26&#45;&gt;Node27</title>
<path fill="none" stroke="midnightblue" d="M376.5,-251.73C376.5,-242.18 376.5,-226.62 376.5,-214.28"/>
<polygon fill="midnightblue" stroke="midnightblue" points="380,-214.13 376.5,-204.13 373,-214.13 380,-214.13"/>
</g>
<!-- Node27&#45;&gt;Node4 -->
<g id="edge41" class="edge">
<title>Node27&#45;&gt;Node4</title>
<path fill="none" stroke="midnightblue" d="M371.63,-184.98C366.63,-176.23 358.71,-162.37 352.39,-151.31"/>
<polygon fill="midnightblue" stroke="midnightblue" points="355.36,-149.46 347.36,-142.51 349.28,-152.93 355.36,-149.46"/>
</g>
<!-- Node27&#45;&gt;Node10 -->
<g id="edge38" class="edge">
<title>Node27&#45;&gt;Node10</title>
<path fill="none" stroke="midnightblue" d="M399.62,-184.89C435.78,-171.46 507.97,-144.81 569.5,-123 601.24,-111.75 636.96,-99.47 665.25,-89.84"/>
<polygon fill="midnightblue" stroke="midnightblue" points="666.58,-93.08 674.92,-86.54 664.33,-86.45 666.58,-93.08"/>
</g>
<!-- Node27&#45;&gt;Node13 -->
<g id="edge39" class="edge">
<title>Node27&#45;&gt;Node13</title>
<path fill="none" stroke="midnightblue" d="M420.85,-184.99C432.43,-182.89 444.92,-180.75 456.5,-179 554.58,-164.16 667.86,-150.96 742.98,-142.75"/>
<polygon fill="midnightblue" stroke="midnightblue" points="743.75,-146.19 753.32,-141.63 743,-139.23 743.75,-146.19"/>
</g>
<!-- Node27&#45;&gt;Node14 -->
<g id="edge40" class="edge">
<title>Node27&#45;&gt;Node14</title>
<path fill="none" stroke="midnightblue" d="M382.83,-184.8C397.35,-164.83 433.28,-115.42 452.28,-89.3"/>
<polygon fill="midnightblue" stroke="midnightblue" points="455.18,-91.27 458.23,-81.12 449.52,-87.15 455.18,-91.27"/>
</g>
<!-- Node28&#45;&gt;Node9 -->
<g id="edge45" class="edge">
<title>Node28&#45;&gt;Node9</title>
<path fill="none" stroke="midnightblue" d="M757.09,-251.73C762.23,-241.89 770.72,-225.66 777.26,-213.16"/>
<polygon fill="midnightblue" stroke="midnightblue" points="780.45,-214.61 781.99,-204.13 774.25,-211.37 780.45,-214.61"/>
</g>
<!-- Node28&#45;&gt;Node11 -->
<g id="edge51" class="edge">
<title>Node28&#45;&gt;Node11</title>
<path fill="none" stroke="midnightblue" d="M780.21,-251.87C806.09,-243.21 845.31,-228.5 876.5,-210 895.24,-198.88 895.19,-189.11 914.5,-179 951.79,-159.47 998.66,-147.41 1031.24,-140.75"/>
<polygon fill="midnightblue" stroke="midnightblue" points="1032.15,-144.14 1041.29,-138.78 1030.8,-137.27 1032.15,-144.14"/>
</g>
<!-- Node28&#45;&gt;Node18 -->
<g id="edge49" class="edge">
<title>Node28&#45;&gt;Node18</title>
<path fill="none" stroke="midnightblue" d="M783.34,-251.96C815.32,-242.78 866.57,-227.18 909.5,-210 911.09,-209.36 912.71,-208.68 914.33,-207.97"/>
<polygon fill="midnightblue" stroke="midnightblue" points="915.88,-211.11 923.49,-203.74 912.95,-204.76 915.88,-211.11"/>
</g>
<!-- Node28&#45;&gt;Node23 -->
<g id="edge50" class="edge">
<title>Node28&#45;&gt;Node23</title>
<path fill="none" stroke="midnightblue" d="M704.37,-251.97C644.88,-241.14 547.24,-222.39 512.5,-210 511.25,-209.56 509.99,-209.06 508.73,-208.54"/>
<polygon fill="midnightblue" stroke="midnightblue" points="509.82,-205.19 499.28,-204.1 506.84,-211.52 509.82,-205.19"/>
</g>
<!-- Node28&#45;&gt;Node27 -->
<g id="edge46" class="edge">
<title>Node28&#45;&gt;Node27</title>
<path fill="none" stroke="midnightblue" d="M701.67,-251.99C642.68,-242.08 542.5,-225.13 456.5,-210 448.88,-208.66 440.85,-207.23 432.94,-205.8"/>
<polygon fill="midnightblue" stroke="midnightblue" points="433.48,-202.35 423.02,-204.02 432.24,-209.23 433.48,-202.35"/>
</g>
<!-- Node29 -->
<g id="node29" class="node">
<title>Node29</title>
<g id="a_node29"><a xlink:href="MapIterators_8h.html" target="_top" xlink:title=" ">
<polygon fill="white" stroke="black" points="522,-185 522,-204 687,-204 687,-185 522,-185"/>
<text text-anchor="middle" x="604.5" y="-192" font-family="Helvetica,sans-Serif" font-size="10.00">boomerang/util/MapIterators.h</text>
</a>
</g>
</g>
<!-- Node28&#45;&gt;Node29 -->
<g id="edge47" class="edge">
<title>Node28&#45;&gt;Node29</title>
<path fill="none" stroke="midnightblue" d="M732.85,-251.87C707.41,-240.7 662.9,-221.15 633.55,-208.26"/>
<polygon fill="midnightblue" stroke="midnightblue" points="634.8,-204.98 624.23,-204.17 631.98,-211.39 634.8,-204.98"/>
</g>
<!-- Node30 -->
<g id="node30" class="node">
<title>Node30</title>
<g id="a_node30"><a xlink:title=" ">
<polygon fill="white" stroke="#bfbfbf" points="578,-123.5 578,-142.5 631,-142.5 631,-123.5 578,-123.5"/>
<text text-anchor="middle" x="604.5" y="-130.5" font-family="Helvetica,sans-Serif" font-size="10.00">iterator</text>
</a>
</g>
</g>
<!-- Node29&#45;&gt;Node30 -->
<g id="edge48" class="edge">
<title>Node29&#45;&gt;Node30</title>
<path fill="none" stroke="midnightblue" d="M604.5,-184.98C604.5,-176.58 604.5,-163.48 604.5,-152.66"/>
<polygon fill="midnightblue" stroke="midnightblue" points="608,-152.51 604.5,-142.51 601,-152.51 608,-152.51"/>
</g>
<!-- Node31&#45;&gt;Node18 -->
<g id="edge66" class="edge">
<title>Node31&#45;&gt;Node18</title>
<path fill="none" stroke="midnightblue" d="M975.47,-570.39C942.01,-535.64 858.15,-441.59 828.5,-344 824.49,-330.82 823.41,-325.8 828.5,-313 846.48,-267.78 891.03,-229.91 917.9,-210.18"/>
<polygon fill="midnightblue" stroke="midnightblue" points="920.17,-212.86 926.28,-204.2 916.11,-207.17 920.17,-212.86"/>
</g>
<!-- Node32 -->
<g id="node32" class="node">
<title>Node32</title>
<g id="a_node32"><a xlink:href="StatementSet_8h.html" target="_top" xlink:title=" ">
<polygon fill="white" stroke="black" points="1145.5,-514.5 1145.5,-533.5 1237.5,-533.5 1237.5,-514.5 1145.5,-514.5"/>
<text text-anchor="middle" x="1191.5" y="-521.5" font-family="Helvetica,sans-Serif" font-size="10.00">StatementSet.h</text>
</a>
</g>
</g>
<!-- Node31&#45;&gt;Node32 -->
<g id="edge53" class="edge">
<title>Node31&#45;&gt;Node32</title>
<path fill="none" stroke="midnightblue" d="M1037.12,-570.47C1072.42,-560.08 1119.94,-546.08 1152.89,-536.37"/>
<polygon fill="midnightblue" stroke="midnightblue" points="1154.02,-539.69 1162.62,-533.51 1152.04,-532.97 1154.02,-539.69"/>
</g>
<!-- Node32&#45;&gt;Node11 -->
<g id="edge64" class="edge">
<title>Node32&#45;&gt;Node11</title>
<path fill="none" stroke="midnightblue" d="M1237.57,-518.28C1279.49,-512.7 1342.31,-501.09 1392.5,-478 1447.45,-452.72 1501.5,-456.99 1501.5,-396.5 1501.5,-396.5 1501.5,-396.5 1501.5,-260.5 1501.5,-216.3 1482.41,-201.73 1444.5,-179 1416.17,-162.02 1199.69,-143.82 1109.62,-136.89"/>
<polygon fill="midnightblue" stroke="midnightblue" points="1109.77,-133.4 1099.53,-136.13 1109.24,-140.38 1109.77,-133.4"/>
</g>
<!-- Node32&#45;&gt;Node22 -->
<g id="edge65" class="edge">
<title>Node32&#45;&gt;Node22</title>
<path fill="none" stroke="midnightblue" d="M1191.5,-514.41C1191.5,-493.98 1191.5,-440.86 1191.5,-396.5 1191.5,-396.5 1191.5,-396.5 1191.5,-327.5 1191.5,-284.1 1167.93,-237.41 1153.49,-212.87"/>
<polygon fill="midnightblue" stroke="midnightblue" points="1156.31,-210.77 1148.12,-204.05 1150.33,-214.41 1156.31,-210.77"/>
</g>
<!-- Node33 -->
<g id="node33" class="node">
<title>Node33</title>
<g id="a_node33"><a xlink:href="Terminal_8h.html" target="_top" xlink:title=" ">
<polygon fill="white" stroke="black" points="1219.5,-453 1219.5,-472 1383.5,-472 1383.5,-453 1219.5,-453"/>
<text text-anchor="middle" x="1301.5" y="-460" font-family="Helvetica,sans-Serif" font-size="10.00">boomerang/ssl/exp/Terminal.h</text>
</a>
</g>
</g>
<!-- Node32&#45;&gt;Node33 -->
<g id="edge54" class="edge">
<title>Node32&#45;&gt;Node33</title>
<path fill="none" stroke="midnightblue" d="M1207.26,-514.48C1225.48,-504.62 1255.67,-488.29 1276.97,-476.77"/>
<polygon fill="midnightblue" stroke="midnightblue" points="1278.64,-479.85 1285.77,-472.01 1275.31,-473.69 1278.64,-479.85"/>
</g>
<!-- Node34 -->
<g id="node34" class="node">
<title>Node34</title>
<g id="a_node34"><a xlink:href="Assign_8h.html" target="_top" xlink:title=" ">
<polygon fill="white" stroke="black" points="1016,-447.5 1016,-477.5 1163,-477.5 1163,-447.5 1016,-447.5"/>
<text text-anchor="start" x="1024" y="-465.5" font-family="Helvetica,sans-Serif" font-size="10.00">boomerang/ssl/statements</text>
<text text-anchor="middle" x="1089.5" y="-454.5" font-family="Helvetica,sans-Serif" font-size="10.00">/Assign.h</text>
</a>
</g>
</g>
<!-- Node32&#45;&gt;Node34 -->
<g id="edge56" class="edge">
<title>Node32&#45;&gt;Node34</title>
<path fill="none" stroke="midnightblue" d="M1176.89,-514.48C1162.68,-506.19 1140.63,-493.32 1122.23,-482.59"/>
<polygon fill="midnightblue" stroke="midnightblue" points="1123.94,-479.54 1113.54,-477.52 1120.41,-485.58 1123.94,-479.54"/>
</g>
<!-- Node33&#45;&gt;Node8 -->
<g id="edge55" class="edge">
<title>Node33&#45;&gt;Node8</title>
<path fill="none" stroke="midnightblue" d="M1300.98,-452.95C1299.19,-423.16 1293.18,-323.51 1290.64,-281.47"/>
<polygon fill="midnightblue" stroke="midnightblue" points="1294.12,-281.01 1290.03,-271.24 1287.14,-281.44 1294.12,-281.01"/>
</g>
<!-- Node35 -->
<g id="node35" class="node">
<title>Node35</title>
<g id="a_node35"><a xlink:href="Assignment_8h.html" target="_top" xlink:title=" ">
<polygon fill="white" stroke="black" points="1016,-380.5 1016,-410.5 1163,-410.5 1163,-380.5 1016,-380.5"/>
<text text-anchor="start" x="1024" y="-398.5" font-family="Helvetica,sans-Serif" font-size="10.00">boomerang/ssl/statements</text>
<text text-anchor="middle" x="1089.5" y="-387.5" font-family="Helvetica,sans-Serif" font-size="10.00">/Assignment.h</text>
</a>
</g>
</g>
<!-- Node34&#45;&gt;Node35 -->
<g id="edge57" class="edge">
<title>Node34&#45;&gt;Node35</title>
<path fill="none" stroke="midnightblue" d="M1089.5,-447.4C1089.5,-439.64 1089.5,-429.81 1089.5,-420.86"/>
<polygon fill="midnightblue" stroke="midnightblue" points="1093,-420.58 1089.5,-410.58 1086,-420.58 1093,-420.58"/>
</g>
<!-- Node36 -->
<g id="node36" class="node">
<title>Node36</title>
<g id="a_node36"><a xlink:href="TypingStatement_8h.html" target="_top" xlink:title=" ">
<polygon fill="white" stroke="black" points="1016,-313.5 1016,-343.5 1163,-343.5 1163,-313.5 1016,-313.5"/>
<text text-anchor="start" x="1024" y="-331.5" font-family="Helvetica,sans-Serif" font-size="10.00">boomerang/ssl/statements</text>
<text text-anchor="middle" x="1089.5" y="-320.5" font-family="Helvetica,sans-Serif" font-size="10.00">/TypingStatement.h</text>
</a>
</g>
</g>
<!-- Node35&#45;&gt;Node36 -->
<g id="edge58" class="edge">
<title>Node35&#45;&gt;Node36</title>
<path fill="none" stroke="midnightblue" d="M1089.5,-380.4C1089.5,-372.64 1089.5,-362.81 1089.5,-353.86"/>
<polygon fill="midnightblue" stroke="midnightblue" points="1093,-353.58 1089.5,-343.58 1086,-353.58 1093,-353.58"/>
</g>
<!-- Node37 -->
<g id="node37" class="node">
<title>Node37</title>
<g id="a_node37"><a xlink:href="Statement_8h.html" target="_top" xlink:title=" ">
<polygon fill="white" stroke="black" points="505,-246.5 505,-276.5 652,-276.5 652,-246.5 505,-246.5"/>
<text text-anchor="start" x="513" y="-264.5" font-family="Helvetica,sans-Serif" font-size="10.00">boomerang/ssl/statements</text>
<text text-anchor="middle" x="578.5" y="-253.5" font-family="Helvetica,sans-Serif" font-size="10.00">/Statement.h</text>
</a>
</g>
</g>
<!-- Node36&#45;&gt;Node37 -->
<g id="edge59" class="edge">
<title>Node36&#45;&gt;Node37</title>
<path fill="none" stroke="midnightblue" d="M1015.78,-314.35C1012.64,-313.88 1009.54,-313.42 1006.5,-313 857.09,-292.18 815.94,-298.01 662.5,-277.07"/>
<polygon fill="midnightblue" stroke="midnightblue" points="662.61,-273.55 652.22,-275.65 661.65,-280.49 662.61,-273.55"/>
</g>
<!-- Node37&#45;&gt;Node9 -->
<g id="edge60" class="edge">
<title>Node37&#45;&gt;Node9</title>
<path fill="none" stroke="midnightblue" d="M623.38,-246.48C660.99,-234.72 714.04,-218.14 749.31,-207.12"/>
<polygon fill="midnightblue" stroke="midnightblue" points="750.71,-210.35 759.21,-204.03 748.62,-203.67 750.71,-210.35"/>
</g>
<!-- Node37&#45;&gt;Node18 -->
<g id="edge62" class="edge">
<title>Node37&#45;&gt;Node18</title>
<path fill="none" stroke="midnightblue" d="M652.26,-247.59C655.38,-247.05 658.47,-246.52 661.5,-246 757,-229.66 781.47,-228.87 876.5,-210 888.6,-207.6 901.92,-204.59 913.18,-201.93"/>
<polygon fill="midnightblue" stroke="midnightblue" points="914.33,-205.25 923.24,-199.53 912.7,-198.45 914.33,-205.25"/>
</g>
<!-- Node37&#45;&gt;Node23 -->
<g id="edge63" class="edge">
<title>Node37&#45;&gt;Node23</title>
<path fill="none" stroke="midnightblue" d="M558.1,-246.4C542.49,-235.6 521.02,-220.76 505.31,-209.89"/>
<polygon fill="midnightblue" stroke="midnightblue" points="507.02,-206.82 496.8,-204.01 503.04,-212.57 507.02,-206.82"/>
</g>
<!-- Node37&#45;&gt;Node27 -->
<g id="edge61" class="edge">
<title>Node37&#45;&gt;Node27</title>
<path fill="none" stroke="midnightblue" d="M534.67,-246.4C498.13,-234.64 446.7,-218.09 412.52,-207.09"/>
<polygon fill="midnightblue" stroke="midnightblue" points="413.53,-203.74 402.94,-204.01 411.38,-210.4 413.53,-203.74"/>
</g>
<!-- Node39 -->
<g id="node39" class="node">
<title>Node39</title>
<g id="a_node39"><a xlink:href="ExpModifier_8h.html" target="_top" xlink:title=" ">
<polygon fill="white" stroke="black" points="1529.5,-179.5 1529.5,-209.5 1697.5,-209.5 1697.5,-179.5 1529.5,-179.5"/>
<text text-anchor="start" x="1537.5" y="-197.5" font-family="Helvetica,sans-Serif" font-size="10.00">boomerang/visitor/expmodifier</text>
<text text-anchor="middle" x="1613.5" y="-186.5" font-family="Helvetica,sans-Serif" font-size="10.00">/ExpModifier.h</text>
</a>
</g>
</g>
<!-- Node38&#45;&gt;Node39 -->
<g id="edge69" class="edge">
<title>Node38&#45;&gt;Node39</title>
<path fill="none" stroke="midnightblue" d="M1459.29,-570.38C1510.26,-554.07 1576.5,-521.68 1576.5,-463.5 1576.5,-463.5 1576.5,-463.5 1576.5,-327.5 1576.5,-288.42 1591.72,-245.17 1602.64,-219.17"/>
<polygon fill="midnightblue" stroke="midnightblue" points="1605.94,-220.35 1606.71,-209.78 1599.52,-217.56 1605.94,-220.35"/>
</g>
<!-- Node39&#45;&gt;Node10 -->
<g id="edge70" class="edge">
<title>Node39&#45;&gt;Node10</title>
<path fill="none" stroke="midnightblue" d="M1587.83,-179.36C1555.83,-162.52 1498.93,-135.15 1446.5,-123 1170.93,-59.15 1089.87,-117.18 804.47,-87"/>
<polygon fill="midnightblue" stroke="midnightblue" points="804.55,-83.49 794.23,-85.89 803.79,-90.45 804.55,-83.49"/>
</g>
<!-- Node39&#45;&gt;Node11 -->
<g id="edge71" class="edge">
<title>Node39&#45;&gt;Node11</title>
<path fill="none" stroke="midnightblue" d="M1529.34,-180.79C1524.66,-180.16 1520.02,-179.56 1515.5,-179 1366.1,-160.4 1187.76,-144.16 1110,-137.38"/>
<polygon fill="midnightblue" stroke="midnightblue" points="1109.97,-133.86 1099.71,-136.48 1109.37,-140.84 1109.97,-133.86"/>
</g>
<!-- Node41 -->
<g id="node41" class="node">
<title>Node41</title>
<g id="a_node41"><a xlink:href="StmtModifier_8h.html" target="_top" xlink:title=" ">
<polygon fill="white" stroke="black" points="0,-447.5 0,-477.5 173,-477.5 173,-447.5 0,-447.5"/>
<text text-anchor="start" x="8" y="-465.5" font-family="Helvetica,sans-Serif" font-size="10.00">boomerang/visitor/stmtmodifier</text>
<text text-anchor="middle" x="86.5" y="-454.5" font-family="Helvetica,sans-Serif" font-size="10.00">/StmtModifier.h</text>
</a>
</g>
</g>
<!-- Node40&#45;&gt;Node41 -->
<g id="edge73" class="edge">
<title>Node40&#45;&gt;Node41</title>
<path fill="none" stroke="midnightblue" d="M131.82,-637.37C123.48,-605.38 103.08,-527.11 92.73,-487.42"/>
<polygon fill="midnightblue" stroke="midnightblue" points="96.07,-486.33 90.16,-477.54 89.29,-488.1 96.07,-486.33"/>
</g>
<!-- Node41&#45;&gt;Node10 -->
<g id="edge74" class="edge">
<title>Node41&#45;&gt;Node10</title>
<path fill="none" stroke="midnightblue" d="M93.47,-447.24C104.44,-423.44 124.5,-373.86 124.5,-329.5 124.5,-329.5 124.5,-329.5 124.5,-193.5 124.5,-115.79 209.52,-143.41 284.5,-123 347.32,-105.9 521.52,-88.93 628.54,-79.66"/>
<polygon fill="midnightblue" stroke="midnightblue" points="629.02,-83.14 638.69,-78.79 628.42,-76.16 629.02,-83.14"/>
</g>
</g>
</svg>
