<?xml version="1.0" encoding="UTF-8" standalone="no"?>
<!DOCTYPE svg PUBLIC "-//W3C//DTD SVG 1.1//EN"
 "http://www.w3.org/Graphics/SVG/1.1/DTD/svg11.dtd">
<!-- Generated by graphviz version 2.43.0 (0)
 -->
<!-- Title: ImplicitConverter.h Pages: 1 -->
<!--zoomable 84 -->
<svg id="main" version="1.1" xmlns="http://www.w3.org/2000/svg" xmlns:xlink="http://www.w3.org/1999/xlink" xml:space="preserve" onload="init(evt)">
<style type="text/css"><![CDATA[
.edge:hover path { stroke: red; }
.edge:hover polygon { stroke: red; fill: red; }
]]></style>
<script type="text/javascript"><![CDATA[
var edges = document.getElementsByTagName('g');
if (edges && edges.length) {
  for (var i=0;i<edges.length;i++) {
    if (edges[i].id.substr(0,4)=='edge') {
      edges[i].setAttribute('class','edge');
    }
  }
}
]]></script>
        <defs>
                <circle id="rim" cx="0" cy="0" r="7"/>
                <circle id="rim2" cx="0" cy="0" r="3.5"/>
                <g id="zoomPlus">
                        <use xlink:href="#rim" fill="#404040">
                                <set attributeName="fill" to="#808080" begin="zoomplus.mouseover" end="zoomplus.mouseout"/>
                        </use>
                        <path d="M-4,0h8M0,-4v8" fill="none" stroke="white" stroke-width="1.5" pointer-events="none"/>
                </g>
                <g id="zoomMin">
                        <use xlink:href="#rim" fill="#404040">
                                <set attributeName="fill" to="#808080" begin="zoomminus.mouseover" end="zoomminus.mouseout"/>
                        </use>
                        <path d="M-4,0h8" fill="none" stroke="white" stroke-width="1.5" pointer-events="none"/>
                </g>
                <g id="dirArrow">
                        <path fill="none" stroke="white" stroke-width="1.5" d="M0,-3.0v7 M-2.5,-0.5L0,-3.0L2.5,-0.5"/>
                </g>
               <g id="resetDef">
                       <use xlink:href="#rim2" fill="#404040">
                               <set attributeName="fill" to="#808080" begin="reset.mouseover" end="reset.mouseout"/>
                       </use>
               </g>
        </defs>

<script type="text/javascript">
var viewWidth = 1414;
var viewHeight = 84;
var sectionId = 'dynsection-1';
</script>
<script xlink:href="svgpan.js"/>
<svg id="graph" class="graph">
<g id="viewport">
<title>ImplicitConverter.h</title>
<polygon fill="white" stroke="transparent" points="-4,4 -4,-80 1410,-80 1410,4 -4,4"/>
<!-- Node1 -->
<g id="node1" class="node">
<title>Node1</title>
<g id="a_node1"><a xlink:title=" ">
<polygon fill="#bfbfbf" stroke="black" points="650.5,-56.5 650.5,-75.5 760.5,-75.5 760.5,-56.5 650.5,-56.5"/>
<text text-anchor="middle" x="705.5" y="-63.5" font-family="Helvetica,sans-Serif" font-size="10.00">ImplicitConverter.h</text>
</a>
</g>
</g>
<!-- Node2 -->
<g id="node2" class="node">
<title>Node2</title>
<g id="a_node2"><a xlink:href="DataFlow_8cpp.html" target="_top" xlink:title=" ">
<polygon fill="white" stroke="black" points="0,-0.5 0,-19.5 83,-19.5 83,-0.5 0,-0.5"/>
<text text-anchor="middle" x="41.5" y="-7.5" font-family="Helvetica,sans-Serif" font-size="10.00">DataFlow.cpp</text>
</a>
</g>
</g>
<!-- Node1&#45;&gt;Node2 -->
<g id="edge1" class="edge">
<title>Node1&#45;&gt;Node2</title>
<path fill="none" stroke="midnightblue" d="M640.22,-62.38C527.95,-57.4 291.2,-44.76 92.5,-20 89.47,-19.62 86.34,-19.19 83.2,-18.71"/>
<polygon fill="midnightblue" stroke="midnightblue" points="640.22,-65.89 650.37,-62.83 640.53,-58.89 640.22,-65.89"/>
</g>
<!-- Node3 -->
<g id="node3" class="node">
<title>Node3</title>
<g id="a_node3"><a xlink:href="UnusedReturnRemover_8cpp.html" target="_top" xlink:title=" ">
<polygon fill="white" stroke="black" points="101.5,-0.5 101.5,-19.5 251.5,-19.5 251.5,-0.5 101.5,-0.5"/>
<text text-anchor="middle" x="176.5" y="-7.5" font-family="Helvetica,sans-Serif" font-size="10.00">UnusedReturnRemover.cpp</text>
</a>
</g>
</g>
<!-- Node1&#45;&gt;Node3 -->
<g id="edge2" class="edge">
<title>Node1&#45;&gt;Node3</title>
<path fill="none" stroke="midnightblue" d="M640.38,-58.54C553.67,-49.9 395.53,-34.06 260.5,-20 257.58,-19.7 254.61,-19.38 251.6,-19.07"/>
<polygon fill="midnightblue" stroke="midnightblue" points="640.04,-62.02 650.34,-59.53 640.73,-55.06 640.04,-62.02"/>
</g>
<!-- Node4 -->
<g id="node4" class="node">
<title>Node4</title>
<g id="a_node4"><a xlink:href="FinalParameterSearchPass_8cpp.html" target="_top" xlink:title=" ">
<polygon fill="white" stroke="black" points="269.5,-0.5 269.5,-19.5 435.5,-19.5 435.5,-0.5 269.5,-0.5"/>
<text text-anchor="middle" x="352.5" y="-7.5" font-family="Helvetica,sans-Serif" font-size="10.00">FinalParameterSearchPass.cpp</text>
</a>
</g>
</g>
<!-- Node1&#45;&gt;Node4 -->
<g id="edge3" class="edge">
<title>Node1&#45;&gt;Node4</title>
<path fill="none" stroke="midnightblue" d="M640.37,-55.04C573.69,-44.84 471.15,-29.15 408.14,-19.51"/>
<polygon fill="midnightblue" stroke="midnightblue" points="639.93,-58.51 650.34,-56.56 640.99,-51.59 639.93,-58.51"/>
</g>
<!-- Node5 -->
<g id="node5" class="node">
<title>Node5</title>
<g id="a_node5"><a xlink:href="ImplicitPlacementPass_8cpp.html" target="_top" xlink:title=" ">
<polygon fill="white" stroke="black" points="453.5,-0.5 453.5,-19.5 601.5,-19.5 601.5,-0.5 453.5,-0.5"/>
<text text-anchor="middle" x="527.5" y="-7.5" font-family="Helvetica,sans-Serif" font-size="10.00">ImplicitPlacementPass.cpp</text>
</a>
</g>
</g>
<!-- Node1&#45;&gt;Node5 -->
<g id="edge4" class="edge">
<title>Node1&#45;&gt;Node5</title>
<path fill="none" stroke="midnightblue" d="M667.38,-53.44C633.82,-43.26 585.73,-28.66 555.57,-19.52"/>
<polygon fill="midnightblue" stroke="midnightblue" points="666.71,-56.89 677.3,-56.44 668.74,-50.19 666.71,-56.89"/>
</g>
<!-- Node6 -->
<g id="node6" class="node">
<title>Node6</title>
<g id="a_node6"><a xlink:href="UnusedParamRemovalPass_8cpp.html" target="_top" xlink:title=" ">
<polygon fill="white" stroke="black" points="620,-0.5 620,-19.5 791,-19.5 791,-0.5 620,-0.5"/>
<text text-anchor="middle" x="705.5" y="-7.5" font-family="Helvetica,sans-Serif" font-size="10.00">UnusedParamRemovalPass.cpp</text>
</a>
</g>
</g>
<!-- Node1&#45;&gt;Node6 -->
<g id="edge5" class="edge">
<title>Node1&#45;&gt;Node6</title>
<path fill="none" stroke="midnightblue" d="M705.5,-45.8C705.5,-36.91 705.5,-26.78 705.5,-19.75"/>
<polygon fill="midnightblue" stroke="midnightblue" points="702,-46.08 705.5,-56.08 709,-46.08 702,-46.08"/>
</g>
<!-- Node7 -->
<g id="node7" class="node">
<title>Node7</title>
<g id="a_node7"><a xlink:href="ParameterSymbolMapPass_8cpp.html" target="_top" xlink:title=" ">
<polygon fill="white" stroke="black" points="809.5,-0.5 809.5,-19.5 977.5,-19.5 977.5,-0.5 809.5,-0.5"/>
<text text-anchor="middle" x="893.5" y="-7.5" font-family="Helvetica,sans-Serif" font-size="10.00">ParameterSymbolMapPass.cpp</text>
</a>
</g>
</g>
<!-- Node1&#45;&gt;Node7 -->
<g id="edge6" class="edge">
<title>Node1&#45;&gt;Node7</title>
<path fill="none" stroke="midnightblue" d="M745.3,-53.57C780.77,-43.38 831.87,-28.7 863.85,-19.52"/>
<polygon fill="midnightblue" stroke="midnightblue" points="743.93,-50.32 735.29,-56.44 745.87,-57.05 743.93,-50.32"/>
</g>
<!-- Node8 -->
<g id="node8" class="node">
<title>Node8</title>
<g id="a_node8"><a xlink:href="CallStatement_8cpp.html" target="_top" xlink:title=" ">
<polygon fill="white" stroke="black" points="995,-0.5 995,-19.5 1102,-19.5 1102,-0.5 995,-0.5"/>
<text text-anchor="middle" x="1048.5" y="-7.5" font-family="Helvetica,sans-Serif" font-size="10.00">CallStatement.cpp</text>
</a>
</g>
</g>
<!-- Node1&#45;&gt;Node8 -->
<g id="edge7" class="edge">
<title>Node1&#45;&gt;Node8</title>
<path fill="none" stroke="midnightblue" d="M769.98,-54.85C834.99,-44.61 934.17,-29 994.97,-19.43"/>
<polygon fill="midnightblue" stroke="midnightblue" points="769.18,-51.43 759.85,-56.44 770.27,-58.35 769.18,-51.43"/>
</g>
<!-- Node9 -->
<g id="node9" class="node">
<title>Node9</title>
<g id="a_node9"><a xlink:href="ImplicitConverter_8cpp.html" target="_top" xlink:title=" ">
<polygon fill="white" stroke="black" points="1120.5,-0.5 1120.5,-19.5 1242.5,-19.5 1242.5,-0.5 1120.5,-0.5"/>
<text text-anchor="middle" x="1181.5" y="-7.5" font-family="Helvetica,sans-Serif" font-size="10.00">ImplicitConverter.cpp</text>
</a>
</g>
</g>
<!-- Node1&#45;&gt;Node9 -->
<g id="edge8" class="edge">
<title>Node1&#45;&gt;Node9</title>
<path fill="none" stroke="midnightblue" d="M770.65,-58.13C850.89,-49.6 991.3,-34.39 1111.5,-20 1114.42,-19.65 1117.41,-19.29 1120.42,-18.92"/>
<polygon fill="midnightblue" stroke="midnightblue" points="770.27,-54.65 760.7,-59.19 771.01,-61.61 770.27,-54.65"/>
</g>
<!-- Node10 -->
<g id="node10" class="node">
<title>Node10</title>
<g id="a_node10"><a xlink:href="StmtImplicitConverter_8cpp.html" target="_top" xlink:title=" ">
<polygon fill="white" stroke="black" points="1261,-0.5 1261,-19.5 1406,-19.5 1406,-0.5 1261,-0.5"/>
<text text-anchor="middle" x="1333.5" y="-7.5" font-family="Helvetica,sans-Serif" font-size="10.00">StmtImplicitConverter.cpp</text>
</a>
</g>
</g>
<!-- Node1&#45;&gt;Node10 -->
<g id="edge9" class="edge">
<title>Node1&#45;&gt;Node10</title>
<path fill="none" stroke="midnightblue" d="M770.76,-60.2C873.22,-52.52 1078.04,-36.66 1251.5,-20 1254.49,-19.71 1257.55,-19.41 1260.63,-19.1"/>
<polygon fill="midnightblue" stroke="midnightblue" points="770.28,-56.72 760.57,-60.96 770.8,-63.7 770.28,-56.72"/>
</g>
</g>
</svg>
        <g id="navigator" transform="translate(0 0)" fill="#404254">
                <rect fill="#f2f5e9" fill-opacity="0.5" stroke="#606060" stroke-width=".5" x="0" y="0" width="60" height="60"/>
                <use id="zoomplus" xlink:href="#zoomPlus" x="17" y="9" onmousedown="handleZoom(evt,'in')"/>
                <use id="zoomminus" xlink:href="#zoomMin" x="42" y="9" onmousedown="handleZoom(evt,'out')"/>
                <use id="reset" xlink:href="#resetDef" x="30" y="36" onmousedown="handleReset()"/>
                <g id="arrowUp" xlink:href="#dirArrow" transform="translate(30 24)" onmousedown="handlePan(0,-1)">
                  <use xlink:href="#rim" fill="#404040">
                        <set attributeName="fill" to="#808080" begin="arrowUp.mouseover" end="arrowUp.mouseout"/>
                  </use>
                  <path fill="none" stroke="white" stroke-width="1.5" d="M0,-3.0v7 M-2.5,-0.5L0,-3.0L2.5,-0.5"/>
                </g>
                <g id="arrowRight" xlink:href="#dirArrow" transform="rotate(90) translate(36 -43)" onmousedown="handlePan(1,0)">
                  <use xlink:href="#rim" fill="#404040">
                        <set attributeName="fill" to="#808080" begin="arrowRight.mouseover" end="arrowRight.mouseout"/>
                  </use>
                  <path fill="none" stroke="white" stroke-width="1.5" d="M0,-3.0v7 M-2.5,-0.5L0,-3.0L2.5,-0.5"/>
                </g>
                <g id="arrowDown" xlink:href="#dirArrow" transform="rotate(180) translate(-30 -48)" onmousedown="handlePan(0,1)">
                  <use xlink:href="#rim" fill="#404040">
                        <set attributeName="fill" to="#808080" begin="arrowDown.mouseover" end="arrowDown.mouseout"/>
                  </use>
                  <path fill="none" stroke="white" stroke-width="1.5" d="M0,-3.0v7 M-2.5,-0.5L0,-3.0L2.5,-0.5"/>
                </g>
                <g id="arrowLeft" xlink:href="#dirArrow" transform="rotate(270) translate(-36 17)" onmousedown="handlePan(-1,0)">
                  <use xlink:href="#rim" fill="#404040">
                        <set attributeName="fill" to="#808080" begin="arrowLeft.mouseover" end="arrowLeft.mouseout"/>
                  </use>
                  <path fill="none" stroke="white" stroke-width="1.5" d="M0,-3.0v7 M-2.5,-0.5L0,-3.0L2.5,-0.5"/>
                </g>
        </g>
        <svg viewBox="0 0 15 15" width="100%" height="30px" preserveAspectRatio="xMaxYMin meet">
         <g id="arrow_out" transform="scale(0.3 0.3)">
          <a xlink:href="ImplicitConverter_8h__dep__incl_org.svg" target="_base">
           <rect id="button" ry="5" rx="5" y="6" x="6" height="38" width="38"
                fill="#f2f5e9" fill-opacity="0.5" stroke="#606060" stroke-width="1.0"/>
           <path id="arrow"
             d="M 11.500037,31.436501 C 11.940474,20.09759 22.043105,11.32322 32.158766,21.979434 L 37.068811,17.246167 C 37.068811,17.246167 37.088388,32 37.088388,32 L 22.160133,31.978069 C 22.160133,31.978069 26.997745,27.140456 26.997745,27.140456 C 18.528582,18.264221 13.291696,25.230495 11.500037,31.436501 z"
             style="fill:#404040;"/>
          </a>
         </g>
        </svg>
</svg>
