<?xml version="1.0" encoding="UTF-8" standalone="no"?>
<!DOCTYPE svg PUBLIC "-//W3C//DTD SVG 1.1//EN"
 "http://www.w3.org/Graphics/SVG/1.1/DTD/svg11.dtd">
<!-- Generated by graphviz version 2.43.0 (0)
 -->
<!-- Title: Graphical Class Hierarchy Pages: 1 -->
<svg width="196pt" height="66pt"
 viewBox="0.00 0.00 196.00 66.00" xmlns="http://www.w3.org/2000/svg" xmlns:xlink="http://www.w3.org/1999/xlink">
<g id="graph0" class="graph" transform="scale(1 1) rotate(0) translate(4 62)">
<title>Graphical Class Hierarchy</title>
<polygon fill="white" stroke="transparent" points="-4,4 -4,-62 192,-62 192,4 -4,4"/>
<!-- Node153 -->
<g id="node1" class="node">
<title>Node153</title>
<g id="a_node1"><a xlink:title=" ">
<polygon fill="white" stroke="#bfbfbf" points="0,-19.5 0,-38.5 58,-38.5 58,-19.5 0,-19.5"/>
<text text-anchor="middle" x="29" y="-26.5" font-family="Helvetica,sans-Serif" font-size="10.00">ILogSink</text>
</a>
</g>
</g>
<!-- Node0 -->
<g id="node2" class="node">
<title>Node0</title>
<g id="a_node2"><a xlink:href="classConsoleLogSink.html" target="_top" xlink:title="Log sink for logging to stdout.">
<polygon fill="white" stroke="black" points="94,-38.5 94,-57.5 188,-57.5 188,-38.5 94,-38.5"/>
<text text-anchor="middle" x="141" y="-45.5" font-family="Helvetica,sans-Serif" font-size="10.00">ConsoleLogSink</text>
</a>
</g>
</g>
<!-- Node153&#45;&gt;Node0 -->
<g id="edge1" class="edge">
<title>Node153&#45;&gt;Node0</title>
<path fill="none" stroke="midnightblue" d="M68.11,-35.58C76.34,-37 85.13,-38.52 93.63,-39.99"/>
<polygon fill="midnightblue" stroke="midnightblue" points="68.49,-32.1 58.04,-33.84 67.3,-38.99 68.49,-32.1"/>
</g>
<!-- Node155 -->
<g id="node3" class="node">
<title>Node155</title>
<g id="a_node3"><a xlink:href="classFileLogSink.html" target="_top" xlink:title="Log sink for logging to a file.">
<polygon fill="white" stroke="black" points="105.5,-0.5 105.5,-19.5 176.5,-19.5 176.5,-0.5 105.5,-0.5"/>
<text text-anchor="middle" x="141" y="-7.5" font-family="Helvetica,sans-Serif" font-size="10.00">FileLogSink</text>
</a>
</g>
</g>
<!-- Node153&#45;&gt;Node155 -->
<g id="edge2" class="edge">
<title>Node153&#45;&gt;Node155</title>
<path fill="none" stroke="midnightblue" d="M68.26,-22.39C80.3,-20.31 93.53,-18.03 105.32,-15.99"/>
<polygon fill="midnightblue" stroke="midnightblue" points="67.3,-19.01 58.04,-24.16 68.49,-25.9 67.3,-19.01"/>
</g>
</g>
</svg>
