<?xml version="1.0" encoding="UTF-8" standalone="no"?>
<!DOCTYPE svg PUBLIC "-//W3C//DTD SVG 1.1//EN"
 "http://www.w3.org/Graphics/SVG/1.1/DTD/svg11.dtd">
<!-- Generated by graphviz version 2.43.0 (0)
 -->
<!-- Title: InsNameElem.cpp Pages: 1 -->
<svg width="541pt" height="207pt"
 viewBox="0.00 0.00 540.50 207.00" xmlns="http://www.w3.org/2000/svg" xmlns:xlink="http://www.w3.org/1999/xlink">
<g id="graph0" class="graph" transform="scale(1 1) rotate(0) translate(4 203)">
<title>InsNameElem.cpp</title>
<polygon fill="white" stroke="transparent" points="-4,4 -4,-203 536.5,-203 536.5,4 -4,4"/>
<!-- Node1 -->
<g id="node1" class="node">
<title>Node1</title>
<g id="a_node1"><a xlink:title=" ">
<polygon fill="#bfbfbf" stroke="black" points="282,-179.5 282,-198.5 387,-198.5 387,-179.5 282,-179.5"/>
<text text-anchor="middle" x="334.5" y="-186.5" font-family="Helvetica,sans-Serif" font-size="10.00">InsNameElem.cpp</text>
</a>
</g>
</g>
<!-- Node2 -->
<g id="node2" class="node">
<title>Node2</title>
<g id="a_node2"><a xlink:href="InsNameElem_8h.html" target="_top" xlink:title=" ">
<polygon fill="white" stroke="black" points="118.5,-123.5 118.5,-142.5 212.5,-142.5 212.5,-123.5 118.5,-123.5"/>
<text text-anchor="middle" x="165.5" y="-130.5" font-family="Helvetica,sans-Serif" font-size="10.00">InsNameElem.h</text>
</a>
</g>
</g>
<!-- Node1&#45;&gt;Node2 -->
<g id="edge1" class="edge">
<title>Node1&#45;&gt;Node2</title>
<path fill="none" stroke="midnightblue" d="M307.72,-179.44C279.17,-170.32 233.77,-155.81 201.96,-145.65"/>
<polygon fill="midnightblue" stroke="midnightblue" points="202.74,-142.23 192.15,-142.52 200.61,-148.89 202.74,-142.23"/>
</g>
<!-- Node7 -->
<g id="node7" class="node">
<title>Node7</title>
<g id="a_node7"><a xlink:title=" ">
<polygon fill="white" stroke="#bfbfbf" points="221.5,-62 221.5,-81 259.5,-81 259.5,-62 221.5,-62"/>
<text text-anchor="middle" x="240.5" y="-69" font-family="Helvetica,sans-Serif" font-size="10.00">map</text>
</a>
</g>
</g>
<!-- Node1&#45;&gt;Node7 -->
<g id="edge12" class="edge">
<title>Node1&#45;&gt;Node7</title>
<path fill="none" stroke="midnightblue" d="M311.58,-179.44C295.08,-172.15 273.52,-160.11 260.5,-143 249.08,-127.99 244.18,-106.73 242.08,-91.49"/>
<polygon fill="midnightblue" stroke="midnightblue" points="245.52,-90.77 240.95,-81.21 238.56,-91.53 245.52,-90.77"/>
</g>
<!-- Node8 -->
<g id="node8" class="node">
<title>Node8</title>
<g id="a_node8"><a xlink:href="Types_8h.html" target="_top" xlink:title=" ">
<polygon fill="white" stroke="black" points="269,-123.5 269,-142.5 400,-142.5 400,-123.5 269,-123.5"/>
<text text-anchor="middle" x="334.5" y="-130.5" font-family="Helvetica,sans-Serif" font-size="10.00">boomerang/util/Types.h</text>
</a>
</g>
</g>
<!-- Node1&#45;&gt;Node8 -->
<g id="edge9" class="edge">
<title>Node1&#45;&gt;Node8</title>
<path fill="none" stroke="midnightblue" d="M334.5,-179.08C334.5,-172.01 334.5,-161.86 334.5,-152.99"/>
<polygon fill="midnightblue" stroke="midnightblue" points="338,-152.75 334.5,-142.75 331,-152.75 338,-152.75"/>
</g>
<!-- Node10 -->
<g id="node10" class="node">
<title>Node10</title>
<g id="a_node10"><a xlink:title=" ">
<polygon fill="white" stroke="#bfbfbf" points="418.5,-123.5 418.5,-142.5 470.5,-142.5 470.5,-123.5 418.5,-123.5"/>
<text text-anchor="middle" x="444.5" y="-130.5" font-family="Helvetica,sans-Serif" font-size="10.00">cassert</text>
</a>
</g>
</g>
<!-- Node1&#45;&gt;Node10 -->
<g id="edge11" class="edge">
<title>Node1&#45;&gt;Node10</title>
<path fill="none" stroke="midnightblue" d="M352.17,-179.32C369.89,-170.62 397.4,-157.12 417.79,-147.11"/>
<polygon fill="midnightblue" stroke="midnightblue" points="419.44,-150.2 426.87,-142.65 416.35,-143.92 419.44,-150.2"/>
</g>
<!-- Node11 -->
<g id="node11" class="node">
<title>Node11</title>
<g id="a_node11"><a xlink:title=" ">
<polygon fill="white" stroke="#bfbfbf" points="488.5,-123.5 488.5,-142.5 532.5,-142.5 532.5,-123.5 488.5,-123.5"/>
<text text-anchor="middle" x="510.5" y="-130.5" font-family="Helvetica,sans-Serif" font-size="10.00">string</text>
</a>
</g>
</g>
<!-- Node1&#45;&gt;Node11 -->
<g id="edge13" class="edge">
<title>Node1&#45;&gt;Node11</title>
<path fill="none" stroke="midnightblue" d="M362.39,-179.44C394.01,-169.74 445.47,-153.95 478.65,-143.77"/>
<polygon fill="midnightblue" stroke="midnightblue" points="479.78,-147.09 488.32,-140.81 477.73,-140.39 479.78,-147.09"/>
</g>
<!-- Node3 -->
<g id="node3" class="node">
<title>Node3</title>
<g id="a_node3"><a xlink:href="Table_8h.html" target="_top" xlink:title=" ">
<polygon fill="white" stroke="black" points="43.5,-56.5 43.5,-86.5 165.5,-86.5 165.5,-56.5 43.5,-56.5"/>
<text text-anchor="start" x="51.5" y="-74.5" font-family="Helvetica,sans-Serif" font-size="10.00">boomerang/ssl/parser</text>
<text text-anchor="middle" x="104.5" y="-63.5" font-family="Helvetica,sans-Serif" font-size="10.00">/Table.h</text>
</a>
</g>
</g>
<!-- Node2&#45;&gt;Node3 -->
<g id="edge2" class="edge">
<title>Node2&#45;&gt;Node3</title>
<path fill="none" stroke="midnightblue" d="M156.76,-123.48C148.81,-115.72 136.74,-103.94 126.2,-93.66"/>
<polygon fill="midnightblue" stroke="midnightblue" points="128.48,-91 118.88,-86.52 123.59,-96.01 128.48,-91"/>
</g>
<!-- Node4 -->
<g id="node4" class="node">
<title>Node4</title>
<g id="a_node4"><a xlink:title=" ">
<polygon fill="white" stroke="#bfbfbf" points="0,-0.5 0,-19.5 53,-19.5 53,-0.5 0,-0.5"/>
<text text-anchor="middle" x="26.5" y="-7.5" font-family="Helvetica,sans-Serif" font-size="10.00">QString</text>
</a>
</g>
</g>
<!-- Node2&#45;&gt;Node4 -->
<g id="edge6" class="edge">
<title>Node2&#45;&gt;Node4</title>
<path fill="none" stroke="midnightblue" d="M118.28,-128.26C89.52,-123.36 54.57,-112.21 34.5,-87 21.74,-70.98 21.46,-46.64 23.25,-29.85"/>
<polygon fill="midnightblue" stroke="midnightblue" points="26.76,-30.01 24.69,-19.62 19.83,-29.03 26.76,-30.01"/>
</g>
<!-- Node6 -->
<g id="node6" class="node">
<title>Node6</title>
<g id="a_node6"><a xlink:title=" ">
<polygon fill="white" stroke="#bfbfbf" points="155.5,-0.5 155.5,-19.5 213.5,-19.5 213.5,-0.5 155.5,-0.5"/>
<text text-anchor="middle" x="184.5" y="-7.5" font-family="Helvetica,sans-Serif" font-size="10.00">memory</text>
</a>
</g>
</g>
<!-- Node2&#45;&gt;Node6 -->
<g id="edge8" class="edge">
<title>Node2&#45;&gt;Node6</title>
<path fill="none" stroke="midnightblue" d="M167.4,-123.4C169.35,-114.37 172.39,-99.73 174.5,-87 177.69,-67.75 180.5,-45.62 182.33,-30.22"/>
<polygon fill="midnightblue" stroke="midnightblue" points="185.85,-30.26 183.52,-19.92 178.9,-29.45 185.85,-30.26"/>
</g>
<!-- Node2&#45;&gt;Node7 -->
<g id="edge7" class="edge">
<title>Node2&#45;&gt;Node7</title>
<path fill="none" stroke="midnightblue" d="M176.25,-123.48C188.05,-114.11 207.24,-98.88 221.58,-87.51"/>
<polygon fill="midnightblue" stroke="midnightblue" points="224.12,-89.97 229.77,-81.01 219.76,-84.48 224.12,-89.97"/>
</g>
<!-- Node3&#45;&gt;Node4 -->
<g id="edge3" class="edge">
<title>Node3&#45;&gt;Node4</title>
<path fill="none" stroke="midnightblue" d="M86.02,-56.4C73.98,-47.22 58.3,-35.26 46.06,-25.92"/>
<polygon fill="midnightblue" stroke="midnightblue" points="47.92,-22.94 37.85,-19.66 43.68,-28.51 47.92,-22.94"/>
</g>
<!-- Node5 -->
<g id="node5" class="node">
<title>Node5</title>
<g id="a_node5"><a xlink:title=" ">
<polygon fill="white" stroke="#bfbfbf" points="81,-0.5 81,-19.5 128,-19.5 128,-0.5 81,-0.5"/>
<text text-anchor="middle" x="104.5" y="-7.5" font-family="Helvetica,sans-Serif" font-size="10.00">deque</text>
</a>
</g>
</g>
<!-- Node3&#45;&gt;Node5 -->
<g id="edge4" class="edge">
<title>Node3&#45;&gt;Node5</title>
<path fill="none" stroke="midnightblue" d="M104.5,-56.4C104.5,-48.47 104.5,-38.46 104.5,-29.86"/>
<polygon fill="midnightblue" stroke="midnightblue" points="108,-29.66 104.5,-19.66 101,-29.66 108,-29.66"/>
</g>
<!-- Node3&#45;&gt;Node6 -->
<g id="edge5" class="edge">
<title>Node3&#45;&gt;Node6</title>
<path fill="none" stroke="midnightblue" d="M123.46,-56.4C135.92,-47.13 152.2,-35.03 164.81,-25.65"/>
<polygon fill="midnightblue" stroke="midnightblue" points="166.92,-28.43 172.86,-19.66 162.75,-22.82 166.92,-28.43"/>
</g>
<!-- Node9 -->
<g id="node9" class="node">
<title>Node9</title>
<g id="a_node9"><a xlink:title=" ">
<polygon fill="white" stroke="#bfbfbf" points="309.5,-62 309.5,-81 359.5,-81 359.5,-62 309.5,-62"/>
<text text-anchor="middle" x="334.5" y="-69" font-family="Helvetica,sans-Serif" font-size="10.00">cstdint</text>
</a>
</g>
</g>
<!-- Node8&#45;&gt;Node9 -->
<g id="edge10" class="edge">
<title>Node8&#45;&gt;Node9</title>
<path fill="none" stroke="midnightblue" d="M334.5,-123.48C334.5,-115.08 334.5,-101.98 334.5,-91.16"/>
<polygon fill="midnightblue" stroke="midnightblue" points="338,-91.01 334.5,-81.01 331,-91.01 338,-91.01"/>
</g>
</g>
</svg>
