<?xml version="1.0" encoding="UTF-8" standalone="no"?>
<!DOCTYPE svg PUBLIC "-//W3C//DTD SVG 1.1//EN"
 "http://www.w3.org/Graphics/SVG/1.1/DTD/svg11.dtd">
<!-- Generated by graphviz version 2.43.0 (0)
 -->
<!-- Title: IntegerType.h Pages: 1 -->
<!--zoomable 84 -->
<svg id="main" version="1.1" xmlns="http://www.w3.org/2000/svg" xmlns:xlink="http://www.w3.org/1999/xlink" xml:space="preserve" onload="init(evt)">
<style type="text/css"><![CDATA[
.edge:hover path { stroke: red; }
.edge:hover polygon { stroke: red; fill: red; }
]]></style>
<script type="text/javascript"><![CDATA[
var edges = document.getElementsByTagName('g');
if (edges && edges.length) {
  for (var i=0;i<edges.length;i++) {
    if (edges[i].id.substr(0,4)=='edge') {
      edges[i].setAttribute('class','edge');
    }
  }
}
]]></script>
        <defs>
                <circle id="rim" cx="0" cy="0" r="7"/>
                <circle id="rim2" cx="0" cy="0" r="3.5"/>
                <g id="zoomPlus">
                        <use xlink:href="#rim" fill="#404040">
                                <set attributeName="fill" to="#808080" begin="zoomplus.mouseover" end="zoomplus.mouseout"/>
                        </use>
                        <path d="M-4,0h8M0,-4v8" fill="none" stroke="white" stroke-width="1.5" pointer-events="none"/>
                </g>
                <g id="zoomMin">
                        <use xlink:href="#rim" fill="#404040">
                                <set attributeName="fill" to="#808080" begin="zoomminus.mouseover" end="zoomminus.mouseout"/>
                        </use>
                        <path d="M-4,0h8" fill="none" stroke="white" stroke-width="1.5" pointer-events="none"/>
                </g>
                <g id="dirArrow">
                        <path fill="none" stroke="white" stroke-width="1.5" d="M0,-3.0v7 M-2.5,-0.5L0,-3.0L2.5,-0.5"/>
                </g>
               <g id="resetDef">
                       <use xlink:href="#rim2" fill="#404040">
                               <set attributeName="fill" to="#808080" begin="reset.mouseover" end="reset.mouseout"/>
                       </use>
               </g>
        </defs>

<script type="text/javascript">
var viewWidth = 2724;
var viewHeight = 84;
var sectionId = 'dynsection-1';
</script>
<script xlink:href="svgpan.js"/>
<svg id="graph" class="graph">
<g id="viewport">
<title>IntegerType.h</title>
<polygon fill="white" stroke="transparent" points="-4,4 -4,-80 2719.5,-80 2719.5,4 -4,4"/>
<!-- Node1 -->
<g id="node1" class="node">
<title>Node1</title>
<g id="a_node1"><a xlink:title=" ">
<polygon fill="#bfbfbf" stroke="black" points="1102,-56.5 1102,-75.5 1185,-75.5 1185,-56.5 1102,-56.5"/>
<text text-anchor="middle" x="1143.5" y="-63.5" font-family="Helvetica,sans-Serif" font-size="10.00">IntegerType.h</text>
</a>
</g>
</g>
<!-- Node2 -->
<g id="node2" class="node">
<title>Node2</title>
<g id="a_node2"><a xlink:href="DebugInfo_8cpp.html" target="_top" xlink:title=" ">
<polygon fill="white" stroke="black" points="0,-0.5 0,-19.5 87,-19.5 87,-0.5 0,-0.5"/>
<text text-anchor="middle" x="43.5" y="-7.5" font-family="Helvetica,sans-Serif" font-size="10.00">DebugInfo.cpp</text>
</a>
</g>
</g>
<!-- Node1&#45;&gt;Node2 -->
<g id="edge1" class="edge">
<title>Node1&#45;&gt;Node2</title>
<path fill="none" stroke="midnightblue" d="M1091.94,-65.07C939.41,-64.77 477.19,-60.34 96.5,-20 93.44,-19.68 90.28,-19.28 87.11,-18.85"/>
<polygon fill="midnightblue" stroke="midnightblue" points="1091.96,-68.57 1101.96,-65.08 1091.97,-61.57 1091.96,-68.57"/>
</g>
<!-- Node3 -->
<g id="node3" class="node">
<title>Node3</title>
<g id="a_node3"><a xlink:href="Global_8cpp.html" target="_top" xlink:title=" ">
<polygon fill="white" stroke="black" points="105.5,-0.5 105.5,-19.5 173.5,-19.5 173.5,-0.5 105.5,-0.5"/>
<text text-anchor="middle" x="139.5" y="-7.5" font-family="Helvetica,sans-Serif" font-size="10.00">Global.cpp</text>
</a>
</g>
</g>
<!-- Node1&#45;&gt;Node3 -->
<g id="edge2" class="edge">
<title>Node1&#45;&gt;Node3</title>
<path fill="none" stroke="midnightblue" d="M1091.25,-65.47C946.32,-66.15 527.2,-63.86 182.5,-20 179.62,-19.63 176.66,-19.18 173.68,-18.67"/>
<polygon fill="midnightblue" stroke="midnightblue" points="1091.63,-68.97 1101.61,-65.42 1091.59,-61.97 1091.63,-68.97"/>
</g>
<!-- Node4 -->
<g id="node4" class="node">
<title>Node4</title>
<g id="a_node4"><a xlink:href="UserProc_8cpp.html" target="_top" xlink:title=" ">
<polygon fill="white" stroke="black" points="191.5,-0.5 191.5,-19.5 271.5,-19.5 271.5,-0.5 191.5,-0.5"/>
<text text-anchor="middle" x="231.5" y="-7.5" font-family="Helvetica,sans-Serif" font-size="10.00">UserProc.cpp</text>
</a>
</g>
</g>
<!-- Node1&#45;&gt;Node4 -->
<g id="edge3" class="edge">
<title>Node1&#45;&gt;Node4</title>
<path fill="none" stroke="midnightblue" d="M1091.55,-64.63C957.05,-63.17 586.56,-55.93 280.5,-20 277.58,-19.66 274.57,-19.25 271.55,-18.79"/>
<polygon fill="midnightblue" stroke="midnightblue" points="1091.54,-68.13 1101.58,-64.73 1091.61,-61.13 1091.54,-68.13"/>
</g>
<!-- Node5 -->
<g id="node5" class="node">
<title>Node5</title>
<g id="a_node5"><a xlink:href="Prog_8cpp.html" target="_top" xlink:title=" ">
<polygon fill="white" stroke="black" points="290,-0.5 290,-19.5 349,-19.5 349,-0.5 290,-0.5"/>
<text text-anchor="middle" x="319.5" y="-7.5" font-family="Helvetica,sans-Serif" font-size="10.00">Prog.cpp</text>
</a>
</g>
</g>
<!-- Node1&#45;&gt;Node5 -->
<g id="edge4" class="edge">
<title>Node1&#45;&gt;Node5</title>
<path fill="none" stroke="midnightblue" d="M1091.76,-65.16C965.56,-64.88 632.11,-60.06 357.5,-20 354.82,-19.61 352.04,-19.12 349.28,-18.57"/>
<polygon fill="midnightblue" stroke="midnightblue" points="1091.91,-68.66 1101.91,-65.18 1091.91,-61.66 1091.91,-68.66"/>
</g>
<!-- Node6 -->
<g id="node6" class="node">
<title>Node6</title>
<g id="a_node6"><a xlink:href="Binary_8cpp.html" target="_top" xlink:title=" ">
<polygon fill="white" stroke="black" points="367,-0.5 367,-19.5 434,-19.5 434,-0.5 367,-0.5"/>
<text text-anchor="middle" x="400.5" y="-7.5" font-family="Helvetica,sans-Serif" font-size="10.00">Binary.cpp</text>
</a>
</g>
</g>
<!-- Node1&#45;&gt;Node6 -->
<g id="edge5" class="edge">
<title>Node1&#45;&gt;Node6</title>
<path fill="none" stroke="midnightblue" d="M1091.74,-64.28C975.24,-62.08 683.76,-53.41 442.5,-20 439.84,-19.63 437.1,-19.19 434.35,-18.7"/>
<polygon fill="midnightblue" stroke="midnightblue" points="1091.74,-67.78 1101.8,-64.46 1091.87,-60.78 1091.74,-67.78"/>
</g>
<!-- Node7 -->
<g id="node7" class="node">
<title>Node7</title>
<g id="a_node7"><a xlink:href="Const_8cpp.html" target="_top" xlink:title=" ">
<polygon fill="white" stroke="black" points="452,-0.5 452,-19.5 517,-19.5 517,-0.5 452,-0.5"/>
<text text-anchor="middle" x="484.5" y="-7.5" font-family="Helvetica,sans-Serif" font-size="10.00">Const.cpp</text>
</a>
</g>
</g>
<!-- Node1&#45;&gt;Node7 -->
<g id="edge6" class="edge">
<title>Node1&#45;&gt;Node7</title>
<path fill="none" stroke="midnightblue" d="M1091.52,-63.73C984.88,-60.57 733.87,-50.3 525.5,-20 522.76,-19.6 519.93,-19.12 517.1,-18.6"/>
<polygon fill="midnightblue" stroke="midnightblue" points="1091.59,-67.23 1101.68,-64.02 1091.79,-60.24 1091.59,-67.23"/>
</g>
<!-- Node8 -->
<g id="node8" class="node">
<title>Node8</title>
<g id="a_node8"><a xlink:href="Terminal_8cpp.html" target="_top" xlink:title=" ">
<polygon fill="white" stroke="black" points="535,-0.5 535,-19.5 614,-19.5 614,-0.5 535,-0.5"/>
<text text-anchor="middle" x="574.5" y="-7.5" font-family="Helvetica,sans-Serif" font-size="10.00">Terminal.cpp</text>
</a>
</g>
</g>
<!-- Node1&#45;&gt;Node8 -->
<g id="edge7" class="edge">
<title>Node1&#45;&gt;Node8</title>
<path fill="none" stroke="midnightblue" d="M1091.73,-62.23C997.88,-56.84 793.52,-43.36 622.5,-20 619.73,-19.62 616.87,-19.19 614,-18.73"/>
<polygon fill="midnightblue" stroke="midnightblue" points="1091.63,-65.73 1101.81,-62.81 1092.03,-58.75 1091.63,-65.73"/>
</g>
<!-- Node9 -->
<g id="node9" class="node">
<title>Node9</title>
<g id="a_node9"><a xlink:href="Ternary_8cpp.html" target="_top" xlink:title=" ">
<polygon fill="white" stroke="black" points="632,-0.5 632,-19.5 703,-19.5 703,-0.5 632,-0.5"/>
<text text-anchor="middle" x="667.5" y="-7.5" font-family="Helvetica,sans-Serif" font-size="10.00">Ternary.cpp</text>
</a>
</g>
</g>
<!-- Node1&#45;&gt;Node9 -->
<g id="edge8" class="edge">
<title>Node1&#45;&gt;Node9</title>
<path fill="none" stroke="midnightblue" d="M1091.46,-61.24C1010.09,-54.98 847.91,-41 711.5,-20 708.88,-19.6 706.18,-19.14 703.47,-18.66"/>
<polygon fill="midnightblue" stroke="midnightblue" points="1091.69,-64.76 1101.93,-62.03 1092.22,-57.78 1091.69,-64.76"/>
</g>
<!-- Node10 -->
<g id="node10" class="node">
<title>Node10</title>
<g id="a_node10"><a xlink:href="Unary_8cpp.html" target="_top" xlink:title=" ">
<polygon fill="white" stroke="black" points="721,-0.5 721,-19.5 786,-19.5 786,-0.5 721,-0.5"/>
<text text-anchor="middle" x="753.5" y="-7.5" font-family="Helvetica,sans-Serif" font-size="10.00">Unary.cpp</text>
</a>
</g>
</g>
<!-- Node1&#45;&gt;Node10 -->
<g id="edge9" class="edge">
<title>Node1&#45;&gt;Node10</title>
<path fill="none" stroke="midnightblue" d="M1091.89,-59.78C1023.59,-52.54 899.55,-38.27 794.5,-20 791.77,-19.53 788.95,-18.99 786.12,-18.43"/>
<polygon fill="midnightblue" stroke="midnightblue" points="1091.64,-63.27 1101.96,-60.84 1092.38,-56.31 1091.64,-63.27"/>
</g>
<!-- Node11 -->
<g id="node11" class="node">
<title>Node11</title>
<g id="a_node11"><a xlink:href="SSL2Parser_8cpp.html" target="_top" xlink:title=" ">
<polygon fill="white" stroke="black" points="804,-0.5 804,-19.5 895,-19.5 895,-0.5 804,-0.5"/>
<text text-anchor="middle" x="849.5" y="-7.5" font-family="Helvetica,sans-Serif" font-size="10.00">SSL2Parser.cpp</text>
</a>
</g>
</g>
<!-- Node1&#45;&gt;Node11 -->
<g id="edge10" class="edge">
<title>Node1&#45;&gt;Node11</title>
<path fill="none" stroke="midnightblue" d="M1091.67,-55.48C1035.94,-45.24 948.2,-29.13 895.03,-19.36"/>
<polygon fill="midnightblue" stroke="midnightblue" points="1091.22,-58.96 1101.69,-57.32 1092.49,-52.07 1091.22,-58.96"/>
</g>
<!-- Node12 -->
<g id="node12" class="node">
<title>Node12</title>
<g id="a_node12"><a xlink:href="RegDB_8cpp.html" target="_top" xlink:title=" ">
<polygon fill="white" stroke="black" points="913.5,-0.5 913.5,-19.5 983.5,-19.5 983.5,-0.5 913.5,-0.5"/>
<text text-anchor="middle" x="948.5" y="-7.5" font-family="Helvetica,sans-Serif" font-size="10.00">RegDB.cpp</text>
</a>
</g>
</g>
<!-- Node1&#45;&gt;Node12 -->
<g id="edge11" class="edge">
<title>Node1&#45;&gt;Node12</title>
<path fill="none" stroke="midnightblue" d="M1102.69,-53.7C1065.89,-43.51 1012.57,-28.74 979.25,-19.52"/>
<polygon fill="midnightblue" stroke="midnightblue" points="1102.03,-57.15 1112.6,-56.44 1103.9,-50.4 1102.03,-57.15"/>
</g>
<!-- Node13 -->
<g id="node13" class="node">
<title>Node13</title>
<g id="a_node13"><a xlink:href="Register_8cpp.html" target="_top" xlink:title=" ">
<polygon fill="white" stroke="black" points="1002,-0.5 1002,-19.5 1079,-19.5 1079,-0.5 1002,-0.5"/>
<text text-anchor="middle" x="1040.5" y="-7.5" font-family="Helvetica,sans-Serif" font-size="10.00">Register.cpp</text>
</a>
</g>
</g>
<!-- Node1&#45;&gt;Node13 -->
<g id="edge12" class="edge">
<title>Node1&#45;&gt;Node13</title>
<path fill="none" stroke="midnightblue" d="M1117.92,-51.59C1098.88,-41.61 1073.44,-28.27 1057.01,-19.65"/>
<polygon fill="midnightblue" stroke="midnightblue" points="1116.47,-54.78 1126.95,-56.32 1119.72,-48.58 1116.47,-54.78"/>
</g>
<!-- Node14 -->
<g id="node14" class="node">
<title>Node14</title>
<g id="a_node14"><a xlink:href="RTLInstDict_8cpp.html" target="_top" xlink:title=" ">
<polygon fill="white" stroke="black" points="1097.5,-0.5 1097.5,-19.5 1189.5,-19.5 1189.5,-0.5 1097.5,-0.5"/>
<text text-anchor="middle" x="1143.5" y="-7.5" font-family="Helvetica,sans-Serif" font-size="10.00">RTLInstDict.cpp</text>
</a>
</g>
</g>
<!-- Node1&#45;&gt;Node14 -->
<g id="edge13" class="edge">
<title>Node1&#45;&gt;Node14</title>
<path fill="none" stroke="midnightblue" d="M1143.5,-45.8C1143.5,-36.91 1143.5,-26.78 1143.5,-19.75"/>
<polygon fill="midnightblue" stroke="midnightblue" points="1140,-46.08 1143.5,-56.08 1147,-46.08 1140,-46.08"/>
</g>
<!-- Node15 -->
<g id="node15" class="node">
<title>Node15</title>
<g id="a_node15"><a xlink:href="BranchStatement_8cpp.html" target="_top" xlink:title=" ">
<polygon fill="white" stroke="black" points="1207.5,-0.5 1207.5,-19.5 1329.5,-19.5 1329.5,-0.5 1207.5,-0.5"/>
<text text-anchor="middle" x="1268.5" y="-7.5" font-family="Helvetica,sans-Serif" font-size="10.00">BranchStatement.cpp</text>
</a>
</g>
</g>
<!-- Node1&#45;&gt;Node15 -->
<g id="edge14" class="edge">
<title>Node1&#45;&gt;Node15</title>
<path fill="none" stroke="midnightblue" d="M1172.74,-52.37C1196.15,-42.26 1228.34,-28.35 1248.79,-19.52"/>
<polygon fill="midnightblue" stroke="midnightblue" points="1171.1,-49.26 1163.31,-56.44 1173.87,-55.69 1171.1,-49.26"/>
</g>
<!-- Node16 -->
<g id="node16" class="node">
<title>Node16</title>
<g id="a_node16"><a xlink:href="CallStatement_8cpp.html" target="_top" xlink:title=" ">
<polygon fill="white" stroke="black" points="1348,-0.5 1348,-19.5 1455,-19.5 1455,-0.5 1348,-0.5"/>
<text text-anchor="middle" x="1401.5" y="-7.5" font-family="Helvetica,sans-Serif" font-size="10.00">CallStatement.cpp</text>
</a>
</g>
</g>
<!-- Node1&#45;&gt;Node16 -->
<g id="edge15" class="edge">
<title>Node1&#45;&gt;Node16</title>
<path fill="none" stroke="midnightblue" d="M1194.4,-54.35C1243.16,-44.14 1315.79,-28.94 1360.81,-19.52"/>
<polygon fill="midnightblue" stroke="midnightblue" points="1193.45,-50.97 1184.38,-56.44 1194.89,-57.82 1193.45,-50.97"/>
</g>
<!-- Node17 -->
<g id="node17" class="node">
<title>Node17</title>
<g id="a_node17"><a xlink:href="IntegerType_8cpp.html" target="_top" xlink:title=" ">
<polygon fill="white" stroke="black" points="1473.5,-0.5 1473.5,-19.5 1567.5,-19.5 1567.5,-0.5 1473.5,-0.5"/>
<text text-anchor="middle" x="1520.5" y="-7.5" font-family="Helvetica,sans-Serif" font-size="10.00">IntegerType.cpp</text>
</a>
</g>
</g>
<!-- Node1&#45;&gt;Node17 -->
<g id="edge16" class="edge">
<title>Node1&#45;&gt;Node17</title>
<path fill="none" stroke="midnightblue" d="M1195.24,-58.07C1258.72,-49.5 1369.62,-34.27 1464.5,-20 1467.42,-19.56 1470.43,-19.1 1473.46,-18.63"/>
<polygon fill="midnightblue" stroke="midnightblue" points="1194.53,-54.64 1185.09,-59.44 1195.47,-61.57 1194.53,-54.64"/>
</g>
<!-- Node18 -->
<g id="node18" class="node">
<title>Node18</title>
<g id="a_node18"><a xlink:href="Type_8cpp.html" target="_top" xlink:title=" ">
<polygon fill="white" stroke="black" points="1586,-0.5 1586,-19.5 1645,-19.5 1645,-0.5 1586,-0.5"/>
<text text-anchor="middle" x="1615.5" y="-7.5" font-family="Helvetica,sans-Serif" font-size="10.00">Type.cpp</text>
</a>
</g>
</g>
<!-- Node1&#45;&gt;Node18 -->
<g id="edge17" class="edge">
<title>Node1&#45;&gt;Node18</title>
<path fill="none" stroke="midnightblue" d="M1195.22,-61.69C1276.71,-56.02 1439.77,-42.79 1576.5,-20 1579.52,-19.5 1582.65,-18.9 1585.76,-18.26"/>
<polygon fill="midnightblue" stroke="midnightblue" points="1194.96,-58.2 1185.23,-62.38 1195.44,-65.19 1194.96,-58.2"/>
</g>
<!-- Node19 -->
<g id="node19" class="node">
<title>Node19</title>
<g id="a_node19"><a xlink:href="ExpCastInserter_8cpp.html" target="_top" xlink:title=" ">
<polygon fill="white" stroke="black" points="1663.5,-0.5 1663.5,-19.5 1777.5,-19.5 1777.5,-0.5 1663.5,-0.5"/>
<text text-anchor="middle" x="1720.5" y="-7.5" font-family="Helvetica,sans-Serif" font-size="10.00">ExpCastInserter.cpp</text>
</a>
</g>
</g>
<!-- Node1&#45;&gt;Node19 -->
<g id="edge18" class="edge">
<title>Node1&#45;&gt;Node19</title>
<path fill="none" stroke="midnightblue" d="M1195.51,-61.24C1287.98,-54.38 1487.04,-38.78 1654.5,-20 1657.37,-19.68 1660.31,-19.33 1663.28,-18.97"/>
<polygon fill="midnightblue" stroke="midnightblue" points="1195.01,-57.77 1185.3,-62 1195.53,-64.75 1195.01,-57.77"/>
</g>
<!-- Node20 -->
<g id="node20" class="node">
<title>Node20</title>
<g id="a_node20"><a xlink:href="ExpSimplifier_8cpp.html" target="_top" xlink:title=" ">
<polygon fill="white" stroke="black" points="1795.5,-0.5 1795.5,-19.5 1897.5,-19.5 1897.5,-0.5 1795.5,-0.5"/>
<text text-anchor="middle" x="1846.5" y="-7.5" font-family="Helvetica,sans-Serif" font-size="10.00">ExpSimplifier.cpp</text>
</a>
</g>
</g>
<!-- Node1&#45;&gt;Node20 -->
<g id="edge19" class="edge">
<title>Node1&#45;&gt;Node20</title>
<path fill="none" stroke="midnightblue" d="M1195.47,-62.76C1304.99,-57.73 1567.48,-44.05 1786.5,-20 1789.43,-19.68 1792.44,-19.32 1795.47,-18.93"/>
<polygon fill="midnightblue" stroke="midnightblue" points="1195.18,-59.27 1185.35,-63.22 1195.5,-66.26 1195.18,-59.27"/>
</g>
<!-- Node21 -->
<g id="node21" class="node">
<title>Node21</title>
<g id="a_node21"><a xlink:href="CCodeGenerator_8cpp.html" target="_top" xlink:title=" ">
<polygon fill="white" stroke="black" points="1916,-0.5 1916,-19.5 2033,-19.5 2033,-0.5 1916,-0.5"/>
<text text-anchor="middle" x="1974.5" y="-7.5" font-family="Helvetica,sans-Serif" font-size="10.00">CCodeGenerator.cpp</text>
</a>
</g>
</g>
<!-- Node1&#45;&gt;Node21 -->
<g id="edge20" class="edge">
<title>Node1&#45;&gt;Node21</title>
<path fill="none" stroke="midnightblue" d="M1195.65,-63.23C1319.3,-58.75 1639.85,-45.48 1906.5,-20 1909.58,-19.71 1912.74,-19.38 1915.93,-19.03"/>
<polygon fill="midnightblue" stroke="midnightblue" points="1195.22,-59.75 1185.35,-63.6 1195.47,-66.74 1195.22,-59.75"/>
</g>
<!-- Node22 -->
<g id="node22" class="node">
<title>Node22</title>
<g id="a_node22"><a xlink:href="CapstoneX86Decoder_8cpp.html" target="_top" xlink:title=" ">
<polygon fill="white" stroke="black" points="2051.5,-0.5 2051.5,-19.5 2193.5,-19.5 2193.5,-0.5 2051.5,-0.5"/>
<text text-anchor="middle" x="2122.5" y="-7.5" font-family="Helvetica,sans-Serif" font-size="10.00">CapstoneX86Decoder.cpp</text>
</a>
</g>
</g>
<!-- Node1&#45;&gt;Node22 -->
<g id="edge21" class="edge">
<title>Node1&#45;&gt;Node22</title>
<path fill="none" stroke="midnightblue" d="M1195.51,-63.53C1333.64,-59.36 1721.05,-46.1 2042.5,-20 2045.43,-19.76 2048.41,-19.5 2051.42,-19.23"/>
<polygon fill="midnightblue" stroke="midnightblue" points="1195.12,-60.04 1185.23,-63.83 1195.33,-67.03 1195.12,-60.04"/>
</g>
<!-- Node23 -->
<g id="node23" class="node">
<title>Node23</title>
<g id="a_node23"><a xlink:href="SPARCFrontEnd_8cpp.html" target="_top" xlink:title=" ">
<polygon fill="white" stroke="black" points="2211.5,-0.5 2211.5,-19.5 2323.5,-19.5 2323.5,-0.5 2211.5,-0.5"/>
<text text-anchor="middle" x="2267.5" y="-7.5" font-family="Helvetica,sans-Serif" font-size="10.00">SPARCFrontEnd.cpp</text>
</a>
</g>
</g>
<!-- Node1&#45;&gt;Node23 -->
<g id="edge22" class="edge">
<title>Node1&#45;&gt;Node23</title>
<path fill="none" stroke="midnightblue" d="M1195.59,-64.54C1349.73,-62.8 1816.86,-54.81 2202.5,-20 2205.34,-19.74 2208.24,-19.45 2211.17,-19.13"/>
<polygon fill="midnightblue" stroke="midnightblue" points="1195.43,-61.04 1185.47,-64.65 1195.51,-68.04 1195.43,-61.04"/>
</g>
<!-- Node24 -->
<g id="node24" class="node">
<title>Node24</title>
<g id="a_node24"><a xlink:href="PentiumFrontEnd_8cpp.html" target="_top" xlink:title=" ">
<polygon fill="white" stroke="black" points="2341.5,-0.5 2341.5,-19.5 2461.5,-19.5 2461.5,-0.5 2341.5,-0.5"/>
<text text-anchor="middle" x="2401.5" y="-7.5" font-family="Helvetica,sans-Serif" font-size="10.00">PentiumFrontEnd.cpp</text>
</a>
</g>
</g>
<!-- Node1&#45;&gt;Node24 -->
<g id="edge23" class="edge">
<title>Node1&#45;&gt;Node24</title>
<path fill="none" stroke="midnightblue" d="M1195.59,-64.73C1361.73,-63.52 1893.9,-56.83 2332.5,-20 2335.39,-19.76 2338.34,-19.48 2341.32,-19.18"/>
<polygon fill="midnightblue" stroke="midnightblue" points="1195.16,-61.24 1185.18,-64.81 1195.2,-68.24 1195.16,-61.24"/>
</g>
<!-- Node25 -->
<g id="node25" class="node">
<title>Node25</title>
<g id="a_node25"><a xlink:href="AnsiCParser_8cpp.html" target="_top" xlink:title=" ">
<polygon fill="white" stroke="black" points="2480,-0.5 2480,-19.5 2575,-19.5 2575,-0.5 2480,-0.5"/>
<text text-anchor="middle" x="2527.5" y="-7.5" font-family="Helvetica,sans-Serif" font-size="10.00">AnsiCParser.cpp</text>
</a>
</g>
</g>
<!-- Node1&#45;&gt;Node25 -->
<g id="edge24" class="edge">
<title>Node1&#45;&gt;Node25</title>
<path fill="none" stroke="midnightblue" d="M1195.3,-65.52C1373.24,-66.84 1975.81,-67.26 2470.5,-20 2473.59,-19.7 2476.77,-19.35 2479.97,-18.95"/>
<polygon fill="midnightblue" stroke="midnightblue" points="1195.2,-62.02 1185.17,-65.44 1195.15,-69.02 1195.2,-62.02"/>
</g>
<!-- Node26 -->
<g id="node26" class="node">
<title>Node26</title>
<g id="a_node26"><a xlink:href="DFATypeRecovery_8cpp.html" target="_top" xlink:title=" ">
<polygon fill="white" stroke="black" points="2593.5,-0.5 2593.5,-19.5 2715.5,-19.5 2715.5,-0.5 2593.5,-0.5"/>
<text text-anchor="middle" x="2654.5" y="-7.5" font-family="Helvetica,sans-Serif" font-size="10.00">DFATypeRecovery.cpp</text>
</a>
</g>
</g>
<!-- Node1&#45;&gt;Node26 -->
<g id="edge25" class="edge">
<title>Node1&#45;&gt;Node26</title>
<path fill="none" stroke="midnightblue" d="M1195.25,-65.19C1382.52,-65.49 2042.41,-63.21 2584.5,-20 2587.43,-19.77 2590.43,-19.5 2593.45,-19.2"/>
<polygon fill="midnightblue" stroke="midnightblue" points="1195.15,-61.69 1185.14,-65.17 1195.13,-68.69 1195.15,-61.69"/>
</g>
</g>
</svg>
        <g id="navigator" transform="translate(0 0)" fill="#404254">
                <rect fill="#f2f5e9" fill-opacity="0.5" stroke="#606060" stroke-width=".5" x="0" y="0" width="60" height="60"/>
                <use id="zoomplus" xlink:href="#zoomPlus" x="17" y="9" onmousedown="handleZoom(evt,'in')"/>
                <use id="zoomminus" xlink:href="#zoomMin" x="42" y="9" onmousedown="handleZoom(evt,'out')"/>
                <use id="reset" xlink:href="#resetDef" x="30" y="36" onmousedown="handleReset()"/>
                <g id="arrowUp" xlink:href="#dirArrow" transform="translate(30 24)" onmousedown="handlePan(0,-1)">
                  <use xlink:href="#rim" fill="#404040">
                        <set attributeName="fill" to="#808080" begin="arrowUp.mouseover" end="arrowUp.mouseout"/>
                  </use>
                  <path fill="none" stroke="white" stroke-width="1.5" d="M0,-3.0v7 M-2.5,-0.5L0,-3.0L2.5,-0.5"/>
                </g>
                <g id="arrowRight" xlink:href="#dirArrow" transform="rotate(90) translate(36 -43)" onmousedown="handlePan(1,0)">
                  <use xlink:href="#rim" fill="#404040">
                        <set attributeName="fill" to="#808080" begin="arrowRight.mouseover" end="arrowRight.mouseout"/>
                  </use>
                  <path fill="none" stroke="white" stroke-width="1.5" d="M0,-3.0v7 M-2.5,-0.5L0,-3.0L2.5,-0.5"/>
                </g>
                <g id="arrowDown" xlink:href="#dirArrow" transform="rotate(180) translate(-30 -48)" onmousedown="handlePan(0,1)">
                  <use xlink:href="#rim" fill="#404040">
                        <set attributeName="fill" to="#808080" begin="arrowDown.mouseover" end="arrowDown.mouseout"/>
                  </use>
                  <path fill="none" stroke="white" stroke-width="1.5" d="M0,-3.0v7 M-2.5,-0.5L0,-3.0L2.5,-0.5"/>
                </g>
                <g id="arrowLeft" xlink:href="#dirArrow" transform="rotate(270) translate(-36 17)" onmousedown="handlePan(-1,0)">
                  <use xlink:href="#rim" fill="#404040">
                        <set attributeName="fill" to="#808080" begin="arrowLeft.mouseover" end="arrowLeft.mouseout"/>
                  </use>
                  <path fill="none" stroke="white" stroke-width="1.5" d="M0,-3.0v7 M-2.5,-0.5L0,-3.0L2.5,-0.5"/>
                </g>
        </g>
        <svg viewBox="0 0 15 15" width="100%" height="30px" preserveAspectRatio="xMaxYMin meet">
         <g id="arrow_out" transform="scale(0.3 0.3)">
          <a xlink:href="IntegerType_8h__dep__incl_org.svg" target="_base">
           <rect id="button" ry="5" rx="5" y="6" x="6" height="38" width="38"
                fill="#f2f5e9" fill-opacity="0.5" stroke="#606060" stroke-width="1.0"/>
           <path id="arrow"
             d="M 11.500037,31.436501 C 11.940474,20.09759 22.043105,11.32322 32.158766,21.979434 L 37.068811,17.246167 C 37.068811,17.246167 37.088388,32 37.088388,32 L 22.160133,31.978069 C 22.160133,31.978069 26.997745,27.140456 26.997745,27.140456 C 18.528582,18.264221 13.291696,25.230495 11.500037,31.436501 z"
             style="fill:#404040;"/>
          </a>
         </g>
        </svg>
</svg>
