<?xml version="1.0" encoding="UTF-8" standalone="no"?>
<!DOCTYPE svg PUBLIC "-//W3C//DTD SVG 1.1//EN"
 "http://www.w3.org/Graphics/SVG/1.1/DTD/svg11.dtd">
<!-- Generated by graphviz version 2.43.0 (0)
 -->
<!-- Title: ISymbolProvider.h Pages: 1 -->
<svg width="4671pt" height="308pt"
 viewBox="0.00 0.00 4670.50 308.00" xmlns="http://www.w3.org/2000/svg" xmlns:xlink="http://www.w3.org/1999/xlink">
<g id="graph0" class="graph" transform="scale(1 1) rotate(0) translate(4 304)">
<title>ISymbolProvider.h</title>
<polygon fill="white" stroke="transparent" points="-4,4 -4,-304 4666.5,-304 4666.5,4 -4,4"/>
<!-- Node1 -->
<g id="node1" class="node">
<title>Node1</title>
<g id="a_node1"><a xlink:title=" ">
<polygon fill="#bfbfbf" stroke="black" points="2873.5,-280.5 2873.5,-299.5 2979.5,-299.5 2979.5,-280.5 2873.5,-280.5"/>
<text text-anchor="middle" x="2926.5" y="-287.5" font-family="Helvetica,sans-Serif" font-size="10.00">ISymbolProvider.h</text>
</a>
</g>
</g>
<!-- Node2 -->
<g id="node2" class="node">
<title>Node2</title>
<g id="a_node2"><a xlink:href="PluginType_8h.html" target="_top" xlink:title=" ">
<polygon fill="white" stroke="black" points="2854.5,-224.5 2854.5,-243.5 2932.5,-243.5 2932.5,-224.5 2854.5,-224.5"/>
<text text-anchor="middle" x="2893.5" y="-231.5" font-family="Helvetica,sans-Serif" font-size="10.00">PluginType.h</text>
</a>
</g>
</g>
<!-- Node1&#45;&gt;Node2 -->
<g id="edge1" class="edge">
<title>Node1&#45;&gt;Node2</title>
<path fill="none" stroke="midnightblue" d="M2915.67,-271.27C2910.03,-262.05 2903.38,-251.17 2898.85,-243.75"/>
<polygon fill="midnightblue" stroke="midnightblue" points="2912.85,-273.38 2921.05,-280.08 2918.82,-269.73 2912.85,-273.38"/>
</g>
<!-- Node70 -->
<g id="node50" class="node">
<title>Node70</title>
<g id="a_node50"><a xlink:href="CSymbolProvider_8h.html" target="_top" xlink:title=" ">
<polygon fill="white" stroke="black" points="3231.5,-168.5 3231.5,-187.5 3341.5,-187.5 3341.5,-168.5 3231.5,-168.5"/>
<text text-anchor="middle" x="3286.5" y="-175.5" font-family="Helvetica,sans-Serif" font-size="10.00">CSymbolProvider.h</text>
</a>
</g>
</g>
<!-- Node1&#45;&gt;Node70 -->
<g id="edge50" class="edge">
<title>Node1&#45;&gt;Node70</title>
<path fill="none" stroke="midnightblue" d="M2964.09,-277.51C3036.54,-255.38 3194.04,-207.25 3258.32,-187.61"/>
<polygon fill="midnightblue" stroke="midnightblue" points="2962.99,-274.19 2954.45,-280.46 2965.04,-280.88 2962.99,-274.19"/>
</g>
<!-- Node3 -->
<g id="node3" class="node">
<title>Node3</title>
<g id="a_node3"><a xlink:href="Plugin_8h.html" target="_top" xlink:title=" ">
<polygon fill="white" stroke="black" points="2848.5,-168.5 2848.5,-187.5 2904.5,-187.5 2904.5,-168.5 2848.5,-168.5"/>
<text text-anchor="middle" x="2876.5" y="-175.5" font-family="Helvetica,sans-Serif" font-size="10.00">Plugin.h</text>
</a>
</g>
</g>
<!-- Node2&#45;&gt;Node3 -->
<g id="edge2" class="edge">
<title>Node2&#45;&gt;Node3</title>
<path fill="none" stroke="midnightblue" d="M2887.64,-214.4C2884.8,-205.36 2881.52,-194.94 2879.25,-187.75"/>
<polygon fill="midnightblue" stroke="midnightblue" points="2884.35,-215.6 2890.69,-224.08 2891.03,-213.49 2884.35,-215.6"/>
</g>
<!-- Node4 -->
<g id="node4" class="node">
<title>Node4</title>
<g id="a_node4"><a xlink:href="Plugin_8cpp.html" target="_top" xlink:title=" ">
<polygon fill="white" stroke="black" points="2082,-112.5 2082,-131.5 2149,-131.5 2149,-112.5 2082,-112.5"/>
<text text-anchor="middle" x="2115.5" y="-119.5" font-family="Helvetica,sans-Serif" font-size="10.00">Plugin.cpp</text>
</a>
</g>
</g>
<!-- Node3&#45;&gt;Node4 -->
<g id="edge3" class="edge">
<title>Node3&#45;&gt;Node4</title>
<path fill="none" stroke="midnightblue" d="M2838.25,-176.53C2730.7,-174.81 2416.63,-166.92 2158.5,-132 2155.48,-131.59 2152.35,-131.09 2149.22,-130.54"/>
<polygon fill="midnightblue" stroke="midnightblue" points="2838.25,-180.03 2848.3,-176.69 2838.36,-173.04 2838.25,-180.03"/>
</g>
<!-- Node5 -->
<g id="node5" class="node">
<title>Node5</title>
<g id="a_node5"><a xlink:href="PluginManager_8h.html" target="_top" xlink:title=" ">
<polygon fill="white" stroke="black" points="2167.5,-112.5 2167.5,-131.5 2265.5,-131.5 2265.5,-112.5 2167.5,-112.5"/>
<text text-anchor="middle" x="2216.5" y="-119.5" font-family="Helvetica,sans-Serif" font-size="10.00">PluginManager.h</text>
</a>
</g>
</g>
<!-- Node3&#45;&gt;Node5 -->
<g id="edge4" class="edge">
<title>Node3&#45;&gt;Node5</title>
<path fill="none" stroke="midnightblue" d="M2838.22,-175C2743.37,-169.86 2489.93,-154.94 2279.5,-132 2275,-131.51 2270.32,-130.94 2265.64,-130.34"/>
<polygon fill="midnightblue" stroke="midnightblue" points="2838.29,-178.51 2848.46,-175.55 2838.67,-171.52 2838.29,-178.51"/>
</g>
<!-- Node53 -->
<g id="node40" class="node">
<title>Node53</title>
<g id="a_node40"><a xlink:href="CapstoneX86Decoder_8cpp.html" target="_top" xlink:title=" ">
<polygon fill="white" stroke="black" points="4520.5,-0.5 4520.5,-19.5 4662.5,-19.5 4662.5,-0.5 4520.5,-0.5"/>
<text text-anchor="middle" x="4591.5" y="-7.5" font-family="Helvetica,sans-Serif" font-size="10.00">CapstoneX86Decoder.cpp</text>
</a>
</g>
</g>
<!-- Node3&#45;&gt;Node53 -->
<g id="edge40" class="edge">
<title>Node3&#45;&gt;Node53</title>
<path fill="none" stroke="midnightblue" d="M2838.06,-176.88C2716.78,-176.09 2348.08,-170.53 2312.5,-132 2306.47,-125.47 2306.35,-118.42 2312.5,-112 2397.13,-23.75 4389.59,-29.4 4511.5,-20 4514.43,-19.77 4517.41,-19.53 4520.42,-19.26"/>
<polygon fill="midnightblue" stroke="midnightblue" points="2838.33,-180.38 2848.35,-176.94 2838.37,-173.38 2838.33,-180.38"/>
</g>
<!-- Node61 -->
<g id="node41" class="node">
<title>Node61</title>
<g id="a_node41"><a xlink:href="CapstonePPCDecoder_8cpp.html" target="_top" xlink:title=" ">
<polygon fill="white" stroke="black" points="2321.5,-112.5 2321.5,-131.5 2463.5,-131.5 2463.5,-112.5 2321.5,-112.5"/>
<text text-anchor="middle" x="2392.5" y="-119.5" font-family="Helvetica,sans-Serif" font-size="10.00">CapstonePPCDecoder.cpp</text>
</a>
</g>
</g>
<!-- Node3&#45;&gt;Node61 -->
<g id="edge41" class="edge">
<title>Node3&#45;&gt;Node61</title>
<path fill="none" stroke="midnightblue" d="M2838.15,-172.74C2766.38,-164.77 2606.86,-147.04 2472.5,-132 2469.58,-131.67 2466.61,-131.34 2463.6,-131"/>
<polygon fill="midnightblue" stroke="midnightblue" points="2837.76,-176.22 2848.09,-173.85 2838.54,-169.26 2837.76,-176.22"/>
</g>
<!-- Node62 -->
<g id="node42" class="node">
<title>Node62</title>
<g id="a_node42"><a xlink:href="CapstoneSPARCDecoder_8cpp.html" target="_top" xlink:title=" ">
<polygon fill="white" stroke="black" points="2482,-112.5 2482,-131.5 2637,-131.5 2637,-112.5 2482,-112.5"/>
<text text-anchor="middle" x="2559.5" y="-119.5" font-family="Helvetica,sans-Serif" font-size="10.00">CapstoneSPARCDecoder.cpp</text>
</a>
</g>
</g>
<!-- Node3&#45;&gt;Node62 -->
<g id="edge42" class="edge">
<title>Node3&#45;&gt;Node62</title>
<path fill="none" stroke="midnightblue" d="M2838.29,-170.49C2781.02,-160.74 2672.89,-142.32 2609.44,-131.51"/>
<polygon fill="midnightblue" stroke="midnightblue" points="2837.92,-173.98 2848.37,-172.21 2839.1,-167.08 2837.92,-173.98"/>
</g>
<!-- Node63 -->
<g id="node43" class="node">
<title>Node63</title>
<g id="a_node43"><a xlink:href="DOS4GWBinaryLoader_8cpp.html" target="_top" xlink:title=" ">
<polygon fill="white" stroke="black" points="2655.5,-112.5 2655.5,-131.5 2801.5,-131.5 2801.5,-112.5 2655.5,-112.5"/>
<text text-anchor="middle" x="2728.5" y="-119.5" font-family="Helvetica,sans-Serif" font-size="10.00">DOS4GWBinaryLoader.cpp</text>
</a>
</g>
</g>
<!-- Node3&#45;&gt;Node63 -->
<g id="edge43" class="edge">
<title>Node3&#45;&gt;Node63</title>
<path fill="none" stroke="midnightblue" d="M2843.35,-164.91C2815.53,-154.75 2776.48,-140.51 2751.84,-131.52"/>
<polygon fill="midnightblue" stroke="midnightblue" points="2842.46,-168.3 2853.05,-168.44 2844.85,-161.73 2842.46,-168.3"/>
</g>
<!-- Node64 -->
<g id="node44" class="node">
<title>Node64</title>
<g id="a_node44"><a xlink:href="ElfBinaryLoader_8cpp.html" target="_top" xlink:title=" ">
<polygon fill="white" stroke="black" points="2819.5,-112.5 2819.5,-131.5 2933.5,-131.5 2933.5,-112.5 2819.5,-112.5"/>
<text text-anchor="middle" x="2876.5" y="-119.5" font-family="Helvetica,sans-Serif" font-size="10.00">ElfBinaryLoader.cpp</text>
</a>
</g>
</g>
<!-- Node3&#45;&gt;Node64 -->
<g id="edge44" class="edge">
<title>Node3&#45;&gt;Node64</title>
<path fill="none" stroke="midnightblue" d="M2876.5,-157.8C2876.5,-148.91 2876.5,-138.78 2876.5,-131.75"/>
<polygon fill="midnightblue" stroke="midnightblue" points="2873,-158.08 2876.5,-168.08 2880,-158.08 2873,-158.08"/>
</g>
<!-- Node65 -->
<g id="node45" class="node">
<title>Node65</title>
<g id="a_node45"><a xlink:href="ExeBinaryLoader_8cpp.html" target="_top" xlink:title=" ">
<polygon fill="white" stroke="black" points="2952,-112.5 2952,-131.5 3071,-131.5 3071,-112.5 2952,-112.5"/>
<text text-anchor="middle" x="3011.5" y="-119.5" font-family="Helvetica,sans-Serif" font-size="10.00">ExeBinaryLoader.cpp</text>
</a>
</g>
</g>
<!-- Node3&#45;&gt;Node65 -->
<g id="edge45" class="edge">
<title>Node3&#45;&gt;Node65</title>
<path fill="none" stroke="midnightblue" d="M2907.41,-164.64C2932.74,-154.5 2967.93,-140.43 2990.21,-131.52"/>
<polygon fill="midnightblue" stroke="midnightblue" points="2905.88,-161.48 2897.89,-168.44 2908.48,-167.98 2905.88,-161.48"/>
</g>
<!-- Node66 -->
<g id="node46" class="node">
<title>Node66</title>
<g id="a_node46"><a xlink:href="MachOBinaryLoader_8cpp.html" target="_top" xlink:title=" ">
<polygon fill="white" stroke="black" points="3089,-112.5 3089,-131.5 3224,-131.5 3224,-112.5 3089,-112.5"/>
<text text-anchor="middle" x="3156.5" y="-119.5" font-family="Helvetica,sans-Serif" font-size="10.00">MachOBinaryLoader.cpp</text>
</a>
</g>
</g>
<!-- Node3&#45;&gt;Node66 -->
<g id="edge46" class="edge">
<title>Node3&#45;&gt;Node66</title>
<path fill="none" stroke="midnightblue" d="M2914.69,-169.63C2966.25,-159.69 3057.94,-142.01 3112.38,-131.51"/>
<polygon fill="midnightblue" stroke="midnightblue" points="2913.79,-166.24 2904.63,-171.58 2915.11,-173.12 2913.79,-166.24"/>
</g>
<!-- Node67 -->
<g id="node47" class="node">
<title>Node67</title>
<g id="a_node47"><a xlink:href="Win32BinaryLoader_8cpp.html" target="_top" xlink:title=" ">
<polygon fill="white" stroke="black" points="3242.5,-112.5 3242.5,-131.5 3374.5,-131.5 3374.5,-112.5 3242.5,-112.5"/>
<text text-anchor="middle" x="3308.5" y="-119.5" font-family="Helvetica,sans-Serif" font-size="10.00">Win32BinaryLoader.cpp</text>
</a>
</g>
</g>
<!-- Node3&#45;&gt;Node67 -->
<g id="edge47" class="edge">
<title>Node3&#45;&gt;Node67</title>
<path fill="none" stroke="midnightblue" d="M2914.71,-172.22C2988.33,-163.02 3150.63,-142.73 3242.22,-131.28"/>
<polygon fill="midnightblue" stroke="midnightblue" points="2914,-168.79 2904.51,-173.5 2914.87,-175.73 2914,-168.79"/>
</g>
<!-- Node68 -->
<g id="node48" class="node">
<title>Node68</title>
<g id="a_node48"><a xlink:href="ST20BinaryLoader_8cpp.html" target="_top" xlink:title=" ">
<polygon fill="white" stroke="black" points="3393,-112.5 3393,-131.5 3518,-131.5 3518,-112.5 3393,-112.5"/>
<text text-anchor="middle" x="3455.5" y="-119.5" font-family="Helvetica,sans-Serif" font-size="10.00">ST20BinaryLoader.cpp</text>
</a>
</g>
</g>
<!-- Node3&#45;&gt;Node68 -->
<g id="edge48" class="edge">
<title>Node3&#45;&gt;Node68</title>
<path fill="none" stroke="midnightblue" d="M2914.72,-174.08C2999.3,-167.51 3208.65,-150.68 3383.5,-132 3386.51,-131.68 3389.58,-131.34 3392.69,-130.99"/>
<polygon fill="midnightblue" stroke="midnightblue" points="2914.27,-170.6 2904.57,-174.86 2914.81,-177.58 2914.27,-170.6"/>
</g>
<!-- Node69 -->
<g id="node49" class="node">
<title>Node69</title>
<g id="a_node49"><a xlink:href="CSymbolProvider_8cpp.html" target="_top" xlink:title=" ">
<polygon fill="white" stroke="black" points="3536,-112.5 3536,-131.5 3657,-131.5 3657,-112.5 3536,-112.5"/>
<text text-anchor="middle" x="3596.5" y="-119.5" font-family="Helvetica,sans-Serif" font-size="10.00">CSymbolProvider.cpp</text>
</a>
</g>
</g>
<!-- Node3&#45;&gt;Node69 -->
<g id="edge49" class="edge">
<title>Node3&#45;&gt;Node69</title>
<path fill="none" stroke="midnightblue" d="M2914.78,-175.17C3015.35,-170.18 3295.32,-155.15 3527.5,-132 3530.26,-131.72 3533.09,-131.43 3535.94,-131.11"/>
<polygon fill="midnightblue" stroke="midnightblue" points="2914.6,-171.67 2904.79,-175.66 2914.95,-178.66 2914.6,-171.67"/>
</g>
<!-- Node6 -->
<g id="node6" class="node">
<title>Node6</title>
<g id="a_node6"><a xlink:href="PluginManager_8cpp.html" target="_top" xlink:title=" ">
<polygon fill="white" stroke="black" points="2058.5,-56.5 2058.5,-75.5 2168.5,-75.5 2168.5,-56.5 2058.5,-56.5"/>
<text text-anchor="middle" x="2113.5" y="-63.5" font-family="Helvetica,sans-Serif" font-size="10.00">PluginManager.cpp</text>
</a>
</g>
</g>
<!-- Node5&#45;&gt;Node6 -->
<g id="edge5" class="edge">
<title>Node5&#45;&gt;Node6</title>
<path fill="none" stroke="midnightblue" d="M2190.92,-107.59C2171.88,-97.61 2146.44,-84.27 2130.01,-75.65"/>
<polygon fill="midnightblue" stroke="midnightblue" points="2189.47,-110.78 2199.95,-112.32 2192.72,-104.58 2189.47,-110.78"/>
</g>
<!-- Node7 -->
<g id="node7" class="node">
<title>Node7</title>
<g id="a_node7"><a xlink:href="Project_8h.html" target="_top" xlink:title=" ">
<polygon fill="white" stroke="red" points="2187,-56.5 2187,-75.5 2246,-75.5 2246,-56.5 2187,-56.5"/>
<text text-anchor="middle" x="2216.5" y="-63.5" font-family="Helvetica,sans-Serif" font-size="10.00">Project.h</text>
</a>
</g>
</g>
<!-- Node5&#45;&gt;Node7 -->
<g id="edge6" class="edge">
<title>Node5&#45;&gt;Node7</title>
<path fill="none" stroke="midnightblue" d="M2216.5,-101.8C2216.5,-92.91 2216.5,-82.78 2216.5,-75.75"/>
<polygon fill="midnightblue" stroke="midnightblue" points="2213,-102.08 2216.5,-112.08 2220,-102.08 2213,-102.08"/>
</g>
<!-- Node8 -->
<g id="node8" class="node">
<title>Node8</title>
<g id="a_node8"><a xlink:href="Project_8cpp.html" target="_top" xlink:title=" ">
<polygon fill="white" stroke="black" points="0,-0.5 0,-19.5 71,-19.5 71,-0.5 0,-0.5"/>
<text text-anchor="middle" x="35.5" y="-7.5" font-family="Helvetica,sans-Serif" font-size="10.00">Project.cpp</text>
</a>
</g>
</g>
<!-- Node7&#45;&gt;Node8 -->
<g id="edge7" class="edge">
<title>Node7&#45;&gt;Node8</title>
<path fill="none" stroke="midnightblue" d="M2176.67,-56.25C1698.12,-0.27 539.72,-70.58 79.5,-20 76.86,-19.71 74.15,-19.34 71.43,-18.91"/>
<polygon fill="midnightblue" stroke="midnightblue" points="2176.46,-59.75 2186.8,-57.47 2177.29,-52.8 2176.46,-59.75"/>
</g>
<!-- Node9 -->
<g id="node9" class="node">
<title>Node9</title>
<g id="a_node9"><a xlink:href="DataFlow_8cpp.html" target="_top" xlink:title=" ">
<polygon fill="white" stroke="black" points="89,-0.5 89,-19.5 172,-19.5 172,-0.5 89,-0.5"/>
<text text-anchor="middle" x="130.5" y="-7.5" font-family="Helvetica,sans-Serif" font-size="10.00">DataFlow.cpp</text>
</a>
</g>
</g>
<!-- Node7&#45;&gt;Node9 -->
<g id="edge8" class="edge">
<title>Node7&#45;&gt;Node9</title>
<path fill="none" stroke="midnightblue" d="M2176.81,-56.27C1720.68,-2.7 618.98,-63.14 180.5,-20 177.78,-19.73 174.98,-19.4 172.17,-19.02"/>
<polygon fill="midnightblue" stroke="midnightblue" points="2176.46,-59.75 2186.8,-57.47 2177.29,-52.8 2176.46,-59.75"/>
</g>
<!-- Node10 -->
<g id="node10" class="node">
<title>Node10</title>
<g id="a_node10"><a xlink:href="Module_8cpp.html" target="_top" xlink:title=" ">
<polygon fill="white" stroke="black" points="190,-0.5 190,-19.5 263,-19.5 263,-0.5 190,-0.5"/>
<text text-anchor="middle" x="226.5" y="-7.5" font-family="Helvetica,sans-Serif" font-size="10.00">Module.cpp</text>
</a>
</g>
</g>
<!-- Node7&#45;&gt;Node10 -->
<g id="edge9" class="edge">
<title>Node7&#45;&gt;Node10</title>
<path fill="none" stroke="midnightblue" d="M2176.62,-56.25C1740.7,-5.06 690.24,-64.47 272.5,-20 269.43,-19.67 266.25,-19.24 263.07,-18.75"/>
<polygon fill="midnightblue" stroke="midnightblue" points="2176.46,-59.75 2186.8,-57.48 2177.3,-52.8 2176.46,-59.75"/>
</g>
<!-- Node11 -->
<g id="node11" class="node">
<title>Node11</title>
<g id="a_node11"><a xlink:href="Proc_8cpp.html" target="_top" xlink:title=" ">
<polygon fill="white" stroke="black" points="281.5,-0.5 281.5,-19.5 339.5,-19.5 339.5,-0.5 281.5,-0.5"/>
<text text-anchor="middle" x="310.5" y="-7.5" font-family="Helvetica,sans-Serif" font-size="10.00">Proc.cpp</text>
</a>
</g>
</g>
<!-- Node7&#45;&gt;Node11 -->
<g id="edge10" class="edge">
<title>Node7&#45;&gt;Node11</title>
<path fill="none" stroke="midnightblue" d="M2176.67,-56.23C1368.82,42.57 1151.74,-121.84 348.5,-20 345.68,-19.64 342.75,-19.16 339.85,-18.6"/>
<polygon fill="midnightblue" stroke="midnightblue" points="2176.45,-59.73 2186.8,-57.48 2177.31,-52.78 2176.45,-59.73"/>
</g>
<!-- Node12 -->
<g id="node12" class="node">
<title>Node12</title>
<g id="a_node12"><a xlink:href="UserProc_8cpp.html" target="_top" xlink:title=" ">
<polygon fill="white" stroke="black" points="357.5,-0.5 357.5,-19.5 437.5,-19.5 437.5,-0.5 357.5,-0.5"/>
<text text-anchor="middle" x="397.5" y="-7.5" font-family="Helvetica,sans-Serif" font-size="10.00">UserProc.cpp</text>
</a>
</g>
</g>
<!-- Node7&#45;&gt;Node12 -->
<g id="edge11" class="edge">
<title>Node7&#45;&gt;Node12</title>
<path fill="none" stroke="midnightblue" d="M2176.65,-56.22C1412.1,37.82 1208.7,-97.42 446.5,-20 443.57,-19.7 440.56,-19.33 437.54,-18.9"/>
<polygon fill="midnightblue" stroke="midnightblue" points="2176.45,-59.73 2186.8,-57.48 2177.31,-52.78 2176.45,-59.73"/>
</g>
<!-- Node13 -->
<g id="node13" class="node">
<title>Node13</title>
<g id="a_node13"><a xlink:href="Prog_8cpp.html" target="_top" xlink:title=" ">
<polygon fill="white" stroke="black" points="456,-0.5 456,-19.5 515,-19.5 515,-0.5 456,-0.5"/>
<text text-anchor="middle" x="485.5" y="-7.5" font-family="Helvetica,sans-Serif" font-size="10.00">Prog.cpp</text>
</a>
</g>
</g>
<!-- Node7&#45;&gt;Node13 -->
<g id="edge12" class="edge">
<title>Node7&#45;&gt;Node13</title>
<path fill="none" stroke="midnightblue" d="M2176.82,-56.25C1446.11,33.81 1249.55,-112.83 523.5,-20 520.81,-19.66 518.03,-19.2 515.26,-18.67"/>
<polygon fill="midnightblue" stroke="midnightblue" points="2176.45,-59.73 2186.8,-57.49 2177.31,-52.78 2176.45,-59.73"/>
</g>
<!-- Node14 -->
<g id="node14" class="node">
<title>Node14</title>
<g id="a_node14"><a xlink:href="IndirectJumpAnalyzer_8cpp.html" target="_top" xlink:title=" ">
<polygon fill="white" stroke="black" points="533,-0.5 533,-19.5 674,-19.5 674,-0.5 533,-0.5"/>
<text text-anchor="middle" x="603.5" y="-7.5" font-family="Helvetica,sans-Serif" font-size="10.00">IndirectJumpAnalyzer.cpp</text>
</a>
</g>
</g>
<!-- Node7&#45;&gt;Node14 -->
<g id="edge13" class="edge">
<title>Node7&#45;&gt;Node14</title>
<path fill="none" stroke="midnightblue" d="M2176.73,-56.25C1831.56,-14.97 1010.8,-42.61 682.5,-20 679.75,-19.81 676.94,-19.6 674.11,-19.36"/>
<polygon fill="midnightblue" stroke="midnightblue" points="2176.45,-59.74 2186.8,-57.49 2177.3,-52.8 2176.45,-59.74"/>
</g>
<!-- Node15 -->
<g id="node15" class="node">
<title>Node15</title>
<g id="a_node15"><a xlink:href="InterferenceFinder_8cpp.html" target="_top" xlink:title=" ">
<polygon fill="white" stroke="black" points="692,-0.5 692,-19.5 817,-19.5 817,-0.5 692,-0.5"/>
<text text-anchor="middle" x="754.5" y="-7.5" font-family="Helvetica,sans-Serif" font-size="10.00">InterferenceFinder.cpp</text>
</a>
</g>
</g>
<!-- Node7&#45;&gt;Node15 -->
<g id="edge14" class="edge">
<title>Node7&#45;&gt;Node15</title>
<path fill="none" stroke="midnightblue" d="M2176.65,-56.21C1579.89,18.96 1422.08,-65.05 826.5,-20 823.49,-19.77 820.4,-19.51 817.29,-19.22"/>
<polygon fill="midnightblue" stroke="midnightblue" points="2176.44,-59.71 2186.8,-57.5 2177.32,-52.77 2176.44,-59.71"/>
</g>
<!-- Node16 -->
<g id="node16" class="node">
<title>Node16</title>
<g id="a_node16"><a xlink:href="LivenessAnalyzer_8cpp.html" target="_top" xlink:title=" ">
<polygon fill="white" stroke="black" points="835.5,-0.5 835.5,-19.5 957.5,-19.5 957.5,-0.5 835.5,-0.5"/>
<text text-anchor="middle" x="896.5" y="-7.5" font-family="Helvetica,sans-Serif" font-size="10.00">LivenessAnalyzer.cpp</text>
</a>
</g>
</g>
<!-- Node7&#45;&gt;Node16 -->
<g id="edge15" class="edge">
<title>Node7&#45;&gt;Node16</title>
<path fill="none" stroke="midnightblue" d="M2176.5,-56.19C1641.67,11.92 1499.88,-62.11 966.5,-20 963.57,-19.77 960.57,-19.5 957.55,-19.21"/>
<polygon fill="midnightblue" stroke="midnightblue" points="2176.43,-59.71 2186.8,-57.51 2177.33,-52.77 2176.43,-59.71"/>
</g>
<!-- Node17 -->
<g id="node17" class="node">
<title>Node17</title>
<g id="a_node17"><a xlink:href="ProcDecompiler_8cpp.html" target="_top" xlink:title=" ">
<polygon fill="white" stroke="black" points="975.5,-0.5 975.5,-19.5 1089.5,-19.5 1089.5,-0.5 975.5,-0.5"/>
<text text-anchor="middle" x="1032.5" y="-7.5" font-family="Helvetica,sans-Serif" font-size="10.00">ProcDecompiler.cpp</text>
</a>
</g>
</g>
<!-- Node7&#45;&gt;Node17 -->
<g id="edge16" class="edge">
<title>Node7&#45;&gt;Node17</title>
<path fill="none" stroke="midnightblue" d="M2176.55,-56.19C1699.94,5.3 1573.23,-60.18 1098.5,-20 1095.62,-19.76 1092.67,-19.47 1089.7,-19.16"/>
<polygon fill="midnightblue" stroke="midnightblue" points="2176.43,-59.7 2186.8,-57.52 2177.33,-52.76 2176.43,-59.7"/>
</g>
<!-- Node18 -->
<g id="node18" class="node">
<title>Node18</title>
<g id="a_node18"><a xlink:href="ProgDecompiler_8cpp.html" target="_top" xlink:title=" ">
<polygon fill="white" stroke="black" points="1108,-0.5 1108,-19.5 1223,-19.5 1223,-0.5 1108,-0.5"/>
<text text-anchor="middle" x="1165.5" y="-7.5" font-family="Helvetica,sans-Serif" font-size="10.00">ProgDecompiler.cpp</text>
</a>
</g>
</g>
<!-- Node7&#45;&gt;Node18 -->
<g id="edge17" class="edge">
<title>Node7&#45;&gt;Node18</title>
<path fill="none" stroke="midnightblue" d="M2176.87,-56.22C1759.14,-1.36 1647.99,-55.74 1232.5,-20 1229.46,-19.74 1226.35,-19.44 1223.2,-19.11"/>
<polygon fill="midnightblue" stroke="midnightblue" points="2176.42,-59.69 2186.8,-57.54 2177.34,-52.75 2176.42,-59.69"/>
</g>
<!-- Node19 -->
<g id="node19" class="node">
<title>Node19</title>
<g id="a_node19"><a xlink:href="UnusedReturnRemover_8cpp.html" target="_top" xlink:title=" ">
<polygon fill="white" stroke="black" points="1241.5,-0.5 1241.5,-19.5 1391.5,-19.5 1391.5,-0.5 1241.5,-0.5"/>
<text text-anchor="middle" x="1316.5" y="-7.5" font-family="Helvetica,sans-Serif" font-size="10.00">UnusedReturnRemover.cpp</text>
</a>
</g>
</g>
<!-- Node7&#45;&gt;Node19 -->
<g id="edge18" class="edge">
<title>Node7&#45;&gt;Node19</title>
<path fill="none" stroke="midnightblue" d="M2176.81,-56.2C1833.28,-9.65 1741.91,-46.17 1400.5,-20 1397.58,-19.78 1394.59,-19.53 1391.59,-19.27"/>
<polygon fill="midnightblue" stroke="midnightblue" points="2176.41,-59.67 2186.79,-57.56 2177.36,-52.74 2176.41,-59.67"/>
</g>
<!-- Node20 -->
<g id="node20" class="node">
<title>Node20</title>
<g id="a_node20"><a xlink:href="DefaultFrontEnd_8cpp.html" target="_top" xlink:title=" ">
<polygon fill="white" stroke="black" points="1409.5,-0.5 1409.5,-19.5 1525.5,-19.5 1525.5,-0.5 1409.5,-0.5"/>
<text text-anchor="middle" x="1467.5" y="-7.5" font-family="Helvetica,sans-Serif" font-size="10.00">DefaultFrontEnd.cpp</text>
</a>
</g>
</g>
<!-- Node7&#45;&gt;Node20 -->
<g id="edge19" class="edge">
<title>Node7&#45;&gt;Node20</title>
<path fill="none" stroke="midnightblue" d="M2176.59,-56.15C1892.35,-16.4 1816.1,-46.76 1534.5,-20 1531.58,-19.72 1528.59,-19.41 1525.57,-19.08"/>
<polygon fill="midnightblue" stroke="midnightblue" points="2176.4,-59.66 2186.79,-57.59 2177.38,-52.73 2176.4,-59.66"/>
</g>
<!-- Node21 -->
<g id="node21" class="node">
<title>Node21</title>
<g id="a_node21"><a xlink:href="CallArgumentUpdatePass_8cpp.html" target="_top" xlink:title=" ">
<polygon fill="white" stroke="black" points="1544,-0.5 1544,-19.5 1705,-19.5 1705,-0.5 1544,-0.5"/>
<text text-anchor="middle" x="1624.5" y="-7.5" font-family="Helvetica,sans-Serif" font-size="10.00">CallArgumentUpdatePass.cpp</text>
</a>
</g>
</g>
<!-- Node7&#45;&gt;Node21 -->
<g id="edge20" class="edge">
<title>Node7&#45;&gt;Node21</title>
<path fill="none" stroke="midnightblue" d="M2176.59,-56.1C1971.73,-25.14 1916.78,-37.98 1714.5,-20 1711.53,-19.74 1708.5,-19.46 1705.45,-19.18"/>
<polygon fill="midnightblue" stroke="midnightblue" points="2176.36,-59.61 2186.78,-57.66 2177.42,-52.69 2176.36,-59.61"/>
</g>
<!-- Node22 -->
<g id="node22" class="node">
<title>Node22</title>
<g id="a_node22"><a xlink:href="CallDefineUpdatePass_8cpp.html" target="_top" xlink:title=" ">
<polygon fill="white" stroke="black" points="1723.5,-0.5 1723.5,-19.5 1869.5,-19.5 1869.5,-0.5 1723.5,-0.5"/>
<text text-anchor="middle" x="1796.5" y="-7.5" font-family="Helvetica,sans-Serif" font-size="10.00">CallDefineUpdatePass.cpp</text>
</a>
</g>
</g>
<!-- Node7&#45;&gt;Node22 -->
<g id="edge21" class="edge">
<title>Node7&#45;&gt;Node22</title>
<path fill="none" stroke="midnightblue" d="M2176.62,-56.14C2123.64,-48.09 1964.91,-29.95 1869.92,-19.23"/>
<polygon fill="midnightblue" stroke="midnightblue" points="2176.33,-59.64 2186.76,-57.78 2177.45,-52.73 2176.33,-59.64"/>
</g>
<!-- Node23 -->
<g id="node23" class="node">
<title>Node23</title>
<g id="a_node23"><a xlink:href="BlockVarRenamePass_8cpp.html" target="_top" xlink:title=" ">
<polygon fill="white" stroke="black" points="1888,-0.5 1888,-19.5 2031,-19.5 2031,-0.5 1888,-0.5"/>
<text text-anchor="middle" x="1959.5" y="-7.5" font-family="Helvetica,sans-Serif" font-size="10.00">BlockVarRenamePass.cpp</text>
</a>
</g>
</g>
<!-- Node7&#45;&gt;Node23 -->
<g id="edge22" class="edge">
<title>Node7&#45;&gt;Node23</title>
<path fill="none" stroke="midnightblue" d="M2176.86,-55.9C2110.16,-41.38 2044.1,-27.93 2002.17,-19.5"/>
<polygon fill="midnightblue" stroke="midnightblue" points="2176.19,-59.34 2186.71,-58.05 2177.68,-52.5 2176.19,-59.34"/>
</g>
<!-- Node24 -->
<g id="node24" class="node">
<title>Node24</title>
<g id="a_node24"><a xlink:href="StatementPropagationPass_8cpp.html" target="_top" xlink:title=" ">
<polygon fill="white" stroke="black" points="2049,-0.5 2049,-19.5 2218,-19.5 2218,-0.5 2049,-0.5"/>
<text text-anchor="middle" x="2133.5" y="-7.5" font-family="Helvetica,sans-Serif" font-size="10.00">StatementPropagationPass.cpp</text>
</a>
</g>
</g>
<!-- Node7&#45;&gt;Node24 -->
<g id="edge23" class="edge">
<title>Node7&#45;&gt;Node24</title>
<path fill="none" stroke="midnightblue" d="M2194.4,-50.62C2179.24,-40.76 2159.62,-27.99 2146.8,-19.65"/>
<polygon fill="midnightblue" stroke="midnightblue" points="2192.87,-53.8 2203.16,-56.32 2196.69,-47.94 2192.87,-53.8"/>
</g>
<!-- Node25 -->
<g id="node25" class="node">
<title>Node25</title>
<g id="a_node25"><a xlink:href="FromSSAFormPass_8cpp.html" target="_top" xlink:title=" ">
<polygon fill="white" stroke="black" points="2236.5,-0.5 2236.5,-19.5 2364.5,-19.5 2364.5,-0.5 2236.5,-0.5"/>
<text text-anchor="middle" x="2300.5" y="-7.5" font-family="Helvetica,sans-Serif" font-size="10.00">FromSSAFormPass.cpp</text>
</a>
</g>
</g>
<!-- Node7&#45;&gt;Node25 -->
<g id="edge24" class="edge">
<title>Node7&#45;&gt;Node25</title>
<path fill="none" stroke="midnightblue" d="M2238.43,-50.9C2253.84,-41 2273.95,-28.07 2287.04,-19.65"/>
<polygon fill="midnightblue" stroke="midnightblue" points="2236.52,-47.97 2230,-56.32 2240.3,-53.86 2236.52,-47.97"/>
</g>
<!-- Node26 -->
<g id="node26" class="node">
<title>Node26</title>
<g id="a_node26"><a xlink:href="LocalAndParamMapPass_8cpp.html" target="_top" xlink:title=" ">
<polygon fill="white" stroke="black" points="2382.5,-0.5 2382.5,-19.5 2538.5,-19.5 2538.5,-0.5 2382.5,-0.5"/>
<text text-anchor="middle" x="2460.5" y="-7.5" font-family="Helvetica,sans-Serif" font-size="10.00">LocalAndParamMapPass.cpp</text>
</a>
</g>
</g>
<!-- Node7&#45;&gt;Node26 -->
<g id="edge25" class="edge">
<title>Node7&#45;&gt;Node26</title>
<path fill="none" stroke="midnightblue" d="M2256.28,-56.2C2302.03,-46.07 2376.64,-29.56 2421.89,-19.55"/>
<polygon fill="midnightblue" stroke="midnightblue" points="2255.43,-52.8 2246.42,-58.38 2256.94,-59.63 2255.43,-52.8"/>
</g>
<!-- Node27 -->
<g id="node27" class="node">
<title>Node27</title>
<g id="a_node27"><a xlink:href="LocalTypeAnalysisPass_8cpp.html" target="_top" xlink:title=" ">
<polygon fill="white" stroke="black" points="2557,-0.5 2557,-19.5 2706,-19.5 2706,-0.5 2557,-0.5"/>
<text text-anchor="middle" x="2631.5" y="-7.5" font-family="Helvetica,sans-Serif" font-size="10.00">LocalTypeAnalysisPass.cpp</text>
</a>
</g>
</g>
<!-- Node7&#45;&gt;Node27 -->
<g id="edge26" class="edge">
<title>Node7&#45;&gt;Node27</title>
<path fill="none" stroke="midnightblue" d="M2256.2,-59.24C2263.92,-58.14 2271.96,-57.02 2279.5,-56 2377.64,-42.72 2491.32,-28.37 2562.33,-19.54"/>
<polygon fill="midnightblue" stroke="midnightblue" points="2255.7,-55.77 2246.29,-60.65 2256.69,-62.7 2255.7,-55.77"/>
</g>
<!-- Node28 -->
<g id="node28" class="node">
<title>Node28</title>
<g id="a_node28"><a xlink:href="UnusedLocalRemovalPass_8cpp.html" target="_top" xlink:title=" ">
<polygon fill="white" stroke="black" points="2724,-0.5 2724,-19.5 2889,-19.5 2889,-0.5 2724,-0.5"/>
<text text-anchor="middle" x="2806.5" y="-7.5" font-family="Helvetica,sans-Serif" font-size="10.00">UnusedLocalRemovalPass.cpp</text>
</a>
</g>
</g>
<!-- Node7&#45;&gt;Node28 -->
<g id="edge27" class="edge">
<title>Node7&#45;&gt;Node28</title>
<path fill="none" stroke="midnightblue" d="M2256.17,-58.97C2263.89,-57.9 2271.94,-56.85 2279.5,-56 2472.27,-34.27 2521.29,-37.44 2714.5,-20 2717.54,-19.73 2720.63,-19.44 2723.75,-19.15"/>
<polygon fill="midnightblue" stroke="midnightblue" points="2255.66,-55.5 2246.26,-60.38 2256.65,-62.43 2255.66,-55.5"/>
</g>
<!-- Node29 -->
<g id="node29" class="node">
<title>Node29</title>
<g id="a_node29"><a xlink:href="UnusedParamRemovalPass_8cpp.html" target="_top" xlink:title=" ">
<polygon fill="white" stroke="black" points="2907,-0.5 2907,-19.5 3078,-19.5 3078,-0.5 2907,-0.5"/>
<text text-anchor="middle" x="2992.5" y="-7.5" font-family="Helvetica,sans-Serif" font-size="10.00">UnusedParamRemovalPass.cpp</text>
</a>
</g>
</g>
<!-- Node7&#45;&gt;Node29 -->
<g id="edge28" class="edge">
<title>Node7&#45;&gt;Node29</title>
<path fill="none" stroke="midnightblue" d="M2256.15,-58.82C2263.88,-57.76 2271.93,-56.76 2279.5,-56 2553.26,-28.52 2623.17,-40.98 2897.5,-20 2900.56,-19.77 2903.67,-19.52 2906.81,-19.26"/>
<polygon fill="midnightblue" stroke="midnightblue" points="2255.65,-55.36 2246.24,-60.23 2256.64,-62.29 2255.65,-55.36"/>
</g>
<!-- Node30 -->
<g id="node30" class="node">
<title>Node30</title>
<g id="a_node30"><a xlink:href="UnusedStatementRemovalPass_8cpp.html" target="_top" xlink:title=" ">
<polygon fill="white" stroke="black" points="3096,-0.5 3096,-19.5 3287,-19.5 3287,-0.5 3096,-0.5"/>
<text text-anchor="middle" x="3191.5" y="-7.5" font-family="Helvetica,sans-Serif" font-size="10.00">UnusedStatementRemovalPass.cpp</text>
</a>
</g>
</g>
<!-- Node7&#45;&gt;Node30 -->
<g id="edge29" class="edge">
<title>Node7&#45;&gt;Node30</title>
<path fill="none" stroke="midnightblue" d="M2256.14,-58.74C2263.87,-57.69 2271.93,-56.71 2279.5,-56 2637.41,-22.54 2728.8,-43.5 3087.5,-20 3090.21,-19.82 3092.96,-19.63 3095.74,-19.44"/>
<polygon fill="midnightblue" stroke="midnightblue" points="2255.64,-55.27 2246.23,-60.15 2256.63,-62.2 2255.64,-55.27"/>
</g>
<!-- Node31 -->
<g id="node31" class="node">
<title>Node31</title>
<g id="a_node31"><a xlink:href="AssignRemovalPass_8cpp.html" target="_top" xlink:title=" ">
<polygon fill="white" stroke="black" points="3305,-0.5 3305,-19.5 3440,-19.5 3440,-0.5 3305,-0.5"/>
<text text-anchor="middle" x="3372.5" y="-7.5" font-family="Helvetica,sans-Serif" font-size="10.00">AssignRemovalPass.cpp</text>
</a>
</g>
</g>
<!-- Node7&#45;&gt;Node31 -->
<g id="edge30" class="edge">
<title>Node7&#45;&gt;Node31</title>
<path fill="none" stroke="midnightblue" d="M2256.14,-58.68C2263.87,-57.64 2271.92,-56.67 2279.5,-56 2730.01,-15.96 2845.54,-54.62 3296.5,-20 3299.28,-19.79 3302.12,-19.55 3304.98,-19.29"/>
<polygon fill="midnightblue" stroke="midnightblue" points="2255.64,-55.22 2246.23,-60.09 2256.62,-62.15 2255.64,-55.22"/>
</g>
<!-- Node32 -->
<g id="node32" class="node">
<title>Node32</title>
<g id="a_node32"><a xlink:href="PreservationAnalysisPass_8cpp.html" target="_top" xlink:title=" ">
<polygon fill="white" stroke="black" points="3458.5,-0.5 3458.5,-19.5 3620.5,-19.5 3620.5,-0.5 3458.5,-0.5"/>
<text text-anchor="middle" x="3539.5" y="-7.5" font-family="Helvetica,sans-Serif" font-size="10.00">PreservationAnalysisPass.cpp</text>
</a>
</g>
</g>
<!-- Node7&#45;&gt;Node32 -->
<g id="edge31" class="edge">
<title>Node7&#45;&gt;Node32</title>
<path fill="none" stroke="midnightblue" d="M2256.13,-58.65C2263.87,-57.61 2271.92,-56.66 2279.5,-56 2797.81,-11.14 2930.36,-53.9 3449.5,-20 3452.32,-19.82 3455.19,-19.61 3458.09,-19.4"/>
<polygon fill="midnightblue" stroke="midnightblue" points="2255.63,-55.19 2246.23,-60.06 2256.62,-62.12 2255.63,-55.19"/>
</g>
<!-- Node33 -->
<g id="node33" class="node">
<title>Node33</title>
<g id="a_node33"><a xlink:href="SPPreservationPass_8cpp.html" target="_top" xlink:title=" ">
<polygon fill="white" stroke="black" points="3639,-0.5 3639,-19.5 3772,-19.5 3772,-0.5 3639,-0.5"/>
<text text-anchor="middle" x="3705.5" y="-7.5" font-family="Helvetica,sans-Serif" font-size="10.00">SPPreservationPass.cpp</text>
</a>
</g>
</g>
<!-- Node7&#45;&gt;Node33 -->
<g id="edge32" class="edge">
<title>Node7&#45;&gt;Node33</title>
<path fill="none" stroke="midnightblue" d="M2256.13,-58.63C2263.86,-57.59 2271.92,-56.64 2279.5,-56 2877.58,-5.47 3030.85,-63.34 3629.5,-20 3632.55,-19.78 3635.66,-19.53 3638.8,-19.25"/>
<polygon fill="midnightblue" stroke="midnightblue" points="2255.63,-55.16 2246.22,-60.04 2256.62,-62.1 2255.63,-55.16"/>
</g>
<!-- Node34 -->
<g id="node34" class="node">
<title>Node34</title>
<g id="a_node34"><a xlink:href="PassManager_8cpp.html" target="_top" xlink:title=" ">
<polygon fill="white" stroke="black" points="3790.5,-0.5 3790.5,-19.5 3892.5,-19.5 3892.5,-0.5 3790.5,-0.5"/>
<text text-anchor="middle" x="3841.5" y="-7.5" font-family="Helvetica,sans-Serif" font-size="10.00">PassManager.cpp</text>
</a>
</g>
</g>
<!-- Node7&#45;&gt;Node34 -->
<g id="edge33" class="edge">
<title>Node7&#45;&gt;Node34</title>
<path fill="none" stroke="midnightblue" d="M2256.13,-58.61C2263.86,-57.57 2271.92,-56.63 2279.5,-56 2944.95,-0.69 3116.25,-77.64 3781.5,-20 3784.44,-19.75 3787.45,-19.44 3790.49,-19.09"/>
<polygon fill="midnightblue" stroke="midnightblue" points="2255.63,-55.15 2246.22,-60.02 2256.62,-62.08 2255.63,-55.15"/>
</g>
<!-- Node35 -->
<g id="node35" class="node">
<title>Node35</title>
<g id="a_node35"><a xlink:href="Assign_8cpp.html" target="_top" xlink:title=" ">
<polygon fill="white" stroke="black" points="3911,-0.5 3911,-19.5 3980,-19.5 3980,-0.5 3911,-0.5"/>
<text text-anchor="middle" x="3945.5" y="-7.5" font-family="Helvetica,sans-Serif" font-size="10.00">Assign.cpp</text>
</a>
</g>
</g>
<!-- Node7&#45;&gt;Node35 -->
<g id="edge34" class="edge">
<title>Node7&#45;&gt;Node35</title>
<path fill="none" stroke="midnightblue" d="M2256.13,-58.6C2263.86,-57.56 2271.92,-56.62 2279.5,-56 2998.14,3.09 3184.95,-100.57 3901.5,-20 3904.44,-19.67 3907.48,-19.24 3910.53,-18.74"/>
<polygon fill="midnightblue" stroke="midnightblue" points="2255.63,-55.14 2246.22,-60.01 2256.61,-62.07 2255.63,-55.14"/>
</g>
<!-- Node36 -->
<g id="node36" class="node">
<title>Node36</title>
<g id="a_node36"><a xlink:href="Statement_8cpp.html" target="_top" xlink:title=" ">
<polygon fill="white" stroke="black" points="3998.5,-0.5 3998.5,-19.5 4086.5,-19.5 4086.5,-0.5 3998.5,-0.5"/>
<text text-anchor="middle" x="4042.5" y="-7.5" font-family="Helvetica,sans-Serif" font-size="10.00">Statement.cpp</text>
</a>
</g>
</g>
<!-- Node7&#45;&gt;Node36 -->
<g id="edge35" class="edge">
<title>Node7&#45;&gt;Node36</title>
<path fill="none" stroke="midnightblue" d="M2256.13,-58.59C2263.86,-57.56 2271.92,-56.62 2279.5,-56 3037.15,5.86 3232.73,-91.83 3989.5,-20 3992.38,-19.73 3995.34,-19.39 3998.32,-19"/>
<polygon fill="midnightblue" stroke="midnightblue" points="2255.63,-55.13 2246.22,-60 2256.61,-62.06 2255.63,-55.13"/>
</g>
<!-- Node37 -->
<g id="node37" class="node">
<title>Node37</title>
<g id="a_node37"><a xlink:href="CallGraphDotWriter_8cpp.html" target="_top" xlink:title=" ">
<polygon fill="white" stroke="black" points="4104.5,-0.5 4104.5,-19.5 4236.5,-19.5 4236.5,-0.5 4104.5,-0.5"/>
<text text-anchor="middle" x="4170.5" y="-7.5" font-family="Helvetica,sans-Serif" font-size="10.00">CallGraphDotWriter.cpp</text>
</a>
</g>
</g>
<!-- Node7&#45;&gt;Node37 -->
<g id="edge36" class="edge">
<title>Node7&#45;&gt;Node37</title>
<path fill="none" stroke="midnightblue" d="M2256.13,-58.59C2263.86,-57.55 2271.92,-56.61 2279.5,-56 3084.13,9.2 3290.19,-76.16 4095.5,-20 4098.38,-19.8 4101.32,-19.57 4104.28,-19.31"/>
<polygon fill="midnightblue" stroke="midnightblue" points="2255.63,-55.12 2246.22,-59.99 2256.61,-62.05 2255.63,-55.12"/>
</g>
<!-- Node38 -->
<g id="node38" class="node">
<title>Node38</title>
<g id="a_node38"><a xlink:href="CFGDotWriter_8cpp.html" target="_top" xlink:title=" ">
<polygon fill="white" stroke="black" points="4254.5,-0.5 4254.5,-19.5 4358.5,-19.5 4358.5,-0.5 4254.5,-0.5"/>
<text text-anchor="middle" x="4306.5" y="-7.5" font-family="Helvetica,sans-Serif" font-size="10.00">CFGDotWriter.cpp</text>
</a>
</g>
</g>
<!-- Node7&#45;&gt;Node38 -->
<g id="edge37" class="edge">
<title>Node7&#45;&gt;Node38</title>
<path fill="none" stroke="midnightblue" d="M2256.13,-58.58C2263.86,-57.54 2271.92,-56.61 2279.5,-56 3150.62,13.93 3374.54,-91.93 4245.5,-20 4248.38,-19.76 4251.33,-19.47 4254.31,-19.15"/>
<polygon fill="midnightblue" stroke="midnightblue" points="2255.63,-55.11 2246.22,-59.98 2256.61,-62.04 2255.63,-55.11"/>
</g>
<!-- Node39 -->
<g id="node39" class="node">
<title>Node39</title>
<g id="a_node39"><a xlink:href="ProgSymbolWriter_8cpp.html" target="_top" xlink:title=" ">
<polygon fill="white" stroke="black" points="4377,-0.5 4377,-19.5 4502,-19.5 4502,-0.5 4377,-0.5"/>
<text text-anchor="middle" x="4439.5" y="-7.5" font-family="Helvetica,sans-Serif" font-size="10.00">ProgSymbolWriter.cpp</text>
</a>
</g>
</g>
<!-- Node7&#45;&gt;Node39 -->
<g id="edge38" class="edge">
<title>Node7&#45;&gt;Node39</title>
<path fill="none" stroke="midnightblue" d="M2256.13,-58.57C2263.86,-57.53 2271.92,-56.6 2279.5,-56 3204.7,17.77 3441.69,-85.65 4367.5,-20 4370.52,-19.79 4373.6,-19.53 4376.71,-19.25"/>
<polygon fill="midnightblue" stroke="midnightblue" points="2255.63,-55.11 2246.22,-59.98 2256.61,-62.04 2255.63,-55.11"/>
</g>
<!-- Node7&#45;&gt;Node53 -->
<g id="edge39" class="edge">
<title>Node7&#45;&gt;Node53</title>
<path fill="none" stroke="midnightblue" d="M2256.13,-58.56C2263.86,-57.53 2271.92,-56.6 2279.5,-56 3268.53,22.31 3521.41,-83.53 4511.5,-20 4514.43,-19.81 4517.42,-19.59 4520.43,-19.35"/>
<polygon fill="midnightblue" stroke="midnightblue" points="2255.63,-55.1 2246.22,-59.97 2256.61,-62.03 2255.63,-55.1"/>
</g>
<!-- Node70&#45;&gt;Node69 -->
<g id="edge51" class="edge">
<title>Node70&#45;&gt;Node69</title>
<path fill="none" stroke="midnightblue" d="M3345.84,-166.66C3404.42,-156.46 3492.95,-141.04 3547.61,-131.52"/>
<polygon fill="midnightblue" stroke="midnightblue" points="3344.87,-163.28 3335.62,-168.44 3346.07,-170.18 3344.87,-163.28"/>
</g>
</g>
</svg>
