<?xml version="1.0" encoding="UTF-8" standalone="no"?>
<!DOCTYPE svg PUBLIC "-//W3C//DTD SVG 1.1//EN"
 "http://www.w3.org/Graphics/SVG/1.1/DTD/svg11.dtd">
<!-- Generated by graphviz version 2.43.0 (0)
 -->
<!-- Title: Location.cpp Pages: 1 -->
<svg width="1852pt" height="397pt"
 viewBox="0.00 0.00 1851.50 397.00" xmlns="http://www.w3.org/2000/svg" xmlns:xlink="http://www.w3.org/1999/xlink">
<g id="graph0" class="graph" transform="scale(1 1) rotate(0) translate(4 393)">
<title>Location.cpp</title>
<polygon fill="white" stroke="transparent" points="-4,4 -4,-393 1847.5,-393 1847.5,4 -4,4"/>
<!-- Node1 -->
<g id="node1" class="node">
<title>Node1</title>
<g id="a_node1"><a xlink:title=" ">
<polygon fill="#bfbfbf" stroke="black" points="903.5,-369.5 903.5,-388.5 981.5,-388.5 981.5,-369.5 903.5,-369.5"/>
<text text-anchor="middle" x="942.5" y="-376.5" font-family="Helvetica,sans-Serif" font-size="10.00">Location.cpp</text>
</a>
</g>
</g>
<!-- Node2 -->
<g id="node2" class="node">
<title>Node2</title>
<g id="a_node2"><a xlink:href="Location_8h.html" target="_top" xlink:title=" ">
<polygon fill="white" stroke="black" points="779,-313.5 779,-332.5 846,-332.5 846,-313.5 779,-313.5"/>
<text text-anchor="middle" x="812.5" y="-320.5" font-family="Helvetica,sans-Serif" font-size="10.00">Location.h</text>
</a>
</g>
</g>
<!-- Node1&#45;&gt;Node2 -->
<g id="edge1" class="edge">
<title>Node1&#45;&gt;Node2</title>
<path fill="none" stroke="midnightblue" d="M921.9,-369.44C900.51,-360.56 866.82,-346.56 842.48,-336.45"/>
<polygon fill="midnightblue" stroke="midnightblue" points="843.58,-333.12 833,-332.52 840.89,-339.58 843.58,-333.12"/>
</g>
<!-- Node21 -->
<g id="node21" class="node">
<title>Node21</title>
<g id="a_node21"><a xlink:href="Const_8h.html" target="_top" xlink:title=" ">
<polygon fill="white" stroke="black" points="316,-252 316,-271 465,-271 465,-252 316,-252"/>
<text text-anchor="middle" x="390.5" y="-259" font-family="Helvetica,sans-Serif" font-size="10.00">boomerang/ssl/exp/Const.h</text>
</a>
</g>
</g>
<!-- Node1&#45;&gt;Node21 -->
<g id="edge27" class="edge">
<title>Node1&#45;&gt;Node21</title>
<path fill="none" stroke="midnightblue" d="M903.24,-369.79C805.41,-349.32 550.8,-296.04 441.53,-273.18"/>
<polygon fill="midnightblue" stroke="midnightblue" points="441.92,-269.68 431.42,-271.06 440.49,-276.54 441.92,-269.68"/>
</g>
<!-- Node24 -->
<g id="node24" class="node">
<title>Node24</title>
<g id="a_node24"><a xlink:href="RefExp_8h.html" target="_top" xlink:title=" ">
<polygon fill="white" stroke="black" points="864.5,-313.5 864.5,-332.5 1020.5,-332.5 1020.5,-313.5 864.5,-313.5"/>
<text text-anchor="middle" x="942.5" y="-320.5" font-family="Helvetica,sans-Serif" font-size="10.00">boomerang/ssl/exp/RefExp.h</text>
</a>
</g>
</g>
<!-- Node1&#45;&gt;Node24 -->
<g id="edge35" class="edge">
<title>Node1&#45;&gt;Node24</title>
<path fill="none" stroke="midnightblue" d="M942.5,-369.08C942.5,-362.01 942.5,-351.86 942.5,-342.99"/>
<polygon fill="midnightblue" stroke="midnightblue" points="946,-342.75 942.5,-332.75 939,-342.75 946,-342.75"/>
</g>
<!-- Node25 -->
<g id="node25" class="node">
<title>Node25</title>
<g id="a_node25"><a xlink:href="LocationSet_8h.html" target="_top" xlink:title=" ">
<polygon fill="white" stroke="black" points="1009.5,-252 1009.5,-271 1169.5,-271 1169.5,-252 1009.5,-252"/>
<text text-anchor="middle" x="1089.5" y="-259" font-family="Helvetica,sans-Serif" font-size="10.00">boomerang/util/LocationSet.h</text>
</a>
</g>
</g>
<!-- Node1&#45;&gt;Node25 -->
<g id="edge37" class="edge">
<title>Node1&#45;&gt;Node25</title>
<path fill="none" stroke="midnightblue" d="M964.62,-369.41C983.09,-361.59 1009.53,-348.87 1029.5,-333 1048.88,-317.6 1066.66,-295.21 1077.75,-279.81"/>
<polygon fill="midnightblue" stroke="midnightblue" points="1080.87,-281.46 1083.74,-271.26 1075.14,-277.44 1080.87,-281.46"/>
</g>
<!-- Node28 -->
<g id="node28" class="node">
<title>Node28</title>
<g id="a_node28"><a xlink:href="Log_8h.html" target="_top" xlink:title=" ">
<polygon fill="white" stroke="black" points="653,-246.5 653,-276.5 762,-276.5 762,-246.5 653,-246.5"/>
<text text-anchor="start" x="661" y="-264.5" font-family="Helvetica,sans-Serif" font-size="10.00">boomerang/util/log</text>
<text text-anchor="middle" x="707.5" y="-253.5" font-family="Helvetica,sans-Serif" font-size="10.00">/Log.h</text>
</a>
</g>
</g>
<!-- Node1&#45;&gt;Node28 -->
<g id="edge45" class="edge">
<title>Node1&#45;&gt;Node28</title>
<path fill="none" stroke="midnightblue" d="M903.15,-374.43C866.3,-369.61 810.86,-358.47 769.5,-333 750.01,-321 733.24,-300.95 722.08,-285.29"/>
<polygon fill="midnightblue" stroke="midnightblue" points="724.72,-282.95 716.18,-276.67 718.94,-286.9 724.72,-282.95"/>
</g>
<!-- Node29 -->
<g id="node29" class="node">
<title>Node29</title>
<g id="a_node29"><a xlink:href="ExpModifier_8h.html" target="_top" xlink:title=" ">
<polygon fill="white" stroke="black" points="1461.5,-123.5 1461.5,-153.5 1629.5,-153.5 1629.5,-123.5 1461.5,-123.5"/>
<text text-anchor="start" x="1469.5" y="-141.5" font-family="Helvetica,sans-Serif" font-size="10.00">boomerang/visitor/expmodifier</text>
<text text-anchor="middle" x="1545.5" y="-130.5" font-family="Helvetica,sans-Serif" font-size="10.00">/ExpModifier.h</text>
</a>
</g>
</g>
<!-- Node1&#45;&gt;Node29 -->
<g id="edge50" class="edge">
<title>Node1&#45;&gt;Node29</title>
<path fill="none" stroke="midnightblue" d="M964.32,-369.37C1052,-334.69 1379.75,-205.06 1500.48,-157.31"/>
<polygon fill="midnightblue" stroke="midnightblue" points="1501.81,-160.54 1509.83,-153.61 1499.24,-154.03 1501.81,-160.54"/>
</g>
<!-- Node30 -->
<g id="node30" class="node">
<title>Node30</title>
<g id="a_node30"><a xlink:href="ExpVisitor_8h.html" target="_top" xlink:title=" ">
<polygon fill="white" stroke="black" points="1685.5,-123.5 1685.5,-153.5 1843.5,-153.5 1843.5,-123.5 1685.5,-123.5"/>
<text text-anchor="start" x="1693.5" y="-141.5" font-family="Helvetica,sans-Serif" font-size="10.00">boomerang/visitor/expvisitor</text>
<text text-anchor="middle" x="1764.5" y="-130.5" font-family="Helvetica,sans-Serif" font-size="10.00">/ExpVisitor.h</text>
</a>
</g>
</g>
<!-- Node1&#45;&gt;Node30 -->
<g id="edge53" class="edge">
<title>Node1&#45;&gt;Node30</title>
<path fill="none" stroke="midnightblue" d="M972.24,-369.37C1092.55,-334.46 1544.47,-203.34 1706.36,-156.37"/>
<polygon fill="midnightblue" stroke="midnightblue" points="1707.51,-159.68 1716.14,-153.53 1705.56,-152.96 1707.51,-159.68"/>
</g>
<!-- Node3 -->
<g id="node3" class="node">
<title>Node3</title>
<g id="a_node3"><a xlink:href="Register_8h.html" target="_top" xlink:title=" ">
<polygon fill="white" stroke="black" points="320,-190.5 320,-209.5 461,-209.5 461,-190.5 320,-190.5"/>
<text text-anchor="middle" x="390.5" y="-197.5" font-family="Helvetica,sans-Serif" font-size="10.00">boomerang/ssl/Register.h</text>
</a>
</g>
</g>
<!-- Node2&#45;&gt;Node3 -->
<g id="edge2" class="edge">
<title>Node2&#45;&gt;Node3</title>
<path fill="none" stroke="midnightblue" d="M810.44,-313.15C806.14,-296.82 794.52,-262.15 770.5,-246 723.11,-214.14 568,-204.78 471.22,-202.06"/>
<polygon fill="midnightblue" stroke="midnightblue" points="471.26,-198.56 461.17,-201.8 471.07,-205.56 471.26,-198.56"/>
</g>
<!-- Node11 -->
<g id="node11" class="node">
<title>Node11</title>
<g id="a_node11"><a xlink:href="Unary_8h.html" target="_top" xlink:title=" ">
<polygon fill="white" stroke="black" points="842,-252 842,-271 991,-271 991,-252 842,-252"/>
<text text-anchor="middle" x="916.5" y="-259" font-family="Helvetica,sans-Serif" font-size="10.00">boomerang/ssl/exp/Unary.h</text>
</a>
</g>
</g>
<!-- Node2&#45;&gt;Node11 -->
<g id="edge10" class="edge">
<title>Node2&#45;&gt;Node11</title>
<path fill="none" stroke="midnightblue" d="M827.4,-313.48C844.47,-303.71 872.66,-287.58 892.76,-276.08"/>
<polygon fill="midnightblue" stroke="midnightblue" points="894.69,-279.01 901.63,-271.01 891.21,-272.94 894.69,-279.01"/>
</g>
<!-- Node4 -->
<g id="node4" class="node">
<title>Node4</title>
<g id="a_node4"><a xlink:href="BoomerangAPI_8h.html" target="_top" xlink:title=" ">
<polygon fill="white" stroke="black" points="754,-56.5 754,-86.5 909,-86.5 909,-56.5 754,-56.5"/>
<text text-anchor="start" x="762" y="-74.5" font-family="Helvetica,sans-Serif" font-size="10.00">boomerang/core/Boomerang</text>
<text text-anchor="middle" x="831.5" y="-63.5" font-family="Helvetica,sans-Serif" font-size="10.00">API.h</text>
</a>
</g>
</g>
<!-- Node3&#45;&gt;Node4 -->
<g id="edge3" class="edge">
<title>Node3&#45;&gt;Node4</title>
<path fill="none" stroke="midnightblue" d="M461.13,-191.08C502.48,-184.66 554.96,-173.38 598.5,-154 620.02,-144.42 620.21,-133.08 641.5,-123 673.51,-107.84 710.79,-96.68 743.8,-88.76"/>
<polygon fill="midnightblue" stroke="midnightblue" points="744.96,-92.08 753.9,-86.4 743.37,-85.26 744.96,-92.08"/>
</g>
<!-- Node5 -->
<g id="node5" class="node">
<title>Node5</title>
<g id="a_node5"><a xlink:href="Types_8h.html" target="_top" xlink:title=" ">
<polygon fill="white" stroke="black" points="126,-62 126,-81 257,-81 257,-62 126,-62"/>
<text text-anchor="middle" x="191.5" y="-69" font-family="Helvetica,sans-Serif" font-size="10.00">boomerang/util/Types.h</text>
</a>
</g>
</g>
<!-- Node3&#45;&gt;Node5 -->
<g id="edge4" class="edge">
<title>Node3&#45;&gt;Node5</title>
<path fill="none" stroke="midnightblue" d="M364.09,-190.44C341.93,-182.65 309.9,-169.94 284.5,-154 268.39,-143.89 230.01,-108.71 207.92,-88.03"/>
<polygon fill="midnightblue" stroke="midnightblue" points="210.27,-85.43 200.59,-81.13 205.48,-90.53 210.27,-85.43"/>
</g>
<!-- Node7 -->
<g id="node7" class="node">
<title>Node7</title>
<g id="a_node7"><a xlink:title=" ">
<polygon fill="white" stroke="#bfbfbf" points="184,-129 184,-148 237,-148 237,-129 184,-129"/>
<text text-anchor="middle" x="210.5" y="-136" font-family="Helvetica,sans-Serif" font-size="10.00">QString</text>
</a>
</g>
</g>
<!-- Node3&#45;&gt;Node7 -->
<g id="edge6" class="edge">
<title>Node3&#45;&gt;Node7</title>
<path fill="none" stroke="midnightblue" d="M363.26,-190.42C335.19,-181.52 290.18,-167.1 251.5,-154 249.06,-153.17 246.54,-152.31 244.01,-151.43"/>
<polygon fill="midnightblue" stroke="midnightblue" points="244.91,-148.04 234.31,-148.04 242.6,-154.65 244.91,-148.04"/>
</g>
<!-- Node8 -->
<g id="node8" class="node">
<title>Node8</title>
<g id="a_node8"><a xlink:title=" ">
<polygon fill="white" stroke="#bfbfbf" points="1404.5,-62 1404.5,-81 1462.5,-81 1462.5,-62 1404.5,-62"/>
<text text-anchor="middle" x="1433.5" y="-69" font-family="Helvetica,sans-Serif" font-size="10.00">memory</text>
</a>
</g>
</g>
<!-- Node3&#45;&gt;Node8 -->
<g id="edge7" class="edge">
<title>Node3&#45;&gt;Node8</title>
<path fill="none" stroke="midnightblue" d="M461.22,-194.86C511.4,-189.83 579.36,-178.68 634.5,-154 655.03,-144.81 653.47,-130.98 674.5,-123 741.95,-97.39 1247.33,-78.7 1393.82,-73.78"/>
<polygon fill="midnightblue" stroke="midnightblue" points="1394.25,-77.27 1404.13,-73.44 1394.02,-70.27 1394.25,-77.27"/>
</g>
<!-- Node9 -->
<g id="node9" class="node">
<title>Node9</title>
<g id="a_node9"><a xlink:title=" ">
<polygon fill="white" stroke="#bfbfbf" points="293.5,-129 293.5,-148 337.5,-148 337.5,-129 293.5,-129"/>
<text text-anchor="middle" x="315.5" y="-136" font-family="Helvetica,sans-Serif" font-size="10.00">string</text>
</a>
</g>
</g>
<!-- Node3&#45;&gt;Node9 -->
<g id="edge8" class="edge">
<title>Node3&#45;&gt;Node9</title>
<path fill="none" stroke="midnightblue" d="M379.75,-190.48C367.95,-181.11 348.76,-165.88 334.42,-154.51"/>
<polygon fill="midnightblue" stroke="midnightblue" points="336.24,-151.48 326.23,-148.01 331.88,-156.97 336.24,-151.48"/>
</g>
<!-- Node10 -->
<g id="node10" class="node">
<title>Node10</title>
<g id="a_node10"><a xlink:title=" ">
<polygon fill="white" stroke="#bfbfbf" points="356,-129 356,-148 425,-148 425,-129 356,-129"/>
<text text-anchor="middle" x="390.5" y="-136" font-family="Helvetica,sans-Serif" font-size="10.00">type_traits</text>
</a>
</g>
</g>
<!-- Node3&#45;&gt;Node10 -->
<g id="edge9" class="edge">
<title>Node3&#45;&gt;Node10</title>
<path fill="none" stroke="midnightblue" d="M390.5,-190.48C390.5,-182.08 390.5,-168.98 390.5,-158.16"/>
<polygon fill="midnightblue" stroke="midnightblue" points="394,-158.01 390.5,-148.01 387,-158.01 394,-158.01"/>
</g>
<!-- Node6 -->
<g id="node6" class="node">
<title>Node6</title>
<g id="a_node6"><a xlink:title=" ">
<polygon fill="white" stroke="#bfbfbf" points="166.5,-0.5 166.5,-19.5 216.5,-19.5 216.5,-0.5 166.5,-0.5"/>
<text text-anchor="middle" x="191.5" y="-7.5" font-family="Helvetica,sans-Serif" font-size="10.00">cstdint</text>
</a>
</g>
</g>
<!-- Node5&#45;&gt;Node6 -->
<g id="edge5" class="edge">
<title>Node5&#45;&gt;Node6</title>
<path fill="none" stroke="midnightblue" d="M191.5,-61.98C191.5,-53.58 191.5,-40.48 191.5,-29.66"/>
<polygon fill="midnightblue" stroke="midnightblue" points="195,-29.51 191.5,-19.51 188,-29.51 195,-29.51"/>
</g>
<!-- Node12 -->
<g id="node12" class="node">
<title>Node12</title>
<g id="a_node12"><a xlink:href="Exp_8h.html" target="_top" xlink:title=" ">
<polygon fill="white" stroke="black" points="854.5,-190.5 854.5,-209.5 994.5,-209.5 994.5,-190.5 854.5,-190.5"/>
<text text-anchor="middle" x="924.5" y="-197.5" font-family="Helvetica,sans-Serif" font-size="10.00">boomerang/ssl/exp/Exp.h</text>
</a>
</g>
</g>
<!-- Node11&#45;&gt;Node12 -->
<g id="edge11" class="edge">
<title>Node11&#45;&gt;Node12</title>
<path fill="none" stroke="midnightblue" d="M917.65,-251.98C918.77,-243.58 920.54,-230.48 921.99,-219.66"/>
<polygon fill="midnightblue" stroke="midnightblue" points="925.49,-219.89 923.36,-209.51 918.55,-218.95 925.49,-219.89"/>
</g>
<!-- Node12&#45;&gt;Node7 -->
<g id="edge21" class="edge">
<title>Node12&#45;&gt;Node7</title>
<path fill="none" stroke="midnightblue" d="M854.13,-196.89C735.98,-192.71 490.43,-181.31 284.5,-154 272.25,-152.38 258.98,-149.98 247.1,-147.6"/>
<polygon fill="midnightblue" stroke="midnightblue" points="247.59,-144.13 237.09,-145.53 246.17,-150.98 247.59,-144.13"/>
</g>
<!-- Node12&#45;&gt;Node8 -->
<g id="edge24" class="edge">
<title>Node12&#45;&gt;Node8</title>
<path fill="none" stroke="midnightblue" d="M954.79,-190.4C979.36,-182.75 1014.41,-170.24 1042.5,-154 1061.37,-143.09 1060.54,-131.75 1080.5,-123 1136.19,-98.58 1314.25,-81.91 1394.1,-75.46"/>
<polygon fill="midnightblue" stroke="midnightblue" points="1394.55,-78.94 1404.24,-74.66 1394,-71.96 1394.55,-78.94"/>
</g>
<!-- Node13 -->
<g id="node13" class="node">
<title>Node13</title>
<g id="a_node13"><a xlink:href="ExpHelp_8h.html" target="_top" xlink:title=" ">
<polygon fill="white" stroke="black" points="1139.5,-129 1139.5,-148 1301.5,-148 1301.5,-129 1139.5,-129"/>
<text text-anchor="middle" x="1220.5" y="-136" font-family="Helvetica,sans-Serif" font-size="10.00">boomerang/ssl/exp/ExpHelp.h</text>
</a>
</g>
</g>
<!-- Node12&#45;&gt;Node13 -->
<g id="edge12" class="edge">
<title>Node12&#45;&gt;Node13</title>
<path fill="none" stroke="midnightblue" d="M966.91,-190.48C1019.99,-179.8 1110.89,-161.53 1168.22,-150.01"/>
<polygon fill="midnightblue" stroke="midnightblue" points="1169.05,-153.41 1178.17,-148.01 1167.68,-146.55 1169.05,-153.41"/>
</g>
<!-- Node14 -->
<g id="node14" class="node">
<title>Node14</title>
<g id="a_node14"><a xlink:href="Operator_8h.html" target="_top" xlink:title=" ">
<polygon fill="white" stroke="black" points="749.5,-129 749.5,-148 913.5,-148 913.5,-129 749.5,-129"/>
<text text-anchor="middle" x="831.5" y="-136" font-family="Helvetica,sans-Serif" font-size="10.00">boomerang/ssl/exp/Operator.h</text>
</a>
</g>
</g>
<!-- Node12&#45;&gt;Node14 -->
<g id="edge15" class="edge">
<title>Node12&#45;&gt;Node14</title>
<path fill="none" stroke="midnightblue" d="M911.18,-190.48C896.12,-180.84 871.38,-165.02 853.46,-153.55"/>
<polygon fill="midnightblue" stroke="midnightblue" points="855.11,-150.45 844.8,-148.01 851.34,-156.35 855.11,-150.45"/>
</g>
<!-- Node15 -->
<g id="node15" class="node">
<title>Node15</title>
<g id="a_node15"><a xlink:href="OStream_8h.html" target="_top" xlink:title=" ">
<polygon fill="white" stroke="black" points="443.5,-129 443.5,-148 589.5,-148 589.5,-129 443.5,-129"/>
<text text-anchor="middle" x="516.5" y="-136" font-family="Helvetica,sans-Serif" font-size="10.00">boomerang/util/OStream.h</text>
</a>
</g>
</g>
<!-- Node12&#45;&gt;Node15 -->
<g id="edge17" class="edge">
<title>Node12&#45;&gt;Node15</title>
<path fill="none" stroke="midnightblue" d="M866.04,-190.48C791.82,-179.65 663.94,-161 585.15,-149.51"/>
<polygon fill="midnightblue" stroke="midnightblue" points="585.25,-145.99 574.85,-148.01 584.24,-152.92 585.25,-145.99"/>
</g>
<!-- Node17 -->
<g id="node17" class="node">
<title>Node17</title>
<g id="a_node17"><a xlink:title=" ">
<polygon fill="white" stroke="#bfbfbf" points="931.5,-129 931.5,-148 983.5,-148 983.5,-129 931.5,-129"/>
<text text-anchor="middle" x="957.5" y="-136" font-family="Helvetica,sans-Serif" font-size="10.00">cassert</text>
</a>
</g>
</g>
<!-- Node12&#45;&gt;Node17 -->
<g id="edge22" class="edge">
<title>Node12&#45;&gt;Node17</title>
<path fill="none" stroke="midnightblue" d="M929.23,-190.48C934.08,-181.73 941.77,-167.87 947.9,-156.81"/>
<polygon fill="midnightblue" stroke="midnightblue" points="950.99,-158.45 952.78,-148.01 944.87,-155.06 950.99,-158.45"/>
</g>
<!-- Node18 -->
<g id="node18" class="node">
<title>Node18</title>
<g id="a_node18"><a xlink:title=" ">
<polygon fill="white" stroke="#bfbfbf" points="1001.5,-129 1001.5,-148 1033.5,-148 1033.5,-129 1001.5,-129"/>
<text text-anchor="middle" x="1017.5" y="-136" font-family="Helvetica,sans-Serif" font-size="10.00">list</text>
</a>
</g>
</g>
<!-- Node12&#45;&gt;Node18 -->
<g id="edge23" class="edge">
<title>Node12&#45;&gt;Node18</title>
<path fill="none" stroke="midnightblue" d="M937.82,-190.48C952.88,-180.84 977.62,-165.02 995.54,-153.55"/>
<polygon fill="midnightblue" stroke="midnightblue" points="997.66,-156.35 1004.2,-148.01 993.89,-150.45 997.66,-156.35"/>
</g>
<!-- Node19 -->
<g id="node19" class="node">
<title>Node19</title>
<g id="a_node19"><a xlink:title=" ">
<polygon fill="white" stroke="#bfbfbf" points="1089.5,-129 1089.5,-148 1121.5,-148 1121.5,-129 1089.5,-129"/>
<text text-anchor="middle" x="1105.5" y="-136" font-family="Helvetica,sans-Serif" font-size="10.00">set</text>
</a>
</g>
</g>
<!-- Node12&#45;&gt;Node19 -->
<g id="edge25" class="edge">
<title>Node12&#45;&gt;Node19</title>
<path fill="none" stroke="midnightblue" d="M958.91,-190.44C989.86,-182.34 1036.35,-169.18 1075.5,-154 1076.92,-153.45 1078.36,-152.86 1079.8,-152.25"/>
<polygon fill="midnightblue" stroke="midnightblue" points="1081.56,-155.29 1089.21,-147.96 1078.65,-148.92 1081.56,-155.29"/>
</g>
<!-- Node20 -->
<g id="node20" class="node">
<title>Node20</title>
<g id="a_node20"><a xlink:title=" ">
<polygon fill="white" stroke="#bfbfbf" points="684,-129 684,-148 731,-148 731,-129 684,-129"/>
<text text-anchor="middle" x="707.5" y="-136" font-family="Helvetica,sans-Serif" font-size="10.00">vector</text>
</a>
</g>
</g>
<!-- Node12&#45;&gt;Node20 -->
<g id="edge26" class="edge">
<title>Node12&#45;&gt;Node20</title>
<path fill="none" stroke="midnightblue" d="M880.39,-190.47C842.73,-182.65 787.37,-169.89 740.5,-154 738.63,-153.37 736.73,-152.67 734.82,-151.93"/>
<polygon fill="midnightblue" stroke="midnightblue" points="736.01,-148.64 725.43,-148.05 733.34,-155.11 736.01,-148.64"/>
</g>
<!-- Node13&#45;&gt;Node4 -->
<g id="edge13" class="edge">
<title>Node13&#45;&gt;Node4</title>
<path fill="none" stroke="midnightblue" d="M1169.25,-128.94C1105.67,-118.31 996.27,-100.03 919.24,-87.16"/>
<polygon fill="midnightblue" stroke="midnightblue" points="919.51,-83.66 909.07,-85.46 918.35,-90.56 919.51,-83.66"/>
</g>
<!-- Node13&#45;&gt;Node8 -->
<g id="edge14" class="edge">
<title>Node13&#45;&gt;Node8</title>
<path fill="none" stroke="midnightblue" d="M1248.78,-128.87C1286.61,-117.33 1353.75,-96.84 1395.83,-84"/>
<polygon fill="midnightblue" stroke="midnightblue" points="1396.89,-87.33 1405.44,-81.06 1394.85,-80.63 1396.89,-87.33"/>
</g>
<!-- Node14&#45;&gt;Node4 -->
<g id="edge16" class="edge">
<title>Node14&#45;&gt;Node4</title>
<path fill="none" stroke="midnightblue" d="M831.5,-128.73C831.5,-120.54 831.5,-107.92 831.5,-96.71"/>
<polygon fill="midnightblue" stroke="midnightblue" points="835,-96.59 831.5,-86.59 828,-96.59 835,-96.59"/>
</g>
<!-- Node15&#45;&gt;Node4 -->
<g id="edge18" class="edge">
<title>Node15&#45;&gt;Node4</title>
<path fill="none" stroke="midnightblue" d="M558,-128.94C607.54,-118.71 691.42,-101.41 753.25,-88.65"/>
<polygon fill="midnightblue" stroke="midnightblue" points="754.28,-92.01 763.37,-86.56 752.87,-85.15 754.28,-92.01"/>
</g>
<!-- Node15&#45;&gt;Node5 -->
<g id="edge19" class="edge">
<title>Node15&#45;&gt;Node5</title>
<path fill="none" stroke="midnightblue" d="M473.68,-128.94C414.53,-117.11 307.92,-95.78 244.03,-83.01"/>
<polygon fill="midnightblue" stroke="midnightblue" points="244.65,-79.56 234.16,-81.03 243.28,-86.43 244.65,-79.56"/>
</g>
<!-- Node16 -->
<g id="node16" class="node">
<title>Node16</title>
<g id="a_node16"><a xlink:title=" ">
<polygon fill="white" stroke="#bfbfbf" points="493.5,-62 493.5,-81 539.5,-81 539.5,-62 493.5,-62"/>
<text text-anchor="middle" x="516.5" y="-69" font-family="Helvetica,sans-Serif" font-size="10.00">cstdio</text>
</a>
</g>
</g>
<!-- Node15&#45;&gt;Node16 -->
<g id="edge20" class="edge">
<title>Node15&#45;&gt;Node16</title>
<path fill="none" stroke="midnightblue" d="M516.5,-128.73C516.5,-119.18 516.5,-103.62 516.5,-91.28"/>
<polygon fill="midnightblue" stroke="midnightblue" points="520,-91.13 516.5,-81.13 513,-91.13 520,-91.13"/>
</g>
<!-- Node21&#45;&gt;Node12 -->
<g id="edge28" class="edge">
<title>Node21&#45;&gt;Node12</title>
<path fill="none" stroke="midnightblue" d="M465.03,-252.2C564.96,-241.06 741.64,-221.37 844.35,-209.93"/>
<polygon fill="midnightblue" stroke="midnightblue" points="844.81,-213.4 854.36,-208.82 844.03,-206.44 844.81,-213.4"/>
</g>
<!-- Node22 -->
<g id="node22" class="node">
<title>Node22</title>
<g id="a_node22"><a xlink:href="Address_8h.html" target="_top" xlink:title=" ">
<polygon fill="white" stroke="black" points="149.5,-190.5 149.5,-209.5 291.5,-209.5 291.5,-190.5 149.5,-190.5"/>
<text text-anchor="middle" x="220.5" y="-197.5" font-family="Helvetica,sans-Serif" font-size="10.00">boomerang/util/Address.h</text>
</a>
</g>
</g>
<!-- Node21&#45;&gt;Node22 -->
<g id="edge29" class="edge">
<title>Node21&#45;&gt;Node22</title>
<path fill="none" stroke="midnightblue" d="M366.14,-251.98C336.86,-241.72 287.53,-224.46 254.5,-212.9"/>
<polygon fill="midnightblue" stroke="midnightblue" points="255.41,-209.51 244.81,-209.51 253.09,-216.12 255.41,-209.51"/>
</g>
<!-- Node23 -->
<g id="node23" class="node">
<title>Node23</title>
<g id="a_node23"><a xlink:title=" ">
<polygon fill="white" stroke="#bfbfbf" points="0,-190.5 0,-209.5 51,-209.5 51,-190.5 0,-190.5"/>
<text text-anchor="middle" x="25.5" y="-197.5" font-family="Helvetica,sans-Serif" font-size="10.00">variant</text>
</a>
</g>
</g>
<!-- Node21&#45;&gt;Node23 -->
<g id="edge34" class="edge">
<title>Node21&#45;&gt;Node23</title>
<path fill="none" stroke="midnightblue" d="M327.37,-251.97C261.73,-242.8 156.1,-227.21 65.5,-210 64.06,-209.73 62.59,-209.44 61.11,-209.14"/>
<polygon fill="midnightblue" stroke="midnightblue" points="61.77,-205.7 51.27,-207.06 60.33,-212.55 61.77,-205.7"/>
</g>
<!-- Node22&#45;&gt;Node4 -->
<g id="edge30" class="edge">
<title>Node22&#45;&gt;Node4</title>
<path fill="none" stroke="midnightblue" d="M208.32,-190.26C188.84,-175.29 154.8,-144.27 174.5,-123 184.06,-112.68 567.21,-88.38 743.89,-77.7"/>
<polygon fill="midnightblue" stroke="midnightblue" points="744.17,-81.19 753.95,-77.09 743.75,-74.2 744.17,-81.19"/>
</g>
<!-- Node22&#45;&gt;Node5 -->
<g id="edge32" class="edge">
<title>Node22&#45;&gt;Node5</title>
<path fill="none" stroke="midnightblue" d="M190.62,-190.39C172.96,-183.59 152.05,-172.15 141.5,-154 127.85,-130.52 152.08,-103.76 171.34,-87.5"/>
<polygon fill="midnightblue" stroke="midnightblue" points="173.55,-90.21 179.16,-81.22 169.17,-84.75 173.55,-90.21"/>
</g>
<!-- Node22&#45;&gt;Node7 -->
<g id="edge33" class="edge">
<title>Node22&#45;&gt;Node7</title>
<path fill="none" stroke="midnightblue" d="M219.07,-190.48C217.66,-182.08 215.45,-168.98 213.64,-158.16"/>
<polygon fill="midnightblue" stroke="midnightblue" points="217.04,-157.29 211.93,-148.01 210.14,-158.45 217.04,-157.29"/>
</g>
<!-- Node22&#45;&gt;Node15 -->
<g id="edge31" class="edge">
<title>Node22&#45;&gt;Node15</title>
<path fill="none" stroke="midnightblue" d="M262.91,-190.48C315.99,-179.8 406.89,-161.53 464.22,-150.01"/>
<polygon fill="midnightblue" stroke="midnightblue" points="465.05,-153.41 474.17,-148.01 463.68,-146.55 465.05,-153.41"/>
</g>
<!-- Node24&#45;&gt;Node11 -->
<g id="edge36" class="edge">
<title>Node24&#45;&gt;Node11</title>
<path fill="none" stroke="midnightblue" d="M938.77,-313.48C935.03,-304.9 929.14,-291.43 924.36,-280.48"/>
<polygon fill="midnightblue" stroke="midnightblue" points="927.43,-278.77 920.22,-271.01 921.02,-281.57 927.43,-278.77"/>
</g>
<!-- Node25&#45;&gt;Node12 -->
<g id="edge38" class="edge">
<title>Node25&#45;&gt;Node12</title>
<path fill="none" stroke="midnightblue" d="M1065.86,-251.98C1037.56,-241.77 989.97,-224.61 957.91,-213.05"/>
<polygon fill="midnightblue" stroke="midnightblue" points="958.69,-209.61 948.1,-209.51 956.32,-216.19 958.69,-209.61"/>
</g>
<!-- Node26 -->
<g id="node26" class="node">
<title>Node26</title>
<g id="a_node26"><a xlink:href="ExpSet_8h.html" target="_top" xlink:title=" ">
<polygon fill="white" stroke="black" points="1045,-190.5 1045,-209.5 1182,-209.5 1182,-190.5 1045,-190.5"/>
<text text-anchor="middle" x="1113.5" y="-197.5" font-family="Helvetica,sans-Serif" font-size="10.00">boomerang/util/ExpSet.h</text>
</a>
</g>
</g>
<!-- Node25&#45;&gt;Node26 -->
<g id="edge39" class="edge">
<title>Node25&#45;&gt;Node26</title>
<path fill="none" stroke="midnightblue" d="M1092.94,-251.98C1096.4,-243.4 1101.83,-229.93 1106.25,-218.98"/>
<polygon fill="midnightblue" stroke="midnightblue" points="1109.57,-220.09 1110.07,-209.51 1103.08,-217.47 1109.57,-220.09"/>
</g>
<!-- Node26&#45;&gt;Node8 -->
<g id="edge42" class="edge">
<title>Node26&#45;&gt;Node8</title>
<path fill="none" stroke="midnightblue" d="M1182.1,-197.46C1260.3,-194.25 1381.59,-184.36 1414.5,-154 1431.66,-138.17 1434.76,-110.11 1434.7,-91.41"/>
<polygon fill="midnightblue" stroke="midnightblue" points="1438.19,-91.04 1434.34,-81.16 1431.19,-91.28 1438.19,-91.04"/>
</g>
<!-- Node26&#45;&gt;Node13 -->
<g id="edge40" class="edge">
<title>Node26&#45;&gt;Node13</title>
<path fill="none" stroke="midnightblue" d="M1128.83,-190.48C1146.47,-180.67 1175.66,-164.43 1196.36,-152.92"/>
<polygon fill="midnightblue" stroke="midnightblue" points="1198.16,-155.93 1205.2,-148.01 1194.76,-149.81 1198.16,-155.93"/>
</g>
<!-- Node26&#45;&gt;Node15 -->
<g id="edge41" class="edge">
<title>Node26&#45;&gt;Node15</title>
<path fill="none" stroke="midnightblue" d="M1044.73,-192.15C934.49,-181.16 718.62,-159.64 599.81,-147.8"/>
<polygon fill="midnightblue" stroke="midnightblue" points="599.97,-144.3 589.68,-146.79 599.28,-151.27 599.97,-144.3"/>
</g>
<!-- Node26&#45;&gt;Node19 -->
<g id="edge43" class="edge">
<title>Node26&#45;&gt;Node19</title>
<path fill="none" stroke="midnightblue" d="M1112.35,-190.48C1111.23,-182.08 1109.46,-168.98 1108.01,-158.16"/>
<polygon fill="midnightblue" stroke="midnightblue" points="1111.45,-157.45 1106.64,-148.01 1104.51,-158.39 1111.45,-157.45"/>
</g>
<!-- Node27 -->
<g id="node27" class="node">
<title>Node27</title>
<g id="a_node27"><a xlink:title=" ">
<polygon fill="white" stroke="#bfbfbf" points="1319.5,-129 1319.5,-148 1405.5,-148 1405.5,-129 1319.5,-129"/>
<text text-anchor="middle" x="1362.5" y="-136" font-family="Helvetica,sans-Serif" font-size="10.00">unordered_set</text>
</a>
</g>
</g>
<!-- Node26&#45;&gt;Node27 -->
<g id="edge44" class="edge">
<title>Node26&#45;&gt;Node27</title>
<path fill="none" stroke="midnightblue" d="M1153.25,-190.5C1193.13,-181.83 1256.26,-167.75 1310.5,-154 1314.59,-152.96 1318.85,-151.84 1323.09,-150.7"/>
<polygon fill="midnightblue" stroke="midnightblue" points="1324.15,-154.04 1332.87,-148.02 1322.3,-147.29 1324.15,-154.04"/>
</g>
<!-- Node28&#45;&gt;Node5 -->
<g id="edge47" class="edge">
<title>Node28&#45;&gt;Node5</title>
<path fill="none" stroke="midnightblue" d="M652.87,-256.55C512.51,-246.28 149.59,-218.93 140.5,-210 112.85,-182.84 118.59,-158.34 134.5,-123 141.27,-107.96 154.97,-95.59 167.25,-86.86"/>
<polygon fill="midnightblue" stroke="midnightblue" points="169.43,-89.61 175.81,-81.15 165.55,-83.78 169.43,-89.61"/>
</g>
<!-- Node28&#45;&gt;Node8 -->
<g id="edge48" class="edge">
<title>Node28&#45;&gt;Node8</title>
<path fill="none" stroke="midnightblue" d="M762.24,-253.97C784.09,-251.41 809.48,-248.49 832.5,-246 1011.73,-226.59 1519.19,-289.15 1638.5,-154 1687.6,-98.38 1545,-80.27 1472.71,-74.75"/>
<polygon fill="midnightblue" stroke="midnightblue" points="1472.81,-71.25 1462.59,-74.02 1472.31,-78.23 1472.81,-71.25"/>
</g>
<!-- Node28&#45;&gt;Node20 -->
<g id="edge49" class="edge">
<title>Node28&#45;&gt;Node20</title>
<path fill="none" stroke="midnightblue" d="M707.5,-246.14C707.5,-224.2 707.5,-182.33 707.5,-158.09"/>
<polygon fill="midnightblue" stroke="midnightblue" points="711,-158.05 707.5,-148.05 704,-158.05 711,-158.05"/>
</g>
<!-- Node28&#45;&gt;Node22 -->
<g id="edge46" class="edge">
<title>Node28&#45;&gt;Node22</title>
<path fill="none" stroke="midnightblue" d="M652.58,-253.79C566.48,-243.27 399.34,-222.85 300.07,-210.72"/>
<polygon fill="midnightblue" stroke="midnightblue" points="300.44,-207.24 290.09,-209.5 299.59,-214.19 300.44,-207.24"/>
</g>
<!-- Node29&#45;&gt;Node4 -->
<g id="edge51" class="edge">
<title>Node29&#45;&gt;Node4</title>
<path fill="none" stroke="midnightblue" d="M1461.32,-127.88C1445.76,-126.19 1429.64,-124.49 1414.5,-123 1239.07,-105.7 1033.62,-88.65 919.44,-79.46"/>
<polygon fill="midnightblue" stroke="midnightblue" points="919.6,-75.96 909.35,-78.65 919.04,-82.94 919.6,-75.96"/>
</g>
<!-- Node29&#45;&gt;Node8 -->
<g id="edge52" class="edge">
<title>Node29&#45;&gt;Node8</title>
<path fill="none" stroke="midnightblue" d="M1521.2,-123.4C1502.15,-112.34 1475.82,-97.06 1456.99,-86.13"/>
<polygon fill="midnightblue" stroke="midnightblue" points="1458.56,-83 1448.16,-81.01 1455.05,-89.05 1458.56,-83"/>
</g>
<!-- Node30&#45;&gt;Node4 -->
<g id="edge54" class="edge">
<title>Node30&#45;&gt;Node4</title>
<path fill="none" stroke="midnightblue" d="M1685.25,-127.74C1669.76,-126.02 1653.63,-124.34 1638.5,-123 1377.52,-99.83 1068.12,-83.6 919.63,-76.51"/>
<polygon fill="midnightblue" stroke="midnightblue" points="919.38,-72.99 909.22,-76.02 919.05,-79.99 919.38,-72.99"/>
</g>
<!-- Node30&#45;&gt;Node8 -->
<g id="edge55" class="edge">
<title>Node30&#45;&gt;Node8</title>
<path fill="none" stroke="midnightblue" d="M1693.09,-123.48C1625.6,-110.22 1526.85,-90.83 1472.67,-80.19"/>
<polygon fill="midnightblue" stroke="midnightblue" points="1473.26,-76.74 1462.77,-78.25 1471.91,-83.61 1473.26,-76.74"/>
</g>
</g>
</svg>
