<?xml version="1.0" encoding="UTF-8" standalone="no"?>
<!DOCTYPE svg PUBLIC "-//W3C//DTD SVG 1.1//EN"
 "http://www.w3.org/Graphics/SVG/1.1/DTD/svg11.dtd">
<!-- Generated by graphviz version 2.43.0 (0)
 -->
<!-- Title: Log.h Pages: 1 -->
<svg width="562pt" height="263pt"
 viewBox="0.00 0.00 562.00 263.00" xmlns="http://www.w3.org/2000/svg" xmlns:xlink="http://www.w3.org/1999/xlink">
<g id="graph0" class="graph" transform="scale(1 1) rotate(0) translate(4 259)">
<title>Log.h</title>
<polygon fill="white" stroke="transparent" points="-4,4 -4,-259 558,-259 558,4 -4,4"/>
<!-- Node1 -->
<g id="node1" class="node">
<title>Node1</title>
<g id="a_node1"><a xlink:title=" ">
<polygon fill="#bfbfbf" stroke="black" points="409,-235.5 409,-254.5 452,-254.5 452,-235.5 409,-235.5"/>
<text text-anchor="middle" x="430.5" y="-242.5" font-family="Helvetica,sans-Serif" font-size="10.00">Log.h</text>
</a>
</g>
</g>
<!-- Node2 -->
<g id="node2" class="node">
<title>Node2</title>
<g id="a_node2"><a xlink:href="Address_8h.html" target="_top" xlink:title=" ">
<polygon fill="white" stroke="black" points="221.5,-179.5 221.5,-198.5 363.5,-198.5 363.5,-179.5 221.5,-179.5"/>
<text text-anchor="middle" x="292.5" y="-186.5" font-family="Helvetica,sans-Serif" font-size="10.00">boomerang/util/Address.h</text>
</a>
</g>
</g>
<!-- Node1&#45;&gt;Node2 -->
<g id="edge1" class="edge">
<title>Node1&#45;&gt;Node2</title>
<path fill="none" stroke="midnightblue" d="M408.94,-235.56C386.08,-226.62 349.77,-212.41 323.78,-202.24"/>
<polygon fill="midnightblue" stroke="midnightblue" points="324.95,-198.94 314.37,-198.56 322.4,-205.46 324.95,-198.94"/>
</g>
<!-- Node5 -->
<g id="node5" class="node">
<title>Node5</title>
<g id="a_node5"><a xlink:href="Types_8h.html" target="_top" xlink:title=" ">
<polygon fill="white" stroke="black" points="238,-62 238,-81 369,-81 369,-62 238,-62"/>
<text text-anchor="middle" x="303.5" y="-69" font-family="Helvetica,sans-Serif" font-size="10.00">boomerang/util/Types.h</text>
</a>
</g>
</g>
<!-- Node1&#45;&gt;Node5 -->
<g id="edge10" class="edge">
<title>Node1&#45;&gt;Node5</title>
<path fill="none" stroke="midnightblue" d="M429.09,-235.44C425.22,-214.25 412.73,-158.48 383.5,-123 370.14,-106.79 350.16,-94.17 333.51,-85.6"/>
<polygon fill="midnightblue" stroke="midnightblue" points="334.69,-82.28 324.17,-81.03 331.61,-88.57 334.69,-82.28"/>
</g>
<!-- Node9 -->
<g id="node9" class="node">
<title>Node9</title>
<g id="a_node9"><a xlink:title=" ">
<polygon fill="white" stroke="#bfbfbf" points="430.5,-179.5 430.5,-198.5 488.5,-198.5 488.5,-179.5 430.5,-179.5"/>
<text text-anchor="middle" x="459.5" y="-186.5" font-family="Helvetica,sans-Serif" font-size="10.00">memory</text>
</a>
</g>
</g>
<!-- Node1&#45;&gt;Node9 -->
<g id="edge11" class="edge">
<title>Node1&#45;&gt;Node9</title>
<path fill="none" stroke="midnightblue" d="M435.29,-235.08C439.26,-227.69 445.03,-216.95 449.93,-207.81"/>
<polygon fill="midnightblue" stroke="midnightblue" points="453.15,-209.22 454.8,-198.75 446.99,-205.91 453.15,-209.22"/>
</g>
<!-- Node10 -->
<g id="node10" class="node">
<title>Node10</title>
<g id="a_node10"><a xlink:title=" ">
<polygon fill="white" stroke="#bfbfbf" points="507,-179.5 507,-198.5 554,-198.5 554,-179.5 507,-179.5"/>
<text text-anchor="middle" x="530.5" y="-186.5" font-family="Helvetica,sans-Serif" font-size="10.00">vector</text>
</a>
</g>
</g>
<!-- Node1&#45;&gt;Node10 -->
<g id="edge12" class="edge">
<title>Node1&#45;&gt;Node10</title>
<path fill="none" stroke="midnightblue" d="M446.57,-235.32C462.46,-226.74 487.01,-213.49 505.46,-203.52"/>
<polygon fill="midnightblue" stroke="midnightblue" points="507.34,-206.49 514.47,-198.65 504.01,-200.33 507.34,-206.49"/>
</g>
<!-- Node3 -->
<g id="node3" class="node">
<title>Node3</title>
<g id="a_node3"><a xlink:href="BoomerangAPI_8h.html" target="_top" xlink:title=" ">
<polygon fill="white" stroke="black" points="0,-56.5 0,-86.5 155,-86.5 155,-56.5 0,-56.5"/>
<text text-anchor="start" x="8" y="-74.5" font-family="Helvetica,sans-Serif" font-size="10.00">boomerang/core/Boomerang</text>
<text text-anchor="middle" x="77.5" y="-63.5" font-family="Helvetica,sans-Serif" font-size="10.00">API.h</text>
</a>
</g>
</g>
<!-- Node2&#45;&gt;Node3 -->
<g id="edge2" class="edge">
<title>Node2&#45;&gt;Node3</title>
<path fill="none" stroke="midnightblue" d="M221.16,-185.06C184.27,-180.19 140.59,-168.81 109.5,-143 95.38,-131.28 87.22,-112.01 82.68,-96.58"/>
<polygon fill="midnightblue" stroke="midnightblue" points="86,-95.44 80.09,-86.65 79.23,-97.21 86,-95.44"/>
</g>
<!-- Node4 -->
<g id="node4" class="node">
<title>Node4</title>
<g id="a_node4"><a xlink:href="OStream_8h.html" target="_top" xlink:title=" ">
<polygon fill="white" stroke="black" points="118.5,-123.5 118.5,-142.5 264.5,-142.5 264.5,-123.5 118.5,-123.5"/>
<text text-anchor="middle" x="191.5" y="-130.5" font-family="Helvetica,sans-Serif" font-size="10.00">boomerang/util/OStream.h</text>
</a>
</g>
</g>
<!-- Node2&#45;&gt;Node4 -->
<g id="edge3" class="edge">
<title>Node2&#45;&gt;Node4</title>
<path fill="none" stroke="midnightblue" d="M276.27,-179.32C260.15,-170.7 235.2,-157.36 216.54,-147.39"/>
<polygon fill="midnightblue" stroke="midnightblue" points="218.16,-144.28 207.69,-142.65 214.86,-150.46 218.16,-144.28"/>
</g>
<!-- Node2&#45;&gt;Node5 -->
<g id="edge8" class="edge">
<title>Node2&#45;&gt;Node5</title>
<path fill="none" stroke="midnightblue" d="M293.33,-179.32C295.09,-160.76 299.28,-116.84 301.69,-91.47"/>
<polygon fill="midnightblue" stroke="midnightblue" points="305.2,-91.57 302.66,-81.28 298.23,-90.91 305.2,-91.57"/>
</g>
<!-- Node8 -->
<g id="node8" class="node">
<title>Node8</title>
<g id="a_node8"><a xlink:title=" ">
<polygon fill="white" stroke="#bfbfbf" points="321,-123.5 321,-142.5 374,-142.5 374,-123.5 321,-123.5"/>
<text text-anchor="middle" x="347.5" y="-130.5" font-family="Helvetica,sans-Serif" font-size="10.00">QString</text>
</a>
</g>
</g>
<!-- Node2&#45;&gt;Node8 -->
<g id="edge9" class="edge">
<title>Node2&#45;&gt;Node8</title>
<path fill="none" stroke="midnightblue" d="M301.58,-179.08C309.67,-171.14 321.7,-159.34 331.41,-149.8"/>
<polygon fill="midnightblue" stroke="midnightblue" points="333.9,-152.25 338.59,-142.75 329,-147.26 333.9,-152.25"/>
</g>
<!-- Node4&#45;&gt;Node3 -->
<g id="edge4" class="edge">
<title>Node4&#45;&gt;Node3</title>
<path fill="none" stroke="midnightblue" d="M175.17,-123.48C159.08,-115.08 133.97,-101.97 113.24,-91.15"/>
<polygon fill="midnightblue" stroke="midnightblue" points="114.85,-88.05 104.37,-86.52 111.61,-94.25 114.85,-88.05"/>
</g>
<!-- Node4&#45;&gt;Node5 -->
<g id="edge5" class="edge">
<title>Node4&#45;&gt;Node5</title>
<path fill="none" stroke="midnightblue" d="M207.55,-123.48C226.09,-113.62 256.84,-97.29 278.52,-85.77"/>
<polygon fill="midnightblue" stroke="midnightblue" points="280.29,-88.79 287.48,-81.01 277.01,-82.61 280.29,-88.79"/>
</g>
<!-- Node7 -->
<g id="node7" class="node">
<title>Node7</title>
<g id="a_node7"><a xlink:title=" ">
<polygon fill="white" stroke="#bfbfbf" points="173.5,-62 173.5,-81 219.5,-81 219.5,-62 173.5,-62"/>
<text text-anchor="middle" x="196.5" y="-69" font-family="Helvetica,sans-Serif" font-size="10.00">cstdio</text>
</a>
</g>
</g>
<!-- Node4&#45;&gt;Node7 -->
<g id="edge7" class="edge">
<title>Node4&#45;&gt;Node7</title>
<path fill="none" stroke="midnightblue" d="M192.22,-123.48C192.92,-115.08 194.02,-101.98 194.93,-91.16"/>
<polygon fill="midnightblue" stroke="midnightblue" points="198.44,-91.27 195.78,-81.01 191.46,-90.68 198.44,-91.27"/>
</g>
<!-- Node6 -->
<g id="node6" class="node">
<title>Node6</title>
<g id="a_node6"><a xlink:title=" ">
<polygon fill="white" stroke="#bfbfbf" points="278.5,-0.5 278.5,-19.5 328.5,-19.5 328.5,-0.5 278.5,-0.5"/>
<text text-anchor="middle" x="303.5" y="-7.5" font-family="Helvetica,sans-Serif" font-size="10.00">cstdint</text>
</a>
</g>
</g>
<!-- Node5&#45;&gt;Node6 -->
<g id="edge6" class="edge">
<title>Node5&#45;&gt;Node6</title>
<path fill="none" stroke="midnightblue" d="M303.5,-61.98C303.5,-53.58 303.5,-40.48 303.5,-29.66"/>
<polygon fill="midnightblue" stroke="midnightblue" points="307,-29.51 303.5,-19.51 300,-29.51 307,-29.51"/>
</g>
</g>
</svg>
