<?xml version="1.0" encoding="UTF-8" standalone="no"?>
<!DOCTYPE svg PUBLIC "-//W3C//DTD SVG 1.1//EN"
 "http://www.w3.org/Graphics/SVG/1.1/DTD/svg11.dtd">
<!-- Generated by graphviz version 2.43.0 (0)
 -->
<!-- Title: NamedType.cpp Pages: 1 -->
<svg width="543pt" height="341pt"
 viewBox="0.00 0.00 542.91 341.00" xmlns="http://www.w3.org/2000/svg" xmlns:xlink="http://www.w3.org/1999/xlink">
<g id="graph0" class="graph" transform="scale(1 1) rotate(0) translate(4 337)">
<title>NamedType.cpp</title>
<polygon fill="white" stroke="transparent" points="-4,4 -4,-337 538.91,-337 538.91,4 -4,4"/>
<!-- Node1 -->
<g id="node1" class="node">
<title>Node1</title>
<g id="a_node1"><a xlink:title=" ">
<polygon fill="#bfbfbf" stroke="black" points="74.41,-313.5 74.41,-332.5 169.41,-332.5 169.41,-313.5 74.41,-313.5"/>
<text text-anchor="middle" x="121.91" y="-320.5" font-family="Helvetica,sans-Serif" font-size="10.00">NamedType.cpp</text>
</a>
</g>
</g>
<!-- Node2 -->
<g id="node2" class="node">
<title>Node2</title>
<g id="a_node2"><a xlink:href="NamedType_8h.html" target="_top" xlink:title=" ">
<polygon fill="white" stroke="black" points="137.41,-252 137.41,-271 220.41,-271 220.41,-252 137.41,-252"/>
<text text-anchor="middle" x="178.91" y="-259" font-family="Helvetica,sans-Serif" font-size="10.00">NamedType.h</text>
</a>
</g>
</g>
<!-- Node1&#45;&gt;Node2 -->
<g id="edge1" class="edge">
<title>Node1&#45;&gt;Node2</title>
<path fill="none" stroke="midnightblue" d="M130.08,-313.48C138.8,-304.37 152.81,-289.74 163.6,-278.48"/>
<polygon fill="midnightblue" stroke="midnightblue" points="166.37,-280.65 170.76,-271.01 161.31,-275.81 166.37,-280.65"/>
</g>
<!-- Node10 -->
<g id="node10" class="node">
<title>Node10</title>
<g id="a_node10"><a xlink:href="Log_8h.html" target="_top" xlink:title=" ">
<polygon fill="white" stroke="black" points="10.41,-246.5 10.41,-276.5 119.41,-276.5 119.41,-246.5 10.41,-246.5"/>
<text text-anchor="start" x="18.41" y="-264.5" font-family="Helvetica,sans-Serif" font-size="10.00">boomerang/util/log</text>
<text text-anchor="middle" x="64.91" y="-253.5" font-family="Helvetica,sans-Serif" font-size="10.00">/Log.h</text>
</a>
</g>
</g>
<!-- Node1&#45;&gt;Node10 -->
<g id="edge9" class="edge">
<title>Node1&#45;&gt;Node10</title>
<path fill="none" stroke="midnightblue" d="M113.74,-313.48C106.38,-305.79 95.25,-294.17 85.47,-283.96"/>
<polygon fill="midnightblue" stroke="midnightblue" points="87.79,-281.32 78.34,-276.52 82.73,-286.17 87.79,-281.32"/>
</g>
<!-- Node3 -->
<g id="node3" class="node">
<title>Node3</title>
<g id="a_node3"><a xlink:href="Type_8h.html" target="_top" xlink:title=" ">
<polygon fill="white" stroke="black" points="122.41,-179.5 122.41,-209.5 235.41,-209.5 235.41,-179.5 122.41,-179.5"/>
<text text-anchor="start" x="130.41" y="-197.5" font-family="Helvetica,sans-Serif" font-size="10.00">boomerang/ssl/type</text>
<text text-anchor="middle" x="178.91" y="-186.5" font-family="Helvetica,sans-Serif" font-size="10.00">/Type.h</text>
</a>
</g>
</g>
<!-- Node2&#45;&gt;Node3 -->
<g id="edge2" class="edge">
<title>Node2&#45;&gt;Node3</title>
<path fill="none" stroke="midnightblue" d="M178.91,-251.73C178.91,-243.54 178.91,-230.92 178.91,-219.71"/>
<polygon fill="midnightblue" stroke="midnightblue" points="182.41,-219.59 178.91,-209.59 175.41,-219.59 182.41,-219.59"/>
</g>
<!-- Node4 -->
<g id="node4" class="node">
<title>Node4</title>
<g id="a_node4"><a xlink:href="BoomerangAPI_8h.html" target="_top" xlink:title=" ">
<polygon fill="white" stroke="black" points="274.41,-56.5 274.41,-86.5 429.41,-86.5 429.41,-56.5 274.41,-56.5"/>
<text text-anchor="start" x="282.41" y="-74.5" font-family="Helvetica,sans-Serif" font-size="10.00">boomerang/core/Boomerang</text>
<text text-anchor="middle" x="351.91" y="-63.5" font-family="Helvetica,sans-Serif" font-size="10.00">API.h</text>
</a>
</g>
</g>
<!-- Node3&#45;&gt;Node4 -->
<g id="edge3" class="edge">
<title>Node3&#45;&gt;Node4</title>
<path fill="none" stroke="midnightblue" d="M205.86,-179.32C223.4,-169.74 246.53,-156.43 265.91,-143 288.13,-127.59 311.78,-107.94 328.65,-93.3"/>
<polygon fill="midnightblue" stroke="midnightblue" points="331.13,-95.77 336.34,-86.55 326.52,-90.51 331.13,-95.77"/>
</g>
<!-- Node5 -->
<g id="node5" class="node">
<title>Node5</title>
<g id="a_node5"><a xlink:href="Types_8h.html" target="_top" xlink:title=" ">
<polygon fill="white" stroke="black" points="122.41,-62 122.41,-81 253.41,-81 253.41,-62 122.41,-62"/>
<text text-anchor="middle" x="187.91" y="-69" font-family="Helvetica,sans-Serif" font-size="10.00">boomerang/util/Types.h</text>
</a>
</g>
</g>
<!-- Node3&#45;&gt;Node5 -->
<g id="edge4" class="edge">
<title>Node3&#45;&gt;Node5</title>
<path fill="none" stroke="midnightblue" d="M179.98,-179.14C181.61,-157.2 184.72,-115.33 186.53,-91.09"/>
<polygon fill="midnightblue" stroke="midnightblue" points="190.02,-91.28 187.27,-81.05 183.04,-90.76 190.02,-91.28"/>
</g>
<!-- Node7 -->
<g id="node7" class="node">
<title>Node7</title>
<g id="a_node7"><a xlink:title=" ">
<polygon fill="white" stroke="#bfbfbf" points="203.41,-123.5 203.41,-142.5 256.41,-142.5 256.41,-123.5 203.41,-123.5"/>
<text text-anchor="middle" x="229.91" y="-130.5" font-family="Helvetica,sans-Serif" font-size="10.00">QString</text>
</a>
</g>
</g>
<!-- Node3&#45;&gt;Node7 -->
<g id="edge6" class="edge">
<title>Node3&#45;&gt;Node7</title>
<path fill="none" stroke="midnightblue" d="M191,-179.4C198.48,-170.66 208.13,-159.41 215.94,-150.3"/>
<polygon fill="midnightblue" stroke="midnightblue" points="218.64,-152.53 222.49,-142.66 213.32,-147.97 218.64,-152.53"/>
</g>
<!-- Node8 -->
<g id="node8" class="node">
<title>Node8</title>
<g id="a_node8"><a xlink:title=" ">
<polygon fill="white" stroke="#bfbfbf" points="94.91,-123.5 94.91,-142.5 146.91,-142.5 146.91,-123.5 94.91,-123.5"/>
<text text-anchor="middle" x="120.91" y="-130.5" font-family="Helvetica,sans-Serif" font-size="10.00">cassert</text>
</a>
</g>
</g>
<!-- Node3&#45;&gt;Node8 -->
<g id="edge7" class="edge">
<title>Node3&#45;&gt;Node8</title>
<path fill="none" stroke="midnightblue" d="M165.16,-179.4C156.56,-170.58 145.46,-159.18 136.52,-150.02"/>
<polygon fill="midnightblue" stroke="midnightblue" points="138.84,-147.38 129.35,-142.66 133.82,-152.26 138.84,-147.38"/>
</g>
<!-- Node9 -->
<g id="node9" class="node">
<title>Node9</title>
<g id="a_node9"><a xlink:title=" ">
<polygon fill="white" stroke="#bfbfbf" points="18.91,-123.5 18.91,-142.5 76.91,-142.5 76.91,-123.5 18.91,-123.5"/>
<text text-anchor="middle" x="47.91" y="-130.5" font-family="Helvetica,sans-Serif" font-size="10.00">memory</text>
</a>
</g>
</g>
<!-- Node3&#45;&gt;Node9 -->
<g id="edge8" class="edge">
<title>Node3&#45;&gt;Node9</title>
<path fill="none" stroke="midnightblue" d="M147.86,-179.4C126.18,-169.55 97.45,-156.5 76.36,-146.92"/>
<polygon fill="midnightblue" stroke="midnightblue" points="77.52,-143.61 66.97,-142.66 74.63,-149.98 77.52,-143.61"/>
</g>
<!-- Node6 -->
<g id="node6" class="node">
<title>Node6</title>
<g id="a_node6"><a xlink:title=" ">
<polygon fill="white" stroke="#bfbfbf" points="162.91,-0.5 162.91,-19.5 212.91,-19.5 212.91,-0.5 162.91,-0.5"/>
<text text-anchor="middle" x="187.91" y="-7.5" font-family="Helvetica,sans-Serif" font-size="10.00">cstdint</text>
</a>
</g>
</g>
<!-- Node5&#45;&gt;Node6 -->
<g id="edge5" class="edge">
<title>Node5&#45;&gt;Node6</title>
<path fill="none" stroke="midnightblue" d="M187.91,-61.98C187.91,-53.58 187.91,-40.48 187.91,-29.66"/>
<polygon fill="midnightblue" stroke="midnightblue" points="191.41,-29.51 187.91,-19.51 184.41,-29.51 191.41,-29.51"/>
</g>
<!-- Node10&#45;&gt;Node5 -->
<g id="edge18" class="edge">
<title>Node10&#45;&gt;Node5</title>
<path fill="none" stroke="midnightblue" d="M50.73,-246.4C25.97,-220.03 -19.85,-162.38 9.91,-123 23.64,-104.83 76.76,-91.3 121.42,-82.84"/>
<polygon fill="midnightblue" stroke="midnightblue" points="122.19,-86.26 131.39,-81.01 120.92,-79.37 122.19,-86.26"/>
</g>
<!-- Node10&#45;&gt;Node9 -->
<g id="edge19" class="edge">
<title>Node10&#45;&gt;Node9</title>
<path fill="none" stroke="midnightblue" d="M58.72,-246.23C54.75,-236.29 49.97,-222.6 47.91,-210 44.75,-190.7 45.25,-168.27 46.23,-152.81"/>
<polygon fill="midnightblue" stroke="midnightblue" points="49.74,-152.75 47.02,-142.51 42.76,-152.21 49.74,-152.75"/>
</g>
<!-- Node11 -->
<g id="node11" class="node">
<title>Node11</title>
<g id="a_node11"><a xlink:href="Address_8h.html" target="_top" xlink:title=" ">
<polygon fill="white" stroke="black" points="253.91,-185 253.91,-204 395.91,-204 395.91,-185 253.91,-185"/>
<text text-anchor="middle" x="324.91" y="-192" font-family="Helvetica,sans-Serif" font-size="10.00">boomerang/util/Address.h</text>
</a>
</g>
</g>
<!-- Node10&#45;&gt;Node11 -->
<g id="edge10" class="edge">
<title>Node10&#45;&gt;Node11</title>
<path fill="none" stroke="midnightblue" d="M119.41,-246.87C167.35,-234.89 236.25,-217.67 280.79,-206.53"/>
<polygon fill="midnightblue" stroke="midnightblue" points="281.89,-209.86 290.74,-204.04 280.19,-203.07 281.89,-209.86"/>
</g>
<!-- Node14 -->
<g id="node14" class="node">
<title>Node14</title>
<g id="a_node14"><a xlink:title=" ">
<polygon fill="white" stroke="#bfbfbf" points="57.41,-185 57.41,-204 104.41,-204 104.41,-185 57.41,-185"/>
<text text-anchor="middle" x="80.91" y="-192" font-family="Helvetica,sans-Serif" font-size="10.00">vector</text>
</a>
</g>
</g>
<!-- Node10&#45;&gt;Node14 -->
<g id="edge20" class="edge">
<title>Node10&#45;&gt;Node14</title>
<path fill="none" stroke="midnightblue" d="M68.38,-246.4C70.7,-236.96 73.78,-224.45 76.31,-214.19"/>
<polygon fill="midnightblue" stroke="midnightblue" points="79.78,-214.74 78.77,-204.19 72.98,-213.07 79.78,-214.74"/>
</g>
<!-- Node11&#45;&gt;Node4 -->
<g id="edge11" class="edge">
<title>Node11&#45;&gt;Node4</title>
<path fill="none" stroke="midnightblue" d="M327.01,-184.94C329.45,-174.9 333.58,-157.77 336.91,-143 340.38,-127.59 344.08,-110.23 346.93,-96.6"/>
<polygon fill="midnightblue" stroke="midnightblue" points="350.41,-97.07 349.02,-86.57 343.55,-95.64 350.41,-97.07"/>
</g>
<!-- Node11&#45;&gt;Node5 -->
<g id="edge16" class="edge">
<title>Node11&#45;&gt;Node5</title>
<path fill="none" stroke="midnightblue" d="M319.07,-184.98C309.21,-170.97 288.14,-142.67 265.91,-123 249.65,-108.61 228.93,-95.4 212.93,-86.1"/>
<polygon fill="midnightblue" stroke="midnightblue" points="214.55,-82.99 204.12,-81.09 211.09,-89.08 214.55,-82.99"/>
</g>
<!-- Node11&#45;&gt;Node7 -->
<g id="edge17" class="edge">
<title>Node11&#45;&gt;Node7</title>
<path fill="none" stroke="midnightblue" d="M311.3,-184.98C295.85,-175.3 270.42,-159.37 252.09,-147.89"/>
<polygon fill="midnightblue" stroke="midnightblue" points="253.83,-144.85 243.5,-142.51 250.11,-150.78 253.83,-144.85"/>
</g>
<!-- Node12 -->
<g id="node12" class="node">
<title>Node12</title>
<g id="a_node12"><a xlink:href="OStream_8h.html" target="_top" xlink:title=" ">
<polygon fill="white" stroke="black" points="388.91,-123.5 388.91,-142.5 534.91,-142.5 534.91,-123.5 388.91,-123.5"/>
<text text-anchor="middle" x="461.91" y="-130.5" font-family="Helvetica,sans-Serif" font-size="10.00">boomerang/util/OStream.h</text>
</a>
</g>
</g>
<!-- Node11&#45;&gt;Node12 -->
<g id="edge12" class="edge">
<title>Node11&#45;&gt;Node12</title>
<path fill="none" stroke="midnightblue" d="M344.54,-184.98C367.73,-174.9 406.53,-158.05 433.12,-146.5"/>
<polygon fill="midnightblue" stroke="midnightblue" points="434.54,-149.7 442.32,-142.51 431.75,-143.28 434.54,-149.7"/>
</g>
<!-- Node12&#45;&gt;Node4 -->
<g id="edge13" class="edge">
<title>Node12&#45;&gt;Node4</title>
<path fill="none" stroke="midnightblue" d="M446.15,-123.48C430.69,-115.12 406.61,-102.09 386.66,-91.3"/>
<polygon fill="midnightblue" stroke="midnightblue" points="388.29,-88.2 377.83,-86.52 384.96,-94.36 388.29,-88.2"/>
</g>
<!-- Node12&#45;&gt;Node5 -->
<g id="edge14" class="edge">
<title>Node12&#45;&gt;Node5</title>
<path fill="none" stroke="midnightblue" d="M422.65,-123.48C373.72,-112.85 290.07,-94.68 236.96,-83.15"/>
<polygon fill="midnightblue" stroke="midnightblue" points="237.61,-79.71 227.09,-81.01 236.12,-86.55 237.61,-79.71"/>
</g>
<!-- Node13 -->
<g id="node13" class="node">
<title>Node13</title>
<g id="a_node13"><a xlink:title=" ">
<polygon fill="white" stroke="#bfbfbf" points="447.91,-62 447.91,-81 493.91,-81 493.91,-62 447.91,-62"/>
<text text-anchor="middle" x="470.91" y="-69" font-family="Helvetica,sans-Serif" font-size="10.00">cstdio</text>
</a>
</g>
</g>
<!-- Node12&#45;&gt;Node13 -->
<g id="edge15" class="edge">
<title>Node12&#45;&gt;Node13</title>
<path fill="none" stroke="midnightblue" d="M463.2,-123.48C464.47,-115.08 466.45,-101.98 468.09,-91.16"/>
<polygon fill="midnightblue" stroke="midnightblue" points="471.59,-91.42 469.62,-81.01 464.67,-90.37 471.59,-91.42"/>
</g>
</g>
</svg>
