<?xml version="1.0" encoding="UTF-8" standalone="no"?>
<!DOCTYPE svg PUBLIC "-//W3C//DTD SVG 1.1//EN"
 "http://www.w3.org/Graphics/SVG/1.1/DTD/svg11.dtd">
<!-- Generated by graphviz version 2.43.0 (0)
 -->
<!-- Title: objc&#45;api.h Pages: 1 -->
<svg width="405pt" height="308pt"
 viewBox="0.00 0.00 404.50 308.00" xmlns="http://www.w3.org/2000/svg" xmlns:xlink="http://www.w3.org/1999/xlink">
<g id="graph0" class="graph" transform="scale(1 1) rotate(0) translate(4 304)">
<title>objc&#45;api.h</title>
<polygon fill="white" stroke="transparent" points="-4,4 -4,-304 400.5,-304 400.5,4 -4,4"/>
<!-- Node1 -->
<g id="node1" class="node">
<title>Node1</title>
<g id="a_node1"><a xlink:title=" ">
<polygon fill="#bfbfbf" stroke="black" points="229,-280.5 229,-299.5 294,-299.5 294,-280.5 229,-280.5"/>
<text text-anchor="middle" x="261.5" y="-287.5" font-family="Helvetica,sans-Serif" font-size="10.00">objc&#45;api.h</text>
</a>
</g>
</g>
<!-- Node2 -->
<g id="node2" class="node">
<title>Node2</title>
<g id="a_node2"><a xlink:href="objc_8h.html" target="_top" xlink:title=" ">
<polygon fill="white" stroke="black" points="205.5,-224.5 205.5,-243.5 251.5,-243.5 251.5,-224.5 205.5,-224.5"/>
<text text-anchor="middle" x="228.5" y="-231.5" font-family="Helvetica,sans-Serif" font-size="10.00">objc.h</text>
</a>
</g>
</g>
<!-- Node1&#45;&gt;Node2 -->
<g id="edge1" class="edge">
<title>Node1&#45;&gt;Node2</title>
<path fill="none" stroke="midnightblue" d="M250.67,-271.27C245.03,-262.05 238.38,-251.17 233.85,-243.75"/>
<polygon fill="midnightblue" stroke="midnightblue" points="247.85,-273.38 256.05,-280.08 253.82,-269.73 247.85,-273.38"/>
</g>
<!-- Node12 -->
<g id="node12" class="node">
<title>Node12</title>
<g id="a_node12"><a xlink:href="error_8h.html" target="_top" xlink:title=" ">
<polygon fill="white" stroke="black" points="270,-224.5 270,-243.5 319,-243.5 319,-224.5 270,-224.5"/>
<text text-anchor="middle" x="294.5" y="-231.5" font-family="Helvetica,sans-Serif" font-size="10.00">error.h</text>
</a>
</g>
</g>
<!-- Node1&#45;&gt;Node12 -->
<g id="edge13" class="edge">
<title>Node1&#45;&gt;Node12</title>
<path fill="none" stroke="midnightblue" d="M272.33,-271.27C277.97,-262.05 284.62,-251.17 289.15,-243.75"/>
<polygon fill="midnightblue" stroke="midnightblue" points="269.18,-269.73 266.95,-280.08 275.15,-273.38 269.18,-269.73"/>
</g>
<!-- Node3 -->
<g id="node3" class="node">
<title>Node3</title>
<g id="a_node3"><a xlink:href="objc-class_8h.html" target="_top" xlink:title=" ">
<polygon fill="white" stroke="black" points="86.5,-168.5 86.5,-187.5 160.5,-187.5 160.5,-168.5 86.5,-168.5"/>
<text text-anchor="middle" x="123.5" y="-175.5" font-family="Helvetica,sans-Serif" font-size="10.00">objc&#45;class.h</text>
</a>
</g>
</g>
<!-- Node2&#45;&gt;Node3 -->
<g id="edge2" class="edge">
<title>Node2&#45;&gt;Node3</title>
<path fill="none" stroke="midnightblue" d="M202.69,-219.73C183.25,-209.73 157.15,-196.31 140.33,-187.65"/>
<polygon fill="midnightblue" stroke="midnightblue" points="201.14,-222.86 211.63,-224.32 204.34,-216.64 201.14,-222.86"/>
</g>
<!-- Node5 -->
<g id="node5" class="node">
<title>Node5</title>
<g id="a_node5"><a xlink:href="objc-runtime_8h.html" target="_top" xlink:title=" ">
<polygon fill="white" stroke="black" points="161.5,-112.5 161.5,-131.5 249.5,-131.5 249.5,-112.5 161.5,-112.5"/>
<text text-anchor="middle" x="205.5" y="-119.5" font-family="Helvetica,sans-Serif" font-size="10.00">objc&#45;runtime.h</text>
</a>
</g>
</g>
<!-- Node2&#45;&gt;Node5 -->
<g id="edge10" class="edge">
<title>Node2&#45;&gt;Node5</title>
<path fill="none" stroke="midnightblue" d="M222.69,-214.89C220.23,-206.73 217.47,-196.95 215.5,-188 211.13,-168.15 208,-144.48 206.5,-131.9"/>
<polygon fill="midnightblue" stroke="midnightblue" points="219.36,-215.95 225.68,-224.46 226.04,-213.87 219.36,-215.95"/>
</g>
<!-- Node10 -->
<g id="node10" class="node">
<title>Node10</title>
<g id="a_node10"><a xlink:href="hashtable_8h.html" target="_top" xlink:title=" ">
<polygon fill="white" stroke="black" points="224.5,-168.5 224.5,-187.5 298.5,-187.5 298.5,-168.5 224.5,-168.5"/>
<text text-anchor="middle" x="261.5" y="-175.5" font-family="Helvetica,sans-Serif" font-size="10.00">hashtable.h</text>
</a>
</g>
</g>
<!-- Node2&#45;&gt;Node10 -->
<g id="edge11" class="edge">
<title>Node2&#45;&gt;Node10</title>
<path fill="none" stroke="midnightblue" d="M239.33,-215.27C244.97,-206.05 251.62,-195.17 256.15,-187.75"/>
<polygon fill="midnightblue" stroke="midnightblue" points="236.18,-213.73 233.95,-224.08 242.15,-217.38 236.18,-213.73"/>
</g>
<!-- Node11 -->
<g id="node11" class="node">
<title>Node11</title>
<g id="a_node11"><a xlink:href="hashtable2_8h.html" target="_top" xlink:title=" ">
<polygon fill="white" stroke="black" points="316.5,-168.5 316.5,-187.5 396.5,-187.5 396.5,-168.5 316.5,-168.5"/>
<text text-anchor="middle" x="356.5" y="-175.5" font-family="Helvetica,sans-Serif" font-size="10.00">hashtable2.h</text>
</a>
</g>
</g>
<!-- Node2&#45;&gt;Node11 -->
<g id="edge12" class="edge">
<title>Node2&#45;&gt;Node11</title>
<path fill="none" stroke="midnightblue" d="M258.12,-220.5C282.12,-210.38 315.28,-196.39 336.31,-187.52"/>
<polygon fill="midnightblue" stroke="midnightblue" points="256.64,-217.33 248.78,-224.44 259.36,-223.78 256.64,-217.33"/>
</g>
<!-- Node4 -->
<g id="node4" class="node">
<title>Node4</title>
<g id="a_node4"><a xlink:href="MachOBinaryLoader_8cpp.html" target="_top" xlink:title=" ">
<polygon fill="white" stroke="black" points="0,-56.5 0,-75.5 135,-75.5 135,-56.5 0,-56.5"/>
<text text-anchor="middle" x="67.5" y="-63.5" font-family="Helvetica,sans-Serif" font-size="10.00">MachOBinaryLoader.cpp</text>
</a>
</g>
</g>
<!-- Node3&#45;&gt;Node4 -->
<g id="edge3" class="edge">
<title>Node3&#45;&gt;Node4</title>
<path fill="none" stroke="midnightblue" d="M94.5,-163.33C82.27,-155.92 69.31,-145.48 62.5,-132 53.22,-113.61 59.66,-88.52 64.16,-75.54"/>
<polygon fill="midnightblue" stroke="midnightblue" points="93.16,-166.59 103.59,-168.41 96.57,-160.48 93.16,-166.59"/>
</g>
<!-- Node3&#45;&gt;Node5 -->
<g id="edge4" class="edge">
<title>Node3&#45;&gt;Node5</title>
<path fill="none" stroke="midnightblue" d="M145.33,-162.62C160.31,-152.76 179.7,-139.99 192.36,-131.65"/>
<polygon fill="midnightblue" stroke="midnightblue" points="143.1,-159.9 136.67,-168.32 146.95,-165.75 143.1,-159.9"/>
</g>
<!-- Node9 -->
<g id="node9" class="node">
<title>Node9</title>
<g id="a_node9"><a xlink:href="objc-load_8h.html" target="_top" xlink:title=" ">
<polygon fill="white" stroke="black" points="72,-112.5 72,-131.5 143,-131.5 143,-112.5 72,-112.5"/>
<text text-anchor="middle" x="107.5" y="-119.5" font-family="Helvetica,sans-Serif" font-size="10.00">objc&#45;load.h</text>
</a>
</g>
</g>
<!-- Node3&#45;&gt;Node9 -->
<g id="edge9" class="edge">
<title>Node3&#45;&gt;Node9</title>
<path fill="none" stroke="midnightblue" d="M117.99,-158.4C115.31,-149.36 112.22,-138.94 110.09,-131.75"/>
<polygon fill="midnightblue" stroke="midnightblue" points="114.66,-159.49 120.86,-168.08 121.37,-157.5 114.66,-159.49"/>
</g>
<!-- Node5&#45;&gt;Node4 -->
<g id="edge5" class="edge">
<title>Node5&#45;&gt;Node4</title>
<path fill="none" stroke="midnightblue" d="M174.25,-108.77C148.33,-98.63 112.14,-84.47 89.26,-75.52"/>
<polygon fill="midnightblue" stroke="midnightblue" points="173.05,-112.06 183.63,-112.44 175.6,-105.54 173.05,-112.06"/>
</g>
<!-- Node6 -->
<g id="node6" class="node">
<title>Node6</title>
<g id="a_node6"><a xlink:href="Object_8h.html" target="_top" xlink:title=" ">
<polygon fill="white" stroke="black" points="177,-56.5 177,-75.5 234,-75.5 234,-56.5 177,-56.5"/>
<text text-anchor="middle" x="205.5" y="-63.5" font-family="Helvetica,sans-Serif" font-size="10.00">Object.h</text>
</a>
</g>
</g>
<!-- Node5&#45;&gt;Node6 -->
<g id="edge6" class="edge">
<title>Node5&#45;&gt;Node6</title>
<path fill="none" stroke="midnightblue" d="M205.5,-101.8C205.5,-92.91 205.5,-82.78 205.5,-75.75"/>
<polygon fill="midnightblue" stroke="midnightblue" points="202,-102.08 205.5,-112.08 209,-102.08 202,-102.08"/>
</g>
<!-- Node7 -->
<g id="node7" class="node">
<title>Node7</title>
<g id="a_node7"><a xlink:href="List_8h.html" target="_top" xlink:title=" ">
<polygon fill="white" stroke="black" points="148,-0.5 148,-19.5 191,-19.5 191,-0.5 148,-0.5"/>
<text text-anchor="middle" x="169.5" y="-7.5" font-family="Helvetica,sans-Serif" font-size="10.00">List.h</text>
</a>
</g>
</g>
<!-- Node6&#45;&gt;Node7 -->
<g id="edge7" class="edge">
<title>Node6&#45;&gt;Node7</title>
<path fill="none" stroke="midnightblue" d="M193.88,-47.57C187.68,-38.27 180.33,-27.25 175.33,-19.75"/>
<polygon fill="midnightblue" stroke="midnightblue" points="191.1,-49.7 199.56,-56.08 196.92,-45.82 191.1,-49.7"/>
</g>
<!-- Node8 -->
<g id="node8" class="node">
<title>Node8</title>
<g id="a_node8"><a xlink:href="Protocol_8h.html" target="_top" xlink:title=" ">
<polygon fill="white" stroke="black" points="209,-0.5 209,-19.5 274,-19.5 274,-0.5 209,-0.5"/>
<text text-anchor="middle" x="241.5" y="-7.5" font-family="Helvetica,sans-Serif" font-size="10.00">Protocol.h</text>
</a>
</g>
</g>
<!-- Node6&#45;&gt;Node8 -->
<g id="edge8" class="edge">
<title>Node6&#45;&gt;Node8</title>
<path fill="none" stroke="midnightblue" d="M217.12,-47.57C223.32,-38.27 230.67,-27.25 235.67,-19.75"/>
<polygon fill="midnightblue" stroke="midnightblue" points="214.08,-45.82 211.44,-56.08 219.9,-49.7 214.08,-45.82"/>
</g>
</g>
</svg>
