<?xml version="1.0" encoding="UTF-8" standalone="no"?>
<!DOCTYPE svg PUBLIC "-//W3C//DTD SVG 1.1//EN"
 "http://www.w3.org/Graphics/SVG/1.1/DTD/svg11.dtd">
<!-- Generated by graphviz version 2.43.0 (0)
 -->
<!-- Title: Operator.h Pages: 1 -->
<svg width="3887pt" height="252pt"
 viewBox="0.00 0.00 3887.16 252.00" xmlns="http://www.w3.org/2000/svg" xmlns:xlink="http://www.w3.org/1999/xlink">
<g id="graph0" class="graph" transform="scale(1 1) rotate(0) translate(4 248)">
<title>Operator.h</title>
<polygon fill="white" stroke="transparent" points="-4,4 -4,-248 3883.16,-248 3883.16,4 -4,4"/>
<!-- Node1 -->
<g id="node1" class="node">
<title>Node1</title>
<g id="a_node1"><a xlink:title=" ">
<polygon fill="#bfbfbf" stroke="black" points="3353.66,-224.5 3353.66,-243.5 3421.66,-243.5 3421.66,-224.5 3353.66,-224.5"/>
<text text-anchor="middle" x="3387.66" y="-231.5" font-family="Helvetica,sans-Serif" font-size="10.00">Operator.h</text>
</a>
</g>
</g>
<!-- Node2 -->
<g id="node2" class="node">
<title>Node2</title>
<g id="a_node2"><a xlink:href="Exp_8h.html" target="_top" xlink:title=" ">
<polygon fill="white" stroke="black" points="2550.66,-168.5 2550.66,-187.5 2594.66,-187.5 2594.66,-168.5 2550.66,-168.5"/>
<text text-anchor="middle" x="2572.66" y="-175.5" font-family="Helvetica,sans-Serif" font-size="10.00">Exp.h</text>
</a>
</g>
</g>
<!-- Node1&#45;&gt;Node2 -->
<g id="edge1" class="edge">
<title>Node1&#45;&gt;Node2</title>
<path fill="none" stroke="midnightblue" d="M3343.16,-230.05C3192.47,-220.07 2704.7,-187.75 2594.79,-180.47"/>
<polygon fill="midnightblue" stroke="midnightblue" points="3343.21,-233.56 3353.42,-230.73 3343.67,-226.58 3343.21,-233.56"/>
</g>
<!-- Node140 -->
<g id="node15" class="node">
<title>Node140</title>
<g id="a_node15"><a xlink:href="RTL_8cpp.html" target="_top" xlink:title=" ">
<polygon fill="white" stroke="black" points="3296.16,-56.5 3296.16,-75.5 3351.16,-75.5 3351.16,-56.5 3296.16,-56.5"/>
<text text-anchor="middle" x="3323.66" y="-63.5" font-family="Helvetica,sans-Serif" font-size="10.00">RTL.cpp</text>
</a>
</g>
</g>
<!-- Node1&#45;&gt;Node140 -->
<g id="edge74" class="edge">
<title>Node1&#45;&gt;Node140</title>
<path fill="none" stroke="midnightblue" d="M3380.48,-214.39C3366.68,-178.59 3336.9,-101.34 3326.96,-75.57"/>
<polygon fill="midnightblue" stroke="midnightblue" points="3377.35,-216 3384.22,-224.08 3383.89,-213.49 3377.35,-216"/>
</g>
<!-- Node175 -->
<g id="node31" class="node">
<title>Node175</title>
<g id="a_node31"><a xlink:href="Signature_8h.html" target="_top" xlink:title=" ">
<polygon fill="white" stroke="red" points="1522.66,-112.5 1522.66,-131.5 1594.66,-131.5 1594.66,-112.5 1522.66,-112.5"/>
<text text-anchor="middle" x="1558.66" y="-119.5" font-family="Helvetica,sans-Serif" font-size="10.00">Signature.h</text>
</a>
</g>
</g>
<!-- Node1&#45;&gt;Node175 -->
<g id="edge42" class="edge">
<title>Node1&#45;&gt;Node175</title>
<path fill="none" stroke="midnightblue" d="M3343.51,-231.25C3145.67,-223.23 2320.78,-187.99 1645.66,-132 1629.01,-130.62 1610.61,-128.76 1595.03,-127.1"/>
<polygon fill="midnightblue" stroke="midnightblue" points="3343.39,-234.75 3353.53,-231.65 3343.68,-227.75 3343.39,-234.75"/>
</g>
<!-- Node180 -->
<g id="node46" class="node">
<title>Node180</title>
<g id="a_node46"><a xlink:href="ExpPrinter_8h.html" target="_top" xlink:title=" ">
<polygon fill="white" stroke="red" points="3249.66,-168.5 3249.66,-187.5 3325.66,-187.5 3325.66,-168.5 3249.66,-168.5"/>
<text text-anchor="middle" x="3287.66" y="-175.5" font-family="Helvetica,sans-Serif" font-size="10.00">ExpPrinter.h</text>
</a>
</g>
</g>
<!-- Node1&#45;&gt;Node180 -->
<g id="edge71" class="edge">
<title>Node1&#45;&gt;Node180</title>
<path fill="none" stroke="midnightblue" d="M3362.57,-219.45C3344.11,-209.48 3319.56,-196.23 3303.68,-187.65"/>
<polygon fill="midnightblue" stroke="midnightblue" points="3361.13,-222.65 3371.59,-224.32 3364.45,-216.49 3361.13,-222.65"/>
</g>
<!-- Node181 -->
<g id="node47" class="node">
<title>Node181</title>
<g id="a_node47"><a xlink:href="Operator_8cpp.html" target="_top" xlink:title=" ">
<polygon fill="white" stroke="black" points="3381.66,-168.5 3381.66,-187.5 3461.66,-187.5 3461.66,-168.5 3381.66,-168.5"/>
<text text-anchor="middle" x="3421.66" y="-175.5" font-family="Helvetica,sans-Serif" font-size="10.00">Operator.cpp</text>
</a>
</g>
</g>
<!-- Node1&#45;&gt;Node181 -->
<g id="edge73" class="edge">
<title>Node1&#45;&gt;Node181</title>
<path fill="none" stroke="midnightblue" d="M3398.63,-215.57C3404.48,-206.27 3411.43,-195.25 3416.15,-187.75"/>
<polygon fill="midnightblue" stroke="midnightblue" points="3395.64,-213.76 3393.27,-224.08 3401.56,-217.49 3395.64,-213.76"/>
</g>
<!-- Node182 -->
<g id="node48" class="node">
<title>Node182</title>
<g id="a_node48"><a xlink:href="CapstoneX86Decoder_8h.html" target="_top" xlink:title=" ">
<polygon fill="white" stroke="red" points="3480.16,-168.5 3480.16,-187.5 3611.16,-187.5 3611.16,-168.5 3480.16,-168.5"/>
<text text-anchor="middle" x="3545.66" y="-175.5" font-family="Helvetica,sans-Serif" font-size="10.00">CapstoneX86Decoder.h</text>
</a>
</g>
</g>
<!-- Node1&#45;&gt;Node182 -->
<g id="edge75" class="edge">
<title>Node1&#45;&gt;Node182</title>
<path fill="none" stroke="midnightblue" d="M3422.27,-221.17C3452.02,-211 3494.2,-196.59 3520.74,-187.52"/>
<polygon fill="midnightblue" stroke="midnightblue" points="3421.02,-217.9 3412.69,-224.44 3423.29,-224.52 3421.02,-217.9"/>
</g>
<!-- Node183 -->
<g id="node49" class="node">
<title>Node183</title>
<g id="a_node49"><a xlink:href="CapstonePPCDecoder_8h.html" target="_top" xlink:title=" ">
<polygon fill="white" stroke="red" points="3629.16,-168.5 3629.16,-187.5 3760.16,-187.5 3760.16,-168.5 3629.16,-168.5"/>
<text text-anchor="middle" x="3694.66" y="-175.5" font-family="Helvetica,sans-Serif" font-size="10.00">CapstonePPCDecoder.h</text>
</a>
</g>
</g>
<!-- Node1&#45;&gt;Node183 -->
<g id="edge76" class="edge">
<title>Node1&#45;&gt;Node183</title>
<path fill="none" stroke="midnightblue" d="M3431.8,-225.24C3488.66,-215.23 3587.18,-197.9 3646.11,-187.54"/>
<polygon fill="midnightblue" stroke="midnightblue" points="3430.93,-221.84 3421.68,-227.01 3432.14,-228.73 3430.93,-221.84"/>
</g>
<!-- Node184 -->
<g id="node50" class="node">
<title>Node184</title>
<g id="a_node50"><a xlink:href="SPARCFrontEnd_8h.html" target="_top" xlink:title=" ">
<polygon fill="white" stroke="red" points="3778.16,-168.5 3778.16,-187.5 3879.16,-187.5 3879.16,-168.5 3778.16,-168.5"/>
<text text-anchor="middle" x="3828.66" y="-175.5" font-family="Helvetica,sans-Serif" font-size="10.00">SPARCFrontEnd.h</text>
</a>
</g>
</g>
<!-- Node1&#45;&gt;Node184 -->
<g id="edge77" class="edge">
<title>Node1&#45;&gt;Node184</title>
<path fill="none" stroke="midnightblue" d="M3432.23,-228.19C3503.43,-220.41 3647.16,-204.28 3768.66,-188 3771.69,-187.59 3774.8,-187.16 3777.93,-186.72"/>
<polygon fill="midnightblue" stroke="midnightblue" points="3431.42,-224.76 3421.86,-229.32 3432.18,-231.72 3431.42,-224.76"/>
</g>
<!-- Node3 -->
<g id="node3" class="node">
<title>Node3</title>
<g id="a_node3"><a xlink:href="Terminal_8h.html" target="_top" xlink:title=" ">
<polygon fill="white" stroke="red" points="3007.66,-112.5 3007.66,-131.5 3075.66,-131.5 3075.66,-112.5 3007.66,-112.5"/>
<text text-anchor="middle" x="3041.66" y="-119.5" font-family="Helvetica,sans-Serif" font-size="10.00">Terminal.h</text>
</a>
</g>
</g>
<!-- Node2&#45;&gt;Node3 -->
<g id="edge2" class="edge">
<title>Node2&#45;&gt;Node3</title>
<path fill="none" stroke="midnightblue" d="M2605,-174.64C2676.23,-169.22 2851.89,-154.57 2997.66,-132 3000.89,-131.5 3004.25,-130.92 3007.61,-130.3"/>
<polygon fill="midnightblue" stroke="midnightblue" points="2604.59,-171.17 2594.88,-175.41 2605.11,-178.15 2604.59,-171.17"/>
</g>
<!-- Node118 -->
<g id="node6" class="node">
<title>Node118</title>
<g id="a_node6"><a xlink:href="Exp_8cpp.html" target="_top" xlink:title=" ">
<polygon fill="white" stroke="black" points="3192.16,-56.5 3192.16,-75.5 3247.16,-75.5 3247.16,-56.5 3192.16,-56.5"/>
<text text-anchor="middle" x="3219.66" y="-63.5" font-family="Helvetica,sans-Serif" font-size="10.00">Exp.cpp</text>
</a>
</g>
</g>
<!-- Node2&#45;&gt;Node118 -->
<g id="edge33" class="edge">
<title>Node2&#45;&gt;Node118</title>
<path fill="none" stroke="midnightblue" d="M2604.95,-177.44C2712.39,-178.47 3056.64,-178.02 3155.66,-132 3182.66,-119.45 3204.52,-90.28 3214.22,-75.67"/>
<polygon fill="midnightblue" stroke="midnightblue" points="2604.77,-173.94 2594.73,-177.34 2604.7,-180.94 2604.77,-173.94"/>
</g>
<!-- Node130 -->
<g id="node10" class="node">
<title>Node130</title>
<g id="a_node10"><a xlink:href="LocationSet_8h.html" target="_top" xlink:title=" ">
<polygon fill="white" stroke="red" points="3204.16,-112.5 3204.16,-131.5 3287.16,-131.5 3287.16,-112.5 3204.16,-112.5"/>
<text text-anchor="middle" x="3245.66" y="-119.5" font-family="Helvetica,sans-Serif" font-size="10.00">LocationSet.h</text>
</a>
</g>
</g>
<!-- Node2&#45;&gt;Node130 -->
<g id="edge9" class="edge">
<title>Node2&#45;&gt;Node130</title>
<path fill="none" stroke="midnightblue" d="M2604.9,-175.63C2696.61,-171.54 2966.72,-157.99 3189.66,-132 3194.35,-131.45 3199.26,-130.79 3204.12,-130.09"/>
<polygon fill="midnightblue" stroke="midnightblue" points="2604.69,-172.14 2594.86,-176.08 2605,-179.13 2604.69,-172.14"/>
</g>
<!-- Node137 -->
<g id="node11" class="node">
<title>Node137</title>
<g id="a_node11"><a xlink:href="Const_8h.html" target="_top" xlink:title=" ">
<polygon fill="white" stroke="red" points="2936.16,-112.5 2936.16,-131.5 2989.16,-131.5 2989.16,-112.5 2936.16,-112.5"/>
<text text-anchor="middle" x="2962.66" y="-119.5" font-family="Helvetica,sans-Serif" font-size="10.00">Const.h</text>
</a>
</g>
</g>
<!-- Node2&#45;&gt;Node137 -->
<g id="edge11" class="edge">
<title>Node2&#45;&gt;Node137</title>
<path fill="none" stroke="midnightblue" d="M2605.09,-173.78C2666.92,-167.43 2805.83,-152.14 2921.66,-132 2926.25,-131.2 2931.11,-130.24 2935.82,-129.25"/>
<polygon fill="midnightblue" stroke="midnightblue" points="2604.4,-170.33 2594.81,-174.83 2605.11,-177.3 2604.4,-170.33"/>
</g>
<!-- Node147 -->
<g id="node16" class="node">
<title>Node147</title>
<g id="a_node16"><a xlink:href="Unary_8h.html" target="_top" xlink:title=" ">
<polygon fill="white" stroke="red" points="3094.16,-112.5 3094.16,-131.5 3147.16,-131.5 3147.16,-112.5 3094.16,-112.5"/>
<text text-anchor="middle" x="3120.66" y="-119.5" font-family="Helvetica,sans-Serif" font-size="10.00">Unary.h</text>
</a>
</g>
</g>
<!-- Node2&#45;&gt;Node147 -->
<g id="edge21" class="edge">
<title>Node2&#45;&gt;Node147</title>
<path fill="none" stroke="midnightblue" d="M2604.84,-175.93C2685.9,-172.85 2904.85,-162.18 3084.66,-132 3087.71,-131.49 3090.88,-130.85 3094.02,-130.16"/>
<polygon fill="midnightblue" stroke="midnightblue" points="2604.64,-172.43 2594.77,-176.3 2604.89,-179.43 2604.64,-172.43"/>
</g>
<!-- Node166 -->
<g id="node17" class="node">
<title>Node166</title>
<g id="a_node17"><a xlink:href="Parameter_8cpp.html" target="_top" xlink:title=" ">
<polygon fill="white" stroke="black" points="1688.66,-112.5 1688.66,-131.5 1776.66,-131.5 1776.66,-112.5 1688.66,-112.5"/>
<text text-anchor="middle" x="1732.66" y="-119.5" font-family="Helvetica,sans-Serif" font-size="10.00">Parameter.cpp</text>
</a>
</g>
</g>
<!-- Node2&#45;&gt;Node166 -->
<g id="edge23" class="edge">
<title>Node2&#45;&gt;Node166</title>
<path fill="none" stroke="midnightblue" d="M2540.14,-176.43C2432.38,-174.28 2077.2,-164.99 1785.66,-132 1782.78,-131.67 1779.83,-131.3 1776.85,-130.88"/>
<polygon fill="midnightblue" stroke="midnightblue" points="2540.29,-179.94 2550.36,-176.63 2540.43,-172.94 2540.29,-179.94"/>
</g>
<!-- Node167 -->
<g id="node18" class="node">
<title>Node167</title>
<g id="a_node18"><a xlink:href="PPCSignature_8h.html" target="_top" xlink:title=" ">
<polygon fill="white" stroke="red" points="2314.16,-56.5 2314.16,-75.5 2405.16,-75.5 2405.16,-56.5 2314.16,-56.5"/>
<text text-anchor="middle" x="2359.66" y="-63.5" font-family="Helvetica,sans-Serif" font-size="10.00">PPCSignature.h</text>
</a>
</g>
</g>
<!-- Node2&#45;&gt;Node167 -->
<g id="edge24" class="edge">
<title>Node2&#45;&gt;Node167</title>
<path fill="none" stroke="midnightblue" d="M2605.43,-177.4C2677.84,-177.52 2847.91,-173.29 2883.66,-132 2889.48,-125.28 2889.7,-118.52 2883.66,-112 2848.07,-73.58 2465.65,-82.31 2413.66,-76 2410.92,-75.67 2408.11,-75.3 2405.28,-74.9"/>
<polygon fill="midnightblue" stroke="midnightblue" points="2605.09,-173.9 2595.08,-177.35 2605.06,-180.9 2605.09,-173.9"/>
</g>
<!-- Node168 -->
<g id="node19" class="node">
<title>Node168</title>
<g id="a_node19"><a xlink:href="Return_8cpp.html" target="_top" xlink:title=" ">
<polygon fill="white" stroke="black" points="1795.16,-112.5 1795.16,-131.5 1864.16,-131.5 1864.16,-112.5 1795.16,-112.5"/>
<text text-anchor="middle" x="1829.66" y="-119.5" font-family="Helvetica,sans-Serif" font-size="10.00">Return.cpp</text>
</a>
</g>
</g>
<!-- Node2&#45;&gt;Node168 -->
<g id="edge26" class="edge">
<title>Node2&#45;&gt;Node168</title>
<path fill="none" stroke="midnightblue" d="M2540.44,-176.55C2440.72,-174.83 2128.5,-166.82 1872.66,-132 1869.94,-131.63 1867.13,-131.19 1864.32,-130.7"/>
<polygon fill="midnightblue" stroke="midnightblue" points="2540.42,-180.05 2550.48,-176.72 2540.53,-173.06 2540.42,-180.05"/>
</g>
<!-- Node169 -->
<g id="node20" class="node">
<title>Node169</title>
<g id="a_node20"><a xlink:href="SPARCSignature_8h.html" target="_top" xlink:title=" ">
<polygon fill="white" stroke="red" points="1956.66,-56.5 1956.66,-75.5 2060.66,-75.5 2060.66,-56.5 1956.66,-56.5"/>
<text text-anchor="middle" x="2008.66" y="-63.5" font-family="Helvetica,sans-Serif" font-size="10.00">SPARCSignature.h</text>
</a>
</g>
</g>
<!-- Node2&#45;&gt;Node169 -->
<g id="edge27" class="edge">
<title>Node2&#45;&gt;Node169</title>
<path fill="none" stroke="midnightblue" d="M2540.25,-176.62C2382.39,-174.63 1700.26,-164.17 1669.66,-132 1637.89,-98.61 1597.57,-124.02 1946.66,-76 1949.89,-75.56 1953.22,-75.09 1956.57,-74.62"/>
<polygon fill="midnightblue" stroke="midnightblue" points="2540.25,-180.12 2550.29,-176.75 2540.33,-173.12 2540.25,-180.12"/>
</g>
<!-- Node170 -->
<g id="node21" class="node">
<title>Node170</title>
<g id="a_node21"><a xlink:href="ST20Signature_8h.html" target="_top" xlink:title=" ">
<polygon fill="white" stroke="red" points="2078.66,-56.5 2078.66,-75.5 2174.66,-75.5 2174.66,-56.5 2078.66,-56.5"/>
<text text-anchor="middle" x="2126.66" y="-63.5" font-family="Helvetica,sans-Serif" font-size="10.00">ST20Signature.h</text>
</a>
</g>
</g>
<!-- Node2&#45;&gt;Node170 -->
<g id="edge29" class="edge">
<title>Node2&#45;&gt;Node170</title>
<path fill="none" stroke="midnightblue" d="M2540.14,-176.6C2383.15,-174.53 1709.89,-163.79 1679.66,-132 1619.32,-68.55 1982.78,-86.86 2069.66,-76 2072.54,-75.64 2075.5,-75.25 2078.49,-74.83"/>
<polygon fill="midnightblue" stroke="midnightblue" points="2540.49,-180.11 2550.54,-176.74 2540.58,-173.11 2540.49,-180.11"/>
</g>
<!-- Node171 -->
<g id="node22" class="node">
<title>Node171</title>
<g id="a_node22"><a xlink:href="Win32Signature_8h.html" target="_top" xlink:title=" ">
<polygon fill="white" stroke="red" points="2193.16,-56.5 2193.16,-75.5 2296.16,-75.5 2296.16,-56.5 2193.16,-56.5"/>
<text text-anchor="middle" x="2244.66" y="-63.5" font-family="Helvetica,sans-Serif" font-size="10.00">Win32Signature.h</text>
</a>
</g>
</g>
<!-- Node2&#45;&gt;Node171 -->
<g id="edge31" class="edge">
<title>Node2&#45;&gt;Node171</title>
<path fill="none" stroke="midnightblue" d="M2605.03,-176.76C2671.24,-175.5 2818.56,-168.56 2849.66,-132 2855.42,-125.23 2855.73,-118.49 2849.66,-112 2808.18,-67.7 2365,-82.51 2304.66,-76 2301.93,-75.71 2299.15,-75.38 2296.33,-75.03"/>
<polygon fill="midnightblue" stroke="midnightblue" points="2604.7,-173.26 2594.76,-176.92 2604.81,-180.26 2604.7,-173.26"/>
</g>
<!-- Node172 -->
<g id="node23" class="node">
<title>Node172</title>
<g id="a_node23"><a xlink:href="ExpHelp_8cpp.html" target="_top" xlink:title=" ">
<polygon fill="white" stroke="black" points="1882.16,-112.5 1882.16,-131.5 1959.16,-131.5 1959.16,-112.5 1882.16,-112.5"/>
<text text-anchor="middle" x="1920.66" y="-119.5" font-family="Helvetica,sans-Serif" font-size="10.00">ExpHelp.cpp</text>
</a>
</g>
</g>
<!-- Node2&#45;&gt;Node172 -->
<g id="edge34" class="edge">
<title>Node2&#45;&gt;Node172</title>
<path fill="none" stroke="midnightblue" d="M2540.48,-175.86C2450.04,-172.39 2186.08,-160.39 1968.66,-132 1965.63,-131.6 1962.51,-131.14 1959.37,-130.64"/>
<polygon fill="midnightblue" stroke="midnightblue" points="2540.5,-179.36 2550.63,-176.24 2540.77,-172.37 2540.5,-179.36"/>
</g>
<!-- Node173 -->
<g id="node24" class="node">
<title>Node173</title>
<g id="a_node24"><a xlink:href="CaseStatement_8cpp.html" target="_top" xlink:title=" ">
<polygon fill="white" stroke="black" points="1977.66,-112.5 1977.66,-131.5 2089.66,-131.5 2089.66,-112.5 1977.66,-112.5"/>
<text text-anchor="middle" x="2033.66" y="-119.5" font-family="Helvetica,sans-Serif" font-size="10.00">CaseStatement.cpp</text>
</a>
</g>
</g>
<!-- Node2&#45;&gt;Node173 -->
<g id="edge35" class="edge">
<title>Node2&#45;&gt;Node173</title>
<path fill="none" stroke="midnightblue" d="M2540.42,-174.42C2463.75,-168.18 2264.51,-151.35 2098.66,-132 2095.72,-131.66 2092.7,-131.29 2089.66,-130.91"/>
<polygon fill="midnightblue" stroke="midnightblue" points="2540.16,-177.91 2550.41,-175.23 2540.73,-170.93 2540.16,-177.91"/>
</g>
<!-- Node174 -->
<g id="node25" class="node">
<title>Node174</title>
<g id="a_node25"><a xlink:href="ImplicitAssign_8cpp.html" target="_top" xlink:title=" ">
<polygon fill="white" stroke="black" points="2107.66,-112.5 2107.66,-131.5 2213.66,-131.5 2213.66,-112.5 2107.66,-112.5"/>
<text text-anchor="middle" x="2160.66" y="-119.5" font-family="Helvetica,sans-Serif" font-size="10.00">ImplicitAssign.cpp</text>
</a>
</g>
</g>
<!-- Node2&#45;&gt;Node174 -->
<g id="edge36" class="edge">
<title>Node2&#45;&gt;Node174</title>
<path fill="none" stroke="midnightblue" d="M2540.25,-173.01C2478.45,-165.37 2339.47,-147.99 2222.66,-132 2219.75,-131.6 2216.76,-131.19 2213.75,-130.76"/>
<polygon fill="midnightblue" stroke="midnightblue" points="2540.17,-176.53 2550.53,-174.28 2541.03,-169.58 2540.17,-176.53"/>
</g>
<!-- Node45 -->
<g id="node26" class="node">
<title>Node45</title>
<g id="a_node26"><a xlink:href="CFGDotWriter_8cpp.html" target="_top" xlink:title=" ">
<polygon fill="white" stroke="black" points="2231.66,-112.5 2231.66,-131.5 2335.66,-131.5 2335.66,-112.5 2231.66,-112.5"/>
<text text-anchor="middle" x="2283.66" y="-119.5" font-family="Helvetica,sans-Serif" font-size="10.00">CFGDotWriter.cpp</text>
</a>
</g>
</g>
<!-- Node2&#45;&gt;Node45 -->
<g id="edge37" class="edge">
<title>Node2&#45;&gt;Node45</title>
<path fill="none" stroke="midnightblue" d="M2540.57,-171C2489.15,-161.4 2388.12,-142.52 2329.24,-131.52"/>
<polygon fill="midnightblue" stroke="midnightblue" points="2539.99,-174.46 2550.46,-172.85 2541.27,-167.58 2539.99,-174.46"/>
</g>
<!-- Node87 -->
<g id="node27" class="node">
<title>Node87</title>
<g id="a_node27"><a xlink:href="Log_8cpp.html" target="_top" xlink:title=" ">
<polygon fill="white" stroke="black" points="2353.66,-112.5 2353.66,-131.5 2407.66,-131.5 2407.66,-112.5 2353.66,-112.5"/>
<text text-anchor="middle" x="2380.66" y="-119.5" font-family="Helvetica,sans-Serif" font-size="10.00">Log.cpp</text>
</a>
</g>
</g>
<!-- Node2&#45;&gt;Node87 -->
<g id="edge38" class="edge">
<title>Node2&#45;&gt;Node87</title>
<path fill="none" stroke="midnightblue" d="M2540.83,-168.05C2503.73,-157.61 2443.02,-140.54 2407.97,-130.68"/>
<polygon fill="midnightblue" stroke="midnightblue" points="2540.06,-171.47 2550.63,-170.81 2541.95,-164.73 2540.06,-171.47"/>
</g>
<!-- Node28 -->
<g id="node28" class="node">
<title>Node28</title>
<g id="a_node28"><a xlink:href="StmtImplicitConverter_8cpp.html" target="_top" xlink:title=" ">
<polygon fill="white" stroke="black" points="2426.16,-112.5 2426.16,-131.5 2571.16,-131.5 2571.16,-112.5 2426.16,-112.5"/>
<text text-anchor="middle" x="2498.66" y="-119.5" font-family="Helvetica,sans-Serif" font-size="10.00">StmtImplicitConverter.cpp</text>
</a>
</g>
</g>
<!-- Node2&#45;&gt;Node28 -->
<g id="edge39" class="edge">
<title>Node2&#45;&gt;Node28</title>
<path fill="none" stroke="midnightblue" d="M2552.62,-162.38C2539.25,-152.62 2522.1,-140.11 2510.76,-131.83"/>
<polygon fill="midnightblue" stroke="midnightblue" points="2550.63,-165.26 2560.77,-168.32 2554.75,-159.6 2550.63,-165.26"/>
</g>
<!-- Node30 -->
<g id="node29" class="node">
<title>Node30</title>
<g id="a_node29"><a xlink:href="StmtSubscripter_8cpp.html" target="_top" xlink:title=" ">
<polygon fill="white" stroke="black" points="2589.16,-112.5 2589.16,-131.5 2704.16,-131.5 2704.16,-112.5 2589.16,-112.5"/>
<text text-anchor="middle" x="2646.66" y="-119.5" font-family="Helvetica,sans-Serif" font-size="10.00">StmtSubscripter.cpp</text>
</a>
</g>
</g>
<!-- Node2&#45;&gt;Node30 -->
<g id="edge40" class="edge">
<title>Node2&#45;&gt;Node30</title>
<path fill="none" stroke="midnightblue" d="M2592.69,-162.38C2606.07,-152.62 2623.22,-140.11 2634.55,-131.83"/>
<polygon fill="midnightblue" stroke="midnightblue" points="2590.56,-159.6 2584.55,-168.32 2594.69,-165.26 2590.56,-159.6"/>
</g>
<!-- Node32 -->
<g id="node30" class="node">
<title>Node32</title>
<g id="a_node30"><a xlink:href="StmtCastInserter_8cpp.html" target="_top" xlink:title=" ">
<polygon fill="white" stroke="black" points="2722.16,-112.5 2722.16,-131.5 2841.16,-131.5 2841.16,-112.5 2722.16,-112.5"/>
<text text-anchor="middle" x="2781.66" y="-119.5" font-family="Helvetica,sans-Serif" font-size="10.00">StmtCastInserter.cpp</text>
</a>
</g>
</g>
<!-- Node2&#45;&gt;Node32 -->
<g id="edge41" class="edge">
<title>Node2&#45;&gt;Node32</title>
<path fill="none" stroke="midnightblue" d="M2604.8,-168.7C2643.76,-158.63 2709.08,-141.75 2748.5,-131.57"/>
<polygon fill="midnightblue" stroke="midnightblue" points="2603.83,-165.33 2595.02,-171.22 2605.58,-172.11 2603.83,-165.33"/>
</g>
<!-- Node56 -->
<g id="node4" class="node">
<title>Node56</title>
<g id="a_node4"><a xlink:href="Prog_8cpp.html" target="_top" xlink:title=" ">
<polygon fill="white" stroke="black" points="2838.16,-56.5 2838.16,-75.5 2897.16,-75.5 2897.16,-56.5 2838.16,-56.5"/>
<text text-anchor="middle" x="2867.66" y="-63.5" font-family="Helvetica,sans-Serif" font-size="10.00">Prog.cpp</text>
</a>
</g>
</g>
<!-- Node3&#45;&gt;Node56 -->
<g id="edge3" class="edge">
<title>Node3&#45;&gt;Node56</title>
<path fill="none" stroke="midnightblue" d="M3004.4,-109.44C2971.59,-99.26 2924.58,-84.66 2895.1,-75.52"/>
<polygon fill="midnightblue" stroke="midnightblue" points="3003.5,-112.82 3014.09,-112.44 3005.57,-106.14 3003.5,-112.82"/>
</g>
<!-- Node59 -->
<g id="node5" class="node">
<title>Node59</title>
<g id="a_node5"><a xlink:href="Signature_8cpp.html" target="_top" xlink:title=" ">
<polygon fill="white" stroke="black" points="2085.16,-0.5 2085.16,-19.5 2168.16,-19.5 2168.16,-0.5 2085.16,-0.5"/>
<text text-anchor="middle" x="2126.66" y="-7.5" font-family="Helvetica,sans-Serif" font-size="10.00">Signature.cpp</text>
</a>
</g>
</g>
<!-- Node3&#45;&gt;Node59 -->
<g id="edge4" class="edge">
<title>Node3&#45;&gt;Node59</title>
<path fill="none" stroke="midnightblue" d="M3085.54,-110.14C3122.68,-98.98 3166.51,-79.89 3143.66,-56 3109.43,-20.22 2355.62,-12.6 2168.44,-11.26"/>
<polygon fill="midnightblue" stroke="midnightblue" points="3084.44,-106.81 3075.8,-112.93 3086.38,-113.54 3084.44,-106.81"/>
</g>
<!-- Node3&#45;&gt;Node118 -->
<g id="edge5" class="edge">
<title>Node3&#45;&gt;Node118</title>
<path fill="none" stroke="midnightblue" d="M3079.81,-109.43C3113.47,-99.21 3161.75,-84.57 3191.88,-75.43"/>
<polygon fill="midnightblue" stroke="midnightblue" points="3078.42,-106.19 3069.86,-112.44 3080.45,-112.89 3078.42,-106.19"/>
</g>
<!-- Node81 -->
<g id="node7" class="node">
<title>Node81</title>
<g id="a_node7"><a xlink:href="Assignment_8cpp.html" target="_top" xlink:title=" ">
<polygon fill="white" stroke="black" points="2915.16,-56.5 2915.16,-75.5 3010.16,-75.5 3010.16,-56.5 2915.16,-56.5"/>
<text text-anchor="middle" x="2962.66" y="-63.5" font-family="Helvetica,sans-Serif" font-size="10.00">Assignment.cpp</text>
</a>
</g>
</g>
<!-- Node3&#45;&gt;Node81 -->
<g id="edge6" class="edge">
<title>Node3&#45;&gt;Node81</title>
<path fill="none" stroke="midnightblue" d="M3020.62,-106.62C3006.19,-96.76 2987.52,-83.99 2975.32,-75.65"/>
<polygon fill="midnightblue" stroke="midnightblue" points="3018.73,-109.57 3028.96,-112.32 3022.68,-103.79 3018.73,-109.57"/>
</g>
<!-- Node23 -->
<g id="node8" class="node">
<title>Node23</title>
<g id="a_node8"><a xlink:href="CallStatement_8cpp.html" target="_top" xlink:title=" ">
<polygon fill="white" stroke="black" points="3028.16,-56.5 3028.16,-75.5 3135.16,-75.5 3135.16,-56.5 3028.16,-56.5"/>
<text text-anchor="middle" x="3081.66" y="-63.5" font-family="Helvetica,sans-Serif" font-size="10.00">CallStatement.cpp</text>
</a>
</g>
</g>
<!-- Node3&#45;&gt;Node23 -->
<g id="edge7" class="edge">
<title>Node3&#45;&gt;Node23</title>
<path fill="none" stroke="midnightblue" d="M3054.36,-103.86C3061.28,-94.5 3069.56,-83.33 3075.18,-75.75"/>
<polygon fill="midnightblue" stroke="midnightblue" points="3051.4,-101.96 3048.26,-112.08 3057.03,-106.13 3051.4,-101.96"/>
</g>
<!-- Node83 -->
<g id="node9" class="node">
<title>Node83</title>
<g id="a_node9"><a xlink:href="Type_8cpp.html" target="_top" xlink:title=" ">
<polygon fill="white" stroke="black" points="2761.16,-56.5 2761.16,-75.5 2820.16,-75.5 2820.16,-56.5 2761.16,-56.5"/>
<text text-anchor="middle" x="2790.66" y="-63.5" font-family="Helvetica,sans-Serif" font-size="10.00">Type.cpp</text>
</a>
</g>
</g>
<!-- Node3&#45;&gt;Node83 -->
<g id="edge8" class="edge">
<title>Node3&#45;&gt;Node83</title>
<path fill="none" stroke="midnightblue" d="M2997.32,-111.77C2944.73,-100.79 2860.21,-83.07 2828.66,-76 2826.01,-75.41 2823.26,-74.78 2820.51,-74.14"/>
<polygon fill="midnightblue" stroke="midnightblue" points="2996.88,-115.25 3007.39,-113.87 2998.31,-108.4 2996.88,-115.25"/>
</g>
<!-- Node130&#45;&gt;Node118 -->
<g id="edge10" class="edge">
<title>Node130&#45;&gt;Node118</title>
<path fill="none" stroke="midnightblue" d="M3236.98,-102.98C3232.57,-93.82 3227.41,-83.09 3223.87,-75.75"/>
<polygon fill="midnightblue" stroke="midnightblue" points="3233.87,-104.59 3241.36,-112.08 3240.18,-101.55 3233.87,-104.59"/>
</g>
<!-- Node137&#45;&gt;Node56 -->
<g id="edge14" class="edge">
<title>Node137&#45;&gt;Node56</title>
<path fill="none" stroke="midnightblue" d="M2938.34,-107.18C2920.86,-97.24 2897.83,-84.15 2882.88,-75.65"/>
<polygon fill="midnightblue" stroke="midnightblue" points="2936.97,-110.43 2947.39,-112.32 2940.43,-104.34 2936.97,-110.43"/>
</g>
<!-- Node137&#45;&gt;Node118 -->
<g id="edge16" class="edge">
<title>Node137&#45;&gt;Node118</title>
<path fill="none" stroke="midnightblue" d="M2999.51,-111.89C3074.95,-94.92 3151.89,-79.89 3192.01,-72.22"/>
<polygon fill="midnightblue" stroke="midnightblue" points="2998.34,-108.56 2989.36,-114.18 2999.89,-115.39 2998.34,-108.56"/>
</g>
<!-- Node137&#45;&gt;Node81 -->
<g id="edge18" class="edge">
<title>Node137&#45;&gt;Node81</title>
<path fill="none" stroke="midnightblue" d="M2962.66,-101.8C2962.66,-92.91 2962.66,-82.78 2962.66,-75.75"/>
<polygon fill="midnightblue" stroke="midnightblue" points="2959.16,-102.08 2962.66,-112.08 2966.16,-102.08 2959.16,-102.08"/>
</g>
<!-- Node137&#45;&gt;Node23 -->
<g id="edge19" class="edge">
<title>Node137&#45;&gt;Node23</title>
<path fill="none" stroke="midnightblue" d="M2990.79,-108.23C3013.05,-98.13 3043.51,-84.31 3062.89,-75.52"/>
<polygon fill="midnightblue" stroke="midnightblue" points="2989.17,-105.12 2981.51,-112.44 2992.07,-111.5 2989.17,-105.12"/>
</g>
<!-- Node137&#45;&gt;Node83 -->
<g id="edge20" class="edge">
<title>Node137&#45;&gt;Node83</title>
<path fill="none" stroke="midnightblue" d="M2926.22,-109.56C2893.82,-99.39 2847.17,-84.74 2817.91,-75.56"/>
<polygon fill="midnightblue" stroke="midnightblue" points="2925.19,-112.91 2935.78,-112.56 2927.29,-106.23 2925.19,-112.91"/>
</g>
<!-- Node53 -->
<g id="node12" class="node">
<title>Node53</title>
<g id="a_node12"><a xlink:href="DebugInfo_8cpp.html" target="_top" xlink:title=" ">
<polygon fill="white" stroke="black" points="2423.16,-56.5 2423.16,-75.5 2510.16,-75.5 2510.16,-56.5 2423.16,-56.5"/>
<text text-anchor="middle" x="2466.66" y="-63.5" font-family="Helvetica,sans-Serif" font-size="10.00">DebugInfo.cpp</text>
</a>
</g>
</g>
<!-- Node137&#45;&gt;Node53 -->
<g id="edge12" class="edge">
<title>Node137&#45;&gt;Node53</title>
<path fill="none" stroke="midnightblue" d="M2925.6,-112.64C2924.27,-112.42 2922.95,-112.2 2921.66,-112 2744.36,-84.71 2697.55,-99.03 2519.66,-76 2516.6,-75.6 2513.46,-75.16 2510.29,-74.69"/>
<polygon fill="midnightblue" stroke="midnightblue" points="2925.36,-116.16 2935.84,-114.6 2926.68,-109.29 2925.36,-116.16"/>
</g>
<!-- Node10 -->
<g id="node13" class="node">
<title>Node10</title>
<g id="a_node13"><a xlink:href="UserProc_8cpp.html" target="_top" xlink:title=" ">
<polygon fill="white" stroke="black" points="2528.66,-56.5 2528.66,-75.5 2608.66,-75.5 2608.66,-56.5 2528.66,-56.5"/>
<text text-anchor="middle" x="2568.66" y="-63.5" font-family="Helvetica,sans-Serif" font-size="10.00">UserProc.cpp</text>
</a>
</g>
</g>
<!-- Node137&#45;&gt;Node10 -->
<g id="edge13" class="edge">
<title>Node137&#45;&gt;Node10</title>
<path fill="none" stroke="midnightblue" d="M2925.59,-112.69C2924.27,-112.45 2922.95,-112.22 2921.66,-112 2787.49,-89.39 2752.19,-96.3 2617.66,-76 2614.75,-75.56 2611.75,-75.08 2608.73,-74.58"/>
<polygon fill="midnightblue" stroke="midnightblue" points="2925.34,-116.21 2935.82,-114.71 2926.69,-109.34 2925.34,-116.21"/>
</g>
<!-- Node38 -->
<g id="node14" class="node">
<title>Node38</title>
<g id="a_node14"><a xlink:href="DefaultFrontEnd_8cpp.html" target="_top" xlink:title=" ">
<polygon fill="white" stroke="black" points="2626.66,-56.5 2626.66,-75.5 2742.66,-75.5 2742.66,-56.5 2626.66,-56.5"/>
<text text-anchor="middle" x="2684.66" y="-63.5" font-family="Helvetica,sans-Serif" font-size="10.00">DefaultFrontEnd.cpp</text>
</a>
</g>
</g>
<!-- Node137&#45;&gt;Node38 -->
<g id="edge15" class="edge">
<title>Node137&#45;&gt;Node38</title>
<path fill="none" stroke="midnightblue" d="M2925.57,-112.81C2924.25,-112.53 2922.94,-112.26 2921.66,-112 2856.01,-98.56 2779.84,-84.35 2731.95,-75.57"/>
<polygon fill="midnightblue" stroke="midnightblue" points="2925.26,-116.32 2935.77,-114.98 2926.72,-109.48 2925.26,-116.32"/>
</g>
<!-- Node137&#45;&gt;Node140 -->
<g id="edge17" class="edge">
<title>Node137&#45;&gt;Node140</title>
<path fill="none" stroke="midnightblue" d="M2999.29,-112.19C3053.73,-102.91 3227.71,-79.71 3295.94,-70.66"/>
<polygon fill="midnightblue" stroke="midnightblue" points="2998.54,-108.77 2989.32,-113.99 2999.79,-115.65 2998.54,-108.77"/>
</g>
<!-- Node147&#45;&gt;Node118 -->
<g id="edge22" class="edge">
<title>Node147&#45;&gt;Node118</title>
<path fill="none" stroke="midnightblue" d="M3145.49,-107.45C3163.77,-97.48 3188.07,-84.23 3203.79,-75.65"/>
<polygon fill="midnightblue" stroke="midnightblue" points="3143.67,-104.46 3136.56,-112.32 3147.02,-110.61 3143.67,-104.46"/>
</g>
<!-- Node167&#45;&gt;Node59 -->
<g id="edge25" class="edge">
<title>Node167&#45;&gt;Node59</title>
<path fill="none" stroke="midnightblue" d="M2312.85,-54.15C2268.83,-43.95 2203.81,-28.88 2163.4,-19.52"/>
<polygon fill="midnightblue" stroke="midnightblue" points="2312.21,-57.6 2322.74,-56.44 2313.79,-50.78 2312.21,-57.6"/>
</g>
<!-- Node169&#45;&gt;Node59 -->
<g id="edge28" class="edge">
<title>Node169&#45;&gt;Node59</title>
<path fill="none" stroke="midnightblue" d="M2036.56,-52.23C2058.63,-42.13 2088.83,-28.31 2108.05,-19.52"/>
<polygon fill="midnightblue" stroke="midnightblue" points="2034.99,-49.1 2027.36,-56.44 2037.9,-55.46 2034.99,-49.1"/>
</g>
<!-- Node170&#45;&gt;Node59 -->
<g id="edge30" class="edge">
<title>Node170&#45;&gt;Node59</title>
<path fill="none" stroke="midnightblue" d="M2126.66,-45.8C2126.66,-36.91 2126.66,-26.78 2126.66,-19.75"/>
<polygon fill="midnightblue" stroke="midnightblue" points="2123.16,-46.08 2126.66,-56.08 2130.16,-46.08 2123.16,-46.08"/>
</g>
<!-- Node171&#45;&gt;Node59 -->
<g id="edge32" class="edge">
<title>Node171&#45;&gt;Node59</title>
<path fill="none" stroke="midnightblue" d="M2216.76,-52.23C2194.69,-42.13 2164.48,-28.31 2145.27,-19.52"/>
<polygon fill="midnightblue" stroke="midnightblue" points="2215.41,-55.46 2225.96,-56.44 2218.32,-49.1 2215.41,-55.46"/>
</g>
<!-- Node175&#45;&gt;Node56 -->
<g id="edge48" class="edge">
<title>Node175&#45;&gt;Node56</title>
<path fill="none" stroke="midnightblue" d="M1604.88,-117.09C1627.42,-115.31 1654.94,-113.31 1679.66,-112 2189.86,-85.05 2321.99,-141.76 2828.66,-76 2831.69,-75.61 2834.83,-75.08 2837.96,-74.48"/>
<polygon fill="midnightblue" stroke="midnightblue" points="1604.59,-113.61 1594.9,-117.9 1605.15,-120.58 1604.59,-113.61"/>
</g>
<!-- Node175&#45;&gt;Node59 -->
<g id="edge53" class="edge">
<title>Node175&#45;&gt;Node59</title>
<path fill="none" stroke="midnightblue" d="M1512.42,-120.54C1257.26,-117.89 31.61,-103.75 4.66,-76 -1.54,-69.62 -1.56,-62.35 4.66,-56 42.44,-17.41 1791.54,-11.76 2085.07,-11.08"/>
<polygon fill="midnightblue" stroke="midnightblue" points="1512.43,-124.04 1522.47,-120.64 1512.5,-117.04 1512.43,-124.04"/>
</g>
<!-- Node175&#45;&gt;Node118 -->
<g id="edge65" class="edge">
<title>Node175&#45;&gt;Node118</title>
<path fill="none" stroke="midnightblue" d="M1604.88,-117.02C1627.42,-115.22 1654.94,-113.22 1679.66,-112 2329.73,-79.85 2494.44,-122.32 3143.66,-76 3159.69,-74.86 3177.55,-72.78 3191.92,-70.91"/>
<polygon fill="midnightblue" stroke="midnightblue" points="1604.58,-113.53 1594.9,-117.83 1605.15,-120.51 1604.58,-113.53"/>
</g>
<!-- Node175&#45;&gt;Node81 -->
<g id="edge66" class="edge">
<title>Node175&#45;&gt;Node81</title>
<path fill="none" stroke="midnightblue" d="M1604.88,-117.07C1627.42,-115.28 1654.94,-113.28 1679.66,-112 2224.05,-83.78 2362.89,-126.61 2905.66,-76 2908.75,-75.71 2911.93,-75.36 2915.13,-74.97"/>
<polygon fill="midnightblue" stroke="midnightblue" points="1604.59,-113.59 1594.9,-117.88 1605.15,-120.56 1604.59,-113.59"/>
</g>
<!-- Node175&#45;&gt;Node23 -->
<g id="edge67" class="edge">
<title>Node175&#45;&gt;Node23</title>
<path fill="none" stroke="midnightblue" d="M1604.88,-117.05C1627.42,-115.25 1654.94,-113.25 1679.66,-112 2274.22,-81.91 2425.45,-126.18 3018.66,-76 3021.74,-75.74 3024.9,-75.43 3028.09,-75.08"/>
<polygon fill="midnightblue" stroke="midnightblue" points="1604.58,-113.56 1594.9,-117.85 1605.15,-120.54 1604.58,-113.56"/>
</g>
<!-- Node175&#45;&gt;Node83 -->
<g id="edge70" class="edge">
<title>Node175&#45;&gt;Node83</title>
<path fill="none" stroke="midnightblue" d="M1604.88,-117.12C1627.42,-115.34 1654.94,-113.33 1679.66,-112 2155.68,-86.31 2278.98,-137.89 2751.66,-76 2754.69,-75.6 2757.83,-75.08 2760.96,-74.48"/>
<polygon fill="midnightblue" stroke="midnightblue" points="1604.59,-113.63 1594.9,-117.92 1605.15,-120.61 1604.59,-113.63"/>
</g>
<!-- Node175&#45;&gt;Node53 -->
<g id="edge43" class="edge">
<title>Node175&#45;&gt;Node53</title>
<path fill="none" stroke="midnightblue" d="M1604.89,-117.29C1627.43,-115.55 1654.95,-113.52 1679.66,-112 2005.65,-91.89 2088.97,-111.4 2413.66,-76 2416.72,-75.67 2419.87,-75.27 2423.04,-74.83"/>
<polygon fill="midnightblue" stroke="midnightblue" points="1604.61,-113.8 1594.91,-118.06 1605.15,-120.78 1604.61,-113.8"/>
</g>
<!-- Node175&#45;&gt;Node10 -->
<g id="edge47" class="edge">
<title>Node175&#45;&gt;Node10</title>
<path fill="none" stroke="midnightblue" d="M1604.89,-117.22C1627.43,-115.46 1654.95,-113.45 1679.66,-112 2052.25,-90.16 2147.7,-117.15 2518.66,-76 2521.9,-75.64 2525.25,-75.2 2528.61,-74.7"/>
<polygon fill="midnightblue" stroke="midnightblue" points="1604.6,-113.73 1594.91,-118.01 1605.15,-120.71 1604.6,-113.73"/>
</g>
<!-- Node175&#45;&gt;Node38 -->
<g id="edge58" class="edge">
<title>Node175&#45;&gt;Node38</title>
<path fill="none" stroke="midnightblue" d="M1604.88,-117.17C1627.43,-115.4 1654.94,-113.39 1679.66,-112 2096.19,-88.52 2202,-111.81 2617.66,-76 2620.58,-75.75 2623.57,-75.46 2626.59,-75.14"/>
<polygon fill="midnightblue" stroke="midnightblue" points="1604.6,-113.68 1594.9,-117.96 1605.15,-120.66 1604.6,-113.68"/>
</g>
<!-- Node175&#45;&gt;Node167 -->
<g id="edge52" class="edge">
<title>Node175&#45;&gt;Node167</title>
<path fill="none" stroke="midnightblue" d="M1604.9,-117.38C1627.44,-115.66 1654.96,-113.63 1679.66,-112 1957.29,-93.68 2028.1,-106.51 2304.66,-76 2307.74,-75.66 2310.9,-75.27 2314.09,-74.83"/>
<polygon fill="midnightblue" stroke="midnightblue" points="1604.62,-113.89 1594.92,-118.14 1605.15,-120.87 1604.62,-113.89"/>
</g>
<!-- Node175&#45;&gt;Node169 -->
<g id="edge54" class="edge">
<title>Node175&#45;&gt;Node169</title>
<path fill="none" stroke="midnightblue" d="M1604.86,-112.56C1606.14,-112.37 1607.41,-112.18 1608.66,-112 1758.21,-90.6 1796.77,-94.85 1946.66,-76 1949.9,-75.59 1953.23,-75.16 1956.58,-74.71"/>
<polygon fill="midnightblue" stroke="midnightblue" points="1604.25,-109.11 1594.93,-114.15 1605.36,-116.02 1604.25,-109.11"/>
</g>
<!-- Node175&#45;&gt;Node170 -->
<g id="edge55" class="edge">
<title>Node175&#45;&gt;Node170</title>
<path fill="none" stroke="midnightblue" d="M1605.02,-116.11C1618.45,-114.73 1633.13,-113.27 1646.66,-112 1834.51,-94.4 1882.35,-98.73 2069.66,-76 2072.54,-75.65 2075.5,-75.26 2078.49,-74.85"/>
<polygon fill="midnightblue" stroke="midnightblue" points="1604.62,-112.63 1595.04,-117.14 1605.34,-119.59 1604.62,-112.63"/>
</g>
<!-- Node175&#45;&gt;Node171 -->
<g id="edge56" class="edge">
<title>Node175&#45;&gt;Node171</title>
<path fill="none" stroke="midnightblue" d="M1604.66,-117.55C1627.25,-115.86 1654.88,-113.81 1679.66,-112 1903.63,-95.67 1960.42,-100.41 2183.66,-76 2186.74,-75.66 2189.91,-75.29 2193.11,-74.88"/>
<polygon fill="midnightblue" stroke="midnightblue" points="1604.37,-114.06 1594.66,-118.29 1604.89,-121.04 1604.37,-114.06"/>
</g>
<!-- Node54 -->
<g id="node32" class="node">
<title>Node54</title>
<g id="a_node32"><a xlink:href="Module_8cpp.html" target="_top" xlink:title=" ">
<polygon fill="white" stroke="black" points="14.16,-56.5 14.16,-75.5 87.16,-75.5 87.16,-56.5 14.16,-56.5"/>
<text text-anchor="middle" x="50.66" y="-63.5" font-family="Helvetica,sans-Serif" font-size="10.00">Module.cpp</text>
</a>
</g>
</g>
<!-- Node175&#45;&gt;Node54 -->
<g id="edge44" class="edge">
<title>Node175&#45;&gt;Node54</title>
<path fill="none" stroke="midnightblue" d="M1512.56,-120.59C1296.29,-118.51 380.79,-107.95 96.66,-76 93.58,-75.65 90.41,-75.21 87.23,-74.71"/>
<polygon fill="midnightblue" stroke="midnightblue" points="1512.59,-124.09 1522.62,-120.69 1512.65,-117.09 1512.59,-124.09"/>
</g>
<!-- Node176 -->
<g id="node33" class="node">
<title>Node176</title>
<g id="a_node33"><a xlink:href="LibProc_8cpp.html" target="_top" xlink:title=" ">
<polygon fill="white" stroke="black" points="105.66,-56.5 105.66,-75.5 177.66,-75.5 177.66,-56.5 105.66,-56.5"/>
<text text-anchor="middle" x="141.66" y="-63.5" font-family="Helvetica,sans-Serif" font-size="10.00">LibProc.cpp</text>
</a>
</g>
</g>
<!-- Node175&#45;&gt;Node176 -->
<g id="edge45" class="edge">
<title>Node175&#45;&gt;Node176</title>
<path fill="none" stroke="midnightblue" d="M1512.08,-120.5C1303.24,-118.11 451.79,-106.65 186.66,-76 183.81,-75.67 180.87,-75.26 177.93,-74.79"/>
<polygon fill="midnightblue" stroke="midnightblue" points="1512.34,-124.01 1522.38,-120.62 1512.42,-117.01 1512.34,-124.01"/>
</g>
<!-- Node103 -->
<g id="node34" class="node">
<title>Node103</title>
<g id="a_node34"><a xlink:href="Proc_8cpp.html" target="_top" xlink:title=" ">
<polygon fill="white" stroke="black" points="195.66,-56.5 195.66,-75.5 253.66,-75.5 253.66,-56.5 195.66,-56.5"/>
<text text-anchor="middle" x="224.66" y="-63.5" font-family="Helvetica,sans-Serif" font-size="10.00">Proc.cpp</text>
</a>
</g>
</g>
<!-- Node175&#45;&gt;Node103 -->
<g id="edge46" class="edge">
<title>Node175&#45;&gt;Node103</title>
<path fill="none" stroke="midnightblue" d="M1512.36,-120.62C1311.16,-118.78 511.59,-109.47 262.66,-76 259.84,-75.62 256.92,-75.12 254.01,-74.56"/>
<polygon fill="midnightblue" stroke="midnightblue" points="1512.55,-124.12 1522.58,-120.71 1512.62,-117.12 1512.55,-124.12"/>
</g>
<!-- Node177 -->
<g id="node35" class="node">
<title>Node177</title>
<g id="a_node35"><a xlink:href="CustomSignature_8h.html" target="_top" xlink:title=" ">
<polygon fill="white" stroke="red" points="271.66,-56.5 271.66,-75.5 381.66,-75.5 381.66,-56.5 271.66,-56.5"/>
<text text-anchor="middle" x="326.66" y="-63.5" font-family="Helvetica,sans-Serif" font-size="10.00">CustomSignature.h</text>
</a>
</g>
</g>
<!-- Node175&#45;&gt;Node177 -->
<g id="edge49" class="edge">
<title>Node175&#45;&gt;Node177</title>
<path fill="none" stroke="midnightblue" d="M1511.95,-120.9C1353.98,-120.18 825.34,-114.84 390.66,-76 387.75,-75.74 384.78,-75.44 381.77,-75.11"/>
<polygon fill="midnightblue" stroke="midnightblue" points="1512.23,-124.4 1522.24,-120.94 1512.26,-117.4 1512.23,-124.4"/>
</g>
<!-- Node178 -->
<g id="node36" class="node">
<title>Node178</title>
<g id="a_node36"><a xlink:href="PentiumSignature_8h.html" target="_top" xlink:title=" ">
<polygon fill="white" stroke="red" points="1825.16,-56.5 1825.16,-75.5 1938.16,-75.5 1938.16,-56.5 1825.16,-56.5"/>
<text text-anchor="middle" x="1881.66" y="-63.5" font-family="Helvetica,sans-Serif" font-size="10.00">PentiumSignature.h</text>
</a>
</g>
</g>
<!-- Node175&#45;&gt;Node178 -->
<g id="edge50" class="edge">
<title>Node175&#45;&gt;Node178</title>
<path fill="none" stroke="midnightblue" d="M1604.8,-112.67C1606.1,-112.44 1607.39,-112.22 1608.66,-112 1684.99,-98.84 1773.47,-84.4 1828.52,-75.52"/>
<polygon fill="midnightblue" stroke="midnightblue" points="1603.94,-109.27 1594.7,-114.45 1605.15,-116.16 1603.94,-109.27"/>
</g>
<!-- Node13 -->
<g id="node37" class="node">
<title>Node13</title>
<g id="a_node37"><a xlink:href="UnusedReturnRemover_8cpp.html" target="_top" xlink:title=" ">
<polygon fill="white" stroke="black" points="399.66,-56.5 399.66,-75.5 549.66,-75.5 549.66,-56.5 399.66,-56.5"/>
<text text-anchor="middle" x="474.66" y="-63.5" font-family="Helvetica,sans-Serif" font-size="10.00">UnusedReturnRemover.cpp</text>
</a>
</g>
</g>
<!-- Node175&#45;&gt;Node13 -->
<g id="edge57" class="edge">
<title>Node175&#45;&gt;Node13</title>
<path fill="none" stroke="midnightblue" d="M1512.15,-119.93C1369.48,-116.42 925.51,-103.88 558.66,-76 555.73,-75.78 552.75,-75.54 549.74,-75.28"/>
<polygon fill="midnightblue" stroke="midnightblue" points="1512.2,-123.43 1522.28,-120.17 1512.37,-116.43 1512.2,-123.43"/>
</g>
<!-- Node64 -->
<g id="node38" class="node">
<title>Node64</title>
<g id="a_node38"><a xlink:href="CallDefineUpdatePass_8cpp.html" target="_top" xlink:title=" ">
<polygon fill="white" stroke="black" points="567.66,-56.5 567.66,-75.5 713.66,-75.5 713.66,-56.5 567.66,-56.5"/>
<text text-anchor="middle" x="640.66" y="-63.5" font-family="Helvetica,sans-Serif" font-size="10.00">CallDefineUpdatePass.cpp</text>
</a>
</g>
</g>
<!-- Node175&#45;&gt;Node64 -->
<g id="edge59" class="edge">
<title>Node175&#45;&gt;Node64</title>
<path fill="none" stroke="midnightblue" d="M1512.23,-119.41C1385.51,-114.86 1023.14,-100.56 722.66,-76 719.8,-75.77 716.89,-75.51 713.96,-75.25"/>
<polygon fill="midnightblue" stroke="midnightblue" points="1512.23,-122.91 1522.35,-119.77 1512.48,-115.91 1512.23,-122.91"/>
</g>
<!-- Node68 -->
<g id="node39" class="node">
<title>Node68</title>
<g id="a_node39"><a xlink:href="FinalParameterSearchPass_8cpp.html" target="_top" xlink:title=" ">
<polygon fill="white" stroke="black" points="731.66,-56.5 731.66,-75.5 897.66,-75.5 897.66,-56.5 731.66,-56.5"/>
<text text-anchor="middle" x="814.66" y="-63.5" font-family="Helvetica,sans-Serif" font-size="10.00">FinalParameterSearchPass.cpp</text>
</a>
</g>
</g>
<!-- Node175&#45;&gt;Node68 -->
<g id="edge60" class="edge">
<title>Node175&#45;&gt;Node68</title>
<path fill="none" stroke="midnightblue" d="M1512.48,-118.27C1405.75,-111.85 1133.72,-94.94 906.66,-76 903.78,-75.76 900.85,-75.51 897.89,-75.25"/>
<polygon fill="midnightblue" stroke="midnightblue" points="1512.39,-121.77 1522.58,-118.87 1512.81,-114.78 1512.39,-121.77"/>
</g>
<!-- Node19 -->
<g id="node40" class="node">
<title>Node19</title>
<g id="a_node40"><a xlink:href="UnusedParamRemovalPass_8cpp.html" target="_top" xlink:title=" ">
<polygon fill="white" stroke="black" points="916.16,-56.5 916.16,-75.5 1087.16,-75.5 1087.16,-56.5 916.16,-56.5"/>
<text text-anchor="middle" x="1001.66" y="-63.5" font-family="Helvetica,sans-Serif" font-size="10.00">UnusedParamRemovalPass.cpp</text>
</a>
</g>
</g>
<!-- Node175&#45;&gt;Node19 -->
<g id="edge61" class="edge">
<title>Node175&#45;&gt;Node19</title>
<path fill="none" stroke="midnightblue" d="M1512.56,-116.53C1419.28,-107.49 1206.85,-86.89 1087.37,-75.31"/>
<polygon fill="midnightblue" stroke="midnightblue" points="1512.25,-120.02 1522.54,-117.5 1512.92,-113.05 1512.25,-120.02"/>
</g>
<!-- Node21 -->
<g id="node41" class="node">
<title>Node21</title>
<g id="a_node41"><a xlink:href="CallAndPhiFixPass_8cpp.html" target="_top" xlink:title=" ">
<polygon fill="white" stroke="black" points="1105.16,-56.5 1105.16,-75.5 1230.16,-75.5 1230.16,-56.5 1105.16,-56.5"/>
<text text-anchor="middle" x="1167.66" y="-63.5" font-family="Helvetica,sans-Serif" font-size="10.00">CallAndPhiFixPass.cpp</text>
</a>
</g>
</g>
<!-- Node175&#45;&gt;Node21 -->
<g id="edge62" class="edge">
<title>Node175&#45;&gt;Node21</title>
<path fill="none" stroke="midnightblue" d="M1512.25,-114.59C1441.85,-104.87 1307.98,-86.38 1229.42,-75.53"/>
<polygon fill="midnightblue" stroke="midnightblue" points="1512.19,-118.12 1522.57,-116.02 1513.15,-111.18 1512.19,-118.12"/>
</g>
<!-- Node74 -->
<g id="node42" class="node">
<title>Node74</title>
<g id="a_node42"><a xlink:href="ParameterSymbolMapPass_8cpp.html" target="_top" xlink:title=" ">
<polygon fill="white" stroke="black" points="1248.66,-56.5 1248.66,-75.5 1416.66,-75.5 1416.66,-56.5 1248.66,-56.5"/>
<text text-anchor="middle" x="1332.66" y="-63.5" font-family="Helvetica,sans-Serif" font-size="10.00">ParameterSymbolMapPass.cpp</text>
</a>
</g>
</g>
<!-- Node175&#45;&gt;Node74 -->
<g id="edge63" class="edge">
<title>Node175&#45;&gt;Node74</title>
<path fill="none" stroke="midnightblue" d="M1512.99,-110.09C1470.29,-99.89 1407.41,-84.86 1368.3,-75.52"/>
<polygon fill="midnightblue" stroke="midnightblue" points="1512.31,-113.52 1522.85,-112.44 1513.93,-106.72 1512.31,-113.52"/>
</g>
<!-- Node76 -->
<g id="node43" class="node">
<title>Node76</title>
<g id="a_node43"><a xlink:href="SPPreservationPass_8cpp.html" target="_top" xlink:title=" ">
<polygon fill="white" stroke="black" points="1435.16,-56.5 1435.16,-75.5 1568.16,-75.5 1568.16,-56.5 1435.16,-56.5"/>
<text text-anchor="middle" x="1501.66" y="-63.5" font-family="Helvetica,sans-Serif" font-size="10.00">SPPreservationPass.cpp</text>
</a>
</g>
</g>
<!-- Node175&#45;&gt;Node76 -->
<g id="edge64" class="edge">
<title>Node175&#45;&gt;Node76</title>
<path fill="none" stroke="midnightblue" d="M1542.04,-105.25C1531.92,-95.67 1519.38,-83.79 1510.98,-75.83"/>
<polygon fill="midnightblue" stroke="midnightblue" points="1539.83,-107.99 1549.5,-112.32 1544.65,-102.91 1539.83,-107.99"/>
</g>
<!-- Node44 -->
<g id="node44" class="node">
<title>Node44</title>
<g id="a_node44"><a xlink:href="ReturnStatement_8cpp.html" target="_top" xlink:title=" ">
<polygon fill="white" stroke="black" points="1586.66,-56.5 1586.66,-75.5 1706.66,-75.5 1706.66,-56.5 1586.66,-56.5"/>
<text text-anchor="middle" x="1646.66" y="-63.5" font-family="Helvetica,sans-Serif" font-size="10.00">ReturnStatement.cpp</text>
</a>
</g>
</g>
<!-- Node175&#45;&gt;Node44 -->
<g id="edge68" class="edge">
<title>Node175&#45;&gt;Node44</title>
<path fill="none" stroke="midnightblue" d="M1581.63,-106.9C1597.77,-97 1618.84,-84.07 1632.55,-75.65"/>
<polygon fill="midnightblue" stroke="midnightblue" points="1579.49,-104.11 1572.8,-112.32 1583.15,-110.08 1579.49,-104.11"/>
</g>
<!-- Node179 -->
<g id="node45" class="node">
<title>Node179</title>
<g id="a_node45"><a xlink:href="FuncType_8cpp.html" target="_top" xlink:title=" ">
<polygon fill="white" stroke="black" points="1724.66,-56.5 1724.66,-75.5 1806.66,-75.5 1806.66,-56.5 1724.66,-56.5"/>
<text text-anchor="middle" x="1765.66" y="-63.5" font-family="Helvetica,sans-Serif" font-size="10.00">FuncType.cpp</text>
</a>
</g>
</g>
<!-- Node175&#45;&gt;Node179 -->
<g id="edge69" class="edge">
<title>Node175&#45;&gt;Node179</title>
<path fill="none" stroke="midnightblue" d="M1601.48,-109.83C1640.56,-99.63 1697.49,-84.78 1733.01,-75.52"/>
<polygon fill="midnightblue" stroke="midnightblue" points="1600.25,-106.53 1591.46,-112.44 1602.02,-113.31 1600.25,-106.53"/>
</g>
<!-- Node178&#45;&gt;Node59 -->
<g id="edge51" class="edge">
<title>Node178&#45;&gt;Node59</title>
<path fill="none" stroke="midnightblue" d="M1930.29,-54.28C1976.59,-44.08 2045.35,-28.92 2088.02,-19.52"/>
<polygon fill="midnightblue" stroke="midnightblue" points="1929.49,-50.87 1920.48,-56.44 1931,-57.71 1929.49,-50.87"/>
</g>
<!-- Node180&#45;&gt;Node118 -->
<g id="edge72" class="edge">
<title>Node180&#45;&gt;Node118</title>
<path fill="none" stroke="midnightblue" d="M3295.47,-159.02C3300.17,-145.28 3303.82,-126.33 3295.66,-112 3285.33,-93.88 3264.53,-82.31 3247.29,-75.45"/>
<polygon fill="midnightblue" stroke="midnightblue" points="3292.2,-157.76 3291.85,-168.35 3298.73,-160.3 3292.2,-157.76"/>
</g>
</g>
</svg>
