<?xml version="1.0" encoding="UTF-8" standalone="no"?>
<!DOCTYPE svg PUBLIC "-//W3C//DTD SVG 1.1//EN"
 "http://www.w3.org/Graphics/SVG/1.1/DTD/svg11.dtd">
<!-- Generated by graphviz version 2.43.0 (0)
 -->
<!-- Title: Plugin.h Pages: 1 -->
<!--zoomable 196 -->
<svg id="main" version="1.1" xmlns="http://www.w3.org/2000/svg" xmlns:xlink="http://www.w3.org/1999/xlink" xml:space="preserve" onload="init(evt)">
<style type="text/css"><![CDATA[
.edge:hover path { stroke: red; }
.edge:hover polygon { stroke: red; fill: red; }
]]></style>
<script type="text/javascript"><![CDATA[
var edges = document.getElementsByTagName('g');
if (edges && edges.length) {
  for (var i=0;i<edges.length;i++) {
    if (edges[i].id.substr(0,4)=='edge') {
      edges[i].setAttribute('class','edge');
    }
  }
}
]]></script>
        <defs>
                <circle id="rim" cx="0" cy="0" r="7"/>
                <circle id="rim2" cx="0" cy="0" r="3.5"/>
                <g id="zoomPlus">
                        <use xlink:href="#rim" fill="#404040">
                                <set attributeName="fill" to="#808080" begin="zoomplus.mouseover" end="zoomplus.mouseout"/>
                        </use>
                        <path d="M-4,0h8M0,-4v8" fill="none" stroke="white" stroke-width="1.5" pointer-events="none"/>
                </g>
                <g id="zoomMin">
                        <use xlink:href="#rim" fill="#404040">
                                <set attributeName="fill" to="#808080" begin="zoomminus.mouseover" end="zoomminus.mouseout"/>
                        </use>
                        <path d="M-4,0h8" fill="none" stroke="white" stroke-width="1.5" pointer-events="none"/>
                </g>
                <g id="dirArrow">
                        <path fill="none" stroke="white" stroke-width="1.5" d="M0,-3.0v7 M-2.5,-0.5L0,-3.0L2.5,-0.5"/>
                </g>
               <g id="resetDef">
                       <use xlink:href="#rim2" fill="#404040">
                               <set attributeName="fill" to="#808080" begin="reset.mouseover" end="reset.mouseout"/>
                       </use>
               </g>
        </defs>

<script type="text/javascript">
var viewWidth = 5078;
var viewHeight = 196;
var sectionId = 'dynsection-1';
</script>
<script xlink:href="svgpan.js"/>
<svg id="graph" class="graph">
<g id="viewport">
<title>Plugin.h</title>
<polygon fill="white" stroke="transparent" points="-4,4 -4,-192 5073.5,-192 5073.5,4 -4,4"/>
<!-- Node1 -->
<g id="node1" class="node">
<title>Node1</title>
<g id="a_node1"><a xlink:title=" ">
<polygon fill="#bfbfbf" stroke="black" points="3018.5,-168.5 3018.5,-187.5 3074.5,-187.5 3074.5,-168.5 3018.5,-168.5"/>
<text text-anchor="middle" x="3046.5" y="-175.5" font-family="Helvetica,sans-Serif" font-size="10.00">Plugin.h</text>
</a>
</g>
</g>
<!-- Node2 -->
<g id="node2" class="node">
<title>Node2</title>
<g id="a_node2"><a xlink:href="Plugin_8cpp.html" target="_top" xlink:title=" ">
<polygon fill="white" stroke="black" points="2326,-112.5 2326,-131.5 2393,-131.5 2393,-112.5 2326,-112.5"/>
<text text-anchor="middle" x="2359.5" y="-119.5" font-family="Helvetica,sans-Serif" font-size="10.00">Plugin.cpp</text>
</a>
</g>
</g>
<!-- Node1&#45;&gt;Node2 -->
<g id="edge1" class="edge">
<title>Node1&#45;&gt;Node2</title>
<path fill="none" stroke="midnightblue" d="M3008.21,-176.15C2908.17,-173.53 2630.91,-163.73 2402.5,-132 2399.48,-131.58 2396.35,-131.07 2393.22,-130.51"/>
<polygon fill="midnightblue" stroke="midnightblue" points="3008.34,-179.65 3018.43,-176.41 3008.52,-172.65 3008.34,-179.65"/>
</g>
<!-- Node3 -->
<g id="node3" class="node">
<title>Node3</title>
<g id="a_node3"><a xlink:href="PluginManager_8h.html" target="_top" xlink:title=" ">
<polygon fill="white" stroke="black" points="2411.5,-112.5 2411.5,-131.5 2509.5,-131.5 2509.5,-112.5 2411.5,-112.5"/>
<text text-anchor="middle" x="2460.5" y="-119.5" font-family="Helvetica,sans-Serif" font-size="10.00">PluginManager.h</text>
</a>
</g>
</g>
<!-- Node1&#45;&gt;Node3 -->
<g id="edge2" class="edge">
<title>Node1&#45;&gt;Node3</title>
<path fill="none" stroke="midnightblue" d="M3008.25,-174.45C2921.75,-168.51 2704.51,-152.7 2523.5,-132 2519,-131.49 2514.32,-130.9 2509.65,-130.29"/>
<polygon fill="midnightblue" stroke="midnightblue" points="3008.17,-177.95 3018.38,-175.14 3008.64,-170.97 3008.17,-177.95"/>
</g>
<!-- Node51 -->
<g id="node41" class="node">
<title>Node51</title>
<g id="a_node41"><a xlink:href="CapstoneX86Decoder_8cpp.html" target="_top" xlink:title=" ">
<polygon fill="white" stroke="black" points="4927.5,-0.5 4927.5,-19.5 5069.5,-19.5 5069.5,-0.5 4927.5,-0.5"/>
<text text-anchor="middle" x="4998.5" y="-7.5" font-family="Helvetica,sans-Serif" font-size="10.00">CapstoneX86Decoder.cpp</text>
</a>
</g>
</g>
<!-- Node1&#45;&gt;Node51 -->
<g id="edge41" class="edge">
<title>Node1&#45;&gt;Node51</title>
<path fill="none" stroke="midnightblue" d="M3007.87,-177.65C2881.57,-179.14 2492.56,-178.48 2556.5,-112 2647.53,-17.35 4787.55,-29.9 4918.5,-20 4921.43,-19.78 4924.41,-19.53 4927.43,-19.27"/>
<polygon fill="midnightblue" stroke="midnightblue" points="3008.27,-181.14 3018.23,-177.51 3008.18,-174.14 3008.27,-181.14"/>
</g>
<!-- Node59 -->
<g id="node42" class="node">
<title>Node59</title>
<g id="a_node42"><a xlink:href="CapstonePPCDecoder_8cpp.html" target="_top" xlink:title=" ">
<polygon fill="white" stroke="black" points="2565.5,-112.5 2565.5,-131.5 2707.5,-131.5 2707.5,-112.5 2565.5,-112.5"/>
<text text-anchor="middle" x="2636.5" y="-119.5" font-family="Helvetica,sans-Serif" font-size="10.00">CapstonePPCDecoder.cpp</text>
</a>
</g>
</g>
<!-- Node1&#45;&gt;Node59 -->
<g id="edge42" class="edge">
<title>Node1&#45;&gt;Node59</title>
<path fill="none" stroke="midnightblue" d="M3008.15,-171.95C2937.88,-162.69 2787.8,-142.93 2701.39,-131.55"/>
<polygon fill="midnightblue" stroke="midnightblue" points="3007.95,-175.45 3018.32,-173.29 3008.86,-168.51 3007.95,-175.45"/>
</g>
<!-- Node60 -->
<g id="node43" class="node">
<title>Node60</title>
<g id="a_node43"><a xlink:href="CapstoneSPARCDecoder_8cpp.html" target="_top" xlink:title=" ">
<polygon fill="white" stroke="black" points="2726,-112.5 2726,-131.5 2881,-131.5 2881,-112.5 2726,-112.5"/>
<text text-anchor="middle" x="2803.5" y="-119.5" font-family="Helvetica,sans-Serif" font-size="10.00">CapstoneSPARCDecoder.cpp</text>
</a>
</g>
</g>
<!-- Node1&#45;&gt;Node60 -->
<g id="edge43" class="edge">
<title>Node1&#45;&gt;Node60</title>
<path fill="none" stroke="midnightblue" d="M3008.11,-168.47C2962.69,-158.38 2887.53,-141.67 2842.05,-131.57"/>
<polygon fill="midnightblue" stroke="midnightblue" points="3007.63,-171.95 3018.15,-170.7 3009.15,-165.11 3007.63,-171.95"/>
</g>
<!-- Node61 -->
<g id="node44" class="node">
<title>Node61</title>
<g id="a_node44"><a xlink:href="DOS4GWBinaryLoader_8cpp.html" target="_top" xlink:title=" ">
<polygon fill="white" stroke="black" points="2899.5,-112.5 2899.5,-131.5 3045.5,-131.5 3045.5,-112.5 2899.5,-112.5"/>
<text text-anchor="middle" x="2972.5" y="-119.5" font-family="Helvetica,sans-Serif" font-size="10.00">DOS4GWBinaryLoader.cpp</text>
</a>
</g>
</g>
<!-- Node1&#45;&gt;Node61 -->
<g id="edge44" class="edge">
<title>Node1&#45;&gt;Node61</title>
<path fill="none" stroke="midnightblue" d="M3026.47,-162.38C3013.09,-152.62 2995.94,-140.11 2984.61,-131.83"/>
<polygon fill="midnightblue" stroke="midnightblue" points="3024.47,-165.26 3034.61,-168.32 3028.6,-159.6 3024.47,-165.26"/>
</g>
<!-- Node62 -->
<g id="node45" class="node">
<title>Node62</title>
<g id="a_node45"><a xlink:href="ElfBinaryLoader_8cpp.html" target="_top" xlink:title=" ">
<polygon fill="white" stroke="black" points="3063.5,-112.5 3063.5,-131.5 3177.5,-131.5 3177.5,-112.5 3063.5,-112.5"/>
<text text-anchor="middle" x="3120.5" y="-119.5" font-family="Helvetica,sans-Serif" font-size="10.00">ElfBinaryLoader.cpp</text>
</a>
</g>
</g>
<!-- Node1&#45;&gt;Node62 -->
<g id="edge45" class="edge">
<title>Node1&#45;&gt;Node62</title>
<path fill="none" stroke="midnightblue" d="M3066.53,-162.38C3079.91,-152.62 3097.06,-140.11 3108.39,-131.83"/>
<polygon fill="midnightblue" stroke="midnightblue" points="3064.4,-159.6 3058.39,-168.32 3068.53,-165.26 3064.4,-159.6"/>
</g>
<!-- Node63 -->
<g id="node46" class="node">
<title>Node63</title>
<g id="a_node46"><a xlink:href="ExeBinaryLoader_8cpp.html" target="_top" xlink:title=" ">
<polygon fill="white" stroke="black" points="3196,-112.5 3196,-131.5 3315,-131.5 3315,-112.5 3196,-112.5"/>
<text text-anchor="middle" x="3255.5" y="-119.5" font-family="Helvetica,sans-Serif" font-size="10.00">ExeBinaryLoader.cpp</text>
</a>
</g>
</g>
<!-- Node1&#45;&gt;Node63 -->
<g id="edge46" class="edge">
<title>Node1&#45;&gt;Node63</title>
<path fill="none" stroke="midnightblue" d="M3084.44,-167.2C3123.8,-157.03 3184.73,-141.29 3222.25,-131.59"/>
<polygon fill="midnightblue" stroke="midnightblue" points="3083.49,-163.83 3074.69,-169.72 3085.24,-170.6 3083.49,-163.83"/>
</g>
<!-- Node64 -->
<g id="node47" class="node">
<title>Node64</title>
<g id="a_node47"><a xlink:href="MachOBinaryLoader_8cpp.html" target="_top" xlink:title=" ">
<polygon fill="white" stroke="black" points="3333,-112.5 3333,-131.5 3468,-131.5 3468,-112.5 3333,-112.5"/>
<text text-anchor="middle" x="3400.5" y="-119.5" font-family="Helvetica,sans-Serif" font-size="10.00">MachOBinaryLoader.cpp</text>
</a>
</g>
</g>
<!-- Node1&#45;&gt;Node64 -->
<g id="edge47" class="edge">
<title>Node1&#45;&gt;Node64</title>
<path fill="none" stroke="midnightblue" d="M3084.81,-171.16C3147.48,-161.6 3272.2,-142.57 3344.7,-131.51"/>
<polygon fill="midnightblue" stroke="midnightblue" points="3083.93,-167.75 3074.57,-172.72 3084.99,-174.67 3083.93,-167.75"/>
</g>
<!-- Node65 -->
<g id="node48" class="node">
<title>Node65</title>
<g id="a_node48"><a xlink:href="Win32BinaryLoader_8cpp.html" target="_top" xlink:title=" ">
<polygon fill="white" stroke="black" points="3486.5,-112.5 3486.5,-131.5 3618.5,-131.5 3618.5,-112.5 3486.5,-112.5"/>
<text text-anchor="middle" x="3552.5" y="-119.5" font-family="Helvetica,sans-Serif" font-size="10.00">Win32BinaryLoader.cpp</text>
</a>
</g>
</g>
<!-- Node1&#45;&gt;Node65 -->
<g id="edge48" class="edge">
<title>Node1&#45;&gt;Node65</title>
<path fill="none" stroke="midnightblue" d="M3084.9,-173.19C3160.22,-165.68 3332.67,-148.25 3477.5,-132 3480.37,-131.68 3483.3,-131.35 3486.25,-131.01"/>
<polygon fill="midnightblue" stroke="midnightblue" points="3084.11,-169.75 3074.5,-174.23 3084.8,-176.72 3084.11,-169.75"/>
</g>
<!-- Node66 -->
<g id="node49" class="node">
<title>Node66</title>
<g id="a_node49"><a xlink:href="ST20BinaryLoader_8cpp.html" target="_top" xlink:title=" ">
<polygon fill="white" stroke="black" points="3637,-112.5 3637,-131.5 3762,-131.5 3762,-112.5 3637,-112.5"/>
<text text-anchor="middle" x="3699.5" y="-119.5" font-family="Helvetica,sans-Serif" font-size="10.00">ST20BinaryLoader.cpp</text>
</a>
</g>
</g>
<!-- Node1&#45;&gt;Node66 -->
<g id="edge49" class="edge">
<title>Node1&#45;&gt;Node66</title>
<path fill="none" stroke="midnightblue" d="M3084.72,-174.66C3177.73,-168.84 3423.24,-152.67 3627.5,-132 3630.51,-131.7 3633.58,-131.37 3636.69,-131.03"/>
<polygon fill="midnightblue" stroke="midnightblue" points="3084.42,-171.18 3074.66,-175.29 3084.85,-178.16 3084.42,-171.18"/>
</g>
<!-- Node67 -->
<g id="node50" class="node">
<title>Node67</title>
<g id="a_node50"><a xlink:href="CSymbolProvider_8cpp.html" target="_top" xlink:title=" ">
<polygon fill="white" stroke="black" points="3780,-112.5 3780,-131.5 3901,-131.5 3901,-112.5 3780,-112.5"/>
<text text-anchor="middle" x="3840.5" y="-119.5" font-family="Helvetica,sans-Serif" font-size="10.00">CSymbolProvider.cpp</text>
</a>
</g>
</g>
<!-- Node1&#45;&gt;Node67 -->
<g id="edge50" class="edge">
<title>Node1&#45;&gt;Node67</title>
<path fill="none" stroke="midnightblue" d="M3084.62,-175.54C3192.55,-171.23 3509.39,-157.2 3771.5,-132 3774.27,-131.73 3777.09,-131.44 3779.94,-131.13"/>
<polygon fill="midnightblue" stroke="midnightblue" points="3084.4,-172.05 3074.55,-175.94 3084.68,-179.05 3084.4,-172.05"/>
</g>
<!-- Node4 -->
<g id="node4" class="node">
<title>Node4</title>
<g id="a_node4"><a xlink:href="PluginManager_8cpp.html" target="_top" xlink:title=" ">
<polygon fill="white" stroke="black" points="2302.5,-56.5 2302.5,-75.5 2412.5,-75.5 2412.5,-56.5 2302.5,-56.5"/>
<text text-anchor="middle" x="2357.5" y="-63.5" font-family="Helvetica,sans-Serif" font-size="10.00">PluginManager.cpp</text>
</a>
</g>
</g>
<!-- Node3&#45;&gt;Node4 -->
<g id="edge3" class="edge">
<title>Node3&#45;&gt;Node4</title>
<path fill="none" stroke="midnightblue" d="M2434.92,-107.59C2415.88,-97.61 2390.44,-84.27 2374.01,-75.65"/>
<polygon fill="midnightblue" stroke="midnightblue" points="2433.47,-110.78 2443.95,-112.32 2436.72,-104.58 2433.47,-110.78"/>
</g>
<!-- Node5 -->
<g id="node5" class="node">
<title>Node5</title>
<g id="a_node5"><a xlink:href="Project_8h.html" target="_top" xlink:title=" ">
<polygon fill="white" stroke="red" points="2431,-56.5 2431,-75.5 2490,-75.5 2490,-56.5 2431,-56.5"/>
<text text-anchor="middle" x="2460.5" y="-63.5" font-family="Helvetica,sans-Serif" font-size="10.00">Project.h</text>
</a>
</g>
</g>
<!-- Node3&#45;&gt;Node5 -->
<g id="edge4" class="edge">
<title>Node3&#45;&gt;Node5</title>
<path fill="none" stroke="midnightblue" d="M2460.5,-101.8C2460.5,-92.91 2460.5,-82.78 2460.5,-75.75"/>
<polygon fill="midnightblue" stroke="midnightblue" points="2457,-102.08 2460.5,-112.08 2464,-102.08 2457,-102.08"/>
</g>
<!-- Node6 -->
<g id="node6" class="node">
<title>Node6</title>
<g id="a_node6"><a xlink:href="Project_8cpp.html" target="_top" xlink:title=" ">
<polygon fill="white" stroke="black" points="0,-0.5 0,-19.5 71,-19.5 71,-0.5 0,-0.5"/>
<text text-anchor="middle" x="35.5" y="-7.5" font-family="Helvetica,sans-Serif" font-size="10.00">Project.cpp</text>
</a>
</g>
</g>
<!-- Node5&#45;&gt;Node6 -->
<g id="edge5" class="edge">
<title>Node5&#45;&gt;Node6</title>
<path fill="none" stroke="midnightblue" d="M2420.69,-56.26C1888.23,5.82 593.66,-76.04 79.5,-20 76.86,-19.71 74.15,-19.34 71.43,-18.92"/>
<polygon fill="midnightblue" stroke="midnightblue" points="2420.46,-59.76 2430.8,-57.47 2421.29,-52.8 2420.46,-59.76"/>
</g>
<!-- Node7 -->
<g id="node7" class="node">
<title>Node7</title>
<g id="a_node7"><a xlink:href="DataFlow_8cpp.html" target="_top" xlink:title=" ">
<polygon fill="white" stroke="black" points="89,-0.5 89,-19.5 172,-19.5 172,-0.5 89,-0.5"/>
<text text-anchor="middle" x="130.5" y="-7.5" font-family="Helvetica,sans-Serif" font-size="10.00">DataFlow.cpp</text>
</a>
</g>
</g>
<!-- Node5&#45;&gt;Node7 -->
<g id="edge6" class="edge">
<title>Node5&#45;&gt;Node7</title>
<path fill="none" stroke="midnightblue" d="M2420.75,-56.26C1910.64,3.38 672.95,-67.96 180.5,-20 177.78,-19.73 174.98,-19.4 172.17,-19.02"/>
<polygon fill="midnightblue" stroke="midnightblue" points="2420.46,-59.75 2430.8,-57.47 2421.29,-52.8 2420.46,-59.75"/>
</g>
<!-- Node8 -->
<g id="node8" class="node">
<title>Node8</title>
<g id="a_node8"><a xlink:href="Module_8cpp.html" target="_top" xlink:title=" ">
<polygon fill="white" stroke="black" points="190,-0.5 190,-19.5 263,-19.5 263,-0.5 190,-0.5"/>
<text text-anchor="middle" x="226.5" y="-7.5" font-family="Helvetica,sans-Serif" font-size="10.00">Module.cpp</text>
</a>
</g>
</g>
<!-- Node5&#45;&gt;Node8 -->
<g id="edge7" class="edge">
<title>Node5&#45;&gt;Node8</title>
<path fill="none" stroke="midnightblue" d="M2420.79,-56.27C1931.04,1.04 744.25,-69.71 272.5,-20 269.42,-19.68 266.25,-19.25 263.07,-18.76"/>
<polygon fill="midnightblue" stroke="midnightblue" points="2420.46,-59.75 2430.8,-57.47 2421.29,-52.8 2420.46,-59.75"/>
</g>
<!-- Node9 -->
<g id="node9" class="node">
<title>Node9</title>
<g id="a_node9"><a xlink:href="Proc_8cpp.html" target="_top" xlink:title=" ">
<polygon fill="white" stroke="black" points="281.5,-0.5 281.5,-19.5 339.5,-19.5 339.5,-0.5 281.5,-0.5"/>
<text text-anchor="middle" x="310.5" y="-7.5" font-family="Helvetica,sans-Serif" font-size="10.00">Proc.cpp</text>
</a>
</g>
</g>
<!-- Node5&#45;&gt;Node9 -->
<g id="edge8" class="edge">
<title>Node5&#45;&gt;Node9</title>
<path fill="none" stroke="midnightblue" d="M2420.79,-56.27C1947.82,-0.98 802.41,-77.02 348.5,-20 345.67,-19.65 342.75,-19.16 339.84,-18.61"/>
<polygon fill="midnightblue" stroke="midnightblue" points="2420.46,-59.75 2430.8,-57.47 2421.29,-52.8 2420.46,-59.75"/>
</g>
<!-- Node10 -->
<g id="node10" class="node">
<title>Node10</title>
<g id="a_node10"><a xlink:href="UserProc_8cpp.html" target="_top" xlink:title=" ">
<polygon fill="white" stroke="black" points="357.5,-0.5 357.5,-19.5 437.5,-19.5 437.5,-0.5 357.5,-0.5"/>
<text text-anchor="middle" x="397.5" y="-7.5" font-family="Helvetica,sans-Serif" font-size="10.00">UserProc.cpp</text>
</a>
</g>
</g>
<!-- Node5&#45;&gt;Node10 -->
<g id="edge9" class="edge">
<title>Node5&#45;&gt;Node10</title>
<path fill="none" stroke="midnightblue" d="M2420.59,-56.24C1969.18,-3.28 879.97,-63.46 446.5,-20 443.57,-19.71 440.56,-19.33 437.54,-18.9"/>
<polygon fill="midnightblue" stroke="midnightblue" points="2420.46,-59.75 2430.8,-57.47 2421.29,-52.8 2420.46,-59.75"/>
</g>
<!-- Node11 -->
<g id="node11" class="node">
<title>Node11</title>
<g id="a_node11"><a xlink:href="Prog_8cpp.html" target="_top" xlink:title=" ">
<polygon fill="white" stroke="black" points="456,-0.5 456,-19.5 515,-19.5 515,-0.5 456,-0.5"/>
<text text-anchor="middle" x="485.5" y="-7.5" font-family="Helvetica,sans-Serif" font-size="10.00">Prog.cpp</text>
</a>
</g>
</g>
<!-- Node5&#45;&gt;Node11 -->
<g id="edge10" class="edge">
<title>Node5&#45;&gt;Node11</title>
<path fill="none" stroke="midnightblue" d="M2420.6,-56.22C1582.34,46.02 1357.17,-125.4 523.5,-20 520.81,-19.66 518.03,-19.21 515.26,-18.68"/>
<polygon fill="midnightblue" stroke="midnightblue" points="2420.45,-59.73 2430.8,-57.48 2421.3,-52.78 2420.45,-59.73"/>
</g>
<!-- Node12 -->
<g id="node12" class="node">
<title>Node12</title>
<g id="a_node12"><a xlink:href="IndirectJumpAnalyzer_8cpp.html" target="_top" xlink:title=" ">
<polygon fill="white" stroke="black" points="533,-0.5 533,-19.5 674,-19.5 674,-0.5 533,-0.5"/>
<text text-anchor="middle" x="603.5" y="-7.5" font-family="Helvetica,sans-Serif" font-size="10.00">IndirectJumpAnalyzer.cpp</text>
</a>
</g>
</g>
<!-- Node5&#45;&gt;Node12 -->
<g id="edge11" class="edge">
<title>Node5&#45;&gt;Node12</title>
<path fill="none" stroke="midnightblue" d="M2420.61,-56.24C2021.4,-8.93 1064.86,-45.68 682.5,-20 679.75,-19.81 676.94,-19.6 674.11,-19.37"/>
<polygon fill="midnightblue" stroke="midnightblue" points="2420.45,-59.75 2430.8,-57.48 2421.3,-52.8 2420.45,-59.75"/>
</g>
<!-- Node13 -->
<g id="node13" class="node">
<title>Node13</title>
<g id="a_node13"><a xlink:href="InterferenceFinder_8cpp.html" target="_top" xlink:title=" ">
<polygon fill="white" stroke="black" points="692,-0.5 692,-19.5 817,-19.5 817,-0.5 692,-0.5"/>
<text text-anchor="middle" x="754.5" y="-7.5" font-family="Helvetica,sans-Serif" font-size="10.00">InterferenceFinder.cpp</text>
</a>
</g>
</g>
<!-- Node5&#45;&gt;Node13 -->
<g id="edge12" class="edge">
<title>Node5&#45;&gt;Node13</title>
<path fill="none" stroke="midnightblue" d="M2420.62,-56.24C2053.26,-12.54 1176.8,-45.78 826.5,-20 823.48,-19.78 820.4,-19.52 817.29,-19.23"/>
<polygon fill="midnightblue" stroke="midnightblue" points="2420.45,-59.75 2430.8,-57.49 2421.3,-52.8 2420.45,-59.75"/>
</g>
<!-- Node14 -->
<g id="node14" class="node">
<title>Node14</title>
<g id="a_node14"><a xlink:href="LivenessAnalyzer_8cpp.html" target="_top" xlink:title=" ">
<polygon fill="white" stroke="black" points="835.5,-0.5 835.5,-19.5 957.5,-19.5 957.5,-0.5 835.5,-0.5"/>
<text text-anchor="middle" x="896.5" y="-7.5" font-family="Helvetica,sans-Serif" font-size="10.00">LivenessAnalyzer.cpp</text>
</a>
</g>
</g>
<!-- Node5&#45;&gt;Node14 -->
<g id="edge13" class="edge">
<title>Node5&#45;&gt;Node14</title>
<path fill="none" stroke="midnightblue" d="M2420.83,-56.24C1778.01,24.18 1608.18,-69.06 966.5,-20 963.57,-19.78 960.57,-19.51 957.55,-19.23"/>
<polygon fill="midnightblue" stroke="midnightblue" points="2420.44,-59.72 2430.8,-57.5 2421.32,-52.77 2420.44,-59.72"/>
</g>
<!-- Node15 -->
<g id="node15" class="node">
<title>Node15</title>
<g id="a_node15"><a xlink:href="ProcDecompiler_8cpp.html" target="_top" xlink:title=" ">
<polygon fill="white" stroke="black" points="975.5,-0.5 975.5,-19.5 1089.5,-19.5 1089.5,-0.5 975.5,-0.5"/>
<text text-anchor="middle" x="1032.5" y="-7.5" font-family="Helvetica,sans-Serif" font-size="10.00">ProcDecompiler.cpp</text>
</a>
</g>
</g>
<!-- Node5&#45;&gt;Node15 -->
<g id="edge14" class="edge">
<title>Node5&#45;&gt;Node15</title>
<path fill="none" stroke="midnightblue" d="M2420.86,-56.24C1836.29,17.54 1681.48,-67.54 1098.5,-20 1095.62,-19.77 1092.67,-19.49 1089.7,-19.19"/>
<polygon fill="midnightblue" stroke="midnightblue" points="2420.44,-59.71 2430.8,-57.5 2421.32,-52.77 2420.44,-59.71"/>
</g>
<!-- Node16 -->
<g id="node16" class="node">
<title>Node16</title>
<g id="a_node16"><a xlink:href="ProgDecompiler_8cpp.html" target="_top" xlink:title=" ">
<polygon fill="white" stroke="black" points="1108,-0.5 1108,-19.5 1223,-19.5 1223,-0.5 1108,-0.5"/>
<text text-anchor="middle" x="1165.5" y="-7.5" font-family="Helvetica,sans-Serif" font-size="10.00">ProgDecompiler.cpp</text>
</a>
</g>
</g>
<!-- Node5&#45;&gt;Node16 -->
<g id="edge15" class="edge">
<title>Node5&#45;&gt;Node16</title>
<path fill="none" stroke="midnightblue" d="M2420.68,-56.21C1895.41,10.82 1756.07,-62.98 1232.5,-20 1229.46,-19.75 1226.34,-19.46 1223.2,-19.14"/>
<polygon fill="midnightblue" stroke="midnightblue" points="2420.43,-59.71 2430.8,-57.51 2421.33,-52.76 2420.43,-59.71"/>
</g>
<!-- Node17 -->
<g id="node17" class="node">
<title>Node17</title>
<g id="a_node17"><a xlink:href="UnusedReturnRemover_8cpp.html" target="_top" xlink:title=" ">
<polygon fill="white" stroke="black" points="1241.5,-0.5 1241.5,-19.5 1391.5,-19.5 1391.5,-0.5 1241.5,-0.5"/>
<text text-anchor="middle" x="1316.5" y="-7.5" font-family="Helvetica,sans-Serif" font-size="10.00">UnusedReturnRemover.cpp</text>
</a>
</g>
</g>
<!-- Node5&#45;&gt;Node17 -->
<g id="edge16" class="edge">
<title>Node5&#45;&gt;Node17</title>
<path fill="none" stroke="midnightblue" d="M2420.76,-56.21C1969.59,2.51 1850.1,-51.97 1400.5,-20 1397.57,-19.79 1394.59,-19.56 1391.58,-19.31"/>
<polygon fill="midnightblue" stroke="midnightblue" points="2420.43,-59.7 2430.8,-57.53 2421.34,-52.76 2420.43,-59.7"/>
</g>
<!-- Node18 -->
<g id="node18" class="node">
<title>Node18</title>
<g id="a_node18"><a xlink:href="DefaultFrontEnd_8cpp.html" target="_top" xlink:title=" ">
<polygon fill="white" stroke="black" points="1409.5,-0.5 1409.5,-19.5 1525.5,-19.5 1525.5,-0.5 1409.5,-0.5"/>
<text text-anchor="middle" x="1467.5" y="-7.5" font-family="Helvetica,sans-Serif" font-size="10.00">DefaultFrontEnd.cpp</text>
</a>
</g>
</g>
<!-- Node5&#45;&gt;Node18 -->
<g id="edge17" class="edge">
<title>Node5&#45;&gt;Node18</title>
<path fill="none" stroke="midnightblue" d="M2420.6,-56.18C2028.69,-4.28 1924.19,-54.01 1534.5,-20 1531.58,-19.74 1528.59,-19.45 1525.57,-19.14"/>
<polygon fill="midnightblue" stroke="midnightblue" points="2420.42,-59.69 2430.79,-57.54 2421.35,-52.75 2420.42,-59.69"/>
</g>
<!-- Node19 -->
<g id="node19" class="node">
<title>Node19</title>
<g id="a_node19"><a xlink:href="CallArgumentUpdatePass_8cpp.html" target="_top" xlink:title=" ">
<polygon fill="white" stroke="black" points="1544,-0.5 1544,-19.5 1705,-19.5 1705,-0.5 1544,-0.5"/>
<text text-anchor="middle" x="1624.5" y="-7.5" font-family="Helvetica,sans-Serif" font-size="10.00">CallArgumentUpdatePass.cpp</text>
</a>
</g>
</g>
<!-- Node5&#45;&gt;Node19 -->
<g id="edge18" class="edge">
<title>Node5&#45;&gt;Node19</title>
<path fill="none" stroke="midnightblue" d="M2420.53,-56.15C2108.12,-13.12 2024.87,-43.41 1714.5,-20 1711.52,-19.78 1708.5,-19.53 1705.44,-19.28"/>
<polygon fill="midnightblue" stroke="midnightblue" points="2420.4,-59.66 2430.79,-57.58 2421.37,-52.73 2420.4,-59.66"/>
</g>
<!-- Node20 -->
<g id="node20" class="node">
<title>Node20</title>
<g id="a_node20"><a xlink:href="CallDefineUpdatePass_8cpp.html" target="_top" xlink:title=" ">
<polygon fill="white" stroke="black" points="1723.5,-0.5 1723.5,-19.5 1869.5,-19.5 1869.5,-0.5 1723.5,-0.5"/>
<text text-anchor="middle" x="1796.5" y="-7.5" font-family="Helvetica,sans-Serif" font-size="10.00">CallDefineUpdatePass.cpp</text>
</a>
</g>
</g>
<!-- Node5&#45;&gt;Node20 -->
<g id="edge19" class="edge">
<title>Node5&#45;&gt;Node20</title>
<path fill="none" stroke="midnightblue" d="M2420.69,-56.14C2180.48,-21.25 2116.14,-40.91 1878.5,-20 1875.65,-19.75 1872.74,-19.48 1869.8,-19.2"/>
<polygon fill="midnightblue" stroke="midnightblue" points="2420.38,-59.63 2430.78,-57.62 2421.4,-52.71 2420.38,-59.63"/>
</g>
<!-- Node21 -->
<g id="node21" class="node">
<title>Node21</title>
<g id="a_node21"><a xlink:href="BlockVarRenamePass_8cpp.html" target="_top" xlink:title=" ">
<polygon fill="white" stroke="black" points="1888,-0.5 1888,-19.5 2031,-19.5 2031,-0.5 1888,-0.5"/>
<text text-anchor="middle" x="1959.5" y="-7.5" font-family="Helvetica,sans-Serif" font-size="10.00">BlockVarRenamePass.cpp</text>
</a>
</g>
</g>
<!-- Node5&#45;&gt;Node21 -->
<g id="edge20" class="edge">
<title>Node5&#45;&gt;Node21</title>
<path fill="none" stroke="midnightblue" d="M2420.77,-56.1C2251.44,-29.09 2205.9,-37.2 2039.5,-20 2036.72,-19.71 2033.89,-19.42 2031.02,-19.11"/>
<polygon fill="midnightblue" stroke="midnightblue" points="2420.34,-59.57 2430.77,-57.71 2421.45,-52.66 2420.34,-59.57"/>
</g>
<!-- Node22 -->
<g id="node22" class="node">
<title>Node22</title>
<g id="a_node22"><a xlink:href="StatementPropagationPass_8cpp.html" target="_top" xlink:title=" ">
<polygon fill="white" stroke="black" points="2049,-0.5 2049,-19.5 2218,-19.5 2218,-0.5 2049,-0.5"/>
<text text-anchor="middle" x="2133.5" y="-7.5" font-family="Helvetica,sans-Serif" font-size="10.00">StatementPropagationPass.cpp</text>
</a>
</g>
</g>
<!-- Node5&#45;&gt;Node22 -->
<g id="edge21" class="edge">
<title>Node5&#45;&gt;Node22</title>
<path fill="none" stroke="midnightblue" d="M2420.87,-56C2337.72,-40.11 2252.92,-27.45 2196.65,-19.54"/>
<polygon fill="midnightblue" stroke="midnightblue" points="2420.25,-59.44 2430.74,-57.9 2421.58,-52.57 2420.25,-59.44"/>
</g>
<!-- Node23 -->
<g id="node23" class="node">
<title>Node23</title>
<g id="a_node23"><a xlink:href="FromSSAFormPass_8cpp.html" target="_top" xlink:title=" ">
<polygon fill="white" stroke="black" points="2236.5,-0.5 2236.5,-19.5 2364.5,-19.5 2364.5,-0.5 2236.5,-0.5"/>
<text text-anchor="middle" x="2300.5" y="-7.5" font-family="Helvetica,sans-Serif" font-size="10.00">FromSSAFormPass.cpp</text>
</a>
</g>
</g>
<!-- Node5&#45;&gt;Node23 -->
<g id="edge22" class="edge">
<title>Node5&#45;&gt;Node23</title>
<path fill="none" stroke="midnightblue" d="M2425.45,-53.17C2395.33,-43 2352.6,-28.59 2325.73,-19.52"/>
<polygon fill="midnightblue" stroke="midnightblue" points="2424.55,-56.56 2435.15,-56.44 2426.79,-49.93 2424.55,-56.56"/>
</g>
<!-- Node24 -->
<g id="node24" class="node">
<title>Node24</title>
<g id="a_node24"><a xlink:href="LocalAndParamMapPass_8cpp.html" target="_top" xlink:title=" ">
<polygon fill="white" stroke="black" points="2382.5,-0.5 2382.5,-19.5 2538.5,-19.5 2538.5,-0.5 2382.5,-0.5"/>
<text text-anchor="middle" x="2460.5" y="-7.5" font-family="Helvetica,sans-Serif" font-size="10.00">LocalAndParamMapPass.cpp</text>
</a>
</g>
</g>
<!-- Node5&#45;&gt;Node24 -->
<g id="edge23" class="edge">
<title>Node5&#45;&gt;Node24</title>
<path fill="none" stroke="midnightblue" d="M2460.5,-45.8C2460.5,-36.91 2460.5,-26.78 2460.5,-19.75"/>
<polygon fill="midnightblue" stroke="midnightblue" points="2457,-46.08 2460.5,-56.08 2464,-46.08 2457,-46.08"/>
</g>
<!-- Node25 -->
<g id="node25" class="node">
<title>Node25</title>
<g id="a_node25"><a xlink:href="LocalTypeAnalysisPass_8cpp.html" target="_top" xlink:title=" ">
<polygon fill="white" stroke="black" points="2557,-0.5 2557,-19.5 2706,-19.5 2706,-0.5 2557,-0.5"/>
<text text-anchor="middle" x="2631.5" y="-7.5" font-family="Helvetica,sans-Serif" font-size="10.00">LocalTypeAnalysisPass.cpp</text>
</a>
</g>
</g>
<!-- Node5&#45;&gt;Node25 -->
<g id="edge24" class="edge">
<title>Node5&#45;&gt;Node25</title>
<path fill="none" stroke="midnightblue" d="M2497.54,-53.3C2529.76,-43.13 2575.69,-28.62 2604.53,-19.52"/>
<polygon fill="midnightblue" stroke="midnightblue" points="2496.08,-50.09 2487.6,-56.44 2498.19,-56.77 2496.08,-50.09"/>
</g>
<!-- Node26 -->
<g id="node26" class="node">
<title>Node26</title>
<g id="a_node26"><a xlink:href="UnusedLocalRemovalPass_8cpp.html" target="_top" xlink:title=" ">
<polygon fill="white" stroke="black" points="2724,-0.5 2724,-19.5 2889,-19.5 2889,-0.5 2724,-0.5"/>
<text text-anchor="middle" x="2806.5" y="-7.5" font-family="Helvetica,sans-Serif" font-size="10.00">UnusedLocalRemovalPass.cpp</text>
</a>
</g>
</g>
<!-- Node5&#45;&gt;Node26 -->
<g id="edge25" class="edge">
<title>Node5&#45;&gt;Node26</title>
<path fill="none" stroke="midnightblue" d="M2500.47,-58.76C2562.49,-49.08 2682.04,-30.42 2751.95,-19.51"/>
<polygon fill="midnightblue" stroke="midnightblue" points="2499.64,-55.35 2490.3,-60.35 2500.72,-62.27 2499.64,-55.35"/>
</g>
<!-- Node27 -->
<g id="node27" class="node">
<title>Node27</title>
<g id="a_node27"><a xlink:href="UnusedParamRemovalPass_8cpp.html" target="_top" xlink:title=" ">
<polygon fill="white" stroke="black" points="2907,-0.5 2907,-19.5 3078,-19.5 3078,-0.5 2907,-0.5"/>
<text text-anchor="middle" x="2992.5" y="-7.5" font-family="Helvetica,sans-Serif" font-size="10.00">UnusedParamRemovalPass.cpp</text>
</a>
</g>
</g>
<!-- Node5&#45;&gt;Node27 -->
<g id="edge26" class="edge">
<title>Node5&#45;&gt;Node27</title>
<path fill="none" stroke="midnightblue" d="M2500.17,-59.05C2507.9,-57.97 2515.95,-56.9 2523.5,-56 2525.86,-55.72 2772.04,-32.12 2906.74,-19.22"/>
<polygon fill="midnightblue" stroke="midnightblue" points="2499.67,-55.58 2490.27,-60.46 2500.66,-62.51 2499.67,-55.58"/>
</g>
<!-- Node28 -->
<g id="node28" class="node">
<title>Node28</title>
<g id="a_node28"><a xlink:href="UnusedStatementRemovalPass_8cpp.html" target="_top" xlink:title=" ">
<polygon fill="white" stroke="black" points="3096,-0.5 3096,-19.5 3287,-19.5 3287,-0.5 3096,-0.5"/>
<text text-anchor="middle" x="3191.5" y="-7.5" font-family="Helvetica,sans-Serif" font-size="10.00">UnusedStatementRemovalPass.cpp</text>
</a>
</g>
</g>
<!-- Node5&#45;&gt;Node28 -->
<g id="edge27" class="edge">
<title>Node5&#45;&gt;Node28</title>
<path fill="none" stroke="midnightblue" d="M2500.15,-58.85C2507.88,-57.79 2515.93,-56.78 2523.5,-56 2773.35,-30.22 2837.03,-38.83 3087.5,-20 3090.21,-19.8 3092.96,-19.59 3095.74,-19.37"/>
<polygon fill="midnightblue" stroke="midnightblue" points="2499.65,-55.39 2490.25,-60.26 2500.64,-62.32 2499.65,-55.39"/>
</g>
<!-- Node29 -->
<g id="node29" class="node">
<title>Node29</title>
<g id="a_node29"><a xlink:href="AssignRemovalPass_8cpp.html" target="_top" xlink:title=" ">
<polygon fill="white" stroke="black" points="3305,-0.5 3305,-19.5 3440,-19.5 3440,-0.5 3305,-0.5"/>
<text text-anchor="middle" x="3372.5" y="-7.5" font-family="Helvetica,sans-Serif" font-size="10.00">AssignRemovalPass.cpp</text>
</a>
</g>
</g>
<!-- Node5&#45;&gt;Node29 -->
<g id="edge28" class="edge">
<title>Node5&#45;&gt;Node29</title>
<path fill="none" stroke="midnightblue" d="M2500.14,-58.75C2507.87,-57.7 2515.93,-56.72 2523.5,-56 2865.9,-23.64 2953.73,-48.24 3296.5,-20 3299.28,-19.77 3302.12,-19.52 3304.98,-19.25"/>
<polygon fill="midnightblue" stroke="midnightblue" points="2499.64,-55.29 2490.23,-60.16 2500.63,-62.22 2499.64,-55.29"/>
</g>
<!-- Node30 -->
<g id="node30" class="node">
<title>Node30</title>
<g id="a_node30"><a xlink:href="PreservationAnalysisPass_8cpp.html" target="_top" xlink:title=" ">
<polygon fill="white" stroke="black" points="3458.5,-0.5 3458.5,-19.5 3620.5,-19.5 3620.5,-0.5 3458.5,-0.5"/>
<text text-anchor="middle" x="3539.5" y="-7.5" font-family="Helvetica,sans-Serif" font-size="10.00">PreservationAnalysisPass.cpp</text>
</a>
</g>
</g>
<!-- Node5&#45;&gt;Node30 -->
<g id="edge29" class="edge">
<title>Node5&#45;&gt;Node30</title>
<path fill="none" stroke="midnightblue" d="M2500.14,-58.7C2507.87,-57.65 2515.93,-56.69 2523.5,-56 2933.69,-18.83 3038.62,-48.5 3449.5,-20 3452.32,-19.8 3455.19,-19.59 3458.08,-19.37"/>
<polygon fill="midnightblue" stroke="midnightblue" points="2499.64,-55.24 2490.23,-60.11 2500.62,-62.17 2499.64,-55.24"/>
</g>
<!-- Node31 -->
<g id="node31" class="node">
<title>Node31</title>
<g id="a_node31"><a xlink:href="SPPreservationPass_8cpp.html" target="_top" xlink:title=" ">
<polygon fill="white" stroke="black" points="3639,-0.5 3639,-19.5 3772,-19.5 3772,-0.5 3639,-0.5"/>
<text text-anchor="middle" x="3705.5" y="-7.5" font-family="Helvetica,sans-Serif" font-size="10.00">SPPreservationPass.cpp</text>
</a>
</g>
</g>
<!-- Node5&#45;&gt;Node31 -->
<g id="edge30" class="edge">
<title>Node5&#45;&gt;Node31</title>
<path fill="none" stroke="midnightblue" d="M2500.14,-58.66C2507.87,-57.62 2515.92,-56.66 2523.5,-56 3013.45,-13.16 3139.07,-56.95 3629.5,-20 3632.55,-19.77 3635.66,-19.51 3638.8,-19.22"/>
<polygon fill="midnightblue" stroke="midnightblue" points="2499.64,-55.2 2490.23,-60.07 2500.62,-62.13 2499.64,-55.2"/>
</g>
<!-- Node32 -->
<g id="node32" class="node">
<title>Node32</title>
<g id="a_node32"><a xlink:href="PassManager_8cpp.html" target="_top" xlink:title=" ">
<polygon fill="white" stroke="black" points="3790.5,-0.5 3790.5,-19.5 3892.5,-19.5 3892.5,-0.5 3790.5,-0.5"/>
<text text-anchor="middle" x="3841.5" y="-7.5" font-family="Helvetica,sans-Serif" font-size="10.00">PassManager.cpp</text>
</a>
</g>
</g>
<!-- Node5&#45;&gt;Node32 -->
<g id="edge31" class="edge">
<title>Node5&#45;&gt;Node32</title>
<path fill="none" stroke="midnightblue" d="M2500.13,-58.64C2507.86,-57.6 2515.92,-56.65 2523.5,-56 3080.81,-8.37 3224.36,-69.58 3781.5,-20 3784.44,-19.74 3787.45,-19.43 3790.49,-19.08"/>
<polygon fill="midnightblue" stroke="midnightblue" points="2499.63,-55.18 2490.22,-60.05 2500.62,-62.11 2499.63,-55.18"/>
</g>
<!-- Node33 -->
<g id="node33" class="node">
<title>Node33</title>
<g id="a_node33"><a xlink:href="Assign_8cpp.html" target="_top" xlink:title=" ">
<polygon fill="white" stroke="black" points="3911,-0.5 3911,-19.5 3980,-19.5 3980,-0.5 3911,-0.5"/>
<text text-anchor="middle" x="3945.5" y="-7.5" font-family="Helvetica,sans-Serif" font-size="10.00">Assign.cpp</text>
</a>
</g>
</g>
<!-- Node5&#45;&gt;Node33 -->
<g id="edge32" class="edge">
<title>Node5&#45;&gt;Node33</title>
<path fill="none" stroke="midnightblue" d="M2500.13,-58.63C2507.86,-57.58 2515.92,-56.64 2523.5,-56 3133.99,-4.59 3292.82,-89.66 3901.5,-20 3904.44,-19.66 3907.48,-19.23 3910.52,-18.73"/>
<polygon fill="midnightblue" stroke="midnightblue" points="2499.63,-55.16 2490.22,-60.03 2500.62,-62.09 2499.63,-55.16"/>
</g>
<!-- Node34 -->
<g id="node34" class="node">
<title>Node34</title>
<g id="a_node34"><a xlink:href="Statement_8cpp.html" target="_top" xlink:title=" ">
<polygon fill="white" stroke="black" points="3998.5,-0.5 3998.5,-19.5 4086.5,-19.5 4086.5,-0.5 3998.5,-0.5"/>
<text text-anchor="middle" x="4042.5" y="-7.5" font-family="Helvetica,sans-Serif" font-size="10.00">Statement.cpp</text>
</a>
</g>
</g>
<!-- Node5&#45;&gt;Node34 -->
<g id="edge33" class="edge">
<title>Node5&#45;&gt;Node34</title>
<path fill="none" stroke="midnightblue" d="M2500.13,-58.62C2507.86,-57.58 2515.92,-56.63 2523.5,-56 3173,-1.82 3340.77,-82.72 3989.5,-20 3992.38,-19.72 3995.34,-19.38 3998.32,-18.99"/>
<polygon fill="midnightblue" stroke="midnightblue" points="2499.63,-55.15 2490.22,-60.02 2500.62,-62.08 2499.63,-55.15"/>
</g>
<!-- Node35 -->
<g id="node35" class="node">
<title>Node35</title>
<g id="a_node35"><a xlink:href="CallGraphDotWriter_8cpp.html" target="_top" xlink:title=" ">
<polygon fill="white" stroke="black" points="4104.5,-0.5 4104.5,-19.5 4236.5,-19.5 4236.5,-0.5 4104.5,-0.5"/>
<text text-anchor="middle" x="4170.5" y="-7.5" font-family="Helvetica,sans-Serif" font-size="10.00">CallGraphDotWriter.cpp</text>
</a>
</g>
</g>
<!-- Node5&#45;&gt;Node35 -->
<g id="edge34" class="edge">
<title>Node5&#45;&gt;Node35</title>
<path fill="none" stroke="midnightblue" d="M2500.13,-58.61C2507.86,-57.57 2515.92,-56.63 2523.5,-56 3219.98,1.52 3398.42,-69.69 4095.5,-20 4098.38,-19.79 4101.31,-19.56 4104.28,-19.3"/>
<polygon fill="midnightblue" stroke="midnightblue" points="2499.63,-55.14 2490.22,-60.01 2500.61,-62.07 2499.63,-55.14"/>
</g>
<!-- Node36 -->
<g id="node36" class="node">
<title>Node36</title>
<g id="a_node36"><a xlink:href="CFGDotWriter_8cpp.html" target="_top" xlink:title=" ">
<polygon fill="white" stroke="black" points="4254.5,-0.5 4254.5,-19.5 4358.5,-19.5 4358.5,-0.5 4254.5,-0.5"/>
<text text-anchor="middle" x="4306.5" y="-7.5" font-family="Helvetica,sans-Serif" font-size="10.00">CFGDotWriter.cpp</text>
</a>
</g>
</g>
<!-- Node5&#45;&gt;Node36 -->
<g id="edge35" class="edge">
<title>Node5&#45;&gt;Node36</title>
<path fill="none" stroke="midnightblue" d="M2500.13,-58.59C2507.86,-57.55 2515.92,-56.62 2523.5,-56 3286.47,6.24 3482.68,-83.99 4245.5,-20 4248.38,-19.76 4251.33,-19.47 4254.31,-19.14"/>
<polygon fill="midnightblue" stroke="midnightblue" points="2499.63,-55.13 2490.22,-60 2500.61,-62.06 2499.63,-55.13"/>
</g>
<!-- Node37 -->
<g id="node37" class="node">
<title>Node37</title>
<g id="a_node37"><a xlink:href="ProgSymbolWriter_8cpp.html" target="_top" xlink:title=" ">
<polygon fill="white" stroke="black" points="4377,-0.5 4377,-19.5 4502,-19.5 4502,-0.5 4377,-0.5"/>
<text text-anchor="middle" x="4439.5" y="-7.5" font-family="Helvetica,sans-Serif" font-size="10.00">ProgSymbolWriter.cpp</text>
</a>
</g>
</g>
<!-- Node5&#45;&gt;Node37 -->
<g id="edge36" class="edge">
<title>Node5&#45;&gt;Node37</title>
<path fill="none" stroke="midnightblue" d="M2500.13,-58.59C2507.86,-57.55 2515.92,-56.61 2523.5,-56 3340.54,10.09 3549.91,-78.92 4367.5,-20 4370.52,-19.78 4373.6,-19.53 4376.71,-19.24"/>
<polygon fill="midnightblue" stroke="midnightblue" points="2499.63,-55.12 2490.22,-59.99 2500.61,-62.05 2499.63,-55.12"/>
</g>
<!-- Node38 -->
<g id="node38" class="node">
<title>Node38</title>
<g id="a_node38"><a xlink:href="UseGraphWriter_8cpp.html" target="_top" xlink:title=" ">
<polygon fill="white" stroke="black" points="4520,-0.5 4520,-19.5 4635,-19.5 4635,-0.5 4520,-0.5"/>
<text text-anchor="middle" x="4577.5" y="-7.5" font-family="Helvetica,sans-Serif" font-size="10.00">UseGraphWriter.cpp</text>
</a>
</g>
</g>
<!-- Node5&#45;&gt;Node38 -->
<g id="edge37" class="edge">
<title>Node5&#45;&gt;Node38</title>
<path fill="none" stroke="midnightblue" d="M2500.13,-58.58C2507.86,-57.54 2515.92,-56.61 2523.5,-56 3404.37,14.62 3630.41,-87.82 4511.5,-20 4514.27,-19.79 4517.1,-19.53 4519.95,-19.25"/>
<polygon fill="midnightblue" stroke="midnightblue" points="2499.63,-55.11 2490.22,-59.98 2500.61,-62.04 2499.63,-55.11"/>
</g>
<!-- Node39 -->
<g id="node39" class="node">
<title>Node39</title>
<g id="a_node39"><a xlink:href="ExpSSAXformer_8cpp.html" target="_top" xlink:title=" ">
<polygon fill="white" stroke="black" points="4653.5,-0.5 4653.5,-19.5 4767.5,-19.5 4767.5,-0.5 4653.5,-0.5"/>
<text text-anchor="middle" x="4710.5" y="-7.5" font-family="Helvetica,sans-Serif" font-size="10.00">ExpSSAXformer.cpp</text>
</a>
</g>
</g>
<!-- Node5&#45;&gt;Node39 -->
<g id="edge38" class="edge">
<title>Node5&#45;&gt;Node39</title>
<path fill="none" stroke="midnightblue" d="M2500.13,-58.57C2507.86,-57.53 2515.92,-56.6 2523.5,-56 3463.33,18.81 3704.44,-91.82 4644.5,-20 4647.38,-19.78 4650.33,-19.52 4653.31,-19.22"/>
<polygon fill="midnightblue" stroke="midnightblue" points="2499.63,-55.11 2490.22,-59.98 2500.61,-62.04 2499.63,-55.11"/>
</g>
<!-- Node40 -->
<g id="node40" class="node">
<title>Node40</title>
<g id="a_node40"><a xlink:href="CommandlineDriver_8h.html" target="_top" xlink:title=" ">
<polygon fill="white" stroke="red" points="4785.5,-0.5 4785.5,-19.5 4909.5,-19.5 4909.5,-0.5 4785.5,-0.5"/>
<text text-anchor="middle" x="4847.5" y="-7.5" font-family="Helvetica,sans-Serif" font-size="10.00">CommandlineDriver.h</text>
</a>
</g>
</g>
<!-- Node5&#45;&gt;Node40 -->
<g id="edge39" class="edge">
<title>Node5&#45;&gt;Node40</title>
<path fill="none" stroke="midnightblue" d="M2500.13,-58.56C2507.86,-57.53 2515.92,-56.6 2523.5,-56 3521.84,22.97 3777.56,-91.08 4776.5,-20 4779.35,-19.8 4782.26,-19.56 4785.2,-19.29"/>
<polygon fill="midnightblue" stroke="midnightblue" points="2499.63,-55.1 2490.22,-59.97 2500.61,-62.03 2499.63,-55.1"/>
</g>
<!-- Node5&#45;&gt;Node51 -->
<g id="edge40" class="edge">
<title>Node5&#45;&gt;Node51</title>
<path fill="none" stroke="midnightblue" d="M2500.13,-58.56C2507.86,-57.52 2515.92,-56.6 2523.5,-56 3584.79,27.44 3856.08,-87.59 4918.5,-20 4921.43,-19.81 4924.42,-19.6 4927.43,-19.36"/>
<polygon fill="midnightblue" stroke="midnightblue" points="2499.63,-55.09 2490.22,-59.96 2500.61,-62.02 2499.63,-55.09"/>
</g>
</g>
</svg>
        <g id="navigator" transform="translate(0 0)" fill="#404254">
                <rect fill="#f2f5e9" fill-opacity="0.5" stroke="#606060" stroke-width=".5" x="0" y="0" width="60" height="60"/>
                <use id="zoomplus" xlink:href="#zoomPlus" x="17" y="9" onmousedown="handleZoom(evt,'in')"/>
                <use id="zoomminus" xlink:href="#zoomMin" x="42" y="9" onmousedown="handleZoom(evt,'out')"/>
                <use id="reset" xlink:href="#resetDef" x="30" y="36" onmousedown="handleReset()"/>
                <g id="arrowUp" xlink:href="#dirArrow" transform="translate(30 24)" onmousedown="handlePan(0,-1)">
                  <use xlink:href="#rim" fill="#404040">
                        <set attributeName="fill" to="#808080" begin="arrowUp.mouseover" end="arrowUp.mouseout"/>
                  </use>
                  <path fill="none" stroke="white" stroke-width="1.5" d="M0,-3.0v7 M-2.5,-0.5L0,-3.0L2.5,-0.5"/>
                </g>
                <g id="arrowRight" xlink:href="#dirArrow" transform="rotate(90) translate(36 -43)" onmousedown="handlePan(1,0)">
                  <use xlink:href="#rim" fill="#404040">
                        <set attributeName="fill" to="#808080" begin="arrowRight.mouseover" end="arrowRight.mouseout"/>
                  </use>
                  <path fill="none" stroke="white" stroke-width="1.5" d="M0,-3.0v7 M-2.5,-0.5L0,-3.0L2.5,-0.5"/>
                </g>
                <g id="arrowDown" xlink:href="#dirArrow" transform="rotate(180) translate(-30 -48)" onmousedown="handlePan(0,1)">
                  <use xlink:href="#rim" fill="#404040">
                        <set attributeName="fill" to="#808080" begin="arrowDown.mouseover" end="arrowDown.mouseout"/>
                  </use>
                  <path fill="none" stroke="white" stroke-width="1.5" d="M0,-3.0v7 M-2.5,-0.5L0,-3.0L2.5,-0.5"/>
                </g>
                <g id="arrowLeft" xlink:href="#dirArrow" transform="rotate(270) translate(-36 17)" onmousedown="handlePan(-1,0)">
                  <use xlink:href="#rim" fill="#404040">
                        <set attributeName="fill" to="#808080" begin="arrowLeft.mouseover" end="arrowLeft.mouseout"/>
                  </use>
                  <path fill="none" stroke="white" stroke-width="1.5" d="M0,-3.0v7 M-2.5,-0.5L0,-3.0L2.5,-0.5"/>
                </g>
        </g>
        <svg viewBox="0 0 15 15" width="100%" height="30px" preserveAspectRatio="xMaxYMin meet">
         <g id="arrow_out" transform="scale(0.3 0.3)">
          <a xlink:href="Plugin_8h__dep__incl_org.svg" target="_base">
           <rect id="button" ry="5" rx="5" y="6" x="6" height="38" width="38"
                fill="#f2f5e9" fill-opacity="0.5" stroke="#606060" stroke-width="1.0"/>
           <path id="arrow"
             d="M 11.500037,31.436501 C 11.940474,20.09759 22.043105,11.32322 32.158766,21.979434 L 37.068811,17.246167 C 37.068811,17.246167 37.088388,32 37.088388,32 L 22.160133,31.978069 C 22.160133,31.978069 26.997745,27.140456 26.997745,27.140456 C 18.528582,18.264221 13.291696,25.230495 11.500037,31.436501 z"
             style="fill:#404040;"/>
          </a>
         </g>
        </svg>
</svg>
