<?xml version="1.0" encoding="UTF-8" standalone="no"?>
<!DOCTYPE svg PUBLIC "-//W3C//DTD SVG 1.1//EN"
 "http://www.w3.org/Graphics/SVG/1.1/DTD/svg11.dtd">
<!-- Generated by graphviz version 2.43.0 (0)
 -->
<!-- Title: PluginManager.cpp Pages: 1 -->
<!--zoomable 587 -->
<svg id="main" version="1.1" xmlns="http://www.w3.org/2000/svg" xmlns:xlink="http://www.w3.org/1999/xlink" xml:space="preserve" onload="init(evt)">
<style type="text/css"><![CDATA[
.edge:hover path { stroke: red; }
.edge:hover polygon { stroke: red; fill: red; }
]]></style>
<script type="text/javascript"><![CDATA[
var edges = document.getElementsByTagName('g');
if (edges && edges.length) {
  for (var i=0;i<edges.length;i++) {
    if (edges[i].id.substr(0,4)=='edge') {
      edges[i].setAttribute('class','edge');
    }
  }
}
]]></script>
        <defs>
                <circle id="rim" cx="0" cy="0" r="7"/>
                <circle id="rim2" cx="0" cy="0" r="3.5"/>
                <g id="zoomPlus">
                        <use xlink:href="#rim" fill="#404040">
                                <set attributeName="fill" to="#808080" begin="zoomplus.mouseover" end="zoomplus.mouseout"/>
                        </use>
                        <path d="M-4,0h8M0,-4v8" fill="none" stroke="white" stroke-width="1.5" pointer-events="none"/>
                </g>
                <g id="zoomMin">
                        <use xlink:href="#rim" fill="#404040">
                                <set attributeName="fill" to="#808080" begin="zoomminus.mouseover" end="zoomminus.mouseout"/>
                        </use>
                        <path d="M-4,0h8" fill="none" stroke="white" stroke-width="1.5" pointer-events="none"/>
                </g>
                <g id="dirArrow">
                        <path fill="none" stroke="white" stroke-width="1.5" d="M0,-3.0v7 M-2.5,-0.5L0,-3.0L2.5,-0.5"/>
                </g>
               <g id="resetDef">
                       <use xlink:href="#rim2" fill="#404040">
                               <set attributeName="fill" to="#808080" begin="reset.mouseover" end="reset.mouseout"/>
                       </use>
               </g>
        </defs>

<script type="text/javascript">
var viewWidth = 1575;
var viewHeight = 587;
var sectionId = 'dynsection-0';
</script>
<script xlink:href="svgpan.js"/>
<svg id="graph" class="graph">
<g id="viewport">
<title>PluginManager.cpp</title>
<polygon fill="white" stroke="transparent" points="-4,4 -4,-583 1570.57,-583 1570.57,4 -4,4"/>
<!-- Node1 -->
<g id="node1" class="node">
<title>Node1</title>
<g id="a_node1"><a xlink:title=" ">
<polygon fill="#bfbfbf" stroke="black" points="1093.57,-559.5 1093.57,-578.5 1203.57,-578.5 1203.57,-559.5 1093.57,-559.5"/>
<text text-anchor="middle" x="1148.57" y="-566.5" font-family="Helvetica,sans-Serif" font-size="10.00">PluginManager.cpp</text>
</a>
</g>
</g>
<!-- Node2 -->
<g id="node2" class="node">
<title>Node2</title>
<g id="a_node2"><a xlink:href="PluginManager_8h.html" target="_top" xlink:title=" ">
<polygon fill="white" stroke="black" points="1099.57,-503.5 1099.57,-522.5 1197.57,-522.5 1197.57,-503.5 1099.57,-503.5"/>
<text text-anchor="middle" x="1148.57" y="-510.5" font-family="Helvetica,sans-Serif" font-size="10.00">PluginManager.h</text>
</a>
</g>
</g>
<!-- Node1&#45;&gt;Node2 -->
<g id="edge1" class="edge">
<title>Node1&#45;&gt;Node2</title>
<path fill="none" stroke="midnightblue" d="M1148.57,-559.08C1148.57,-552.01 1148.57,-541.86 1148.57,-532.99"/>
<polygon fill="midnightblue" stroke="midnightblue" points="1152.07,-532.75 1148.57,-522.75 1145.07,-532.75 1152.07,-532.75"/>
</g>
<!-- Node37 -->
<g id="node37" class="node">
<title>Node37</title>
<g id="a_node37"><a xlink:href="Log_8h.html" target="_top" xlink:title=" ">
<polygon fill="white" stroke="black" points="1043.07,-246.5 1043.07,-276.5 1152.07,-276.5 1152.07,-246.5 1043.07,-246.5"/>
<text text-anchor="start" x="1051.07" y="-264.5" font-family="Helvetica,sans-Serif" font-size="10.00">boomerang/util/log</text>
<text text-anchor="middle" x="1097.57" y="-253.5" font-family="Helvetica,sans-Serif" font-size="10.00">/Log.h</text>
</a>
</g>
</g>
<!-- Node1&#45;&gt;Node37 -->
<g id="edge60" class="edge">
<title>Node1&#45;&gt;Node37</title>
<path fill="none" stroke="midnightblue" d="M1132.42,-559.43C1119.25,-551.63 1101.16,-538.92 1090.57,-523 1072.59,-495.98 1071.57,-484.95 1071.57,-452.5 1071.57,-452.5 1071.57,-452.5 1071.57,-383.5 1071.57,-349.25 1081.65,-310.74 1089.25,-286.55"/>
<polygon fill="midnightblue" stroke="midnightblue" points="1092.66,-287.41 1092.43,-276.81 1086,-285.24 1092.66,-287.41"/>
</g>
<!-- Node38 -->
<g id="node38" class="node">
<title>Node38</title>
<g id="a_node38"><a xlink:title=" ">
<polygon fill="white" stroke="#bfbfbf" points="1215.57,-503.5 1215.57,-522.5 1253.57,-522.5 1253.57,-503.5 1215.57,-503.5"/>
<text text-anchor="middle" x="1234.57" y="-510.5" font-family="Helvetica,sans-Serif" font-size="10.00">QDir</text>
</a>
</g>
</g>
<!-- Node1&#45;&gt;Node38 -->
<g id="edge65" class="edge">
<title>Node1&#45;&gt;Node38</title>
<path fill="none" stroke="midnightblue" d="M1162.38,-559.32C1175.8,-550.9 1196.39,-537.97 1212.15,-528.07"/>
<polygon fill="midnightblue" stroke="midnightblue" points="1214.17,-530.94 1220.78,-522.65 1210.45,-525.01 1214.17,-530.94"/>
</g>
<!-- Node3 -->
<g id="node3" class="node">
<title>Node3</title>
<g id="a_node3"><a xlink:href="BoomerangAPI_8h.html" target="_top" xlink:title=" ">
<polygon fill="white" stroke="black" points="185.07,-56.5 185.07,-86.5 340.07,-86.5 340.07,-56.5 185.07,-56.5"/>
<text text-anchor="start" x="193.07" y="-74.5" font-family="Helvetica,sans-Serif" font-size="10.00">boomerang/core/Boomerang</text>
<text text-anchor="middle" x="262.57" y="-63.5" font-family="Helvetica,sans-Serif" font-size="10.00">API.h</text>
</a>
</g>
</g>
<!-- Node2&#45;&gt;Node3 -->
<g id="edge2" class="edge">
<title>Node2&#45;&gt;Node3</title>
<path fill="none" stroke="midnightblue" d="M1099.36,-510.38C911.28,-503.21 240.74,-468.43 86.57,-333 13.82,-269.1 -32.25,-198.34 28.57,-123 47.01,-100.15 116.4,-87.14 174.87,-80.07"/>
<polygon fill="midnightblue" stroke="midnightblue" points="175.37,-83.53 184.9,-78.9 174.56,-76.58 175.37,-83.53"/>
</g>
<!-- Node4 -->
<g id="node4" class="node">
<title>Node4</title>
<g id="a_node4"><a xlink:href="Plugin_8h.html" target="_top" xlink:title=" ">
<polygon fill="white" stroke="black" points="1148.07,-436.5 1148.07,-466.5 1277.07,-466.5 1277.07,-436.5 1148.07,-436.5"/>
<text text-anchor="start" x="1156.07" y="-454.5" font-family="Helvetica,sans-Serif" font-size="10.00">boomerang/core/plugin</text>
<text text-anchor="middle" x="1212.57" y="-443.5" font-family="Helvetica,sans-Serif" font-size="10.00">/Plugin.h</text>
</a>
</g>
</g>
<!-- Node2&#45;&gt;Node4 -->
<g id="edge3" class="edge">
<title>Node2&#45;&gt;Node4</title>
<path fill="none" stroke="midnightblue" d="M1157.74,-503.48C1166.16,-495.64 1178.99,-483.71 1190.12,-473.37"/>
<polygon fill="midnightblue" stroke="midnightblue" points="1192.54,-475.9 1197.48,-466.52 1187.77,-470.77 1192.54,-475.9"/>
</g>
<!-- Node5 -->
<g id="node5" class="node">
<title>Node5</title>
<g id="a_node5"><a xlink:href="PluginHandle_8h.html" target="_top" xlink:title=" ">
<polygon fill="white" stroke="black" points="1148.07,-369.5 1148.07,-399.5 1277.07,-399.5 1277.07,-369.5 1148.07,-369.5"/>
<text text-anchor="start" x="1156.07" y="-387.5" font-family="Helvetica,sans-Serif" font-size="10.00">boomerang/core/plugin</text>
<text text-anchor="middle" x="1212.57" y="-376.5" font-family="Helvetica,sans-Serif" font-size="10.00">/PluginHandle.h</text>
</a>
</g>
</g>
<!-- Node4&#45;&gt;Node5 -->
<g id="edge4" class="edge">
<title>Node4&#45;&gt;Node5</title>
<path fill="none" stroke="midnightblue" d="M1212.57,-436.4C1212.57,-428.64 1212.57,-418.81 1212.57,-409.86"/>
<polygon fill="midnightblue" stroke="midnightblue" points="1216.07,-409.58 1212.57,-399.58 1209.07,-409.58 1216.07,-409.58"/>
</g>
<!-- Node6 -->
<g id="node6" class="node">
<title>Node6</title>
<g id="a_node6"><a xlink:href="PluginType_8h.html" target="_top" xlink:title=" ">
<polygon fill="white" stroke="black" points="551.07,-369.5 551.07,-399.5 680.07,-399.5 680.07,-369.5 551.07,-369.5"/>
<text text-anchor="start" x="559.07" y="-387.5" font-family="Helvetica,sans-Serif" font-size="10.00">boomerang/core/plugin</text>
<text text-anchor="middle" x="615.57" y="-376.5" font-family="Helvetica,sans-Serif" font-size="10.00">/PluginType.h</text>
</a>
</g>
</g>
<!-- Node4&#45;&gt;Node6 -->
<g id="edge5" class="edge">
<title>Node4&#45;&gt;Node6</title>
<path fill="none" stroke="midnightblue" d="M1147.98,-439.49C1139.78,-438.24 1131.48,-437.04 1123.57,-436 970.16,-415.9 789.74,-399.73 690.49,-391.48"/>
<polygon fill="midnightblue" stroke="midnightblue" points="690.52,-387.97 680.27,-390.63 689.94,-394.94 690.52,-387.97"/>
</g>
<!-- Node17 -->
<g id="node17" class="node">
<title>Node17</title>
<g id="a_node17"><a xlink:title=" ">
<polygon fill="white" stroke="#bfbfbf" points="933.07,-123.5 933.07,-142.5 986.07,-142.5 986.07,-123.5 933.07,-123.5"/>
<text text-anchor="middle" x="959.57" y="-130.5" font-family="Helvetica,sans-Serif" font-size="10.00">QString</text>
</a>
</g>
</g>
<!-- Node4&#45;&gt;Node17 -->
<g id="edge58" class="edge">
<title>Node4&#45;&gt;Node17</title>
<path fill="none" stroke="midnightblue" d="M1240.77,-436.34C1255.96,-427.57 1274.08,-415.1 1286.57,-400 1310.03,-371.62 1319.57,-360.82 1319.57,-324 1319.57,-324 1319.57,-324 1319.57,-260.5 1319.57,-221.9 1319.66,-203.17 1289.57,-179 1245.01,-143.2 1072.46,-135.86 996.18,-134.37"/>
<polygon fill="midnightblue" stroke="midnightblue" points="996.14,-130.87 986.08,-134.2 996.02,-137.87 996.14,-130.87"/>
</g>
<!-- Node28 -->
<g id="node28" class="node">
<title>Node28</title>
<g id="a_node28"><a xlink:title=" ">
<polygon fill="white" stroke="#bfbfbf" points="1514.57,-123.5 1514.57,-142.5 1566.57,-142.5 1566.57,-123.5 1514.57,-123.5"/>
<text text-anchor="middle" x="1540.57" y="-130.5" font-family="Helvetica,sans-Serif" font-size="10.00">cassert</text>
</a>
</g>
</g>
<!-- Node4&#45;&gt;Node28 -->
<g id="edge59" class="edge">
<title>Node4&#45;&gt;Node28</title>
<path fill="none" stroke="midnightblue" d="M1277.17,-439.09C1372.47,-420.41 1539.57,-379.7 1539.57,-324 1539.57,-324 1539.57,-324 1539.57,-260.5 1539.57,-222.2 1540.03,-177.38 1540.33,-152.7"/>
<polygon fill="midnightblue" stroke="midnightblue" points="1543.83,-152.63 1540.45,-142.59 1536.83,-152.55 1543.83,-152.63"/>
</g>
<!-- Node7 -->
<g id="node7" class="node">
<title>Node7</title>
<g id="a_node7"><a xlink:href="ICodeGenerator_8h.html" target="_top" xlink:title=" ">
<polygon fill="white" stroke="black" points="299.57,-313.5 299.57,-332.5 475.57,-332.5 475.57,-313.5 299.57,-313.5"/>
<text text-anchor="middle" x="387.57" y="-320.5" font-family="Helvetica,sans-Serif" font-size="10.00">boomerang/ifc/ICodeGenerator.h</text>
</a>
</g>
</g>
<!-- Node6&#45;&gt;Node7 -->
<g id="edge6" class="edge">
<title>Node6&#45;&gt;Node7</title>
<path fill="none" stroke="midnightblue" d="M561.82,-369.47C521.63,-358.99 467.41,-344.84 430.18,-335.12"/>
<polygon fill="midnightblue" stroke="midnightblue" points="430.72,-331.64 420.16,-332.51 428.95,-338.42 430.72,-331.64"/>
</g>
<!-- Node10 -->
<g id="node10" class="node">
<title>Node10</title>
<g id="a_node10"><a xlink:href="IDecoder_8h.html" target="_top" xlink:title=" ">
<polygon fill="white" stroke="black" points="494.07,-313.5 494.07,-332.5 637.07,-332.5 637.07,-313.5 494.07,-313.5"/>
<text text-anchor="middle" x="565.57" y="-320.5" font-family="Helvetica,sans-Serif" font-size="10.00">boomerang/ifc/IDecoder.h</text>
</a>
</g>
</g>
<!-- Node6&#45;&gt;Node10 -->
<g id="edge10" class="edge">
<title>Node6&#45;&gt;Node10</title>
<path fill="none" stroke="midnightblue" d="M603.72,-369.4C596.45,-360.75 587.11,-349.64 579.49,-340.58"/>
<polygon fill="midnightblue" stroke="midnightblue" points="581.95,-338.06 572.84,-332.66 576.59,-342.57 581.95,-338.06"/>
</g>
<!-- Node23 -->
<g id="node23" class="node">
<title>Node23</title>
<g id="a_node23"><a xlink:href="IFileLoader_8h.html" target="_top" xlink:title=" ">
<polygon fill="white" stroke="black" points="891.57,-313.5 891.57,-332.5 1043.57,-332.5 1043.57,-313.5 891.57,-313.5"/>
<text text-anchor="middle" x="967.57" y="-320.5" font-family="Helvetica,sans-Serif" font-size="10.00">boomerang/ifc/IFileLoader.h</text>
</a>
</g>
</g>
<!-- Node6&#45;&gt;Node23 -->
<g id="edge32" class="edge">
<title>Node6&#45;&gt;Node23</title>
<path fill="none" stroke="midnightblue" d="M680.13,-372.59C744.8,-361.65 843.58,-344.96 906.86,-334.26"/>
<polygon fill="midnightblue" stroke="midnightblue" points="907.81,-337.65 917.09,-332.53 906.64,-330.75 907.81,-337.65"/>
</g>
<!-- Node32 -->
<g id="node32" class="node">
<title>Node32</title>
<g id="a_node32"><a xlink:href="IFrontEnd_8h.html" target="_top" xlink:title=" ">
<polygon fill="white" stroke="black" points="568.07,-252 568.07,-271 713.07,-271 713.07,-252 568.07,-252"/>
<text text-anchor="middle" x="640.57" y="-259" font-family="Helvetica,sans-Serif" font-size="10.00">boomerang/ifc/IFrontEnd.h</text>
</a>
</g>
</g>
<!-- Node6&#45;&gt;Node32 -->
<g id="edge45" class="edge">
<title>Node6&#45;&gt;Node32</title>
<path fill="none" stroke="midnightblue" d="M627.11,-369.49C634.25,-359.88 642.76,-346.46 646.57,-333 651.41,-315.86 648.84,-295.51 645.7,-281.09"/>
<polygon fill="midnightblue" stroke="midnightblue" points="649.1,-280.24 643.3,-271.37 642.3,-281.92 649.1,-280.24"/>
</g>
<!-- Node34 -->
<g id="node34" class="node">
<title>Node34</title>
<g id="a_node34"><a xlink:href="ILogSink_8h.html" target="_top" xlink:title=" ">
<polygon fill="white" stroke="black" points="37.57,-123.5 37.57,-142.5 177.57,-142.5 177.57,-123.5 37.57,-123.5"/>
<text text-anchor="middle" x="107.57" y="-130.5" font-family="Helvetica,sans-Serif" font-size="10.00">boomerang/ifc/ILogSink.h</text>
</a>
</g>
</g>
<!-- Node6&#45;&gt;Node34 -->
<g id="edge52" class="edge">
<title>Node6&#45;&gt;Node34</title>
<path fill="none" stroke="midnightblue" d="M550.97,-381.88C420.01,-377.91 133.09,-365.58 103.57,-333 57.54,-282.21 85.24,-190.66 100.05,-152"/>
<polygon fill="midnightblue" stroke="midnightblue" points="103.35,-153.16 103.81,-142.58 96.85,-150.57 103.35,-153.16"/>
</g>
<!-- Node35 -->
<g id="node35" class="node">
<title>Node35</title>
<g id="a_node35"><a xlink:href="ISymbolProvider_8h.html" target="_top" xlink:title=" ">
<polygon fill="white" stroke="black" points="694.07,-313.5 694.07,-332.5 873.07,-332.5 873.07,-313.5 694.07,-313.5"/>
<text text-anchor="middle" x="783.57" y="-320.5" font-family="Helvetica,sans-Serif" font-size="10.00">boomerang/ifc/ISymbolProvider.h</text>
</a>
</g>
</g>
<!-- Node6&#45;&gt;Node35 -->
<g id="edge54" class="edge">
<title>Node6&#45;&gt;Node35</title>
<path fill="none" stroke="midnightblue" d="M655.38,-369.4C684.07,-359.24 722.38,-345.67 749.62,-336.02"/>
<polygon fill="midnightblue" stroke="midnightblue" points="750.86,-339.3 759.12,-332.66 748.53,-332.7 750.86,-339.3"/>
</g>
<!-- Node36 -->
<g id="node36" class="node">
<title>Node36</title>
<g id="a_node36"><a xlink:href="ITypeRecovery_8h.html" target="_top" xlink:title=" ">
<polygon fill="white" stroke="black" points="113.07,-313.5 113.07,-332.5 282.07,-332.5 282.07,-313.5 113.07,-313.5"/>
<text text-anchor="middle" x="197.57" y="-320.5" font-family="Helvetica,sans-Serif" font-size="10.00">boomerang/ifc/ITypeRecovery.h</text>
</a>
</g>
</g>
<!-- Node6&#45;&gt;Node36 -->
<g id="edge56" class="edge">
<title>Node6&#45;&gt;Node36</title>
<path fill="none" stroke="midnightblue" d="M550.71,-374.27C474.01,-363.35 346.81,-345.24 267.82,-334"/>
<polygon fill="midnightblue" stroke="midnightblue" points="267.88,-330.47 257.48,-332.53 266.89,-337.4 267.88,-330.47"/>
</g>
<!-- Node8 -->
<g id="node8" class="node">
<title>Node8</title>
<g id="a_node8"><a xlink:href="ExpHelp_8h.html" target="_top" xlink:title=" ">
<polygon fill="white" stroke="black" points="228.57,-252 228.57,-271 390.57,-271 390.57,-252 228.57,-252"/>
<text text-anchor="middle" x="309.57" y="-259" font-family="Helvetica,sans-Serif" font-size="10.00">boomerang/ssl/exp/ExpHelp.h</text>
</a>
</g>
</g>
<!-- Node7&#45;&gt;Node8 -->
<g id="edge7" class="edge">
<title>Node7&#45;&gt;Node8</title>
<path fill="none" stroke="midnightblue" d="M376.39,-313.48C363.99,-304.02 343.78,-288.6 328.82,-277.19"/>
<polygon fill="midnightblue" stroke="midnightblue" points="330.79,-274.29 320.72,-271.01 326.55,-279.86 330.79,-274.29"/>
</g>
<!-- Node8&#45;&gt;Node3 -->
<g id="edge8" class="edge">
<title>Node8&#45;&gt;Node3</title>
<path fill="none" stroke="midnightblue" d="M299.02,-251.71C288.86,-242.51 274.08,-227.04 267.57,-210 253.26,-172.57 255.56,-125.16 258.84,-96.92"/>
<polygon fill="midnightblue" stroke="midnightblue" points="262.34,-97.12 260.16,-86.75 255.4,-96.22 262.34,-97.12"/>
</g>
<!-- Node9 -->
<g id="node9" class="node">
<title>Node9</title>
<g id="a_node9"><a xlink:title=" ">
<polygon fill="white" stroke="#bfbfbf" points="867.57,-185 867.57,-204 925.57,-204 925.57,-185 867.57,-185"/>
<text text-anchor="middle" x="896.57" y="-192" font-family="Helvetica,sans-Serif" font-size="10.00">memory</text>
</a>
</g>
</g>
<!-- Node8&#45;&gt;Node9 -->
<g id="edge9" class="edge">
<title>Node8&#45;&gt;Node9</title>
<path fill="none" stroke="midnightblue" d="M359.06,-251.94C372.5,-249.81 387.07,-247.65 400.57,-246 586.53,-223.24 634.97,-235.59 820.57,-210 832.61,-208.34 845.63,-206.04 857.44,-203.76"/>
<polygon fill="midnightblue" stroke="midnightblue" points="858.32,-207.16 867.45,-201.78 856.96,-200.29 858.32,-207.16"/>
</g>
<!-- Node11 -->
<g id="node11" class="node">
<title>Node11</title>
<g id="a_node11"><a xlink:href="DecodeResult_8h.html" target="_top" xlink:title=" ">
<polygon fill="white" stroke="black" points="731.57,-246.5 731.57,-276.5 847.57,-276.5 847.57,-246.5 731.57,-246.5"/>
<text text-anchor="start" x="739.57" y="-264.5" font-family="Helvetica,sans-Serif" font-size="10.00">boomerang/frontend</text>
<text text-anchor="middle" x="789.57" y="-253.5" font-family="Helvetica,sans-Serif" font-size="10.00">/DecodeResult.h</text>
</a>
</g>
</g>
<!-- Node10&#45;&gt;Node11 -->
<g id="edge11" class="edge">
<title>Node10&#45;&gt;Node11</title>
<path fill="none" stroke="midnightblue" d="M597.66,-313.48C631.26,-304.55 684.87,-290.31 726.9,-279.14"/>
<polygon fill="midnightblue" stroke="midnightblue" points="728.01,-282.47 736.77,-276.52 726.21,-275.71 728.01,-282.47"/>
</g>
<!-- Node20 -->
<g id="node20" class="node">
<title>Node20</title>
<g id="a_node20"><a xlink:href="Register_8h.html" target="_top" xlink:title=" ">
<polygon fill="white" stroke="black" points="409.07,-252 409.07,-271 550.07,-271 550.07,-252 409.07,-252"/>
<text text-anchor="middle" x="479.57" y="-259" font-family="Helvetica,sans-Serif" font-size="10.00">boomerang/ssl/Register.h</text>
</a>
</g>
</g>
<!-- Node10&#45;&gt;Node20 -->
<g id="edge25" class="edge">
<title>Node10&#45;&gt;Node20</title>
<path fill="none" stroke="midnightblue" d="M553.24,-313.48C539.45,-303.93 516.87,-288.31 500.33,-276.87"/>
<polygon fill="midnightblue" stroke="midnightblue" points="502.08,-273.82 491.86,-271.01 498.1,-279.58 502.08,-273.82"/>
</g>
<!-- Node11&#45;&gt;Node9 -->
<g id="edge24" class="edge">
<title>Node11&#45;&gt;Node9</title>
<path fill="none" stroke="midnightblue" d="M812.78,-246.4C830.89,-235.39 855.91,-220.2 873.88,-209.28"/>
<polygon fill="midnightblue" stroke="midnightblue" points="875.83,-212.19 882.56,-204.01 872.2,-206.21 875.83,-212.19"/>
</g>
<!-- Node12 -->
<g id="node12" class="node">
<title>Node12</title>
<g id="a_node12"><a xlink:href="Address_8h.html" target="_top" xlink:title=" ">
<polygon fill="white" stroke="black" points="943.57,-185 943.57,-204 1085.57,-204 1085.57,-185 943.57,-185"/>
<text text-anchor="middle" x="1014.57" y="-192" font-family="Helvetica,sans-Serif" font-size="10.00">boomerang/util/Address.h</text>
</a>
</g>
</g>
<!-- Node11&#45;&gt;Node12 -->
<g id="edge12" class="edge">
<title>Node11&#45;&gt;Node12</title>
<path fill="none" stroke="midnightblue" d="M838.11,-246.48C879.14,-234.62 937.17,-217.86 975.32,-206.84"/>
<polygon fill="midnightblue" stroke="midnightblue" points="976.41,-210.17 985.04,-204.03 974.46,-203.44 976.41,-210.17"/>
</g>
<!-- Node14 -->
<g id="node14" class="node">
<title>Node14</title>
<g id="a_node14"><a xlink:href="Types_8h.html" target="_top" xlink:title=" ">
<polygon fill="white" stroke="black" points="774.07,-62 774.07,-81 905.07,-81 905.07,-62 774.07,-62"/>
<text text-anchor="middle" x="839.57" y="-69" font-family="Helvetica,sans-Serif" font-size="10.00">boomerang/util/Types.h</text>
</a>
</g>
</g>
<!-- Node11&#45;&gt;Node14 -->
<g id="edge21" class="edge">
<title>Node11&#45;&gt;Node14</title>
<path fill="none" stroke="midnightblue" d="M800.5,-246.3C807.39,-236.6 815.85,-223.17 820.57,-210 835.08,-169.49 838.59,-118.59 839.38,-91.51"/>
<polygon fill="midnightblue" stroke="midnightblue" points="842.89,-91.23 839.59,-81.16 835.89,-91.09 842.89,-91.23"/>
</g>
<!-- Node18 -->
<g id="node18" class="node">
<title>Node18</title>
<g id="a_node18"><a xlink:title=" ">
<polygon fill="white" stroke="#bfbfbf" points="758.07,-185 758.07,-204 811.07,-204 811.07,-185 758.07,-185"/>
<text text-anchor="middle" x="784.57" y="-192" font-family="Helvetica,sans-Serif" font-size="10.00">cstddef</text>
</a>
</g>
</g>
<!-- Node11&#45;&gt;Node18 -->
<g id="edge22" class="edge">
<title>Node11&#45;&gt;Node18</title>
<path fill="none" stroke="midnightblue" d="M788.48,-246.4C787.75,-236.96 786.79,-224.45 786,-214.19"/>
<polygon fill="midnightblue" stroke="midnightblue" points="789.49,-213.9 785.23,-204.19 782.51,-214.43 789.49,-213.9"/>
</g>
<!-- Node19 -->
<g id="node19" class="node">
<title>Node19</title>
<g id="a_node19"><a xlink:title=" ">
<polygon fill="white" stroke="#bfbfbf" points="707.57,-185 707.57,-204 739.57,-204 739.57,-185 707.57,-185"/>
<text text-anchor="middle" x="723.57" y="-192" font-family="Helvetica,sans-Serif" font-size="10.00">list</text>
</a>
</g>
</g>
<!-- Node11&#45;&gt;Node19 -->
<g id="edge23" class="edge">
<title>Node11&#45;&gt;Node19</title>
<path fill="none" stroke="midnightblue" d="M775.24,-246.4C764.75,-236.06 750.5,-222.02 739.62,-211.31"/>
<polygon fill="midnightblue" stroke="midnightblue" points="741.97,-208.72 732.39,-204.19 737.06,-213.71 741.97,-208.72"/>
</g>
<!-- Node12&#45;&gt;Node3 -->
<g id="edge13" class="edge">
<title>Node12&#45;&gt;Node3</title>
<path fill="none" stroke="midnightblue" d="M970.64,-184.96C958.95,-182.84 946.3,-180.7 934.57,-179 787.67,-157.75 745.54,-182.83 602.57,-143 582.26,-137.34 579.69,-129.27 559.57,-123 490.88,-101.61 410.27,-88.63 350.37,-81.19"/>
<polygon fill="midnightblue" stroke="midnightblue" points="350.54,-77.69 340.19,-79.96 349.69,-84.64 350.54,-77.69"/>
</g>
<!-- Node13 -->
<g id="node13" class="node">
<title>Node13</title>
<g id="a_node13"><a xlink:href="OStream_8h.html" target="_top" xlink:title=" ">
<polygon fill="white" stroke="black" points="611.57,-123.5 611.57,-142.5 757.57,-142.5 757.57,-123.5 611.57,-123.5"/>
<text text-anchor="middle" x="684.57" y="-130.5" font-family="Helvetica,sans-Serif" font-size="10.00">boomerang/util/OStream.h</text>
</a>
</g>
</g>
<!-- Node12&#45;&gt;Node13 -->
<g id="edge14" class="edge">
<title>Node12&#45;&gt;Node13</title>
<path fill="none" stroke="midnightblue" d="M967.61,-184.98C956.76,-183.01 945.26,-180.93 934.57,-179 868.59,-167.08 792.81,-153.45 742.13,-144.34"/>
<polygon fill="midnightblue" stroke="midnightblue" points="742.49,-140.85 732.03,-142.53 741.25,-147.74 742.49,-140.85"/>
</g>
<!-- Node12&#45;&gt;Node14 -->
<g id="edge19" class="edge">
<title>Node12&#45;&gt;Node14</title>
<path fill="none" stroke="midnightblue" d="M1014.73,-184.87C1014.54,-170.19 1011.99,-140.27 995.57,-123 974.59,-100.95 943.93,-88.51 915.33,-81.5"/>
<polygon fill="midnightblue" stroke="midnightblue" points="915.85,-78.03 905.32,-79.24 914.31,-84.86 915.85,-78.03"/>
</g>
<!-- Node12&#45;&gt;Node17 -->
<g id="edge20" class="edge">
<title>Node12&#45;&gt;Node17</title>
<path fill="none" stroke="midnightblue" d="M1006.69,-184.98C998.27,-175.87 984.75,-161.24 974.34,-149.98"/>
<polygon fill="midnightblue" stroke="midnightblue" points="976.79,-147.48 967.43,-142.51 971.65,-152.23 976.79,-147.48"/>
</g>
<!-- Node13&#45;&gt;Node3 -->
<g id="edge15" class="edge">
<title>Node13&#45;&gt;Node3</title>
<path fill="none" stroke="midnightblue" d="M624.1,-123.48C552.34,-113.36 432.11,-96.41 350.17,-84.85"/>
<polygon fill="midnightblue" stroke="midnightblue" points="350.51,-81.37 340.12,-83.43 349.53,-88.3 350.51,-81.37"/>
</g>
<!-- Node13&#45;&gt;Node14 -->
<g id="edge16" class="edge">
<title>Node13&#45;&gt;Node14</title>
<path fill="none" stroke="midnightblue" d="M706.77,-123.48C733.25,-113.31 777.68,-96.26 807.78,-84.7"/>
<polygon fill="midnightblue" stroke="midnightblue" points="809.32,-87.86 817.4,-81.01 806.81,-81.33 809.32,-87.86"/>
</g>
<!-- Node16 -->
<g id="node16" class="node">
<title>Node16</title>
<g id="a_node16"><a xlink:title=" ">
<polygon fill="white" stroke="#bfbfbf" points="661.57,-62 661.57,-81 707.57,-81 707.57,-62 661.57,-62"/>
<text text-anchor="middle" x="684.57" y="-69" font-family="Helvetica,sans-Serif" font-size="10.00">cstdio</text>
</a>
</g>
</g>
<!-- Node13&#45;&gt;Node16 -->
<g id="edge18" class="edge">
<title>Node13&#45;&gt;Node16</title>
<path fill="none" stroke="midnightblue" d="M684.57,-123.48C684.57,-115.08 684.57,-101.98 684.57,-91.16"/>
<polygon fill="midnightblue" stroke="midnightblue" points="688.07,-91.01 684.57,-81.01 681.07,-91.01 688.07,-91.01"/>
</g>
<!-- Node15 -->
<g id="node15" class="node">
<title>Node15</title>
<g id="a_node15"><a xlink:title=" ">
<polygon fill="white" stroke="#bfbfbf" points="814.57,-0.5 814.57,-19.5 864.57,-19.5 864.57,-0.5 814.57,-0.5"/>
<text text-anchor="middle" x="839.57" y="-7.5" font-family="Helvetica,sans-Serif" font-size="10.00">cstdint</text>
</a>
</g>
</g>
<!-- Node14&#45;&gt;Node15 -->
<g id="edge17" class="edge">
<title>Node14&#45;&gt;Node15</title>
<path fill="none" stroke="midnightblue" d="M839.57,-61.98C839.57,-53.58 839.57,-40.48 839.57,-29.66"/>
<polygon fill="midnightblue" stroke="midnightblue" points="843.07,-29.51 839.57,-19.51 836.07,-29.51 843.07,-29.51"/>
</g>
<!-- Node20&#45;&gt;Node3 -->
<g id="edge26" class="edge">
<title>Node20&#45;&gt;Node3</title>
<path fill="none" stroke="midnightblue" d="M429.3,-252C382.93,-243.18 318.61,-228.14 300.57,-210 284.74,-194.09 272.27,-131.78 266.34,-96.75"/>
<polygon fill="midnightblue" stroke="midnightblue" points="269.79,-96.14 264.72,-86.84 262.88,-97.27 269.79,-96.14"/>
</g>
<!-- Node20&#45;&gt;Node9 -->
<g id="edge29" class="edge">
<title>Node20&#45;&gt;Node9</title>
<path fill="none" stroke="midnightblue" d="M524.78,-251.96C536.12,-249.91 548.27,-247.8 559.57,-246 675.2,-227.55 705.02,-228.98 820.57,-210 832.56,-208.03 845.57,-205.64 857.38,-203.38"/>
<polygon fill="midnightblue" stroke="midnightblue" points="858.25,-206.77 867.4,-201.43 856.91,-199.9 858.25,-206.77"/>
</g>
<!-- Node20&#45;&gt;Node14 -->
<g id="edge27" class="edge">
<title>Node20&#45;&gt;Node14</title>
<path fill="none" stroke="midnightblue" d="M480.96,-251.91C484.2,-234.93 493.93,-197.13 518.57,-179 608.28,-112.99 666.57,-192.05 766.57,-143 791.92,-130.56 814.15,-106.05 827.22,-89.47"/>
<polygon fill="midnightblue" stroke="midnightblue" points="830.24,-91.28 833.5,-81.2 824.67,-87.05 830.24,-91.28"/>
</g>
<!-- Node20&#45;&gt;Node17 -->
<g id="edge28" class="edge">
<title>Node20&#45;&gt;Node17</title>
<path fill="none" stroke="midnightblue" d="M485.41,-251.97C497.74,-234.76 528.29,-196.03 564.57,-179 596.61,-163.96 830.91,-144.13 922.77,-136.84"/>
<polygon fill="midnightblue" stroke="midnightblue" points="923.29,-140.31 932.99,-136.04 922.74,-133.33 923.29,-140.31"/>
</g>
<!-- Node21 -->
<g id="node21" class="node">
<title>Node21</title>
<g id="a_node21"><a xlink:title=" ">
<polygon fill="white" stroke="#bfbfbf" points="309.57,-185 309.57,-204 353.57,-204 353.57,-185 309.57,-185"/>
<text text-anchor="middle" x="331.57" y="-192" font-family="Helvetica,sans-Serif" font-size="10.00">string</text>
</a>
</g>
</g>
<!-- Node20&#45;&gt;Node21 -->
<g id="edge30" class="edge">
<title>Node20&#45;&gt;Node21</title>
<path fill="none" stroke="midnightblue" d="M459.41,-251.83C436.24,-241.84 397.09,-224.89 363.57,-210 362.37,-209.47 361.16,-208.93 359.93,-208.38"/>
<polygon fill="midnightblue" stroke="midnightblue" points="361.05,-205.05 350.5,-204.13 358.18,-211.43 361.05,-205.05"/>
</g>
<!-- Node22 -->
<g id="node22" class="node">
<title>Node22</title>
<g id="a_node22"><a xlink:title=" ">
<polygon fill="white" stroke="#bfbfbf" points="372.07,-185 372.07,-204 441.07,-204 441.07,-185 372.07,-185"/>
<text text-anchor="middle" x="406.57" y="-192" font-family="Helvetica,sans-Serif" font-size="10.00">type_traits</text>
</a>
</g>
</g>
<!-- Node20&#45;&gt;Node22 -->
<g id="edge31" class="edge">
<title>Node20&#45;&gt;Node22</title>
<path fill="none" stroke="midnightblue" d="M469.72,-251.73C458.01,-241.31 438.25,-223.71 423.94,-210.97"/>
<polygon fill="midnightblue" stroke="midnightblue" points="426.05,-208.16 416.25,-204.13 421.4,-213.39 426.05,-208.16"/>
</g>
<!-- Node24 -->
<g id="node24" class="node">
<title>Node24</title>
<g id="a_node24"><a xlink:href="BinaryFile_8h.html" target="_top" xlink:title=" ">
<polygon fill="white" stroke="black" points="904.07,-246.5 904.07,-276.5 1025.07,-276.5 1025.07,-246.5 904.07,-246.5"/>
<text text-anchor="start" x="912.07" y="-264.5" font-family="Helvetica,sans-Serif" font-size="10.00">boomerang/db/binary</text>
<text text-anchor="middle" x="964.57" y="-253.5" font-family="Helvetica,sans-Serif" font-size="10.00">/BinaryFile.h</text>
</a>
</g>
</g>
<!-- Node23&#45;&gt;Node24 -->
<g id="edge33" class="edge">
<title>Node23&#45;&gt;Node24</title>
<path fill="none" stroke="midnightblue" d="M967.14,-313.48C966.78,-306.47 966.26,-296.19 965.79,-286.7"/>
<polygon fill="midnightblue" stroke="midnightblue" points="969.27,-286.33 965.27,-276.52 962.28,-286.69 969.27,-286.33"/>
</g>
<!-- Node25 -->
<g id="node25" class="node">
<title>Node25</title>
<g id="a_node25"><a xlink:href="BinaryImage_8h.html" target="_top" xlink:title=" ">
<polygon fill="white" stroke="black" points="1170.07,-246.5 1170.07,-276.5 1291.07,-276.5 1291.07,-246.5 1170.07,-246.5"/>
<text text-anchor="start" x="1178.07" y="-264.5" font-family="Helvetica,sans-Serif" font-size="10.00">boomerang/db/binary</text>
<text text-anchor="middle" x="1230.57" y="-253.5" font-family="Helvetica,sans-Serif" font-size="10.00">/BinaryImage.h</text>
</a>
</g>
</g>
<!-- Node23&#45;&gt;Node25 -->
<g id="edge36" class="edge">
<title>Node23&#45;&gt;Node25</title>
<path fill="none" stroke="midnightblue" d="M1005.25,-313.48C1045.44,-304.38 1110.04,-289.77 1159.79,-278.51"/>
<polygon fill="midnightblue" stroke="midnightblue" points="1160.86,-281.86 1169.84,-276.24 1159.32,-275.03 1160.86,-281.86"/>
</g>
<!-- Node24&#45;&gt;Node9 -->
<g id="edge35" class="edge">
<title>Node24&#45;&gt;Node9</title>
<path fill="none" stroke="midnightblue" d="M949.81,-246.4C939,-236.06 924.31,-222.02 913.1,-211.31"/>
<polygon fill="midnightblue" stroke="midnightblue" points="915.31,-208.57 905.66,-204.19 910.47,-213.63 915.31,-208.57"/>
</g>
<!-- Node24&#45;&gt;Node12 -->
<g id="edge34" class="edge">
<title>Node24&#45;&gt;Node12</title>
<path fill="none" stroke="midnightblue" d="M975.41,-246.4C983.13,-236.36 993.54,-222.84 1001.68,-212.25"/>
<polygon fill="midnightblue" stroke="midnightblue" points="1004.55,-214.25 1007.88,-204.19 999.01,-209.99 1004.55,-214.25"/>
</g>
<!-- Node25&#45;&gt;Node9 -->
<g id="edge43" class="edge">
<title>Node25&#45;&gt;Node9</title>
<path fill="none" stroke="midnightblue" d="M1170.02,-247.6C1167.16,-247.05 1164.33,-246.51 1161.57,-246 1061.11,-227.49 1033.26,-236.35 934.57,-210 931.91,-209.29 929.18,-208.46 926.46,-207.56"/>
<polygon fill="midnightblue" stroke="midnightblue" points="927.41,-204.19 916.82,-204.12 925.06,-210.78 927.41,-204.19"/>
</g>
<!-- Node25&#45;&gt;Node12 -->
<g id="edge37" class="edge">
<title>Node25&#45;&gt;Node12</title>
<path fill="none" stroke="midnightblue" d="M1183.96,-246.48C1144.74,-234.67 1089.34,-218 1052.71,-206.98"/>
<polygon fill="midnightblue" stroke="midnightblue" points="1053.49,-203.56 1042.91,-204.03 1051.47,-210.26 1053.49,-203.56"/>
</g>
<!-- Node26 -->
<g id="node26" class="node">
<title>Node26</title>
<g id="a_node26"><a xlink:href="IntervalMap_8h.html" target="_top" xlink:title=" ">
<polygon fill="white" stroke="black" points="1348.07,-185 1348.07,-204 1509.07,-204 1509.07,-185 1348.07,-185"/>
<text text-anchor="middle" x="1428.57" y="-192" font-family="Helvetica,sans-Serif" font-size="10.00">boomerang/util/IntervalMap.h</text>
</a>
</g>
</g>
<!-- Node25&#45;&gt;Node26 -->
<g id="edge38" class="edge">
<title>Node25&#45;&gt;Node26</title>
<path fill="none" stroke="midnightblue" d="M1273.53,-246.4C1309.19,-234.69 1359.32,-218.23 1392.82,-207.23"/>
<polygon fill="midnightblue" stroke="midnightblue" points="1394.24,-210.45 1402.65,-204.01 1392.06,-203.8 1394.24,-210.45"/>
</g>
<!-- Node30 -->
<g id="node30" class="node">
<title>Node30</title>
<g id="a_node30"><a xlink:title=" ">
<polygon fill="white" stroke="#bfbfbf" points="1207.07,-185 1207.07,-204 1280.07,-204 1280.07,-185 1207.07,-185"/>
<text text-anchor="middle" x="1243.57" y="-192" font-family="Helvetica,sans-Serif" font-size="10.00">QByteArray</text>
</a>
</g>
</g>
<!-- Node25&#45;&gt;Node30 -->
<g id="edge42" class="edge">
<title>Node25&#45;&gt;Node30</title>
<path fill="none" stroke="midnightblue" d="M1233.39,-246.4C1235.27,-236.96 1237.78,-224.45 1239.83,-214.19"/>
<polygon fill="midnightblue" stroke="midnightblue" points="1243.3,-214.69 1241.83,-204.19 1236.43,-213.31 1243.3,-214.69"/>
</g>
<!-- Node31 -->
<g id="node31" class="node">
<title>Node31</title>
<g id="a_node31"><a xlink:title=" ">
<polygon fill="white" stroke="#bfbfbf" points="1142.07,-185 1142.07,-204 1189.07,-204 1189.07,-185 1142.07,-185"/>
<text text-anchor="middle" x="1165.57" y="-192" font-family="Helvetica,sans-Serif" font-size="10.00">vector</text>
</a>
</g>
</g>
<!-- Node25&#45;&gt;Node31 -->
<g id="edge44" class="edge">
<title>Node25&#45;&gt;Node31</title>
<path fill="none" stroke="midnightblue" d="M1216.46,-246.4C1206.13,-236.06 1192.09,-222.02 1181.37,-211.31"/>
<polygon fill="midnightblue" stroke="midnightblue" points="1183.81,-208.79 1174.26,-204.19 1178.86,-213.74 1183.81,-208.79"/>
</g>
<!-- Node27 -->
<g id="node27" class="node">
<title>Node27</title>
<g id="a_node27"><a xlink:href="Interval_8h.html" target="_top" xlink:title=" ">
<polygon fill="white" stroke="black" points="1356.57,-123.5 1356.57,-142.5 1496.57,-142.5 1496.57,-123.5 1356.57,-123.5"/>
<text text-anchor="middle" x="1426.57" y="-130.5" font-family="Helvetica,sans-Serif" font-size="10.00">boomerang/util/Interval.h</text>
</a>
</g>
</g>
<!-- Node26&#45;&gt;Node27 -->
<g id="edge39" class="edge">
<title>Node26&#45;&gt;Node27</title>
<path fill="none" stroke="midnightblue" d="M1428.28,-184.98C1428,-176.58 1427.56,-163.48 1427.19,-152.66"/>
<polygon fill="midnightblue" stroke="midnightblue" points="1430.69,-152.39 1426.85,-142.51 1423.69,-152.62 1430.69,-152.39"/>
</g>
<!-- Node26&#45;&gt;Node28 -->
<g id="edge40" class="edge">
<title>Node26&#45;&gt;Node28</title>
<path fill="none" stroke="midnightblue" d="M1444.61,-184.98C1463.16,-175.12 1493.91,-158.79 1515.59,-147.27"/>
<polygon fill="midnightblue" stroke="midnightblue" points="1517.36,-150.29 1524.55,-142.51 1514.08,-144.11 1517.36,-150.29"/>
</g>
<!-- Node29 -->
<g id="node29" class="node">
<title>Node29</title>
<g id="a_node29"><a xlink:title=" ">
<polygon fill="white" stroke="#bfbfbf" points="1300.57,-123.5 1300.57,-142.5 1338.57,-142.5 1338.57,-123.5 1300.57,-123.5"/>
<text text-anchor="middle" x="1319.57" y="-130.5" font-family="Helvetica,sans-Serif" font-size="10.00">map</text>
</a>
</g>
</g>
<!-- Node26&#45;&gt;Node29 -->
<g id="edge41" class="edge">
<title>Node26&#45;&gt;Node29</title>
<path fill="none" stroke="midnightblue" d="M1412.95,-184.98C1394.98,-175.17 1365.24,-158.93 1344.16,-147.42"/>
<polygon fill="midnightblue" stroke="midnightblue" points="1345.61,-144.23 1335.15,-142.51 1342.25,-150.37 1345.61,-144.23"/>
</g>
<!-- Node32&#45;&gt;Node3 -->
<g id="edge46" class="edge">
<title>Node32&#45;&gt;Node3</title>
<path fill="none" stroke="midnightblue" d="M623.34,-251.93C565.95,-223.39 380.35,-131.08 300.1,-91.17"/>
<polygon fill="midnightblue" stroke="midnightblue" points="301.37,-87.89 290.85,-86.57 298.25,-94.16 301.37,-87.89"/>
</g>
<!-- Node32&#45;&gt;Node9 -->
<g id="edge50" class="edge">
<title>Node32&#45;&gt;Node9</title>
<path fill="none" stroke="midnightblue" d="M674.3,-251.94C721.67,-239.91 807.72,-218.06 857.72,-205.36"/>
<polygon fill="midnightblue" stroke="midnightblue" points="858.68,-208.73 867.51,-202.88 856.96,-201.95 858.68,-208.73"/>
</g>
<!-- Node32&#45;&gt;Node12 -->
<g id="edge48" class="edge">
<title>Node32&#45;&gt;Node12</title>
<path fill="none" stroke="midnightblue" d="M688.69,-251.93C699.81,-249.97 711.6,-247.9 722.57,-246 816.73,-229.68 840.43,-226.52 934.57,-210 942.19,-208.66 950.22,-207.23 958.13,-205.81"/>
<polygon fill="midnightblue" stroke="midnightblue" points="958.83,-209.24 968.05,-204.02 957.59,-202.35 958.83,-209.24"/>
</g>
<!-- Node32&#45;&gt;Node19 -->
<g id="edge49" class="edge">
<title>Node32&#45;&gt;Node19</title>
<path fill="none" stroke="midnightblue" d="M651.76,-251.73C665.2,-241.21 687.97,-223.38 704.26,-210.62"/>
<polygon fill="midnightblue" stroke="midnightblue" points="706.83,-213.05 712.55,-204.13 702.52,-207.54 706.83,-213.05"/>
</g>
<!-- Node32&#45;&gt;Node31 -->
<g id="edge51" class="edge">
<title>Node32&#45;&gt;Node31</title>
<path fill="none" stroke="midnightblue" d="M685.15,-251.96C697.26,-249.82 710.39,-247.66 722.57,-246 887.14,-223.52 930.3,-234.65 1094.57,-210 1106.88,-208.15 1120.29,-205.56 1132.11,-203.09"/>
<polygon fill="midnightblue" stroke="midnightblue" points="1132.97,-206.48 1142.01,-200.96 1131.5,-199.64 1132.97,-206.48"/>
</g>
<!-- Node33 -->
<g id="node33" class="node">
<title>Node33</title>
<g id="a_node33"><a xlink:href="SigEnum_8h.html" target="_top" xlink:title=" ">
<polygon fill="white" stroke="black" points="573.57,-179.5 573.57,-209.5 689.57,-209.5 689.57,-179.5 573.57,-179.5"/>
<text text-anchor="start" x="581.57" y="-197.5" font-family="Helvetica,sans-Serif" font-size="10.00">boomerang/frontend</text>
<text text-anchor="middle" x="631.57" y="-186.5" font-family="Helvetica,sans-Serif" font-size="10.00">/SigEnum.h</text>
</a>
</g>
</g>
<!-- Node32&#45;&gt;Node33 -->
<g id="edge47" class="edge">
<title>Node32&#45;&gt;Node33</title>
<path fill="none" stroke="midnightblue" d="M639.35,-251.73C638.22,-243.54 636.47,-230.92 634.92,-219.71"/>
<polygon fill="midnightblue" stroke="midnightblue" points="638.35,-219.01 633.52,-209.59 631.42,-219.97 638.35,-219.01"/>
</g>
<!-- Node34&#45;&gt;Node3 -->
<g id="edge53" class="edge">
<title>Node34&#45;&gt;Node3</title>
<path fill="none" stroke="midnightblue" d="M129.77,-123.48C152.34,-114.81 187.94,-101.15 216.61,-90.14"/>
<polygon fill="midnightblue" stroke="midnightblue" points="217.95,-93.37 226.03,-86.52 215.44,-86.84 217.95,-93.37"/>
</g>
<!-- Node35&#45;&gt;Node9 -->
<g id="edge55" class="edge">
<title>Node35&#45;&gt;Node9</title>
<path fill="none" stroke="midnightblue" d="M803.67,-313.44C819.67,-305.8 841.75,-293.31 856.57,-277 873.41,-258.45 884.76,-231.5 890.95,-213.75"/>
<polygon fill="midnightblue" stroke="midnightblue" points="894.34,-214.63 894.13,-204.03 887.69,-212.45 894.34,-214.63"/>
</g>
<!-- Node36&#45;&gt;Node3 -->
<g id="edge57" class="edge">
<title>Node36&#45;&gt;Node3</title>
<path fill="none" stroke="midnightblue" d="M199.8,-313.41C208.78,-278.95 242.38,-149.98 256.38,-96.24"/>
<polygon fill="midnightblue" stroke="midnightblue" points="259.77,-97.1 258.91,-86.54 253,-95.34 259.77,-97.1"/>
</g>
<!-- Node37&#45;&gt;Node9 -->
<g id="edge63" class="edge">
<title>Node37&#45;&gt;Node9</title>
<path fill="none" stroke="midnightblue" d="M1049.52,-246.5C1016.91,-236.78 972.93,-223.25 934.57,-210 932.31,-209.22 929.99,-208.4 927.66,-207.55"/>
<polygon fill="midnightblue" stroke="midnightblue" points="928.77,-204.23 918.18,-204.02 926.33,-210.79 928.77,-204.23"/>
</g>
<!-- Node37&#45;&gt;Node12 -->
<g id="edge61" class="edge">
<title>Node37&#45;&gt;Node12</title>
<path fill="none" stroke="midnightblue" d="M1079.56,-246.4C1065.97,-235.76 1047.39,-221.2 1033.57,-210.38"/>
<polygon fill="midnightblue" stroke="midnightblue" points="1035.7,-207.6 1025.67,-204.19 1031.38,-213.12 1035.7,-207.6"/>
</g>
<!-- Node37&#45;&gt;Node14 -->
<g id="edge62" class="edge">
<title>Node37&#45;&gt;Node14</title>
<path fill="none" stroke="midnightblue" d="M1100.67,-246.24C1103.62,-229.14 1106.07,-200.14 1094.57,-179 1059.91,-115.33 977.34,-89.72 915.48,-79.42"/>
<polygon fill="midnightblue" stroke="midnightblue" points="915.78,-75.92 905.36,-77.84 914.7,-82.84 915.78,-75.92"/>
</g>
<!-- Node37&#45;&gt;Node31 -->
<g id="edge64" class="edge">
<title>Node37&#45;&gt;Node31</title>
<path fill="none" stroke="midnightblue" d="M1112.32,-246.4C1123.13,-236.06 1137.82,-222.02 1149.03,-211.31"/>
<polygon fill="midnightblue" stroke="midnightblue" points="1151.66,-213.63 1156.47,-204.19 1146.82,-208.57 1151.66,-213.63"/>
</g>
</g>
</svg>
        <g id="navigator" transform="translate(0 0)" fill="#404254">
                <rect fill="#f2f5e9" fill-opacity="0.5" stroke="#606060" stroke-width=".5" x="0" y="0" width="60" height="60"/>
                <use id="zoomplus" xlink:href="#zoomPlus" x="17" y="9" onmousedown="handleZoom(evt,'in')"/>
                <use id="zoomminus" xlink:href="#zoomMin" x="42" y="9" onmousedown="handleZoom(evt,'out')"/>
                <use id="reset" xlink:href="#resetDef" x="30" y="36" onmousedown="handleReset()"/>
                <g id="arrowUp" xlink:href="#dirArrow" transform="translate(30 24)" onmousedown="handlePan(0,-1)">
                  <use xlink:href="#rim" fill="#404040">
                        <set attributeName="fill" to="#808080" begin="arrowUp.mouseover" end="arrowUp.mouseout"/>
                  </use>
                  <path fill="none" stroke="white" stroke-width="1.5" d="M0,-3.0v7 M-2.5,-0.5L0,-3.0L2.5,-0.5"/>
                </g>
                <g id="arrowRight" xlink:href="#dirArrow" transform="rotate(90) translate(36 -43)" onmousedown="handlePan(1,0)">
                  <use xlink:href="#rim" fill="#404040">
                        <set attributeName="fill" to="#808080" begin="arrowRight.mouseover" end="arrowRight.mouseout"/>
                  </use>
                  <path fill="none" stroke="white" stroke-width="1.5" d="M0,-3.0v7 M-2.5,-0.5L0,-3.0L2.5,-0.5"/>
                </g>
                <g id="arrowDown" xlink:href="#dirArrow" transform="rotate(180) translate(-30 -48)" onmousedown="handlePan(0,1)">
                  <use xlink:href="#rim" fill="#404040">
                        <set attributeName="fill" to="#808080" begin="arrowDown.mouseover" end="arrowDown.mouseout"/>
                  </use>
                  <path fill="none" stroke="white" stroke-width="1.5" d="M0,-3.0v7 M-2.5,-0.5L0,-3.0L2.5,-0.5"/>
                </g>
                <g id="arrowLeft" xlink:href="#dirArrow" transform="rotate(270) translate(-36 17)" onmousedown="handlePan(-1,0)">
                  <use xlink:href="#rim" fill="#404040">
                        <set attributeName="fill" to="#808080" begin="arrowLeft.mouseover" end="arrowLeft.mouseout"/>
                  </use>
                  <path fill="none" stroke="white" stroke-width="1.5" d="M0,-3.0v7 M-2.5,-0.5L0,-3.0L2.5,-0.5"/>
                </g>
        </g>
        <svg viewBox="0 0 15 15" width="100%" height="30px" preserveAspectRatio="xMaxYMin meet">
         <g id="arrow_out" transform="scale(0.3 0.3)">
          <a xlink:href="PluginManager_8cpp__incl_org.svg" target="_base">
           <rect id="button" ry="5" rx="5" y="6" x="6" height="38" width="38"
                fill="#f2f5e9" fill-opacity="0.5" stroke="#606060" stroke-width="1.0"/>
           <path id="arrow"
             d="M 11.500037,31.436501 C 11.940474,20.09759 22.043105,11.32322 32.158766,21.979434 L 37.068811,17.246167 C 37.068811,17.246167 37.088388,32 37.088388,32 L 22.160133,31.978069 C 22.160133,31.978069 26.997745,27.140456 26.997745,27.140456 C 18.528582,18.264221 13.291696,25.230495 11.500037,31.436501 z"
             style="fill:#404040;"/>
          </a>
         </g>
        </svg>
</svg>
