<?xml version="1.0" encoding="UTF-8" standalone="no"?>
<!DOCTYPE svg PUBLIC "-//W3C//DTD SVG 1.1//EN"
 "http://www.w3.org/Graphics/SVG/1.1/DTD/svg11.dtd">
<!-- Generated by graphviz version 2.43.0 (0)
 -->
<!-- Title: ProcDecompiler.h Pages: 1 -->
<svg width="1318pt" height="710pt"
 viewBox="0.00 0.00 1317.50 710.00" xmlns="http://www.w3.org/2000/svg" xmlns:xlink="http://www.w3.org/1999/xlink">
<g id="graph0" class="graph" transform="scale(1 1) rotate(0) translate(4 706)">
<title>ProcDecompiler.h</title>
<polygon fill="white" stroke="transparent" points="-4,4 -4,-706 1313.5,-706 1313.5,4 -4,4"/>
<!-- Node1 -->
<g id="node1" class="node">
<title>Node1</title>
<g id="a_node1"><a xlink:title=" ">
<polygon fill="#bfbfbf" stroke="black" points="676.5,-682.5 676.5,-701.5 779.5,-701.5 779.5,-682.5 676.5,-682.5"/>
<text text-anchor="middle" x="728" y="-689.5" font-family="Helvetica,sans-Serif" font-size="10.00">ProcDecompiler.h</text>
</a>
</g>
</g>
<!-- Node2 -->
<g id="node2" class="node">
<title>Node2</title>
<g id="a_node2"><a xlink:href="BoomerangAPI_8h.html" target="_top" xlink:title=" ">
<polygon fill="white" stroke="black" points="570.5,-56.5 570.5,-86.5 725.5,-86.5 725.5,-56.5 570.5,-56.5"/>
<text text-anchor="start" x="578.5" y="-74.5" font-family="Helvetica,sans-Serif" font-size="10.00">boomerang/core/Boomerang</text>
<text text-anchor="middle" x="648" y="-63.5" font-family="Helvetica,sans-Serif" font-size="10.00">API.h</text>
</a>
</g>
</g>
<!-- Node1&#45;&gt;Node2 -->
<g id="edge1" class="edge">
<title>Node1&#45;&gt;Node2</title>
<path fill="none" stroke="midnightblue" d="M676.23,-688.26C509.91,-678.76 0,-644.04 0,-575.5 0,-575.5 0,-575.5 0,-188 0,-131.74 383.45,-93.69 560.41,-79.13"/>
<polygon fill="midnightblue" stroke="midnightblue" points="560.8,-82.61 570.48,-78.3 560.23,-75.63 560.8,-82.61"/>
</g>
<!-- Node3 -->
<g id="node3" class="node">
<title>Node3</title>
<g id="a_node3"><a xlink:href="UserProc_8h.html" target="_top" xlink:title=" ">
<polygon fill="white" stroke="black" points="644.5,-626.5 644.5,-645.5 811.5,-645.5 811.5,-626.5 644.5,-626.5"/>
<text text-anchor="middle" x="728" y="-633.5" font-family="Helvetica,sans-Serif" font-size="10.00">boomerang/db/proc/UserProc.h</text>
</a>
</g>
</g>
<!-- Node1&#45;&gt;Node3 -->
<g id="edge2" class="edge">
<title>Node1&#45;&gt;Node3</title>
<path fill="none" stroke="midnightblue" d="M728,-682.08C728,-675.01 728,-664.86 728,-655.99"/>
<polygon fill="midnightblue" stroke="midnightblue" points="731.5,-655.75 728,-645.75 724.5,-655.75 731.5,-655.75"/>
</g>
<!-- Node22 -->
<g id="node22" class="node">
<title>Node22</title>
<g id="a_node22"><a xlink:title=" ">
<polygon fill="white" stroke="#bfbfbf" points="1167.5,-308 1167.5,-327 1260.5,-327 1260.5,-308 1167.5,-308"/>
<text text-anchor="middle" x="1214" y="-315" font-family="Helvetica,sans-Serif" font-size="10.00">unordered_map</text>
</a>
</g>
</g>
<!-- Node1&#45;&gt;Node22 -->
<g id="edge65" class="edge">
<title>Node1&#45;&gt;Node22</title>
<path fill="none" stroke="midnightblue" d="M779.72,-689.42C903.58,-684.24 1207,-662.65 1207,-575.5 1207,-575.5 1207,-575.5 1207,-450.5 1207,-410.1 1210.31,-362.84 1212.38,-337.27"/>
<polygon fill="midnightblue" stroke="midnightblue" points="1215.88,-337.4 1213.22,-327.14 1208.9,-336.81 1215.88,-337.4"/>
</g>
<!-- Node4 -->
<g id="node4" class="node">
<title>Node4</title>
<g id="a_node4"><a xlink:href="DataFlow_8h.html" target="_top" xlink:title=" ">
<polygon fill="white" stroke="black" points="1019.5,-375 1019.5,-394 1164.5,-394 1164.5,-375 1019.5,-375"/>
<text text-anchor="middle" x="1092" y="-382" font-family="Helvetica,sans-Serif" font-size="10.00">boomerang/db/DataFlow.h</text>
</a>
</g>
</g>
<!-- Node3&#45;&gt;Node4 -->
<g id="edge3" class="edge">
<title>Node3&#45;&gt;Node4</title>
<path fill="none" stroke="midnightblue" d="M811.66,-627.65C873.64,-620.8 951.71,-608.77 978,-590 1044.05,-542.83 1076.42,-444.82 1087.47,-403.98"/>
<polygon fill="midnightblue" stroke="midnightblue" points="1090.86,-404.83 1089.98,-394.28 1084.09,-403.08 1090.86,-404.83"/>
</g>
<!-- Node23 -->
<g id="node23" class="node">
<title>Node23</title>
<g id="a_node23"><a xlink:href="UseCollector_8h.html" target="_top" xlink:title=" ">
<polygon fill="white" stroke="black" points="538.5,-565 538.5,-584 699.5,-584 699.5,-565 538.5,-565"/>
<text text-anchor="middle" x="619" y="-572" font-family="Helvetica,sans-Serif" font-size="10.00">boomerang/db/UseCollector.h</text>
</a>
</g>
</g>
<!-- Node3&#45;&gt;Node23 -->
<g id="edge30" class="edge">
<title>Node3&#45;&gt;Node23</title>
<path fill="none" stroke="midnightblue" d="M712.38,-626.48C694.41,-616.67 664.68,-600.43 643.59,-588.92"/>
<polygon fill="midnightblue" stroke="midnightblue" points="645.04,-585.73 634.59,-584.01 641.69,-591.87 645.04,-585.73"/>
</g>
<!-- Node24 -->
<g id="node24" class="node">
<title>Node24</title>
<g id="a_node24"><a xlink:href="Proc_8h.html" target="_top" xlink:title=" ">
<polygon fill="white" stroke="black" points="581,-241 581,-260 725,-260 725,-241 581,-241"/>
<text text-anchor="middle" x="653" y="-248" font-family="Helvetica,sans-Serif" font-size="10.00">boomerang/db/proc/Proc.h</text>
</a>
</g>
</g>
<!-- Node3&#45;&gt;Node24 -->
<g id="edge32" class="edge">
<title>Node3&#45;&gt;Node24</title>
<path fill="none" stroke="midnightblue" d="M728,-626.49C728,-606.74 728,-556.22 728,-514 728,-514 728,-514 728,-450.5 728,-379.26 685.39,-302.36 664.41,-268.8"/>
<polygon fill="midnightblue" stroke="midnightblue" points="667.22,-266.71 658.89,-260.18 661.33,-270.49 667.22,-266.71"/>
</g>
<!-- Node26 -->
<g id="node26" class="node">
<title>Node26</title>
<g id="a_node26"><a xlink:href="ProcCFG_8h.html" target="_top" xlink:title=" ">
<polygon fill="white" stroke="black" points="947,-241 947,-260 1111,-260 1111,-241 947,-241"/>
<text text-anchor="middle" x="1029" y="-248" font-family="Helvetica,sans-Serif" font-size="10.00">boomerang/db/proc/ProcCFG.h</text>
</a>
</g>
</g>
<!-- Node3&#45;&gt;Node26 -->
<g id="edge42" class="edge">
<title>Node3&#45;&gt;Node26</title>
<path fill="none" stroke="midnightblue" d="M810.54,-626.45C878.6,-614.29 964,-584.91 964,-514 964,-514 964,-514 964,-383.5 964,-337.97 995.51,-291.86 1014.65,-268.04"/>
<polygon fill="midnightblue" stroke="midnightblue" points="1017.59,-269.98 1021.29,-260.05 1012.2,-265.5 1017.59,-269.98"/>
</g>
<!-- Node29 -->
<g id="node29" class="node">
<title>Node29</title>
<g id="a_node29"><a xlink:href="StatementList_8h.html" target="_top" xlink:title=" ">
<polygon fill="white" stroke="black" points="375.5,-559.5 375.5,-589.5 520.5,-589.5 520.5,-559.5 375.5,-559.5"/>
<text text-anchor="start" x="383.5" y="-577.5" font-family="Helvetica,sans-Serif" font-size="10.00">boomerang/util/Statement</text>
<text text-anchor="middle" x="448" y="-566.5" font-family="Helvetica,sans-Serif" font-size="10.00">List.h</text>
</a>
</g>
</g>
<!-- Node3&#45;&gt;Node29 -->
<g id="edge50" class="edge">
<title>Node3&#45;&gt;Node29</title>
<path fill="none" stroke="midnightblue" d="M687.88,-626.48C645.26,-617.42 576.88,-602.89 524.01,-591.65"/>
<polygon fill="midnightblue" stroke="midnightblue" points="524.5,-588.18 513.99,-589.52 523.04,-595.03 524.5,-588.18"/>
</g>
<!-- Node5 -->
<g id="node5" class="node">
<title>Node5</title>
<g id="a_node5"><a xlink:href="LocationSet_8h.html" target="_top" xlink:title=" ">
<polygon fill="white" stroke="black" points="476,-308 476,-327 636,-327 636,-308 476,-308"/>
<text text-anchor="middle" x="556" y="-315" font-family="Helvetica,sans-Serif" font-size="10.00">boomerang/util/LocationSet.h</text>
</a>
</g>
</g>
<!-- Node4&#45;&gt;Node5 -->
<g id="edge4" class="edge">
<title>Node4&#45;&gt;Node5</title>
<path fill="none" stroke="midnightblue" d="M1021.65,-374.97C922.29,-362.92 741.3,-340.97 636.63,-328.28"/>
<polygon fill="midnightblue" stroke="midnightblue" points="636.78,-324.77 626.43,-327.04 635.94,-331.72 636.78,-324.77"/>
</g>
<!-- Node21 -->
<g id="node21" class="node">
<title>Node21</title>
<g id="a_node21"><a xlink:title=" ">
<polygon fill="white" stroke="#bfbfbf" points="1088,-179.5 1088,-198.5 1126,-198.5 1126,-179.5 1088,-179.5"/>
<text text-anchor="middle" x="1107" y="-186.5" font-family="Helvetica,sans-Serif" font-size="10.00">map</text>
</a>
</g>
</g>
<!-- Node4&#45;&gt;Node21 -->
<g id="edge28" class="edge">
<title>Node4&#45;&gt;Node21</title>
<path fill="none" stroke="midnightblue" d="M1095.65,-374.84C1104.83,-352.06 1127.57,-288.51 1120,-235 1118.73,-226.04 1116.11,-216.37 1113.55,-208.3"/>
<polygon fill="midnightblue" stroke="midnightblue" points="1116.86,-207.16 1110.34,-198.8 1110.23,-209.4 1116.86,-207.16"/>
</g>
<!-- Node4&#45;&gt;Node22 -->
<g id="edge29" class="edge">
<title>Node4&#45;&gt;Node22</title>
<path fill="none" stroke="midnightblue" d="M1108.2,-374.87C1128.8,-363.89 1164.59,-344.82 1188.78,-331.94"/>
<polygon fill="midnightblue" stroke="midnightblue" points="1190.55,-334.96 1197.73,-327.17 1187.26,-328.78 1190.55,-334.96"/>
</g>
<!-- Node6 -->
<g id="node6" class="node">
<title>Node6</title>
<g id="a_node6"><a xlink:href="Exp_8h.html" target="_top" xlink:title=" ">
<polygon fill="white" stroke="black" points="218,-241 218,-260 358,-260 358,-241 218,-241"/>
<text text-anchor="middle" x="288" y="-248" font-family="Helvetica,sans-Serif" font-size="10.00">boomerang/ssl/exp/Exp.h</text>
</a>
</g>
</g>
<!-- Node5&#45;&gt;Node6 -->
<g id="edge5" class="edge">
<title>Node5&#45;&gt;Node6</title>
<path fill="none" stroke="midnightblue" d="M520.69,-307.94C472.48,-296.24 386.05,-275.28 333.17,-262.46"/>
<polygon fill="midnightblue" stroke="midnightblue" points="333.93,-259.04 323.39,-260.08 332.28,-265.84 333.93,-259.04"/>
</g>
<!-- Node19 -->
<g id="node19" class="node">
<title>Node19</title>
<g id="a_node19"><a xlink:href="ExpSet_8h.html" target="_top" xlink:title=" ">
<polygon fill="white" stroke="black" points="425.5,-241 425.5,-260 562.5,-260 562.5,-241 425.5,-241"/>
<text text-anchor="middle" x="494" y="-248" font-family="Helvetica,sans-Serif" font-size="10.00">boomerang/util/ExpSet.h</text>
</a>
</g>
</g>
<!-- Node5&#45;&gt;Node19 -->
<g id="edge22" class="edge">
<title>Node5&#45;&gt;Node19</title>
<path fill="none" stroke="midnightblue" d="M547.64,-307.73C537.88,-297.5 521.53,-280.36 509.45,-267.69"/>
<polygon fill="midnightblue" stroke="midnightblue" points="511.66,-264.95 502.23,-260.13 506.6,-269.78 511.66,-264.95"/>
</g>
<!-- Node7 -->
<g id="node7" class="node">
<title>Node7</title>
<g id="a_node7"><a xlink:href="ExpHelp_8h.html" target="_top" xlink:title=" ">
<polygon fill="white" stroke="black" points="546,-179.5 546,-198.5 708,-198.5 708,-179.5 546,-179.5"/>
<text text-anchor="middle" x="627" y="-186.5" font-family="Helvetica,sans-Serif" font-size="10.00">boomerang/ssl/exp/ExpHelp.h</text>
</a>
</g>
</g>
<!-- Node6&#45;&gt;Node7 -->
<g id="edge6" class="edge">
<title>Node6&#45;&gt;Node7</title>
<path fill="none" stroke="midnightblue" d="M336.57,-240.98C397.74,-230.24 502.76,-211.81 568.34,-200.29"/>
<polygon fill="midnightblue" stroke="midnightblue" points="569.28,-203.69 578.52,-198.51 568.07,-196.79 569.28,-203.69"/>
</g>
<!-- Node8 -->
<g id="node8" class="node">
<title>Node8</title>
<g id="a_node8"><a xlink:title=" ">
<polygon fill="white" stroke="#bfbfbf" points="439,-123.5 439,-142.5 497,-142.5 497,-123.5 439,-123.5"/>
<text text-anchor="middle" x="468" y="-130.5" font-family="Helvetica,sans-Serif" font-size="10.00">memory</text>
</a>
</g>
</g>
<!-- Node6&#45;&gt;Node8 -->
<g id="edge19" class="edge">
<title>Node6&#45;&gt;Node8</title>
<path fill="none" stroke="midnightblue" d="M217.69,-245.83C147.69,-239.65 55.89,-223.11 95,-179 97.76,-175.88 333.76,-149.07 428.9,-138.38"/>
<polygon fill="midnightblue" stroke="midnightblue" points="429.44,-141.84 438.99,-137.24 428.66,-134.88 429.44,-141.84"/>
</g>
<!-- Node9 -->
<g id="node9" class="node">
<title>Node9</title>
<g id="a_node9"><a xlink:href="Operator_8h.html" target="_top" xlink:title=" ">
<polygon fill="white" stroke="black" points="213,-123.5 213,-142.5 377,-142.5 377,-123.5 213,-123.5"/>
<text text-anchor="middle" x="295" y="-130.5" font-family="Helvetica,sans-Serif" font-size="10.00">boomerang/ssl/exp/Operator.h</text>
</a>
</g>
</g>
<!-- Node6&#45;&gt;Node9 -->
<g id="edge9" class="edge">
<title>Node6&#45;&gt;Node9</title>
<path fill="none" stroke="midnightblue" d="M283.93,-240.79C278.23,-227.45 269.08,-201.17 274,-179 276.12,-169.43 280.51,-159.48 284.72,-151.37"/>
<polygon fill="midnightblue" stroke="midnightblue" points="287.82,-153 289.62,-142.56 281.7,-149.6 287.82,-153"/>
</g>
<!-- Node10 -->
<g id="node10" class="node">
<title>Node10</title>
<g id="a_node10"><a xlink:href="OStream_8h.html" target="_top" xlink:title=" ">
<polygon fill="white" stroke="black" points="715,-123.5 715,-142.5 861,-142.5 861,-123.5 715,-123.5"/>
<text text-anchor="middle" x="788" y="-130.5" font-family="Helvetica,sans-Serif" font-size="10.00">boomerang/util/OStream.h</text>
</a>
</g>
</g>
<!-- Node6&#45;&gt;Node10 -->
<g id="edge11" class="edge">
<title>Node6&#45;&gt;Node10</title>
<path fill="none" stroke="midnightblue" d="M288.12,-240.89C288.84,-225.69 292.72,-194.23 312,-179 342.05,-155.27 576.03,-142.37 704.39,-137.02"/>
<polygon fill="midnightblue" stroke="midnightblue" points="704.73,-140.51 714.58,-136.6 704.44,-133.51 704.73,-140.51"/>
</g>
<!-- Node14 -->
<g id="node14" class="node">
<title>Node14</title>
<g id="a_node14"><a xlink:title=" ">
<polygon fill="white" stroke="#bfbfbf" points="879.5,-123.5 879.5,-142.5 932.5,-142.5 932.5,-123.5 879.5,-123.5"/>
<text text-anchor="middle" x="906" y="-130.5" font-family="Helvetica,sans-Serif" font-size="10.00">QString</text>
</a>
</g>
</g>
<!-- Node6&#45;&gt;Node14 -->
<g id="edge16" class="edge">
<title>Node6&#45;&gt;Node14</title>
<path fill="none" stroke="midnightblue" d="M292.12,-240.61C299.92,-224.95 318.47,-192.8 345,-179 446.01,-126.46 738.51,-159.4 869.12,-142.68"/>
<polygon fill="midnightblue" stroke="midnightblue" points="869.97,-146.1 879.37,-141.21 868.98,-139.17 869.97,-146.1"/>
</g>
<!-- Node15 -->
<g id="node15" class="node">
<title>Node15</title>
<g id="a_node15"><a xlink:title=" ">
<polygon fill="white" stroke="#bfbfbf" points="104,-179.5 104,-198.5 156,-198.5 156,-179.5 104,-179.5"/>
<text text-anchor="middle" x="130" y="-186.5" font-family="Helvetica,sans-Serif" font-size="10.00">cassert</text>
</a>
</g>
</g>
<!-- Node6&#45;&gt;Node15 -->
<g id="edge17" class="edge">
<title>Node6&#45;&gt;Node15</title>
<path fill="none" stroke="midnightblue" d="M265.36,-240.98C238.26,-230.77 192.69,-213.61 162,-202.05"/>
<polygon fill="midnightblue" stroke="midnightblue" points="163.19,-198.76 152.6,-198.51 160.72,-205.31 163.19,-198.76"/>
</g>
<!-- Node16 -->
<g id="node16" class="node">
<title>Node16</title>
<g id="a_node16"><a xlink:title=" ">
<polygon fill="white" stroke="#bfbfbf" points="840,-179.5 840,-198.5 872,-198.5 872,-179.5 840,-179.5"/>
<text text-anchor="middle" x="856" y="-186.5" font-family="Helvetica,sans-Serif" font-size="10.00">list</text>
</a>
</g>
</g>
<!-- Node6&#45;&gt;Node16 -->
<g id="edge18" class="edge">
<title>Node6&#45;&gt;Node16</title>
<path fill="none" stroke="midnightblue" d="M358.07,-241.42C376.88,-239.29 397.21,-237.02 416,-235 572.57,-218.13 760.66,-199.41 829.29,-192.63"/>
<polygon fill="midnightblue" stroke="midnightblue" points="830,-196.08 839.61,-191.61 829.32,-189.11 830,-196.08"/>
</g>
<!-- Node17 -->
<g id="node17" class="node">
<title>Node17</title>
<g id="a_node17"><a xlink:title=" ">
<polygon fill="white" stroke="#bfbfbf" points="496,-179.5 496,-198.5 528,-198.5 528,-179.5 496,-179.5"/>
<text text-anchor="middle" x="512" y="-186.5" font-family="Helvetica,sans-Serif" font-size="10.00">set</text>
</a>
</g>
</g>
<!-- Node6&#45;&gt;Node17 -->
<g id="edge20" class="edge">
<title>Node6&#45;&gt;Node17</title>
<path fill="none" stroke="midnightblue" d="M320.09,-240.98C364.83,-229.09 445.06,-207.78 486.17,-196.86"/>
<polygon fill="midnightblue" stroke="midnightblue" points="487.2,-200.21 495.97,-194.26 485.4,-193.44 487.2,-200.21"/>
</g>
<!-- Node18 -->
<g id="node18" class="node">
<title>Node18</title>
<g id="a_node18"><a xlink:title=" ">
<polygon fill="white" stroke="#bfbfbf" points="174.5,-179.5 174.5,-198.5 221.5,-198.5 221.5,-179.5 174.5,-179.5"/>
<text text-anchor="middle" x="198" y="-186.5" font-family="Helvetica,sans-Serif" font-size="10.00">vector</text>
</a>
</g>
</g>
<!-- Node6&#45;&gt;Node18 -->
<g id="edge21" class="edge">
<title>Node6&#45;&gt;Node18</title>
<path fill="none" stroke="midnightblue" d="M275.11,-240.98C260.54,-231.34 236.6,-215.52 219.25,-204.05"/>
<polygon fill="midnightblue" stroke="midnightblue" points="221.14,-201.1 210.87,-198.51 217.28,-206.94 221.14,-201.1"/>
</g>
<!-- Node7&#45;&gt;Node2 -->
<g id="edge7" class="edge">
<title>Node7&#45;&gt;Node2</title>
<path fill="none" stroke="midnightblue" d="M628.58,-179.32C631.73,-161.97 638.92,-122.46 643.61,-96.66"/>
<polygon fill="midnightblue" stroke="midnightblue" points="647.1,-97.01 645.45,-86.55 640.21,-95.76 647.1,-97.01"/>
</g>
<!-- Node7&#45;&gt;Node8 -->
<g id="edge8" class="edge">
<title>Node7&#45;&gt;Node8</title>
<path fill="none" stroke="midnightblue" d="M601.81,-179.44C575.06,-170.36 532.6,-155.94 502.69,-145.78"/>
<polygon fill="midnightblue" stroke="midnightblue" points="503.67,-142.42 493.08,-142.52 501.42,-149.05 503.67,-142.42"/>
</g>
<!-- Node9&#45;&gt;Node2 -->
<g id="edge10" class="edge">
<title>Node9&#45;&gt;Node2</title>
<path fill="none" stroke="midnightblue" d="M345.58,-123.48C401.43,-114.06 492.38,-98.73 559.97,-87.34"/>
<polygon fill="midnightblue" stroke="midnightblue" points="560.91,-90.73 570.19,-85.62 559.75,-83.83 560.91,-90.73"/>
</g>
<!-- Node10&#45;&gt;Node2 -->
<g id="edge12" class="edge">
<title>Node10&#45;&gt;Node2</title>
<path fill="none" stroke="midnightblue" d="M767.94,-123.48C747.83,-114.93 716.24,-101.5 690.53,-90.57"/>
<polygon fill="midnightblue" stroke="midnightblue" points="691.57,-87.21 681,-86.52 688.83,-93.66 691.57,-87.21"/>
</g>
<!-- Node11 -->
<g id="node11" class="node">
<title>Node11</title>
<g id="a_node11"><a xlink:href="Types_8h.html" target="_top" xlink:title=" ">
<polygon fill="white" stroke="black" points="881.5,-62 881.5,-81 1012.5,-81 1012.5,-62 881.5,-62"/>
<text text-anchor="middle" x="947" y="-69" font-family="Helvetica,sans-Serif" font-size="10.00">boomerang/util/Types.h</text>
</a>
</g>
</g>
<!-- Node10&#45;&gt;Node11 -->
<g id="edge13" class="edge">
<title>Node10&#45;&gt;Node11</title>
<path fill="none" stroke="midnightblue" d="M810.78,-123.48C838.05,-113.27 883.91,-96.11 914.8,-84.55"/>
<polygon fill="midnightblue" stroke="midnightblue" points="916.12,-87.79 924.26,-81.01 913.67,-81.24 916.12,-87.79"/>
</g>
<!-- Node13 -->
<g id="node13" class="node">
<title>Node13</title>
<g id="a_node13"><a xlink:title=" ">
<polygon fill="white" stroke="#bfbfbf" points="765,-62 765,-81 811,-81 811,-62 765,-62"/>
<text text-anchor="middle" x="788" y="-69" font-family="Helvetica,sans-Serif" font-size="10.00">cstdio</text>
</a>
</g>
</g>
<!-- Node10&#45;&gt;Node13 -->
<g id="edge15" class="edge">
<title>Node10&#45;&gt;Node13</title>
<path fill="none" stroke="midnightblue" d="M788,-123.48C788,-115.08 788,-101.98 788,-91.16"/>
<polygon fill="midnightblue" stroke="midnightblue" points="791.5,-91.01 788,-81.01 784.5,-91.01 791.5,-91.01"/>
</g>
<!-- Node12 -->
<g id="node12" class="node">
<title>Node12</title>
<g id="a_node12"><a xlink:title=" ">
<polygon fill="white" stroke="#bfbfbf" points="922,-0.5 922,-19.5 972,-19.5 972,-0.5 922,-0.5"/>
<text text-anchor="middle" x="947" y="-7.5" font-family="Helvetica,sans-Serif" font-size="10.00">cstdint</text>
</a>
</g>
</g>
<!-- Node11&#45;&gt;Node12 -->
<g id="edge14" class="edge">
<title>Node11&#45;&gt;Node12</title>
<path fill="none" stroke="midnightblue" d="M947,-61.98C947,-53.58 947,-40.48 947,-29.66"/>
<polygon fill="midnightblue" stroke="midnightblue" points="950.5,-29.51 947,-19.51 943.5,-29.51 950.5,-29.51"/>
</g>
<!-- Node19&#45;&gt;Node7 -->
<g id="edge23" class="edge">
<title>Node19&#45;&gt;Node7</title>
<path fill="none" stroke="midnightblue" d="M513.06,-240.98C535.47,-230.95 572.91,-214.2 598.71,-202.65"/>
<polygon fill="midnightblue" stroke="midnightblue" points="600.28,-205.79 607.98,-198.51 597.42,-199.4 600.28,-205.79"/>
</g>
<!-- Node19&#45;&gt;Node8 -->
<g id="edge25" class="edge">
<title>Node19&#45;&gt;Node8</title>
<path fill="none" stroke="midnightblue" d="M492.05,-240.82C487.85,-222.17 477.89,-177.94 472.19,-152.63"/>
<polygon fill="midnightblue" stroke="midnightblue" points="475.59,-151.77 469.98,-142.78 468.76,-153.31 475.59,-151.77"/>
</g>
<!-- Node19&#45;&gt;Node10 -->
<g id="edge24" class="edge">
<title>Node19&#45;&gt;Node10</title>
<path fill="none" stroke="midnightblue" d="M537.11,-240.98C597.35,-228.88 701.17,-207.28 717,-199 740.02,-186.95 761.27,-165.56 774.41,-150.62"/>
<polygon fill="midnightblue" stroke="midnightblue" points="777.34,-152.57 781.16,-142.69 772.01,-148.04 777.34,-152.57"/>
</g>
<!-- Node19&#45;&gt;Node17 -->
<g id="edge26" class="edge">
<title>Node19&#45;&gt;Node17</title>
<path fill="none" stroke="midnightblue" d="M496.58,-240.98C499.15,-232.49 503.17,-219.2 506.46,-208.32"/>
<polygon fill="midnightblue" stroke="midnightblue" points="509.88,-209.09 509.43,-198.51 503.18,-207.07 509.88,-209.09"/>
</g>
<!-- Node20 -->
<g id="node20" class="node">
<title>Node20</title>
<g id="a_node20"><a xlink:title=" ">
<polygon fill="white" stroke="#bfbfbf" points="354,-179.5 354,-198.5 440,-198.5 440,-179.5 354,-179.5"/>
<text text-anchor="middle" x="397" y="-186.5" font-family="Helvetica,sans-Serif" font-size="10.00">unordered_set</text>
</a>
</g>
</g>
<!-- Node19&#45;&gt;Node20 -->
<g id="edge27" class="edge">
<title>Node19&#45;&gt;Node20</title>
<path fill="none" stroke="midnightblue" d="M480.1,-240.98C464.33,-231.3 438.36,-215.37 419.65,-203.89"/>
<polygon fill="midnightblue" stroke="midnightblue" points="421.23,-200.75 410.87,-198.51 417.57,-206.72 421.23,-200.75"/>
</g>
<!-- Node23&#45;&gt;Node5 -->
<g id="edge31" class="edge">
<title>Node23&#45;&gt;Node5</title>
<path fill="none" stroke="midnightblue" d="M619.81,-564.96C621.63,-543.09 625.01,-483.49 613,-436 603.41,-398.09 580.87,-357.93 567.18,-335.75"/>
<polygon fill="midnightblue" stroke="midnightblue" points="570.05,-333.75 561.76,-327.16 564.14,-337.48 570.05,-333.75"/>
</g>
<!-- Node24&#45;&gt;Node2 -->
<g id="edge33" class="edge">
<title>Node24&#45;&gt;Node2</title>
<path fill="none" stroke="midnightblue" d="M671.46,-240.85C686.81,-232.53 707.62,-218.36 717,-199 720.88,-191 719.52,-187.52 717,-179 707.39,-146.5 684.42,-114.61 667.61,-94.33"/>
<polygon fill="midnightblue" stroke="midnightblue" points="670.21,-91.98 661.07,-86.63 664.88,-96.52 670.21,-91.98"/>
</g>
<!-- Node24&#45;&gt;Node7 -->
<g id="edge34" class="edge">
<title>Node24&#45;&gt;Node7</title>
<path fill="none" stroke="midnightblue" d="M649.27,-240.98C645.53,-232.4 639.64,-218.93 634.86,-207.98"/>
<polygon fill="midnightblue" stroke="midnightblue" points="637.93,-206.27 630.72,-198.51 631.52,-209.07 637.93,-206.27"/>
</g>
<!-- Node24&#45;&gt;Node14 -->
<g id="edge40" class="edge">
<title>Node24&#45;&gt;Node14</title>
<path fill="none" stroke="midnightblue" d="M679.34,-240.92C706.89,-231.65 751.16,-215.93 788,-199 822,-183.38 859.58,-161.9 882.99,-147.98"/>
<polygon fill="midnightblue" stroke="midnightblue" points="885.04,-150.84 891.82,-142.7 881.44,-144.84 885.04,-150.84"/>
</g>
<!-- Node24&#45;&gt;Node17 -->
<g id="edge41" class="edge">
<title>Node24&#45;&gt;Node17</title>
<path fill="none" stroke="midnightblue" d="M632.8,-240.98C607.71,-230.39 564.87,-212.31 537.53,-200.77"/>
<polygon fill="midnightblue" stroke="midnightblue" points="538.79,-197.51 528.22,-196.84 536.07,-203.96 538.79,-197.51"/>
</g>
<!-- Node25 -->
<g id="node25" class="node">
<title>Node25</title>
<g id="a_node25"><a xlink:href="Address_8h.html" target="_top" xlink:title=" ">
<polygon fill="white" stroke="black" points="928,-179.5 928,-198.5 1070,-198.5 1070,-179.5 928,-179.5"/>
<text text-anchor="middle" x="999" y="-186.5" font-family="Helvetica,sans-Serif" font-size="10.00">boomerang/util/Address.h</text>
</a>
</g>
</g>
<!-- Node24&#45;&gt;Node25 -->
<g id="edge35" class="edge">
<title>Node24&#45;&gt;Node25</title>
<path fill="none" stroke="midnightblue" d="M702.57,-240.98C765.14,-230.22 872.64,-211.73 939.55,-200.22"/>
<polygon fill="midnightblue" stroke="midnightblue" points="940.26,-203.65 949.52,-198.51 939.07,-196.75 940.26,-203.65"/>
</g>
<!-- Node25&#45;&gt;Node2 -->
<g id="edge36" class="edge">
<title>Node25&#45;&gt;Node2</title>
<path fill="none" stroke="midnightblue" d="M994.01,-179.14C985.41,-164.77 966.36,-136.64 942,-123 924.1,-112.97 815.7,-96.01 735.7,-84.54"/>
<polygon fill="midnightblue" stroke="midnightblue" points="736,-81.05 725.6,-83.1 735.01,-87.98 736,-81.05"/>
</g>
<!-- Node25&#45;&gt;Node10 -->
<g id="edge37" class="edge">
<title>Node25&#45;&gt;Node10</title>
<path fill="none" stroke="midnightblue" d="M965.57,-179.44C929.14,-170.12 870.77,-155.18 830.97,-145"/>
<polygon fill="midnightblue" stroke="midnightblue" points="831.83,-141.61 821.28,-142.52 830.1,-148.39 831.83,-141.61"/>
</g>
<!-- Node25&#45;&gt;Node11 -->
<g id="edge38" class="edge">
<title>Node25&#45;&gt;Node11</title>
<path fill="none" stroke="midnightblue" d="M996.3,-179.42C992.22,-166.82 984.03,-142.68 975,-123 969.85,-111.77 963.17,-99.66 957.63,-90.11"/>
<polygon fill="midnightblue" stroke="midnightblue" points="960.48,-88.05 952.38,-81.23 954.46,-91.62 960.48,-88.05"/>
</g>
<!-- Node25&#45;&gt;Node14 -->
<g id="edge39" class="edge">
<title>Node25&#45;&gt;Node14</title>
<path fill="none" stroke="midnightblue" d="M984.06,-179.32C969.41,-170.82 946.87,-157.73 929.76,-147.8"/>
<polygon fill="midnightblue" stroke="midnightblue" points="931.31,-144.65 920.9,-142.65 927.8,-150.7 931.31,-144.65"/>
</g>
<!-- Node26&#45;&gt;Node7 -->
<g id="edge43" class="edge">
<title>Node26&#45;&gt;Node7</title>
<path fill="none" stroke="midnightblue" d="M976.09,-240.94C963.6,-238.95 950.34,-236.88 938,-235 855.74,-222.5 761.12,-208.92 698.05,-199.99"/>
<polygon fill="midnightblue" stroke="midnightblue" points="698.21,-196.47 687.82,-198.54 697.23,-203.4 698.21,-196.47"/>
</g>
<!-- Node26&#45;&gt;Node8 -->
<g id="edge49" class="edge">
<title>Node26&#45;&gt;Node8</title>
<path fill="none" stroke="midnightblue" d="M1009.38,-240.88C987.26,-231.07 950.3,-214.41 919,-199 901.88,-190.57 899.25,-184.58 881,-179 748.36,-138.48 581.96,-133.44 507.36,-133.44"/>
<polygon fill="midnightblue" stroke="midnightblue" points="507.02,-129.95 497.03,-133.48 507.04,-136.95 507.02,-129.95"/>
</g>
<!-- Node26&#45;&gt;Node16 -->
<g id="edge47" class="edge">
<title>Node26&#45;&gt;Node16</title>
<path fill="none" stroke="midnightblue" d="M1004.21,-240.98C971.84,-229.84 915.4,-210.43 882.3,-199.05"/>
<polygon fill="midnightblue" stroke="midnightblue" points="883.03,-195.59 872.43,-195.65 880.75,-202.21 883.03,-195.59"/>
</g>
<!-- Node26&#45;&gt;Node21 -->
<g id="edge48" class="edge">
<title>Node26&#45;&gt;Node21</title>
<path fill="none" stroke="midnightblue" d="M1040.18,-240.98C1052.57,-231.52 1072.79,-216.1 1087.75,-204.69"/>
<polygon fill="midnightblue" stroke="midnightblue" points="1090.02,-207.36 1095.85,-198.51 1085.77,-201.79 1090.02,-207.36"/>
</g>
<!-- Node26&#45;&gt;Node25 -->
<g id="edge44" class="edge">
<title>Node26&#45;&gt;Node25</title>
<path fill="none" stroke="midnightblue" d="M1024.7,-240.98C1020.34,-232.32 1013.44,-218.65 1007.9,-207.65"/>
<polygon fill="midnightblue" stroke="midnightblue" points="1010.92,-205.86 1003.29,-198.51 1004.67,-209.01 1010.92,-205.86"/>
</g>
<!-- Node27 -->
<g id="node27" class="node">
<title>Node27</title>
<g id="a_node27"><a xlink:href="MapIterators_8h.html" target="_top" xlink:title=" ">
<polygon fill="white" stroke="black" points="1144.5,-179.5 1144.5,-198.5 1309.5,-198.5 1309.5,-179.5 1144.5,-179.5"/>
<text text-anchor="middle" x="1227" y="-186.5" font-family="Helvetica,sans-Serif" font-size="10.00">boomerang/util/MapIterators.h</text>
</a>
</g>
</g>
<!-- Node26&#45;&gt;Node27 -->
<g id="edge45" class="edge">
<title>Node26&#45;&gt;Node27</title>
<path fill="none" stroke="midnightblue" d="M1057.37,-240.98C1091.92,-230.59 1150.42,-213.01 1188.88,-201.45"/>
<polygon fill="midnightblue" stroke="midnightblue" points="1190.11,-204.74 1198.68,-198.51 1188.1,-198.04 1190.11,-204.74"/>
</g>
<!-- Node28 -->
<g id="node28" class="node">
<title>Node28</title>
<g id="a_node28"><a xlink:title=" ">
<polygon fill="white" stroke="#bfbfbf" points="1200.5,-123.5 1200.5,-142.5 1253.5,-142.5 1253.5,-123.5 1200.5,-123.5"/>
<text text-anchor="middle" x="1227" y="-130.5" font-family="Helvetica,sans-Serif" font-size="10.00">iterator</text>
</a>
</g>
</g>
<!-- Node27&#45;&gt;Node28 -->
<g id="edge46" class="edge">
<title>Node27&#45;&gt;Node28</title>
<path fill="none" stroke="midnightblue" d="M1227,-179.08C1227,-172.01 1227,-161.86 1227,-152.99"/>
<polygon fill="midnightblue" stroke="midnightblue" points="1230.5,-152.75 1227,-142.75 1223.5,-152.75 1230.5,-152.75"/>
</g>
<!-- Node29&#45;&gt;Node16 -->
<g id="edge64" class="edge">
<title>Node29&#45;&gt;Node16</title>
<path fill="none" stroke="midnightblue" d="M476.65,-559.5C511.59,-541.47 571.15,-507.59 613,-467 702.91,-379.8 679.82,-318.71 773,-235 789.92,-219.8 812.88,-207.86 830.37,-200.1"/>
<polygon fill="midnightblue" stroke="midnightblue" points="832.11,-203.17 839.94,-196.03 829.37,-196.73 832.11,-203.17"/>
</g>
<!-- Node30 -->
<g id="node30" class="node">
<title>Node30</title>
<g id="a_node30"><a xlink:href="StatementSet_8h.html" target="_top" xlink:title=" ">
<polygon fill="white" stroke="black" points="351,-503.5 351,-522.5 443,-522.5 443,-503.5 351,-503.5"/>
<text text-anchor="middle" x="397" y="-510.5" font-family="Helvetica,sans-Serif" font-size="10.00">StatementSet.h</text>
</a>
</g>
</g>
<!-- Node29&#45;&gt;Node30 -->
<g id="edge51" class="edge">
<title>Node29&#45;&gt;Node30</title>
<path fill="none" stroke="midnightblue" d="M435.91,-559.4C428.43,-550.66 418.78,-539.41 410.97,-530.3"/>
<polygon fill="midnightblue" stroke="midnightblue" points="413.59,-527.97 404.42,-522.66 408.27,-532.53 413.59,-527.97"/>
</g>
<!-- Node30&#45;&gt;Node8 -->
<g id="edge62" class="edge">
<title>Node30&#45;&gt;Node8</title>
<path fill="none" stroke="midnightblue" d="M350.8,-505.65C253.84,-491.02 38,-451.09 38,-385.5 38,-385.5 38,-385.5 38,-249.5 38,-212.56 50.79,-198.76 82,-179 85.66,-176.68 331.63,-149.15 428.97,-138.33"/>
<polygon fill="midnightblue" stroke="midnightblue" points="429.44,-141.8 438.99,-137.21 428.67,-134.84 429.44,-141.8"/>
</g>
<!-- Node30&#45;&gt;Node20 -->
<g id="edge63" class="edge">
<title>Node30&#45;&gt;Node20</title>
<path fill="none" stroke="midnightblue" d="M397,-503.41C397,-482.98 397,-429.86 397,-385.5 397,-385.5 397,-385.5 397,-316.5 397,-278.2 397,-233.38 397,-208.7"/>
<polygon fill="midnightblue" stroke="midnightblue" points="400.5,-208.59 397,-198.59 393.5,-208.59 400.5,-208.59"/>
</g>
<!-- Node31 -->
<g id="node31" class="node">
<title>Node31</title>
<g id="a_node31"><a xlink:href="Terminal_8h.html" target="_top" xlink:title=" ">
<polygon fill="white" stroke="black" points="205,-442 205,-461 369,-461 369,-442 205,-442"/>
<text text-anchor="middle" x="287" y="-449" font-family="Helvetica,sans-Serif" font-size="10.00">boomerang/ssl/exp/Terminal.h</text>
</a>
</g>
</g>
<!-- Node30&#45;&gt;Node31 -->
<g id="edge52" class="edge">
<title>Node30&#45;&gt;Node31</title>
<path fill="none" stroke="midnightblue" d="M381.24,-503.48C363.02,-493.62 332.83,-477.29 311.53,-465.77"/>
<polygon fill="midnightblue" stroke="midnightblue" points="313.19,-462.69 302.73,-461.01 309.86,-468.85 313.19,-462.69"/>
</g>
<!-- Node32 -->
<g id="node32" class="node">
<title>Node32</title>
<g id="a_node32"><a xlink:href="Assign_8h.html" target="_top" xlink:title=" ">
<polygon fill="white" stroke="black" points="457.5,-436.5 457.5,-466.5 604.5,-466.5 604.5,-436.5 457.5,-436.5"/>
<text text-anchor="start" x="465.5" y="-454.5" font-family="Helvetica,sans-Serif" font-size="10.00">boomerang/ssl/statements</text>
<text text-anchor="middle" x="531" y="-443.5" font-family="Helvetica,sans-Serif" font-size="10.00">/Assign.h</text>
</a>
</g>
</g>
<!-- Node30&#45;&gt;Node32 -->
<g id="edge54" class="edge">
<title>Node30&#45;&gt;Node32</title>
<path fill="none" stroke="midnightblue" d="M416.2,-503.48C435.37,-494.96 465.42,-481.62 489.97,-470.72"/>
<polygon fill="midnightblue" stroke="midnightblue" points="491.7,-473.78 499.42,-466.52 488.86,-467.38 491.7,-473.78"/>
</g>
<!-- Node31&#45;&gt;Node6 -->
<g id="edge53" class="edge">
<title>Node31&#45;&gt;Node6</title>
<path fill="none" stroke="midnightblue" d="M287.04,-441.95C287.19,-412.16 287.69,-312.51 287.9,-270.47"/>
<polygon fill="midnightblue" stroke="midnightblue" points="291.41,-270.26 287.96,-260.24 284.41,-270.23 291.41,-270.26"/>
</g>
<!-- Node33 -->
<g id="node33" class="node">
<title>Node33</title>
<g id="a_node33"><a xlink:href="Assignment_8h.html" target="_top" xlink:title=" ">
<polygon fill="white" stroke="black" points="769.5,-369.5 769.5,-399.5 916.5,-399.5 916.5,-369.5 769.5,-369.5"/>
<text text-anchor="start" x="777.5" y="-387.5" font-family="Helvetica,sans-Serif" font-size="10.00">boomerang/ssl/statements</text>
<text text-anchor="middle" x="843" y="-376.5" font-family="Helvetica,sans-Serif" font-size="10.00">/Assignment.h</text>
</a>
</g>
</g>
<!-- Node32&#45;&gt;Node33 -->
<g id="edge55" class="edge">
<title>Node32&#45;&gt;Node33</title>
<path fill="none" stroke="midnightblue" d="M598.32,-436.48C647.44,-426.24 714.13,-412.35 765.48,-401.65"/>
<polygon fill="midnightblue" stroke="midnightblue" points="766.46,-405.02 775.54,-399.55 765.03,-398.17 766.46,-405.02"/>
</g>
<!-- Node34 -->
<g id="node34" class="node">
<title>Node34</title>
<g id="a_node34"><a xlink:href="TypingStatement_8h.html" target="_top" xlink:title=" ">
<polygon fill="white" stroke="black" points="781.5,-302.5 781.5,-332.5 928.5,-332.5 928.5,-302.5 781.5,-302.5"/>
<text text-anchor="start" x="789.5" y="-320.5" font-family="Helvetica,sans-Serif" font-size="10.00">boomerang/ssl/statements</text>
<text text-anchor="middle" x="855" y="-309.5" font-family="Helvetica,sans-Serif" font-size="10.00">/TypingStatement.h</text>
</a>
</g>
</g>
<!-- Node33&#45;&gt;Node34 -->
<g id="edge56" class="edge">
<title>Node33&#45;&gt;Node34</title>
<path fill="none" stroke="midnightblue" d="M845.6,-369.4C847.05,-361.56 848.89,-351.6 850.56,-342.57"/>
<polygon fill="midnightblue" stroke="midnightblue" points="854.03,-343.05 852.4,-332.58 847.14,-341.77 854.03,-343.05"/>
</g>
<!-- Node35 -->
<g id="node35" class="node">
<title>Node35</title>
<g id="a_node35"><a xlink:href="Statement_8h.html" target="_top" xlink:title=" ">
<polygon fill="white" stroke="black" points="781.5,-235.5 781.5,-265.5 928.5,-265.5 928.5,-235.5 781.5,-235.5"/>
<text text-anchor="start" x="789.5" y="-253.5" font-family="Helvetica,sans-Serif" font-size="10.00">boomerang/ssl/statements</text>
<text text-anchor="middle" x="855" y="-242.5" font-family="Helvetica,sans-Serif" font-size="10.00">/Statement.h</text>
</a>
</g>
</g>
<!-- Node34&#45;&gt;Node35 -->
<g id="edge57" class="edge">
<title>Node34&#45;&gt;Node35</title>
<path fill="none" stroke="midnightblue" d="M855,-302.4C855,-294.64 855,-284.81 855,-275.86"/>
<polygon fill="midnightblue" stroke="midnightblue" points="858.5,-275.58 855,-265.58 851.5,-275.58 858.5,-275.58"/>
</g>
<!-- Node35&#45;&gt;Node7 -->
<g id="edge58" class="edge">
<title>Node35&#45;&gt;Node7</title>
<path fill="none" stroke="midnightblue" d="M801.26,-235.47C761.06,-224.99 706.85,-210.84 669.62,-201.12"/>
<polygon fill="midnightblue" stroke="midnightblue" points="670.16,-197.64 659.6,-198.51 668.39,-204.42 670.16,-197.64"/>
</g>
<!-- Node35&#45;&gt;Node16 -->
<g id="edge60" class="edge">
<title>Node35&#45;&gt;Node16</title>
<path fill="none" stroke="midnightblue" d="M855.24,-235.4C855.37,-227.47 855.54,-217.46 855.68,-208.86"/>
<polygon fill="midnightblue" stroke="midnightblue" points="859.19,-208.72 855.85,-198.66 852.19,-208.6 859.19,-208.72"/>
</g>
<!-- Node35&#45;&gt;Node21 -->
<g id="edge61" class="edge">
<title>Node35&#45;&gt;Node21</title>
<path fill="none" stroke="midnightblue" d="M924.52,-235.5C966.52,-226.65 1021.28,-214.43 1077.94,-199.11"/>
<polygon fill="midnightblue" stroke="midnightblue" points="1079.06,-202.44 1087.79,-196.42 1077.22,-195.68 1079.06,-202.44"/>
</g>
<!-- Node35&#45;&gt;Node25 -->
<g id="edge59" class="edge">
<title>Node35&#45;&gt;Node25</title>
<path fill="none" stroke="midnightblue" d="M889.13,-235.4C913.29,-225.42 945.4,-212.15 968.67,-202.53"/>
<polygon fill="midnightblue" stroke="midnightblue" points="970.14,-205.71 978.05,-198.66 967.47,-199.24 970.14,-205.71"/>
</g>
</g>
</svg>
