<?xml version="1.0" encoding="UTF-8" standalone="no"?>
<!DOCTYPE svg PUBLIC "-//W3C//DTD SVG 1.1//EN"
 "http://www.w3.org/Graphics/SVG/1.1/DTD/svg11.dtd">
<!-- Generated by graphviz version 2.43.0 (0)
 -->
<!-- Title: Prog.h Pages: 1 -->
<svg width="1185pt" height="341pt"
 viewBox="0.00 0.00 1184.88 341.00" xmlns="http://www.w3.org/2000/svg" xmlns:xlink="http://www.w3.org/1999/xlink">
<g id="graph0" class="graph" transform="scale(1 1) rotate(0) translate(4 337)">
<title>Prog.h</title>
<polygon fill="white" stroke="transparent" points="-4,4 -4,-337 1180.88,-337 1180.88,4 -4,4"/>
<!-- Node1 -->
<g id="node1" class="node">
<title>Node1</title>
<g id="a_node1"><a xlink:title=" ">
<polygon fill="#bfbfbf" stroke="black" points="524.38,-313.5 524.38,-332.5 571.38,-332.5 571.38,-313.5 524.38,-313.5"/>
<text text-anchor="middle" x="547.88" y="-320.5" font-family="Helvetica,sans-Serif" font-size="10.00">Prog.h</text>
</a>
</g>
</g>
<!-- Node2 -->
<g id="node2" class="node">
<title>Node2</title>
<g id="a_node2"><a xlink:href="BoomerangAPI_8h.html" target="_top" xlink:title=" ">
<polygon fill="white" stroke="black" points="215.38,-56.5 215.38,-86.5 370.38,-86.5 370.38,-56.5 215.38,-56.5"/>
<text text-anchor="start" x="223.38" y="-74.5" font-family="Helvetica,sans-Serif" font-size="10.00">boomerang/core/Boomerang</text>
<text text-anchor="middle" x="292.88" y="-63.5" font-family="Helvetica,sans-Serif" font-size="10.00">API.h</text>
</a>
</g>
</g>
<!-- Node1&#45;&gt;Node2 -->
<g id="edge1" class="edge">
<title>Node1&#45;&gt;Node2</title>
<path fill="none" stroke="midnightblue" d="M524.14,-320.92C445.39,-317.13 193.4,-303.18 116.88,-277 63.43,-258.71 36.34,-259.36 8.88,-210 -36.7,-128.09 105.55,-94.24 204.89,-80.81"/>
<polygon fill="midnightblue" stroke="midnightblue" points="205.5,-84.26 214.96,-79.49 204.6,-77.32 205.5,-84.26"/>
</g>
<!-- Node3 -->
<g id="node3" class="node">
<title>Node3</title>
<g id="a_node3"><a xlink:href="Global_8h.html" target="_top" xlink:title=" ">
<polygon fill="white" stroke="black" points="388.38,-252 388.38,-271 519.38,-271 519.38,-252 388.38,-252"/>
<text text-anchor="middle" x="453.88" y="-259" font-family="Helvetica,sans-Serif" font-size="10.00">boomerang/db/Global.h</text>
</a>
</g>
</g>
<!-- Node1&#45;&gt;Node3 -->
<g id="edge2" class="edge">
<title>Node1&#45;&gt;Node3</title>
<path fill="none" stroke="midnightblue" d="M534.41,-313.48C519.19,-303.84 494.19,-288.02 476.08,-276.55"/>
<polygon fill="midnightblue" stroke="midnightblue" points="477.64,-273.4 467.32,-271.01 473.9,-279.31 477.64,-273.4"/>
</g>
<!-- Node7 -->
<g id="node7" class="node">
<title>Node7</title>
<g id="a_node7"><a xlink:title=" ">
<polygon fill="white" stroke="#bfbfbf" points="532.38,-123.5 532.38,-142.5 585.38,-142.5 585.38,-123.5 532.38,-123.5"/>
<text text-anchor="middle" x="558.88" y="-130.5" font-family="Helvetica,sans-Serif" font-size="10.00">QString</text>
</a>
</g>
</g>
<!-- Node1&#45;&gt;Node7 -->
<g id="edge43" class="edge">
<title>Node1&#45;&gt;Node7</title>
<path fill="none" stroke="midnightblue" d="M548.38,-313.43C550.05,-284.93 555.44,-192.82 557.78,-152.83"/>
<polygon fill="midnightblue" stroke="midnightblue" points="561.28,-152.8 558.37,-142.62 554.3,-152.4 561.28,-152.8"/>
</g>
<!-- Node9 -->
<g id="node9" class="node">
<title>Node9</title>
<g id="a_node9"><a xlink:title=" ">
<polygon fill="white" stroke="#bfbfbf" points="177.88,-123.5 177.88,-142.5 235.88,-142.5 235.88,-123.5 177.88,-123.5"/>
<text text-anchor="middle" x="206.88" y="-130.5" font-family="Helvetica,sans-Serif" font-size="10.00">memory</text>
</a>
</g>
</g>
<!-- Node1&#45;&gt;Node9 -->
<g id="edge46" class="edge">
<title>Node1&#45;&gt;Node9</title>
<path fill="none" stroke="midnightblue" d="M524.2,-320.7C449.62,-316.36 223.21,-301.29 201.88,-277 171.36,-242.26 187.87,-182.44 199.15,-152.37"/>
<polygon fill="midnightblue" stroke="midnightblue" points="202.53,-153.33 202.97,-142.75 196.03,-150.75 202.53,-153.33"/>
</g>
<!-- Node10 -->
<g id="node10" class="node">
<title>Node10</title>
<g id="a_node10"><a xlink:href="Address_8h.html" target="_top" xlink:title=" ">
<polygon fill="white" stroke="black" points="377.88,-185 377.88,-204 519.88,-204 519.88,-185 377.88,-185"/>
<text text-anchor="middle" x="448.88" y="-192" font-family="Helvetica,sans-Serif" font-size="10.00">boomerang/util/Address.h</text>
</a>
</g>
</g>
<!-- Node1&#45;&gt;Node10 -->
<g id="edge42" class="edge">
<title>Node1&#45;&gt;Node10</title>
<path fill="none" stroke="midnightblue" d="M524.28,-319.19C482.31,-313.67 397.43,-299.88 379.88,-277 361,-252.4 396.25,-225.15 422.96,-209.22"/>
<polygon fill="midnightblue" stroke="midnightblue" points="425,-212.08 431.94,-204.08 421.52,-206 425,-212.08"/>
</g>
<!-- Node14 -->
<g id="node14" class="node">
<title>Node14</title>
<g id="a_node14"><a xlink:href="BinaryFile_8h.html" target="_top" xlink:title=" ">
<polygon fill="white" stroke="black" points="210.38,-246.5 210.38,-276.5 331.38,-276.5 331.38,-246.5 210.38,-246.5"/>
<text text-anchor="start" x="218.38" y="-264.5" font-family="Helvetica,sans-Serif" font-size="10.00">boomerang/db/binary</text>
<text text-anchor="middle" x="270.88" y="-253.5" font-family="Helvetica,sans-Serif" font-size="10.00">/BinaryFile.h</text>
</a>
</g>
</g>
<!-- Node1&#45;&gt;Node14 -->
<g id="edge22" class="edge">
<title>Node1&#45;&gt;Node14</title>
<path fill="none" stroke="midnightblue" d="M524.26,-316.93C484.17,-308.32 401.3,-290.52 341.22,-277.61"/>
<polygon fill="midnightblue" stroke="midnightblue" points="341.92,-274.18 331.41,-275.5 340.45,-281.03 341.92,-274.18"/>
</g>
<!-- Node15 -->
<g id="node15" class="node">
<title>Node15</title>
<g id="a_node15"><a xlink:href="ModuleFactory_8h.html" target="_top" xlink:title=" ">
<polygon fill="white" stroke="black" points="18.38,-179.5 18.38,-209.5 145.38,-209.5 145.38,-179.5 18.38,-179.5"/>
<text text-anchor="start" x="26.38" y="-197.5" font-family="Helvetica,sans-Serif" font-size="10.00">boomerang/db/module</text>
<text text-anchor="middle" x="81.88" y="-186.5" font-family="Helvetica,sans-Serif" font-size="10.00">/ModuleFactory.h</text>
</a>
</g>
</g>
<!-- Node1&#45;&gt;Node15 -->
<g id="edge25" class="edge">
<title>Node1&#45;&gt;Node15</title>
<path fill="none" stroke="midnightblue" d="M524.19,-321.34C450.21,-318.95 224.55,-309.15 159.88,-277 132.96,-263.62 110.28,-236.98 96.43,-217.8"/>
<polygon fill="midnightblue" stroke="midnightblue" points="99.3,-215.79 90.71,-209.58 93.55,-219.79 99.3,-215.79"/>
</g>
<!-- Node16 -->
<g id="node16" class="node">
<title>Node16</title>
<g id="a_node16"><a xlink:href="SigEnum_8h.html" target="_top" xlink:title=" ">
<polygon fill="white" stroke="black" points="960.88,-246.5 960.88,-276.5 1076.88,-276.5 1076.88,-246.5 960.88,-246.5"/>
<text text-anchor="start" x="968.88" y="-264.5" font-family="Helvetica,sans-Serif" font-size="10.00">boomerang/frontend</text>
<text text-anchor="middle" x="1018.88" y="-253.5" font-family="Helvetica,sans-Serif" font-size="10.00">/SigEnum.h</text>
</a>
</g>
</g>
<!-- Node1&#45;&gt;Node16 -->
<g id="edge27" class="edge">
<title>Node1&#45;&gt;Node16</title>
<path fill="none" stroke="midnightblue" d="M571.81,-320.03C633.93,-314.75 805.35,-299.19 946.88,-277 948.15,-276.8 949.44,-276.59 950.74,-276.38"/>
<polygon fill="midnightblue" stroke="midnightblue" points="951.54,-279.79 960.8,-274.65 950.35,-272.9 951.54,-279.79"/>
</g>
<!-- Node17 -->
<g id="node17" class="node">
<title>Node17</title>
<g id="a_node17"><a xlink:href="Register_8h.html" target="_top" xlink:title=" ">
<polygon fill="white" stroke="black" points="707.38,-185 707.38,-204 848.38,-204 848.38,-185 707.38,-185"/>
<text text-anchor="middle" x="777.88" y="-192" font-family="Helvetica,sans-Serif" font-size="10.00">boomerang/ssl/Register.h</text>
</a>
</g>
</g>
<!-- Node1&#45;&gt;Node17 -->
<g id="edge28" class="edge">
<title>Node1&#45;&gt;Node17</title>
<path fill="none" stroke="midnightblue" d="M571.59,-319.45C618.46,-313.97 720.73,-299.7 746.88,-277 765.33,-260.98 772.84,-232.76 775.87,-214.1"/>
<polygon fill="midnightblue" stroke="midnightblue" points="779.34,-214.52 777.21,-204.14 772.4,-213.58 779.34,-214.52"/>
</g>
<!-- Node20 -->
<g id="node20" class="node">
<title>Node20</title>
<g id="a_node20"><a xlink:href="DataIntervalMap_8h.html" target="_top" xlink:title=" ">
<polygon fill="white" stroke="black" points="576.38,-246.5 576.38,-276.5 737.38,-276.5 737.38,-246.5 576.38,-246.5"/>
<text text-anchor="start" x="584.38" y="-264.5" font-family="Helvetica,sans-Serif" font-size="10.00">boomerang/type/DataInterval</text>
<text text-anchor="middle" x="656.88" y="-253.5" font-family="Helvetica,sans-Serif" font-size="10.00">Map.h</text>
</a>
</g>
</g>
<!-- Node1&#45;&gt;Node20 -->
<g id="edge35" class="edge">
<title>Node1&#45;&gt;Node20</title>
<path fill="none" stroke="midnightblue" d="M563.49,-313.48C578.74,-305.15 602.46,-292.21 622.17,-281.45"/>
<polygon fill="midnightblue" stroke="midnightblue" points="624.09,-284.39 631.19,-276.52 620.73,-278.24 624.09,-284.39"/>
</g>
<!-- Node23 -->
<g id="node23" class="node">
<title>Node23</title>
<g id="a_node23"><a xlink:title=" ">
<polygon fill="white" stroke="#bfbfbf" points="1133.88,-123.5 1133.88,-142.5 1171.88,-142.5 1171.88,-123.5 1133.88,-123.5"/>
<text text-anchor="middle" x="1152.88" y="-130.5" font-family="Helvetica,sans-Serif" font-size="10.00">map</text>
</a>
</g>
</g>
<!-- Node1&#45;&gt;Node23 -->
<g id="edge45" class="edge">
<title>Node1&#45;&gt;Node23</title>
<path fill="none" stroke="midnightblue" d="M571.52,-319.76C643.93,-312.24 867.99,-284.08 1036.88,-210 1073.89,-193.76 1112.24,-166.14 1134.26,-149.05"/>
<polygon fill="midnightblue" stroke="midnightblue" points="1136.7,-151.58 1142.38,-142.64 1132.37,-146.08 1136.7,-151.58"/>
</g>
<!-- Node24 -->
<g id="node24" class="node">
<title>Node24</title>
<g id="a_node24"><a xlink:title=" ">
<polygon fill="white" stroke="#bfbfbf" points="1094.88,-252 1094.88,-271 1126.88,-271 1126.88,-252 1094.88,-252"/>
<text text-anchor="middle" x="1110.88" y="-259" font-family="Helvetica,sans-Serif" font-size="10.00">list</text>
</a>
</g>
</g>
<!-- Node1&#45;&gt;Node24 -->
<g id="edge44" class="edge">
<title>Node1&#45;&gt;Node24</title>
<path fill="none" stroke="midnightblue" d="M571.58,-321.4C662.37,-318.88 987.74,-307.84 1085.88,-277 1087.12,-276.61 1088.36,-276.15 1089.59,-275.64"/>
<polygon fill="midnightblue" stroke="midnightblue" points="1091.34,-278.68 1098.67,-271.02 1088.17,-272.44 1091.34,-278.68"/>
</g>
<!-- Node25 -->
<g id="node25" class="node">
<title>Node25</title>
<g id="a_node25"><a xlink:title=" ">
<polygon fill="white" stroke="#bfbfbf" points="1144.88,-252 1144.88,-271 1176.88,-271 1176.88,-252 1144.88,-252"/>
<text text-anchor="middle" x="1160.88" y="-259" font-family="Helvetica,sans-Serif" font-size="10.00">set</text>
</a>
</g>
</g>
<!-- Node1&#45;&gt;Node25 -->
<g id="edge47" class="edge">
<title>Node1&#45;&gt;Node25</title>
<path fill="none" stroke="midnightblue" d="M571.46,-321.59C667.31,-319.73 1027.71,-310.58 1135.88,-277 1137.12,-276.62 1138.36,-276.16 1139.6,-275.65"/>
<polygon fill="midnightblue" stroke="midnightblue" points="1141.34,-278.69 1148.67,-271.04 1138.17,-272.45 1141.34,-278.69"/>
</g>
<!-- Node4 -->
<g id="node4" class="node">
<title>Node4</title>
<g id="a_node4"><a xlink:href="Type_8h.html" target="_top" xlink:title=" ">
<polygon fill="white" stroke="black" points="576.38,-179.5 576.38,-209.5 689.38,-209.5 689.38,-179.5 576.38,-179.5"/>
<text text-anchor="start" x="584.38" y="-197.5" font-family="Helvetica,sans-Serif" font-size="10.00">boomerang/ssl/type</text>
<text text-anchor="middle" x="632.88" y="-186.5" font-family="Helvetica,sans-Serif" font-size="10.00">/Type.h</text>
</a>
</g>
</g>
<!-- Node3&#45;&gt;Node4 -->
<g id="edge3" class="edge">
<title>Node3&#45;&gt;Node4</title>
<path fill="none" stroke="midnightblue" d="M477.65,-251.87C504.86,-241.99 550.13,-225.55 584.78,-212.97"/>
<polygon fill="midnightblue" stroke="midnightblue" points="586.04,-216.23 594.25,-209.53 583.65,-209.65 586.04,-216.23"/>
</g>
<!-- Node3&#45;&gt;Node10 -->
<g id="edge10" class="edge">
<title>Node3&#45;&gt;Node10</title>
<path fill="none" stroke="midnightblue" d="M453.2,-251.73C452.47,-242.18 451.27,-226.62 450.32,-214.28"/>
<polygon fill="midnightblue" stroke="midnightblue" points="453.8,-213.83 449.54,-204.13 446.82,-214.37 453.8,-213.83"/>
</g>
<!-- Node13 -->
<g id="node13" class="node">
<title>Node13</title>
<g id="a_node13"><a xlink:href="Util_8h.html" target="_top" xlink:title=" ">
<polygon fill="white" stroke="black" points="239.88,-185 239.88,-204 359.88,-204 359.88,-185 239.88,-185"/>
<text text-anchor="middle" x="299.88" y="-192" font-family="Helvetica,sans-Serif" font-size="10.00">boomerang/util/Util.h</text>
</a>
</g>
</g>
<!-- Node3&#45;&gt;Node13 -->
<g id="edge18" class="edge">
<title>Node3&#45;&gt;Node13</title>
<path fill="none" stroke="midnightblue" d="M433.43,-251.87C406.85,-240.65 360.24,-220.98 329.71,-208.09"/>
<polygon fill="midnightblue" stroke="midnightblue" points="330.99,-204.83 320.41,-204.17 328.26,-211.28 330.99,-204.83"/>
</g>
<!-- Node4&#45;&gt;Node2 -->
<g id="edge4" class="edge">
<title>Node4&#45;&gt;Node2</title>
<path fill="none" stroke="midnightblue" d="M629.32,-179.34C624.43,-163.02 613.99,-136.67 594.88,-123 594.74,-122.9 469.85,-102.04 380.74,-87.16"/>
<polygon fill="midnightblue" stroke="midnightblue" points="381.04,-83.67 370.6,-85.47 379.89,-90.57 381.04,-83.67"/>
</g>
<!-- Node5 -->
<g id="node5" class="node">
<title>Node5</title>
<g id="a_node5"><a xlink:href="Types_8h.html" target="_top" xlink:title=" ">
<polygon fill="white" stroke="black" points="543.38,-62 543.38,-81 674.38,-81 674.38,-62 543.38,-62"/>
<text text-anchor="middle" x="608.88" y="-69" font-family="Helvetica,sans-Serif" font-size="10.00">boomerang/util/Types.h</text>
</a>
</g>
</g>
<!-- Node4&#45;&gt;Node5 -->
<g id="edge5" class="edge">
<title>Node4&#45;&gt;Node5</title>
<path fill="none" stroke="midnightblue" d="M633.07,-179.28C632.98,-164.92 632.07,-142.18 627.88,-123 625.44,-111.84 621.01,-99.86 617.05,-90.37"/>
<polygon fill="midnightblue" stroke="midnightblue" points="620.25,-88.96 613.04,-81.2 613.84,-91.77 620.25,-88.96"/>
</g>
<!-- Node4&#45;&gt;Node7 -->
<g id="edge7" class="edge">
<title>Node4&#45;&gt;Node7</title>
<path fill="none" stroke="midnightblue" d="M615.34,-179.4C604.03,-170.31 589.34,-158.49 577.77,-149.19"/>
<polygon fill="midnightblue" stroke="midnightblue" points="579.63,-146.2 569.65,-142.66 575.25,-151.65 579.63,-146.2"/>
</g>
<!-- Node8 -->
<g id="node8" class="node">
<title>Node8</title>
<g id="a_node8"><a xlink:title=" ">
<polygon fill="white" stroke="#bfbfbf" points="817.88,-123.5 817.88,-142.5 869.88,-142.5 869.88,-123.5 817.88,-123.5"/>
<text text-anchor="middle" x="843.88" y="-130.5" font-family="Helvetica,sans-Serif" font-size="10.00">cassert</text>
</a>
</g>
</g>
<!-- Node4&#45;&gt;Node8 -->
<g id="edge8" class="edge">
<title>Node4&#45;&gt;Node8</title>
<path fill="none" stroke="midnightblue" d="M682.61,-179.47C721.09,-168.62 773.46,-153.86 807.94,-144.13"/>
<polygon fill="midnightblue" stroke="midnightblue" points="808.93,-147.49 817.6,-141.41 807.03,-140.76 808.93,-147.49"/>
</g>
<!-- Node4&#45;&gt;Node9 -->
<g id="edge9" class="edge">
<title>Node4&#45;&gt;Node9</title>
<path fill="none" stroke="midnightblue" d="M576.31,-185.6C488.55,-173.34 321.82,-150.05 246.08,-139.47"/>
<polygon fill="midnightblue" stroke="midnightblue" points="246.4,-135.99 236.01,-138.07 245.43,-142.92 246.4,-135.99"/>
</g>
<!-- Node6 -->
<g id="node6" class="node">
<title>Node6</title>
<g id="a_node6"><a xlink:title=" ">
<polygon fill="white" stroke="#bfbfbf" points="583.88,-0.5 583.88,-19.5 633.88,-19.5 633.88,-0.5 583.88,-0.5"/>
<text text-anchor="middle" x="608.88" y="-7.5" font-family="Helvetica,sans-Serif" font-size="10.00">cstdint</text>
</a>
</g>
</g>
<!-- Node5&#45;&gt;Node6 -->
<g id="edge6" class="edge">
<title>Node5&#45;&gt;Node6</title>
<path fill="none" stroke="midnightblue" d="M608.88,-61.98C608.88,-53.58 608.88,-40.48 608.88,-29.66"/>
<polygon fill="midnightblue" stroke="midnightblue" points="612.38,-29.51 608.88,-19.51 605.38,-29.51 612.38,-29.51"/>
</g>
<!-- Node10&#45;&gt;Node2 -->
<g id="edge11" class="edge">
<title>Node10&#45;&gt;Node2</title>
<path fill="none" stroke="midnightblue" d="M402.97,-184.95C376.03,-177.81 343.03,-165.1 320.88,-143 308.35,-130.5 301.26,-111.7 297.35,-96.65"/>
<polygon fill="midnightblue" stroke="midnightblue" points="300.67,-95.48 295.03,-86.51 293.85,-97.03 300.67,-95.48"/>
</g>
<!-- Node10&#45;&gt;Node5 -->
<g id="edge16" class="edge">
<title>Node10&#45;&gt;Node5</title>
<path fill="none" stroke="midnightblue" d="M457.1,-184.6C470.36,-170.54 497.61,-142.78 523.88,-123 542.62,-108.89 565.58,-95.45 582.91,-85.99"/>
<polygon fill="midnightblue" stroke="midnightblue" points="584.75,-88.98 591.9,-81.16 581.43,-82.81 584.75,-88.98"/>
</g>
<!-- Node10&#45;&gt;Node7 -->
<g id="edge17" class="edge">
<title>Node10&#45;&gt;Node7</title>
<path fill="none" stroke="midnightblue" d="M464.64,-184.98C482.85,-175.12 513.05,-158.79 534.35,-147.27"/>
<polygon fill="midnightblue" stroke="midnightblue" points="536.02,-150.35 543.15,-142.51 532.69,-144.19 536.02,-150.35"/>
</g>
<!-- Node11 -->
<g id="node11" class="node">
<title>Node11</title>
<g id="a_node11"><a xlink:href="OStream_8h.html" target="_top" xlink:title=" ">
<polygon fill="white" stroke="black" points="329.88,-123.5 329.88,-142.5 475.88,-142.5 475.88,-123.5 329.88,-123.5"/>
<text text-anchor="middle" x="402.88" y="-130.5" font-family="Helvetica,sans-Serif" font-size="10.00">boomerang/util/OStream.h</text>
</a>
</g>
</g>
<!-- Node10&#45;&gt;Node11 -->
<g id="edge12" class="edge">
<title>Node10&#45;&gt;Node11</title>
<path fill="none" stroke="midnightblue" d="M442.29,-184.98C435.39,-176.05 424.38,-161.81 415.74,-150.64"/>
<polygon fill="midnightblue" stroke="midnightblue" points="418.34,-148.28 409.46,-142.51 412.8,-152.56 418.34,-148.28"/>
</g>
<!-- Node11&#45;&gt;Node2 -->
<g id="edge13" class="edge">
<title>Node11&#45;&gt;Node2</title>
<path fill="none" stroke="midnightblue" d="M387.12,-123.48C371.66,-115.12 347.58,-102.09 327.63,-91.3"/>
<polygon fill="midnightblue" stroke="midnightblue" points="329.26,-88.2 318.8,-86.52 325.93,-94.36 329.26,-88.2"/>
</g>
<!-- Node11&#45;&gt;Node5 -->
<g id="edge14" class="edge">
<title>Node11&#45;&gt;Node5</title>
<path fill="none" stroke="midnightblue" d="M432.39,-123.48C468.49,-113.05 529.73,-95.36 569.73,-83.81"/>
<polygon fill="midnightblue" stroke="midnightblue" points="570.78,-87.15 579.42,-81.01 568.84,-80.42 570.78,-87.15"/>
</g>
<!-- Node12 -->
<g id="node12" class="node">
<title>Node12</title>
<g id="a_node12"><a xlink:title=" ">
<polygon fill="white" stroke="#bfbfbf" points="388.88,-62 388.88,-81 434.88,-81 434.88,-62 388.88,-62"/>
<text text-anchor="middle" x="411.88" y="-69" font-family="Helvetica,sans-Serif" font-size="10.00">cstdio</text>
</a>
</g>
</g>
<!-- Node11&#45;&gt;Node12 -->
<g id="edge15" class="edge">
<title>Node11&#45;&gt;Node12</title>
<path fill="none" stroke="midnightblue" d="M404.17,-123.48C405.44,-115.08 407.42,-101.98 409.05,-91.16"/>
<polygon fill="midnightblue" stroke="midnightblue" points="412.56,-91.42 410.59,-81.01 405.63,-90.37 412.56,-91.42"/>
</g>
<!-- Node13&#45;&gt;Node2 -->
<g id="edge19" class="edge">
<title>Node13&#45;&gt;Node2</title>
<path fill="none" stroke="midnightblue" d="M297.12,-184.67C294.15,-174.68 289.62,-157.86 287.88,-143 286.07,-127.61 287.27,-110.26 288.94,-96.62"/>
<polygon fill="midnightblue" stroke="midnightblue" points="292.42,-96.97 290.33,-86.58 285.49,-96 292.42,-96.97"/>
</g>
<!-- Node13&#45;&gt;Node7 -->
<g id="edge20" class="edge">
<title>Node13&#45;&gt;Node7</title>
<path fill="none" stroke="midnightblue" d="M336.99,-184.98C386.35,-173.64 473.08,-153.71 522.21,-142.42"/>
<polygon fill="midnightblue" stroke="midnightblue" points="523.14,-145.8 532.1,-140.15 521.57,-138.98 523.14,-145.8"/>
</g>
<!-- Node13&#45;&gt;Node9 -->
<g id="edge21" class="edge">
<title>Node13&#45;&gt;Node9</title>
<path fill="none" stroke="midnightblue" d="M286.55,-184.98C271.5,-175.34 246.76,-159.52 228.84,-148.05"/>
<polygon fill="midnightblue" stroke="midnightblue" points="230.49,-144.95 220.18,-142.51 226.71,-150.85 230.49,-144.95"/>
</g>
<!-- Node14&#45;&gt;Node9 -->
<g id="edge24" class="edge">
<title>Node14&#45;&gt;Node9</title>
<path fill="none" stroke="midnightblue" d="M257.45,-246.47C248.85,-236.85 238.01,-223.44 230.88,-210 221.17,-191.71 214.61,-168.83 210.83,-152.97"/>
<polygon fill="midnightblue" stroke="midnightblue" points="214.17,-151.84 208.57,-142.84 207.34,-153.36 214.17,-151.84"/>
</g>
<!-- Node14&#45;&gt;Node10 -->
<g id="edge23" class="edge">
<title>Node14&#45;&gt;Node10</title>
<path fill="none" stroke="midnightblue" d="M309.5,-246.4C341.29,-234.79 385.85,-218.51 415.96,-207.52"/>
<polygon fill="midnightblue" stroke="midnightblue" points="417.39,-210.72 425.58,-204.01 414.99,-204.15 417.39,-210.72"/>
</g>
<!-- Node15&#45;&gt;Node2 -->
<g id="edge26" class="edge">
<title>Node15&#45;&gt;Node2</title>
<path fill="none" stroke="midnightblue" d="M96.57,-179.3C113.1,-163.89 141.26,-139.32 168.88,-123 191.11,-109.86 217.41,-98.61 240.05,-90.09"/>
<polygon fill="midnightblue" stroke="midnightblue" points="241.33,-93.34 249.51,-86.6 238.92,-86.77 241.33,-93.34"/>
</g>
<!-- Node17&#45;&gt;Node2 -->
<g id="edge29" class="edge">
<title>Node17&#45;&gt;Node2</title>
<path fill="none" stroke="midnightblue" d="M761.95,-184.84C733.63,-169.82 672.27,-139.03 616.88,-123 517.63,-94.28 486.94,-103.17 380.82,-87.1"/>
<polygon fill="midnightblue" stroke="midnightblue" points="381.08,-83.6 370.66,-85.52 380,-90.51 381.08,-83.6"/>
</g>
<!-- Node17&#45;&gt;Node5 -->
<g id="edge30" class="edge">
<title>Node17&#45;&gt;Node5</title>
<path fill="none" stroke="midnightblue" d="M765.99,-184.99C737.46,-164.56 664.8,-112.54 629.18,-87.04"/>
<polygon fill="midnightblue" stroke="midnightblue" points="631.14,-84.14 620.97,-81.16 627.07,-89.83 631.14,-84.14"/>
</g>
<!-- Node17&#45;&gt;Node7 -->
<g id="edge31" class="edge">
<title>Node17&#45;&gt;Node7</title>
<path fill="none" stroke="midnightblue" d="M746.5,-184.98C706.51,-174.11 637.51,-155.36 595.26,-143.88"/>
<polygon fill="midnightblue" stroke="midnightblue" points="595.95,-140.45 585.39,-141.2 594.12,-147.2 595.95,-140.45"/>
</g>
<!-- Node17&#45;&gt;Node9 -->
<g id="edge32" class="edge">
<title>Node17&#45;&gt;Node9</title>
<path fill="none" stroke="midnightblue" d="M735.35,-184.97C723.57,-182.8 710.76,-180.63 698.88,-179 611.47,-167.01 346.83,-145.23 246.24,-137.14"/>
<polygon fill="midnightblue" stroke="midnightblue" points="246.45,-133.64 236.2,-136.33 245.89,-140.62 246.45,-133.64"/>
</g>
<!-- Node18 -->
<g id="node18" class="node">
<title>Node18</title>
<g id="a_node18"><a xlink:title=" ">
<polygon fill="white" stroke="#bfbfbf" points="755.88,-123.5 755.88,-142.5 799.88,-142.5 799.88,-123.5 755.88,-123.5"/>
<text text-anchor="middle" x="777.88" y="-130.5" font-family="Helvetica,sans-Serif" font-size="10.00">string</text>
</a>
</g>
</g>
<!-- Node17&#45;&gt;Node18 -->
<g id="edge33" class="edge">
<title>Node17&#45;&gt;Node18</title>
<path fill="none" stroke="midnightblue" d="M777.88,-184.98C777.88,-176.58 777.88,-163.48 777.88,-152.66"/>
<polygon fill="midnightblue" stroke="midnightblue" points="781.38,-152.51 777.88,-142.51 774.38,-152.51 781.38,-152.51"/>
</g>
<!-- Node19 -->
<g id="node19" class="node">
<title>Node19</title>
<g id="a_node19"><a xlink:title=" ">
<polygon fill="white" stroke="#bfbfbf" points="888.38,-123.5 888.38,-142.5 957.38,-142.5 957.38,-123.5 888.38,-123.5"/>
<text text-anchor="middle" x="922.88" y="-130.5" font-family="Helvetica,sans-Serif" font-size="10.00">type_traits</text>
</a>
</g>
</g>
<!-- Node17&#45;&gt;Node19 -->
<g id="edge34" class="edge">
<title>Node17&#45;&gt;Node19</title>
<path fill="none" stroke="midnightblue" d="M798.65,-184.98C823.31,-174.86 864.62,-157.9 892.78,-146.35"/>
<polygon fill="midnightblue" stroke="midnightblue" points="894.22,-149.54 902.14,-142.51 891.56,-143.07 894.22,-149.54"/>
</g>
<!-- Node20&#45;&gt;Node4 -->
<g id="edge36" class="edge">
<title>Node20&#45;&gt;Node4</title>
<path fill="none" stroke="midnightblue" d="M651.67,-246.4C648.71,-238.39 644.94,-228.16 641.55,-218.98"/>
<polygon fill="midnightblue" stroke="midnightblue" points="644.82,-217.75 638.08,-209.58 638.26,-220.17 644.82,-217.75"/>
</g>
<!-- Node20&#45;&gt;Node10 -->
<g id="edge37" class="edge">
<title>Node20&#45;&gt;Node10</title>
<path fill="none" stroke="midnightblue" d="M612,-246.48C574.39,-234.72 521.34,-218.14 486.06,-207.12"/>
<polygon fill="midnightblue" stroke="midnightblue" points="486.76,-203.67 476.17,-204.03 484.67,-210.35 486.76,-203.67"/>
</g>
<!-- Node21 -->
<g id="node21" class="node">
<title>Node21</title>
<g id="a_node21"><a xlink:href="IntervalMap_8h.html" target="_top" xlink:title=" ">
<polygon fill="white" stroke="black" points="866.38,-185 866.38,-204 1027.38,-204 1027.38,-185 866.38,-185"/>
<text text-anchor="middle" x="946.88" y="-192" font-family="Helvetica,sans-Serif" font-size="10.00">boomerang/util/IntervalMap.h</text>
</a>
</g>
</g>
<!-- Node20&#45;&gt;Node21 -->
<g id="edge38" class="edge">
<title>Node20&#45;&gt;Node21</title>
<path fill="none" stroke="midnightblue" d="M719.45,-246.48C773.23,-234.42 849.68,-217.29 898.78,-206.28"/>
<polygon fill="midnightblue" stroke="midnightblue" points="899.83,-209.63 908.83,-204.03 898.3,-202.8 899.83,-209.63"/>
</g>
<!-- Node21&#45;&gt;Node8 -->
<g id="edge40" class="edge">
<title>Node21&#45;&gt;Node8</title>
<path fill="none" stroke="midnightblue" d="M932.12,-184.98C915.22,-175.21 887.29,-159.08 867.39,-147.58"/>
<polygon fill="midnightblue" stroke="midnightblue" points="869.02,-144.48 858.61,-142.51 865.52,-150.54 869.02,-144.48"/>
</g>
<!-- Node22 -->
<g id="node22" class="node">
<title>Node22</title>
<g id="a_node22"><a xlink:href="Interval_8h.html" target="_top" xlink:title=" ">
<polygon fill="white" stroke="black" points="975.88,-123.5 975.88,-142.5 1115.88,-142.5 1115.88,-123.5 975.88,-123.5"/>
<text text-anchor="middle" x="1045.88" y="-130.5" font-family="Helvetica,sans-Serif" font-size="10.00">boomerang/util/Interval.h</text>
</a>
</g>
</g>
<!-- Node21&#45;&gt;Node22 -->
<g id="edge39" class="edge">
<title>Node21&#45;&gt;Node22</title>
<path fill="none" stroke="midnightblue" d="M961.06,-184.98C977.24,-175.25 1003.9,-159.23 1023.02,-147.74"/>
<polygon fill="midnightblue" stroke="midnightblue" points="1024.95,-150.66 1031.72,-142.51 1021.35,-144.66 1024.95,-150.66"/>
</g>
<!-- Node21&#45;&gt;Node23 -->
<g id="edge41" class="edge">
<title>Node21&#45;&gt;Node23</title>
<path fill="none" stroke="midnightblue" d="M978.16,-184.98C1011.84,-175.72 1067.21,-160.29 1123.8,-143.26"/>
<polygon fill="midnightblue" stroke="midnightblue" points="1125.07,-146.53 1133.63,-140.28 1123.04,-139.83 1125.07,-146.53"/>
</g>
</g>
</svg>
