<?xml version="1.0" encoding="UTF-8" standalone="no"?>
<!DOCTYPE svg PUBLIC "-//W3C//DTD SVG 1.1//EN"
 "http://www.w3.org/Graphics/SVG/1.1/DTD/svg11.dtd">
<!-- Generated by graphviz version 2.43.0 (0)
 -->
<!-- Title: Return.cpp Pages: 1 -->
<svg width="898pt" height="274pt"
 viewBox="0.00 0.00 898.00 274.00" xmlns="http://www.w3.org/2000/svg" xmlns:xlink="http://www.w3.org/1999/xlink">
<g id="graph0" class="graph" transform="scale(1 1) rotate(0) translate(4 270)">
<title>Return.cpp</title>
<polygon fill="white" stroke="transparent" points="-4,4 -4,-270 894,-270 894,4 -4,4"/>
<!-- Node1 -->
<g id="node1" class="node">
<title>Node1</title>
<g id="a_node1"><a xlink:title=" ">
<polygon fill="#bfbfbf" stroke="black" points="612.5,-246.5 612.5,-265.5 681.5,-265.5 681.5,-246.5 612.5,-246.5"/>
<text text-anchor="middle" x="647" y="-253.5" font-family="Helvetica,sans-Serif" font-size="10.00">Return.cpp</text>
</a>
</g>
</g>
<!-- Node2 -->
<g id="node2" class="node">
<title>Node2</title>
<g id="a_node2"><a xlink:href="Return_8h.html" target="_top" xlink:title=" ">
<polygon fill="white" stroke="black" points="560,-190.5 560,-209.5 618,-209.5 618,-190.5 560,-190.5"/>
<text text-anchor="middle" x="589" y="-197.5" font-family="Helvetica,sans-Serif" font-size="10.00">Return.h</text>
</a>
</g>
</g>
<!-- Node1&#45;&gt;Node2 -->
<g id="edge1" class="edge">
<title>Node1&#45;&gt;Node2</title>
<path fill="none" stroke="midnightblue" d="M637.68,-246.32C629.11,-238.34 616.19,-226.31 605.81,-216.65"/>
<polygon fill="midnightblue" stroke="midnightblue" points="608.19,-214.09 598.49,-209.83 603.42,-219.21 608.19,-214.09"/>
</g>
<!-- Node10 -->
<g id="node10" class="node">
<title>Node10</title>
<g id="a_node10"><a xlink:href="Exp_8h.html" target="_top" xlink:title=" ">
<polygon fill="white" stroke="black" points="639,-190.5 639,-209.5 779,-209.5 779,-190.5 639,-190.5"/>
<text text-anchor="middle" x="709" y="-197.5" font-family="Helvetica,sans-Serif" font-size="10.00">boomerang/ssl/exp/Exp.h</text>
</a>
</g>
</g>
<!-- Node1&#45;&gt;Node10 -->
<g id="edge9" class="edge">
<title>Node1&#45;&gt;Node10</title>
<path fill="none" stroke="midnightblue" d="M656.96,-246.32C666.13,-238.34 679.94,-226.31 691.03,-216.65"/>
<polygon fill="midnightblue" stroke="midnightblue" points="693.62,-219.04 698.86,-209.83 689.02,-213.76 693.62,-219.04"/>
</g>
<!-- Node3 -->
<g id="node3" class="node">
<title>Node3</title>
<g id="a_node3"><a xlink:href="Type_8h.html" target="_top" xlink:title=" ">
<polygon fill="white" stroke="black" points="526.5,-123.5 526.5,-153.5 639.5,-153.5 639.5,-123.5 526.5,-123.5"/>
<text text-anchor="start" x="534.5" y="-141.5" font-family="Helvetica,sans-Serif" font-size="10.00">boomerang/ssl/type</text>
<text text-anchor="middle" x="583" y="-130.5" font-family="Helvetica,sans-Serif" font-size="10.00">/Type.h</text>
</a>
</g>
</g>
<!-- Node2&#45;&gt;Node3 -->
<g id="edge2" class="edge">
<title>Node2&#45;&gt;Node3</title>
<path fill="none" stroke="midnightblue" d="M588.14,-190.48C587.43,-183.47 586.4,-173.19 585.44,-163.7"/>
<polygon fill="midnightblue" stroke="midnightblue" points="588.9,-163.12 584.41,-153.52 581.94,-163.82 588.9,-163.12"/>
</g>
<!-- Node4 -->
<g id="node4" class="node">
<title>Node4</title>
<g id="a_node4"><a xlink:href="BoomerangAPI_8h.html" target="_top" xlink:title=" ">
<polygon fill="white" stroke="black" points="328.5,-56.5 328.5,-86.5 483.5,-86.5 483.5,-56.5 328.5,-56.5"/>
<text text-anchor="start" x="336.5" y="-74.5" font-family="Helvetica,sans-Serif" font-size="10.00">boomerang/core/Boomerang</text>
<text text-anchor="middle" x="406" y="-63.5" font-family="Helvetica,sans-Serif" font-size="10.00">API.h</text>
</a>
</g>
</g>
<!-- Node3&#45;&gt;Node4 -->
<g id="edge3" class="edge">
<title>Node3&#45;&gt;Node4</title>
<path fill="none" stroke="midnightblue" d="M544.59,-123.4C518.04,-113.64 482.5,-100.59 454.07,-90.15"/>
<polygon fill="midnightblue" stroke="midnightblue" points="454.93,-86.74 444.33,-86.58 452.51,-93.31 454.93,-86.74"/>
</g>
<!-- Node5 -->
<g id="node5" class="node">
<title>Node5</title>
<g id="a_node5"><a xlink:href="Types_8h.html" target="_top" xlink:title=" ">
<polygon fill="white" stroke="black" points="136.5,-62 136.5,-81 267.5,-81 267.5,-62 136.5,-62"/>
<text text-anchor="middle" x="202" y="-69" font-family="Helvetica,sans-Serif" font-size="10.00">boomerang/util/Types.h</text>
</a>
</g>
</g>
<!-- Node3&#45;&gt;Node5 -->
<g id="edge4" class="edge">
<title>Node3&#45;&gt;Node5</title>
<path fill="none" stroke="midnightblue" d="M526.16,-124.8C523.07,-124.17 520,-123.57 517,-123 432.94,-107.04 335.62,-91.95 271.66,-82.5"/>
<polygon fill="midnightblue" stroke="midnightblue" points="272.09,-79.02 261.69,-81.03 271.07,-85.95 272.09,-79.02"/>
</g>
<!-- Node7 -->
<g id="node7" class="node">
<title>Node7</title>
<g id="a_node7"><a xlink:title=" ">
<polygon fill="white" stroke="#bfbfbf" points="721.5,-62 721.5,-81 774.5,-81 774.5,-62 721.5,-62"/>
<text text-anchor="middle" x="748" y="-69" font-family="Helvetica,sans-Serif" font-size="10.00">QString</text>
</a>
</g>
</g>
<!-- Node3&#45;&gt;Node7 -->
<g id="edge6" class="edge">
<title>Node3&#45;&gt;Node7</title>
<path fill="none" stroke="midnightblue" d="M618.8,-123.4C648.01,-111.89 688.86,-95.8 716.76,-84.81"/>
<polygon fill="midnightblue" stroke="midnightblue" points="718.38,-87.93 726.41,-81.01 715.82,-81.42 718.38,-87.93"/>
</g>
<!-- Node8 -->
<g id="node8" class="node">
<title>Node8</title>
<g id="a_node8"><a xlink:title=" ">
<polygon fill="white" stroke="#bfbfbf" points="838,-62 838,-81 890,-81 890,-62 838,-62"/>
<text text-anchor="middle" x="864" y="-69" font-family="Helvetica,sans-Serif" font-size="10.00">cassert</text>
</a>
</g>
</g>
<!-- Node3&#45;&gt;Node8 -->
<g id="edge7" class="edge">
<title>Node3&#45;&gt;Node8</title>
<path fill="none" stroke="midnightblue" d="M639.53,-124.42C695.67,-111.44 780.06,-91.92 827.77,-80.88"/>
<polygon fill="midnightblue" stroke="midnightblue" points="828.7,-84.26 837.66,-78.59 827.12,-77.44 828.7,-84.26"/>
</g>
<!-- Node9 -->
<g id="node9" class="node">
<title>Node9</title>
<g id="a_node9"><a xlink:title=" ">
<polygon fill="white" stroke="#bfbfbf" points="554,-62 554,-81 612,-81 612,-62 554,-62"/>
<text text-anchor="middle" x="583" y="-69" font-family="Helvetica,sans-Serif" font-size="10.00">memory</text>
</a>
</g>
</g>
<!-- Node3&#45;&gt;Node9 -->
<g id="edge8" class="edge">
<title>Node3&#45;&gt;Node9</title>
<path fill="none" stroke="midnightblue" d="M583,-123.4C583,-114.06 583,-101.71 583,-91.52"/>
<polygon fill="midnightblue" stroke="midnightblue" points="586.5,-91.19 583,-81.19 579.5,-91.19 586.5,-91.19"/>
</g>
<!-- Node6 -->
<g id="node6" class="node">
<title>Node6</title>
<g id="a_node6"><a xlink:title=" ">
<polygon fill="white" stroke="#bfbfbf" points="177,-0.5 177,-19.5 227,-19.5 227,-0.5 177,-0.5"/>
<text text-anchor="middle" x="202" y="-7.5" font-family="Helvetica,sans-Serif" font-size="10.00">cstdint</text>
</a>
</g>
</g>
<!-- Node5&#45;&gt;Node6 -->
<g id="edge5" class="edge">
<title>Node5&#45;&gt;Node6</title>
<path fill="none" stroke="midnightblue" d="M202,-61.98C202,-53.58 202,-40.48 202,-29.66"/>
<polygon fill="midnightblue" stroke="midnightblue" points="205.5,-29.51 202,-19.51 198.5,-29.51 205.5,-29.51"/>
</g>
<!-- Node10&#45;&gt;Node7 -->
<g id="edge19" class="edge">
<title>Node10&#45;&gt;Node7</title>
<path fill="none" stroke="midnightblue" d="M779.06,-194.51C806.68,-188.89 835.86,-177.32 853,-154 861.16,-142.9 860.33,-134.66 853,-123 838.12,-99.33 808.69,-86.49 784.76,-79.7"/>
<polygon fill="midnightblue" stroke="midnightblue" points="785.46,-76.26 774.9,-77.14 783.7,-83.04 785.46,-76.26"/>
</g>
<!-- Node10&#45;&gt;Node8 -->
<g id="edge20" class="edge">
<title>Node10&#45;&gt;Node8</title>
<path fill="none" stroke="midnightblue" d="M765.61,-190.44C806.37,-182.98 856.32,-170.73 869,-154 882.67,-135.95 877.34,-108.69 871.39,-90.74"/>
<polygon fill="midnightblue" stroke="midnightblue" points="874.6,-89.34 867.86,-81.17 868.03,-91.76 874.6,-89.34"/>
</g>
<!-- Node10&#45;&gt;Node9 -->
<g id="edge22" class="edge">
<title>Node10&#45;&gt;Node9</title>
<path fill="none" stroke="midnightblue" d="M703.31,-190.46C693.32,-175.77 671.52,-145.18 649,-123 635.39,-109.59 618.19,-96.54 604.77,-87.07"/>
<polygon fill="midnightblue" stroke="midnightblue" points="606.38,-83.93 596.17,-81.12 602.4,-89.68 606.38,-83.93"/>
</g>
<!-- Node11 -->
<g id="node11" class="node">
<title>Node11</title>
<g id="a_node11"><a xlink:href="ExpHelp_8h.html" target="_top" xlink:title=" ">
<polygon fill="white" stroke="black" points="346,-129 346,-148 508,-148 508,-129 346,-129"/>
<text text-anchor="middle" x="427" y="-136" font-family="Helvetica,sans-Serif" font-size="10.00">boomerang/ssl/exp/ExpHelp.h</text>
</a>
</g>
</g>
<!-- Node10&#45;&gt;Node11 -->
<g id="edge10" class="edge">
<title>Node10&#45;&gt;Node11</title>
<path fill="none" stroke="midnightblue" d="M668.6,-190.48C618.13,-179.83 531.79,-161.61 477.15,-150.08"/>
<polygon fill="midnightblue" stroke="midnightblue" points="477.84,-146.65 467.33,-148.01 476.39,-153.5 477.84,-146.65"/>
</g>
<!-- Node12 -->
<g id="node12" class="node">
<title>Node12</title>
<g id="a_node12"><a xlink:href="Operator_8h.html" target="_top" xlink:title=" ">
<polygon fill="white" stroke="black" points="164,-129 164,-148 328,-148 328,-129 164,-129"/>
<text text-anchor="middle" x="246" y="-136" font-family="Helvetica,sans-Serif" font-size="10.00">boomerang/ssl/exp/Operator.h</text>
</a>
</g>
</g>
<!-- Node10&#45;&gt;Node12 -->
<g id="edge13" class="edge">
<title>Node10&#45;&gt;Node12</title>
<path fill="none" stroke="midnightblue" d="M638.96,-191.32C564.11,-182.93 442.01,-168.71 337,-154 327.48,-152.67 317.41,-151.16 307.57,-149.63"/>
<polygon fill="midnightblue" stroke="midnightblue" points="307.87,-146.14 297.44,-148.04 306.78,-153.05 307.87,-146.14"/>
</g>
<!-- Node13 -->
<g id="node13" class="node">
<title>Node13</title>
<g id="a_node13"><a xlink:href="OStream_8h.html" target="_top" xlink:title=" ">
<polygon fill="white" stroke="black" points="0,-129 0,-148 146,-148 146,-129 0,-129"/>
<text text-anchor="middle" x="73" y="-136" font-family="Helvetica,sans-Serif" font-size="10.00">boomerang/util/OStream.h</text>
</a>
</g>
</g>
<!-- Node10&#45;&gt;Node13 -->
<g id="edge15" class="edge">
<title>Node10&#45;&gt;Node13</title>
<path fill="none" stroke="midnightblue" d="M638.79,-191.14C634.8,-190.74 630.85,-190.36 627,-190 417.52,-170.52 363.73,-180.35 155,-154 145.84,-152.84 136.14,-151.36 126.75,-149.79"/>
<polygon fill="midnightblue" stroke="midnightblue" points="127.16,-146.31 116.71,-148.05 125.97,-153.2 127.16,-146.31"/>
</g>
<!-- Node15 -->
<g id="node15" class="node">
<title>Node15</title>
<g id="a_node15"><a xlink:title=" ">
<polygon fill="white" stroke="#bfbfbf" points="696,-129 696,-148 728,-148 728,-129 696,-129"/>
<text text-anchor="middle" x="712" y="-136" font-family="Helvetica,sans-Serif" font-size="10.00">list</text>
</a>
</g>
</g>
<!-- Node10&#45;&gt;Node15 -->
<g id="edge21" class="edge">
<title>Node10&#45;&gt;Node15</title>
<path fill="none" stroke="midnightblue" d="M709.43,-190.48C709.85,-182.08 710.51,-168.98 711.06,-158.16"/>
<polygon fill="midnightblue" stroke="midnightblue" points="714.56,-158.17 711.57,-148.01 707.57,-157.82 714.56,-158.17"/>
</g>
<!-- Node16 -->
<g id="node16" class="node">
<title>Node16</title>
<g id="a_node16"><a xlink:title=" ">
<polygon fill="white" stroke="#bfbfbf" points="746,-129 746,-148 778,-148 778,-129 746,-129"/>
<text text-anchor="middle" x="762" y="-136" font-family="Helvetica,sans-Serif" font-size="10.00">set</text>
</a>
</g>
</g>
<!-- Node10&#45;&gt;Node16 -->
<g id="edge23" class="edge">
<title>Node10&#45;&gt;Node16</title>
<path fill="none" stroke="midnightblue" d="M716.59,-190.48C724.7,-181.37 737.73,-166.74 747.76,-155.48"/>
<polygon fill="midnightblue" stroke="midnightblue" points="750.38,-157.8 754.42,-148.01 745.16,-153.15 750.38,-157.8"/>
</g>
<!-- Node17 -->
<g id="node17" class="node">
<title>Node17</title>
<g id="a_node17"><a xlink:title=" ">
<polygon fill="white" stroke="#bfbfbf" points="796.5,-129 796.5,-148 843.5,-148 843.5,-129 796.5,-129"/>
<text text-anchor="middle" x="820" y="-136" font-family="Helvetica,sans-Serif" font-size="10.00">vector</text>
</a>
</g>
</g>
<!-- Node10&#45;&gt;Node17 -->
<g id="edge24" class="edge">
<title>Node10&#45;&gt;Node17</title>
<path fill="none" stroke="midnightblue" d="M724.9,-190.48C743.28,-180.62 773.76,-164.29 795.24,-152.77"/>
<polygon fill="midnightblue" stroke="midnightblue" points="796.97,-155.82 804.13,-148.01 793.66,-149.65 796.97,-155.82"/>
</g>
<!-- Node11&#45;&gt;Node4 -->
<g id="edge11" class="edge">
<title>Node11&#45;&gt;Node4</title>
<path fill="none" stroke="midnightblue" d="M424.17,-128.73C421.49,-120.46 417.36,-107.66 413.71,-96.37"/>
<polygon fill="midnightblue" stroke="midnightblue" points="416.96,-95.03 410.55,-86.59 410.3,-97.18 416.96,-95.03"/>
</g>
<!-- Node11&#45;&gt;Node9 -->
<g id="edge12" class="edge">
<title>Node11&#45;&gt;Node9</title>
<path fill="none" stroke="midnightblue" d="M447.72,-128.87C474.64,-117.65 521.86,-97.98 552.78,-85.09"/>
<polygon fill="midnightblue" stroke="midnightblue" points="554.31,-88.24 562.2,-81.17 551.62,-81.78 554.31,-88.24"/>
</g>
<!-- Node12&#45;&gt;Node4 -->
<g id="edge14" class="edge">
<title>Node12&#45;&gt;Node4</title>
<path fill="none" stroke="midnightblue" d="M267.25,-128.87C291.26,-119.12 331,-102.97 361.81,-90.45"/>
<polygon fill="midnightblue" stroke="midnightblue" points="363.52,-93.53 371.47,-86.53 360.89,-87.05 363.52,-93.53"/>
</g>
<!-- Node13&#45;&gt;Node4 -->
<g id="edge16" class="edge">
<title>Node13&#45;&gt;Node4</title>
<path fill="none" stroke="midnightblue" d="M116.88,-128.94C169.46,-118.67 258.65,-101.26 324.09,-88.49"/>
<polygon fill="midnightblue" stroke="midnightblue" points="324.83,-91.91 333.97,-86.56 323.49,-85.04 324.83,-91.91"/>
</g>
<!-- Node13&#45;&gt;Node5 -->
<g id="edge17" class="edge">
<title>Node13&#45;&gt;Node5</title>
<path fill="none" stroke="midnightblue" d="M90.13,-128.87C112.01,-117.84 150.09,-98.66 175.67,-85.77"/>
<polygon fill="midnightblue" stroke="midnightblue" points="177.44,-88.79 184.8,-81.17 174.29,-82.54 177.44,-88.79"/>
</g>
<!-- Node14 -->
<g id="node14" class="node">
<title>Node14</title>
<g id="a_node14"><a xlink:title=" ">
<polygon fill="white" stroke="#bfbfbf" points="50,-62 50,-81 96,-81 96,-62 50,-62"/>
<text text-anchor="middle" x="73" y="-69" font-family="Helvetica,sans-Serif" font-size="10.00">cstdio</text>
</a>
</g>
</g>
<!-- Node13&#45;&gt;Node14 -->
<g id="edge18" class="edge">
<title>Node13&#45;&gt;Node14</title>
<path fill="none" stroke="midnightblue" d="M73,-128.73C73,-119.18 73,-103.62 73,-91.28"/>
<polygon fill="midnightblue" stroke="midnightblue" points="76.5,-91.13 73,-81.13 69.5,-91.13 76.5,-91.13"/>
</g>
</g>
</svg>
