<?xml version="1.0" encoding="UTF-8" standalone="no"?>
<!DOCTYPE svg PUBLIC "-//W3C//DTD SVG 1.1//EN"
 "http://www.w3.org/Graphics/SVG/1.1/DTD/svg11.dtd">
<!-- Generated by graphviz version 2.43.0 (0)
 -->
<!-- Title: Return.h Pages: 1 -->
<svg width="4548pt" height="196pt"
 viewBox="0.00 0.00 4547.50 196.00" xmlns="http://www.w3.org/2000/svg" xmlns:xlink="http://www.w3.org/1999/xlink">
<g id="graph0" class="graph" transform="scale(1 1) rotate(0) translate(4 192)">
<title>Return.h</title>
<polygon fill="white" stroke="transparent" points="-4,4 -4,-192 4543.5,-192 4543.5,4 -4,4"/>
<!-- Node1 -->
<g id="node1" class="node">
<title>Node1</title>
<g id="a_node1"><a xlink:title=" ">
<polygon fill="#bfbfbf" stroke="black" points="2220.5,-168.5 2220.5,-187.5 2278.5,-187.5 2278.5,-168.5 2220.5,-168.5"/>
<text text-anchor="middle" x="2249.5" y="-175.5" font-family="Helvetica,sans-Serif" font-size="10.00">Return.h</text>
</a>
</g>
</g>
<!-- Node2 -->
<g id="node2" class="node">
<title>Node2</title>
<g id="a_node2"><a xlink:href="Signature_8h.html" target="_top" xlink:title=" ">
<polygon fill="white" stroke="black" points="2169.5,-112.5 2169.5,-131.5 2241.5,-131.5 2241.5,-112.5 2169.5,-112.5"/>
<text text-anchor="middle" x="2205.5" y="-119.5" font-family="Helvetica,sans-Serif" font-size="10.00">Signature.h</text>
</a>
</g>
</g>
<!-- Node1&#45;&gt;Node2 -->
<g id="edge1" class="edge">
<title>Node1&#45;&gt;Node2</title>
<path fill="none" stroke="midnightblue" d="M2235.77,-160.14C2228.1,-150.74 2218.87,-139.4 2212.63,-131.75"/>
<polygon fill="midnightblue" stroke="midnightblue" points="2233.2,-162.54 2242.23,-168.08 2238.63,-158.12 2233.2,-162.54"/>
</g>
<!-- Node47 -->
<g id="node47" class="node">
<title>Node47</title>
<g id="a_node47"><a xlink:href="Return_8cpp.html" target="_top" xlink:title=" ">
<polygon fill="white" stroke="black" points="2260,-112.5 2260,-131.5 2329,-131.5 2329,-112.5 2260,-112.5"/>
<text text-anchor="middle" x="2294.5" y="-119.5" font-family="Helvetica,sans-Serif" font-size="10.00">Return.cpp</text>
</a>
</g>
</g>
<!-- Node1&#45;&gt;Node47 -->
<g id="edge51" class="edge">
<title>Node1&#45;&gt;Node47</title>
<path fill="none" stroke="midnightblue" d="M2263.55,-160.14C2271.39,-150.74 2280.83,-139.4 2287.21,-131.75"/>
<polygon fill="midnightblue" stroke="midnightblue" points="2260.64,-158.16 2256.93,-168.08 2266.02,-162.64 2260.64,-158.16"/>
</g>
<!-- Node3 -->
<g id="node3" class="node">
<title>Node3</title>
<g id="a_node3"><a xlink:href="DebugInfo_8cpp.html" target="_top" xlink:title=" ">
<polygon fill="white" stroke="black" points="0,-56.5 0,-75.5 87,-75.5 87,-56.5 0,-56.5"/>
<text text-anchor="middle" x="43.5" y="-63.5" font-family="Helvetica,sans-Serif" font-size="10.00">DebugInfo.cpp</text>
</a>
</g>
</g>
<!-- Node2&#45;&gt;Node3 -->
<g id="edge2" class="edge">
<title>Node2&#45;&gt;Node3</title>
<path fill="none" stroke="midnightblue" d="M2159.1,-120.96C1888.89,-120.57 515.68,-116.61 95.5,-76 92.76,-75.74 89.96,-75.41 87.13,-75.04"/>
<polygon fill="midnightblue" stroke="midnightblue" points="2159.33,-124.46 2169.33,-120.97 2159.34,-117.46 2159.33,-124.46"/>
</g>
<!-- Node4 -->
<g id="node4" class="node">
<title>Node4</title>
<g id="a_node4"><a xlink:href="Module_8cpp.html" target="_top" xlink:title=" ">
<polygon fill="white" stroke="black" points="105,-56.5 105,-75.5 178,-75.5 178,-56.5 105,-56.5"/>
<text text-anchor="middle" x="141.5" y="-63.5" font-family="Helvetica,sans-Serif" font-size="10.00">Module.cpp</text>
</a>
</g>
</g>
<!-- Node2&#45;&gt;Node4 -->
<g id="edge3" class="edge">
<title>Node2&#45;&gt;Node4</title>
<path fill="none" stroke="midnightblue" d="M2159.04,-121.04C1895.68,-121.12 587.84,-119.31 187.5,-76 184.43,-75.67 181.25,-75.24 178.07,-74.74"/>
<polygon fill="midnightblue" stroke="midnightblue" points="2159.39,-124.54 2169.39,-121.04 2159.39,-117.54 2159.39,-124.54"/>
</g>
<!-- Node5 -->
<g id="node5" class="node">
<title>Node5</title>
<g id="a_node5"><a xlink:href="LibProc_8cpp.html" target="_top" xlink:title=" ">
<polygon fill="white" stroke="black" points="196.5,-56.5 196.5,-75.5 268.5,-75.5 268.5,-56.5 196.5,-56.5"/>
<text text-anchor="middle" x="232.5" y="-63.5" font-family="Helvetica,sans-Serif" font-size="10.00">LibProc.cpp</text>
</a>
</g>
</g>
<!-- Node2&#45;&gt;Node5 -->
<g id="edge4" class="edge">
<title>Node2&#45;&gt;Node5</title>
<path fill="none" stroke="midnightblue" d="M2159.07,-121.01C1902.78,-120.92 658.86,-118.26 277.5,-76 274.65,-75.68 271.71,-75.28 268.76,-74.82"/>
<polygon fill="midnightblue" stroke="midnightblue" points="2159.15,-124.51 2169.15,-121.02 2159.15,-117.51 2159.15,-124.51"/>
</g>
<!-- Node6 -->
<g id="node6" class="node">
<title>Node6</title>
<g id="a_node6"><a xlink:href="Proc_8cpp.html" target="_top" xlink:title=" ">
<polygon fill="white" stroke="black" points="286.5,-56.5 286.5,-75.5 344.5,-75.5 344.5,-56.5 286.5,-56.5"/>
<text text-anchor="middle" x="315.5" y="-63.5" font-family="Helvetica,sans-Serif" font-size="10.00">Proc.cpp</text>
</a>
</g>
</g>
<!-- Node2&#45;&gt;Node6 -->
<g id="edge5" class="edge">
<title>Node2&#45;&gt;Node6</title>
<path fill="none" stroke="midnightblue" d="M2159.3,-121.18C1909.51,-121.96 718.27,-123.1 353.5,-76 350.68,-75.64 347.76,-75.15 344.85,-74.59"/>
<polygon fill="midnightblue" stroke="midnightblue" points="2159.49,-124.68 2169.48,-121.15 2159.46,-117.68 2159.49,-124.68"/>
</g>
<!-- Node7 -->
<g id="node7" class="node">
<title>Node7</title>
<g id="a_node7"><a xlink:href="UserProc_8cpp.html" target="_top" xlink:title=" ">
<polygon fill="white" stroke="black" points="362.5,-56.5 362.5,-75.5 442.5,-75.5 442.5,-56.5 362.5,-56.5"/>
<text text-anchor="middle" x="402.5" y="-63.5" font-family="Helvetica,sans-Serif" font-size="10.00">UserProc.cpp</text>
</a>
</g>
</g>
<!-- Node2&#45;&gt;Node7 -->
<g id="edge6" class="edge">
<title>Node2&#45;&gt;Node7</title>
<path fill="none" stroke="midnightblue" d="M2159.1,-120.79C1917,-119.54 796.69,-111.91 451.5,-76 448.58,-75.7 445.56,-75.31 442.54,-74.88"/>
<polygon fill="midnightblue" stroke="midnightblue" points="2159.29,-124.29 2169.31,-120.84 2159.33,-117.29 2159.29,-124.29"/>
</g>
<!-- Node8 -->
<g id="node8" class="node">
<title>Node8</title>
<g id="a_node8"><a xlink:href="Prog_8cpp.html" target="_top" xlink:title=" ">
<polygon fill="white" stroke="black" points="461,-56.5 461,-75.5 520,-75.5 520,-56.5 461,-56.5"/>
<text text-anchor="middle" x="490.5" y="-63.5" font-family="Helvetica,sans-Serif" font-size="10.00">Prog.cpp</text>
</a>
</g>
</g>
<!-- Node2&#45;&gt;Node8 -->
<g id="edge7" class="edge">
<title>Node2&#45;&gt;Node8</title>
<path fill="none" stroke="midnightblue" d="M2158.89,-121.01C1922.8,-120.85 857.41,-117.81 529.5,-76 526.47,-75.61 523.32,-75.09 520.2,-74.5"/>
<polygon fill="midnightblue" stroke="midnightblue" points="2159.18,-124.51 2169.18,-121.01 2159.18,-117.51 2159.18,-124.51"/>
</g>
<!-- Node9 -->
<g id="node9" class="node">
<title>Node9</title>
<g id="a_node9"><a xlink:href="CustomSignature_8h.html" target="_top" xlink:title=" ">
<polygon fill="white" stroke="black" points="538.5,-56.5 538.5,-75.5 648.5,-75.5 648.5,-56.5 538.5,-56.5"/>
<text text-anchor="middle" x="593.5" y="-63.5" font-family="Helvetica,sans-Serif" font-size="10.00">CustomSignature.h</text>
</a>
</g>
</g>
<!-- Node2&#45;&gt;Node9 -->
<g id="edge8" class="edge">
<title>Node2&#45;&gt;Node9</title>
<path fill="none" stroke="midnightblue" d="M2159.29,-120.35C1935.22,-117.08 960.28,-101.61 657.5,-76 654.59,-75.75 651.62,-75.47 648.61,-75.14"/>
<polygon fill="midnightblue" stroke="midnightblue" points="2159.34,-123.85 2169.39,-120.49 2159.44,-116.85 2159.34,-123.85"/>
</g>
<!-- Node12 -->
<g id="node12" class="node">
<title>Node12</title>
<g id="a_node12"><a xlink:href="PentiumSignature_8h.html" target="_top" xlink:title=" ">
<polygon fill="white" stroke="black" points="667,-56.5 667,-75.5 780,-75.5 780,-56.5 667,-56.5"/>
<text text-anchor="middle" x="723.5" y="-63.5" font-family="Helvetica,sans-Serif" font-size="10.00">PentiumSignature.h</text>
</a>
</g>
</g>
<!-- Node2&#45;&gt;Node12 -->
<g id="edge11" class="edge">
<title>Node2&#45;&gt;Node12</title>
<path fill="none" stroke="midnightblue" d="M2159.24,-121.31C1981.56,-122.11 1325.93,-121.61 788.5,-76 785.78,-75.77 782.99,-75.5 780.18,-75.21"/>
<polygon fill="midnightblue" stroke="midnightblue" points="2159.31,-124.81 2169.29,-121.26 2159.27,-117.81 2159.31,-124.81"/>
</g>
<!-- Node14 -->
<g id="node14" class="node">
<title>Node14</title>
<g id="a_node14"><a xlink:href="Signature_8cpp.html" target="_top" xlink:title=" ">
<polygon fill="white" stroke="black" points="913,-0.5 913,-19.5 996,-19.5 996,-0.5 913,-0.5"/>
<text text-anchor="middle" x="954.5" y="-7.5" font-family="Helvetica,sans-Serif" font-size="10.00">Signature.cpp</text>
</a>
</g>
</g>
<!-- Node2&#45;&gt;Node14 -->
<g id="edge17" class="edge">
<title>Node2&#45;&gt;Node14</title>
<path fill="none" stroke="midnightblue" d="M2159.2,-121.14C1935.96,-121.57 979.76,-120.82 936.5,-76 921.54,-60.5 937.38,-33.7 947.48,-19.85"/>
<polygon fill="midnightblue" stroke="midnightblue" points="2159.27,-124.64 2169.26,-121.12 2159.26,-117.64 2159.27,-124.64"/>
</g>
<!-- Node15 -->
<g id="node15" class="node">
<title>Node15</title>
<g id="a_node15"><a xlink:href="PPCSignature_8h.html" target="_top" xlink:title=" ">
<polygon fill="white" stroke="black" points="798,-56.5 798,-75.5 889,-75.5 889,-56.5 798,-56.5"/>
<text text-anchor="middle" x="843.5" y="-63.5" font-family="Helvetica,sans-Serif" font-size="10.00">PPCSignature.h</text>
</a>
</g>
</g>
<!-- Node2&#45;&gt;Node15 -->
<g id="edge14" class="edge">
<title>Node2&#45;&gt;Node15</title>
<path fill="none" stroke="midnightblue" d="M2159.41,-121.31C1991.06,-122.04 1393.52,-121.07 903.5,-76 898.88,-75.58 894.08,-75.03 889.3,-74.42"/>
<polygon fill="midnightblue" stroke="midnightblue" points="2159.44,-124.81 2169.42,-121.26 2159.4,-117.81 2159.44,-124.81"/>
</g>
<!-- Node17 -->
<g id="node17" class="node">
<title>Node17</title>
<g id="a_node17"><a xlink:href="SPARCSignature_8h.html" target="_top" xlink:title=" ">
<polygon fill="white" stroke="black" points="945.5,-56.5 945.5,-75.5 1049.5,-75.5 1049.5,-56.5 945.5,-56.5"/>
<text text-anchor="middle" x="997.5" y="-63.5" font-family="Helvetica,sans-Serif" font-size="10.00">SPARCSignature.h</text>
</a>
</g>
</g>
<!-- Node2&#45;&gt;Node17 -->
<g id="edge18" class="edge">
<title>Node2&#45;&gt;Node17</title>
<path fill="none" stroke="midnightblue" d="M2159.09,-120.96C2003.28,-120.46 1484.75,-115.69 1058.5,-76 1055.62,-75.73 1052.67,-75.42 1049.7,-75.08"/>
<polygon fill="midnightblue" stroke="midnightblue" points="2159.24,-124.46 2169.25,-120.99 2159.26,-117.46 2159.24,-124.46"/>
</g>
<!-- Node19 -->
<g id="node19" class="node">
<title>Node19</title>
<g id="a_node19"><a xlink:href="ST20Signature_8h.html" target="_top" xlink:title=" ">
<polygon fill="white" stroke="black" points="1067.5,-56.5 1067.5,-75.5 1163.5,-75.5 1163.5,-56.5 1067.5,-56.5"/>
<text text-anchor="middle" x="1115.5" y="-63.5" font-family="Helvetica,sans-Serif" font-size="10.00">ST20Signature.h</text>
</a>
</g>
</g>
<!-- Node2&#45;&gt;Node19 -->
<g id="edge21" class="edge">
<title>Node2&#45;&gt;Node19</title>
<path fill="none" stroke="midnightblue" d="M2158.95,-120.8C2013.17,-119.77 1552.62,-113.56 1173.5,-76 1170.26,-75.68 1166.92,-75.3 1163.55,-74.87"/>
<polygon fill="midnightblue" stroke="midnightblue" points="2159.27,-124.3 2169.29,-120.87 2159.32,-117.3 2159.27,-124.3"/>
</g>
<!-- Node21 -->
<g id="node21" class="node">
<title>Node21</title>
<g id="a_node21"><a xlink:href="Win32Signature_8h.html" target="_top" xlink:title=" ">
<polygon fill="white" stroke="black" points="1182,-56.5 1182,-75.5 1285,-75.5 1285,-56.5 1182,-56.5"/>
<text text-anchor="middle" x="1233.5" y="-63.5" font-family="Helvetica,sans-Serif" font-size="10.00">Win32Signature.h</text>
</a>
</g>
</g>
<!-- Node2&#45;&gt;Node21 -->
<g id="edge24" class="edge">
<title>Node2&#45;&gt;Node21</title>
<path fill="none" stroke="midnightblue" d="M2159.07,-120.3C2024.83,-117.93 1624.78,-108.44 1294.5,-76 1291.41,-75.7 1288.24,-75.35 1285.04,-74.96"/>
<polygon fill="midnightblue" stroke="midnightblue" points="2159.33,-123.8 2169.39,-120.48 2159.45,-116.8 2159.33,-123.8"/>
</g>
<!-- Node23 -->
<g id="node23" class="node">
<title>Node23</title>
<g id="a_node23"><a xlink:href="UnusedReturnRemover_8cpp.html" target="_top" xlink:title=" ">
<polygon fill="white" stroke="black" points="1303.5,-56.5 1303.5,-75.5 1453.5,-75.5 1453.5,-56.5 1303.5,-56.5"/>
<text text-anchor="middle" x="1378.5" y="-63.5" font-family="Helvetica,sans-Serif" font-size="10.00">UnusedReturnRemover.cpp</text>
</a>
</g>
</g>
<!-- Node2&#45;&gt;Node23 -->
<g id="edge27" class="edge">
<title>Node2&#45;&gt;Node23</title>
<path fill="none" stroke="midnightblue" d="M2159.08,-118.94C2042.07,-113.57 1725.64,-98.05 1462.5,-76 1459.58,-75.76 1456.6,-75.49 1453.59,-75.22"/>
<polygon fill="midnightblue" stroke="midnightblue" points="2158.97,-122.43 2169.12,-119.39 2159.29,-115.44 2158.97,-122.43"/>
</g>
<!-- Node24 -->
<g id="node24" class="node">
<title>Node24</title>
<g id="a_node24"><a xlink:href="DefaultFrontEnd_8cpp.html" target="_top" xlink:title=" ">
<polygon fill="white" stroke="black" points="1471.5,-56.5 1471.5,-75.5 1587.5,-75.5 1587.5,-56.5 1471.5,-56.5"/>
<text text-anchor="middle" x="1529.5" y="-63.5" font-family="Helvetica,sans-Serif" font-size="10.00">DefaultFrontEnd.cpp</text>
</a>
</g>
</g>
<!-- Node2&#45;&gt;Node24 -->
<g id="edge28" class="edge">
<title>Node2&#45;&gt;Node24</title>
<path fill="none" stroke="midnightblue" d="M2159.15,-118.52C2057.23,-112.87 1806.04,-97.8 1596.5,-76 1593.58,-75.7 1590.59,-75.37 1587.58,-75.02"/>
<polygon fill="midnightblue" stroke="midnightblue" points="2159.22,-122.03 2169.4,-119.09 2159.6,-115.04 2159.22,-122.03"/>
</g>
<!-- Node25 -->
<g id="node25" class="node">
<title>Node25</title>
<g id="a_node25"><a xlink:href="CallDefineUpdatePass_8cpp.html" target="_top" xlink:title=" ">
<polygon fill="white" stroke="black" points="1605.5,-56.5 1605.5,-75.5 1751.5,-75.5 1751.5,-56.5 1605.5,-56.5"/>
<text text-anchor="middle" x="1678.5" y="-63.5" font-family="Helvetica,sans-Serif" font-size="10.00">CallDefineUpdatePass.cpp</text>
</a>
</g>
</g>
<!-- Node2&#45;&gt;Node25 -->
<g id="edge29" class="edge">
<title>Node2&#45;&gt;Node25</title>
<path fill="none" stroke="midnightblue" d="M2159.1,-116.44C2078.16,-108.45 1905.91,-91.33 1760.5,-76 1757.65,-75.7 1754.75,-75.39 1751.81,-75.08"/>
<polygon fill="midnightblue" stroke="midnightblue" points="2159.14,-119.96 2169.44,-117.46 2159.83,-112.99 2159.14,-119.96"/>
</g>
<!-- Node26 -->
<g id="node26" class="node">
<title>Node26</title>
<g id="a_node26"><a xlink:href="FinalParameterSearchPass_8cpp.html" target="_top" xlink:title=" ">
<polygon fill="white" stroke="black" points="1769.5,-56.5 1769.5,-75.5 1935.5,-75.5 1935.5,-56.5 1769.5,-56.5"/>
<text text-anchor="middle" x="1852.5" y="-63.5" font-family="Helvetica,sans-Serif" font-size="10.00">FinalParameterSearchPass.cpp</text>
</a>
</g>
</g>
<!-- Node2&#45;&gt;Node26 -->
<g id="edge30" class="edge">
<title>Node2&#45;&gt;Node26</title>
<path fill="none" stroke="midnightblue" d="M2159.49,-113.96C2094.93,-104.08 1977.59,-86.14 1908.19,-75.52"/>
<polygon fill="midnightblue" stroke="midnightblue" points="2158.97,-117.42 2169.38,-115.47 2160.03,-110.5 2158.97,-117.42"/>
</g>
<!-- Node27 -->
<g id="node27" class="node">
<title>Node27</title>
<g id="a_node27"><a xlink:href="UnusedParamRemovalPass_8cpp.html" target="_top" xlink:title=" ">
<polygon fill="white" stroke="black" points="1954,-56.5 1954,-75.5 2125,-75.5 2125,-56.5 1954,-56.5"/>
<text text-anchor="middle" x="2039.5" y="-63.5" font-family="Helvetica,sans-Serif" font-size="10.00">UnusedParamRemovalPass.cpp</text>
</a>
</g>
</g>
<!-- Node2&#45;&gt;Node27 -->
<g id="edge31" class="edge">
<title>Node2&#45;&gt;Node27</title>
<path fill="none" stroke="midnightblue" d="M2169.55,-109.3C2138.27,-99.13 2093.68,-84.62 2065.68,-75.52"/>
<polygon fill="midnightblue" stroke="midnightblue" points="2168.6,-112.68 2179.2,-112.44 2170.77,-106.02 2168.6,-112.68"/>
</g>
<!-- Node28 -->
<g id="node28" class="node">
<title>Node28</title>
<g id="a_node28"><a xlink:href="CallAndPhiFixPass_8cpp.html" target="_top" xlink:title=" ">
<polygon fill="white" stroke="black" points="2143,-56.5 2143,-75.5 2268,-75.5 2268,-56.5 2143,-56.5"/>
<text text-anchor="middle" x="2205.5" y="-63.5" font-family="Helvetica,sans-Serif" font-size="10.00">CallAndPhiFixPass.cpp</text>
</a>
</g>
</g>
<!-- Node2&#45;&gt;Node28 -->
<g id="edge32" class="edge">
<title>Node2&#45;&gt;Node28</title>
<path fill="none" stroke="midnightblue" d="M2205.5,-101.8C2205.5,-92.91 2205.5,-82.78 2205.5,-75.75"/>
<polygon fill="midnightblue" stroke="midnightblue" points="2202,-102.08 2205.5,-112.08 2209,-102.08 2202,-102.08"/>
</g>
<!-- Node29 -->
<g id="node29" class="node">
<title>Node29</title>
<g id="a_node29"><a xlink:href="ParameterSymbolMapPass_8cpp.html" target="_top" xlink:title=" ">
<polygon fill="white" stroke="black" points="2286.5,-56.5 2286.5,-75.5 2454.5,-75.5 2454.5,-56.5 2286.5,-56.5"/>
<text text-anchor="middle" x="2370.5" y="-63.5" font-family="Helvetica,sans-Serif" font-size="10.00">ParameterSymbolMapPass.cpp</text>
</a>
</g>
</g>
<!-- Node2&#45;&gt;Node29 -->
<g id="edge33" class="edge">
<title>Node2&#45;&gt;Node29</title>
<path fill="none" stroke="midnightblue" d="M2241.24,-109.3C2272.33,-99.13 2316.65,-84.62 2344.48,-75.52"/>
<polygon fill="midnightblue" stroke="midnightblue" points="2240.06,-106.01 2231.64,-112.44 2242.24,-112.66 2240.06,-106.01"/>
</g>
<!-- Node30 -->
<g id="node30" class="node">
<title>Node30</title>
<g id="a_node30"><a xlink:href="SPPreservationPass_8cpp.html" target="_top" xlink:title=" ">
<polygon fill="white" stroke="black" points="2473,-56.5 2473,-75.5 2606,-75.5 2606,-56.5 2473,-56.5"/>
<text text-anchor="middle" x="2539.5" y="-63.5" font-family="Helvetica,sans-Serif" font-size="10.00">SPPreservationPass.cpp</text>
</a>
</g>
</g>
<!-- Node2&#45;&gt;Node30 -->
<g id="edge34" class="edge">
<title>Node2&#45;&gt;Node30</title>
<path fill="none" stroke="midnightblue" d="M2251.2,-112.05C2251.3,-112.04 2251.4,-112.02 2251.5,-112 2330.62,-98.08 2422.36,-84.12 2480.65,-75.52"/>
<polygon fill="midnightblue" stroke="midnightblue" points="2250.85,-108.56 2241.64,-113.79 2252.1,-115.45 2250.85,-108.56"/>
</g>
<!-- Node31 -->
<g id="node31" class="node">
<title>Node31</title>
<g id="a_node31"><a xlink:href="Exp_8cpp.html" target="_top" xlink:title=" ">
<polygon fill="white" stroke="black" points="2624,-56.5 2624,-75.5 2679,-75.5 2679,-56.5 2624,-56.5"/>
<text text-anchor="middle" x="2651.5" y="-63.5" font-family="Helvetica,sans-Serif" font-size="10.00">Exp.cpp</text>
</a>
</g>
</g>
<!-- Node2&#45;&gt;Node31 -->
<g id="edge35" class="edge">
<title>Node2&#45;&gt;Node31</title>
<path fill="none" stroke="midnightblue" d="M2251.2,-112.04C2251.3,-112.03 2251.4,-112.01 2251.5,-112 2412.34,-88.37 2455.33,-103.79 2615.5,-76 2618.17,-75.54 2620.93,-74.98 2623.68,-74.38"/>
<polygon fill="midnightblue" stroke="midnightblue" points="2250.91,-108.54 2241.6,-113.6 2252.04,-115.45 2250.91,-108.54"/>
</g>
<!-- Node32 -->
<g id="node32" class="node">
<title>Node32</title>
<g id="a_node32"><a xlink:href="Assignment_8cpp.html" target="_top" xlink:title=" ">
<polygon fill="white" stroke="black" points="2697,-56.5 2697,-75.5 2792,-75.5 2792,-56.5 2697,-56.5"/>
<text text-anchor="middle" x="2744.5" y="-63.5" font-family="Helvetica,sans-Serif" font-size="10.00">Assignment.cpp</text>
</a>
</g>
</g>
<!-- Node2&#45;&gt;Node32 -->
<g id="edge36" class="edge">
<title>Node2&#45;&gt;Node32</title>
<path fill="none" stroke="midnightblue" d="M2251.2,-112.04C2251.3,-112.03 2251.4,-112.01 2251.5,-112 2444.54,-85.25 2495.04,-99.48 2688.5,-76 2691.24,-75.67 2694.05,-75.3 2696.88,-74.91"/>
<polygon fill="midnightblue" stroke="midnightblue" points="2250.93,-108.54 2241.6,-113.54 2252.02,-115.46 2250.93,-108.54"/>
</g>
<!-- Node33 -->
<g id="node33" class="node">
<title>Node33</title>
<g id="a_node33"><a xlink:href="CallStatement_8cpp.html" target="_top" xlink:title=" ">
<polygon fill="white" stroke="black" points="2810,-56.5 2810,-75.5 2917,-75.5 2917,-56.5 2810,-56.5"/>
<text text-anchor="middle" x="2863.5" y="-63.5" font-family="Helvetica,sans-Serif" font-size="10.00">CallStatement.cpp</text>
</a>
</g>
</g>
<!-- Node2&#45;&gt;Node33 -->
<g id="edge37" class="edge">
<title>Node2&#45;&gt;Node33</title>
<path fill="none" stroke="midnightblue" d="M2251.2,-112.04C2251.3,-112.03 2251.4,-112.01 2251.5,-112 2494.42,-80.42 2557.88,-101.62 2801.5,-76 2804.2,-75.72 2806.97,-75.4 2809.76,-75.06"/>
<polygon fill="midnightblue" stroke="midnightblue" points="2250.96,-108.54 2241.59,-113.49 2252,-115.46 2250.96,-108.54"/>
</g>
<!-- Node34 -->
<g id="node34" class="node">
<title>Node34</title>
<g id="a_node34"><a xlink:href="ReturnStatement_8cpp.html" target="_top" xlink:title=" ">
<polygon fill="white" stroke="black" points="2935.5,-56.5 2935.5,-75.5 3055.5,-75.5 3055.5,-56.5 2935.5,-56.5"/>
<text text-anchor="middle" x="2995.5" y="-63.5" font-family="Helvetica,sans-Serif" font-size="10.00">ReturnStatement.cpp</text>
</a>
</g>
</g>
<!-- Node2&#45;&gt;Node34 -->
<g id="edge38" class="edge">
<title>Node2&#45;&gt;Node34</title>
<path fill="none" stroke="midnightblue" d="M2251.2,-112.04C2251.3,-112.03 2251.4,-112.01 2251.5,-112 2549.65,-75.07 2627.33,-103.45 2926.5,-76 2929.39,-75.74 2932.34,-75.44 2935.32,-75.12"/>
<polygon fill="midnightblue" stroke="midnightblue" points="2250.97,-108.53 2241.58,-113.45 2251.98,-115.46 2250.97,-108.53"/>
</g>
<!-- Node35 -->
<g id="node35" class="node">
<title>Node35</title>
<g id="a_node35"><a xlink:href="FuncType_8cpp.html" target="_top" xlink:title=" ">
<polygon fill="white" stroke="black" points="3073.5,-56.5 3073.5,-75.5 3155.5,-75.5 3155.5,-56.5 3073.5,-56.5"/>
<text text-anchor="middle" x="3114.5" y="-63.5" font-family="Helvetica,sans-Serif" font-size="10.00">FuncType.cpp</text>
</a>
</g>
</g>
<!-- Node2&#45;&gt;Node35 -->
<g id="edge39" class="edge">
<title>Node2&#45;&gt;Node35</title>
<path fill="none" stroke="midnightblue" d="M2251.2,-112.04C2251.3,-112.02 2251.4,-112.01 2251.5,-112 2610.64,-69.16 2705.05,-116.13 3064.5,-76 3067.39,-75.68 3070.37,-75.29 3073.36,-74.85"/>
<polygon fill="midnightblue" stroke="midnightblue" points="2250.98,-108.53 2241.58,-113.41 2251.97,-115.46 2250.98,-108.53"/>
</g>
<!-- Node36 -->
<g id="node36" class="node">
<title>Node36</title>
<g id="a_node36"><a xlink:href="Type_8cpp.html" target="_top" xlink:title=" ">
<polygon fill="white" stroke="black" points="3174,-56.5 3174,-75.5 3233,-75.5 3233,-56.5 3174,-56.5"/>
<text text-anchor="middle" x="3203.5" y="-63.5" font-family="Helvetica,sans-Serif" font-size="10.00">Type.cpp</text>
</a>
</g>
</g>
<!-- Node2&#45;&gt;Node36 -->
<g id="edge40" class="edge">
<title>Node2&#45;&gt;Node36</title>
<path fill="none" stroke="midnightblue" d="M2251.2,-112.04C2251.3,-112.02 2251.4,-112.01 2251.5,-112 2654.85,-64.87 2762,-129.89 3164.5,-76 3167.53,-75.59 3170.67,-75.06 3173.79,-74.46"/>
<polygon fill="midnightblue" stroke="midnightblue" points="2250.99,-108.53 2241.58,-113.4 2251.97,-115.46 2250.99,-108.53"/>
</g>
<!-- Node37 -->
<g id="node37" class="node">
<title>Node37</title>
<g id="a_node37"><a xlink:href="DataIntervalMap_8cpp.html" target="_top" xlink:title=" ">
<polygon fill="white" stroke="black" points="3251,-56.5 3251,-75.5 3370,-75.5 3370,-56.5 3251,-56.5"/>
<text text-anchor="middle" x="3310.5" y="-63.5" font-family="Helvetica,sans-Serif" font-size="10.00">DataIntervalMap.cpp</text>
</a>
</g>
</g>
<!-- Node2&#45;&gt;Node37 -->
<g id="edge41" class="edge">
<title>Node2&#45;&gt;Node37</title>
<path fill="none" stroke="midnightblue" d="M2251.2,-112.04C2251.3,-112.02 2251.4,-112.01 2251.5,-112 2689.34,-61.53 2803.32,-112.96 3242.5,-76 3245.23,-75.77 3248.02,-75.51 3250.83,-75.22"/>
<polygon fill="midnightblue" stroke="midnightblue" points="2250.99,-108.53 2241.58,-113.39 2251.97,-115.46 2250.99,-108.53"/>
</g>
<!-- Node38 -->
<g id="node38" class="node">
<title>Node38</title>
<g id="a_node38"><a xlink:href="DFALocalMapper_8cpp.html" target="_top" xlink:title=" ">
<polygon fill="white" stroke="black" points="3388,-56.5 3388,-75.5 3507,-75.5 3507,-56.5 3388,-56.5"/>
<text text-anchor="middle" x="3447.5" y="-63.5" font-family="Helvetica,sans-Serif" font-size="10.00">DFALocalMapper.cpp</text>
</a>
</g>
</g>
<!-- Node2&#45;&gt;Node38 -->
<g id="edge42" class="edge">
<title>Node2&#45;&gt;Node38</title>
<path fill="none" stroke="midnightblue" d="M2251.2,-112.03C2251.3,-112.02 2251.4,-112.01 2251.5,-112 2749.91,-55.66 2879.59,-116.96 3379.5,-76 3382.23,-75.78 3385.02,-75.52 3387.83,-75.24"/>
<polygon fill="midnightblue" stroke="midnightblue" points="2251,-108.53 2241.57,-113.37 2251.96,-115.46 2251,-108.53"/>
</g>
<!-- Node39 -->
<g id="node39" class="node">
<title>Node39</title>
<g id="a_node39"><a xlink:href="Decompiler_8cpp.html" target="_top" xlink:title=" ">
<polygon fill="white" stroke="black" points="3525,-56.5 3525,-75.5 3618,-75.5 3618,-56.5 3525,-56.5"/>
<text text-anchor="middle" x="3571.5" y="-63.5" font-family="Helvetica,sans-Serif" font-size="10.00">Decompiler.cpp</text>
</a>
</g>
</g>
<!-- Node2&#45;&gt;Node39 -->
<g id="edge43" class="edge">
<title>Node2&#45;&gt;Node39</title>
<path fill="none" stroke="midnightblue" d="M2251.2,-112.03C2251.3,-112.02 2251.4,-112.01 2251.5,-112 2810.5,-49.79 2956.6,-129.53 3516.5,-76 3519.2,-75.74 3521.96,-75.43 3524.75,-75.09"/>
<polygon fill="midnightblue" stroke="midnightblue" points="2251,-108.53 2241.57,-113.36 2251.96,-115.46 2251,-108.53"/>
</g>
<!-- Node40 -->
<g id="node40" class="node">
<title>Node40</title>
<g id="a_node40"><a xlink:href="CCodeGenerator_8cpp.html" target="_top" xlink:title=" ">
<polygon fill="white" stroke="black" points="3636,-56.5 3636,-75.5 3753,-75.5 3753,-56.5 3636,-56.5"/>
<text text-anchor="middle" x="3694.5" y="-63.5" font-family="Helvetica,sans-Serif" font-size="10.00">CCodeGenerator.cpp</text>
</a>
</g>
</g>
<!-- Node2&#45;&gt;Node40 -->
<g id="edge44" class="edge">
<title>Node2&#45;&gt;Node40</title>
<path fill="none" stroke="midnightblue" d="M2251.2,-112.03C2251.3,-112.02 2251.4,-112.01 2251.5,-112 2859.59,-45.03 3017.68,-124.79 3627.5,-76 3630.19,-75.78 3632.94,-75.54 3635.71,-75.26"/>
<polygon fill="midnightblue" stroke="midnightblue" points="2251,-108.53 2241.57,-113.35 2251.95,-115.46 2251,-108.53"/>
</g>
<!-- Node41 -->
<g id="node41" class="node">
<title>Node41</title>
<g id="a_node41"><a xlink:href="PPCFrontEnd_8cpp.html" target="_top" xlink:title=" ">
<polygon fill="white" stroke="black" points="3771.5,-56.5 3771.5,-75.5 3869.5,-75.5 3869.5,-56.5 3771.5,-56.5"/>
<text text-anchor="middle" x="3820.5" y="-63.5" font-family="Helvetica,sans-Serif" font-size="10.00">PPCFrontEnd.cpp</text>
</a>
</g>
</g>
<!-- Node2&#45;&gt;Node41 -->
<g id="edge45" class="edge">
<title>Node2&#45;&gt;Node41</title>
<path fill="none" stroke="midnightblue" d="M2251.2,-112.03C2251.3,-112.02 2251.4,-112.01 2251.5,-112 2919.29,-39.25 3093.41,-135.63 3762.5,-76 3765.34,-75.75 3768.26,-75.44 3771.19,-75.1"/>
<polygon fill="midnightblue" stroke="midnightblue" points="2251.01,-108.53 2241.57,-113.34 2251.95,-115.46 2251.01,-108.53"/>
</g>
<!-- Node42 -->
<g id="node42" class="node">
<title>Node42</title>
<g id="a_node42"><a xlink:href="SPARCFrontEnd_8cpp.html" target="_top" xlink:title=" ">
<polygon fill="white" stroke="black" points="3887.5,-56.5 3887.5,-75.5 3999.5,-75.5 3999.5,-56.5 3887.5,-56.5"/>
<text text-anchor="middle" x="3943.5" y="-63.5" font-family="Helvetica,sans-Serif" font-size="10.00">SPARCFrontEnd.cpp</text>
</a>
</g>
</g>
<!-- Node2&#45;&gt;Node42 -->
<g id="edge46" class="edge">
<title>Node2&#45;&gt;Node42</title>
<path fill="none" stroke="midnightblue" d="M2251.2,-112.03C2251.3,-112.02 2251.4,-112.01 2251.5,-112 2970.6,-34.28 3157.52,-133.7 3878.5,-76 3881.34,-75.77 3884.24,-75.5 3887.17,-75.2"/>
<polygon fill="midnightblue" stroke="midnightblue" points="2251.01,-108.53 2241.57,-113.34 2251.95,-115.46 2251.01,-108.53"/>
</g>
<!-- Node43 -->
<g id="node43" class="node">
<title>Node43</title>
<g id="a_node43"><a xlink:href="ST20FrontEnd_8cpp.html" target="_top" xlink:title=" ">
<polygon fill="white" stroke="black" points="4017.5,-56.5 4017.5,-75.5 4121.5,-75.5 4121.5,-56.5 4017.5,-56.5"/>
<text text-anchor="middle" x="4069.5" y="-63.5" font-family="Helvetica,sans-Serif" font-size="10.00">ST20FrontEnd.cpp</text>
</a>
</g>
</g>
<!-- Node2&#45;&gt;Node43 -->
<g id="edge47" class="edge">
<title>Node2&#45;&gt;Node43</title>
<path fill="none" stroke="midnightblue" d="M2251.2,-112.03C2251.3,-112.02 2251.4,-112.01 2251.5,-112 3028.1,-28.7 3230.17,-141.13 4008.5,-76 4011.38,-75.76 4014.33,-75.47 4017.31,-75.14"/>
<polygon fill="midnightblue" stroke="midnightblue" points="2251.01,-108.53 2241.57,-113.33 2251.95,-115.46 2251.01,-108.53"/>
</g>
<!-- Node44 -->
<g id="node44" class="node">
<title>Node44</title>
<g id="a_node44"><a xlink:href="PentiumFrontEnd_8cpp.html" target="_top" xlink:title=" ">
<polygon fill="white" stroke="black" points="4139.5,-56.5 4139.5,-75.5 4259.5,-75.5 4259.5,-56.5 4139.5,-56.5"/>
<text text-anchor="middle" x="4199.5" y="-63.5" font-family="Helvetica,sans-Serif" font-size="10.00">PentiumFrontEnd.cpp</text>
</a>
</g>
</g>
<!-- Node2&#45;&gt;Node44 -->
<g id="edge48" class="edge">
<title>Node2&#45;&gt;Node44</title>
<path fill="none" stroke="midnightblue" d="M2251.2,-112.03C2251.3,-112.02 2251.4,-112.01 2251.5,-112 3082.06,-23.47 3297.55,-138.11 4130.5,-76 4133.39,-75.78 4136.35,-75.53 4139.33,-75.25"/>
<polygon fill="midnightblue" stroke="midnightblue" points="2251.01,-108.53 2241.57,-113.33 2251.95,-115.46 2251.01,-108.53"/>
</g>
<!-- Node45 -->
<g id="node45" class="node">
<title>Node45</title>
<g id="a_node45"><a xlink:href="DFATypeAnalyzer_8cpp.html" target="_top" xlink:title=" ">
<polygon fill="white" stroke="black" points="4278,-56.5 4278,-75.5 4399,-75.5 4399,-56.5 4278,-56.5"/>
<text text-anchor="middle" x="4338.5" y="-63.5" font-family="Helvetica,sans-Serif" font-size="10.00">DFATypeAnalyzer.cpp</text>
</a>
</g>
</g>
<!-- Node2&#45;&gt;Node45 -->
<g id="edge49" class="edge">
<title>Node2&#45;&gt;Node45</title>
<path fill="none" stroke="midnightblue" d="M2251.2,-112.03C2251.3,-112.02 2251.4,-112.01 2251.5,-112 2697.3,-64.78 3821.4,-108.63 4268.5,-76 4271.56,-75.78 4274.68,-75.51 4277.83,-75.21"/>
<polygon fill="midnightblue" stroke="midnightblue" points="2251.02,-108.53 2241.57,-113.32 2251.94,-115.46 2251.02,-108.53"/>
</g>
<!-- Node46 -->
<g id="node46" class="node">
<title>Node46</title>
<g id="a_node46"><a xlink:href="DFATypeRecovery_8cpp.html" target="_top" xlink:title=" ">
<polygon fill="white" stroke="black" points="4417.5,-56.5 4417.5,-75.5 4539.5,-75.5 4539.5,-56.5 4417.5,-56.5"/>
<text text-anchor="middle" x="4478.5" y="-63.5" font-family="Helvetica,sans-Serif" font-size="10.00">DFATypeRecovery.cpp</text>
</a>
</g>
</g>
<!-- Node2&#45;&gt;Node46 -->
<g id="edge50" class="edge">
<title>Node2&#45;&gt;Node46</title>
<path fill="none" stroke="midnightblue" d="M2251.2,-112.03C2251.3,-112.02 2251.4,-112.01 2251.5,-112 2728.26,-61.78 3930.35,-110.62 4408.5,-76 4411.43,-75.79 4414.43,-75.54 4417.46,-75.25"/>
<polygon fill="midnightblue" stroke="midnightblue" points="2251.02,-108.53 2241.57,-113.32 2251.94,-115.46 2251.02,-108.53"/>
</g>
<!-- Node10 -->
<g id="node10" class="node">
<title>Node10</title>
<g id="a_node10"><a xlink:href="CustomSignature_8cpp.html" target="_top" xlink:title=" ">
<polygon fill="white" stroke="black" points="398,-0.5 398,-19.5 519,-19.5 519,-0.5 398,-0.5"/>
<text text-anchor="middle" x="458.5" y="-7.5" font-family="Helvetica,sans-Serif" font-size="10.00">CustomSignature.cpp</text>
</a>
</g>
</g>
<!-- Node9&#45;&gt;Node10 -->
<g id="edge9" class="edge">
<title>Node9&#45;&gt;Node10</title>
<path fill="none" stroke="midnightblue" d="M562.59,-52.64C537.26,-42.5 502.07,-28.43 479.79,-19.52"/>
<polygon fill="midnightblue" stroke="midnightblue" points="561.52,-55.98 572.11,-56.44 564.12,-49.48 561.52,-55.98"/>
</g>
<!-- Node11 -->
<g id="node11" class="node">
<title>Node11</title>
<g id="a_node11"><a xlink:href="AnsiCParser_8cpp.html" target="_top" xlink:title=" ">
<polygon fill="white" stroke="black" points="537,-0.5 537,-19.5 632,-19.5 632,-0.5 537,-0.5"/>
<text text-anchor="middle" x="584.5" y="-7.5" font-family="Helvetica,sans-Serif" font-size="10.00">AnsiCParser.cpp</text>
</a>
</g>
</g>
<!-- Node9&#45;&gt;Node11 -->
<g id="edge10" class="edge">
<title>Node9&#45;&gt;Node11</title>
<path fill="none" stroke="midnightblue" d="M590.35,-46.1C588.86,-37.14 587.14,-26.86 585.96,-19.75"/>
<polygon fill="midnightblue" stroke="midnightblue" points="586.92,-46.79 592.01,-56.08 593.82,-45.64 586.92,-46.79"/>
</g>
<!-- Node13 -->
<g id="node13" class="node">
<title>Node13</title>
<g id="a_node13"><a xlink:href="PentiumSignature_8cpp.html" target="_top" xlink:title=" ">
<polygon fill="white" stroke="black" points="650.5,-0.5 650.5,-19.5 774.5,-19.5 774.5,-0.5 650.5,-0.5"/>
<text text-anchor="middle" x="712.5" y="-7.5" font-family="Helvetica,sans-Serif" font-size="10.00">PentiumSignature.cpp</text>
</a>
</g>
</g>
<!-- Node12&#45;&gt;Node13 -->
<g id="edge12" class="edge">
<title>Node12&#45;&gt;Node13</title>
<path fill="none" stroke="midnightblue" d="M719.65,-46.1C717.82,-37.14 715.73,-26.86 714.28,-19.75"/>
<polygon fill="midnightblue" stroke="midnightblue" points="716.26,-46.98 721.68,-56.08 723.12,-45.59 716.26,-46.98"/>
</g>
<!-- Node12&#45;&gt;Node14 -->
<g id="edge13" class="edge">
<title>Node12&#45;&gt;Node14</title>
<path fill="none" stroke="midnightblue" d="M769.9,-54.15C813.55,-43.95 878.01,-28.88 918.07,-19.52"/>
<polygon fill="midnightblue" stroke="midnightblue" points="769.04,-50.76 760.1,-56.44 770.64,-57.58 769.04,-50.76"/>
</g>
<!-- Node15&#45;&gt;Node14 -->
<g id="edge16" class="edge">
<title>Node15&#45;&gt;Node14</title>
<path fill="none" stroke="midnightblue" d="M870.51,-51.86C891.09,-41.85 918.84,-28.35 936.71,-19.65"/>
<polygon fill="midnightblue" stroke="midnightblue" points="868.8,-48.8 861.33,-56.32 871.86,-55.1 868.8,-48.8"/>
</g>
<!-- Node16 -->
<g id="node16" class="node">
<title>Node16</title>
<g id="a_node16"><a xlink:href="PPCSignature_8cpp.html" target="_top" xlink:title=" ">
<polygon fill="white" stroke="black" points="792.5,-0.5 792.5,-19.5 894.5,-19.5 894.5,-0.5 792.5,-0.5"/>
<text text-anchor="middle" x="843.5" y="-7.5" font-family="Helvetica,sans-Serif" font-size="10.00">PPCSignature.cpp</text>
</a>
</g>
</g>
<!-- Node15&#45;&gt;Node16 -->
<g id="edge15" class="edge">
<title>Node15&#45;&gt;Node16</title>
<path fill="none" stroke="midnightblue" d="M843.5,-45.8C843.5,-36.91 843.5,-26.78 843.5,-19.75"/>
<polygon fill="midnightblue" stroke="midnightblue" points="840,-46.08 843.5,-56.08 847,-46.08 840,-46.08"/>
</g>
<!-- Node17&#45;&gt;Node14 -->
<g id="edge19" class="edge">
<title>Node17&#45;&gt;Node14</title>
<path fill="none" stroke="midnightblue" d="M984.08,-48.14C976.59,-38.74 967.56,-27.4 961.47,-19.75"/>
<polygon fill="midnightblue" stroke="midnightblue" points="981.43,-50.44 990.4,-56.08 986.91,-46.08 981.43,-50.44"/>
</g>
<!-- Node18 -->
<g id="node18" class="node">
<title>Node18</title>
<g id="a_node18"><a xlink:href="SPARCSignature_8cpp.html" target="_top" xlink:title=" ">
<polygon fill="white" stroke="black" points="1014.5,-0.5 1014.5,-19.5 1130.5,-19.5 1130.5,-0.5 1014.5,-0.5"/>
<text text-anchor="middle" x="1072.5" y="-7.5" font-family="Helvetica,sans-Serif" font-size="10.00">SPARCSignature.cpp</text>
</a>
</g>
</g>
<!-- Node17&#45;&gt;Node18 -->
<g id="edge20" class="edge">
<title>Node17&#45;&gt;Node18</title>
<path fill="none" stroke="midnightblue" d="M1017.81,-50.38C1031.36,-40.62 1048.74,-28.11 1060.23,-19.83"/>
<polygon fill="midnightblue" stroke="midnightblue" points="1015.62,-47.64 1009.55,-56.32 1019.71,-53.32 1015.62,-47.64"/>
</g>
<!-- Node19&#45;&gt;Node14 -->
<g id="edge22" class="edge">
<title>Node19&#45;&gt;Node14</title>
<path fill="none" stroke="midnightblue" d="M1080.24,-53.17C1049.92,-43 1006.93,-28.59 979.89,-19.52"/>
<polygon fill="midnightblue" stroke="midnightblue" points="1079.4,-56.58 1089.99,-56.44 1081.62,-49.95 1079.4,-56.58"/>
</g>
<!-- Node20 -->
<g id="node20" class="node">
<title>Node20</title>
<g id="a_node20"><a xlink:href="ST20Signature_8cpp.html" target="_top" xlink:title=" ">
<polygon fill="white" stroke="black" points="1149,-0.5 1149,-19.5 1256,-19.5 1256,-0.5 1149,-0.5"/>
<text text-anchor="middle" x="1202.5" y="-7.5" font-family="Helvetica,sans-Serif" font-size="10.00">ST20Signature.cpp</text>
</a>
</g>
</g>
<!-- Node19&#45;&gt;Node20 -->
<g id="edge23" class="edge">
<title>Node19&#45;&gt;Node20</title>
<path fill="none" stroke="midnightblue" d="M1138.22,-50.9C1154.17,-41 1175,-28.07 1188.56,-19.65"/>
<polygon fill="midnightblue" stroke="midnightblue" points="1136.13,-48.08 1129.48,-56.32 1139.82,-54.02 1136.13,-48.08"/>
</g>
<!-- Node21&#45;&gt;Node14 -->
<g id="edge25" class="edge">
<title>Node21&#45;&gt;Node14</title>
<path fill="none" stroke="midnightblue" d="M1179.29,-54.51C1125.74,-44.14 1044.96,-28.51 996.22,-19.08"/>
<polygon fill="midnightblue" stroke="midnightblue" points="1178.81,-57.98 1189.29,-56.44 1180.14,-51.11 1178.81,-57.98"/>
</g>
<!-- Node22 -->
<g id="node22" class="node">
<title>Node22</title>
<g id="a_node22"><a xlink:href="Win32Signature_8cpp.html" target="_top" xlink:title=" ">
<polygon fill="white" stroke="black" points="1274.5,-0.5 1274.5,-19.5 1388.5,-19.5 1388.5,-0.5 1274.5,-0.5"/>
<text text-anchor="middle" x="1331.5" y="-7.5" font-family="Helvetica,sans-Serif" font-size="10.00">Win32Signature.cpp</text>
</a>
</g>
</g>
<!-- Node21&#45;&gt;Node22 -->
<g id="edge26" class="edge">
<title>Node21&#45;&gt;Node22</title>
<path fill="none" stroke="midnightblue" d="M1258.09,-51.45C1276.18,-41.48 1300.23,-28.23 1315.79,-19.65"/>
<polygon fill="midnightblue" stroke="midnightblue" points="1256.31,-48.43 1249.25,-56.32 1259.69,-54.56 1256.31,-48.43"/>
</g>
</g>
</svg>
