<?xml version="1.0" encoding="UTF-8" standalone="no"?>
<!DOCTYPE svg PUBLIC "-//W3C//DTD SVG 1.1//EN"
 "http://www.w3.org/Graphics/SVG/1.1/DTD/svg11.dtd">
<!-- Generated by graphviz version 2.43.0 (0)
 -->
<!-- Title: RTL.cpp Pages: 1 -->
<svg width="1273pt" height="531pt"
 viewBox="0.00 0.00 1273.00 531.00" xmlns="http://www.w3.org/2000/svg" xmlns:xlink="http://www.w3.org/1999/xlink">
<g id="graph0" class="graph" transform="scale(1 1) rotate(0) translate(4 527)">
<title>RTL.cpp</title>
<polygon fill="white" stroke="transparent" points="-4,4 -4,-527 1269,-527 1269,4 -4,4"/>
<!-- Node1 -->
<g id="node1" class="node">
<title>Node1</title>
<g id="a_node1"><a xlink:title=" ">
<polygon fill="#bfbfbf" stroke="black" points="534.5,-503.5 534.5,-522.5 589.5,-522.5 589.5,-503.5 534.5,-503.5"/>
<text text-anchor="middle" x="562" y="-510.5" font-family="Helvetica,sans-Serif" font-size="10.00">RTL.cpp</text>
</a>
</g>
</g>
<!-- Node2 -->
<g id="node2" class="node">
<title>Node2</title>
<g id="a_node2"><a xlink:href="RTL_8h.html" target="_top" xlink:title=" ">
<polygon fill="white" stroke="black" points="693,-241 693,-260 737,-260 737,-241 693,-241"/>
<text text-anchor="middle" x="715" y="-248" font-family="Helvetica,sans-Serif" font-size="10.00">RTL.h</text>
</a>
</g>
</g>
<!-- Node1&#45;&gt;Node2 -->
<g id="edge1" class="edge">
<title>Node1&#45;&gt;Node2</title>
<path fill="none" stroke="midnightblue" d="M561.22,-503.31C559.52,-480 557.44,-414.71 582,-369 607.38,-321.78 659.7,-284.46 690.62,-265.41"/>
<polygon fill="midnightblue" stroke="midnightblue" points="692.7,-268.24 699.47,-260.09 689.09,-262.24 692.7,-268.24"/>
</g>
<!-- Node6 -->
<g id="node6" class="node">
<title>Node6</title>
<g id="a_node6"><a xlink:href="Types_8h.html" target="_top" xlink:title=" ">
<polygon fill="white" stroke="black" points="147.5,-62 147.5,-81 278.5,-81 278.5,-62 147.5,-62"/>
<text text-anchor="middle" x="213" y="-69" font-family="Helvetica,sans-Serif" font-size="10.00">boomerang/util/Types.h</text>
</a>
</g>
</g>
<!-- Node1&#45;&gt;Node6 -->
<g id="edge41" class="edge">
<title>Node1&#45;&gt;Node6</title>
<path fill="none" stroke="midnightblue" d="M534.2,-511.32C425.87,-507.92 38,-488.56 38,-385.5 38,-385.5 38,-385.5 38,-188 38,-128.67 108.94,-98.07 160.49,-83.66"/>
<polygon fill="midnightblue" stroke="midnightblue" points="161.43,-87.03 170.19,-81.08 159.63,-80.27 161.43,-87.03"/>
</g>
<!-- Node8 -->
<g id="node8" class="node">
<title>Node8</title>
<g id="a_node8"><a xlink:title=" ">
<polygon fill="white" stroke="#bfbfbf" points="13,-62 13,-81 59,-81 59,-62 13,-62"/>
<text text-anchor="middle" x="36" y="-69" font-family="Helvetica,sans-Serif" font-size="10.00">cstdio</text>
</a>
</g>
</g>
<!-- Node1&#45;&gt;Node8 -->
<g id="edge54" class="edge">
<title>Node1&#45;&gt;Node8</title>
<path fill="none" stroke="midnightblue" d="M534.39,-511.94C444.22,-511.36 159.5,-506.37 78,-467 32.85,-445.19 0,-435.64 0,-385.5 0,-385.5 0,-385.5 0,-188 0,-152.1 16.05,-112.65 26.72,-90.39"/>
<polygon fill="midnightblue" stroke="midnightblue" points="29.97,-91.71 31.29,-81.2 23.7,-88.59 29.97,-91.71"/>
</g>
<!-- Node12 -->
<g id="node12" class="node">
<title>Node12</title>
<g id="a_node12"><a xlink:href="Const_8h.html" target="_top" xlink:title=" ">
<polygon fill="white" stroke="black" points="421.5,-308 421.5,-327 570.5,-327 570.5,-308 421.5,-308"/>
<text text-anchor="middle" x="496" y="-315" font-family="Helvetica,sans-Serif" font-size="10.00">boomerang/ssl/exp/Const.h</text>
</a>
</g>
</g>
<!-- Node1&#45;&gt;Node12 -->
<g id="edge13" class="edge">
<title>Node1&#45;&gt;Node12</title>
<path fill="none" stroke="midnightblue" d="M559.08,-503.44C549.09,-474.16 516.17,-377.65 502.28,-336.91"/>
<polygon fill="midnightblue" stroke="midnightblue" points="505.58,-335.74 499.04,-327.41 498.95,-338 505.58,-335.74"/>
</g>
<!-- Node15 -->
<g id="node15" class="node">
<title>Node15</title>
<g id="a_node15"><a xlink:href="Operator_8h.html" target="_top" xlink:title=" ">
<polygon fill="white" stroke="black" points="1008,-179.5 1008,-198.5 1172,-198.5 1172,-179.5 1008,-179.5"/>
<text text-anchor="middle" x="1090" y="-186.5" font-family="Helvetica,sans-Serif" font-size="10.00">boomerang/ssl/exp/Operator.h</text>
</a>
</g>
</g>
<!-- Node1&#45;&gt;Node15 -->
<g id="edge29" class="edge">
<title>Node1&#45;&gt;Node15</title>
<path fill="none" stroke="midnightblue" d="M589.58,-512.35C663.7,-512.72 864.78,-509.67 912,-467 939.6,-442.06 931,-422.69 931,-385.5 931,-385.5 931,-385.5 931,-316.5 931,-255.41 1003.76,-219.08 1050.84,-201.97"/>
<polygon fill="midnightblue" stroke="midnightblue" points="1052.18,-205.21 1060.47,-198.61 1049.87,-198.6 1052.18,-205.21"/>
</g>
<!-- Node16 -->
<g id="node16" class="node">
<title>Node16</title>
<g id="a_node16"><a xlink:title=" ">
<polygon fill="white" stroke="#bfbfbf" points="170,-179.5 170,-198.5 222,-198.5 222,-179.5 170,-179.5"/>
<text text-anchor="middle" x="196" y="-186.5" font-family="Helvetica,sans-Serif" font-size="10.00">cassert</text>
</a>
</g>
</g>
<!-- Node1&#45;&gt;Node16 -->
<g id="edge53" class="edge">
<title>Node1&#45;&gt;Node16</title>
<path fill="none" stroke="midnightblue" d="M534.22,-509.52C501.66,-505.41 447.4,-494.65 410,-467 375.06,-441.16 356,-428.95 356,-385.5 356,-385.5 356,-385.5 356,-316.5 356,-279.31 362.23,-262.33 337,-235 322.7,-219.51 268.81,-205.39 231.95,-197.25"/>
<polygon fill="midnightblue" stroke="midnightblue" points="232.57,-193.8 222.06,-195.11 231.09,-200.64 232.57,-193.8"/>
</g>
<!-- Node20 -->
<g id="node20" class="node">
<title>Node20</title>
<g id="a_node20"><a xlink:href="Assign_8h.html" target="_top" xlink:title=" ">
<polygon fill="white" stroke="black" points="755.5,-436.5 755.5,-466.5 902.5,-466.5 902.5,-436.5 755.5,-436.5"/>
<text text-anchor="start" x="763.5" y="-454.5" font-family="Helvetica,sans-Serif" font-size="10.00">boomerang/ssl/statements</text>
<text text-anchor="middle" x="829" y="-443.5" font-family="Helvetica,sans-Serif" font-size="10.00">/Assign.h</text>
</a>
</g>
</g>
<!-- Node1&#45;&gt;Node20 -->
<g id="edge30" class="edge">
<title>Node1&#45;&gt;Node20</title>
<path fill="none" stroke="midnightblue" d="M589.57,-505.86C628.51,-497.18 701.03,-481.02 756.09,-468.75"/>
<polygon fill="midnightblue" stroke="midnightblue" points="757.16,-472.1 766.16,-466.5 755.64,-465.26 757.16,-472.1"/>
</g>
<!-- Node25 -->
<g id="node25" class="node">
<title>Node25</title>
<g id="a_node25"><a xlink:href="BranchStatement_8h.html" target="_top" xlink:title=" ">
<polygon fill="white" stroke="black" points="590.5,-436.5 590.5,-466.5 737.5,-466.5 737.5,-436.5 590.5,-436.5"/>
<text text-anchor="start" x="598.5" y="-454.5" font-family="Helvetica,sans-Serif" font-size="10.00">boomerang/ssl/statements</text>
<text text-anchor="middle" x="664" y="-443.5" font-family="Helvetica,sans-Serif" font-size="10.00">/BranchStatement.h</text>
</a>
</g>
</g>
<!-- Node1&#45;&gt;Node25 -->
<g id="edge38" class="edge">
<title>Node1&#45;&gt;Node25</title>
<path fill="none" stroke="midnightblue" d="M576.61,-503.48C590.82,-495.19 612.87,-482.32 631.27,-471.59"/>
<polygon fill="midnightblue" stroke="midnightblue" points="633.09,-474.58 639.96,-466.52 629.56,-468.54 633.09,-474.58"/>
</g>
<!-- Node27 -->
<g id="node27" class="node">
<title>Node27</title>
<g id="a_node27"><a xlink:href="Util_8h.html" target="_top" xlink:title=" ">
<polygon fill="white" stroke="black" points="476,-179.5 476,-198.5 596,-198.5 596,-179.5 476,-179.5"/>
<text text-anchor="middle" x="536" y="-186.5" font-family="Helvetica,sans-Serif" font-size="10.00">boomerang/util/Util.h</text>
</a>
</g>
</g>
<!-- Node1&#45;&gt;Node27 -->
<g id="edge42" class="edge">
<title>Node1&#45;&gt;Node27</title>
<path fill="none" stroke="midnightblue" d="M534.26,-504.94C486.54,-490.95 394,-454.87 394,-385.5 394,-385.5 394,-385.5 394,-316.5 394,-258.46 460.97,-220.47 502.93,-202.38"/>
<polygon fill="midnightblue" stroke="midnightblue" points="504.34,-205.58 512.23,-198.51 501.65,-199.11 504.34,-205.58"/>
</g>
<!-- Node28 -->
<g id="node28" class="node">
<title>Node28</title>
<g id="a_node28"><a xlink:href="Log_8h.html" target="_top" xlink:title=" ">
<polygon fill="white" stroke="black" points="218.5,-235.5 218.5,-265.5 327.5,-265.5 327.5,-235.5 218.5,-235.5"/>
<text text-anchor="start" x="226.5" y="-253.5" font-family="Helvetica,sans-Serif" font-size="10.00">boomerang/util/log</text>
<text text-anchor="middle" x="273" y="-242.5" font-family="Helvetica,sans-Serif" font-size="10.00">/Log.h</text>
</a>
</g>
</g>
<!-- Node1&#45;&gt;Node28 -->
<g id="edge46" class="edge">
<title>Node1&#45;&gt;Node28</title>
<path fill="none" stroke="midnightblue" d="M534.49,-509.8C481.97,-505.08 370.15,-492.26 342,-467 285.94,-416.69 275.15,-320.84 273.26,-275.9"/>
<polygon fill="midnightblue" stroke="midnightblue" points="276.75,-275.52 272.95,-265.63 269.76,-275.73 276.75,-275.52"/>
</g>
<!-- Node29 -->
<g id="node29" class="node">
<title>Node29</title>
<g id="a_node29"><a xlink:title=" ">
<polygon fill="white" stroke="#bfbfbf" points="959,-442 959,-461 1097,-461 1097,-442 959,-442"/>
<text text-anchor="middle" x="1028" y="-449" font-family="Helvetica,sans-Serif" font-size="10.00">QTextStreamManipulator</text>
</a>
</g>
</g>
<!-- Node1&#45;&gt;Node29 -->
<g id="edge51" class="edge">
<title>Node1&#45;&gt;Node29</title>
<path fill="none" stroke="midnightblue" d="M589.94,-509.26C653.27,-502.93 812.5,-486.34 945,-467 953.73,-465.73 962.95,-464.25 971.95,-462.73"/>
<polygon fill="midnightblue" stroke="midnightblue" points="972.71,-466.15 981.98,-461.01 971.53,-459.25 972.71,-466.15"/>
</g>
<!-- Node30 -->
<g id="node30" class="node">
<title>Node30</title>
<g id="a_node30"><a xlink:title=" ">
<polygon fill="white" stroke="#bfbfbf" points="1115.5,-442 1115.5,-461 1196.5,-461 1196.5,-442 1115.5,-442"/>
<text text-anchor="middle" x="1156" y="-449" font-family="Helvetica,sans-Serif" font-size="10.00">QtAlgorithms</text>
</a>
</g>
</g>
<!-- Node1&#45;&gt;Node30 -->
<g id="edge52" class="edge">
<title>Node1&#45;&gt;Node30</title>
<path fill="none" stroke="midnightblue" d="M589.71,-511.65C670.18,-510.24 910.52,-503.05 1106,-467 1110.75,-466.12 1115.7,-464.98 1120.55,-463.72"/>
<polygon fill="midnightblue" stroke="midnightblue" points="1121.58,-467.07 1130.28,-461.02 1119.71,-460.32 1121.58,-467.07"/>
</g>
<!-- Node31 -->
<g id="node31" class="node">
<title>Node31</title>
<g id="a_node31"><a xlink:title=" ">
<polygon fill="white" stroke="#bfbfbf" points="1215,-442 1215,-461 1265,-461 1265,-442 1215,-442"/>
<text text-anchor="middle" x="1240" y="-449" font-family="Helvetica,sans-Serif" font-size="10.00">cstring</text>
</a>
</g>
</g>
<!-- Node1&#45;&gt;Node31 -->
<g id="edge55" class="edge">
<title>Node1&#45;&gt;Node31</title>
<path fill="none" stroke="midnightblue" d="M589.51,-511.29C696.68,-508.36 1086.14,-495.88 1206,-467 1208.51,-466.39 1211.07,-465.62 1213.61,-464.75"/>
<polygon fill="midnightblue" stroke="midnightblue" points="1215.06,-467.94 1223.08,-461.03 1212.5,-461.42 1215.06,-467.94"/>
</g>
<!-- Node3 -->
<g id="node3" class="node">
<title>Node3</title>
<g id="a_node3"><a xlink:href="Address_8h.html" target="_top" xlink:title=" ">
<polygon fill="white" stroke="black" points="278,-179.5 278,-198.5 420,-198.5 420,-179.5 278,-179.5"/>
<text text-anchor="middle" x="349" y="-186.5" font-family="Helvetica,sans-Serif" font-size="10.00">boomerang/util/Address.h</text>
</a>
</g>
</g>
<!-- Node2&#45;&gt;Node3 -->
<g id="edge2" class="edge">
<title>Node2&#45;&gt;Node3</title>
<path fill="none" stroke="midnightblue" d="M698.95,-240.86C694.25,-238.65 689.02,-236.47 684,-235 637.87,-221.46 513.57,-206.82 430.05,-198.03"/>
<polygon fill="midnightblue" stroke="midnightblue" points="430.39,-194.55 420.08,-196.99 429.66,-201.51 430.39,-194.55"/>
</g>
<!-- Node10 -->
<g id="node10" class="node">
<title>Node10</title>
<g id="a_node10"><a xlink:title=" ">
<polygon fill="white" stroke="#bfbfbf" points="778,-179.5 778,-198.5 810,-198.5 810,-179.5 778,-179.5"/>
<text text-anchor="middle" x="794" y="-186.5" font-family="Helvetica,sans-Serif" font-size="10.00">list</text>
</a>
</g>
</g>
<!-- Node2&#45;&gt;Node10 -->
<g id="edge11" class="edge">
<title>Node2&#45;&gt;Node10</title>
<path fill="none" stroke="midnightblue" d="M726.32,-240.98C738.87,-231.52 759.35,-216.1 774.5,-204.69"/>
<polygon fill="midnightblue" stroke="midnightblue" points="776.82,-207.32 782.7,-198.51 772.61,-201.73 776.82,-207.32"/>
</g>
<!-- Node11 -->
<g id="node11" class="node">
<title>Node11</title>
<g id="a_node11"><a xlink:title=" ">
<polygon fill="white" stroke="#bfbfbf" points="683,-123.5 683,-142.5 741,-142.5 741,-123.5 683,-123.5"/>
<text text-anchor="middle" x="712" y="-130.5" font-family="Helvetica,sans-Serif" font-size="10.00">memory</text>
</a>
</g>
</g>
<!-- Node2&#45;&gt;Node11 -->
<g id="edge12" class="edge">
<title>Node2&#45;&gt;Node11</title>
<path fill="none" stroke="midnightblue" d="M718.08,-240.82C722.4,-227.52 729.39,-201.29 726,-179 724.63,-170 721.81,-160.33 719.05,-152.26"/>
<polygon fill="midnightblue" stroke="midnightblue" points="722.31,-150.98 715.6,-142.78 715.73,-153.37 722.31,-150.98"/>
</g>
<!-- Node4 -->
<g id="node4" class="node">
<title>Node4</title>
<g id="a_node4"><a xlink:href="BoomerangAPI_8h.html" target="_top" xlink:title=" ">
<polygon fill="white" stroke="black" points="458.5,-56.5 458.5,-86.5 613.5,-86.5 613.5,-56.5 458.5,-56.5"/>
<text text-anchor="start" x="466.5" y="-74.5" font-family="Helvetica,sans-Serif" font-size="10.00">boomerang/core/Boomerang</text>
<text text-anchor="middle" x="536" y="-63.5" font-family="Helvetica,sans-Serif" font-size="10.00">API.h</text>
</a>
</g>
</g>
<!-- Node3&#45;&gt;Node4 -->
<g id="edge3" class="edge">
<title>Node3&#45;&gt;Node4</title>
<path fill="none" stroke="midnightblue" d="M355.6,-179.32C366.33,-165.72 388.81,-139.25 413,-123 433.45,-109.27 458.22,-98.21 480.16,-89.98"/>
<polygon fill="midnightblue" stroke="midnightblue" points="481.49,-93.22 489.69,-86.51 479.1,-86.64 481.49,-93.22"/>
</g>
<!-- Node5 -->
<g id="node5" class="node">
<title>Node5</title>
<g id="a_node5"><a xlink:href="OStream_8h.html" target="_top" xlink:title=" ">
<polygon fill="white" stroke="black" points="175,-123.5 175,-142.5 321,-142.5 321,-123.5 175,-123.5"/>
<text text-anchor="middle" x="248" y="-130.5" font-family="Helvetica,sans-Serif" font-size="10.00">boomerang/util/OStream.h</text>
</a>
</g>
</g>
<!-- Node3&#45;&gt;Node5 -->
<g id="edge4" class="edge">
<title>Node3&#45;&gt;Node5</title>
<path fill="none" stroke="midnightblue" d="M332.77,-179.32C316.65,-170.7 291.7,-157.36 273.04,-147.39"/>
<polygon fill="midnightblue" stroke="midnightblue" points="274.66,-144.28 264.19,-142.65 271.36,-150.46 274.66,-144.28"/>
</g>
<!-- Node3&#45;&gt;Node6 -->
<g id="edge9" class="edge">
<title>Node3&#45;&gt;Node6</title>
<path fill="none" stroke="midnightblue" d="M348.74,-179.31C347.87,-165.7 344.33,-139.21 330,-123 312.95,-103.71 287.22,-91.52 264.23,-83.96"/>
<polygon fill="midnightblue" stroke="midnightblue" points="265.16,-80.59 254.58,-81 263.11,-87.28 265.16,-80.59"/>
</g>
<!-- Node9 -->
<g id="node9" class="node">
<title>Node9</title>
<g id="a_node9"><a xlink:title=" ">
<polygon fill="white" stroke="#bfbfbf" points="421.5,-123.5 421.5,-142.5 474.5,-142.5 474.5,-123.5 421.5,-123.5"/>
<text text-anchor="middle" x="448" y="-130.5" font-family="Helvetica,sans-Serif" font-size="10.00">QString</text>
</a>
</g>
</g>
<!-- Node3&#45;&gt;Node9 -->
<g id="edge10" class="edge">
<title>Node3&#45;&gt;Node9</title>
<path fill="none" stroke="midnightblue" d="M364.91,-179.32C380.64,-170.74 404.94,-157.49 423.21,-147.52"/>
<polygon fill="midnightblue" stroke="midnightblue" points="425.03,-150.52 432.13,-142.65 421.68,-144.37 425.03,-150.52"/>
</g>
<!-- Node5&#45;&gt;Node4 -->
<g id="edge5" class="edge">
<title>Node5&#45;&gt;Node4</title>
<path fill="none" stroke="midnightblue" d="M289.26,-123.48C333.19,-114.4 403.73,-99.83 458.16,-88.58"/>
<polygon fill="midnightblue" stroke="midnightblue" points="459.04,-91.97 468.12,-86.52 457.62,-85.12 459.04,-91.97"/>
</g>
<!-- Node5&#45;&gt;Node6 -->
<g id="edge6" class="edge">
<title>Node5&#45;&gt;Node6</title>
<path fill="none" stroke="midnightblue" d="M242.99,-123.48C237.84,-114.73 229.69,-100.87 223.18,-89.81"/>
<polygon fill="midnightblue" stroke="midnightblue" points="226.09,-87.85 218.01,-81.01 220.06,-91.4 226.09,-87.85"/>
</g>
<!-- Node5&#45;&gt;Node8 -->
<g id="edge8" class="edge">
<title>Node5&#45;&gt;Node8</title>
<path fill="none" stroke="midnightblue" d="M217.63,-123.48C178.15,-112.4 109.48,-93.12 68.83,-81.72"/>
<polygon fill="midnightblue" stroke="midnightblue" points="69.71,-78.33 59.14,-78.99 67.82,-85.07 69.71,-78.33"/>
</g>
<!-- Node7 -->
<g id="node7" class="node">
<title>Node7</title>
<g id="a_node7"><a xlink:title=" ">
<polygon fill="white" stroke="#bfbfbf" points="188,-0.5 188,-19.5 238,-19.5 238,-0.5 188,-0.5"/>
<text text-anchor="middle" x="213" y="-7.5" font-family="Helvetica,sans-Serif" font-size="10.00">cstdint</text>
</a>
</g>
</g>
<!-- Node6&#45;&gt;Node7 -->
<g id="edge7" class="edge">
<title>Node6&#45;&gt;Node7</title>
<path fill="none" stroke="midnightblue" d="M213,-61.98C213,-53.58 213,-40.48 213,-29.66"/>
<polygon fill="midnightblue" stroke="midnightblue" points="216.5,-29.51 213,-19.51 209.5,-29.51 216.5,-29.51"/>
</g>
<!-- Node12&#45;&gt;Node3 -->
<g id="edge27" class="edge">
<title>Node12&#45;&gt;Node3</title>
<path fill="none" stroke="midnightblue" d="M485.9,-307.81C461.35,-286.68 398.3,-232.43 367.08,-205.56"/>
<polygon fill="midnightblue" stroke="midnightblue" points="369.04,-202.63 359.17,-198.76 364.47,-207.93 369.04,-202.63"/>
</g>
<!-- Node13 -->
<g id="node13" class="node">
<title>Node13</title>
<g id="a_node13"><a xlink:href="Exp_8h.html" target="_top" xlink:title=" ">
<polygon fill="white" stroke="black" points="535,-241 535,-260 675,-260 675,-241 535,-241"/>
<text text-anchor="middle" x="605" y="-248" font-family="Helvetica,sans-Serif" font-size="10.00">boomerang/ssl/exp/Exp.h</text>
</a>
</g>
</g>
<!-- Node12&#45;&gt;Node13 -->
<g id="edge14" class="edge">
<title>Node12&#45;&gt;Node13</title>
<path fill="none" stroke="midnightblue" d="M510.7,-307.73C528.92,-296.87 560.2,-278.22 581.7,-265.39"/>
<polygon fill="midnightblue" stroke="midnightblue" points="583.74,-268.26 590.53,-260.13 580.15,-262.24 583.74,-268.26"/>
</g>
<!-- Node19 -->
<g id="node19" class="node">
<title>Node19</title>
<g id="a_node19"><a xlink:title=" ">
<polygon fill="white" stroke="#bfbfbf" points="465.5,-241 465.5,-260 516.5,-260 516.5,-241 465.5,-241"/>
<text text-anchor="middle" x="491" y="-248" font-family="Helvetica,sans-Serif" font-size="10.00">variant</text>
</a>
</g>
</g>
<!-- Node12&#45;&gt;Node19 -->
<g id="edge28" class="edge">
<title>Node12&#45;&gt;Node19</title>
<path fill="none" stroke="midnightblue" d="M495.33,-307.73C494.59,-298.18 493.39,-282.62 492.44,-270.28"/>
<polygon fill="midnightblue" stroke="midnightblue" points="495.92,-269.83 491.66,-260.13 488.94,-270.37 495.92,-269.83"/>
</g>
<!-- Node13&#45;&gt;Node5 -->
<g id="edge20" class="edge">
<title>Node13&#45;&gt;Node5</title>
<path fill="none" stroke="midnightblue" d="M560.35,-240.96C549.15,-238.92 537.15,-236.8 526,-235 469.07,-225.79 313.15,-236.1 269,-199 255.54,-187.69 250.63,-167.69 248.88,-152.85"/>
<polygon fill="midnightblue" stroke="midnightblue" points="252.35,-152.43 248.06,-142.74 245.38,-152.99 252.35,-152.43"/>
</g>
<!-- Node13&#45;&gt;Node9 -->
<g id="edge21" class="edge">
<title>Node13&#45;&gt;Node9</title>
<path fill="none" stroke="midnightblue" d="M547.94,-240.99C520.07,-234.06 488.09,-221.54 467,-199 455.34,-186.54 450.79,-167.3 449.04,-152.99"/>
<polygon fill="midnightblue" stroke="midnightblue" points="452.51,-152.44 448.16,-142.78 445.53,-153.05 452.51,-152.44"/>
</g>
<!-- Node13&#45;&gt;Node10 -->
<g id="edge23" class="edge">
<title>Node13&#45;&gt;Node10</title>
<path fill="none" stroke="midnightblue" d="M632.08,-240.98C668.4,-229.54 732.46,-209.37 768.15,-198.14"/>
<polygon fill="midnightblue" stroke="midnightblue" points="769.34,-201.43 777.83,-195.09 767.24,-194.75 769.34,-201.43"/>
</g>
<!-- Node13&#45;&gt;Node11 -->
<g id="edge24" class="edge">
<title>Node13&#45;&gt;Node11</title>
<path fill="none" stroke="midnightblue" d="M630.56,-240.89C650.34,-232.97 676.98,-219.34 693,-199 703.45,-185.74 708.15,-166.9 710.27,-152.91"/>
<polygon fill="midnightblue" stroke="midnightblue" points="713.75,-153.29 711.47,-142.94 706.8,-152.45 713.75,-153.29"/>
</g>
<!-- Node14 -->
<g id="node14" class="node">
<title>Node14</title>
<g id="a_node14"><a xlink:href="ExpHelp_8h.html" target="_top" xlink:title=" ">
<polygon fill="white" stroke="black" points="828,-179.5 828,-198.5 990,-198.5 990,-179.5 828,-179.5"/>
<text text-anchor="middle" x="909" y="-186.5" font-family="Helvetica,sans-Serif" font-size="10.00">boomerang/ssl/exp/ExpHelp.h</text>
</a>
</g>
</g>
<!-- Node13&#45;&gt;Node14 -->
<g id="edge15" class="edge">
<title>Node13&#45;&gt;Node14</title>
<path fill="none" stroke="midnightblue" d="M648.56,-240.98C703.19,-230.28 796.81,-211.96 855.67,-200.44"/>
<polygon fill="midnightblue" stroke="midnightblue" points="856.38,-203.86 865.53,-198.51 855.04,-197 856.38,-203.86"/>
</g>
<!-- Node13&#45;&gt;Node15 -->
<g id="edge18" class="edge">
<title>Node13&#45;&gt;Node15</title>
<path fill="none" stroke="midnightblue" d="M648.37,-240.97C659.92,-238.85 672.41,-236.7 684,-235 742.51,-226.4 897.09,-209.91 997.74,-199.45"/>
<polygon fill="midnightblue" stroke="midnightblue" points="998.33,-202.91 1007.91,-198.4 997.6,-195.95 998.33,-202.91"/>
</g>
<!-- Node13&#45;&gt;Node16 -->
<g id="edge22" class="edge">
<title>Node13&#45;&gt;Node16</title>
<path fill="none" stroke="midnightblue" d="M561.2,-240.99C549.77,-238.9 537.44,-236.76 526,-235 397.63,-215.27 363.95,-221.28 236,-199 234.74,-198.78 233.46,-198.55 232.16,-198.3"/>
<polygon fill="midnightblue" stroke="midnightblue" points="232.67,-194.84 222.18,-196.27 231.28,-201.7 232.67,-194.84"/>
</g>
<!-- Node17 -->
<g id="node17" class="node">
<title>Node17</title>
<g id="a_node17"><a xlink:title=" ">
<polygon fill="white" stroke="#bfbfbf" points="652,-179.5 652,-198.5 684,-198.5 684,-179.5 652,-179.5"/>
<text text-anchor="middle" x="668" y="-186.5" font-family="Helvetica,sans-Serif" font-size="10.00">set</text>
</a>
</g>
</g>
<!-- Node13&#45;&gt;Node17 -->
<g id="edge25" class="edge">
<title>Node13&#45;&gt;Node17</title>
<path fill="none" stroke="midnightblue" d="M614.03,-240.98C623.76,-231.78 639.46,-216.96 651.42,-205.66"/>
<polygon fill="midnightblue" stroke="midnightblue" points="654.12,-207.92 658.99,-198.51 649.32,-202.83 654.12,-207.92"/>
</g>
<!-- Node18 -->
<g id="node18" class="node">
<title>Node18</title>
<g id="a_node18"><a xlink:title=" ">
<polygon fill="white" stroke="#bfbfbf" points="104.5,-179.5 104.5,-198.5 151.5,-198.5 151.5,-179.5 104.5,-179.5"/>
<text text-anchor="middle" x="128" y="-186.5" font-family="Helvetica,sans-Serif" font-size="10.00">vector</text>
</a>
</g>
</g>
<!-- Node13&#45;&gt;Node18 -->
<g id="edge26" class="edge">
<title>Node13&#45;&gt;Node18</title>
<path fill="none" stroke="midnightblue" d="M562.05,-240.95C550.39,-238.81 537.74,-236.65 526,-235 367.89,-212.73 323.13,-227.9 161.96,-198.85"/>
<polygon fill="midnightblue" stroke="midnightblue" points="162.15,-195.33 151.68,-196.97 160.89,-202.22 162.15,-195.33"/>
</g>
<!-- Node14&#45;&gt;Node4 -->
<g id="edge16" class="edge">
<title>Node14&#45;&gt;Node4</title>
<path fill="none" stroke="midnightblue" d="M890.74,-179.44C861.53,-165.99 802.26,-139.73 750,-123 707.1,-109.26 658.28,-97.46 618.12,-88.73"/>
<polygon fill="midnightblue" stroke="midnightblue" points="618.61,-85.25 608.1,-86.57 617.14,-92.1 618.61,-85.25"/>
</g>
<!-- Node14&#45;&gt;Node11 -->
<g id="edge17" class="edge">
<title>Node14&#45;&gt;Node11</title>
<path fill="none" stroke="midnightblue" d="M877.78,-179.44C843.47,-170.04 788.29,-154.91 751.12,-144.72"/>
<polygon fill="midnightblue" stroke="midnightblue" points="751.71,-141.26 741.14,-141.99 749.86,-148.01 751.71,-141.26"/>
</g>
<!-- Node15&#45;&gt;Node4 -->
<g id="edge19" class="edge">
<title>Node15&#45;&gt;Node4</title>
<path fill="none" stroke="midnightblue" d="M1051.69,-179.48C994.69,-166.85 884.18,-142.56 790,-123 732.76,-111.11 668.13,-98.27 618.39,-88.51"/>
<polygon fill="midnightblue" stroke="midnightblue" points="618.81,-85.03 608.33,-86.54 617.47,-91.9 618.81,-85.03"/>
</g>
<!-- Node21 -->
<g id="node21" class="node">
<title>Node21</title>
<g id="a_node21"><a xlink:href="Assignment_8h.html" target="_top" xlink:title=" ">
<polygon fill="white" stroke="black" points="755.5,-369.5 755.5,-399.5 902.5,-399.5 902.5,-369.5 755.5,-369.5"/>
<text text-anchor="start" x="763.5" y="-387.5" font-family="Helvetica,sans-Serif" font-size="10.00">boomerang/ssl/statements</text>
<text text-anchor="middle" x="829" y="-376.5" font-family="Helvetica,sans-Serif" font-size="10.00">/Assignment.h</text>
</a>
</g>
</g>
<!-- Node20&#45;&gt;Node21 -->
<g id="edge31" class="edge">
<title>Node20&#45;&gt;Node21</title>
<path fill="none" stroke="midnightblue" d="M829,-436.4C829,-428.64 829,-418.81 829,-409.86"/>
<polygon fill="midnightblue" stroke="midnightblue" points="832.5,-409.58 829,-399.58 825.5,-409.58 832.5,-409.58"/>
</g>
<!-- Node22 -->
<g id="node22" class="node">
<title>Node22</title>
<g id="a_node22"><a xlink:href="TypingStatement_8h.html" target="_top" xlink:title=" ">
<polygon fill="white" stroke="black" points="755.5,-302.5 755.5,-332.5 902.5,-332.5 902.5,-302.5 755.5,-302.5"/>
<text text-anchor="start" x="763.5" y="-320.5" font-family="Helvetica,sans-Serif" font-size="10.00">boomerang/ssl/statements</text>
<text text-anchor="middle" x="829" y="-309.5" font-family="Helvetica,sans-Serif" font-size="10.00">/TypingStatement.h</text>
</a>
</g>
</g>
<!-- Node21&#45;&gt;Node22 -->
<g id="edge32" class="edge">
<title>Node21&#45;&gt;Node22</title>
<path fill="none" stroke="midnightblue" d="M829,-369.4C829,-361.64 829,-351.81 829,-342.86"/>
<polygon fill="midnightblue" stroke="midnightblue" points="832.5,-342.58 829,-332.58 825.5,-342.58 832.5,-342.58"/>
</g>
<!-- Node23 -->
<g id="node23" class="node">
<title>Node23</title>
<g id="a_node23"><a xlink:href="Statement_8h.html" target="_top" xlink:title=" ">
<polygon fill="white" stroke="black" points="755.5,-235.5 755.5,-265.5 902.5,-265.5 902.5,-235.5 755.5,-235.5"/>
<text text-anchor="start" x="763.5" y="-253.5" font-family="Helvetica,sans-Serif" font-size="10.00">boomerang/ssl/statements</text>
<text text-anchor="middle" x="829" y="-242.5" font-family="Helvetica,sans-Serif" font-size="10.00">/Statement.h</text>
</a>
</g>
</g>
<!-- Node22&#45;&gt;Node23 -->
<g id="edge33" class="edge">
<title>Node22&#45;&gt;Node23</title>
<path fill="none" stroke="midnightblue" d="M829,-302.4C829,-294.64 829,-284.81 829,-275.86"/>
<polygon fill="midnightblue" stroke="midnightblue" points="832.5,-275.58 829,-265.58 825.5,-275.58 832.5,-275.58"/>
</g>
<!-- Node23&#45;&gt;Node3 -->
<g id="edge35" class="edge">
<title>Node23&#45;&gt;Node3</title>
<path fill="none" stroke="midnightblue" d="M755.27,-236.38C752.14,-235.9 749.04,-235.44 746,-235 637.03,-219.32 510.59,-205.79 430.22,-197.76"/>
<polygon fill="midnightblue" stroke="midnightblue" points="430.46,-194.27 420.16,-196.77 429.77,-201.24 430.46,-194.27"/>
</g>
<!-- Node23&#45;&gt;Node10 -->
<g id="edge36" class="edge">
<title>Node23&#45;&gt;Node10</title>
<path fill="none" stroke="midnightblue" d="M820.71,-235.4C815.78,-227.02 809.49,-216.33 804.25,-207.42"/>
<polygon fill="midnightblue" stroke="midnightblue" points="807.18,-205.5 799.09,-198.66 801.15,-209.05 807.18,-205.5"/>
</g>
<!-- Node23&#45;&gt;Node14 -->
<g id="edge34" class="edge">
<title>Node23&#45;&gt;Node14</title>
<path fill="none" stroke="midnightblue" d="M847.96,-235.4C860.42,-226.13 876.7,-214.03 889.31,-204.65"/>
<polygon fill="midnightblue" stroke="midnightblue" points="891.42,-207.43 897.36,-198.66 887.25,-201.82 891.42,-207.43"/>
</g>
<!-- Node24 -->
<g id="node24" class="node">
<title>Node24</title>
<g id="a_node24"><a xlink:title=" ">
<polygon fill="white" stroke="#bfbfbf" points="1190,-179.5 1190,-198.5 1228,-198.5 1228,-179.5 1190,-179.5"/>
<text text-anchor="middle" x="1209" y="-186.5" font-family="Helvetica,sans-Serif" font-size="10.00">map</text>
</a>
</g>
</g>
<!-- Node23&#45;&gt;Node24 -->
<g id="edge37" class="edge">
<title>Node23&#45;&gt;Node24</title>
<path fill="none" stroke="midnightblue" d="M902.81,-242.57C972.26,-235.22 1079.17,-221.77 1180.09,-198.87"/>
<polygon fill="midnightblue" stroke="midnightblue" points="1180.88,-202.28 1189.84,-196.63 1179.31,-195.46 1180.88,-202.28"/>
</g>
<!-- Node26 -->
<g id="node26" class="node">
<title>Node26</title>
<g id="a_node26"><a xlink:href="GotoStatement_8h.html" target="_top" xlink:title=" ">
<polygon fill="white" stroke="black" points="590.5,-369.5 590.5,-399.5 737.5,-399.5 737.5,-369.5 590.5,-369.5"/>
<text text-anchor="start" x="598.5" y="-387.5" font-family="Helvetica,sans-Serif" font-size="10.00">boomerang/ssl/statements</text>
<text text-anchor="middle" x="664" y="-376.5" font-family="Helvetica,sans-Serif" font-size="10.00">/GotoStatement.h</text>
</a>
</g>
</g>
<!-- Node25&#45;&gt;Node26 -->
<g id="edge39" class="edge">
<title>Node25&#45;&gt;Node26</title>
<path fill="none" stroke="midnightblue" d="M664,-436.4C664,-428.64 664,-418.81 664,-409.86"/>
<polygon fill="midnightblue" stroke="midnightblue" points="667.5,-409.58 664,-399.58 660.5,-409.58 667.5,-409.58"/>
</g>
<!-- Node26&#45;&gt;Node23 -->
<g id="edge40" class="edge">
<title>Node26&#45;&gt;Node23</title>
<path fill="none" stroke="midnightblue" d="M676.65,-369.25C692.23,-352.16 719.97,-323.16 747,-302 761.61,-290.56 778.96,-279.55 793.93,-270.75"/>
<polygon fill="midnightblue" stroke="midnightblue" points="795.99,-273.6 802.9,-265.57 792.49,-267.54 795.99,-273.6"/>
</g>
<!-- Node27&#45;&gt;Node4 -->
<g id="edge43" class="edge">
<title>Node27&#45;&gt;Node4</title>
<path fill="none" stroke="midnightblue" d="M536,-179.32C536,-161.97 536,-122.46 536,-96.66"/>
<polygon fill="midnightblue" stroke="midnightblue" points="539.5,-96.55 536,-86.55 532.5,-96.55 539.5,-96.55"/>
</g>
<!-- Node27&#45;&gt;Node9 -->
<g id="edge44" class="edge">
<title>Node27&#45;&gt;Node9</title>
<path fill="none" stroke="midnightblue" d="M521.86,-179.32C508.13,-170.9 487.06,-157.97 470.94,-148.07"/>
<polygon fill="midnightblue" stroke="midnightblue" points="472.46,-144.9 462.1,-142.65 468.8,-150.87 472.46,-144.9"/>
</g>
<!-- Node27&#45;&gt;Node11 -->
<g id="edge45" class="edge">
<title>Node27&#45;&gt;Node11</title>
<path fill="none" stroke="midnightblue" d="M563.89,-179.44C593.75,-170.28 641.31,-155.69 674.46,-145.52"/>
<polygon fill="midnightblue" stroke="midnightblue" points="675.71,-148.8 684.24,-142.52 673.66,-142.1 675.71,-148.8"/>
</g>
<!-- Node28&#45;&gt;Node3 -->
<g id="edge47" class="edge">
<title>Node28&#45;&gt;Node3</title>
<path fill="none" stroke="midnightblue" d="M291.01,-235.4C302.74,-226.22 318.02,-214.26 329.94,-204.92"/>
<polygon fill="midnightblue" stroke="midnightblue" points="332.22,-207.58 337.94,-198.66 327.91,-202.07 332.22,-207.58"/>
</g>
<!-- Node28&#45;&gt;Node6 -->
<g id="edge48" class="edge">
<title>Node28&#45;&gt;Node6</title>
<path fill="none" stroke="midnightblue" d="M218.15,-241.19C171.86,-232.93 110.82,-218.64 96,-199 62.34,-154.39 140.09,-107.53 184.59,-85.46"/>
<polygon fill="midnightblue" stroke="midnightblue" points="186.31,-88.51 193.79,-81.01 183.27,-82.21 186.31,-88.51"/>
</g>
<!-- Node28&#45;&gt;Node11 -->
<g id="edge49" class="edge">
<title>Node28&#45;&gt;Node11</title>
<path fill="none" stroke="midnightblue" d="M327.51,-247.75C394.64,-244.14 511.29,-233.04 605,-199 622.64,-192.59 665.15,-165.27 690.96,-148.15"/>
<polygon fill="midnightblue" stroke="midnightblue" points="692.95,-151.03 699.33,-142.57 689.07,-145.21 692.95,-151.03"/>
</g>
<!-- Node28&#45;&gt;Node18 -->
<g id="edge50" class="edge">
<title>Node28&#45;&gt;Node18</title>
<path fill="none" stroke="midnightblue" d="M238.64,-235.4C214.31,-225.42 181.97,-212.15 158.54,-202.53"/>
<polygon fill="midnightblue" stroke="midnightblue" points="159.68,-199.22 149.1,-198.66 157.02,-205.69 159.68,-199.22"/>
</g>
</g>
</svg>
