<?xml version="1.0" encoding="UTF-8" standalone="no"?>
<!DOCTYPE svg PUBLIC "-//W3C//DTD SVG 1.1//EN"
 "http://www.w3.org/Graphics/SVG/1.1/DTD/svg11.dtd">
<!-- Generated by graphviz version 2.43.0 (0)
 -->
<!-- Title: RTL.h Pages: 1 -->
<svg width="2655pt" height="308pt"
 viewBox="0.00 0.00 2655.00 308.00" xmlns="http://www.w3.org/2000/svg" xmlns:xlink="http://www.w3.org/1999/xlink">
<g id="graph0" class="graph" transform="scale(1 1) rotate(0) translate(4 304)">
<title>RTL.h</title>
<polygon fill="white" stroke="transparent" points="-4,4 -4,-304 2651,-304 2651,4 -4,4"/>
<!-- Node1 -->
<g id="node1" class="node">
<title>Node1</title>
<g id="a_node1"><a xlink:title=" ">
<polygon fill="#bfbfbf" stroke="black" points="1416,-280.5 1416,-299.5 1460,-299.5 1460,-280.5 1416,-280.5"/>
<text text-anchor="middle" x="1438" y="-287.5" font-family="Helvetica,sans-Serif" font-size="10.00">RTL.h</text>
</a>
</g>
</g>
<!-- Node2 -->
<g id="node2" class="node">
<title>Node2</title>
<g id="a_node2"><a xlink:href="BasicBlock_8cpp.html" target="_top" xlink:title=" ">
<polygon fill="white" stroke="black" points="0,-224.5 0,-243.5 90,-243.5 90,-224.5 0,-224.5"/>
<text text-anchor="middle" x="45" y="-231.5" font-family="Helvetica,sans-Serif" font-size="10.00">BasicBlock.cpp</text>
</a>
</g>
</g>
<!-- Node1&#45;&gt;Node2 -->
<g id="edge1" class="edge">
<title>Node1&#45;&gt;Node2</title>
<path fill="none" stroke="midnightblue" d="M1405.47,-288.49C1226.88,-285.59 364.09,-270.43 99,-244 96.07,-243.71 93.05,-243.35 90.02,-242.96"/>
<polygon fill="midnightblue" stroke="midnightblue" points="1405.49,-291.99 1415.54,-288.65 1405.6,-284.99 1405.49,-291.99"/>
</g>
<!-- Node3 -->
<g id="node3" class="node">
<title>Node3</title>
<g id="a_node3"><a xlink:href="ProcCFG_8cpp.html" target="_top" xlink:title=" ">
<polygon fill="white" stroke="black" points="108,-224.5 108,-243.5 186,-243.5 186,-224.5 108,-224.5"/>
<text text-anchor="middle" x="147" y="-231.5" font-family="Helvetica,sans-Serif" font-size="10.00">ProcCFG.cpp</text>
</a>
</g>
</g>
<!-- Node1&#45;&gt;Node3 -->
<g id="edge2" class="edge">
<title>Node1&#45;&gt;Node3</title>
<path fill="none" stroke="midnightblue" d="M1405.67,-288.48C1235.24,-285.66 439.78,-271.22 195,-244 192.13,-243.68 189.18,-243.29 186.22,-242.85"/>
<polygon fill="midnightblue" stroke="midnightblue" points="1405.7,-291.98 1415.76,-288.65 1405.82,-284.99 1405.7,-291.98"/>
</g>
<!-- Node4 -->
<g id="node4" class="node">
<title>Node4</title>
<g id="a_node4"><a xlink:href="UserProc_8cpp.html" target="_top" xlink:title=" ">
<polygon fill="white" stroke="black" points="204,-224.5 204,-243.5 284,-243.5 284,-224.5 204,-224.5"/>
<text text-anchor="middle" x="244" y="-231.5" font-family="Helvetica,sans-Serif" font-size="10.00">UserProc.cpp</text>
</a>
</g>
</g>
<!-- Node1&#45;&gt;Node4 -->
<g id="edge3" class="edge">
<title>Node1&#45;&gt;Node4</title>
<path fill="none" stroke="midnightblue" d="M1405.53,-289.41C1269.41,-290.78 731.45,-292.63 293,-244 290.08,-243.68 287.07,-243.28 284.04,-242.83"/>
<polygon fill="midnightblue" stroke="midnightblue" points="1405.74,-292.91 1415.7,-289.3 1405.66,-285.91 1405.74,-292.91"/>
</g>
<!-- Node5 -->
<g id="node5" class="node">
<title>Node5</title>
<g id="a_node5"><a xlink:href="Prog_8cpp.html" target="_top" xlink:title=" ">
<polygon fill="white" stroke="black" points="302.5,-224.5 302.5,-243.5 361.5,-243.5 361.5,-224.5 302.5,-224.5"/>
<text text-anchor="middle" x="332" y="-231.5" font-family="Helvetica,sans-Serif" font-size="10.00">Prog.cpp</text>
</a>
</g>
</g>
<!-- Node1&#45;&gt;Node5 -->
<g id="edge4" class="edge">
<title>Node1&#45;&gt;Node5</title>
<path fill="none" stroke="midnightblue" d="M1405.68,-288.44C1250.22,-285.63 578.46,-272.07 371,-244 367.97,-243.59 364.83,-243.06 361.71,-242.45"/>
<polygon fill="midnightblue" stroke="midnightblue" points="1405.9,-291.95 1415.97,-288.63 1406.03,-284.95 1405.9,-291.95"/>
</g>
<!-- Node6 -->
<g id="node6" class="node">
<title>Node6</title>
<g id="a_node6"><a xlink:href="CFGCompressor_8cpp.html" target="_top" xlink:title=" ">
<polygon fill="white" stroke="black" points="380,-224.5 380,-243.5 496,-243.5 496,-224.5 380,-224.5"/>
<text text-anchor="middle" x="438" y="-231.5" font-family="Helvetica,sans-Serif" font-size="10.00">CFGCompressor.cpp</text>
</a>
</g>
</g>
<!-- Node1&#45;&gt;Node6 -->
<g id="edge5" class="edge">
<title>Node1&#45;&gt;Node6</title>
<path fill="none" stroke="midnightblue" d="M1405.61,-288.44C1285.88,-286.15 856.98,-276.07 505,-244 502.08,-243.73 499.09,-243.43 496.07,-243.11"/>
<polygon fill="midnightblue" stroke="midnightblue" points="1405.85,-291.94 1415.91,-288.63 1405.98,-284.94 1405.85,-291.94"/>
</g>
<!-- Node7 -->
<g id="node7" class="node">
<title>Node7</title>
<g id="a_node7"><a xlink:href="IndirectJumpAnalyzer_8cpp.html" target="_top" xlink:title=" ">
<polygon fill="white" stroke="black" points="514.5,-224.5 514.5,-243.5 655.5,-243.5 655.5,-224.5 514.5,-224.5"/>
<text text-anchor="middle" x="585" y="-231.5" font-family="Helvetica,sans-Serif" font-size="10.00">IndirectJumpAnalyzer.cpp</text>
</a>
</g>
</g>
<!-- Node1&#45;&gt;Node7 -->
<g id="edge6" class="edge">
<title>Node1&#45;&gt;Node7</title>
<path fill="none" stroke="midnightblue" d="M1405.77,-287.75C1299.69,-283.49 951.83,-268.47 665,-244 661.94,-243.74 658.81,-243.46 655.65,-243.16"/>
<polygon fill="midnightblue" stroke="midnightblue" points="1405.7,-291.25 1415.83,-288.15 1405.98,-284.25 1405.7,-291.25"/>
</g>
<!-- Node8 -->
<g id="node8" class="node">
<title>Node8</title>
<g id="a_node8"><a xlink:href="LivenessAnalyzer_8cpp.html" target="_top" xlink:title=" ">
<polygon fill="white" stroke="black" points="674,-224.5 674,-243.5 796,-243.5 796,-224.5 674,-224.5"/>
<text text-anchor="middle" x="735" y="-231.5" font-family="Helvetica,sans-Serif" font-size="10.00">LivenessAnalyzer.cpp</text>
</a>
</g>
</g>
<!-- Node1&#45;&gt;Node8 -->
<g id="edge7" class="edge">
<title>Node1&#45;&gt;Node8</title>
<path fill="none" stroke="midnightblue" d="M1405.61,-287.35C1312.25,-282.45 1034.63,-266.9 805,-244 802.07,-243.71 799.08,-243.39 796.06,-243.06"/>
<polygon fill="midnightblue" stroke="midnightblue" points="1405.65,-290.86 1415.82,-287.88 1406.01,-283.87 1405.65,-290.86"/>
</g>
<!-- Node9 -->
<g id="node9" class="node">
<title>Node9</title>
<g id="a_node9"><a xlink:href="ProcDecompiler_8cpp.html" target="_top" xlink:title=" ">
<polygon fill="white" stroke="black" points="814,-224.5 814,-243.5 928,-243.5 928,-224.5 814,-224.5"/>
<text text-anchor="middle" x="871" y="-231.5" font-family="Helvetica,sans-Serif" font-size="10.00">ProcDecompiler.cpp</text>
</a>
</g>
</g>
<!-- Node1&#45;&gt;Node9 -->
<g id="edge8" class="edge">
<title>Node1&#45;&gt;Node9</title>
<path fill="none" stroke="midnightblue" d="M1405.63,-286.61C1325.87,-280.61 1113.53,-263.95 937,-244 934.13,-243.68 931.19,-243.33 928.22,-242.97"/>
<polygon fill="midnightblue" stroke="midnightblue" points="1405.75,-290.13 1415.99,-287.39 1406.28,-283.15 1405.75,-290.13"/>
</g>
<!-- Node10 -->
<g id="node10" class="node">
<title>Node10</title>
<g id="a_node10"><a xlink:href="DecodeResult_8cpp.html" target="_top" xlink:title=" ">
<polygon fill="white" stroke="black" points="946,-224.5 946,-243.5 1050,-243.5 1050,-224.5 946,-224.5"/>
<text text-anchor="middle" x="998" y="-231.5" font-family="Helvetica,sans-Serif" font-size="10.00">DecodeResult.cpp</text>
</a>
</g>
</g>
<!-- Node1&#45;&gt;Node10 -->
<g id="edge9" class="edge">
<title>Node1&#45;&gt;Node10</title>
<path fill="none" stroke="midnightblue" d="M1405.65,-285.47C1340.15,-278.26 1187.17,-261.06 1059,-244 1056.13,-243.62 1053.2,-243.22 1050.23,-242.81"/>
<polygon fill="midnightblue" stroke="midnightblue" points="1405.44,-288.97 1415.76,-286.58 1406.2,-282.01 1405.44,-288.97"/>
</g>
<!-- Node11 -->
<g id="node11" class="node">
<title>Node11</title>
<g id="a_node11"><a xlink:href="DefaultFrontEnd_8cpp.html" target="_top" xlink:title=" ">
<polygon fill="white" stroke="black" points="1068,-224.5 1068,-243.5 1184,-243.5 1184,-224.5 1068,-224.5"/>
<text text-anchor="middle" x="1126" y="-231.5" font-family="Helvetica,sans-Serif" font-size="10.00">DefaultFrontEnd.cpp</text>
</a>
</g>
</g>
<!-- Node1&#45;&gt;Node11 -->
<g id="edge10" class="edge">
<title>Node1&#45;&gt;Node11</title>
<path fill="none" stroke="midnightblue" d="M1405.37,-283.35C1350.54,-273.86 1239.61,-254.66 1175.25,-243.52"/>
<polygon fill="midnightblue" stroke="midnightblue" points="1405.11,-286.86 1415.56,-285.12 1406.31,-279.96 1405.11,-286.86"/>
</g>
<!-- Node12 -->
<g id="node12" class="node">
<title>Node12</title>
<g id="a_node12"><a xlink:href="BranchAnalysisPass_8cpp.html" target="_top" xlink:title=" ">
<polygon fill="white" stroke="black" points="1202,-224.5 1202,-243.5 1336,-243.5 1336,-224.5 1202,-224.5"/>
<text text-anchor="middle" x="1269" y="-231.5" font-family="Helvetica,sans-Serif" font-size="10.00">BranchAnalysisPass.cpp</text>
</a>
</g>
</g>
<!-- Node1&#45;&gt;Node12 -->
<g id="edge11" class="edge">
<title>Node1&#45;&gt;Node12</title>
<path fill="none" stroke="midnightblue" d="M1406.19,-278.84C1374.32,-268.65 1325.82,-253.16 1295.84,-243.58"/>
<polygon fill="midnightblue" stroke="midnightblue" points="1405.32,-282.23 1415.91,-281.94 1407.45,-275.56 1405.32,-282.23"/>
</g>
<!-- Node13 -->
<g id="node13" class="node">
<title>Node13</title>
<g id="a_node13"><a xlink:href="Exp_8cpp.html" target="_top" xlink:title=" ">
<polygon fill="white" stroke="black" points="1354.5,-224.5 1354.5,-243.5 1409.5,-243.5 1409.5,-224.5 1354.5,-224.5"/>
<text text-anchor="middle" x="1382" y="-231.5" font-family="Helvetica,sans-Serif" font-size="10.00">Exp.cpp</text>
</a>
</g>
</g>
<!-- Node1&#45;&gt;Node13 -->
<g id="edge12" class="edge">
<title>Node1&#45;&gt;Node13</title>
<path fill="none" stroke="midnightblue" d="M1421.67,-273.25C1411.74,-263.67 1399.41,-251.79 1391.16,-243.83"/>
<polygon fill="midnightblue" stroke="midnightblue" points="1419.37,-275.9 1429,-280.32 1424.23,-270.86 1419.37,-275.9"/>
</g>
<!-- Node14 -->
<g id="node14" class="node">
<title>Node14</title>
<g id="a_node14"><a xlink:href="RegDB_8h.html" target="_top" xlink:title=" ">
<polygon fill="white" stroke="black" points="1466.5,-224.5 1466.5,-243.5 1525.5,-243.5 1525.5,-224.5 1466.5,-224.5"/>
<text text-anchor="middle" x="1496" y="-231.5" font-family="Helvetica,sans-Serif" font-size="10.00">RegDB.h</text>
</a>
</g>
</g>
<!-- Node1&#45;&gt;Node14 -->
<g id="edge13" class="edge">
<title>Node1&#45;&gt;Node14</title>
<path fill="none" stroke="midnightblue" d="M1454.91,-273.25C1465.2,-263.67 1477.97,-251.79 1486.51,-243.83"/>
<polygon fill="midnightblue" stroke="midnightblue" points="1452.25,-270.95 1447.32,-280.32 1457.02,-276.07 1452.25,-270.95"/>
</g>
<!-- Node18 -->
<g id="node18" class="node">
<title>Node18</title>
<g id="a_node18"><a xlink:href="RTLInstDict_8cpp.html" target="_top" xlink:title=" ">
<polygon fill="white" stroke="black" points="981,-112.5 981,-131.5 1073,-131.5 1073,-112.5 981,-112.5"/>
<text text-anchor="middle" x="1027" y="-119.5" font-family="Helvetica,sans-Serif" font-size="10.00">RTLInstDict.cpp</text>
</a>
</g>
</g>
<!-- Node1&#45;&gt;Node18 -->
<g id="edge34" class="edge">
<title>Node1&#45;&gt;Node18</title>
<path fill="none" stroke="midnightblue" d="M1437.03,-270.13C1435.27,-255.58 1430.53,-235.97 1418,-224 1392.49,-199.63 1165.45,-151.16 1069.5,-131.54"/>
<polygon fill="midnightblue" stroke="midnightblue" points="1433.57,-270.81 1437.89,-280.48 1440.55,-270.22 1433.57,-270.81"/>
</g>
<!-- Node20 -->
<g id="node20" class="node">
<title>Node20</title>
<g id="a_node20"><a xlink:href="CapstoneDecoder_8cpp.html" target="_top" xlink:title=" ">
<polygon fill="white" stroke="black" points="1665.5,-56.5 1665.5,-75.5 1788.5,-75.5 1788.5,-56.5 1665.5,-56.5"/>
<text text-anchor="middle" x="1727" y="-63.5" font-family="Helvetica,sans-Serif" font-size="10.00">CapstoneDecoder.cpp</text>
</a>
</g>
</g>
<!-- Node1&#45;&gt;Node20 -->
<g id="edge38" class="edge">
<title>Node1&#45;&gt;Node20</title>
<path fill="none" stroke="midnightblue" d="M1470.33,-285.38C1521.82,-279.08 1619.46,-264.74 1647,-244 1704.91,-200.38 1721.98,-105.18 1725.96,-75.81"/>
<polygon fill="midnightblue" stroke="midnightblue" points="1469.6,-281.94 1460.08,-286.61 1470.43,-288.9 1469.6,-281.94"/>
</g>
<!-- Node29 -->
<g id="node29" class="node">
<title>Node29</title>
<g id="a_node29"><a xlink:href="PentiumFrontEnd_8cpp.html" target="_top" xlink:title=" ">
<polygon fill="white" stroke="black" points="1578,-112.5 1578,-131.5 1698,-131.5 1698,-112.5 1578,-112.5"/>
<text text-anchor="middle" x="1638" y="-119.5" font-family="Helvetica,sans-Serif" font-size="10.00">PentiumFrontEnd.cpp</text>
</a>
</g>
</g>
<!-- Node1&#45;&gt;Node29 -->
<g id="edge42" class="edge">
<title>Node1&#45;&gt;Node29</title>
<path fill="none" stroke="midnightblue" d="M1470.18,-285.89C1518.86,-280.48 1607.71,-267.58 1628,-244 1656.18,-211.24 1645.64,-153.36 1640.32,-131.59"/>
<polygon fill="midnightblue" stroke="midnightblue" points="1469.73,-282.42 1460.15,-286.96 1470.47,-289.38 1469.73,-282.42"/>
</g>
<!-- Node31 -->
<g id="node31" class="node">
<title>Node31</title>
<g id="a_node31"><a xlink:href="TableEntry_8h.html" target="_top" xlink:title=" ">
<polygon fill="white" stroke="black" points="1543.5,-224.5 1543.5,-243.5 1618.5,-243.5 1618.5,-224.5 1543.5,-224.5"/>
<text text-anchor="middle" x="1581" y="-231.5" font-family="Helvetica,sans-Serif" font-size="10.00">TableEntry.h</text>
</a>
</g>
</g>
<!-- Node1&#45;&gt;Node31 -->
<g id="edge30" class="edge">
<title>Node1&#45;&gt;Node31</title>
<path fill="none" stroke="midnightblue" d="M1469.72,-277.02C1496.55,-266.89 1534.33,-252.62 1558.24,-243.6"/>
<polygon fill="midnightblue" stroke="midnightblue" points="1468.15,-273.87 1460.03,-280.68 1470.62,-280.42 1468.15,-273.87"/>
</g>
<!-- Node33 -->
<g id="node33" class="node">
<title>Node33</title>
<g id="a_node33"><a xlink:href="RTL_8cpp.html" target="_top" xlink:title=" ">
<polygon fill="white" stroke="black" points="1713.5,-224.5 1713.5,-243.5 1768.5,-243.5 1768.5,-224.5 1713.5,-224.5"/>
<text text-anchor="middle" x="1741" y="-231.5" font-family="Helvetica,sans-Serif" font-size="10.00">RTL.cpp</text>
</a>
</g>
</g>
<!-- Node1&#45;&gt;Node33 -->
<g id="edge33" class="edge">
<title>Node1&#45;&gt;Node33</title>
<path fill="none" stroke="midnightblue" d="M1470.11,-283.89C1519.44,-275.95 1616.77,-259.89 1699,-244 1703.69,-243.09 1708.65,-242.08 1713.47,-241.07"/>
<polygon fill="midnightblue" stroke="midnightblue" points="1469.37,-280.47 1460.05,-285.51 1470.48,-287.38 1469.37,-280.47"/>
</g>
<!-- Node34 -->
<g id="node34" class="node">
<title>Node34</title>
<g id="a_node34"><a xlink:href="ExpDotWriter_8cpp.html" target="_top" xlink:title=" ">
<polygon fill="white" stroke="black" points="1787,-224.5 1787,-243.5 1889,-243.5 1889,-224.5 1787,-224.5"/>
<text text-anchor="middle" x="1838" y="-231.5" font-family="Helvetica,sans-Serif" font-size="10.00">ExpDotWriter.cpp</text>
</a>
</g>
</g>
<!-- Node1&#45;&gt;Node34 -->
<g id="edge35" class="edge">
<title>Node1&#45;&gt;Node34</title>
<path fill="none" stroke="midnightblue" d="M1470.37,-284.91C1530.85,-277.21 1665.09,-259.94 1778,-244 1780.92,-243.59 1783.92,-243.16 1786.95,-242.72"/>
<polygon fill="midnightblue" stroke="midnightblue" points="1469.77,-281.45 1460.3,-286.18 1470.66,-288.4 1469.77,-281.45"/>
</g>
<!-- Node35 -->
<g id="node35" class="node">
<title>Node35</title>
<g id="a_node35"><a xlink:href="Log_8cpp.html" target="_top" xlink:title=" ">
<polygon fill="white" stroke="black" points="1907,-224.5 1907,-243.5 1961,-243.5 1961,-224.5 1907,-224.5"/>
<text text-anchor="middle" x="1934" y="-231.5" font-family="Helvetica,sans-Serif" font-size="10.00">Log.cpp</text>
</a>
</g>
</g>
<!-- Node1&#45;&gt;Node35 -->
<g id="edge36" class="edge">
<title>Node1&#45;&gt;Node35</title>
<path fill="none" stroke="midnightblue" d="M1470.44,-287.47C1545.92,-283.56 1738.99,-271.5 1898,-244 1900.92,-243.49 1903.95,-242.88 1906.96,-242.21"/>
<polygon fill="midnightblue" stroke="midnightblue" points="1469.99,-283.99 1460.18,-287.99 1470.34,-290.98 1469.99,-283.99"/>
</g>
<!-- Node36 -->
<g id="node36" class="node">
<title>Node36</title>
<g id="a_node36"><a xlink:href="CCodeGenerator_8cpp.html" target="_top" xlink:title=" ">
<polygon fill="white" stroke="black" points="1979.5,-224.5 1979.5,-243.5 2096.5,-243.5 2096.5,-224.5 1979.5,-224.5"/>
<text text-anchor="middle" x="2038" y="-231.5" font-family="Helvetica,sans-Serif" font-size="10.00">CCodeGenerator.cpp</text>
</a>
</g>
</g>
<!-- Node1&#45;&gt;Node36 -->
<g id="edge37" class="edge">
<title>Node1&#45;&gt;Node36</title>
<path fill="none" stroke="midnightblue" d="M1470.13,-286.81C1553.02,-281.06 1780.86,-264.5 1970,-244 1973.08,-243.67 1976.23,-243.31 1979.42,-242.93"/>
<polygon fill="midnightblue" stroke="midnightblue" points="1469.82,-283.33 1460.08,-287.51 1470.3,-290.31 1469.82,-283.33"/>
</g>
<!-- Node37 -->
<g id="node37" class="node">
<title>Node37</title>
<g id="a_node37"><a xlink:href="PPCFrontEnd_8cpp.html" target="_top" xlink:title=" ">
<polygon fill="white" stroke="black" points="2115,-224.5 2115,-243.5 2213,-243.5 2213,-224.5 2115,-224.5"/>
<text text-anchor="middle" x="2164" y="-231.5" font-family="Helvetica,sans-Serif" font-size="10.00">PPCFrontEnd.cpp</text>
</a>
</g>
</g>
<!-- Node1&#45;&gt;Node37 -->
<g id="edge39" class="edge">
<title>Node1&#45;&gt;Node37</title>
<path fill="none" stroke="midnightblue" d="M1470.28,-287.82C1566.94,-284.07 1862.42,-271.05 2106,-244 2108.94,-243.67 2111.95,-243.31 2114.99,-242.91"/>
<polygon fill="midnightblue" stroke="midnightblue" points="1470.12,-284.32 1460.26,-288.2 1470.39,-291.32 1470.12,-284.32"/>
</g>
<!-- Node38 -->
<g id="node38" class="node">
<title>Node38</title>
<g id="a_node38"><a xlink:href="SPARCFrontEnd_8cpp.html" target="_top" xlink:title=" ">
<polygon fill="white" stroke="black" points="2231,-224.5 2231,-243.5 2343,-243.5 2343,-224.5 2231,-224.5"/>
<text text-anchor="middle" x="2287" y="-231.5" font-family="Helvetica,sans-Serif" font-size="10.00">SPARCFrontEnd.cpp</text>
</a>
</g>
</g>
<!-- Node1&#45;&gt;Node38 -->
<g id="edge40" class="edge">
<title>Node1&#45;&gt;Node38</title>
<path fill="none" stroke="midnightblue" d="M1470.35,-288.07C1577.59,-284.81 1931.1,-272.44 2222,-244 2224.83,-243.72 2227.74,-243.41 2230.66,-243.08"/>
<polygon fill="midnightblue" stroke="midnightblue" points="1470.08,-284.58 1460.19,-288.38 1470.29,-291.58 1470.08,-284.58"/>
</g>
<!-- Node39 -->
<g id="node39" class="node">
<title>Node39</title>
<g id="a_node39"><a xlink:href="ST20FrontEnd_8cpp.html" target="_top" xlink:title=" ">
<polygon fill="white" stroke="black" points="2361,-224.5 2361,-243.5 2465,-243.5 2465,-224.5 2361,-224.5"/>
<text text-anchor="middle" x="2413" y="-231.5" font-family="Helvetica,sans-Serif" font-size="10.00">ST20FrontEnd.cpp</text>
</a>
</g>
</g>
<!-- Node1&#45;&gt;Node39 -->
<g id="edge41" class="edge">
<title>Node1&#45;&gt;Node39</title>
<path fill="none" stroke="midnightblue" d="M1470.53,-288.54C1588.95,-286.63 2008.17,-277.75 2352,-244 2354.88,-243.72 2357.82,-243.39 2360.8,-243.04"/>
<polygon fill="midnightblue" stroke="midnightblue" points="1470.27,-285.05 1460.33,-288.7 1470.38,-292.04 1470.27,-285.05"/>
</g>
<!-- Node40 -->
<g id="node40" class="node">
<title>Node40</title>
<g id="a_node40"><a xlink:href="StringInstructionProcessor_8cpp.html" target="_top" xlink:title=" ">
<polygon fill="white" stroke="black" points="2483,-224.5 2483,-243.5 2647,-243.5 2647,-224.5 2483,-224.5"/>
<text text-anchor="middle" x="2565" y="-231.5" font-family="Helvetica,sans-Serif" font-size="10.00">StringInstructionProcessor.cpp</text>
</a>
</g>
</g>
<!-- Node1&#45;&gt;Node40 -->
<g id="edge43" class="edge">
<title>Node1&#45;&gt;Node40</title>
<path fill="none" stroke="midnightblue" d="M1470.54,-288.24C1598.46,-285.12 2079.21,-272.07 2474,-244 2476.85,-243.8 2479.75,-243.58 2482.68,-243.35"/>
<polygon fill="midnightblue" stroke="midnightblue" points="1470.17,-284.75 1460.26,-288.49 1470.34,-291.75 1470.17,-284.75"/>
</g>
<!-- Node15 -->
<g id="node15" class="node">
<title>Node15</title>
<g id="a_node15"><a xlink:href="RTLInstDict_8h.html" target="_top" xlink:title=" ">
<polygon fill="white" stroke="black" points="1436.5,-168.5 1436.5,-187.5 1517.5,-187.5 1517.5,-168.5 1436.5,-168.5"/>
<text text-anchor="middle" x="1477" y="-175.5" font-family="Helvetica,sans-Serif" font-size="10.00">RTLInstDict.h</text>
</a>
</g>
</g>
<!-- Node14&#45;&gt;Node15 -->
<g id="edge14" class="edge">
<title>Node14&#45;&gt;Node15</title>
<path fill="none" stroke="midnightblue" d="M1489.45,-214.4C1486.28,-205.36 1482.61,-194.94 1480.08,-187.75"/>
<polygon fill="midnightblue" stroke="midnightblue" points="1486.24,-215.81 1492.86,-224.08 1492.85,-213.49 1486.24,-215.81"/>
</g>
<!-- Node30 -->
<g id="node30" class="node">
<title>Node30</title>
<g id="a_node30"><a xlink:href="RegDB_8cpp.html" target="_top" xlink:title=" ">
<polygon fill="white" stroke="black" points="1348,-168.5 1348,-187.5 1418,-187.5 1418,-168.5 1348,-168.5"/>
<text text-anchor="middle" x="1383" y="-175.5" font-family="Helvetica,sans-Serif" font-size="10.00">RegDB.cpp</text>
</a>
</g>
</g>
<!-- Node14&#45;&gt;Node30 -->
<g id="edge29" class="edge">
<title>Node14&#45;&gt;Node30</title>
<path fill="none" stroke="midnightblue" d="M1469,-220.1C1447.89,-210.01 1419.14,-196.27 1400.82,-187.52"/>
<polygon fill="midnightblue" stroke="midnightblue" points="1467.56,-223.29 1478.09,-224.44 1470.58,-216.97 1467.56,-223.29"/>
</g>
<!-- Node16 -->
<g id="node16" class="node">
<title>Node16</title>
<g id="a_node16"><a xlink:href="SSL2Parser_8cpp.html" target="_top" xlink:title=" ">
<polygon fill="white" stroke="black" points="1199.5,-112.5 1199.5,-131.5 1290.5,-131.5 1290.5,-112.5 1199.5,-112.5"/>
<text text-anchor="middle" x="1245" y="-119.5" font-family="Helvetica,sans-Serif" font-size="10.00">SSL2Parser.cpp</text>
</a>
</g>
</g>
<!-- Node15&#45;&gt;Node16 -->
<g id="edge15" class="edge">
<title>Node15&#45;&gt;Node16</title>
<path fill="none" stroke="midnightblue" d="M1430.4,-166.15C1386.56,-155.95 1321.82,-140.88 1281.59,-131.52"/>
<polygon fill="midnightblue" stroke="midnightblue" points="1429.71,-169.59 1440.24,-168.44 1431.29,-162.77 1429.71,-169.59"/>
</g>
<!-- Node17 -->
<g id="node17" class="node">
<title>Node17</title>
<g id="a_node17"><a xlink:href="SSL2ParserDriver_8cpp.html" target="_top" xlink:title=" ">
<polygon fill="white" stroke="black" points="1308.5,-112.5 1308.5,-131.5 1429.5,-131.5 1429.5,-112.5 1308.5,-112.5"/>
<text text-anchor="middle" x="1369" y="-119.5" font-family="Helvetica,sans-Serif" font-size="10.00">SSL2ParserDriver.cpp</text>
</a>
</g>
</g>
<!-- Node15&#45;&gt;Node17 -->
<g id="edge16" class="edge">
<title>Node15&#45;&gt;Node17</title>
<path fill="none" stroke="midnightblue" d="M1450.45,-163.73C1430.45,-153.73 1403.61,-140.31 1386.31,-131.65"/>
<polygon fill="midnightblue" stroke="midnightblue" points="1449.14,-166.98 1459.65,-168.32 1452.27,-160.72 1449.14,-166.98"/>
</g>
<!-- Node15&#45;&gt;Node18 -->
<g id="edge17" class="edge">
<title>Node15&#45;&gt;Node18</title>
<path fill="none" stroke="midnightblue" d="M1426.11,-167.98C1272.61,-146.58 1231.52,-152.02 1082,-132 1079.12,-131.61 1076.16,-131.2 1073.18,-130.76"/>
<polygon fill="midnightblue" stroke="midnightblue" points="1425.99,-171.5 1436.38,-169.43 1426.97,-164.57 1425.99,-171.5"/>
</g>
<!-- Node19 -->
<g id="node19" class="node">
<title>Node19</title>
<g id="a_node19"><a xlink:href="CapstoneDecoder_8h.html" target="_top" xlink:title=" ">
<polygon fill="white" stroke="black" points="1448,-112.5 1448,-131.5 1560,-131.5 1560,-112.5 1448,-112.5"/>
<text text-anchor="middle" x="1504" y="-119.5" font-family="Helvetica,sans-Serif" font-size="10.00">CapstoneDecoder.h</text>
</a>
</g>
</g>
<!-- Node15&#45;&gt;Node19 -->
<g id="edge18" class="edge">
<title>Node15&#45;&gt;Node19</title>
<path fill="none" stroke="midnightblue" d="M1486.01,-158.98C1490.59,-149.82 1495.95,-139.09 1499.62,-131.75"/>
<polygon fill="midnightblue" stroke="midnightblue" points="1482.8,-157.57 1481.46,-168.08 1489.06,-160.7 1482.8,-157.57"/>
</g>
<!-- Node27 -->
<g id="node27" class="node">
<title>Node27</title>
<g id="a_node27"><a xlink:href="ST20Decoder_8h.html" target="_top" xlink:title=" ">
<polygon fill="white" stroke="black" points="1091,-112.5 1091,-131.5 1181,-131.5 1181,-112.5 1091,-112.5"/>
<text text-anchor="middle" x="1136" y="-119.5" font-family="Helvetica,sans-Serif" font-size="10.00">ST20Decoder.h</text>
</a>
</g>
</g>
<!-- Node15&#45;&gt;Node27 -->
<g id="edge26" class="edge">
<title>Node15&#45;&gt;Node27</title>
<path fill="none" stroke="midnightblue" d="M1426.2,-167.91C1320.21,-150.44 1292.03,-148.25 1190,-132 1187.09,-131.54 1184.09,-131.05 1181.07,-130.56"/>
<polygon fill="midnightblue" stroke="midnightblue" points="1425.92,-171.41 1436.36,-169.59 1427.06,-164.5 1425.92,-171.41"/>
</g>
<!-- Node15&#45;&gt;Node29 -->
<g id="edge28" class="edge">
<title>Node15&#45;&gt;Node29</title>
<path fill="none" stroke="midnightblue" d="M1512.26,-165.17C1542.58,-155 1585.57,-140.59 1612.61,-131.52"/>
<polygon fill="midnightblue" stroke="midnightblue" points="1510.88,-161.95 1502.51,-168.44 1513.1,-168.58 1510.88,-161.95"/>
</g>
<!-- Node19&#45;&gt;Node20 -->
<g id="edge19" class="edge">
<title>Node19&#45;&gt;Node20</title>
<path fill="none" stroke="midnightblue" d="M1549.06,-110.09C1591.19,-99.89 1653.24,-84.86 1691.83,-75.52"/>
<polygon fill="midnightblue" stroke="midnightblue" points="1548.23,-106.69 1539.34,-112.44 1549.88,-113.49 1548.23,-106.69"/>
</g>
<!-- Node21 -->
<g id="node21" class="node">
<title>Node21</title>
<g id="a_node21"><a xlink:href="CapstoneX86Decoder_8h.html" target="_top" xlink:title=" ">
<polygon fill="white" stroke="black" points="1367.5,-56.5 1367.5,-75.5 1498.5,-75.5 1498.5,-56.5 1367.5,-56.5"/>
<text text-anchor="middle" x="1433" y="-63.5" font-family="Helvetica,sans-Serif" font-size="10.00">CapstoneX86Decoder.h</text>
</a>
</g>
</g>
<!-- Node19&#45;&gt;Node21 -->
<g id="edge20" class="edge">
<title>Node19&#45;&gt;Node21</title>
<path fill="none" stroke="midnightblue" d="M1484.41,-106.1C1471.63,-96.38 1455.39,-84.03 1444.61,-75.83"/>
<polygon fill="midnightblue" stroke="midnightblue" points="1482.51,-109.06 1492.59,-112.32 1486.75,-103.48 1482.51,-109.06"/>
</g>
<!-- Node23 -->
<g id="node23" class="node">
<title>Node23</title>
<g id="a_node23"><a xlink:href="CapstonePPCDecoder_8h.html" target="_top" xlink:title=" ">
<polygon fill="white" stroke="black" points="1516.5,-56.5 1516.5,-75.5 1647.5,-75.5 1647.5,-56.5 1516.5,-56.5"/>
<text text-anchor="middle" x="1582" y="-63.5" font-family="Helvetica,sans-Serif" font-size="10.00">CapstonePPCDecoder.h</text>
</a>
</g>
</g>
<!-- Node19&#45;&gt;Node23 -->
<g id="edge22" class="edge">
<title>Node19&#45;&gt;Node23</title>
<path fill="none" stroke="midnightblue" d="M1524.77,-106.62C1539.02,-96.76 1557.46,-83.99 1569.5,-75.65"/>
<polygon fill="midnightblue" stroke="midnightblue" points="1522.76,-103.75 1516.53,-112.32 1526.75,-109.51 1522.76,-103.75"/>
</g>
<!-- Node25 -->
<g id="node25" class="node">
<title>Node25</title>
<g id="a_node25"><a xlink:href="CapstoneSPARCDecoder_8h.html" target="_top" xlink:title=" ">
<polygon fill="white" stroke="black" points="1205,-56.5 1205,-75.5 1349,-75.5 1349,-56.5 1205,-56.5"/>
<text text-anchor="middle" x="1277" y="-63.5" font-family="Helvetica,sans-Serif" font-size="10.00">CapstoneSPARCDecoder.h</text>
</a>
</g>
</g>
<!-- Node19&#45;&gt;Node25 -->
<g id="edge24" class="edge">
<title>Node19&#45;&gt;Node25</title>
<path fill="none" stroke="midnightblue" d="M1458.13,-110.09C1415.25,-99.89 1352.08,-84.86 1312.8,-75.52"/>
<polygon fill="midnightblue" stroke="midnightblue" points="1457.49,-113.53 1468.03,-112.44 1459.11,-106.72 1457.49,-113.53"/>
</g>
<!-- Node22 -->
<g id="node22" class="node">
<title>Node22</title>
<g id="a_node22"><a xlink:href="CapstoneX86Decoder_8cpp.html" target="_top" xlink:title=" ">
<polygon fill="white" stroke="black" points="1362,-0.5 1362,-19.5 1504,-19.5 1504,-0.5 1362,-0.5"/>
<text text-anchor="middle" x="1433" y="-7.5" font-family="Helvetica,sans-Serif" font-size="10.00">CapstoneX86Decoder.cpp</text>
</a>
</g>
</g>
<!-- Node21&#45;&gt;Node22 -->
<g id="edge21" class="edge">
<title>Node21&#45;&gt;Node22</title>
<path fill="none" stroke="midnightblue" d="M1433,-45.8C1433,-36.91 1433,-26.78 1433,-19.75"/>
<polygon fill="midnightblue" stroke="midnightblue" points="1429.5,-46.08 1433,-56.08 1436.5,-46.08 1429.5,-46.08"/>
</g>
<!-- Node24 -->
<g id="node24" class="node">
<title>Node24</title>
<g id="a_node24"><a xlink:href="CapstonePPCDecoder_8cpp.html" target="_top" xlink:title=" ">
<polygon fill="white" stroke="black" points="1522,-0.5 1522,-19.5 1664,-19.5 1664,-0.5 1522,-0.5"/>
<text text-anchor="middle" x="1593" y="-7.5" font-family="Helvetica,sans-Serif" font-size="10.00">CapstonePPCDecoder.cpp</text>
</a>
</g>
</g>
<!-- Node23&#45;&gt;Node24 -->
<g id="edge23" class="edge">
<title>Node23&#45;&gt;Node24</title>
<path fill="none" stroke="midnightblue" d="M1585.85,-46.1C1587.68,-37.14 1589.77,-26.86 1591.22,-19.75"/>
<polygon fill="midnightblue" stroke="midnightblue" points="1582.38,-45.59 1583.82,-56.08 1589.24,-46.98 1582.38,-45.59"/>
</g>
<!-- Node26 -->
<g id="node26" class="node">
<title>Node26</title>
<g id="a_node26"><a xlink:href="CapstoneSPARCDecoder_8cpp.html" target="_top" xlink:title=" ">
<polygon fill="white" stroke="black" points="1188.5,-0.5 1188.5,-19.5 1343.5,-19.5 1343.5,-0.5 1188.5,-0.5"/>
<text text-anchor="middle" x="1266" y="-7.5" font-family="Helvetica,sans-Serif" font-size="10.00">CapstoneSPARCDecoder.cpp</text>
</a>
</g>
</g>
<!-- Node25&#45;&gt;Node26 -->
<g id="edge25" class="edge">
<title>Node25&#45;&gt;Node26</title>
<path fill="none" stroke="midnightblue" d="M1273.15,-46.1C1271.32,-37.14 1269.23,-26.86 1267.78,-19.75"/>
<polygon fill="midnightblue" stroke="midnightblue" points="1269.76,-46.98 1275.18,-56.08 1276.62,-45.59 1269.76,-46.98"/>
</g>
<!-- Node28 -->
<g id="node28" class="node">
<title>Node28</title>
<g id="a_node28"><a xlink:href="ST20Decoder_8cpp.html" target="_top" xlink:title=" ">
<polygon fill="white" stroke="black" points="1085.5,-56.5 1085.5,-75.5 1186.5,-75.5 1186.5,-56.5 1085.5,-56.5"/>
<text text-anchor="middle" x="1136" y="-63.5" font-family="Helvetica,sans-Serif" font-size="10.00">ST20Decoder.cpp</text>
</a>
</g>
</g>
<!-- Node27&#45;&gt;Node28 -->
<g id="edge27" class="edge">
<title>Node27&#45;&gt;Node28</title>
<path fill="none" stroke="midnightblue" d="M1136,-101.8C1136,-92.91 1136,-82.78 1136,-75.75"/>
<polygon fill="midnightblue" stroke="midnightblue" points="1132.5,-102.08 1136,-112.08 1139.5,-102.08 1132.5,-102.08"/>
</g>
<!-- Node31&#45;&gt;Node15 -->
<g id="edge31" class="edge">
<title>Node31&#45;&gt;Node15</title>
<path fill="none" stroke="midnightblue" d="M1555.17,-219.59C1535.94,-209.61 1510.26,-196.27 1493.67,-187.65"/>
<polygon fill="midnightblue" stroke="midnightblue" points="1553.8,-222.82 1564.29,-224.32 1557.03,-216.61 1553.8,-222.82"/>
</g>
<!-- Node32 -->
<g id="node32" class="node">
<title>Node32</title>
<g id="a_node32"><a xlink:href="TableEntry_8cpp.html" target="_top" xlink:title=" ">
<polygon fill="white" stroke="black" points="1536,-168.5 1536,-187.5 1622,-187.5 1622,-168.5 1536,-168.5"/>
<text text-anchor="middle" x="1579" y="-175.5" font-family="Helvetica,sans-Serif" font-size="10.00">TableEntry.cpp</text>
</a>
</g>
</g>
<!-- Node31&#45;&gt;Node32 -->
<g id="edge32" class="edge">
<title>Node31&#45;&gt;Node32</title>
<path fill="none" stroke="midnightblue" d="M1580.29,-213.8C1579.96,-204.91 1579.58,-194.78 1579.32,-187.75"/>
<polygon fill="midnightblue" stroke="midnightblue" points="1576.8,-214.22 1580.67,-224.08 1583.8,-213.96 1576.8,-214.22"/>
</g>
</g>
</svg>
