<?xml version="1.0" encoding="UTF-8" standalone="no"?>
<!DOCTYPE svg PUBLIC "-//W3C//DTD SVG 1.1//EN"
 "http://www.w3.org/Graphics/SVG/1.1/DTD/svg11.dtd">
<!-- Generated by graphviz version 2.43.0 (0)
 -->
<!-- Title: RTLInstDict.h Pages: 1 -->
<svg width="757pt" height="386pt"
 viewBox="0.00 0.00 756.69 386.00" xmlns="http://www.w3.org/2000/svg" xmlns:xlink="http://www.w3.org/1999/xlink">
<g id="graph0" class="graph" transform="scale(1 1) rotate(0) translate(4 382)">
<title>RTLInstDict.h</title>
<polygon fill="white" stroke="transparent" points="-4,4 -4,-382 752.69,-382 752.69,4 -4,4"/>
<!-- Node1 -->
<g id="node1" class="node">
<title>Node1</title>
<g id="a_node1"><a xlink:title=" ">
<polygon fill="#bfbfbf" stroke="black" points="362.69,-358.5 362.69,-377.5 443.69,-377.5 443.69,-358.5 362.69,-358.5"/>
<text text-anchor="middle" x="403.19" y="-365.5" font-family="Helvetica,sans-Serif" font-size="10.00">RTLInstDict.h</text>
</a>
</g>
</g>
<!-- Node2 -->
<g id="node2" class="node">
<title>Node2</title>
<g id="a_node2"><a xlink:href="RegDB_8h.html" target="_top" xlink:title=" ">
<polygon fill="white" stroke="black" points="184.19,-297 184.19,-316 318.19,-316 318.19,-297 184.19,-297"/>
<text text-anchor="middle" x="251.19" y="-304" font-family="Helvetica,sans-Serif" font-size="10.00">boomerang/ssl/RegDB.h</text>
</a>
</g>
</g>
<!-- Node1&#45;&gt;Node2 -->
<g id="edge1" class="edge">
<title>Node1&#45;&gt;Node2</title>
<path fill="none" stroke="midnightblue" d="M381.41,-358.48C355.45,-348.31 311.88,-331.26 282.36,-319.7"/>
<polygon fill="midnightblue" stroke="midnightblue" points="283.52,-316.4 272.93,-316.01 280.96,-322.91 283.52,-316.4"/>
</g>
<!-- Node13 -->
<g id="node13" class="node">
<title>Node13</title>
<g id="a_node13"><a xlink:href="Register_8h.html" target="_top" xlink:title=" ">
<polygon fill="white" stroke="black" points="340.69,-179.5 340.69,-198.5 481.69,-198.5 481.69,-179.5 340.69,-179.5"/>
<text text-anchor="middle" x="411.19" y="-186.5" font-family="Helvetica,sans-Serif" font-size="10.00">boomerang/ssl/Register.h</text>
</a>
</g>
</g>
<!-- Node1&#45;&gt;Node13 -->
<g id="edge23" class="edge">
<title>Node1&#45;&gt;Node13</title>
<path fill="none" stroke="midnightblue" d="M403.58,-358.46C404.8,-331.43 408.6,-247.24 410.33,-209.11"/>
<polygon fill="midnightblue" stroke="midnightblue" points="413.83,-209.02 410.79,-198.87 406.84,-208.7 413.83,-209.02"/>
</g>
<!-- Node16 -->
<g id="node16" class="node">
<title>Node16</title>
<g id="a_node16"><a xlink:title=" ">
<polygon fill="white" stroke="#bfbfbf" points="306.19,-235.5 306.19,-254.5 344.19,-254.5 344.19,-235.5 306.19,-235.5"/>
<text text-anchor="middle" x="325.19" y="-242.5" font-family="Helvetica,sans-Serif" font-size="10.00">map</text>
</a>
</g>
</g>
<!-- Node1&#45;&gt;Node16 -->
<g id="edge32" class="edge">
<title>Node1&#45;&gt;Node16</title>
<path fill="none" stroke="midnightblue" d="M397.58,-358.3C384.76,-338.41 353.14,-289.35 336.24,-263.15"/>
<polygon fill="midnightblue" stroke="midnightblue" points="339.11,-261.13 330.75,-254.62 333.23,-264.92 339.11,-261.13"/>
</g>
<!-- Node17 -->
<g id="node17" class="node">
<title>Node17</title>
<g id="a_node17"><a xlink:title=" ">
<polygon fill="white" stroke="#bfbfbf" points="362.19,-235.5 362.19,-254.5 394.19,-254.5 394.19,-235.5 362.19,-235.5"/>
<text text-anchor="middle" x="378.19" y="-242.5" font-family="Helvetica,sans-Serif" font-size="10.00">set</text>
</a>
</g>
</g>
<!-- Node1&#45;&gt;Node17 -->
<g id="edge33" class="edge">
<title>Node1&#45;&gt;Node17</title>
<path fill="none" stroke="midnightblue" d="M401.39,-358.3C397.36,-338.76 387.5,-291.06 382.02,-264.55"/>
<polygon fill="midnightblue" stroke="midnightblue" points="385.42,-263.71 379.97,-254.62 378.57,-265.12 385.42,-263.71"/>
</g>
<!-- Node18 -->
<g id="node18" class="node">
<title>Node18</title>
<g id="a_node18"><a xlink:href="TableEntry_8h.html" target="_top" xlink:title=" ">
<polygon fill="white" stroke="black" points="16.19,-297 16.19,-316 166.19,-316 166.19,-297 16.19,-297"/>
<text text-anchor="middle" x="91.19" y="-304" font-family="Helvetica,sans-Serif" font-size="10.00">boomerang/ssl/TableEntry.h</text>
</a>
</g>
</g>
<!-- Node1&#45;&gt;Node18 -->
<g id="edge24" class="edge">
<title>Node1&#45;&gt;Node18</title>
<path fill="none" stroke="midnightblue" d="M362.4,-359.22C306.93,-348.64 207.56,-329.69 145.73,-317.9"/>
<polygon fill="midnightblue" stroke="midnightblue" points="146.25,-314.44 135.77,-316 144.94,-321.31 146.25,-314.44"/>
</g>
<!-- Node19 -->
<g id="node19" class="node">
<title>Node19</title>
<g id="a_node19"><a xlink:title=" ">
<polygon fill="white" stroke="#bfbfbf" points="450.19,-291.5 450.19,-321.5 572.19,-321.5 572.19,-291.5 450.19,-291.5"/>
<text text-anchor="start" x="458.19" y="-309.5" font-family="Helvetica,sans-Serif" font-size="10.00">boomerang/ssl/parser</text>
<text text-anchor="middle" x="511.19" y="-298.5" font-family="Helvetica,sans-Serif" font-size="10.00">/SSL2Parser.hpp</text>
</a>
</g>
</g>
<!-- Node1&#45;&gt;Node19 -->
<g id="edge26" class="edge">
<title>Node1&#45;&gt;Node19</title>
<path fill="none" stroke="midnightblue" d="M418.66,-358.48C433.77,-350.15 457.27,-337.21 476.8,-326.45"/>
<polygon fill="midnightblue" stroke="midnightblue" points="478.67,-329.41 485.74,-321.52 475.29,-323.28 478.67,-329.41"/>
</g>
<!-- Node20 -->
<g id="node20" class="node">
<title>Node20</title>
<g id="a_node20"><a xlink:href="ByteUtil_8h.html" target="_top" xlink:title=" ">
<polygon fill="white" stroke="black" points="528.69,-179.5 528.69,-198.5 671.69,-198.5 671.69,-179.5 528.69,-179.5"/>
<text text-anchor="middle" x="600.19" y="-186.5" font-family="Helvetica,sans-Serif" font-size="10.00">boomerang/util/ByteUtil.h</text>
</a>
</g>
</g>
<!-- Node1&#45;&gt;Node20 -->
<g id="edge27" class="edge">
<title>Node1&#45;&gt;Node20</title>
<path fill="none" stroke="midnightblue" d="M443.82,-361.99C490.52,-355.37 563.06,-342.13 581.19,-322 609.38,-290.7 607.1,-237.22 603.42,-208.89"/>
<polygon fill="midnightblue" stroke="midnightblue" points="606.84,-208.11 601.89,-198.74 599.92,-209.15 606.84,-208.11"/>
</g>
<!-- Node22 -->
<g id="node22" class="node">
<title>Node22</title>
<g id="a_node22"><a xlink:title=" ">
<polygon fill="white" stroke="#bfbfbf" points="628.69,-297 628.69,-316 675.69,-316 675.69,-297 628.69,-297"/>
<text text-anchor="middle" x="652.19" y="-304" font-family="Helvetica,sans-Serif" font-size="10.00">vector</text>
</a>
</g>
</g>
<!-- Node1&#45;&gt;Node22 -->
<g id="edge34" class="edge">
<title>Node1&#45;&gt;Node22</title>
<path fill="none" stroke="midnightblue" d="M443.71,-360.28C486.54,-352.73 555.82,-339.25 614.19,-322 616.77,-321.24 619.42,-320.38 622.07,-319.48"/>
<polygon fill="midnightblue" stroke="midnightblue" points="623.27,-322.76 631.48,-316.06 620.89,-316.18 623.27,-322.76"/>
</g>
<!-- Node3 -->
<g id="node3" class="node">
<title>Node3</title>
<g id="a_node3"><a xlink:href="RTL_8h.html" target="_top" xlink:title=" ">
<polygon fill="white" stroke="black" points="127.69,-235.5 127.69,-254.5 246.69,-254.5 246.69,-235.5 127.69,-235.5"/>
<text text-anchor="middle" x="187.19" y="-242.5" font-family="Helvetica,sans-Serif" font-size="10.00">boomerang/ssl/RTL.h</text>
</a>
</g>
</g>
<!-- Node2&#45;&gt;Node3 -->
<g id="edge2" class="edge">
<title>Node2&#45;&gt;Node3</title>
<path fill="none" stroke="midnightblue" d="M242.02,-296.98C232.04,-287.7 215.88,-272.67 203.68,-261.33"/>
<polygon fill="midnightblue" stroke="midnightblue" points="206.05,-258.75 196.34,-254.51 201.28,-263.88 206.05,-258.75"/>
</g>
<!-- Node2&#45;&gt;Node13 -->
<g id="edge14" class="edge">
<title>Node2&#45;&gt;Node13</title>
<path fill="none" stroke="midnightblue" d="M254.7,-296.9C261.07,-282.25 275.9,-252.37 297.19,-235 316.42,-219.31 341.79,-208.58 363.72,-201.54"/>
<polygon fill="midnightblue" stroke="midnightblue" points="364.96,-204.82 373.51,-198.56 362.93,-198.12 364.96,-204.82"/>
</g>
<!-- Node2&#45;&gt;Node16 -->
<g id="edge21" class="edge">
<title>Node2&#45;&gt;Node16</title>
<path fill="none" stroke="midnightblue" d="M261.79,-296.98C273.44,-287.61 292.38,-272.38 306.53,-261.01"/>
<polygon fill="midnightblue" stroke="midnightblue" points="309.01,-263.5 314.61,-254.51 304.62,-258.05 309.01,-263.5"/>
</g>
<!-- Node2&#45;&gt;Node17 -->
<g id="edge22" class="edge">
<title>Node2&#45;&gt;Node17</title>
<path fill="none" stroke="midnightblue" d="M269.39,-296.98C291.31,-286.71 328.25,-269.4 352.93,-257.84"/>
<polygon fill="midnightblue" stroke="midnightblue" points="354.47,-260.98 362.04,-253.57 351.5,-254.64 354.47,-260.98"/>
</g>
<!-- Node4 -->
<g id="node4" class="node">
<title>Node4</title>
<g id="a_node4"><a xlink:href="Address_8h.html" target="_top" xlink:title=" ">
<polygon fill="white" stroke="black" points="116.19,-179.5 116.19,-198.5 258.19,-198.5 258.19,-179.5 116.19,-179.5"/>
<text text-anchor="middle" x="187.19" y="-186.5" font-family="Helvetica,sans-Serif" font-size="10.00">boomerang/util/Address.h</text>
</a>
</g>
</g>
<!-- Node3&#45;&gt;Node4 -->
<g id="edge3" class="edge">
<title>Node3&#45;&gt;Node4</title>
<path fill="none" stroke="midnightblue" d="M187.19,-235.08C187.19,-228.01 187.19,-217.86 187.19,-208.99"/>
<polygon fill="midnightblue" stroke="midnightblue" points="190.69,-208.75 187.19,-198.75 183.69,-208.75 190.69,-208.75"/>
</g>
<!-- Node11 -->
<g id="node11" class="node">
<title>Node11</title>
<g id="a_node11"><a xlink:title=" ">
<polygon fill="white" stroke="#bfbfbf" points="66.19,-179.5 66.19,-198.5 98.19,-198.5 98.19,-179.5 66.19,-179.5"/>
<text text-anchor="middle" x="82.19" y="-186.5" font-family="Helvetica,sans-Serif" font-size="10.00">list</text>
</a>
</g>
</g>
<!-- Node3&#45;&gt;Node11 -->
<g id="edge12" class="edge">
<title>Node3&#45;&gt;Node11</title>
<path fill="none" stroke="midnightblue" d="M170.32,-235.32C153.28,-226.56 126.77,-212.92 107.27,-202.9"/>
<polygon fill="midnightblue" stroke="midnightblue" points="108.82,-199.76 98.33,-198.3 105.62,-205.99 108.82,-199.76"/>
</g>
<!-- Node12 -->
<g id="node12" class="node">
<title>Node12</title>
<g id="a_node12"><a xlink:title=" ">
<polygon fill="white" stroke="#bfbfbf" points="287.19,-123.5 287.19,-142.5 345.19,-142.5 345.19,-123.5 287.19,-123.5"/>
<text text-anchor="middle" x="316.19" y="-130.5" font-family="Helvetica,sans-Serif" font-size="10.00">memory</text>
</a>
</g>
</g>
<!-- Node3&#45;&gt;Node12 -->
<g id="edge13" class="edge">
<title>Node3&#45;&gt;Node12</title>
<path fill="none" stroke="midnightblue" d="M207.38,-235.49C224.5,-227.65 249.08,-214.84 267.19,-199 282.92,-185.24 296.83,-165.69 305.77,-151.63"/>
<polygon fill="midnightblue" stroke="midnightblue" points="308.87,-153.26 311.13,-142.91 302.91,-149.6 308.87,-153.26"/>
</g>
<!-- Node5 -->
<g id="node5" class="node">
<title>Node5</title>
<g id="a_node5"><a xlink:href="BoomerangAPI_8h.html" target="_top" xlink:title=" ">
<polygon fill="white" stroke="black" points="180.69,-56.5 180.69,-86.5 335.69,-86.5 335.69,-56.5 180.69,-56.5"/>
<text text-anchor="start" x="188.69" y="-74.5" font-family="Helvetica,sans-Serif" font-size="10.00">boomerang/core/Boomerang</text>
<text text-anchor="middle" x="258.19" y="-63.5" font-family="Helvetica,sans-Serif" font-size="10.00">API.h</text>
</a>
</g>
</g>
<!-- Node4&#45;&gt;Node5 -->
<g id="edge4" class="edge">
<title>Node4&#45;&gt;Node5</title>
<path fill="none" stroke="midnightblue" d="M115.76,-179.53C70.59,-172.54 18.17,-160.83 4.19,-143 -1.29,-136 -1.45,-129.87 4.19,-123 14.96,-109.87 101.47,-94.65 170.58,-84.38"/>
<polygon fill="midnightblue" stroke="midnightblue" points="171.26,-87.82 180.64,-82.9 170.24,-80.9 171.26,-87.82"/>
</g>
<!-- Node6 -->
<g id="node6" class="node">
<title>Node6</title>
<g id="a_node6"><a xlink:href="OStream_8h.html" target="_top" xlink:title=" ">
<polygon fill="white" stroke="black" points="13.19,-123.5 13.19,-142.5 159.19,-142.5 159.19,-123.5 13.19,-123.5"/>
<text text-anchor="middle" x="86.19" y="-130.5" font-family="Helvetica,sans-Serif" font-size="10.00">boomerang/util/OStream.h</text>
</a>
</g>
</g>
<!-- Node4&#45;&gt;Node6 -->
<g id="edge5" class="edge">
<title>Node4&#45;&gt;Node6</title>
<path fill="none" stroke="midnightblue" d="M170.96,-179.32C154.84,-170.7 129.89,-157.36 111.23,-147.39"/>
<polygon fill="midnightblue" stroke="midnightblue" points="112.85,-144.28 102.38,-142.65 109.55,-150.46 112.85,-144.28"/>
</g>
<!-- Node7 -->
<g id="node7" class="node">
<title>Node7</title>
<g id="a_node7"><a xlink:href="Types_8h.html" target="_top" xlink:title=" ">
<polygon fill="white" stroke="black" points="380.69,-62 380.69,-81 511.69,-81 511.69,-62 380.69,-62"/>
<text text-anchor="middle" x="446.19" y="-69" font-family="Helvetica,sans-Serif" font-size="10.00">boomerang/util/Types.h</text>
</a>
</g>
</g>
<!-- Node4&#45;&gt;Node7 -->
<g id="edge10" class="edge">
<title>Node4&#45;&gt;Node7</title>
<path fill="none" stroke="midnightblue" d="M187.08,-179.41C187.39,-165.44 190.14,-137.86 206.19,-123 219.04,-111.1 314.53,-93.63 381.12,-82.67"/>
<polygon fill="midnightblue" stroke="midnightblue" points="381.82,-86.1 391.13,-81.04 380.69,-79.2 381.82,-86.1"/>
</g>
<!-- Node10 -->
<g id="node10" class="node">
<title>Node10</title>
<g id="a_node10"><a xlink:title=" ">
<polygon fill="white" stroke="#bfbfbf" points="215.69,-123.5 215.69,-142.5 268.69,-142.5 268.69,-123.5 215.69,-123.5"/>
<text text-anchor="middle" x="242.19" y="-130.5" font-family="Helvetica,sans-Serif" font-size="10.00">QString</text>
</a>
</g>
</g>
<!-- Node4&#45;&gt;Node10 -->
<g id="edge11" class="edge">
<title>Node4&#45;&gt;Node10</title>
<path fill="none" stroke="midnightblue" d="M196.27,-179.08C204.36,-171.14 216.39,-159.34 226.1,-149.8"/>
<polygon fill="midnightblue" stroke="midnightblue" points="228.59,-152.25 233.28,-142.75 223.69,-147.26 228.59,-152.25"/>
</g>
<!-- Node6&#45;&gt;Node5 -->
<g id="edge6" class="edge">
<title>Node6&#45;&gt;Node5</title>
<path fill="none" stroke="midnightblue" d="M110.83,-123.48C136.09,-114.74 176.07,-100.91 208.02,-89.86"/>
<polygon fill="midnightblue" stroke="midnightblue" points="209.35,-93.1 217.65,-86.52 207.06,-86.48 209.35,-93.1"/>
</g>
<!-- Node6&#45;&gt;Node7 -->
<g id="edge7" class="edge">
<title>Node6&#45;&gt;Node7</title>
<path fill="none" stroke="midnightblue" d="M137.77,-123.48C203,-112.69 315.17,-94.15 384.76,-82.65"/>
<polygon fill="midnightblue" stroke="midnightblue" points="385.41,-86.09 394.71,-81.01 384.27,-79.19 385.41,-86.09"/>
</g>
<!-- Node9 -->
<g id="node9" class="node">
<title>Node9</title>
<g id="a_node9"><a xlink:title=" ">
<polygon fill="white" stroke="#bfbfbf" points="63.19,-62 63.19,-81 109.19,-81 109.19,-62 63.19,-62"/>
<text text-anchor="middle" x="86.19" y="-69" font-family="Helvetica,sans-Serif" font-size="10.00">cstdio</text>
</a>
</g>
</g>
<!-- Node6&#45;&gt;Node9 -->
<g id="edge9" class="edge">
<title>Node6&#45;&gt;Node9</title>
<path fill="none" stroke="midnightblue" d="M86.19,-123.48C86.19,-115.08 86.19,-101.98 86.19,-91.16"/>
<polygon fill="midnightblue" stroke="midnightblue" points="89.69,-91.01 86.19,-81.01 82.69,-91.01 89.69,-91.01"/>
</g>
<!-- Node8 -->
<g id="node8" class="node">
<title>Node8</title>
<g id="a_node8"><a xlink:title=" ">
<polygon fill="white" stroke="#bfbfbf" points="421.19,-0.5 421.19,-19.5 471.19,-19.5 471.19,-0.5 421.19,-0.5"/>
<text text-anchor="middle" x="446.19" y="-7.5" font-family="Helvetica,sans-Serif" font-size="10.00">cstdint</text>
</a>
</g>
</g>
<!-- Node7&#45;&gt;Node8 -->
<g id="edge8" class="edge">
<title>Node7&#45;&gt;Node8</title>
<path fill="none" stroke="midnightblue" d="M446.19,-61.98C446.19,-53.58 446.19,-40.48 446.19,-29.66"/>
<polygon fill="midnightblue" stroke="midnightblue" points="449.69,-29.51 446.19,-19.51 442.69,-29.51 449.69,-29.51"/>
</g>
<!-- Node13&#45;&gt;Node5 -->
<g id="edge15" class="edge">
<title>Node13&#45;&gt;Node5</title>
<path fill="none" stroke="midnightblue" d="M405.03,-179.09C395.4,-165.63 375.64,-139.91 354.19,-123 338.22,-110.41 318.64,-99.45 301.33,-90.99"/>
<polygon fill="midnightblue" stroke="midnightblue" points="302.53,-87.69 291.99,-86.56 299.52,-94.01 302.53,-87.69"/>
</g>
<!-- Node13&#45;&gt;Node7 -->
<g id="edge16" class="edge">
<title>Node13&#45;&gt;Node7</title>
<path fill="none" stroke="midnightblue" d="M423.69,-179.3C434.06,-171.25 448.08,-158.24 454.19,-143 460.91,-126.24 457.31,-105.55 453,-90.93"/>
<polygon fill="midnightblue" stroke="midnightblue" points="456.21,-89.48 449.73,-81.1 449.57,-91.69 456.21,-89.48"/>
</g>
<!-- Node13&#45;&gt;Node10 -->
<g id="edge17" class="edge">
<title>Node13&#45;&gt;Node10</title>
<path fill="none" stroke="midnightblue" d="M384.41,-179.44C355.86,-170.32 310.46,-155.81 278.65,-145.65"/>
<polygon fill="midnightblue" stroke="midnightblue" points="279.43,-142.23 268.84,-142.52 277.3,-148.89 279.43,-142.23"/>
</g>
<!-- Node13&#45;&gt;Node12 -->
<g id="edge18" class="edge">
<title>Node13&#45;&gt;Node12</title>
<path fill="none" stroke="midnightblue" d="M395.93,-179.32C380.97,-170.82 357.94,-157.73 340.46,-147.8"/>
<polygon fill="midnightblue" stroke="midnightblue" points="341.84,-144.55 331.42,-142.65 338.38,-150.64 341.84,-144.55"/>
</g>
<!-- Node14 -->
<g id="node14" class="node">
<title>Node14</title>
<g id="a_node14"><a xlink:title=" ">
<polygon fill="white" stroke="#bfbfbf" points="401.19,-123.5 401.19,-142.5 445.19,-142.5 445.19,-123.5 401.19,-123.5"/>
<text text-anchor="middle" x="423.19" y="-130.5" font-family="Helvetica,sans-Serif" font-size="10.00">string</text>
</a>
</g>
</g>
<!-- Node13&#45;&gt;Node14 -->
<g id="edge19" class="edge">
<title>Node13&#45;&gt;Node14</title>
<path fill="none" stroke="midnightblue" d="M413.17,-179.08C414.76,-171.93 417.05,-161.64 419.04,-152.69"/>
<polygon fill="midnightblue" stroke="midnightblue" points="422.49,-153.27 421.25,-142.75 415.66,-151.75 422.49,-153.27"/>
</g>
<!-- Node15 -->
<g id="node15" class="node">
<title>Node15</title>
<g id="a_node15"><a xlink:title=" ">
<polygon fill="white" stroke="#bfbfbf" points="501.69,-123.5 501.69,-142.5 570.69,-142.5 570.69,-123.5 501.69,-123.5"/>
<text text-anchor="middle" x="536.19" y="-130.5" font-family="Helvetica,sans-Serif" font-size="10.00">type_traits</text>
</a>
</g>
</g>
<!-- Node13&#45;&gt;Node15 -->
<g id="edge20" class="edge">
<title>Node13&#45;&gt;Node15</title>
<path fill="none" stroke="midnightblue" d="M431,-179.44C451.48,-170.6 483.67,-156.69 507.06,-146.59"/>
<polygon fill="midnightblue" stroke="midnightblue" points="508.68,-149.7 516.48,-142.52 505.91,-143.27 508.68,-149.7"/>
</g>
<!-- Node18&#45;&gt;Node3 -->
<g id="edge25" class="edge">
<title>Node18&#45;&gt;Node3</title>
<path fill="none" stroke="midnightblue" d="M104.95,-296.98C120.56,-287.3 146.25,-271.37 164.77,-259.89"/>
<polygon fill="midnightblue" stroke="midnightblue" points="166.81,-262.75 173.46,-254.51 163.12,-256.8 166.81,-262.75"/>
</g>
<!-- Node20&#45;&gt;Node5 -->
<g id="edge28" class="edge">
<title>Node20&#45;&gt;Node5</title>
<path fill="none" stroke="midnightblue" d="M600.25,-179.3C599.83,-165.18 596.79,-137.38 580.19,-123 571.31,-115.3 438.25,-96.32 345.99,-83.94"/>
<polygon fill="midnightblue" stroke="midnightblue" points="346.45,-80.47 336.07,-82.62 345.52,-87.41 346.45,-80.47"/>
</g>
<!-- Node20&#45;&gt;Node7 -->
<g id="edge29" class="edge">
<title>Node20&#45;&gt;Node7</title>
<path fill="none" stroke="midnightblue" d="M605.95,-179.06C613.84,-165.58 625.67,-139.82 613.19,-123 592.17,-94.68 555.71,-81.67 522.22,-75.91"/>
<polygon fill="midnightblue" stroke="midnightblue" points="522.35,-72.39 511.94,-74.35 521.3,-79.31 522.35,-72.39"/>
</g>
<!-- Node20&#45;&gt;Node15 -->
<g id="edge31" class="edge">
<title>Node20&#45;&gt;Node15</title>
<path fill="none" stroke="midnightblue" d="M589.91,-179.32C580.35,-171.26 565.91,-159.08 554.41,-149.37"/>
<polygon fill="midnightblue" stroke="midnightblue" points="556.56,-146.61 546.66,-142.83 552.05,-151.96 556.56,-146.61"/>
</g>
<!-- Node21 -->
<g id="node21" class="node">
<title>Node21</title>
<g id="a_node21"><a xlink:title=" ">
<polygon fill="white" stroke="#bfbfbf" points="665.69,-123.5 665.69,-142.5 748.69,-142.5 748.69,-123.5 665.69,-123.5"/>
<text text-anchor="middle" x="707.19" y="-130.5" font-family="Helvetica,sans-Serif" font-size="10.00">initializer_list</text>
</a>
</g>
</g>
<!-- Node20&#45;&gt;Node21 -->
<g id="edge30" class="edge">
<title>Node20&#45;&gt;Node21</title>
<path fill="none" stroke="midnightblue" d="M617.38,-179.32C634.54,-170.66 661.14,-157.24 680.94,-147.25"/>
<polygon fill="midnightblue" stroke="midnightblue" points="682.69,-150.28 690.04,-142.65 679.54,-144.04 682.69,-150.28"/>
</g>
</g>
</svg>
