<?xml version="1.0" encoding="UTF-8" standalone="no"?>
<!DOCTYPE svg PUBLIC "-//W3C//DTD SVG 1.1//EN"
 "http://www.w3.org/Graphics/SVG/1.1/DTD/svg11.dtd">
<!-- Generated by graphviz version 2.43.0 (0)
 -->
<!-- Title: RTLInstDict.cpp Pages: 1 -->
<svg width="1579pt" height="542pt"
 viewBox="0.00 0.00 1579.00 542.00" xmlns="http://www.w3.org/2000/svg" xmlns:xlink="http://www.w3.org/1999/xlink">
<g id="graph0" class="graph" transform="scale(1 1) rotate(0) translate(4 538)">
<title>RTLInstDict.cpp</title>
<polygon fill="white" stroke="transparent" points="-4,4 -4,-538 1575,-538 1575,4 -4,4"/>
<!-- Node1 -->
<g id="node1" class="node">
<title>Node1</title>
<g id="a_node1"><a xlink:title=" ">
<polygon fill="#bfbfbf" stroke="black" points="492.5,-514.5 492.5,-533.5 584.5,-533.5 584.5,-514.5 492.5,-514.5"/>
<text text-anchor="middle" x="538.5" y="-521.5" font-family="Helvetica,sans-Serif" font-size="10.00">RTLInstDict.cpp</text>
</a>
</g>
</g>
<!-- Node2 -->
<g id="node2" class="node">
<title>Node2</title>
<g id="a_node2"><a xlink:href="RTLInstDict_8h.html" target="_top" xlink:title=" ">
<polygon fill="white" stroke="black" points="1061,-386 1061,-405 1142,-405 1142,-386 1061,-386"/>
<text text-anchor="middle" x="1101.5" y="-393" font-family="Helvetica,sans-Serif" font-size="10.00">RTLInstDict.h</text>
</a>
</g>
</g>
<!-- Node1&#45;&gt;Node2 -->
<g id="edge1" class="edge">
<title>Node1&#45;&gt;Node2</title>
<path fill="none" stroke="midnightblue" d="M584.53,-518.8C645.64,-512.66 756.64,-499.57 849.5,-478 930.41,-459.2 1022.62,-426.35 1069.89,-408.64"/>
<polygon fill="midnightblue" stroke="midnightblue" points="1071.15,-411.91 1079.27,-405.1 1068.68,-405.36 1071.15,-411.91"/>
</g>
<!-- Node4 -->
<g id="node4" class="node">
<title>Node4</title>
<g id="a_node4"><a xlink:href="RTL_8h.html" target="_top" xlink:title=" ">
<polygon fill="white" stroke="black" points="662,-252 662,-271 781,-271 781,-252 662,-252"/>
<text text-anchor="middle" x="721.5" y="-259" font-family="Helvetica,sans-Serif" font-size="10.00">boomerang/ssl/RTL.h</text>
</a>
</g>
</g>
<!-- Node1&#45;&gt;Node4 -->
<g id="edge36" class="edge">
<title>Node1&#45;&gt;Node4</title>
<path fill="none" stroke="midnightblue" d="M572.3,-514.39C590.89,-507.74 612.39,-496.45 623.5,-478 630.61,-466.2 628.77,-459.73 623.5,-447 614.84,-426.09 596.62,-431.71 587.5,-411 569.93,-371.12 559.58,-348.75 584.5,-313 595.27,-297.56 639.66,-283.03 675.03,-273.56"/>
<polygon fill="midnightblue" stroke="midnightblue" points="675.95,-276.94 684.74,-271.03 674.18,-270.17 675.95,-276.94"/>
</g>
<!-- Node24 -->
<g id="node24" class="node">
<title>Node24</title>
<g id="a_node24"><a xlink:href="Binary_8h.html" target="_top" xlink:title=" ">
<polygon fill="white" stroke="black" points="462.5,-453 462.5,-472 614.5,-472 614.5,-453 462.5,-453"/>
<text text-anchor="middle" x="538.5" y="-460" font-family="Helvetica,sans-Serif" font-size="10.00">boomerang/ssl/exp/Binary.h</text>
</a>
</g>
</g>
<!-- Node1&#45;&gt;Node24 -->
<g id="edge37" class="edge">
<title>Node1&#45;&gt;Node24</title>
<path fill="none" stroke="midnightblue" d="M538.5,-514.48C538.5,-506.08 538.5,-492.98 538.5,-482.16"/>
<polygon fill="midnightblue" stroke="midnightblue" points="542,-482.01 538.5,-472.01 535,-482.01 542,-482.01"/>
</g>
<!-- Node30 -->
<g id="node30" class="node">
<title>Node30</title>
<g id="a_node30"><a xlink:href="Const_8h.html" target="_top" xlink:title=" ">
<polygon fill="white" stroke="black" points="142,-319 142,-338 291,-338 291,-319 142,-319"/>
<text text-anchor="middle" x="216.5" y="-326" font-family="Helvetica,sans-Serif" font-size="10.00">boomerang/ssl/exp/Const.h</text>
</a>
</g>
</g>
<!-- Node1&#45;&gt;Node30 -->
<g id="edge52" class="edge">
<title>Node1&#45;&gt;Node30</title>
<path fill="none" stroke="midnightblue" d="M492.45,-522.55C417.33,-520.8 273.29,-512.85 238.5,-478 203.9,-443.34 208.24,-379.54 213,-348.07"/>
<polygon fill="midnightblue" stroke="midnightblue" points="216.48,-348.49 214.7,-338.04 209.58,-347.32 216.48,-348.49"/>
</g>
<!-- Node32 -->
<g id="node32" class="node">
<title>Node32</title>
<g id="a_node32"><a xlink:href="Location_8h.html" target="_top" xlink:title=" ">
<polygon fill="white" stroke="black" points="765,-386 765,-405 928,-405 928,-386 765,-386"/>
<text text-anchor="middle" x="846.5" y="-393" font-family="Helvetica,sans-Serif" font-size="10.00">boomerang/ssl/exp/Location.h</text>
</a>
</g>
</g>
<!-- Node1&#45;&gt;Node32 -->
<g id="edge56" class="edge">
<title>Node1&#45;&gt;Node32</title>
<path fill="none" stroke="midnightblue" d="M584.62,-521.92C657.11,-519.25 793.03,-509.99 827.5,-478 844.61,-462.12 847.73,-434.08 847.68,-415.39"/>
<polygon fill="midnightblue" stroke="midnightblue" points="851.17,-415.03 847.33,-405.15 844.17,-415.26 851.17,-415.03"/>
</g>
<!-- Node33 -->
<g id="node33" class="node">
<title>Node33</title>
<g id="a_node33"><a xlink:href="Terminal_8h.html" target="_top" xlink:title=" ">
<polygon fill="white" stroke="black" points="280.5,-453 280.5,-472 444.5,-472 444.5,-453 280.5,-453"/>
<text text-anchor="middle" x="362.5" y="-460" font-family="Helvetica,sans-Serif" font-size="10.00">boomerang/ssl/exp/Terminal.h</text>
</a>
</g>
</g>
<!-- Node1&#45;&gt;Node33 -->
<g id="edge59" class="edge">
<title>Node1&#45;&gt;Node33</title>
<path fill="none" stroke="midnightblue" d="M513.28,-514.48C482.83,-504.18 431.45,-486.81 397.26,-475.25"/>
<polygon fill="midnightblue" stroke="midnightblue" points="398.26,-471.9 387.67,-472.01 396.02,-478.53 398.26,-471.9"/>
</g>
<!-- Node34 -->
<g id="node34" class="node">
<title>Node34</title>
<g id="a_node34"><a xlink:href="SSL2ParserDriver_8h.html" target="_top" xlink:title=" ">
<polygon fill="white" stroke="black" points="1349.5,-246.5 1349.5,-276.5 1471.5,-276.5 1471.5,-246.5 1349.5,-246.5"/>
<text text-anchor="start" x="1357.5" y="-264.5" font-family="Helvetica,sans-Serif" font-size="10.00">boomerang/ssl/parser</text>
<text text-anchor="middle" x="1410.5" y="-253.5" font-family="Helvetica,sans-Serif" font-size="10.00">/SSL2ParserDriver.h</text>
</a>
</g>
</g>
<!-- Node1&#45;&gt;Node34 -->
<g id="edge61" class="edge">
<title>Node1&#45;&gt;Node34</title>
<path fill="none" stroke="midnightblue" d="M584.72,-519.85C656.17,-514.44 797.55,-501.63 915.5,-478 1022.41,-456.58 1047.17,-442.68 1151.5,-411 1244.03,-382.9 1281.99,-403.13 1358.5,-344 1378,-328.93 1392.23,-304.34 1400.83,-286.11"/>
<polygon fill="midnightblue" stroke="midnightblue" points="1404.14,-287.29 1405.02,-276.73 1397.75,-284.43 1404.14,-287.29"/>
</g>
<!-- Node36 -->
<g id="node36" class="node">
<title>Node36</title>
<g id="a_node36"><a xlink:href="Assign_8h.html" target="_top" xlink:title=" ">
<polygon fill="white" stroke="black" points="671,-447.5 671,-477.5 818,-477.5 818,-447.5 671,-447.5"/>
<text text-anchor="start" x="679" y="-465.5" font-family="Helvetica,sans-Serif" font-size="10.00">boomerang/ssl/statements</text>
<text text-anchor="middle" x="744.5" y="-454.5" font-family="Helvetica,sans-Serif" font-size="10.00">/Assign.h</text>
</a>
</g>
</g>
<!-- Node1&#45;&gt;Node36 -->
<g id="edge66" class="edge">
<title>Node1&#45;&gt;Node36</title>
<path fill="none" stroke="midnightblue" d="M568.01,-514.48C598.65,-505.63 647.39,-491.55 685.89,-480.43"/>
<polygon fill="midnightblue" stroke="midnightblue" points="687.31,-483.66 695.95,-477.52 685.37,-476.94 687.31,-483.66"/>
</g>
<!-- Node40 -->
<g id="node40" class="node">
<title>Node40</title>
<g id="a_node40"><a xlink:href="FloatType_8h.html" target="_top" xlink:title=" ">
<polygon fill="white" stroke="black" points="0,-447.5 0,-477.5 113,-477.5 113,-447.5 0,-447.5"/>
<text text-anchor="start" x="8" y="-465.5" font-family="Helvetica,sans-Serif" font-size="10.00">boomerang/ssl/type</text>
<text text-anchor="middle" x="56.5" y="-454.5" font-family="Helvetica,sans-Serif" font-size="10.00">/FloatType.h</text>
</a>
</g>
</g>
<!-- Node1&#45;&gt;Node40 -->
<g id="edge74" class="edge">
<title>Node1&#45;&gt;Node40</title>
<path fill="none" stroke="midnightblue" d="M492.44,-518.22C419.7,-510.56 273.82,-494.66 150.5,-478 141.61,-476.8 132.25,-475.45 123.04,-474.08"/>
<polygon fill="midnightblue" stroke="midnightblue" points="123.53,-470.62 113.12,-472.59 122.48,-477.54 123.53,-470.62"/>
</g>
<!-- Node42 -->
<g id="node42" class="node">
<title>Node42</title>
<g id="a_node42"><a xlink:href="IntegerType_8h.html" target="_top" xlink:title=" ">
<polygon fill="white" stroke="black" points="73,-380.5 73,-410.5 186,-410.5 186,-380.5 73,-380.5"/>
<text text-anchor="start" x="81" y="-398.5" font-family="Helvetica,sans-Serif" font-size="10.00">boomerang/ssl/type</text>
<text text-anchor="middle" x="129.5" y="-387.5" font-family="Helvetica,sans-Serif" font-size="10.00">/IntegerType.h</text>
</a>
</g>
</g>
<!-- Node1&#45;&gt;Node42 -->
<g id="edge81" class="edge">
<title>Node1&#45;&gt;Node42</title>
<path fill="none" stroke="midnightblue" d="M492.25,-520.86C411.8,-516.49 249.97,-504.59 200.5,-478 175.36,-464.48 155.03,-438.26 142.67,-419.2"/>
<polygon fill="midnightblue" stroke="midnightblue" points="145.51,-417.14 137.25,-410.5 139.57,-420.84 145.51,-417.14"/>
</g>
<!-- Node43 -->
<g id="node43" class="node">
<title>Node43</title>
<g id="a_node43"><a xlink:href="Log_8h.html" target="_top" xlink:title=" ">
<polygon fill="white" stroke="black" points="376,-246.5 376,-276.5 485,-276.5 485,-246.5 376,-246.5"/>
<text text-anchor="start" x="384" y="-264.5" font-family="Helvetica,sans-Serif" font-size="10.00">boomerang/util/log</text>
<text text-anchor="middle" x="430.5" y="-253.5" font-family="Helvetica,sans-Serif" font-size="10.00">/Log.h</text>
</a>
</g>
</g>
<!-- Node1&#45;&gt;Node43 -->
<g id="edge83" class="edge">
<title>Node1&#45;&gt;Node43</title>
<path fill="none" stroke="midnightblue" d="M492.24,-522.11C423.44,-519.7 299.23,-510.8 271.5,-478 213.13,-408.97 335.15,-320.48 397.21,-281.92"/>
<polygon fill="midnightblue" stroke="midnightblue" points="399.2,-284.8 405.9,-276.6 395.55,-278.83 399.2,-284.8"/>
</g>
<!-- Node3 -->
<g id="node3" class="node">
<title>Node3</title>
<g id="a_node3"><a xlink:href="RegDB_8h.html" target="_top" xlink:title=" ">
<polygon fill="white" stroke="black" points="1180.5,-319 1180.5,-338 1314.5,-338 1314.5,-319 1180.5,-319"/>
<text text-anchor="middle" x="1247.5" y="-326" font-family="Helvetica,sans-Serif" font-size="10.00">boomerang/ssl/RegDB.h</text>
</a>
</g>
</g>
<!-- Node2&#45;&gt;Node3 -->
<g id="edge2" class="edge">
<title>Node2&#45;&gt;Node3</title>
<path fill="none" stroke="midnightblue" d="M1120.89,-385.87C1145.98,-374.7 1189.89,-355.15 1218.84,-342.26"/>
<polygon fill="midnightblue" stroke="midnightblue" points="1220.32,-345.43 1228.03,-338.17 1217.47,-339.04 1220.32,-345.43"/>
</g>
<!-- Node14 -->
<g id="node14" class="node">
<title>Node14</title>
<g id="a_node14"><a xlink:href="Register_8h.html" target="_top" xlink:title=" ">
<polygon fill="white" stroke="black" points="1062,-185 1062,-204 1203,-204 1203,-185 1062,-185"/>
<text text-anchor="middle" x="1132.5" y="-192" font-family="Helvetica,sans-Serif" font-size="10.00">boomerang/ssl/Register.h</text>
</a>
</g>
</g>
<!-- Node2&#45;&gt;Node14 -->
<g id="edge24" class="edge">
<title>Node2&#45;&gt;Node14</title>
<path fill="none" stroke="midnightblue" d="M1142.23,-391.19C1200.01,-385.55 1301.25,-371.88 1323.5,-344 1332.09,-333.23 1330.22,-325.03 1323.5,-313 1291.47,-255.69 1218.77,-222.9 1172.87,-207.19"/>
<polygon fill="midnightblue" stroke="midnightblue" points="1173.82,-203.82 1163.22,-204.01 1171.62,-210.47 1173.82,-203.82"/>
</g>
<!-- Node17 -->
<g id="node17" class="node">
<title>Node17</title>
<g id="a_node17"><a xlink:title=" ">
<polygon fill="white" stroke="#bfbfbf" points="1223.5,-185 1223.5,-204 1261.5,-204 1261.5,-185 1223.5,-185"/>
<text text-anchor="middle" x="1242.5" y="-192" font-family="Helvetica,sans-Serif" font-size="10.00">map</text>
</a>
</g>
</g>
<!-- Node2&#45;&gt;Node17 -->
<g id="edge33" class="edge">
<title>Node2&#45;&gt;Node17</title>
<path fill="none" stroke="midnightblue" d="M1142.08,-391.89C1203.4,-387 1315.11,-374.11 1339.5,-344 1376.74,-298.03 1303.47,-237.44 1264.57,-210.05"/>
<polygon fill="midnightblue" stroke="midnightblue" points="1266.18,-206.9 1255.96,-204.12 1262.22,-212.67 1266.18,-206.9"/>
</g>
<!-- Node18 -->
<g id="node18" class="node">
<title>Node18</title>
<g id="a_node18"><a xlink:title=" ">
<polygon fill="white" stroke="#bfbfbf" points="1007.5,-185 1007.5,-204 1039.5,-204 1039.5,-185 1007.5,-185"/>
<text text-anchor="middle" x="1023.5" y="-192" font-family="Helvetica,sans-Serif" font-size="10.00">set</text>
</a>
</g>
</g>
<!-- Node2&#45;&gt;Node18 -->
<g id="edge34" class="edge">
<title>Node2&#45;&gt;Node18</title>
<path fill="none" stroke="midnightblue" d="M1080.98,-385.84C1064.45,-377.68 1042.27,-363.73 1031.5,-344 1008.78,-302.39 1014.54,-244.07 1019.61,-214.42"/>
<polygon fill="midnightblue" stroke="midnightblue" points="1023.12,-214.71 1021.52,-204.23 1016.24,-213.41 1023.12,-214.71"/>
</g>
<!-- Node19 -->
<g id="node19" class="node">
<title>Node19</title>
<g id="a_node19"><a xlink:href="TableEntry_8h.html" target="_top" xlink:title=" ">
<polygon fill="white" stroke="black" points="796.5,-319 796.5,-338 946.5,-338 946.5,-319 796.5,-319"/>
<text text-anchor="middle" x="871.5" y="-326" font-family="Helvetica,sans-Serif" font-size="10.00">boomerang/ssl/TableEntry.h</text>
</a>
</g>
</g>
<!-- Node2&#45;&gt;Node19 -->
<g id="edge25" class="edge">
<title>Node2&#45;&gt;Node19</title>
<path fill="none" stroke="midnightblue" d="M1070.96,-385.87C1029.95,-374.28 957,-353.66 911.6,-340.83"/>
<polygon fill="midnightblue" stroke="midnightblue" points="912.38,-337.42 901.8,-338.06 910.47,-344.15 912.38,-337.42"/>
</g>
<!-- Node20 -->
<g id="node20" class="node">
<title>Node20</title>
<g id="a_node20"><a xlink:title=" ">
<polygon fill="white" stroke="#bfbfbf" points="1040.5,-313.5 1040.5,-343.5 1162.5,-343.5 1162.5,-313.5 1040.5,-313.5"/>
<text text-anchor="start" x="1048.5" y="-331.5" font-family="Helvetica,sans-Serif" font-size="10.00">boomerang/ssl/parser</text>
<text text-anchor="middle" x="1101.5" y="-320.5" font-family="Helvetica,sans-Serif" font-size="10.00">/SSL2Parser.hpp</text>
</a>
</g>
</g>
<!-- Node2&#45;&gt;Node20 -->
<g id="edge27" class="edge">
<title>Node2&#45;&gt;Node20</title>
<path fill="none" stroke="midnightblue" d="M1101.5,-385.73C1101.5,-377.54 1101.5,-364.92 1101.5,-353.71"/>
<polygon fill="midnightblue" stroke="midnightblue" points="1105,-353.59 1101.5,-343.59 1098,-353.59 1105,-353.59"/>
</g>
<!-- Node21 -->
<g id="node21" class="node">
<title>Node21</title>
<g id="a_node21"><a xlink:href="ByteUtil_8h.html" target="_top" xlink:title=" ">
<polygon fill="white" stroke="black" points="1428,-185 1428,-204 1571,-204 1571,-185 1428,-185"/>
<text text-anchor="middle" x="1499.5" y="-192" font-family="Helvetica,sans-Serif" font-size="10.00">boomerang/util/ByteUtil.h</text>
</a>
</g>
</g>
<!-- Node2&#45;&gt;Node21 -->
<g id="edge28" class="edge">
<title>Node2&#45;&gt;Node21</title>
<path fill="none" stroke="midnightblue" d="M1142.16,-390.43C1193.71,-384.38 1284.77,-370.76 1358.5,-344 1416.65,-322.9 1443.12,-326.29 1480.5,-277 1494.33,-258.77 1498.33,-232.12 1499.37,-214.31"/>
<polygon fill="midnightblue" stroke="midnightblue" points="1502.87,-214.17 1499.69,-204.07 1495.88,-213.95 1502.87,-214.17"/>
</g>
<!-- Node23 -->
<g id="node23" class="node">
<title>Node23</title>
<g id="a_node23"><a xlink:title=" ">
<polygon fill="white" stroke="#bfbfbf" points="324,-185 324,-204 371,-204 371,-185 324,-185"/>
<text text-anchor="middle" x="347.5" y="-192" font-family="Helvetica,sans-Serif" font-size="10.00">vector</text>
</a>
</g>
</g>
<!-- Node2&#45;&gt;Node23 -->
<g id="edge35" class="edge">
<title>Node2&#45;&gt;Node23</title>
<path fill="none" stroke="midnightblue" d="M1060.93,-390.62C987.51,-383.17 835.73,-365.65 787.5,-344 767.62,-335.08 769.67,-321.27 749.5,-313 670.4,-280.58 430.9,-333.22 366.5,-277 348.74,-261.5 345.86,-232.91 346.13,-214.05"/>
<polygon fill="midnightblue" stroke="midnightblue" points="349.63,-214.15 346.59,-204 342.64,-213.84 349.63,-214.15"/>
</g>
<!-- Node3&#45;&gt;Node4 -->
<g id="edge3" class="edge">
<title>Node3&#45;&gt;Node4</title>
<path fill="none" stroke="midnightblue" d="M1206.6,-318.96C1195.27,-316.8 1182.94,-314.63 1171.5,-313 1003.11,-289.04 958.66,-302.53 790.5,-277 783.26,-275.9 775.64,-274.52 768.21,-273.06"/>
<polygon fill="midnightblue" stroke="midnightblue" points="768.74,-269.6 758.24,-271.02 767.34,-276.45 768.74,-269.6"/>
</g>
<!-- Node3&#45;&gt;Node14 -->
<g id="edge15" class="edge">
<title>Node3&#45;&gt;Node14</title>
<path fill="none" stroke="midnightblue" d="M1239.95,-318.84C1221.03,-297.11 1171.29,-240.02 1146.69,-211.79"/>
<polygon fill="midnightblue" stroke="midnightblue" points="1149.13,-209.26 1139.92,-204.02 1143.85,-213.86 1149.13,-209.26"/>
</g>
<!-- Node3&#45;&gt;Node17 -->
<g id="edge22" class="edge">
<title>Node3&#45;&gt;Node17</title>
<path fill="none" stroke="midnightblue" d="M1247.17,-318.84C1246.37,-297.67 1244.3,-242.95 1243.2,-214.03"/>
<polygon fill="midnightblue" stroke="midnightblue" points="1246.7,-213.88 1242.82,-204.02 1239.7,-214.15 1246.7,-213.88"/>
</g>
<!-- Node3&#45;&gt;Node18 -->
<g id="edge23" class="edge">
<title>Node3&#45;&gt;Node18</title>
<path fill="none" stroke="midnightblue" d="M1232.8,-318.84C1194.74,-296.41 1092.72,-236.29 1046.65,-209.14"/>
<polygon fill="midnightblue" stroke="midnightblue" points="1048.35,-206.08 1037.96,-204.02 1044.8,-212.11 1048.35,-206.08"/>
</g>
<!-- Node5 -->
<g id="node5" class="node">
<title>Node5</title>
<g id="a_node5"><a xlink:href="Address_8h.html" target="_top" xlink:title=" ">
<polygon fill="white" stroke="black" points="427.5,-185 427.5,-204 569.5,-204 569.5,-185 427.5,-185"/>
<text text-anchor="middle" x="498.5" y="-192" font-family="Helvetica,sans-Serif" font-size="10.00">boomerang/util/Address.h</text>
</a>
</g>
</g>
<!-- Node4&#45;&gt;Node5 -->
<g id="edge4" class="edge">
<title>Node4&#45;&gt;Node5</title>
<path fill="none" stroke="midnightblue" d="M691.89,-251.87C652.21,-240.3 581.69,-219.75 537.66,-206.91"/>
<polygon fill="midnightblue" stroke="midnightblue" points="538.46,-203.5 527.88,-204.06 536.5,-210.22 538.46,-203.5"/>
</g>
<!-- Node12 -->
<g id="node12" class="node">
<title>Node12</title>
<g id="a_node12"><a xlink:title=" ">
<polygon fill="white" stroke="#bfbfbf" points="739.5,-185 739.5,-204 771.5,-204 771.5,-185 739.5,-185"/>
<text text-anchor="middle" x="755.5" y="-192" font-family="Helvetica,sans-Serif" font-size="10.00">list</text>
</a>
</g>
</g>
<!-- Node4&#45;&gt;Node12 -->
<g id="edge13" class="edge">
<title>Node4&#45;&gt;Node12</title>
<path fill="none" stroke="midnightblue" d="M726.09,-251.73C731.23,-241.89 739.72,-225.66 746.26,-213.16"/>
<polygon fill="midnightblue" stroke="midnightblue" points="749.45,-214.61 750.99,-204.13 743.25,-211.37 749.45,-214.61"/>
</g>
<!-- Node13 -->
<g id="node13" class="node">
<title>Node13</title>
<g id="a_node13"><a xlink:title=" ">
<polygon fill="white" stroke="#bfbfbf" points="809.5,-123.5 809.5,-142.5 867.5,-142.5 867.5,-123.5 809.5,-123.5"/>
<text text-anchor="middle" x="838.5" y="-130.5" font-family="Helvetica,sans-Serif" font-size="10.00">memory</text>
</a>
</g>
</g>
<!-- Node4&#45;&gt;Node13 -->
<g id="edge14" class="edge">
<title>Node4&#45;&gt;Node13</title>
<path fill="none" stroke="midnightblue" d="M733,-251.85C745.37,-242.27 765.31,-226.07 780.5,-210 798.23,-191.25 815.82,-167.24 826.9,-151.28"/>
<polygon fill="midnightblue" stroke="midnightblue" points="829.86,-153.14 832.62,-142.91 824.09,-149.19 829.86,-153.14"/>
</g>
<!-- Node6 -->
<g id="node6" class="node">
<title>Node6</title>
<g id="a_node6"><a xlink:href="BoomerangAPI_8h.html" target="_top" xlink:title=" ">
<polygon fill="white" stroke="black" points="632,-56.5 632,-86.5 787,-86.5 787,-56.5 632,-56.5"/>
<text text-anchor="start" x="640" y="-74.5" font-family="Helvetica,sans-Serif" font-size="10.00">boomerang/core/Boomerang</text>
<text text-anchor="middle" x="709.5" y="-63.5" font-family="Helvetica,sans-Serif" font-size="10.00">API.h</text>
</a>
</g>
</g>
<!-- Node5&#45;&gt;Node6 -->
<g id="edge5" class="edge">
<title>Node5&#45;&gt;Node6</title>
<path fill="none" stroke="midnightblue" d="M502.25,-184.73C509.07,-169.83 524.9,-139.57 547.5,-123 569.3,-107.01 596.29,-95.99 621.95,-88.44"/>
<polygon fill="midnightblue" stroke="midnightblue" points="623.02,-91.78 631.7,-85.71 621.13,-85.04 623.02,-91.78"/>
</g>
<!-- Node7 -->
<g id="node7" class="node">
<title>Node7</title>
<g id="a_node7"><a xlink:href="OStream_8h.html" target="_top" xlink:title=" ">
<polygon fill="white" stroke="black" points="315.5,-123.5 315.5,-142.5 461.5,-142.5 461.5,-123.5 315.5,-123.5"/>
<text text-anchor="middle" x="388.5" y="-130.5" font-family="Helvetica,sans-Serif" font-size="10.00">boomerang/util/OStream.h</text>
</a>
</g>
</g>
<!-- Node5&#45;&gt;Node7 -->
<g id="edge6" class="edge">
<title>Node5&#45;&gt;Node7</title>
<path fill="none" stroke="midnightblue" d="M482.74,-184.98C464.52,-175.12 434.33,-158.79 413.03,-147.27"/>
<polygon fill="midnightblue" stroke="midnightblue" points="414.69,-144.19 404.23,-142.51 411.36,-150.35 414.69,-144.19"/>
</g>
<!-- Node8 -->
<g id="node8" class="node">
<title>Node8</title>
<g id="a_node8"><a xlink:href="Types_8h.html" target="_top" xlink:title=" ">
<polygon fill="white" stroke="black" points="424,-62 424,-81 555,-81 555,-62 424,-62"/>
<text text-anchor="middle" x="489.5" y="-69" font-family="Helvetica,sans-Serif" font-size="10.00">boomerang/util/Types.h</text>
</a>
</g>
</g>
<!-- Node5&#45;&gt;Node8 -->
<g id="edge11" class="edge">
<title>Node5&#45;&gt;Node8</title>
<path fill="none" stroke="midnightblue" d="M497.85,-184.8C496.41,-165.35 492.88,-117.99 490.91,-91.4"/>
<polygon fill="midnightblue" stroke="midnightblue" points="494.37,-90.84 490.14,-81.12 487.39,-91.36 494.37,-90.84"/>
</g>
<!-- Node11 -->
<g id="node11" class="node">
<title>Node11</title>
<g id="a_node11"><a xlink:title=" ">
<polygon fill="white" stroke="#bfbfbf" points="556,-123.5 556,-142.5 609,-142.5 609,-123.5 556,-123.5"/>
<text text-anchor="middle" x="582.5" y="-130.5" font-family="Helvetica,sans-Serif" font-size="10.00">QString</text>
</a>
</g>
</g>
<!-- Node5&#45;&gt;Node11 -->
<g id="edge12" class="edge">
<title>Node5&#45;&gt;Node11</title>
<path fill="none" stroke="midnightblue" d="M510.54,-184.98C524.01,-175.43 546.07,-159.81 562.22,-148.37"/>
<polygon fill="midnightblue" stroke="midnightblue" points="564.35,-151.15 570.49,-142.51 560.3,-145.43 564.35,-151.15"/>
</g>
<!-- Node7&#45;&gt;Node6 -->
<g id="edge7" class="edge">
<title>Node7&#45;&gt;Node6</title>
<path fill="none" stroke="midnightblue" d="M434.49,-123.48C483.76,-114.34 563.05,-99.64 623.87,-88.37"/>
<polygon fill="midnightblue" stroke="midnightblue" points="624.65,-91.79 633.85,-86.52 623.38,-84.9 624.65,-91.79"/>
</g>
<!-- Node7&#45;&gt;Node8 -->
<g id="edge8" class="edge">
<title>Node7&#45;&gt;Node8</title>
<path fill="none" stroke="midnightblue" d="M402.97,-123.48C419.47,-113.75 446.68,-97.73 466.18,-86.24"/>
<polygon fill="midnightblue" stroke="midnightblue" points="468.22,-89.1 475.06,-81.01 464.66,-83.07 468.22,-89.1"/>
</g>
<!-- Node10 -->
<g id="node10" class="node">
<title>Node10</title>
<g id="a_node10"><a xlink:title=" ">
<polygon fill="white" stroke="#bfbfbf" points="359.5,-62 359.5,-81 405.5,-81 405.5,-62 359.5,-62"/>
<text text-anchor="middle" x="382.5" y="-69" font-family="Helvetica,sans-Serif" font-size="10.00">cstdio</text>
</a>
</g>
</g>
<!-- Node7&#45;&gt;Node10 -->
<g id="edge10" class="edge">
<title>Node7&#45;&gt;Node10</title>
<path fill="none" stroke="midnightblue" d="M387.64,-123.48C386.79,-115.08 385.47,-101.98 384.38,-91.16"/>
<polygon fill="midnightblue" stroke="midnightblue" points="387.84,-90.61 383.36,-81.01 380.88,-91.31 387.84,-90.61"/>
</g>
<!-- Node9 -->
<g id="node9" class="node">
<title>Node9</title>
<g id="a_node9"><a xlink:title=" ">
<polygon fill="white" stroke="#bfbfbf" points="464.5,-0.5 464.5,-19.5 514.5,-19.5 514.5,-0.5 464.5,-0.5"/>
<text text-anchor="middle" x="489.5" y="-7.5" font-family="Helvetica,sans-Serif" font-size="10.00">cstdint</text>
</a>
</g>
</g>
<!-- Node8&#45;&gt;Node9 -->
<g id="edge9" class="edge">
<title>Node8&#45;&gt;Node9</title>
<path fill="none" stroke="midnightblue" d="M489.5,-61.98C489.5,-53.58 489.5,-40.48 489.5,-29.66"/>
<polygon fill="midnightblue" stroke="midnightblue" points="493,-29.51 489.5,-19.51 486,-29.51 493,-29.51"/>
</g>
<!-- Node14&#45;&gt;Node6 -->
<g id="edge16" class="edge">
<title>Node14&#45;&gt;Node6</title>
<path fill="none" stroke="midnightblue" d="M1105.08,-184.99C1061.31,-171.47 972.89,-144.43 897.5,-123 856.35,-111.3 809.92,-98.82 773.5,-89.2"/>
<polygon fill="midnightblue" stroke="midnightblue" points="774.07,-85.73 763.5,-86.56 772.28,-92.5 774.07,-85.73"/>
</g>
<!-- Node14&#45;&gt;Node8 -->
<g id="edge17" class="edge">
<title>Node14&#45;&gt;Node8</title>
<path fill="none" stroke="midnightblue" d="M1086.94,-184.98C1031.46,-174.29 941.25,-155.82 909.5,-143 893.6,-136.58 892.68,-128.68 876.5,-123 847.84,-112.95 669.52,-92.21 565.22,-80.68"/>
<polygon fill="midnightblue" stroke="midnightblue" points="565.38,-77.18 555.05,-79.56 564.61,-84.13 565.38,-77.18"/>
</g>
<!-- Node14&#45;&gt;Node11 -->
<g id="edge18" class="edge">
<title>Node14&#45;&gt;Node11</title>
<path fill="none" stroke="midnightblue" d="M1087.27,-184.95C1074.75,-182.78 1061.12,-180.61 1048.5,-179 861.52,-155.08 809.47,-173.7 619.19,-142.82"/>
<polygon fill="midnightblue" stroke="midnightblue" points="619.57,-139.34 609.14,-141.17 618.43,-146.25 619.57,-139.34"/>
</g>
<!-- Node14&#45;&gt;Node13 -->
<g id="edge19" class="edge">
<title>Node14&#45;&gt;Node13</title>
<path fill="none" stroke="midnightblue" d="M1089.4,-184.93C1039.38,-174.97 954.43,-157.97 881.5,-143 880.24,-142.74 878.96,-142.48 877.66,-142.21"/>
<polygon fill="midnightblue" stroke="midnightblue" points="878.14,-138.73 867.64,-140.13 876.72,-145.59 878.14,-138.73"/>
</g>
<!-- Node15 -->
<g id="node15" class="node">
<title>Node15</title>
<g id="a_node15"><a xlink:title=" ">
<polygon fill="white" stroke="#bfbfbf" points="1165.5,-123.5 1165.5,-142.5 1209.5,-142.5 1209.5,-123.5 1165.5,-123.5"/>
<text text-anchor="middle" x="1187.5" y="-130.5" font-family="Helvetica,sans-Serif" font-size="10.00">string</text>
</a>
</g>
</g>
<!-- Node14&#45;&gt;Node15 -->
<g id="edge20" class="edge">
<title>Node14&#45;&gt;Node15</title>
<path fill="none" stroke="midnightblue" d="M1140.38,-184.98C1148.79,-175.87 1162.32,-161.24 1172.73,-149.98"/>
<polygon fill="midnightblue" stroke="midnightblue" points="1175.42,-152.23 1179.63,-142.51 1170.28,-147.48 1175.42,-152.23"/>
</g>
<!-- Node16 -->
<g id="node16" class="node">
<title>Node16</title>
<g id="a_node16"><a xlink:title=" ">
<polygon fill="white" stroke="#bfbfbf" points="1263,-123.5 1263,-142.5 1332,-142.5 1332,-123.5 1263,-123.5"/>
<text text-anchor="middle" x="1297.5" y="-130.5" font-family="Helvetica,sans-Serif" font-size="10.00">type_traits</text>
</a>
</g>
</g>
<!-- Node14&#45;&gt;Node16 -->
<g id="edge21" class="edge">
<title>Node14&#45;&gt;Node16</title>
<path fill="none" stroke="midnightblue" d="M1156.14,-184.98C1184.44,-174.77 1232.03,-157.61 1264.09,-146.05"/>
<polygon fill="midnightblue" stroke="midnightblue" points="1265.68,-149.19 1273.9,-142.51 1263.31,-142.61 1265.68,-149.19"/>
</g>
<!-- Node19&#45;&gt;Node4 -->
<g id="edge26" class="edge">
<title>Node19&#45;&gt;Node4</title>
<path fill="none" stroke="midnightblue" d="M851.58,-318.87C825.81,-307.7 780.68,-288.15 750.95,-275.26"/>
<polygon fill="midnightblue" stroke="midnightblue" points="752.07,-271.93 741.5,-271.17 749.29,-278.35 752.07,-271.93"/>
</g>
<!-- Node21&#45;&gt;Node6 -->
<g id="edge29" class="edge">
<title>Node21&#45;&gt;Node6</title>
<path fill="none" stroke="midnightblue" d="M1490.09,-184.82C1472.49,-169.2 1432.72,-136.7 1392.5,-123 1284.77,-86.32 956.27,-76.26 797.39,-73.52"/>
<polygon fill="midnightblue" stroke="midnightblue" points="797.23,-70.01 787.18,-73.35 797.12,-77.01 797.23,-70.01"/>
</g>
<!-- Node21&#45;&gt;Node8 -->
<g id="edge30" class="edge">
<title>Node21&#45;&gt;Node8</title>
<path fill="none" stroke="midnightblue" d="M1481.36,-184.95C1443.01,-166.95 1356,-126.47 1341.5,-123 1186.13,-85.82 782.76,-99.6 623.5,-87 604.62,-85.51 584.28,-83.51 565.29,-81.47"/>
<polygon fill="midnightblue" stroke="midnightblue" points="565.52,-77.98 555.2,-80.37 564.76,-84.94 565.52,-77.98"/>
</g>
<!-- Node21&#45;&gt;Node16 -->
<g id="edge32" class="edge">
<title>Node21&#45;&gt;Node16</title>
<path fill="none" stroke="midnightblue" d="M1470.56,-184.98C1435.23,-174.57 1375.37,-156.94 1336.14,-145.38"/>
<polygon fill="midnightblue" stroke="midnightblue" points="1336.97,-141.98 1326.39,-142.51 1334.99,-148.69 1336.97,-141.98"/>
</g>
<!-- Node22 -->
<g id="node22" class="node">
<title>Node22</title>
<g id="a_node22"><a xlink:title=" ">
<polygon fill="white" stroke="#bfbfbf" points="1458,-123.5 1458,-142.5 1541,-142.5 1541,-123.5 1458,-123.5"/>
<text text-anchor="middle" x="1499.5" y="-130.5" font-family="Helvetica,sans-Serif" font-size="10.00">initializer_list</text>
</a>
</g>
</g>
<!-- Node21&#45;&gt;Node22 -->
<g id="edge31" class="edge">
<title>Node21&#45;&gt;Node22</title>
<path fill="none" stroke="midnightblue" d="M1499.5,-184.98C1499.5,-176.58 1499.5,-163.48 1499.5,-152.66"/>
<polygon fill="midnightblue" stroke="midnightblue" points="1503,-152.51 1499.5,-142.51 1496,-152.51 1503,-152.51"/>
</g>
<!-- Node25 -->
<g id="node25" class="node">
<title>Node25</title>
<g id="a_node25"><a xlink:href="Unary_8h.html" target="_top" xlink:title=" ">
<polygon fill="white" stroke="black" points="388,-319 388,-338 537,-338 537,-319 388,-319"/>
<text text-anchor="middle" x="462.5" y="-326" font-family="Helvetica,sans-Serif" font-size="10.00">boomerang/ssl/exp/Unary.h</text>
</a>
</g>
</g>
<!-- Node24&#45;&gt;Node25 -->
<g id="edge38" class="edge">
<title>Node24&#45;&gt;Node25</title>
<path fill="none" stroke="midnightblue" d="M533.51,-452.84C521.17,-431.39 488.98,-375.49 472.52,-346.9"/>
<polygon fill="midnightblue" stroke="midnightblue" points="475.43,-344.94 467.41,-338.02 469.36,-348.43 475.43,-344.94"/>
</g>
<!-- Node26 -->
<g id="node26" class="node">
<title>Node26</title>
<g id="a_node26"><a xlink:href="Exp_8h.html" target="_top" xlink:title=" ">
<polygon fill="white" stroke="black" points="503.5,-252 503.5,-271 643.5,-271 643.5,-252 503.5,-252"/>
<text text-anchor="middle" x="573.5" y="-259" font-family="Helvetica,sans-Serif" font-size="10.00">boomerang/ssl/exp/Exp.h</text>
</a>
</g>
</g>
<!-- Node25&#45;&gt;Node26 -->
<g id="edge39" class="edge">
<title>Node25&#45;&gt;Node26</title>
<path fill="none" stroke="midnightblue" d="M477.47,-318.73C496.11,-307.82 528.16,-289.05 550.07,-276.22"/>
<polygon fill="midnightblue" stroke="midnightblue" points="551.91,-279.2 558.77,-271.13 548.37,-273.16 551.91,-279.2"/>
</g>
<!-- Node26&#45;&gt;Node7 -->
<g id="edge45" class="edge">
<title>Node26&#45;&gt;Node7</title>
<path fill="none" stroke="midnightblue" d="M535.11,-251.96C494.98,-242.35 435.51,-226 418.5,-210 402.31,-194.77 394.7,-169.71 391.23,-152.57"/>
<polygon fill="midnightblue" stroke="midnightblue" points="394.67,-151.87 389.5,-142.62 387.77,-153.07 394.67,-151.87"/>
</g>
<!-- Node26&#45;&gt;Node11 -->
<g id="edge46" class="edge">
<title>Node26&#45;&gt;Node11</title>
<path fill="none" stroke="midnightblue" d="M574.47,-251.93C575.58,-241.9 577.38,-224.76 578.5,-210 579.96,-190.68 581.06,-168.56 581.74,-153.19"/>
<polygon fill="midnightblue" stroke="midnightblue" points="585.24,-153.04 582.16,-142.9 578.25,-152.75 585.24,-153.04"/>
</g>
<!-- Node26&#45;&gt;Node12 -->
<g id="edge48" class="edge">
<title>Node26&#45;&gt;Node12</title>
<path fill="none" stroke="midnightblue" d="M603.05,-251.93C633.98,-242.66 683.76,-226.94 725.5,-210 727.08,-209.36 728.7,-208.67 730.33,-207.96"/>
<polygon fill="midnightblue" stroke="midnightblue" points="731.88,-211.09 739.48,-203.72 728.94,-204.74 731.88,-211.09"/>
</g>
<!-- Node26&#45;&gt;Node13 -->
<g id="edge49" class="edge">
<title>Node26&#45;&gt;Node13</title>
<path fill="none" stroke="midnightblue" d="M588.88,-251.96C616.76,-236.62 677.63,-203.68 730.5,-179 755.88,-167.15 785.25,-155.01 806.95,-146.33"/>
<polygon fill="midnightblue" stroke="midnightblue" points="808.34,-149.55 816.34,-142.6 805.75,-143.04 808.34,-149.55"/>
</g>
<!-- Node26&#45;&gt;Node18 -->
<g id="edge50" class="edge">
<title>Node26&#45;&gt;Node18</title>
<path fill="none" stroke="midnightblue" d="M617.42,-251.93C629.11,-249.81 641.76,-247.67 653.5,-246 806.12,-224.24 851.91,-257.73 998.5,-210 999.57,-209.65 1000.65,-209.25 1001.72,-208.81"/>
<polygon fill="midnightblue" stroke="midnightblue" points="1003.67,-211.75 1011.01,-204.12 1000.51,-205.5 1003.67,-211.75"/>
</g>
<!-- Node26&#45;&gt;Node23 -->
<g id="edge51" class="edge">
<title>Node26&#45;&gt;Node23</title>
<path fill="none" stroke="midnightblue" d="M537.49,-251.99C499.41,-242.72 437.74,-226.93 385.5,-210 383.09,-209.22 380.61,-208.37 378.13,-207.49"/>
<polygon fill="midnightblue" stroke="midnightblue" points="379.26,-204.18 368.67,-204.02 376.85,-210.75 379.26,-204.18"/>
</g>
<!-- Node27 -->
<g id="node27" class="node">
<title>Node27</title>
<g id="a_node27"><a xlink:href="ExpHelp_8h.html" target="_top" xlink:title=" ">
<polygon fill="white" stroke="black" points="827.5,-185 827.5,-204 989.5,-204 989.5,-185 827.5,-185"/>
<text text-anchor="middle" x="908.5" y="-192" font-family="Helvetica,sans-Serif" font-size="10.00">boomerang/ssl/exp/ExpHelp.h</text>
</a>
</g>
</g>
<!-- Node26&#45;&gt;Node27 -->
<g id="edge40" class="edge">
<title>Node26&#45;&gt;Node27</title>
<path fill="none" stroke="midnightblue" d="M617.64,-251.94C678.61,-240.11 788.5,-218.78 854.35,-206.01"/>
<polygon fill="midnightblue" stroke="midnightblue" points="855.38,-209.37 864.53,-204.03 854.05,-202.5 855.38,-209.37"/>
</g>
<!-- Node28 -->
<g id="node28" class="node">
<title>Node28</title>
<g id="a_node28"><a xlink:href="Operator_8h.html" target="_top" xlink:title=" ">
<polygon fill="white" stroke="black" points="627.5,-123.5 627.5,-142.5 791.5,-142.5 791.5,-123.5 627.5,-123.5"/>
<text text-anchor="middle" x="709.5" y="-130.5" font-family="Helvetica,sans-Serif" font-size="10.00">boomerang/ssl/exp/Operator.h</text>
</a>
</g>
</g>
<!-- Node26&#45;&gt;Node28 -->
<g id="edge43" class="edge">
<title>Node26&#45;&gt;Node28</title>
<path fill="none" stroke="midnightblue" d="M582.85,-251.81C605.46,-230.77 663.39,-176.89 692.4,-149.9"/>
<polygon fill="midnightblue" stroke="midnightblue" points="695.15,-152.13 700.09,-142.76 690.38,-147 695.15,-152.13"/>
</g>
<!-- Node29 -->
<g id="node29" class="node">
<title>Node29</title>
<g id="a_node29"><a xlink:title=" ">
<polygon fill="white" stroke="#bfbfbf" points="162.5,-123.5 162.5,-142.5 214.5,-142.5 214.5,-123.5 162.5,-123.5"/>
<text text-anchor="middle" x="188.5" y="-130.5" font-family="Helvetica,sans-Serif" font-size="10.00">cassert</text>
</a>
</g>
</g>
<!-- Node26&#45;&gt;Node29 -->
<g id="edge47" class="edge">
<title>Node26&#45;&gt;Node29</title>
<path fill="none" stroke="midnightblue" d="M529.71,-251.93C518.28,-249.84 505.95,-247.71 494.5,-246 425.69,-235.71 229.78,-261.95 183.5,-210 169.66,-194.47 174.72,-169.32 180.68,-152.24"/>
<polygon fill="midnightblue" stroke="midnightblue" points="183.98,-153.4 184.34,-142.81 177.46,-150.86 183.98,-153.4"/>
</g>
<!-- Node27&#45;&gt;Node6 -->
<g id="edge41" class="edge">
<title>Node27&#45;&gt;Node6</title>
<path fill="none" stroke="midnightblue" d="M906.95,-184.74C903.86,-169.86 895.51,-139.65 876.5,-123 854.38,-103.63 825.03,-91.69 797.11,-84.33"/>
<polygon fill="midnightblue" stroke="midnightblue" points="797.86,-80.91 787.31,-81.91 796.18,-87.71 797.86,-80.91"/>
</g>
<!-- Node27&#45;&gt;Node13 -->
<g id="edge42" class="edge">
<title>Node27&#45;&gt;Node13</title>
<path fill="none" stroke="midnightblue" d="M898.47,-184.98C887.45,-175.61 869.54,-160.38 856.16,-149.01"/>
<polygon fill="midnightblue" stroke="midnightblue" points="858.4,-146.32 848.51,-142.51 853.86,-151.65 858.4,-146.32"/>
</g>
<!-- Node28&#45;&gt;Node6 -->
<g id="edge44" class="edge">
<title>Node28&#45;&gt;Node6</title>
<path fill="none" stroke="midnightblue" d="M709.5,-123.48C709.5,-116.47 709.5,-106.19 709.5,-96.7"/>
<polygon fill="midnightblue" stroke="midnightblue" points="713,-96.52 709.5,-86.52 706,-96.52 713,-96.52"/>
</g>
<!-- Node30&#45;&gt;Node5 -->
<g id="edge54" class="edge">
<title>Node30&#45;&gt;Node5</title>
<path fill="none" stroke="midnightblue" d="M215.73,-318.91C214.75,-302.27 215.18,-265.53 235.5,-246 249.14,-232.88 351.85,-216.02 424.78,-205.48"/>
<polygon fill="midnightblue" stroke="midnightblue" points="425.46,-208.92 434.87,-204.04 424.47,-201.99 425.46,-208.92"/>
</g>
<!-- Node30&#45;&gt;Node26 -->
<g id="edge53" class="edge">
<title>Node30&#45;&gt;Node26</title>
<path fill="none" stroke="midnightblue" d="M263.73,-318.95C319.04,-308.93 413.43,-291.8 494.5,-277 501.84,-275.66 509.57,-274.24 517.2,-272.85"/>
<polygon fill="midnightblue" stroke="midnightblue" points="517.93,-276.27 527.13,-271.02 516.67,-269.39 517.93,-276.27"/>
</g>
<!-- Node31 -->
<g id="node31" class="node">
<title>Node31</title>
<g id="a_node31"><a xlink:title=" ">
<polygon fill="white" stroke="#bfbfbf" points="245,-252 245,-271 296,-271 296,-252 245,-252"/>
<text text-anchor="middle" x="270.5" y="-259" font-family="Helvetica,sans-Serif" font-size="10.00">variant</text>
</a>
</g>
</g>
<!-- Node30&#45;&gt;Node31 -->
<g id="edge55" class="edge">
<title>Node30&#45;&gt;Node31</title>
<path fill="none" stroke="midnightblue" d="M223.78,-318.73C232.2,-308.6 246.25,-291.69 256.75,-279.06"/>
<polygon fill="midnightblue" stroke="midnightblue" points="259.63,-281.06 263.33,-271.13 254.25,-276.58 259.63,-281.06"/>
</g>
<!-- Node32&#45;&gt;Node14 -->
<g id="edge57" class="edge">
<title>Node32&#45;&gt;Node14</title>
<path fill="none" stroke="midnightblue" d="M869.53,-385.9C892.24,-376.96 927.51,-361.78 955.5,-344 1020.18,-302.91 1086.89,-240.45 1116.59,-211.4"/>
<polygon fill="midnightblue" stroke="midnightblue" points="1119.29,-213.65 1123.95,-204.13 1114.37,-208.67 1119.29,-213.65"/>
</g>
<!-- Node32&#45;&gt;Node25 -->
<g id="edge58" class="edge">
<title>Node32&#45;&gt;Node25</title>
<path fill="none" stroke="midnightblue" d="M795.9,-385.94C725.59,-374.03 598.5,-352.52 523.18,-339.77"/>
<polygon fill="midnightblue" stroke="midnightblue" points="523.35,-336.25 512.9,-338.03 522.18,-343.15 523.35,-336.25"/>
</g>
<!-- Node33&#45;&gt;Node26 -->
<g id="edge60" class="edge">
<title>Node33&#45;&gt;Node26</title>
<path fill="none" stroke="midnightblue" d="M360.49,-452.82C355.22,-427.71 343.77,-354.15 379.5,-313 388.9,-302.18 466.54,-284.37 520.71,-273.05"/>
<polygon fill="midnightblue" stroke="midnightblue" points="521.44,-276.47 530.52,-271.01 520.02,-269.62 521.44,-276.47"/>
</g>
<!-- Node34&#45;&gt;Node14 -->
<g id="edge63" class="edge">
<title>Node34&#45;&gt;Node14</title>
<path fill="none" stroke="midnightblue" d="M1350.52,-246.48C1299.07,-234.45 1225.98,-217.36 1178.9,-206.35"/>
<polygon fill="midnightblue" stroke="midnightblue" points="1179.51,-202.9 1168.98,-204.03 1177.92,-209.71 1179.51,-202.9"/>
</g>
<!-- Node34&#45;&gt;Node15 -->
<g id="edge65" class="edge">
<title>Node34&#45;&gt;Node15</title>
<path fill="none" stroke="midnightblue" d="M1377.33,-246.37C1356.86,-237.1 1330.43,-224.12 1308.5,-210 1290.17,-198.2 1288.6,-191.14 1270.5,-179 1252.63,-167.02 1231.27,-155.5 1214.69,-147.11"/>
<polygon fill="midnightblue" stroke="midnightblue" points="1216.06,-143.88 1205.55,-142.56 1212.94,-150.15 1216.06,-143.88"/>
</g>
<!-- Node34&#45;&gt;Node17 -->
<g id="edge64" class="edge">
<title>Node34&#45;&gt;Node17</title>
<path fill="none" stroke="midnightblue" d="M1371.29,-246.49C1344.22,-236.66 1307.49,-223 1275.5,-210 1274.09,-209.43 1272.64,-208.83 1271.19,-208.22"/>
<polygon fill="midnightblue" stroke="midnightblue" points="1272.19,-204.84 1261.62,-204.12 1269.43,-211.27 1272.19,-204.84"/>
</g>
<!-- Node35 -->
<g id="node35" class="node">
<title>Node35</title>
<g id="a_node35"><a xlink:title=" ">
<polygon fill="white" stroke="#bfbfbf" points="1317.5,-185 1317.5,-204 1409.5,-204 1409.5,-185 1317.5,-185"/>
<text text-anchor="middle" x="1363.5" y="-192" font-family="Helvetica,sans-Serif" font-size="10.00">SSL2Parser.hpp</text>
</a>
</g>
</g>
<!-- Node34&#45;&gt;Node35 -->
<g id="edge62" class="edge">
<title>Node34&#45;&gt;Node35</title>
<path fill="none" stroke="midnightblue" d="M1400.3,-246.4C1393.12,-236.46 1383.46,-223.11 1375.84,-212.57"/>
<polygon fill="midnightblue" stroke="midnightblue" points="1378.48,-210.25 1369.79,-204.19 1372.81,-214.35 1378.48,-210.25"/>
</g>
<!-- Node37 -->
<g id="node37" class="node">
<title>Node37</title>
<g id="a_node37"><a xlink:href="Assignment_8h.html" target="_top" xlink:title=" ">
<polygon fill="white" stroke="black" points="596,-380.5 596,-410.5 743,-410.5 743,-380.5 596,-380.5"/>
<text text-anchor="start" x="604" y="-398.5" font-family="Helvetica,sans-Serif" font-size="10.00">boomerang/ssl/statements</text>
<text text-anchor="middle" x="669.5" y="-387.5" font-family="Helvetica,sans-Serif" font-size="10.00">/Assignment.h</text>
</a>
</g>
</g>
<!-- Node36&#45;&gt;Node37 -->
<g id="edge67" class="edge">
<title>Node36&#45;&gt;Node37</title>
<path fill="none" stroke="midnightblue" d="M728.23,-447.4C718.1,-438.62 704.9,-427.18 693.58,-417.37"/>
<polygon fill="midnightblue" stroke="midnightblue" points="695.59,-414.48 685.74,-410.58 691.01,-419.77 695.59,-414.48"/>
</g>
<!-- Node38 -->
<g id="node38" class="node">
<title>Node38</title>
<g id="a_node38"><a xlink:href="TypingStatement_8h.html" target="_top" xlink:title=" ">
<polygon fill="white" stroke="black" points="593,-313.5 593,-343.5 740,-343.5 740,-313.5 593,-313.5"/>
<text text-anchor="start" x="601" y="-331.5" font-family="Helvetica,sans-Serif" font-size="10.00">boomerang/ssl/statements</text>
<text text-anchor="middle" x="666.5" y="-320.5" font-family="Helvetica,sans-Serif" font-size="10.00">/TypingStatement.h</text>
</a>
</g>
</g>
<!-- Node37&#45;&gt;Node38 -->
<g id="edge68" class="edge">
<title>Node37&#45;&gt;Node38</title>
<path fill="none" stroke="midnightblue" d="M668.85,-380.4C668.49,-372.64 668.04,-362.81 667.62,-353.86"/>
<polygon fill="midnightblue" stroke="midnightblue" points="671.11,-353.4 667.15,-343.58 664.11,-353.73 671.11,-353.4"/>
</g>
<!-- Node39 -->
<g id="node39" class="node">
<title>Node39</title>
<g id="a_node39"><a xlink:href="Statement_8h.html" target="_top" xlink:title=" ">
<polygon fill="white" stroke="black" points="799,-246.5 799,-276.5 946,-276.5 946,-246.5 799,-246.5"/>
<text text-anchor="start" x="807" y="-264.5" font-family="Helvetica,sans-Serif" font-size="10.00">boomerang/ssl/statements</text>
<text text-anchor="middle" x="872.5" y="-253.5" font-family="Helvetica,sans-Serif" font-size="10.00">/Statement.h</text>
</a>
</g>
</g>
<!-- Node38&#45;&gt;Node39 -->
<g id="edge69" class="edge">
<title>Node38&#45;&gt;Node39</title>
<path fill="none" stroke="midnightblue" d="M710.95,-313.48C742.38,-303.56 784.71,-290.2 818.15,-279.65"/>
<polygon fill="midnightblue" stroke="midnightblue" points="819.3,-282.96 827.78,-276.61 817.19,-276.28 819.3,-282.96"/>
</g>
<!-- Node39&#45;&gt;Node5 -->
<g id="edge71" class="edge">
<title>Node39&#45;&gt;Node5</title>
<path fill="none" stroke="midnightblue" d="M798.75,-247.44C795.96,-246.96 793.21,-246.47 790.5,-246 710.02,-231.92 617.02,-215.88 558,-205.72"/>
<polygon fill="midnightblue" stroke="midnightblue" points="558.56,-202.27 548.11,-204.02 557.37,-209.17 558.56,-202.27"/>
</g>
<!-- Node39&#45;&gt;Node12 -->
<g id="edge72" class="edge">
<title>Node39&#45;&gt;Node12</title>
<path fill="none" stroke="midnightblue" d="M847.11,-246.4C827.13,-235.29 799.46,-219.92 779.77,-208.98"/>
<polygon fill="midnightblue" stroke="midnightblue" points="781.25,-205.8 770.81,-204.01 777.85,-211.92 781.25,-205.8"/>
</g>
<!-- Node39&#45;&gt;Node17 -->
<g id="edge73" class="edge">
<title>Node39&#45;&gt;Node17</title>
<path fill="none" stroke="midnightblue" d="M946.21,-256C1016.05,-250.25 1123.25,-237.5 1212.5,-210 1214.17,-209.48 1215.87,-208.89 1217.56,-208.24"/>
<polygon fill="midnightblue" stroke="midnightblue" points="1219.23,-211.33 1226.98,-204.1 1216.42,-204.92 1219.23,-211.33"/>
</g>
<!-- Node39&#45;&gt;Node27 -->
<g id="edge70" class="edge">
<title>Node39&#45;&gt;Node27</title>
<path fill="none" stroke="midnightblue" d="M880.31,-246.4C885.7,-236.66 892.91,-223.65 898.69,-213.21"/>
<polygon fill="midnightblue" stroke="midnightblue" points="901.9,-214.64 903.68,-204.19 895.78,-211.25 901.9,-214.64"/>
</g>
<!-- Node41 -->
<g id="node41" class="node">
<title>Node41</title>
<g id="a_node41"><a xlink:href="Type_8h.html" target="_top" xlink:title=" ">
<polygon fill="white" stroke="black" points="193,-179.5 193,-209.5 306,-209.5 306,-179.5 193,-179.5"/>
<text text-anchor="start" x="201" y="-197.5" font-family="Helvetica,sans-Serif" font-size="10.00">boomerang/ssl/type</text>
<text text-anchor="middle" x="249.5" y="-186.5" font-family="Helvetica,sans-Serif" font-size="10.00">/Type.h</text>
</a>
</g>
</g>
<!-- Node40&#45;&gt;Node41 -->
<g id="edge75" class="edge">
<title>Node40&#45;&gt;Node41</title>
<path fill="none" stroke="midnightblue" d="M55.62,-447.21C55.08,-430.58 55.63,-402.52 63.5,-380 87.07,-312.5 99.33,-293.8 152.5,-246 167.15,-232.83 185.87,-222.04 202.94,-213.86"/>
<polygon fill="midnightblue" stroke="midnightblue" points="204.6,-216.95 212.22,-209.59 201.67,-210.59 204.6,-216.95"/>
</g>
<!-- Node41&#45;&gt;Node6 -->
<g id="edge76" class="edge">
<title>Node41&#45;&gt;Node6</title>
<path fill="none" stroke="midnightblue" d="M256.56,-179.38C265.65,-162.83 283.12,-136.01 306.5,-123 320.13,-115.42 507.38,-94.2 621.77,-81.81"/>
<polygon fill="midnightblue" stroke="midnightblue" points="622.36,-85.27 631.93,-80.71 621.61,-78.31 622.36,-85.27"/>
</g>
<!-- Node41&#45;&gt;Node8 -->
<g id="edge77" class="edge">
<title>Node41&#45;&gt;Node8</title>
<path fill="none" stroke="midnightblue" d="M250.35,-179.41C252.1,-163.39 257.4,-137.58 273.5,-123 279.68,-117.4 376.54,-96.23 438.43,-83.14"/>
<polygon fill="midnightblue" stroke="midnightblue" points="439.36,-86.52 448.42,-81.03 437.91,-79.67 439.36,-86.52"/>
</g>
<!-- Node41&#45;&gt;Node11 -->
<g id="edge78" class="edge">
<title>Node41&#45;&gt;Node11</title>
<path fill="none" stroke="midnightblue" d="M306.18,-180.67C308.99,-180.09 311.78,-179.53 314.5,-179 396.81,-162.92 494.02,-147.48 545.76,-139.54"/>
<polygon fill="midnightblue" stroke="midnightblue" points="546.43,-142.97 555.79,-138 545.37,-136.05 546.43,-142.97"/>
</g>
<!-- Node41&#45;&gt;Node13 -->
<g id="edge80" class="edge">
<title>Node41&#45;&gt;Node13</title>
<path fill="none" stroke="midnightblue" d="M306.13,-180.36C308.95,-179.86 311.75,-179.41 314.5,-179 525.52,-147.82 584.66,-175.21 799.13,-142.97"/>
<polygon fill="midnightblue" stroke="midnightblue" points="799.78,-146.41 809.13,-141.44 798.72,-139.49 799.78,-146.41"/>
</g>
<!-- Node41&#45;&gt;Node29 -->
<g id="edge79" class="edge">
<title>Node41&#45;&gt;Node29</title>
<path fill="none" stroke="midnightblue" d="M235.04,-179.4C225.91,-170.49 214.08,-158.95 204.64,-149.74"/>
<polygon fill="midnightblue" stroke="midnightblue" points="206.98,-147.13 197.38,-142.66 202.09,-152.15 206.98,-147.13"/>
</g>
<!-- Node42&#45;&gt;Node41 -->
<g id="edge82" class="edge">
<title>Node42&#45;&gt;Node41</title>
<path fill="none" stroke="midnightblue" d="M127,-380.26C124.71,-363.43 122.96,-334.95 132.5,-313 150.6,-271.37 190.79,-236.44 218.99,-215.76"/>
<polygon fill="midnightblue" stroke="midnightblue" points="221.22,-218.47 227.32,-209.8 217.15,-212.77 221.22,-218.47"/>
</g>
<!-- Node43&#45;&gt;Node5 -->
<g id="edge84" class="edge">
<title>Node43&#45;&gt;Node5</title>
<path fill="none" stroke="midnightblue" d="M445.25,-246.4C456.07,-236.06 470.75,-222.02 481.96,-211.31"/>
<polygon fill="midnightblue" stroke="midnightblue" points="484.59,-213.63 489.4,-204.19 479.76,-208.57 484.59,-213.63"/>
</g>
<!-- Node43&#45;&gt;Node8 -->
<g id="edge85" class="edge">
<title>Node43&#45;&gt;Node8</title>
<path fill="none" stroke="midnightblue" d="M375.96,-252.99C304.46,-242.67 186.33,-223.82 171.5,-210 142.62,-183.07 127.56,-152.77 153.5,-123 191.97,-78.86 356.74,-96.56 414.5,-87 421.96,-85.77 429.82,-84.36 437.52,-82.92"/>
<polygon fill="midnightblue" stroke="midnightblue" points="438.35,-86.33 447.52,-81.03 437.05,-79.45 438.35,-86.33"/>
</g>
<!-- Node43&#45;&gt;Node13 -->
<g id="edge86" class="edge">
<title>Node43&#45;&gt;Node13</title>
<path fill="none" stroke="midnightblue" d="M472.35,-246.43C502.03,-236.41 542.76,-222.54 578.5,-210 616.84,-196.55 625.68,-190.99 664.5,-179 689.48,-171.29 756.31,-154.39 799.5,-143.64"/>
<polygon fill="midnightblue" stroke="midnightblue" points="800.53,-146.99 809.39,-141.18 798.85,-140.19 800.53,-146.99"/>
</g>
<!-- Node43&#45;&gt;Node23 -->
<g id="edge87" class="edge">
<title>Node43&#45;&gt;Node23</title>
<path fill="none" stroke="midnightblue" d="M412.49,-246.4C398.91,-235.76 380.32,-221.2 366.5,-210.38"/>
<polygon fill="midnightblue" stroke="midnightblue" points="368.63,-207.6 358.6,-204.19 364.32,-213.12 368.63,-207.6"/>
</g>
</g>
</svg>
