<?xml version="1.0" encoding="UTF-8" standalone="no"?>
<!DOCTYPE svg PUBLIC "-//W3C//DTD SVG 1.1//EN"
 "http://www.w3.org/Graphics/SVG/1.1/DTD/svg11.dtd">
<!-- Generated by graphviz version 2.43.0 (0)
 -->
<!-- Title: SeparateLogger.cpp Pages: 1 -->
<svg width="726pt" height="397pt"
 viewBox="0.00 0.00 725.50 397.00" xmlns="http://www.w3.org/2000/svg" xmlns:xlink="http://www.w3.org/1999/xlink">
<g id="graph0" class="graph" transform="scale(1 1) rotate(0) translate(4 393)">
<title>SeparateLogger.cpp</title>
<polygon fill="white" stroke="transparent" points="-4,4 -4,-393 721.5,-393 721.5,4 -4,4"/>
<!-- Node1 -->
<g id="node1" class="node">
<title>Node1</title>
<g id="a_node1"><a xlink:title=" ">
<polygon fill="#bfbfbf" stroke="black" points="422,-369.5 422,-388.5 535,-388.5 535,-369.5 422,-369.5"/>
<text text-anchor="middle" x="478.5" y="-376.5" font-family="Helvetica,sans-Serif" font-size="10.00">SeparateLogger.cpp</text>
</a>
</g>
</g>
<!-- Node2 -->
<g id="node2" class="node">
<title>Node2</title>
<g id="a_node2"><a xlink:href="SeparateLogger_8h.html" target="_top" xlink:title=" ">
<polygon fill="white" stroke="black" points="169.5,-308 169.5,-327 271.5,-327 271.5,-308 169.5,-308"/>
<text text-anchor="middle" x="220.5" y="-315" font-family="Helvetica,sans-Serif" font-size="10.00">SeparateLogger.h</text>
</a>
</g>
</g>
<!-- Node1&#45;&gt;Node2 -->
<g id="edge1" class="edge">
<title>Node1&#45;&gt;Node2</title>
<path fill="none" stroke="midnightblue" d="M441.53,-369.48C395.65,-358.89 317.35,-340.84 267.32,-329.3"/>
<polygon fill="midnightblue" stroke="midnightblue" points="267.93,-325.85 257.4,-327.01 266.35,-332.67 267.93,-325.85"/>
</g>
<!-- Node13 -->
<g id="node13" class="node">
<title>Node13</title>
<g id="a_node13"><a xlink:href="Util_8h.html" target="_top" xlink:title=" ">
<polygon fill="white" stroke="black" points="286.5,-241 286.5,-260 406.5,-260 406.5,-241 286.5,-241"/>
<text text-anchor="middle" x="346.5" y="-248" font-family="Helvetica,sans-Serif" font-size="10.00">boomerang/util/Util.h</text>
</a>
</g>
</g>
<!-- Node1&#45;&gt;Node13 -->
<g id="edge15" class="edge">
<title>Node1&#45;&gt;Node13</title>
<path fill="none" stroke="midnightblue" d="M433.33,-369.43C410.92,-362.98 385.16,-351.87 368.5,-333 353.15,-315.61 348.37,-288.58 346.96,-270.47"/>
<polygon fill="midnightblue" stroke="midnightblue" points="350.45,-270.09 346.45,-260.28 343.46,-270.44 350.45,-270.09"/>
</g>
<!-- Node14 -->
<g id="node14" class="node">
<title>Node14</title>
<g id="a_node14"><a xlink:href="FileLogSink_8h.html" target="_top" xlink:title=" ">
<polygon fill="white" stroke="black" points="378,-302.5 378,-332.5 487,-332.5 487,-302.5 378,-302.5"/>
<text text-anchor="start" x="386" y="-320.5" font-family="Helvetica,sans-Serif" font-size="10.00">boomerang/util/log</text>
<text text-anchor="middle" x="432.5" y="-309.5" font-family="Helvetica,sans-Serif" font-size="10.00">/FileLogSink.h</text>
</a>
</g>
</g>
<!-- Node1&#45;&gt;Node14 -->
<g id="edge19" class="edge">
<title>Node1&#45;&gt;Node14</title>
<path fill="none" stroke="midnightblue" d="M471.91,-369.48C466.09,-361.94 457.34,-350.63 449.56,-340.57"/>
<polygon fill="midnightblue" stroke="midnightblue" points="452.23,-338.29 443.34,-332.52 446.69,-342.58 452.23,-338.29"/>
</g>
<!-- Node17 -->
<g id="node17" class="node">
<title>Node17</title>
<g id="a_node17"><a xlink:title=" ">
<polygon fill="white" stroke="#bfbfbf" points="505.5,-308 505.5,-327 543.5,-327 543.5,-308 505.5,-308"/>
<text text-anchor="middle" x="524.5" y="-315" font-family="Helvetica,sans-Serif" font-size="10.00">QDir</text>
</a>
</g>
</g>
<!-- Node1&#45;&gt;Node17 -->
<g id="edge23" class="edge">
<title>Node1&#45;&gt;Node17</title>
<path fill="none" stroke="midnightblue" d="M485.09,-369.48C491.99,-360.55 503,-346.31 511.63,-335.14"/>
<polygon fill="midnightblue" stroke="midnightblue" points="514.57,-337.06 517.92,-327.01 509.04,-332.78 514.57,-337.06"/>
</g>
<!-- Node18 -->
<g id="node18" class="node">
<title>Node18</title>
<g id="a_node18"><a xlink:title=" ">
<polygon fill="white" stroke="#bfbfbf" points="562,-308 562,-327 607,-327 607,-308 562,-308"/>
<text text-anchor="middle" x="584.5" y="-315" font-family="Helvetica,sans-Serif" font-size="10.00">QMap</text>
</a>
</g>
</g>
<!-- Node1&#45;&gt;Node18 -->
<g id="edge24" class="edge">
<title>Node1&#45;&gt;Node18</title>
<path fill="none" stroke="midnightblue" d="M493.69,-369.48C511.16,-359.67 540.08,-343.43 560.58,-331.92"/>
<polygon fill="midnightblue" stroke="midnightblue" points="562.33,-334.96 569.34,-327.01 558.91,-328.85 562.33,-334.96"/>
</g>
<!-- Node19 -->
<g id="node19" class="node">
<title>Node19</title>
<g id="a_node19"><a xlink:title=" ">
<polygon fill="white" stroke="#bfbfbf" points="625.5,-308 625.5,-327 717.5,-327 717.5,-308 625.5,-308"/>
<text text-anchor="middle" x="671.5" y="-315" font-family="Helvetica,sans-Serif" font-size="10.00">QSharedPointer</text>
</a>
</g>
</g>
<!-- Node1&#45;&gt;Node19 -->
<g id="edge25" class="edge">
<title>Node1&#45;&gt;Node19</title>
<path fill="none" stroke="midnightblue" d="M506.15,-369.48C539.69,-359.14 596.37,-341.66 633.87,-330.1"/>
<polygon fill="midnightblue" stroke="midnightblue" points="635.37,-333.3 643.9,-327.01 633.31,-326.61 635.37,-333.3"/>
</g>
<!-- Node3 -->
<g id="node3" class="node">
<title>Node3</title>
<g id="a_node3"><a xlink:href="Log_8h.html" target="_top" xlink:title=" ">
<polygon fill="white" stroke="black" points="117,-235.5 117,-265.5 226,-265.5 226,-235.5 117,-235.5"/>
<text text-anchor="start" x="125" y="-253.5" font-family="Helvetica,sans-Serif" font-size="10.00">boomerang/util/log</text>
<text text-anchor="middle" x="171.5" y="-242.5" font-family="Helvetica,sans-Serif" font-size="10.00">/Log.h</text>
</a>
</g>
</g>
<!-- Node2&#45;&gt;Node3 -->
<g id="edge2" class="edge">
<title>Node2&#45;&gt;Node3</title>
<path fill="none" stroke="midnightblue" d="M213.89,-307.73C207.33,-299.03 197.01,-285.34 188.2,-273.65"/>
<polygon fill="midnightblue" stroke="midnightblue" points="190.94,-271.47 182.12,-265.59 185.35,-275.68 190.94,-271.47"/>
</g>
<!-- Node4 -->
<g id="node4" class="node">
<title>Node4</title>
<g id="a_node4"><a xlink:href="Address_8h.html" target="_top" xlink:title=" ">
<polygon fill="white" stroke="black" points="100.5,-179.5 100.5,-198.5 242.5,-198.5 242.5,-179.5 100.5,-179.5"/>
<text text-anchor="middle" x="171.5" y="-186.5" font-family="Helvetica,sans-Serif" font-size="10.00">boomerang/util/Address.h</text>
</a>
</g>
</g>
<!-- Node3&#45;&gt;Node4 -->
<g id="edge3" class="edge">
<title>Node3&#45;&gt;Node4</title>
<path fill="none" stroke="midnightblue" d="M171.5,-235.4C171.5,-227.47 171.5,-217.46 171.5,-208.86"/>
<polygon fill="midnightblue" stroke="midnightblue" points="175,-208.66 171.5,-198.66 168,-208.66 175,-208.66"/>
</g>
<!-- Node7 -->
<g id="node7" class="node">
<title>Node7</title>
<g id="a_node7"><a xlink:href="Types_8h.html" target="_top" xlink:title=" ">
<polygon fill="white" stroke="black" points="0,-62 0,-81 131,-81 131,-62 0,-62"/>
<text text-anchor="middle" x="65.5" y="-69" font-family="Helvetica,sans-Serif" font-size="10.00">boomerang/util/Types.h</text>
</a>
</g>
</g>
<!-- Node3&#45;&gt;Node7 -->
<g id="edge12" class="edge">
<title>Node3&#45;&gt;Node7</title>
<path fill="none" stroke="midnightblue" d="M116.74,-245.79C84.5,-240.46 46.12,-227.95 25.5,-199 1.12,-164.76 31.82,-115.06 51.47,-89.33"/>
<polygon fill="midnightblue" stroke="midnightblue" points="54.37,-91.31 57.85,-81.3 48.89,-86.96 54.37,-91.31"/>
</g>
<!-- Node11 -->
<g id="node11" class="node">
<title>Node11</title>
<g id="a_node11"><a xlink:title=" ">
<polygon fill="white" stroke="#bfbfbf" points="260.5,-179.5 260.5,-198.5 318.5,-198.5 318.5,-179.5 260.5,-179.5"/>
<text text-anchor="middle" x="289.5" y="-186.5" font-family="Helvetica,sans-Serif" font-size="10.00">memory</text>
</a>
</g>
</g>
<!-- Node3&#45;&gt;Node11 -->
<g id="edge13" class="edge">
<title>Node3&#45;&gt;Node11</title>
<path fill="none" stroke="midnightblue" d="M199.46,-235.4C218.82,-225.64 244.41,-212.74 263.36,-203.18"/>
<polygon fill="midnightblue" stroke="midnightblue" points="264.98,-206.29 272.33,-198.66 261.83,-200.04 264.98,-206.29"/>
</g>
<!-- Node12 -->
<g id="node12" class="node">
<title>Node12</title>
<g id="a_node12"><a xlink:title=" ">
<polygon fill="white" stroke="#bfbfbf" points="35,-179.5 35,-198.5 82,-198.5 82,-179.5 35,-179.5"/>
<text text-anchor="middle" x="58.5" y="-186.5" font-family="Helvetica,sans-Serif" font-size="10.00">vector</text>
</a>
</g>
</g>
<!-- Node3&#45;&gt;Node12 -->
<g id="edge14" class="edge">
<title>Node3&#45;&gt;Node12</title>
<path fill="none" stroke="midnightblue" d="M144.72,-235.4C126.44,-225.77 102.35,-213.09 84.29,-203.58"/>
<polygon fill="midnightblue" stroke="midnightblue" points="85.42,-200.22 74.94,-198.66 82.16,-206.41 85.42,-200.22"/>
</g>
<!-- Node5 -->
<g id="node5" class="node">
<title>Node5</title>
<g id="a_node5"><a xlink:href="BoomerangAPI_8h.html" target="_top" xlink:title=" ">
<polygon fill="white" stroke="black" points="261,-56.5 261,-86.5 416,-86.5 416,-56.5 261,-56.5"/>
<text text-anchor="start" x="269" y="-74.5" font-family="Helvetica,sans-Serif" font-size="10.00">boomerang/core/Boomerang</text>
<text text-anchor="middle" x="338.5" y="-63.5" font-family="Helvetica,sans-Serif" font-size="10.00">API.h</text>
</a>
</g>
</g>
<!-- Node4&#45;&gt;Node5 -->
<g id="edge4" class="edge">
<title>Node4&#45;&gt;Node5</title>
<path fill="none" stroke="midnightblue" d="M189.35,-179.45C206.35,-171.01 232.42,-157.34 253.5,-143 275.71,-127.9 299.06,-108.22 315.66,-93.49"/>
<polygon fill="midnightblue" stroke="midnightblue" points="318.12,-95.98 323.23,-86.7 313.45,-90.77 318.12,-95.98"/>
</g>
<!-- Node6 -->
<g id="node6" class="node">
<title>Node6</title>
<g id="a_node6"><a xlink:href="OStream_8h.html" target="_top" xlink:title=" ">
<polygon fill="white" stroke="black" points="98.5,-123.5 98.5,-142.5 244.5,-142.5 244.5,-123.5 98.5,-123.5"/>
<text text-anchor="middle" x="171.5" y="-130.5" font-family="Helvetica,sans-Serif" font-size="10.00">boomerang/util/OStream.h</text>
</a>
</g>
</g>
<!-- Node4&#45;&gt;Node6 -->
<g id="edge5" class="edge">
<title>Node4&#45;&gt;Node6</title>
<path fill="none" stroke="midnightblue" d="M171.5,-179.08C171.5,-172.01 171.5,-161.86 171.5,-152.99"/>
<polygon fill="midnightblue" stroke="midnightblue" points="175,-152.75 171.5,-142.75 168,-152.75 175,-152.75"/>
</g>
<!-- Node4&#45;&gt;Node7 -->
<g id="edge10" class="edge">
<title>Node4&#45;&gt;Node7</title>
<path fill="none" stroke="midnightblue" d="M145.25,-179.38C127.27,-172.24 104.12,-160.41 89.5,-143 77.06,-128.18 70.96,-106.59 68.04,-91.21"/>
<polygon fill="midnightblue" stroke="midnightblue" points="71.49,-90.61 66.43,-81.3 64.58,-91.73 71.49,-90.61"/>
</g>
<!-- Node10 -->
<g id="node10" class="node">
<title>Node10</title>
<g id="a_node10"><a xlink:title=" ">
<polygon fill="white" stroke="#bfbfbf" points="303,-123.5 303,-142.5 356,-142.5 356,-123.5 303,-123.5"/>
<text text-anchor="middle" x="329.5" y="-130.5" font-family="Helvetica,sans-Serif" font-size="10.00">QString</text>
</a>
</g>
</g>
<!-- Node4&#45;&gt;Node10 -->
<g id="edge11" class="edge">
<title>Node4&#45;&gt;Node10</title>
<path fill="none" stroke="midnightblue" d="M196.54,-179.44C223.12,-170.36 265.31,-155.94 295.02,-145.78"/>
<polygon fill="midnightblue" stroke="midnightblue" points="296.25,-149.06 304.58,-142.52 293.99,-142.44 296.25,-149.06"/>
</g>
<!-- Node6&#45;&gt;Node5 -->
<g id="edge6" class="edge">
<title>Node6&#45;&gt;Node5</title>
<path fill="none" stroke="midnightblue" d="M195.43,-123.48C219.84,-114.78 258.43,-101.03 289.39,-90"/>
<polygon fill="midnightblue" stroke="midnightblue" points="290.9,-93.18 299.14,-86.52 288.55,-86.58 290.9,-93.18"/>
</g>
<!-- Node6&#45;&gt;Node7 -->
<g id="edge7" class="edge">
<title>Node6&#45;&gt;Node7</title>
<path fill="none" stroke="midnightblue" d="M156.31,-123.48C138.84,-113.67 109.92,-97.43 89.42,-85.92"/>
<polygon fill="midnightblue" stroke="midnightblue" points="91.09,-82.85 80.66,-81.01 87.67,-88.96 91.09,-82.85"/>
</g>
<!-- Node9 -->
<g id="node9" class="node">
<title>Node9</title>
<g id="a_node9"><a xlink:title=" ">
<polygon fill="white" stroke="#bfbfbf" points="149.5,-62 149.5,-81 195.5,-81 195.5,-62 149.5,-62"/>
<text text-anchor="middle" x="172.5" y="-69" font-family="Helvetica,sans-Serif" font-size="10.00">cstdio</text>
</a>
</g>
</g>
<!-- Node6&#45;&gt;Node9 -->
<g id="edge9" class="edge">
<title>Node6&#45;&gt;Node9</title>
<path fill="none" stroke="midnightblue" d="M171.64,-123.48C171.78,-115.08 172,-101.98 172.19,-91.16"/>
<polygon fill="midnightblue" stroke="midnightblue" points="175.69,-91.07 172.36,-81.01 168.69,-90.95 175.69,-91.07"/>
</g>
<!-- Node8 -->
<g id="node8" class="node">
<title>Node8</title>
<g id="a_node8"><a xlink:title=" ">
<polygon fill="white" stroke="#bfbfbf" points="40.5,-0.5 40.5,-19.5 90.5,-19.5 90.5,-0.5 40.5,-0.5"/>
<text text-anchor="middle" x="65.5" y="-7.5" font-family="Helvetica,sans-Serif" font-size="10.00">cstdint</text>
</a>
</g>
</g>
<!-- Node7&#45;&gt;Node8 -->
<g id="edge8" class="edge">
<title>Node7&#45;&gt;Node8</title>
<path fill="none" stroke="midnightblue" d="M65.5,-61.98C65.5,-53.58 65.5,-40.48 65.5,-29.66"/>
<polygon fill="midnightblue" stroke="midnightblue" points="69,-29.51 65.5,-19.51 62,-29.51 69,-29.51"/>
</g>
<!-- Node13&#45;&gt;Node5 -->
<g id="edge16" class="edge">
<title>Node13&#45;&gt;Node5</title>
<path fill="none" stroke="midnightblue" d="M349.97,-240.8C357.74,-220.13 375.05,-166.55 364.5,-123 362.21,-113.53 357.81,-103.85 353.27,-95.53"/>
<polygon fill="midnightblue" stroke="midnightblue" points="356.25,-93.68 348.2,-86.79 350.2,-97.2 356.25,-93.68"/>
</g>
<!-- Node13&#45;&gt;Node10 -->
<g id="edge17" class="edge">
<title>Node13&#45;&gt;Node10</title>
<path fill="none" stroke="midnightblue" d="M345.22,-240.82C342.49,-222.26 336.03,-178.34 332.29,-152.97"/>
<polygon fill="midnightblue" stroke="midnightblue" points="335.71,-152.17 330.79,-142.78 328.79,-153.19 335.71,-152.17"/>
</g>
<!-- Node13&#45;&gt;Node11 -->
<g id="edge18" class="edge">
<title>Node13&#45;&gt;Node11</title>
<path fill="none" stroke="midnightblue" d="M338.33,-240.98C329.61,-231.87 315.6,-217.24 304.81,-205.98"/>
<polygon fill="midnightblue" stroke="midnightblue" points="307.1,-203.31 297.65,-198.51 302.04,-208.15 307.1,-203.31"/>
</g>
<!-- Node15 -->
<g id="node15" class="node">
<title>Node15</title>
<g id="a_node15"><a xlink:href="ILogSink_8h.html" target="_top" xlink:title=" ">
<polygon fill="white" stroke="black" points="412.5,-123.5 412.5,-142.5 552.5,-142.5 552.5,-123.5 412.5,-123.5"/>
<text text-anchor="middle" x="482.5" y="-130.5" font-family="Helvetica,sans-Serif" font-size="10.00">boomerang/ifc/ILogSink.h</text>
</a>
</g>
</g>
<!-- Node14&#45;&gt;Node15 -->
<g id="edge20" class="edge">
<title>Node14&#45;&gt;Node15</title>
<path fill="none" stroke="midnightblue" d="M436.29,-302.36C440.65,-286.1 448.04,-258.61 454.5,-235 462.4,-206.12 471.71,-172.65 477.36,-152.41"/>
<polygon fill="midnightblue" stroke="midnightblue" points="480.77,-153.21 480.08,-142.64 474.02,-151.33 480.77,-153.21"/>
</g>
<!-- Node16 -->
<g id="node16" class="node">
<title>Node16</title>
<g id="a_node16"><a xlink:title=" ">
<polygon fill="white" stroke="#bfbfbf" points="463,-241 463,-260 504,-260 504,-241 463,-241"/>
<text text-anchor="middle" x="483.5" y="-248" font-family="Helvetica,sans-Serif" font-size="10.00">QFile</text>
</a>
</g>
</g>
<!-- Node14&#45;&gt;Node16 -->
<g id="edge22" class="edge">
<title>Node14&#45;&gt;Node16</title>
<path fill="none" stroke="midnightblue" d="M443.57,-302.4C451.44,-292.36 462.05,-278.84 470.35,-268.25"/>
<polygon fill="midnightblue" stroke="midnightblue" points="473.26,-270.22 476.68,-260.19 467.75,-265.9 473.26,-270.22"/>
</g>
<!-- Node15&#45;&gt;Node5 -->
<g id="edge21" class="edge">
<title>Node15&#45;&gt;Node5</title>
<path fill="none" stroke="midnightblue" d="M461.87,-123.48C441.09,-114.89 408.4,-101.38 381.89,-90.43"/>
<polygon fill="midnightblue" stroke="midnightblue" points="383.02,-87.11 372.44,-86.52 380.34,-93.58 383.02,-87.11"/>
</g>
</g>
</svg>
