<?xml version="1.0" encoding="UTF-8" standalone="no"?>
<!DOCTYPE svg PUBLIC "-//W3C//DTD SVG 1.1//EN"
 "http://www.w3.org/Graphics/SVG/1.1/DTD/svg11.dtd">
<!-- Generated by graphviz version 2.43.0 (0)
 -->
<!-- Title: SizeType.h Pages: 1 -->
<svg width="2204pt" height="84pt"
 viewBox="0.00 0.00 2204.00 84.00" xmlns="http://www.w3.org/2000/svg" xmlns:xlink="http://www.w3.org/1999/xlink">
<g id="graph0" class="graph" transform="scale(1 1) rotate(0) translate(4 80)">
<title>SizeType.h</title>
<polygon fill="white" stroke="transparent" points="-4,4 -4,-80 2200,-80 2200,4 -4,4"/>
<!-- Node1 -->
<g id="node1" class="node">
<title>Node1</title>
<g id="a_node1"><a xlink:title=" ">
<polygon fill="#bfbfbf" stroke="black" points="1034,-56.5 1034,-75.5 1102,-75.5 1102,-56.5 1034,-56.5"/>
<text text-anchor="middle" x="1068" y="-63.5" font-family="Helvetica,sans-Serif" font-size="10.00">SizeType.h</text>
</a>
</g>
</g>
<!-- Node2 -->
<g id="node2" class="node">
<title>Node2</title>
<g id="a_node2"><a xlink:href="Global_8cpp.html" target="_top" xlink:title=" ">
<polygon fill="white" stroke="black" points="0,-0.5 0,-19.5 68,-19.5 68,-0.5 0,-0.5"/>
<text text-anchor="middle" x="34" y="-7.5" font-family="Helvetica,sans-Serif" font-size="10.00">Global.cpp</text>
</a>
</g>
</g>
<!-- Node1&#45;&gt;Node2 -->
<g id="edge1" class="edge">
<title>Node1&#45;&gt;Node2</title>
<path fill="none" stroke="midnightblue" d="M1023.26,-65.52C883.07,-66.62 440.03,-65.93 77,-20 74.12,-19.64 71.16,-19.18 68.18,-18.67"/>
<polygon fill="midnightblue" stroke="midnightblue" points="1023.63,-69.02 1033.6,-65.43 1023.57,-62.02 1023.63,-69.02"/>
</g>
<!-- Node3 -->
<g id="node3" class="node">
<title>Node3</title>
<g id="a_node3"><a xlink:href="Prog_8cpp.html" target="_top" xlink:title=" ">
<polygon fill="white" stroke="black" points="86.5,-0.5 86.5,-19.5 145.5,-19.5 145.5,-0.5 86.5,-0.5"/>
<text text-anchor="middle" x="116" y="-7.5" font-family="Helvetica,sans-Serif" font-size="10.00">Prog.cpp</text>
</a>
</g>
</g>
<!-- Node1&#45;&gt;Node3 -->
<g id="edge2" class="edge">
<title>Node1&#45;&gt;Node3</title>
<path fill="none" stroke="midnightblue" d="M1023.64,-65.59C891.04,-66.77 486.34,-66.03 155,-20 151.97,-19.58 148.83,-19.04 145.71,-18.43"/>
<polygon fill="midnightblue" stroke="midnightblue" points="1023.84,-69.09 1033.81,-65.49 1023.77,-62.09 1023.84,-69.09"/>
</g>
<!-- Node4 -->
<g id="node4" class="node">
<title>Node4</title>
<g id="a_node4"><a xlink:href="PentiumSignature_8cpp.html" target="_top" xlink:title=" ">
<polygon fill="white" stroke="black" points="164,-0.5 164,-19.5 288,-19.5 288,-0.5 164,-0.5"/>
<text text-anchor="middle" x="226" y="-7.5" font-family="Helvetica,sans-Serif" font-size="10.00">PentiumSignature.cpp</text>
</a>
</g>
</g>
<!-- Node1&#45;&gt;Node4 -->
<g id="edge3" class="edge">
<title>Node1&#45;&gt;Node4</title>
<path fill="none" stroke="midnightblue" d="M1023.62,-63.46C905.34,-59.14 572.73,-45.49 297,-20 294.15,-19.74 291.25,-19.45 288.31,-19.14"/>
<polygon fill="midnightblue" stroke="midnightblue" points="1023.62,-66.97 1033.74,-63.83 1023.87,-59.97 1023.62,-66.97"/>
</g>
<!-- Node5 -->
<g id="node5" class="node">
<title>Node5</title>
<g id="a_node5"><a xlink:href="Signature_8cpp.html" target="_top" xlink:title=" ">
<polygon fill="white" stroke="black" points="306.5,-0.5 306.5,-19.5 389.5,-19.5 389.5,-0.5 306.5,-0.5"/>
<text text-anchor="middle" x="348" y="-7.5" font-family="Helvetica,sans-Serif" font-size="10.00">Signature.cpp</text>
</a>
</g>
</g>
<!-- Node1&#45;&gt;Node5 -->
<g id="edge4" class="edge">
<title>Node1&#45;&gt;Node5</title>
<path fill="none" stroke="midnightblue" d="M1023.61,-63.66C916.1,-60.07 633.29,-48.47 399,-20 395.97,-19.63 392.84,-19.2 389.69,-18.73"/>
<polygon fill="midnightblue" stroke="midnightblue" points="1023.65,-67.17 1033.76,-64 1023.88,-60.17 1023.65,-67.17"/>
</g>
<!-- Node6 -->
<g id="node6" class="node">
<title>Node6</title>
<g id="a_node6"><a xlink:href="Win32Signature_8cpp.html" target="_top" xlink:title=" ">
<polygon fill="white" stroke="black" points="408,-0.5 408,-19.5 522,-19.5 522,-0.5 408,-0.5"/>
<text text-anchor="middle" x="465" y="-7.5" font-family="Helvetica,sans-Serif" font-size="10.00">Win32Signature.cpp</text>
</a>
</g>
</g>
<!-- Node1&#45;&gt;Node6 -->
<g id="edge5" class="edge">
<title>Node1&#45;&gt;Node6</title>
<path fill="none" stroke="midnightblue" d="M1023.64,-62.07C931.64,-55.81 713.45,-40.07 531,-20 528.13,-19.68 525.18,-19.34 522.22,-18.99"/>
<polygon fill="midnightblue" stroke="midnightblue" points="1023.49,-65.56 1033.7,-62.75 1023.96,-58.58 1023.49,-65.56"/>
</g>
<!-- Node7 -->
<g id="node7" class="node">
<title>Node7</title>
<g id="a_node7"><a xlink:href="Binary_8cpp.html" target="_top" xlink:title=" ">
<polygon fill="white" stroke="black" points="540.5,-0.5 540.5,-19.5 607.5,-19.5 607.5,-0.5 540.5,-0.5"/>
<text text-anchor="middle" x="574" y="-7.5" font-family="Helvetica,sans-Serif" font-size="10.00">Binary.cpp</text>
</a>
</g>
</g>
<!-- Node1&#45;&gt;Node7 -->
<g id="edge6" class="edge">
<title>Node1&#45;&gt;Node7</title>
<path fill="none" stroke="midnightblue" d="M1023.46,-62.22C942.15,-56.79 764.38,-43.21 616,-20 613.35,-19.59 610.61,-19.11 607.87,-18.6"/>
<polygon fill="midnightblue" stroke="midnightblue" points="1023.6,-65.74 1033.81,-62.91 1024.07,-58.76 1023.6,-65.74"/>
</g>
<!-- Node8 -->
<g id="node8" class="node">
<title>Node8</title>
<g id="a_node8"><a xlink:href="SSL2Parser_8cpp.html" target="_top" xlink:title=" ">
<polygon fill="white" stroke="black" points="625.5,-0.5 625.5,-19.5 716.5,-19.5 716.5,-0.5 625.5,-0.5"/>
<text text-anchor="middle" x="671" y="-7.5" font-family="Helvetica,sans-Serif" font-size="10.00">SSL2Parser.cpp</text>
</a>
</g>
</g>
<!-- Node1&#45;&gt;Node8 -->
<g id="edge7" class="edge">
<title>Node1&#45;&gt;Node8</title>
<path fill="none" stroke="midnightblue" d="M1023.91,-59.71C958.55,-51.76 832.14,-35.95 725,-20 722.27,-19.59 719.47,-19.16 716.65,-18.72"/>
<polygon fill="midnightblue" stroke="midnightblue" points="1023.52,-63.19 1033.87,-60.92 1024.36,-56.24 1023.52,-63.19"/>
</g>
<!-- Node9 -->
<g id="node9" class="node">
<title>Node9</title>
<g id="a_node9"><a xlink:href="SSL2Scanner_8cpp.html" target="_top" xlink:title=" ">
<polygon fill="white" stroke="black" points="734.5,-0.5 734.5,-19.5 833.5,-19.5 833.5,-0.5 734.5,-0.5"/>
<text text-anchor="middle" x="784" y="-7.5" font-family="Helvetica,sans-Serif" font-size="10.00">SSL2Scanner.cpp</text>
</a>
</g>
</g>
<!-- Node1&#45;&gt;Node9 -->
<g id="edge8" class="edge">
<title>Node1&#45;&gt;Node9</title>
<path fill="none" stroke="midnightblue" d="M1023.63,-56.56C970.64,-46.49 882.48,-29.72 829.14,-19.58"/>
<polygon fill="midnightblue" stroke="midnightblue" points="1023.27,-60.06 1033.74,-58.49 1024.57,-53.18 1023.27,-60.06"/>
</g>
<!-- Node10 -->
<g id="node10" class="node">
<title>Node10</title>
<g id="a_node10"><a xlink:href="Assignment_8cpp.html" target="_top" xlink:title=" ">
<polygon fill="white" stroke="black" points="851.5,-0.5 851.5,-19.5 946.5,-19.5 946.5,-0.5 851.5,-0.5"/>
<text text-anchor="middle" x="899" y="-7.5" font-family="Helvetica,sans-Serif" font-size="10.00">Assignment.cpp</text>
</a>
</g>
</g>
<!-- Node1&#45;&gt;Node10 -->
<g id="edge9" class="edge">
<title>Node1&#45;&gt;Node10</title>
<path fill="none" stroke="midnightblue" d="M1031.4,-53.3C999.55,-43.13 954.16,-28.62 925.65,-19.52"/>
<polygon fill="midnightblue" stroke="midnightblue" points="1030.63,-56.73 1041.22,-56.44 1032.76,-50.07 1030.63,-56.73"/>
</g>
<!-- Node11 -->
<g id="node11" class="node">
<title>Node11</title>
<g id="a_node11"><a xlink:href="BooleanType_8cpp.html" target="_top" xlink:title=" ">
<polygon fill="white" stroke="black" points="964.5,-0.5 964.5,-19.5 1063.5,-19.5 1063.5,-0.5 964.5,-0.5"/>
<text text-anchor="middle" x="1014" y="-7.5" font-family="Helvetica,sans-Serif" font-size="10.00">BooleanType.cpp</text>
</a>
</g>
</g>
<!-- Node1&#45;&gt;Node11 -->
<g id="edge10" class="edge">
<title>Node1&#45;&gt;Node11</title>
<path fill="none" stroke="midnightblue" d="M1052,-49C1042.43,-39.43 1030.64,-27.64 1022.75,-19.75"/>
<polygon fill="midnightblue" stroke="midnightblue" points="1049.54,-51.49 1059.08,-56.08 1054.49,-46.54 1049.54,-51.49"/>
</g>
<!-- Node12 -->
<g id="node12" class="node">
<title>Node12</title>
<g id="a_node12"><a xlink:href="CharType_8cpp.html" target="_top" xlink:title=" ">
<polygon fill="white" stroke="black" points="1082,-0.5 1082,-19.5 1164,-19.5 1164,-0.5 1082,-0.5"/>
<text text-anchor="middle" x="1123" y="-7.5" font-family="Helvetica,sans-Serif" font-size="10.00">CharType.cpp</text>
</a>
</g>
</g>
<!-- Node1&#45;&gt;Node12 -->
<g id="edge11" class="edge">
<title>Node1&#45;&gt;Node12</title>
<path fill="none" stroke="midnightblue" d="M1084.29,-49C1094.04,-39.43 1106.05,-27.64 1114.09,-19.75"/>
<polygon fill="midnightblue" stroke="midnightblue" points="1081.77,-46.58 1077.08,-56.08 1086.67,-51.57 1081.77,-46.58"/>
</g>
<!-- Node13 -->
<g id="node13" class="node">
<title>Node13</title>
<g id="a_node13"><a xlink:href="CompoundType_8cpp.html" target="_top" xlink:title=" ">
<polygon fill="white" stroke="black" points="1182,-0.5 1182,-19.5 1294,-19.5 1294,-0.5 1182,-0.5"/>
<text text-anchor="middle" x="1238" y="-7.5" font-family="Helvetica,sans-Serif" font-size="10.00">CompoundType.cpp</text>
</a>
</g>
</g>
<!-- Node1&#45;&gt;Node13 -->
<g id="edge12" class="edge">
<title>Node1&#45;&gt;Node13</title>
<path fill="none" stroke="midnightblue" d="M1104.82,-53.3C1136.85,-43.13 1182.52,-28.62 1211.19,-19.52"/>
<polygon fill="midnightblue" stroke="midnightblue" points="1103.41,-50.08 1094.94,-56.44 1105.53,-56.75 1103.41,-50.08"/>
</g>
<!-- Node14 -->
<g id="node14" class="node">
<title>Node14</title>
<g id="a_node14"><a xlink:href="FloatType_8cpp.html" target="_top" xlink:title=" ">
<polygon fill="white" stroke="black" points="1312,-0.5 1312,-19.5 1396,-19.5 1396,-0.5 1312,-0.5"/>
<text text-anchor="middle" x="1354" y="-7.5" font-family="Helvetica,sans-Serif" font-size="10.00">FloatType.cpp</text>
</a>
</g>
</g>
<!-- Node1&#45;&gt;Node14 -->
<g id="edge13" class="edge">
<title>Node1&#45;&gt;Node14</title>
<path fill="none" stroke="midnightblue" d="M1112.25,-56.64C1166.68,-46.37 1258.42,-29.05 1311.86,-18.96"/>
<polygon fill="midnightblue" stroke="midnightblue" points="1111.39,-53.25 1102.21,-58.54 1112.69,-60.12 1111.39,-53.25"/>
</g>
<!-- Node15 -->
<g id="node15" class="node">
<title>Node15</title>
<g id="a_node15"><a xlink:href="FuncType_8cpp.html" target="_top" xlink:title=" ">
<polygon fill="white" stroke="black" points="1414,-0.5 1414,-19.5 1496,-19.5 1496,-0.5 1414,-0.5"/>
<text text-anchor="middle" x="1455" y="-7.5" font-family="Helvetica,sans-Serif" font-size="10.00">FuncType.cpp</text>
</a>
</g>
</g>
<!-- Node1&#45;&gt;Node15 -->
<g id="edge14" class="edge">
<title>Node1&#45;&gt;Node15</title>
<path fill="none" stroke="midnightblue" d="M1112.25,-59.74C1176.75,-51.93 1300.32,-36.4 1405,-20 1407.88,-19.55 1410.84,-19.07 1413.82,-18.56"/>
<polygon fill="midnightblue" stroke="midnightblue" points="1111.54,-56.3 1102.04,-60.97 1112.38,-63.25 1111.54,-56.3"/>
</g>
<!-- Node16 -->
<g id="node16" class="node">
<title>Node16</title>
<g id="a_node16"><a xlink:href="IntegerType_8cpp.html" target="_top" xlink:title=" ">
<polygon fill="white" stroke="black" points="1514,-0.5 1514,-19.5 1608,-19.5 1608,-0.5 1514,-0.5"/>
<text text-anchor="middle" x="1561" y="-7.5" font-family="Helvetica,sans-Serif" font-size="10.00">IntegerType.cpp</text>
</a>
</g>
</g>
<!-- Node1&#45;&gt;Node16 -->
<g id="edge15" class="edge">
<title>Node1&#45;&gt;Node16</title>
<path fill="none" stroke="midnightblue" d="M1112.15,-61.29C1191.12,-54.46 1361.71,-38.88 1505,-20 1507.93,-19.61 1510.94,-19.2 1513.97,-18.76"/>
<polygon fill="midnightblue" stroke="midnightblue" points="1111.74,-57.81 1102.07,-62.15 1112.34,-64.78 1111.74,-57.81"/>
</g>
<!-- Node17 -->
<g id="node17" class="node">
<title>Node17</title>
<g id="a_node17"><a xlink:href="PointerType_8cpp.html" target="_top" xlink:title=" ">
<polygon fill="white" stroke="black" points="1626,-0.5 1626,-19.5 1720,-19.5 1720,-0.5 1626,-0.5"/>
<text text-anchor="middle" x="1673" y="-7.5" font-family="Helvetica,sans-Serif" font-size="10.00">PointerType.cpp</text>
</a>
</g>
</g>
<!-- Node1&#45;&gt;Node17 -->
<g id="edge16" class="edge">
<title>Node1&#45;&gt;Node17</title>
<path fill="none" stroke="midnightblue" d="M1112.36,-62.53C1205.89,-57.08 1430.06,-42.65 1617,-20 1619.93,-19.64 1622.95,-19.25 1625.98,-18.83"/>
<polygon fill="midnightblue" stroke="midnightblue" points="1111.92,-59.05 1102.14,-63.13 1112.33,-66.04 1111.92,-59.05"/>
</g>
<!-- Node18 -->
<g id="node18" class="node">
<title>Node18</title>
<g id="a_node18"><a xlink:href="SizeType_8cpp.html" target="_top" xlink:title=" ">
<polygon fill="white" stroke="black" points="1738,-0.5 1738,-19.5 1818,-19.5 1818,-0.5 1738,-0.5"/>
<text text-anchor="middle" x="1778" y="-7.5" font-family="Helvetica,sans-Serif" font-size="10.00">SizeType.cpp</text>
</a>
</g>
</g>
<!-- Node1&#45;&gt;Node18 -->
<g id="edge17" class="edge">
<title>Node1&#45;&gt;Node18</title>
<path fill="none" stroke="midnightblue" d="M1112.25,-63.72C1218.79,-60.28 1497.88,-49 1729,-20 1731.92,-19.63 1734.92,-19.21 1737.95,-18.74"/>
<polygon fill="midnightblue" stroke="midnightblue" points="1112.07,-60.23 1102.19,-64.04 1112.29,-67.23 1112.07,-60.23"/>
</g>
<!-- Node19 -->
<g id="node19" class="node">
<title>Node19</title>
<g id="a_node19"><a xlink:href="Type_8cpp.html" target="_top" xlink:title=" ">
<polygon fill="white" stroke="black" points="1836.5,-0.5 1836.5,-19.5 1895.5,-19.5 1895.5,-0.5 1836.5,-0.5"/>
<text text-anchor="middle" x="1866" y="-7.5" font-family="Helvetica,sans-Serif" font-size="10.00">Type.cpp</text>
</a>
</g>
</g>
<!-- Node1&#45;&gt;Node19 -->
<g id="edge18" class="edge">
<title>Node1&#45;&gt;Node19</title>
<path fill="none" stroke="midnightblue" d="M1112.28,-64.96C1229.52,-64.29 1557.49,-58.81 1827,-20 1830.03,-19.56 1833.16,-19.01 1836.29,-18.4"/>
<polygon fill="midnightblue" stroke="midnightblue" points="1112.23,-61.46 1102.25,-65.01 1112.26,-68.46 1112.23,-61.46"/>
</g>
<!-- Node20 -->
<g id="node20" class="node">
<title>Node20</title>
<g id="a_node20"><a xlink:href="CapstonePPCDecoder_8cpp.html" target="_top" xlink:title=" ">
<polygon fill="white" stroke="black" points="1914,-0.5 1914,-19.5 2056,-19.5 2056,-0.5 1914,-0.5"/>
<text text-anchor="middle" x="1985" y="-7.5" font-family="Helvetica,sans-Serif" font-size="10.00">CapstonePPCDecoder.cpp</text>
</a>
</g>
</g>
<!-- Node1&#45;&gt;Node20 -->
<g id="edge19" class="edge">
<title>Node1&#45;&gt;Node20</title>
<path fill="none" stroke="midnightblue" d="M1112.66,-63.52C1237.84,-59.16 1602.74,-45.11 1905,-20 1907.92,-19.76 1910.91,-19.49 1913.92,-19.21"/>
<polygon fill="midnightblue" stroke="midnightblue" points="1112.2,-60.03 1102.33,-63.87 1112.45,-67.03 1112.2,-60.03"/>
</g>
<!-- Node21 -->
<g id="node21" class="node">
<title>Node21</title>
<g id="a_node21"><a xlink:href="DFATypeRecovery_8cpp.html" target="_top" xlink:title=" ">
<polygon fill="white" stroke="black" points="2074,-0.5 2074,-19.5 2196,-19.5 2196,-0.5 2074,-0.5"/>
<text text-anchor="middle" x="2135" y="-7.5" font-family="Helvetica,sans-Serif" font-size="10.00">DFATypeRecovery.cpp</text>
</a>
</g>
</g>
<!-- Node1&#45;&gt;Node21 -->
<g id="edge20" class="edge">
<title>Node1&#45;&gt;Node21</title>
<path fill="none" stroke="midnightblue" d="M1112.39,-64.31C1252.5,-61.83 1697.82,-51.84 2065,-20 2067.93,-19.75 2070.93,-19.46 2073.95,-19.15"/>
<polygon fill="midnightblue" stroke="midnightblue" points="1112.01,-60.81 1102.07,-64.48 1112.13,-67.81 1112.01,-60.81"/>
</g>
</g>
</svg>
