<?xml version="1.0" encoding="UTF-8" standalone="no"?>
<!DOCTYPE svg PUBLIC "-//W3C//DTD SVG 1.1//EN"
 "http://www.w3.org/Graphics/SVG/1.1/DTD/svg11.dtd">
<!-- Generated by graphviz version 2.43.0 (0)
 -->
<!-- Title: SizeType.cpp Pages: 1 -->
<svg width="548pt" height="341pt"
 viewBox="0.00 0.00 547.50 341.00" xmlns="http://www.w3.org/2000/svg" xmlns:xlink="http://www.w3.org/1999/xlink">
<g id="graph0" class="graph" transform="scale(1 1) rotate(0) translate(4 337)">
<title>SizeType.cpp</title>
<polygon fill="white" stroke="transparent" points="-4,4 -4,-337 543.5,-337 543.5,4 -4,4"/>
<!-- Node1 -->
<g id="node1" class="node">
<title>Node1</title>
<g id="a_node1"><a xlink:title=" ">
<polygon fill="#bfbfbf" stroke="black" points="121.5,-313.5 121.5,-332.5 201.5,-332.5 201.5,-313.5 121.5,-313.5"/>
<text text-anchor="middle" x="161.5" y="-320.5" font-family="Helvetica,sans-Serif" font-size="10.00">SizeType.cpp</text>
</a>
</g>
</g>
<!-- Node2 -->
<g id="node2" class="node">
<title>Node2</title>
<g id="a_node2"><a xlink:href="SizeType_8h.html" target="_top" xlink:title=" ">
<polygon fill="white" stroke="black" points="127.5,-252 127.5,-271 195.5,-271 195.5,-252 127.5,-252"/>
<text text-anchor="middle" x="161.5" y="-259" font-family="Helvetica,sans-Serif" font-size="10.00">SizeType.h</text>
</a>
</g>
</g>
<!-- Node1&#45;&gt;Node2 -->
<g id="edge1" class="edge">
<title>Node1&#45;&gt;Node2</title>
<path fill="none" stroke="midnightblue" d="M161.5,-313.48C161.5,-305.08 161.5,-291.98 161.5,-281.16"/>
<polygon fill="midnightblue" stroke="midnightblue" points="165,-281.01 161.5,-271.01 158,-281.01 165,-281.01"/>
</g>
<!-- Node10 -->
<g id="node10" class="node">
<title>Node10</title>
<g id="a_node10"><a xlink:href="ArrayType_8h.html" target="_top" xlink:title=" ">
<polygon fill="white" stroke="black" points="214,-246.5 214,-276.5 327,-276.5 327,-246.5 214,-246.5"/>
<text text-anchor="start" x="222" y="-264.5" font-family="Helvetica,sans-Serif" font-size="10.00">boomerang/ssl/type</text>
<text text-anchor="middle" x="270.5" y="-253.5" font-family="Helvetica,sans-Serif" font-size="10.00">/ArrayType.h</text>
</a>
</g>
</g>
<!-- Node1&#45;&gt;Node10 -->
<g id="edge9" class="edge">
<title>Node1&#45;&gt;Node10</title>
<path fill="none" stroke="midnightblue" d="M177.12,-313.48C192.36,-305.15 216.08,-292.21 235.79,-281.45"/>
<polygon fill="midnightblue" stroke="midnightblue" points="237.71,-284.39 244.81,-276.52 234.36,-278.24 237.71,-284.39"/>
</g>
<!-- Node11 -->
<g id="node11" class="node">
<title>Node11</title>
<g id="a_node11"><a xlink:href="Log_8h.html" target="_top" xlink:title=" ">
<polygon fill="white" stroke="black" points="0,-246.5 0,-276.5 109,-276.5 109,-246.5 0,-246.5"/>
<text text-anchor="start" x="8" y="-264.5" font-family="Helvetica,sans-Serif" font-size="10.00">boomerang/util/log</text>
<text text-anchor="middle" x="54.5" y="-253.5" font-family="Helvetica,sans-Serif" font-size="10.00">/Log.h</text>
</a>
</g>
</g>
<!-- Node1&#45;&gt;Node11 -->
<g id="edge11" class="edge">
<title>Node1&#45;&gt;Node11</title>
<path fill="none" stroke="midnightblue" d="M146.17,-313.48C131.2,-305.15 107.92,-292.21 88.57,-281.45"/>
<polygon fill="midnightblue" stroke="midnightblue" points="90.16,-278.32 79.72,-276.52 86.76,-284.44 90.16,-278.32"/>
</g>
<!-- Node3 -->
<g id="node3" class="node">
<title>Node3</title>
<g id="a_node3"><a xlink:href="Type_8h.html" target="_top" xlink:title=" ">
<polygon fill="white" stroke="black" points="127,-179.5 127,-209.5 240,-209.5 240,-179.5 127,-179.5"/>
<text text-anchor="start" x="135" y="-197.5" font-family="Helvetica,sans-Serif" font-size="10.00">boomerang/ssl/type</text>
<text text-anchor="middle" x="183.5" y="-186.5" font-family="Helvetica,sans-Serif" font-size="10.00">/Type.h</text>
</a>
</g>
</g>
<!-- Node2&#45;&gt;Node3 -->
<g id="edge2" class="edge">
<title>Node2&#45;&gt;Node3</title>
<path fill="none" stroke="midnightblue" d="M164.47,-251.73C167.27,-243.46 171.6,-230.66 175.42,-219.37"/>
<polygon fill="midnightblue" stroke="midnightblue" points="178.84,-220.18 178.73,-209.59 172.21,-217.94 178.84,-220.18"/>
</g>
<!-- Node4 -->
<g id="node4" class="node">
<title>Node4</title>
<g id="a_node4"><a xlink:href="BoomerangAPI_8h.html" target="_top" xlink:title=" ">
<polygon fill="white" stroke="black" points="279,-56.5 279,-86.5 434,-86.5 434,-56.5 279,-56.5"/>
<text text-anchor="start" x="287" y="-74.5" font-family="Helvetica,sans-Serif" font-size="10.00">boomerang/core/Boomerang</text>
<text text-anchor="middle" x="356.5" y="-63.5" font-family="Helvetica,sans-Serif" font-size="10.00">API.h</text>
</a>
</g>
</g>
<!-- Node3&#45;&gt;Node4 -->
<g id="edge3" class="edge">
<title>Node3&#45;&gt;Node4</title>
<path fill="none" stroke="midnightblue" d="M209.72,-179.46C227.08,-169.83 250.15,-156.41 269.5,-143 291.88,-127.49 315.82,-107.84 332.91,-93.23"/>
<polygon fill="midnightblue" stroke="midnightblue" points="335.42,-95.69 340.71,-86.51 330.85,-90.39 335.42,-95.69"/>
</g>
<!-- Node5 -->
<g id="node5" class="node">
<title>Node5</title>
<g id="a_node5"><a xlink:href="Types_8h.html" target="_top" xlink:title=" ">
<polygon fill="white" stroke="black" points="127,-62 127,-81 258,-81 258,-62 127,-62"/>
<text text-anchor="middle" x="192.5" y="-69" font-family="Helvetica,sans-Serif" font-size="10.00">boomerang/util/Types.h</text>
</a>
</g>
</g>
<!-- Node3&#45;&gt;Node5 -->
<g id="edge4" class="edge">
<title>Node3&#45;&gt;Node5</title>
<path fill="none" stroke="midnightblue" d="M184.57,-179.14C186.2,-157.2 189.31,-115.33 191.12,-91.09"/>
<polygon fill="midnightblue" stroke="midnightblue" points="194.61,-91.28 191.86,-81.05 187.63,-90.76 194.61,-91.28"/>
</g>
<!-- Node7 -->
<g id="node7" class="node">
<title>Node7</title>
<g id="a_node7"><a xlink:title=" ">
<polygon fill="white" stroke="#bfbfbf" points="208,-123.5 208,-142.5 261,-142.5 261,-123.5 208,-123.5"/>
<text text-anchor="middle" x="234.5" y="-130.5" font-family="Helvetica,sans-Serif" font-size="10.00">QString</text>
</a>
</g>
</g>
<!-- Node3&#45;&gt;Node7 -->
<g id="edge6" class="edge">
<title>Node3&#45;&gt;Node7</title>
<path fill="none" stroke="midnightblue" d="M195.59,-179.4C203.07,-170.66 212.72,-159.41 220.53,-150.3"/>
<polygon fill="midnightblue" stroke="midnightblue" points="223.23,-152.53 227.08,-142.66 217.91,-147.97 223.23,-152.53"/>
</g>
<!-- Node8 -->
<g id="node8" class="node">
<title>Node8</title>
<g id="a_node8"><a xlink:title=" ">
<polygon fill="white" stroke="#bfbfbf" points="99.5,-123.5 99.5,-142.5 151.5,-142.5 151.5,-123.5 99.5,-123.5"/>
<text text-anchor="middle" x="125.5" y="-130.5" font-family="Helvetica,sans-Serif" font-size="10.00">cassert</text>
</a>
</g>
</g>
<!-- Node3&#45;&gt;Node8 -->
<g id="edge7" class="edge">
<title>Node3&#45;&gt;Node8</title>
<path fill="none" stroke="midnightblue" d="M169.75,-179.4C161.15,-170.58 150.05,-159.18 141.11,-150.02"/>
<polygon fill="midnightblue" stroke="midnightblue" points="143.43,-147.38 133.94,-142.66 138.41,-152.26 143.43,-147.38"/>
</g>
<!-- Node9 -->
<g id="node9" class="node">
<title>Node9</title>
<g id="a_node9"><a xlink:title=" ">
<polygon fill="white" stroke="#bfbfbf" points="23.5,-123.5 23.5,-142.5 81.5,-142.5 81.5,-123.5 23.5,-123.5"/>
<text text-anchor="middle" x="52.5" y="-130.5" font-family="Helvetica,sans-Serif" font-size="10.00">memory</text>
</a>
</g>
</g>
<!-- Node3&#45;&gt;Node9 -->
<g id="edge8" class="edge">
<title>Node3&#45;&gt;Node9</title>
<path fill="none" stroke="midnightblue" d="M152.45,-179.4C130.77,-169.55 102.04,-156.5 80.95,-146.92"/>
<polygon fill="midnightblue" stroke="midnightblue" points="82.11,-143.61 71.56,-142.66 79.22,-149.98 82.11,-143.61"/>
</g>
<!-- Node6 -->
<g id="node6" class="node">
<title>Node6</title>
<g id="a_node6"><a xlink:title=" ">
<polygon fill="white" stroke="#bfbfbf" points="167.5,-0.5 167.5,-19.5 217.5,-19.5 217.5,-0.5 167.5,-0.5"/>
<text text-anchor="middle" x="192.5" y="-7.5" font-family="Helvetica,sans-Serif" font-size="10.00">cstdint</text>
</a>
</g>
</g>
<!-- Node5&#45;&gt;Node6 -->
<g id="edge5" class="edge">
<title>Node5&#45;&gt;Node6</title>
<path fill="none" stroke="midnightblue" d="M192.5,-61.98C192.5,-53.58 192.5,-40.48 192.5,-29.66"/>
<polygon fill="midnightblue" stroke="midnightblue" points="196,-29.51 192.5,-19.51 189,-29.51 196,-29.51"/>
</g>
<!-- Node10&#45;&gt;Node3 -->
<g id="edge10" class="edge">
<title>Node10&#45;&gt;Node3</title>
<path fill="none" stroke="midnightblue" d="M251.62,-246.4C239.65,-237.45 223.97,-225.74 210.67,-215.8"/>
<polygon fill="midnightblue" stroke="midnightblue" points="212.45,-212.76 202.34,-209.58 208.26,-218.37 212.45,-212.76"/>
</g>
<!-- Node11&#45;&gt;Node5 -->
<g id="edge20" class="edge">
<title>Node11&#45;&gt;Node5</title>
<path fill="none" stroke="midnightblue" d="M42.85,-246.16C22.61,-219.38 -14.28,-161.08 14.5,-123 28.23,-104.83 81.35,-91.3 126.01,-82.84"/>
<polygon fill="midnightblue" stroke="midnightblue" points="126.78,-86.26 135.98,-81.01 125.51,-79.37 126.78,-86.26"/>
</g>
<!-- Node11&#45;&gt;Node9 -->
<g id="edge21" class="edge">
<title>Node11&#45;&gt;Node9</title>
<path fill="none" stroke="midnightblue" d="M53.79,-246.36C53.32,-236.23 52.74,-222.28 52.5,-210 52.12,-190.66 52.17,-168.54 52.29,-153.17"/>
<polygon fill="midnightblue" stroke="midnightblue" points="55.79,-152.93 52.39,-142.89 48.79,-152.86 55.79,-152.93"/>
</g>
<!-- Node12 -->
<g id="node12" class="node">
<title>Node12</title>
<g id="a_node12"><a xlink:href="Address_8h.html" target="_top" xlink:title=" ">
<polygon fill="white" stroke="black" points="258.5,-185 258.5,-204 400.5,-204 400.5,-185 258.5,-185"/>
<text text-anchor="middle" x="329.5" y="-192" font-family="Helvetica,sans-Serif" font-size="10.00">boomerang/util/Address.h</text>
</a>
</g>
</g>
<!-- Node11&#45;&gt;Node12 -->
<g id="edge12" class="edge">
<title>Node11&#45;&gt;Node12</title>
<path fill="none" stroke="midnightblue" d="M109.16,-247.58C160.2,-235.52 235.51,-217.72 283.53,-206.37"/>
<polygon fill="midnightblue" stroke="midnightblue" points="284.42,-209.75 293.34,-204.05 282.81,-202.94 284.42,-209.75"/>
</g>
<!-- Node15 -->
<g id="node15" class="node">
<title>Node15</title>
<g id="a_node15"><a xlink:title=" ">
<polygon fill="white" stroke="#bfbfbf" points="62,-185 62,-204 109,-204 109,-185 62,-185"/>
<text text-anchor="middle" x="85.5" y="-192" font-family="Helvetica,sans-Serif" font-size="10.00">vector</text>
</a>
</g>
</g>
<!-- Node11&#45;&gt;Node15 -->
<g id="edge22" class="edge">
<title>Node11&#45;&gt;Node15</title>
<path fill="none" stroke="midnightblue" d="M61.23,-246.4C65.82,-236.76 71.95,-223.91 76.9,-213.54"/>
<polygon fill="midnightblue" stroke="midnightblue" points="80.21,-214.73 81.35,-204.19 73.89,-211.71 80.21,-214.73"/>
</g>
<!-- Node12&#45;&gt;Node4 -->
<g id="edge13" class="edge">
<title>Node12&#45;&gt;Node4</title>
<path fill="none" stroke="midnightblue" d="M331.6,-184.94C334.05,-174.9 338.17,-157.77 341.5,-143 344.97,-127.59 348.67,-110.23 351.52,-96.6"/>
<polygon fill="midnightblue" stroke="midnightblue" points="355,-97.07 353.61,-86.57 348.14,-95.64 355,-97.07"/>
</g>
<!-- Node12&#45;&gt;Node5 -->
<g id="edge18" class="edge">
<title>Node12&#45;&gt;Node5</title>
<path fill="none" stroke="midnightblue" d="M323.19,-184.55C312.97,-170.43 291.67,-142.57 269.5,-123 253.37,-108.76 232.92,-95.54 217.15,-86.2"/>
<polygon fill="midnightblue" stroke="midnightblue" points="218.88,-83.15 208.47,-81.17 215.36,-89.21 218.88,-83.15"/>
</g>
<!-- Node12&#45;&gt;Node7 -->
<g id="edge19" class="edge">
<title>Node12&#45;&gt;Node7</title>
<path fill="none" stroke="midnightblue" d="M315.89,-184.98C300.44,-175.3 275.01,-159.37 256.68,-147.89"/>
<polygon fill="midnightblue" stroke="midnightblue" points="258.42,-144.85 248.09,-142.51 254.7,-150.78 258.42,-144.85"/>
</g>
<!-- Node13 -->
<g id="node13" class="node">
<title>Node13</title>
<g id="a_node13"><a xlink:href="OStream_8h.html" target="_top" xlink:title=" ">
<polygon fill="white" stroke="black" points="393.5,-123.5 393.5,-142.5 539.5,-142.5 539.5,-123.5 393.5,-123.5"/>
<text text-anchor="middle" x="466.5" y="-130.5" font-family="Helvetica,sans-Serif" font-size="10.00">boomerang/util/OStream.h</text>
</a>
</g>
</g>
<!-- Node12&#45;&gt;Node13 -->
<g id="edge14" class="edge">
<title>Node12&#45;&gt;Node13</title>
<path fill="none" stroke="midnightblue" d="M349.13,-184.98C372.32,-174.9 411.12,-158.05 437.71,-146.5"/>
<polygon fill="midnightblue" stroke="midnightblue" points="439.13,-149.7 446.91,-142.51 436.34,-143.28 439.13,-149.7"/>
</g>
<!-- Node13&#45;&gt;Node4 -->
<g id="edge15" class="edge">
<title>Node13&#45;&gt;Node4</title>
<path fill="none" stroke="midnightblue" d="M450.74,-123.48C435.28,-115.12 411.2,-102.09 391.25,-91.3"/>
<polygon fill="midnightblue" stroke="midnightblue" points="392.89,-88.2 382.42,-86.52 389.56,-94.36 392.89,-88.2"/>
</g>
<!-- Node13&#45;&gt;Node5 -->
<g id="edge16" class="edge">
<title>Node13&#45;&gt;Node5</title>
<path fill="none" stroke="midnightblue" d="M427.24,-123.48C378.31,-112.85 294.66,-94.68 241.55,-83.15"/>
<polygon fill="midnightblue" stroke="midnightblue" points="242.2,-79.71 231.68,-81.01 240.71,-86.55 242.2,-79.71"/>
</g>
<!-- Node14 -->
<g id="node14" class="node">
<title>Node14</title>
<g id="a_node14"><a xlink:title=" ">
<polygon fill="white" stroke="#bfbfbf" points="452.5,-62 452.5,-81 498.5,-81 498.5,-62 452.5,-62"/>
<text text-anchor="middle" x="475.5" y="-69" font-family="Helvetica,sans-Serif" font-size="10.00">cstdio</text>
</a>
</g>
</g>
<!-- Node13&#45;&gt;Node14 -->
<g id="edge17" class="edge">
<title>Node13&#45;&gt;Node14</title>
<path fill="none" stroke="midnightblue" d="M467.79,-123.48C469.06,-115.08 471.04,-101.98 472.68,-91.16"/>
<polygon fill="midnightblue" stroke="midnightblue" points="476.18,-91.42 474.21,-81.01 469.26,-90.37 476.18,-91.42"/>
</g>
</g>
</svg>
