<?xml version="1.0" encoding="UTF-8" standalone="no"?>
<!DOCTYPE svg PUBLIC "-//W3C//DTD SVG 1.1//EN"
 "http://www.w3.org/Graphics/SVG/1.1/DTD/svg11.dtd">
<!-- Generated by graphviz version 2.43.0 (0)
 -->
<!-- Title: SSL2ParserDriver.h Pages: 1 -->
<svg width="610pt" height="207pt"
 viewBox="0.00 0.00 609.50 207.00" xmlns="http://www.w3.org/2000/svg" xmlns:xlink="http://www.w3.org/1999/xlink">
<g id="graph0" class="graph" transform="scale(1 1) rotate(0) translate(4 203)">
<title>SSL2ParserDriver.h</title>
<polygon fill="white" stroke="transparent" points="-4,4 -4,-203 605.5,-203 605.5,4 -4,4"/>
<!-- Node1 -->
<g id="node1" class="node">
<title>Node1</title>
<g id="a_node1"><a xlink:title=" ">
<polygon fill="#bfbfbf" stroke="black" points="416.5,-179.5 416.5,-198.5 526.5,-198.5 526.5,-179.5 416.5,-179.5"/>
<text text-anchor="middle" x="471.5" y="-186.5" font-family="Helvetica,sans-Serif" font-size="10.00">SSL2ParserDriver.h</text>
</a>
</g>
</g>
<!-- Node2 -->
<g id="node2" class="node">
<title>Node2</title>
<g id="a_node2"><a xlink:title=" ">
<polygon fill="white" stroke="#bfbfbf" points="241.5,-123.5 241.5,-142.5 333.5,-142.5 333.5,-123.5 241.5,-123.5"/>
<text text-anchor="middle" x="287.5" y="-130.5" font-family="Helvetica,sans-Serif" font-size="10.00">SSL2Parser.hpp</text>
</a>
</g>
</g>
<!-- Node1&#45;&gt;Node2 -->
<g id="edge1" class="edge">
<title>Node1&#45;&gt;Node2</title>
<path fill="none" stroke="midnightblue" d="M442.34,-179.44C410.99,-170.24 360.97,-155.56 326.3,-145.39"/>
<polygon fill="midnightblue" stroke="midnightblue" points="327.1,-141.97 316.52,-142.52 325.13,-148.69 327.1,-141.97"/>
</g>
<!-- Node3 -->
<g id="node3" class="node">
<title>Node3</title>
<g id="a_node3"><a xlink:href="Register_8h.html" target="_top" xlink:title=" ">
<polygon fill="white" stroke="black" points="352,-123.5 352,-142.5 493,-142.5 493,-123.5 352,-123.5"/>
<text text-anchor="middle" x="422.5" y="-130.5" font-family="Helvetica,sans-Serif" font-size="10.00">boomerang/ssl/Register.h</text>
</a>
</g>
</g>
<!-- Node1&#45;&gt;Node3 -->
<g id="edge2" class="edge">
<title>Node1&#45;&gt;Node3</title>
<path fill="none" stroke="midnightblue" d="M463.41,-179.08C456.34,-171.3 445.91,-159.8 437.35,-150.37"/>
<polygon fill="midnightblue" stroke="midnightblue" points="439.75,-147.8 430.44,-142.75 434.57,-152.51 439.75,-147.8"/>
</g>
<!-- Node9 -->
<g id="node9" class="node">
<title>Node9</title>
<g id="a_node9"><a xlink:title=" ">
<polygon fill="white" stroke="#bfbfbf" points="557.5,-62 557.5,-81 601.5,-81 601.5,-62 557.5,-62"/>
<text text-anchor="middle" x="579.5" y="-69" font-family="Helvetica,sans-Serif" font-size="10.00">string</text>
</a>
</g>
</g>
<!-- Node1&#45;&gt;Node9 -->
<g id="edge11" class="edge">
<title>Node1&#45;&gt;Node9</title>
<path fill="none" stroke="midnightblue" d="M479.62,-179.32C497.6,-160.09 541.03,-113.64 564.25,-88.81"/>
<polygon fill="midnightblue" stroke="midnightblue" points="567.01,-90.98 571.29,-81.28 561.9,-86.2 567.01,-90.98"/>
</g>
<!-- Node11 -->
<g id="node11" class="node">
<title>Node11</title>
<g id="a_node11"><a xlink:title=" ">
<polygon fill="white" stroke="#bfbfbf" points="549.5,-123.5 549.5,-142.5 587.5,-142.5 587.5,-123.5 549.5,-123.5"/>
<text text-anchor="middle" x="568.5" y="-130.5" font-family="Helvetica,sans-Serif" font-size="10.00">map</text>
</a>
</g>
</g>
<!-- Node1&#45;&gt;Node11 -->
<g id="edge10" class="edge">
<title>Node1&#45;&gt;Node11</title>
<path fill="none" stroke="midnightblue" d="M487.08,-179.32C502.5,-170.74 526.31,-157.49 544.21,-147.52"/>
<polygon fill="midnightblue" stroke="midnightblue" points="545.92,-150.58 552.95,-142.65 542.51,-144.46 545.92,-150.58"/>
</g>
<!-- Node4 -->
<g id="node4" class="node">
<title>Node4</title>
<g id="a_node4"><a xlink:href="BoomerangAPI_8h.html" target="_top" xlink:title=" ">
<polygon fill="white" stroke="black" points="0,-56.5 0,-86.5 155,-86.5 155,-56.5 0,-56.5"/>
<text text-anchor="start" x="8" y="-74.5" font-family="Helvetica,sans-Serif" font-size="10.00">boomerang/core/Boomerang</text>
<text text-anchor="middle" x="77.5" y="-63.5" font-family="Helvetica,sans-Serif" font-size="10.00">API.h</text>
</a>
</g>
</g>
<!-- Node3&#45;&gt;Node4 -->
<g id="edge3" class="edge">
<title>Node3&#45;&gt;Node4</title>
<path fill="none" stroke="midnightblue" d="M373.07,-123.48C318.93,-114.14 231.04,-98.98 165.14,-87.62"/>
<polygon fill="midnightblue" stroke="midnightblue" points="165.63,-84.15 155.18,-85.9 164.44,-91.05 165.63,-84.15"/>
</g>
<!-- Node5 -->
<g id="node5" class="node">
<title>Node5</title>
<g id="a_node5"><a xlink:href="Types_8h.html" target="_top" xlink:title=" ">
<polygon fill="white" stroke="black" points="173,-62 173,-81 304,-81 304,-62 173,-62"/>
<text text-anchor="middle" x="238.5" y="-69" font-family="Helvetica,sans-Serif" font-size="10.00">boomerang/util/Types.h</text>
</a>
</g>
</g>
<!-- Node3&#45;&gt;Node5 -->
<g id="edge4" class="edge">
<title>Node3&#45;&gt;Node5</title>
<path fill="none" stroke="midnightblue" d="M396.14,-123.48C364.16,-113.14 310.12,-95.66 274.38,-84.1"/>
<polygon fill="midnightblue" stroke="midnightblue" points="275.41,-80.76 264.81,-81.01 273.25,-87.42 275.41,-80.76"/>
</g>
<!-- Node7 -->
<g id="node7" class="node">
<title>Node7</title>
<g id="a_node7"><a xlink:title=" ">
<polygon fill="white" stroke="#bfbfbf" points="322,-62 322,-81 375,-81 375,-62 322,-62"/>
<text text-anchor="middle" x="348.5" y="-69" font-family="Helvetica,sans-Serif" font-size="10.00">QString</text>
</a>
</g>
</g>
<!-- Node3&#45;&gt;Node7 -->
<g id="edge6" class="edge">
<title>Node3&#45;&gt;Node7</title>
<path fill="none" stroke="midnightblue" d="M411.9,-123.48C400.25,-114.11 381.31,-98.88 367.17,-87.51"/>
<polygon fill="midnightblue" stroke="midnightblue" points="369.07,-84.55 359.08,-81.01 364.68,-90 369.07,-84.55"/>
</g>
<!-- Node8 -->
<g id="node8" class="node">
<title>Node8</title>
<g id="a_node8"><a xlink:title=" ">
<polygon fill="white" stroke="#bfbfbf" points="393.5,-62 393.5,-81 451.5,-81 451.5,-62 393.5,-62"/>
<text text-anchor="middle" x="422.5" y="-69" font-family="Helvetica,sans-Serif" font-size="10.00">memory</text>
</a>
</g>
</g>
<!-- Node3&#45;&gt;Node8 -->
<g id="edge7" class="edge">
<title>Node3&#45;&gt;Node8</title>
<path fill="none" stroke="midnightblue" d="M422.5,-123.48C422.5,-115.08 422.5,-101.98 422.5,-91.16"/>
<polygon fill="midnightblue" stroke="midnightblue" points="426,-91.01 422.5,-81.01 419,-91.01 426,-91.01"/>
</g>
<!-- Node3&#45;&gt;Node9 -->
<g id="edge8" class="edge">
<title>Node3&#45;&gt;Node9</title>
<path fill="none" stroke="midnightblue" d="M448.1,-123.45C473.53,-114.81 513.52,-100.79 547.5,-87 548.91,-86.43 550.36,-85.83 551.81,-85.21"/>
<polygon fill="midnightblue" stroke="midnightblue" points="553.58,-88.26 561.33,-81.04 550.77,-81.85 553.58,-88.26"/>
</g>
<!-- Node10 -->
<g id="node10" class="node">
<title>Node10</title>
<g id="a_node10"><a xlink:title=" ">
<polygon fill="white" stroke="#bfbfbf" points="470,-62 470,-81 539,-81 539,-62 470,-62"/>
<text text-anchor="middle" x="504.5" y="-69" font-family="Helvetica,sans-Serif" font-size="10.00">type_traits</text>
</a>
</g>
</g>
<!-- Node3&#45;&gt;Node10 -->
<g id="edge9" class="edge">
<title>Node3&#45;&gt;Node10</title>
<path fill="none" stroke="midnightblue" d="M434.25,-123.48C447.28,-114.02 468.54,-98.6 484.26,-87.19"/>
<polygon fill="midnightblue" stroke="midnightblue" points="486.73,-89.71 492.77,-81.01 482.62,-84.05 486.73,-89.71"/>
</g>
<!-- Node6 -->
<g id="node6" class="node">
<title>Node6</title>
<g id="a_node6"><a xlink:title=" ">
<polygon fill="white" stroke="#bfbfbf" points="213.5,-0.5 213.5,-19.5 263.5,-19.5 263.5,-0.5 213.5,-0.5"/>
<text text-anchor="middle" x="238.5" y="-7.5" font-family="Helvetica,sans-Serif" font-size="10.00">cstdint</text>
</a>
</g>
</g>
<!-- Node5&#45;&gt;Node6 -->
<g id="edge5" class="edge">
<title>Node5&#45;&gt;Node6</title>
<path fill="none" stroke="midnightblue" d="M238.5,-61.98C238.5,-53.58 238.5,-40.48 238.5,-29.66"/>
<polygon fill="midnightblue" stroke="midnightblue" points="242,-29.51 238.5,-19.51 235,-29.51 242,-29.51"/>
</g>
</g>
</svg>
