<?xml version="1.0" encoding="UTF-8" standalone="no"?>
<!DOCTYPE svg PUBLIC "-//W3C//DTD SVG 1.1//EN"
 "http://www.w3.org/Graphics/SVG/1.1/DTD/svg11.dtd">
<!-- Generated by graphviz version 2.43.0 (0)
 -->
<!-- Title: ST20FrontEnd.h Pages: 1 -->
<svg width="618pt" height="408pt"
 viewBox="0.00 0.00 617.50 408.00" xmlns="http://www.w3.org/2000/svg" xmlns:xlink="http://www.w3.org/1999/xlink">
<g id="graph0" class="graph" transform="scale(1 1) rotate(0) translate(4 404)">
<title>ST20FrontEnd.h</title>
<polygon fill="white" stroke="transparent" points="-4,4 -4,-404 613.5,-404 613.5,4 -4,4"/>
<!-- Node1 -->
<g id="node1" class="node">
<title>Node1</title>
<g id="a_node1"><a xlink:title=" ">
<polygon fill="#bfbfbf" stroke="black" points="62,-380.5 62,-399.5 154,-399.5 154,-380.5 62,-380.5"/>
<text text-anchor="middle" x="108" y="-387.5" font-family="Helvetica,sans-Serif" font-size="10.00">ST20FrontEnd.h</text>
</a>
</g>
</g>
<!-- Node2 -->
<g id="node2" class="node">
<title>Node2</title>
<g id="a_node2"><a xlink:href="BoomerangAPI_8h.html" target="_top" xlink:title=" ">
<polygon fill="white" stroke="black" points="153.5,-56.5 153.5,-86.5 308.5,-86.5 308.5,-56.5 153.5,-56.5"/>
<text text-anchor="start" x="161.5" y="-74.5" font-family="Helvetica,sans-Serif" font-size="10.00">boomerang/core/Boomerang</text>
<text text-anchor="middle" x="231" y="-63.5" font-family="Helvetica,sans-Serif" font-size="10.00">API.h</text>
</a>
</g>
</g>
<!-- Node1&#45;&gt;Node2 -->
<g id="edge1" class="edge">
<title>Node1&#45;&gt;Node2</title>
<path fill="none" stroke="midnightblue" d="M92.53,-380.47C62.66,-362.73 0,-318.81 0,-262.5 0,-262.5 0,-262.5 0,-193.5 0,-126.11 78.1,-96.18 143.48,-82.93"/>
<polygon fill="midnightblue" stroke="midnightblue" points="144.28,-86.34 153.44,-81.02 142.96,-79.47 144.28,-86.34"/>
</g>
<!-- Node3 -->
<g id="node3" class="node">
<title>Node3</title>
<g id="a_node3"><a xlink:href="DefaultFrontEnd_8h.html" target="_top" xlink:title=" ">
<polygon fill="white" stroke="black" points="210,-313.5 210,-343.5 326,-343.5 326,-313.5 210,-313.5"/>
<text text-anchor="start" x="218" y="-331.5" font-family="Helvetica,sans-Serif" font-size="10.00">boomerang/frontend</text>
<text text-anchor="middle" x="268" y="-320.5" font-family="Helvetica,sans-Serif" font-size="10.00">/DefaultFrontEnd.h</text>
</a>
</g>
</g>
<!-- Node1&#45;&gt;Node3 -->
<g id="edge2" class="edge">
<title>Node1&#45;&gt;Node3</title>
<path fill="none" stroke="midnightblue" d="M130.92,-380.48C154.21,-371.81 190.97,-358.15 220.56,-347.14"/>
<polygon fill="midnightblue" stroke="midnightblue" points="222.14,-350.29 230.29,-343.52 219.7,-343.73 222.14,-350.29"/>
</g>
<!-- Node4 -->
<g id="node4" class="node">
<title>Node4</title>
<g id="a_node4"><a xlink:href="SigEnum_8h.html" target="_top" xlink:title=" ">
<polygon fill="white" stroke="black" points="28,-179.5 28,-209.5 144,-209.5 144,-179.5 28,-179.5"/>
<text text-anchor="start" x="36" y="-197.5" font-family="Helvetica,sans-Serif" font-size="10.00">boomerang/frontend</text>
<text text-anchor="middle" x="86" y="-186.5" font-family="Helvetica,sans-Serif" font-size="10.00">/SigEnum.h</text>
</a>
</g>
</g>
<!-- Node3&#45;&gt;Node4 -->
<g id="edge3" class="edge">
<title>Node3&#45;&gt;Node4</title>
<path fill="none" stroke="midnightblue" d="M209.94,-313.93C185.52,-306.1 157.96,-294.3 137,-277 118.1,-261.41 104.1,-236.89 95.6,-218.82"/>
<polygon fill="midnightblue" stroke="midnightblue" points="98.73,-217.24 91.45,-209.54 92.34,-220.1 98.73,-217.24"/>
</g>
<!-- Node5 -->
<g id="node5" class="node">
<title>Node5</title>
<g id="a_node5"><a xlink:href="TargetQueue_8h.html" target="_top" xlink:title=" ">
<polygon fill="white" stroke="black" points="405,-246.5 405,-276.5 521,-276.5 521,-246.5 405,-246.5"/>
<text text-anchor="start" x="413" y="-264.5" font-family="Helvetica,sans-Serif" font-size="10.00">boomerang/frontend</text>
<text text-anchor="middle" x="463" y="-253.5" font-family="Helvetica,sans-Serif" font-size="10.00">/TargetQueue.h</text>
</a>
</g>
</g>
<!-- Node3&#45;&gt;Node5 -->
<g id="edge4" class="edge">
<title>Node3&#45;&gt;Node5</title>
<path fill="none" stroke="midnightblue" d="M310.31,-313.4C339.95,-303.52 379.74,-290.25 411.27,-279.74"/>
<polygon fill="midnightblue" stroke="midnightblue" points="412.39,-283.06 420.77,-276.58 410.18,-276.42 412.39,-283.06"/>
</g>
<!-- Node13 -->
<g id="node13" class="node">
<title>Node13</title>
<g id="a_node13"><a xlink:href="IFrontEnd_8h.html" target="_top" xlink:title=" ">
<polygon fill="white" stroke="black" points="145.5,-252 145.5,-271 290.5,-271 290.5,-252 145.5,-252"/>
<text text-anchor="middle" x="218" y="-259" font-family="Helvetica,sans-Serif" font-size="10.00">boomerang/ifc/IFrontEnd.h</text>
</a>
</g>
</g>
<!-- Node3&#45;&gt;Node13 -->
<g id="edge15" class="edge">
<title>Node3&#45;&gt;Node13</title>
<path fill="none" stroke="midnightblue" d="M257.15,-313.4C249.43,-303.36 239.03,-289.84 230.89,-279.25"/>
<polygon fill="midnightblue" stroke="midnightblue" points="233.56,-276.99 224.69,-271.19 228.01,-281.25 233.56,-276.99"/>
</g>
<!-- Node15 -->
<g id="node15" class="node">
<title>Node15</title>
<g id="a_node15"><a xlink:title=" ">
<polygon fill="white" stroke="#bfbfbf" points="316,-185 316,-204 374,-204 374,-185 316,-185"/>
<text text-anchor="middle" x="345" y="-192" font-family="Helvetica,sans-Serif" font-size="10.00">memory</text>
</a>
</g>
</g>
<!-- Node3&#45;&gt;Node15 -->
<g id="edge23" class="edge">
<title>Node3&#45;&gt;Node15</title>
<path fill="none" stroke="midnightblue" d="M277.2,-313.49C283.72,-303.43 292.6,-289.5 300,-277 312.82,-255.35 326.69,-229.89 335.59,-213.26"/>
<polygon fill="midnightblue" stroke="midnightblue" points="338.83,-214.63 340.44,-204.16 332.65,-211.34 338.83,-214.63"/>
</g>
<!-- Node17 -->
<g id="node17" class="node">
<title>Node17</title>
<g id="a_node17"><a xlink:title=" ">
<polygon fill="white" stroke="#bfbfbf" points="347,-252 347,-271 385,-271 385,-252 347,-252"/>
<text text-anchor="middle" x="366" y="-259" font-family="Helvetica,sans-Serif" font-size="10.00">map</text>
</a>
</g>
</g>
<!-- Node3&#45;&gt;Node17 -->
<g id="edge22" class="edge">
<title>Node3&#45;&gt;Node17</title>
<path fill="none" stroke="midnightblue" d="M289.26,-313.4C305.7,-302.5 328.34,-287.48 344.77,-276.58"/>
<polygon fill="midnightblue" stroke="midnightblue" points="346.78,-279.45 353.17,-271.01 342.91,-273.62 346.78,-279.45"/>
</g>
<!-- Node6 -->
<g id="node6" class="node">
<title>Node6</title>
<g id="a_node6"><a xlink:href="Address_8h.html" target="_top" xlink:title=" ">
<polygon fill="white" stroke="black" points="392,-185 392,-204 534,-204 534,-185 392,-185"/>
<text text-anchor="middle" x="463" y="-192" font-family="Helvetica,sans-Serif" font-size="10.00">boomerang/util/Address.h</text>
</a>
</g>
</g>
<!-- Node5&#45;&gt;Node6 -->
<g id="edge5" class="edge">
<title>Node5&#45;&gt;Node6</title>
<path fill="none" stroke="midnightblue" d="M463,-246.4C463,-237.06 463,-224.71 463,-214.52"/>
<polygon fill="midnightblue" stroke="midnightblue" points="466.5,-214.19 463,-204.19 459.5,-214.19 466.5,-214.19"/>
</g>
<!-- Node12 -->
<g id="node12" class="node">
<title>Node12</title>
<g id="a_node12"><a xlink:title=" ">
<polygon fill="white" stroke="#bfbfbf" points="552.5,-185 552.5,-204 599.5,-204 599.5,-185 552.5,-185"/>
<text text-anchor="middle" x="576" y="-192" font-family="Helvetica,sans-Serif" font-size="10.00">queue</text>
</a>
</g>
</g>
<!-- Node5&#45;&gt;Node12 -->
<g id="edge14" class="edge">
<title>Node5&#45;&gt;Node12</title>
<path fill="none" stroke="midnightblue" d="M487.52,-246.4C506.73,-235.34 533.3,-220.06 552.3,-209.13"/>
<polygon fill="midnightblue" stroke="midnightblue" points="554.29,-212.03 561.21,-204.01 550.8,-205.96 554.29,-212.03"/>
</g>
<!-- Node6&#45;&gt;Node2 -->
<g id="edge6" class="edge">
<title>Node6&#45;&gt;Node2</title>
<path fill="none" stroke="midnightblue" d="M424.31,-184.98C380.44,-174.84 312.13,-157.47 290,-143 271.24,-130.74 255.31,-110.71 244.74,-95.13"/>
<polygon fill="midnightblue" stroke="midnightblue" points="247.56,-93.03 239.17,-86.56 241.69,-96.85 247.56,-93.03"/>
</g>
<!-- Node7 -->
<g id="node7" class="node">
<title>Node7</title>
<g id="a_node7"><a xlink:href="OStream_8h.html" target="_top" xlink:title=" ">
<polygon fill="white" stroke="black" points="370,-123.5 370,-142.5 516,-142.5 516,-123.5 370,-123.5"/>
<text text-anchor="middle" x="443" y="-130.5" font-family="Helvetica,sans-Serif" font-size="10.00">boomerang/util/OStream.h</text>
</a>
</g>
</g>
<!-- Node6&#45;&gt;Node7 -->
<g id="edge7" class="edge">
<title>Node6&#45;&gt;Node7</title>
<path fill="none" stroke="midnightblue" d="M460.13,-184.98C457.28,-176.49 452.82,-163.2 449.16,-152.32"/>
<polygon fill="midnightblue" stroke="midnightblue" points="452.36,-150.87 445.86,-142.51 445.73,-153.1 452.36,-150.87"/>
</g>
<!-- Node8 -->
<g id="node8" class="node">
<title>Node8</title>
<g id="a_node8"><a xlink:href="Types_8h.html" target="_top" xlink:title=" ">
<polygon fill="white" stroke="black" points="478.5,-62 478.5,-81 609.5,-81 609.5,-62 478.5,-62"/>
<text text-anchor="middle" x="544" y="-69" font-family="Helvetica,sans-Serif" font-size="10.00">boomerang/util/Types.h</text>
</a>
</g>
</g>
<!-- Node6&#45;&gt;Node8 -->
<g id="edge12" class="edge">
<title>Node6&#45;&gt;Node8</title>
<path fill="none" stroke="midnightblue" d="M478.32,-184.89C492.51,-176.14 513.14,-161.29 525,-143 535.11,-127.4 539.87,-106.55 542.1,-91.57"/>
<polygon fill="midnightblue" stroke="midnightblue" points="545.59,-91.8 543.35,-81.45 538.65,-90.94 545.59,-91.8"/>
</g>
<!-- Node11 -->
<g id="node11" class="node">
<title>Node11</title>
<g id="a_node11"><a xlink:title=" ">
<polygon fill="white" stroke="#bfbfbf" points="298.5,-123.5 298.5,-142.5 351.5,-142.5 351.5,-123.5 298.5,-123.5"/>
<text text-anchor="middle" x="325" y="-130.5" font-family="Helvetica,sans-Serif" font-size="10.00">QString</text>
</a>
</g>
</g>
<!-- Node6&#45;&gt;Node11 -->
<g id="edge13" class="edge">
<title>Node6&#45;&gt;Node11</title>
<path fill="none" stroke="midnightblue" d="M443.23,-184.98C419.86,-174.9 380.79,-158.05 354,-146.5"/>
<polygon fill="midnightblue" stroke="midnightblue" points="355.3,-143.25 344.74,-142.51 352.53,-149.68 355.3,-143.25"/>
</g>
<!-- Node7&#45;&gt;Node2 -->
<g id="edge8" class="edge">
<title>Node7&#45;&gt;Node2</title>
<path fill="none" stroke="midnightblue" d="M412.63,-123.48C380.96,-114.59 330.51,-100.43 290.81,-89.29"/>
<polygon fill="midnightblue" stroke="midnightblue" points="291.54,-85.86 280.96,-86.52 289.65,-92.6 291.54,-85.86"/>
</g>
<!-- Node7&#45;&gt;Node8 -->
<g id="edge9" class="edge">
<title>Node7&#45;&gt;Node8</title>
<path fill="none" stroke="midnightblue" d="M457.47,-123.48C473.97,-113.75 501.18,-97.73 520.68,-86.24"/>
<polygon fill="midnightblue" stroke="midnightblue" points="522.72,-89.1 529.56,-81.01 519.16,-83.07 522.72,-89.1"/>
</g>
<!-- Node10 -->
<g id="node10" class="node">
<title>Node10</title>
<g id="a_node10"><a xlink:title=" ">
<polygon fill="white" stroke="#bfbfbf" points="414,-62 414,-81 460,-81 460,-62 414,-62"/>
<text text-anchor="middle" x="437" y="-69" font-family="Helvetica,sans-Serif" font-size="10.00">cstdio</text>
</a>
</g>
</g>
<!-- Node7&#45;&gt;Node10 -->
<g id="edge11" class="edge">
<title>Node7&#45;&gt;Node10</title>
<path fill="none" stroke="midnightblue" d="M442.14,-123.48C441.29,-115.08 439.97,-101.98 438.88,-91.16"/>
<polygon fill="midnightblue" stroke="midnightblue" points="442.34,-90.61 437.86,-81.01 435.38,-91.31 442.34,-90.61"/>
</g>
<!-- Node9 -->
<g id="node9" class="node">
<title>Node9</title>
<g id="a_node9"><a xlink:title=" ">
<polygon fill="white" stroke="#bfbfbf" points="519,-0.5 519,-19.5 569,-19.5 569,-0.5 519,-0.5"/>
<text text-anchor="middle" x="544" y="-7.5" font-family="Helvetica,sans-Serif" font-size="10.00">cstdint</text>
</a>
</g>
</g>
<!-- Node8&#45;&gt;Node9 -->
<g id="edge10" class="edge">
<title>Node8&#45;&gt;Node9</title>
<path fill="none" stroke="midnightblue" d="M544,-61.98C544,-53.58 544,-40.48 544,-29.66"/>
<polygon fill="midnightblue" stroke="midnightblue" points="547.5,-29.51 544,-19.51 540.5,-29.51 547.5,-29.51"/>
</g>
<!-- Node13&#45;&gt;Node2 -->
<g id="edge16" class="edge">
<title>Node13&#45;&gt;Node2</title>
<path fill="none" stroke="midnightblue" d="M211.58,-251.75C204.93,-242.09 194.96,-225.82 191,-210 187.65,-196.64 188.54,-192.56 191,-179 196.42,-149.14 209.75,-116.75 219.53,-95.63"/>
<polygon fill="midnightblue" stroke="midnightblue" points="222.74,-97.04 223.87,-86.5 216.42,-94.03 222.74,-97.04"/>
</g>
<!-- Node13&#45;&gt;Node4 -->
<g id="edge17" class="edge">
<title>Node13&#45;&gt;Node4</title>
<path fill="none" stroke="midnightblue" d="M200.47,-251.87C181.07,-242.31 149.21,-226.63 124.03,-214.22"/>
<polygon fill="midnightblue" stroke="midnightblue" points="125.26,-210.93 114.74,-209.65 122.16,-217.21 125.26,-210.93"/>
</g>
<!-- Node13&#45;&gt;Node6 -->
<g id="edge18" class="edge">
<title>Node13&#45;&gt;Node6</title>
<path fill="none" stroke="midnightblue" d="M250.28,-251.94C294.07,-240.32 372.38,-219.54 420.79,-206.7"/>
<polygon fill="midnightblue" stroke="midnightblue" points="421.88,-210.03 430.65,-204.08 420.08,-203.26 421.88,-210.03"/>
</g>
<!-- Node14 -->
<g id="node14" class="node">
<title>Node14</title>
<g id="a_node14"><a xlink:title=" ">
<polygon fill="white" stroke="#bfbfbf" points="200,-185 200,-204 232,-204 232,-185 200,-185"/>
<text text-anchor="middle" x="216" y="-192" font-family="Helvetica,sans-Serif" font-size="10.00">list</text>
</a>
</g>
</g>
<!-- Node13&#45;&gt;Node14 -->
<g id="edge19" class="edge">
<title>Node13&#45;&gt;Node14</title>
<path fill="none" stroke="midnightblue" d="M217.73,-251.73C217.44,-242.18 216.96,-226.62 216.58,-214.28"/>
<polygon fill="midnightblue" stroke="midnightblue" points="220.07,-214.01 216.27,-204.13 213.07,-214.23 220.07,-214.01"/>
</g>
<!-- Node13&#45;&gt;Node15 -->
<g id="edge20" class="edge">
<title>Node13&#45;&gt;Node15</title>
<path fill="none" stroke="midnightblue" d="M234.86,-251.87C256.4,-240.84 293.9,-221.66 319.08,-208.77"/>
<polygon fill="midnightblue" stroke="midnightblue" points="320.76,-211.84 328.07,-204.17 317.57,-205.61 320.76,-211.84"/>
</g>
<!-- Node16 -->
<g id="node16" class="node">
<title>Node16</title>
<g id="a_node16"><a xlink:title=" ">
<polygon fill="white" stroke="#bfbfbf" points="250.5,-185 250.5,-204 297.5,-204 297.5,-185 250.5,-185"/>
<text text-anchor="middle" x="274" y="-192" font-family="Helvetica,sans-Serif" font-size="10.00">vector</text>
</a>
</g>
</g>
<!-- Node13&#45;&gt;Node16 -->
<g id="edge21" class="edge">
<title>Node13&#45;&gt;Node16</title>
<path fill="none" stroke="midnightblue" d="M225.55,-251.73C234.28,-241.6 248.85,-224.69 259.74,-212.06"/>
<polygon fill="midnightblue" stroke="midnightblue" points="262.69,-213.99 266.57,-204.13 257.39,-209.42 262.69,-213.99"/>
</g>
</g>
</svg>
