<?xml version="1.0" encoding="UTF-8" standalone="no"?>
<!DOCTYPE svg PUBLIC "-//W3C//DTD SVG 1.1//EN"
 "http://www.w3.org/Graphics/SVG/1.1/DTD/svg11.dtd">
<!-- Generated by graphviz version 2.43.0 (0)
 -->
<!-- Title: ST20Decoder.h Pages: 1 -->
<!--zoomable 453 -->
<svg id="main" version="1.1" xmlns="http://www.w3.org/2000/svg" xmlns:xlink="http://www.w3.org/1999/xlink" xml:space="preserve" onload="init(evt)">
<style type="text/css"><![CDATA[
.edge:hover path { stroke: red; }
.edge:hover polygon { stroke: red; fill: red; }
]]></style>
<script type="text/javascript"><![CDATA[
var edges = document.getElementsByTagName('g');
if (edges && edges.length) {
  for (var i=0;i<edges.length;i++) {
    if (edges[i].id.substr(0,4)=='edge') {
      edges[i].setAttribute('class','edge');
    }
  }
}
]]></script>
        <defs>
                <circle id="rim" cx="0" cy="0" r="7"/>
                <circle id="rim2" cx="0" cy="0" r="3.5"/>
                <g id="zoomPlus">
                        <use xlink:href="#rim" fill="#404040">
                                <set attributeName="fill" to="#808080" begin="zoomplus.mouseover" end="zoomplus.mouseout"/>
                        </use>
                        <path d="M-4,0h8M0,-4v8" fill="none" stroke="white" stroke-width="1.5" pointer-events="none"/>
                </g>
                <g id="zoomMin">
                        <use xlink:href="#rim" fill="#404040">
                                <set attributeName="fill" to="#808080" begin="zoomminus.mouseover" end="zoomminus.mouseout"/>
                        </use>
                        <path d="M-4,0h8" fill="none" stroke="white" stroke-width="1.5" pointer-events="none"/>
                </g>
                <g id="dirArrow">
                        <path fill="none" stroke="white" stroke-width="1.5" d="M0,-3.0v7 M-2.5,-0.5L0,-3.0L2.5,-0.5"/>
                </g>
               <g id="resetDef">
                       <use xlink:href="#rim2" fill="#404040">
                               <set attributeName="fill" to="#808080" begin="reset.mouseover" end="reset.mouseout"/>
                       </use>
               </g>
        </defs>

<script type="text/javascript">
var viewWidth = 965;
var viewHeight = 453;
var sectionId = 'dynsection-0';
</script>
<script xlink:href="svgpan.js"/>
<svg id="graph" class="graph">
<g id="viewport">
<title>ST20Decoder.h</title>
<polygon fill="white" stroke="transparent" points="-4,4 -4,-449 960.5,-449 960.5,4 -4,4"/>
<!-- Node1 -->
<g id="node1" class="node">
<title>Node1</title>
<g id="a_node1"><a xlink:title=" ">
<polygon fill="#bfbfbf" stroke="black" points="717.5,-425.5 717.5,-444.5 807.5,-444.5 807.5,-425.5 717.5,-425.5"/>
<text text-anchor="middle" x="762.5" y="-432.5" font-family="Helvetica,sans-Serif" font-size="10.00">ST20Decoder.h</text>
</a>
</g>
</g>
<!-- Node2 -->
<g id="node2" class="node">
<title>Node2</title>
<g id="a_node2"><a xlink:href="BoomerangAPI_8h.html" target="_top" xlink:title=" ">
<polygon fill="white" stroke="black" points="589,-56.5 589,-86.5 744,-86.5 744,-56.5 589,-56.5"/>
<text text-anchor="start" x="597" y="-74.5" font-family="Helvetica,sans-Serif" font-size="10.00">boomerang/core/Boomerang</text>
<text text-anchor="middle" x="666.5" y="-63.5" font-family="Helvetica,sans-Serif" font-size="10.00">API.h</text>
</a>
</g>
</g>
<!-- Node1&#45;&gt;Node2 -->
<g id="edge1" class="edge">
<title>Node1&#45;&gt;Node2</title>
<path fill="none" stroke="midnightblue" d="M807.98,-427.33C865.32,-416.05 956.5,-387.29 956.5,-318.5 956.5,-318.5 956.5,-318.5 956.5,-188 956.5,-143.1 835.02,-107.94 749.31,-88.72"/>
<polygon fill="midnightblue" stroke="midnightblue" points="749.82,-85.25 739.3,-86.51 748.32,-92.08 749.82,-85.25"/>
</g>
<!-- Node3 -->
<g id="node3" class="node">
<title>Node3</title>
<g id="a_node3"><a xlink:href="IDecoder_8h.html" target="_top" xlink:title=" ">
<polygon fill="white" stroke="black" points="3,-308 3,-327 146,-327 146,-308 3,-308"/>
<text text-anchor="middle" x="74.5" y="-315" font-family="Helvetica,sans-Serif" font-size="10.00">boomerang/ifc/IDecoder.h</text>
</a>
</g>
</g>
<!-- Node1&#45;&gt;Node3 -->
<g id="edge2" class="edge">
<title>Node1&#45;&gt;Node3</title>
<path fill="none" stroke="midnightblue" d="M717.16,-426.65C616.21,-410.24 365.26,-369.22 155.5,-333 147.78,-331.67 139.65,-330.24 131.64,-328.82"/>
<polygon fill="midnightblue" stroke="midnightblue" points="132.06,-325.34 121.6,-327.03 130.83,-332.23 132.06,-325.34"/>
</g>
<!-- Node17 -->
<g id="node17" class="node">
<title>Node17</title>
<g id="a_node17"><a xlink:href="RTLInstDict_8h.html" target="_top" xlink:title=" ">
<polygon fill="white" stroke="black" points="594.5,-369.5 594.5,-388.5 750.5,-388.5 750.5,-369.5 594.5,-369.5"/>
<text text-anchor="middle" x="672.5" y="-376.5" font-family="Helvetica,sans-Serif" font-size="10.00">boomerang/ssl/RTLInstDict.h</text>
</a>
</g>
</g>
<!-- Node1&#45;&gt;Node17 -->
<g id="edge24" class="edge">
<title>Node1&#45;&gt;Node17</title>
<path fill="none" stroke="midnightblue" d="M748.04,-425.32C734,-416.9 712.45,-403.97 695.96,-394.07"/>
<polygon fill="midnightblue" stroke="midnightblue" points="697.3,-390.8 686.92,-388.65 693.7,-396.8 697.3,-390.8"/>
</g>
<!-- Node27 -->
<g id="node27" class="node">
<title>Node27</title>
<g id="a_node27"><a xlink:href="ExpHelp_8h.html" target="_top" xlink:title=" ">
<polygon fill="white" stroke="black" points="766.5,-241 766.5,-260 928.5,-260 928.5,-241 766.5,-241"/>
<text text-anchor="middle" x="847.5" y="-248" font-family="Helvetica,sans-Serif" font-size="10.00">boomerang/ssl/exp/ExpHelp.h</text>
</a>
</g>
</g>
<!-- Node1&#45;&gt;Node27 -->
<g id="edge45" class="edge">
<title>Node1&#45;&gt;Node27</title>
<path fill="none" stroke="midnightblue" d="M766.8,-425.4C775.46,-408.04 795.53,-367.48 811.5,-333 821.53,-311.35 832.54,-286.21 839.71,-269.64"/>
<polygon fill="midnightblue" stroke="midnightblue" points="843.07,-270.68 843.82,-260.11 836.64,-267.91 843.07,-270.68"/>
</g>
<!-- Node4 -->
<g id="node4" class="node">
<title>Node4</title>
<g id="a_node4"><a xlink:href="DecodeResult_8h.html" target="_top" xlink:title=" ">
<polygon fill="white" stroke="black" points="30.5,-235.5 30.5,-265.5 146.5,-265.5 146.5,-235.5 30.5,-235.5"/>
<text text-anchor="start" x="38.5" y="-253.5" font-family="Helvetica,sans-Serif" font-size="10.00">boomerang/frontend</text>
<text text-anchor="middle" x="88.5" y="-242.5" font-family="Helvetica,sans-Serif" font-size="10.00">/DecodeResult.h</text>
</a>
</g>
</g>
<!-- Node3&#45;&gt;Node4 -->
<g id="edge3" class="edge">
<title>Node3&#45;&gt;Node4</title>
<path fill="none" stroke="midnightblue" d="M76.39,-307.73C78.17,-299.46 80.93,-286.66 83.36,-275.37"/>
<polygon fill="midnightblue" stroke="midnightblue" points="86.78,-276.1 85.47,-265.59 79.94,-274.63 86.78,-276.1"/>
</g>
<!-- Node14 -->
<g id="node14" class="node">
<title>Node14</title>
<g id="a_node14"><a xlink:href="Register_8h.html" target="_top" xlink:title=" ">
<polygon fill="white" stroke="black" points="395,-241 395,-260 536,-260 536,-241 395,-241"/>
<text text-anchor="middle" x="465.5" y="-248" font-family="Helvetica,sans-Serif" font-size="10.00">boomerang/ssl/Register.h</text>
</a>
</g>
</g>
<!-- Node3&#45;&gt;Node14 -->
<g id="edge17" class="edge">
<title>Node3&#45;&gt;Node14</title>
<path fill="none" stroke="midnightblue" d="M121.59,-307.94C132.71,-305.96 144.52,-303.88 155.5,-302 201.8,-294.09 326.16,-273.96 402.56,-261.63"/>
<polygon fill="midnightblue" stroke="midnightblue" points="403.23,-265.07 412.55,-260.02 402.12,-258.16 403.23,-265.07"/>
</g>
<!-- Node5 -->
<g id="node5" class="node">
<title>Node5</title>
<g id="a_node5"><a xlink:href="Address_8h.html" target="_top" xlink:title=" ">
<polygon fill="white" stroke="black" points="159.5,-179.5 159.5,-198.5 301.5,-198.5 301.5,-179.5 159.5,-179.5"/>
<text text-anchor="middle" x="230.5" y="-186.5" font-family="Helvetica,sans-Serif" font-size="10.00">boomerang/util/Address.h</text>
</a>
</g>
</g>
<!-- Node4&#45;&gt;Node5 -->
<g id="edge4" class="edge">
<title>Node4&#45;&gt;Node5</title>
<path fill="none" stroke="midnightblue" d="M122.15,-235.4C145.98,-225.42 177.65,-212.15 200.59,-202.53"/>
<polygon fill="midnightblue" stroke="midnightblue" points="201.97,-205.75 209.84,-198.66 199.26,-199.29 201.97,-205.75"/>
</g>
<!-- Node7 -->
<g id="node7" class="node">
<title>Node7</title>
<g id="a_node7"><a xlink:href="Types_8h.html" target="_top" xlink:title=" ">
<polygon fill="white" stroke="black" points="179,-62 179,-81 310,-81 310,-62 179,-62"/>
<text text-anchor="middle" x="244.5" y="-69" font-family="Helvetica,sans-Serif" font-size="10.00">boomerang/util/Types.h</text>
</a>
</g>
</g>
<!-- Node4&#45;&gt;Node7 -->
<g id="edge13" class="edge">
<title>Node4&#45;&gt;Node7</title>
<path fill="none" stroke="midnightblue" d="M87.9,-235.45C87.91,-220.4 89.83,-196.34 100.5,-179 128,-134.28 181.86,-102.22 215.35,-85.58"/>
<polygon fill="midnightblue" stroke="midnightblue" points="217.14,-88.6 224.63,-81.1 214.1,-82.3 217.14,-88.6"/>
</g>
<!-- Node11 -->
<g id="node11" class="node">
<title>Node11</title>
<g id="a_node11"><a xlink:title=" ">
<polygon fill="white" stroke="#bfbfbf" points="0,-179.5 0,-198.5 53,-198.5 53,-179.5 0,-179.5"/>
<text text-anchor="middle" x="26.5" y="-186.5" font-family="Helvetica,sans-Serif" font-size="10.00">cstddef</text>
</a>
</g>
</g>
<!-- Node4&#45;&gt;Node11 -->
<g id="edge14" class="edge">
<title>Node4&#45;&gt;Node11</title>
<path fill="none" stroke="midnightblue" d="M73.81,-235.4C64.52,-226.49 52.5,-214.95 42.9,-205.74"/>
<polygon fill="midnightblue" stroke="midnightblue" points="45.16,-203.06 35.52,-198.66 40.31,-208.11 45.16,-203.06"/>
</g>
<!-- Node12 -->
<g id="node12" class="node">
<title>Node12</title>
<g id="a_node12"><a xlink:title=" ">
<polygon fill="white" stroke="#bfbfbf" points="109.5,-179.5 109.5,-198.5 141.5,-198.5 141.5,-179.5 109.5,-179.5"/>
<text text-anchor="middle" x="125.5" y="-186.5" font-family="Helvetica,sans-Serif" font-size="10.00">list</text>
</a>
</g>
</g>
<!-- Node4&#45;&gt;Node12 -->
<g id="edge15" class="edge">
<title>Node4&#45;&gt;Node12</title>
<path fill="none" stroke="midnightblue" d="M97.27,-235.4C102.48,-227.02 109.13,-216.33 114.67,-207.42"/>
<polygon fill="midnightblue" stroke="midnightblue" points="117.81,-209 120.12,-198.66 111.86,-205.3 117.81,-209"/>
</g>
<!-- Node13 -->
<g id="node13" class="node">
<title>Node13</title>
<g id="a_node13"><a xlink:title=" ">
<polygon fill="white" stroke="#bfbfbf" points="319.5,-179.5 319.5,-198.5 377.5,-198.5 377.5,-179.5 319.5,-179.5"/>
<text text-anchor="middle" x="348.5" y="-186.5" font-family="Helvetica,sans-Serif" font-size="10.00">memory</text>
</a>
</g>
</g>
<!-- Node4&#45;&gt;Node13 -->
<g id="edge16" class="edge">
<title>Node4&#45;&gt;Node13</title>
<path fill="none" stroke="midnightblue" d="M146.96,-236.35C189.47,-226.75 248.67,-213.32 309.66,-199.18"/>
<polygon fill="midnightblue" stroke="midnightblue" points="310.51,-202.58 319.46,-196.91 308.93,-195.76 310.51,-202.58"/>
</g>
<!-- Node5&#45;&gt;Node2 -->
<g id="edge5" class="edge">
<title>Node5&#45;&gt;Node2</title>
<path fill="none" stroke="midnightblue" d="M264.13,-179.44C294.1,-171.38 338.91,-158.29 376.5,-143 394.54,-135.66 397.11,-129.43 415.5,-123 468.4,-104.51 530.07,-91.99 579.04,-84.04"/>
<polygon fill="midnightblue" stroke="midnightblue" points="579.64,-87.48 588.97,-82.46 578.54,-80.57 579.64,-87.48"/>
</g>
<!-- Node6 -->
<g id="node6" class="node">
<title>Node6</title>
<g id="a_node6"><a xlink:href="OStream_8h.html" target="_top" xlink:title=" ">
<polygon fill="white" stroke="black" points="221.5,-123.5 221.5,-142.5 367.5,-142.5 367.5,-123.5 221.5,-123.5"/>
<text text-anchor="middle" x="294.5" y="-130.5" font-family="Helvetica,sans-Serif" font-size="10.00">boomerang/util/OStream.h</text>
</a>
</g>
</g>
<!-- Node5&#45;&gt;Node6 -->
<g id="edge6" class="edge">
<title>Node5&#45;&gt;Node6</title>
<path fill="none" stroke="midnightblue" d="M240.78,-179.32C250.34,-171.26 264.78,-159.08 276.28,-149.37"/>
<polygon fill="midnightblue" stroke="midnightblue" points="278.64,-151.96 284.03,-142.83 274.13,-146.61 278.64,-151.96"/>
</g>
<!-- Node5&#45;&gt;Node7 -->
<g id="edge11" class="edge">
<title>Node5&#45;&gt;Node7</title>
<path fill="none" stroke="midnightblue" d="M224.89,-179.15C217.66,-166.62 206.69,-143.02 212.5,-123 216.09,-110.61 223.74,-98.35 230.66,-89.01"/>
<polygon fill="midnightblue" stroke="midnightblue" points="233.49,-91.07 236.91,-81.04 227.98,-86.75 233.49,-91.07"/>
</g>
<!-- Node10 -->
<g id="node10" class="node">
<title>Node10</title>
<g id="a_node10"><a xlink:title=" ">
<polygon fill="white" stroke="#bfbfbf" points="424,-123.5 424,-142.5 477,-142.5 477,-123.5 424,-123.5"/>
<text text-anchor="middle" x="450.5" y="-130.5" font-family="Helvetica,sans-Serif" font-size="10.00">QString</text>
</a>
</g>
</g>
<!-- Node5&#45;&gt;Node10 -->
<g id="edge12" class="edge">
<title>Node5&#45;&gt;Node10</title>
<path fill="none" stroke="midnightblue" d="M265.36,-179.44C305.9,-169.49 372.54,-153.14 413.84,-143"/>
<polygon fill="midnightblue" stroke="midnightblue" points="414.88,-146.35 423.76,-140.56 413.22,-139.55 414.88,-146.35"/>
</g>
<!-- Node6&#45;&gt;Node2 -->
<g id="edge7" class="edge">
<title>Node6&#45;&gt;Node2</title>
<path fill="none" stroke="midnightblue" d="M347.8,-123.48C408.05,-113.84 507.06,-98 578.75,-86.54"/>
<polygon fill="midnightblue" stroke="midnightblue" points="579.36,-89.98 588.68,-84.95 578.25,-83.07 579.36,-89.98"/>
</g>
<!-- Node6&#45;&gt;Node7 -->
<g id="edge8" class="edge">
<title>Node6&#45;&gt;Node7</title>
<path fill="none" stroke="midnightblue" d="M287.34,-123.48C279.76,-114.46 267.63,-100.02 258.21,-88.81"/>
<polygon fill="midnightblue" stroke="midnightblue" points="260.76,-86.41 251.65,-81.01 255.4,-90.92 260.76,-86.41"/>
</g>
<!-- Node9 -->
<g id="node9" class="node">
<title>Node9</title>
<g id="a_node9"><a xlink:title=" ">
<polygon fill="white" stroke="#bfbfbf" points="328.5,-62 328.5,-81 374.5,-81 374.5,-62 328.5,-62"/>
<text text-anchor="middle" x="351.5" y="-69" font-family="Helvetica,sans-Serif" font-size="10.00">cstdio</text>
</a>
</g>
</g>
<!-- Node6&#45;&gt;Node9 -->
<g id="edge10" class="edge">
<title>Node6&#45;&gt;Node9</title>
<path fill="none" stroke="midnightblue" d="M302.67,-123.48C311.39,-114.37 325.4,-99.74 336.19,-88.48"/>
<polygon fill="midnightblue" stroke="midnightblue" points="338.96,-90.65 343.35,-81.01 333.9,-85.81 338.96,-90.65"/>
</g>
<!-- Node8 -->
<g id="node8" class="node">
<title>Node8</title>
<g id="a_node8"><a xlink:title=" ">
<polygon fill="white" stroke="#bfbfbf" points="219.5,-0.5 219.5,-19.5 269.5,-19.5 269.5,-0.5 219.5,-0.5"/>
<text text-anchor="middle" x="244.5" y="-7.5" font-family="Helvetica,sans-Serif" font-size="10.00">cstdint</text>
</a>
</g>
</g>
<!-- Node7&#45;&gt;Node8 -->
<g id="edge9" class="edge">
<title>Node7&#45;&gt;Node8</title>
<path fill="none" stroke="midnightblue" d="M244.5,-61.98C244.5,-53.58 244.5,-40.48 244.5,-29.66"/>
<polygon fill="midnightblue" stroke="midnightblue" points="248,-29.51 244.5,-19.51 241,-29.51 248,-29.51"/>
</g>
<!-- Node14&#45;&gt;Node2 -->
<g id="edge18" class="edge">
<title>Node14&#45;&gt;Node2</title>
<path fill="none" stroke="midnightblue" d="M475.19,-240.96C505.46,-214.31 598.81,-132.1 642.94,-93.25"/>
<polygon fill="midnightblue" stroke="midnightblue" points="645.38,-95.76 650.58,-86.52 640.76,-90.51 645.38,-95.76"/>
</g>
<!-- Node14&#45;&gt;Node7 -->
<g id="edge19" class="edge">
<title>Node14&#45;&gt;Node7</title>
<path fill="none" stroke="midnightblue" d="M470.9,-240.98C484.2,-218.81 515.43,-158.59 486.5,-123 484.99,-121.14 367.97,-97.33 297.23,-83.08"/>
<polygon fill="midnightblue" stroke="midnightblue" points="297.64,-79.59 287.14,-81.05 296.26,-86.45 297.64,-79.59"/>
</g>
<!-- Node14&#45;&gt;Node10 -->
<g id="edge20" class="edge">
<title>Node14&#45;&gt;Node10</title>
<path fill="none" stroke="midnightblue" d="M464.37,-240.82C461.96,-222.26 456.26,-178.34 452.96,-152.97"/>
<polygon fill="midnightblue" stroke="midnightblue" points="456.4,-152.25 451.64,-142.78 449.46,-153.15 456.4,-152.25"/>
</g>
<!-- Node14&#45;&gt;Node13 -->
<g id="edge21" class="edge">
<title>Node14&#45;&gt;Node13</title>
<path fill="none" stroke="midnightblue" d="M448.74,-240.98C429.28,-231.08 396.95,-214.64 374.29,-203.12"/>
<polygon fill="midnightblue" stroke="midnightblue" points="375.73,-199.92 365.23,-198.51 372.56,-206.16 375.73,-199.92"/>
</g>
<!-- Node15 -->
<g id="node15" class="node">
<title>Node15</title>
<g id="a_node15"><a xlink:title=" ">
<polygon fill="white" stroke="#bfbfbf" points="395.5,-179.5 395.5,-198.5 439.5,-198.5 439.5,-179.5 395.5,-179.5"/>
<text text-anchor="middle" x="417.5" y="-186.5" font-family="Helvetica,sans-Serif" font-size="10.00">string</text>
</a>
</g>
</g>
<!-- Node14&#45;&gt;Node15 -->
<g id="edge22" class="edge">
<title>Node14&#45;&gt;Node15</title>
<path fill="none" stroke="midnightblue" d="M458.62,-240.98C451.35,-231.96 439.7,-217.52 430.66,-206.31"/>
<polygon fill="midnightblue" stroke="midnightblue" points="433.37,-204.09 424.36,-198.51 427.92,-208.49 433.37,-204.09"/>
</g>
<!-- Node16 -->
<g id="node16" class="node">
<title>Node16</title>
<g id="a_node16"><a xlink:title=" ">
<polygon fill="white" stroke="#bfbfbf" points="572,-179.5 572,-198.5 641,-198.5 641,-179.5 572,-179.5"/>
<text text-anchor="middle" x="606.5" y="-186.5" font-family="Helvetica,sans-Serif" font-size="10.00">type_traits</text>
</a>
</g>
</g>
<!-- Node14&#45;&gt;Node16 -->
<g id="edge23" class="edge">
<title>Node14&#45;&gt;Node16</title>
<path fill="none" stroke="midnightblue" d="M485.7,-240.98C509.57,-230.9 549.5,-214.05 576.87,-202.5"/>
<polygon fill="midnightblue" stroke="midnightblue" points="578.48,-205.62 586.34,-198.51 575.76,-199.17 578.48,-205.62"/>
</g>
<!-- Node17&#45;&gt;Node14 -->
<g id="edge33" class="edge">
<title>Node17&#45;&gt;Node14</title>
<path fill="none" stroke="midnightblue" d="M672.97,-369.37C673.32,-353.71 671.71,-320.53 653.5,-302 643.68,-292.01 567.71,-273.77 515.4,-262.17"/>
<polygon fill="midnightblue" stroke="midnightblue" points="516.13,-258.74 505.61,-260.01 514.62,-265.58 516.13,-258.74"/>
</g>
<!-- Node18 -->
<g id="node18" class="node">
<title>Node18</title>
<g id="a_node18"><a xlink:href="RegDB_8h.html" target="_top" xlink:title=" ">
<polygon fill="white" stroke="black" points="370.5,-308 370.5,-327 504.5,-327 504.5,-308 370.5,-308"/>
<text text-anchor="middle" x="437.5" y="-315" font-family="Helvetica,sans-Serif" font-size="10.00">boomerang/ssl/RegDB.h</text>
</a>
</g>
</g>
<!-- Node17&#45;&gt;Node18 -->
<g id="edge25" class="edge">
<title>Node17&#45;&gt;Node18</title>
<path fill="none" stroke="midnightblue" d="M638.83,-369.48C597.3,-358.96 526.61,-341.06 481,-329.51"/>
<polygon fill="midnightblue" stroke="midnightblue" points="481.66,-326.07 471.11,-327.01 479.94,-332.86 481.66,-326.07"/>
</g>
<!-- Node20 -->
<g id="node20" class="node">
<title>Node20</title>
<g id="a_node20"><a xlink:title=" ">
<polygon fill="white" stroke="#bfbfbf" points="328.5,-241 328.5,-260 366.5,-260 366.5,-241 328.5,-241"/>
<text text-anchor="middle" x="347.5" y="-248" font-family="Helvetica,sans-Serif" font-size="10.00">map</text>
</a>
</g>
</g>
<!-- Node17&#45;&gt;Node20 -->
<g id="edge42" class="edge">
<title>Node17&#45;&gt;Node20</title>
<path fill="none" stroke="midnightblue" d="M594.4,-376.87C513.26,-373.99 393.69,-364.35 361.5,-333 344.98,-316.91 343.68,-288.92 345,-270.3"/>
<polygon fill="midnightblue" stroke="midnightblue" points="348.51,-270.41 346.05,-260.11 341.55,-269.69 348.51,-270.41"/>
</g>
<!-- Node21 -->
<g id="node21" class="node">
<title>Node21</title>
<g id="a_node21"><a xlink:title=" ">
<polygon fill="white" stroke="#bfbfbf" points="554.5,-241 554.5,-260 586.5,-260 586.5,-241 554.5,-241"/>
<text text-anchor="middle" x="570.5" y="-248" font-family="Helvetica,sans-Serif" font-size="10.00">set</text>
</a>
</g>
</g>
<!-- Node17&#45;&gt;Node21 -->
<g id="edge43" class="edge">
<title>Node17&#45;&gt;Node21</title>
<path fill="none" stroke="midnightblue" d="M677.93,-369.18C686.46,-354.08 700.64,-322.89 686.5,-302 662.35,-266.33 635.39,-284.53 596.5,-266 595.68,-265.61 594.86,-265.21 594.03,-264.79"/>
<polygon fill="midnightblue" stroke="midnightblue" points="595.65,-261.69 585.18,-260.12 592.38,-267.88 595.65,-261.69"/>
</g>
<!-- Node22 -->
<g id="node22" class="node">
<title>Node22</title>
<g id="a_node22"><a xlink:href="TableEntry_8h.html" target="_top" xlink:title=" ">
<polygon fill="white" stroke="black" points="164.5,-308 164.5,-327 314.5,-327 314.5,-308 164.5,-308"/>
<text text-anchor="middle" x="239.5" y="-315" font-family="Helvetica,sans-Serif" font-size="10.00">boomerang/ssl/TableEntry.h</text>
</a>
</g>
</g>
<!-- Node17&#45;&gt;Node22 -->
<g id="edge34" class="edge">
<title>Node17&#45;&gt;Node22</title>
<path fill="none" stroke="midnightblue" d="M602.24,-369.47C532.66,-360.86 423.1,-346.89 328.5,-333 319.4,-331.66 309.79,-330.18 300.38,-328.68"/>
<polygon fill="midnightblue" stroke="midnightblue" points="300.72,-325.19 290.29,-327.06 299.61,-332.1 300.72,-325.19"/>
</g>
<!-- Node23 -->
<g id="node23" class="node">
<title>Node23</title>
<g id="a_node23"><a xlink:title=" ">
<polygon fill="white" stroke="#bfbfbf" points="522.5,-302.5 522.5,-332.5 644.5,-332.5 644.5,-302.5 522.5,-302.5"/>
<text text-anchor="start" x="530.5" y="-320.5" font-family="Helvetica,sans-Serif" font-size="10.00">boomerang/ssl/parser</text>
<text text-anchor="middle" x="583.5" y="-309.5" font-family="Helvetica,sans-Serif" font-size="10.00">/SSL2Parser.hpp</text>
</a>
</g>
</g>
<!-- Node17&#45;&gt;Node23 -->
<g id="edge36" class="edge">
<title>Node17&#45;&gt;Node23</title>
<path fill="none" stroke="midnightblue" d="M659.75,-369.48C647.58,-361.34 628.81,-348.79 612.94,-338.18"/>
<polygon fill="midnightblue" stroke="midnightblue" points="614.73,-335.17 604.48,-332.52 610.84,-340.99 614.73,-335.17"/>
</g>
<!-- Node24 -->
<g id="node24" class="node">
<title>Node24</title>
<g id="a_node24"><a xlink:href="ByteUtil_8h.html" target="_top" xlink:title=" ">
<polygon fill="white" stroke="black" points="605,-241 605,-260 748,-260 748,-241 605,-241"/>
<text text-anchor="middle" x="676.5" y="-248" font-family="Helvetica,sans-Serif" font-size="10.00">boomerang/util/ByteUtil.h</text>
</a>
</g>
</g>
<!-- Node17&#45;&gt;Node24 -->
<g id="edge37" class="edge">
<title>Node17&#45;&gt;Node24</title>
<path fill="none" stroke="midnightblue" d="M737.73,-369.47C759.77,-363.12 782.15,-352.1 795.5,-333 818.79,-299.68 764.68,-275.84 721.97,-262.86"/>
<polygon fill="midnightblue" stroke="midnightblue" points="722.82,-259.46 712.24,-260.03 720.86,-266.18 722.82,-259.46"/>
</g>
<!-- Node26 -->
<g id="node26" class="node">
<title>Node26</title>
<g id="a_node26"><a xlink:title=" ">
<polygon fill="white" stroke="#bfbfbf" points="739,-308 739,-327 786,-327 786,-308 739,-308"/>
<text text-anchor="middle" x="762.5" y="-315" font-family="Helvetica,sans-Serif" font-size="10.00">vector</text>
</a>
</g>
</g>
<!-- Node17&#45;&gt;Node26 -->
<g id="edge44" class="edge">
<title>Node17&#45;&gt;Node26</title>
<path fill="none" stroke="midnightblue" d="M685.39,-369.48C699.96,-359.84 723.9,-344.02 741.25,-332.55"/>
<polygon fill="midnightblue" stroke="midnightblue" points="743.22,-335.44 749.63,-327.01 739.36,-329.6 743.22,-335.44"/>
</g>
<!-- Node18&#45;&gt;Node14 -->
<g id="edge30" class="edge">
<title>Node18&#45;&gt;Node14</title>
<path fill="none" stroke="midnightblue" d="M441.28,-307.73C445.47,-297.99 452.37,-281.98 457.73,-269.53"/>
<polygon fill="midnightblue" stroke="midnightblue" points="461.04,-270.7 461.78,-260.13 454.61,-267.93 461.04,-270.7"/>
</g>
<!-- Node19 -->
<g id="node19" class="node">
<title>Node19</title>
<g id="a_node19"><a xlink:href="RTL_8h.html" target="_top" xlink:title=" ">
<polygon fill="white" stroke="black" points="180,-241 180,-260 299,-260 299,-241 180,-241"/>
<text text-anchor="middle" x="239.5" y="-248" font-family="Helvetica,sans-Serif" font-size="10.00">boomerang/ssl/RTL.h</text>
</a>
</g>
</g>
<!-- Node18&#45;&gt;Node19 -->
<g id="edge26" class="edge">
<title>Node18&#45;&gt;Node19</title>
<path fill="none" stroke="midnightblue" d="M411.21,-307.87C376.27,-296.4 314.42,-276.09 275.26,-263.24"/>
<polygon fill="midnightblue" stroke="midnightblue" points="276.18,-259.86 265.59,-260.06 274,-266.51 276.18,-259.86"/>
</g>
<!-- Node18&#45;&gt;Node20 -->
<g id="edge31" class="edge">
<title>Node18&#45;&gt;Node20</title>
<path fill="none" stroke="midnightblue" d="M425.36,-307.73C410.65,-297.11 385.64,-279.05 367.94,-266.26"/>
<polygon fill="midnightblue" stroke="midnightblue" points="369.6,-263.14 359.45,-260.13 365.5,-268.82 369.6,-263.14"/>
</g>
<!-- Node18&#45;&gt;Node21 -->
<g id="edge32" class="edge">
<title>Node18&#45;&gt;Node21</title>
<path fill="none" stroke="midnightblue" d="M457.26,-307.89C479.11,-298.22 515.23,-281.82 545.5,-266 546.17,-265.65 546.84,-265.29 547.52,-264.93"/>
<polygon fill="midnightblue" stroke="midnightblue" points="549.32,-267.93 556.34,-260 545.91,-261.82 549.32,-267.93"/>
</g>
<!-- Node19&#45;&gt;Node5 -->
<g id="edge27" class="edge">
<title>Node19&#45;&gt;Node5</title>
<path fill="none" stroke="midnightblue" d="M238.21,-240.98C236.94,-232.58 234.96,-219.48 233.32,-208.66"/>
<polygon fill="midnightblue" stroke="midnightblue" points="236.74,-207.87 231.79,-198.51 229.82,-208.92 236.74,-207.87"/>
</g>
<!-- Node19&#45;&gt;Node12 -->
<g id="edge28" class="edge">
<title>Node19&#45;&gt;Node12</title>
<path fill="none" stroke="midnightblue" d="M223.17,-240.98C204.29,-231.12 172.99,-214.79 150.92,-203.27"/>
<polygon fill="midnightblue" stroke="midnightblue" points="152.29,-200.03 141.8,-198.51 149.05,-206.24 152.29,-200.03"/>
</g>
<!-- Node19&#45;&gt;Node13 -->
<g id="edge29" class="edge">
<title>Node19&#45;&gt;Node13</title>
<path fill="none" stroke="midnightblue" d="M255.12,-240.98C273.09,-231.17 302.82,-214.93 323.91,-203.42"/>
<polygon fill="midnightblue" stroke="midnightblue" points="325.81,-206.37 332.91,-198.51 322.46,-200.23 325.81,-206.37"/>
</g>
<!-- Node22&#45;&gt;Node19 -->
<g id="edge35" class="edge">
<title>Node22&#45;&gt;Node19</title>
<path fill="none" stroke="midnightblue" d="M239.5,-307.73C239.5,-298.18 239.5,-282.62 239.5,-270.28"/>
<polygon fill="midnightblue" stroke="midnightblue" points="243,-270.13 239.5,-260.13 236,-270.13 243,-270.13"/>
</g>
<!-- Node24&#45;&gt;Node2 -->
<g id="edge38" class="edge">
<title>Node24&#45;&gt;Node2</title>
<path fill="none" stroke="midnightblue" d="M678.05,-240.96C679.78,-230.95 682.48,-213.83 683.5,-199 685.97,-163.21 678.52,-122.11 672.71,-96.71"/>
<polygon fill="midnightblue" stroke="midnightblue" points="676.08,-95.77 670.35,-86.86 669.27,-97.4 676.08,-95.77"/>
</g>
<!-- Node24&#45;&gt;Node7 -->
<g id="edge39" class="edge">
<title>Node24&#45;&gt;Node7</title>
<path fill="none" stroke="midnightblue" d="M675.62,-240.91C673.68,-226.29 667.73,-196.45 650.5,-179 601.68,-129.54 571.31,-142.14 504.5,-123 503.25,-122.64 374.31,-97.65 298.5,-82.96"/>
<polygon fill="midnightblue" stroke="midnightblue" points="299.11,-79.51 288.63,-81.05 297.78,-86.38 299.11,-79.51"/>
</g>
<!-- Node24&#45;&gt;Node16 -->
<g id="edge41" class="edge">
<title>Node24&#45;&gt;Node16</title>
<path fill="none" stroke="midnightblue" d="M666.47,-240.98C655.45,-231.61 637.54,-216.38 624.16,-205.01"/>
<polygon fill="midnightblue" stroke="midnightblue" points="626.4,-202.32 616.51,-198.51 621.86,-207.65 626.4,-202.32"/>
</g>
<!-- Node25 -->
<g id="node25" class="node">
<title>Node25</title>
<g id="a_node25"><a xlink:title=" ">
<polygon fill="white" stroke="#bfbfbf" points="736,-179.5 736,-198.5 819,-198.5 819,-179.5 736,-179.5"/>
<text text-anchor="middle" x="777.5" y="-186.5" font-family="Helvetica,sans-Serif" font-size="10.00">initializer_list</text>
</a>
</g>
</g>
<!-- Node24&#45;&gt;Node25 -->
<g id="edge40" class="edge">
<title>Node24&#45;&gt;Node25</title>
<path fill="none" stroke="midnightblue" d="M690.97,-240.98C707.47,-231.25 734.68,-215.23 754.18,-203.74"/>
<polygon fill="midnightblue" stroke="midnightblue" points="756.22,-206.6 763.06,-198.51 752.66,-200.57 756.22,-206.6"/>
</g>
<!-- Node27&#45;&gt;Node2 -->
<g id="edge46" class="edge">
<title>Node27&#45;&gt;Node2</title>
<path fill="none" stroke="midnightblue" d="M847.11,-240.85C846.09,-226.66 842.32,-198.1 828.5,-179 798.8,-137.94 748.01,-108.35 711.2,-90.93"/>
<polygon fill="midnightblue" stroke="midnightblue" points="712.24,-87.55 701.69,-86.55 709.31,-93.91 712.24,-87.55"/>
</g>
<!-- Node27&#45;&gt;Node13 -->
<g id="edge47" class="edge">
<title>Node27&#45;&gt;Node13</title>
<path fill="none" stroke="midnightblue" d="M798.07,-240.96C784.91,-238.85 770.69,-236.7 757.5,-235 596.41,-214.23 551.66,-225.68 387.81,-199.01"/>
<polygon fill="midnightblue" stroke="midnightblue" points="388.31,-195.55 377.88,-197.37 387.18,-202.46 388.31,-195.55"/>
</g>
</g>
</svg>
        <g id="navigator" transform="translate(0 0)" fill="#404254">
                <rect fill="#f2f5e9" fill-opacity="0.5" stroke="#606060" stroke-width=".5" x="0" y="0" width="60" height="60"/>
                <use id="zoomplus" xlink:href="#zoomPlus" x="17" y="9" onmousedown="handleZoom(evt,'in')"/>
                <use id="zoomminus" xlink:href="#zoomMin" x="42" y="9" onmousedown="handleZoom(evt,'out')"/>
                <use id="reset" xlink:href="#resetDef" x="30" y="36" onmousedown="handleReset()"/>
                <g id="arrowUp" xlink:href="#dirArrow" transform="translate(30 24)" onmousedown="handlePan(0,-1)">
                  <use xlink:href="#rim" fill="#404040">
                        <set attributeName="fill" to="#808080" begin="arrowUp.mouseover" end="arrowUp.mouseout"/>
                  </use>
                  <path fill="none" stroke="white" stroke-width="1.5" d="M0,-3.0v7 M-2.5,-0.5L0,-3.0L2.5,-0.5"/>
                </g>
                <g id="arrowRight" xlink:href="#dirArrow" transform="rotate(90) translate(36 -43)" onmousedown="handlePan(1,0)">
                  <use xlink:href="#rim" fill="#404040">
                        <set attributeName="fill" to="#808080" begin="arrowRight.mouseover" end="arrowRight.mouseout"/>
                  </use>
                  <path fill="none" stroke="white" stroke-width="1.5" d="M0,-3.0v7 M-2.5,-0.5L0,-3.0L2.5,-0.5"/>
                </g>
                <g id="arrowDown" xlink:href="#dirArrow" transform="rotate(180) translate(-30 -48)" onmousedown="handlePan(0,1)">
                  <use xlink:href="#rim" fill="#404040">
                        <set attributeName="fill" to="#808080" begin="arrowDown.mouseover" end="arrowDown.mouseout"/>
                  </use>
                  <path fill="none" stroke="white" stroke-width="1.5" d="M0,-3.0v7 M-2.5,-0.5L0,-3.0L2.5,-0.5"/>
                </g>
                <g id="arrowLeft" xlink:href="#dirArrow" transform="rotate(270) translate(-36 17)" onmousedown="handlePan(-1,0)">
                  <use xlink:href="#rim" fill="#404040">
                        <set attributeName="fill" to="#808080" begin="arrowLeft.mouseover" end="arrowLeft.mouseout"/>
                  </use>
                  <path fill="none" stroke="white" stroke-width="1.5" d="M0,-3.0v7 M-2.5,-0.5L0,-3.0L2.5,-0.5"/>
                </g>
        </g>
        <svg viewBox="0 0 15 15" width="100%" height="30px" preserveAspectRatio="xMaxYMin meet">
         <g id="arrow_out" transform="scale(0.3 0.3)">
          <a xlink:href="ST20Decoder_8h__incl_org.svg" target="_base">
           <rect id="button" ry="5" rx="5" y="6" x="6" height="38" width="38"
                fill="#f2f5e9" fill-opacity="0.5" stroke="#606060" stroke-width="1.0"/>
           <path id="arrow"
             d="M 11.500037,31.436501 C 11.940474,20.09759 22.043105,11.32322 32.158766,21.979434 L 37.068811,17.246167 C 37.068811,17.246167 37.088388,32 37.088388,32 L 22.160133,31.978069 C 22.160133,31.978069 26.997745,27.140456 26.997745,27.140456 C 18.528582,18.264221 13.291696,25.230495 11.500037,31.436501 z"
             style="fill:#404040;"/>
          </a>
         </g>
        </svg>
</svg>
