<?xml version="1.0" encoding="UTF-8" standalone="no"?>
<!DOCTYPE svg PUBLIC "-//W3C//DTD SVG 1.1//EN"
 "http://www.w3.org/Graphics/SVG/1.1/DTD/svg11.dtd">
<!-- Generated by graphviz version 2.43.0 (0)
 -->
<!-- Title: StmtModifier.h Pages: 1 -->
<svg width="2491pt" height="140pt"
 viewBox="0.00 0.00 2491.00 140.00" xmlns="http://www.w3.org/2000/svg" xmlns:xlink="http://www.w3.org/1999/xlink">
<g id="graph0" class="graph" transform="scale(1 1) rotate(0) translate(4 136)">
<title>StmtModifier.h</title>
<polygon fill="white" stroke="transparent" points="-4,4 -4,-136 2487,-136 2487,4 -4,4"/>
<!-- Node1 -->
<g id="node1" class="node">
<title>Node1</title>
<g id="a_node1"><a xlink:title=" ">
<polygon fill="#bfbfbf" stroke="black" points="1366.5,-112.5 1366.5,-131.5 1455.5,-131.5 1455.5,-112.5 1366.5,-112.5"/>
<text text-anchor="middle" x="1411" y="-119.5" font-family="Helvetica,sans-Serif" font-size="10.00">StmtModifier.h</text>
</a>
</g>
</g>
<!-- Node2 -->
<g id="node2" class="node">
<title>Node2</title>
<g id="a_node2"><a xlink:href="StmtSubscriptReplacer_8h.html" target="_top" xlink:title=" ">
<polygon fill="white" stroke="black" points="103.5,-56.5 103.5,-75.5 240.5,-75.5 240.5,-56.5 103.5,-56.5"/>
<text text-anchor="middle" x="172" y="-63.5" font-family="Helvetica,sans-Serif" font-size="10.00">StmtSubscriptReplacer.h</text>
</a>
</g>
</g>
<!-- Node1&#45;&gt;Node2 -->
<g id="edge1" class="edge">
<title>Node1&#45;&gt;Node2</title>
<path fill="none" stroke="midnightblue" d="M1356.16,-118.61C1155.57,-109.87 461.94,-79.64 240.51,-69.99"/>
<polygon fill="midnightblue" stroke="midnightblue" points="1356.03,-122.11 1366.17,-119.05 1356.33,-115.11 1356.03,-122.11"/>
</g>
<!-- Node5 -->
<g id="node5" class="node">
<title>Node5</title>
<g id="a_node5"><a xlink:href="StmtSubscripter_8h.html" target="_top" xlink:title=" ">
<polygon fill="white" stroke="black" points="431,-56.5 431,-75.5 535,-75.5 535,-56.5 431,-56.5"/>
<text text-anchor="middle" x="483" y="-63.5" font-family="Helvetica,sans-Serif" font-size="10.00">StmtSubscripter.h</text>
</a>
</g>
</g>
<!-- Node1&#45;&gt;Node5 -->
<g id="edge4" class="edge">
<title>Node1&#45;&gt;Node5</title>
<path fill="none" stroke="midnightblue" d="M1355.79,-117.79C1189.84,-108.13 697.04,-79.45 535.16,-70.04"/>
<polygon fill="midnightblue" stroke="midnightblue" points="1356.05,-121.31 1366.24,-118.4 1356.46,-114.32 1356.05,-121.31"/>
</g>
<!-- Node8 -->
<g id="node8" class="node">
<title>Node8</title>
<g id="a_node8"><a xlink:href="StmtSSAXFormer_8h.html" target="_top" xlink:title=" ">
<polygon fill="white" stroke="black" points="711,-56.5 711,-75.5 821,-75.5 821,-56.5 711,-56.5"/>
<text text-anchor="middle" x="766" y="-63.5" font-family="Helvetica,sans-Serif" font-size="10.00">StmtSSAXFormer.h</text>
</a>
</g>
</g>
<!-- Node1&#45;&gt;Node8 -->
<g id="edge7" class="edge">
<title>Node1&#45;&gt;Node8</title>
<path fill="none" stroke="midnightblue" d="M1356.4,-117.35C1255.1,-110.44 1031.22,-94.45 843,-76 835.9,-75.3 828.44,-74.51 821.07,-73.69"/>
<polygon fill="midnightblue" stroke="midnightblue" points="1356.18,-120.85 1366.4,-118.03 1356.66,-113.86 1356.18,-120.85"/>
</g>
<!-- Node11 -->
<g id="node11" class="node">
<title>Node11</title>
<g id="a_node11"><a xlink:href="StmtImplicitConverter_8h.html" target="_top" xlink:title=" ">
<polygon fill="white" stroke="black" points="852,-56.5 852,-75.5 986,-75.5 986,-56.5 852,-56.5"/>
<text text-anchor="middle" x="919" y="-63.5" font-family="Helvetica,sans-Serif" font-size="10.00">StmtImplicitConverter.h</text>
</a>
</g>
</g>
<!-- Node1&#45;&gt;Node11 -->
<g id="edge10" class="edge">
<title>Node1&#45;&gt;Node11</title>
<path fill="none" stroke="midnightblue" d="M1356.12,-115.02C1277.31,-106.42 1127.52,-90.07 1000,-76 995.5,-75.5 990.86,-74.99 986.18,-74.47"/>
<polygon fill="midnightblue" stroke="midnightblue" points="1355.98,-118.52 1366.3,-116.13 1356.73,-111.57 1355.98,-118.52"/>
</g>
<!-- Node13 -->
<g id="node13" class="node">
<title>Node13</title>
<g id="a_node13"><a xlink:href="CallStatement_8cpp.html" target="_top" xlink:title=" ">
<polygon fill="white" stroke="black" points="1174.5,-0.5 1174.5,-19.5 1281.5,-19.5 1281.5,-0.5 1174.5,-0.5"/>
<text text-anchor="middle" x="1228" y="-7.5" font-family="Helvetica,sans-Serif" font-size="10.00">CallStatement.cpp</text>
</a>
</g>
</g>
<!-- Node1&#45;&gt;Node13 -->
<g id="edge18" class="edge">
<title>Node1&#45;&gt;Node13</title>
<path fill="none" stroke="midnightblue" d="M1356.2,-118.43C1256.57,-113.2 1054.09,-99.74 1033,-76 1027.1,-69.35 1027.47,-62.96 1033,-56 1042,-44.68 1121.78,-29.05 1176.46,-19.5"/>
<polygon fill="midnightblue" stroke="midnightblue" points="1356.21,-121.94 1366.37,-118.96 1356.57,-114.95 1356.21,-121.94"/>
</g>
<!-- Node15 -->
<g id="node15" class="node">
<title>Node15</title>
<g id="a_node15"><a xlink:href="LocalAndParamMapPass_8cpp.html" target="_top" xlink:title=" ">
<polygon fill="white" stroke="black" points="1042,-56.5 1042,-75.5 1198,-75.5 1198,-56.5 1042,-56.5"/>
<text text-anchor="middle" x="1120" y="-63.5" font-family="Helvetica,sans-Serif" font-size="10.00">LocalAndParamMapPass.cpp</text>
</a>
</g>
</g>
<!-- Node1&#45;&gt;Node15 -->
<g id="edge14" class="edge">
<title>Node1&#45;&gt;Node15</title>
<path fill="none" stroke="midnightblue" d="M1356.58,-110.9C1301.62,-100.7 1217.67,-85.12 1165.95,-75.53"/>
<polygon fill="midnightblue" stroke="midnightblue" points="1356.02,-114.36 1366.49,-112.74 1357.29,-107.47 1356.02,-114.36"/>
</g>
<!-- Node16 -->
<g id="node16" class="node">
<title>Node16</title>
<g id="a_node16"><a xlink:href="Assign_8cpp.html" target="_top" xlink:title=" ">
<polygon fill="white" stroke="black" points="1216.5,-56.5 1216.5,-75.5 1285.5,-75.5 1285.5,-56.5 1216.5,-56.5"/>
<text text-anchor="middle" x="1251" y="-63.5" font-family="Helvetica,sans-Serif" font-size="10.00">Assign.cpp</text>
</a>
</g>
</g>
<!-- Node1&#45;&gt;Node16 -->
<g id="edge15" class="edge">
<title>Node1&#45;&gt;Node16</title>
<path fill="none" stroke="midnightblue" d="M1375.95,-109.17C1345.83,-99 1303.1,-84.59 1276.23,-75.52"/>
<polygon fill="midnightblue" stroke="midnightblue" points="1375.05,-112.56 1385.65,-112.44 1377.29,-105.93 1375.05,-112.56"/>
</g>
<!-- Node17 -->
<g id="node17" class="node">
<title>Node17</title>
<g id="a_node17"><a xlink:href="BoolAssign_8cpp.html" target="_top" xlink:title=" ">
<polygon fill="white" stroke="black" points="1303.5,-56.5 1303.5,-75.5 1394.5,-75.5 1394.5,-56.5 1303.5,-56.5"/>
<text text-anchor="middle" x="1349" y="-63.5" font-family="Helvetica,sans-Serif" font-size="10.00">BoolAssign.cpp</text>
</a>
</g>
</g>
<!-- Node1&#45;&gt;Node17 -->
<g id="edge16" class="edge">
<title>Node1&#45;&gt;Node17</title>
<path fill="none" stroke="midnightblue" d="M1393.25,-105.54C1382.19,-95.91 1368.37,-83.87 1359.14,-75.83"/>
<polygon fill="midnightblue" stroke="midnightblue" points="1391.2,-108.4 1401.04,-112.32 1395.8,-103.12 1391.2,-108.4"/>
</g>
<!-- Node18 -->
<g id="node18" class="node">
<title>Node18</title>
<g id="a_node18"><a xlink:href="BranchStatement_8cpp.html" target="_top" xlink:title=" ">
<polygon fill="white" stroke="black" points="1413,-56.5 1413,-75.5 1535,-75.5 1535,-56.5 1413,-56.5"/>
<text text-anchor="middle" x="1474" y="-63.5" font-family="Helvetica,sans-Serif" font-size="10.00">BranchStatement.cpp</text>
</a>
</g>
</g>
<!-- Node1&#45;&gt;Node18 -->
<g id="edge17" class="edge">
<title>Node1&#45;&gt;Node18</title>
<path fill="none" stroke="midnightblue" d="M1429.04,-105.54C1440.27,-95.91 1454.32,-83.87 1463.69,-75.83"/>
<polygon fill="midnightblue" stroke="midnightblue" points="1426.44,-103.16 1421.12,-112.32 1430.99,-108.47 1426.44,-103.16"/>
</g>
<!-- Node19 -->
<g id="node19" class="node">
<title>Node19</title>
<g id="a_node19"><a xlink:href="CaseStatement_8cpp.html" target="_top" xlink:title=" ">
<polygon fill="white" stroke="black" points="1553,-56.5 1553,-75.5 1665,-75.5 1665,-56.5 1553,-56.5"/>
<text text-anchor="middle" x="1609" y="-63.5" font-family="Helvetica,sans-Serif" font-size="10.00">CaseStatement.cpp</text>
</a>
</g>
</g>
<!-- Node1&#45;&gt;Node19 -->
<g id="edge19" class="edge">
<title>Node1&#45;&gt;Node19</title>
<path fill="none" stroke="midnightblue" d="M1452.44,-109.7C1489.81,-99.51 1543.94,-84.74 1577.77,-75.52"/>
<polygon fill="midnightblue" stroke="midnightblue" points="1451.1,-106.44 1442.37,-112.44 1452.94,-113.19 1451.1,-106.44"/>
</g>
<!-- Node20 -->
<g id="node20" class="node">
<title>Node20</title>
<g id="a_node20"><a xlink:href="GotoStatement_8cpp.html" target="_top" xlink:title=" ">
<polygon fill="white" stroke="black" points="1683.5,-56.5 1683.5,-75.5 1794.5,-75.5 1794.5,-56.5 1683.5,-56.5"/>
<text text-anchor="middle" x="1739" y="-63.5" font-family="Helvetica,sans-Serif" font-size="10.00">GotoStatement.cpp</text>
</a>
</g>
</g>
<!-- Node1&#45;&gt;Node20 -->
<g id="edge20" class="edge">
<title>Node1&#45;&gt;Node20</title>
<path fill="none" stroke="midnightblue" d="M1465.5,-112.03C1527.13,-101.88 1626.74,-85.48 1687.22,-75.52"/>
<polygon fill="midnightblue" stroke="midnightblue" points="1464.88,-108.58 1455.58,-113.66 1466.01,-115.49 1464.88,-108.58"/>
</g>
<!-- Node21 -->
<g id="node21" class="node">
<title>Node21</title>
<g id="a_node21"><a xlink:href="ImplicitAssign_8cpp.html" target="_top" xlink:title=" ">
<polygon fill="white" stroke="black" points="1813,-56.5 1813,-75.5 1919,-75.5 1919,-56.5 1813,-56.5"/>
<text text-anchor="middle" x="1866" y="-63.5" font-family="Helvetica,sans-Serif" font-size="10.00">ImplicitAssign.cpp</text>
</a>
</g>
</g>
<!-- Node1&#45;&gt;Node21 -->
<g id="edge21" class="edge">
<title>Node1&#45;&gt;Node21</title>
<path fill="none" stroke="midnightblue" d="M1465.99,-115.17C1541.88,-107.02 1682.95,-91.46 1803,-76 1806.18,-75.59 1809.44,-75.16 1812.74,-74.71"/>
<polygon fill="midnightblue" stroke="midnightblue" points="1465.3,-111.73 1455.73,-116.27 1466.04,-118.69 1465.3,-111.73"/>
</g>
<!-- Node22 -->
<g id="node22" class="node">
<title>Node22</title>
<g id="a_node22"><a xlink:href="PhiAssign_8cpp.html" target="_top" xlink:title=" ">
<polygon fill="white" stroke="black" points="1937,-56.5 1937,-75.5 2021,-75.5 2021,-56.5 1937,-56.5"/>
<text text-anchor="middle" x="1979" y="-63.5" font-family="Helvetica,sans-Serif" font-size="10.00">PhiAssign.cpp</text>
</a>
</g>
</g>
<!-- Node1&#45;&gt;Node22 -->
<g id="edge22" class="edge">
<title>Node1&#45;&gt;Node22</title>
<path fill="none" stroke="midnightblue" d="M1465.94,-117.81C1560.57,-111.96 1760.32,-98.05 1928,-76 1930.85,-75.62 1933.79,-75.2 1936.74,-74.75"/>
<polygon fill="midnightblue" stroke="midnightblue" points="1465.52,-114.33 1455.75,-118.43 1465.94,-121.32 1465.52,-114.33"/>
</g>
<!-- Node23 -->
<g id="node23" class="node">
<title>Node23</title>
<g id="a_node23"><a xlink:href="ReturnStatement_8cpp.html" target="_top" xlink:title=" ">
<polygon fill="white" stroke="black" points="2039,-56.5 2039,-75.5 2159,-75.5 2159,-56.5 2039,-56.5"/>
<text text-anchor="middle" x="2099" y="-63.5" font-family="Helvetica,sans-Serif" font-size="10.00">ReturnStatement.cpp</text>
</a>
</g>
</g>
<!-- Node1&#45;&gt;Node23 -->
<g id="edge23" class="edge">
<title>Node1&#45;&gt;Node23</title>
<path fill="none" stroke="midnightblue" d="M1465.75,-118.07C1573.81,-112.06 1822.04,-97.1 2030,-76 2032.88,-75.71 2035.83,-75.39 2038.81,-75.06"/>
<polygon fill="midnightblue" stroke="midnightblue" points="1465.53,-114.58 1455.74,-118.63 1465.92,-121.57 1465.53,-114.58"/>
</g>
<!-- Node24 -->
<g id="node24" class="node">
<title>Node24</title>
<g id="a_node24"><a xlink:href="StmtModifier_8cpp.html" target="_top" xlink:title=" ">
<polygon fill="white" stroke="black" points="2177.5,-56.5 2177.5,-75.5 2278.5,-75.5 2278.5,-56.5 2177.5,-56.5"/>
<text text-anchor="middle" x="2228" y="-63.5" font-family="Helvetica,sans-Serif" font-size="10.00">StmtModifier.cpp</text>
</a>
</g>
</g>
<!-- Node1&#45;&gt;Node24 -->
<g id="edge24" class="edge">
<title>Node1&#45;&gt;Node24</title>
<path fill="none" stroke="midnightblue" d="M1466,-119.42C1591,-115.46 1905.95,-103.39 2168,-76 2171.04,-75.68 2174.16,-75.32 2177.3,-74.93"/>
<polygon fill="midnightblue" stroke="midnightblue" points="1465.79,-115.92 1455.91,-119.73 1466.01,-122.92 1465.79,-115.92"/>
</g>
<!-- Node25 -->
<g id="node25" class="node">
<title>Node25</title>
<g id="a_node25"><a xlink:href="DFATypeAnalyzer_8h.html" target="_top" xlink:title=" ">
<polygon fill="white" stroke="black" points="2297,-56.5 2297,-75.5 2407,-75.5 2407,-56.5 2297,-56.5"/>
<text text-anchor="middle" x="2352" y="-63.5" font-family="Helvetica,sans-Serif" font-size="10.00">DFATypeAnalyzer.h</text>
</a>
</g>
</g>
<!-- Node1&#45;&gt;Node25 -->
<g id="edge25" class="edge">
<title>Node1&#45;&gt;Node25</title>
<path fill="none" stroke="midnightblue" d="M1466.16,-119.86C1604.66,-116.64 1978.13,-105.68 2288,-76 2290.9,-75.72 2293.88,-75.41 2296.88,-75.07"/>
<polygon fill="midnightblue" stroke="midnightblue" points="1465.74,-116.37 1455.82,-120.1 1465.9,-123.37 1465.74,-116.37"/>
</g>
<!-- Node3 -->
<g id="node3" class="node">
<title>Node3</title>
<g id="a_node3"><a xlink:href="UserProc_8cpp.html" target="_top" xlink:title=" ">
<polygon fill="white" stroke="black" points="0,-0.5 0,-19.5 80,-19.5 80,-0.5 0,-0.5"/>
<text text-anchor="middle" x="40" y="-7.5" font-family="Helvetica,sans-Serif" font-size="10.00">UserProc.cpp</text>
</a>
</g>
</g>
<!-- Node2&#45;&gt;Node3 -->
<g id="edge2" class="edge">
<title>Node2&#45;&gt;Node3</title>
<path fill="none" stroke="midnightblue" d="M141.78,-52.64C117.01,-42.5 82.6,-28.43 60.82,-19.52"/>
<polygon fill="midnightblue" stroke="midnightblue" points="140.5,-55.9 151.08,-56.44 143.15,-49.42 140.5,-55.9"/>
</g>
<!-- Node4 -->
<g id="node4" class="node">
<title>Node4</title>
<g id="a_node4"><a xlink:href="StmtSubscriptReplacer_8cpp.html" target="_top" xlink:title=" ">
<polygon fill="white" stroke="black" points="98,-0.5 98,-19.5 246,-19.5 246,-0.5 98,-0.5"/>
<text text-anchor="middle" x="172" y="-7.5" font-family="Helvetica,sans-Serif" font-size="10.00">StmtSubscriptReplacer.cpp</text>
</a>
</g>
</g>
<!-- Node2&#45;&gt;Node4 -->
<g id="edge3" class="edge">
<title>Node2&#45;&gt;Node4</title>
<path fill="none" stroke="midnightblue" d="M172,-45.8C172,-36.91 172,-26.78 172,-19.75"/>
<polygon fill="midnightblue" stroke="midnightblue" points="168.5,-46.08 172,-56.08 175.5,-46.08 168.5,-46.08"/>
</g>
<!-- Node6 -->
<g id="node6" class="node">
<title>Node6</title>
<g id="a_node6"><a xlink:href="BlockVarRenamePass_8cpp.html" target="_top" xlink:title=" ">
<polygon fill="white" stroke="black" points="264.5,-0.5 264.5,-19.5 407.5,-19.5 407.5,-0.5 264.5,-0.5"/>
<text text-anchor="middle" x="336" y="-7.5" font-family="Helvetica,sans-Serif" font-size="10.00">BlockVarRenamePass.cpp</text>
</a>
</g>
</g>
<!-- Node5&#45;&gt;Node6 -->
<g id="edge5" class="edge">
<title>Node5&#45;&gt;Node6</title>
<path fill="none" stroke="midnightblue" d="M450.08,-52.91C422.44,-42.75 383.66,-28.51 359.18,-19.52"/>
<polygon fill="midnightblue" stroke="midnightblue" points="449.11,-56.28 459.71,-56.44 451.53,-49.71 449.11,-56.28"/>
</g>
<!-- Node7 -->
<g id="node7" class="node">
<title>Node7</title>
<g id="a_node7"><a xlink:href="StmtSubscripter_8cpp.html" target="_top" xlink:title=" ">
<polygon fill="white" stroke="black" points="425.5,-0.5 425.5,-19.5 540.5,-19.5 540.5,-0.5 425.5,-0.5"/>
<text text-anchor="middle" x="483" y="-7.5" font-family="Helvetica,sans-Serif" font-size="10.00">StmtSubscripter.cpp</text>
</a>
</g>
</g>
<!-- Node5&#45;&gt;Node7 -->
<g id="edge6" class="edge">
<title>Node5&#45;&gt;Node7</title>
<path fill="none" stroke="midnightblue" d="M483,-45.8C483,-36.91 483,-26.78 483,-19.75"/>
<polygon fill="midnightblue" stroke="midnightblue" points="479.5,-46.08 483,-56.08 486.5,-46.08 479.5,-46.08"/>
</g>
<!-- Node9 -->
<g id="node9" class="node">
<title>Node9</title>
<g id="a_node9"><a xlink:href="FromSSAFormPass_8cpp.html" target="_top" xlink:title=" ">
<polygon fill="white" stroke="black" points="559,-0.5 559,-19.5 687,-19.5 687,-0.5 559,-0.5"/>
<text text-anchor="middle" x="623" y="-7.5" font-family="Helvetica,sans-Serif" font-size="10.00">FromSSAFormPass.cpp</text>
</a>
</g>
</g>
<!-- Node8&#45;&gt;Node9 -->
<g id="edge8" class="edge">
<title>Node8&#45;&gt;Node9</title>
<path fill="none" stroke="midnightblue" d="M733.97,-52.91C707.09,-42.75 669.36,-28.51 645.55,-19.52"/>
<polygon fill="midnightblue" stroke="midnightblue" points="732.75,-56.19 743.34,-56.44 735.22,-49.64 732.75,-56.19"/>
</g>
<!-- Node10 -->
<g id="node10" class="node">
<title>Node10</title>
<g id="a_node10"><a xlink:href="StmtSSAXFormer_8cpp.html" target="_top" xlink:title=" ">
<polygon fill="white" stroke="black" points="705.5,-0.5 705.5,-19.5 826.5,-19.5 826.5,-0.5 705.5,-0.5"/>
<text text-anchor="middle" x="766" y="-7.5" font-family="Helvetica,sans-Serif" font-size="10.00">StmtSSAXFormer.cpp</text>
</a>
</g>
</g>
<!-- Node8&#45;&gt;Node10 -->
<g id="edge9" class="edge">
<title>Node8&#45;&gt;Node10</title>
<path fill="none" stroke="midnightblue" d="M766,-45.8C766,-36.91 766,-26.78 766,-19.75"/>
<polygon fill="midnightblue" stroke="midnightblue" points="762.5,-46.08 766,-56.08 769.5,-46.08 762.5,-46.08"/>
</g>
<!-- Node12 -->
<g id="node12" class="node">
<title>Node12</title>
<g id="a_node12"><a xlink:href="ImplicitPlacementPass_8cpp.html" target="_top" xlink:title=" ">
<polygon fill="white" stroke="black" points="845,-0.5 845,-19.5 993,-19.5 993,-0.5 845,-0.5"/>
<text text-anchor="middle" x="919" y="-7.5" font-family="Helvetica,sans-Serif" font-size="10.00">ImplicitPlacementPass.cpp</text>
</a>
</g>
</g>
<!-- Node11&#45;&gt;Node12 -->
<g id="edge11" class="edge">
<title>Node11&#45;&gt;Node12</title>
<path fill="none" stroke="midnightblue" d="M919,-45.8C919,-36.91 919,-26.78 919,-19.75"/>
<polygon fill="midnightblue" stroke="midnightblue" points="915.5,-46.08 919,-56.08 922.5,-46.08 915.5,-46.08"/>
</g>
<!-- Node11&#45;&gt;Node13 -->
<g id="edge12" class="edge">
<title>Node11&#45;&gt;Node13</title>
<path fill="none" stroke="midnightblue" d="M978.14,-54.66C1036.54,-44.46 1124.78,-29.04 1179.27,-19.52"/>
<polygon fill="midnightblue" stroke="midnightblue" points="977.21,-51.27 967.96,-56.44 978.42,-58.17 977.21,-51.27"/>
</g>
<!-- Node14 -->
<g id="node14" class="node">
<title>Node14</title>
<g id="a_node14"><a xlink:href="StmtImplicitConverter_8cpp.html" target="_top" xlink:title=" ">
<polygon fill="white" stroke="black" points="1011.5,-0.5 1011.5,-19.5 1156.5,-19.5 1156.5,-0.5 1011.5,-0.5"/>
<text text-anchor="middle" x="1084" y="-7.5" font-family="Helvetica,sans-Serif" font-size="10.00">StmtImplicitConverter.cpp</text>
</a>
</g>
</g>
<!-- Node11&#45;&gt;Node14 -->
<g id="edge13" class="edge">
<title>Node11&#45;&gt;Node14</title>
<path fill="none" stroke="midnightblue" d="M954.74,-53.3C985.83,-43.13 1030.15,-28.62 1057.98,-19.52"/>
<polygon fill="midnightblue" stroke="midnightblue" points="953.56,-50.01 945.14,-56.44 955.74,-56.66 953.56,-50.01"/>
</g>
<!-- Node26 -->
<g id="node26" class="node">
<title>Node26</title>
<g id="a_node26"><a xlink:href="DFATypeAnalyzer_8cpp.html" target="_top" xlink:title=" ">
<polygon fill="white" stroke="black" points="2221.5,-0.5 2221.5,-19.5 2342.5,-19.5 2342.5,-0.5 2221.5,-0.5"/>
<text text-anchor="middle" x="2282" y="-7.5" font-family="Helvetica,sans-Serif" font-size="10.00">DFATypeAnalyzer.cpp</text>
</a>
</g>
</g>
<!-- Node25&#45;&gt;Node26 -->
<g id="edge26" class="edge">
<title>Node25&#45;&gt;Node26</title>
<path fill="none" stroke="midnightblue" d="M2332.69,-50.1C2320.09,-40.38 2304.07,-28.03 2293.45,-19.83"/>
<polygon fill="midnightblue" stroke="midnightblue" points="2330.7,-52.99 2340.75,-56.32 2334.97,-47.44 2330.7,-52.99"/>
</g>
<!-- Node27 -->
<g id="node27" class="node">
<title>Node27</title>
<g id="a_node27"><a xlink:href="DFATypeRecovery_8cpp.html" target="_top" xlink:title=" ">
<polygon fill="white" stroke="black" points="2361,-0.5 2361,-19.5 2483,-19.5 2483,-0.5 2361,-0.5"/>
<text text-anchor="middle" x="2422" y="-7.5" font-family="Helvetica,sans-Serif" font-size="10.00">DFATypeRecovery.cpp</text>
</a>
</g>
</g>
<!-- Node25&#45;&gt;Node27 -->
<g id="edge27" class="edge">
<title>Node25&#45;&gt;Node27</title>
<path fill="none" stroke="midnightblue" d="M2371.31,-50.1C2383.91,-40.38 2399.93,-28.03 2410.55,-19.83"/>
<polygon fill="midnightblue" stroke="midnightblue" points="2369.03,-47.44 2363.25,-56.32 2373.3,-52.99 2369.03,-47.44"/>
</g>
</g>
</svg>
