<?xml version="1.0" encoding="UTF-8" standalone="no"?>
<!DOCTYPE svg PUBLIC "-//W3C//DTD SVG 1.1//EN"
 "http://www.w3.org/Graphics/SVG/1.1/DTD/svg11.dtd">
<!-- Generated by graphviz version 2.43.0 (0)
 -->
<!-- Title: StmtCastInserter.cpp Pages: 1 -->
<!--zoomable 799 -->
<svg id="main" version="1.1" xmlns="http://www.w3.org/2000/svg" xmlns:xlink="http://www.w3.org/1999/xlink" xml:space="preserve" onload="init(evt)">
<style type="text/css"><![CDATA[
.edge:hover path { stroke: red; }
.edge:hover polygon { stroke: red; fill: red; }
]]></style>
<script type="text/javascript"><![CDATA[
var edges = document.getElementsByTagName('g');
if (edges && edges.length) {
  for (var i=0;i<edges.length;i++) {
    if (edges[i].id.substr(0,4)=='edge') {
      edges[i].setAttribute('class','edge');
    }
  }
}
]]></script>
        <defs>
                <circle id="rim" cx="0" cy="0" r="7"/>
                <circle id="rim2" cx="0" cy="0" r="3.5"/>
                <g id="zoomPlus">
                        <use xlink:href="#rim" fill="#404040">
                                <set attributeName="fill" to="#808080" begin="zoomplus.mouseover" end="zoomplus.mouseout"/>
                        </use>
                        <path d="M-4,0h8M0,-4v8" fill="none" stroke="white" stroke-width="1.5" pointer-events="none"/>
                </g>
                <g id="zoomMin">
                        <use xlink:href="#rim" fill="#404040">
                                <set attributeName="fill" to="#808080" begin="zoomminus.mouseover" end="zoomminus.mouseout"/>
                        </use>
                        <path d="M-4,0h8" fill="none" stroke="white" stroke-width="1.5" pointer-events="none"/>
                </g>
                <g id="dirArrow">
                        <path fill="none" stroke="white" stroke-width="1.5" d="M0,-3.0v7 M-2.5,-0.5L0,-3.0L2.5,-0.5"/>
                </g>
               <g id="resetDef">
                       <use xlink:href="#rim2" fill="#404040">
                               <set attributeName="fill" to="#808080" begin="reset.mouseover" end="reset.mouseout"/>
                       </use>
               </g>
        </defs>

<script type="text/javascript">
var viewWidth = 1242;
var viewHeight = 799;
var sectionId = 'dynsection-0';
</script>
<script xlink:href="svgpan.js"/>
<svg id="graph" class="graph">
<g id="viewport">
<title>StmtCastInserter.cpp</title>
<polygon fill="white" stroke="transparent" points="-4,4 -4,-795 1238,-795 1238,4 -4,4"/>
<!-- Node1 -->
<g id="node1" class="node">
<title>Node1</title>
<g id="a_node1"><a xlink:title=" ">
<polygon fill="#bfbfbf" stroke="black" points="246.5,-771.5 246.5,-790.5 365.5,-790.5 365.5,-771.5 246.5,-771.5"/>
<text text-anchor="middle" x="306" y="-778.5" font-family="Helvetica,sans-Serif" font-size="10.00">StmtCastInserter.cpp</text>
</a>
</g>
</g>
<!-- Node2 -->
<g id="node2" class="node">
<title>Node2</title>
<g id="a_node2"><a xlink:href="StmtCastInserter_8h.html" target="_top" xlink:title=" ">
<polygon fill="white" stroke="black" points="49,-710 49,-729 157,-729 157,-710 49,-710"/>
<text text-anchor="middle" x="103" y="-717" font-family="Helvetica,sans-Serif" font-size="10.00">StmtCastInserter.h</text>
</a>
</g>
</g>
<!-- Node1&#45;&gt;Node2 -->
<g id="edge1" class="edge">
<title>Node1&#45;&gt;Node2</title>
<path fill="none" stroke="midnightblue" d="M276.92,-771.48C241.42,-761.07 181.25,-743.44 141.83,-731.88"/>
<polygon fill="midnightblue" stroke="midnightblue" points="142.61,-728.46 132.03,-729.01 140.64,-735.18 142.61,-728.46"/>
</g>
<!-- Node5 -->
<g id="node5" class="node">
<title>Node5</title>
<g id="a_node5"><a xlink:href="Exp_8h.html" target="_top" xlink:title=" ">
<polygon fill="white" stroke="black" points="570,-252 570,-271 710,-271 710,-252 570,-252"/>
<text text-anchor="middle" x="640" y="-259" font-family="Helvetica,sans-Serif" font-size="10.00">boomerang/ssl/exp/Exp.h</text>
</a>
</g>
</g>
<!-- Node1&#45;&gt;Node5 -->
<g id="edge4" class="edge">
<title>Node1&#45;&gt;Node5</title>
<path fill="none" stroke="midnightblue" d="M295.75,-771.47C275.01,-753.18 230,-707.87 230,-659 230,-659 230,-659 230,-595.5 230,-528.42 217.98,-501.57 257,-447 334.22,-339 492.01,-291.68 579.03,-273.09"/>
<polygon fill="midnightblue" stroke="midnightblue" points="579.94,-276.48 589.02,-271.02 578.52,-269.62 579.94,-276.48"/>
</g>
<!-- Node18 -->
<g id="node18" class="node">
<title>Node18</title>
<g id="a_node18"><a xlink:href="Assign_8h.html" target="_top" xlink:title=" ">
<polygon fill="white" stroke="black" points="556.5,-447.5 556.5,-477.5 703.5,-477.5 703.5,-447.5 556.5,-447.5"/>
<text text-anchor="start" x="564.5" y="-465.5" font-family="Helvetica,sans-Serif" font-size="10.00">boomerang/ssl/statements</text>
<text text-anchor="middle" x="630" y="-454.5" font-family="Helvetica,sans-Serif" font-size="10.00">/Assign.h</text>
</a>
</g>
</g>
<!-- Node1&#45;&gt;Node18 -->
<g id="edge21" class="edge">
<title>Node1&#45;&gt;Node18</title>
<path fill="none" stroke="midnightblue" d="M355.58,-771.47C385.63,-764.77 423.85,-753.39 454,-735 549.22,-676.9 573.34,-647.22 618,-545 625.94,-526.83 628.8,-504.44 629.75,-487.73"/>
<polygon fill="midnightblue" stroke="midnightblue" points="633.25,-487.79 630.14,-477.67 626.26,-487.53 633.25,-487.79"/>
</g>
<!-- Node24 -->
<g id="node24" class="node">
<title>Node24</title>
<g id="a_node24"><a xlink:href="BoolAssign_8h.html" target="_top" xlink:title=" ">
<polygon fill="white" stroke="black" points="296.5,-514.5 296.5,-544.5 443.5,-544.5 443.5,-514.5 296.5,-514.5"/>
<text text-anchor="start" x="304.5" y="-532.5" font-family="Helvetica,sans-Serif" font-size="10.00">boomerang/ssl/statements</text>
<text text-anchor="middle" x="370" y="-521.5" font-family="Helvetica,sans-Serif" font-size="10.00">/BoolAssign.h</text>
</a>
</g>
</g>
<!-- Node1&#45;&gt;Node24 -->
<g id="edge33" class="edge">
<title>Node1&#45;&gt;Node24</title>
<path fill="none" stroke="midnightblue" d="M306.59,-771.22C308.16,-749.84 313.17,-693.49 325,-648 333.71,-614.48 348.89,-577.42 359.19,-554.05"/>
<polygon fill="midnightblue" stroke="midnightblue" points="362.51,-555.19 363.4,-544.63 356.12,-552.33 362.51,-555.19"/>
</g>
<!-- Node25 -->
<g id="node25" class="node">
<title>Node25</title>
<g id="a_node25"><a xlink:href="ImplicitAssign_8h.html" target="_top" xlink:title=" ">
<polygon fill="white" stroke="black" points="461.5,-514.5 461.5,-544.5 608.5,-544.5 608.5,-514.5 461.5,-514.5"/>
<text text-anchor="start" x="469.5" y="-532.5" font-family="Helvetica,sans-Serif" font-size="10.00">boomerang/ssl/statements</text>
<text text-anchor="middle" x="535" y="-521.5" font-family="Helvetica,sans-Serif" font-size="10.00">/ImplicitAssign.h</text>
</a>
</g>
</g>
<!-- Node1&#45;&gt;Node25 -->
<g id="edge35" class="edge">
<title>Node1&#45;&gt;Node25</title>
<path fill="none" stroke="midnightblue" d="M334.35,-771.4C376.77,-757.05 456.3,-724.11 499,-668 524.44,-634.57 531.97,-584.79 534.15,-555.19"/>
<polygon fill="midnightblue" stroke="midnightblue" points="537.66,-555.1 534.75,-544.92 530.68,-554.69 537.66,-555.1"/>
</g>
<!-- Node26 -->
<g id="node26" class="node">
<title>Node26</title>
<g id="a_node26"><a xlink:href="PhiAssign_8h.html" target="_top" xlink:title=" ">
<polygon fill="white" stroke="black" points="593.5,-704.5 593.5,-734.5 740.5,-734.5 740.5,-704.5 593.5,-704.5"/>
<text text-anchor="start" x="601.5" y="-722.5" font-family="Helvetica,sans-Serif" font-size="10.00">boomerang/ssl/statements</text>
<text text-anchor="middle" x="667" y="-711.5" font-family="Helvetica,sans-Serif" font-size="10.00">/PhiAssign.h</text>
</a>
</g>
</g>
<!-- Node1&#45;&gt;Node26 -->
<g id="edge37" class="edge">
<title>Node1&#45;&gt;Node26</title>
<path fill="none" stroke="midnightblue" d="M357.72,-771.48C416.63,-761.77 513.71,-745.76 583.4,-734.28"/>
<polygon fill="midnightblue" stroke="midnightblue" points="584.18,-737.7 593.48,-732.62 583.04,-730.79 584.18,-737.7"/>
</g>
<!-- Node36 -->
<g id="node36" class="node">
<title>Node36</title>
<g id="a_node36"><a xlink:href="ExpCastInserter_8h.html" target="_top" xlink:title=" ">
<polygon fill="white" stroke="black" points="108,-313.5 108,-343.5 276,-343.5 276,-313.5 108,-313.5"/>
<text text-anchor="start" x="116" y="-331.5" font-family="Helvetica,sans-Serif" font-size="10.00">boomerang/visitor/expmodifier</text>
<text text-anchor="middle" x="192" y="-320.5" font-family="Helvetica,sans-Serif" font-size="10.00">/ExpCastInserter.h</text>
</a>
</g>
</g>
<!-- Node1&#45;&gt;Node36 -->
<g id="edge57" class="edge">
<title>Node1&#45;&gt;Node36</title>
<path fill="none" stroke="midnightblue" d="M274.95,-771.37C255.5,-764.47 231.31,-752.94 216,-735 193,-708.06 192,-694.42 192,-659 192,-659 192,-659 192,-461.5 192,-424 192,-380.51 192,-354.01"/>
<polygon fill="midnightblue" stroke="midnightblue" points="195.5,-353.76 192,-343.76 188.5,-353.76 195.5,-353.76"/>
</g>
<!-- Node3 -->
<g id="node3" class="node">
<title>Node3</title>
<g id="a_node3"><a xlink:href="StmtVisitor_8h.html" target="_top" xlink:title=" ">
<polygon fill="white" stroke="black" points="0,-380.5 0,-410.5 162,-410.5 162,-380.5 0,-380.5"/>
<text text-anchor="start" x="8" y="-398.5" font-family="Helvetica,sans-Serif" font-size="10.00">boomerang/visitor/stmtvisitor</text>
<text text-anchor="middle" x="81" y="-387.5" font-family="Helvetica,sans-Serif" font-size="10.00">/StmtVisitor.h</text>
</a>
</g>
</g>
<!-- Node2&#45;&gt;Node3 -->
<g id="edge2" class="edge">
<title>Node2&#45;&gt;Node3</title>
<path fill="none" stroke="midnightblue" d="M102.02,-709.71C99.88,-689.77 95,-639.61 95,-597.5 95,-597.5 95,-597.5 95,-528.5 95,-490.79 89.28,-447.36 85.15,-420.93"/>
<polygon fill="midnightblue" stroke="midnightblue" points="88.55,-420.02 83.5,-410.71 81.64,-421.14 88.55,-420.02"/>
</g>
<!-- Node4 -->
<g id="node4" class="node">
<title>Node4</title>
<g id="a_node4"><a xlink:href="BoomerangAPI_8h.html" target="_top" xlink:title=" ">
<polygon fill="white" stroke="black" points="498.5,-56.5 498.5,-86.5 653.5,-86.5 653.5,-56.5 498.5,-56.5"/>
<text text-anchor="start" x="506.5" y="-74.5" font-family="Helvetica,sans-Serif" font-size="10.00">boomerang/core/Boomerang</text>
<text text-anchor="middle" x="576" y="-63.5" font-family="Helvetica,sans-Serif" font-size="10.00">API.h</text>
</a>
</g>
</g>
<!-- Node3&#45;&gt;Node4 -->
<g id="edge3" class="edge">
<title>Node3&#45;&gt;Node4</title>
<path fill="none" stroke="midnightblue" d="M80.82,-380.24C80.53,-356.03 80,-305.36 80,-262.5 80,-262.5 80,-262.5 80,-193.5 80,-110.46 345.73,-84.16 488.19,-76.02"/>
<polygon fill="midnightblue" stroke="midnightblue" points="488.44,-79.51 498.23,-75.47 488.05,-72.52 488.44,-79.51"/>
</g>
<!-- Node6 -->
<g id="node6" class="node">
<title>Node6</title>
<g id="a_node6"><a xlink:href="ExpHelp_8h.html" target="_top" xlink:title=" ">
<polygon fill="white" stroke="black" points="550,-185 550,-204 712,-204 712,-185 550,-185"/>
<text text-anchor="middle" x="631" y="-192" font-family="Helvetica,sans-Serif" font-size="10.00">boomerang/ssl/exp/ExpHelp.h</text>
</a>
</g>
</g>
<!-- Node5&#45;&gt;Node6 -->
<g id="edge5" class="edge">
<title>Node5&#45;&gt;Node6</title>
<path fill="none" stroke="midnightblue" d="M638.79,-251.73C637.46,-242.18 635.31,-226.62 633.6,-214.28"/>
<polygon fill="midnightblue" stroke="midnightblue" points="637.03,-213.55 632.19,-204.13 630.1,-214.51 637.03,-213.55"/>
</g>
<!-- Node7 -->
<g id="node7" class="node">
<title>Node7</title>
<g id="a_node7"><a xlink:title=" ">
<polygon fill="white" stroke="#bfbfbf" points="711,-123.5 711,-142.5 769,-142.5 769,-123.5 711,-123.5"/>
<text text-anchor="middle" x="740" y="-130.5" font-family="Helvetica,sans-Serif" font-size="10.00">memory</text>
</a>
</g>
</g>
<!-- Node5&#45;&gt;Node7 -->
<g id="edge18" class="edge">
<title>Node5&#45;&gt;Node7</title>
<path fill="none" stroke="midnightblue" d="M663.01,-251.87C681.41,-243.8 706.47,-229.96 721,-210 733.22,-193.2 737.63,-169.39 739.19,-152.92"/>
<polygon fill="midnightblue" stroke="midnightblue" points="742.68,-153.08 739.88,-142.86 735.7,-152.6 742.68,-153.08"/>
</g>
<!-- Node8 -->
<g id="node8" class="node">
<title>Node8</title>
<g id="a_node8"><a xlink:href="Operator_8h.html" target="_top" xlink:title=" ">
<polygon fill="white" stroke="black" points="439,-123.5 439,-142.5 603,-142.5 603,-123.5 439,-123.5"/>
<text text-anchor="middle" x="521" y="-130.5" font-family="Helvetica,sans-Serif" font-size="10.00">boomerang/ssl/exp/Operator.h</text>
</a>
</g>
</g>
<!-- Node5&#45;&gt;Node8 -->
<g id="edge8" class="edge">
<title>Node5&#45;&gt;Node8</title>
<path fill="none" stroke="midnightblue" d="M608.35,-251.91C586.37,-244.35 558.07,-231.18 541,-210 527.79,-193.6 523.24,-169.34 521.71,-152.67"/>
<polygon fill="midnightblue" stroke="midnightblue" points="525.19,-152.28 521.06,-142.52 518.2,-152.73 525.19,-152.28"/>
</g>
<!-- Node9 -->
<g id="node9" class="node">
<title>Node9</title>
<g id="a_node9"><a xlink:href="OStream_8h.html" target="_top" xlink:title=" ">
<polygon fill="white" stroke="black" points="972,-123.5 972,-142.5 1118,-142.5 1118,-123.5 972,-123.5"/>
<text text-anchor="middle" x="1045" y="-130.5" font-family="Helvetica,sans-Serif" font-size="10.00">boomerang/util/OStream.h</text>
</a>
</g>
</g>
<!-- Node5&#45;&gt;Node9 -->
<g id="edge10" class="edge">
<title>Node5&#45;&gt;Node9</title>
<path fill="none" stroke="midnightblue" d="M667.41,-251.96C695.82,-242.78 741.26,-227.17 779,-210 804.89,-198.22 808.36,-188.98 835,-179 879.19,-162.45 931.02,-151.26 972.13,-144.19"/>
<polygon fill="midnightblue" stroke="midnightblue" points="972.78,-147.62 982.07,-142.52 971.62,-140.72 972.78,-147.62"/>
</g>
<!-- Node13 -->
<g id="node13" class="node">
<title>Node13</title>
<g id="a_node13"><a xlink:title=" ">
<polygon fill="white" stroke="#bfbfbf" points="830.5,-123.5 830.5,-142.5 883.5,-142.5 883.5,-123.5 830.5,-123.5"/>
<text text-anchor="middle" x="857" y="-130.5" font-family="Helvetica,sans-Serif" font-size="10.00">QString</text>
</a>
</g>
</g>
<!-- Node5&#45;&gt;Node13 -->
<g id="edge15" class="edge">
<title>Node5&#45;&gt;Node13</title>
<path fill="none" stroke="midnightblue" d="M658.96,-251.83C679.52,-242.24 713.13,-226.03 741,-210 775.46,-190.19 813.71,-164.32 836.54,-148.45"/>
<polygon fill="midnightblue" stroke="midnightblue" points="838.58,-151.3 844.77,-142.7 834.57,-145.56 838.58,-151.3"/>
</g>
<!-- Node14 -->
<g id="node14" class="node">
<title>Node14</title>
<g id="a_node14"><a xlink:title=" ">
<polygon fill="white" stroke="#bfbfbf" points="392,-185 392,-204 444,-204 444,-185 392,-185"/>
<text text-anchor="middle" x="418" y="-192" font-family="Helvetica,sans-Serif" font-size="10.00">cassert</text>
</a>
</g>
</g>
<!-- Node5&#45;&gt;Node14 -->
<g id="edge16" class="edge">
<title>Node5&#45;&gt;Node14</title>
<path fill="none" stroke="midnightblue" d="M602.68,-251.92C564.62,-242.83 504.09,-227.4 453,-210 451.09,-209.35 449.13,-208.64 447.16,-207.91"/>
<polygon fill="midnightblue" stroke="midnightblue" points="448.04,-204.49 437.45,-204.08 445.47,-211 448.04,-204.49"/>
</g>
<!-- Node15 -->
<g id="node15" class="node">
<title>Node15</title>
<g id="a_node15"><a xlink:title=" ">
<polygon fill="white" stroke="#bfbfbf" points="900,-185 900,-204 932,-204 932,-185 900,-185"/>
<text text-anchor="middle" x="916" y="-192" font-family="Helvetica,sans-Serif" font-size="10.00">list</text>
</a>
</g>
</g>
<!-- Node5&#45;&gt;Node15 -->
<g id="edge17" class="edge">
<title>Node5&#45;&gt;Node15</title>
<path fill="none" stroke="midnightblue" d="M692.61,-251.99C755.11,-241.52 855.41,-223.48 891,-210 892.03,-209.61 893.07,-209.18 894.11,-208.72"/>
<polygon fill="midnightblue" stroke="midnightblue" points="895.9,-211.73 903.17,-204.02 892.68,-205.52 895.9,-211.73"/>
</g>
<!-- Node16 -->
<g id="node16" class="node">
<title>Node16</title>
<g id="a_node16"><a xlink:title=" ">
<polygon fill="white" stroke="#bfbfbf" points="462,-185 462,-204 494,-204 494,-185 462,-185"/>
<text text-anchor="middle" x="478" y="-192" font-family="Helvetica,sans-Serif" font-size="10.00">set</text>
</a>
</g>
</g>
<!-- Node5&#45;&gt;Node16 -->
<g id="edge19" class="edge">
<title>Node5&#45;&gt;Node16</title>
<path fill="none" stroke="midnightblue" d="M615.91,-251.98C589.26,-242.39 545.17,-226.06 508,-210 506.43,-209.32 504.82,-208.61 503.21,-207.87"/>
<polygon fill="midnightblue" stroke="midnightblue" points="504.62,-204.67 494.08,-203.58 501.64,-211 504.62,-204.67"/>
</g>
<!-- Node17 -->
<g id="node17" class="node">
<title>Node17</title>
<g id="a_node17"><a xlink:title=" ">
<polygon fill="white" stroke="#bfbfbf" points="950.5,-185 950.5,-204 997.5,-204 997.5,-185 950.5,-185"/>
<text text-anchor="middle" x="974" y="-192" font-family="Helvetica,sans-Serif" font-size="10.00">vector</text>
</a>
</g>
</g>
<!-- Node5&#45;&gt;Node17 -->
<g id="edge20" class="edge">
<title>Node5&#45;&gt;Node17</title>
<path fill="none" stroke="midnightblue" d="M691.84,-251.97C776.35,-238.04 935.05,-211.78 941,-210 943.14,-209.36 945.33,-208.62 947.51,-207.81"/>
<polygon fill="midnightblue" stroke="midnightblue" points="948.9,-211.02 956.83,-204 946.25,-204.54 948.9,-211.02"/>
</g>
<!-- Node6&#45;&gt;Node4 -->
<g id="edge6" class="edge">
<title>Node6&#45;&gt;Node4</title>
<path fill="none" stroke="midnightblue" d="M629.7,-184.91C627.42,-171.28 621.96,-144.09 612,-123 607.36,-113.17 600.78,-103.24 594.51,-94.82"/>
<polygon fill="midnightblue" stroke="midnightblue" points="597.08,-92.42 588.19,-86.66 591.55,-96.71 597.08,-92.42"/>
</g>
<!-- Node6&#45;&gt;Node7 -->
<g id="edge7" class="edge">
<title>Node6&#45;&gt;Node7</title>
<path fill="none" stroke="midnightblue" d="M646.62,-184.98C664.59,-175.17 694.32,-158.93 715.41,-147.42"/>
<polygon fill="midnightblue" stroke="midnightblue" points="717.31,-150.37 724.41,-142.51 713.96,-144.23 717.31,-150.37"/>
</g>
<!-- Node8&#45;&gt;Node4 -->
<g id="edge9" class="edge">
<title>Node8&#45;&gt;Node4</title>
<path fill="none" stroke="midnightblue" d="M528.88,-123.48C535.98,-115.79 546.72,-104.17 556.16,-93.96"/>
<polygon fill="midnightblue" stroke="midnightblue" points="558.82,-96.24 563.04,-86.52 553.68,-91.49 558.82,-96.24"/>
</g>
<!-- Node9&#45;&gt;Node4 -->
<g id="edge11" class="edge">
<title>Node9&#45;&gt;Node4</title>
<path fill="none" stroke="midnightblue" d="M977.8,-123.48C895.16,-112.99 754.68,-95.17 663.64,-83.62"/>
<polygon fill="midnightblue" stroke="midnightblue" points="663.97,-80.13 653.61,-82.35 663.09,-87.08 663.97,-80.13"/>
</g>
<!-- Node10 -->
<g id="node10" class="node">
<title>Node10</title>
<g id="a_node10"><a xlink:href="Types_8h.html" target="_top" xlink:title=" ">
<polygon fill="white" stroke="black" points="1091.5,-62 1091.5,-81 1222.5,-81 1222.5,-62 1091.5,-62"/>
<text text-anchor="middle" x="1157" y="-69" font-family="Helvetica,sans-Serif" font-size="10.00">boomerang/util/Types.h</text>
</a>
</g>
</g>
<!-- Node9&#45;&gt;Node10 -->
<g id="edge12" class="edge">
<title>Node9&#45;&gt;Node10</title>
<path fill="none" stroke="midnightblue" d="M1061.05,-123.48C1079.59,-113.62 1110.34,-97.29 1132.02,-85.77"/>
<polygon fill="midnightblue" stroke="midnightblue" points="1133.79,-88.79 1140.98,-81.01 1130.51,-82.61 1133.79,-88.79"/>
</g>
<!-- Node12 -->
<g id="node12" class="node">
<title>Node12</title>
<g id="a_node12"><a xlink:title=" ">
<polygon fill="white" stroke="#bfbfbf" points="1022,-62 1022,-81 1068,-81 1068,-62 1022,-62"/>
<text text-anchor="middle" x="1045" y="-69" font-family="Helvetica,sans-Serif" font-size="10.00">cstdio</text>
</a>
</g>
</g>
<!-- Node9&#45;&gt;Node12 -->
<g id="edge14" class="edge">
<title>Node9&#45;&gt;Node12</title>
<path fill="none" stroke="midnightblue" d="M1045,-123.48C1045,-115.08 1045,-101.98 1045,-91.16"/>
<polygon fill="midnightblue" stroke="midnightblue" points="1048.5,-91.01 1045,-81.01 1041.5,-91.01 1048.5,-91.01"/>
</g>
<!-- Node11 -->
<g id="node11" class="node">
<title>Node11</title>
<g id="a_node11"><a xlink:title=" ">
<polygon fill="white" stroke="#bfbfbf" points="1132,-0.5 1132,-19.5 1182,-19.5 1182,-0.5 1132,-0.5"/>
<text text-anchor="middle" x="1157" y="-7.5" font-family="Helvetica,sans-Serif" font-size="10.00">cstdint</text>
</a>
</g>
</g>
<!-- Node10&#45;&gt;Node11 -->
<g id="edge13" class="edge">
<title>Node10&#45;&gt;Node11</title>
<path fill="none" stroke="midnightblue" d="M1157,-61.98C1157,-53.58 1157,-40.48 1157,-29.66"/>
<polygon fill="midnightblue" stroke="midnightblue" points="1160.5,-29.51 1157,-19.51 1153.5,-29.51 1160.5,-29.51"/>
</g>
<!-- Node19 -->
<g id="node19" class="node">
<title>Node19</title>
<g id="a_node19"><a xlink:href="Assignment_8h.html" target="_top" xlink:title=" ">
<polygon fill="white" stroke="black" points="454.5,-380.5 454.5,-410.5 601.5,-410.5 601.5,-380.5 454.5,-380.5"/>
<text text-anchor="start" x="462.5" y="-398.5" font-family="Helvetica,sans-Serif" font-size="10.00">boomerang/ssl/statements</text>
<text text-anchor="middle" x="528" y="-387.5" font-family="Helvetica,sans-Serif" font-size="10.00">/Assignment.h</text>
</a>
</g>
</g>
<!-- Node18&#45;&gt;Node19 -->
<g id="edge22" class="edge">
<title>Node18&#45;&gt;Node19</title>
<path fill="none" stroke="midnightblue" d="M607.87,-447.4C593.43,-438.2 574.4,-426.07 558.53,-415.95"/>
<polygon fill="midnightblue" stroke="midnightblue" points="560.4,-413 550.09,-410.58 556.64,-418.9 560.4,-413"/>
</g>
<!-- Node20 -->
<g id="node20" class="node">
<title>Node20</title>
<g id="a_node20"><a xlink:href="TypingStatement_8h.html" target="_top" xlink:title=" ">
<polygon fill="white" stroke="black" points="721.5,-313.5 721.5,-343.5 868.5,-343.5 868.5,-313.5 721.5,-313.5"/>
<text text-anchor="start" x="729.5" y="-331.5" font-family="Helvetica,sans-Serif" font-size="10.00">boomerang/ssl/statements</text>
<text text-anchor="middle" x="795" y="-320.5" font-family="Helvetica,sans-Serif" font-size="10.00">/TypingStatement.h</text>
</a>
</g>
</g>
<!-- Node19&#45;&gt;Node20 -->
<g id="edge23" class="edge">
<title>Node19&#45;&gt;Node20</title>
<path fill="none" stroke="midnightblue" d="M585.61,-380.48C627.14,-370.37 683.34,-356.68 727.06,-346.04"/>
<polygon fill="midnightblue" stroke="midnightblue" points="728.15,-349.38 737.04,-343.61 726.49,-342.58 728.15,-349.38"/>
</g>
<!-- Node21 -->
<g id="node21" class="node">
<title>Node21</title>
<g id="a_node21"><a xlink:href="Statement_8h.html" target="_top" xlink:title=" ">
<polygon fill="white" stroke="black" points="736.5,-246.5 736.5,-276.5 883.5,-276.5 883.5,-246.5 736.5,-246.5"/>
<text text-anchor="start" x="744.5" y="-264.5" font-family="Helvetica,sans-Serif" font-size="10.00">boomerang/ssl/statements</text>
<text text-anchor="middle" x="810" y="-253.5" font-family="Helvetica,sans-Serif" font-size="10.00">/Statement.h</text>
</a>
</g>
</g>
<!-- Node20&#45;&gt;Node21 -->
<g id="edge24" class="edge">
<title>Node20&#45;&gt;Node21</title>
<path fill="none" stroke="midnightblue" d="M798.25,-313.4C800.06,-305.56 802.36,-295.6 804.45,-286.57"/>
<polygon fill="midnightblue" stroke="midnightblue" points="807.91,-287.11 806.75,-276.58 801.09,-285.53 807.91,-287.11"/>
</g>
<!-- Node21&#45;&gt;Node6 -->
<g id="edge25" class="edge">
<title>Node21&#45;&gt;Node6</title>
<path fill="none" stroke="midnightblue" d="M771.16,-246.4C739.2,-234.79 694.38,-218.51 664.1,-207.52"/>
<polygon fill="midnightblue" stroke="midnightblue" points="665.02,-204.13 654.43,-204.01 662.63,-210.71 665.02,-204.13"/>
</g>
<!-- Node21&#45;&gt;Node15 -->
<g id="edge31" class="edge">
<title>Node21&#45;&gt;Node15</title>
<path fill="none" stroke="midnightblue" d="M833,-246.4C850.94,-235.39 875.72,-220.2 893.52,-209.28"/>
<polygon fill="midnightblue" stroke="midnightblue" points="895.43,-212.22 902.13,-204.01 891.77,-206.25 895.43,-212.22"/>
</g>
<!-- Node22 -->
<g id="node22" class="node">
<title>Node22</title>
<g id="a_node22"><a xlink:href="Address_8h.html" target="_top" xlink:title=" ">
<polygon fill="white" stroke="black" points="1092,-185 1092,-204 1234,-204 1234,-185 1092,-185"/>
<text text-anchor="middle" x="1163" y="-192" font-family="Helvetica,sans-Serif" font-size="10.00">boomerang/util/Address.h</text>
</a>
</g>
</g>
<!-- Node21&#45;&gt;Node22 -->
<g id="edge26" class="edge">
<title>Node21&#45;&gt;Node22</title>
<path fill="none" stroke="midnightblue" d="M883.57,-246.95C949.95,-234.73 1046.17,-217.01 1106.63,-205.88"/>
<polygon fill="midnightblue" stroke="midnightblue" points="1107.54,-209.27 1116.75,-204.02 1106.28,-202.39 1107.54,-209.27"/>
</g>
<!-- Node23 -->
<g id="node23" class="node">
<title>Node23</title>
<g id="a_node23"><a xlink:title=" ">
<polygon fill="white" stroke="#bfbfbf" points="844,-185 844,-204 882,-204 882,-185 844,-185"/>
<text text-anchor="middle" x="863" y="-192" font-family="Helvetica,sans-Serif" font-size="10.00">map</text>
</a>
</g>
</g>
<!-- Node21&#45;&gt;Node23 -->
<g id="edge32" class="edge">
<title>Node21&#45;&gt;Node23</title>
<path fill="none" stroke="midnightblue" d="M821.5,-246.4C829.68,-236.36 840.71,-222.84 849.34,-212.25"/>
<polygon fill="midnightblue" stroke="midnightblue" points="852.3,-214.16 855.91,-204.19 846.88,-209.73 852.3,-214.16"/>
</g>
<!-- Node22&#45;&gt;Node4 -->
<g id="edge27" class="edge">
<title>Node22&#45;&gt;Node4</title>
<path fill="none" stroke="midnightblue" d="M1127.87,-184.98C1087.86,-175.19 1020.58,-158.49 963,-143 931.75,-134.59 924.59,-130 893,-123 816.18,-105.97 727.66,-92.36 663.73,-83.59"/>
<polygon fill="midnightblue" stroke="midnightblue" points="664.06,-80.1 653.68,-82.22 663.12,-87.03 664.06,-80.1"/>
</g>
<!-- Node22&#45;&gt;Node9 -->
<g id="edge28" class="edge">
<title>Node22&#45;&gt;Node9</title>
<path fill="none" stroke="midnightblue" d="M1146.09,-184.98C1126.47,-175.08 1093.87,-158.64 1071.01,-147.12"/>
<polygon fill="midnightblue" stroke="midnightblue" points="1072.38,-143.89 1061.88,-142.51 1069.23,-150.14 1072.38,-143.89"/>
</g>
<!-- Node22&#45;&gt;Node10 -->
<g id="edge29" class="edge">
<title>Node22&#45;&gt;Node10</title>
<path fill="none" stroke="midnightblue" d="M1162.57,-184.8C1161.6,-165.35 1159.26,-117.99 1157.94,-91.4"/>
<polygon fill="midnightblue" stroke="midnightblue" points="1161.42,-90.94 1157.43,-81.12 1154.43,-91.28 1161.42,-90.94"/>
</g>
<!-- Node22&#45;&gt;Node13 -->
<g id="edge30" class="edge">
<title>Node22&#45;&gt;Node13</title>
<path fill="none" stroke="midnightblue" d="M1119.16,-184.98C1058.48,-173.18 950.02,-152.09 893.51,-141.1"/>
<polygon fill="midnightblue" stroke="midnightblue" points="894.07,-137.64 883.58,-139.17 892.73,-144.51 894.07,-137.64"/>
</g>
<!-- Node24&#45;&gt;Node19 -->
<g id="edge34" class="edge">
<title>Node24&#45;&gt;Node19</title>
<path fill="none" stroke="midnightblue" d="M386.91,-514.37C414.94,-490.95 471.16,-443.99 503.53,-416.94"/>
<polygon fill="midnightblue" stroke="midnightblue" points="505.78,-419.62 511.21,-410.52 501.29,-414.25 505.78,-419.62"/>
</g>
<!-- Node25&#45;&gt;Node19 -->
<g id="edge36" class="edge">
<title>Node25&#45;&gt;Node19</title>
<path fill="none" stroke="midnightblue" d="M527.36,-514.39C522.47,-504.52 516.57,-490.85 514,-478 510.15,-458.71 514.43,-436.73 519.24,-420.46"/>
<polygon fill="midnightblue" stroke="midnightblue" points="522.66,-421.27 522.4,-410.68 516,-419.12 522.66,-421.27"/>
</g>
<!-- Node26&#45;&gt;Node19 -->
<g id="edge54" class="edge">
<title>Node26&#45;&gt;Node19</title>
<path fill="none" stroke="midnightblue" d="M712.77,-704.38C740.4,-692.95 768.58,-674.39 759,-648 729.51,-566.73 690.72,-560.74 618,-514 588.57,-495.08 569.68,-505.46 548,-478 535.14,-461.71 530.4,-438.32 528.72,-420.77"/>
<polygon fill="midnightblue" stroke="midnightblue" points="532.21,-420.45 528.03,-410.71 525.23,-420.93 532.21,-420.45"/>
</g>
<!-- Node27 -->
<g id="node27" class="node">
<title>Node27</title>
<g id="a_node27"><a xlink:href="BasicBlock_8h.html" target="_top" xlink:title=" ">
<polygon fill="white" stroke="black" points="893,-648.5 893,-667.5 1045,-667.5 1045,-648.5 893,-648.5"/>
<text text-anchor="middle" x="969" y="-655.5" font-family="Helvetica,sans-Serif" font-size="10.00">boomerang/db/BasicBlock.h</text>
</a>
</g>
</g>
<!-- Node26&#45;&gt;Node27 -->
<g id="edge38" class="edge">
<title>Node26&#45;&gt;Node27</title>
<path fill="none" stroke="midnightblue" d="M738.19,-704.47C792.68,-693.74 866.63,-679.17 915.99,-669.44"/>
<polygon fill="midnightblue" stroke="midnightblue" points="916.69,-672.87 925.82,-667.51 915.34,-666.01 916.69,-672.87"/>
</g>
<!-- Node32 -->
<g id="node32" class="node">
<title>Node32</title>
<g id="a_node32"><a xlink:href="RefExp_8h.html" target="_top" xlink:title=" ">
<polygon fill="white" stroke="black" points="334,-648.5 334,-667.5 490,-667.5 490,-648.5 334,-648.5"/>
<text text-anchor="middle" x="412" y="-655.5" font-family="Helvetica,sans-Serif" font-size="10.00">boomerang/ssl/exp/RefExp.h</text>
</a>
</g>
</g>
<!-- Node26&#45;&gt;Node32 -->
<g id="edge51" class="edge">
<title>Node26&#45;&gt;Node32</title>
<path fill="none" stroke="midnightblue" d="M606.89,-704.47C561.46,-693.87 500,-679.53 458.34,-669.81"/>
<polygon fill="midnightblue" stroke="midnightblue" points="458.99,-666.37 448.46,-667.51 457.4,-673.19 458.99,-666.37"/>
</g>
<!-- Node34 -->
<g id="node34" class="node">
<title>Node34</title>
<g id="a_node34"><a xlink:href="MapIterators_8h.html" target="_top" xlink:title=" ">
<polygon fill="white" stroke="black" points="584.5,-648.5 584.5,-667.5 749.5,-667.5 749.5,-648.5 584.5,-648.5"/>
<text text-anchor="middle" x="667" y="-655.5" font-family="Helvetica,sans-Serif" font-size="10.00">boomerang/util/MapIterators.h</text>
</a>
</g>
</g>
<!-- Node26&#45;&gt;Node34 -->
<g id="edge55" class="edge">
<title>Node26&#45;&gt;Node34</title>
<path fill="none" stroke="midnightblue" d="M667,-704.4C667,-696.47 667,-686.46 667,-677.86"/>
<polygon fill="midnightblue" stroke="midnightblue" points="670.5,-677.66 667,-667.66 663.5,-677.66 670.5,-677.66"/>
</g>
<!-- Node27&#45;&gt;Node7 -->
<g id="edge49" class="edge">
<title>Node27&#45;&gt;Node7</title>
<path fill="none" stroke="midnightblue" d="M982.21,-648.28C1008.31,-629.89 1064,-584.33 1064,-530.5 1064,-530.5 1064,-530.5 1064,-260.5 1064,-221.25 1060.89,-203.21 1030,-179 1020.21,-171.33 856.55,-149.17 779.51,-139.09"/>
<polygon fill="midnightblue" stroke="midnightblue" points="779.61,-135.58 769.24,-137.76 778.71,-142.52 779.61,-135.58"/>
</g>
<!-- Node27&#45;&gt;Node15 -->
<g id="edge48" class="edge">
<title>Node27&#45;&gt;Node15</title>
<path fill="none" stroke="midnightblue" d="M966.82,-648.48C961.83,-628.19 950,-575.36 950,-530.5 950,-530.5 950,-530.5 950,-327.5 950,-285.67 933.79,-238.68 923.76,-213.59"/>
<polygon fill="midnightblue" stroke="midnightblue" points="926.96,-212.17 919.9,-204.26 920.49,-214.84 926.96,-212.17"/>
</g>
<!-- Node27&#45;&gt;Node17 -->
<g id="edge50" class="edge">
<title>Node27&#45;&gt;Node17</title>
<path fill="none" stroke="midnightblue" d="M971.18,-648.48C976.17,-628.19 988,-575.36 988,-530.5 988,-530.5 988,-530.5 988,-327.5 988,-286.93 981.38,-239.74 977.24,-214.22"/>
<polygon fill="midnightblue" stroke="midnightblue" points="980.66,-213.4 975.55,-204.12 973.75,-214.56 980.66,-213.4"/>
</g>
<!-- Node27&#45;&gt;Node22 -->
<g id="edge39" class="edge">
<title>Node27&#45;&gt;Node22</title>
<path fill="none" stroke="midnightblue" d="M999.66,-648.5C1046.88,-633.32 1132,-596.77 1132,-530.5 1132,-530.5 1132,-530.5 1132,-327.5 1132,-285.89 1146.78,-238.82 1155.93,-213.66"/>
<polygon fill="midnightblue" stroke="midnightblue" points="1159.2,-214.89 1159.44,-204.29 1152.65,-212.42 1159.2,-214.89"/>
</g>
<!-- Node28 -->
<g id="node28" class="node">
<title>Node28</title>
<g id="a_node28"><a xlink:href="StatementList_8h.html" target="_top" xlink:title=" ">
<polygon fill="white" stroke="black" points="776.5,-581.5 776.5,-611.5 921.5,-611.5 921.5,-581.5 776.5,-581.5"/>
<text text-anchor="start" x="784.5" y="-599.5" font-family="Helvetica,sans-Serif" font-size="10.00">boomerang/util/Statement</text>
<text text-anchor="middle" x="849" y="-588.5" font-family="Helvetica,sans-Serif" font-size="10.00">List.h</text>
</a>
</g>
</g>
<!-- Node27&#45;&gt;Node28 -->
<g id="edge40" class="edge">
<title>Node27&#45;&gt;Node28</title>
<path fill="none" stroke="midnightblue" d="M951.81,-648.48C934.8,-640.04 908.2,-626.86 886.33,-616.01"/>
<polygon fill="midnightblue" stroke="midnightblue" points="887.8,-612.83 877.28,-611.52 884.69,-619.1 887.8,-612.83"/>
</g>
<!-- Node28&#45;&gt;Node15 -->
<g id="edge47" class="edge">
<title>Node28&#45;&gt;Node15</title>
<path fill="none" stroke="midnightblue" d="M861.15,-581.14C879.45,-557.97 912,-510.22 912,-463.5 912,-463.5 912,-463.5 912,-327.5 912,-287.14 913.89,-239.87 915.07,-214.28"/>
<polygon fill="midnightblue" stroke="midnightblue" points="918.58,-214.3 915.56,-204.15 911.58,-213.97 918.58,-214.3"/>
</g>
<!-- Node29 -->
<g id="node29" class="node">
<title>Node29</title>
<g id="a_node29"><a xlink:href="StatementSet_8h.html" target="_top" xlink:title=" ">
<polygon fill="white" stroke="black" points="724,-520 724,-539 816,-539 816,-520 724,-520"/>
<text text-anchor="middle" x="770" y="-527" font-family="Helvetica,sans-Serif" font-size="10.00">StatementSet.h</text>
</a>
</g>
</g>
<!-- Node28&#45;&gt;Node29 -->
<g id="edge41" class="edge">
<title>Node28&#45;&gt;Node29</title>
<path fill="none" stroke="midnightblue" d="M831.86,-581.4C819.05,-570.86 801.57,-556.48 788.46,-545.69"/>
<polygon fill="midnightblue" stroke="midnightblue" points="790.51,-542.85 780.57,-539.19 786.07,-548.25 790.51,-542.85"/>
</g>
<!-- Node29&#45;&gt;Node7 -->
<g id="edge45" class="edge">
<title>Node29&#45;&gt;Node7</title>
<path fill="none" stroke="midnightblue" d="M769.72,-519.87C769.65,-503.78 771.68,-468.87 789,-447 861.99,-354.83 1026,-447.07 1026,-329.5 1026,-329.5 1026,-329.5 1026,-260.5 1026,-223.31 1034.1,-204.47 1007,-179 990.63,-163.61 849.79,-146.11 779.53,-138.23"/>
<polygon fill="midnightblue" stroke="midnightblue" points="779.62,-134.72 769.29,-137.1 778.85,-141.68 779.62,-134.72"/>
</g>
<!-- Node29&#45;&gt;Node18 -->
<g id="edge44" class="edge">
<title>Node29&#45;&gt;Node18</title>
<path fill="none" stroke="midnightblue" d="M751.41,-519.87C730.58,-510.2 696.23,-494.25 669.37,-481.78"/>
<polygon fill="midnightblue" stroke="midnightblue" points="670.76,-478.56 660.21,-477.53 667.81,-484.91 670.76,-478.56"/>
</g>
<!-- Node30 -->
<g id="node30" class="node">
<title>Node30</title>
<g id="a_node30"><a xlink:href="Terminal_8h.html" target="_top" xlink:title=" ">
<polygon fill="white" stroke="black" points="638,-386 638,-405 802,-405 802,-386 638,-386"/>
<text text-anchor="middle" x="720" y="-393" font-family="Helvetica,sans-Serif" font-size="10.00">boomerang/ssl/exp/Terminal.h</text>
</a>
</g>
</g>
<!-- Node29&#45;&gt;Node30 -->
<g id="edge42" class="edge">
<title>Node29&#45;&gt;Node30</title>
<path fill="none" stroke="midnightblue" d="M766.72,-519.84C758.67,-498.58 737.79,-443.46 726.88,-414.65"/>
<polygon fill="midnightblue" stroke="midnightblue" points="730.04,-413.13 723.23,-405.02 723.5,-415.61 730.04,-413.13"/>
</g>
<!-- Node31 -->
<g id="node31" class="node">
<title>Node31</title>
<g id="a_node31"><a xlink:title=" ">
<polygon fill="white" stroke="#bfbfbf" points="798,-453 798,-472 884,-472 884,-453 798,-453"/>
<text text-anchor="middle" x="841" y="-460" font-family="Helvetica,sans-Serif" font-size="10.00">unordered_set</text>
</a>
</g>
</g>
<!-- Node29&#45;&gt;Node31 -->
<g id="edge46" class="edge">
<title>Node29&#45;&gt;Node31</title>
<path fill="none" stroke="midnightblue" d="M779.58,-519.73C790.97,-509.31 810.19,-491.71 824.1,-478.97"/>
<polygon fill="midnightblue" stroke="midnightblue" points="826.56,-481.46 831.58,-472.13 821.84,-476.3 826.56,-481.46"/>
</g>
<!-- Node30&#45;&gt;Node5 -->
<g id="edge43" class="edge">
<title>Node30&#45;&gt;Node5</title>
<path fill="none" stroke="midnightblue" d="M714.75,-385.84C701.75,-364.39 667.87,-308.49 650.54,-279.9"/>
<polygon fill="midnightblue" stroke="midnightblue" points="653.34,-277.76 645.16,-271.02 647.35,-281.39 653.34,-277.76"/>
</g>
<!-- Node33 -->
<g id="node33" class="node">
<title>Node33</title>
<g id="a_node33"><a xlink:href="Unary_8h.html" target="_top" xlink:title=" ">
<polygon fill="white" stroke="black" points="265.5,-453 265.5,-472 414.5,-472 414.5,-453 265.5,-453"/>
<text text-anchor="middle" x="340" y="-460" font-family="Helvetica,sans-Serif" font-size="10.00">boomerang/ssl/exp/Unary.h</text>
</a>
</g>
</g>
<!-- Node32&#45;&gt;Node33 -->
<g id="edge52" class="edge">
<title>Node32&#45;&gt;Node33</title>
<path fill="none" stroke="midnightblue" d="M395.54,-648.3C367.24,-632.27 310.26,-595.1 288,-545 282.41,-532.41 282.63,-526.69 288,-514 294.09,-499.59 306.53,-487.27 317.71,-478.4"/>
<polygon fill="midnightblue" stroke="midnightblue" points="319.96,-481.09 325.89,-472.32 315.78,-475.48 319.96,-481.09"/>
</g>
<!-- Node33&#45;&gt;Node5 -->
<g id="edge53" class="edge">
<title>Node33&#45;&gt;Node5</title>
<path fill="none" stroke="midnightblue" d="M350.54,-452.77C369.27,-437.39 409.79,-404.77 446,-380 505.07,-339.59 578.05,-297.33 615.42,-276.22"/>
<polygon fill="midnightblue" stroke="midnightblue" points="617.55,-279.04 624.55,-271.08 614.12,-272.94 617.55,-279.04"/>
</g>
<!-- Node35 -->
<g id="node35" class="node">
<title>Node35</title>
<g id="a_node35"><a xlink:title=" ">
<polygon fill="white" stroke="#bfbfbf" points="640.5,-587 640.5,-606 693.5,-606 693.5,-587 640.5,-587"/>
<text text-anchor="middle" x="667" y="-594" font-family="Helvetica,sans-Serif" font-size="10.00">iterator</text>
</a>
</g>
</g>
<!-- Node34&#45;&gt;Node35 -->
<g id="edge56" class="edge">
<title>Node34&#45;&gt;Node35</title>
<path fill="none" stroke="midnightblue" d="M667,-648.48C667,-640.08 667,-626.98 667,-616.16"/>
<polygon fill="midnightblue" stroke="midnightblue" points="670.5,-616.01 667,-606.01 663.5,-616.01 670.5,-616.01"/>
</g>
<!-- Node37 -->
<g id="node37" class="node">
<title>Node37</title>
<g id="a_node37"><a xlink:href="ExpModifier_8h.html" target="_top" xlink:title=" ">
<polygon fill="white" stroke="black" points="206,-179.5 206,-209.5 374,-209.5 374,-179.5 206,-179.5"/>
<text text-anchor="start" x="214" y="-197.5" font-family="Helvetica,sans-Serif" font-size="10.00">boomerang/visitor/expmodifier</text>
<text text-anchor="middle" x="290" y="-186.5" font-family="Helvetica,sans-Serif" font-size="10.00">/ExpModifier.h</text>
</a>
</g>
</g>
<!-- Node36&#45;&gt;Node37 -->
<g id="edge58" class="edge">
<title>Node36&#45;&gt;Node37</title>
<path fill="none" stroke="midnightblue" d="M202.49,-313.37C219.51,-290.45 253.28,-244.97 273.53,-217.69"/>
<polygon fill="midnightblue" stroke="midnightblue" points="276.44,-219.64 279.59,-209.52 270.82,-215.47 276.44,-219.64"/>
</g>
<!-- Node37&#45;&gt;Node4 -->
<g id="edge59" class="edge">
<title>Node37&#45;&gt;Node4</title>
<path fill="none" stroke="midnightblue" d="M315.32,-179.46C343,-164.42 388.89,-140.37 430,-123 459.38,-110.59 492.96,-98.81 520.5,-89.76"/>
<polygon fill="midnightblue" stroke="midnightblue" points="521.93,-92.97 530.36,-86.55 519.77,-86.32 521.93,-92.97"/>
</g>
<!-- Node37&#45;&gt;Node7 -->
<g id="edge60" class="edge">
<title>Node37&#45;&gt;Node7</title>
<path fill="none" stroke="midnightblue" d="M374.13,-180.27C377.12,-179.84 380.09,-179.41 383,-179 498.14,-162.77 634.58,-146.35 700.47,-138.6"/>
<polygon fill="midnightblue" stroke="midnightblue" points="701.28,-142.03 710.81,-137.39 700.47,-135.08 701.28,-142.03"/>
</g>
</g>
</svg>
        <g id="navigator" transform="translate(0 0)" fill="#404254">
                <rect fill="#f2f5e9" fill-opacity="0.5" stroke="#606060" stroke-width=".5" x="0" y="0" width="60" height="60"/>
                <use id="zoomplus" xlink:href="#zoomPlus" x="17" y="9" onmousedown="handleZoom(evt,'in')"/>
                <use id="zoomminus" xlink:href="#zoomMin" x="42" y="9" onmousedown="handleZoom(evt,'out')"/>
                <use id="reset" xlink:href="#resetDef" x="30" y="36" onmousedown="handleReset()"/>
                <g id="arrowUp" xlink:href="#dirArrow" transform="translate(30 24)" onmousedown="handlePan(0,-1)">
                  <use xlink:href="#rim" fill="#404040">
                        <set attributeName="fill" to="#808080" begin="arrowUp.mouseover" end="arrowUp.mouseout"/>
                  </use>
                  <path fill="none" stroke="white" stroke-width="1.5" d="M0,-3.0v7 M-2.5,-0.5L0,-3.0L2.5,-0.5"/>
                </g>
                <g id="arrowRight" xlink:href="#dirArrow" transform="rotate(90) translate(36 -43)" onmousedown="handlePan(1,0)">
                  <use xlink:href="#rim" fill="#404040">
                        <set attributeName="fill" to="#808080" begin="arrowRight.mouseover" end="arrowRight.mouseout"/>
                  </use>
                  <path fill="none" stroke="white" stroke-width="1.5" d="M0,-3.0v7 M-2.5,-0.5L0,-3.0L2.5,-0.5"/>
                </g>
                <g id="arrowDown" xlink:href="#dirArrow" transform="rotate(180) translate(-30 -48)" onmousedown="handlePan(0,1)">
                  <use xlink:href="#rim" fill="#404040">
                        <set attributeName="fill" to="#808080" begin="arrowDown.mouseover" end="arrowDown.mouseout"/>
                  </use>
                  <path fill="none" stroke="white" stroke-width="1.5" d="M0,-3.0v7 M-2.5,-0.5L0,-3.0L2.5,-0.5"/>
                </g>
                <g id="arrowLeft" xlink:href="#dirArrow" transform="rotate(270) translate(-36 17)" onmousedown="handlePan(-1,0)">
                  <use xlink:href="#rim" fill="#404040">
                        <set attributeName="fill" to="#808080" begin="arrowLeft.mouseover" end="arrowLeft.mouseout"/>
                  </use>
                  <path fill="none" stroke="white" stroke-width="1.5" d="M0,-3.0v7 M-2.5,-0.5L0,-3.0L2.5,-0.5"/>
                </g>
        </g>
        <svg viewBox="0 0 15 15" width="100%" height="30px" preserveAspectRatio="xMaxYMin meet">
         <g id="arrow_out" transform="scale(0.3 0.3)">
          <a xlink:href="StmtCastInserter_8cpp__incl_org.svg" target="_base">
           <rect id="button" ry="5" rx="5" y="6" x="6" height="38" width="38"
                fill="#f2f5e9" fill-opacity="0.5" stroke="#606060" stroke-width="1.0"/>
           <path id="arrow"
             d="M 11.500037,31.436501 C 11.940474,20.09759 22.043105,11.32322 32.158766,21.979434 L 37.068811,17.246167 C 37.068811,17.246167 37.088388,32 37.088388,32 L 22.160133,31.978069 C 22.160133,31.978069 26.997745,27.140456 26.997745,27.140456 C 18.528582,18.264221 13.291696,25.230495 11.500037,31.436501 z"
             style="fill:#404040;"/>
          </a>
         </g>
        </svg>
</svg>
