<?xml version="1.0" encoding="UTF-8" standalone="no"?>
<!DOCTYPE svg PUBLIC "-//W3C//DTD SVG 1.1//EN"
 "http://www.w3.org/Graphics/SVG/1.1/DTD/svg11.dtd">
<!-- Generated by graphviz version 2.43.0 (0)
 -->
<!-- Title: TableEntry.cpp Pages: 1 -->
<svg width="452pt" height="375pt"
 viewBox="0.00 0.00 451.50 375.00" xmlns="http://www.w3.org/2000/svg" xmlns:xlink="http://www.w3.org/1999/xlink">
<g id="graph0" class="graph" transform="scale(1 1) rotate(0) translate(4 371)">
<title>TableEntry.cpp</title>
<polygon fill="white" stroke="transparent" points="-4,4 -4,-371 447.5,-371 447.5,4 -4,4"/>
<!-- Node1 -->
<g id="node1" class="node">
<title>Node1</title>
<g id="a_node1"><a xlink:title=" ">
<polygon fill="#bfbfbf" stroke="black" points="308.5,-347.5 308.5,-366.5 394.5,-366.5 394.5,-347.5 308.5,-347.5"/>
<text text-anchor="middle" x="351.5" y="-354.5" font-family="Helvetica,sans-Serif" font-size="10.00">TableEntry.cpp</text>
</a>
</g>
</g>
<!-- Node2 -->
<g id="node2" class="node">
<title>Node2</title>
<g id="a_node2"><a xlink:href="TableEntry_8h.html" target="_top" xlink:title=" ">
<polygon fill="white" stroke="black" points="314,-291.5 314,-310.5 389,-310.5 389,-291.5 314,-291.5"/>
<text text-anchor="middle" x="351.5" y="-298.5" font-family="Helvetica,sans-Serif" font-size="10.00">TableEntry.h</text>
</a>
</g>
</g>
<!-- Node1&#45;&gt;Node2 -->
<g id="edge1" class="edge">
<title>Node1&#45;&gt;Node2</title>
<path fill="none" stroke="midnightblue" d="M351.5,-347.08C351.5,-340.01 351.5,-329.86 351.5,-320.99"/>
<polygon fill="midnightblue" stroke="midnightblue" points="355,-320.75 351.5,-310.75 348,-320.75 355,-320.75"/>
</g>
<!-- Node3 -->
<g id="node3" class="node">
<title>Node3</title>
<g id="a_node3"><a xlink:href="RTL_8h.html" target="_top" xlink:title=" ">
<polygon fill="white" stroke="black" points="292,-235.5 292,-254.5 411,-254.5 411,-235.5 292,-235.5"/>
<text text-anchor="middle" x="351.5" y="-242.5" font-family="Helvetica,sans-Serif" font-size="10.00">boomerang/ssl/RTL.h</text>
</a>
</g>
</g>
<!-- Node2&#45;&gt;Node3 -->
<g id="edge2" class="edge">
<title>Node2&#45;&gt;Node3</title>
<path fill="none" stroke="midnightblue" d="M351.5,-291.08C351.5,-284.01 351.5,-273.86 351.5,-264.99"/>
<polygon fill="midnightblue" stroke="midnightblue" points="355,-264.75 351.5,-254.75 348,-264.75 355,-264.75"/>
</g>
<!-- Node4 -->
<g id="node4" class="node">
<title>Node4</title>
<g id="a_node4"><a xlink:href="Address_8h.html" target="_top" xlink:title=" ">
<polygon fill="white" stroke="black" points="175.5,-179.5 175.5,-198.5 317.5,-198.5 317.5,-179.5 175.5,-179.5"/>
<text text-anchor="middle" x="246.5" y="-186.5" font-family="Helvetica,sans-Serif" font-size="10.00">boomerang/util/Address.h</text>
</a>
</g>
</g>
<!-- Node3&#45;&gt;Node4 -->
<g id="edge3" class="edge">
<title>Node3&#45;&gt;Node4</title>
<path fill="none" stroke="midnightblue" d="M334.63,-235.32C317.79,-226.66 291.69,-213.24 272.26,-203.25"/>
<polygon fill="midnightblue" stroke="midnightblue" points="273.82,-200.12 263.33,-198.65 270.62,-206.34 273.82,-200.12"/>
</g>
<!-- Node11 -->
<g id="node11" class="node">
<title>Node11</title>
<g id="a_node11"><a xlink:title=" ">
<polygon fill="white" stroke="#bfbfbf" points="335.5,-179.5 335.5,-198.5 367.5,-198.5 367.5,-179.5 335.5,-179.5"/>
<text text-anchor="middle" x="351.5" y="-186.5" font-family="Helvetica,sans-Serif" font-size="10.00">list</text>
</a>
</g>
</g>
<!-- Node3&#45;&gt;Node11 -->
<g id="edge12" class="edge">
<title>Node3&#45;&gt;Node11</title>
<path fill="none" stroke="midnightblue" d="M351.5,-235.08C351.5,-228.01 351.5,-217.86 351.5,-208.99"/>
<polygon fill="midnightblue" stroke="midnightblue" points="355,-208.75 351.5,-198.75 348,-208.75 355,-208.75"/>
</g>
<!-- Node12 -->
<g id="node12" class="node">
<title>Node12</title>
<g id="a_node12"><a xlink:title=" ">
<polygon fill="white" stroke="#bfbfbf" points="385.5,-179.5 385.5,-198.5 443.5,-198.5 443.5,-179.5 385.5,-179.5"/>
<text text-anchor="middle" x="414.5" y="-186.5" font-family="Helvetica,sans-Serif" font-size="10.00">memory</text>
</a>
</g>
</g>
<!-- Node3&#45;&gt;Node12 -->
<g id="edge13" class="edge">
<title>Node3&#45;&gt;Node12</title>
<path fill="none" stroke="midnightblue" d="M361.62,-235.32C371.03,-227.26 385.24,-215.08 396.57,-205.37"/>
<polygon fill="midnightblue" stroke="midnightblue" points="398.88,-208 404.19,-198.83 394.32,-202.68 398.88,-208"/>
</g>
<!-- Node5 -->
<g id="node5" class="node">
<title>Node5</title>
<g id="a_node5"><a xlink:href="BoomerangAPI_8h.html" target="_top" xlink:title=" ">
<polygon fill="white" stroke="black" points="0,-56.5 0,-86.5 155,-86.5 155,-56.5 0,-56.5"/>
<text text-anchor="start" x="8" y="-74.5" font-family="Helvetica,sans-Serif" font-size="10.00">boomerang/core/Boomerang</text>
<text text-anchor="middle" x="77.5" y="-63.5" font-family="Helvetica,sans-Serif" font-size="10.00">API.h</text>
</a>
</g>
</g>
<!-- Node4&#45;&gt;Node5 -->
<g id="edge4" class="edge">
<title>Node4&#45;&gt;Node5</title>
<path fill="none" stroke="midnightblue" d="M193.33,-179.47C167.21,-173.06 136.66,-161.97 114.5,-143 100.25,-130.8 90.71,-111.73 84.89,-96.5"/>
<polygon fill="midnightblue" stroke="midnightblue" points="88.07,-94.97 81.45,-86.69 81.46,-97.29 88.07,-94.97"/>
</g>
<!-- Node6 -->
<g id="node6" class="node">
<title>Node6</title>
<g id="a_node6"><a xlink:href="OStream_8h.html" target="_top" xlink:title=" ">
<polygon fill="white" stroke="black" points="123.5,-123.5 123.5,-142.5 269.5,-142.5 269.5,-123.5 123.5,-123.5"/>
<text text-anchor="middle" x="196.5" y="-130.5" font-family="Helvetica,sans-Serif" font-size="10.00">boomerang/util/OStream.h</text>
</a>
</g>
</g>
<!-- Node4&#45;&gt;Node6 -->
<g id="edge5" class="edge">
<title>Node4&#45;&gt;Node6</title>
<path fill="none" stroke="midnightblue" d="M238.24,-179.08C231.04,-171.3 220.39,-159.8 211.65,-150.37"/>
<polygon fill="midnightblue" stroke="midnightblue" points="213.97,-147.71 204.6,-142.75 208.83,-152.47 213.97,-147.71"/>
</g>
<!-- Node7 -->
<g id="node7" class="node">
<title>Node7</title>
<g id="a_node7"><a xlink:href="Types_8h.html" target="_top" xlink:title=" ">
<polygon fill="white" stroke="black" points="238,-62 238,-81 369,-81 369,-62 238,-62"/>
<text text-anchor="middle" x="303.5" y="-69" font-family="Helvetica,sans-Serif" font-size="10.00">boomerang/util/Types.h</text>
</a>
</g>
</g>
<!-- Node4&#45;&gt;Node7 -->
<g id="edge10" class="edge">
<title>Node4&#45;&gt;Node7</title>
<path fill="none" stroke="midnightblue" d="M253.91,-179.17C260.96,-170.43 271.51,-156.44 278.5,-143 287.28,-126.11 294.21,-105.44 298.52,-90.86"/>
<polygon fill="midnightblue" stroke="midnightblue" points="301.94,-91.64 301.3,-81.06 295.2,-89.73 301.94,-91.64"/>
</g>
<!-- Node10 -->
<g id="node10" class="node">
<title>Node10</title>
<g id="a_node10"><a xlink:title=" ">
<polygon fill="white" stroke="#bfbfbf" points="326,-123.5 326,-142.5 379,-142.5 379,-123.5 326,-123.5"/>
<text text-anchor="middle" x="352.5" y="-130.5" font-family="Helvetica,sans-Serif" font-size="10.00">QString</text>
</a>
</g>
</g>
<!-- Node4&#45;&gt;Node10 -->
<g id="edge11" class="edge">
<title>Node4&#45;&gt;Node10</title>
<path fill="none" stroke="midnightblue" d="M263.53,-179.32C280.53,-170.66 306.88,-157.24 326.49,-147.25"/>
<polygon fill="midnightblue" stroke="midnightblue" points="328.19,-150.31 335.51,-142.65 325.01,-144.08 328.19,-150.31"/>
</g>
<!-- Node6&#45;&gt;Node5 -->
<g id="edge6" class="edge">
<title>Node6&#45;&gt;Node5</title>
<path fill="none" stroke="midnightblue" d="M179.45,-123.48C162.58,-115.04 136.21,-101.86 114.52,-91.01"/>
<polygon fill="midnightblue" stroke="midnightblue" points="116.06,-87.86 105.55,-86.52 112.92,-94.13 116.06,-87.86"/>
</g>
<!-- Node6&#45;&gt;Node7 -->
<g id="edge7" class="edge">
<title>Node6&#45;&gt;Node7</title>
<path fill="none" stroke="midnightblue" d="M211.83,-123.48C229.47,-113.67 258.66,-97.43 279.36,-85.92"/>
<polygon fill="midnightblue" stroke="midnightblue" points="281.16,-88.93 288.2,-81.01 277.76,-82.81 281.16,-88.93"/>
</g>
<!-- Node9 -->
<g id="node9" class="node">
<title>Node9</title>
<g id="a_node9"><a xlink:title=" ">
<polygon fill="white" stroke="#bfbfbf" points="173.5,-62 173.5,-81 219.5,-81 219.5,-62 173.5,-62"/>
<text text-anchor="middle" x="196.5" y="-69" font-family="Helvetica,sans-Serif" font-size="10.00">cstdio</text>
</a>
</g>
</g>
<!-- Node6&#45;&gt;Node9 -->
<g id="edge9" class="edge">
<title>Node6&#45;&gt;Node9</title>
<path fill="none" stroke="midnightblue" d="M196.5,-123.48C196.5,-115.08 196.5,-101.98 196.5,-91.16"/>
<polygon fill="midnightblue" stroke="midnightblue" points="200,-91.01 196.5,-81.01 193,-91.01 200,-91.01"/>
</g>
<!-- Node8 -->
<g id="node8" class="node">
<title>Node8</title>
<g id="a_node8"><a xlink:title=" ">
<polygon fill="white" stroke="#bfbfbf" points="278.5,-0.5 278.5,-19.5 328.5,-19.5 328.5,-0.5 278.5,-0.5"/>
<text text-anchor="middle" x="303.5" y="-7.5" font-family="Helvetica,sans-Serif" font-size="10.00">cstdint</text>
</a>
</g>
</g>
<!-- Node7&#45;&gt;Node8 -->
<g id="edge8" class="edge">
<title>Node7&#45;&gt;Node8</title>
<path fill="none" stroke="midnightblue" d="M303.5,-61.98C303.5,-53.58 303.5,-40.48 303.5,-29.66"/>
<polygon fill="midnightblue" stroke="midnightblue" points="307,-29.51 303.5,-19.51 300,-29.51 307,-29.51"/>
</g>
</g>
</svg>
