<?xml version="1.0" encoding="UTF-8" standalone="no"?>
<!DOCTYPE svg PUBLIC "-//W3C//DTD SVG 1.1//EN"
 "http://www.w3.org/Graphics/SVG/1.1/DTD/svg11.dtd">
<!-- Generated by graphviz version 2.43.0 (0)
 -->
<!-- Title: TableEntry.h Pages: 1 -->
<!--zoomable 252 -->
<svg id="main" version="1.1" xmlns="http://www.w3.org/2000/svg" xmlns:xlink="http://www.w3.org/1999/xlink" xml:space="preserve" onload="init(evt)">
<style type="text/css"><![CDATA[
.edge:hover path { stroke: red; }
.edge:hover polygon { stroke: red; fill: red; }
]]></style>
<script type="text/javascript"><![CDATA[
var edges = document.getElementsByTagName('g');
if (edges && edges.length) {
  for (var i=0;i<edges.length;i++) {
    if (edges[i].id.substr(0,4)=='edge') {
      edges[i].setAttribute('class','edge');
    }
  }
}
]]></script>
        <defs>
                <circle id="rim" cx="0" cy="0" r="7"/>
                <circle id="rim2" cx="0" cy="0" r="3.5"/>
                <g id="zoomPlus">
                        <use xlink:href="#rim" fill="#404040">
                                <set attributeName="fill" to="#808080" begin="zoomplus.mouseover" end="zoomplus.mouseout"/>
                        </use>
                        <path d="M-4,0h8M0,-4v8" fill="none" stroke="white" stroke-width="1.5" pointer-events="none"/>
                </g>
                <g id="zoomMin">
                        <use xlink:href="#rim" fill="#404040">
                                <set attributeName="fill" to="#808080" begin="zoomminus.mouseover" end="zoomminus.mouseout"/>
                        </use>
                        <path d="M-4,0h8" fill="none" stroke="white" stroke-width="1.5" pointer-events="none"/>
                </g>
                <g id="dirArrow">
                        <path fill="none" stroke="white" stroke-width="1.5" d="M0,-3.0v7 M-2.5,-0.5L0,-3.0L2.5,-0.5"/>
                </g>
               <g id="resetDef">
                       <use xlink:href="#rim2" fill="#404040">
                               <set attributeName="fill" to="#808080" begin="reset.mouseover" end="reset.mouseout"/>
                       </use>
               </g>
        </defs>

<script type="text/javascript">
var viewWidth = 770;
var viewHeight = 252;
var sectionId = 'dynsection-1';
</script>
<script xlink:href="svgpan.js"/>
<svg id="graph" class="graph">
<g id="viewport">
<title>TableEntry.h</title>
<polygon fill="white" stroke="transparent" points="-4,4 -4,-248 766,-248 766,4 -4,4"/>
<!-- Node1 -->
<g id="node1" class="node">
<title>Node1</title>
<g id="a_node1"><a xlink:title=" ">
<polygon fill="#bfbfbf" stroke="black" points="368,-224.5 368,-243.5 443,-243.5 443,-224.5 368,-224.5"/>
<text text-anchor="middle" x="405.5" y="-231.5" font-family="Helvetica,sans-Serif" font-size="10.00">TableEntry.h</text>
</a>
</g>
</g>
<!-- Node2 -->
<g id="node2" class="node">
<title>Node2</title>
<g id="a_node2"><a xlink:href="RTLInstDict_8h.html" target="_top" xlink:title=" ">
<polygon fill="white" stroke="black" points="314,-168.5 314,-187.5 395,-187.5 395,-168.5 314,-168.5"/>
<text text-anchor="middle" x="354.5" y="-175.5" font-family="Helvetica,sans-Serif" font-size="10.00">RTLInstDict.h</text>
</a>
</g>
</g>
<!-- Node1&#45;&gt;Node2 -->
<g id="edge1" class="edge">
<title>Node1&#45;&gt;Node2</title>
<path fill="none" stroke="midnightblue" d="M390.12,-216.72C381.13,-207.2 370.14,-195.56 362.76,-187.75"/>
<polygon fill="midnightblue" stroke="midnightblue" points="387.67,-219.22 397.08,-224.08 392.76,-214.41 387.67,-219.22"/>
</g>
<!-- Node17 -->
<g id="node17" class="node">
<title>Node17</title>
<g id="a_node17"><a xlink:href="TableEntry_8cpp.html" target="_top" xlink:title=" ">
<polygon fill="white" stroke="black" points="413.5,-168.5 413.5,-187.5 499.5,-187.5 499.5,-168.5 413.5,-168.5"/>
<text text-anchor="middle" x="456.5" y="-175.5" font-family="Helvetica,sans-Serif" font-size="10.00">TableEntry.cpp</text>
</a>
</g>
</g>
<!-- Node1&#45;&gt;Node17 -->
<g id="edge16" class="edge">
<title>Node1&#45;&gt;Node17</title>
<path fill="none" stroke="midnightblue" d="M420.88,-216.72C429.87,-207.2 440.86,-195.56 448.24,-187.75"/>
<polygon fill="midnightblue" stroke="midnightblue" points="418.24,-214.41 413.92,-224.08 423.33,-219.22 418.24,-214.41"/>
</g>
<!-- Node3 -->
<g id="node3" class="node">
<title>Node3</title>
<g id="a_node3"><a xlink:href="SSL2Parser_8cpp.html" target="_top" xlink:title=" ">
<polygon fill="white" stroke="black" points="0,-112.5 0,-131.5 91,-131.5 91,-112.5 0,-112.5"/>
<text text-anchor="middle" x="45.5" y="-119.5" font-family="Helvetica,sans-Serif" font-size="10.00">SSL2Parser.cpp</text>
</a>
</g>
</g>
<!-- Node2&#45;&gt;Node3 -->
<g id="edge2" class="edge">
<title>Node2&#45;&gt;Node3</title>
<path fill="none" stroke="midnightblue" d="M303.93,-168.16C244.84,-157.84 147.93,-140.9 91.08,-130.97"/>
<polygon fill="midnightblue" stroke="midnightblue" points="303.33,-171.61 313.79,-169.88 304.54,-164.72 303.33,-171.61"/>
</g>
<!-- Node4 -->
<g id="node4" class="node">
<title>Node4</title>
<g id="a_node4"><a xlink:href="SSL2ParserDriver_8cpp.html" target="_top" xlink:title=" ">
<polygon fill="white" stroke="black" points="109,-112.5 109,-131.5 230,-131.5 230,-112.5 109,-112.5"/>
<text text-anchor="middle" x="169.5" y="-119.5" font-family="Helvetica,sans-Serif" font-size="10.00">SSL2ParserDriver.cpp</text>
</a>
</g>
</g>
<!-- Node2&#45;&gt;Node4 -->
<g id="edge3" class="edge">
<title>Node2&#45;&gt;Node4</title>
<path fill="none" stroke="midnightblue" d="M315.33,-165.57C280.43,-155.38 230.15,-140.7 198.68,-131.52"/>
<polygon fill="midnightblue" stroke="midnightblue" points="314.61,-169 325.19,-168.44 316.57,-162.28 314.61,-169"/>
</g>
<!-- Node5 -->
<g id="node5" class="node">
<title>Node5</title>
<g id="a_node5"><a xlink:href="RTLInstDict_8cpp.html" target="_top" xlink:title=" ">
<polygon fill="white" stroke="black" points="248.5,-112.5 248.5,-131.5 340.5,-131.5 340.5,-112.5 248.5,-112.5"/>
<text text-anchor="middle" x="294.5" y="-119.5" font-family="Helvetica,sans-Serif" font-size="10.00">RTLInstDict.cpp</text>
</a>
</g>
</g>
<!-- Node2&#45;&gt;Node5 -->
<g id="edge4" class="edge">
<title>Node2&#45;&gt;Node5</title>
<path fill="none" stroke="midnightblue" d="M337.32,-161.54C326.62,-151.91 313.24,-139.87 304.32,-131.83"/>
<polygon fill="midnightblue" stroke="midnightblue" points="335.09,-164.24 344.86,-168.32 339.77,-159.03 335.09,-164.24"/>
</g>
<!-- Node6 -->
<g id="node6" class="node">
<title>Node6</title>
<g id="a_node6"><a xlink:href="CapstoneDecoder_8h.html" target="_top" xlink:title=" ">
<polygon fill="white" stroke="black" points="358.5,-112.5 358.5,-131.5 470.5,-131.5 470.5,-112.5 358.5,-112.5"/>
<text text-anchor="middle" x="414.5" y="-119.5" font-family="Helvetica,sans-Serif" font-size="10.00">CapstoneDecoder.h</text>
</a>
</g>
</g>
<!-- Node2&#45;&gt;Node6 -->
<g id="edge5" class="edge">
<title>Node2&#45;&gt;Node6</title>
<path fill="none" stroke="midnightblue" d="M371.68,-161.54C382.38,-151.91 395.76,-139.87 404.68,-131.83"/>
<polygon fill="midnightblue" stroke="midnightblue" points="369.23,-159.03 364.14,-168.32 373.91,-164.24 369.23,-159.03"/>
</g>
<!-- Node14 -->
<g id="node14" class="node">
<title>Node14</title>
<g id="a_node14"><a xlink:href="ST20Decoder_8h.html" target="_top" xlink:title=" ">
<polygon fill="white" stroke="black" points="488.5,-112.5 488.5,-131.5 578.5,-131.5 578.5,-112.5 488.5,-112.5"/>
<text text-anchor="middle" x="533.5" y="-119.5" font-family="Helvetica,sans-Serif" font-size="10.00">ST20Decoder.h</text>
</a>
</g>
</g>
<!-- Node2&#45;&gt;Node14 -->
<g id="edge13" class="edge">
<title>Node2&#45;&gt;Node14</title>
<path fill="none" stroke="midnightblue" d="M392.83,-165.44C426.58,-155.26 474.95,-140.66 505.27,-131.52"/>
<polygon fill="midnightblue" stroke="midnightblue" points="391.43,-162.2 382.86,-168.44 393.45,-168.91 391.43,-162.2"/>
</g>
<!-- Node16 -->
<g id="node16" class="node">
<title>Node16</title>
<g id="a_node16"><a xlink:href="PentiumFrontEnd_8cpp.html" target="_top" xlink:title=" ">
<polygon fill="white" stroke="black" points="596.5,-112.5 596.5,-131.5 716.5,-131.5 716.5,-112.5 596.5,-112.5"/>
<text text-anchor="middle" x="656.5" y="-119.5" font-family="Helvetica,sans-Serif" font-size="10.00">PentiumFrontEnd.cpp</text>
</a>
</g>
</g>
<!-- Node2&#45;&gt;Node16 -->
<g id="edge15" class="edge">
<title>Node2&#45;&gt;Node16</title>
<path fill="none" stroke="midnightblue" d="M405.06,-167.9C482.29,-154.06 560.04,-140.19 608.66,-131.52"/>
<polygon fill="midnightblue" stroke="midnightblue" points="404.38,-164.47 395.16,-169.68 405.62,-171.36 404.38,-164.47"/>
</g>
<!-- Node7 -->
<g id="node7" class="node">
<title>Node7</title>
<g id="a_node7"><a xlink:href="CapstoneDecoder_8cpp.html" target="_top" xlink:title=" ">
<polygon fill="white" stroke="black" points="59,-56.5 59,-75.5 182,-75.5 182,-56.5 59,-56.5"/>
<text text-anchor="middle" x="120.5" y="-63.5" font-family="Helvetica,sans-Serif" font-size="10.00">CapstoneDecoder.cpp</text>
</a>
</g>
</g>
<!-- Node6&#45;&gt;Node7 -->
<g id="edge6" class="edge">
<title>Node6&#45;&gt;Node7</title>
<path fill="none" stroke="midnightblue" d="M357.88,-110.6C302.32,-100.4 218.6,-85.02 166.87,-75.52"/>
<polygon fill="midnightblue" stroke="midnightblue" points="357.45,-114.08 367.91,-112.44 358.71,-107.19 357.45,-114.08"/>
</g>
<!-- Node8 -->
<g id="node8" class="node">
<title>Node8</title>
<g id="a_node8"><a xlink:href="CapstoneX86Decoder_8h.html" target="_top" xlink:title=" ">
<polygon fill="white" stroke="black" points="200,-56.5 200,-75.5 331,-75.5 331,-56.5 200,-56.5"/>
<text text-anchor="middle" x="265.5" y="-63.5" font-family="Helvetica,sans-Serif" font-size="10.00">CapstoneX86Decoder.h</text>
</a>
</g>
</g>
<!-- Node6&#45;&gt;Node8 -->
<g id="edge7" class="edge">
<title>Node6&#45;&gt;Node8</title>
<path fill="none" stroke="midnightblue" d="M381.13,-108.91C353.12,-98.75 313.8,-84.51 289,-75.52"/>
<polygon fill="midnightblue" stroke="midnightblue" points="380.3,-112.33 390.89,-112.44 382.68,-105.75 380.3,-112.33"/>
</g>
<!-- Node10 -->
<g id="node10" class="node">
<title>Node10</title>
<g id="a_node10"><a xlink:href="CapstonePPCDecoder_8h.html" target="_top" xlink:title=" ">
<polygon fill="white" stroke="black" points="349,-56.5 349,-75.5 480,-75.5 480,-56.5 349,-56.5"/>
<text text-anchor="middle" x="414.5" y="-63.5" font-family="Helvetica,sans-Serif" font-size="10.00">CapstonePPCDecoder.h</text>
</a>
</g>
</g>
<!-- Node6&#45;&gt;Node10 -->
<g id="edge9" class="edge">
<title>Node6&#45;&gt;Node10</title>
<path fill="none" stroke="midnightblue" d="M414.5,-101.8C414.5,-92.91 414.5,-82.78 414.5,-75.75"/>
<polygon fill="midnightblue" stroke="midnightblue" points="411,-102.08 414.5,-112.08 418,-102.08 411,-102.08"/>
</g>
<!-- Node12 -->
<g id="node12" class="node">
<title>Node12</title>
<g id="a_node12"><a xlink:href="CapstoneSPARCDecoder_8h.html" target="_top" xlink:title=" ">
<polygon fill="white" stroke="black" points="498.5,-56.5 498.5,-75.5 642.5,-75.5 642.5,-56.5 498.5,-56.5"/>
<text text-anchor="middle" x="570.5" y="-63.5" font-family="Helvetica,sans-Serif" font-size="10.00">CapstoneSPARCDecoder.h</text>
</a>
</g>
</g>
<!-- Node6&#45;&gt;Node12 -->
<g id="edge11" class="edge">
<title>Node6&#45;&gt;Node12</title>
<path fill="none" stroke="midnightblue" d="M448.67,-109.17C478.04,-99 519.7,-84.59 545.9,-75.52"/>
<polygon fill="midnightblue" stroke="midnightblue" points="447.52,-105.86 439.22,-112.44 449.81,-112.48 447.52,-105.86"/>
</g>
<!-- Node9 -->
<g id="node9" class="node">
<title>Node9</title>
<g id="a_node9"><a xlink:href="CapstoneX86Decoder_8cpp.html" target="_top" xlink:title=" ">
<polygon fill="white" stroke="black" points="183.5,-0.5 183.5,-19.5 325.5,-19.5 325.5,-0.5 183.5,-0.5"/>
<text text-anchor="middle" x="254.5" y="-7.5" font-family="Helvetica,sans-Serif" font-size="10.00">CapstoneX86Decoder.cpp</text>
</a>
</g>
</g>
<!-- Node8&#45;&gt;Node9 -->
<g id="edge8" class="edge">
<title>Node8&#45;&gt;Node9</title>
<path fill="none" stroke="midnightblue" d="M261.65,-46.1C259.82,-37.14 257.73,-26.86 256.28,-19.75"/>
<polygon fill="midnightblue" stroke="midnightblue" points="258.26,-46.98 263.68,-56.08 265.12,-45.59 258.26,-46.98"/>
</g>
<!-- Node11 -->
<g id="node11" class="node">
<title>Node11</title>
<g id="a_node11"><a xlink:href="CapstonePPCDecoder_8cpp.html" target="_top" xlink:title=" ">
<polygon fill="white" stroke="black" points="343.5,-0.5 343.5,-19.5 485.5,-19.5 485.5,-0.5 343.5,-0.5"/>
<text text-anchor="middle" x="414.5" y="-7.5" font-family="Helvetica,sans-Serif" font-size="10.00">CapstonePPCDecoder.cpp</text>
</a>
</g>
</g>
<!-- Node10&#45;&gt;Node11 -->
<g id="edge10" class="edge">
<title>Node10&#45;&gt;Node11</title>
<path fill="none" stroke="midnightblue" d="M414.5,-45.8C414.5,-36.91 414.5,-26.78 414.5,-19.75"/>
<polygon fill="midnightblue" stroke="midnightblue" points="411,-46.08 414.5,-56.08 418,-46.08 411,-46.08"/>
</g>
<!-- Node13 -->
<g id="node13" class="node">
<title>Node13</title>
<g id="a_node13"><a xlink:href="CapstoneSPARCDecoder_8cpp.html" target="_top" xlink:title=" ">
<polygon fill="white" stroke="black" points="504,-0.5 504,-19.5 659,-19.5 659,-0.5 504,-0.5"/>
<text text-anchor="middle" x="581.5" y="-7.5" font-family="Helvetica,sans-Serif" font-size="10.00">CapstoneSPARCDecoder.cpp</text>
</a>
</g>
</g>
<!-- Node12&#45;&gt;Node13 -->
<g id="edge12" class="edge">
<title>Node12&#45;&gt;Node13</title>
<path fill="none" stroke="midnightblue" d="M574.35,-46.1C576.18,-37.14 578.27,-26.86 579.72,-19.75"/>
<polygon fill="midnightblue" stroke="midnightblue" points="570.88,-45.59 572.32,-56.08 577.74,-46.98 570.88,-45.59"/>
</g>
<!-- Node15 -->
<g id="node15" class="node">
<title>Node15</title>
<g id="a_node15"><a xlink:href="ST20Decoder_8cpp.html" target="_top" xlink:title=" ">
<polygon fill="white" stroke="black" points="661,-56.5 661,-75.5 762,-75.5 762,-56.5 661,-56.5"/>
<text text-anchor="middle" x="711.5" y="-63.5" font-family="Helvetica,sans-Serif" font-size="10.00">ST20Decoder.cpp</text>
</a>
</g>
</g>
<!-- Node14&#45;&gt;Node15 -->
<g id="edge14" class="edge">
<title>Node14&#45;&gt;Node15</title>
<path fill="none" stroke="midnightblue" d="M571.62,-109.44C605.18,-99.26 653.27,-84.66 683.43,-75.52"/>
<polygon fill="midnightblue" stroke="midnightblue" points="570.26,-106.19 561.7,-112.44 572.29,-112.89 570.26,-106.19"/>
</g>
</g>
</svg>
        <g id="navigator" transform="translate(0 0)" fill="#404254">
                <rect fill="#f2f5e9" fill-opacity="0.5" stroke="#606060" stroke-width=".5" x="0" y="0" width="60" height="60"/>
                <use id="zoomplus" xlink:href="#zoomPlus" x="17" y="9" onmousedown="handleZoom(evt,'in')"/>
                <use id="zoomminus" xlink:href="#zoomMin" x="42" y="9" onmousedown="handleZoom(evt,'out')"/>
                <use id="reset" xlink:href="#resetDef" x="30" y="36" onmousedown="handleReset()"/>
                <g id="arrowUp" xlink:href="#dirArrow" transform="translate(30 24)" onmousedown="handlePan(0,-1)">
                  <use xlink:href="#rim" fill="#404040">
                        <set attributeName="fill" to="#808080" begin="arrowUp.mouseover" end="arrowUp.mouseout"/>
                  </use>
                  <path fill="none" stroke="white" stroke-width="1.5" d="M0,-3.0v7 M-2.5,-0.5L0,-3.0L2.5,-0.5"/>
                </g>
                <g id="arrowRight" xlink:href="#dirArrow" transform="rotate(90) translate(36 -43)" onmousedown="handlePan(1,0)">
                  <use xlink:href="#rim" fill="#404040">
                        <set attributeName="fill" to="#808080" begin="arrowRight.mouseover" end="arrowRight.mouseout"/>
                  </use>
                  <path fill="none" stroke="white" stroke-width="1.5" d="M0,-3.0v7 M-2.5,-0.5L0,-3.0L2.5,-0.5"/>
                </g>
                <g id="arrowDown" xlink:href="#dirArrow" transform="rotate(180) translate(-30 -48)" onmousedown="handlePan(0,1)">
                  <use xlink:href="#rim" fill="#404040">
                        <set attributeName="fill" to="#808080" begin="arrowDown.mouseover" end="arrowDown.mouseout"/>
                  </use>
                  <path fill="none" stroke="white" stroke-width="1.5" d="M0,-3.0v7 M-2.5,-0.5L0,-3.0L2.5,-0.5"/>
                </g>
                <g id="arrowLeft" xlink:href="#dirArrow" transform="rotate(270) translate(-36 17)" onmousedown="handlePan(-1,0)">
                  <use xlink:href="#rim" fill="#404040">
                        <set attributeName="fill" to="#808080" begin="arrowLeft.mouseover" end="arrowLeft.mouseout"/>
                  </use>
                  <path fill="none" stroke="white" stroke-width="1.5" d="M0,-3.0v7 M-2.5,-0.5L0,-3.0L2.5,-0.5"/>
                </g>
        </g>
        <svg viewBox="0 0 15 15" width="100%" height="30px" preserveAspectRatio="xMaxYMin meet">
         <g id="arrow_out" transform="scale(0.3 0.3)">
          <a xlink:href="TableEntry_8h__dep__incl_org.svg" target="_base">
           <rect id="button" ry="5" rx="5" y="6" x="6" height="38" width="38"
                fill="#f2f5e9" fill-opacity="0.5" stroke="#606060" stroke-width="1.0"/>
           <path id="arrow"
             d="M 11.500037,31.436501 C 11.940474,20.09759 22.043105,11.32322 32.158766,21.979434 L 37.068811,17.246167 C 37.068811,17.246167 37.088388,32 37.088388,32 L 22.160133,31.978069 C 22.160133,31.978069 26.997745,27.140456 26.997745,27.140456 C 18.528582,18.264221 13.291696,25.230495 11.500037,31.436501 z"
             style="fill:#404040;"/>
          </a>
         </g>
        </svg>
</svg>
