<?xml version="1.0" encoding="UTF-8" standalone="no"?>
<!DOCTYPE svg PUBLIC "-//W3C//DTD SVG 1.1//EN"
 "http://www.w3.org/Graphics/SVG/1.1/DTD/svg11.dtd">
<!-- Generated by graphviz version 2.43.0 (0)
 -->
<!-- Title: Unary.h Pages: 1 -->
<!--zoomable 263 -->
<svg id="main" version="1.1" xmlns="http://www.w3.org/2000/svg" xmlns:xlink="http://www.w3.org/1999/xlink" xml:space="preserve" onload="init(evt)">
<style type="text/css"><![CDATA[
.edge:hover path { stroke: red; }
.edge:hover polygon { stroke: red; fill: red; }
]]></style>
<script type="text/javascript"><![CDATA[
var edges = document.getElementsByTagName('g');
if (edges && edges.length) {
  for (var i=0;i<edges.length;i++) {
    if (edges[i].id.substr(0,4)=='edge') {
      edges[i].setAttribute('class','edge');
    }
  }
}
]]></script>
        <defs>
                <circle id="rim" cx="0" cy="0" r="7"/>
                <circle id="rim2" cx="0" cy="0" r="3.5"/>
                <g id="zoomPlus">
                        <use xlink:href="#rim" fill="#404040">
                                <set attributeName="fill" to="#808080" begin="zoomplus.mouseover" end="zoomplus.mouseout"/>
                        </use>
                        <path d="M-4,0h8M0,-4v8" fill="none" stroke="white" stroke-width="1.5" pointer-events="none"/>
                </g>
                <g id="zoomMin">
                        <use xlink:href="#rim" fill="#404040">
                                <set attributeName="fill" to="#808080" begin="zoomminus.mouseover" end="zoomminus.mouseout"/>
                        </use>
                        <path d="M-4,0h8" fill="none" stroke="white" stroke-width="1.5" pointer-events="none"/>
                </g>
                <g id="dirArrow">
                        <path fill="none" stroke="white" stroke-width="1.5" d="M0,-3.0v7 M-2.5,-0.5L0,-3.0L2.5,-0.5"/>
                </g>
               <g id="resetDef">
                       <use xlink:href="#rim2" fill="#404040">
                               <set attributeName="fill" to="#808080" begin="reset.mouseover" end="reset.mouseout"/>
                       </use>
               </g>
        </defs>

<script type="text/javascript">
var viewWidth = 838;
var viewHeight = 263;
var sectionId = 'dynsection-0';
</script>
<script xlink:href="svgpan.js"/>
<svg id="graph" class="graph">
<g id="viewport">
<title>Unary.h</title>
<polygon fill="white" stroke="transparent" points="-4,4 -4,-259 834.31,-259 834.31,4 -4,4"/>
<!-- Node1 -->
<g id="node1" class="node">
<title>Node1</title>
<g id="a_node1"><a xlink:title=" ">
<polygon fill="#bfbfbf" stroke="black" points="541.31,-235.5 541.31,-254.5 594.31,-254.5 594.31,-235.5 541.31,-235.5"/>
<text text-anchor="middle" x="567.81" y="-242.5" font-family="Helvetica,sans-Serif" font-size="10.00">Unary.h</text>
</a>
</g>
</g>
<!-- Node2 -->
<g id="node2" class="node">
<title>Node2</title>
<g id="a_node2"><a xlink:href="Exp_8h.html" target="_top" xlink:title=" ">
<polygon fill="white" stroke="black" points="497.81,-179.5 497.81,-198.5 637.81,-198.5 637.81,-179.5 497.81,-179.5"/>
<text text-anchor="middle" x="567.81" y="-186.5" font-family="Helvetica,sans-Serif" font-size="10.00">boomerang/ssl/exp/Exp.h</text>
</a>
</g>
</g>
<!-- Node1&#45;&gt;Node2 -->
<g id="edge1" class="edge">
<title>Node1&#45;&gt;Node2</title>
<path fill="none" stroke="midnightblue" d="M567.81,-235.08C567.81,-228.01 567.81,-217.86 567.81,-208.99"/>
<polygon fill="midnightblue" stroke="midnightblue" points="571.31,-208.75 567.81,-198.75 564.31,-208.75 571.31,-208.75"/>
</g>
<!-- Node3 -->
<g id="node3" class="node">
<title>Node3</title>
<g id="a_node3"><a xlink:href="ExpHelp_8h.html" target="_top" xlink:title=" ">
<polygon fill="white" stroke="black" points="14.81,-123.5 14.81,-142.5 176.81,-142.5 176.81,-123.5 14.81,-123.5"/>
<text text-anchor="middle" x="95.81" y="-130.5" font-family="Helvetica,sans-Serif" font-size="10.00">boomerang/ssl/exp/ExpHelp.h</text>
</a>
</g>
</g>
<!-- Node2&#45;&gt;Node3 -->
<g id="edge2" class="edge">
<title>Node2&#45;&gt;Node3</title>
<path fill="none" stroke="midnightblue" d="M497.66,-179.97C413,-170.29 270.78,-154.02 180.21,-143.66"/>
<polygon fill="midnightblue" stroke="midnightblue" points="180.58,-140.18 170.25,-142.52 179.79,-147.13 180.58,-140.18"/>
</g>
<!-- Node5 -->
<g id="node5" class="node">
<title>Node5</title>
<g id="a_node5"><a xlink:title=" ">
<polygon fill="white" stroke="#bfbfbf" points="12.81,-62 12.81,-81 70.81,-81 70.81,-62 12.81,-62"/>
<text text-anchor="middle" x="41.81" y="-69" font-family="Helvetica,sans-Serif" font-size="10.00">memory</text>
</a>
</g>
</g>
<!-- Node2&#45;&gt;Node5 -->
<g id="edge15" class="edge">
<title>Node2&#45;&gt;Node5</title>
<path fill="none" stroke="midnightblue" d="M497.77,-187.58C354.49,-185.99 38.55,-178.47 5.81,-143 -8.95,-127.01 8.33,-103.82 23.66,-88.46"/>
<polygon fill="midnightblue" stroke="midnightblue" points="26.46,-90.63 31.32,-81.22 21.65,-85.54 26.46,-90.63"/>
</g>
<!-- Node6 -->
<g id="node6" class="node">
<title>Node6</title>
<g id="a_node6"><a xlink:href="Operator_8h.html" target="_top" xlink:title=" ">
<polygon fill="white" stroke="black" points="194.81,-123.5 194.81,-142.5 358.81,-142.5 358.81,-123.5 194.81,-123.5"/>
<text text-anchor="middle" x="276.81" y="-130.5" font-family="Helvetica,sans-Serif" font-size="10.00">boomerang/ssl/exp/Operator.h</text>
</a>
</g>
</g>
<!-- Node2&#45;&gt;Node6 -->
<g id="edge5" class="edge">
<title>Node2&#45;&gt;Node6</title>
<path fill="none" stroke="midnightblue" d="M521.7,-179.44C470.41,-169.92 387.54,-154.55 332.62,-144.36"/>
<polygon fill="midnightblue" stroke="midnightblue" points="333.18,-140.9 322.71,-142.52 331.9,-147.78 333.18,-140.9"/>
</g>
<!-- Node7 -->
<g id="node7" class="node">
<title>Node7</title>
<g id="a_node7"><a xlink:href="OStream_8h.html" target="_top" xlink:title=" ">
<polygon fill="white" stroke="black" points="376.81,-123.5 376.81,-142.5 522.81,-142.5 522.81,-123.5 376.81,-123.5"/>
<text text-anchor="middle" x="449.81" y="-130.5" font-family="Helvetica,sans-Serif" font-size="10.00">boomerang/util/OStream.h</text>
</a>
</g>
</g>
<!-- Node2&#45;&gt;Node7 -->
<g id="edge7" class="edge">
<title>Node2&#45;&gt;Node7</title>
<path fill="none" stroke="midnightblue" d="M549.11,-179.44C529.87,-170.64 499.66,-156.81 477.61,-146.72"/>
<polygon fill="midnightblue" stroke="midnightblue" points="478.97,-143.5 468.42,-142.52 476.06,-149.86 478.97,-143.5"/>
</g>
<!-- Node11 -->
<g id="node11" class="node">
<title>Node11</title>
<g id="a_node11"><a xlink:title=" ">
<polygon fill="white" stroke="#bfbfbf" points="541.31,-123.5 541.31,-142.5 594.31,-142.5 594.31,-123.5 541.31,-123.5"/>
<text text-anchor="middle" x="567.81" y="-130.5" font-family="Helvetica,sans-Serif" font-size="10.00">QString</text>
</a>
</g>
</g>
<!-- Node2&#45;&gt;Node11 -->
<g id="edge12" class="edge">
<title>Node2&#45;&gt;Node11</title>
<path fill="none" stroke="midnightblue" d="M567.81,-179.08C567.81,-172.01 567.81,-161.86 567.81,-152.99"/>
<polygon fill="midnightblue" stroke="midnightblue" points="571.31,-152.75 567.81,-142.75 564.31,-152.75 571.31,-152.75"/>
</g>
<!-- Node12 -->
<g id="node12" class="node">
<title>Node12</title>
<g id="a_node12"><a xlink:title=" ">
<polygon fill="white" stroke="#bfbfbf" points="612.81,-123.5 612.81,-142.5 664.81,-142.5 664.81,-123.5 612.81,-123.5"/>
<text text-anchor="middle" x="638.81" y="-130.5" font-family="Helvetica,sans-Serif" font-size="10.00">cassert</text>
</a>
</g>
</g>
<!-- Node2&#45;&gt;Node12 -->
<g id="edge13" class="edge">
<title>Node2&#45;&gt;Node12</title>
<path fill="none" stroke="midnightblue" d="M579.22,-179.32C589.92,-171.18 606.15,-158.84 618.97,-149.09"/>
<polygon fill="midnightblue" stroke="midnightblue" points="621.36,-151.67 627.2,-142.83 617.12,-146.1 621.36,-151.67"/>
</g>
<!-- Node13 -->
<g id="node13" class="node">
<title>Node13</title>
<g id="a_node13"><a xlink:title=" ">
<polygon fill="white" stroke="#bfbfbf" points="682.81,-123.5 682.81,-142.5 714.81,-142.5 714.81,-123.5 682.81,-123.5"/>
<text text-anchor="middle" x="698.81" y="-130.5" font-family="Helvetica,sans-Serif" font-size="10.00">list</text>
</a>
</g>
</g>
<!-- Node2&#45;&gt;Node13 -->
<g id="edge14" class="edge">
<title>Node2&#45;&gt;Node13</title>
<path fill="none" stroke="midnightblue" d="M588.57,-179.44C611.52,-169.98 648.52,-154.73 673.24,-144.54"/>
<polygon fill="midnightblue" stroke="midnightblue" points="674.78,-147.69 682.69,-140.64 672.11,-141.22 674.78,-147.69"/>
</g>
<!-- Node14 -->
<g id="node14" class="node">
<title>Node14</title>
<g id="a_node14"><a xlink:title=" ">
<polygon fill="white" stroke="#bfbfbf" points="732.81,-123.5 732.81,-142.5 764.81,-142.5 764.81,-123.5 732.81,-123.5"/>
<text text-anchor="middle" x="748.81" y="-130.5" font-family="Helvetica,sans-Serif" font-size="10.00">set</text>
</a>
</g>
</g>
<!-- Node2&#45;&gt;Node14 -->
<g id="edge16" class="edge">
<title>Node2&#45;&gt;Node14</title>
<path fill="none" stroke="midnightblue" d="M599.67,-179.46C629.34,-171.36 675.01,-158.54 723.08,-143.09"/>
<polygon fill="midnightblue" stroke="midnightblue" points="724.29,-146.38 732.73,-139.96 722.13,-139.72 724.29,-146.38"/>
</g>
<!-- Node15 -->
<g id="node15" class="node">
<title>Node15</title>
<g id="a_node15"><a xlink:title=" ">
<polygon fill="white" stroke="#bfbfbf" points="783.31,-123.5 783.31,-142.5 830.31,-142.5 830.31,-123.5 783.31,-123.5"/>
<text text-anchor="middle" x="806.81" y="-130.5" font-family="Helvetica,sans-Serif" font-size="10.00">vector</text>
</a>
</g>
</g>
<!-- Node2&#45;&gt;Node15 -->
<g id="edge17" class="edge">
<title>Node2&#45;&gt;Node15</title>
<path fill="none" stroke="midnightblue" d="M609.78,-179.49C649.39,-171.31 710.67,-158.28 773.04,-143.09"/>
<polygon fill="midnightblue" stroke="midnightblue" points="774.18,-146.42 783.06,-140.63 772.51,-139.62 774.18,-146.42"/>
</g>
<!-- Node4 -->
<g id="node4" class="node">
<title>Node4</title>
<g id="a_node4"><a xlink:href="BoomerangAPI_8h.html" target="_top" xlink:title=" ">
<polygon fill="white" stroke="black" points="199.31,-56.5 199.31,-86.5 354.31,-86.5 354.31,-56.5 199.31,-56.5"/>
<text text-anchor="start" x="207.31" y="-74.5" font-family="Helvetica,sans-Serif" font-size="10.00">boomerang/core/Boomerang</text>
<text text-anchor="middle" x="276.81" y="-63.5" font-family="Helvetica,sans-Serif" font-size="10.00">API.h</text>
</a>
</g>
</g>
<!-- Node3&#45;&gt;Node4 -->
<g id="edge3" class="edge">
<title>Node3&#45;&gt;Node4</title>
<path fill="none" stroke="midnightblue" d="M121.74,-123.48C148.43,-114.7 190.76,-100.79 224.45,-89.71"/>
<polygon fill="midnightblue" stroke="midnightblue" points="225.75,-92.97 234.15,-86.52 223.56,-86.32 225.75,-92.97"/>
</g>
<!-- Node3&#45;&gt;Node5 -->
<g id="edge4" class="edge">
<title>Node3&#45;&gt;Node5</title>
<path fill="none" stroke="midnightblue" d="M88.07,-123.48C79.81,-114.37 66.53,-99.74 56.32,-88.48"/>
<polygon fill="midnightblue" stroke="midnightblue" points="58.85,-86.06 49.53,-81.01 53.66,-90.77 58.85,-86.06"/>
</g>
<!-- Node6&#45;&gt;Node4 -->
<g id="edge6" class="edge">
<title>Node6&#45;&gt;Node4</title>
<path fill="none" stroke="midnightblue" d="M276.81,-123.48C276.81,-116.47 276.81,-106.19 276.81,-96.7"/>
<polygon fill="midnightblue" stroke="midnightblue" points="280.31,-96.52 276.81,-86.52 273.31,-96.52 280.31,-96.52"/>
</g>
<!-- Node7&#45;&gt;Node4 -->
<g id="edge8" class="edge">
<title>Node7&#45;&gt;Node4</title>
<path fill="none" stroke="midnightblue" d="M425.02,-123.48C399.62,-114.74 359.41,-100.91 327.27,-89.86"/>
<polygon fill="midnightblue" stroke="midnightblue" points="328.18,-86.47 317.58,-86.52 325.9,-93.09 328.18,-86.47"/>
</g>
<!-- Node8 -->
<g id="node8" class="node">
<title>Node8</title>
<g id="a_node8"><a xlink:href="Types_8h.html" target="_top" xlink:title=" ">
<polygon fill="white" stroke="black" points="378.31,-62 378.31,-81 509.31,-81 509.31,-62 378.31,-62"/>
<text text-anchor="middle" x="443.81" y="-69" font-family="Helvetica,sans-Serif" font-size="10.00">boomerang/util/Types.h</text>
</a>
</g>
</g>
<!-- Node7&#45;&gt;Node8 -->
<g id="edge9" class="edge">
<title>Node7&#45;&gt;Node8</title>
<path fill="none" stroke="midnightblue" d="M448.95,-123.48C448.11,-115.08 446.78,-101.98 445.69,-91.16"/>
<polygon fill="midnightblue" stroke="midnightblue" points="449.16,-90.61 444.67,-81.01 442.19,-91.31 449.16,-90.61"/>
</g>
<!-- Node10 -->
<g id="node10" class="node">
<title>Node10</title>
<g id="a_node10"><a xlink:title=" ">
<polygon fill="white" stroke="#bfbfbf" points="527.81,-62 527.81,-81 573.81,-81 573.81,-62 527.81,-62"/>
<text text-anchor="middle" x="550.81" y="-69" font-family="Helvetica,sans-Serif" font-size="10.00">cstdio</text>
</a>
</g>
</g>
<!-- Node7&#45;&gt;Node10 -->
<g id="edge11" class="edge">
<title>Node7&#45;&gt;Node10</title>
<path fill="none" stroke="midnightblue" d="M464.28,-123.48C480.78,-113.75 507.99,-97.73 527.49,-86.24"/>
<polygon fill="midnightblue" stroke="midnightblue" points="529.53,-89.1 536.37,-81.01 525.98,-83.07 529.53,-89.1"/>
</g>
<!-- Node9 -->
<g id="node9" class="node">
<title>Node9</title>
<g id="a_node9"><a xlink:title=" ">
<polygon fill="white" stroke="#bfbfbf" points="418.81,-0.5 418.81,-19.5 468.81,-19.5 468.81,-0.5 418.81,-0.5"/>
<text text-anchor="middle" x="443.81" y="-7.5" font-family="Helvetica,sans-Serif" font-size="10.00">cstdint</text>
</a>
</g>
</g>
<!-- Node8&#45;&gt;Node9 -->
<g id="edge10" class="edge">
<title>Node8&#45;&gt;Node9</title>
<path fill="none" stroke="midnightblue" d="M443.81,-61.98C443.81,-53.58 443.81,-40.48 443.81,-29.66"/>
<polygon fill="midnightblue" stroke="midnightblue" points="447.31,-29.51 443.81,-19.51 440.31,-29.51 447.31,-29.51"/>
</g>
</g>
</svg>
        <g id="navigator" transform="translate(0 0)" fill="#404254">
                <rect fill="#f2f5e9" fill-opacity="0.5" stroke="#606060" stroke-width=".5" x="0" y="0" width="60" height="60"/>
                <use id="zoomplus" xlink:href="#zoomPlus" x="17" y="9" onmousedown="handleZoom(evt,'in')"/>
                <use id="zoomminus" xlink:href="#zoomMin" x="42" y="9" onmousedown="handleZoom(evt,'out')"/>
                <use id="reset" xlink:href="#resetDef" x="30" y="36" onmousedown="handleReset()"/>
                <g id="arrowUp" xlink:href="#dirArrow" transform="translate(30 24)" onmousedown="handlePan(0,-1)">
                  <use xlink:href="#rim" fill="#404040">
                        <set attributeName="fill" to="#808080" begin="arrowUp.mouseover" end="arrowUp.mouseout"/>
                  </use>
                  <path fill="none" stroke="white" stroke-width="1.5" d="M0,-3.0v7 M-2.5,-0.5L0,-3.0L2.5,-0.5"/>
                </g>
                <g id="arrowRight" xlink:href="#dirArrow" transform="rotate(90) translate(36 -43)" onmousedown="handlePan(1,0)">
                  <use xlink:href="#rim" fill="#404040">
                        <set attributeName="fill" to="#808080" begin="arrowRight.mouseover" end="arrowRight.mouseout"/>
                  </use>
                  <path fill="none" stroke="white" stroke-width="1.5" d="M0,-3.0v7 M-2.5,-0.5L0,-3.0L2.5,-0.5"/>
                </g>
                <g id="arrowDown" xlink:href="#dirArrow" transform="rotate(180) translate(-30 -48)" onmousedown="handlePan(0,1)">
                  <use xlink:href="#rim" fill="#404040">
                        <set attributeName="fill" to="#808080" begin="arrowDown.mouseover" end="arrowDown.mouseout"/>
                  </use>
                  <path fill="none" stroke="white" stroke-width="1.5" d="M0,-3.0v7 M-2.5,-0.5L0,-3.0L2.5,-0.5"/>
                </g>
                <g id="arrowLeft" xlink:href="#dirArrow" transform="rotate(270) translate(-36 17)" onmousedown="handlePan(-1,0)">
                  <use xlink:href="#rim" fill="#404040">
                        <set attributeName="fill" to="#808080" begin="arrowLeft.mouseover" end="arrowLeft.mouseout"/>
                  </use>
                  <path fill="none" stroke="white" stroke-width="1.5" d="M0,-3.0v7 M-2.5,-0.5L0,-3.0L2.5,-0.5"/>
                </g>
        </g>
        <svg viewBox="0 0 15 15" width="100%" height="30px" preserveAspectRatio="xMaxYMin meet">
         <g id="arrow_out" transform="scale(0.3 0.3)">
          <a xlink:href="Unary_8h__incl_org.svg" target="_base">
           <rect id="button" ry="5" rx="5" y="6" x="6" height="38" width="38"
                fill="#f2f5e9" fill-opacity="0.5" stroke="#606060" stroke-width="1.0"/>
           <path id="arrow"
             d="M 11.500037,31.436501 C 11.940474,20.09759 22.043105,11.32322 32.158766,21.979434 L 37.068811,17.246167 C 37.068811,17.246167 37.088388,32 37.088388,32 L 22.160133,31.978069 C 22.160133,31.978069 26.997745,27.140456 26.997745,27.140456 C 18.528582,18.264221 13.291696,25.230495 11.500037,31.436501 z"
             style="fill:#404040;"/>
          </a>
         </g>
        </svg>
</svg>
