<?xml version="1.0" encoding="UTF-8" standalone="no"?>
<!DOCTYPE svg PUBLIC "-//W3C//DTD SVG 1.1//EN"
 "http://www.w3.org/Graphics/SVG/1.1/DTD/svg11.dtd">
<!-- Generated by graphviz version 2.43.0 (0)
 -->
<!-- Title: UnusedReturnRemover.h Pages: 1 -->
<svg width="279pt" height="151pt"
 viewBox="0.00 0.00 278.50 151.00" xmlns="http://www.w3.org/2000/svg" xmlns:xlink="http://www.w3.org/1999/xlink">
<g id="graph0" class="graph" transform="scale(1 1) rotate(0) translate(4 147)">
<title>UnusedReturnRemover.h</title>
<polygon fill="white" stroke="transparent" points="-4,4 -4,-147 274.5,-147 274.5,4 -4,4"/>
<!-- Node1 -->
<g id="node1" class="node">
<title>Node1</title>
<g id="a_node1"><a xlink:title=" ">
<polygon fill="#bfbfbf" stroke="black" points="127,-123.5 127,-142.5 266,-142.5 266,-123.5 127,-123.5"/>
<text text-anchor="middle" x="196.5" y="-130.5" font-family="Helvetica,sans-Serif" font-size="10.00">UnusedReturnRemover.h</text>
</a>
</g>
</g>
<!-- Node2 -->
<g id="node2" class="node">
<title>Node2</title>
<g id="a_node2"><a xlink:href="ExpHelp_8h.html" target="_top" xlink:title=" ">
<polygon fill="white" stroke="black" points="58.5,-67.5 58.5,-86.5 220.5,-86.5 220.5,-67.5 58.5,-67.5"/>
<text text-anchor="middle" x="139.5" y="-74.5" font-family="Helvetica,sans-Serif" font-size="10.00">boomerang/ssl/exp/ExpHelp.h</text>
</a>
</g>
</g>
<!-- Node1&#45;&gt;Node2 -->
<g id="edge1" class="edge">
<title>Node1&#45;&gt;Node2</title>
<path fill="none" stroke="midnightblue" d="M187.34,-123.32C179,-115.42 166.47,-103.55 156.32,-93.94"/>
<polygon fill="midnightblue" stroke="midnightblue" points="158.49,-91.17 148.82,-86.83 153.68,-96.25 158.49,-91.17"/>
</g>
<!-- Node5 -->
<g id="node5" class="node">
<title>Node5</title>
<g id="a_node5"><a xlink:title=" ">
<polygon fill="white" stroke="#bfbfbf" points="238.5,-67.5 238.5,-86.5 270.5,-86.5 270.5,-67.5 238.5,-67.5"/>
<text text-anchor="middle" x="254.5" y="-74.5" font-family="Helvetica,sans-Serif" font-size="10.00">set</text>
</a>
</g>
</g>
<!-- Node1&#45;&gt;Node5 -->
<g id="edge4" class="edge">
<title>Node1&#45;&gt;Node5</title>
<path fill="none" stroke="midnightblue" d="M205.82,-123.32C214.39,-115.34 227.31,-103.31 237.69,-93.65"/>
<polygon fill="midnightblue" stroke="midnightblue" points="240.08,-96.21 245.01,-86.83 235.31,-91.09 240.08,-96.21"/>
</g>
<!-- Node3 -->
<g id="node3" class="node">
<title>Node3</title>
<g id="a_node3"><a xlink:href="BoomerangAPI_8h.html" target="_top" xlink:title=" ">
<polygon fill="white" stroke="black" points="0,-0.5 0,-30.5 155,-30.5 155,-0.5 0,-0.5"/>
<text text-anchor="start" x="8" y="-18.5" font-family="Helvetica,sans-Serif" font-size="10.00">boomerang/core/Boomerang</text>
<text text-anchor="middle" x="77.5" y="-7.5" font-family="Helvetica,sans-Serif" font-size="10.00">API.h</text>
</a>
</g>
</g>
<!-- Node2&#45;&gt;Node3 -->
<g id="edge2" class="edge">
<title>Node2&#45;&gt;Node3</title>
<path fill="none" stroke="midnightblue" d="M130.62,-67.48C122.53,-59.72 110.26,-47.94 99.55,-37.66"/>
<polygon fill="midnightblue" stroke="midnightblue" points="101.75,-34.92 92.11,-30.52 96.9,-39.97 101.75,-34.92"/>
</g>
<!-- Node4 -->
<g id="node4" class="node">
<title>Node4</title>
<g id="a_node4"><a xlink:title=" ">
<polygon fill="white" stroke="#bfbfbf" points="173.5,-6 173.5,-25 231.5,-25 231.5,-6 173.5,-6"/>
<text text-anchor="middle" x="202.5" y="-13" font-family="Helvetica,sans-Serif" font-size="10.00">memory</text>
</a>
</g>
</g>
<!-- Node2&#45;&gt;Node4 -->
<g id="edge3" class="edge">
<title>Node2&#45;&gt;Node4</title>
<path fill="none" stroke="midnightblue" d="M148.53,-67.48C158.26,-58.28 173.96,-43.46 185.92,-32.16"/>
<polygon fill="midnightblue" stroke="midnightblue" points="188.62,-34.42 193.49,-25.01 183.82,-29.33 188.62,-34.42"/>
</g>
</g>
</svg>
