<?xml version="1.0" encoding="UTF-8" standalone="no"?>
<!DOCTYPE svg PUBLIC "-//W3C//DTD SVG 1.1//EN"
 "http://www.w3.org/Graphics/SVG/1.1/DTD/svg11.dtd">
<!-- Generated by graphviz version 2.43.0 (0)
 -->
<!-- Title: UnusedParamRemovalPass.h Pages: 1 -->
<svg width="382pt" height="151pt"
 viewBox="0.00 0.00 381.50 151.00" xmlns="http://www.w3.org/2000/svg" xmlns:xlink="http://www.w3.org/1999/xlink">
<g id="graph0" class="graph" transform="scale(1 1) rotate(0) translate(4 147)">
<title>UnusedParamRemovalPass.h</title>
<polygon fill="white" stroke="transparent" points="-4,4 -4,-147 377.5,-147 377.5,4 -4,4"/>
<!-- Node1 -->
<g id="node1" class="node">
<title>Node1</title>
<g id="a_node1"><a xlink:title=" ">
<polygon fill="#bfbfbf" stroke="black" points="162.5,-123.5 162.5,-142.5 322.5,-142.5 322.5,-123.5 162.5,-123.5"/>
<text text-anchor="middle" x="242.5" y="-130.5" font-family="Helvetica,sans-Serif" font-size="10.00">UnusedParamRemovalPass.h</text>
</a>
</g>
</g>
<!-- Node2 -->
<g id="node2" class="node">
<title>Node2</title>
<g id="a_node2"><a xlink:href="Pass_8h.html" target="_top" xlink:title=" ">
<polygon fill="white" stroke="black" points="0,-67.5 0,-86.5 143,-86.5 143,-67.5 0,-67.5"/>
<text text-anchor="middle" x="71.5" y="-74.5" font-family="Helvetica,sans-Serif" font-size="10.00">boomerang/passes/Pass.h</text>
</a>
</g>
</g>
<!-- Node1&#45;&gt;Node2 -->
<g id="edge1" class="edge">
<title>Node1&#45;&gt;Node2</title>
<path fill="none" stroke="midnightblue" d="M215.4,-123.44C186.51,-114.32 140.58,-99.81 108.39,-89.65"/>
<polygon fill="midnightblue" stroke="midnightblue" points="109.06,-86.19 98.47,-86.52 106.95,-92.87 109.06,-86.19"/>
</g>
<!-- Node4 -->
<g id="node4" class="node">
<title>Node4</title>
<g id="a_node4"><a xlink:href="ExpHelp_8h.html" target="_top" xlink:title=" ">
<polygon fill="white" stroke="black" points="161.5,-67.5 161.5,-86.5 323.5,-86.5 323.5,-67.5 161.5,-67.5"/>
<text text-anchor="middle" x="242.5" y="-74.5" font-family="Helvetica,sans-Serif" font-size="10.00">boomerang/ssl/exp/ExpHelp.h</text>
</a>
</g>
</g>
<!-- Node1&#45;&gt;Node4 -->
<g id="edge3" class="edge">
<title>Node1&#45;&gt;Node4</title>
<path fill="none" stroke="midnightblue" d="M242.5,-123.08C242.5,-116.01 242.5,-105.86 242.5,-96.99"/>
<polygon fill="midnightblue" stroke="midnightblue" points="246,-96.75 242.5,-86.75 239,-96.75 246,-96.75"/>
</g>
<!-- Node7 -->
<g id="node7" class="node">
<title>Node7</title>
<g id="a_node7"><a xlink:title=" ">
<polygon fill="white" stroke="#bfbfbf" points="341.5,-67.5 341.5,-86.5 373.5,-86.5 373.5,-67.5 341.5,-67.5"/>
<text text-anchor="middle" x="357.5" y="-74.5" font-family="Helvetica,sans-Serif" font-size="10.00">set</text>
</a>
</g>
</g>
<!-- Node1&#45;&gt;Node7 -->
<g id="edge6" class="edge">
<title>Node1&#45;&gt;Node7</title>
<path fill="none" stroke="midnightblue" d="M260.72,-123.44C279.94,-114.42 310.39,-100.12 331.99,-89.98"/>
<polygon fill="midnightblue" stroke="midnightblue" points="333.66,-93.06 341.22,-85.64 330.68,-86.73 333.66,-93.06"/>
</g>
<!-- Node3 -->
<g id="node3" class="node">
<title>Node3</title>
<g id="a_node3"><a xlink:title=" ">
<polygon fill="white" stroke="#bfbfbf" points="45,-6 45,-25 98,-25 98,-6 45,-6"/>
<text text-anchor="middle" x="71.5" y="-13" font-family="Helvetica,sans-Serif" font-size="10.00">QString</text>
</a>
</g>
</g>
<!-- Node2&#45;&gt;Node3 -->
<g id="edge2" class="edge">
<title>Node2&#45;&gt;Node3</title>
<path fill="none" stroke="midnightblue" d="M71.5,-67.48C71.5,-59.08 71.5,-45.98 71.5,-35.16"/>
<polygon fill="midnightblue" stroke="midnightblue" points="75,-35.01 71.5,-25.01 68,-35.01 75,-35.01"/>
</g>
<!-- Node5 -->
<g id="node5" class="node">
<title>Node5</title>
<g id="a_node5"><a xlink:href="BoomerangAPI_8h.html" target="_top" xlink:title=" ">
<polygon fill="white" stroke="black" points="140,-0.5 140,-30.5 295,-30.5 295,-0.5 140,-0.5"/>
<text text-anchor="start" x="148" y="-18.5" font-family="Helvetica,sans-Serif" font-size="10.00">boomerang/core/Boomerang</text>
<text text-anchor="middle" x="217.5" y="-7.5" font-family="Helvetica,sans-Serif" font-size="10.00">API.h</text>
</a>
</g>
</g>
<!-- Node4&#45;&gt;Node5 -->
<g id="edge4" class="edge">
<title>Node4&#45;&gt;Node5</title>
<path fill="none" stroke="midnightblue" d="M238.92,-67.48C235.88,-60.25 231.38,-49.53 227.28,-39.78"/>
<polygon fill="midnightblue" stroke="midnightblue" points="230.49,-38.39 223.39,-30.52 224.04,-41.1 230.49,-38.39"/>
</g>
<!-- Node6 -->
<g id="node6" class="node">
<title>Node6</title>
<g id="a_node6"><a xlink:title=" ">
<polygon fill="white" stroke="#bfbfbf" points="313.5,-6 313.5,-25 371.5,-25 371.5,-6 313.5,-6"/>
<text text-anchor="middle" x="342.5" y="-13" font-family="Helvetica,sans-Serif" font-size="10.00">memory</text>
</a>
</g>
</g>
<!-- Node4&#45;&gt;Node6 -->
<g id="edge5" class="edge">
<title>Node4&#45;&gt;Node6</title>
<path fill="none" stroke="midnightblue" d="M256.83,-67.48C273.16,-57.75 300.1,-41.73 319.41,-30.24"/>
<polygon fill="midnightblue" stroke="midnightblue" points="321.39,-33.13 328.2,-25.01 317.82,-27.11 321.39,-33.13"/>
</g>
</g>
</svg>
