<?xml version="1.0" encoding="UTF-8" standalone="no"?>
<!DOCTYPE svg PUBLIC "-//W3C//DTD SVG 1.1//EN"
 "http://www.w3.org/Graphics/SVG/1.1/DTD/svg11.dtd">
<!-- Generated by graphviz version 2.43.0 (0)
 -->
<!-- Title: UsedLocsVisitor.cpp Pages: 1 -->
<svg width="1633pt" height="810pt"
 viewBox="0.00 0.00 1632.50 810.00" xmlns="http://www.w3.org/2000/svg" xmlns:xlink="http://www.w3.org/1999/xlink">
<g id="graph0" class="graph" transform="scale(1 1) rotate(0) translate(4 806)">
<title>UsedLocsVisitor.cpp</title>
<polygon fill="white" stroke="transparent" points="-4,4 -4,-806 1628.5,-806 1628.5,4 -4,4"/>
<!-- Node1 -->
<g id="node1" class="node">
<title>Node1</title>
<g id="a_node1"><a xlink:title=" ">
<polygon fill="#bfbfbf" stroke="black" points="840.5,-782.5 840.5,-801.5 955.5,-801.5 955.5,-782.5 840.5,-782.5"/>
<text text-anchor="middle" x="898" y="-789.5" font-family="Helvetica,sans-Serif" font-size="10.00">UsedLocsVisitor.cpp</text>
</a>
</g>
</g>
<!-- Node2 -->
<g id="node2" class="node">
<title>Node2</title>
<g id="a_node2"><a xlink:href="UsedLocsVisitor_8h.html" target="_top" xlink:title=" ">
<polygon fill="white" stroke="black" points="132,-721 132,-740 236,-740 236,-721 132,-721"/>
<text text-anchor="middle" x="184" y="-728" font-family="Helvetica,sans-Serif" font-size="10.00">UsedLocsVisitor.h</text>
</a>
</g>
</g>
<!-- Node1&#45;&gt;Node2 -->
<g id="edge1" class="edge">
<title>Node1&#45;&gt;Node2</title>
<path fill="none" stroke="midnightblue" d="M840.48,-786.21C708.19,-775.18 383.25,-748.1 246.38,-736.7"/>
<polygon fill="midnightblue" stroke="midnightblue" points="246.33,-733.18 236.08,-735.84 245.75,-740.16 246.33,-733.18"/>
</g>
<!-- Node5 -->
<g id="node5" class="node">
<title>Node5</title>
<g id="a_node5"><a xlink:href="RefExp_8h.html" target="_top" xlink:title=" ">
<polygon fill="white" stroke="black" points="485,-654 485,-673 641,-673 641,-654 485,-654"/>
<text text-anchor="middle" x="563" y="-661" font-family="Helvetica,sans-Serif" font-size="10.00">boomerang/ssl/exp/RefExp.h</text>
</a>
</g>
</g>
<!-- Node1&#45;&gt;Node5 -->
<g id="edge4" class="edge">
<title>Node1&#45;&gt;Node5</title>
<path fill="none" stroke="midnightblue" d="M875.24,-782.4C817.11,-760.45 663.02,-702.27 595.49,-676.77"/>
<polygon fill="midnightblue" stroke="midnightblue" points="596.39,-673.37 585.79,-673.11 593.91,-679.91 596.39,-673.37"/>
</g>
<!-- Node20 -->
<g id="node20" class="node">
<title>Node20</title>
<g id="a_node20"><a xlink:href="Assign_8h.html" target="_top" xlink:title=" ">
<polygon fill="white" stroke="black" points="1178.5,-447.5 1178.5,-477.5 1325.5,-477.5 1325.5,-447.5 1178.5,-447.5"/>
<text text-anchor="start" x="1186.5" y="-465.5" font-family="Helvetica,sans-Serif" font-size="10.00">boomerang/ssl/statements</text>
<text text-anchor="middle" x="1252" y="-454.5" font-family="Helvetica,sans-Serif" font-size="10.00">/Assign.h</text>
</a>
</g>
</g>
<!-- Node1&#45;&gt;Node20 -->
<g id="edge23" class="edge">
<title>Node1&#45;&gt;Node20</title>
<path fill="none" stroke="midnightblue" d="M955.63,-785.32C1064.06,-773.26 1291.43,-741 1335,-679 1379.3,-615.96 1310.31,-526.11 1273.16,-485.24"/>
<polygon fill="midnightblue" stroke="midnightblue" points="1275.56,-482.69 1266.2,-477.74 1270.43,-487.45 1275.56,-482.69"/>
</g>
<!-- Node26 -->
<g id="node26" class="node">
<title>Node26</title>
<g id="a_node26"><a xlink:href="BoolAssign_8h.html" target="_top" xlink:title=" ">
<polygon fill="white" stroke="black" points="1382.5,-447.5 1382.5,-477.5 1529.5,-477.5 1529.5,-447.5 1382.5,-447.5"/>
<text text-anchor="start" x="1390.5" y="-465.5" font-family="Helvetica,sans-Serif" font-size="10.00">boomerang/ssl/statements</text>
<text text-anchor="middle" x="1456" y="-454.5" font-family="Helvetica,sans-Serif" font-size="10.00">/BoolAssign.h</text>
</a>
</g>
</g>
<!-- Node1&#45;&gt;Node26 -->
<g id="edge35" class="edge">
<title>Node1&#45;&gt;Node26</title>
<path fill="none" stroke="midnightblue" d="M955.55,-789.75C1095.65,-785.16 1443,-763.76 1443,-664.5 1443,-664.5 1443,-664.5 1443,-595.5 1443,-557.82 1448.31,-514.38 1452.14,-487.94"/>
<polygon fill="midnightblue" stroke="midnightblue" points="1455.66,-488.12 1453.68,-477.71 1448.73,-487.08 1455.66,-488.12"/>
</g>
<!-- Node27 -->
<g id="node27" class="node">
<title>Node27</title>
<g id="a_node27"><a xlink:href="CallStatement_8h.html" target="_top" xlink:title=" ">
<polygon fill="white" stroke="black" points="659.5,-648.5 659.5,-678.5 806.5,-678.5 806.5,-648.5 659.5,-648.5"/>
<text text-anchor="start" x="667.5" y="-666.5" font-family="Helvetica,sans-Serif" font-size="10.00">boomerang/ssl/statements</text>
<text text-anchor="middle" x="733" y="-655.5" font-family="Helvetica,sans-Serif" font-size="10.00">/CallStatement.h</text>
</a>
</g>
</g>
<!-- Node1&#45;&gt;Node27 -->
<g id="edge37" class="edge">
<title>Node1&#45;&gt;Node27</title>
<path fill="none" stroke="midnightblue" d="M886.66,-782.31C860.71,-762.41 796.42,-713.12 759.75,-685.01"/>
<polygon fill="midnightblue" stroke="midnightblue" points="761.56,-681.99 751.5,-678.68 757.3,-687.54 761.56,-681.99"/>
</g>
<!-- Node38 -->
<g id="node38" class="node">
<title>Node38</title>
<g id="a_node38"><a xlink:href="ImplicitAssign_8h.html" target="_top" xlink:title=" ">
<polygon fill="white" stroke="black" points="1477.5,-514.5 1477.5,-544.5 1624.5,-544.5 1624.5,-514.5 1477.5,-514.5"/>
<text text-anchor="start" x="1485.5" y="-532.5" font-family="Helvetica,sans-Serif" font-size="10.00">boomerang/ssl/statements</text>
<text text-anchor="middle" x="1551" y="-521.5" font-family="Helvetica,sans-Serif" font-size="10.00">/ImplicitAssign.h</text>
</a>
</g>
</g>
<!-- Node1&#45;&gt;Node38 -->
<g id="edge63" class="edge">
<title>Node1&#45;&gt;Node38</title>
<path fill="none" stroke="midnightblue" d="M955.78,-789.68C1090.46,-786.13 1416.88,-774.64 1457,-746 1521.28,-700.12 1542.09,-600.49 1548.42,-554.57"/>
<polygon fill="midnightblue" stroke="midnightblue" points="1551.9,-554.97 1549.68,-544.61 1544.95,-554.09 1551.9,-554.97"/>
</g>
<!-- Node39 -->
<g id="node39" class="node">
<title>Node39</title>
<g id="a_node39"><a xlink:href="PhiAssign_8h.html" target="_top" xlink:title=" ">
<polygon fill="white" stroke="black" points="992.5,-715.5 992.5,-745.5 1139.5,-745.5 1139.5,-715.5 992.5,-715.5"/>
<text text-anchor="start" x="1000.5" y="-733.5" font-family="Helvetica,sans-Serif" font-size="10.00">boomerang/ssl/statements</text>
<text text-anchor="middle" x="1066" y="-722.5" font-family="Helvetica,sans-Serif" font-size="10.00">/PhiAssign.h</text>
</a>
</g>
</g>
<!-- Node1&#45;&gt;Node39 -->
<g id="edge65" class="edge">
<title>Node1&#45;&gt;Node39</title>
<path fill="none" stroke="midnightblue" d="M922.07,-782.48C946.63,-773.78 985.45,-760.03 1016.59,-749"/>
<polygon fill="midnightblue" stroke="midnightblue" points="1018.15,-752.16 1026.41,-745.52 1015.81,-745.56 1018.15,-752.16"/>
</g>
<!-- Node43 -->
<g id="node43" class="node">
<title>Node43</title>
<g id="a_node43"><a xlink:href="ReturnStatement_8h.html" target="_top" xlink:title=" ">
<polygon fill="white" stroke="black" points="824.5,-648.5 824.5,-678.5 971.5,-678.5 971.5,-648.5 824.5,-648.5"/>
<text text-anchor="start" x="832.5" y="-666.5" font-family="Helvetica,sans-Serif" font-size="10.00">boomerang/ssl/statements</text>
<text text-anchor="middle" x="898" y="-655.5" font-family="Helvetica,sans-Serif" font-size="10.00">/ReturnStatement.h</text>
</a>
</g>
</g>
<!-- Node1&#45;&gt;Node43 -->
<g id="edge76" class="edge">
<title>Node1&#45;&gt;Node43</title>
<path fill="none" stroke="midnightblue" d="M898,-782.31C898,-763.3 898,-717.47 898,-688.9"/>
<polygon fill="midnightblue" stroke="midnightblue" points="901.5,-688.89 898,-678.89 894.5,-688.89 901.5,-688.89"/>
</g>
<!-- Node44 -->
<g id="node44" class="node">
<title>Node44</title>
<g id="a_node44"><a xlink:href="UsedLocsFinder_8h.html" target="_top" xlink:title=" ">
<polygon fill="white" stroke="black" points="450,-715.5 450,-745.5 608,-745.5 608,-715.5 450,-715.5"/>
<text text-anchor="start" x="458" y="-733.5" font-family="Helvetica,sans-Serif" font-size="10.00">boomerang/visitor/expvisitor</text>
<text text-anchor="middle" x="529" y="-722.5" font-family="Helvetica,sans-Serif" font-size="10.00">/UsedLocsFinder.h</text>
</a>
</g>
</g>
<!-- Node1&#45;&gt;Node44 -->
<g id="edge80" class="edge">
<title>Node1&#45;&gt;Node44</title>
<path fill="none" stroke="midnightblue" d="M845.13,-782.48C786.06,-772.95 689.43,-757.37 618.52,-745.94"/>
<polygon fill="midnightblue" stroke="midnightblue" points="618.69,-742.42 608.26,-744.28 617.57,-749.33 618.69,-742.42"/>
</g>
<!-- Node3 -->
<g id="node3" class="node">
<title>Node3</title>
<g id="a_node3"><a xlink:href="StmtExpVisitor_8h.html" target="_top" xlink:title=" ">
<polygon fill="white" stroke="black" points="0,-447.5 0,-477.5 180,-477.5 180,-447.5 0,-447.5"/>
<text text-anchor="start" x="8" y="-465.5" font-family="Helvetica,sans-Serif" font-size="10.00">boomerang/visitor/stmtexpvisitor</text>
<text text-anchor="middle" x="90" y="-454.5" font-family="Helvetica,sans-Serif" font-size="10.00">/StmtExpVisitor.h</text>
</a>
</g>
</g>
<!-- Node2&#45;&gt;Node3 -->
<g id="edge2" class="edge">
<title>Node2&#45;&gt;Node3</title>
<path fill="none" stroke="midnightblue" d="M180.98,-720.95C168.2,-684.79 118.32,-543.64 98.34,-487.11"/>
<polygon fill="midnightblue" stroke="midnightblue" points="101.61,-485.84 94.98,-477.58 95.01,-488.17 101.61,-485.84"/>
</g>
<!-- Node4 -->
<g id="node4" class="node">
<title>Node4</title>
<g id="a_node4"><a xlink:href="BoomerangAPI_8h.html" target="_top" xlink:title=" ">
<polygon fill="white" stroke="black" points="593.5,-56.5 593.5,-86.5 748.5,-86.5 748.5,-56.5 593.5,-56.5"/>
<text text-anchor="start" x="601.5" y="-74.5" font-family="Helvetica,sans-Serif" font-size="10.00">boomerang/core/Boomerang</text>
<text text-anchor="middle" x="671" y="-63.5" font-family="Helvetica,sans-Serif" font-size="10.00">API.h</text>
</a>
</g>
</g>
<!-- Node3&#45;&gt;Node4 -->
<g id="edge3" class="edge">
<title>Node3&#45;&gt;Node4</title>
<path fill="none" stroke="midnightblue" d="M84.82,-447.46C76.47,-423.59 61,-373.38 61,-329.5 61,-329.5 61,-329.5 61,-193.5 61,-88.29 414.55,-73.14 583.33,-71.91"/>
<polygon fill="midnightblue" stroke="midnightblue" points="583.45,-75.41 593.43,-71.85 583.41,-68.41 583.45,-75.41"/>
</g>
<!-- Node6 -->
<g id="node6" class="node">
<title>Node6</title>
<g id="a_node6"><a xlink:href="Unary_8h.html" target="_top" xlink:title=" ">
<polygon fill="white" stroke="black" points="271.5,-520 271.5,-539 420.5,-539 420.5,-520 271.5,-520"/>
<text text-anchor="middle" x="346" y="-527" font-family="Helvetica,sans-Serif" font-size="10.00">boomerang/ssl/exp/Unary.h</text>
</a>
</g>
</g>
<!-- Node5&#45;&gt;Node6 -->
<g id="edge5" class="edge">
<title>Node5&#45;&gt;Node6</title>
<path fill="none" stroke="midnightblue" d="M498.99,-653.97C447.49,-645.78 380.73,-631.74 362,-612 346.14,-595.28 343.84,-567.67 344.36,-549.29"/>
<polygon fill="midnightblue" stroke="midnightblue" points="347.86,-549.4 344.95,-539.21 340.87,-548.99 347.86,-549.4"/>
</g>
<!-- Node7 -->
<g id="node7" class="node">
<title>Node7</title>
<g id="a_node7"><a xlink:href="Exp_8h.html" target="_top" xlink:title=" ">
<polygon fill="white" stroke="black" points="568,-252 568,-271 708,-271 708,-252 568,-252"/>
<text text-anchor="middle" x="638" y="-259" font-family="Helvetica,sans-Serif" font-size="10.00">boomerang/ssl/exp/Exp.h</text>
</a>
</g>
</g>
<!-- Node6&#45;&gt;Node7 -->
<g id="edge6" class="edge">
<title>Node6&#45;&gt;Node7</title>
<path fill="none" stroke="midnightblue" d="M356.18,-519.85C386.74,-493.8 480.26,-413.59 555,-344 578.88,-321.77 605.68,-295.13 622.2,-278.51"/>
<polygon fill="midnightblue" stroke="midnightblue" points="624.87,-280.79 629.42,-271.22 619.9,-275.86 624.87,-280.79"/>
</g>
<!-- Node8 -->
<g id="node8" class="node">
<title>Node8</title>
<g id="a_node8"><a xlink:href="ExpHelp_8h.html" target="_top" xlink:title=" ">
<polygon fill="white" stroke="black" points="679,-185 679,-204 841,-204 841,-185 679,-185"/>
<text text-anchor="middle" x="760" y="-192" font-family="Helvetica,sans-Serif" font-size="10.00">boomerang/ssl/exp/ExpHelp.h</text>
</a>
</g>
</g>
<!-- Node7&#45;&gt;Node8 -->
<g id="edge7" class="edge">
<title>Node7&#45;&gt;Node8</title>
<path fill="none" stroke="midnightblue" d="M654.2,-251.87C674.8,-240.89 710.59,-221.82 734.78,-208.94"/>
<polygon fill="midnightblue" stroke="midnightblue" points="736.55,-211.96 743.73,-204.17 733.26,-205.78 736.55,-211.96"/>
</g>
<!-- Node9 -->
<g id="node9" class="node">
<title>Node9</title>
<g id="a_node9"><a xlink:title=" ">
<polygon fill="white" stroke="#bfbfbf" points="355,-123.5 355,-142.5 413,-142.5 413,-123.5 355,-123.5"/>
<text text-anchor="middle" x="384" y="-130.5" font-family="Helvetica,sans-Serif" font-size="10.00">memory</text>
</a>
</g>
</g>
<!-- Node7&#45;&gt;Node9 -->
<g id="edge20" class="edge">
<title>Node7&#45;&gt;Node9</title>
<path fill="none" stroke="midnightblue" d="M628.31,-251.95C609.44,-235.7 565.95,-200.09 524,-179 491.46,-162.64 451.7,-150.54 422.88,-143.03"/>
<polygon fill="midnightblue" stroke="midnightblue" points="423.73,-139.63 413.17,-140.57 422,-146.42 423.73,-139.63"/>
</g>
<!-- Node10 -->
<g id="node10" class="node">
<title>Node10</title>
<g id="a_node10"><a xlink:href="Operator_8h.html" target="_top" xlink:title=" ">
<polygon fill="white" stroke="black" points="517,-123.5 517,-142.5 681,-142.5 681,-123.5 517,-123.5"/>
<text text-anchor="middle" x="599" y="-130.5" font-family="Helvetica,sans-Serif" font-size="10.00">boomerang/ssl/exp/Operator.h</text>
</a>
</g>
</g>
<!-- Node7&#45;&gt;Node10 -->
<g id="edge10" class="edge">
<title>Node7&#45;&gt;Node10</title>
<path fill="none" stroke="midnightblue" d="M628.72,-251.88C619.44,-242.58 605.75,-226.82 600,-210 593.62,-191.31 594.36,-168.5 596.07,-152.77"/>
<polygon fill="midnightblue" stroke="midnightblue" points="599.56,-153.1 597.4,-142.73 592.62,-152.18 599.56,-153.1"/>
</g>
<!-- Node11 -->
<g id="node11" class="node">
<title>Node11</title>
<g id="a_node11"><a xlink:href="OStream_8h.html" target="_top" xlink:title=" ">
<polygon fill="white" stroke="black" points="994,-123.5 994,-142.5 1140,-142.5 1140,-123.5 994,-123.5"/>
<text text-anchor="middle" x="1067" y="-130.5" font-family="Helvetica,sans-Serif" font-size="10.00">boomerang/util/OStream.h</text>
</a>
</g>
</g>
<!-- Node7&#45;&gt;Node11 -->
<g id="edge12" class="edge">
<title>Node7&#45;&gt;Node11</title>
<path fill="none" stroke="midnightblue" d="M708.23,-254.94C830.04,-244.95 1068.74,-223.73 1081,-210 1095.19,-194.1 1086.38,-168.68 1077.65,-151.67"/>
<polygon fill="midnightblue" stroke="midnightblue" points="1080.62,-149.79 1072.7,-142.76 1074.5,-153.2 1080.62,-149.79"/>
</g>
<!-- Node15 -->
<g id="node15" class="node">
<title>Node15</title>
<g id="a_node15"><a xlink:title=" ">
<polygon fill="white" stroke="#bfbfbf" points="843.5,-123.5 843.5,-142.5 896.5,-142.5 896.5,-123.5 843.5,-123.5"/>
<text text-anchor="middle" x="870" y="-130.5" font-family="Helvetica,sans-Serif" font-size="10.00">QString</text>
</a>
</g>
</g>
<!-- Node7&#45;&gt;Node15 -->
<g id="edge17" class="edge">
<title>Node7&#45;&gt;Node15</title>
<path fill="none" stroke="midnightblue" d="M705.96,-251.98C759.94,-243.85 829.63,-229.89 850,-210 865.29,-195.06 869.36,-169.94 870.21,-152.7"/>
<polygon fill="midnightblue" stroke="midnightblue" points="873.71,-152.75 870.39,-142.69 866.71,-152.62 873.71,-152.75"/>
</g>
<!-- Node16 -->
<g id="node16" class="node">
<title>Node16</title>
<g id="a_node16"><a xlink:title=" ">
<polygon fill="white" stroke="#bfbfbf" points="609,-185 609,-204 661,-204 661,-185 609,-185"/>
<text text-anchor="middle" x="635" y="-192" font-family="Helvetica,sans-Serif" font-size="10.00">cassert</text>
</a>
</g>
</g>
<!-- Node7&#45;&gt;Node16 -->
<g id="edge18" class="edge">
<title>Node7&#45;&gt;Node16</title>
<path fill="none" stroke="midnightblue" d="M637.6,-251.73C637.15,-242.18 636.44,-226.62 635.87,-214.28"/>
<polygon fill="midnightblue" stroke="midnightblue" points="639.36,-213.96 635.4,-204.13 632.36,-214.28 639.36,-213.96"/>
</g>
<!-- Node17 -->
<g id="node17" class="node">
<title>Node17</title>
<g id="a_node17"><a xlink:title=" ">
<polygon fill="white" stroke="#bfbfbf" points="1189,-185 1189,-204 1221,-204 1221,-185 1189,-185"/>
<text text-anchor="middle" x="1205" y="-192" font-family="Helvetica,sans-Serif" font-size="10.00">list</text>
</a>
</g>
</g>
<!-- Node7&#45;&gt;Node17 -->
<g id="edge19" class="edge">
<title>Node7&#45;&gt;Node17</title>
<path fill="none" stroke="midnightblue" d="M708.18,-255.65C844.61,-245.98 1136.11,-224.02 1180,-210 1181.08,-209.66 1182.15,-209.26 1183.23,-208.83"/>
<polygon fill="midnightblue" stroke="midnightblue" points="1185.16,-211.77 1192.52,-204.15 1182.02,-205.52 1185.16,-211.77"/>
</g>
<!-- Node18 -->
<g id="node18" class="node">
<title>Node18</title>
<g id="a_node18"><a xlink:title=" ">
<polygon fill="white" stroke="#bfbfbf" points="483,-185 483,-204 515,-204 515,-185 483,-185"/>
<text text-anchor="middle" x="499" y="-192" font-family="Helvetica,sans-Serif" font-size="10.00">set</text>
</a>
</g>
</g>
<!-- Node7&#45;&gt;Node18 -->
<g id="edge21" class="edge">
<title>Node7&#45;&gt;Node18</title>
<path fill="none" stroke="midnightblue" d="M619.05,-251.84C597.27,-241.85 560.48,-224.9 529,-210 527.45,-209.27 525.87,-208.51 524.26,-207.75"/>
<polygon fill="midnightblue" stroke="midnightblue" points="525.7,-204.55 515.17,-203.37 522.66,-210.86 525.7,-204.55"/>
</g>
<!-- Node19 -->
<g id="node19" class="node">
<title>Node19</title>
<g id="a_node19"><a xlink:title=" ">
<polygon fill="white" stroke="#bfbfbf" points="1403.5,-185 1403.5,-204 1450.5,-204 1450.5,-185 1403.5,-185"/>
<text text-anchor="middle" x="1427" y="-192" font-family="Helvetica,sans-Serif" font-size="10.00">vector</text>
</a>
</g>
</g>
<!-- Node7&#45;&gt;Node19 -->
<g id="edge22" class="edge">
<title>Node7&#45;&gt;Node19</title>
<path fill="none" stroke="midnightblue" d="M708.02,-254.73C871.66,-241.25 1274.32,-208.08 1393.34,-198.27"/>
<polygon fill="midnightblue" stroke="midnightblue" points="1393.65,-201.76 1403.33,-197.45 1393.08,-194.78 1393.65,-201.76"/>
</g>
<!-- Node8&#45;&gt;Node4 -->
<g id="edge8" class="edge">
<title>Node8&#45;&gt;Node4</title>
<path fill="none" stroke="midnightblue" d="M753.6,-184.8C739.86,-166.12 707.18,-121.69 687.29,-94.65"/>
<polygon fill="midnightblue" stroke="midnightblue" points="690.07,-92.52 681.33,-86.54 684.43,-96.67 690.07,-92.52"/>
</g>
<!-- Node8&#45;&gt;Node9 -->
<g id="edge9" class="edge">
<title>Node8&#45;&gt;Node9</title>
<path fill="none" stroke="midnightblue" d="M707.18,-184.96C694.97,-182.99 682.03,-180.92 670,-179 581.86,-164.97 478.41,-148.75 423.28,-140.13"/>
<polygon fill="midnightblue" stroke="midnightblue" points="423.66,-136.65 413.24,-138.56 422.58,-143.57 423.66,-136.65"/>
</g>
<!-- Node10&#45;&gt;Node4 -->
<g id="edge11" class="edge">
<title>Node10&#45;&gt;Node4</title>
<path fill="none" stroke="midnightblue" d="M609.32,-123.48C618.88,-115.57 633.51,-103.48 646.11,-93.07"/>
<polygon fill="midnightblue" stroke="midnightblue" points="648.55,-95.59 654.03,-86.52 644.09,-90.2 648.55,-95.59"/>
</g>
<!-- Node11&#45;&gt;Node4 -->
<g id="edge13" class="edge">
<title>Node11&#45;&gt;Node4</title>
<path fill="none" stroke="midnightblue" d="M1010.26,-123.48C944.56,-113.6 835.56,-97.23 758.88,-85.7"/>
<polygon fill="midnightblue" stroke="midnightblue" points="759.16,-82.21 748.75,-84.18 758.12,-89.13 759.16,-82.21"/>
</g>
<!-- Node12 -->
<g id="node12" class="node">
<title>Node12</title>
<g id="a_node12"><a xlink:href="Types_8h.html" target="_top" xlink:title=" ">
<polygon fill="white" stroke="black" points="900.5,-62 900.5,-81 1031.5,-81 1031.5,-62 900.5,-62"/>
<text text-anchor="middle" x="966" y="-69" font-family="Helvetica,sans-Serif" font-size="10.00">boomerang/util/Types.h</text>
</a>
</g>
</g>
<!-- Node11&#45;&gt;Node12 -->
<g id="edge14" class="edge">
<title>Node11&#45;&gt;Node12</title>
<path fill="none" stroke="midnightblue" d="M1052.53,-123.48C1036.03,-113.75 1008.82,-97.73 989.32,-86.24"/>
<polygon fill="midnightblue" stroke="midnightblue" points="990.84,-83.07 980.44,-81.01 987.28,-89.1 990.84,-83.07"/>
</g>
<!-- Node14 -->
<g id="node14" class="node">
<title>Node14</title>
<g id="a_node14"><a xlink:title=" ">
<polygon fill="white" stroke="#bfbfbf" points="1050,-62 1050,-81 1096,-81 1096,-62 1050,-62"/>
<text text-anchor="middle" x="1073" y="-69" font-family="Helvetica,sans-Serif" font-size="10.00">cstdio</text>
</a>
</g>
</g>
<!-- Node11&#45;&gt;Node14 -->
<g id="edge16" class="edge">
<title>Node11&#45;&gt;Node14</title>
<path fill="none" stroke="midnightblue" d="M1067.86,-123.48C1068.71,-115.08 1070.03,-101.98 1071.12,-91.16"/>
<polygon fill="midnightblue" stroke="midnightblue" points="1074.62,-91.31 1072.14,-81.01 1067.66,-90.61 1074.62,-91.31"/>
</g>
<!-- Node13 -->
<g id="node13" class="node">
<title>Node13</title>
<g id="a_node13"><a xlink:title=" ">
<polygon fill="white" stroke="#bfbfbf" points="941,-0.5 941,-19.5 991,-19.5 991,-0.5 941,-0.5"/>
<text text-anchor="middle" x="966" y="-7.5" font-family="Helvetica,sans-Serif" font-size="10.00">cstdint</text>
</a>
</g>
</g>
<!-- Node12&#45;&gt;Node13 -->
<g id="edge15" class="edge">
<title>Node12&#45;&gt;Node13</title>
<path fill="none" stroke="midnightblue" d="M966,-61.98C966,-53.58 966,-40.48 966,-29.66"/>
<polygon fill="midnightblue" stroke="midnightblue" points="969.5,-29.51 966,-19.51 962.5,-29.51 969.5,-29.51"/>
</g>
<!-- Node21 -->
<g id="node21" class="node">
<title>Node21</title>
<g id="a_node21"><a xlink:href="Assignment_8h.html" target="_top" xlink:title=" ">
<polygon fill="white" stroke="black" points="1229.5,-380.5 1229.5,-410.5 1376.5,-410.5 1376.5,-380.5 1229.5,-380.5"/>
<text text-anchor="start" x="1237.5" y="-398.5" font-family="Helvetica,sans-Serif" font-size="10.00">boomerang/ssl/statements</text>
<text text-anchor="middle" x="1303" y="-387.5" font-family="Helvetica,sans-Serif" font-size="10.00">/Assignment.h</text>
</a>
</g>
</g>
<!-- Node20&#45;&gt;Node21 -->
<g id="edge24" class="edge">
<title>Node20&#45;&gt;Node21</title>
<path fill="none" stroke="midnightblue" d="M1263.07,-447.4C1269.68,-438.96 1278.23,-428.07 1285.72,-418.52"/>
<polygon fill="midnightblue" stroke="midnightblue" points="1288.54,-420.6 1291.96,-410.58 1283.03,-416.28 1288.54,-420.6"/>
</g>
<!-- Node22 -->
<g id="node22" class="node">
<title>Node22</title>
<g id="a_node22"><a xlink:href="TypingStatement_8h.html" target="_top" xlink:title=" ">
<polygon fill="white" stroke="black" points="1184.5,-313.5 1184.5,-343.5 1331.5,-343.5 1331.5,-313.5 1184.5,-313.5"/>
<text text-anchor="start" x="1192.5" y="-331.5" font-family="Helvetica,sans-Serif" font-size="10.00">boomerang/ssl/statements</text>
<text text-anchor="middle" x="1258" y="-320.5" font-family="Helvetica,sans-Serif" font-size="10.00">/TypingStatement.h</text>
</a>
</g>
</g>
<!-- Node21&#45;&gt;Node22 -->
<g id="edge25" class="edge">
<title>Node21&#45;&gt;Node22</title>
<path fill="none" stroke="midnightblue" d="M1293.24,-380.4C1287.46,-372.05 1280.01,-361.29 1273.45,-351.81"/>
<polygon fill="midnightblue" stroke="midnightblue" points="1276.32,-349.81 1267.75,-343.58 1270.56,-353.79 1276.32,-349.81"/>
</g>
<!-- Node23 -->
<g id="node23" class="node">
<title>Node23</title>
<g id="a_node23"><a xlink:href="Statement_8h.html" target="_top" xlink:title=" ">
<polygon fill="white" stroke="black" points="898.5,-246.5 898.5,-276.5 1045.5,-276.5 1045.5,-246.5 898.5,-246.5"/>
<text text-anchor="start" x="906.5" y="-264.5" font-family="Helvetica,sans-Serif" font-size="10.00">boomerang/ssl/statements</text>
<text text-anchor="middle" x="972" y="-253.5" font-family="Helvetica,sans-Serif" font-size="10.00">/Statement.h</text>
</a>
</g>
</g>
<!-- Node22&#45;&gt;Node23 -->
<g id="edge26" class="edge">
<title>Node22&#45;&gt;Node23</title>
<path fill="none" stroke="midnightblue" d="M1196.29,-313.48C1151.53,-303.3 1090.85,-289.51 1043.89,-278.84"/>
<polygon fill="midnightblue" stroke="midnightblue" points="1044.62,-275.41 1034.09,-276.61 1043.06,-282.24 1044.62,-275.41"/>
</g>
<!-- Node23&#45;&gt;Node8 -->
<g id="edge27" class="edge">
<title>Node23&#45;&gt;Node8</title>
<path fill="none" stroke="midnightblue" d="M926.26,-246.48C887.76,-234.67 833.39,-218 797.44,-206.98"/>
<polygon fill="midnightblue" stroke="midnightblue" points="798.4,-203.61 787.82,-204.03 796.35,-210.31 798.4,-203.61"/>
</g>
<!-- Node23&#45;&gt;Node17 -->
<g id="edge33" class="edge">
<title>Node23&#45;&gt;Node17</title>
<path fill="none" stroke="midnightblue" d="M1045.79,-247.96C1086.29,-239.76 1136.9,-227.31 1180,-210 1180.88,-209.65 1181.76,-209.27 1182.64,-208.87"/>
<polygon fill="midnightblue" stroke="midnightblue" points="1184.62,-211.79 1191.87,-204.06 1181.38,-205.58 1184.62,-211.79"/>
</g>
<!-- Node24 -->
<g id="node24" class="node">
<title>Node24</title>
<g id="a_node24"><a xlink:href="Address_8h.html" target="_top" xlink:title=" ">
<polygon fill="white" stroke="black" points="897,-185 897,-204 1039,-204 1039,-185 897,-185"/>
<text text-anchor="middle" x="968" y="-192" font-family="Helvetica,sans-Serif" font-size="10.00">boomerang/util/Address.h</text>
</a>
</g>
</g>
<!-- Node23&#45;&gt;Node24 -->
<g id="edge28" class="edge">
<title>Node23&#45;&gt;Node24</title>
<path fill="none" stroke="midnightblue" d="M971.13,-246.4C970.55,-236.96 969.78,-224.45 969.15,-214.19"/>
<polygon fill="midnightblue" stroke="midnightblue" points="972.64,-213.96 968.54,-204.19 965.66,-214.39 972.64,-213.96"/>
</g>
<!-- Node25 -->
<g id="node25" class="node">
<title>Node25</title>
<g id="a_node25"><a xlink:title=" ">
<polygon fill="white" stroke="#bfbfbf" points="1133,-185 1133,-204 1171,-204 1171,-185 1133,-185"/>
<text text-anchor="middle" x="1152" y="-192" font-family="Helvetica,sans-Serif" font-size="10.00">map</text>
</a>
</g>
</g>
<!-- Node23&#45;&gt;Node25 -->
<g id="edge34" class="edge">
<title>Node23&#45;&gt;Node25</title>
<path fill="none" stroke="midnightblue" d="M1016.09,-246.42C1045.47,-236.77 1084.82,-223.35 1119,-210 1120.6,-209.37 1122.24,-208.71 1123.89,-208.04"/>
<polygon fill="midnightblue" stroke="midnightblue" points="1125.43,-211.19 1133.27,-204.05 1122.69,-204.74 1125.43,-211.19"/>
</g>
<!-- Node24&#45;&gt;Node4 -->
<g id="edge29" class="edge">
<title>Node24&#45;&gt;Node4</title>
<path fill="none" stroke="midnightblue" d="M963.09,-184.98C953.93,-169.91 932.71,-138.67 906,-123 861.49,-96.88 805.13,-84.22 758.77,-78.1"/>
<polygon fill="midnightblue" stroke="midnightblue" points="759.09,-74.61 748.74,-76.85 758.23,-81.56 759.09,-74.61"/>
</g>
<!-- Node24&#45;&gt;Node11 -->
<g id="edge30" class="edge">
<title>Node24&#45;&gt;Node11</title>
<path fill="none" stroke="midnightblue" d="M982.18,-184.98C998.36,-175.25 1025.03,-159.23 1044.14,-147.74"/>
<polygon fill="midnightblue" stroke="midnightblue" points="1046.07,-150.66 1052.84,-142.51 1042.47,-144.66 1046.07,-150.66"/>
</g>
<!-- Node24&#45;&gt;Node12 -->
<g id="edge31" class="edge">
<title>Node24&#45;&gt;Node12</title>
<path fill="none" stroke="midnightblue" d="M967.86,-184.8C967.53,-165.35 966.75,-117.99 966.31,-91.4"/>
<polygon fill="midnightblue" stroke="midnightblue" points="969.81,-91.06 966.14,-81.12 962.81,-91.18 969.81,-91.06"/>
</g>
<!-- Node24&#45;&gt;Node15 -->
<g id="edge32" class="edge">
<title>Node24&#45;&gt;Node15</title>
<path fill="none" stroke="midnightblue" d="M953.96,-184.98C937.95,-175.25 911.55,-159.23 892.63,-147.74"/>
<polygon fill="midnightblue" stroke="midnightblue" points="894.38,-144.71 884.01,-142.51 890.75,-150.69 894.38,-144.71"/>
</g>
<!-- Node26&#45;&gt;Node21 -->
<g id="edge36" class="edge">
<title>Node26&#45;&gt;Node21</title>
<path fill="none" stroke="midnightblue" d="M1422.8,-447.4C1400.15,-437.77 1369.93,-424.94 1345.52,-414.56"/>
<polygon fill="midnightblue" stroke="midnightblue" points="1346.71,-411.27 1336.13,-410.58 1343.97,-417.71 1346.71,-411.27"/>
</g>
<!-- Node27&#45;&gt;Node21 -->
<g id="edge57" class="edge">
<title>Node27&#45;&gt;Node21</title>
<path fill="none" stroke="midnightblue" d="M751.57,-648.34C774.73,-631.07 815.93,-601.65 854,-581 991.5,-506.44 1165.62,-443.01 1251,-413.77"/>
<polygon fill="midnightblue" stroke="midnightblue" points="1252.13,-417.08 1260.47,-410.54 1249.87,-410.45 1252.13,-417.08"/>
</g>
<!-- Node28 -->
<g id="node28" class="node">
<title>Node28</title>
<g id="a_node28"><a xlink:href="DefCollector_8h.html" target="_top" xlink:title=" ">
<polygon fill="white" stroke="black" points="608,-587 608,-606 768,-606 768,-587 608,-587"/>
<text text-anchor="middle" x="688" y="-594" font-family="Helvetica,sans-Serif" font-size="10.00">boomerang/db/DefCollector.h</text>
</a>
</g>
</g>
<!-- Node27&#45;&gt;Node28 -->
<g id="edge38" class="edge">
<title>Node27&#45;&gt;Node28</title>
<path fill="none" stroke="midnightblue" d="M723.24,-648.4C716.36,-638.46 707.11,-625.11 699.82,-614.57"/>
<polygon fill="midnightblue" stroke="midnightblue" points="702.59,-612.42 694.02,-606.19 696.83,-616.41 702.59,-612.42"/>
</g>
<!-- Node33 -->
<g id="node33" class="node">
<title>Node33</title>
<g id="a_node33"><a xlink:href="UseCollector_8h.html" target="_top" xlink:title=" ">
<polygon fill="white" stroke="black" points="370.5,-587 370.5,-606 531.5,-606 531.5,-587 370.5,-587"/>
<text text-anchor="middle" x="451" y="-594" font-family="Helvetica,sans-Serif" font-size="10.00">boomerang/db/UseCollector.h</text>
</a>
</g>
</g>
<!-- Node27&#45;&gt;Node33 -->
<g id="edge48" class="edge">
<title>Node27&#45;&gt;Node33</title>
<path fill="none" stroke="midnightblue" d="M672.16,-648.48C619.86,-636.42 545.52,-619.29 497.77,-608.28"/>
<polygon fill="midnightblue" stroke="midnightblue" points="498.53,-604.86 488,-606.03 496.96,-611.69 498.53,-604.86"/>
</g>
<!-- Node36 -->
<g id="node36" class="node">
<title>Node36</title>
<g id="a_node36"><a xlink:href="GotoStatement_8h.html" target="_top" xlink:title=" ">
<polygon fill="white" stroke="black" points="860.5,-380.5 860.5,-410.5 1007.5,-410.5 1007.5,-380.5 860.5,-380.5"/>
<text text-anchor="start" x="868.5" y="-398.5" font-family="Helvetica,sans-Serif" font-size="10.00">boomerang/ssl/statements</text>
<text text-anchor="middle" x="934" y="-387.5" font-family="Helvetica,sans-Serif" font-size="10.00">/GotoStatement.h</text>
</a>
</g>
</g>
<!-- Node27&#45;&gt;Node36 -->
<g id="edge58" class="edge">
<title>Node27&#45;&gt;Node36</title>
<path fill="none" stroke="midnightblue" d="M746.05,-648.2C754.99,-638.24 767,-624.55 777,-612 831.49,-543.67 891,-458.92 918.49,-419.13"/>
<polygon fill="midnightblue" stroke="midnightblue" points="921.52,-420.9 924.31,-410.68 915.75,-416.93 921.52,-420.9"/>
</g>
<!-- Node37 -->
<g id="node37" class="node">
<title>Node37</title>
<g id="a_node37"><a xlink:href="StatementList_8h.html" target="_top" xlink:title=" ">
<polygon fill="white" stroke="black" points="862.5,-581.5 862.5,-611.5 1007.5,-611.5 1007.5,-581.5 862.5,-581.5"/>
<text text-anchor="start" x="870.5" y="-599.5" font-family="Helvetica,sans-Serif" font-size="10.00">boomerang/util/Statement</text>
<text text-anchor="middle" x="935" y="-588.5" font-family="Helvetica,sans-Serif" font-size="10.00">List.h</text>
</a>
</g>
</g>
<!-- Node27&#45;&gt;Node37 -->
<g id="edge60" class="edge">
<title>Node27&#45;&gt;Node37</title>
<path fill="none" stroke="midnightblue" d="M776.83,-648.4C807.54,-638.52 848.75,-625.25 881.41,-614.74"/>
<polygon fill="midnightblue" stroke="midnightblue" points="882.81,-617.97 891.25,-611.58 880.66,-611.31 882.81,-617.97"/>
</g>
<!-- Node28&#45;&gt;Node8 -->
<g id="edge39" class="edge">
<title>Node28&#45;&gt;Node8</title>
<path fill="none" stroke="midnightblue" d="M699.55,-586.76C710.84,-577.59 727.63,-562.16 737,-545 754.82,-512.35 756,-500.69 756,-463.5 756,-463.5 756,-463.5 756,-327.5 756,-287.14 757.89,-239.87 759.07,-214.28"/>
<polygon fill="midnightblue" stroke="midnightblue" points="762.58,-214.3 759.56,-204.15 755.58,-213.97 762.58,-214.3"/>
</g>
<!-- Node28&#45;&gt;Node25 -->
<g id="edge47" class="edge">
<title>Node28&#45;&gt;Node25</title>
<path fill="none" stroke="midnightblue" d="M704.09,-586.97C719.39,-578.17 742.2,-563.2 757,-545 782.09,-514.13 794,-503.28 794,-463.5 794,-463.5 794,-463.5 794,-394.5 794,-315.91 824.44,-289.34 890,-246 968.26,-194.26 1006.38,-230.19 1098,-210 1106.2,-208.19 1115.02,-205.95 1123.11,-203.78"/>
<polygon fill="midnightblue" stroke="midnightblue" points="1124.15,-207.12 1132.86,-201.09 1122.29,-200.37 1124.15,-207.12"/>
</g>
<!-- Node29 -->
<g id="node29" class="node">
<title>Node29</title>
<g id="a_node29"><a xlink:href="StatementSet_8h.html" target="_top" xlink:title=" ">
<polygon fill="white" stroke="black" points="582.5,-514.5 582.5,-544.5 727.5,-544.5 727.5,-514.5 582.5,-514.5"/>
<text text-anchor="start" x="590.5" y="-532.5" font-family="Helvetica,sans-Serif" font-size="10.00">boomerang/util/Statement</text>
<text text-anchor="middle" x="655" y="-521.5" font-family="Helvetica,sans-Serif" font-size="10.00">Set.h</text>
</a>
</g>
</g>
<!-- Node28&#45;&gt;Node29 -->
<g id="edge40" class="edge">
<title>Node28&#45;&gt;Node29</title>
<path fill="none" stroke="midnightblue" d="M683.55,-586.73C679.26,-578.29 672.59,-565.14 666.77,-553.68"/>
<polygon fill="midnightblue" stroke="midnightblue" points="669.8,-551.92 662.15,-544.59 663.56,-555.09 669.8,-551.92"/>
</g>
<!-- Node32 -->
<g id="node32" class="node">
<title>Node32</title>
<g id="a_node32"><a xlink:title=" ">
<polygon fill="white" stroke="#bfbfbf" points="517.5,-520 517.5,-539 564.5,-539 564.5,-520 517.5,-520"/>
<text text-anchor="middle" x="541" y="-527" font-family="Helvetica,sans-Serif" font-size="10.00">deque</text>
</a>
</g>
</g>
<!-- Node28&#45;&gt;Node32 -->
<g id="edge46" class="edge">
<title>Node28&#45;&gt;Node32</title>
<path fill="none" stroke="midnightblue" d="M668.48,-586.87C643.22,-575.7 599,-556.15 569.86,-543.26"/>
<polygon fill="midnightblue" stroke="midnightblue" points="571.16,-540.01 560.6,-539.17 568.33,-546.41 571.16,-540.01"/>
</g>
<!-- Node29&#45;&gt;Node9 -->
<g id="edge44" class="edge">
<title>Node29&#45;&gt;Node9</title>
<path fill="none" stroke="midnightblue" d="M582.28,-514.91C510.76,-501.39 411.11,-482.09 403,-478 354.81,-453.71 313,-450.46 313,-396.5 313,-396.5 313,-396.5 313,-260.5 313,-223.31 312.77,-210.84 332,-179 339.33,-166.86 351.05,-156.3 361.51,-148.47"/>
<polygon fill="midnightblue" stroke="midnightblue" points="363.73,-151.19 369.87,-142.55 359.69,-145.47 363.73,-151.19"/>
</g>
<!-- Node29&#45;&gt;Node20 -->
<g id="edge43" class="edge">
<title>Node29&#45;&gt;Node20</title>
<path fill="none" stroke="midnightblue" d="M727.61,-520.59C838.87,-508.48 1050.98,-485.39 1168.47,-472.59"/>
<polygon fill="midnightblue" stroke="midnightblue" points="1168.94,-476.06 1178.5,-471.5 1168.18,-469.11 1168.94,-476.06"/>
</g>
<!-- Node30 -->
<g id="node30" class="node">
<title>Node30</title>
<g id="a_node30"><a xlink:href="Terminal_8h.html" target="_top" xlink:title=" ">
<polygon fill="white" stroke="black" points="564,-386 564,-405 728,-405 728,-386 564,-386"/>
<text text-anchor="middle" x="646" y="-393" font-family="Helvetica,sans-Serif" font-size="10.00">boomerang/ssl/exp/Terminal.h</text>
</a>
</g>
</g>
<!-- Node29&#45;&gt;Node30 -->
<g id="edge41" class="edge">
<title>Node29&#45;&gt;Node30</title>
<path fill="none" stroke="midnightblue" d="M654.04,-514.37C652.41,-490.5 649.11,-442.18 647.29,-415.41"/>
<polygon fill="midnightblue" stroke="midnightblue" points="650.76,-414.84 646.59,-405.1 643.77,-415.31 650.76,-414.84"/>
</g>
<!-- Node31 -->
<g id="node31" class="node">
<title>Node31</title>
<g id="a_node31"><a xlink:title=" ">
<polygon fill="white" stroke="#bfbfbf" points="341,-185 341,-204 427,-204 427,-185 341,-185"/>
<text text-anchor="middle" x="384" y="-192" font-family="Helvetica,sans-Serif" font-size="10.00">unordered_set</text>
</a>
</g>
</g>
<!-- Node29&#45;&gt;Node31 -->
<g id="edge45" class="edge">
<title>Node29&#45;&gt;Node31</title>
<path fill="none" stroke="midnightblue" d="M594.18,-514.48C507.29,-492.65 358,-447.71 358,-396.5 358,-396.5 358,-396.5 358,-327.5 358,-286.2 370.41,-238.97 378.08,-213.71"/>
<polygon fill="midnightblue" stroke="midnightblue" points="381.46,-214.62 381.12,-204.03 374.78,-212.53 381.46,-214.62"/>
</g>
<!-- Node30&#45;&gt;Node7 -->
<g id="edge42" class="edge">
<title>Node30&#45;&gt;Node7</title>
<path fill="none" stroke="midnightblue" d="M645.48,-385.84C644.19,-364.67 640.88,-309.95 639.12,-281.03"/>
<polygon fill="midnightblue" stroke="midnightblue" points="642.62,-280.79 638.52,-271.02 635.63,-281.21 642.62,-280.79"/>
</g>
<!-- Node34 -->
<g id="node34" class="node">
<title>Node34</title>
<g id="a_node34"><a xlink:href="LocationSet_8h.html" target="_top" xlink:title=" ">
<polygon fill="white" stroke="black" points="386,-319 386,-338 546,-338 546,-319 386,-319"/>
<text text-anchor="middle" x="466" y="-326" font-family="Helvetica,sans-Serif" font-size="10.00">boomerang/util/LocationSet.h</text>
</a>
</g>
</g>
<!-- Node33&#45;&gt;Node34 -->
<g id="edge49" class="edge">
<title>Node33&#45;&gt;Node34</title>
<path fill="none" stroke="midnightblue" d="M451.48,-586.95C453.58,-549.75 461.94,-401.45 464.93,-348.45"/>
<polygon fill="midnightblue" stroke="midnightblue" points="468.44,-348.33 465.51,-338.15 461.45,-347.94 468.44,-348.33"/>
</g>
<!-- Node34&#45;&gt;Node7 -->
<g id="edge50" class="edge">
<title>Node34&#45;&gt;Node7</title>
<path fill="none" stroke="midnightblue" d="M488.84,-318.87C518.87,-307.52 571.78,-287.52 605.84,-274.65"/>
<polygon fill="midnightblue" stroke="midnightblue" points="607.22,-277.87 615.34,-271.06 604.75,-271.32 607.22,-277.87"/>
</g>
<!-- Node35 -->
<g id="node35" class="node">
<title>Node35</title>
<g id="a_node35"><a xlink:href="ExpSet_8h.html" target="_top" xlink:title=" ">
<polygon fill="white" stroke="black" points="403.5,-252 403.5,-271 540.5,-271 540.5,-252 403.5,-252"/>
<text text-anchor="middle" x="472" y="-259" font-family="Helvetica,sans-Serif" font-size="10.00">boomerang/util/ExpSet.h</text>
</a>
</g>
</g>
<!-- Node34&#45;&gt;Node35 -->
<g id="edge51" class="edge">
<title>Node34&#45;&gt;Node35</title>
<path fill="none" stroke="midnightblue" d="M466.81,-318.73C467.69,-309.18 469.13,-293.62 470.27,-281.28"/>
<polygon fill="midnightblue" stroke="midnightblue" points="473.77,-281.41 471.2,-271.13 466.8,-280.76 473.77,-281.41"/>
</g>
<!-- Node35&#45;&gt;Node8 -->
<g id="edge52" class="edge">
<title>Node35&#45;&gt;Node8</title>
<path fill="none" stroke="midnightblue" d="M509.95,-251.94C561.96,-240.2 655.41,-219.11 712.16,-206.3"/>
<polygon fill="midnightblue" stroke="midnightblue" points="712.98,-209.7 721.97,-204.08 711.44,-202.87 712.98,-209.7"/>
</g>
<!-- Node35&#45;&gt;Node9 -->
<g id="edge54" class="edge">
<title>Node35&#45;&gt;Node9</title>
<path fill="none" stroke="midnightblue" d="M469.54,-251.75C464.84,-236.08 453.47,-202.63 436,-179 427.46,-167.45 415.46,-156.82 405.14,-148.79"/>
<polygon fill="midnightblue" stroke="midnightblue" points="407.09,-145.88 396.98,-142.7 402.9,-151.49 407.09,-145.88"/>
</g>
<!-- Node35&#45;&gt;Node11 -->
<g id="edge53" class="edge">
<title>Node35&#45;&gt;Node11</title>
<path fill="none" stroke="midnightblue" d="M518.39,-251.96C531.49,-249.77 545.77,-247.59 559,-246 613.09,-239.51 1006.32,-245.08 1048,-210 1064.39,-196.21 1067.8,-170.62 1068,-152.97"/>
<polygon fill="midnightblue" stroke="midnightblue" points="1071.5,-152.64 1067.78,-142.72 1064.5,-152.8 1071.5,-152.64"/>
</g>
<!-- Node35&#45;&gt;Node18 -->
<g id="edge55" class="edge">
<title>Node35&#45;&gt;Node18</title>
<path fill="none" stroke="midnightblue" d="M475.64,-251.73C479.69,-241.99 486.34,-225.98 491.51,-213.53"/>
<polygon fill="midnightblue" stroke="midnightblue" points="494.81,-214.7 495.42,-204.13 488.35,-212.02 494.81,-214.7"/>
</g>
<!-- Node35&#45;&gt;Node31 -->
<g id="edge56" class="edge">
<title>Node35&#45;&gt;Node31</title>
<path fill="none" stroke="midnightblue" d="M460.13,-251.73C445.75,-241.11 421.3,-223.05 403.99,-210.26"/>
<polygon fill="midnightblue" stroke="midnightblue" points="405.8,-207.25 395.68,-204.13 401.64,-212.88 405.8,-207.25"/>
</g>
<!-- Node36&#45;&gt;Node23 -->
<g id="edge59" class="edge">
<title>Node36&#45;&gt;Node23</title>
<path fill="none" stroke="midnightblue" d="M938.07,-380.37C944.52,-357.94 957.2,-313.92 965.1,-286.49"/>
<polygon fill="midnightblue" stroke="midnightblue" points="968.56,-287.1 967.96,-276.52 961.83,-285.17 968.56,-287.1"/>
</g>
<!-- Node37&#45;&gt;Node17 -->
<g id="edge62" class="edge">
<title>Node37&#45;&gt;Node17</title>
<path fill="none" stroke="midnightblue" d="M941.38,-581.1C969.85,-516.86 1084.59,-259.1 1098,-246 1126.46,-218.18 1144.51,-228.01 1180,-210 1180.67,-209.66 1181.35,-209.31 1182.03,-208.95"/>
<polygon fill="midnightblue" stroke="midnightblue" points="1183.82,-211.96 1190.87,-204.06 1180.43,-205.84 1183.82,-211.96"/>
</g>
<!-- Node37&#45;&gt;Node29 -->
<g id="edge61" class="edge">
<title>Node37&#45;&gt;Node29</title>
<path fill="none" stroke="midnightblue" d="M874.59,-581.48C830.85,-571.32 771.6,-557.57 725.67,-546.91"/>
<polygon fill="midnightblue" stroke="midnightblue" points="726.32,-543.46 715.79,-544.61 724.73,-550.28 726.32,-543.46"/>
</g>
<!-- Node38&#45;&gt;Node21 -->
<g id="edge64" class="edge">
<title>Node38&#45;&gt;Node21</title>
<path fill="none" stroke="midnightblue" d="M1553.33,-514.36C1555.45,-496.28 1556.02,-465.16 1539,-447 1518.31,-424.93 1445.88,-411.69 1386.65,-404.34"/>
<polygon fill="midnightblue" stroke="midnightblue" points="1386.87,-400.84 1376.52,-403.12 1386.03,-407.79 1386.87,-400.84"/>
</g>
<!-- Node39&#45;&gt;Node5 -->
<g id="edge72" class="edge">
<title>Node39&#45;&gt;Node5</title>
<path fill="none" stroke="midnightblue" d="M992.41,-721.49C909.36,-712.24 770.27,-696.07 651,-679 641.88,-677.69 632.25,-676.21 622.84,-674.71"/>
<polygon fill="midnightblue" stroke="midnightblue" points="623.17,-671.22 612.74,-673.07 622.05,-678.13 623.17,-671.22"/>
</g>
<!-- Node39&#45;&gt;Node21 -->
<g id="edge73" class="edge">
<title>Node39&#45;&gt;Node21</title>
<path fill="none" stroke="midnightblue" d="M1139.53,-724.61C1209.33,-718.44 1307.54,-705.29 1335,-679 1361.87,-653.28 1354,-634.69 1354,-597.5 1354,-597.5 1354,-597.5 1354,-528.5 1354,-491.31 1349.38,-481.3 1335,-447 1330.99,-437.44 1325.24,-427.65 1319.72,-419.27"/>
<polygon fill="midnightblue" stroke="midnightblue" points="1322.45,-417.07 1313.9,-410.8 1316.68,-421.03 1322.45,-417.07"/>
</g>
<!-- Node40 -->
<g id="node40" class="node">
<title>Node40</title>
<g id="a_node40"><a xlink:href="BasicBlock_8h.html" target="_top" xlink:title=" ">
<polygon fill="white" stroke="black" points="990,-654 990,-673 1142,-673 1142,-654 990,-654"/>
<text text-anchor="middle" x="1066" y="-661" font-family="Helvetica,sans-Serif" font-size="10.00">boomerang/db/BasicBlock.h</text>
</a>
</g>
</g>
<!-- Node39&#45;&gt;Node40 -->
<g id="edge66" class="edge">
<title>Node39&#45;&gt;Node40</title>
<path fill="none" stroke="midnightblue" d="M1066,-715.4C1066,-706.06 1066,-693.71 1066,-683.52"/>
<polygon fill="midnightblue" stroke="midnightblue" points="1069.5,-683.19 1066,-673.19 1062.5,-683.19 1069.5,-683.19"/>
</g>
<!-- Node41 -->
<g id="node41" class="node">
<title>Node41</title>
<g id="a_node41"><a xlink:href="MapIterators_8h.html" target="_top" xlink:title=" ">
<polygon fill="white" stroke="black" points="1160.5,-654 1160.5,-673 1325.5,-673 1325.5,-654 1160.5,-654"/>
<text text-anchor="middle" x="1243" y="-661" font-family="Helvetica,sans-Serif" font-size="10.00">boomerang/util/MapIterators.h</text>
</a>
</g>
</g>
<!-- Node39&#45;&gt;Node41 -->
<g id="edge74" class="edge">
<title>Node39&#45;&gt;Node41</title>
<path fill="none" stroke="midnightblue" d="M1104.41,-715.4C1136.01,-703.79 1180.33,-687.51 1210.27,-676.52"/>
<polygon fill="midnightblue" stroke="midnightblue" points="1211.65,-679.74 1219.83,-673.01 1209.24,-673.17 1211.65,-679.74"/>
</g>
<!-- Node40&#45;&gt;Node9 -->
<g id="edge70" class="edge">
<title>Node40&#45;&gt;Node9</title>
<path fill="none" stroke="midnightblue" d="M1019.78,-653.97C1007.22,-651.83 993.61,-649.67 981,-648 811.94,-625.65 761.42,-663.98 599,-612 578.33,-605.38 449.63,-523.25 430,-514 388.4,-494.4 369.5,-505.97 333,-478 297.71,-450.96 275,-440.96 275,-396.5 275,-396.5 275,-396.5 275,-260.5 275,-220.53 286.61,-209.02 313,-179 324.7,-165.69 341.27,-154.89 355.46,-147.2"/>
<polygon fill="midnightblue" stroke="midnightblue" points="357.08,-150.3 364.37,-142.61 353.87,-144.08 357.08,-150.3"/>
</g>
<!-- Node40&#45;&gt;Node17 -->
<g id="edge69" class="edge">
<title>Node40&#45;&gt;Node17</title>
<path fill="none" stroke="midnightblue" d="M1071.28,-653.9C1083.36,-633.37 1112,-579.52 1112,-530.5 1112,-530.5 1112,-530.5 1112,-327.5 1112,-277.41 1157.3,-232.95 1184.67,-210.65"/>
<polygon fill="midnightblue" stroke="midnightblue" points="1187.15,-213.15 1192.84,-204.21 1182.82,-207.65 1187.15,-213.15"/>
</g>
<!-- Node40&#45;&gt;Node19 -->
<g id="edge71" class="edge">
<title>Node40&#45;&gt;Node19</title>
<path fill="none" stroke="midnightblue" d="M1086.15,-653.95C1121.85,-638.87 1198.61,-606.7 1264,-581 1324.74,-557.13 1487.42,-517.98 1539,-478 1573.93,-450.92 1596,-440.7 1596,-396.5 1596,-396.5 1596,-396.5 1596,-327.5 1596,-259.41 1509.74,-221.23 1460.47,-204.99"/>
<polygon fill="midnightblue" stroke="midnightblue" points="1461.45,-201.62 1450.86,-201.94 1459.33,-208.3 1461.45,-201.62"/>
</g>
<!-- Node40&#45;&gt;Node24 -->
<g id="edge67" class="edge">
<title>Node40&#45;&gt;Node24</title>
<path fill="none" stroke="midnightblue" d="M1062.39,-653.77C1055.46,-637.83 1039.02,-603.57 1017,-581 948.97,-511.28 832,-560.9 832,-463.5 832,-463.5 832,-463.5 832,-327.5 832,-268.71 898.25,-227.68 938.27,-208.26"/>
<polygon fill="midnightblue" stroke="midnightblue" points="939.78,-211.42 947.34,-204.01 936.8,-205.08 939.78,-211.42"/>
</g>
<!-- Node40&#45;&gt;Node37 -->
<g id="edge68" class="edge">
<title>Node40&#45;&gt;Node37</title>
<path fill="none" stroke="midnightblue" d="M1048.6,-653.87C1029.35,-644.31 997.73,-628.63 972.74,-616.22"/>
<polygon fill="midnightblue" stroke="midnightblue" points="974.03,-612.96 963.52,-611.65 970.92,-619.23 974.03,-612.96"/>
</g>
<!-- Node42 -->
<g id="node42" class="node">
<title>Node42</title>
<g id="a_node42"><a xlink:title=" ">
<polygon fill="white" stroke="#bfbfbf" points="1272.5,-587 1272.5,-606 1325.5,-606 1325.5,-587 1272.5,-587"/>
<text text-anchor="middle" x="1299" y="-594" font-family="Helvetica,sans-Serif" font-size="10.00">iterator</text>
</a>
</g>
</g>
<!-- Node41&#45;&gt;Node42 -->
<g id="edge75" class="edge">
<title>Node41&#45;&gt;Node42</title>
<path fill="none" stroke="midnightblue" d="M1250.55,-653.73C1259.28,-643.6 1273.85,-626.69 1284.74,-614.06"/>
<polygon fill="midnightblue" stroke="midnightblue" points="1287.69,-615.99 1291.57,-606.13 1282.39,-611.42 1287.69,-615.99"/>
</g>
<!-- Node43&#45;&gt;Node23 -->
<g id="edge78" class="edge">
<title>Node43&#45;&gt;Node23</title>
<path fill="none" stroke="midnightblue" d="M948.43,-648.37C1000.44,-630.36 1074,-593.71 1074,-530.5 1074,-530.5 1074,-530.5 1074,-461.5 1074,-390.34 1021.7,-319.06 992,-284.31"/>
<polygon fill="midnightblue" stroke="midnightblue" points="994.55,-281.91 985.33,-276.68 989.28,-286.51 994.55,-281.91"/>
</g>
<!-- Node43&#45;&gt;Node28 -->
<g id="edge77" class="edge">
<title>Node43&#45;&gt;Node28</title>
<path fill="none" stroke="midnightblue" d="M852.69,-648.48C814.72,-636.72 761.16,-620.14 725.54,-609.12"/>
<polygon fill="midnightblue" stroke="midnightblue" points="726.14,-605.64 715.55,-606.03 724.07,-612.33 726.14,-605.64"/>
</g>
<!-- Node43&#45;&gt;Node37 -->
<g id="edge79" class="edge">
<title>Node43&#45;&gt;Node37</title>
<path fill="none" stroke="midnightblue" d="M906.03,-648.4C910.68,-640.22 916.66,-629.73 921.97,-620.39"/>
<polygon fill="midnightblue" stroke="midnightblue" points="925.08,-622 926.99,-611.58 919,-618.54 925.08,-622"/>
</g>
<!-- Node45 -->
<g id="node45" class="node">
<title>Node45</title>
<g id="a_node45"><a xlink:href="ExpVisitor_8h.html" target="_top" xlink:title=" ">
<polygon fill="white" stroke="black" points="89,-179.5 89,-209.5 247,-209.5 247,-179.5 89,-179.5"/>
<text text-anchor="start" x="97" y="-197.5" font-family="Helvetica,sans-Serif" font-size="10.00">boomerang/visitor/expvisitor</text>
<text text-anchor="middle" x="168" y="-186.5" font-family="Helvetica,sans-Serif" font-size="10.00">/ExpVisitor.h</text>
</a>
</g>
</g>
<!-- Node44&#45;&gt;Node45 -->
<g id="edge81" class="edge">
<title>Node44&#45;&gt;Node45</title>
<path fill="none" stroke="midnightblue" d="M449.94,-728.32C358.98,-722.28 222,-696.71 222,-597.5 222,-597.5 222,-597.5 222,-327.5 222,-286.7 199.63,-243.74 183.69,-218.3"/>
<polygon fill="midnightblue" stroke="midnightblue" points="186.53,-216.25 178.16,-209.76 180.65,-220.05 186.53,-216.25"/>
</g>
<!-- Node45&#45;&gt;Node4 -->
<g id="edge82" class="edge">
<title>Node45&#45;&gt;Node4</title>
<path fill="none" stroke="midnightblue" d="M197.54,-179.43C232.3,-163.44 292.12,-137.66 346,-123 425,-101.51 517.47,-88.25 583.53,-80.74"/>
<polygon fill="midnightblue" stroke="midnightblue" points="583.94,-84.22 593.49,-79.63 583.16,-77.26 583.94,-84.22"/>
</g>
<!-- Node45&#45;&gt;Node9 -->
<g id="edge83" class="edge">
<title>Node45&#45;&gt;Node9</title>
<path fill="none" stroke="midnightblue" d="M218.92,-179.47C257.51,-168.84 309.76,-154.45 345.06,-144.73"/>
<polygon fill="midnightblue" stroke="midnightblue" points="346.27,-148.02 354.98,-141.99 344.41,-141.27 346.27,-148.02"/>
</g>
</g>
</svg>
