<?xml version="1.0" encoding="UTF-8" standalone="no"?>
<!DOCTYPE svg PUBLIC "-//W3C//DTD SVG 1.1//EN"
 "http://www.w3.org/Graphics/SVG/1.1/DTD/svg11.dtd">
<!-- Generated by graphviz version 2.43.0 (0)
 -->
<!-- Title: UsedLocalFinder.cpp Pages: 1 -->
<svg width="1726pt" height="721pt"
 viewBox="0.00 0.00 1725.50 721.00" xmlns="http://www.w3.org/2000/svg" xmlns:xlink="http://www.w3.org/1999/xlink">
<g id="graph0" class="graph" transform="scale(1 1) rotate(0) translate(4 717)">
<title>UsedLocalFinder.cpp</title>
<polygon fill="white" stroke="transparent" points="-4,4 -4,-717 1721.5,-717 1721.5,4 -4,4"/>
<!-- Node1 -->
<g id="node1" class="node">
<title>Node1</title>
<g id="a_node1"><a xlink:title=" ">
<polygon fill="#bfbfbf" stroke="black" points="1192,-693.5 1192,-712.5 1308,-712.5 1308,-693.5 1192,-693.5"/>
<text text-anchor="middle" x="1250" y="-700.5" font-family="Helvetica,sans-Serif" font-size="10.00">UsedLocalFinder.cpp</text>
</a>
</g>
</g>
<!-- Node2 -->
<g id="node2" class="node">
<title>Node2</title>
<g id="a_node2"><a xlink:href="UsedLocalFinder_8h.html" target="_top" xlink:title=" ">
<polygon fill="white" stroke="black" points="291.5,-514.5 291.5,-533.5 396.5,-533.5 396.5,-514.5 291.5,-514.5"/>
<text text-anchor="middle" x="344" y="-521.5" font-family="Helvetica,sans-Serif" font-size="10.00">UsedLocalFinder.h</text>
</a>
</g>
</g>
<!-- Node1&#45;&gt;Node2 -->
<g id="edge1" class="edge">
<title>Node1&#45;&gt;Node2</title>
<path fill="none" stroke="midnightblue" d="M1191.99,-700.65C1066.12,-696.3 759.76,-677.97 517,-601 462.64,-583.76 402.33,-554.89 369.22,-538.13"/>
<polygon fill="midnightblue" stroke="midnightblue" points="370.74,-534.98 360.24,-533.55 367.56,-541.21 370.74,-534.98"/>
</g>
<!-- Node6 -->
<g id="node6" class="node">
<title>Node6</title>
<g id="a_node6"><a xlink:href="UserProc_8h.html" target="_top" xlink:title=" ">
<polygon fill="white" stroke="black" points="802.5,-637.5 802.5,-656.5 969.5,-656.5 969.5,-637.5 802.5,-637.5"/>
<text text-anchor="middle" x="886" y="-644.5" font-family="Helvetica,sans-Serif" font-size="10.00">boomerang/db/proc/UserProc.h</text>
</a>
</g>
</g>
<!-- Node1&#45;&gt;Node6 -->
<g id="edge5" class="edge">
<title>Node1&#45;&gt;Node6</title>
<path fill="none" stroke="midnightblue" d="M1192.32,-693.44C1127.49,-683.83 1022.35,-668.23 953.68,-658.04"/>
<polygon fill="midnightblue" stroke="midnightblue" points="953.81,-654.52 943.41,-656.52 952.79,-661.45 953.81,-654.52"/>
</g>
<!-- Node33 -->
<g id="node33" class="node">
<title>Node33</title>
<g id="a_node33"><a xlink:href="Terminal_8h.html" target="_top" xlink:title=" ">
<polygon fill="white" stroke="black" points="1115,-453 1115,-472 1279,-472 1279,-453 1115,-453"/>
<text text-anchor="middle" x="1197" y="-460" font-family="Helvetica,sans-Serif" font-size="10.00">boomerang/ssl/exp/Terminal.h</text>
</a>
</g>
</g>
<!-- Node1&#45;&gt;Node33 -->
<g id="edge78" class="edge">
<title>Node1&#45;&gt;Node33</title>
<path fill="none" stroke="midnightblue" d="M1240.19,-693.46C1231.37,-685.13 1218.93,-671.62 1213,-657 1188.64,-596.94 1191.85,-517.95 1194.95,-482.34"/>
<polygon fill="midnightblue" stroke="midnightblue" points="1198.47,-482.31 1195.96,-472.02 1191.5,-481.63 1198.47,-482.31"/>
</g>
<!-- Node38 -->
<g id="node38" class="node">
<title>Node38</title>
<g id="a_node38"><a xlink:href="Location_8h.html" target="_top" xlink:title=" ">
<polygon fill="white" stroke="black" points="1335.5,-386 1335.5,-405 1498.5,-405 1498.5,-386 1335.5,-386"/>
<text text-anchor="middle" x="1417" y="-393" font-family="Helvetica,sans-Serif" font-size="10.00">boomerang/ssl/exp/Location.h</text>
</a>
</g>
</g>
<!-- Node1&#45;&gt;Node38 -->
<g id="edge68" class="edge">
<title>Node1&#45;&gt;Node38</title>
<path fill="none" stroke="midnightblue" d="M1308.27,-697.81C1339.11,-692.63 1375.38,-681.34 1399,-657 1421.6,-633.71 1418,-618.95 1418,-586.5 1418,-586.5 1418,-586.5 1418,-523 1418,-484.7 1417.54,-439.88 1417.24,-415.2"/>
<polygon fill="midnightblue" stroke="midnightblue" points="1420.74,-415.05 1417.11,-405.09 1413.74,-415.13 1420.74,-415.05"/>
</g>
<!-- Node43 -->
<g id="node43" class="node">
<title>Node43</title>
<g id="a_node43"><a xlink:href="TypedExp_8h.html" target="_top" xlink:title=" ">
<polygon fill="white" stroke="black" points="1222,-637.5 1222,-656.5 1390,-656.5 1390,-637.5 1222,-637.5"/>
<text text-anchor="middle" x="1306" y="-644.5" font-family="Helvetica,sans-Serif" font-size="10.00">boomerang/ssl/exp/TypedExp.h</text>
</a>
</g>
</g>
<!-- Node1&#45;&gt;Node43 -->
<g id="edge79" class="edge">
<title>Node1&#45;&gt;Node43</title>
<path fill="none" stroke="midnightblue" d="M1259,-693.32C1267.19,-685.42 1279.51,-673.55 1289.47,-663.94"/>
<polygon fill="midnightblue" stroke="midnightblue" points="1292.07,-666.29 1296.84,-656.83 1287.21,-661.26 1292.07,-666.29"/>
</g>
<!-- Node44 -->
<g id="node44" class="node">
<title>Node44</title>
<g id="a_node44"><a xlink:href="Type_8h.html" target="_top" xlink:title=" ">
<polygon fill="white" stroke="black" points="1406.5,-179.5 1406.5,-209.5 1519.5,-209.5 1519.5,-179.5 1406.5,-179.5"/>
<text text-anchor="start" x="1414.5" y="-197.5" font-family="Helvetica,sans-Serif" font-size="10.00">boomerang/ssl/type</text>
<text text-anchor="middle" x="1463" y="-186.5" font-family="Helvetica,sans-Serif" font-size="10.00">/Type.h</text>
</a>
</g>
</g>
<!-- Node1&#45;&gt;Node44 -->
<g id="edge81" class="edge">
<title>Node1&#45;&gt;Node44</title>
<path fill="none" stroke="midnightblue" d="M1308.07,-702.33C1389.29,-699.39 1527,-680.55 1527,-586.5 1527,-586.5 1527,-586.5 1527,-327.5 1527,-285.58 1500.54,-243 1481.65,-217.94"/>
<polygon fill="midnightblue" stroke="midnightblue" points="1484.25,-215.57 1475.34,-209.83 1478.72,-219.87 1484.25,-215.57"/>
</g>
<!-- Node3 -->
<g id="node3" class="node">
<title>Node3</title>
<g id="a_node3"><a xlink:href="ExpVisitor_8h.html" target="_top" xlink:title=" ">
<polygon fill="white" stroke="black" points="0,-179.5 0,-209.5 158,-209.5 158,-179.5 0,-179.5"/>
<text text-anchor="start" x="8" y="-197.5" font-family="Helvetica,sans-Serif" font-size="10.00">boomerang/visitor/expvisitor</text>
<text text-anchor="middle" x="79" y="-186.5" font-family="Helvetica,sans-Serif" font-size="10.00">/ExpVisitor.h</text>
</a>
</g>
</g>
<!-- Node2&#45;&gt;Node3 -->
<g id="edge2" class="edge">
<title>Node2&#45;&gt;Node3</title>
<path fill="none" stroke="midnightblue" d="M318.73,-514.49C276.7,-498.55 197,-459.97 197,-396.5 197,-396.5 197,-396.5 197,-327.5 197,-277.06 148.52,-237.05 113.71,-214.82"/>
<polygon fill="midnightblue" stroke="midnightblue" points="115.53,-211.84 105.19,-209.56 111.86,-217.79 115.53,-211.84"/>
</g>
<!-- Node4 -->
<g id="node4" class="node">
<title>Node4</title>
<g id="a_node4"><a xlink:href="BoomerangAPI_8h.html" target="_top" xlink:title=" ">
<polygon fill="white" stroke="black" points="617.5,-56.5 617.5,-86.5 772.5,-86.5 772.5,-56.5 617.5,-56.5"/>
<text text-anchor="start" x="625.5" y="-74.5" font-family="Helvetica,sans-Serif" font-size="10.00">boomerang/core/Boomerang</text>
<text text-anchor="middle" x="695" y="-63.5" font-family="Helvetica,sans-Serif" font-size="10.00">API.h</text>
</a>
</g>
</g>
<!-- Node3&#45;&gt;Node4 -->
<g id="edge3" class="edge">
<title>Node3&#45;&gt;Node4</title>
<path fill="none" stroke="midnightblue" d="M139.56,-179.44C204.34,-164.61 310.18,-140.92 402,-123 470.84,-109.56 549.16,-96.16 607.49,-86.54"/>
<polygon fill="midnightblue" stroke="midnightblue" points="608.11,-89.99 617.41,-84.91 606.97,-83.08 608.11,-89.99"/>
</g>
<!-- Node5 -->
<g id="node5" class="node">
<title>Node5</title>
<g id="a_node5"><a xlink:title=" ">
<polygon fill="white" stroke="#bfbfbf" points="1043,-123.5 1043,-142.5 1101,-142.5 1101,-123.5 1043,-123.5"/>
<text text-anchor="middle" x="1072" y="-130.5" font-family="Helvetica,sans-Serif" font-size="10.00">memory</text>
</a>
</g>
</g>
<!-- Node3&#45;&gt;Node5 -->
<g id="edge4" class="edge">
<title>Node3&#45;&gt;Node5</title>
<path fill="none" stroke="midnightblue" d="M158.09,-180.01C161.1,-179.64 164.07,-179.3 167,-179 533.82,-140.95 628.41,-172.71 996,-143 1007.98,-142.03 1020.99,-140.62 1032.8,-139.21"/>
<polygon fill="midnightblue" stroke="midnightblue" points="1033.32,-142.67 1042.82,-137.97 1032.46,-135.72 1033.32,-142.67"/>
</g>
<!-- Node7 -->
<g id="node7" class="node">
<title>Node7</title>
<g id="a_node7"><a xlink:href="DataFlow_8h.html" target="_top" xlink:title=" ">
<polygon fill="white" stroke="black" points="605.5,-386 605.5,-405 750.5,-405 750.5,-386 605.5,-386"/>
<text text-anchor="middle" x="678" y="-393" font-family="Helvetica,sans-Serif" font-size="10.00">boomerang/db/DataFlow.h</text>
</a>
</g>
</g>
<!-- Node6&#45;&gt;Node7 -->
<g id="edge6" class="edge">
<title>Node6&#45;&gt;Node7</title>
<path fill="none" stroke="midnightblue" d="M822.43,-637.48C777.78,-630.14 723.38,-618.03 708,-601 660.4,-548.28 668.47,-454.84 674.58,-415.16"/>
<polygon fill="midnightblue" stroke="midnightblue" points="678.04,-415.71 676.24,-405.27 671.14,-414.55 678.04,-415.71"/>
</g>
<!-- Node25 -->
<g id="node25" class="node">
<title>Node25</title>
<g id="a_node25"><a xlink:href="UseCollector_8h.html" target="_top" xlink:title=" ">
<polygon fill="white" stroke="black" points="717.5,-576 717.5,-595 878.5,-595 878.5,-576 717.5,-576"/>
<text text-anchor="middle" x="798" y="-583" font-family="Helvetica,sans-Serif" font-size="10.00">boomerang/db/UseCollector.h</text>
</a>
</g>
</g>
<!-- Node6&#45;&gt;Node25 -->
<g id="edge33" class="edge">
<title>Node6&#45;&gt;Node25</title>
<path fill="none" stroke="midnightblue" d="M873.39,-637.48C859.28,-627.93 836.17,-612.31 819.25,-600.87"/>
<polygon fill="midnightblue" stroke="midnightblue" points="820.83,-597.71 810.58,-595.01 816.91,-603.51 820.83,-597.71"/>
</g>
<!-- Node26 -->
<g id="node26" class="node">
<title>Node26</title>
<g id="a_node26"><a xlink:href="Proc_8h.html" target="_top" xlink:title=" ">
<polygon fill="white" stroke="black" points="459,-252 459,-271 603,-271 603,-252 459,-252"/>
<text text-anchor="middle" x="531" y="-259" font-family="Helvetica,sans-Serif" font-size="10.00">boomerang/db/proc/Proc.h</text>
</a>
</g>
</g>
<!-- Node6&#45;&gt;Node26 -->
<g id="edge35" class="edge">
<title>Node6&#45;&gt;Node26</title>
<path fill="none" stroke="midnightblue" d="M821.3,-637.45C718.91,-622.09 531,-585.64 531,-525 531,-525 531,-525 531,-394.5 531,-354.16 531,-306.88 531,-281.28"/>
<polygon fill="midnightblue" stroke="midnightblue" points="534.5,-281.15 531,-271.15 527.5,-281.15 534.5,-281.15"/>
</g>
<!-- Node28 -->
<g id="node28" class="node">
<title>Node28</title>
<g id="a_node28"><a xlink:href="ProcCFG_8h.html" target="_top" xlink:title=" ">
<polygon fill="white" stroke="black" points="879,-252 879,-271 1043,-271 1043,-252 879,-252"/>
<text text-anchor="middle" x="961" y="-259" font-family="Helvetica,sans-Serif" font-size="10.00">boomerang/db/proc/ProcCFG.h</text>
</a>
</g>
</g>
<!-- Node6&#45;&gt;Node28 -->
<g id="edge45" class="edge">
<title>Node6&#45;&gt;Node28</title>
<path fill="none" stroke="midnightblue" d="M947.62,-637.45C989.98,-630.16 1040.86,-618.13 1054,-601 1063.51,-588.61 1127.44,-443.63 1050,-313 1039.2,-294.78 1019.16,-282.58 1000.82,-274.74"/>
<polygon fill="midnightblue" stroke="midnightblue" points="1002.03,-271.46 991.45,-271.03 999.46,-277.97 1002.03,-271.46"/>
</g>
<!-- Node31 -->
<g id="node31" class="node">
<title>Node31</title>
<g id="a_node31"><a xlink:href="StatementList_8h.html" target="_top" xlink:title=" ">
<polygon fill="white" stroke="black" points="900.5,-570.5 900.5,-600.5 1045.5,-600.5 1045.5,-570.5 900.5,-570.5"/>
<text text-anchor="start" x="908.5" y="-588.5" font-family="Helvetica,sans-Serif" font-size="10.00">boomerang/util/Statement</text>
<text text-anchor="middle" x="973" y="-577.5" font-family="Helvetica,sans-Serif" font-size="10.00">List.h</text>
</a>
</g>
</g>
<!-- Node6&#45;&gt;Node31 -->
<g id="edge53" class="edge">
<title>Node6&#45;&gt;Node31</title>
<path fill="none" stroke="midnightblue" d="M898.46,-637.48C910.36,-629.34 928.71,-616.79 944.23,-606.18"/>
<polygon fill="midnightblue" stroke="midnightblue" points="946.22,-609.06 952.5,-600.52 942.27,-603.28 946.22,-609.06"/>
</g>
<!-- Node8 -->
<g id="node8" class="node">
<title>Node8</title>
<g id="a_node8"><a xlink:href="LocationSet_8h.html" target="_top" xlink:title=" ">
<polygon fill="white" stroke="black" points="716,-319 716,-338 876,-338 876,-319 716,-319"/>
<text text-anchor="middle" x="796" y="-326" font-family="Helvetica,sans-Serif" font-size="10.00">boomerang/util/LocationSet.h</text>
</a>
</g>
</g>
<!-- Node7&#45;&gt;Node8 -->
<g id="edge7" class="edge">
<title>Node7&#45;&gt;Node8</title>
<path fill="none" stroke="midnightblue" d="M693.91,-385.73C713.82,-374.77 748.11,-355.88 771.4,-343.05"/>
<polygon fill="midnightblue" stroke="midnightblue" points="773.27,-346.02 780.34,-338.13 769.89,-339.89 773.27,-346.02"/>
</g>
<!-- Node23 -->
<g id="node23" class="node">
<title>Node23</title>
<g id="a_node23"><a xlink:title=" ">
<polygon fill="white" stroke="#bfbfbf" points="822,-185 822,-204 860,-204 860,-185 822,-185"/>
<text text-anchor="middle" x="841" y="-192" font-family="Helvetica,sans-Serif" font-size="10.00">map</text>
</a>
</g>
</g>
<!-- Node7&#45;&gt;Node23 -->
<g id="edge31" class="edge">
<title>Node7&#45;&gt;Node23</title>
<path fill="none" stroke="midnightblue" d="M678.97,-385.83C681.19,-369.69 688.01,-334.7 707,-313 730.04,-286.67 750.02,-299.27 777,-277 799.48,-258.45 819.14,-230.74 830.54,-212.89"/>
<polygon fill="midnightblue" stroke="midnightblue" points="833.69,-214.45 835.99,-204.11 827.75,-210.76 833.69,-214.45"/>
</g>
<!-- Node24 -->
<g id="node24" class="node">
<title>Node24</title>
<g id="a_node24"><a xlink:title=" ">
<polygon fill="white" stroke="#bfbfbf" points="566.5,-319 566.5,-338 659.5,-338 659.5,-319 566.5,-319"/>
<text text-anchor="middle" x="613" y="-326" font-family="Helvetica,sans-Serif" font-size="10.00">unordered_map</text>
</a>
</g>
</g>
<!-- Node7&#45;&gt;Node24 -->
<g id="edge32" class="edge">
<title>Node7&#45;&gt;Node24</title>
<path fill="none" stroke="midnightblue" d="M669.23,-385.73C658.9,-375.4 641.54,-358.04 628.83,-345.33"/>
<polygon fill="midnightblue" stroke="midnightblue" points="631.17,-342.72 621.63,-338.13 626.22,-347.67 631.17,-342.72"/>
</g>
<!-- Node9 -->
<g id="node9" class="node">
<title>Node9</title>
<g id="a_node9"><a xlink:href="Exp_8h.html" target="_top" xlink:title=" ">
<polygon fill="white" stroke="black" points="1136,-252 1136,-271 1276,-271 1276,-252 1136,-252"/>
<text text-anchor="middle" x="1206" y="-259" font-family="Helvetica,sans-Serif" font-size="10.00">boomerang/ssl/exp/Exp.h</text>
</a>
</g>
</g>
<!-- Node8&#45;&gt;Node9 -->
<g id="edge8" class="edge">
<title>Node8&#45;&gt;Node9</title>
<path fill="none" stroke="midnightblue" d="M848.23,-318.94C860.3,-316.98 873.1,-314.91 885,-313 973.7,-298.8 1076.25,-282.73 1141.1,-272.6"/>
<polygon fill="midnightblue" stroke="midnightblue" points="1141.83,-276.03 1151.17,-271.03 1140.75,-269.12 1141.83,-276.03"/>
</g>
<!-- Node21 -->
<g id="node21" class="node">
<title>Node21</title>
<g id="a_node21"><a xlink:href="ExpSet_8h.html" target="_top" xlink:title=" ">
<polygon fill="white" stroke="black" points="303.5,-252 303.5,-271 440.5,-271 440.5,-252 303.5,-252"/>
<text text-anchor="middle" x="372" y="-259" font-family="Helvetica,sans-Serif" font-size="10.00">boomerang/util/ExpSet.h</text>
</a>
</g>
</g>
<!-- Node8&#45;&gt;Node21 -->
<g id="edge25" class="edge">
<title>Node8&#45;&gt;Node21</title>
<path fill="none" stroke="midnightblue" d="M732.43,-318.98C662.94,-309.48 548.37,-293.32 450,-277 442.26,-275.72 434.11,-274.29 426.1,-272.84"/>
<polygon fill="midnightblue" stroke="midnightblue" points="426.55,-269.36 416.09,-271 425.29,-276.25 426.55,-269.36"/>
</g>
<!-- Node9&#45;&gt;Node5 -->
<g id="edge22" class="edge">
<title>Node9&#45;&gt;Node5</title>
<path fill="none" stroke="midnightblue" d="M1204.79,-251.71C1202.1,-235.37 1194.21,-200.06 1174,-179 1156.99,-161.28 1131.78,-150.07 1110.68,-143.27"/>
<polygon fill="midnightblue" stroke="midnightblue" points="1111.6,-139.89 1101.01,-140.36 1109.58,-146.59 1111.6,-139.89"/>
</g>
<!-- Node10 -->
<g id="node10" class="node">
<title>Node10</title>
<g id="a_node10"><a xlink:href="ExpHelp_8h.html" target="_top" xlink:title=" ">
<polygon fill="white" stroke="black" points="444,-185 444,-204 606,-204 606,-185 444,-185"/>
<text text-anchor="middle" x="525" y="-192" font-family="Helvetica,sans-Serif" font-size="10.00">boomerang/ssl/exp/ExpHelp.h</text>
</a>
</g>
</g>
<!-- Node9&#45;&gt;Node10 -->
<g id="edge9" class="edge">
<title>Node9&#45;&gt;Node10</title>
<path fill="none" stroke="midnightblue" d="M1135.87,-253.72C1109.57,-251.23 1079.42,-248.42 1052,-246 857.87,-228.87 808.46,-233.52 615,-210 604.76,-208.76 593.9,-207.2 583.4,-205.58"/>
<polygon fill="midnightblue" stroke="midnightblue" points="583.9,-202.12 573.48,-204.02 582.81,-209.03 583.9,-202.12"/>
</g>
<!-- Node11 -->
<g id="node11" class="node">
<title>Node11</title>
<g id="a_node11"><a xlink:href="Operator_8h.html" target="_top" xlink:title=" ">
<polygon fill="white" stroke="black" points="1119,-123.5 1119,-142.5 1283,-142.5 1283,-123.5 1119,-123.5"/>
<text text-anchor="middle" x="1201" y="-130.5" font-family="Helvetica,sans-Serif" font-size="10.00">boomerang/ssl/exp/Operator.h</text>
</a>
</g>
</g>
<!-- Node9&#45;&gt;Node11 -->
<g id="edge12" class="edge">
<title>Node9&#45;&gt;Node11</title>
<path fill="none" stroke="midnightblue" d="M1207.72,-251.91C1210.46,-237.02 1215.19,-205.48 1212,-179 1210.93,-170.11 1208.71,-160.43 1206.54,-152.34"/>
<polygon fill="midnightblue" stroke="midnightblue" points="1209.84,-151.17 1203.73,-142.51 1203.11,-153.09 1209.84,-151.17"/>
</g>
<!-- Node12 -->
<g id="node12" class="node">
<title>Node12</title>
<g id="a_node12"><a xlink:href="OStream_8h.html" target="_top" xlink:title=" ">
<polygon fill="white" stroke="black" points="726,-123.5 726,-142.5 872,-142.5 872,-123.5 726,-123.5"/>
<text text-anchor="middle" x="799" y="-130.5" font-family="Helvetica,sans-Serif" font-size="10.00">boomerang/util/OStream.h</text>
</a>
</g>
</g>
<!-- Node9&#45;&gt;Node12 -->
<g id="edge14" class="edge">
<title>Node9&#45;&gt;Node12</title>
<path fill="none" stroke="midnightblue" d="M1200.29,-251.78C1187.57,-232.64 1156.76,-187.9 1141,-179 1118.93,-166.53 976.43,-150.87 882.47,-141.69"/>
<polygon fill="midnightblue" stroke="midnightblue" points="882.69,-138.2 872.4,-140.72 882.01,-145.17 882.69,-138.2"/>
</g>
<!-- Node16 -->
<g id="node16" class="node">
<title>Node16</title>
<g id="a_node16"><a xlink:title=" ">
<polygon fill="white" stroke="#bfbfbf" points="1301.5,-123.5 1301.5,-142.5 1354.5,-142.5 1354.5,-123.5 1301.5,-123.5"/>
<text text-anchor="middle" x="1328" y="-130.5" font-family="Helvetica,sans-Serif" font-size="10.00">QString</text>
</a>
</g>
</g>
<!-- Node9&#45;&gt;Node16 -->
<g id="edge19" class="edge">
<title>Node9&#45;&gt;Node16</title>
<path fill="none" stroke="midnightblue" d="M1251.05,-251.97C1275.41,-244.93 1303.75,-232.31 1320,-210 1331.93,-193.62 1332.47,-169.73 1330.97,-153.12"/>
<polygon fill="midnightblue" stroke="midnightblue" points="1334.41,-152.47 1329.71,-142.97 1327.47,-153.32 1334.41,-152.47"/>
</g>
<!-- Node17 -->
<g id="node17" class="node">
<title>Node17</title>
<g id="a_node17"><a xlink:title=" ">
<polygon fill="white" stroke="#bfbfbf" points="1449,-123.5 1449,-142.5 1501,-142.5 1501,-123.5 1449,-123.5"/>
<text text-anchor="middle" x="1475" y="-130.5" font-family="Helvetica,sans-Serif" font-size="10.00">cassert</text>
</a>
</g>
</g>
<!-- Node9&#45;&gt;Node17 -->
<g id="edge20" class="edge">
<title>Node9&#45;&gt;Node17</title>
<path fill="none" stroke="midnightblue" d="M1276.3,-259.72C1361.1,-257.12 1496.28,-247.09 1528,-210 1536.96,-199.53 1533.79,-191.5 1528,-179 1522.08,-166.21 1510.53,-155.72 1499.72,-148.1"/>
<polygon fill="midnightblue" stroke="midnightblue" points="1501.62,-145.16 1491.33,-142.61 1497.79,-151.02 1501.62,-145.16"/>
</g>
<!-- Node18 -->
<g id="node18" class="node">
<title>Node18</title>
<g id="a_node18"><a xlink:title=" ">
<polygon fill="white" stroke="#bfbfbf" points="1100,-185 1100,-204 1132,-204 1132,-185 1100,-185"/>
<text text-anchor="middle" x="1116" y="-192" font-family="Helvetica,sans-Serif" font-size="10.00">list</text>
</a>
</g>
</g>
<!-- Node9&#45;&gt;Node18 -->
<g id="edge21" class="edge">
<title>Node9&#45;&gt;Node18</title>
<path fill="none" stroke="midnightblue" d="M1193.86,-251.73C1179.15,-241.11 1154.14,-223.05 1136.44,-210.26"/>
<polygon fill="midnightblue" stroke="midnightblue" points="1138.1,-207.14 1127.95,-204.13 1134,-212.82 1138.1,-207.14"/>
</g>
<!-- Node19 -->
<g id="node19" class="node">
<title>Node19</title>
<g id="a_node19"><a xlink:title=" ">
<polygon fill="white" stroke="#bfbfbf" points="356,-185 356,-204 388,-204 388,-185 356,-185"/>
<text text-anchor="middle" x="372" y="-192" font-family="Helvetica,sans-Serif" font-size="10.00">set</text>
</a>
</g>
</g>
<!-- Node9&#45;&gt;Node19 -->
<g id="edge23" class="edge">
<title>Node9&#45;&gt;Node19</title>
<path fill="none" stroke="midnightblue" d="M1135.9,-253.37C1109.6,-250.83 1079.45,-248.09 1052,-246 778.11,-225.12 706.91,-248.94 435,-210 422.79,-208.25 409.46,-205.33 398.21,-202.57"/>
<polygon fill="midnightblue" stroke="midnightblue" points="398.73,-199.09 388.18,-200.01 397,-205.87 398.73,-199.09"/>
</g>
<!-- Node20 -->
<g id="node20" class="node">
<title>Node20</title>
<g id="a_node20"><a xlink:title=" ">
<polygon fill="white" stroke="#bfbfbf" points="1264.5,-185 1264.5,-204 1311.5,-204 1311.5,-185 1264.5,-185"/>
<text text-anchor="middle" x="1288" y="-192" font-family="Helvetica,sans-Serif" font-size="10.00">vector</text>
</a>
</g>
</g>
<!-- Node9&#45;&gt;Node20 -->
<g id="edge24" class="edge">
<title>Node9&#45;&gt;Node20</title>
<path fill="none" stroke="midnightblue" d="M1217.06,-251.73C1230.34,-241.21 1252.83,-223.38 1268.93,-210.62"/>
<polygon fill="midnightblue" stroke="midnightblue" points="1271.45,-213.08 1277.12,-204.13 1267.11,-207.6 1271.45,-213.08"/>
</g>
<!-- Node10&#45;&gt;Node4 -->
<g id="edge10" class="edge">
<title>Node10&#45;&gt;Node4</title>
<path fill="none" stroke="midnightblue" d="M536.95,-184.99C563.68,-165.97 628.89,-119.56 666.67,-92.67"/>
<polygon fill="midnightblue" stroke="midnightblue" points="669.07,-95.25 675.19,-86.6 665.01,-89.55 669.07,-95.25"/>
</g>
<!-- Node10&#45;&gt;Node5 -->
<g id="edge11" class="edge">
<title>Node10&#45;&gt;Node5</title>
<path fill="none" stroke="midnightblue" d="M574.43,-184.94C587.59,-182.82 601.81,-180.68 615,-179 783.72,-157.46 826.87,-161 996,-143 1007.96,-141.73 1020.96,-140.23 1032.77,-138.83"/>
<polygon fill="midnightblue" stroke="midnightblue" points="1033.27,-142.29 1042.79,-137.62 1032.44,-135.34 1033.27,-142.29"/>
</g>
<!-- Node11&#45;&gt;Node4 -->
<g id="edge13" class="edge">
<title>Node11&#45;&gt;Node4</title>
<path fill="none" stroke="midnightblue" d="M1118.98,-123.76C1020.59,-113.79 860.28,-97.21 783.08,-87.07"/>
<polygon fill="midnightblue" stroke="midnightblue" points="783.13,-83.55 772.75,-85.69 782.2,-90.49 783.13,-83.55"/>
</g>
<!-- Node12&#45;&gt;Node4 -->
<g id="edge15" class="edge">
<title>Node12&#45;&gt;Node4</title>
<path fill="none" stroke="midnightblue" d="M784.1,-123.48C769.62,-115.19 747.13,-102.32 728.37,-91.59"/>
<polygon fill="midnightblue" stroke="midnightblue" points="729.93,-88.45 719.51,-86.52 726.45,-94.53 729.93,-88.45"/>
</g>
<!-- Node13 -->
<g id="node13" class="node">
<title>Node13</title>
<g id="a_node13"><a xlink:href="Types_8h.html" target="_top" xlink:title=" ">
<polygon fill="white" stroke="black" points="1105.5,-62 1105.5,-81 1236.5,-81 1236.5,-62 1105.5,-62"/>
<text text-anchor="middle" x="1171" y="-69" font-family="Helvetica,sans-Serif" font-size="10.00">boomerang/util/Types.h</text>
</a>
</g>
</g>
<!-- Node12&#45;&gt;Node13 -->
<g id="edge16" class="edge">
<title>Node12&#45;&gt;Node13</title>
<path fill="none" stroke="midnightblue" d="M852.3,-123.48C919.7,-112.69 1035.61,-94.15 1107.52,-82.65"/>
<polygon fill="midnightblue" stroke="midnightblue" points="1108.48,-86.04 1117.8,-81.01 1107.37,-79.13 1108.48,-86.04"/>
</g>
<!-- Node15 -->
<g id="node15" class="node">
<title>Node15</title>
<g id="a_node15"><a xlink:title=" ">
<polygon fill="white" stroke="#bfbfbf" points="791,-62 791,-81 837,-81 837,-62 791,-62"/>
<text text-anchor="middle" x="814" y="-69" font-family="Helvetica,sans-Serif" font-size="10.00">cstdio</text>
</a>
</g>
</g>
<!-- Node12&#45;&gt;Node15 -->
<g id="edge18" class="edge">
<title>Node12&#45;&gt;Node15</title>
<path fill="none" stroke="midnightblue" d="M801.15,-123.48C803.29,-114.99 806.64,-101.7 809.38,-90.82"/>
<polygon fill="midnightblue" stroke="midnightblue" points="812.8,-91.56 811.85,-81.01 806.02,-89.85 812.8,-91.56"/>
</g>
<!-- Node14 -->
<g id="node14" class="node">
<title>Node14</title>
<g id="a_node14"><a xlink:title=" ">
<polygon fill="white" stroke="#bfbfbf" points="1146,-0.5 1146,-19.5 1196,-19.5 1196,-0.5 1146,-0.5"/>
<text text-anchor="middle" x="1171" y="-7.5" font-family="Helvetica,sans-Serif" font-size="10.00">cstdint</text>
</a>
</g>
</g>
<!-- Node13&#45;&gt;Node14 -->
<g id="edge17" class="edge">
<title>Node13&#45;&gt;Node14</title>
<path fill="none" stroke="midnightblue" d="M1171,-61.98C1171,-53.58 1171,-40.48 1171,-29.66"/>
<polygon fill="midnightblue" stroke="midnightblue" points="1174.5,-29.51 1171,-19.51 1167.5,-29.51 1174.5,-29.51"/>
</g>
<!-- Node21&#45;&gt;Node5 -->
<g id="edge28" class="edge">
<title>Node21&#45;&gt;Node5</title>
<path fill="none" stroke="midnightblue" d="M364.43,-251.64C351.3,-235.16 327.47,-199.64 347,-179 396.63,-126.54 924.05,-149.25 996,-143 1007.98,-141.96 1020.98,-140.53 1032.8,-139.12"/>
<polygon fill="midnightblue" stroke="midnightblue" points="1033.31,-142.58 1042.81,-137.89 1032.46,-135.63 1033.31,-142.58"/>
</g>
<!-- Node21&#45;&gt;Node10 -->
<g id="edge26" class="edge">
<title>Node21&#45;&gt;Node10</title>
<path fill="none" stroke="midnightblue" d="M392.32,-251.87C418.72,-240.65 465.03,-220.98 495.36,-208.09"/>
<polygon fill="midnightblue" stroke="midnightblue" points="496.76,-211.3 504.6,-204.17 494.03,-204.86 496.76,-211.3"/>
</g>
<!-- Node21&#45;&gt;Node12 -->
<g id="edge27" class="edge">
<title>Node21&#45;&gt;Node12</title>
<path fill="none" stroke="midnightblue" d="M357.99,-251.9C334.49,-236.47 291.77,-203.39 314,-179 340.48,-149.95 584.27,-139.36 715.79,-135.74"/>
<polygon fill="midnightblue" stroke="midnightblue" points="715.93,-139.24 725.83,-135.47 715.74,-132.24 715.93,-139.24"/>
</g>
<!-- Node21&#45;&gt;Node19 -->
<g id="edge29" class="edge">
<title>Node21&#45;&gt;Node19</title>
<path fill="none" stroke="midnightblue" d="M372,-251.73C372,-242.18 372,-226.62 372,-214.28"/>
<polygon fill="midnightblue" stroke="midnightblue" points="375.5,-214.13 372,-204.13 368.5,-214.13 375.5,-214.13"/>
</g>
<!-- Node22 -->
<g id="node22" class="node">
<title>Node22</title>
<g id="a_node22"><a xlink:title=" ">
<polygon fill="white" stroke="#bfbfbf" points="176,-185 176,-204 262,-204 262,-185 176,-185"/>
<text text-anchor="middle" x="219" y="-192" font-family="Helvetica,sans-Serif" font-size="10.00">unordered_set</text>
</a>
</g>
</g>
<!-- Node21&#45;&gt;Node22 -->
<g id="edge30" class="edge">
<title>Node21&#45;&gt;Node22</title>
<path fill="none" stroke="midnightblue" d="M351.68,-251.87C325.28,-240.65 278.97,-220.98 248.64,-208.09"/>
<polygon fill="midnightblue" stroke="midnightblue" points="249.97,-204.86 239.4,-204.17 247.24,-211.3 249.97,-204.86"/>
</g>
<!-- Node25&#45;&gt;Node8 -->
<g id="edge34" class="edge">
<title>Node25&#45;&gt;Node8</title>
<path fill="none" stroke="midnightblue" d="M797.93,-575.72C797.65,-539.32 796.55,-399.77 796.15,-348.52"/>
<polygon fill="midnightblue" stroke="midnightblue" points="799.65,-348.21 796.07,-338.24 792.65,-348.27 799.65,-348.21"/>
</g>
<!-- Node26&#45;&gt;Node4 -->
<g id="edge36" class="edge">
<title>Node26&#45;&gt;Node4</title>
<path fill="none" stroke="midnightblue" d="M495.74,-251.9C474.12,-244.62 448.14,-231.76 435,-210 427.88,-198.21 427.32,-190.44 435,-179 473.15,-122.14 547.65,-95.61 607.15,-83.25"/>
<polygon fill="midnightblue" stroke="midnightblue" points="608.18,-86.62 617.32,-81.25 606.83,-79.75 608.18,-86.62"/>
</g>
<!-- Node26&#45;&gt;Node10 -->
<g id="edge37" class="edge">
<title>Node26&#45;&gt;Node10</title>
<path fill="none" stroke="midnightblue" d="M530.19,-251.73C529.31,-242.18 527.87,-226.62 526.73,-214.28"/>
<polygon fill="midnightblue" stroke="midnightblue" points="530.2,-213.76 525.8,-204.13 523.23,-214.41 530.2,-213.76"/>
</g>
<!-- Node26&#45;&gt;Node16 -->
<g id="edge43" class="edge">
<title>Node26&#45;&gt;Node16</title>
<path fill="none" stroke="midnightblue" d="M578.37,-251.95C644.25,-239.87 757.45,-218.35 775,-210 794.68,-200.63 792.76,-187.08 813,-179 909.34,-140.56 1171.21,-158.89 1291.24,-142.7"/>
<polygon fill="midnightblue" stroke="midnightblue" points="1291.99,-146.13 1301.37,-141.19 1290.96,-139.2 1291.99,-146.13"/>
</g>
<!-- Node26&#45;&gt;Node19 -->
<g id="edge44" class="edge">
<title>Node26&#45;&gt;Node19</title>
<path fill="none" stroke="midnightblue" d="M507.47,-251.91C481.44,-242.27 438.37,-225.88 402,-210 400.43,-209.32 398.83,-208.6 397.21,-207.86"/>
<polygon fill="midnightblue" stroke="midnightblue" points="398.62,-204.65 388.09,-203.56 395.64,-210.99 398.62,-204.65"/>
</g>
<!-- Node27 -->
<g id="node27" class="node">
<title>Node27</title>
<g id="a_node27"><a xlink:href="Address_8h.html" target="_top" xlink:title=" ">
<polygon fill="white" stroke="black" points="624,-185 624,-204 766,-204 766,-185 624,-185"/>
<text text-anchor="middle" x="695" y="-192" font-family="Helvetica,sans-Serif" font-size="10.00">boomerang/util/Address.h</text>
</a>
</g>
</g>
<!-- Node26&#45;&gt;Node27 -->
<g id="edge38" class="edge">
<title>Node26&#45;&gt;Node27</title>
<path fill="none" stroke="midnightblue" d="M552.78,-251.87C581.28,-240.57 631.43,-220.7 663.92,-207.82"/>
<polygon fill="midnightblue" stroke="midnightblue" points="665.39,-211 673.39,-204.06 662.81,-204.49 665.39,-211"/>
</g>
<!-- Node27&#45;&gt;Node4 -->
<g id="edge39" class="edge">
<title>Node27&#45;&gt;Node4</title>
<path fill="none" stroke="midnightblue" d="M695,-184.8C695,-166.6 695,-123.98 695,-96.79"/>
<polygon fill="midnightblue" stroke="midnightblue" points="698.5,-96.54 695,-86.54 691.5,-96.54 698.5,-96.54"/>
</g>
<!-- Node27&#45;&gt;Node12 -->
<g id="edge40" class="edge">
<title>Node27&#45;&gt;Node12</title>
<path fill="none" stroke="midnightblue" d="M709.9,-184.98C726.97,-175.21 755.16,-159.08 775.26,-147.58"/>
<polygon fill="midnightblue" stroke="midnightblue" points="777.19,-150.51 784.13,-142.51 773.71,-144.44 777.19,-150.51"/>
</g>
<!-- Node27&#45;&gt;Node13 -->
<g id="edge41" class="edge">
<title>Node27&#45;&gt;Node13</title>
<path fill="none" stroke="midnightblue" d="M733.68,-184.93C771.69,-176.05 831.11,-160.98 881,-143 901.21,-135.72 904.57,-129.65 925,-123 982.89,-104.17 1050.81,-90.85 1100.6,-82.64"/>
<polygon fill="midnightblue" stroke="midnightblue" points="1101.32,-86.07 1110.63,-81.02 1100.2,-79.16 1101.32,-86.07"/>
</g>
<!-- Node27&#45;&gt;Node16 -->
<g id="edge42" class="edge">
<title>Node27&#45;&gt;Node16</title>
<path fill="none" stroke="midnightblue" d="M739.87,-184.99C752.79,-182.78 766.92,-180.57 780,-179 1003.17,-152.19 1064.91,-178.02 1291.17,-142.82"/>
<polygon fill="midnightblue" stroke="midnightblue" points="1292.04,-146.23 1301.37,-141.21 1290.95,-139.31 1292.04,-146.23"/>
</g>
<!-- Node28&#45;&gt;Node5 -->
<g id="edge52" class="edge">
<title>Node28&#45;&gt;Node5</title>
<path fill="none" stroke="midnightblue" d="M988.42,-251.92C1008.86,-244.14 1035.92,-230.69 1052,-210 1064.79,-193.55 1069.44,-169.67 1071.11,-153.09"/>
<polygon fill="midnightblue" stroke="midnightblue" points="1074.61,-153.18 1071.85,-142.95 1067.63,-152.67 1074.61,-153.18"/>
</g>
<!-- Node28&#45;&gt;Node10 -->
<g id="edge46" class="edge">
<title>Node28&#45;&gt;Node10</title>
<path fill="none" stroke="midnightblue" d="M900.64,-251.97C831.57,-242.14 715.05,-225.36 615,-210 606.04,-208.62 596.58,-207.14 587.3,-205.66"/>
<polygon fill="midnightblue" stroke="midnightblue" points="587.76,-202.19 577.33,-204.07 586.65,-209.1 587.76,-202.19"/>
</g>
<!-- Node28&#45;&gt;Node18 -->
<g id="edge50" class="edge">
<title>Node28&#45;&gt;Node18</title>
<path fill="none" stroke="midnightblue" d="M983.31,-252C1008.46,-242.3 1050.48,-225.74 1086,-210 1087.56,-209.31 1089.17,-208.58 1090.78,-207.84"/>
<polygon fill="midnightblue" stroke="midnightblue" points="1092.36,-210.96 1099.9,-203.52 1089.36,-204.64 1092.36,-210.96"/>
</g>
<!-- Node28&#45;&gt;Node23 -->
<g id="edge51" class="edge">
<title>Node28&#45;&gt;Node23</title>
<path fill="none" stroke="midnightblue" d="M944.82,-251.73C924.57,-240.77 889.7,-221.88 866.01,-209.05"/>
<polygon fill="midnightblue" stroke="midnightblue" points="867.39,-205.81 856.93,-204.13 864.05,-211.97 867.39,-205.81"/>
</g>
<!-- Node28&#45;&gt;Node27 -->
<g id="edge47" class="edge">
<title>Node28&#45;&gt;Node27</title>
<path fill="none" stroke="midnightblue" d="M925.95,-251.94C878.21,-240.27 792.67,-219.37 740.17,-206.54"/>
<polygon fill="midnightblue" stroke="midnightblue" points="740.67,-203.06 730.13,-204.08 739.01,-209.86 740.67,-203.06"/>
</g>
<!-- Node29 -->
<g id="node29" class="node">
<title>Node29</title>
<g id="a_node29"><a xlink:href="MapIterators_8h.html" target="_top" xlink:title=" ">
<polygon fill="white" stroke="black" points="878.5,-185 878.5,-204 1043.5,-204 1043.5,-185 878.5,-185"/>
<text text-anchor="middle" x="961" y="-192" font-family="Helvetica,sans-Serif" font-size="10.00">boomerang/util/MapIterators.h</text>
</a>
</g>
</g>
<!-- Node28&#45;&gt;Node29 -->
<g id="edge48" class="edge">
<title>Node28&#45;&gt;Node29</title>
<path fill="none" stroke="midnightblue" d="M961,-251.73C961,-242.18 961,-226.62 961,-214.28"/>
<polygon fill="midnightblue" stroke="midnightblue" points="964.5,-214.13 961,-204.13 957.5,-214.13 964.5,-214.13"/>
</g>
<!-- Node30 -->
<g id="node30" class="node">
<title>Node30</title>
<g id="a_node30"><a xlink:title=" ">
<polygon fill="white" stroke="#bfbfbf" points="934.5,-123.5 934.5,-142.5 987.5,-142.5 987.5,-123.5 934.5,-123.5"/>
<text text-anchor="middle" x="961" y="-130.5" font-family="Helvetica,sans-Serif" font-size="10.00">iterator</text>
</a>
</g>
</g>
<!-- Node29&#45;&gt;Node30 -->
<g id="edge49" class="edge">
<title>Node29&#45;&gt;Node30</title>
<path fill="none" stroke="midnightblue" d="M961,-184.98C961,-176.58 961,-163.48 961,-152.66"/>
<polygon fill="midnightblue" stroke="midnightblue" points="964.5,-152.51 961,-142.51 957.5,-152.51 964.5,-152.51"/>
</g>
<!-- Node31&#45;&gt;Node18 -->
<g id="edge67" class="edge">
<title>Node31&#45;&gt;Node18</title>
<path fill="none" stroke="midnightblue" d="M993.55,-570.34C1005.27,-561.24 1019.32,-548.44 1028,-534 1093.57,-424.91 1110.76,-267.51 1114.84,-214.06"/>
<polygon fill="midnightblue" stroke="midnightblue" points="1118.33,-214.26 1115.54,-204.04 1111.35,-213.77 1118.33,-214.26"/>
</g>
<!-- Node32 -->
<g id="node32" class="node">
<title>Node32</title>
<g id="a_node32"><a xlink:href="StatementSet_8h.html" target="_top" xlink:title=" ">
<polygon fill="white" stroke="black" points="927,-514.5 927,-533.5 1019,-533.5 1019,-514.5 927,-514.5"/>
<text text-anchor="middle" x="973" y="-521.5" font-family="Helvetica,sans-Serif" font-size="10.00">StatementSet.h</text>
</a>
</g>
</g>
<!-- Node31&#45;&gt;Node32 -->
<g id="edge54" class="edge">
<title>Node31&#45;&gt;Node32</title>
<path fill="none" stroke="midnightblue" d="M973,-570.4C973,-562.47 973,-552.46 973,-543.86"/>
<polygon fill="midnightblue" stroke="midnightblue" points="976.5,-543.66 973,-533.66 969.5,-543.66 976.5,-543.66"/>
</g>
<!-- Node32&#45;&gt;Node5 -->
<g id="edge65" class="edge">
<title>Node32&#45;&gt;Node5</title>
<path fill="none" stroke="midnightblue" d="M982.07,-514.38C1013.71,-484.49 1122.81,-383.38 1223,-313 1249.07,-294.68 1262.98,-300.03 1285,-277 1308.22,-252.72 1311.99,-242.63 1320,-210 1342.62,-117.83 1214.42,-159.73 1110.94,-142.89"/>
<polygon fill="midnightblue" stroke="midnightblue" points="1111.47,-139.43 1101,-141.07 1110.21,-146.31 1111.47,-139.43"/>
</g>
<!-- Node32&#45;&gt;Node22 -->
<g id="edge66" class="edge">
<title>Node32&#45;&gt;Node22</title>
<path fill="none" stroke="midnightblue" d="M926.91,-515.28C811.11,-494.11 502.34,-426.45 294,-277 268.45,-258.68 244.95,-230.51 231.29,-212.55"/>
<polygon fill="midnightblue" stroke="midnightblue" points="233.86,-210.14 225.09,-204.2 228.24,-214.32 233.86,-210.14"/>
</g>
<!-- Node32&#45;&gt;Node33 -->
<g id="edge55" class="edge">
<title>Node32&#45;&gt;Node33</title>
<path fill="none" stroke="midnightblue" d="M1005.09,-514.48C1044.6,-503.98 1111.78,-486.14 1155.26,-474.59"/>
<polygon fill="midnightblue" stroke="midnightblue" points="1156.2,-477.96 1164.97,-472.01 1154.4,-471.19 1156.2,-477.96"/>
</g>
<!-- Node34 -->
<g id="node34" class="node">
<title>Node34</title>
<g id="a_node34"><a xlink:href="Assign_8h.html" target="_top" xlink:title=" ">
<polygon fill="white" stroke="black" points="835.5,-447.5 835.5,-477.5 982.5,-477.5 982.5,-447.5 835.5,-447.5"/>
<text text-anchor="start" x="843.5" y="-465.5" font-family="Helvetica,sans-Serif" font-size="10.00">boomerang/ssl/statements</text>
<text text-anchor="middle" x="909" y="-454.5" font-family="Helvetica,sans-Serif" font-size="10.00">/Assign.h</text>
</a>
</g>
</g>
<!-- Node32&#45;&gt;Node34 -->
<g id="edge57" class="edge">
<title>Node32&#45;&gt;Node34</title>
<path fill="none" stroke="midnightblue" d="M963.83,-514.48C955.41,-506.64 942.58,-494.71 931.44,-484.37"/>
<polygon fill="midnightblue" stroke="midnightblue" points="933.79,-481.77 924.08,-477.52 929.02,-486.9 933.79,-481.77"/>
</g>
<!-- Node33&#45;&gt;Node9 -->
<g id="edge56" class="edge">
<title>Node33&#45;&gt;Node9</title>
<path fill="none" stroke="midnightblue" d="M1197.39,-452.95C1198.73,-423.16 1203.24,-323.51 1205.14,-281.47"/>
<polygon fill="midnightblue" stroke="midnightblue" points="1208.65,-281.39 1205.6,-271.24 1201.66,-281.07 1208.65,-281.39"/>
</g>
<!-- Node35 -->
<g id="node35" class="node">
<title>Node35</title>
<g id="a_node35"><a xlink:href="Assignment_8h.html" target="_top" xlink:title=" ">
<polygon fill="white" stroke="black" points="865.5,-380.5 865.5,-410.5 1012.5,-410.5 1012.5,-380.5 865.5,-380.5"/>
<text text-anchor="start" x="873.5" y="-398.5" font-family="Helvetica,sans-Serif" font-size="10.00">boomerang/ssl/statements</text>
<text text-anchor="middle" x="939" y="-387.5" font-family="Helvetica,sans-Serif" font-size="10.00">/Assignment.h</text>
</a>
</g>
</g>
<!-- Node34&#45;&gt;Node35 -->
<g id="edge58" class="edge">
<title>Node34&#45;&gt;Node35</title>
<path fill="none" stroke="midnightblue" d="M915.51,-447.4C919.24,-439.3 924.03,-428.94 928.3,-419.69"/>
<polygon fill="midnightblue" stroke="midnightblue" points="931.49,-421.12 932.5,-410.58 925.13,-418.19 931.49,-421.12"/>
</g>
<!-- Node36 -->
<g id="node36" class="node">
<title>Node36</title>
<g id="a_node36"><a xlink:href="TypingStatement_8h.html" target="_top" xlink:title=" ">
<polygon fill="white" stroke="black" points="894.5,-313.5 894.5,-343.5 1041.5,-343.5 1041.5,-313.5 894.5,-313.5"/>
<text text-anchor="start" x="902.5" y="-331.5" font-family="Helvetica,sans-Serif" font-size="10.00">boomerang/ssl/statements</text>
<text text-anchor="middle" x="968" y="-320.5" font-family="Helvetica,sans-Serif" font-size="10.00">/TypingStatement.h</text>
</a>
</g>
</g>
<!-- Node35&#45;&gt;Node36 -->
<g id="edge59" class="edge">
<title>Node35&#45;&gt;Node36</title>
<path fill="none" stroke="midnightblue" d="M945.29,-380.4C948.86,-372.39 953.43,-362.16 957.53,-352.98"/>
<polygon fill="midnightblue" stroke="midnightblue" points="960.84,-354.13 961.72,-343.58 954.45,-351.28 960.84,-354.13"/>
</g>
<!-- Node37 -->
<g id="node37" class="node">
<title>Node37</title>
<g id="a_node37"><a xlink:href="Statement_8h.html" target="_top" xlink:title=" ">
<polygon fill="white" stroke="black" points="621.5,-246.5 621.5,-276.5 768.5,-276.5 768.5,-246.5 621.5,-246.5"/>
<text text-anchor="start" x="629.5" y="-264.5" font-family="Helvetica,sans-Serif" font-size="10.00">boomerang/ssl/statements</text>
<text text-anchor="middle" x="695" y="-253.5" font-family="Helvetica,sans-Serif" font-size="10.00">/Statement.h</text>
</a>
</g>
</g>
<!-- Node36&#45;&gt;Node37 -->
<g id="edge60" class="edge">
<title>Node36&#45;&gt;Node37</title>
<path fill="none" stroke="midnightblue" d="M909.1,-313.48C866.55,-303.34 808.93,-289.63 764.19,-278.97"/>
<polygon fill="midnightblue" stroke="midnightblue" points="764.8,-275.52 754.27,-276.61 763.18,-282.33 764.8,-275.52"/>
</g>
<!-- Node37&#45;&gt;Node10 -->
<g id="edge61" class="edge">
<title>Node37&#45;&gt;Node10</title>
<path fill="none" stroke="midnightblue" d="M658.11,-246.4C627.89,-234.84 585.56,-218.66 556.81,-207.66"/>
<polygon fill="midnightblue" stroke="midnightblue" points="557.84,-204.31 547.25,-204.01 555.34,-210.85 557.84,-204.31"/>
</g>
<!-- Node37&#45;&gt;Node18 -->
<g id="edge63" class="edge">
<title>Node37&#45;&gt;Node18</title>
<path fill="none" stroke="midnightblue" d="M768.79,-251.86C841.18,-242.96 954.57,-227.9 1052,-210 1064.53,-207.7 1078.31,-204.64 1089.88,-201.93"/>
<polygon fill="midnightblue" stroke="midnightblue" points="1090.85,-205.29 1099.77,-199.57 1089.23,-198.49 1090.85,-205.29"/>
</g>
<!-- Node37&#45;&gt;Node23 -->
<g id="edge64" class="edge">
<title>Node37&#45;&gt;Node23</title>
<path fill="none" stroke="midnightblue" d="M726.68,-246.4C752.3,-234.99 788.04,-219.08 812.7,-208.1"/>
<polygon fill="midnightblue" stroke="midnightblue" points="814.18,-211.27 821.89,-204.01 811.33,-204.88 814.18,-211.27"/>
</g>
<!-- Node37&#45;&gt;Node27 -->
<g id="edge62" class="edge">
<title>Node37&#45;&gt;Node27</title>
<path fill="none" stroke="midnightblue" d="M695,-246.4C695,-237.06 695,-224.71 695,-214.52"/>
<polygon fill="midnightblue" stroke="midnightblue" points="698.5,-214.19 695,-204.19 691.5,-214.19 698.5,-214.19"/>
</g>
<!-- Node39 -->
<g id="node39" class="node">
<title>Node39</title>
<g id="a_node39"><a xlink:href="Register_8h.html" target="_top" xlink:title=" ">
<polygon fill="white" stroke="black" points="1576.5,-185 1576.5,-204 1717.5,-204 1717.5,-185 1576.5,-185"/>
<text text-anchor="middle" x="1647" y="-192" font-family="Helvetica,sans-Serif" font-size="10.00">boomerang/ssl/Register.h</text>
</a>
</g>
</g>
<!-- Node38&#45;&gt;Node39 -->
<g id="edge69" class="edge">
<title>Node38&#45;&gt;Node39</title>
<path fill="none" stroke="midnightblue" d="M1426.88,-385.95C1462.42,-355.2 1584,-250.01 1629.57,-210.58"/>
<polygon fill="midnightblue" stroke="midnightblue" points="1631.88,-213.21 1637.15,-204.02 1627.3,-207.92 1631.88,-213.21"/>
</g>
<!-- Node42 -->
<g id="node42" class="node">
<title>Node42</title>
<g id="a_node42"><a xlink:href="Unary_8h.html" target="_top" xlink:title=" ">
<polygon fill="white" stroke="black" points="1232.5,-319 1232.5,-338 1381.5,-338 1381.5,-319 1232.5,-319"/>
<text text-anchor="middle" x="1307" y="-326" font-family="Helvetica,sans-Serif" font-size="10.00">boomerang/ssl/exp/Unary.h</text>
</a>
</g>
</g>
<!-- Node38&#45;&gt;Node42 -->
<g id="edge76" class="edge">
<title>Node38&#45;&gt;Node42</title>
<path fill="none" stroke="midnightblue" d="M1402.16,-385.73C1383.69,-374.82 1351.93,-356.05 1330.22,-343.22"/>
<polygon fill="midnightblue" stroke="midnightblue" points="1331.99,-340.2 1321.6,-338.13 1328.43,-346.23 1331.99,-340.2"/>
</g>
<!-- Node39&#45;&gt;Node4 -->
<g id="edge70" class="edge">
<title>Node39&#45;&gt;Node4</title>
<path fill="none" stroke="midnightblue" d="M1630.15,-184.99C1610.42,-175 1576.78,-157.91 1548,-143 1531.05,-134.22 1528.41,-128.03 1510,-123 1356.74,-81.09 958.59,-103.45 782.71,-86.92"/>
<polygon fill="midnightblue" stroke="midnightblue" points="783.03,-83.43 772.73,-85.91 782.33,-90.4 783.03,-83.43"/>
</g>
<!-- Node39&#45;&gt;Node5 -->
<g id="edge73" class="edge">
<title>Node39&#45;&gt;Node5</title>
<path fill="none" stroke="midnightblue" d="M1580.64,-184.99C1563.51,-182.91 1545.08,-180.78 1528,-179 1345.79,-160.06 1295.85,-172.12 1111.4,-143.01"/>
<polygon fill="midnightblue" stroke="midnightblue" points="1111.8,-139.53 1101.37,-141.41 1110.7,-146.44 1111.8,-139.53"/>
</g>
<!-- Node39&#45;&gt;Node13 -->
<g id="edge71" class="edge">
<title>Node39&#45;&gt;Node13</title>
<path fill="none" stroke="midnightblue" d="M1661.27,-184.79C1682.17,-170.99 1716.69,-143.57 1698,-123 1668.26,-90.28 1385.45,-78.21 1246.84,-74.24"/>
<polygon fill="midnightblue" stroke="midnightblue" points="1246.8,-70.74 1236.71,-73.96 1246.61,-77.74 1246.8,-70.74"/>
</g>
<!-- Node39&#45;&gt;Node16 -->
<g id="edge72" class="edge">
<title>Node39&#45;&gt;Node16</title>
<path fill="none" stroke="midnightblue" d="M1601.3,-184.98C1537.59,-173.09 1423.34,-151.78 1364.79,-140.86"/>
<polygon fill="midnightblue" stroke="midnightblue" points="1365.34,-137.41 1354.87,-139.01 1364.06,-144.29 1365.34,-137.41"/>
</g>
<!-- Node40 -->
<g id="node40" class="node">
<title>Node40</title>
<g id="a_node40"><a xlink:title=" ">
<polygon fill="white" stroke="#bfbfbf" points="1557,-123.5 1557,-142.5 1601,-142.5 1601,-123.5 1557,-123.5"/>
<text text-anchor="middle" x="1579" y="-130.5" font-family="Helvetica,sans-Serif" font-size="10.00">string</text>
</a>
</g>
</g>
<!-- Node39&#45;&gt;Node40 -->
<g id="edge74" class="edge">
<title>Node39&#45;&gt;Node40</title>
<path fill="none" stroke="midnightblue" d="M1637.26,-184.98C1626.65,-175.7 1609.48,-160.67 1596.52,-149.33"/>
<polygon fill="midnightblue" stroke="midnightblue" points="1598.56,-146.46 1588.72,-142.51 1593.95,-151.73 1598.56,-146.46"/>
</g>
<!-- Node41 -->
<g id="node41" class="node">
<title>Node41</title>
<g id="a_node41"><a xlink:title=" ">
<polygon fill="white" stroke="#bfbfbf" points="1619.5,-123.5 1619.5,-142.5 1688.5,-142.5 1688.5,-123.5 1619.5,-123.5"/>
<text text-anchor="middle" x="1654" y="-130.5" font-family="Helvetica,sans-Serif" font-size="10.00">type_traits</text>
</a>
</g>
</g>
<!-- Node39&#45;&gt;Node41 -->
<g id="edge75" class="edge">
<title>Node39&#45;&gt;Node41</title>
<path fill="none" stroke="midnightblue" d="M1648,-184.98C1648.99,-176.58 1650.53,-163.48 1651.8,-152.66"/>
<polygon fill="midnightblue" stroke="midnightblue" points="1655.31,-152.85 1653,-142.51 1648.35,-152.03 1655.31,-152.85"/>
</g>
<!-- Node42&#45;&gt;Node9 -->
<g id="edge77" class="edge">
<title>Node42&#45;&gt;Node9</title>
<path fill="none" stroke="midnightblue" d="M1293.38,-318.73C1276.57,-307.92 1247.77,-289.38 1227.86,-276.57"/>
<polygon fill="midnightblue" stroke="midnightblue" points="1229.71,-273.6 1219.41,-271.13 1225.92,-279.48 1229.71,-273.6"/>
</g>
<!-- Node43&#45;&gt;Node42 -->
<g id="edge80" class="edge">
<title>Node43&#45;&gt;Node42</title>
<path fill="none" stroke="midnightblue" d="M1306.12,-637.49C1306.38,-617.74 1307,-567.23 1307,-525 1307,-525 1307,-525 1307,-461.5 1307,-421.16 1307,-373.88 1307,-348.28"/>
<polygon fill="midnightblue" stroke="midnightblue" points="1310.5,-348.15 1307,-338.15 1303.5,-348.15 1310.5,-348.15"/>
</g>
<!-- Node44&#45;&gt;Node4 -->
<g id="edge82" class="edge">
<title>Node44&#45;&gt;Node4</title>
<path fill="none" stroke="midnightblue" d="M1444.18,-179.39C1417.79,-159.74 1372.02,-126.17 1363,-123 1243.82,-81.11 925.9,-100.68 782.73,-86.91"/>
<polygon fill="midnightblue" stroke="midnightblue" points="783.04,-83.43 772.73,-85.86 782.31,-90.39 783.04,-83.43"/>
</g>
<!-- Node44&#45;&gt;Node5 -->
<g id="edge86" class="edge">
<title>Node44&#45;&gt;Node5</title>
<path fill="none" stroke="midnightblue" d="M1406.46,-185.7C1320.82,-173.84 1163.43,-151.88 1111.53,-143.05"/>
<polygon fill="midnightblue" stroke="midnightblue" points="1111.86,-139.56 1101.4,-141.24 1110.63,-146.45 1111.86,-139.56"/>
</g>
<!-- Node44&#45;&gt;Node13 -->
<g id="edge83" class="edge">
<title>Node44&#45;&gt;Node13</title>
<path fill="none" stroke="midnightblue" d="M1453.84,-179.48C1442.48,-163.28 1421.6,-137.06 1397,-123 1351.08,-96.76 1292.67,-84.16 1246.74,-78.1"/>
<polygon fill="midnightblue" stroke="midnightblue" points="1246.9,-74.59 1236.55,-76.83 1246.04,-81.54 1246.9,-74.59"/>
</g>
<!-- Node44&#45;&gt;Node16 -->
<g id="edge84" class="edge">
<title>Node44&#45;&gt;Node16</title>
<path fill="none" stroke="midnightblue" d="M1431.01,-179.4C1408.56,-169.51 1378.79,-156.38 1357.02,-146.79"/>
<polygon fill="midnightblue" stroke="midnightblue" points="1358.21,-143.49 1347.64,-142.66 1355.38,-149.89 1358.21,-143.49"/>
</g>
<!-- Node44&#45;&gt;Node17 -->
<g id="edge85" class="edge">
<title>Node44&#45;&gt;Node17</title>
<path fill="none" stroke="midnightblue" d="M1465.84,-179.4C1467.46,-171.38 1469.51,-161.23 1471.25,-152.57"/>
<polygon fill="midnightblue" stroke="midnightblue" points="1474.71,-153.15 1473.25,-142.66 1467.85,-151.77 1474.71,-153.15"/>
</g>
</g>
</svg>
