<?xml version="1.0" encoding="UTF-8" standalone="no"?>
<!DOCTYPE svg PUBLIC "-//W3C//DTD SVG 1.1//EN"
 "http://www.w3.org/Graphics/SVG/1.1/DTD/svg11.dtd">
<!-- Generated by graphviz version 2.43.0 (0)
 -->
<!-- Title: Win32Signature.h Pages: 1 -->
<!--zoomable 531 -->
<svg id="main" version="1.1" xmlns="http://www.w3.org/2000/svg" xmlns:xlink="http://www.w3.org/1999/xlink" xml:space="preserve" onload="init(evt)">
<style type="text/css"><![CDATA[
.edge:hover path { stroke: red; }
.edge:hover polygon { stroke: red; fill: red; }
]]></style>
<script type="text/javascript"><![CDATA[
var edges = document.getElementsByTagName('g');
if (edges && edges.length) {
  for (var i=0;i<edges.length;i++) {
    if (edges[i].id.substr(0,4)=='edge') {
      edges[i].setAttribute('class','edge');
    }
  }
}
]]></script>
        <defs>
                <circle id="rim" cx="0" cy="0" r="7"/>
                <circle id="rim2" cx="0" cy="0" r="3.5"/>
                <g id="zoomPlus">
                        <use xlink:href="#rim" fill="#404040">
                                <set attributeName="fill" to="#808080" begin="zoomplus.mouseover" end="zoomplus.mouseout"/>
                        </use>
                        <path d="M-4,0h8M0,-4v8" fill="none" stroke="white" stroke-width="1.5" pointer-events="none"/>
                </g>
                <g id="zoomMin">
                        <use xlink:href="#rim" fill="#404040">
                                <set attributeName="fill" to="#808080" begin="zoomminus.mouseover" end="zoomminus.mouseout"/>
                        </use>
                        <path d="M-4,0h8" fill="none" stroke="white" stroke-width="1.5" pointer-events="none"/>
                </g>
                <g id="dirArrow">
                        <path fill="none" stroke="white" stroke-width="1.5" d="M0,-3.0v7 M-2.5,-0.5L0,-3.0L2.5,-0.5"/>
                </g>
               <g id="resetDef">
                       <use xlink:href="#rim2" fill="#404040">
                               <set attributeName="fill" to="#808080" begin="reset.mouseover" end="reset.mouseout"/>
                       </use>
               </g>
        </defs>

<script type="text/javascript">
var viewWidth = 1296;
var viewHeight = 531;
var sectionId = 'dynsection-0';
</script>
<script xlink:href="svgpan.js"/>
<svg id="graph" class="graph">
<g id="viewport">
<title>Win32Signature.h</title>
<polygon fill="white" stroke="transparent" points="-4,4 -4,-527 1292,-527 1292,4 -4,4"/>
<!-- Node1 -->
<g id="node1" class="node">
<title>Node1</title>
<g id="a_node1"><a xlink:title=" ">
<polygon fill="#bfbfbf" stroke="black" points="643.5,-503.5 643.5,-522.5 746.5,-522.5 746.5,-503.5 643.5,-503.5"/>
<text text-anchor="middle" x="695" y="-510.5" font-family="Helvetica,sans-Serif" font-size="10.00">Win32Signature.h</text>
</a>
</g>
</g>
<!-- Node2 -->
<g id="node2" class="node">
<title>Node2</title>
<g id="a_node2"><a xlink:href="Signature_8h.html" target="_top" xlink:title=" ">
<polygon fill="white" stroke="black" points="713,-436.5 713,-466.5 849,-466.5 849,-436.5 713,-436.5"/>
<text text-anchor="start" x="721" y="-454.5" font-family="Helvetica,sans-Serif" font-size="10.00">boomerang/db/signature</text>
<text text-anchor="middle" x="781" y="-443.5" font-family="Helvetica,sans-Serif" font-size="10.00">/Signature.h</text>
</a>
</g>
</g>
<!-- Node1&#45;&gt;Node2 -->
<g id="edge1" class="edge">
<title>Node1&#45;&gt;Node2</title>
<path fill="none" stroke="midnightblue" d="M707.32,-503.48C718.97,-495.42 736.88,-483.02 752.13,-472.47"/>
<polygon fill="midnightblue" stroke="midnightblue" points="754.5,-475.09 760.73,-466.52 750.52,-469.33 754.5,-475.09"/>
</g>
<!-- Node29 -->
<g id="node29" class="node">
<title>Node29</title>
<g id="a_node29"><a xlink:href="Exp_8h.html" target="_top" xlink:title=" ">
<polygon fill="white" stroke="black" points="527,-241 527,-260 667,-260 667,-241 527,-241"/>
<text text-anchor="middle" x="597" y="-248" font-family="Helvetica,sans-Serif" font-size="10.00">boomerang/ssl/exp/Exp.h</text>
</a>
</g>
</g>
<!-- Node1&#45;&gt;Node29 -->
<g id="edge44" class="edge">
<title>Node1&#45;&gt;Node29</title>
<path fill="none" stroke="midnightblue" d="M691.74,-503.33C677.82,-466.33 623.19,-321.11 603.84,-269.68"/>
<polygon fill="midnightblue" stroke="midnightblue" points="607.07,-268.33 600.27,-260.2 600.52,-270.79 607.07,-268.33"/>
</g>
<!-- Node3 -->
<g id="node3" class="node">
<title>Node3</title>
<g id="a_node3"><a xlink:href="BinaryFile_8h.html" target="_top" xlink:title=" ">
<polygon fill="white" stroke="black" points="723.5,-235.5 723.5,-265.5 844.5,-265.5 844.5,-235.5 723.5,-235.5"/>
<text text-anchor="start" x="731.5" y="-253.5" font-family="Helvetica,sans-Serif" font-size="10.00">boomerang/db/binary</text>
<text text-anchor="middle" x="784" y="-242.5" font-family="Helvetica,sans-Serif" font-size="10.00">/BinaryFile.h</text>
</a>
</g>
</g>
<!-- Node2&#45;&gt;Node3 -->
<g id="edge2" class="edge">
<title>Node2&#45;&gt;Node3</title>
<path fill="none" stroke="midnightblue" d="M770.19,-436.37C763.51,-426.71 755.54,-413.29 752,-400 740.33,-356.23 758.72,-304.35 772.09,-274.94"/>
<polygon fill="midnightblue" stroke="midnightblue" points="775.43,-276.06 776.55,-265.53 769.11,-273.07 775.43,-276.06"/>
</g>
<!-- Node12 -->
<g id="node12" class="node">
<title>Node12</title>
<g id="a_node12"><a xlink:href="Parameter_8h.html" target="_top" xlink:title=" ">
<polygon fill="white" stroke="black" points="761,-369.5 761,-399.5 897,-399.5 897,-369.5 761,-369.5"/>
<text text-anchor="start" x="769" y="-387.5" font-family="Helvetica,sans-Serif" font-size="10.00">boomerang/db/signature</text>
<text text-anchor="middle" x="829" y="-376.5" font-family="Helvetica,sans-Serif" font-size="10.00">/Parameter.h</text>
</a>
</g>
</g>
<!-- Node2&#45;&gt;Node12 -->
<g id="edge13" class="edge">
<title>Node2&#45;&gt;Node12</title>
<path fill="none" stroke="midnightblue" d="M791.42,-436.4C797.58,-428.05 805.53,-417.29 812.52,-407.81"/>
<polygon fill="midnightblue" stroke="midnightblue" points="815.48,-409.7 818.61,-399.58 809.85,-405.54 815.48,-409.7"/>
</g>
<!-- Node15 -->
<g id="node15" class="node">
<title>Node15</title>
<g id="a_node15"><a xlink:href="Return_8h.html" target="_top" xlink:title=" ">
<polygon fill="white" stroke="black" points="915,-369.5 915,-399.5 1051,-399.5 1051,-369.5 915,-369.5"/>
<text text-anchor="start" x="923" y="-387.5" font-family="Helvetica,sans-Serif" font-size="10.00">boomerang/db/signature</text>
<text text-anchor="middle" x="983" y="-376.5" font-family="Helvetica,sans-Serif" font-size="10.00">/Return.h</text>
</a>
</g>
</g>
<!-- Node2&#45;&gt;Node15 -->
<g id="edge20" class="edge">
<title>Node2&#45;&gt;Node15</title>
<path fill="none" stroke="midnightblue" d="M824.83,-436.4C855.54,-426.52 896.75,-413.25 929.41,-402.74"/>
<polygon fill="midnightblue" stroke="midnightblue" points="930.81,-405.97 939.25,-399.58 928.66,-399.31 930.81,-405.97"/>
</g>
<!-- Node16 -->
<g id="node16" class="node">
<title>Node16</title>
<g id="a_node16"><a xlink:href="SigEnum_8h.html" target="_top" xlink:title=" ">
<polygon fill="white" stroke="black" points="1069,-369.5 1069,-399.5 1185,-399.5 1185,-369.5 1069,-369.5"/>
<text text-anchor="start" x="1077" y="-387.5" font-family="Helvetica,sans-Serif" font-size="10.00">boomerang/frontend</text>
<text text-anchor="middle" x="1127" y="-376.5" font-family="Helvetica,sans-Serif" font-size="10.00">/SigEnum.h</text>
</a>
</g>
</g>
<!-- Node2&#45;&gt;Node16 -->
<g id="edge22" class="edge">
<title>Node2&#45;&gt;Node16</title>
<path fill="none" stroke="midnightblue" d="M849.06,-438.85C903.31,-429.41 981.45,-415.47 1058.98,-400.17"/>
<polygon fill="midnightblue" stroke="midnightblue" points="1059.79,-403.57 1068.92,-398.2 1058.43,-396.71 1059.79,-403.57"/>
</g>
<!-- Node17 -->
<g id="node17" class="node">
<title>Node17</title>
<g id="a_node17"><a xlink:href="Register_8h.html" target="_top" xlink:title=" ">
<polygon fill="white" stroke="black" points="1118.5,-179.5 1118.5,-198.5 1259.5,-198.5 1259.5,-179.5 1118.5,-179.5"/>
<text text-anchor="middle" x="1189" y="-186.5" font-family="Helvetica,sans-Serif" font-size="10.00">boomerang/ssl/Register.h</text>
</a>
</g>
</g>
<!-- Node2&#45;&gt;Node17 -->
<g id="edge23" class="edge">
<title>Node2&#45;&gt;Node17</title>
<path fill="none" stroke="midnightblue" d="M849.09,-447.39C964.27,-441.42 1187.4,-426.54 1211,-400 1259.86,-345.07 1218.67,-247.33 1198.53,-207.56"/>
<polygon fill="midnightblue" stroke="midnightblue" points="1201.56,-205.8 1193.82,-198.56 1195.35,-209.04 1201.56,-205.8"/>
</g>
<!-- Node20 -->
<g id="node20" class="node">
<title>Node20</title>
<g id="a_node20"><a xlink:href="Operator_8h.html" target="_top" xlink:title=" ">
<polygon fill="white" stroke="black" points="56,-179.5 56,-198.5 220,-198.5 220,-179.5 56,-179.5"/>
<text text-anchor="middle" x="138" y="-186.5" font-family="Helvetica,sans-Serif" font-size="10.00">boomerang/ssl/exp/Operator.h</text>
</a>
</g>
</g>
<!-- Node2&#45;&gt;Node20 -->
<g id="edge30" class="edge">
<title>Node2&#45;&gt;Node20</title>
<path fill="none" stroke="midnightblue" d="M712.76,-445.54C620.56,-438.1 461.54,-422.5 408,-400 295.83,-352.87 190.26,-246.67 152.58,-206.14"/>
<polygon fill="midnightblue" stroke="midnightblue" points="155.12,-203.73 145.78,-198.73 149.97,-208.47 155.12,-203.73"/>
</g>
<!-- Node21 -->
<g id="node21" class="node">
<title>Node21</title>
<g id="a_node21"><a xlink:href="Assignment_8h.html" target="_top" xlink:title=" ">
<polygon fill="white" stroke="black" points="417.5,-369.5 417.5,-399.5 564.5,-399.5 564.5,-369.5 417.5,-369.5"/>
<text text-anchor="start" x="425.5" y="-387.5" font-family="Helvetica,sans-Serif" font-size="10.00">boomerang/ssl/statements</text>
<text text-anchor="middle" x="491" y="-376.5" font-family="Helvetica,sans-Serif" font-size="10.00">/Assignment.h</text>
</a>
</g>
</g>
<!-- Node2&#45;&gt;Node21 -->
<g id="edge32" class="edge">
<title>Node2&#45;&gt;Node21</title>
<path fill="none" stroke="midnightblue" d="M718.43,-436.48C673.04,-426.3 611.51,-412.51 563.89,-401.84"/>
<polygon fill="midnightblue" stroke="midnightblue" points="564.48,-398.38 553.96,-399.61 562.95,-405.21 564.48,-398.38"/>
</g>
<!-- Node27 -->
<g id="node27" class="node">
<title>Node27</title>
<g id="a_node27"><a xlink:href="VoidType_8h.html" target="_top" xlink:title=" ">
<polygon fill="white" stroke="black" points="1068.5,-302.5 1068.5,-332.5 1181.5,-332.5 1181.5,-302.5 1068.5,-302.5"/>
<text text-anchor="start" x="1076.5" y="-320.5" font-family="Helvetica,sans-Serif" font-size="10.00">boomerang/ssl/type</text>
<text text-anchor="middle" x="1125" y="-309.5" font-family="Helvetica,sans-Serif" font-size="10.00">/VoidType.h</text>
</a>
</g>
</g>
<!-- Node2&#45;&gt;Node27 -->
<g id="edge41" class="edge">
<title>Node2&#45;&gt;Node27</title>
<path fill="none" stroke="midnightblue" d="M849.06,-447.03C960.44,-440.66 1171.56,-425.35 1194,-400 1212.55,-379.05 1185.24,-354.47 1159.7,-337.83"/>
<polygon fill="midnightblue" stroke="midnightblue" points="1161.51,-334.83 1151.17,-332.5 1157.8,-340.77 1161.51,-334.83"/>
</g>
<!-- Node28 -->
<g id="node28" class="node">
<title>Node28</title>
<g id="a_node28"><a xlink:title=" ">
<polygon fill="white" stroke="#bfbfbf" points="792.5,-179.5 792.5,-198.5 839.5,-198.5 839.5,-179.5 792.5,-179.5"/>
<text text-anchor="middle" x="816" y="-186.5" font-family="Helvetica,sans-Serif" font-size="10.00">vector</text>
</a>
</g>
</g>
<!-- Node2&#45;&gt;Node28 -->
<g id="edge43" class="edge">
<title>Node2&#45;&gt;Node28</title>
<path fill="none" stroke="midnightblue" d="M768.86,-436.26C739.49,-400 670.14,-302.29 714,-235 721.97,-222.78 755.92,-209.35 782.49,-200.37"/>
<polygon fill="midnightblue" stroke="midnightblue" points="783.84,-203.61 792.24,-197.16 781.65,-196.96 783.84,-203.61"/>
</g>
<!-- Node4 -->
<g id="node4" class="node">
<title>Node4</title>
<g id="a_node4"><a xlink:href="Address_8h.html" target="_top" xlink:title=" ">
<polygon fill="white" stroke="black" points="326,-179.5 326,-198.5 468,-198.5 468,-179.5 326,-179.5"/>
<text text-anchor="middle" x="397" y="-186.5" font-family="Helvetica,sans-Serif" font-size="10.00">boomerang/util/Address.h</text>
</a>
</g>
</g>
<!-- Node3&#45;&gt;Node4 -->
<g id="edge3" class="edge">
<title>Node3&#45;&gt;Node4</title>
<path fill="none" stroke="midnightblue" d="M723.11,-240.14C652.15,-229.23 535.37,-211.27 462.5,-200.07"/>
<polygon fill="midnightblue" stroke="midnightblue" points="462.94,-196.6 452.52,-198.54 461.87,-203.52 462.94,-196.6"/>
</g>
<!-- Node11 -->
<g id="node11" class="node">
<title>Node11</title>
<g id="a_node11"><a xlink:title=" ">
<polygon fill="white" stroke="#bfbfbf" points="909,-123.5 909,-142.5 967,-142.5 967,-123.5 909,-123.5"/>
<text text-anchor="middle" x="938" y="-130.5" font-family="Helvetica,sans-Serif" font-size="10.00">memory</text>
</a>
</g>
</g>
<!-- Node3&#45;&gt;Node11 -->
<g id="edge12" class="edge">
<title>Node3&#45;&gt;Node11</title>
<path fill="none" stroke="midnightblue" d="M844.61,-239.42C870.69,-232.2 899.58,-219.9 919,-199 930.62,-186.49 935.17,-167.27 936.93,-152.96"/>
<polygon fill="midnightblue" stroke="midnightblue" points="940.44,-153.04 937.83,-142.77 933.47,-152.43 940.44,-153.04"/>
</g>
<!-- Node5 -->
<g id="node5" class="node">
<title>Node5</title>
<g id="a_node5"><a xlink:href="BoomerangAPI_8h.html" target="_top" xlink:title=" ">
<polygon fill="white" stroke="black" points="443.5,-56.5 443.5,-86.5 598.5,-86.5 598.5,-56.5 443.5,-56.5"/>
<text text-anchor="start" x="451.5" y="-74.5" font-family="Helvetica,sans-Serif" font-size="10.00">boomerang/core/Boomerang</text>
<text text-anchor="middle" x="521" y="-63.5" font-family="Helvetica,sans-Serif" font-size="10.00">API.h</text>
</a>
</g>
</g>
<!-- Node4&#45;&gt;Node5 -->
<g id="edge4" class="edge">
<title>Node4&#45;&gt;Node5</title>
<path fill="none" stroke="midnightblue" d="M421,-179.41C439.16,-171.97 463.83,-159.76 481,-143 494.5,-129.82 504.83,-111.11 511.61,-96.28"/>
<polygon fill="midnightblue" stroke="midnightblue" points="514.98,-97.31 515.73,-86.74 508.55,-94.53 514.98,-97.31"/>
</g>
<!-- Node6 -->
<g id="node6" class="node">
<title>Node6</title>
<g id="a_node6"><a xlink:href="OStream_8h.html" target="_top" xlink:title=" ">
<polygon fill="white" stroke="black" points="326,-123.5 326,-142.5 472,-142.5 472,-123.5 326,-123.5"/>
<text text-anchor="middle" x="399" y="-130.5" font-family="Helvetica,sans-Serif" font-size="10.00">boomerang/util/OStream.h</text>
</a>
</g>
</g>
<!-- Node4&#45;&gt;Node6 -->
<g id="edge5" class="edge">
<title>Node4&#45;&gt;Node6</title>
<path fill="none" stroke="midnightblue" d="M397.33,-179.08C397.59,-172.01 397.97,-161.86 398.3,-152.99"/>
<polygon fill="midnightblue" stroke="midnightblue" points="401.8,-152.87 398.68,-142.75 394.81,-152.61 401.8,-152.87"/>
</g>
<!-- Node7 -->
<g id="node7" class="node">
<title>Node7</title>
<g id="a_node7"><a xlink:href="Types_8h.html" target="_top" xlink:title=" ">
<polygon fill="white" stroke="black" points="821.5,-62 821.5,-81 952.5,-81 952.5,-62 821.5,-62"/>
<text text-anchor="middle" x="887" y="-69" font-family="Helvetica,sans-Serif" font-size="10.00">boomerang/util/Types.h</text>
</a>
</g>
</g>
<!-- Node4&#45;&gt;Node7 -->
<g id="edge10" class="edge">
<title>Node4&#45;&gt;Node7</title>
<path fill="none" stroke="midnightblue" d="M433.43,-179.41C521.15,-158.74 744,-106.21 840.86,-83.37"/>
<polygon fill="midnightblue" stroke="midnightblue" points="841.73,-86.77 850.66,-81.06 840.13,-79.95 841.73,-86.77"/>
</g>
<!-- Node10 -->
<g id="node10" class="node">
<title>Node10</title>
<g id="a_node10"><a xlink:title=" ">
<polygon fill="white" stroke="#bfbfbf" points="768.5,-123.5 768.5,-142.5 821.5,-142.5 821.5,-123.5 768.5,-123.5"/>
<text text-anchor="middle" x="795" y="-130.5" font-family="Helvetica,sans-Serif" font-size="10.00">QString</text>
</a>
</g>
</g>
<!-- Node4&#45;&gt;Node10 -->
<g id="edge11" class="edge">
<title>Node4&#45;&gt;Node10</title>
<path fill="none" stroke="midnightblue" d="M460.06,-179.44C544.12,-168.04 690.16,-148.22 758.17,-139"/>
<polygon fill="midnightblue" stroke="midnightblue" points="758.96,-142.42 768.4,-137.61 758.02,-135.49 758.96,-142.42"/>
</g>
<!-- Node6&#45;&gt;Node5 -->
<g id="edge6" class="edge">
<title>Node6&#45;&gt;Node5</title>
<path fill="none" stroke="midnightblue" d="M416.48,-123.48C433.77,-115.04 460.81,-101.86 483.05,-91.01"/>
<polygon fill="midnightblue" stroke="midnightblue" points="484.79,-94.05 492.25,-86.52 481.72,-87.76 484.79,-94.05"/>
</g>
<!-- Node6&#45;&gt;Node7 -->
<g id="edge7" class="edge">
<title>Node6&#45;&gt;Node7</title>
<path fill="none" stroke="midnightblue" d="M468.92,-123.48C559.7,-112.41 717.55,-93.16 811.15,-81.75"/>
<polygon fill="midnightblue" stroke="midnightblue" points="811.62,-85.22 821.12,-80.53 810.77,-78.27 811.62,-85.22"/>
</g>
<!-- Node9 -->
<g id="node9" class="node">
<title>Node9</title>
<g id="a_node9"><a xlink:title=" ">
<polygon fill="white" stroke="#bfbfbf" points="376,-62 376,-81 422,-81 422,-62 376,-62"/>
<text text-anchor="middle" x="399" y="-69" font-family="Helvetica,sans-Serif" font-size="10.00">cstdio</text>
</a>
</g>
</g>
<!-- Node6&#45;&gt;Node9 -->
<g id="edge9" class="edge">
<title>Node6&#45;&gt;Node9</title>
<path fill="none" stroke="midnightblue" d="M399,-123.48C399,-115.08 399,-101.98 399,-91.16"/>
<polygon fill="midnightblue" stroke="midnightblue" points="402.5,-91.01 399,-81.01 395.5,-91.01 402.5,-91.01"/>
</g>
<!-- Node8 -->
<g id="node8" class="node">
<title>Node8</title>
<g id="a_node8"><a xlink:title=" ">
<polygon fill="white" stroke="#bfbfbf" points="862,-0.5 862,-19.5 912,-19.5 912,-0.5 862,-0.5"/>
<text text-anchor="middle" x="887" y="-7.5" font-family="Helvetica,sans-Serif" font-size="10.00">cstdint</text>
</a>
</g>
</g>
<!-- Node7&#45;&gt;Node8 -->
<g id="edge8" class="edge">
<title>Node7&#45;&gt;Node8</title>
<path fill="none" stroke="midnightblue" d="M887,-61.98C887,-53.58 887,-40.48 887,-29.66"/>
<polygon fill="midnightblue" stroke="midnightblue" points="890.5,-29.51 887,-19.51 883.5,-29.51 890.5,-29.51"/>
</g>
<!-- Node13 -->
<g id="node13" class="node">
<title>Node13</title>
<g id="a_node13"><a xlink:href="Type_8h.html" target="_top" xlink:title=" ">
<polygon fill="white" stroke="black" points="942.5,-235.5 942.5,-265.5 1055.5,-265.5 1055.5,-235.5 942.5,-235.5"/>
<text text-anchor="start" x="950.5" y="-253.5" font-family="Helvetica,sans-Serif" font-size="10.00">boomerang/ssl/type</text>
<text text-anchor="middle" x="999" y="-242.5" font-family="Helvetica,sans-Serif" font-size="10.00">/Type.h</text>
</a>
</g>
</g>
<!-- Node12&#45;&gt;Node13 -->
<g id="edge14" class="edge">
<title>Node12&#45;&gt;Node13</title>
<path fill="none" stroke="midnightblue" d="M847.19,-369.37C877.36,-345.95 937.84,-298.99 972.67,-271.94"/>
<polygon fill="midnightblue" stroke="midnightblue" points="975.19,-274.42 980.94,-265.52 970.89,-268.89 975.19,-274.42"/>
</g>
<!-- Node13&#45;&gt;Node5 -->
<g id="edge15" class="edge">
<title>Node13&#45;&gt;Node5</title>
<path fill="none" stroke="midnightblue" d="M1002.19,-235.44C1004.31,-225.36 1006.9,-211.42 1008,-199 1011.23,-162.49 1006.63,-143.12 976,-123 946.03,-103.32 732.29,-86.3 608.71,-77.96"/>
<polygon fill="midnightblue" stroke="midnightblue" points="608.72,-74.45 598.51,-77.28 608.25,-81.44 608.72,-74.45"/>
</g>
<!-- Node13&#45;&gt;Node7 -->
<g id="edge16" class="edge">
<title>Node13&#45;&gt;Node7</title>
<path fill="none" stroke="midnightblue" d="M1028.69,-235.34C1042.74,-226.92 1058.14,-214.77 1066,-199 1069.97,-191.04 1068.61,-187.5 1066,-179 1057.17,-150.25 1051.78,-141.42 1028,-123 1003.01,-103.64 969.96,-91.28 942.14,-83.63"/>
<polygon fill="midnightblue" stroke="midnightblue" points="942.71,-80.17 932.15,-81.03 940.94,-86.94 942.71,-80.17"/>
</g>
<!-- Node13&#45;&gt;Node10 -->
<g id="edge17" class="edge">
<title>Node13&#45;&gt;Node10</title>
<path fill="none" stroke="midnightblue" d="M986.09,-235.3C971.22,-219.66 945.43,-194.67 919,-179 891.52,-162.71 857.18,-150.81 831.6,-143.35"/>
<polygon fill="midnightblue" stroke="midnightblue" points="832.49,-139.97 821.92,-140.62 830.59,-146.71 832.49,-139.97"/>
</g>
<!-- Node13&#45;&gt;Node11 -->
<g id="edge19" class="edge">
<title>Node13&#45;&gt;Node11</title>
<path fill="none" stroke="midnightblue" d="M1000.06,-235.37C1000.55,-220.46 999.5,-196.72 990,-179 983.39,-166.67 971.93,-156.2 961.45,-148.47"/>
<polygon fill="midnightblue" stroke="midnightblue" points="963.23,-145.44 953.01,-142.64 959.25,-151.2 963.23,-145.44"/>
</g>
<!-- Node14 -->
<g id="node14" class="node">
<title>Node14</title>
<g id="a_node14"><a xlink:title=" ">
<polygon fill="white" stroke="#bfbfbf" points="858,-179.5 858,-198.5 910,-198.5 910,-179.5 858,-179.5"/>
<text text-anchor="middle" x="884" y="-186.5" font-family="Helvetica,sans-Serif" font-size="10.00">cassert</text>
</a>
</g>
</g>
<!-- Node13&#45;&gt;Node14 -->
<g id="edge18" class="edge">
<title>Node13&#45;&gt;Node14</title>
<path fill="none" stroke="midnightblue" d="M971.75,-235.4C952.97,-225.68 928.17,-212.86 909.73,-203.31"/>
<polygon fill="midnightblue" stroke="midnightblue" points="911.22,-200.14 900.73,-198.66 908.01,-206.36 911.22,-200.14"/>
</g>
<!-- Node15&#45;&gt;Node13 -->
<g id="edge21" class="edge">
<title>Node15&#45;&gt;Node13</title>
<path fill="none" stroke="midnightblue" d="M984.71,-369.37C987.43,-346.94 992.77,-302.92 996.09,-275.49"/>
<polygon fill="midnightblue" stroke="midnightblue" points="999.57,-275.87 997.3,-265.52 992.62,-275.03 999.57,-275.87"/>
</g>
<!-- Node17&#45;&gt;Node5 -->
<g id="edge24" class="edge">
<title>Node17&#45;&gt;Node5</title>
<path fill="none" stroke="midnightblue" d="M1172.14,-179.32C1143.41,-164.95 1082.73,-136.48 1028,-123 883.93,-87.51 710.99,-76.85 608.86,-73.72"/>
<polygon fill="midnightblue" stroke="midnightblue" points="608.69,-70.21 598.6,-73.42 608.49,-77.21 608.69,-70.21"/>
</g>
<!-- Node17&#45;&gt;Node7 -->
<g id="edge25" class="edge">
<title>Node17&#45;&gt;Node7</title>
<path fill="none" stroke="midnightblue" d="M1193.76,-179.25C1200.49,-165.54 1210.55,-138.94 1197,-123 1167.5,-88.31 1044.52,-77.39 962.61,-73.99"/>
<polygon fill="midnightblue" stroke="midnightblue" points="962.71,-70.49 952.58,-73.6 962.44,-77.48 962.71,-70.49"/>
</g>
<!-- Node17&#45;&gt;Node10 -->
<g id="edge26" class="edge">
<title>Node17&#45;&gt;Node10</title>
<path fill="none" stroke="midnightblue" d="M1126.57,-179.44C1043.56,-168.07 899.5,-148.32 831.96,-139.07"/>
<polygon fill="midnightblue" stroke="midnightblue" points="832.18,-135.56 821.79,-137.67 831.23,-142.5 832.18,-135.56"/>
</g>
<!-- Node17&#45;&gt;Node11 -->
<g id="edge27" class="edge">
<title>Node17&#45;&gt;Node11</title>
<path fill="none" stroke="midnightblue" d="M1149.23,-179.44C1102.06,-169.3 1023.96,-152.49 977.09,-142.41"/>
<polygon fill="midnightblue" stroke="midnightblue" points="977.53,-138.93 967.02,-140.24 976.06,-145.77 977.53,-138.93"/>
</g>
<!-- Node18 -->
<g id="node18" class="node">
<title>Node18</title>
<g id="a_node18"><a xlink:title=" ">
<polygon fill="white" stroke="#bfbfbf" points="1244,-123.5 1244,-142.5 1288,-142.5 1288,-123.5 1244,-123.5"/>
<text text-anchor="middle" x="1266" y="-130.5" font-family="Helvetica,sans-Serif" font-size="10.00">string</text>
</a>
</g>
</g>
<!-- Node17&#45;&gt;Node18 -->
<g id="edge28" class="edge">
<title>Node17&#45;&gt;Node18</title>
<path fill="none" stroke="midnightblue" d="M1201.37,-179.32C1213.16,-171.06 1231.13,-158.45 1245.14,-148.63"/>
<polygon fill="midnightblue" stroke="midnightblue" points="1247.48,-151.26 1253.66,-142.65 1243.46,-145.53 1247.48,-151.26"/>
</g>
<!-- Node19 -->
<g id="node19" class="node">
<title>Node19</title>
<g id="a_node19"><a xlink:title=" ">
<polygon fill="white" stroke="#bfbfbf" points="1118.5,-123.5 1118.5,-142.5 1187.5,-142.5 1187.5,-123.5 1118.5,-123.5"/>
<text text-anchor="middle" x="1153" y="-130.5" font-family="Helvetica,sans-Serif" font-size="10.00">type_traits</text>
</a>
</g>
</g>
<!-- Node17&#45;&gt;Node19 -->
<g id="edge29" class="edge">
<title>Node17&#45;&gt;Node19</title>
<path fill="none" stroke="midnightblue" d="M1183.06,-179.08C1178.02,-171.53 1170.66,-160.49 1164.49,-151.23"/>
<polygon fill="midnightblue" stroke="midnightblue" points="1167.29,-149.13 1158.83,-142.75 1161.47,-153.01 1167.29,-149.13"/>
</g>
<!-- Node20&#45;&gt;Node5 -->
<g id="edge31" class="edge">
<title>Node20&#45;&gt;Node5</title>
<path fill="none" stroke="midnightblue" d="M159.25,-179.46C192.52,-166.26 259.12,-140.62 317,-123 359.45,-110.08 407.62,-98.03 446.48,-88.95"/>
<polygon fill="midnightblue" stroke="midnightblue" points="447.72,-92.26 456.67,-86.59 446.13,-85.44 447.72,-92.26"/>
</g>
<!-- Node22 -->
<g id="node22" class="node">
<title>Node22</title>
<g id="a_node22"><a xlink:href="TypingStatement_8h.html" target="_top" xlink:title=" ">
<polygon fill="white" stroke="black" points="370.5,-302.5 370.5,-332.5 517.5,-332.5 517.5,-302.5 370.5,-302.5"/>
<text text-anchor="start" x="378.5" y="-320.5" font-family="Helvetica,sans-Serif" font-size="10.00">boomerang/ssl/statements</text>
<text text-anchor="middle" x="444" y="-309.5" font-family="Helvetica,sans-Serif" font-size="10.00">/TypingStatement.h</text>
</a>
</g>
</g>
<!-- Node21&#45;&gt;Node22 -->
<g id="edge33" class="edge">
<title>Node21&#45;&gt;Node22</title>
<path fill="none" stroke="midnightblue" d="M480.8,-369.4C474.77,-361.05 466.98,-350.29 460.13,-340.81"/>
<polygon fill="midnightblue" stroke="midnightblue" points="462.87,-338.63 454.18,-332.58 457.2,-342.73 462.87,-338.63"/>
</g>
<!-- Node23 -->
<g id="node23" class="node">
<title>Node23</title>
<g id="a_node23"><a xlink:href="Statement_8h.html" target="_top" xlink:title=" ">
<polygon fill="white" stroke="black" points="323.5,-235.5 323.5,-265.5 470.5,-265.5 470.5,-235.5 323.5,-235.5"/>
<text text-anchor="start" x="331.5" y="-253.5" font-family="Helvetica,sans-Serif" font-size="10.00">boomerang/ssl/statements</text>
<text text-anchor="middle" x="397" y="-242.5" font-family="Helvetica,sans-Serif" font-size="10.00">/Statement.h</text>
</a>
</g>
</g>
<!-- Node22&#45;&gt;Node23 -->
<g id="edge34" class="edge">
<title>Node22&#45;&gt;Node23</title>
<path fill="none" stroke="midnightblue" d="M433.8,-302.4C427.77,-294.05 419.98,-283.29 413.13,-273.81"/>
<polygon fill="midnightblue" stroke="midnightblue" points="415.87,-271.63 407.18,-265.58 410.2,-275.73 415.87,-271.63"/>
</g>
<!-- Node23&#45;&gt;Node4 -->
<g id="edge38" class="edge">
<title>Node23&#45;&gt;Node4</title>
<path fill="none" stroke="midnightblue" d="M397,-235.4C397,-227.47 397,-217.46 397,-208.86"/>
<polygon fill="midnightblue" stroke="midnightblue" points="400.5,-208.66 397,-198.66 393.5,-208.66 400.5,-208.66"/>
</g>
<!-- Node24 -->
<g id="node24" class="node">
<title>Node24</title>
<g id="a_node24"><a xlink:href="ExpHelp_8h.html" target="_top" xlink:title=" ">
<polygon fill="white" stroke="black" points="486,-179.5 486,-198.5 648,-198.5 648,-179.5 486,-179.5"/>
<text text-anchor="middle" x="567" y="-186.5" font-family="Helvetica,sans-Serif" font-size="10.00">boomerang/ssl/exp/ExpHelp.h</text>
</a>
</g>
</g>
<!-- Node23&#45;&gt;Node24 -->
<g id="edge35" class="edge">
<title>Node23&#45;&gt;Node24</title>
<path fill="none" stroke="midnightblue" d="M437.29,-235.4C466.32,-225.24 505.08,-211.67 532.65,-202.02"/>
<polygon fill="midnightblue" stroke="midnightblue" points="533.98,-205.26 542.26,-198.66 531.67,-198.66 533.98,-205.26"/>
</g>
<!-- Node25 -->
<g id="node25" class="node">
<title>Node25</title>
<g id="a_node25"><a xlink:title=" ">
<polygon fill="white" stroke="#bfbfbf" points="238,-179.5 238,-198.5 270,-198.5 270,-179.5 238,-179.5"/>
<text text-anchor="middle" x="254" y="-186.5" font-family="Helvetica,sans-Serif" font-size="10.00">list</text>
</a>
</g>
</g>
<!-- Node23&#45;&gt;Node25 -->
<g id="edge39" class="edge">
<title>Node23&#45;&gt;Node25</title>
<path fill="none" stroke="midnightblue" d="M363.11,-235.4C337.5,-224.74 302.88,-210.34 279.57,-200.64"/>
<polygon fill="midnightblue" stroke="midnightblue" points="280.6,-197.28 270.03,-196.67 277.91,-203.74 280.6,-197.28"/>
</g>
<!-- Node26 -->
<g id="node26" class="node">
<title>Node26</title>
<g id="a_node26"><a xlink:title=" ">
<polygon fill="white" stroke="#bfbfbf" points="0,-179.5 0,-198.5 38,-198.5 38,-179.5 0,-179.5"/>
<text text-anchor="middle" x="19" y="-186.5" font-family="Helvetica,sans-Serif" font-size="10.00">map</text>
</a>
</g>
</g>
<!-- Node23&#45;&gt;Node26 -->
<g id="edge40" class="edge">
<title>Node23&#45;&gt;Node26</title>
<path fill="none" stroke="midnightblue" d="M323.27,-242.5C254.27,-235.12 148.31,-221.68 48.15,-198.93"/>
<polygon fill="midnightblue" stroke="midnightblue" points="48.69,-195.46 38.16,-196.63 47.12,-202.28 48.69,-195.46"/>
</g>
<!-- Node24&#45;&gt;Node5 -->
<g id="edge36" class="edge">
<title>Node24&#45;&gt;Node5</title>
<path fill="none" stroke="midnightblue" d="M563.54,-179.32C556.57,-161.81 540.61,-121.75 530.35,-95.97"/>
<polygon fill="midnightblue" stroke="midnightblue" points="533.55,-94.54 526.59,-86.55 527.04,-97.13 533.55,-94.54"/>
</g>
<!-- Node24&#45;&gt;Node11 -->
<g id="edge37" class="edge">
<title>Node24&#45;&gt;Node11</title>
<path fill="none" stroke="midnightblue" d="M625.79,-179.44C702.04,-168.34 833.03,-149.28 898.43,-139.76"/>
<polygon fill="midnightblue" stroke="midnightblue" points="899.33,-143.17 908.72,-138.26 898.32,-136.24 899.33,-143.17"/>
</g>
<!-- Node27&#45;&gt;Node13 -->
<g id="edge42" class="edge">
<title>Node27&#45;&gt;Node13</title>
<path fill="none" stroke="midnightblue" d="M1097.66,-302.4C1079.41,-292.98 1055.22,-280.5 1035.36,-270.26"/>
<polygon fill="midnightblue" stroke="midnightblue" points="1036.78,-267.05 1026.29,-265.58 1033.57,-273.27 1036.78,-267.05"/>
</g>
<!-- Node29&#45;&gt;Node6 -->
<g id="edge47" class="edge">
<title>Node29&#45;&gt;Node6</title>
<path fill="none" stroke="midnightblue" d="M539.17,-240.99C459.28,-228.97 324.12,-207.52 317,-199 298.87,-177.3 333.1,-157.96 362.72,-146.13"/>
<polygon fill="midnightblue" stroke="midnightblue" points="364,-149.39 372.11,-142.56 361.51,-142.85 364,-149.39"/>
</g>
<!-- Node29&#45;&gt;Node10 -->
<g id="edge48" class="edge">
<title>Node29&#45;&gt;Node10</title>
<path fill="none" stroke="midnightblue" d="M619.17,-240.9C641.87,-231.74 677.87,-216.2 707,-199 732.49,-183.95 759.55,-163.14 776.83,-149.15"/>
<polygon fill="midnightblue" stroke="midnightblue" points="779.4,-151.58 784.92,-142.53 774.96,-146.16 779.4,-151.58"/>
</g>
<!-- Node29&#45;&gt;Node11 -->
<g id="edge51" class="edge">
<title>Node29&#45;&gt;Node11</title>
<path fill="none" stroke="midnightblue" d="M622.22,-240.95C650.39,-231.27 697.26,-214.79 737,-199 757.72,-190.77 762.03,-186.57 783,-179 821.89,-164.97 867.43,-152.16 899.04,-143.83"/>
<polygon fill="midnightblue" stroke="midnightblue" points="900,-147.2 908.79,-141.29 898.23,-140.43 900,-147.2"/>
</g>
<!-- Node29&#45;&gt;Node14 -->
<g id="edge49" class="edge">
<title>Node29&#45;&gt;Node14</title>
<path fill="none" stroke="midnightblue" d="M642.94,-240.92C691.3,-231.74 769.89,-216.41 847.71,-198.98"/>
<polygon fill="midnightblue" stroke="midnightblue" points="848.7,-202.34 857.69,-196.73 847.16,-195.51 848.7,-202.34"/>
</g>
<!-- Node29&#45;&gt;Node20 -->
<g id="edge46" class="edge">
<title>Node29&#45;&gt;Node20</title>
<path fill="none" stroke="midnightblue" d="M531.24,-240.98C447.22,-230.08 302.11,-211.27 213.61,-199.8"/>
<polygon fill="midnightblue" stroke="midnightblue" points="214.01,-196.32 203.64,-198.51 213.11,-203.27 214.01,-196.32"/>
</g>
<!-- Node29&#45;&gt;Node24 -->
<g id="edge45" class="edge">
<title>Node29&#45;&gt;Node24</title>
<path fill="none" stroke="midnightblue" d="M592.7,-240.98C588.34,-232.32 581.44,-218.65 575.9,-207.65"/>
<polygon fill="midnightblue" stroke="midnightblue" points="578.92,-205.86 571.29,-198.51 572.67,-209.01 578.92,-205.86"/>
</g>
<!-- Node29&#45;&gt;Node25 -->
<g id="edge50" class="edge">
<title>Node29&#45;&gt;Node25</title>
<path fill="none" stroke="midnightblue" d="M527.8,-241C464.04,-232.53 367.02,-218.06 284,-199 282.72,-198.71 281.41,-198.39 280.09,-198.05"/>
<polygon fill="midnightblue" stroke="midnightblue" points="280.66,-194.57 270.09,-195.25 278.78,-201.32 280.66,-194.57"/>
</g>
<!-- Node29&#45;&gt;Node28 -->
<g id="edge53" class="edge">
<title>Node29&#45;&gt;Node28</title>
<path fill="none" stroke="midnightblue" d="M628.38,-240.98C669.35,-229.84 740.78,-210.44 782.68,-199.05"/>
<polygon fill="midnightblue" stroke="midnightblue" points="783.68,-202.41 792.42,-196.41 781.85,-195.65 783.68,-202.41"/>
</g>
<!-- Node30 -->
<g id="node30" class="node">
<title>Node30</title>
<g id="a_node30"><a xlink:title=" ">
<polygon fill="white" stroke="#bfbfbf" points="666,-179.5 666,-198.5 698,-198.5 698,-179.5 666,-179.5"/>
<text text-anchor="middle" x="682" y="-186.5" font-family="Helvetica,sans-Serif" font-size="10.00">set</text>
</a>
</g>
</g>
<!-- Node29&#45;&gt;Node30 -->
<g id="edge52" class="edge">
<title>Node29&#45;&gt;Node30</title>
<path fill="none" stroke="midnightblue" d="M609.18,-240.98C622.81,-231.43 645.13,-215.81 661.47,-204.37"/>
<polygon fill="midnightblue" stroke="midnightblue" points="663.66,-207.11 669.84,-198.51 659.64,-201.38 663.66,-207.11"/>
</g>
</g>
</svg>
        <g id="navigator" transform="translate(0 0)" fill="#404254">
                <rect fill="#f2f5e9" fill-opacity="0.5" stroke="#606060" stroke-width=".5" x="0" y="0" width="60" height="60"/>
                <use id="zoomplus" xlink:href="#zoomPlus" x="17" y="9" onmousedown="handleZoom(evt,'in')"/>
                <use id="zoomminus" xlink:href="#zoomMin" x="42" y="9" onmousedown="handleZoom(evt,'out')"/>
                <use id="reset" xlink:href="#resetDef" x="30" y="36" onmousedown="handleReset()"/>
                <g id="arrowUp" xlink:href="#dirArrow" transform="translate(30 24)" onmousedown="handlePan(0,-1)">
                  <use xlink:href="#rim" fill="#404040">
                        <set attributeName="fill" to="#808080" begin="arrowUp.mouseover" end="arrowUp.mouseout"/>
                  </use>
                  <path fill="none" stroke="white" stroke-width="1.5" d="M0,-3.0v7 M-2.5,-0.5L0,-3.0L2.5,-0.5"/>
                </g>
                <g id="arrowRight" xlink:href="#dirArrow" transform="rotate(90) translate(36 -43)" onmousedown="handlePan(1,0)">
                  <use xlink:href="#rim" fill="#404040">
                        <set attributeName="fill" to="#808080" begin="arrowRight.mouseover" end="arrowRight.mouseout"/>
                  </use>
                  <path fill="none" stroke="white" stroke-width="1.5" d="M0,-3.0v7 M-2.5,-0.5L0,-3.0L2.5,-0.5"/>
                </g>
                <g id="arrowDown" xlink:href="#dirArrow" transform="rotate(180) translate(-30 -48)" onmousedown="handlePan(0,1)">
                  <use xlink:href="#rim" fill="#404040">
                        <set attributeName="fill" to="#808080" begin="arrowDown.mouseover" end="arrowDown.mouseout"/>
                  </use>
                  <path fill="none" stroke="white" stroke-width="1.5" d="M0,-3.0v7 M-2.5,-0.5L0,-3.0L2.5,-0.5"/>
                </g>
                <g id="arrowLeft" xlink:href="#dirArrow" transform="rotate(270) translate(-36 17)" onmousedown="handlePan(-1,0)">
                  <use xlink:href="#rim" fill="#404040">
                        <set attributeName="fill" to="#808080" begin="arrowLeft.mouseover" end="arrowLeft.mouseout"/>
                  </use>
                  <path fill="none" stroke="white" stroke-width="1.5" d="M0,-3.0v7 M-2.5,-0.5L0,-3.0L2.5,-0.5"/>
                </g>
        </g>
        <svg viewBox="0 0 15 15" width="100%" height="30px" preserveAspectRatio="xMaxYMin meet">
         <g id="arrow_out" transform="scale(0.3 0.3)">
          <a xlink:href="Win32Signature_8h__incl_org.svg" target="_base">
           <rect id="button" ry="5" rx="5" y="6" x="6" height="38" width="38"
                fill="#f2f5e9" fill-opacity="0.5" stroke="#606060" stroke-width="1.0"/>
           <path id="arrow"
             d="M 11.500037,31.436501 C 11.940474,20.09759 22.043105,11.32322 32.158766,21.979434 L 37.068811,17.246167 C 37.068811,17.246167 37.088388,32 37.088388,32 L 22.160133,31.978069 C 22.160133,31.978069 26.997745,27.140456 26.997745,27.140456 C 18.528582,18.264221 13.291696,25.230495 11.500037,31.436501 z"
             style="fill:#404040;"/>
          </a>
         </g>
        </svg>
</svg>
