<?xml version="1.0" encoding="UTF-8" standalone="no"?>
<!DOCTYPE svg PUBLIC "-//W3C//DTD SVG 1.1//EN"
 "http://www.w3.org/Graphics/SVG/1.1/DTD/svg11.dtd">
<!-- Generated by graphviz version 2.43.0 (0)
 -->
<!-- Title: zone.h Pages: 1 -->
<svg width="166pt" height="140pt"
 viewBox="0.00 0.00 165.50 140.00" xmlns="http://www.w3.org/2000/svg" xmlns:xlink="http://www.w3.org/1999/xlink">
<g id="graph0" class="graph" transform="scale(1 1) rotate(0) translate(4 136)">
<title>zone.h</title>
<polygon fill="white" stroke="transparent" points="-4,4 -4,-136 161.5,-136 161.5,4 -4,4"/>
<!-- Node1 -->
<g id="node1" class="node">
<title>Node1</title>
<g id="a_node1"><a xlink:title=" ">
<polygon fill="#bfbfbf" stroke="black" points="47.5,-112.5 47.5,-131.5 96.5,-131.5 96.5,-112.5 47.5,-112.5"/>
<text text-anchor="middle" x="72" y="-119.5" font-family="Helvetica,sans-Serif" font-size="10.00">zone.h</text>
</a>
</g>
</g>
<!-- Node2 -->
<g id="node2" class="node">
<title>Node2</title>
<g id="a_node2"><a xlink:href="malloc_8h.html" target="_top" xlink:title=" ">
<polygon fill="white" stroke="black" points="31,-56.5 31,-75.5 113,-75.5 113,-56.5 31,-56.5"/>
<text text-anchor="middle" x="72" y="-63.5" font-family="Helvetica,sans-Serif" font-size="10.00">objc/malloc.h</text>
</a>
</g>
</g>
<!-- Node1&#45;&gt;Node2 -->
<g id="edge1" class="edge">
<title>Node1&#45;&gt;Node2</title>
<path fill="none" stroke="midnightblue" d="M72,-112.08C72,-105.01 72,-94.86 72,-85.99"/>
<polygon fill="midnightblue" stroke="midnightblue" points="75.5,-85.75 72,-75.75 68.5,-85.75 75.5,-85.75"/>
</g>
<!-- Node3 -->
<g id="node3" class="node">
<title>Node3</title>
<g id="a_node3"><a xlink:title=" ">
<polygon fill="white" stroke="#bfbfbf" points="0,-0.5 0,-19.5 56,-19.5 56,-0.5 0,-0.5"/>
<text text-anchor="middle" x="28" y="-7.5" font-family="Helvetica,sans-Serif" font-size="10.00">stddef.h</text>
</a>
</g>
</g>
<!-- Node2&#45;&gt;Node3 -->
<g id="edge2" class="edge">
<title>Node2&#45;&gt;Node3</title>
<path fill="none" stroke="midnightblue" d="M64.73,-56.08C58.46,-48.38 49.21,-37.03 41.57,-27.65"/>
<polygon fill="midnightblue" stroke="midnightblue" points="44.16,-25.29 35.13,-19.75 38.73,-29.71 44.16,-25.29"/>
</g>
<!-- Node4 -->
<g id="node4" class="node">
<title>Node4</title>
<g id="a_node4"><a xlink:title=" ">
<polygon fill="white" stroke="#bfbfbf" points="74.5,-0.5 74.5,-19.5 157.5,-19.5 157.5,-0.5 74.5,-0.5"/>
<text text-anchor="middle" x="116" y="-7.5" font-family="Helvetica,sans-Serif" font-size="10.00">mach/mach.h</text>
</a>
</g>
</g>
<!-- Node2&#45;&gt;Node4 -->
<g id="edge3" class="edge">
<title>Node2&#45;&gt;Node4</title>
<path fill="none" stroke="midnightblue" d="M79.27,-56.08C85.54,-48.38 94.79,-37.03 102.43,-27.65"/>
<polygon fill="midnightblue" stroke="midnightblue" points="105.27,-29.71 108.87,-19.75 99.84,-25.29 105.27,-29.71"/>
</g>
</g>
</svg>
