<?xml version="1.0" encoding="UTF-8" standalone="no"?>
<!DOCTYPE svg PUBLIC "-//W3C//DTD SVG 1.1//EN"
 "http://www.w3.org/Graphics/SVG/1.1/DTD/svg11.dtd">
<!-- Generated by graphviz version 2.43.0 (0)
 -->
<!-- Title: AnsiCParserDriver.h Pages: 1 -->
<svg width="508pt" height="84pt"
 viewBox="0.00 0.00 507.50 84.00" xmlns="http://www.w3.org/2000/svg" xmlns:xlink="http://www.w3.org/1999/xlink">
<g id="graph0" class="graph" transform="scale(1 1) rotate(0) translate(4 80)">
<title>AnsiCParserDriver.h</title>
<polygon fill="white" stroke="transparent" points="-4,4 -4,-80 503.5,-80 503.5,4 -4,4"/>
<!-- Node1 -->
<g id="node1" class="node">
<title>Node1</title>
<g id="a_node1"><a xlink:title=" ">
<polygon fill="#bfbfbf" stroke="black" points="193.5,-56.5 193.5,-75.5 307.5,-75.5 307.5,-56.5 193.5,-56.5"/>
<text text-anchor="middle" x="250.5" y="-63.5" font-family="Helvetica,sans-Serif" font-size="10.00">AnsiCParserDriver.h</text>
</a>
</g>
</g>
<!-- Node2 -->
<g id="node2" class="node">
<title>Node2</title>
<g id="a_node2"><a xlink:href="CSymbolProvider_8cpp.html" target="_top" xlink:title=" ">
<polygon fill="white" stroke="black" points="0,-0.5 0,-19.5 121,-19.5 121,-0.5 0,-0.5"/>
<text text-anchor="middle" x="60.5" y="-7.5" font-family="Helvetica,sans-Serif" font-size="10.00">CSymbolProvider.cpp</text>
</a>
</g>
</g>
<!-- Node1&#45;&gt;Node2 -->
<g id="edge1" class="edge">
<title>Node1&#45;&gt;Node2</title>
<path fill="none" stroke="midnightblue" d="M210.74,-53.7C174.88,-43.51 122.93,-28.74 90.47,-19.52"/>
<polygon fill="midnightblue" stroke="midnightblue" points="209.82,-57.08 220.39,-56.44 211.73,-50.34 209.82,-57.08"/>
</g>
<!-- Node3 -->
<g id="node3" class="node">
<title>Node3</title>
<g id="a_node3"><a xlink:href="AnsiCParser_8cpp.html" target="_top" xlink:title=" ">
<polygon fill="white" stroke="black" points="139,-0.5 139,-19.5 234,-19.5 234,-0.5 139,-0.5"/>
<text text-anchor="middle" x="186.5" y="-7.5" font-family="Helvetica,sans-Serif" font-size="10.00">AnsiCParser.cpp</text>
</a>
</g>
</g>
<!-- Node1&#45;&gt;Node3 -->
<g id="edge2" class="edge">
<title>Node1&#45;&gt;Node3</title>
<path fill="none" stroke="midnightblue" d="M232.51,-49.82C221.04,-40.15 206.59,-27.95 196.97,-19.83"/>
<polygon fill="midnightblue" stroke="midnightblue" points="230.32,-52.55 240.22,-56.32 234.83,-47.2 230.32,-52.55"/>
</g>
<!-- Node4 -->
<g id="node4" class="node">
<title>Node4</title>
<g id="a_node4"><a xlink:href="AnsiCParserDriver_8cpp.html" target="_top" xlink:title=" ">
<polygon fill="white" stroke="black" points="252,-0.5 252,-19.5 377,-19.5 377,-0.5 252,-0.5"/>
<text text-anchor="middle" x="314.5" y="-7.5" font-family="Helvetica,sans-Serif" font-size="10.00">AnsiCParserDriver.cpp</text>
</a>
</g>
</g>
<!-- Node1&#45;&gt;Node4 -->
<g id="edge3" class="edge">
<title>Node1&#45;&gt;Node4</title>
<path fill="none" stroke="midnightblue" d="M268.49,-49.82C279.96,-40.15 294.41,-27.95 304.03,-19.83"/>
<polygon fill="midnightblue" stroke="midnightblue" points="266.17,-47.2 260.78,-56.32 270.68,-52.55 266.17,-47.2"/>
</g>
<!-- Node5 -->
<g id="node5" class="node">
<title>Node5</title>
<g id="a_node5"><a xlink:href="AnsiCScanner_8cpp.html" target="_top" xlink:title=" ">
<polygon fill="white" stroke="black" points="395.5,-0.5 395.5,-19.5 499.5,-19.5 499.5,-0.5 395.5,-0.5"/>
<text text-anchor="middle" x="447.5" y="-7.5" font-family="Helvetica,sans-Serif" font-size="10.00">AnsiCScanner.cpp</text>
</a>
</g>
</g>
<!-- Node1&#45;&gt;Node5 -->
<g id="edge4" class="edge">
<title>Node1&#45;&gt;Node5</title>
<path fill="none" stroke="midnightblue" d="M291.73,-53.7C328.91,-43.51 382.77,-28.74 416.43,-19.52"/>
<polygon fill="midnightblue" stroke="midnightblue" points="290.43,-50.42 281.72,-56.44 292.28,-57.18 290.43,-50.42"/>
</g>
</g>
</svg>
