<?xml version="1.0" encoding="UTF-8" standalone="no"?>
<!DOCTYPE svg PUBLIC "-//W3C//DTD SVG 1.1//EN"
 "http://www.w3.org/Graphics/SVG/1.1/DTD/svg11.dtd">
<!-- Generated by graphviz version 2.43.0 (0)
 -->
<!-- Title: AnsiCScanner.cpp Pages: 1 -->
<svg width="876pt" height="330pt"
 viewBox="0.00 0.00 875.50 330.00" xmlns="http://www.w3.org/2000/svg" xmlns:xlink="http://www.w3.org/1999/xlink">
<g id="graph0" class="graph" transform="scale(1 1) rotate(0) translate(4 326)">
<title>AnsiCScanner.cpp</title>
<polygon fill="white" stroke="transparent" points="-4,4 -4,-326 871.5,-326 871.5,4 -4,4"/>
<!-- Node1 -->
<g id="node1" class="node">
<title>Node1</title>
<g id="a_node1"><a xlink:title=" ">
<polygon fill="#bfbfbf" stroke="black" points="210,-302.5 210,-321.5 314,-321.5 314,-302.5 210,-302.5"/>
<text text-anchor="middle" x="262" y="-309.5" font-family="Helvetica,sans-Serif" font-size="10.00">AnsiCScanner.cpp</text>
</a>
</g>
</g>
<!-- Node2 -->
<g id="node2" class="node">
<title>Node2</title>
<g id="a_node2"><a xlink:title=" ">
<polygon fill="white" stroke="#bfbfbf" points="0,-241 0,-260 50,-260 50,-241 0,-241"/>
<text text-anchor="middle" x="25" y="-248" font-family="Helvetica,sans-Serif" font-size="10.00">stdio.h</text>
</a>
</g>
</g>
<!-- Node1&#45;&gt;Node2 -->
<g id="edge1" class="edge">
<title>Node1&#45;&gt;Node2</title>
<path fill="none" stroke="midnightblue" d="M211.26,-302.45C169.77,-294.82 109.87,-282.33 59,-266 57.08,-265.38 55.11,-264.7 53.14,-263.97"/>
<polygon fill="midnightblue" stroke="midnightblue" points="54.05,-260.57 43.47,-260.11 51.46,-267.07 54.05,-260.57"/>
</g>
<!-- Node3 -->
<g id="node3" class="node">
<title>Node3</title>
<g id="a_node3"><a xlink:title=" ">
<polygon fill="white" stroke="#bfbfbf" points="68.5,-241 68.5,-260 121.5,-260 121.5,-241 68.5,-241"/>
<text text-anchor="middle" x="95" y="-248" font-family="Helvetica,sans-Serif" font-size="10.00">string.h</text>
</a>
</g>
</g>
<!-- Node1&#45;&gt;Node3 -->
<g id="edge2" class="edge">
<title>Node1&#45;&gt;Node3</title>
<path fill="none" stroke="midnightblue" d="M235.27,-302.45C208.48,-293.74 166.13,-279.63 130,-266 128.15,-265.3 126.26,-264.57 124.35,-263.82"/>
<polygon fill="midnightblue" stroke="midnightblue" points="125.48,-260.5 114.9,-260 122.86,-266.99 125.48,-260.5"/>
</g>
<!-- Node4 -->
<g id="node4" class="node">
<title>Node4</title>
<g id="a_node4"><a xlink:title=" ">
<polygon fill="white" stroke="#bfbfbf" points="139.5,-241 139.5,-260 190.5,-260 190.5,-241 139.5,-241"/>
<text text-anchor="middle" x="165" y="-248" font-family="Helvetica,sans-Serif" font-size="10.00">errno.h</text>
</a>
</g>
</g>
<!-- Node1&#45;&gt;Node4 -->
<g id="edge3" class="edge">
<title>Node1&#45;&gt;Node4</title>
<path fill="none" stroke="midnightblue" d="M248.1,-302.48C232.33,-292.8 206.36,-276.87 187.65,-265.39"/>
<polygon fill="midnightblue" stroke="midnightblue" points="189.23,-262.25 178.87,-260.01 185.57,-268.22 189.23,-262.25"/>
</g>
<!-- Node5 -->
<g id="node5" class="node">
<title>Node5</title>
<g id="a_node5"><a xlink:title=" ">
<polygon fill="white" stroke="#bfbfbf" points="208.5,-241 208.5,-260 261.5,-260 261.5,-241 208.5,-241"/>
<text text-anchor="middle" x="235" y="-248" font-family="Helvetica,sans-Serif" font-size="10.00">stdlib.h</text>
</a>
</g>
</g>
<!-- Node1&#45;&gt;Node5 -->
<g id="edge4" class="edge">
<title>Node1&#45;&gt;Node5</title>
<path fill="none" stroke="midnightblue" d="M258.13,-302.48C254.2,-293.82 248,-280.15 243.01,-269.15"/>
<polygon fill="midnightblue" stroke="midnightblue" points="246.18,-267.67 238.86,-260.01 239.81,-270.56 246.18,-267.67"/>
</g>
<!-- Node6 -->
<g id="node6" class="node">
<title>Node6</title>
<g id="a_node6"><a xlink:href="AnsiCParserDriver_8h.html" target="_top" xlink:title=" ">
<polygon fill="white" stroke="black" points="318,-241 318,-260 432,-260 432,-241 318,-241"/>
<text text-anchor="middle" x="375" y="-248" font-family="Helvetica,sans-Serif" font-size="10.00">AnsiCParserDriver.h</text>
</a>
</g>
</g>
<!-- Node1&#45;&gt;Node6 -->
<g id="edge5" class="edge">
<title>Node1&#45;&gt;Node6</title>
<path fill="none" stroke="midnightblue" d="M278.19,-302.48C296.9,-292.62 327.92,-276.29 349.8,-264.77"/>
<polygon fill="midnightblue" stroke="midnightblue" points="351.62,-267.77 358.84,-260.01 348.36,-261.57 351.62,-267.77"/>
</g>
<!-- Node7 -->
<g id="node7" class="node">
<title>Node7</title>
<g id="a_node7"><a xlink:title=" ">
<polygon fill="white" stroke="#bfbfbf" points="242,-179.5 242,-198.5 338,-198.5 338,-179.5 242,-179.5"/>
<text text-anchor="middle" x="290" y="-186.5" font-family="Helvetica,sans-Serif" font-size="10.00">AnsiCParser.hpp</text>
</a>
</g>
</g>
<!-- Node1&#45;&gt;Node7 -->
<g id="edge8" class="edge">
<title>Node1&#45;&gt;Node7</title>
<path fill="none" stroke="midnightblue" d="M264.01,-302.3C268.53,-282.76 279.57,-235.06 285.71,-208.55"/>
<polygon fill="midnightblue" stroke="midnightblue" points="289.16,-209.15 288,-198.62 282.34,-207.58 289.16,-209.15"/>
</g>
<!-- Node9 -->
<g id="node9" class="node">
<title>Node9</title>
<g id="a_node9"><a xlink:href="Log_8h.html" target="_top" xlink:title=" ">
<polygon fill="white" stroke="black" points="606.5,-235.5 606.5,-265.5 715.5,-265.5 715.5,-235.5 606.5,-235.5"/>
<text text-anchor="start" x="614.5" y="-253.5" font-family="Helvetica,sans-Serif" font-size="10.00">boomerang/util/log</text>
<text text-anchor="middle" x="661" y="-242.5" font-family="Helvetica,sans-Serif" font-size="10.00">/Log.h</text>
</a>
</g>
</g>
<!-- Node1&#45;&gt;Node9 -->
<g id="edge9" class="edge">
<title>Node1&#45;&gt;Node9</title>
<path fill="none" stroke="midnightblue" d="M314.16,-303.22C386.54,-292.43 517.36,-272.92 596,-261.19"/>
<polygon fill="midnightblue" stroke="midnightblue" points="596.89,-264.6 606.27,-259.66 595.86,-257.68 596.89,-264.6"/>
</g>
<!-- Node18 -->
<g id="node18" class="node">
<title>Node18</title>
<g id="a_node18"><a xlink:title=" ">
<polygon fill="white" stroke="#bfbfbf" points="734,-241 734,-260 790,-260 790,-241 734,-241"/>
<text text-anchor="middle" x="762" y="-248" font-family="Helvetica,sans-Serif" font-size="10.00">unistd.h</text>
</a>
</g>
</g>
<!-- Node1&#45;&gt;Node18 -->
<g id="edge22" class="edge">
<title>Node1&#45;&gt;Node18</title>
<path fill="none" stroke="midnightblue" d="M314.16,-310.6C400.7,-308.9 578.92,-301 725,-266 727.83,-265.32 730.73,-264.47 733.61,-263.53"/>
<polygon fill="midnightblue" stroke="midnightblue" points="734.93,-266.77 743.12,-260.06 732.53,-260.2 734.93,-266.77"/>
</g>
<!-- Node6&#45;&gt;Node7 -->
<g id="edge6" class="edge">
<title>Node6&#45;&gt;Node7</title>
<path fill="none" stroke="midnightblue" d="M362.82,-240.98C349.19,-231.43 326.87,-215.81 310.53,-204.37"/>
<polygon fill="midnightblue" stroke="midnightblue" points="312.36,-201.38 302.16,-198.51 308.34,-207.11 312.36,-201.38"/>
</g>
<!-- Node8 -->
<g id="node8" class="node">
<title>Node8</title>
<g id="a_node8"><a xlink:href="BoomerangAPI_8h.html" target="_top" xlink:title=" ">
<polygon fill="white" stroke="black" points="308.5,-56.5 308.5,-86.5 463.5,-86.5 463.5,-56.5 308.5,-56.5"/>
<text text-anchor="start" x="316.5" y="-74.5" font-family="Helvetica,sans-Serif" font-size="10.00">boomerang/core/Boomerang</text>
<text text-anchor="middle" x="386" y="-63.5" font-family="Helvetica,sans-Serif" font-size="10.00">API.h</text>
</a>
</g>
</g>
<!-- Node6&#45;&gt;Node8 -->
<g id="edge7" class="edge">
<title>Node6&#45;&gt;Node8</title>
<path fill="none" stroke="midnightblue" d="M375.53,-240.96C377.14,-215.08 382,-136.83 384.49,-96.74"/>
<polygon fill="midnightblue" stroke="midnightblue" points="388,-96.72 385.13,-86.52 381.01,-96.29 388,-96.72"/>
</g>
<!-- Node10 -->
<g id="node10" class="node">
<title>Node10</title>
<g id="a_node10"><a xlink:href="Address_8h.html" target="_top" xlink:title=" ">
<polygon fill="white" stroke="black" points="535,-179.5 535,-198.5 677,-198.5 677,-179.5 535,-179.5"/>
<text text-anchor="middle" x="606" y="-186.5" font-family="Helvetica,sans-Serif" font-size="10.00">boomerang/util/Address.h</text>
</a>
</g>
</g>
<!-- Node9&#45;&gt;Node10 -->
<g id="edge10" class="edge">
<title>Node9&#45;&gt;Node10</title>
<path fill="none" stroke="midnightblue" d="M647.97,-235.4C639.81,-226.58 629.28,-215.18 620.81,-206.02"/>
<polygon fill="midnightblue" stroke="midnightblue" points="623.36,-203.63 614,-198.66 618.22,-208.38 623.36,-203.63"/>
</g>
<!-- Node12 -->
<g id="node12" class="node">
<title>Node12</title>
<g id="a_node12"><a xlink:href="Types_8h.html" target="_top" xlink:title=" ">
<polygon fill="white" stroke="black" points="546.5,-62 546.5,-81 677.5,-81 677.5,-62 546.5,-62"/>
<text text-anchor="middle" x="612" y="-69" font-family="Helvetica,sans-Serif" font-size="10.00">boomerang/util/Types.h</text>
</a>
</g>
</g>
<!-- Node9&#45;&gt;Node12 -->
<g id="edge19" class="edge">
<title>Node9&#45;&gt;Node12</title>
<path fill="none" stroke="midnightblue" d="M671.76,-235.36C688.86,-211.04 718.23,-160.31 697,-123 686.83,-105.13 667.56,-92.92 649.94,-84.99"/>
<polygon fill="midnightblue" stroke="midnightblue" points="650.96,-81.63 640.38,-81.02 648.27,-88.09 650.96,-81.63"/>
</g>
<!-- Node16 -->
<g id="node16" class="node">
<title>Node16</title>
<g id="a_node16"><a xlink:title=" ">
<polygon fill="white" stroke="#bfbfbf" points="744,-179.5 744,-198.5 802,-198.5 802,-179.5 744,-179.5"/>
<text text-anchor="middle" x="773" y="-186.5" font-family="Helvetica,sans-Serif" font-size="10.00">memory</text>
</a>
</g>
</g>
<!-- Node9&#45;&gt;Node16 -->
<g id="edge20" class="edge">
<title>Node9&#45;&gt;Node16</title>
<path fill="none" stroke="midnightblue" d="M687.54,-235.4C705.66,-225.77 729.54,-213.09 747.44,-203.58"/>
<polygon fill="midnightblue" stroke="midnightblue" points="749.51,-206.44 756.7,-198.66 746.23,-200.26 749.51,-206.44"/>
</g>
<!-- Node17 -->
<g id="node17" class="node">
<title>Node17</title>
<g id="a_node17"><a xlink:title=" ">
<polygon fill="white" stroke="#bfbfbf" points="820.5,-179.5 820.5,-198.5 867.5,-198.5 867.5,-179.5 820.5,-179.5"/>
<text text-anchor="middle" x="844" y="-186.5" font-family="Helvetica,sans-Serif" font-size="10.00">vector</text>
</a>
</g>
</g>
<!-- Node9&#45;&gt;Node17 -->
<g id="edge21" class="edge">
<title>Node9&#45;&gt;Node17</title>
<path fill="none" stroke="midnightblue" d="M704.37,-235.4C736.94,-224.81 780.89,-210.52 810.72,-200.82"/>
<polygon fill="midnightblue" stroke="midnightblue" points="811.83,-204.14 820.25,-197.72 809.66,-197.48 811.83,-204.14"/>
</g>
<!-- Node10&#45;&gt;Node8 -->
<g id="edge11" class="edge">
<title>Node10&#45;&gt;Node8</title>
<path fill="none" stroke="midnightblue" d="M534.8,-184.27C498.17,-179.17 454.68,-167.81 423,-143 408,-131.26 398.43,-111.73 392.79,-96.2"/>
<polygon fill="midnightblue" stroke="midnightblue" points="396.1,-95.08 389.63,-86.69 389.46,-97.28 396.1,-95.08"/>
</g>
<!-- Node11 -->
<g id="node11" class="node">
<title>Node11</title>
<g id="a_node11"><a xlink:href="OStream_8h.html" target="_top" xlink:title=" ">
<polygon fill="white" stroke="black" points="432,-123.5 432,-142.5 578,-142.5 578,-123.5 432,-123.5"/>
<text text-anchor="middle" x="505" y="-130.5" font-family="Helvetica,sans-Serif" font-size="10.00">boomerang/util/OStream.h</text>
</a>
</g>
</g>
<!-- Node10&#45;&gt;Node11 -->
<g id="edge12" class="edge">
<title>Node10&#45;&gt;Node11</title>
<path fill="none" stroke="midnightblue" d="M589.77,-179.32C573.65,-170.7 548.7,-157.36 530.04,-147.39"/>
<polygon fill="midnightblue" stroke="midnightblue" points="531.66,-144.28 521.19,-142.65 528.36,-150.46 531.66,-144.28"/>
</g>
<!-- Node10&#45;&gt;Node12 -->
<g id="edge17" class="edge">
<title>Node10&#45;&gt;Node12</title>
<path fill="none" stroke="midnightblue" d="M606.45,-179.32C607.42,-160.76 609.7,-116.84 611.01,-91.47"/>
<polygon fill="midnightblue" stroke="midnightblue" points="614.52,-91.45 611.54,-81.28 607.53,-91.09 614.52,-91.45"/>
</g>
<!-- Node15 -->
<g id="node15" class="node">
<title>Node15</title>
<g id="a_node15"><a xlink:title=" ">
<polygon fill="white" stroke="#bfbfbf" points="634.5,-123.5 634.5,-142.5 687.5,-142.5 687.5,-123.5 634.5,-123.5"/>
<text text-anchor="middle" x="661" y="-130.5" font-family="Helvetica,sans-Serif" font-size="10.00">QString</text>
</a>
</g>
</g>
<!-- Node10&#45;&gt;Node15 -->
<g id="edge18" class="edge">
<title>Node10&#45;&gt;Node15</title>
<path fill="none" stroke="midnightblue" d="M615.08,-179.08C623.17,-171.14 635.2,-159.34 644.91,-149.8"/>
<polygon fill="midnightblue" stroke="midnightblue" points="647.4,-152.25 652.09,-142.75 642.5,-147.26 647.4,-152.25"/>
</g>
<!-- Node11&#45;&gt;Node8 -->
<g id="edge13" class="edge">
<title>Node11&#45;&gt;Node8</title>
<path fill="none" stroke="midnightblue" d="M487.95,-123.48C471.08,-115.04 444.71,-101.86 423.02,-91.01"/>
<polygon fill="midnightblue" stroke="midnightblue" points="424.56,-87.86 414.05,-86.52 421.42,-94.13 424.56,-87.86"/>
</g>
<!-- Node11&#45;&gt;Node12 -->
<g id="edge14" class="edge">
<title>Node11&#45;&gt;Node12</title>
<path fill="none" stroke="midnightblue" d="M520.33,-123.48C537.97,-113.67 567.16,-97.43 587.86,-85.92"/>
<polygon fill="midnightblue" stroke="midnightblue" points="589.66,-88.93 596.7,-81.01 586.26,-82.81 589.66,-88.93"/>
</g>
<!-- Node14 -->
<g id="node14" class="node">
<title>Node14</title>
<g id="a_node14"><a xlink:title=" ">
<polygon fill="white" stroke="#bfbfbf" points="482,-62 482,-81 528,-81 528,-62 482,-62"/>
<text text-anchor="middle" x="505" y="-69" font-family="Helvetica,sans-Serif" font-size="10.00">cstdio</text>
</a>
</g>
</g>
<!-- Node11&#45;&gt;Node14 -->
<g id="edge16" class="edge">
<title>Node11&#45;&gt;Node14</title>
<path fill="none" stroke="midnightblue" d="M505,-123.48C505,-115.08 505,-101.98 505,-91.16"/>
<polygon fill="midnightblue" stroke="midnightblue" points="508.5,-91.01 505,-81.01 501.5,-91.01 508.5,-91.01"/>
</g>
<!-- Node13 -->
<g id="node13" class="node">
<title>Node13</title>
<g id="a_node13"><a xlink:title=" ">
<polygon fill="white" stroke="#bfbfbf" points="587,-0.5 587,-19.5 637,-19.5 637,-0.5 587,-0.5"/>
<text text-anchor="middle" x="612" y="-7.5" font-family="Helvetica,sans-Serif" font-size="10.00">cstdint</text>
</a>
</g>
</g>
<!-- Node12&#45;&gt;Node13 -->
<g id="edge15" class="edge">
<title>Node12&#45;&gt;Node13</title>
<path fill="none" stroke="midnightblue" d="M612,-61.98C612,-53.58 612,-40.48 612,-29.66"/>
<polygon fill="midnightblue" stroke="midnightblue" points="615.5,-29.51 612,-19.51 608.5,-29.51 615.5,-29.51"/>
</g>
</g>
</svg>
