<?xml version="1.0" encoding="UTF-8" standalone="no"?>
<!DOCTYPE svg PUBLIC "-//W3C//DTD SVG 1.1//EN"
 "http://www.w3.org/Graphics/SVG/1.1/DTD/svg11.dtd">
<!-- Generated by graphviz version 2.43.0 (0)
 -->
<!-- Title: BadMemofFinder.h Pages: 1 -->
<svg width="200pt" height="84pt"
 viewBox="0.00 0.00 200.00 84.00" xmlns="http://www.w3.org/2000/svg" xmlns:xlink="http://www.w3.org/1999/xlink">
<g id="graph0" class="graph" transform="scale(1 1) rotate(0) translate(4 80)">
<title>BadMemofFinder.h</title>
<polygon fill="white" stroke="transparent" points="-4,4 -4,-80 196,-80 196,4 -4,4"/>
<!-- Node1 -->
<g id="node1" class="node">
<title>Node1</title>
<g id="a_node1"><a xlink:title=" ">
<polygon fill="#bfbfbf" stroke="black" points="25.5,-56.5 25.5,-75.5 133.5,-75.5 133.5,-56.5 25.5,-56.5"/>
<text text-anchor="middle" x="79.5" y="-63.5" font-family="Helvetica,sans-Serif" font-size="10.00">BadMemofFinder.h</text>
</a>
</g>
</g>
<!-- Node2 -->
<g id="node2" class="node">
<title>Node2</title>
<g id="a_node2"><a xlink:href="Exp_8cpp.html" target="_top" xlink:title=" ">
<polygon fill="white" stroke="black" points="0,-0.5 0,-19.5 55,-19.5 55,-0.5 0,-0.5"/>
<text text-anchor="middle" x="27.5" y="-7.5" font-family="Helvetica,sans-Serif" font-size="10.00">Exp.cpp</text>
</a>
</g>
</g>
<!-- Node1&#45;&gt;Node2 -->
<g id="edge1" class="edge">
<title>Node1&#45;&gt;Node2</title>
<path fill="none" stroke="midnightblue" d="M63.82,-48.72C54.66,-39.2 43.45,-27.56 35.93,-19.75"/>
<polygon fill="midnightblue" stroke="midnightblue" points="61.46,-51.31 70.91,-56.08 66.5,-46.45 61.46,-51.31"/>
</g>
<!-- Node3 -->
<g id="node3" class="node">
<title>Node3</title>
<g id="a_node3"><a xlink:href="BadMemofFinder_8cpp.html" target="_top" xlink:title=" ">
<polygon fill="white" stroke="black" points="73,-0.5 73,-19.5 192,-19.5 192,-0.5 73,-0.5"/>
<text text-anchor="middle" x="132.5" y="-7.5" font-family="Helvetica,sans-Serif" font-size="10.00">BadMemofFinder.cpp</text>
</a>
</g>
</g>
<!-- Node1&#45;&gt;Node3 -->
<g id="edge2" class="edge">
<title>Node1&#45;&gt;Node3</title>
<path fill="none" stroke="midnightblue" d="M95.48,-48.72C104.82,-39.2 116.25,-27.56 123.91,-19.75"/>
<polygon fill="midnightblue" stroke="midnightblue" points="92.76,-46.49 88.25,-56.08 97.75,-51.4 92.76,-46.49"/>
</g>
</g>
</svg>
