<?xml version="1.0" encoding="UTF-8" standalone="no"?>
<!DOCTYPE svg PUBLIC "-//W3C//DTD SVG 1.1//EN"
 "http://www.w3.org/Graphics/SVG/1.1/DTD/svg11.dtd">
<!-- Generated by graphviz version 2.43.0 (0)
 -->
<!-- Title: BinaryImage.h Pages: 1 -->
<!--zoomable 252 -->
<svg id="main" version="1.1" xmlns="http://www.w3.org/2000/svg" xmlns:xlink="http://www.w3.org/1999/xlink" xml:space="preserve" onload="init(evt)">
<style type="text/css"><![CDATA[
.edge:hover path { stroke: red; }
.edge:hover polygon { stroke: red; fill: red; }
]]></style>
<script type="text/javascript"><![CDATA[
var edges = document.getElementsByTagName('g');
if (edges && edges.length) {
  for (var i=0;i<edges.length;i++) {
    if (edges[i].id.substr(0,4)=='edge') {
      edges[i].setAttribute('class','edge');
    }
  }
}
]]></script>
        <defs>
                <circle id="rim" cx="0" cy="0" r="7"/>
                <circle id="rim2" cx="0" cy="0" r="3.5"/>
                <g id="zoomPlus">
                        <use xlink:href="#rim" fill="#404040">
                                <set attributeName="fill" to="#808080" begin="zoomplus.mouseover" end="zoomplus.mouseout"/>
                        </use>
                        <path d="M-4,0h8M0,-4v8" fill="none" stroke="white" stroke-width="1.5" pointer-events="none"/>
                </g>
                <g id="zoomMin">
                        <use xlink:href="#rim" fill="#404040">
                                <set attributeName="fill" to="#808080" begin="zoomminus.mouseover" end="zoomminus.mouseout"/>
                        </use>
                        <path d="M-4,0h8" fill="none" stroke="white" stroke-width="1.5" pointer-events="none"/>
                </g>
                <g id="dirArrow">
                        <path fill="none" stroke="white" stroke-width="1.5" d="M0,-3.0v7 M-2.5,-0.5L0,-3.0L2.5,-0.5"/>
                </g>
               <g id="resetDef">
                       <use xlink:href="#rim2" fill="#404040">
                               <set attributeName="fill" to="#808080" begin="reset.mouseover" end="reset.mouseout"/>
                       </use>
               </g>
        </defs>

<script type="text/javascript">
var viewWidth = 5178;
var viewHeight = 252;
var sectionId = 'dynsection-1';
</script>
<script xlink:href="svgpan.js"/>
<svg id="graph" class="graph">
<g id="viewport">
<title>BinaryImage.h</title>
<polygon fill="white" stroke="transparent" points="-4,4 -4,-248 5173.5,-248 5173.5,4 -4,4"/>
<!-- Node1 -->
<g id="node1" class="node">
<title>Node1</title>
<g id="a_node1"><a xlink:title=" ">
<polygon fill="#bfbfbf" stroke="black" points="4299,-224.5 4299,-243.5 4387,-243.5 4387,-224.5 4299,-224.5"/>
<text text-anchor="middle" x="4343" y="-231.5" font-family="Helvetica,sans-Serif" font-size="10.00">BinaryImage.h</text>
</a>
</g>
</g>
<!-- Node2 -->
<g id="node2" class="node">
<title>Node2</title>
<g id="a_node2"><a xlink:href="IFileLoader_8h.html" target="_top" xlink:title=" ">
<polygon fill="white" stroke="black" points="3593,-168.5 3593,-187.5 3671,-187.5 3671,-168.5 3593,-168.5"/>
<text text-anchor="middle" x="3632" y="-175.5" font-family="Helvetica,sans-Serif" font-size="10.00">IFileLoader.h</text>
</a>
</g>
</g>
<!-- Node1&#45;&gt;Node2 -->
<g id="edge1" class="edge">
<title>Node1&#45;&gt;Node2</title>
<path fill="none" stroke="midnightblue" d="M4288.48,-228.86C4150.63,-218.39 3790.66,-191.05 3671.18,-181.98"/>
<polygon fill="midnightblue" stroke="midnightblue" points="4288.56,-232.38 4298.79,-229.64 4289.09,-225.4 4288.56,-232.38"/>
</g>
<!-- Node62 -->
<g id="node5" class="node">
<title>Node62</title>
<g id="a_node5"><a xlink:href="DOS4GWBinaryLoader_8cpp.html" target="_top" xlink:title=" ">
<polygon fill="white" stroke="black" points="132,-0.5 132,-19.5 278,-19.5 278,-0.5 132,-0.5"/>
<text text-anchor="middle" x="205" y="-7.5" font-family="Helvetica,sans-Serif" font-size="10.00">DOS4GWBinaryLoader.cpp</text>
</a>
</g>
</g>
<!-- Node1&#45;&gt;Node62 -->
<g id="edge59" class="edge">
<title>Node1&#45;&gt;Node62</title>
<path fill="none" stroke="midnightblue" d="M4288.47,-232.76C3797.39,-230.51 153.25,-211.1 76,-132 33.09,-88.06 135.96,-38.93 183.02,-19.53"/>
<polygon fill="midnightblue" stroke="midnightblue" points="4288.81,-236.26 4298.82,-232.81 4288.84,-229.26 4288.81,-236.26"/>
</g>
<!-- Node63 -->
<g id="node6" class="node">
<title>Node63</title>
<g id="a_node6"><a xlink:href="ElfBinaryLoader_8cpp.html" target="_top" xlink:title=" ">
<polygon fill="white" stroke="black" points="0,-0.5 0,-19.5 114,-19.5 114,-0.5 0,-0.5"/>
<text text-anchor="middle" x="57" y="-7.5" font-family="Helvetica,sans-Serif" font-size="10.00">ElfBinaryLoader.cpp</text>
</a>
</g>
</g>
<!-- Node1&#45;&gt;Node63 -->
<g id="edge60" class="edge">
<title>Node1&#45;&gt;Node63</title>
<path fill="none" stroke="midnightblue" d="M4288.4,-232.85C3843.5,-231.6 819.58,-221.88 417,-188 257.83,-174.61 168.26,-251.26 62,-132 33.33,-99.82 47.37,-41.59 54.1,-19.66"/>
<polygon fill="midnightblue" stroke="midnightblue" points="4288.72,-236.35 4298.73,-232.88 4288.74,-229.35 4288.72,-236.35"/>
</g>
<!-- Node64 -->
<g id="node7" class="node">
<title>Node64</title>
<g id="a_node7"><a xlink:href="ExeBinaryLoader_8cpp.html" target="_top" xlink:title=" ">
<polygon fill="white" stroke="black" points="3896.5,-0.5 3896.5,-19.5 4015.5,-19.5 4015.5,-0.5 3896.5,-0.5"/>
<text text-anchor="middle" x="3956" y="-7.5" font-family="Helvetica,sans-Serif" font-size="10.00">ExeBinaryLoader.cpp</text>
</a>
</g>
</g>
<!-- Node1&#45;&gt;Node64 -->
<g id="edge61" class="edge">
<title>Node1&#45;&gt;Node64</title>
<path fill="none" stroke="midnightblue" d="M4335.94,-214.82C4320.11,-176.92 4277.75,-90.19 4210,-56 4148.43,-24.93 4069.02,-14.96 4015.51,-11.94"/>
<polygon fill="midnightblue" stroke="midnightblue" points="4332.71,-216.17 4339.7,-224.13 4339.2,-213.54 4332.71,-216.17"/>
</g>
<!-- Node65 -->
<g id="node8" class="node">
<title>Node65</title>
<g id="a_node8"><a xlink:href="MachOBinaryLoader_8cpp.html" target="_top" xlink:title=" ">
<polygon fill="white" stroke="black" points="4256.5,-0.5 4256.5,-19.5 4391.5,-19.5 4391.5,-0.5 4256.5,-0.5"/>
<text text-anchor="middle" x="4324" y="-7.5" font-family="Helvetica,sans-Serif" font-size="10.00">MachOBinaryLoader.cpp</text>
</a>
</g>
</g>
<!-- Node1&#45;&gt;Node65 -->
<g id="edge62" class="edge">
<title>Node1&#45;&gt;Node65</title>
<path fill="none" stroke="midnightblue" d="M4350.05,-214.74C4352.81,-206.67 4355.63,-197 4357,-188 4365.81,-130 4375.25,-111.76 4357,-56 4352.3,-41.64 4341.07,-28.07 4333.02,-19.66"/>
<polygon fill="midnightblue" stroke="midnightblue" points="4346.73,-213.63 4346.6,-224.22 4353.31,-216.02 4346.73,-213.63"/>
</g>
<!-- Node66 -->
<g id="node9" class="node">
<title>Node66</title>
<g id="a_node9"><a xlink:href="Win32BinaryLoader_8cpp.html" target="_top" xlink:title=" ">
<polygon fill="white" stroke="black" points="4106,-0.5 4106,-19.5 4238,-19.5 4238,-0.5 4106,-0.5"/>
<text text-anchor="middle" x="4172" y="-7.5" font-family="Helvetica,sans-Serif" font-size="10.00">Win32BinaryLoader.cpp</text>
</a>
</g>
</g>
<!-- Node1&#45;&gt;Node66 -->
<g id="edge63" class="edge">
<title>Node1&#45;&gt;Node66</title>
<path fill="none" stroke="midnightblue" d="M4346.39,-214.46C4351.71,-179.13 4357.77,-101.64 4319,-56 4305.82,-40.49 4256.18,-27.49 4218.19,-19.51"/>
<polygon fill="midnightblue" stroke="midnightblue" points="4342.93,-213.92 4344.74,-224.35 4349.83,-215.06 4342.93,-213.92"/>
</g>
<!-- Node14 -->
<g id="node16" class="node">
<title>Node14</title>
<g id="a_node16"><a xlink:href="Prog_8cpp.html" target="_top" xlink:title=" ">
<polygon fill="white" stroke="black" points="3987.5,-56.5 3987.5,-75.5 4046.5,-75.5 4046.5,-56.5 3987.5,-56.5"/>
<text text-anchor="middle" x="4017" y="-63.5" font-family="Helvetica,sans-Serif" font-size="10.00">Prog.cpp</text>
</a>
</g>
</g>
<!-- Node1&#45;&gt;Node14 -->
<g id="edge53" class="edge">
<title>Node1&#45;&gt;Node14</title>
<path fill="none" stroke="midnightblue" d="M4288.43,-229.9C4174.04,-222.15 3915.26,-197.61 3862,-132 3856.4,-125.1 3856.66,-119.11 3862,-112 3865.85,-106.87 3943.4,-86.08 3987.32,-74.64"/>
<polygon fill="midnightblue" stroke="midnightblue" points="4288.5,-233.42 4298.71,-230.58 4288.96,-226.43 4288.5,-233.42"/>
</g>
<!-- Node58 -->
<g id="node37" class="node">
<title>Node58</title>
<g id="a_node37"><a xlink:href="X86FrontEnd_8cpp.html" target="_top" xlink:title=" ">
<polygon fill="white" stroke="black" points="4103,-56.5 4103,-75.5 4201,-75.5 4201,-56.5 4103,-56.5"/>
<text text-anchor="middle" x="4152" y="-63.5" font-family="Helvetica,sans-Serif" font-size="10.00">X86FrontEnd.cpp</text>
</a>
</g>
</g>
<!-- Node1&#45;&gt;Node58 -->
<g id="edge58" class="edge">
<title>Node1&#45;&gt;Node58</title>
<path fill="none" stroke="midnightblue" d="M4322.73,-218.16C4312.45,-210 4300.22,-199.26 4291,-188 4266.41,-157.97 4276.47,-138.37 4248,-112 4229.09,-94.49 4202.16,-82.67 4181.62,-75.56"/>
<polygon fill="midnightblue" stroke="midnightblue" points="4320.74,-221.04 4330.8,-224.36 4325,-215.49 4320.74,-221.04"/>
</g>
<!-- Node69 -->
<g id="node38" class="node">
<title>Node69</title>
<g id="a_node38"><a xlink:href="BinaryFile_8cpp.html" target="_top" xlink:title=" ">
<polygon fill="white" stroke="black" points="4153.5,-112.5 4153.5,-131.5 4238.5,-131.5 4238.5,-112.5 4153.5,-112.5"/>
<text text-anchor="middle" x="4196" y="-119.5" font-family="Helvetica,sans-Serif" font-size="10.00">BinaryFile.cpp</text>
</a>
</g>
</g>
<!-- Node1&#45;&gt;Node69 -->
<g id="edge50" class="edge">
<title>Node1&#45;&gt;Node69</title>
<path fill="none" stroke="midnightblue" d="M4310.67,-220.48C4292.7,-212.66 4270.5,-201.51 4253,-188 4231.14,-171.13 4211.26,-144.93 4201.8,-131.53"/>
<polygon fill="midnightblue" stroke="midnightblue" points="4309.58,-223.82 4320.16,-224.48 4312.3,-217.37 4309.58,-223.82"/>
</g>
<!-- Node76 -->
<g id="node45" class="node">
<title>Node76</title>
<g id="a_node45"><a xlink:href="BinaryImage_8cpp.html" target="_top" xlink:title=" ">
<polygon fill="white" stroke="black" points="4409.5,-168.5 4409.5,-187.5 4508.5,-187.5 4508.5,-168.5 4409.5,-168.5"/>
<text text-anchor="middle" x="4459" y="-175.5" font-family="Helvetica,sans-Serif" font-size="10.00">BinaryImage.cpp</text>
</a>
</g>
</g>
<!-- Node1&#45;&gt;Node76 -->
<g id="edge51" class="edge">
<title>Node1&#45;&gt;Node76</title>
<path fill="none" stroke="midnightblue" d="M4370.72,-220.1C4392.39,-210.01 4421.9,-196.27 4440.71,-187.52"/>
<polygon fill="midnightblue" stroke="midnightblue" points="4368.97,-217.05 4361.38,-224.44 4371.92,-223.4 4368.97,-217.05"/>
</g>
<!-- Node77 -->
<g id="node46" class="node">
<title>Node77</title>
<g id="a_node46"><a xlink:href="Global_8cpp.html" target="_top" xlink:title=" ">
<polygon fill="white" stroke="black" points="4527,-168.5 4527,-187.5 4595,-187.5 4595,-168.5 4527,-168.5"/>
<text text-anchor="middle" x="4561" y="-175.5" font-family="Helvetica,sans-Serif" font-size="10.00">Global.cpp</text>
</a>
</g>
</g>
<!-- Node1&#45;&gt;Node77 -->
<g id="edge52" class="edge">
<title>Node1&#45;&gt;Node77</title>
<path fill="none" stroke="midnightblue" d="M4387.34,-222.02C4428.65,-211.78 4489.37,-196.74 4526.98,-187.43"/>
<polygon fill="midnightblue" stroke="midnightblue" points="4386.41,-218.64 4377.54,-224.44 4388.09,-225.44 4386.41,-218.64"/>
</g>
<!-- Node78 -->
<g id="node47" class="node">
<title>Node78</title>
<g id="a_node47"><a xlink:href="GlobalConstReplacePass_8cpp.html" target="_top" xlink:title=" ">
<polygon fill="white" stroke="black" points="4613,-168.5 4613,-187.5 4771,-187.5 4771,-168.5 4613,-168.5"/>
<text text-anchor="middle" x="4692" y="-175.5" font-family="Helvetica,sans-Serif" font-size="10.00">GlobalConstReplacePass.cpp</text>
</a>
</g>
</g>
<!-- Node1&#45;&gt;Node78 -->
<g id="edge54" class="edge">
<title>Node1&#45;&gt;Node78</title>
<path fill="none" stroke="midnightblue" d="M4397.28,-224.6C4462.53,-214.51 4571.39,-197.66 4636.97,-187.51"/>
<polygon fill="midnightblue" stroke="midnightblue" points="4396.55,-221.17 4387.2,-226.16 4397.62,-228.09 4396.55,-221.17"/>
</g>
<!-- Node79 -->
<g id="node48" class="node">
<title>Node79</title>
<g id="a_node48"><a xlink:href="CallStatement_8cpp.html" target="_top" xlink:title=" ">
<polygon fill="white" stroke="black" points="4788.5,-168.5 4788.5,-187.5 4895.5,-187.5 4895.5,-168.5 4788.5,-168.5"/>
<text text-anchor="middle" x="4842" y="-175.5" font-family="Helvetica,sans-Serif" font-size="10.00">CallStatement.cpp</text>
</a>
</g>
</g>
<!-- Node1&#45;&gt;Node79 -->
<g id="edge55" class="edge">
<title>Node1&#45;&gt;Node79</title>
<path fill="none" stroke="midnightblue" d="M4397.27,-228.14C4479.97,-220.57 4642.45,-205.06 4780,-188 4782.7,-187.67 4785.46,-187.31 4788.25,-186.94"/>
<polygon fill="midnightblue" stroke="midnightblue" points="4396.75,-224.68 4387.11,-229.07 4397.39,-231.65 4396.75,-224.68"/>
</g>
<!-- Node80 -->
<g id="node49" class="node">
<title>Node80</title>
<g id="a_node49"><a xlink:href="ConstGlobalConverter_8cpp.html" target="_top" xlink:title=" ">
<polygon fill="white" stroke="black" points="4914,-168.5 4914,-187.5 5058,-187.5 5058,-168.5 4914,-168.5"/>
<text text-anchor="middle" x="4986" y="-175.5" font-family="Helvetica,sans-Serif" font-size="10.00">ConstGlobalConverter.cpp</text>
</a>
</g>
</g>
<!-- Node1&#45;&gt;Node80 -->
<g id="edge56" class="edge">
<title>Node1&#45;&gt;Node80</title>
<path fill="none" stroke="midnightblue" d="M4397.32,-229.21C4497.67,-222.08 4718.9,-205.79 4905,-188 4907.82,-187.73 4910.69,-187.45 4913.59,-187.16"/>
<polygon fill="midnightblue" stroke="midnightblue" points="4396.85,-225.73 4387.12,-229.93 4397.34,-232.72 4396.85,-225.73"/>
</g>
<!-- Node48 -->
<g id="node50" class="node">
<title>Node48</title>
<g id="a_node50"><a xlink:href="Decompiler_8cpp.html" target="_top" xlink:title=" ">
<polygon fill="white" stroke="black" points="5076.5,-168.5 5076.5,-187.5 5169.5,-187.5 5169.5,-168.5 5076.5,-168.5"/>
<text text-anchor="middle" x="5123" y="-175.5" font-family="Helvetica,sans-Serif" font-size="10.00">Decompiler.cpp</text>
</a>
</g>
</g>
<!-- Node1&#45;&gt;Node48 -->
<g id="edge57" class="edge">
<title>Node1&#45;&gt;Node48</title>
<path fill="none" stroke="midnightblue" d="M4397.3,-231.43C4518.01,-227.55 4817.68,-215.72 5067,-188 5070.03,-187.66 5073.15,-187.28 5076.3,-186.85"/>
<polygon fill="midnightblue" stroke="midnightblue" points="4397.09,-227.94 4387.2,-231.75 4397.31,-234.93 4397.09,-227.94"/>
</g>
<!-- Node3 -->
<g id="node3" class="node">
<title>Node3</title>
<g id="a_node3"><a xlink:href="PluginType_8h.html" target="_top" xlink:title=" ">
<polygon fill="white" stroke="black" points="3479,-112.5 3479,-131.5 3557,-131.5 3557,-112.5 3479,-112.5"/>
<text text-anchor="middle" x="3518" y="-119.5" font-family="Helvetica,sans-Serif" font-size="10.00">PluginType.h</text>
</a>
</g>
</g>
<!-- Node2&#45;&gt;Node3 -->
<g id="edge2" class="edge">
<title>Node2&#45;&gt;Node3</title>
<path fill="none" stroke="midnightblue" d="M3604.76,-164.1C3583.46,-154.01 3554.46,-140.27 3535.98,-131.52"/>
<polygon fill="midnightblue" stroke="midnightblue" points="3603.4,-167.33 3613.94,-168.44 3606.4,-161 3603.4,-167.33"/>
</g>
<!-- Node2&#45;&gt;Node64 -->
<g id="edge44" class="edge">
<title>Node2&#45;&gt;Node64</title>
<path fill="none" stroke="midnightblue" d="M3582.81,-175.61C3389.48,-170.13 2663.04,-149.52 2065,-132 1960.83,-128.95 262.58,-150.78 190,-76 183.81,-69.62 183.75,-62.32 190,-56 224.01,-21.58 3417.72,-12.33 3896.28,-11.14"/>
<polygon fill="midnightblue" stroke="midnightblue" points="3582.84,-179.11 3592.94,-175.89 3583.04,-172.11 3582.84,-179.11"/>
</g>
<!-- Node8 -->
<g id="node10" class="node">
<title>Node8</title>
<g id="a_node10"><a xlink:href="Project_8h.html" target="_top" xlink:title=" ">
<polygon fill="white" stroke="red" points="2074.5,-112.5 2074.5,-131.5 2133.5,-131.5 2133.5,-112.5 2074.5,-112.5"/>
<text text-anchor="middle" x="2104" y="-119.5" font-family="Helvetica,sans-Serif" font-size="10.00">Project.h</text>
</a>
</g>
</g>
<!-- Node2&#45;&gt;Node8 -->
<g id="edge9" class="edge">
<title>Node2&#45;&gt;Node8</title>
<path fill="none" stroke="midnightblue" d="M3582.61,-175.25C3344.74,-166.85 2320.97,-130.67 2133.53,-124.04"/>
<polygon fill="midnightblue" stroke="midnightblue" points="3582.58,-178.76 3592.69,-175.61 3582.82,-171.76 3582.58,-178.76"/>
</g>
<!-- Node2&#45;&gt;Node69 -->
<g id="edge37" class="edge">
<title>Node2&#45;&gt;Node69</title>
<path fill="none" stroke="midnightblue" d="M3681.38,-174.04C3772.89,-168.25 3974.88,-154.03 4144,-132 4147.09,-131.6 4150.27,-131.14 4153.48,-130.66"/>
<polygon fill="midnightblue" stroke="midnightblue" points="3681.07,-170.55 3671.3,-174.67 3681.5,-177.54 3681.07,-170.55"/>
</g>
<!-- Node70 -->
<g id="node39" class="node">
<title>Node70</title>
<g id="a_node39"><a xlink:href="DOS4GWBinaryLoader_8h.html" target="_top" xlink:title=" ">
<polygon fill="white" stroke="black" points="207,-112.5 207,-131.5 341,-131.5 341,-112.5 207,-112.5"/>
<text text-anchor="middle" x="274" y="-119.5" font-family="Helvetica,sans-Serif" font-size="10.00">DOS4GWBinaryLoader.h</text>
</a>
</g>
</g>
<!-- Node2&#45;&gt;Node70 -->
<g id="edge38" class="edge">
<title>Node2&#45;&gt;Node70</title>
<path fill="none" stroke="midnightblue" d="M3582.91,-176.98C3225.8,-176.74 1022.24,-173.55 355,-132 350.48,-131.72 345.83,-131.37 341.14,-130.97"/>
<polygon fill="midnightblue" stroke="midnightblue" points="3582.93,-180.48 3592.93,-176.99 3582.94,-173.48 3582.93,-180.48"/>
</g>
<!-- Node71 -->
<g id="node40" class="node">
<title>Node71</title>
<g id="a_node40"><a xlink:href="ElfBinaryLoader_8h.html" target="_top" xlink:title=" ">
<polygon fill="white" stroke="black" points="85.5,-112.5 85.5,-131.5 188.5,-131.5 188.5,-112.5 85.5,-112.5"/>
<text text-anchor="middle" x="137" y="-119.5" font-family="Helvetica,sans-Serif" font-size="10.00">ElfBinaryLoader.h</text>
</a>
</g>
</g>
<!-- Node2&#45;&gt;Node71 -->
<g id="edge40" class="edge">
<title>Node2&#45;&gt;Node71</title>
<path fill="none" stroke="midnightblue" d="M3582.47,-176.75C3187.15,-174.71 549.72,-160.13 198,-132 194.91,-131.75 191.73,-131.45 188.53,-131.1"/>
<polygon fill="midnightblue" stroke="midnightblue" points="3582.7,-180.25 3592.72,-176.8 3582.74,-173.25 3582.7,-180.25"/>
</g>
<!-- Node72 -->
<g id="node41" class="node">
<title>Node72</title>
<g id="a_node41"><a xlink:href="ExeBinaryLoader_8h.html" target="_top" xlink:title=" ">
<polygon fill="white" stroke="black" points="3707,-112.5 3707,-131.5 3815,-131.5 3815,-112.5 3707,-112.5"/>
<text text-anchor="middle" x="3761" y="-119.5" font-family="Helvetica,sans-Serif" font-size="10.00">ExeBinaryLoader.h</text>
</a>
</g>
</g>
<!-- Node2&#45;&gt;Node72 -->
<g id="edge42" class="edge">
<title>Node2&#45;&gt;Node72</title>
<path fill="none" stroke="midnightblue" d="M3661.85,-164.5C3686.04,-154.38 3719.46,-140.39 3740.66,-131.52"/>
<polygon fill="midnightblue" stroke="midnightblue" points="3660.31,-161.35 3652.44,-168.44 3663.02,-167.81 3660.31,-161.35"/>
</g>
<!-- Node73 -->
<g id="node42" class="node">
<title>Node73</title>
<g id="a_node42"><a xlink:href="MachOBinaryLoader_8h.html" target="_top" xlink:title=" ">
<polygon fill="white" stroke="black" points="4011,-112.5 4011,-131.5 4135,-131.5 4135,-112.5 4011,-112.5"/>
<text text-anchor="middle" x="4073" y="-119.5" font-family="Helvetica,sans-Serif" font-size="10.00">MachOBinaryLoader.h</text>
</a>
</g>
</g>
<!-- Node2&#45;&gt;Node73 -->
<g id="edge45" class="edge">
<title>Node2&#45;&gt;Node73</title>
<path fill="none" stroke="midnightblue" d="M3681.01,-171.07C3751.7,-162.51 3886.38,-146.15 4001,-132 4004.25,-131.6 4007.58,-131.19 4010.95,-130.77"/>
<polygon fill="midnightblue" stroke="midnightblue" points="3680.56,-167.6 3671.06,-172.28 3681.4,-174.55 3680.56,-167.6"/>
</g>
<!-- Node74 -->
<g id="node43" class="node">
<title>Node74</title>
<g id="a_node43"><a xlink:href="Win32BinaryLoader_8h.html" target="_top" xlink:title=" ">
<polygon fill="white" stroke="black" points="3871.5,-112.5 3871.5,-131.5 3992.5,-131.5 3992.5,-112.5 3871.5,-112.5"/>
<text text-anchor="middle" x="3932" y="-119.5" font-family="Helvetica,sans-Serif" font-size="10.00">Win32BinaryLoader.h</text>
</a>
</g>
</g>
<!-- Node2&#45;&gt;Node74 -->
<g id="edge47" class="edge">
<title>Node2&#45;&gt;Node74</title>
<path fill="none" stroke="midnightblue" d="M3681.31,-168.12C3737.62,-157.99 3829.11,-141.52 3884.61,-131.53"/>
<polygon fill="midnightblue" stroke="midnightblue" points="3680.44,-164.72 3671.22,-169.94 3681.68,-171.61 3680.44,-164.72"/>
</g>
<!-- Node75 -->
<g id="node44" class="node">
<title>Node75</title>
<g id="a_node44"><a xlink:href="ST20BinaryLoader_8h.html" target="_top" xlink:title=" ">
<polygon fill="white" stroke="red" points="3575,-112.5 3575,-131.5 3689,-131.5 3689,-112.5 3575,-112.5"/>
<text text-anchor="middle" x="3632" y="-119.5" font-family="Helvetica,sans-Serif" font-size="10.00">ST20BinaryLoader.h</text>
</a>
</g>
</g>
<!-- Node2&#45;&gt;Node75 -->
<g id="edge49" class="edge">
<title>Node2&#45;&gt;Node75</title>
<path fill="none" stroke="midnightblue" d="M3632,-157.8C3632,-148.91 3632,-138.78 3632,-131.75"/>
<polygon fill="midnightblue" stroke="midnightblue" points="3628.5,-158.08 3632,-168.08 3635.5,-158.08 3628.5,-158.08"/>
</g>
<!-- Node4 -->
<g id="node4" class="node">
<title>Node4</title>
<g id="a_node4"><a xlink:href="Plugin_8h.html" target="_top" xlink:title=" ">
<polygon fill="white" stroke="red" points="3913,-56.5 3913,-75.5 3969,-75.5 3969,-56.5 3913,-56.5"/>
<text text-anchor="middle" x="3941" y="-63.5" font-family="Helvetica,sans-Serif" font-size="10.00">Plugin.h</text>
</a>
</g>
</g>
<!-- Node3&#45;&gt;Node4 -->
<g id="edge3" class="edge">
<title>Node3&#45;&gt;Node4</title>
<path fill="none" stroke="midnightblue" d="M3567.26,-111.93C3716.78,-90.57 3757.72,-100.86 3903,-76 3906.21,-75.45 3909.55,-74.79 3912.86,-74.08"/>
<polygon fill="midnightblue" stroke="midnightblue" points="3566.64,-108.48 3557.25,-113.38 3567.65,-115.41 3566.64,-108.48"/>
</g>
<!-- Node4&#45;&gt;Node62 -->
<g id="edge4" class="edge">
<title>Node4&#45;&gt;Node62</title>
<path fill="none" stroke="midnightblue" d="M3903.3,-56.04C3903.2,-56.02 3903.1,-56.01 3903,-56 3531.3,-10.29 765.53,-10.52 278.23,-10.92"/>
<polygon fill="midnightblue" stroke="midnightblue" points="3902.47,-59.45 3912.9,-57.62 3903.6,-52.54 3902.47,-59.45"/>
</g>
<!-- Node4&#45;&gt;Node63 -->
<g id="edge5" class="edge">
<title>Node4&#45;&gt;Node63</title>
<path fill="none" stroke="midnightblue" d="M3903.3,-56.04C3903.2,-56.02 3903.1,-56.01 3903,-56 3486.05,-5.28 541.91,-50.44 123,-20 120.12,-19.79 117.17,-19.54 114.19,-19.25"/>
<polygon fill="midnightblue" stroke="midnightblue" points="3902.47,-59.45 3912.9,-57.61 3903.6,-52.54 3902.47,-59.45"/>
</g>
<!-- Node4&#45;&gt;Node64 -->
<g id="edge6" class="edge">
<title>Node4&#45;&gt;Node64</title>
<path fill="none" stroke="midnightblue" d="M3946.17,-46.4C3948.68,-37.36 3951.57,-26.94 3953.57,-19.75"/>
<polygon fill="midnightblue" stroke="midnightblue" points="3942.78,-45.51 3943.48,-56.08 3949.53,-47.38 3942.78,-45.51"/>
</g>
<!-- Node4&#45;&gt;Node65 -->
<g id="edge7" class="edge">
<title>Node4&#45;&gt;Node65</title>
<path fill="none" stroke="midnightblue" d="M3979.45,-55.94C4044.55,-44.55 4175.53,-28.5 4256.19,-18.93"/>
<polygon fill="midnightblue" stroke="midnightblue" points="3978.43,-52.57 3969.21,-57.8 3979.68,-59.46 3978.43,-52.57"/>
</g>
<!-- Node4&#45;&gt;Node66 -->
<g id="edge8" class="edge">
<title>Node4&#45;&gt;Node66</title>
<path fill="none" stroke="midnightblue" d="M3979.27,-55.72C4039.09,-41.53 4097.77,-28 4134.78,-19.51"/>
<polygon fill="midnightblue" stroke="midnightblue" points="3978.19,-52.37 3969.27,-58.09 3979.81,-59.18 3978.19,-52.37"/>
</g>
<!-- Node9 -->
<g id="node11" class="node">
<title>Node9</title>
<g id="a_node11"><a xlink:href="Project_8cpp.html" target="_top" xlink:title=" ">
<polygon fill="white" stroke="black" points="1082.5,-56.5 1082.5,-75.5 1153.5,-75.5 1153.5,-56.5 1082.5,-56.5"/>
<text text-anchor="middle" x="1118" y="-63.5" font-family="Helvetica,sans-Serif" font-size="10.00">Project.cpp</text>
</a>
</g>
</g>
<!-- Node8&#45;&gt;Node9 -->
<g id="edge10" class="edge">
<title>Node8&#45;&gt;Node9</title>
<path fill="none" stroke="midnightblue" d="M2063.85,-121.29C1933.31,-121.75 1509.24,-119.54 1162,-76 1159.37,-75.67 1156.66,-75.27 1153.94,-74.82"/>
<polygon fill="midnightblue" stroke="midnightblue" points="2064.17,-124.78 2074.16,-121.24 2064.14,-117.78 2064.17,-124.78"/>
</g>
<!-- Node10 -->
<g id="node12" class="node">
<title>Node10</title>
<g id="a_node12"><a xlink:href="DataFlow_8cpp.html" target="_top" xlink:title=" ">
<polygon fill="white" stroke="black" points="1171.5,-56.5 1171.5,-75.5 1254.5,-75.5 1254.5,-56.5 1171.5,-56.5"/>
<text text-anchor="middle" x="1213" y="-63.5" font-family="Helvetica,sans-Serif" font-size="10.00">DataFlow.cpp</text>
</a>
</g>
</g>
<!-- Node8&#45;&gt;Node10 -->
<g id="edge11" class="edge">
<title>Node8&#45;&gt;Node10</title>
<path fill="none" stroke="midnightblue" d="M2064.22,-120.63C1943.37,-119.13 1569.99,-111.7 1263,-76 1260.28,-75.68 1257.49,-75.31 1254.68,-74.9"/>
<polygon fill="midnightblue" stroke="midnightblue" points="2064.43,-124.13 2074.47,-120.75 2064.51,-117.13 2064.43,-124.13"/>
</g>
<!-- Node11 -->
<g id="node13" class="node">
<title>Node11</title>
<g id="a_node13"><a xlink:href="Module_8cpp.html" target="_top" xlink:title=" ">
<polygon fill="white" stroke="black" points="1272.5,-56.5 1272.5,-75.5 1345.5,-75.5 1345.5,-56.5 1272.5,-56.5"/>
<text text-anchor="middle" x="1309" y="-63.5" font-family="Helvetica,sans-Serif" font-size="10.00">Module.cpp</text>
</a>
</g>
</g>
<!-- Node8&#45;&gt;Node11 -->
<g id="edge12" class="edge">
<title>Node8&#45;&gt;Node11</title>
<path fill="none" stroke="midnightblue" d="M2064.08,-120.47C1951.9,-118.58 1624.47,-110.3 1355,-76 1351.93,-75.61 1348.76,-75.14 1345.59,-74.61"/>
<polygon fill="midnightblue" stroke="midnightblue" points="2064.2,-123.97 2074.25,-120.63 2064.31,-116.97 2064.2,-123.97"/>
</g>
<!-- Node12 -->
<g id="node14" class="node">
<title>Node12</title>
<g id="a_node14"><a xlink:href="Proc_8cpp.html" target="_top" xlink:title=" ">
<polygon fill="white" stroke="black" points="1364,-56.5 1364,-75.5 1422,-75.5 1422,-56.5 1364,-56.5"/>
<text text-anchor="middle" x="1393" y="-63.5" font-family="Helvetica,sans-Serif" font-size="10.00">Proc.cpp</text>
</a>
</g>
</g>
<!-- Node8&#45;&gt;Node12 -->
<g id="edge13" class="edge">
<title>Node8&#45;&gt;Node12</title>
<path fill="none" stroke="midnightblue" d="M2064.2,-120.64C1959.76,-119.18 1669.45,-111.96 1431,-76 1428.18,-75.58 1425.27,-75.05 1422.36,-74.46"/>
<polygon fill="midnightblue" stroke="midnightblue" points="2064.25,-124.14 2074.29,-120.77 2064.34,-117.14 2064.25,-124.14"/>
</g>
<!-- Node13 -->
<g id="node15" class="node">
<title>Node13</title>
<g id="a_node15"><a xlink:href="UserProc_8cpp.html" target="_top" xlink:title=" ">
<polygon fill="white" stroke="black" points="1440,-56.5 1440,-75.5 1520,-75.5 1520,-56.5 1440,-56.5"/>
<text text-anchor="middle" x="1480" y="-63.5" font-family="Helvetica,sans-Serif" font-size="10.00">UserProc.cpp</text>
</a>
</g>
</g>
<!-- Node8&#45;&gt;Node13 -->
<g id="edge14" class="edge">
<title>Node8&#45;&gt;Node13</title>
<path fill="none" stroke="midnightblue" d="M2064.1,-119.3C1970.38,-115 1729.05,-102.13 1529,-76 1526.08,-75.62 1523.08,-75.18 1520.06,-74.71"/>
<polygon fill="midnightblue" stroke="midnightblue" points="2064.11,-122.81 2074.26,-119.76 2064.43,-115.81 2064.11,-122.81"/>
</g>
<!-- Node8&#45;&gt;Node14 -->
<g id="edge15" class="edge">
<title>Node8&#45;&gt;Node14</title>
<path fill="none" stroke="midnightblue" d="M2143.99,-121.14C2381.14,-121.82 3605.35,-122.98 3978,-76 3981.03,-75.62 3984.18,-75.1 3987.3,-74.51"/>
<polygon fill="midnightblue" stroke="midnightblue" points="2143.77,-117.64 2133.76,-121.11 2143.75,-124.64 2143.77,-117.64"/>
</g>
<!-- Node15 -->
<g id="node17" class="node">
<title>Node15</title>
<g id="a_node17"><a xlink:href="IndirectJumpAnalyzer_8cpp.html" target="_top" xlink:title=" ">
<polygon fill="white" stroke="black" points="1538.5,-56.5 1538.5,-75.5 1679.5,-75.5 1679.5,-56.5 1538.5,-56.5"/>
<text text-anchor="middle" x="1609" y="-63.5" font-family="Helvetica,sans-Serif" font-size="10.00">IndirectJumpAnalyzer.cpp</text>
</a>
</g>
</g>
<!-- Node8&#45;&gt;Node15 -->
<g id="edge16" class="edge">
<title>Node8&#45;&gt;Node15</title>
<path fill="none" stroke="midnightblue" d="M2064.23,-116.77C1990.18,-108.89 1826.15,-91.34 1688,-76 1685.26,-75.7 1682.46,-75.38 1679.63,-75.07"/>
<polygon fill="midnightblue" stroke="midnightblue" points="2064.17,-120.29 2074.49,-117.87 2064.91,-113.33 2064.17,-120.29"/>
</g>
<!-- Node16 -->
<g id="node18" class="node">
<title>Node16</title>
<g id="a_node18"><a xlink:href="InterferenceFinder_8cpp.html" target="_top" xlink:title=" ">
<polygon fill="white" stroke="black" points="1697.5,-56.5 1697.5,-75.5 1822.5,-75.5 1822.5,-56.5 1697.5,-56.5"/>
<text text-anchor="middle" x="1760" y="-63.5" font-family="Helvetica,sans-Serif" font-size="10.00">InterferenceFinder.cpp</text>
</a>
</g>
</g>
<!-- Node8&#45;&gt;Node16 -->
<g id="edge17" class="edge">
<title>Node8&#45;&gt;Node16</title>
<path fill="none" stroke="midnightblue" d="M2064.27,-114.76C2002.6,-105.08 1883.74,-86.42 1814.23,-75.51"/>
<polygon fill="midnightblue" stroke="midnightblue" points="2063.95,-118.26 2074.37,-116.35 2065.04,-111.34 2063.95,-118.26"/>
</g>
<!-- Node17 -->
<g id="node19" class="node">
<title>Node17</title>
<g id="a_node19"><a xlink:href="LivenessAnalyzer_8cpp.html" target="_top" xlink:title=" ">
<polygon fill="white" stroke="black" points="1841,-56.5 1841,-75.5 1963,-75.5 1963,-56.5 1841,-56.5"/>
<text text-anchor="middle" x="1902" y="-63.5" font-family="Helvetica,sans-Serif" font-size="10.00">LivenessAnalyzer.cpp</text>
</a>
</g>
</g>
<!-- Node8&#45;&gt;Node17 -->
<g id="edge18" class="edge">
<title>Node8&#45;&gt;Node17</title>
<path fill="none" stroke="midnightblue" d="M2064.45,-110.43C2026.3,-100.23 1969.28,-84.99 1933.93,-75.54"/>
<polygon fill="midnightblue" stroke="midnightblue" points="2063.63,-113.83 2074.19,-113.03 2065.44,-107.07 2063.63,-113.83"/>
</g>
<!-- Node18 -->
<g id="node20" class="node">
<title>Node18</title>
<g id="a_node20"><a xlink:href="ProcDecompiler_8cpp.html" target="_top" xlink:title=" ">
<polygon fill="white" stroke="black" points="1981,-56.5 1981,-75.5 2095,-75.5 2095,-56.5 1981,-56.5"/>
<text text-anchor="middle" x="2038" y="-63.5" font-family="Helvetica,sans-Serif" font-size="10.00">ProcDecompiler.cpp</text>
</a>
</g>
</g>
<!-- Node8&#45;&gt;Node18 -->
<g id="edge19" class="edge">
<title>Node8&#45;&gt;Node18</title>
<path fill="none" stroke="midnightblue" d="M2085.45,-105.82C2073.62,-96.15 2058.71,-83.95 2048.8,-75.83"/>
<polygon fill="midnightblue" stroke="midnightblue" points="2083.44,-108.7 2093.4,-112.32 2087.87,-103.28 2083.44,-108.7"/>
</g>
<!-- Node19 -->
<g id="node21" class="node">
<title>Node19</title>
<g id="a_node21"><a xlink:href="ProgDecompiler_8cpp.html" target="_top" xlink:title=" ">
<polygon fill="white" stroke="black" points="2113.5,-56.5 2113.5,-75.5 2228.5,-75.5 2228.5,-56.5 2113.5,-56.5"/>
<text text-anchor="middle" x="2171" y="-63.5" font-family="Helvetica,sans-Serif" font-size="10.00">ProgDecompiler.cpp</text>
</a>
</g>
</g>
<!-- Node8&#45;&gt;Node19 -->
<g id="edge20" class="edge">
<title>Node8&#45;&gt;Node19</title>
<path fill="none" stroke="midnightblue" d="M2122.83,-105.82C2134.84,-96.15 2149.97,-83.95 2160.04,-75.83"/>
<polygon fill="midnightblue" stroke="midnightblue" points="2120.35,-103.32 2114.76,-112.32 2124.75,-108.77 2120.35,-103.32"/>
</g>
<!-- Node20 -->
<g id="node22" class="node">
<title>Node20</title>
<g id="a_node22"><a xlink:href="UnusedReturnRemover_8cpp.html" target="_top" xlink:title=" ">
<polygon fill="white" stroke="black" points="2247,-56.5 2247,-75.5 2397,-75.5 2397,-56.5 2247,-56.5"/>
<text text-anchor="middle" x="2322" y="-63.5" font-family="Helvetica,sans-Serif" font-size="10.00">UnusedReturnRemover.cpp</text>
</a>
</g>
</g>
<!-- Node8&#45;&gt;Node20 -->
<g id="edge21" class="edge">
<title>Node8&#45;&gt;Node20</title>
<path fill="none" stroke="midnightblue" d="M2143.8,-111.14C2184.91,-100.96 2248.42,-85.23 2287.48,-75.55"/>
<polygon fill="midnightblue" stroke="midnightblue" points="2142.72,-107.8 2133.85,-113.6 2144.4,-114.6 2142.72,-107.8"/>
</g>
<!-- Node21 -->
<g id="node23" class="node">
<title>Node21</title>
<g id="a_node23"><a xlink:href="DefaultFrontEnd_8cpp.html" target="_top" xlink:title=" ">
<polygon fill="white" stroke="black" points="2415,-56.5 2415,-75.5 2531,-75.5 2531,-56.5 2415,-56.5"/>
<text text-anchor="middle" x="2473" y="-63.5" font-family="Helvetica,sans-Serif" font-size="10.00">DefaultFrontEnd.cpp</text>
</a>
</g>
</g>
<!-- Node8&#45;&gt;Node21 -->
<g id="edge22" class="edge">
<title>Node8&#45;&gt;Node21</title>
<path fill="none" stroke="midnightblue" d="M2143.86,-115.17C2209.2,-105.6 2339.38,-86.55 2414.96,-75.49"/>
<polygon fill="midnightblue" stroke="midnightblue" points="2142.96,-111.76 2133.57,-116.67 2143.97,-118.69 2142.96,-111.76"/>
</g>
<!-- Node22 -->
<g id="node24" class="node">
<title>Node22</title>
<g id="a_node24"><a xlink:href="CallArgumentUpdatePass_8cpp.html" target="_top" xlink:title=" ">
<polygon fill="white" stroke="black" points="2549.5,-56.5 2549.5,-75.5 2710.5,-75.5 2710.5,-56.5 2549.5,-56.5"/>
<text text-anchor="middle" x="2630" y="-63.5" font-family="Helvetica,sans-Serif" font-size="10.00">CallArgumentUpdatePass.cpp</text>
</a>
</g>
</g>
<!-- Node8&#45;&gt;Node22 -->
<g id="edge23" class="edge">
<title>Node8&#45;&gt;Node22</title>
<path fill="none" stroke="midnightblue" d="M2143.94,-116.9C2230.15,-108.05 2435.09,-87.01 2549.41,-75.27"/>
<polygon fill="midnightblue" stroke="midnightblue" points="2143.38,-113.44 2133.79,-117.94 2144.09,-120.4 2143.38,-113.44"/>
</g>
<!-- Node23 -->
<g id="node25" class="node">
<title>Node23</title>
<g id="a_node25"><a xlink:href="CallDefineUpdatePass_8cpp.html" target="_top" xlink:title=" ">
<polygon fill="white" stroke="black" points="2729,-56.5 2729,-75.5 2875,-75.5 2875,-56.5 2729,-56.5"/>
<text text-anchor="middle" x="2802" y="-63.5" font-family="Helvetica,sans-Serif" font-size="10.00">CallDefineUpdatePass.cpp</text>
</a>
</g>
</g>
<!-- Node8&#45;&gt;Node23 -->
<g id="edge24" class="edge">
<title>Node8&#45;&gt;Node23</title>
<path fill="none" stroke="midnightblue" d="M2143.84,-118.57C2241.8,-112.49 2502.2,-95.68 2719,-76 2722.18,-75.71 2725.42,-75.41 2728.69,-75.09"/>
<polygon fill="midnightblue" stroke="midnightblue" points="2143.56,-115.08 2133.79,-119.19 2143.99,-122.07 2143.56,-115.08"/>
</g>
<!-- Node24 -->
<g id="node26" class="node">
<title>Node24</title>
<g id="a_node26"><a xlink:href="BlockVarRenamePass_8cpp.html" target="_top" xlink:title=" ">
<polygon fill="white" stroke="black" points="2893.5,-56.5 2893.5,-75.5 3036.5,-75.5 3036.5,-56.5 2893.5,-56.5"/>
<text text-anchor="middle" x="2965" y="-63.5" font-family="Helvetica,sans-Serif" font-size="10.00">BlockVarRenamePass.cpp</text>
</a>
</g>
</g>
<!-- Node8&#45;&gt;Node24 -->
<g id="edge25" class="edge">
<title>Node8&#45;&gt;Node24</title>
<path fill="none" stroke="midnightblue" d="M2143.89,-119.45C2258.88,-114.81 2600.89,-99.88 2884,-76 2887.1,-75.74 2890.27,-75.46 2893.47,-75.16"/>
<polygon fill="midnightblue" stroke="midnightblue" points="2143.65,-115.95 2133.79,-119.85 2143.93,-122.95 2143.65,-115.95"/>
</g>
<!-- Node25 -->
<g id="node27" class="node">
<title>Node25</title>
<g id="a_node27"><a xlink:href="StatementPropagationPass_8cpp.html" target="_top" xlink:title=" ">
<polygon fill="white" stroke="black" points="3054.5,-56.5 3054.5,-75.5 3223.5,-75.5 3223.5,-56.5 3054.5,-56.5"/>
<text text-anchor="middle" x="3139" y="-63.5" font-family="Helvetica,sans-Serif" font-size="10.00">StatementPropagationPass.cpp</text>
</a>
</g>
</g>
<!-- Node8&#45;&gt;Node25 -->
<g id="edge26" class="edge">
<title>Node8&#45;&gt;Node25</title>
<path fill="none" stroke="midnightblue" d="M2143.95,-119.77C2273.91,-115.63 2696.31,-101.02 3045,-76 3048.11,-75.78 3051.27,-75.54 3054.46,-75.29"/>
<polygon fill="midnightblue" stroke="midnightblue" points="2143.58,-116.28 2133.7,-120.1 2143.8,-123.28 2143.58,-116.28"/>
</g>
<!-- Node26 -->
<g id="node28" class="node">
<title>Node26</title>
<g id="a_node28"><a xlink:href="FromSSAFormPass_8cpp.html" target="_top" xlink:title=" ">
<polygon fill="white" stroke="black" points="3242,-56.5 3242,-75.5 3370,-75.5 3370,-56.5 3242,-56.5"/>
<text text-anchor="middle" x="3306" y="-63.5" font-family="Helvetica,sans-Serif" font-size="10.00">FromSSAFormPass.cpp</text>
</a>
</g>
</g>
<!-- Node8&#45;&gt;Node26 -->
<g id="edge27" class="edge">
<title>Node8&#45;&gt;Node26</title>
<path fill="none" stroke="midnightblue" d="M2143.92,-120.58C2289.7,-118.79 2806.99,-110.27 3232,-76 3235.23,-75.74 3238.53,-75.44 3241.86,-75.12"/>
<polygon fill="midnightblue" stroke="midnightblue" points="2143.64,-117.08 2133.68,-120.7 2143.72,-124.08 2143.64,-117.08"/>
</g>
<!-- Node27 -->
<g id="node29" class="node">
<title>Node27</title>
<g id="a_node29"><a xlink:href="LocalAndParamMapPass_8cpp.html" target="_top" xlink:title=" ">
<polygon fill="white" stroke="black" points="3388,-56.5 3388,-75.5 3544,-75.5 3544,-56.5 3388,-56.5"/>
<text text-anchor="middle" x="3466" y="-63.5" font-family="Helvetica,sans-Serif" font-size="10.00">LocalAndParamMapPass.cpp</text>
</a>
</g>
</g>
<!-- Node8&#45;&gt;Node27 -->
<g id="edge28" class="edge">
<title>Node8&#45;&gt;Node27</title>
<path fill="none" stroke="midnightblue" d="M2143.83,-120.58C2300.95,-118.7 2893,-109.68 3379,-76 3381.88,-75.8 3384.81,-75.58 3387.77,-75.35"/>
<polygon fill="midnightblue" stroke="midnightblue" points="2143.65,-117.08 2133.69,-120.7 2143.73,-124.08 2143.65,-117.08"/>
</g>
<!-- Node28 -->
<g id="node30" class="node">
<title>Node28</title>
<g id="a_node30"><a xlink:href="LocalTypeAnalysisPass_8cpp.html" target="_top" xlink:title=" ">
<polygon fill="white" stroke="black" points="3562.5,-56.5 3562.5,-75.5 3711.5,-75.5 3711.5,-56.5 3562.5,-56.5"/>
<text text-anchor="middle" x="3637" y="-63.5" font-family="Helvetica,sans-Serif" font-size="10.00">LocalTypeAnalysisPass.cpp</text>
</a>
</g>
</g>
<!-- Node8&#45;&gt;Node28 -->
<g id="edge29" class="edge">
<title>Node8&#45;&gt;Node28</title>
<path fill="none" stroke="midnightblue" d="M2143.85,-120.87C2313.84,-120.07 2995,-114.5 3553,-76 3556.07,-75.79 3559.21,-75.55 3562.37,-75.29"/>
<polygon fill="midnightblue" stroke="midnightblue" points="2143.61,-117.37 2133.63,-120.91 2143.64,-124.37 2143.61,-117.37"/>
</g>
<!-- Node29 -->
<g id="node31" class="node">
<title>Node29</title>
<g id="a_node31"><a xlink:href="UnusedLocalRemovalPass_8cpp.html" target="_top" xlink:title=" ">
<polygon fill="white" stroke="black" points="3729.5,-56.5 3729.5,-75.5 3894.5,-75.5 3894.5,-56.5 3729.5,-56.5"/>
<text text-anchor="middle" x="3812" y="-63.5" font-family="Helvetica,sans-Serif" font-size="10.00">UnusedLocalRemovalPass.cpp</text>
</a>
</g>
</g>
<!-- Node8&#45;&gt;Node29 -->
<g id="edge30" class="edge">
<title>Node8&#45;&gt;Node29</title>
<path fill="none" stroke="midnightblue" d="M2143.64,-120.91C2324.79,-120.3 3092.1,-115.41 3720,-76 3723.04,-75.81 3726.14,-75.6 3729.27,-75.37"/>
<polygon fill="midnightblue" stroke="midnightblue" points="2143.5,-117.41 2133.52,-120.95 2143.53,-124.41 2143.5,-117.41"/>
</g>
<!-- Node30 -->
<g id="node32" class="node">
<title>Node30</title>
<g id="a_node32"><a xlink:href="UnusedParamRemovalPass_8cpp.html" target="_top" xlink:title=" ">
<polygon fill="white" stroke="black" points="199.5,-56.5 199.5,-75.5 370.5,-75.5 370.5,-56.5 199.5,-56.5"/>
<text text-anchor="middle" x="285" y="-63.5" font-family="Helvetica,sans-Serif" font-size="10.00">UnusedParamRemovalPass.cpp</text>
</a>
</g>
</g>
<!-- Node8&#45;&gt;Node30 -->
<g id="edge31" class="edge">
<title>Node8&#45;&gt;Node30</title>
<path fill="none" stroke="midnightblue" d="M2064.17,-120.98C1875.42,-120.68 1052.2,-116.96 379,-76 376.22,-75.83 373.39,-75.64 370.54,-75.44"/>
<polygon fill="midnightblue" stroke="midnightblue" points="2064.43,-124.48 2074.44,-121 2064.44,-117.48 2064.43,-124.48"/>
</g>
<!-- Node31 -->
<g id="node33" class="node">
<title>Node31</title>
<g id="a_node33"><a xlink:href="UnusedStatementRemovalPass_8cpp.html" target="_top" xlink:title=" ">
<polygon fill="white" stroke="black" points="388.5,-56.5 388.5,-75.5 579.5,-75.5 579.5,-56.5 388.5,-56.5"/>
<text text-anchor="middle" x="484" y="-63.5" font-family="Helvetica,sans-Serif" font-size="10.00">UnusedStatementRemovalPass.cpp</text>
</a>
</g>
</g>
<!-- Node8&#45;&gt;Node31 -->
<g id="edge32" class="edge">
<title>Node8&#45;&gt;Node31</title>
<path fill="none" stroke="midnightblue" d="M2064.3,-120.65C1889.91,-118.93 1174.37,-110.05 588,-76 585.29,-75.84 582.53,-75.67 579.76,-75.49"/>
<polygon fill="midnightblue" stroke="midnightblue" points="2064.27,-124.15 2074.31,-120.74 2064.34,-117.15 2064.27,-124.15"/>
</g>
<!-- Node32 -->
<g id="node34" class="node">
<title>Node32</title>
<g id="a_node34"><a xlink:href="AssignRemovalPass_8cpp.html" target="_top" xlink:title=" ">
<polygon fill="white" stroke="black" points="597.5,-56.5 597.5,-75.5 732.5,-75.5 732.5,-56.5 597.5,-56.5"/>
<text text-anchor="middle" x="665" y="-63.5" font-family="Helvetica,sans-Serif" font-size="10.00">AssignRemovalPass.cpp</text>
</a>
</g>
</g>
<!-- Node8&#45;&gt;Node32 -->
<g id="edge33" class="edge">
<title>Node8&#45;&gt;Node32</title>
<path fill="none" stroke="midnightblue" d="M2064.15,-120.9C1900.44,-120.21 1263.74,-115.04 742,-76 738.91,-75.77 735.76,-75.51 732.58,-75.22"/>
<polygon fill="midnightblue" stroke="midnightblue" points="2064.22,-124.4 2074.24,-120.93 2064.25,-117.4 2064.22,-124.4"/>
</g>
<!-- Node33 -->
<g id="node35" class="node">
<title>Node33</title>
<g id="a_node35"><a xlink:href="PreservationAnalysisPass_8cpp.html" target="_top" xlink:title=" ">
<polygon fill="white" stroke="black" points="751,-56.5 751,-75.5 913,-75.5 913,-56.5 751,-56.5"/>
<text text-anchor="middle" x="832" y="-63.5" font-family="Helvetica,sans-Serif" font-size="10.00">PreservationAnalysisPass.cpp</text>
</a>
</g>
</g>
<!-- Node8&#45;&gt;Node33 -->
<g id="edge34" class="edge">
<title>Node8&#45;&gt;Node33</title>
<path fill="none" stroke="midnightblue" d="M2064.17,-120.37C1914.25,-117.83 1369.65,-106.87 922,-76 919.18,-75.81 916.31,-75.59 913.42,-75.37"/>
<polygon fill="midnightblue" stroke="midnightblue" points="2064.22,-123.87 2074.28,-120.54 2064.34,-116.88 2064.22,-123.87"/>
</g>
<!-- Node34 -->
<g id="node36" class="node">
<title>Node34</title>
<g id="a_node36"><a xlink:href="SPPreservationPass_8cpp.html" target="_top" xlink:title=" ">
<polygon fill="white" stroke="black" points="931.5,-56.5 931.5,-75.5 1064.5,-75.5 1064.5,-56.5 931.5,-56.5"/>
<text text-anchor="middle" x="998" y="-63.5" font-family="Helvetica,sans-Serif" font-size="10.00">SPPreservationPass.cpp</text>
</a>
</g>
</g>
<!-- Node8&#45;&gt;Node34 -->
<g id="edge35" class="edge">
<title>Node8&#45;&gt;Node34</title>
<path fill="none" stroke="midnightblue" d="M2064.37,-120.35C1926.98,-117.87 1458.49,-107.5 1073,-76 1070.26,-75.78 1067.46,-75.53 1064.63,-75.26"/>
<polygon fill="midnightblue" stroke="midnightblue" points="2064.36,-123.85 2074.42,-120.53 2064.49,-116.85 2064.36,-123.85"/>
</g>
<!-- Node8&#45;&gt;Node58 -->
<g id="edge36" class="edge">
<title>Node8&#45;&gt;Node58</title>
<path fill="none" stroke="midnightblue" d="M2143.71,-121.11C2346.52,-121.45 3286.99,-120.43 4055,-76 4070.53,-75.1 4087.43,-73.69 4102.7,-72.24"/>
<polygon fill="midnightblue" stroke="midnightblue" points="2143.55,-117.61 2133.54,-121.09 2143.53,-124.61 2143.55,-117.61"/>
</g>
<!-- Node70&#45;&gt;Node62 -->
<g id="edge39" class="edge">
<title>Node70&#45;&gt;Node62</title>
<path fill="none" stroke="midnightblue" d="M204.63,-109.29C186.11,-102.66 168.17,-92.27 157,-76 142.86,-55.42 171.59,-32.03 190.41,-19.69"/>
<polygon fill="midnightblue" stroke="midnightblue" points="203.73,-112.68 214.32,-112.43 205.89,-106.02 203.73,-112.68"/>
</g>
<!-- Node71&#45;&gt;Node63 -->
<g id="edge41" class="edge">
<title>Node71&#45;&gt;Node63</title>
<path fill="none" stroke="midnightblue" d="M124.83,-104.27C107.54,-80.49 76.48,-37.79 63.25,-19.59"/>
<polygon fill="midnightblue" stroke="midnightblue" points="122.01,-106.34 130.72,-112.37 127.67,-102.22 122.01,-106.34"/>
</g>
<!-- Node72&#45;&gt;Node64 -->
<g id="edge43" class="edge">
<title>Node72&#45;&gt;Node64</title>
<path fill="none" stroke="midnightblue" d="M3825.17,-113.32C3909.41,-102.92 4047.55,-84.68 4055,-76 4077.43,-49.87 4028.13,-30.11 3991.36,-19.57"/>
<polygon fill="midnightblue" stroke="midnightblue" points="3824.67,-109.85 3815.18,-114.54 3825.53,-116.8 3824.67,-109.85"/>
</g>
<!-- Node73&#45;&gt;Node65 -->
<g id="edge46" class="edge">
<title>Node73&#45;&gt;Node65</title>
<path fill="none" stroke="midnightblue" d="M4124.8,-110.06C4155.37,-102.59 4194.36,-91.26 4227,-76 4260.97,-60.12 4296.5,-33.24 4313.59,-19.56"/>
<polygon fill="midnightblue" stroke="midnightblue" points="4123.69,-106.73 4114.77,-112.45 4125.31,-113.54 4123.69,-106.73"/>
</g>
<!-- Node74&#45;&gt;Node66 -->
<g id="edge48" class="edge">
<title>Node74&#45;&gt;Node66</title>
<path fill="none" stroke="midnightblue" d="M4002.79,-111.85C4082.91,-101.16 4203.27,-83.91 4210,-76 4225.42,-57.88 4199.71,-32.67 4183.56,-19.61"/>
<polygon fill="midnightblue" stroke="midnightblue" points="4002.19,-108.4 3992.74,-113.19 4003.12,-115.34 4002.19,-108.4"/>
</g>
</g>
</svg>
        <g id="navigator" transform="translate(0 0)" fill="#404254">
                <rect fill="#f2f5e9" fill-opacity="0.5" stroke="#606060" stroke-width=".5" x="0" y="0" width="60" height="60"/>
                <use id="zoomplus" xlink:href="#zoomPlus" x="17" y="9" onmousedown="handleZoom(evt,'in')"/>
                <use id="zoomminus" xlink:href="#zoomMin" x="42" y="9" onmousedown="handleZoom(evt,'out')"/>
                <use id="reset" xlink:href="#resetDef" x="30" y="36" onmousedown="handleReset()"/>
                <g id="arrowUp" xlink:href="#dirArrow" transform="translate(30 24)" onmousedown="handlePan(0,-1)">
                  <use xlink:href="#rim" fill="#404040">
                        <set attributeName="fill" to="#808080" begin="arrowUp.mouseover" end="arrowUp.mouseout"/>
                  </use>
                  <path fill="none" stroke="white" stroke-width="1.5" d="M0,-3.0v7 M-2.5,-0.5L0,-3.0L2.5,-0.5"/>
                </g>
                <g id="arrowRight" xlink:href="#dirArrow" transform="rotate(90) translate(36 -43)" onmousedown="handlePan(1,0)">
                  <use xlink:href="#rim" fill="#404040">
                        <set attributeName="fill" to="#808080" begin="arrowRight.mouseover" end="arrowRight.mouseout"/>
                  </use>
                  <path fill="none" stroke="white" stroke-width="1.5" d="M0,-3.0v7 M-2.5,-0.5L0,-3.0L2.5,-0.5"/>
                </g>
                <g id="arrowDown" xlink:href="#dirArrow" transform="rotate(180) translate(-30 -48)" onmousedown="handlePan(0,1)">
                  <use xlink:href="#rim" fill="#404040">
                        <set attributeName="fill" to="#808080" begin="arrowDown.mouseover" end="arrowDown.mouseout"/>
                  </use>
                  <path fill="none" stroke="white" stroke-width="1.5" d="M0,-3.0v7 M-2.5,-0.5L0,-3.0L2.5,-0.5"/>
                </g>
                <g id="arrowLeft" xlink:href="#dirArrow" transform="rotate(270) translate(-36 17)" onmousedown="handlePan(-1,0)">
                  <use xlink:href="#rim" fill="#404040">
                        <set attributeName="fill" to="#808080" begin="arrowLeft.mouseover" end="arrowLeft.mouseout"/>
                  </use>
                  <path fill="none" stroke="white" stroke-width="1.5" d="M0,-3.0v7 M-2.5,-0.5L0,-3.0L2.5,-0.5"/>
                </g>
        </g>
        <svg viewBox="0 0 15 15" width="100%" height="30px" preserveAspectRatio="xMaxYMin meet">
         <g id="arrow_out" transform="scale(0.3 0.3)">
          <a xlink:href="BinaryImage_8h__dep__incl_org.svg" target="_base">
           <rect id="button" ry="5" rx="5" y="6" x="6" height="38" width="38"
                fill="#f2f5e9" fill-opacity="0.5" stroke="#606060" stroke-width="1.0"/>
           <path id="arrow"
             d="M 11.500037,31.436501 C 11.940474,20.09759 22.043105,11.32322 32.158766,21.979434 L 37.068811,17.246167 C 37.068811,17.246167 37.088388,32 37.088388,32 L 22.160133,31.978069 C 22.160133,31.978069 26.997745,27.140456 26.997745,27.140456 C 18.528582,18.264221 13.291696,25.230495 11.500037,31.436501 z"
             style="fill:#404040;"/>
          </a>
         </g>
        </svg>
</svg>
