<?xml version="1.0" encoding="UTF-8" standalone="no"?>
<!DOCTYPE svg PUBLIC "-//W3C//DTD SVG 1.1//EN"
 "http://www.w3.org/Graphics/SVG/1.1/DTD/svg11.dtd">
<!-- Generated by graphviz version 2.43.0 (0)
 -->
<!-- Title: BlockVarRenamePass.h Pages: 1 -->
<svg width="676pt" height="330pt"
 viewBox="0.00 0.00 675.50 330.00" xmlns="http://www.w3.org/2000/svg" xmlns:xlink="http://www.w3.org/1999/xlink">
<g id="graph0" class="graph" transform="scale(1 1) rotate(0) translate(4 326)">
<title>BlockVarRenamePass.h</title>
<polygon fill="white" stroke="transparent" points="-4,4 -4,-326 671.5,-326 671.5,4 -4,4"/>
<!-- Node1 -->
<g id="node1" class="node">
<title>Node1</title>
<g id="a_node1"><a xlink:title=" ">
<polygon fill="#bfbfbf" stroke="black" points="369,-302.5 369,-321.5 501,-321.5 501,-302.5 369,-302.5"/>
<text text-anchor="middle" x="435" y="-309.5" font-family="Helvetica,sans-Serif" font-size="10.00">BlockVarRenamePass.h</text>
</a>
</g>
</g>
<!-- Node2 -->
<g id="node2" class="node">
<title>Node2</title>
<g id="a_node2"><a xlink:href="Pass_8h.html" target="_top" xlink:title=" ">
<polygon fill="white" stroke="black" points="463.5,-241 463.5,-260 606.5,-260 606.5,-241 463.5,-241"/>
<text text-anchor="middle" x="535" y="-248" font-family="Helvetica,sans-Serif" font-size="10.00">boomerang/passes/Pass.h</text>
</a>
</g>
</g>
<!-- Node1&#45;&gt;Node2 -->
<g id="edge1" class="edge">
<title>Node1&#45;&gt;Node2</title>
<path fill="none" stroke="midnightblue" d="M449.33,-302.48C465.66,-292.75 492.6,-276.73 511.91,-265.24"/>
<polygon fill="midnightblue" stroke="midnightblue" points="513.89,-268.13 520.7,-260.01 510.32,-262.11 513.89,-268.13"/>
</g>
<!-- Node4 -->
<g id="node4" class="node">
<title>Node4</title>
<g id="a_node4"><a xlink:href="ExpHelp_8h.html" target="_top" xlink:title=" ">
<polygon fill="white" stroke="black" points="0,-179.5 0,-198.5 162,-198.5 162,-179.5 0,-179.5"/>
<text text-anchor="middle" x="81" y="-186.5" font-family="Helvetica,sans-Serif" font-size="10.00">boomerang/ssl/exp/ExpHelp.h</text>
</a>
</g>
</g>
<!-- Node1&#45;&gt;Node4 -->
<g id="edge3" class="edge">
<title>Node1&#45;&gt;Node4</title>
<path fill="none" stroke="midnightblue" d="M370.44,-302.43C327.25,-295.49 269.64,-283.88 221,-266 176.65,-249.7 129.14,-221.3 102.44,-204.22"/>
<polygon fill="midnightblue" stroke="midnightblue" points="104.2,-201.19 93.9,-198.69 100.39,-207.06 104.2,-201.19"/>
</g>
<!-- Node7 -->
<g id="node7" class="node">
<title>Node7</title>
<g id="a_node7"><a xlink:href="Statement_8h.html" target="_top" xlink:title=" ">
<polygon fill="white" stroke="black" points="230.5,-235.5 230.5,-265.5 377.5,-265.5 377.5,-235.5 230.5,-235.5"/>
<text text-anchor="start" x="238.5" y="-253.5" font-family="Helvetica,sans-Serif" font-size="10.00">boomerang/ssl/statements</text>
<text text-anchor="middle" x="304" y="-242.5" font-family="Helvetica,sans-Serif" font-size="10.00">/Statement.h</text>
</a>
</g>
</g>
<!-- Node1&#45;&gt;Node7 -->
<g id="edge6" class="edge">
<title>Node1&#45;&gt;Node7</title>
<path fill="none" stroke="midnightblue" d="M416.23,-302.48C397.49,-293.96 368.11,-280.62 344.11,-269.72"/>
<polygon fill="midnightblue" stroke="midnightblue" points="345.43,-266.47 334.87,-265.52 342.53,-272.85 345.43,-266.47"/>
</g>
<!-- Node15 -->
<g id="node15" class="node">
<title>Node15</title>
<g id="a_node15"><a xlink:title=" ">
<polygon fill="white" stroke="#bfbfbf" points="498,-179.5 498,-198.5 536,-198.5 536,-179.5 498,-179.5"/>
<text text-anchor="middle" x="517" y="-186.5" font-family="Helvetica,sans-Serif" font-size="10.00">map</text>
</a>
</g>
</g>
<!-- Node1&#45;&gt;Node15 -->
<g id="edge21" class="edge">
<title>Node1&#45;&gt;Node15</title>
<path fill="none" stroke="midnightblue" d="M435.42,-302.24C436.52,-287.23 440.51,-256.17 455,-235 463.95,-221.93 477.99,-211.28 490.45,-203.63"/>
<polygon fill="midnightblue" stroke="midnightblue" points="492.24,-206.63 499.14,-198.6 488.73,-200.58 492.24,-206.63"/>
</g>
<!-- Node16 -->
<g id="node16" class="node">
<title>Node16</title>
<g id="a_node16"><a xlink:title=" ">
<polygon fill="white" stroke="#bfbfbf" points="624.5,-241 624.5,-260 667.5,-260 667.5,-241 624.5,-241"/>
<text text-anchor="middle" x="646" y="-248" font-family="Helvetica,sans-Serif" font-size="10.00">stack</text>
</a>
</g>
</g>
<!-- Node1&#45;&gt;Node16 -->
<g id="edge22" class="edge">
<title>Node1&#45;&gt;Node16</title>
<path fill="none" stroke="midnightblue" d="M480.4,-302.43C517.48,-294.79 570.93,-282.3 616,-266 617.43,-265.48 618.88,-264.92 620.33,-264.33"/>
<polygon fill="midnightblue" stroke="midnightblue" points="622.06,-267.39 629.76,-260.1 619.2,-261 622.06,-267.39"/>
</g>
<!-- Node3 -->
<g id="node3" class="node">
<title>Node3</title>
<g id="a_node3"><a xlink:title=" ">
<polygon fill="white" stroke="#bfbfbf" points="509.5,-123.5 509.5,-142.5 562.5,-142.5 562.5,-123.5 509.5,-123.5"/>
<text text-anchor="middle" x="536" y="-130.5" font-family="Helvetica,sans-Serif" font-size="10.00">QString</text>
</a>
</g>
</g>
<!-- Node2&#45;&gt;Node3 -->
<g id="edge2" class="edge">
<title>Node2&#45;&gt;Node3</title>
<path fill="none" stroke="midnightblue" d="M537.58,-240.85C541.23,-227.58 547.22,-201.39 545,-179 544.13,-170.17 542.31,-160.51 540.53,-152.4"/>
<polygon fill="midnightblue" stroke="midnightblue" points="543.92,-151.49 538.23,-142.55 537.1,-153.08 543.92,-151.49"/>
</g>
<!-- Node5 -->
<g id="node5" class="node">
<title>Node5</title>
<g id="a_node5"><a xlink:href="BoomerangAPI_8h.html" target="_top" xlink:title=" ">
<polygon fill="white" stroke="black" points="129.5,-56.5 129.5,-86.5 284.5,-86.5 284.5,-56.5 129.5,-56.5"/>
<text text-anchor="start" x="137.5" y="-74.5" font-family="Helvetica,sans-Serif" font-size="10.00">boomerang/core/Boomerang</text>
<text text-anchor="middle" x="207" y="-63.5" font-family="Helvetica,sans-Serif" font-size="10.00">API.h</text>
</a>
</g>
</g>
<!-- Node4&#45;&gt;Node5 -->
<g id="edge4" class="edge">
<title>Node4&#45;&gt;Node5</title>
<path fill="none" stroke="midnightblue" d="M86.05,-179.23C93.99,-165.96 110.4,-140.49 129,-123 141.63,-111.12 157.4,-100.32 171.45,-91.78"/>
<polygon fill="midnightblue" stroke="midnightblue" points="173.55,-94.61 180.38,-86.51 169.99,-88.58 173.55,-94.61"/>
</g>
<!-- Node6 -->
<g id="node6" class="node">
<title>Node6</title>
<g id="a_node6"><a xlink:title=" ">
<polygon fill="white" stroke="#bfbfbf" points="138,-123.5 138,-142.5 196,-142.5 196,-123.5 138,-123.5"/>
<text text-anchor="middle" x="167" y="-130.5" font-family="Helvetica,sans-Serif" font-size="10.00">memory</text>
</a>
</g>
</g>
<!-- Node4&#45;&gt;Node6 -->
<g id="edge5" class="edge">
<title>Node4&#45;&gt;Node6</title>
<path fill="none" stroke="midnightblue" d="M94.82,-179.32C108.23,-170.9 128.82,-157.97 144.59,-148.07"/>
<polygon fill="midnightblue" stroke="midnightblue" points="146.61,-150.94 153.22,-142.65 142.89,-145.01 146.61,-150.94"/>
</g>
<!-- Node7&#45;&gt;Node4 -->
<g id="edge7" class="edge">
<title>Node7&#45;&gt;Node4</title>
<path fill="none" stroke="midnightblue" d="M251.43,-235.47C212.12,-224.99 159.09,-210.84 122.68,-201.12"/>
<polygon fill="midnightblue" stroke="midnightblue" points="123.45,-197.7 112.88,-198.51 121.64,-204.47 123.45,-197.7"/>
</g>
<!-- Node7&#45;&gt;Node6 -->
<g id="edge20" class="edge">
<title>Node7&#45;&gt;Node6</title>
<path fill="none" stroke="midnightblue" d="M267.42,-235.35C248.51,-226.8 225.92,-214.54 209,-199 194.35,-185.54 182.6,-165.91 175.29,-151.75"/>
<polygon fill="midnightblue" stroke="midnightblue" points="178.33,-150 170.78,-142.56 172.05,-153.08 178.33,-150"/>
</g>
<!-- Node8 -->
<g id="node8" class="node">
<title>Node8</title>
<g id="a_node8"><a xlink:href="Address_8h.html" target="_top" xlink:title=" ">
<polygon fill="white" stroke="black" points="338,-179.5 338,-198.5 480,-198.5 480,-179.5 338,-179.5"/>
<text text-anchor="middle" x="409" y="-186.5" font-family="Helvetica,sans-Serif" font-size="10.00">boomerang/util/Address.h</text>
</a>
</g>
</g>
<!-- Node7&#45;&gt;Node8 -->
<g id="edge8" class="edge">
<title>Node7&#45;&gt;Node8</title>
<path fill="none" stroke="midnightblue" d="M328.88,-235.4C345.71,-225.86 367.84,-213.32 384.57,-203.84"/>
<polygon fill="midnightblue" stroke="midnightblue" points="386.75,-206.63 393.72,-198.66 383.3,-200.54 386.75,-206.63"/>
</g>
<!-- Node13 -->
<g id="node13" class="node">
<title>Node13</title>
<g id="a_node13"><a xlink:title=" ">
<polygon fill="white" stroke="#bfbfbf" points="218,-179.5 218,-198.5 270,-198.5 270,-179.5 218,-179.5"/>
<text text-anchor="middle" x="244" y="-186.5" font-family="Helvetica,sans-Serif" font-size="10.00">cassert</text>
</a>
</g>
</g>
<!-- Node7&#45;&gt;Node13 -->
<g id="edge17" class="edge">
<title>Node7&#45;&gt;Node13</title>
<path fill="none" stroke="midnightblue" d="M289.78,-235.4C280.79,-226.49 269.16,-214.95 259.87,-205.74"/>
<polygon fill="midnightblue" stroke="midnightblue" points="262.3,-203.21 252.73,-198.66 257.37,-208.18 262.3,-203.21"/>
</g>
<!-- Node14 -->
<g id="node14" class="node">
<title>Node14</title>
<g id="a_node14"><a xlink:title=" ">
<polygon fill="white" stroke="#bfbfbf" points="288,-179.5 288,-198.5 320,-198.5 320,-179.5 288,-179.5"/>
<text text-anchor="middle" x="304" y="-186.5" font-family="Helvetica,sans-Serif" font-size="10.00">list</text>
</a>
</g>
</g>
<!-- Node7&#45;&gt;Node14 -->
<g id="edge18" class="edge">
<title>Node7&#45;&gt;Node14</title>
<path fill="none" stroke="midnightblue" d="M304,-235.4C304,-227.47 304,-217.46 304,-208.86"/>
<polygon fill="midnightblue" stroke="midnightblue" points="307.5,-208.66 304,-198.66 300.5,-208.66 307.5,-208.66"/>
</g>
<!-- Node7&#45;&gt;Node15 -->
<g id="edge19" class="edge">
<title>Node7&#45;&gt;Node15</title>
<path fill="none" stroke="midnightblue" d="M358.01,-235.43C392.69,-226.25 438.9,-213.72 487.92,-199.23"/>
<polygon fill="midnightblue" stroke="midnightblue" points="489.17,-202.51 497.76,-196.31 487.17,-195.8 489.17,-202.51"/>
</g>
<!-- Node8&#45;&gt;Node3 -->
<g id="edge16" class="edge">
<title>Node8&#45;&gt;Node3</title>
<path fill="none" stroke="midnightblue" d="M429.12,-179.44C450.02,-170.56 482.93,-156.56 506.72,-146.45"/>
<polygon fill="midnightblue" stroke="midnightblue" points="508.14,-149.65 515.97,-142.52 505.4,-143.21 508.14,-149.65"/>
</g>
<!-- Node8&#45;&gt;Node5 -->
<g id="edge9" class="edge">
<title>Node8&#45;&gt;Node5</title>
<path fill="none" stroke="midnightblue" d="M337.76,-180.48C307.31,-174.34 272.89,-163.21 247,-143 231.71,-131.07 221.29,-111.55 214.93,-96.07"/>
<polygon fill="midnightblue" stroke="midnightblue" points="218.15,-94.71 211.32,-86.61 211.61,-97.2 218.15,-94.71"/>
</g>
<!-- Node9 -->
<g id="node9" class="node">
<title>Node9</title>
<g id="a_node9"><a xlink:href="OStream_8h.html" target="_top" xlink:title=" ">
<polygon fill="white" stroke="black" points="256,-123.5 256,-142.5 402,-142.5 402,-123.5 256,-123.5"/>
<text text-anchor="middle" x="329" y="-130.5" font-family="Helvetica,sans-Serif" font-size="10.00">boomerang/util/OStream.h</text>
</a>
</g>
</g>
<!-- Node8&#45;&gt;Node9 -->
<g id="edge10" class="edge">
<title>Node8&#45;&gt;Node9</title>
<path fill="none" stroke="midnightblue" d="M396.15,-179.32C383.78,-170.98 364.87,-158.21 350.26,-148.35"/>
<polygon fill="midnightblue" stroke="midnightblue" points="352.07,-145.35 341.82,-142.65 348.15,-151.15 352.07,-145.35"/>
</g>
<!-- Node10 -->
<g id="node10" class="node">
<title>Node10</title>
<g id="a_node10"><a xlink:href="Types_8h.html" target="_top" xlink:title=" ">
<polygon fill="white" stroke="black" points="367.5,-62 367.5,-81 498.5,-81 498.5,-62 367.5,-62"/>
<text text-anchor="middle" x="433" y="-69" font-family="Helvetica,sans-Serif" font-size="10.00">boomerang/util/Types.h</text>
</a>
</g>
</g>
<!-- Node8&#45;&gt;Node10 -->
<g id="edge15" class="edge">
<title>Node8&#45;&gt;Node10</title>
<path fill="none" stroke="midnightblue" d="M410.8,-179.32C414.68,-160.67 423.87,-116.44 429.13,-91.13"/>
<polygon fill="midnightblue" stroke="midnightblue" points="432.57,-91.78 431.18,-81.28 425.71,-90.36 432.57,-91.78"/>
</g>
<!-- Node9&#45;&gt;Node5 -->
<g id="edge11" class="edge">
<title>Node9&#45;&gt;Node5</title>
<path fill="none" stroke="midnightblue" d="M311.52,-123.48C294.23,-115.04 267.19,-101.86 244.95,-91.01"/>
<polygon fill="midnightblue" stroke="midnightblue" points="246.28,-87.76 235.75,-86.52 243.21,-94.05 246.28,-87.76"/>
</g>
<!-- Node9&#45;&gt;Node10 -->
<g id="edge12" class="edge">
<title>Node9&#45;&gt;Node10</title>
<path fill="none" stroke="midnightblue" d="M343.9,-123.48C360.97,-113.71 389.16,-97.58 409.26,-86.08"/>
<polygon fill="midnightblue" stroke="midnightblue" points="411.19,-89.01 418.13,-81.01 407.71,-82.94 411.19,-89.01"/>
</g>
<!-- Node12 -->
<g id="node12" class="node">
<title>Node12</title>
<g id="a_node12"><a xlink:title=" ">
<polygon fill="white" stroke="#bfbfbf" points="303,-62 303,-81 349,-81 349,-62 303,-62"/>
<text text-anchor="middle" x="326" y="-69" font-family="Helvetica,sans-Serif" font-size="10.00">cstdio</text>
</a>
</g>
</g>
<!-- Node9&#45;&gt;Node12 -->
<g id="edge14" class="edge">
<title>Node9&#45;&gt;Node12</title>
<path fill="none" stroke="midnightblue" d="M328.57,-123.48C328.15,-115.08 327.49,-101.98 326.94,-91.16"/>
<polygon fill="midnightblue" stroke="midnightblue" points="330.43,-90.82 326.43,-81.01 323.44,-91.17 330.43,-90.82"/>
</g>
<!-- Node11 -->
<g id="node11" class="node">
<title>Node11</title>
<g id="a_node11"><a xlink:title=" ">
<polygon fill="white" stroke="#bfbfbf" points="408,-0.5 408,-19.5 458,-19.5 458,-0.5 408,-0.5"/>
<text text-anchor="middle" x="433" y="-7.5" font-family="Helvetica,sans-Serif" font-size="10.00">cstdint</text>
</a>
</g>
</g>
<!-- Node10&#45;&gt;Node11 -->
<g id="edge13" class="edge">
<title>Node10&#45;&gt;Node11</title>
<path fill="none" stroke="midnightblue" d="M433,-61.98C433,-53.58 433,-40.48 433,-29.66"/>
<polygon fill="midnightblue" stroke="midnightblue" points="436.5,-29.51 433,-19.51 429.5,-29.51 436.5,-29.51"/>
</g>
</g>
</svg>
