<?xml version="1.0" encoding="UTF-8" standalone="no"?>
<!DOCTYPE svg PUBLIC "-//W3C//DTD SVG 1.1//EN"
 "http://www.w3.org/Graphics/SVG/1.1/DTD/svg11.dtd">
<!-- Generated by graphviz version 2.43.0 (0)
 -->
<!-- Title: BoolAssign.h Pages: 1 -->
<svg width="1352pt" height="84pt"
 viewBox="0.00 0.00 1351.50 84.00" xmlns="http://www.w3.org/2000/svg" xmlns:xlink="http://www.w3.org/1999/xlink">
<g id="graph0" class="graph" transform="scale(1 1) rotate(0) translate(4 80)">
<title>BoolAssign.h</title>
<polygon fill="white" stroke="transparent" points="-4,4 -4,-80 1347.5,-80 1347.5,4 -4,4"/>
<!-- Node1 -->
<g id="node1" class="node">
<title>Node1</title>
<g id="a_node1"><a xlink:title=" ">
<polygon fill="#bfbfbf" stroke="black" points="600.5,-56.5 600.5,-75.5 680.5,-75.5 680.5,-56.5 600.5,-56.5"/>
<text text-anchor="middle" x="640.5" y="-63.5" font-family="Helvetica,sans-Serif" font-size="10.00">BoolAssign.h</text>
</a>
</g>
</g>
<!-- Node2 -->
<g id="node2" class="node">
<title>Node2</title>
<g id="a_node2"><a xlink:href="BoolAssign_8cpp.html" target="_top" xlink:title=" ">
<polygon fill="white" stroke="black" points="0,-0.5 0,-19.5 91,-19.5 91,-0.5 0,-0.5"/>
<text text-anchor="middle" x="45.5" y="-7.5" font-family="Helvetica,sans-Serif" font-size="10.00">BoolAssign.cpp</text>
</a>
</g>
</g>
<!-- Node1&#45;&gt;Node2 -->
<g id="edge1" class="edge">
<title>Node1&#45;&gt;Node2</title>
<path fill="none" stroke="midnightblue" d="M590.17,-62.14C494.53,-56.41 280.04,-42.14 100.5,-20 97.43,-19.62 94.26,-19.2 91.08,-18.74"/>
<polygon fill="midnightblue" stroke="midnightblue" points="590.23,-65.65 600.42,-62.75 590.65,-58.66 590.23,-65.65"/>
</g>
<!-- Node3 -->
<g id="node3" class="node">
<title>Node3</title>
<g id="a_node3"><a xlink:href="StmtRegMapper_8cpp.html" target="_top" xlink:title=" ">
<polygon fill="white" stroke="black" points="109.5,-0.5 109.5,-19.5 225.5,-19.5 225.5,-0.5 109.5,-0.5"/>
<text text-anchor="middle" x="167.5" y="-7.5" font-family="Helvetica,sans-Serif" font-size="10.00">StmtRegMapper.cpp</text>
</a>
</g>
</g>
<!-- Node1&#45;&gt;Node3 -->
<g id="edge2" class="edge">
<title>Node1&#45;&gt;Node3</title>
<path fill="none" stroke="midnightblue" d="M590.08,-59.79C513.28,-51.77 362.4,-35.68 234.5,-20 231.59,-19.64 228.61,-19.27 225.59,-18.89"/>
<polygon fill="midnightblue" stroke="midnightblue" points="590.1,-63.31 600.41,-60.87 590.83,-56.35 590.1,-63.31"/>
</g>
<!-- Node4 -->
<g id="node4" class="node">
<title>Node4</title>
<g id="a_node4"><a xlink:href="UsedLocsVisitor_8cpp.html" target="_top" xlink:title=" ">
<polygon fill="white" stroke="black" points="244,-0.5 244,-19.5 359,-19.5 359,-0.5 244,-0.5"/>
<text text-anchor="middle" x="301.5" y="-7.5" font-family="Helvetica,sans-Serif" font-size="10.00">UsedLocsVisitor.cpp</text>
</a>
</g>
</g>
<!-- Node1&#45;&gt;Node4 -->
<g id="edge3" class="edge">
<title>Node1&#45;&gt;Node4</title>
<path fill="none" stroke="midnightblue" d="M590.18,-56.98C527.14,-46.94 419.56,-29.81 355.04,-19.53"/>
<polygon fill="midnightblue" stroke="midnightblue" points="589.85,-60.48 600.28,-58.59 590.96,-53.56 589.85,-60.48"/>
</g>
<!-- Node5 -->
<g id="node5" class="node">
<title>Node5</title>
<g id="a_node5"><a xlink:href="StmtSSAXFormer_8cpp.html" target="_top" xlink:title=" ">
<polygon fill="white" stroke="black" points="377,-0.5 377,-19.5 498,-19.5 498,-0.5 377,-0.5"/>
<text text-anchor="middle" x="437.5" y="-7.5" font-family="Helvetica,sans-Serif" font-size="10.00">StmtSSAXFormer.cpp</text>
</a>
</g>
</g>
<!-- Node1&#45;&gt;Node5 -->
<g id="edge4" class="edge">
<title>Node1&#45;&gt;Node5</title>
<path fill="none" stroke="midnightblue" d="M598.51,-53.83C560.18,-43.63 504.35,-28.78 469.52,-19.52"/>
<polygon fill="midnightblue" stroke="midnightblue" points="597.77,-57.26 608.33,-56.44 599.57,-50.49 597.77,-57.26"/>
</g>
<!-- Node6 -->
<g id="node6" class="node">
<title>Node6</title>
<g id="a_node6"><a xlink:href="StmtSubscripter_8cpp.html" target="_top" xlink:title=" ">
<polygon fill="white" stroke="black" points="516,-0.5 516,-19.5 631,-19.5 631,-0.5 516,-0.5"/>
<text text-anchor="middle" x="573.5" y="-7.5" font-family="Helvetica,sans-Serif" font-size="10.00">StmtSubscripter.cpp</text>
</a>
</g>
</g>
<!-- Node1&#45;&gt;Node6 -->
<g id="edge5" class="edge">
<title>Node1&#45;&gt;Node6</title>
<path fill="none" stroke="midnightblue" d="M621.67,-49.82C609.66,-40.15 594.53,-27.95 584.46,-19.83"/>
<polygon fill="midnightblue" stroke="midnightblue" points="619.75,-52.77 629.74,-56.32 624.15,-47.32 619.75,-52.77"/>
</g>
<!-- Node7 -->
<g id="node7" class="node">
<title>Node7</title>
<g id="a_node7"><a xlink:href="StmtCastInserter_8cpp.html" target="_top" xlink:title=" ">
<polygon fill="white" stroke="black" points="649,-0.5 649,-19.5 768,-19.5 768,-0.5 649,-0.5"/>
<text text-anchor="middle" x="708.5" y="-7.5" font-family="Helvetica,sans-Serif" font-size="10.00">StmtCastInserter.cpp</text>
</a>
</g>
</g>
<!-- Node1&#45;&gt;Node7 -->
<g id="edge6" class="edge">
<title>Node1&#45;&gt;Node7</title>
<path fill="none" stroke="midnightblue" d="M659.26,-50.1C671.5,-40.38 687.06,-28.03 697.38,-19.83"/>
<polygon fill="midnightblue" stroke="midnightblue" points="657.08,-47.36 651.43,-56.32 661.43,-52.85 657.08,-47.36"/>
</g>
<!-- Node8 -->
<g id="node8" class="node">
<title>Node8</title>
<g id="a_node8"><a xlink:href="CCodeGenerator_8cpp.html" target="_top" xlink:title=" ">
<polygon fill="white" stroke="black" points="786,-0.5 786,-19.5 903,-19.5 903,-0.5 786,-0.5"/>
<text text-anchor="middle" x="844.5" y="-7.5" font-family="Helvetica,sans-Serif" font-size="10.00">CCodeGenerator.cpp</text>
</a>
</g>
</g>
<!-- Node1&#45;&gt;Node8 -->
<g id="edge7" class="edge">
<title>Node1&#45;&gt;Node8</title>
<path fill="none" stroke="midnightblue" d="M682.7,-53.83C721.22,-43.63 777.32,-28.78 812.33,-19.52"/>
<polygon fill="midnightblue" stroke="midnightblue" points="681.6,-50.5 672.82,-56.44 683.39,-57.27 681.6,-50.5"/>
</g>
<!-- Node9 -->
<g id="node9" class="node">
<title>Node9</title>
<g id="a_node9"><a xlink:href="CapstoneX86Decoder_8cpp.html" target="_top" xlink:title=" ">
<polygon fill="white" stroke="black" points="921.5,-0.5 921.5,-19.5 1063.5,-19.5 1063.5,-0.5 921.5,-0.5"/>
<text text-anchor="middle" x="992.5" y="-7.5" font-family="Helvetica,sans-Serif" font-size="10.00">CapstoneX86Decoder.cpp</text>
</a>
</g>
</g>
<!-- Node1&#45;&gt;Node9 -->
<g id="edge8" class="edge">
<title>Node1&#45;&gt;Node9</title>
<path fill="none" stroke="midnightblue" d="M690.56,-57.32C755.69,-47.33 869.15,-29.92 936.9,-19.53"/>
<polygon fill="midnightblue" stroke="midnightblue" points="689.89,-53.88 680.54,-58.86 690.95,-60.8 689.89,-53.88"/>
</g>
<!-- Node10 -->
<g id="node10" class="node">
<title>Node10</title>
<g id="a_node10"><a xlink:href="DFATypeAnalyzer_8cpp.html" target="_top" xlink:title=" ">
<polygon fill="white" stroke="black" points="1082,-0.5 1082,-19.5 1203,-19.5 1203,-0.5 1082,-0.5"/>
<text text-anchor="middle" x="1142.5" y="-7.5" font-family="Helvetica,sans-Serif" font-size="10.00">DFATypeAnalyzer.cpp</text>
</a>
</g>
</g>
<!-- Node1&#45;&gt;Node10 -->
<g id="edge9" class="edge">
<title>Node1&#45;&gt;Node10</title>
<path fill="none" stroke="midnightblue" d="M691.1,-60.13C771.83,-52.27 934.69,-36.03 1072.5,-20 1075.54,-19.65 1078.66,-19.28 1081.8,-18.89"/>
<polygon fill="midnightblue" stroke="midnightblue" points="690.35,-56.68 680.74,-61.14 691.03,-63.65 690.35,-56.68"/>
</g>
<!-- Node11 -->
<g id="node11" class="node">
<title>Node11</title>
<g id="a_node11"><a xlink:href="DFATypeRecovery_8cpp.html" target="_top" xlink:title=" ">
<polygon fill="white" stroke="black" points="1221.5,-0.5 1221.5,-19.5 1343.5,-19.5 1343.5,-0.5 1221.5,-0.5"/>
<text text-anchor="middle" x="1282.5" y="-7.5" font-family="Helvetica,sans-Serif" font-size="10.00">DFATypeRecovery.cpp</text>
</a>
</g>
</g>
<!-- Node1&#45;&gt;Node11 -->
<g id="edge10" class="edge">
<title>Node1&#45;&gt;Node11</title>
<path fill="none" stroke="midnightblue" d="M690.88,-61.88C790.6,-55.51 1020.15,-39.92 1212.5,-20 1215.43,-19.7 1218.42,-19.37 1221.44,-19.03"/>
<polygon fill="midnightblue" stroke="midnightblue" points="690.54,-58.39 680.78,-62.52 690.99,-65.38 690.54,-58.39"/>
</g>
</g>
</svg>
