<?xml version="1.0" encoding="UTF-8" standalone="no"?>
<!DOCTYPE svg PUBLIC "-//W3C//DTD SVG 1.1//EN"
 "http://www.w3.org/Graphics/SVG/1.1/DTD/svg11.dtd">
<!-- Generated by graphviz version 2.43.0 (0)
 -->
<!-- Title: CapstoneX86Decoder.h Pages: 1 -->
<!--zoomable 565 -->
<svg id="main" version="1.1" xmlns="http://www.w3.org/2000/svg" xmlns:xlink="http://www.w3.org/1999/xlink" xml:space="preserve" onload="init(evt)">
<style type="text/css"><![CDATA[
.edge:hover path { stroke: red; }
.edge:hover polygon { stroke: red; fill: red; }
]]></style>
<script type="text/javascript"><![CDATA[
var edges = document.getElementsByTagName('g');
if (edges && edges.length) {
  for (var i=0;i<edges.length;i++) {
    if (edges[i].id.substr(0,4)=='edge') {
      edges[i].setAttribute('class','edge');
    }
  }
}
]]></script>
        <defs>
                <circle id="rim" cx="0" cy="0" r="7"/>
                <circle id="rim2" cx="0" cy="0" r="3.5"/>
                <g id="zoomPlus">
                        <use xlink:href="#rim" fill="#404040">
                                <set attributeName="fill" to="#808080" begin="zoomplus.mouseover" end="zoomplus.mouseout"/>
                        </use>
                        <path d="M-4,0h8M0,-4v8" fill="none" stroke="white" stroke-width="1.5" pointer-events="none"/>
                </g>
                <g id="zoomMin">
                        <use xlink:href="#rim" fill="#404040">
                                <set attributeName="fill" to="#808080" begin="zoomminus.mouseover" end="zoomminus.mouseout"/>
                        </use>
                        <path d="M-4,0h8" fill="none" stroke="white" stroke-width="1.5" pointer-events="none"/>
                </g>
                <g id="dirArrow">
                        <path fill="none" stroke="white" stroke-width="1.5" d="M0,-3.0v7 M-2.5,-0.5L0,-3.0L2.5,-0.5"/>
                </g>
               <g id="resetDef">
                       <use xlink:href="#rim2" fill="#404040">
                               <set attributeName="fill" to="#808080" begin="reset.mouseover" end="reset.mouseout"/>
                       </use>
               </g>
        </defs>

<script type="text/javascript">
var viewWidth = 1409;
var viewHeight = 565;
var sectionId = 'dynsection-0';
</script>
<script xlink:href="svgpan.js"/>
<svg id="graph" class="graph">
<g id="viewport">
<title>CapstoneX86Decoder.h</title>
<polygon fill="white" stroke="transparent" points="-4,4 -4,-561 1404.93,-561 1404.93,4 -4,4"/>
<!-- Node1 -->
<g id="node1" class="node">
<title>Node1</title>
<g id="a_node1"><a xlink:title=" ">
<polygon fill="#bfbfbf" stroke="black" points="770.5,-537.5 770.5,-556.5 901.5,-556.5 901.5,-537.5 770.5,-537.5"/>
<text text-anchor="middle" x="836" y="-544.5" font-family="Helvetica,sans-Serif" font-size="10.00">CapstoneX86Decoder.h</text>
</a>
</g>
</g>
<!-- Node2 -->
<g id="node2" class="node">
<title>Node2</title>
<g id="a_node2"><a xlink:href="CapstoneDecoder_8h.html" target="_top" xlink:title=" ">
<polygon fill="white" stroke="black" points="775.5,-481.5 775.5,-500.5 896.5,-500.5 896.5,-481.5 775.5,-481.5"/>
<text text-anchor="middle" x="836" y="-488.5" font-family="Helvetica,sans-Serif" font-size="10.00">../CapstoneDecoder.h</text>
</a>
</g>
</g>
<!-- Node1&#45;&gt;Node2 -->
<g id="edge1" class="edge">
<title>Node1&#45;&gt;Node2</title>
<path fill="none" stroke="midnightblue" d="M836,-537.08C836,-530.01 836,-519.86 836,-510.99"/>
<polygon fill="midnightblue" stroke="midnightblue" points="839.5,-510.75 836,-500.75 832.5,-510.75 839.5,-510.75"/>
</g>
<!-- Node6 -->
<g id="node6" class="node">
<title>Node6</title>
<g id="a_node6"><a xlink:href="BoomerangAPI_8h.html" target="_top" xlink:title=" ">
<polygon fill="white" stroke="black" points="318.5,-56.5 318.5,-86.5 473.5,-86.5 473.5,-56.5 318.5,-56.5"/>
<text text-anchor="start" x="326.5" y="-74.5" font-family="Helvetica,sans-Serif" font-size="10.00">boomerang/core/Boomerang</text>
<text text-anchor="middle" x="396" y="-63.5" font-family="Helvetica,sans-Serif" font-size="10.00">API.h</text>
</a>
</g>
</g>
<!-- Node1&#45;&gt;Node6 -->
<g id="edge69" class="edge">
<title>Node1&#45;&gt;Node6</title>
<path fill="none" stroke="midnightblue" d="M901.53,-546.83C1050.15,-546.96 1400,-536.57 1400,-436 1400,-436 1400,-436 1400,-188 1400,-3.37 1459.46,-179.25 493,-87 489.96,-86.71 486.87,-86.39 483.76,-86.04"/>
<polygon fill="midnightblue" stroke="midnightblue" points="484.08,-82.56 473.74,-84.86 483.26,-89.51 484.08,-82.56"/>
</g>
<!-- Node36 -->
<g id="node36" class="node">
<title>Node36</title>
<g id="a_node36"><a xlink:href="Operator_8h.html" target="_top" xlink:title=" ">
<polygon fill="white" stroke="black" points="197,-481.5 197,-500.5 361,-500.5 361,-481.5 197,-481.5"/>
<text text-anchor="middle" x="279" y="-488.5" font-family="Helvetica,sans-Serif" font-size="10.00">boomerang/ssl/exp/Operator.h</text>
</a>
</g>
</g>
<!-- Node1&#45;&gt;Node36 -->
<g id="edge70" class="edge">
<title>Node1&#45;&gt;Node36</title>
<path fill="none" stroke="midnightblue" d="M770.47,-539.65C671.65,-530.07 484.1,-511.88 371.43,-500.96"/>
<polygon fill="midnightblue" stroke="midnightblue" points="371.73,-497.47 361.44,-499.99 371.05,-504.44 371.73,-497.47"/>
</g>
<!-- Node3 -->
<g id="node3" class="node">
<title>Node3</title>
<g id="a_node3"><a xlink:href="IDecoder_8h.html" target="_top" xlink:title=" ">
<polygon fill="white" stroke="black" points="508.5,-425.5 508.5,-444.5 651.5,-444.5 651.5,-425.5 508.5,-425.5"/>
<text text-anchor="middle" x="580" y="-432.5" font-family="Helvetica,sans-Serif" font-size="10.00">boomerang/ifc/IDecoder.h</text>
</a>
</g>
</g>
<!-- Node2&#45;&gt;Node3 -->
<g id="edge2" class="edge">
<title>Node2&#45;&gt;Node3</title>
<path fill="none" stroke="midnightblue" d="M795.44,-481.44C750.68,-472 678.62,-456.8 630.3,-446.61"/>
<polygon fill="midnightblue" stroke="midnightblue" points="630.88,-443.16 620.37,-444.52 629.44,-450.01 630.88,-443.16"/>
</g>
<!-- Node28 -->
<g id="node28" class="node">
<title>Node28</title>
<g id="a_node28"><a xlink:href="RTLInstDict_8h.html" target="_top" xlink:title=" ">
<polygon fill="white" stroke="black" points="1021,-425.5 1021,-444.5 1177,-444.5 1177,-425.5 1021,-425.5"/>
<text text-anchor="middle" x="1099" y="-432.5" font-family="Helvetica,sans-Serif" font-size="10.00">boomerang/ssl/RTLInstDict.h</text>
</a>
</g>
</g>
<!-- Node2&#45;&gt;Node28 -->
<g id="edge50" class="edge">
<title>Node2&#45;&gt;Node28</title>
<path fill="none" stroke="midnightblue" d="M877.67,-481.44C923.75,-471.98 998,-456.74 1047.63,-446.55"/>
<polygon fill="midnightblue" stroke="midnightblue" points="1048.43,-449.96 1057.52,-444.52 1047.02,-443.1 1048.43,-449.96"/>
</g>
<!-- Node35 -->
<g id="node35" class="node">
<title>Node35</title>
<g id="a_node35"><a xlink:title=" ">
<polygon fill="white" stroke="#bfbfbf" points="777.5,-425.5 777.5,-444.5 894.5,-444.5 894.5,-425.5 777.5,-425.5"/>
<text text-anchor="middle" x="836" y="-432.5" font-family="Helvetica,sans-Serif" font-size="10.00">capstone/capstone.h</text>
</a>
</g>
</g>
<!-- Node2&#45;&gt;Node35 -->
<g id="edge68" class="edge">
<title>Node2&#45;&gt;Node35</title>
<path fill="none" stroke="midnightblue" d="M836,-481.08C836,-474.01 836,-463.86 836,-454.99"/>
<polygon fill="midnightblue" stroke="midnightblue" points="839.5,-454.75 836,-444.75 832.5,-454.75 839.5,-454.75"/>
</g>
<!-- Node4 -->
<g id="node4" class="node">
<title>Node4</title>
<g id="a_node4"><a xlink:href="LiftedInstruction_8h.html" target="_top" xlink:title=" ">
<polygon fill="white" stroke="black" points="584,-358.5 584,-388.5 700,-388.5 700,-358.5 584,-358.5"/>
<text text-anchor="start" x="592" y="-376.5" font-family="Helvetica,sans-Serif" font-size="10.00">boomerang/frontend</text>
<text text-anchor="middle" x="642" y="-365.5" font-family="Helvetica,sans-Serif" font-size="10.00">/LiftedInstruction.h</text>
</a>
</g>
</g>
<!-- Node3&#45;&gt;Node4 -->
<g id="edge3" class="edge">
<title>Node3&#45;&gt;Node4</title>
<path fill="none" stroke="midnightblue" d="M588.88,-425.48C596.97,-417.72 609.24,-405.94 619.95,-395.66"/>
<polygon fill="midnightblue" stroke="midnightblue" points="622.6,-397.97 627.39,-388.52 617.75,-392.92 622.6,-397.97"/>
</g>
<!-- Node23 -->
<g id="node23" class="node">
<title>Node23</title>
<g id="a_node23"><a xlink:href="MachineInstruction_8h.html" target="_top" xlink:title=" ">
<polygon fill="white" stroke="black" points="197,-235.5 197,-265.5 319,-265.5 319,-235.5 197,-235.5"/>
<text text-anchor="start" x="205" y="-253.5" font-family="Helvetica,sans-Serif" font-size="10.00">boomerang/frontend</text>
<text text-anchor="middle" x="258" y="-242.5" font-family="Helvetica,sans-Serif" font-size="10.00">/MachineInstruction.h</text>
</a>
</g>
</g>
<!-- Node3&#45;&gt;Node23 -->
<g id="edge34" class="edge">
<title>Node3&#45;&gt;Node23</title>
<path fill="none" stroke="midnightblue" d="M564.9,-425.44C515.99,-397.72 361.1,-309.93 291.93,-270.73"/>
<polygon fill="midnightblue" stroke="midnightblue" points="293.58,-267.64 283.15,-265.75 290.12,-273.73 293.58,-267.64"/>
</g>
<!-- Node24 -->
<g id="node24" class="node">
<title>Node24</title>
<g id="a_node24"><a xlink:href="Register_8h.html" target="_top" xlink:title=" ">
<polygon fill="white" stroke="black" points="1012.5,-179.5 1012.5,-198.5 1153.5,-198.5 1153.5,-179.5 1012.5,-179.5"/>
<text text-anchor="middle" x="1083" y="-186.5" font-family="Helvetica,sans-Serif" font-size="10.00">boomerang/ssl/Register.h</text>
</a>
</g>
</g>
<!-- Node3&#45;&gt;Node24 -->
<g id="edge49" class="edge">
<title>Node3&#45;&gt;Node24</title>
<path fill="none" stroke="midnightblue" d="M576.11,-425.07C570.13,-409.81 560.76,-378.38 575,-358 680.99,-206.35 809.93,-336.49 981,-266 985.65,-264.08 1035.32,-226.42 1063.6,-204.84"/>
<polygon fill="midnightblue" stroke="midnightblue" points="1065.79,-207.58 1071.61,-198.72 1061.54,-202.01 1065.79,-207.58"/>
</g>
<!-- Node5 -->
<g id="node5" class="node">
<title>Node5</title>
<g id="a_node5"><a xlink:href="GraphNode_8h.html" target="_top" xlink:title=" ">
<polygon fill="white" stroke="black" points="576,-241 576,-260 730,-260 730,-241 576,-241"/>
<text text-anchor="middle" x="653" y="-248" font-family="Helvetica,sans-Serif" font-size="10.00">boomerang/db/GraphNode.h</text>
</a>
</g>
</g>
<!-- Node4&#45;&gt;Node5 -->
<g id="edge4" class="edge">
<title>Node4&#45;&gt;Node5</title>
<path fill="none" stroke="midnightblue" d="M643.31,-358.14C645.3,-336.2 649.11,-294.33 651.31,-270.09"/>
<polygon fill="midnightblue" stroke="midnightblue" points="654.8,-270.33 652.22,-260.05 647.83,-269.69 654.8,-270.33"/>
</g>
<!-- Node13 -->
<g id="node13" class="node">
<title>Node13</title>
<g id="a_node13"><a xlink:href="RTL_8h.html" target="_top" xlink:title=" ">
<polygon fill="white" stroke="black" points="736.5,-302.5 736.5,-321.5 855.5,-321.5 855.5,-302.5 736.5,-302.5"/>
<text text-anchor="middle" x="796" y="-309.5" font-family="Helvetica,sans-Serif" font-size="10.00">boomerang/ssl/RTL.h</text>
</a>
</g>
</g>
<!-- Node4&#45;&gt;Node13 -->
<g id="edge13" class="edge">
<title>Node4&#45;&gt;Node13</title>
<path fill="none" stroke="midnightblue" d="M678.5,-358.4C704.57,-348.33 739.29,-334.91 764.22,-325.28"/>
<polygon fill="midnightblue" stroke="midnightblue" points="765.53,-328.53 773.59,-321.66 763,-322 765.53,-328.53"/>
</g>
<!-- Node5&#45;&gt;Node6 -->
<g id="edge5" class="edge">
<title>Node5&#45;&gt;Node6</title>
<path fill="none" stroke="midnightblue" d="M599.59,-240.95C587.25,-238.98 574.17,-236.91 562,-235 510.24,-226.88 363.1,-238.77 329,-199 301.05,-166.41 341.34,-120.19 370.49,-93.59"/>
<polygon fill="midnightblue" stroke="midnightblue" points="373.18,-95.88 378.35,-86.63 368.54,-90.64 373.18,-95.88"/>
</g>
<!-- Node7 -->
<g id="node7" class="node">
<title>Node7</title>
<g id="a_node7"><a xlink:href="Util_8h.html" target="_top" xlink:title=" ">
<polygon fill="white" stroke="black" points="678,-179.5 678,-198.5 798,-198.5 798,-179.5 678,-179.5"/>
<text text-anchor="middle" x="738" y="-186.5" font-family="Helvetica,sans-Serif" font-size="10.00">boomerang/util/Util.h</text>
</a>
</g>
</g>
<!-- Node5&#45;&gt;Node7 -->
<g id="edge6" class="edge">
<title>Node5&#45;&gt;Node7</title>
<path fill="none" stroke="midnightblue" d="M665.18,-240.98C678.81,-231.43 701.13,-215.81 717.47,-204.37"/>
<polygon fill="midnightblue" stroke="midnightblue" points="719.66,-207.11 725.84,-198.51 715.64,-201.38 719.66,-207.11"/>
</g>
<!-- Node11 -->
<g id="node11" class="node">
<title>Node11</title>
<g id="a_node11"><a xlink:title=" ">
<polygon fill="white" stroke="#bfbfbf" points="816,-179.5 816,-198.5 868,-198.5 868,-179.5 816,-179.5"/>
<text text-anchor="middle" x="842" y="-186.5" font-family="Helvetica,sans-Serif" font-size="10.00">cassert</text>
</a>
</g>
</g>
<!-- Node5&#45;&gt;Node11 -->
<g id="edge11" class="edge">
<title>Node5&#45;&gt;Node11</title>
<path fill="none" stroke="midnightblue" d="M680.08,-240.98C713.2,-230.55 769.38,-212.86 806.08,-201.31"/>
<polygon fill="midnightblue" stroke="midnightblue" points="807.4,-204.56 815.88,-198.22 805.29,-197.89 807.4,-204.56"/>
</g>
<!-- Node12 -->
<g id="node12" class="node">
<title>Node12</title>
<g id="a_node12"><a xlink:title=" ">
<polygon fill="white" stroke="#bfbfbf" points="234.5,-179.5 234.5,-198.5 281.5,-198.5 281.5,-179.5 234.5,-179.5"/>
<text text-anchor="middle" x="258" y="-186.5" font-family="Helvetica,sans-Serif" font-size="10.00">vector</text>
</a>
</g>
</g>
<!-- Node5&#45;&gt;Node12 -->
<g id="edge12" class="edge">
<title>Node5&#45;&gt;Node12</title>
<path fill="none" stroke="midnightblue" d="M600.58,-240.93C587.96,-238.93 574.5,-236.84 562,-235 443.97,-217.61 413.3,-220.77 296,-199 294.54,-198.73 293.06,-198.44 291.56,-198.13"/>
<polygon fill="midnightblue" stroke="midnightblue" points="292.16,-194.68 281.64,-195.98 290.67,-201.52 292.16,-194.68"/>
</g>
<!-- Node7&#45;&gt;Node6 -->
<g id="edge7" class="edge">
<title>Node7&#45;&gt;Node6</title>
<path fill="none" stroke="midnightblue" d="M677.69,-180.07C594.29,-168.91 452.82,-149.25 443,-143 425.64,-131.94 413.21,-111.9 405.51,-96.01"/>
<polygon fill="midnightblue" stroke="midnightblue" points="408.64,-94.43 401.33,-86.77 402.26,-97.32 408.64,-94.43"/>
</g>
<!-- Node8 -->
<g id="node8" class="node">
<title>Node8</title>
<g id="a_node8"><a xlink:title=" ">
<polygon fill="white" stroke="#bfbfbf" points="711.5,-123.5 711.5,-142.5 764.5,-142.5 764.5,-123.5 711.5,-123.5"/>
<text text-anchor="middle" x="738" y="-130.5" font-family="Helvetica,sans-Serif" font-size="10.00">QString</text>
</a>
</g>
</g>
<!-- Node7&#45;&gt;Node8 -->
<g id="edge8" class="edge">
<title>Node7&#45;&gt;Node8</title>
<path fill="none" stroke="midnightblue" d="M738,-179.08C738,-172.01 738,-161.86 738,-152.99"/>
<polygon fill="midnightblue" stroke="midnightblue" points="741.5,-152.75 738,-142.75 734.5,-152.75 741.5,-152.75"/>
</g>
<!-- Node9 -->
<g id="node9" class="node">
<title>Node9</title>
<g id="a_node9"><a xlink:title=" ">
<polygon fill="white" stroke="#bfbfbf" points="867,-123.5 867,-142.5 925,-142.5 925,-123.5 867,-123.5"/>
<text text-anchor="middle" x="896" y="-130.5" font-family="Helvetica,sans-Serif" font-size="10.00">memory</text>
</a>
</g>
</g>
<!-- Node7&#45;&gt;Node9 -->
<g id="edge9" class="edge">
<title>Node7&#45;&gt;Node9</title>
<path fill="none" stroke="midnightblue" d="M763.04,-179.44C789.62,-170.36 831.81,-155.94 861.52,-145.78"/>
<polygon fill="midnightblue" stroke="midnightblue" points="862.75,-149.06 871.08,-142.52 860.49,-142.44 862.75,-149.06"/>
</g>
<!-- Node10 -->
<g id="node10" class="node">
<title>Node10</title>
<g id="a_node10"><a xlink:title=" ">
<polygon fill="white" stroke="#bfbfbf" points="1096.5,-123.5 1096.5,-142.5 1165.5,-142.5 1165.5,-123.5 1096.5,-123.5"/>
<text text-anchor="middle" x="1131" y="-130.5" font-family="Helvetica,sans-Serif" font-size="10.00">type_traits</text>
</a>
</g>
</g>
<!-- Node7&#45;&gt;Node10 -->
<g id="edge10" class="edge">
<title>Node7&#45;&gt;Node10</title>
<path fill="none" stroke="midnightblue" d="M798.12,-179.74C877.53,-168.83 1015.59,-149.86 1086.36,-140.13"/>
<polygon fill="midnightblue" stroke="midnightblue" points="1086.87,-143.6 1096.3,-138.77 1085.92,-136.66 1086.87,-143.6"/>
</g>
<!-- Node13&#45;&gt;Node9 -->
<g id="edge33" class="edge">
<title>Node13&#45;&gt;Node9</title>
<path fill="none" stroke="midnightblue" d="M796.21,-302.09C796.99,-286.86 800.53,-255.46 816,-235 834.99,-209.89 857.67,-223.85 877,-199 887.37,-185.67 892.08,-166.84 894.22,-152.88"/>
<polygon fill="midnightblue" stroke="midnightblue" points="897.7,-153.27 895.45,-142.92 890.75,-152.42 897.7,-153.27"/>
</g>
<!-- Node14 -->
<g id="node14" class="node">
<title>Node14</title>
<g id="a_node14"><a xlink:href="Statement_8h.html" target="_top" xlink:title=" ">
<polygon fill="white" stroke="black" points="824.5,-235.5 824.5,-265.5 971.5,-265.5 971.5,-235.5 824.5,-235.5"/>
<text text-anchor="start" x="832.5" y="-253.5" font-family="Helvetica,sans-Serif" font-size="10.00">boomerang/ssl/statements</text>
<text text-anchor="middle" x="898" y="-242.5" font-family="Helvetica,sans-Serif" font-size="10.00">/Statement.h</text>
</a>
</g>
</g>
<!-- Node13&#45;&gt;Node14 -->
<g id="edge14" class="edge">
<title>Node13&#45;&gt;Node14</title>
<path fill="none" stroke="midnightblue" d="M810.61,-302.48C824.82,-294.19 846.87,-281.32 865.27,-270.59"/>
<polygon fill="midnightblue" stroke="midnightblue" points="867.09,-273.58 873.96,-265.52 863.56,-267.54 867.09,-273.58"/>
</g>
<!-- Node16 -->
<g id="node16" class="node">
<title>Node16</title>
<g id="a_node16"><a xlink:href="Address_8h.html" target="_top" xlink:title=" ">
<polygon fill="white" stroke="black" points="338,-179.5 338,-198.5 480,-198.5 480,-179.5 338,-179.5"/>
<text text-anchor="middle" x="409" y="-186.5" font-family="Helvetica,sans-Serif" font-size="10.00">boomerang/util/Address.h</text>
</a>
</g>
</g>
<!-- Node13&#45;&gt;Node16 -->
<g id="edge31" class="edge">
<title>Node13&#45;&gt;Node16</title>
<path fill="none" stroke="midnightblue" d="M792.21,-302.13C784.71,-285.77 766.3,-251.05 739,-235 728.34,-228.74 584.65,-210.76 490.43,-199.51"/>
<polygon fill="midnightblue" stroke="midnightblue" points="490.68,-196.02 480.33,-198.31 489.85,-202.97 490.68,-196.02"/>
</g>
<!-- Node21 -->
<g id="node21" class="node">
<title>Node21</title>
<g id="a_node21"><a xlink:title=" ">
<polygon fill="white" stroke="#bfbfbf" points="962,-179.5 962,-198.5 994,-198.5 994,-179.5 962,-179.5"/>
<text text-anchor="middle" x="978" y="-186.5" font-family="Helvetica,sans-Serif" font-size="10.00">list</text>
</a>
</g>
</g>
<!-- Node13&#45;&gt;Node21 -->
<g id="edge32" class="edge">
<title>Node13&#45;&gt;Node21</title>
<path fill="none" stroke="midnightblue" d="M855.58,-304.47C903.58,-297.83 965.53,-285.69 981,-266 993.72,-249.82 989.84,-225.17 984.86,-208.36"/>
<polygon fill="midnightblue" stroke="midnightblue" points="988.09,-206.98 981.59,-198.62 981.45,-209.21 988.09,-206.98"/>
</g>
<!-- Node14&#45;&gt;Node9 -->
<g id="edge30" class="edge">
<title>Node14&#45;&gt;Node9</title>
<path fill="none" stroke="midnightblue" d="M903.06,-235.48C907.55,-221.27 912.98,-198.64 910,-179 908.63,-170 905.81,-160.33 903.05,-152.26"/>
<polygon fill="midnightblue" stroke="midnightblue" points="906.31,-150.98 899.6,-142.78 899.73,-153.37 906.31,-150.98"/>
</g>
<!-- Node14&#45;&gt;Node11 -->
<g id="edge27" class="edge">
<title>Node14&#45;&gt;Node11</title>
<path fill="none" stroke="midnightblue" d="M884.73,-235.4C876.42,-226.58 865.7,-215.18 857.08,-206.02"/>
<polygon fill="midnightblue" stroke="midnightblue" points="859.55,-203.54 850.15,-198.66 854.45,-208.34 859.55,-203.54"/>
</g>
<!-- Node15 -->
<g id="node15" class="node">
<title>Node15</title>
<g id="a_node15"><a xlink:href="ExpHelp_8h.html" target="_top" xlink:title=" ">
<polygon fill="white" stroke="black" points="498,-179.5 498,-198.5 660,-198.5 660,-179.5 498,-179.5"/>
<text text-anchor="middle" x="579" y="-186.5" font-family="Helvetica,sans-Serif" font-size="10.00">boomerang/ssl/exp/ExpHelp.h</text>
</a>
</g>
</g>
<!-- Node14&#45;&gt;Node15 -->
<g id="edge15" class="edge">
<title>Node14&#45;&gt;Node15</title>
<path fill="none" stroke="midnightblue" d="M824.41,-235.77C766.63,-225 687.39,-210.22 634.77,-200.4"/>
<polygon fill="midnightblue" stroke="midnightblue" points="635.08,-196.9 624.61,-198.51 633.8,-203.78 635.08,-196.9"/>
</g>
<!-- Node14&#45;&gt;Node16 -->
<g id="edge18" class="edge">
<title>Node14&#45;&gt;Node16</title>
<path fill="none" stroke="midnightblue" d="M824.26,-240.53C734.12,-229.56 582.14,-211.07 489.17,-199.76"/>
<polygon fill="midnightblue" stroke="midnightblue" points="489.32,-196.25 478.97,-198.51 488.48,-203.2 489.32,-196.25"/>
</g>
<!-- Node14&#45;&gt;Node21 -->
<g id="edge28" class="edge">
<title>Node14&#45;&gt;Node21</title>
<path fill="none" stroke="midnightblue" d="M916.96,-235.4C929.42,-226.13 945.7,-214.03 958.31,-204.65"/>
<polygon fill="midnightblue" stroke="midnightblue" points="960.42,-207.43 966.36,-198.66 956.25,-201.82 960.42,-207.43"/>
</g>
<!-- Node22 -->
<g id="node22" class="node">
<title>Node22</title>
<g id="a_node22"><a xlink:title=" ">
<polygon fill="white" stroke="#bfbfbf" points="1172,-179.5 1172,-198.5 1210,-198.5 1210,-179.5 1172,-179.5"/>
<text text-anchor="middle" x="1191" y="-186.5" font-family="Helvetica,sans-Serif" font-size="10.00">map</text>
</a>
</g>
</g>
<!-- Node14&#45;&gt;Node22 -->
<g id="edge29" class="edge">
<title>Node14&#45;&gt;Node22</title>
<path fill="none" stroke="midnightblue" d="M971.64,-237.96C1022.72,-229.38 1092.41,-216.53 1161.99,-199.01"/>
<polygon fill="midnightblue" stroke="midnightblue" points="1162.99,-202.37 1171.81,-196.51 1161.26,-195.59 1162.99,-202.37"/>
</g>
<!-- Node15&#45;&gt;Node6 -->
<g id="edge16" class="edge">
<title>Node15&#45;&gt;Node6</title>
<path fill="none" stroke="midnightblue" d="M522.35,-179.48C479.45,-171.87 425.37,-159.39 410,-143 398.53,-130.77 395.24,-111.95 394.71,-96.83"/>
<polygon fill="midnightblue" stroke="midnightblue" points="398.21,-96.63 394.73,-86.63 391.21,-96.62 398.21,-96.63"/>
</g>
<!-- Node15&#45;&gt;Node9 -->
<g id="edge17" class="edge">
<title>Node15&#45;&gt;Node9</title>
<path fill="none" stroke="midnightblue" d="M629.23,-179.44C692.34,-168.69 799.32,-150.47 856.76,-140.68"/>
<polygon fill="midnightblue" stroke="midnightblue" points="857.62,-144.09 866.89,-138.96 856.44,-137.19 857.62,-144.09"/>
</g>
<!-- Node16&#45;&gt;Node6 -->
<g id="edge19" class="edge">
<title>Node16&#45;&gt;Node6</title>
<path fill="none" stroke="midnightblue" d="M398.56,-179.24C389.58,-170.97 377.25,-157.66 372,-143 366.33,-127.18 372.61,-109.24 380.16,-95.42"/>
<polygon fill="midnightblue" stroke="midnightblue" points="383.32,-96.97 385.46,-86.59 377.32,-93.36 383.32,-96.97"/>
</g>
<!-- Node16&#45;&gt;Node8 -->
<g id="edge26" class="edge">
<title>Node16&#45;&gt;Node8</title>
<path fill="none" stroke="midnightblue" d="M461.13,-179.44C528.13,-168.45 642.78,-149.63 701.3,-140.02"/>
<polygon fill="midnightblue" stroke="midnightblue" points="701.91,-143.47 711.21,-138.4 700.77,-136.56 701.91,-143.47"/>
</g>
<!-- Node17 -->
<g id="node17" class="node">
<title>Node17</title>
<g id="a_node17"><a xlink:href="OStream_8h.html" target="_top" xlink:title=" ">
<polygon fill="white" stroke="black" points="452,-123.5 452,-142.5 598,-142.5 598,-123.5 452,-123.5"/>
<text text-anchor="middle" x="525" y="-130.5" font-family="Helvetica,sans-Serif" font-size="10.00">boomerang/util/OStream.h</text>
</a>
</g>
</g>
<!-- Node16&#45;&gt;Node17 -->
<g id="edge20" class="edge">
<title>Node16&#45;&gt;Node17</title>
<path fill="none" stroke="midnightblue" d="M427.38,-179.44C446.22,-170.68 475.73,-156.94 497.38,-146.86"/>
<polygon fill="midnightblue" stroke="midnightblue" points="499.12,-149.91 506.71,-142.52 496.16,-143.56 499.12,-149.91"/>
</g>
<!-- Node18 -->
<g id="node18" class="node">
<title>Node18</title>
<g id="a_node18"><a xlink:href="Types_8h.html" target="_top" xlink:title=" ">
<polygon fill="white" stroke="black" points="598.5,-62 598.5,-81 729.5,-81 729.5,-62 598.5,-62"/>
<text text-anchor="middle" x="664" y="-69" font-family="Helvetica,sans-Serif" font-size="10.00">boomerang/util/Types.h</text>
</a>
</g>
</g>
<!-- Node16&#45;&gt;Node18 -->
<g id="edge25" class="edge">
<title>Node16&#45;&gt;Node18</title>
<path fill="none" stroke="midnightblue" d="M468.97,-179.49C533.04,-169.9 627.17,-154.2 640,-143 654.74,-130.14 660.44,-107.86 662.64,-91.78"/>
<polygon fill="midnightblue" stroke="midnightblue" points="666.16,-91.7 663.7,-81.4 659.2,-90.99 666.16,-91.7"/>
</g>
<!-- Node17&#45;&gt;Node6 -->
<g id="edge21" class="edge">
<title>Node17&#45;&gt;Node6</title>
<path fill="none" stroke="midnightblue" d="M506.52,-123.48C488.07,-114.96 459.13,-101.62 435.5,-90.72"/>
<polygon fill="midnightblue" stroke="midnightblue" points="436.95,-87.53 426.4,-86.52 434.02,-93.89 436.95,-87.53"/>
</g>
<!-- Node17&#45;&gt;Node18 -->
<g id="edge22" class="edge">
<title>Node17&#45;&gt;Node18</title>
<path fill="none" stroke="midnightblue" d="M544.92,-123.48C568.45,-113.4 607.81,-96.55 634.79,-85"/>
<polygon fill="midnightblue" stroke="midnightblue" points="636.31,-88.16 644.12,-81.01 633.55,-81.73 636.31,-88.16"/>
</g>
<!-- Node20 -->
<g id="node20" class="node">
<title>Node20</title>
<g id="a_node20"><a xlink:title=" ">
<polygon fill="white" stroke="#bfbfbf" points="502,-62 502,-81 548,-81 548,-62 502,-62"/>
<text text-anchor="middle" x="525" y="-69" font-family="Helvetica,sans-Serif" font-size="10.00">cstdio</text>
</a>
</g>
</g>
<!-- Node17&#45;&gt;Node20 -->
<g id="edge24" class="edge">
<title>Node17&#45;&gt;Node20</title>
<path fill="none" stroke="midnightblue" d="M525,-123.48C525,-115.08 525,-101.98 525,-91.16"/>
<polygon fill="midnightblue" stroke="midnightblue" points="528.5,-91.01 525,-81.01 521.5,-91.01 528.5,-91.01"/>
</g>
<!-- Node19 -->
<g id="node19" class="node">
<title>Node19</title>
<g id="a_node19"><a xlink:title=" ">
<polygon fill="white" stroke="#bfbfbf" points="639,-0.5 639,-19.5 689,-19.5 689,-0.5 639,-0.5"/>
<text text-anchor="middle" x="664" y="-7.5" font-family="Helvetica,sans-Serif" font-size="10.00">cstdint</text>
</a>
</g>
</g>
<!-- Node18&#45;&gt;Node19 -->
<g id="edge23" class="edge">
<title>Node18&#45;&gt;Node19</title>
<path fill="none" stroke="midnightblue" d="M664,-61.98C664,-53.58 664,-40.48 664,-29.66"/>
<polygon fill="midnightblue" stroke="midnightblue" points="667.5,-29.51 664,-19.51 660.5,-29.51 667.5,-29.51"/>
</g>
<!-- Node23&#45;&gt;Node6 -->
<g id="edge35" class="edge">
<title>Node23&#45;&gt;Node6</title>
<path fill="none" stroke="midnightblue" d="M196.69,-248.35C124.55,-244.68 19.09,-230.65 57,-179 87,-138.14 218.18,-105.85 308.28,-87.97"/>
<polygon fill="midnightblue" stroke="midnightblue" points="309.09,-91.37 318.23,-86.02 307.74,-84.5 309.09,-91.37"/>
</g>
<!-- Node23&#45;&gt;Node12 -->
<g id="edge48" class="edge">
<title>Node23&#45;&gt;Node12</title>
<path fill="none" stroke="midnightblue" d="M258,-235.4C258,-227.47 258,-217.46 258,-208.86"/>
<polygon fill="midnightblue" stroke="midnightblue" points="261.5,-208.66 258,-198.66 254.5,-208.66 261.5,-208.66"/>
</g>
<!-- Node23&#45;&gt;Node15 -->
<g id="edge43" class="edge">
<title>Node23&#45;&gt;Node15</title>
<path fill="none" stroke="midnightblue" d="M319.13,-238.17C377.82,-227.29 465.73,-211 522.73,-200.43"/>
<polygon fill="midnightblue" stroke="midnightblue" points="523.46,-203.85 532.65,-198.59 522.18,-196.97 523.46,-203.85"/>
</g>
<!-- Node23&#45;&gt;Node16 -->
<g id="edge44" class="edge">
<title>Node23&#45;&gt;Node16</title>
<path fill="none" stroke="midnightblue" d="M293.78,-235.4C319.23,-225.37 353.1,-212.03 377.52,-202.4"/>
<polygon fill="midnightblue" stroke="midnightblue" points="379.01,-205.58 387.03,-198.66 376.44,-199.07 379.01,-205.58"/>
</g>
<!-- Node23&#45;&gt;Node18 -->
<g id="edge45" class="edge">
<title>Node23&#45;&gt;Node18</title>
<path fill="none" stroke="midnightblue" d="M243.09,-235.33C228.68,-219.95 211.07,-195.4 226,-179 283.24,-116.1 532.07,-183.21 607,-143 629.03,-131.18 645.66,-106.89 655.12,-90.15"/>
<polygon fill="midnightblue" stroke="midnightblue" points="658.21,-91.79 659.84,-81.32 652.04,-88.49 658.21,-91.79"/>
</g>
<!-- Node23&#45;&gt;Node24 -->
<g id="edge36" class="edge">
<title>Node23&#45;&gt;Node24</title>
<path fill="none" stroke="midnightblue" d="M319.4,-246.26C445.28,-239.42 741.96,-222.27 1002.32,-199.02"/>
<polygon fill="midnightblue" stroke="midnightblue" points="1002.7,-202.5 1012.35,-198.12 1002.07,-195.53 1002.7,-202.5"/>
</g>
<!-- Node26 -->
<g id="node26" class="node">
<title>Node26</title>
<g id="a_node26"><a xlink:title=" ">
<polygon fill="white" stroke="#bfbfbf" points="66,-179.5 66,-198.5 108,-198.5 108,-179.5 66,-179.5"/>
<text text-anchor="middle" x="87" y="-186.5" font-family="Helvetica,sans-Serif" font-size="10.00">array</text>
</a>
</g>
</g>
<!-- Node23&#45;&gt;Node26 -->
<g id="edge46" class="edge">
<title>Node23&#45;&gt;Node26</title>
<path fill="none" stroke="midnightblue" d="M217.48,-235.4C186.86,-224.75 145.5,-210.36 117.62,-200.66"/>
<polygon fill="midnightblue" stroke="midnightblue" points="118.6,-197.29 108.01,-197.31 116.3,-203.9 118.6,-197.29"/>
</g>
<!-- Node27 -->
<g id="node27" class="node">
<title>Node27</title>
<g id="a_node27"><a xlink:title=" ">
<polygon fill="white" stroke="#bfbfbf" points="126.5,-179.5 126.5,-198.5 177.5,-198.5 177.5,-179.5 126.5,-179.5"/>
<text text-anchor="middle" x="152" y="-186.5" font-family="Helvetica,sans-Serif" font-size="10.00">variant</text>
</a>
</g>
</g>
<!-- Node23&#45;&gt;Node27 -->
<g id="edge47" class="edge">
<title>Node23&#45;&gt;Node27</title>
<path fill="none" stroke="midnightblue" d="M232.88,-235.4C215.73,-225.77 193.14,-213.09 176.19,-203.58"/>
<polygon fill="midnightblue" stroke="midnightblue" points="177.86,-200.5 167.42,-198.66 174.43,-206.6 177.86,-200.5"/>
</g>
<!-- Node24&#45;&gt;Node6 -->
<g id="edge37" class="edge">
<title>Node24&#45;&gt;Node6</title>
<path fill="none" stroke="midnightblue" d="M1076.63,-179.3C1065.31,-164.63 1040.14,-135.38 1011,-123 904.8,-77.87 607.71,-99.54 493,-87 489.97,-86.67 486.88,-86.31 483.77,-85.94"/>
<polygon fill="midnightblue" stroke="midnightblue" points="484.12,-82.45 473.76,-84.68 483.24,-89.4 484.12,-82.45"/>
</g>
<!-- Node24&#45;&gt;Node8 -->
<g id="edge39" class="edge">
<title>Node24&#45;&gt;Node8</title>
<path fill="none" stroke="midnightblue" d="M1028.33,-179.44C957.39,-168.34 835.5,-149.26 774.71,-139.75"/>
<polygon fill="midnightblue" stroke="midnightblue" points="775.22,-136.28 764.8,-138.19 774.14,-143.2 775.22,-136.28"/>
</g>
<!-- Node24&#45;&gt;Node9 -->
<g id="edge40" class="edge">
<title>Node24&#45;&gt;Node9</title>
<path fill="none" stroke="midnightblue" d="M1053.37,-179.44C1021.41,-170.21 970.37,-155.48 935.13,-145.3"/>
<polygon fill="midnightblue" stroke="midnightblue" points="935.76,-141.84 925.18,-142.43 933.82,-148.56 935.76,-141.84"/>
</g>
<!-- Node24&#45;&gt;Node10 -->
<g id="edge42" class="edge">
<title>Node24&#45;&gt;Node10</title>
<path fill="none" stroke="midnightblue" d="M1090.93,-179.08C1097.85,-171.3 1108.07,-159.8 1116.45,-150.37"/>
<polygon fill="midnightblue" stroke="midnightblue" points="1119.19,-152.55 1123.22,-142.75 1113.96,-147.9 1119.19,-152.55"/>
</g>
<!-- Node24&#45;&gt;Node18 -->
<g id="edge38" class="edge">
<title>Node24&#45;&gt;Node18</title>
<path fill="none" stroke="midnightblue" d="M1080.44,-179.09C1075.78,-164.66 1064.46,-136.44 1044,-123 995.43,-91.09 836.29,-79.22 740.04,-74.89"/>
<polygon fill="midnightblue" stroke="midnightblue" points="739.92,-71.38 729.77,-74.45 739.61,-78.38 739.92,-71.38"/>
</g>
<!-- Node25 -->
<g id="node25" class="node">
<title>Node25</title>
<g id="a_node25"><a xlink:title=" ">
<polygon fill="white" stroke="#bfbfbf" points="958,-123.5 958,-142.5 1002,-142.5 1002,-123.5 958,-123.5"/>
<text text-anchor="middle" x="980" y="-130.5" font-family="Helvetica,sans-Serif" font-size="10.00">string</text>
</a>
</g>
</g>
<!-- Node24&#45;&gt;Node25 -->
<g id="edge41" class="edge">
<title>Node24&#45;&gt;Node25</title>
<path fill="none" stroke="midnightblue" d="M1066.45,-179.32C1050.01,-170.7 1024.57,-157.36 1005.53,-147.39"/>
<polygon fill="midnightblue" stroke="midnightblue" points="1006.99,-144.2 996.51,-142.65 1003.74,-150.4 1006.99,-144.2"/>
</g>
<!-- Node28&#45;&gt;Node12 -->
<g id="edge67" class="edge">
<title>Node28&#45;&gt;Node12</title>
<path fill="none" stroke="midnightblue" d="M1020.94,-429.33C885.2,-420.91 616.15,-402.78 575,-389 566.76,-386.24 350.99,-249.17 280.23,-204.15"/>
<polygon fill="midnightblue" stroke="midnightblue" points="281.93,-201.08 271.61,-198.67 278.17,-206.99 281.93,-201.08"/>
</g>
<!-- Node28&#45;&gt;Node22 -->
<g id="edge65" class="edge">
<title>Node28&#45;&gt;Node22</title>
<path fill="none" stroke="midnightblue" d="M1149.33,-425.46C1171.53,-419.1 1195.93,-408.08 1211,-389 1253.49,-335.2 1218.54,-246.02 1200.33,-208.03"/>
<polygon fill="midnightblue" stroke="midnightblue" points="1203.3,-206.14 1195.72,-198.75 1197.03,-209.26 1203.3,-206.14"/>
</g>
<!-- Node28&#45;&gt;Node24 -->
<g id="edge56" class="edge">
<title>Node28&#45;&gt;Node24</title>
<path fill="none" stroke="midnightblue" d="M1130.58,-425.49C1149.91,-418.68 1173.62,-407.21 1188,-389 1212.37,-358.15 1219.74,-338.03 1204,-302 1184.35,-257.03 1136.75,-222.06 1107.45,-203.87"/>
<polygon fill="midnightblue" stroke="midnightblue" points="1109.01,-200.72 1098.64,-198.56 1105.4,-206.72 1109.01,-200.72"/>
</g>
<!-- Node29 -->
<g id="node29" class="node">
<title>Node29</title>
<g id="a_node29"><a xlink:href="RegDB_8h.html" target="_top" xlink:title=" ">
<polygon fill="white" stroke="black" points="886,-364 886,-383 1020,-383 1020,-364 886,-364"/>
<text text-anchor="middle" x="953" y="-371" font-family="Helvetica,sans-Serif" font-size="10.00">boomerang/ssl/RegDB.h</text>
</a>
</g>
</g>
<!-- Node28&#45;&gt;Node29 -->
<g id="edge51" class="edge">
<title>Node28&#45;&gt;Node29</title>
<path fill="none" stroke="midnightblue" d="M1078.08,-425.48C1053.25,-415.36 1011.66,-398.4 983.31,-386.85"/>
<polygon fill="midnightblue" stroke="midnightblue" points="984.46,-383.54 973.88,-383.01 981.82,-390.02 984.46,-383.54"/>
</g>
<!-- Node30 -->
<g id="node30" class="node">
<title>Node30</title>
<g id="a_node30"><a xlink:title=" ">
<polygon fill="white" stroke="#bfbfbf" points="1163,-302.5 1163,-321.5 1195,-321.5 1195,-302.5 1163,-302.5"/>
<text text-anchor="middle" x="1179" y="-309.5" font-family="Helvetica,sans-Serif" font-size="10.00">set</text>
</a>
</g>
</g>
<!-- Node28&#45;&gt;Node30 -->
<g id="edge66" class="edge">
<title>Node28&#45;&gt;Node30</title>
<path fill="none" stroke="midnightblue" d="M1121.74,-425.48C1137.68,-418.28 1158.01,-406.33 1169,-389 1179.78,-372 1181.31,-348.55 1180.76,-332.21"/>
<polygon fill="midnightblue" stroke="midnightblue" points="1184.22,-331.52 1180.09,-321.77 1177.24,-331.97 1184.22,-331.52"/>
</g>
<!-- Node31 -->
<g id="node31" class="node">
<title>Node31</title>
<g id="a_node31"><a xlink:href="TableEntry_8h.html" target="_top" xlink:title=" ">
<polygon fill="white" stroke="black" points="718,-364 718,-383 868,-383 868,-364 718,-364"/>
<text text-anchor="middle" x="793" y="-371" font-family="Helvetica,sans-Serif" font-size="10.00">boomerang/ssl/TableEntry.h</text>
</a>
</g>
</g>
<!-- Node28&#45;&gt;Node31 -->
<g id="edge57" class="edge">
<title>Node28&#45;&gt;Node31</title>
<path fill="none" stroke="midnightblue" d="M1055.16,-425.48C1000.17,-414.78 905.93,-396.46 846.68,-384.94"/>
<polygon fill="midnightblue" stroke="midnightblue" points="847.25,-381.48 836.76,-383.01 845.91,-388.35 847.25,-381.48"/>
</g>
<!-- Node32 -->
<g id="node32" class="node">
<title>Node32</title>
<g id="a_node32"><a xlink:title=" ">
<polygon fill="white" stroke="#bfbfbf" points="1038,-358.5 1038,-388.5 1160,-388.5 1160,-358.5 1038,-358.5"/>
<text text-anchor="start" x="1046" y="-376.5" font-family="Helvetica,sans-Serif" font-size="10.00">boomerang/ssl/parser</text>
<text text-anchor="middle" x="1099" y="-365.5" font-family="Helvetica,sans-Serif" font-size="10.00">/SSL2Parser.hpp</text>
</a>
</g>
</g>
<!-- Node28&#45;&gt;Node32 -->
<g id="edge59" class="edge">
<title>Node28&#45;&gt;Node32</title>
<path fill="none" stroke="midnightblue" d="M1099,-425.48C1099,-418.47 1099,-408.19 1099,-398.7"/>
<polygon fill="midnightblue" stroke="midnightblue" points="1102.5,-398.52 1099,-388.52 1095.5,-398.52 1102.5,-398.52"/>
</g>
<!-- Node33 -->
<g id="node33" class="node">
<title>Node33</title>
<g id="a_node33"><a xlink:href="ByteUtil_8h.html" target="_top" xlink:title=" ">
<polygon fill="white" stroke="black" points="1228.5,-179.5 1228.5,-198.5 1371.5,-198.5 1371.5,-179.5 1228.5,-179.5"/>
<text text-anchor="middle" x="1300" y="-186.5" font-family="Helvetica,sans-Serif" font-size="10.00">boomerang/util/ByteUtil.h</text>
</a>
</g>
</g>
<!-- Node28&#45;&gt;Node33 -->
<g id="edge60" class="edge">
<title>Node28&#45;&gt;Node33</title>
<path fill="none" stroke="midnightblue" d="M1160.23,-425.43C1185.29,-419.1 1212.84,-408.1 1232,-389 1282.85,-338.31 1295.7,-248.06 1298.93,-208.95"/>
<polygon fill="midnightblue" stroke="midnightblue" points="1302.45,-208.77 1299.65,-198.55 1295.47,-208.29 1302.45,-208.77"/>
</g>
<!-- Node29&#45;&gt;Node13 -->
<g id="edge52" class="edge">
<title>Node29&#45;&gt;Node13</title>
<path fill="none" stroke="midnightblue" d="M930.51,-363.98C903.69,-353.81 858.68,-336.76 828.19,-325.2"/>
<polygon fill="midnightblue" stroke="midnightblue" points="829.04,-321.78 818.45,-321.51 826.56,-328.33 829.04,-321.78"/>
</g>
<!-- Node29&#45;&gt;Node22 -->
<g id="edge54" class="edge">
<title>Node29&#45;&gt;Node22</title>
<path fill="none" stroke="midnightblue" d="M964.16,-363.94C1001.79,-335.08 1124.34,-241.11 1171.9,-204.65"/>
<polygon fill="midnightblue" stroke="midnightblue" points="1174.06,-207.4 1179.86,-198.54 1169.8,-201.85 1174.06,-207.4"/>
</g>
<!-- Node29&#45;&gt;Node24 -->
<g id="edge53" class="edge">
<title>Node29&#45;&gt;Node24</title>
<path fill="none" stroke="midnightblue" d="M959.27,-363.7C979.56,-335.21 1043.69,-245.18 1070.76,-207.18"/>
<polygon fill="midnightblue" stroke="midnightblue" points="1073.84,-208.89 1076.79,-198.71 1068.14,-204.83 1073.84,-208.89"/>
</g>
<!-- Node29&#45;&gt;Node30 -->
<g id="edge55" class="edge">
<title>Node29&#45;&gt;Node30</title>
<path fill="none" stroke="midnightblue" d="M985.38,-363.98C1030.52,-352.09 1111.46,-330.78 1152.94,-319.86"/>
<polygon fill="midnightblue" stroke="midnightblue" points="1154.04,-323.19 1162.82,-317.26 1152.26,-316.42 1154.04,-323.19"/>
</g>
<!-- Node31&#45;&gt;Node13 -->
<g id="edge58" class="edge">
<title>Node31&#45;&gt;Node13</title>
<path fill="none" stroke="midnightblue" d="M793.43,-363.98C793.85,-355.58 794.51,-342.48 795.06,-331.66"/>
<polygon fill="midnightblue" stroke="midnightblue" points="798.56,-331.67 795.57,-321.51 791.57,-331.32 798.56,-331.67"/>
</g>
<!-- Node33&#45;&gt;Node6 -->
<g id="edge61" class="edge">
<title>Node33&#45;&gt;Node6</title>
<path fill="none" stroke="midnightblue" d="M1287.96,-179.47C1266.48,-164.79 1219.6,-135.16 1175,-123 1028.58,-83.09 644,-102.24 493,-87 489.96,-86.69 486.88,-86.36 483.76,-86"/>
<polygon fill="midnightblue" stroke="midnightblue" points="484.09,-82.52 473.74,-84.79 483.25,-89.47 484.09,-82.52"/>
</g>
<!-- Node33&#45;&gt;Node10 -->
<g id="edge64" class="edge">
<title>Node33&#45;&gt;Node10</title>
<path fill="none" stroke="midnightblue" d="M1273.22,-179.44C1244.67,-170.32 1199.27,-155.81 1167.46,-145.65"/>
<polygon fill="midnightblue" stroke="midnightblue" points="1168.24,-142.23 1157.65,-142.52 1166.11,-148.89 1168.24,-142.23"/>
</g>
<!-- Node33&#45;&gt;Node18 -->
<g id="edge62" class="edge">
<title>Node33&#45;&gt;Node18</title>
<path fill="none" stroke="midnightblue" d="M1315.12,-179.43C1335.86,-166.64 1368.67,-142.02 1351,-123 1310.09,-78.97 909.83,-72.95 739.79,-72.4"/>
<polygon fill="midnightblue" stroke="midnightblue" points="739.68,-68.89 729.67,-72.37 739.66,-75.89 739.68,-68.89"/>
</g>
<!-- Node34 -->
<g id="node34" class="node">
<title>Node34</title>
<g id="a_node34"><a xlink:title=" ">
<polygon fill="white" stroke="#bfbfbf" points="1258.5,-123.5 1258.5,-142.5 1341.5,-142.5 1341.5,-123.5 1258.5,-123.5"/>
<text text-anchor="middle" x="1300" y="-130.5" font-family="Helvetica,sans-Serif" font-size="10.00">initializer_list</text>
</a>
</g>
</g>
<!-- Node33&#45;&gt;Node34 -->
<g id="edge63" class="edge">
<title>Node33&#45;&gt;Node34</title>
<path fill="none" stroke="midnightblue" d="M1300,-179.08C1300,-172.01 1300,-161.86 1300,-152.99"/>
<polygon fill="midnightblue" stroke="midnightblue" points="1303.5,-152.75 1300,-142.75 1296.5,-152.75 1303.5,-152.75"/>
</g>
<!-- Node36&#45;&gt;Node6 -->
<g id="edge71" class="edge">
<title>Node36&#45;&gt;Node6</title>
<path fill="none" stroke="midnightblue" d="M196.8,-489.28C114.5,-483.7 0,-460.48 0,-374.5 0,-374.5 0,-374.5 0,-188 0,-124.24 191.58,-93.3 308.23,-80.37"/>
<polygon fill="midnightblue" stroke="midnightblue" points="308.67,-83.84 318.24,-79.28 307.92,-76.88 308.67,-83.84"/>
</g>
</g>
</svg>
        <g id="navigator" transform="translate(0 0)" fill="#404254">
                <rect fill="#f2f5e9" fill-opacity="0.5" stroke="#606060" stroke-width=".5" x="0" y="0" width="60" height="60"/>
                <use id="zoomplus" xlink:href="#zoomPlus" x="17" y="9" onmousedown="handleZoom(evt,'in')"/>
                <use id="zoomminus" xlink:href="#zoomMin" x="42" y="9" onmousedown="handleZoom(evt,'out')"/>
                <use id="reset" xlink:href="#resetDef" x="30" y="36" onmousedown="handleReset()"/>
                <g id="arrowUp" xlink:href="#dirArrow" transform="translate(30 24)" onmousedown="handlePan(0,-1)">
                  <use xlink:href="#rim" fill="#404040">
                        <set attributeName="fill" to="#808080" begin="arrowUp.mouseover" end="arrowUp.mouseout"/>
                  </use>
                  <path fill="none" stroke="white" stroke-width="1.5" d="M0,-3.0v7 M-2.5,-0.5L0,-3.0L2.5,-0.5"/>
                </g>
                <g id="arrowRight" xlink:href="#dirArrow" transform="rotate(90) translate(36 -43)" onmousedown="handlePan(1,0)">
                  <use xlink:href="#rim" fill="#404040">
                        <set attributeName="fill" to="#808080" begin="arrowRight.mouseover" end="arrowRight.mouseout"/>
                  </use>
                  <path fill="none" stroke="white" stroke-width="1.5" d="M0,-3.0v7 M-2.5,-0.5L0,-3.0L2.5,-0.5"/>
                </g>
                <g id="arrowDown" xlink:href="#dirArrow" transform="rotate(180) translate(-30 -48)" onmousedown="handlePan(0,1)">
                  <use xlink:href="#rim" fill="#404040">
                        <set attributeName="fill" to="#808080" begin="arrowDown.mouseover" end="arrowDown.mouseout"/>
                  </use>
                  <path fill="none" stroke="white" stroke-width="1.5" d="M0,-3.0v7 M-2.5,-0.5L0,-3.0L2.5,-0.5"/>
                </g>
                <g id="arrowLeft" xlink:href="#dirArrow" transform="rotate(270) translate(-36 17)" onmousedown="handlePan(-1,0)">
                  <use xlink:href="#rim" fill="#404040">
                        <set attributeName="fill" to="#808080" begin="arrowLeft.mouseover" end="arrowLeft.mouseout"/>
                  </use>
                  <path fill="none" stroke="white" stroke-width="1.5" d="M0,-3.0v7 M-2.5,-0.5L0,-3.0L2.5,-0.5"/>
                </g>
        </g>
        <svg viewBox="0 0 15 15" width="100%" height="30px" preserveAspectRatio="xMaxYMin meet">
         <g id="arrow_out" transform="scale(0.3 0.3)">
          <a xlink:href="CapstoneX86Decoder_8h__incl_org.svg" target="_base">
           <rect id="button" ry="5" rx="5" y="6" x="6" height="38" width="38"
                fill="#f2f5e9" fill-opacity="0.5" stroke="#606060" stroke-width="1.0"/>
           <path id="arrow"
             d="M 11.500037,31.436501 C 11.940474,20.09759 22.043105,11.32322 32.158766,21.979434 L 37.068811,17.246167 C 37.068811,17.246167 37.088388,32 37.088388,32 L 22.160133,31.978069 C 22.160133,31.978069 26.997745,27.140456 26.997745,27.140456 C 18.528582,18.264221 13.291696,25.230495 11.500037,31.436501 z"
             style="fill:#404040;"/>
          </a>
         </g>
        </svg>
</svg>
