<?xml version="1.0" encoding="UTF-8" standalone="no"?>
<!DOCTYPE svg PUBLIC "-//W3C//DTD SVG 1.1//EN"
 "http://www.w3.org/Graphics/SVG/1.1/DTD/svg11.dtd">
<!-- Generated by graphviz version 2.43.0 (0)
 -->
<!-- Title: CCodeGenerator.h Pages: 1 -->
<svg width="1058pt" height="341pt"
 viewBox="0.00 0.00 1058.43 341.00" xmlns="http://www.w3.org/2000/svg" xmlns:xlink="http://www.w3.org/1999/xlink">
<g id="graph0" class="graph" transform="scale(1 1) rotate(0) translate(4 337)">
<title>CCodeGenerator.h</title>
<polygon fill="white" stroke="transparent" points="-4,4 -4,-337 1054.43,-337 1054.43,4 -4,4"/>
<!-- Node1 -->
<g id="node1" class="node">
<title>Node1</title>
<g id="a_node1"><a xlink:title=" ">
<polygon fill="#bfbfbf" stroke="black" points="525.93,-313.5 525.93,-332.5 631.93,-332.5 631.93,-313.5 525.93,-313.5"/>
<text text-anchor="middle" x="578.93" y="-320.5" font-family="Helvetica,sans-Serif" font-size="10.00">CCodeGenerator.h</text>
</a>
</g>
</g>
<!-- Node2 -->
<g id="node2" class="node">
<title>Node2</title>
<g id="a_node2"><a xlink:href="CodeWriter_8h.html" target="_top" xlink:title=" ">
<polygon fill="white" stroke="black" points="648.93,-252 648.93,-271 728.93,-271 728.93,-252 648.93,-252"/>
<text text-anchor="middle" x="688.93" y="-259" font-family="Helvetica,sans-Serif" font-size="10.00">CodeWriter.h</text>
</a>
</g>
</g>
<!-- Node1&#45;&gt;Node2 -->
<g id="edge1" class="edge">
<title>Node1&#45;&gt;Node2</title>
<path fill="none" stroke="midnightblue" d="M594.69,-313.48C612.9,-303.62 643.1,-287.29 664.4,-275.77"/>
<polygon fill="midnightblue" stroke="midnightblue" points="666.07,-278.85 673.2,-271.01 662.74,-272.69 666.07,-278.85"/>
</g>
<!-- Node4 -->
<g id="node4" class="node">
<title>Node4</title>
<g id="a_node4"><a xlink:href="BoomerangAPI_8h.html" target="_top" xlink:title=" ">
<polygon fill="white" stroke="black" points="175.43,-56.5 175.43,-86.5 330.43,-86.5 330.43,-56.5 175.43,-56.5"/>
<text text-anchor="start" x="183.43" y="-74.5" font-family="Helvetica,sans-Serif" font-size="10.00">boomerang/core/Boomerang</text>
<text text-anchor="middle" x="252.93" y="-63.5" font-family="Helvetica,sans-Serif" font-size="10.00">API.h</text>
</a>
</g>
</g>
<!-- Node1&#45;&gt;Node4 -->
<g id="edge14" class="edge">
<title>Node1&#45;&gt;Node4</title>
<path fill="none" stroke="midnightblue" d="M525.56,-322.29C410.61,-322.13 143.63,-317.28 63.93,-277 28.52,-259.1 18.94,-247.12 4.93,-210 -23.19,-135.54 83.13,-100.28 165.29,-84.42"/>
<polygon fill="midnightblue" stroke="midnightblue" points="165.99,-87.85 175.18,-82.58 164.7,-80.97 165.99,-87.85"/>
</g>
<!-- Node9 -->
<g id="node9" class="node">
<title>Node9</title>
<g id="a_node9"><a xlink:title=" ">
<polygon fill="white" stroke="#bfbfbf" points="765.93,-185 765.93,-204 835.93,-204 835.93,-185 765.93,-185"/>
<text text-anchor="middle" x="800.93" y="-192" font-family="Helvetica,sans-Serif" font-size="10.00">QStringList</text>
</a>
</g>
</g>
<!-- Node1&#45;&gt;Node9 -->
<g id="edge37" class="edge">
<title>Node1&#45;&gt;Node9</title>
<path fill="none" stroke="midnightblue" d="M632.25,-315.55C664.95,-309.59 706.43,-298.28 737.93,-277 762.3,-260.53 781.35,-231.59 791.87,-213"/>
<polygon fill="midnightblue" stroke="midnightblue" points="795,-214.57 796.69,-204.11 788.85,-211.23 795,-214.57"/>
</g>
<!-- Node10 -->
<g id="node10" class="node">
<title>Node10</title>
<g id="a_node10"><a xlink:title=" ">
<polygon fill="white" stroke="#bfbfbf" points="611.93,-185 611.93,-204 649.93,-204 649.93,-185 611.93,-185"/>
<text text-anchor="middle" x="630.93" y="-192" font-family="Helvetica,sans-Serif" font-size="10.00">map</text>
</a>
</g>
</g>
<!-- Node1&#45;&gt;Node10 -->
<g id="edge39" class="edge">
<title>Node1&#45;&gt;Node10</title>
<path fill="none" stroke="midnightblue" d="M582.5,-313.31C590.93,-292.81 612.16,-241.15 623.51,-213.54"/>
<polygon fill="midnightblue" stroke="midnightblue" points="626.76,-214.84 627.33,-204.26 620.29,-212.17 626.76,-214.84"/>
</g>
<!-- Node11 -->
<g id="node11" class="node">
<title>Node11</title>
<g id="a_node11"><a xlink:href="ControlFlowAnalyzer_8h.html" target="_top" xlink:title=" ">
<polygon fill="white" stroke="black" points="800.43,-252 800.43,-271 927.43,-271 927.43,-252 800.43,-252"/>
<text text-anchor="middle" x="863.93" y="-259" font-family="Helvetica,sans-Serif" font-size="10.00">ControlFlowAnalyzer.h</text>
</a>
</g>
</g>
<!-- Node1&#45;&gt;Node11 -->
<g id="edge10" class="edge">
<title>Node1&#45;&gt;Node11</title>
<path fill="none" stroke="midnightblue" d="M619.76,-313.48C670.77,-302.83 758.03,-284.61 813.25,-273.08"/>
<polygon fill="midnightblue" stroke="midnightblue" points="814.1,-276.48 823.17,-271.01 812.67,-269.63 814.1,-276.48"/>
</g>
<!-- Node14 -->
<g id="node14" class="node">
<title>Node14</title>
<g id="a_node14"><a xlink:href="ICodeGenerator_8h.html" target="_top" xlink:title=" ">
<polygon fill="white" stroke="black" points="72.93,-252 72.93,-271 248.93,-271 248.93,-252 72.93,-252"/>
<text text-anchor="middle" x="160.93" y="-259" font-family="Helvetica,sans-Serif" font-size="10.00">boomerang/ifc/ICodeGenerator.h</text>
</a>
</g>
</g>
<!-- Node1&#45;&gt;Node14 -->
<g id="edge15" class="edge">
<title>Node1&#45;&gt;Node14</title>
<path fill="none" stroke="midnightblue" d="M525.56,-314.4C450.56,-303.73 313.86,-284.27 230.82,-272.45"/>
<polygon fill="midnightblue" stroke="midnightblue" points="231.11,-268.96 220.72,-271.01 230.13,-275.89 231.11,-268.96"/>
</g>
<!-- Node17 -->
<g id="node17" class="node">
<title>Node17</title>
<g id="a_node17"><a xlink:href="Statement_8h.html" target="_top" xlink:title=" ">
<polygon fill="white" stroke="black" points="365.43,-246.5 365.43,-276.5 512.43,-276.5 512.43,-246.5 365.43,-246.5"/>
<text text-anchor="start" x="373.43" y="-264.5" font-family="Helvetica,sans-Serif" font-size="10.00">boomerang/ssl/statements</text>
<text text-anchor="middle" x="438.93" y="-253.5" font-family="Helvetica,sans-Serif" font-size="10.00">/Statement.h</text>
</a>
</g>
</g>
<!-- Node1&#45;&gt;Node17 -->
<g id="edge19" class="edge">
<title>Node1&#45;&gt;Node17</title>
<path fill="none" stroke="midnightblue" d="M558.87,-313.48C538.76,-304.93 507.17,-291.5 481.45,-280.57"/>
<polygon fill="midnightblue" stroke="midnightblue" points="482.5,-277.21 471.92,-276.52 479.76,-283.66 482.5,-277.21"/>
</g>
<!-- Node18 -->
<g id="node18" class="node">
<title>Node18</title>
<g id="a_node18"><a xlink:href="Address_8h.html" target="_top" xlink:title=" ">
<polygon fill="white" stroke="black" points="401.93,-185 401.93,-204 543.93,-204 543.93,-185 401.93,-185"/>
<text text-anchor="middle" x="472.93" y="-192" font-family="Helvetica,sans-Serif" font-size="10.00">boomerang/util/Address.h</text>
</a>
</g>
</g>
<!-- Node1&#45;&gt;Node18 -->
<g id="edge36" class="edge">
<title>Node1&#45;&gt;Node18</title>
<path fill="none" stroke="midnightblue" d="M572.94,-313.29C562.91,-298.88 541.85,-269.33 521.93,-246 511.54,-233.83 498.95,-220.9 489.14,-211.16"/>
<polygon fill="midnightblue" stroke="midnightblue" points="491.54,-208.62 481.95,-204.12 486.64,-213.62 491.54,-208.62"/>
</g>
<!-- Node21 -->
<g id="node21" class="node">
<title>Node21</title>
<g id="a_node21"><a xlink:title=" ">
<polygon fill="white" stroke="#bfbfbf" points="561.93,-185 561.93,-204 593.93,-204 593.93,-185 561.93,-185"/>
<text text-anchor="middle" x="577.93" y="-192" font-family="Helvetica,sans-Serif" font-size="10.00">list</text>
</a>
</g>
</g>
<!-- Node1&#45;&gt;Node21 -->
<g id="edge38" class="edge">
<title>Node1&#45;&gt;Node21</title>
<path fill="none" stroke="midnightblue" d="M578.86,-313.31C578.7,-292.99 578.3,-242.05 578.08,-214.28"/>
<polygon fill="midnightblue" stroke="midnightblue" points="581.58,-214.23 578,-204.26 574.58,-214.28 581.58,-214.23"/>
</g>
<!-- Node22 -->
<g id="node22" class="node">
<title>Node22</title>
<g id="a_node22"><a xlink:href="Type_8h.html" target="_top" xlink:title=" ">
<polygon fill="white" stroke="black" points="232.43,-179.5 232.43,-209.5 345.43,-209.5 345.43,-179.5 232.43,-179.5"/>
<text text-anchor="start" x="240.43" y="-197.5" font-family="Helvetica,sans-Serif" font-size="10.00">boomerang/ssl/type</text>
<text text-anchor="middle" x="288.93" y="-186.5" font-family="Helvetica,sans-Serif" font-size="10.00">/Type.h</text>
</a>
</g>
</g>
<!-- Node1&#45;&gt;Node22 -->
<g id="edge30" class="edge">
<title>Node1&#45;&gt;Node22</title>
<path fill="none" stroke="midnightblue" d="M525.59,-321C478.26,-317.94 408.77,-307.92 356.93,-277 332.99,-262.72 313.6,-236.87 301.74,-218.1"/>
<polygon fill="midnightblue" stroke="midnightblue" points="304.72,-216.26 296.54,-209.54 298.74,-219.9 304.72,-216.26"/>
</g>
<!-- Node23 -->
<g id="node23" class="node">
<title>Node23</title>
<g id="a_node23"><a xlink:title=" ">
<polygon fill="white" stroke="#bfbfbf" points="945.93,-252 945.93,-271 1031.93,-271 1031.93,-252 945.93,-252"/>
<text text-anchor="middle" x="988.93" y="-259" font-family="Helvetica,sans-Serif" font-size="10.00">unordered_set</text>
</a>
</g>
</g>
<!-- Node1&#45;&gt;Node23 -->
<g id="edge40" class="edge">
<title>Node1&#45;&gt;Node23</title>
<path fill="none" stroke="midnightblue" d="M632.09,-317.78C702.36,-311.63 829.76,-298.55 936.93,-277 941.67,-276.05 946.62,-274.89 951.5,-273.64"/>
<polygon fill="midnightblue" stroke="midnightblue" points="952.56,-276.98 961.31,-271.01 950.75,-270.22 952.56,-276.98"/>
</g>
<!-- Node3 -->
<g id="node3" class="node">
<title>Node3</title>
<g id="a_node3"><a xlink:href="OStream_8h.html" target="_top" xlink:title=" ">
<polygon fill="white" stroke="black" points="536.93,-123.5 536.93,-142.5 682.93,-142.5 682.93,-123.5 536.93,-123.5"/>
<text text-anchor="middle" x="609.93" y="-130.5" font-family="Helvetica,sans-Serif" font-size="10.00">boomerang/util/OStream.h</text>
</a>
</g>
</g>
<!-- Node2&#45;&gt;Node3 -->
<g id="edge2" class="edge">
<title>Node2&#45;&gt;Node3</title>
<path fill="none" stroke="midnightblue" d="M697.06,-251.79C710.62,-236.17 734.86,-202.81 718.93,-179 708.02,-162.7 690.01,-152.3 671.75,-145.66"/>
<polygon fill="midnightblue" stroke="midnightblue" points="672.8,-142.32 662.21,-142.52 670.61,-148.97 672.8,-142.32"/>
</g>
<!-- Node8 -->
<g id="node8" class="node">
<title>Node8</title>
<g id="a_node8"><a xlink:title=" ">
<polygon fill="white" stroke="#bfbfbf" points="668.43,-185 668.43,-204 709.43,-204 709.43,-185 668.43,-185"/>
<text text-anchor="middle" x="688.93" y="-192" font-family="Helvetica,sans-Serif" font-size="10.00">QFile</text>
</a>
</g>
</g>
<!-- Node2&#45;&gt;Node8 -->
<g id="edge7" class="edge">
<title>Node2&#45;&gt;Node8</title>
<path fill="none" stroke="midnightblue" d="M688.93,-251.73C688.93,-242.18 688.93,-226.62 688.93,-214.28"/>
<polygon fill="midnightblue" stroke="midnightblue" points="692.43,-214.13 688.93,-204.13 685.43,-214.13 692.43,-214.13"/>
</g>
<!-- Node2&#45;&gt;Node9 -->
<g id="edge8" class="edge">
<title>Node2&#45;&gt;Node9</title>
<path fill="none" stroke="midnightblue" d="M704.03,-251.73C722.84,-240.82 755.18,-222.05 777.29,-209.22"/>
<polygon fill="midnightblue" stroke="midnightblue" points="779.17,-212.17 786.06,-204.13 775.66,-206.12 779.17,-212.17"/>
</g>
<!-- Node2&#45;&gt;Node10 -->
<g id="edge9" class="edge">
<title>Node2&#45;&gt;Node10</title>
<path fill="none" stroke="midnightblue" d="M681.11,-251.73C671.97,-241.5 656.68,-224.36 645.38,-211.69"/>
<polygon fill="midnightblue" stroke="midnightblue" points="647.9,-209.26 638.63,-204.13 642.67,-213.92 647.9,-209.26"/>
</g>
<!-- Node3&#45;&gt;Node4 -->
<g id="edge3" class="edge">
<title>Node3&#45;&gt;Node4</title>
<path fill="none" stroke="midnightblue" d="M558.78,-123.48C501.9,-114 409.04,-98.52 340.53,-87.1"/>
<polygon fill="midnightblue" stroke="midnightblue" points="341.05,-83.64 330.61,-85.45 339.9,-90.54 341.05,-83.64"/>
</g>
<!-- Node5 -->
<g id="node5" class="node">
<title>Node5</title>
<g id="a_node5"><a xlink:href="Types_8h.html" target="_top" xlink:title=" ">
<polygon fill="white" stroke="black" points="443.43,-62 443.43,-81 574.43,-81 574.43,-62 443.43,-62"/>
<text text-anchor="middle" x="508.93" y="-69" font-family="Helvetica,sans-Serif" font-size="10.00">boomerang/util/Types.h</text>
</a>
</g>
</g>
<!-- Node3&#45;&gt;Node5 -->
<g id="edge4" class="edge">
<title>Node3&#45;&gt;Node5</title>
<path fill="none" stroke="midnightblue" d="M595.46,-123.48C578.96,-113.75 551.75,-97.73 532.25,-86.24"/>
<polygon fill="midnightblue" stroke="midnightblue" points="533.76,-83.07 523.37,-81.01 530.21,-89.1 533.76,-83.07"/>
</g>
<!-- Node7 -->
<g id="node7" class="node">
<title>Node7</title>
<g id="a_node7"><a xlink:title=" ">
<polygon fill="white" stroke="#bfbfbf" points="592.93,-62 592.93,-81 638.93,-81 638.93,-62 592.93,-62"/>
<text text-anchor="middle" x="615.93" y="-69" font-family="Helvetica,sans-Serif" font-size="10.00">cstdio</text>
</a>
</g>
</g>
<!-- Node3&#45;&gt;Node7 -->
<g id="edge6" class="edge">
<title>Node3&#45;&gt;Node7</title>
<path fill="none" stroke="midnightblue" d="M610.79,-123.48C611.63,-115.08 612.96,-101.98 614.05,-91.16"/>
<polygon fill="midnightblue" stroke="midnightblue" points="617.55,-91.31 615.07,-81.01 610.58,-90.61 617.55,-91.31"/>
</g>
<!-- Node6 -->
<g id="node6" class="node">
<title>Node6</title>
<g id="a_node6"><a xlink:title=" ">
<polygon fill="white" stroke="#bfbfbf" points="661.93,-0.5 661.93,-19.5 711.93,-19.5 711.93,-0.5 661.93,-0.5"/>
<text text-anchor="middle" x="686.93" y="-7.5" font-family="Helvetica,sans-Serif" font-size="10.00">cstdint</text>
</a>
</g>
</g>
<!-- Node5&#45;&gt;Node6 -->
<g id="edge5" class="edge">
<title>Node5&#45;&gt;Node6</title>
<path fill="none" stroke="midnightblue" d="M534.43,-61.98C565.32,-51.65 617.49,-34.21 652.07,-22.65"/>
<polygon fill="midnightblue" stroke="midnightblue" points="653.39,-25.9 661.76,-19.41 651.17,-19.26 653.39,-25.9"/>
</g>
<!-- Node11&#45;&gt;Node6 -->
<g id="edge11" class="edge">
<title>Node11&#45;&gt;Node6</title>
<path fill="none" stroke="midnightblue" d="M863.39,-251.89C862.12,-236.44 857.97,-203.33 844.93,-179 809.34,-112.59 740.7,-53.03 706.83,-26.14"/>
<polygon fill="midnightblue" stroke="midnightblue" points="708.66,-23.13 698.63,-19.73 704.35,-28.65 708.66,-23.13"/>
</g>
<!-- Node12 -->
<g id="node12" class="node">
<title>Node12</title>
<g id="a_node12"><a xlink:title=" ">
<polygon fill="white" stroke="#bfbfbf" points="892.43,-185 892.43,-204 985.43,-204 985.43,-185 892.43,-185"/>
<text text-anchor="middle" x="938.93" y="-192" font-family="Helvetica,sans-Serif" font-size="10.00">unordered_map</text>
</a>
</g>
</g>
<!-- Node11&#45;&gt;Node12 -->
<g id="edge12" class="edge">
<title>Node11&#45;&gt;Node12</title>
<path fill="none" stroke="midnightblue" d="M874.04,-251.73C886.08,-241.31 906.38,-223.71 921.07,-210.97"/>
<polygon fill="midnightblue" stroke="midnightblue" points="923.71,-213.32 928.97,-204.13 919.12,-208.03 923.71,-213.32"/>
</g>
<!-- Node13 -->
<g id="node13" class="node">
<title>Node13</title>
<g id="a_node13"><a xlink:title=" ">
<polygon fill="white" stroke="#bfbfbf" points="1003.43,-185 1003.43,-204 1050.43,-204 1050.43,-185 1003.43,-185"/>
<text text-anchor="middle" x="1026.93" y="-192" font-family="Helvetica,sans-Serif" font-size="10.00">vector</text>
</a>
</g>
</g>
<!-- Node11&#45;&gt;Node13 -->
<g id="edge13" class="edge">
<title>Node11&#45;&gt;Node13</title>
<path fill="none" stroke="midnightblue" d="M887.28,-251.96C913.61,-242.23 957.61,-225.63 994.93,-210 996.3,-209.43 997.7,-208.83 999.11,-208.22"/>
<polygon fill="midnightblue" stroke="midnightblue" points="1000.66,-211.36 1008.39,-204.12 997.83,-204.96 1000.66,-211.36"/>
</g>
<!-- Node15 -->
<g id="node15" class="node">
<title>Node15</title>
<g id="a_node15"><a xlink:href="ExpHelp_8h.html" target="_top" xlink:title=" ">
<polygon fill="white" stroke="black" points="13.93,-185 13.93,-204 175.93,-204 175.93,-185 13.93,-185"/>
<text text-anchor="middle" x="94.93" y="-192" font-family="Helvetica,sans-Serif" font-size="10.00">boomerang/ssl/exp/ExpHelp.h</text>
</a>
</g>
</g>
<!-- Node14&#45;&gt;Node15 -->
<g id="edge16" class="edge">
<title>Node14&#45;&gt;Node15</title>
<path fill="none" stroke="midnightblue" d="M152.03,-251.73C141.54,-241.4 123.9,-224.04 111,-211.33"/>
<polygon fill="midnightblue" stroke="midnightblue" points="113.27,-208.65 103.69,-204.13 108.36,-213.64 113.27,-208.65"/>
</g>
<!-- Node15&#45;&gt;Node4 -->
<g id="edge17" class="edge">
<title>Node15&#45;&gt;Node4</title>
<path fill="none" stroke="midnightblue" d="M101.09,-184.8C111.53,-170.52 133.9,-141.84 157.93,-123 173.8,-110.55 193.19,-99.62 210.3,-91.14"/>
<polygon fill="midnightblue" stroke="midnightblue" points="212.05,-94.18 219.54,-86.68 209.01,-87.88 212.05,-94.18"/>
</g>
<!-- Node16 -->
<g id="node16" class="node">
<title>Node16</title>
<g id="a_node16"><a xlink:title=" ">
<polygon fill="white" stroke="#bfbfbf" points="166.93,-123.5 166.93,-142.5 224.93,-142.5 224.93,-123.5 166.93,-123.5"/>
<text text-anchor="middle" x="195.93" y="-130.5" font-family="Helvetica,sans-Serif" font-size="10.00">memory</text>
</a>
</g>
</g>
<!-- Node15&#45;&gt;Node16 -->
<g id="edge18" class="edge">
<title>Node15&#45;&gt;Node16</title>
<path fill="none" stroke="midnightblue" d="M109.4,-184.98C125.9,-175.25 153.11,-159.23 172.61,-147.74"/>
<polygon fill="midnightblue" stroke="midnightblue" points="174.64,-150.6 181.48,-142.51 171.09,-144.57 174.64,-150.6"/>
</g>
<!-- Node17&#45;&gt;Node10 -->
<g id="edge28" class="edge">
<title>Node17&#45;&gt;Node10</title>
<path fill="none" stroke="midnightblue" d="M492.96,-246.5C525.35,-237.46 567.08,-224.66 602.93,-210 603.97,-209.58 605.02,-209.13 606.07,-208.66"/>
<polygon fill="midnightblue" stroke="midnightblue" points="607.97,-211.63 615.46,-204.13 604.94,-205.32 607.97,-211.63"/>
</g>
<!-- Node17&#45;&gt;Node15 -->
<g id="edge20" class="edge">
<title>Node17&#45;&gt;Node15</title>
<path fill="none" stroke="midnightblue" d="M365.13,-246.56C300.69,-234.38 208.6,-216.98 150.3,-205.96"/>
<polygon fill="midnightblue" stroke="midnightblue" points="150.65,-202.47 140.18,-204.05 149.36,-209.35 150.65,-202.47"/>
</g>
<!-- Node17&#45;&gt;Node16 -->
<g id="edge29" class="edge">
<title>Node17&#45;&gt;Node16</title>
<path fill="none" stroke="midnightblue" d="M365.17,-250.92C311.19,-242.53 243.89,-228.74 222.93,-210 206.49,-195.3 200.06,-169.92 197.54,-152.57"/>
<polygon fill="midnightblue" stroke="midnightblue" points="201.01,-152.05 196.39,-142.52 194.05,-152.85 201.01,-152.05"/>
</g>
<!-- Node17&#45;&gt;Node18 -->
<g id="edge21" class="edge">
<title>Node17&#45;&gt;Node18</title>
<path fill="none" stroke="midnightblue" d="M446.31,-246.4C451.4,-236.66 458.21,-223.65 463.66,-213.21"/>
<polygon fill="midnightblue" stroke="midnightblue" points="466.85,-214.68 468.38,-204.19 460.64,-211.43 466.85,-214.68"/>
</g>
<!-- Node20 -->
<g id="node20" class="node">
<title>Node20</title>
<g id="a_node20"><a xlink:title=" ">
<polygon fill="white" stroke="#bfbfbf" points="318.93,-123.5 318.93,-142.5 370.93,-142.5 370.93,-123.5 318.93,-123.5"/>
<text text-anchor="middle" x="344.93" y="-130.5" font-family="Helvetica,sans-Serif" font-size="10.00">cassert</text>
</a>
</g>
</g>
<!-- Node17&#45;&gt;Node20 -->
<g id="edge26" class="edge">
<title>Node17&#45;&gt;Node20</title>
<path fill="none" stroke="midnightblue" d="M424.52,-246.07C415.07,-236.28 402.7,-222.83 392.93,-210 378.36,-190.88 363.95,-167.25 354.77,-151.47"/>
<polygon fill="midnightblue" stroke="midnightblue" points="357.79,-149.7 349.79,-142.76 351.72,-153.18 357.79,-149.7"/>
</g>
<!-- Node17&#45;&gt;Node21 -->
<g id="edge27" class="edge">
<title>Node17&#45;&gt;Node21</title>
<path fill="none" stroke="midnightblue" d="M473.3,-246.43C496.16,-236.78 526.7,-223.37 552.93,-210 553.6,-209.66 554.28,-209.31 554.96,-208.95"/>
<polygon fill="midnightblue" stroke="midnightblue" points="556.75,-211.96 563.8,-204.05 553.35,-205.84 556.75,-211.96"/>
</g>
<!-- Node18&#45;&gt;Node3 -->
<g id="edge23" class="edge">
<title>Node18&#45;&gt;Node3</title>
<path fill="none" stroke="midnightblue" d="M492.56,-184.98C515.75,-174.9 554.55,-158.05 581.14,-146.5"/>
<polygon fill="midnightblue" stroke="midnightblue" points="582.56,-149.7 590.34,-142.51 579.77,-143.28 582.56,-149.7"/>
</g>
<!-- Node18&#45;&gt;Node4 -->
<g id="edge22" class="edge">
<title>Node18&#45;&gt;Node4</title>
<path fill="none" stroke="midnightblue" d="M472.94,-184.74C472.46,-169.85 469.25,-139.63 451.93,-123 435.52,-107.25 386,-94.65 340.48,-85.98"/>
<polygon fill="midnightblue" stroke="midnightblue" points="341,-82.52 330.53,-84.13 339.73,-89.4 341,-82.52"/>
</g>
<!-- Node18&#45;&gt;Node5 -->
<g id="edge24" class="edge">
<title>Node18&#45;&gt;Node5</title>
<path fill="none" stroke="midnightblue" d="M475.52,-184.8C481.33,-165.26 495.52,-117.56 503.41,-91.05"/>
<polygon fill="midnightblue" stroke="midnightblue" points="506.87,-91.71 506.36,-81.12 500.16,-89.71 506.87,-91.71"/>
</g>
<!-- Node19 -->
<g id="node19" class="node">
<title>Node19</title>
<g id="a_node19"><a xlink:title=" ">
<polygon fill="white" stroke="#bfbfbf" points="389.43,-123.5 389.43,-142.5 442.43,-142.5 442.43,-123.5 389.43,-123.5"/>
<text text-anchor="middle" x="415.93" y="-130.5" font-family="Helvetica,sans-Serif" font-size="10.00">QString</text>
</a>
</g>
</g>
<!-- Node18&#45;&gt;Node19 -->
<g id="edge25" class="edge">
<title>Node18&#45;&gt;Node19</title>
<path fill="none" stroke="midnightblue" d="M464.76,-184.98C456.04,-175.87 442.02,-161.24 431.24,-149.98"/>
<polygon fill="midnightblue" stroke="midnightblue" points="433.52,-147.31 424.08,-142.51 428.47,-152.15 433.52,-147.31"/>
</g>
<!-- Node22&#45;&gt;Node4 -->
<g id="edge31" class="edge">
<title>Node22&#45;&gt;Node4</title>
<path fill="none" stroke="midnightblue" d="M284.66,-179.14C278.59,-158.77 267.42,-121.2 260.08,-96.53"/>
<polygon fill="midnightblue" stroke="midnightblue" points="263.4,-95.42 257.19,-86.84 256.69,-97.42 263.4,-95.42"/>
</g>
<!-- Node22&#45;&gt;Node5 -->
<g id="edge32" class="edge">
<title>Node22&#45;&gt;Node5</title>
<path fill="none" stroke="midnightblue" d="M289.2,-179.22C290.29,-163.27 294.54,-137.77 309.93,-123 328.51,-105.16 389.55,-91.37 439.18,-82.74"/>
<polygon fill="midnightblue" stroke="midnightblue" points="439.98,-86.15 449.25,-81.03 438.81,-79.25 439.98,-86.15"/>
</g>
<!-- Node22&#45;&gt;Node16 -->
<g id="edge35" class="edge">
<title>Node22&#45;&gt;Node16</title>
<path fill="none" stroke="midnightblue" d="M266.89,-179.4C252.12,-169.95 232.75,-157.56 217.98,-148.11"/>
<polygon fill="midnightblue" stroke="midnightblue" points="219.77,-145.1 209.46,-142.66 216,-151 219.77,-145.1"/>
</g>
<!-- Node22&#45;&gt;Node19 -->
<g id="edge33" class="edge">
<title>Node22&#45;&gt;Node19</title>
<path fill="none" stroke="midnightblue" d="M319.03,-179.4C340.05,-169.55 367.9,-156.5 388.35,-146.92"/>
<polygon fill="midnightblue" stroke="midnightblue" points="389.88,-150.07 397.45,-142.66 386.91,-143.73 389.88,-150.07"/>
</g>
<!-- Node22&#45;&gt;Node20 -->
<g id="edge34" class="edge">
<title>Node22&#45;&gt;Node20</title>
<path fill="none" stroke="midnightblue" d="M302.2,-179.4C310.5,-170.58 321.23,-159.18 329.85,-150.02"/>
<polygon fill="midnightblue" stroke="midnightblue" points="332.47,-152.34 336.78,-142.66 327.38,-147.54 332.47,-152.34"/>
</g>
</g>
</svg>
