<?xml version="1.0" encoding="UTF-8" standalone="no"?>
<!DOCTYPE svg PUBLIC "-//W3C//DTD SVG 1.1//EN"
 "http://www.w3.org/Graphics/SVG/1.1/DTD/svg11.dtd">
<!-- Generated by graphviz version 2.43.0 (0)
 -->
<!-- Title: StatementInitPass::execute Pages: 1 -->
<svg width="722pt" height="184pt"
 viewBox="0.00 0.00 722.00 183.50" xmlns="http://www.w3.org/2000/svg" xmlns:xlink="http://www.w3.org/1999/xlink">
<g id="graph0" class="graph" transform="scale(1 1) rotate(0) translate(4 179.5)">
<title>StatementInitPass::execute</title>
<polygon fill="white" stroke="transparent" points="-4,4 -4,-179.5 718,-179.5 718,4 -4,4"/>
<!-- Node1 -->
<g id="node1" class="node">
<title>Node1</title>
<g id="a_node1"><a xlink:title="Run this pass, updating proc.">
<polygon fill="#bfbfbf" stroke="black" points="0,-49.5 0,-79.5 112,-79.5 112,-49.5 0,-49.5"/>
<text text-anchor="start" x="8" y="-67.5" font-family="Helvetica,sans-Serif" font-size="10.00">StatementInitPass::</text>
<text text-anchor="middle" x="56" y="-56.5" font-family="Helvetica,sans-Serif" font-size="10.00">execute</text>
</a>
</g>
</g>
<!-- Node2 -->
<g id="node2" class="node">
<title>Node2</title>
<g id="a_node2"><a xlink:href="classCFGCompressor.html#acd7f26f6d921ce5532d6453ece7ac0e1" target="_top" xlink:title="Given a well&#45;formed ProcCFG, optimizations are performed on the graph to reduce the number of basic b...">
<polygon fill="white" stroke="black" points="148,-55 148,-74 317,-74 317,-55 148,-55"/>
<text text-anchor="middle" x="232.5" y="-62" font-family="Helvetica,sans-Serif" font-size="10.00">CFGCompressor::compressCFG</text>
</a>
</g>
</g>
<!-- Node1&#45;&gt;Node2 -->
<g id="edge1" class="edge">
<title>Node1&#45;&gt;Node2</title>
<path fill="none" stroke="midnightblue" d="M112.21,-64.5C120.39,-64.5 129.01,-64.5 137.72,-64.5"/>
<polygon fill="midnightblue" stroke="midnightblue" points="137.96,-68 147.96,-64.5 137.96,-61 137.96,-68"/>
</g>
<!-- Node3 -->
<g id="node3" class="node">
<title>Node3</title>
<g id="a_node3"><a xlink:href="classCFGCompressor.html#af131a551ed771f14b7c57ecc389cd298" target="_top" xlink:title=" ">
<polygon fill="white" stroke="black" points="353,-99 353,-118 562,-118 562,-99 353,-99"/>
<text text-anchor="middle" x="457.5" y="-106" font-family="Helvetica,sans-Serif" font-size="10.00">CFGCompressor::compressFallthroughs</text>
</a>
</g>
</g>
<!-- Node2&#45;&gt;Node3 -->
<g id="edge2" class="edge">
<title>Node2&#45;&gt;Node3</title>
<path fill="none" stroke="midnightblue" d="M280.59,-74.04C302.58,-78.47 329.12,-83.8 353,-88.5 367.09,-91.28 382.26,-94.23 396.53,-96.99"/>
<polygon fill="midnightblue" stroke="midnightblue" points="396.25,-100.5 406.74,-98.96 397.58,-93.63 396.25,-100.5"/>
</g>
<!-- Node8 -->
<g id="node8" class="node">
<title>Node8</title>
<g id="a_node8"><a xlink:href="classCFGCompressor.html#ab47e619e95a666b0c03eba279dcc7490" target="_top" xlink:title="Removes empty jumps and empty BBs.">
<polygon fill="white" stroke="black" points="372.5,-49.5 372.5,-79.5 542.5,-79.5 542.5,-49.5 372.5,-49.5"/>
<text text-anchor="start" x="380.5" y="-67.5" font-family="Helvetica,sans-Serif" font-size="10.00">CFGCompressor::removeEmpty</text>
<text text-anchor="middle" x="457.5" y="-56.5" font-family="Helvetica,sans-Serif" font-size="10.00">Jumps</text>
</a>
</g>
</g>
<!-- Node2&#45;&gt;Node8 -->
<g id="edge7" class="edge">
<title>Node2&#45;&gt;Node8</title>
<path fill="none" stroke="midnightblue" d="M317.17,-64.5C331.83,-64.5 347.18,-64.5 362.11,-64.5"/>
<polygon fill="midnightblue" stroke="midnightblue" points="362.36,-68 372.36,-64.5 362.36,-61 362.36,-68"/>
</g>
<!-- Node9 -->
<g id="node9" class="node">
<title>Node9</title>
<g id="a_node9"><a xlink:href="classCFGCompressor.html#a0dee97e401fe6198f397d6dc4b5848d2" target="_top" xlink:title="Removes fragments that are not reachable from the entry fragment.">
<polygon fill="white" stroke="black" points="370.5,-0.5 370.5,-30.5 544.5,-30.5 544.5,-0.5 370.5,-0.5"/>
<text text-anchor="start" x="378.5" y="-18.5" font-family="Helvetica,sans-Serif" font-size="10.00">CFGCompressor::removeOrphan</text>
<text text-anchor="middle" x="457.5" y="-7.5" font-family="Helvetica,sans-Serif" font-size="10.00">Fragments</text>
</a>
</g>
</g>
<!-- Node2&#45;&gt;Node9 -->
<g id="edge8" class="edge">
<title>Node2&#45;&gt;Node9</title>
<path fill="none" stroke="midnightblue" d="M276.76,-54.99C305.47,-48.69 343.97,-40.23 377.98,-32.75"/>
<polygon fill="midnightblue" stroke="midnightblue" points="378.89,-36.14 387.91,-30.57 377.39,-29.3 378.89,-36.14"/>
</g>
<!-- Node4 -->
<g id="node4" class="node">
<title>Node4</title>
<g id="a_node4"><a xlink:href="classUniqueStack.html#a4eb06ca1ae654f6414076d1cb2ad57c3" target="_top" xlink:title=" ">
<polygon fill="white" stroke="black" points="598,-156 598,-175 714,-175 714,-156 598,-156"/>
<text text-anchor="middle" x="656" y="-163" font-family="Helvetica,sans-Serif" font-size="10.00">UniqueStack::empty</text>
</a>
</g>
</g>
<!-- Node3&#45;&gt;Node4 -->
<g id="edge3" class="edge">
<title>Node3&#45;&gt;Node4</title>
<path fill="none" stroke="midnightblue" d="M491.39,-118.04C524.55,-127.66 575.88,-142.55 612.19,-153.08"/>
<polygon fill="midnightblue" stroke="midnightblue" points="611.42,-156.5 622,-155.93 613.37,-149.78 611.42,-156.5"/>
</g>
<!-- Node5 -->
<g id="node5" class="node">
<title>Node5</title>
<g id="a_node5"><a xlink:href="classUniqueStack.html#a724a227031511a08cc54d99dec8c67f2" target="_top" xlink:title=" ">
<polygon fill="white" stroke="black" points="600.5,-118 600.5,-137 711.5,-137 711.5,-118 600.5,-118"/>
<text text-anchor="middle" x="656" y="-125" font-family="Helvetica,sans-Serif" font-size="10.00">UniqueStack::erase</text>
</a>
</g>
</g>
<!-- Node3&#45;&gt;Node5 -->
<g id="edge4" class="edge">
<title>Node3&#45;&gt;Node5</title>
<path fill="none" stroke="midnightblue" d="M557.04,-118.03C568.36,-119.12 579.67,-120.22 590.38,-121.25"/>
<polygon fill="midnightblue" stroke="midnightblue" points="590.15,-124.75 600.45,-122.22 590.83,-117.78 590.15,-124.75"/>
</g>
<!-- Node6 -->
<g id="node6" class="node">
<title>Node6</title>
<g id="a_node6"><a xlink:href="classUniqueStack.html#aacea7d752d438306ded5196e0d6dbcb9" target="_top" xlink:title=" ">
<polygon fill="white" stroke="black" points="605,-80 605,-99 707,-99 707,-80 605,-80"/>
<text text-anchor="middle" x="656" y="-87" font-family="Helvetica,sans-Serif" font-size="10.00">UniqueStack::pop</text>
</a>
</g>
</g>
<!-- Node3&#45;&gt;Node6 -->
<g id="edge5" class="edge">
<title>Node3&#45;&gt;Node6</title>
<path fill="none" stroke="midnightblue" d="M557.04,-98.97C569.85,-97.73 582.66,-96.49 594.59,-95.34"/>
<polygon fill="midnightblue" stroke="midnightblue" points="595.2,-98.8 604.82,-94.35 594.53,-91.83 595.2,-98.8"/>
</g>
<!-- Node7 -->
<g id="node7" class="node">
<title>Node7</title>
<g id="a_node7"><a xlink:href="classUniqueStack.html#aa1a6756a83051d9daa8d498f57944944" target="_top" xlink:title=" ">
<polygon fill="white" stroke="black" points="602.5,-42 602.5,-61 709.5,-61 709.5,-42 602.5,-42"/>
<text text-anchor="middle" x="656" y="-49" font-family="Helvetica,sans-Serif" font-size="10.00">UniqueStack::push</text>
</a>
</g>
</g>
<!-- Node3&#45;&gt;Node7 -->
<g id="edge6" class="edge">
<title>Node3&#45;&gt;Node7</title>
<path fill="none" stroke="midnightblue" d="M522.43,-98.98C535.69,-96.22 549.44,-92.77 562,-88.5 578.94,-82.75 581.47,-77.35 598,-70.5 603.12,-68.38 608.57,-66.32 613.99,-64.39"/>
<polygon fill="midnightblue" stroke="midnightblue" points="615.33,-67.63 623.64,-61.07 613.05,-61.01 615.33,-67.63"/>
</g>
</g>
</svg>
