<?xml version="1.0" encoding="UTF-8" standalone="no"?>
<!DOCTYPE svg PUBLIC "-//W3C//DTD SVG 1.1//EN"
 "http://www.w3.org/Graphics/SVG/1.1/DTD/svg11.dtd">
<!-- Generated by graphviz version 2.43.0 (0)
 -->
<!-- Title: IPass Pages: 1 -->
<!--zoomable 978 -->
<svg id="main" version="1.1" xmlns="http://www.w3.org/2000/svg" xmlns:xlink="http://www.w3.org/1999/xlink" xml:space="preserve" onload="init(evt)">
<style type="text/css"><![CDATA[
.edge:hover path { stroke: red; }
.edge:hover polygon { stroke: red; fill: red; }
]]></style>
<script type="text/javascript"><![CDATA[
var edges = document.getElementsByTagName('g');
if (edges && edges.length) {
  for (var i=0;i<edges.length;i++) {
    if (edges[i].id.substr(0,4)=='edge') {
      edges[i].setAttribute('class','edge');
    }
  }
}
]]></script>
        <defs>
                <circle id="rim" cx="0" cy="0" r="7"/>
                <circle id="rim2" cx="0" cy="0" r="3.5"/>
                <g id="zoomPlus">
                        <use xlink:href="#rim" fill="#404040">
                                <set attributeName="fill" to="#808080" begin="zoomplus.mouseover" end="zoomplus.mouseout"/>
                        </use>
                        <path d="M-4,0h8M0,-4v8" fill="none" stroke="white" stroke-width="1.5" pointer-events="none"/>
                </g>
                <g id="zoomMin">
                        <use xlink:href="#rim" fill="#404040">
                                <set attributeName="fill" to="#808080" begin="zoomminus.mouseover" end="zoomminus.mouseout"/>
                        </use>
                        <path d="M-4,0h8" fill="none" stroke="white" stroke-width="1.5" pointer-events="none"/>
                </g>
                <g id="dirArrow">
                        <path fill="none" stroke="white" stroke-width="1.5" d="M0,-3.0v7 M-2.5,-0.5L0,-3.0L2.5,-0.5"/>
                </g>
               <g id="resetDef">
                       <use xlink:href="#rim2" fill="#404040">
                               <set attributeName="fill" to="#808080" begin="reset.mouseover" end="reset.mouseout"/>
                       </use>
               </g>
        </defs>

<script type="text/javascript">
var viewWidth = 258;
var viewHeight = 978;
var sectionId = 'dynsection-0';
</script>
<script xlink:href="svgpan.js"/>
<svg id="graph" class="graph">
<g id="viewport">
<title>IPass</title>
<polygon fill="white" stroke="transparent" points="-4,4 -4,-974 254,-974 254,4 -4,4"/>
<!-- Node1 -->
<g id="node1" class="node">
<title>Node1</title>
<g id="a_node1"><a xlink:title="Passes run during the decompilation process and update statements in a UserProc.">
<polygon fill="#bfbfbf" stroke="black" points="0,-475.5 0,-494.5 42,-494.5 42,-475.5 0,-475.5"/>
<text text-anchor="middle" x="21" y="-482.5" font-family="Helvetica,sans-Serif" font-size="10.00">IPass</text>
</a>
</g>
</g>
<!-- Node2 -->
<g id="node2" class="node">
<title>Node2</title>
<g id="a_node2"><a xlink:href="classAssignRemovalPass.html" target="_top" xlink:title="Removes unused or tautological assignments.">
<polygon fill="white" stroke="black" points="106.5,-950.5 106.5,-969.5 221.5,-969.5 221.5,-950.5 106.5,-950.5"/>
<text text-anchor="middle" x="164" y="-957.5" font-family="Helvetica,sans-Serif" font-size="10.00">AssignRemovalPass</text>
</a>
</g>
</g>
<!-- Node1&#45;&gt;Node2 -->
<g id="edge1" class="edge">
<title>Node1&#45;&gt;Node2</title>
<path fill="none" stroke="midnightblue" d="M21.53,-504.96C20.07,-584.24 18.89,-875.81 78,-941 85.41,-949.18 95.51,-954.24 106.16,-957.29"/>
<polygon fill="midnightblue" stroke="midnightblue" points="25.03,-504.92 21.74,-494.85 18.03,-504.78 25.03,-504.92"/>
</g>
<!-- Node3 -->
<g id="node3" class="node">
<title>Node3</title>
<g id="a_node3"><a xlink:href="classBlockVarRenamePass.html" target="_top" xlink:title="Rewrites Statements in BasicBlocks into SSA form.">
<polygon fill="white" stroke="black" points="102.5,-912.5 102.5,-931.5 225.5,-931.5 225.5,-912.5 102.5,-912.5"/>
<text text-anchor="middle" x="164" y="-919.5" font-family="Helvetica,sans-Serif" font-size="10.00">BlockVarRenamePass</text>
</a>
</g>
</g>
<!-- Node1&#45;&gt;Node3 -->
<g id="edge2" class="edge">
<title>Node1&#45;&gt;Node3</title>
<path fill="none" stroke="midnightblue" d="M21.77,-505.18C21.36,-580.51 23.87,-843.96 78,-903 84.54,-910.13 93.12,-914.89 102.32,-918.01"/>
<polygon fill="midnightblue" stroke="midnightblue" points="25.28,-504.79 21.86,-494.76 18.28,-504.74 25.28,-504.79"/>
</g>
<!-- Node4 -->
<g id="node4" class="node">
<title>Node4</title>
<g id="a_node4"><a xlink:href="classBranchAnalysisPass.html" target="_top" xlink:title="Simplifies branch condions.">
<polygon fill="white" stroke="black" points="107,-874.5 107,-893.5 221,-893.5 221,-874.5 107,-874.5"/>
<text text-anchor="middle" x="164" y="-881.5" font-family="Helvetica,sans-Serif" font-size="10.00">BranchAnalysisPass</text>
</a>
</g>
</g>
<!-- Node1&#45;&gt;Node4 -->
<g id="edge3" class="edge">
<title>Node1&#45;&gt;Node4</title>
<path fill="none" stroke="midnightblue" d="M22.07,-504.69C22.74,-574.95 28.67,-811.89 78,-865 85.62,-873.2 95.93,-878.24 106.75,-881.28"/>
<polygon fill="midnightblue" stroke="midnightblue" points="25.57,-504.55 22,-494.57 18.57,-504.59 25.57,-504.55"/>
</g>
<!-- Node5 -->
<g id="node5" class="node">
<title>Node5</title>
<g id="a_node5"><a xlink:href="classCallAndPhiFixPass.html" target="_top" xlink:title="Perform call and phi statement bypassing at all depths.">
<polygon fill="white" stroke="black" points="111.5,-836.5 111.5,-855.5 216.5,-855.5 216.5,-836.5 111.5,-836.5"/>
<text text-anchor="middle" x="164" y="-843.5" font-family="Helvetica,sans-Serif" font-size="10.00">CallAndPhiFixPass</text>
</a>
</g>
</g>
<!-- Node1&#45;&gt;Node5 -->
<g id="edge4" class="edge">
<title>Node1&#45;&gt;Node5</title>
<path fill="none" stroke="midnightblue" d="M22.43,-504.81C24.27,-570.54 33.58,-779.95 78,-827 86.72,-836.24 98.87,-841.46 111.26,-844.3"/>
<polygon fill="midnightblue" stroke="midnightblue" points="25.92,-504.5 22.17,-494.59 18.93,-504.67 25.92,-504.5"/>
</g>
<!-- Node6 -->
<g id="node6" class="node">
<title>Node6</title>
<g id="a_node6"><a xlink:href="classCallArgumentUpdatePass.html" target="_top" xlink:title="Update arguments in calls.">
<polygon fill="white" stroke="black" points="93.5,-798.5 93.5,-817.5 234.5,-817.5 234.5,-798.5 93.5,-798.5"/>
<text text-anchor="middle" x="164" y="-805.5" font-family="Helvetica,sans-Serif" font-size="10.00">CallArgumentUpdatePass</text>
</a>
</g>
</g>
<!-- Node1&#45;&gt;Node6 -->
<g id="edge5" class="edge">
<title>Node1&#45;&gt;Node6</title>
<path fill="none" stroke="midnightblue" d="M22.88,-504.95C25.99,-565.89 38.48,-747.96 78,-789 82.41,-793.57 87.65,-797.16 93.35,-799.96"/>
<polygon fill="midnightblue" stroke="midnightblue" points="26.37,-504.57 22.39,-494.75 19.38,-504.9 26.37,-504.57"/>
</g>
<!-- Node7 -->
<g id="node7" class="node">
<title>Node7</title>
<g id="a_node7"><a xlink:href="classCallDefineUpdatePass.html" target="_top" xlink:title="Set the defines to the set of locations modified by the callee, or if no callee, to all variables liv...">
<polygon fill="white" stroke="black" points="101.5,-760.5 101.5,-779.5 226.5,-779.5 226.5,-760.5 101.5,-760.5"/>
<text text-anchor="middle" x="164" y="-767.5" font-family="Helvetica,sans-Serif" font-size="10.00">CallDefineUpdatePass</text>
</a>
</g>
</g>
<!-- Node1&#45;&gt;Node7 -->
<g id="edge6" class="edge">
<title>Node1&#45;&gt;Node7</title>
<path fill="none" stroke="midnightblue" d="M23.46,-504.96C27.93,-560.64 43.32,-715.89 78,-751 84.48,-757.56 92.7,-762.08 101.46,-765.15"/>
<polygon fill="midnightblue" stroke="midnightblue" points="26.92,-504.37 22.67,-494.67 19.94,-504.91 26.92,-504.37"/>
</g>
<!-- Node8 -->
<g id="node8" class="node">
<title>Node8</title>
<g id="a_node8"><a xlink:href="classCallLivenessRemovalPass.html" target="_top" xlink:title="Remove all liveness info in UseCollectors in calls.">
<polygon fill="white" stroke="black" points="92,-722.5 92,-741.5 236,-741.5 236,-722.5 92,-722.5"/>
<text text-anchor="middle" x="164" y="-729.5" font-family="Helvetica,sans-Serif" font-size="10.00">CallLivenessRemovalPass</text>
</a>
</g>
</g>
<!-- Node1&#45;&gt;Node8 -->
<g id="edge7" class="edge">
<title>Node1&#45;&gt;Node8</title>
<path fill="none" stroke="midnightblue" d="M24.19,-504.7C30.11,-554.53 48.08,-683.7 78,-713 82.11,-717.02 86.86,-720.27 91.99,-722.88"/>
<polygon fill="midnightblue" stroke="midnightblue" points="27.64,-504.12 23.02,-494.59 20.69,-504.92 27.64,-504.12"/>
</g>
<!-- Node9 -->
<g id="node9" class="node">
<title>Node9</title>
<g id="a_node9"><a xlink:href="classDominatorPass.html" target="_top" xlink:title="Calculates dominators for each Basic Block.">
<polygon fill="white" stroke="black" points="118.5,-684.5 118.5,-703.5 209.5,-703.5 209.5,-684.5 118.5,-684.5"/>
<text text-anchor="middle" x="164" y="-691.5" font-family="Helvetica,sans-Serif" font-size="10.00">DominatorPass</text>
</a>
</g>
</g>
<!-- Node1&#45;&gt;Node9 -->
<g id="edge8" class="edge">
<title>Node1&#45;&gt;Node9</title>
<path fill="none" stroke="midnightblue" d="M21.69,-505.05C22.25,-543.87 29.29,-629.44 78,-675 88.82,-685.12 103.81,-690.28 118.2,-692.79"/>
<polygon fill="midnightblue" stroke="midnightblue" points="25.19,-504.6 21.69,-494.6 18.19,-504.61 25.19,-504.6"/>
</g>
<!-- Node10 -->
<g id="node10" class="node">
<title>Node10</title>
<g id="a_node10"><a xlink:href="classDuplicateArgsRemovalPass.html" target="_top" xlink:title="Eliminates duplicate arguments of calls.">
<polygon fill="white" stroke="black" points="88.5,-646.5 88.5,-665.5 239.5,-665.5 239.5,-646.5 88.5,-646.5"/>
<text text-anchor="middle" x="164" y="-653.5" font-family="Helvetica,sans-Serif" font-size="10.00">DuplicateArgsRemovalPass</text>
</a>
</g>
</g>
<!-- Node1&#45;&gt;Node10 -->
<g id="edge9" class="edge">
<title>Node1&#45;&gt;Node10</title>
<path fill="none" stroke="midnightblue" d="M23.39,-504.65C26.79,-537.26 38.43,-602.38 78,-637 82.32,-640.78 87.24,-643.86 92.47,-646.36"/>
<polygon fill="midnightblue" stroke="midnightblue" points="26.87,-504.23 22.5,-494.58 19.89,-504.84 26.87,-504.23"/>
</g>
<!-- Node11 -->
<g id="node11" class="node">
<title>Node11</title>
<g id="a_node11"><a xlink:href="classFinalParameterSearchPass.html" target="_top" xlink:title="Search for expressions without explicit definitions (i.e.">
<polygon fill="white" stroke="black" points="91,-608.5 91,-627.5 237,-627.5 237,-608.5 91,-608.5"/>
<text text-anchor="middle" x="164" y="-615.5" font-family="Helvetica,sans-Serif" font-size="10.00">FinalParameterSearchPass</text>
</a>
</g>
</g>
<!-- Node1&#45;&gt;Node11 -->
<g id="edge10" class="edge">
<title>Node1&#45;&gt;Node11</title>
<path fill="none" stroke="midnightblue" d="M26.16,-504.81C32.63,-530.57 47.67,-575.11 78,-599 82.87,-602.84 88.36,-605.93 94.15,-608.42"/>
<polygon fill="midnightblue" stroke="midnightblue" points="29.49,-503.68 23.82,-494.73 22.67,-505.26 29.49,-503.68"/>
</g>
<!-- Node12 -->
<g id="node12" class="node">
<title>Node12</title>
<g id="a_node12"><a xlink:href="classFragSimplifyPass.html" target="_top" xlink:title="Simplifies IR fragments of a function.">
<polygon fill="white" stroke="black" points="113.5,-570.5 113.5,-589.5 214.5,-589.5 214.5,-570.5 113.5,-570.5"/>
<text text-anchor="middle" x="164" y="-577.5" font-family="Helvetica,sans-Serif" font-size="10.00">FragSimplifyPass</text>
</a>
</g>
</g>
<!-- Node1&#45;&gt;Node12 -->
<g id="edge11" class="edge">
<title>Node1&#45;&gt;Node12</title>
<path fill="none" stroke="midnightblue" d="M30.95,-503.95C40.23,-521.49 56.42,-546.93 78,-561 88.51,-567.86 101.14,-572.26 113.41,-575.09"/>
<polygon fill="midnightblue" stroke="midnightblue" points="33.91,-502.04 26.29,-494.68 27.65,-505.18 33.91,-502.04"/>
</g>
<!-- Node13 -->
<g id="node13" class="node">
<title>Node13</title>
<g id="a_node13"><a xlink:href="classFromSSAFormPass.html" target="_top" xlink:title="Transforms the statements a proc out of SSA form.">
<polygon fill="white" stroke="black" points="110,-532.5 110,-551.5 218,-551.5 218,-532.5 110,-532.5"/>
<text text-anchor="middle" x="164" y="-539.5" font-family="Helvetica,sans-Serif" font-size="10.00">FromSSAFormPass</text>
</a>
</g>
</g>
<!-- Node1&#45;&gt;Node13 -->
<g id="edge12" class="edge">
<title>Node1&#45;&gt;Node13</title>
<path fill="none" stroke="midnightblue" d="M41.18,-500.68C51.54,-508.43 64.86,-517.32 78,-523 87.99,-527.32 99.09,-530.71 109.88,-533.36"/>
<polygon fill="midnightblue" stroke="midnightblue" points="43.3,-497.9 33.26,-494.54 39.01,-503.43 43.3,-497.9"/>
</g>
<!-- Node14 -->
<g id="node14" class="node">
<title>Node14</title>
<g id="a_node14"><a xlink:href="classGlobalConstReplacePass.html" target="_top" xlink:title="Replace simple global constant references.">
<polygon fill="white" stroke="black" points="95.5,-494.5 95.5,-513.5 232.5,-513.5 232.5,-494.5 95.5,-494.5"/>
<text text-anchor="middle" x="164" y="-501.5" font-family="Helvetica,sans-Serif" font-size="10.00">GlobalConstReplacePass</text>
</a>
</g>
</g>
<!-- Node1&#45;&gt;Node14 -->
<g id="edge13" class="edge">
<title>Node1&#45;&gt;Node14</title>
<path fill="none" stroke="midnightblue" d="M52.19,-489.07C64.88,-490.78 80.21,-492.84 95.36,-494.88"/>
<polygon fill="midnightblue" stroke="midnightblue" points="52.58,-485.59 42.2,-487.72 51.64,-492.53 52.58,-485.59"/>
</g>
<!-- Node15 -->
<g id="node15" class="node">
<title>Node15</title>
<g id="a_node15"><a xlink:href="classImplicitPlacementPass.html" target="_top" xlink:title="Before Type Analysis, refs like r28{0} have a nullptr Statement pointer.">
<polygon fill="white" stroke="black" points="100,-456.5 100,-475.5 228,-475.5 228,-456.5 100,-456.5"/>
<text text-anchor="middle" x="164" y="-463.5" font-family="Helvetica,sans-Serif" font-size="10.00">ImplicitPlacementPass</text>
</a>
</g>
</g>
<!-- Node1&#45;&gt;Node15 -->
<g id="edge14" class="edge">
<title>Node1&#45;&gt;Node15</title>
<path fill="none" stroke="midnightblue" d="M52.18,-480.93C66.1,-479.06 83.2,-476.75 99.75,-474.52"/>
<polygon fill="midnightblue" stroke="midnightblue" points="51.64,-477.47 42.2,-482.28 52.58,-484.41 51.64,-477.47"/>
</g>
<!-- Node16 -->
<g id="node16" class="node">
<title>Node16</title>
<g id="a_node16"><a xlink:href="classLocalAndParamMapPass.html" target="_top" xlink:title="Map expressions to locals and initial parameters.">
<polygon fill="white" stroke="black" points="96,-418.5 96,-437.5 232,-437.5 232,-418.5 96,-418.5"/>
<text text-anchor="middle" x="164" y="-425.5" font-family="Helvetica,sans-Serif" font-size="10.00">LocalAndParamMapPass</text>
</a>
</g>
</g>
<!-- Node1&#45;&gt;Node16 -->
<g id="edge15" class="edge">
<title>Node1&#45;&gt;Node16</title>
<path fill="none" stroke="midnightblue" d="M41.18,-469.32C51.54,-461.57 64.86,-452.68 78,-447 86.88,-443.16 96.64,-440.05 106.27,-437.55"/>
<polygon fill="midnightblue" stroke="midnightblue" points="39.01,-466.57 33.26,-475.46 43.3,-472.1 39.01,-466.57"/>
</g>
<!-- Node17 -->
<g id="node17" class="node">
<title>Node17</title>
<g id="a_node17"><a xlink:href="classLocalTypeAnalysisPass.html" target="_top" xlink:title="Executes type analysis on a function.">
<polygon fill="white" stroke="black" points="100,-380.5 100,-399.5 228,-399.5 228,-380.5 100,-380.5"/>
<text text-anchor="middle" x="164" y="-387.5" font-family="Helvetica,sans-Serif" font-size="10.00">LocalTypeAnalysisPass</text>
</a>
</g>
</g>
<!-- Node1&#45;&gt;Node17 -->
<g id="edge16" class="edge">
<title>Node1&#45;&gt;Node17</title>
<path fill="none" stroke="midnightblue" d="M30.95,-466.05C40.23,-448.51 56.42,-423.07 78,-409 84.59,-404.71 92,-401.37 99.64,-398.78"/>
<polygon fill="midnightblue" stroke="midnightblue" points="27.65,-464.82 26.29,-475.32 33.91,-467.96 27.65,-464.82"/>
</g>
<!-- Node18 -->
<g id="node18" class="node">
<title>Node18</title>
<g id="a_node18"><a xlink:href="classParameterSymbolMapPass.html" target="_top" xlink:title=" ">
<polygon fill="white" stroke="black" points="90,-342.5 90,-361.5 238,-361.5 238,-342.5 90,-342.5"/>
<text text-anchor="middle" x="164" y="-349.5" font-family="Helvetica,sans-Serif" font-size="10.00">ParameterSymbolMapPass</text>
</a>
</g>
</g>
<!-- Node1&#45;&gt;Node18 -->
<g id="edge17" class="edge">
<title>Node1&#45;&gt;Node18</title>
<path fill="none" stroke="midnightblue" d="M26.16,-465.19C32.63,-439.43 47.67,-394.89 78,-371 82.87,-367.16 88.36,-364.07 94.15,-361.58"/>
<polygon fill="midnightblue" stroke="midnightblue" points="22.67,-464.74 23.82,-475.27 29.49,-466.32 22.67,-464.74"/>
</g>
<!-- Node19 -->
<g id="node19" class="node">
<title>Node19</title>
<g id="a_node19"><a xlink:href="classPhiPlacementPass.html" target="_top" xlink:title=" ">
<polygon fill="white" stroke="black" points="111,-304.5 111,-323.5 217,-323.5 217,-304.5 111,-304.5"/>
<text text-anchor="middle" x="164" y="-311.5" font-family="Helvetica,sans-Serif" font-size="10.00">PhiPlacementPass</text>
</a>
</g>
</g>
<!-- Node1&#45;&gt;Node19 -->
<g id="edge18" class="edge">
<title>Node1&#45;&gt;Node19</title>
<path fill="none" stroke="midnightblue" d="M23.39,-465.35C26.79,-432.74 38.43,-367.62 78,-333 87.1,-325.03 98.82,-320.19 110.62,-317.3"/>
<polygon fill="midnightblue" stroke="midnightblue" points="19.89,-465.16 22.5,-475.42 26.87,-465.77 19.89,-465.16"/>
</g>
<!-- Node20 -->
<g id="node20" class="node">
<title>Node20</title>
<g id="a_node20"><a xlink:href="classPreservationAnalysisPass.html" target="_top" xlink:title=" ">
<polygon fill="white" stroke="black" points="93,-266.5 93,-285.5 235,-285.5 235,-266.5 93,-266.5"/>
<text text-anchor="middle" x="164" y="-273.5" font-family="Helvetica,sans-Serif" font-size="10.00">PreservationAnalysisPass</text>
</a>
</g>
</g>
<!-- Node1&#45;&gt;Node20 -->
<g id="edge19" class="edge">
<title>Node1&#45;&gt;Node20</title>
<path fill="none" stroke="midnightblue" d="M21.69,-464.95C22.25,-426.13 29.29,-340.56 78,-295 82.31,-290.97 87.27,-287.73 92.6,-285.13"/>
<polygon fill="midnightblue" stroke="midnightblue" points="18.19,-465.39 21.69,-475.4 25.19,-465.4 18.19,-465.39"/>
</g>
<!-- Node21 -->
<g id="node21" class="node">
<title>Node21</title>
<g id="a_node21"><a xlink:href="classSPPreservationPass.html" target="_top" xlink:title="Analyze whether the stack pointer is preserved by a function.">
<polygon fill="white" stroke="black" points="107.5,-228.5 107.5,-247.5 220.5,-247.5 220.5,-228.5 107.5,-228.5"/>
<text text-anchor="middle" x="164" y="-235.5" font-family="Helvetica,sans-Serif" font-size="10.00">SPPreservationPass</text>
</a>
</g>
</g>
<!-- Node1&#45;&gt;Node21 -->
<g id="edge20" class="edge">
<title>Node1&#45;&gt;Node21</title>
<path fill="none" stroke="midnightblue" d="M24.19,-465.3C30.11,-415.47 48.08,-286.3 78,-257 85.99,-249.17 96.47,-244.28 107.32,-241.28"/>
<polygon fill="midnightblue" stroke="midnightblue" points="20.69,-465.08 23.02,-475.41 27.64,-465.88 20.69,-465.08"/>
</g>
<!-- Node22 -->
<g id="node22" class="node">
<title>Node22</title>
<g id="a_node22"><a xlink:href="classStatementInitPass.html" target="_top" xlink:title="Initializes statements before decompilation.">
<polygon fill="white" stroke="black" points="111,-190.5 111,-209.5 217,-209.5 217,-190.5 111,-190.5"/>
<text text-anchor="middle" x="164" y="-197.5" font-family="Helvetica,sans-Serif" font-size="10.00">StatementInitPass</text>
</a>
</g>
</g>
<!-- Node1&#45;&gt;Node22 -->
<g id="edge21" class="edge">
<title>Node1&#45;&gt;Node22</title>
<path fill="none" stroke="midnightblue" d="M23.46,-465.04C27.93,-409.36 43.32,-254.11 78,-219 86.71,-210.18 98.57,-205.06 110.65,-202.17"/>
<polygon fill="midnightblue" stroke="midnightblue" points="19.94,-465.09 22.67,-475.33 26.92,-465.63 19.94,-465.09"/>
</g>
<!-- Node23 -->
<g id="node23" class="node">
<title>Node23</title>
<g id="a_node23"><a xlink:href="classStatementPropagationPass.html" target="_top" xlink:title=" ">
<polygon fill="white" stroke="black" points="89.5,-152.5 89.5,-171.5 238.5,-171.5 238.5,-152.5 89.5,-152.5"/>
<text text-anchor="middle" x="164" y="-159.5" font-family="Helvetica,sans-Serif" font-size="10.00">StatementPropagationPass</text>
</a>
</g>
</g>
<!-- Node1&#45;&gt;Node23 -->
<g id="edge22" class="edge">
<title>Node1&#45;&gt;Node23</title>
<path fill="none" stroke="midnightblue" d="M22.88,-465.05C25.99,-404.11 38.48,-222.04 78,-181 81.67,-177.19 85.93,-174.06 90.54,-171.51"/>
<polygon fill="midnightblue" stroke="midnightblue" points="19.38,-465.1 22.39,-475.25 26.37,-465.43 19.38,-465.1"/>
</g>
<!-- Node24 -->
<g id="node24" class="node">
<title>Node24</title>
<g id="a_node24"><a xlink:href="classStrengthReductionReversalPass.html" target="_top" xlink:title=" ">
<polygon fill="white" stroke="black" points="78,-114.5 78,-133.5 250,-133.5 250,-114.5 78,-114.5"/>
<text text-anchor="middle" x="164" y="-121.5" font-family="Helvetica,sans-Serif" font-size="10.00">StrengthReductionReversalPass</text>
</a>
</g>
</g>
<!-- Node1&#45;&gt;Node24 -->
<g id="edge23" class="edge">
<title>Node1&#45;&gt;Node24</title>
<path fill="none" stroke="midnightblue" d="M22.43,-465.19C24.27,-399.46 33.58,-190.05 78,-143 81.53,-139.26 85.62,-136.18 90.06,-133.65"/>
<polygon fill="midnightblue" stroke="midnightblue" points="18.93,-465.33 22.17,-475.41 25.92,-465.5 18.93,-465.33"/>
</g>
<!-- Node25 -->
<g id="node25" class="node">
<title>Node25</title>
<g id="a_node25"><a xlink:href="classUnusedLocalRemovalPass.html" target="_top" xlink:title="Removes unused local variables.">
<polygon fill="white" stroke="black" points="91.5,-76.5 91.5,-95.5 236.5,-95.5 236.5,-76.5 91.5,-76.5"/>
<text text-anchor="middle" x="164" y="-83.5" font-family="Helvetica,sans-Serif" font-size="10.00">UnusedLocalRemovalPass</text>
</a>
</g>
</g>
<!-- Node1&#45;&gt;Node25 -->
<g id="edge24" class="edge">
<title>Node1&#45;&gt;Node25</title>
<path fill="none" stroke="midnightblue" d="M22.07,-465.31C22.74,-395.05 28.67,-158.11 78,-105 81.81,-100.9 86.29,-97.59 91.17,-94.92"/>
<polygon fill="midnightblue" stroke="midnightblue" points="18.57,-465.41 22,-475.43 25.57,-465.45 18.57,-465.41"/>
</g>
<!-- Node26 -->
<g id="node26" class="node">
<title>Node26</title>
<g id="a_node26"><a xlink:href="classUnusedParamRemovalPass.html" target="_top" xlink:title="Removes unused function parameters from a function.">
<polygon fill="white" stroke="black" points="88.5,-38.5 88.5,-57.5 239.5,-57.5 239.5,-38.5 88.5,-38.5"/>
<text text-anchor="middle" x="164" y="-45.5" font-family="Helvetica,sans-Serif" font-size="10.00">UnusedParamRemovalPass</text>
</a>
</g>
</g>
<!-- Node1&#45;&gt;Node26 -->
<g id="edge25" class="edge">
<title>Node1&#45;&gt;Node26</title>
<path fill="none" stroke="midnightblue" d="M21.77,-464.82C21.36,-389.49 23.87,-126.04 78,-67 81.47,-63.21 85.53,-60.09 89.94,-57.53"/>
<polygon fill="midnightblue" stroke="midnightblue" points="18.28,-465.26 21.86,-475.24 25.28,-465.21 18.28,-465.26"/>
</g>
<!-- Node27 -->
<g id="node27" class="node">
<title>Node27</title>
<g id="a_node27"><a xlink:href="classUnusedStatementRemovalPass.html" target="_top" xlink:title="Remove unused statements.">
<polygon fill="white" stroke="black" points="79,-0.5 79,-19.5 249,-19.5 249,-0.5 79,-0.5"/>
<text text-anchor="middle" x="164" y="-7.5" font-family="Helvetica,sans-Serif" font-size="10.00">UnusedStatementRemovalPass</text>
</a>
</g>
</g>
<!-- Node1&#45;&gt;Node27 -->
<g id="edge26" class="edge">
<title>Node1&#45;&gt;Node27</title>
<path fill="none" stroke="midnightblue" d="M21.53,-465.04C20.07,-385.76 18.89,-94.19 78,-29 81.35,-25.3 85.25,-22.24 89.5,-19.72"/>
<polygon fill="midnightblue" stroke="midnightblue" points="18.03,-465.22 21.74,-475.15 25.03,-465.08 18.03,-465.22"/>
</g>
</g>
</svg>
        <g id="navigator" transform="translate(0 0)" fill="#404254">
                <rect fill="#f2f5e9" fill-opacity="0.5" stroke="#606060" stroke-width=".5" x="0" y="0" width="60" height="60"/>
                <use id="zoomplus" xlink:href="#zoomPlus" x="17" y="9" onmousedown="handleZoom(evt,'in')"/>
                <use id="zoomminus" xlink:href="#zoomMin" x="42" y="9" onmousedown="handleZoom(evt,'out')"/>
                <use id="reset" xlink:href="#resetDef" x="30" y="36" onmousedown="handleReset()"/>
                <g id="arrowUp" xlink:href="#dirArrow" transform="translate(30 24)" onmousedown="handlePan(0,-1)">
                  <use xlink:href="#rim" fill="#404040">
                        <set attributeName="fill" to="#808080" begin="arrowUp.mouseover" end="arrowUp.mouseout"/>
                  </use>
                  <path fill="none" stroke="white" stroke-width="1.5" d="M0,-3.0v7 M-2.5,-0.5L0,-3.0L2.5,-0.5"/>
                </g>
                <g id="arrowRight" xlink:href="#dirArrow" transform="rotate(90) translate(36 -43)" onmousedown="handlePan(1,0)">
                  <use xlink:href="#rim" fill="#404040">
                        <set attributeName="fill" to="#808080" begin="arrowRight.mouseover" end="arrowRight.mouseout"/>
                  </use>
                  <path fill="none" stroke="white" stroke-width="1.5" d="M0,-3.0v7 M-2.5,-0.5L0,-3.0L2.5,-0.5"/>
                </g>
                <g id="arrowDown" xlink:href="#dirArrow" transform="rotate(180) translate(-30 -48)" onmousedown="handlePan(0,1)">
                  <use xlink:href="#rim" fill="#404040">
                        <set attributeName="fill" to="#808080" begin="arrowDown.mouseover" end="arrowDown.mouseout"/>
                  </use>
                  <path fill="none" stroke="white" stroke-width="1.5" d="M0,-3.0v7 M-2.5,-0.5L0,-3.0L2.5,-0.5"/>
                </g>
                <g id="arrowLeft" xlink:href="#dirArrow" transform="rotate(270) translate(-36 17)" onmousedown="handlePan(-1,0)">
                  <use xlink:href="#rim" fill="#404040">
                        <set attributeName="fill" to="#808080" begin="arrowLeft.mouseover" end="arrowLeft.mouseout"/>
                  </use>
                  <path fill="none" stroke="white" stroke-width="1.5" d="M0,-3.0v7 M-2.5,-0.5L0,-3.0L2.5,-0.5"/>
                </g>
        </g>
        <svg viewBox="0 0 15 15" width="100%" height="30px" preserveAspectRatio="xMaxYMin meet">
         <g id="arrow_out" transform="scale(0.3 0.3)">
          <a xlink:href="classIPass__inherit__graph_org.svg" target="_base">
           <rect id="button" ry="5" rx="5" y="6" x="6" height="38" width="38"
                fill="#f2f5e9" fill-opacity="0.5" stroke="#606060" stroke-width="1.0"/>
           <path id="arrow"
             d="M 11.500037,31.436501 C 11.940474,20.09759 22.043105,11.32322 32.158766,21.979434 L 37.068811,17.246167 C 37.068811,17.246167 37.088388,32 37.088388,32 L 22.160133,31.978069 C 22.160133,31.978069 26.997745,27.140456 26.997745,27.140456 C 18.528582,18.264221 13.291696,25.230495 11.500037,31.436501 z"
             style="fill:#404040;"/>
          </a>
         </g>
        </svg>
</svg>
