<?xml version="1.0" encoding="UTF-8" standalone="no"?>
<!DOCTYPE svg PUBLIC "-//W3C//DTD SVG 1.1//EN"
 "http://www.w3.org/Graphics/SVG/1.1/DTD/svg11.dtd">
<!-- Generated by graphviz version 2.43.0 (0)
 -->
<!-- Title: GraphNode::setSuccessor Pages: 1 -->
<svg width="355pt" height="66pt"
 viewBox="0.00 0.00 355.00 66.00" xmlns="http://www.w3.org/2000/svg" xmlns:xlink="http://www.w3.org/1999/xlink">
<g id="graph0" class="graph" transform="scale(1 1) rotate(0) translate(4 62)">
<title>GraphNode::setSuccessor</title>
<polygon fill="white" stroke="transparent" points="-4,4 -4,-62 351,-62 351,4 -4,4"/>
<!-- Node1 -->
<g id="node1" class="node">
<title>Node1</title>
<g id="a_node1"><a xlink:title="Change the i&#45;th successor of this node.">
<polygon fill="#bfbfbf" stroke="black" points="0,-19.5 0,-38.5 141,-38.5 141,-19.5 0,-19.5"/>
<text text-anchor="middle" x="70.5" y="-26.5" font-family="Helvetica,sans-Serif" font-size="10.00">GraphNode::setSuccessor</text>
</a>
</g>
</g>
<!-- Node2 -->
<g id="node2" class="node">
<title>Node2</title>
<g id="a_node2"><a xlink:href="classGraphNode.html#a0ff0e4786df7a50e6f8226ba4a79e3bf" target="_top" xlink:title=" ">
<polygon fill="white" stroke="black" points="177,-38.5 177,-57.5 347,-57.5 347,-38.5 177,-38.5"/>
<text text-anchor="middle" x="262" y="-45.5" font-family="Helvetica,sans-Serif" font-size="10.00">GraphNode::getNumSuccessors</text>
</a>
</g>
</g>
<!-- Node1&#45;&gt;Node2 -->
<g id="edge1" class="edge">
<title>Node1&#45;&gt;Node2</title>
<path fill="none" stroke="midnightblue" d="M141.26,-35.99C149.6,-36.83 158.22,-37.7 166.84,-38.56"/>
<polygon fill="midnightblue" stroke="midnightblue" points="166.63,-42.06 176.93,-39.57 167.33,-35.09 166.63,-42.06"/>
</g>
<!-- Node3 -->
<g id="node3" class="node">
<title>Node3</title>
<g id="a_node3"><a xlink:href="namespaceUtil.html#a5e424d951d801af5de701e86fcab9727" target="_top" xlink:title="Check if value is in [rangeStart, rangeEnd)">
<polygon fill="white" stroke="black" points="222,-0.5 222,-19.5 302,-19.5 302,-0.5 222,-0.5"/>
<text text-anchor="middle" x="262" y="-7.5" font-family="Helvetica,sans-Serif" font-size="10.00">Util::inRange</text>
</a>
</g>
</g>
<!-- Node1&#45;&gt;Node3 -->
<g id="edge2" class="edge">
<title>Node1&#45;&gt;Node3</title>
<path fill="none" stroke="midnightblue" d="M141.26,-22.01C164.65,-19.66 190.24,-17.09 211.74,-14.94"/>
<polygon fill="midnightblue" stroke="midnightblue" points="212.33,-18.4 221.93,-13.92 211.63,-11.43 212.33,-18.4"/>
</g>
</g>
</svg>
