<?xml version="1.0" encoding="UTF-8" standalone="no"?>
<!DOCTYPE svg PUBLIC "-//W3C//DTD SVG 1.1//EN"
 "http://www.w3.org/Graphics/SVG/1.1/DTD/svg11.dtd">
<!-- Generated by graphviz version 2.43.0 (0)
 -->
<!-- Title: ControlFlowAnalyzer::setTimeStamps Pages: 1 -->
<svg width="451pt" height="235pt"
 viewBox="0.00 0.00 451.00 235.00" xmlns="http://www.w3.org/2000/svg" xmlns:xlink="http://www.w3.org/1999/xlink">
<g id="graph0" class="graph" transform="scale(1 1) rotate(0) translate(4 231)">
<title>ControlFlowAnalyzer::setTimeStamps</title>
<polygon fill="white" stroke="transparent" points="-4,4 -4,-231 447,-231 447,4 -4,4"/>
<!-- Node1 -->
<g id="node1" class="node">
<title>Node1</title>
<g id="a_node1"><a xlink:title=" ">
<polygon fill="#bfbfbf" stroke="black" points="0,-98.5 0,-128.5 118,-128.5 118,-98.5 0,-98.5"/>
<text text-anchor="start" x="8" y="-116.5" font-family="Helvetica,sans-Serif" font-size="10.00">ControlFlowAnalyzer</text>
<text text-anchor="middle" x="59" y="-105.5" font-family="Helvetica,sans-Serif" font-size="10.00">::setTimeStamps</text>
</a>
</g>
</g>
<!-- Node2 -->
<g id="node2" class="node">
<title>Node2</title>
<g id="a_node2"><a xlink:href="classControlFlowAnalyzer.html#a00e032ed141d2fc35a7aa942415f1dd8" target="_top" xlink:title=" ">
<polygon fill="white" stroke="black" points="162.5,-196.5 162.5,-226.5 280.5,-226.5 280.5,-196.5 162.5,-196.5"/>
<text text-anchor="start" x="170.5" y="-214.5" font-family="Helvetica,sans-Serif" font-size="10.00">ControlFlowAnalyzer</text>
<text text-anchor="middle" x="221.5" y="-203.5" font-family="Helvetica,sans-Serif" font-size="10.00">::findEntryFragment</text>
</a>
</g>
</g>
<!-- Node1&#45;&gt;Node2 -->
<g id="edge1" class="edge">
<title>Node1&#45;&gt;Node2</title>
<path fill="none" stroke="midnightblue" d="M75.83,-128.6C93.65,-144.94 124.04,-170.87 154,-187.5 157.04,-189.19 160.23,-190.8 163.49,-192.32"/>
<polygon fill="midnightblue" stroke="midnightblue" points="162.24,-195.6 172.81,-196.41 165.05,-189.19 162.24,-195.6"/>
</g>
<!-- Node3 -->
<g id="node3" class="node">
<title>Node3</title>
<g id="a_node3"><a xlink:href="classControlFlowAnalyzer.html#abb4e2dbd4cb582960b4a731fd98bdbd1" target="_top" xlink:title=" ">
<polygon fill="white" stroke="black" points="162.5,-147.5 162.5,-177.5 280.5,-177.5 280.5,-147.5 162.5,-147.5"/>
<text text-anchor="start" x="170.5" y="-165.5" font-family="Helvetica,sans-Serif" font-size="10.00">ControlFlowAnalyzer</text>
<text text-anchor="middle" x="221.5" y="-154.5" font-family="Helvetica,sans-Serif" font-size="10.00">::findExitFragment</text>
</a>
</g>
</g>
<!-- Node1&#45;&gt;Node3 -->
<g id="edge2" class="edge">
<title>Node1&#45;&gt;Node3</title>
<path fill="none" stroke="midnightblue" d="M109.46,-128.6C125.86,-133.61 144.29,-139.23 161.34,-144.44"/>
<polygon fill="midnightblue" stroke="midnightblue" points="160.61,-147.88 171.2,-147.45 162.66,-141.18 160.61,-147.88"/>
</g>
<!-- Node4 -->
<g id="node4" class="node">
<title>Node4</title>
<g id="a_node4"><a xlink:href="classControlFlowAnalyzer.html#a9f38725a5bf613886824e9608fcd9e44" target="_top" xlink:title=" ">
<polygon fill="white" stroke="black" points="162.5,-98.5 162.5,-128.5 280.5,-128.5 280.5,-98.5 162.5,-98.5"/>
<text text-anchor="start" x="170.5" y="-116.5" font-family="Helvetica,sans-Serif" font-size="10.00">ControlFlowAnalyzer</text>
<text text-anchor="middle" x="221.5" y="-105.5" font-family="Helvetica,sans-Serif" font-size="10.00">::updateLoopStamps</text>
</a>
</g>
</g>
<!-- Node1&#45;&gt;Node4 -->
<g id="edge3" class="edge">
<title>Node1&#45;&gt;Node4</title>
<path fill="none" stroke="midnightblue" d="M118.4,-113.5C129.38,-113.5 140.95,-113.5 152.2,-113.5"/>
<polygon fill="midnightblue" stroke="midnightblue" points="152.41,-117 162.41,-113.5 152.41,-110 152.41,-117"/>
</g>
<!-- Node7 -->
<g id="node7" class="node">
<title>Node7</title>
<g id="a_node7"><a xlink:href="classControlFlowAnalyzer.html#a12c26bd47ce5d5dc466c67a36540b486" target="_top" xlink:title=" ">
<polygon fill="white" stroke="black" points="154,-49.5 154,-79.5 289,-79.5 289,-49.5 154,-49.5"/>
<text text-anchor="start" x="162" y="-67.5" font-family="Helvetica,sans-Serif" font-size="10.00">ControlFlowAnalyzer</text>
<text text-anchor="middle" x="221.5" y="-56.5" font-family="Helvetica,sans-Serif" font-size="10.00">::updateRevLoopStamps</text>
</a>
</g>
</g>
<!-- Node1&#45;&gt;Node7 -->
<g id="edge6" class="edge">
<title>Node1&#45;&gt;Node7</title>
<path fill="none" stroke="midnightblue" d="M109.46,-98.4C125.86,-93.39 144.29,-87.77 161.34,-82.56"/>
<polygon fill="midnightblue" stroke="midnightblue" points="162.66,-85.82 171.2,-79.55 160.61,-79.12 162.66,-85.82"/>
</g>
<!-- Node8 -->
<g id="node8" class="node">
<title>Node8</title>
<g id="a_node8"><a xlink:href="classControlFlowAnalyzer.html#a6364c9b780d22c3d734dba742d401699" target="_top" xlink:title=" ">
<polygon fill="white" stroke="black" points="162.5,-0.5 162.5,-30.5 280.5,-30.5 280.5,-0.5 162.5,-0.5"/>
<text text-anchor="start" x="170.5" y="-18.5" font-family="Helvetica,sans-Serif" font-size="10.00">ControlFlowAnalyzer</text>
<text text-anchor="middle" x="221.5" y="-7.5" font-family="Helvetica,sans-Serif" font-size="10.00">::updateRevOrder</text>
</a>
</g>
</g>
<!-- Node1&#45;&gt;Node8 -->
<g id="edge9" class="edge">
<title>Node1&#45;&gt;Node8</title>
<path fill="none" stroke="midnightblue" d="M76.24,-98.4C94.17,-82.35 124.42,-57.04 154,-40.5 157.69,-38.43 161.59,-36.47 165.57,-34.63"/>
<polygon fill="midnightblue" stroke="midnightblue" points="167.2,-37.74 174.96,-30.53 164.39,-31.32 167.2,-37.74"/>
</g>
<!-- Node5 -->
<g id="node5" class="node">
<title>Node5</title>
<g id="a_node5"><a xlink:href="classControlFlowAnalyzer.html#a8b76a53d7adcc80d213b4097517d9044" target="_top" xlink:title=" ">
<polygon fill="white" stroke="black" points="325,-73.5 325,-103.5 443,-103.5 443,-73.5 325,-73.5"/>
<text text-anchor="start" x="333" y="-91.5" font-family="Helvetica,sans-Serif" font-size="10.00">ControlFlowAnalyzer</text>
<text text-anchor="middle" x="384" y="-80.5" font-family="Helvetica,sans-Serif" font-size="10.00">::getTravType</text>
</a>
</g>
</g>
<!-- Node4&#45;&gt;Node5 -->
<g id="edge4" class="edge">
<title>Node4&#45;&gt;Node5</title>
<path fill="none" stroke="midnightblue" d="M280.9,-104.4C291.88,-102.69 303.45,-100.89 314.7,-99.14"/>
<polygon fill="midnightblue" stroke="midnightblue" points="315.57,-102.55 324.91,-97.55 314.49,-95.63 315.57,-102.55"/>
</g>
<!-- Node6 -->
<g id="node6" class="node">
<title>Node6</title>
<g id="a_node6"><a xlink:href="classControlFlowAnalyzer.html#aa74f6e51685ef5b4d819a7539445cc24" target="_top" xlink:title=" ">
<polygon fill="white" stroke="black" points="325,-24.5 325,-54.5 443,-54.5 443,-24.5 325,-24.5"/>
<text text-anchor="start" x="333" y="-42.5" font-family="Helvetica,sans-Serif" font-size="10.00">ControlFlowAnalyzer</text>
<text text-anchor="middle" x="384" y="-31.5" font-family="Helvetica,sans-Serif" font-size="10.00">::setTravType</text>
</a>
</g>
</g>
<!-- Node4&#45;&gt;Node6 -->
<g id="edge5" class="edge">
<title>Node4&#45;&gt;Node6</title>
<path fill="none" stroke="midnightblue" d="M268.95,-98.5C275.8,-95.78 282.67,-92.77 289,-89.5 306.31,-80.56 307.97,-73.96 325,-64.5 328.46,-62.58 332.1,-60.7 335.79,-58.9"/>
<polygon fill="midnightblue" stroke="midnightblue" points="337.46,-61.98 345.03,-54.57 334.49,-55.64 337.46,-61.98"/>
</g>
<!-- Node7&#45;&gt;Node5 -->
<g id="edge7" class="edge">
<title>Node7&#45;&gt;Node5</title>
<path fill="none" stroke="midnightblue" d="M289.17,-74.47C297.71,-75.75 306.47,-77.06 315.03,-78.34"/>
<polygon fill="midnightblue" stroke="midnightblue" points="314.56,-81.81 324.97,-79.82 315.6,-74.88 314.56,-81.81"/>
</g>
<!-- Node7&#45;&gt;Node6 -->
<g id="edge8" class="edge">
<title>Node7&#45;&gt;Node6</title>
<path fill="none" stroke="midnightblue" d="M289.17,-54.11C297.71,-52.78 306.47,-51.42 315.03,-50.09"/>
<polygon fill="midnightblue" stroke="midnightblue" points="315.63,-53.54 324.97,-48.54 314.55,-46.62 315.63,-53.54"/>
</g>
<!-- Node8&#45;&gt;Node5 -->
<g id="edge10" class="edge">
<title>Node8&#45;&gt;Node5</title>
<path fill="none" stroke="midnightblue" d="M266.76,-30.52C274.31,-33.53 281.98,-36.9 289,-40.5 306.11,-49.27 308.03,-55.45 325,-64.5 328.02,-66.11 331.18,-67.69 334.39,-69.22"/>
<polygon fill="midnightblue" stroke="midnightblue" points="332.97,-72.42 343.52,-73.39 335.87,-66.05 332.97,-72.42"/>
</g>
<!-- Node8&#45;&gt;Node6 -->
<g id="edge11" class="edge">
<title>Node8&#45;&gt;Node6</title>
<path fill="none" stroke="midnightblue" d="M280.9,-24.23C291.88,-25.87 303.45,-27.6 314.7,-29.29"/>
<polygon fill="midnightblue" stroke="midnightblue" points="314.51,-32.8 324.91,-30.81 315.54,-25.87 314.51,-32.8"/>
</g>
</g>
</svg>
