<?xml version="1.0" encoding="UTF-8" standalone="no"?>
<!DOCTYPE svg PUBLIC "-//W3C//DTD SVG 1.1//EN"
 "http://www.w3.org/Graphics/SVG/1.1/DTD/svg11.dtd">
<!-- Generated by graphviz version 2.43.0 (0)
 -->
<!-- Title: ControlFlowAnalyzer::structLoops Pages: 1 -->
<svg width="743pt" height="807pt"
 viewBox="0.00 0.00 743.00 807.00" xmlns="http://www.w3.org/2000/svg" xmlns:xlink="http://www.w3.org/1999/xlink">
<g id="graph0" class="graph" transform="scale(1 1) rotate(0) translate(4 803)">
<title>ControlFlowAnalyzer::structLoops</title>
<polygon fill="white" stroke="transparent" points="-4,4 -4,-803 739,-803 739,4 -4,4"/>
<!-- Node1 -->
<g id="node1" class="node">
<title>Node1</title>
<g id="a_node1"><a xlink:title=" ">
<polygon fill="#bfbfbf" stroke="black" points="0,-298.5 0,-328.5 118,-328.5 118,-298.5 0,-298.5"/>
<text text-anchor="start" x="8" y="-316.5" font-family="Helvetica,sans-Serif" font-size="10.00">ControlFlowAnalyzer</text>
<text text-anchor="middle" x="59" y="-305.5" font-family="Helvetica,sans-Serif" font-size="10.00">::structLoops</text>
</a>
</g>
</g>
<!-- Node2 -->
<g id="node2" class="node">
<title>Node2</title>
<g id="a_node2"><a xlink:href="classControlFlowAnalyzer.html#a906453ec0b6e3116a34abd92cc0e3d7d" target="_top" xlink:title=" ">
<polygon fill="white" stroke="black" points="154,-661.5 154,-691.5 273,-691.5 273,-661.5 154,-661.5"/>
<text text-anchor="start" x="162" y="-679.5" font-family="Helvetica,sans-Serif" font-size="10.00">ControlFlowAnalyzer</text>
<text text-anchor="middle" x="213.5" y="-668.5" font-family="Helvetica,sans-Serif" font-size="10.00">::determineLoopType</text>
</a>
</g>
</g>
<!-- Node1&#45;&gt;Node2 -->
<g id="edge1" class="edge">
<title>Node1&#45;&gt;Node2</title>
<path fill="none" stroke="midnightblue" d="M61.42,-328.53C66.54,-376.12 87.35,-526.26 154,-627.5 160.94,-638.05 170.83,-647.53 180.5,-655.29"/>
<polygon fill="midnightblue" stroke="midnightblue" points="178.42,-658.11 188.5,-661.38 182.66,-652.53 178.42,-658.11"/>
</g>
<!-- Node4 -->
<g id="node4" class="node">
<title>Node4</title>
<g id="a_node4"><a xlink:href="classControlFlowAnalyzer.html#ab387f3f10a54edd7cbaca32afaa5b35e" target="_top" xlink:title=" ">
<polygon fill="white" stroke="black" points="463,-579.5 463,-609.5 581,-609.5 581,-579.5 463,-579.5"/>
<text text-anchor="start" x="471" y="-597.5" font-family="Helvetica,sans-Serif" font-size="10.00">ControlFlowAnalyzer</text>
<text text-anchor="middle" x="522" y="-586.5" font-family="Helvetica,sans-Serif" font-size="10.00">::getLatchNode</text>
</a>
</g>
</g>
<!-- Node1&#45;&gt;Node4 -->
<g id="edge21" class="edge">
<title>Node1&#45;&gt;Node4</title>
<path fill="none" stroke="midnightblue" d="M63.7,-328.57C73.09,-363.99 100.95,-453.64 154,-507.5 208.12,-562.44 234.36,-566.1 309,-585.5 355.94,-597.7 410.66,-599.73 452.75,-598.83"/>
<polygon fill="midnightblue" stroke="midnightblue" points="453,-602.32 462.9,-598.55 452.8,-595.33 453,-602.32"/>
</g>
<!-- Node5 -->
<g id="node5" class="node">
<title>Node5</title>
<g id="a_node5"><a xlink:href="classControlFlowAnalyzer.html#a3e83f7269b6984d35913fff6f55c8da4" target="_top" xlink:title=" ">
<polygon fill="white" stroke="black" points="309,-418.5 309,-448.5 427,-448.5 427,-418.5 309,-418.5"/>
<text text-anchor="start" x="317" y="-436.5" font-family="Helvetica,sans-Serif" font-size="10.00">ControlFlowAnalyzer</text>
<text text-anchor="middle" x="368" y="-425.5" font-family="Helvetica,sans-Serif" font-size="10.00">::getPostOrdering</text>
</a>
</g>
</g>
<!-- Node1&#45;&gt;Node5 -->
<g id="edge23" class="edge">
<title>Node1&#45;&gt;Node5</title>
<path fill="none" stroke="midnightblue" d="M98.57,-328.58C154.52,-350.45 258.13,-390.95 318.96,-414.72"/>
<polygon fill="midnightblue" stroke="midnightblue" points="317.76,-418.01 328.35,-418.39 320.31,-411.49 317.76,-418.01"/>
</g>
<!-- Node7 -->
<g id="node7" class="node">
<title>Node7</title>
<g id="a_node7"><a xlink:href="classControlFlowAnalyzer.html#ae709fe319fbbead3dee5d9cc995834a7" target="_top" xlink:title=" ">
<polygon fill="white" stroke="black" points="463,-273.5 463,-303.5 581,-303.5 581,-273.5 463,-273.5"/>
<text text-anchor="start" x="471" y="-291.5" font-family="Helvetica,sans-Serif" font-size="10.00">ControlFlowAnalyzer</text>
<text text-anchor="middle" x="522" y="-280.5" font-family="Helvetica,sans-Serif" font-size="10.00">::getStructType</text>
</a>
</g>
</g>
<!-- Node1&#45;&gt;Node7 -->
<g id="edge24" class="edge">
<title>Node1&#45;&gt;Node7</title>
<path fill="none" stroke="midnightblue" d="M83.12,-298.33C125.67,-271.43 220.2,-216.32 309,-196.5 360.18,-185.07 378.44,-176.69 427,-196.5 460.78,-210.28 489.02,-242.7 505.46,-265.12"/>
<polygon fill="midnightblue" stroke="midnightblue" points="502.74,-267.33 511.38,-273.46 508.45,-263.28 502.74,-267.33"/>
</g>
<!-- Node8 -->
<g id="node8" class="node">
<title>Node8</title>
<g id="a_node8"><a xlink:href="classControlFlowAnalyzer.html#ae5db05896169c8fe750d764b8b58979c" target="_top" xlink:title=" ">
<polygon fill="white" stroke="black" points="463,-768.5 463,-798.5 581,-798.5 581,-768.5 463,-768.5"/>
<text text-anchor="start" x="471" y="-786.5" font-family="Helvetica,sans-Serif" font-size="10.00">ControlFlowAnalyzer</text>
<text text-anchor="middle" x="522" y="-775.5" font-family="Helvetica,sans-Serif" font-size="10.00">::setStructType</text>
</a>
</g>
</g>
<!-- Node1&#45;&gt;Node8 -->
<g id="edge28" class="edge">
<title>Node1&#45;&gt;Node8</title>
<path fill="none" stroke="midnightblue" d="M59.41,-328.77C58.03,-384.94 60.34,-582.93 154,-701.5 224.09,-790.24 367.34,-796.43 452.67,-791.16"/>
<polygon fill="midnightblue" stroke="midnightblue" points="453.04,-794.64 462.78,-790.47 452.56,-787.66 453.04,-794.64"/>
</g>
<!-- Node9 -->
<g id="node9" class="node">
<title>Node9</title>
<g id="a_node9"><a xlink:href="classControlFlowAnalyzer.html#a97564e8262d116ea9a0f6d3ed11a4b79" target="_top" xlink:title=" ">
<polygon fill="white" stroke="black" points="154.5,-298.5 154.5,-328.5 272.5,-328.5 272.5,-298.5 154.5,-298.5"/>
<text text-anchor="start" x="162.5" y="-316.5" font-family="Helvetica,sans-Serif" font-size="10.00">ControlFlowAnalyzer</text>
<text text-anchor="middle" x="213.5" y="-305.5" font-family="Helvetica,sans-Serif" font-size="10.00">::findLoopFollow</text>
</a>
</g>
</g>
<!-- Node1&#45;&gt;Node9 -->
<g id="edge11" class="edge">
<title>Node1&#45;&gt;Node9</title>
<path fill="none" stroke="midnightblue" d="M118.09,-313.5C126.62,-313.5 135.47,-313.5 144.18,-313.5"/>
<polygon fill="midnightblue" stroke="midnightblue" points="144.32,-317 154.32,-313.5 144.32,-310 144.32,-317"/>
</g>
<!-- Node10 -->
<g id="node10" class="node">
<title>Node10</title>
<g id="a_node10"><a xlink:href="classControlFlowAnalyzer.html#a5591a92f1525428a855e907dfd87230c" target="_top" xlink:title=" ">
<polygon fill="white" stroke="black" points="309,-117.5 309,-147.5 427,-147.5 427,-117.5 309,-117.5"/>
<text text-anchor="start" x="317" y="-135.5" font-family="Helvetica,sans-Serif" font-size="10.00">ControlFlowAnalyzer</text>
<text text-anchor="middle" x="368" y="-124.5" font-family="Helvetica,sans-Serif" font-size="10.00">::getLoopHead</text>
</a>
</g>
</g>
<!-- Node1&#45;&gt;Node10 -->
<g id="edge22" class="edge">
<title>Node1&#45;&gt;Node10</title>
<path fill="none" stroke="midnightblue" d="M66.46,-298.07C78.99,-270.14 109.32,-211.35 154,-181.5 196.88,-152.85 254.27,-140.81 298.67,-135.82"/>
<polygon fill="midnightblue" stroke="midnightblue" points="299.21,-139.28 308.8,-134.77 298.49,-132.32 299.21,-139.28"/>
</g>
<!-- Node13 -->
<g id="node13" class="node">
<title>Node13</title>
<g id="a_node13"><a xlink:href="classControlFlowAnalyzer.html#a8c25e063ac0d8e9a0027d415e10d5e93" target="_top" xlink:title=" ">
<polygon fill="white" stroke="black" points="154.5,-98.5 154.5,-128.5 272.5,-128.5 272.5,-98.5 154.5,-98.5"/>
<text text-anchor="start" x="162.5" y="-116.5" font-family="Helvetica,sans-Serif" font-size="10.00">ControlFlowAnalyzer</text>
<text text-anchor="middle" x="213.5" y="-105.5" font-family="Helvetica,sans-Serif" font-size="10.00">::getCaseHead</text>
</a>
</g>
</g>
<!-- Node1&#45;&gt;Node13 -->
<g id="edge20" class="edge">
<title>Node1&#45;&gt;Node13</title>
<path fill="none" stroke="midnightblue" d="M64.91,-298.43C76.04,-266.25 106.05,-189.97 154,-143.5 157.7,-139.92 161.9,-136.67 166.33,-133.74"/>
<polygon fill="midnightblue" stroke="midnightblue" points="168.26,-136.66 175.03,-128.52 164.66,-130.66 168.26,-136.66"/>
</g>
<!-- Node14 -->
<g id="node14" class="node">
<title>Node14</title>
<g id="a_node14"><a xlink:href="classControlFlowAnalyzer.html#a2cf8c98c76479d995e1eff08a88d4f8d" target="_top" xlink:title="establish if source has a back edge to dest">
<polygon fill="white" stroke="black" points="154.5,-49.5 154.5,-79.5 272.5,-79.5 272.5,-49.5 154.5,-49.5"/>
<text text-anchor="start" x="162.5" y="-67.5" font-family="Helvetica,sans-Serif" font-size="10.00">ControlFlowAnalyzer</text>
<text text-anchor="middle" x="213.5" y="-56.5" font-family="Helvetica,sans-Serif" font-size="10.00">::isBackEdge</text>
</a>
</g>
</g>
<!-- Node1&#45;&gt;Node14 -->
<g id="edge25" class="edge">
<title>Node1&#45;&gt;Node14</title>
<path fill="none" stroke="midnightblue" d="M62.23,-298.43C68.86,-258.73 91.99,-150.12 154,-88.5 155.07,-87.44 156.2,-86.42 157.36,-85.44"/>
<polygon fill="midnightblue" stroke="midnightblue" points="159.48,-88.23 165.64,-79.61 155.45,-82.51 159.48,-88.23"/>
</g>
<!-- Node16 -->
<g id="node16" class="node">
<title>Node16</title>
<g id="a_node16"><a xlink:href="classControlFlowAnalyzer.html#a5e55dc0c01e03e527c4e5744b6924c8d" target="_top" xlink:title=" ">
<polygon fill="white" stroke="black" points="154.5,-0.5 154.5,-30.5 272.5,-30.5 272.5,-0.5 154.5,-0.5"/>
<text text-anchor="start" x="162.5" y="-18.5" font-family="Helvetica,sans-Serif" font-size="10.00">ControlFlowAnalyzer</text>
<text text-anchor="middle" x="213.5" y="-7.5" font-family="Helvetica,sans-Serif" font-size="10.00">::setLatchNode</text>
</a>
</g>
</g>
<!-- Node1&#45;&gt;Node16 -->
<g id="edge27" class="edge">
<title>Node1&#45;&gt;Node16</title>
<path fill="none" stroke="midnightblue" d="M60.94,-298.23C64.55,-252.78 81.21,-116.71 154,-39.5 154.91,-38.53 155.87,-37.61 156.86,-36.71"/>
<polygon fill="midnightblue" stroke="midnightblue" points="159.19,-39.34 165.12,-30.56 155.01,-33.73 159.19,-39.34"/>
</g>
<!-- Node17 -->
<g id="node17" class="node">
<title>Node17</title>
<g id="a_node17"><a xlink:href="classControlFlowAnalyzer.html#a784b9c4599b490854293867168a55f3b" target="_top" xlink:title=" ">
<polygon fill="white" stroke="black" points="154.5,-467.5 154.5,-497.5 272.5,-497.5 272.5,-467.5 154.5,-467.5"/>
<text text-anchor="start" x="162.5" y="-485.5" font-family="Helvetica,sans-Serif" font-size="10.00">ControlFlowAnalyzer</text>
<text text-anchor="middle" x="213.5" y="-474.5" font-family="Helvetica,sans-Serif" font-size="10.00">::tagNodesInLoop</text>
</a>
</g>
</g>
<!-- Node1&#45;&gt;Node17 -->
<g id="edge29" class="edge">
<title>Node1&#45;&gt;Node17</title>
<path fill="none" stroke="midnightblue" d="M73.8,-328.8C100.68,-358.58 160.18,-424.52 191.8,-459.56"/>
<polygon fill="midnightblue" stroke="midnightblue" points="189.54,-462.28 198.84,-467.36 194.74,-457.59 189.54,-462.28"/>
</g>
<!-- Node3 -->
<g id="node3" class="node">
<title>Node3</title>
<g id="a_node3"><a xlink:href="classControlFlowAnalyzer.html#a2d0cc2d94a9572caafaf69764ec54e20" target="_top" xlink:title=" ">
<polygon fill="white" stroke="black" points="617,-724.5 617,-754.5 735,-754.5 735,-724.5 617,-724.5"/>
<text text-anchor="start" x="625" y="-742.5" font-family="Helvetica,sans-Serif" font-size="10.00">ControlFlowAnalyzer</text>
<text text-anchor="middle" x="676" y="-731.5" font-family="Helvetica,sans-Serif" font-size="10.00">::getCondFollow</text>
</a>
</g>
</g>
<!-- Node2&#45;&gt;Node3 -->
<g id="edge2" class="edge">
<title>Node2&#45;&gt;Node3</title>
<path fill="none" stroke="midnightblue" d="M239.98,-691.65C258.46,-701.8 284.41,-714.38 309,-720.5 410.43,-745.73 532.39,-746.41 606.77,-743.65"/>
<polygon fill="midnightblue" stroke="midnightblue" points="607.09,-747.14 616.95,-743.24 606.81,-740.14 607.09,-747.14"/>
</g>
<!-- Node2&#45;&gt;Node4 -->
<g id="edge3" class="edge">
<title>Node2&#45;&gt;Node4</title>
<path fill="none" stroke="midnightblue" d="M273.12,-664.81C316.05,-655.81 375.55,-642.41 427,-627.5 441.58,-623.27 457.21,-618.07 471.45,-613.05"/>
<polygon fill="midnightblue" stroke="midnightblue" points="472.82,-616.28 481.06,-609.62 470.47,-609.69 472.82,-616.28"/>
</g>
<!-- Node2&#45;&gt;Node5 -->
<g id="edge4" class="edge">
<title>Node2&#45;&gt;Node5</title>
<path fill="none" stroke="midnightblue" d="M219.48,-661.19C234.18,-616.8 278.27,-489.17 309,-458.5 310.43,-457.08 311.95,-455.73 313.54,-454.45"/>
<polygon fill="midnightblue" stroke="midnightblue" points="315.74,-457.19 322.02,-448.66 311.79,-451.41 315.74,-457.19"/>
</g>
<!-- Node6 -->
<g id="node6" class="node">
<title>Node6</title>
<g id="a_node6"><a xlink:href="classControlFlowAnalyzer.html#a3d1d75cc8f176f2a62e0e490e143400a" target="_top" xlink:title=" ">
<polygon fill="white" stroke="black" points="309,-680.5 309,-710.5 427,-710.5 427,-680.5 309,-680.5"/>
<text text-anchor="start" x="317" y="-698.5" font-family="Helvetica,sans-Serif" font-size="10.00">ControlFlowAnalyzer</text>
<text text-anchor="middle" x="368" y="-687.5" font-family="Helvetica,sans-Serif" font-size="10.00">::setLoopType</text>
</a>
</g>
</g>
<!-- Node2&#45;&gt;Node6 -->
<g id="edge5" class="edge">
<title>Node2&#45;&gt;Node6</title>
<path fill="none" stroke="midnightblue" d="M273.02,-683.79C281.48,-684.84 290.24,-685.94 298.86,-687.01"/>
<polygon fill="midnightblue" stroke="midnightblue" points="298.53,-690.5 308.88,-688.26 299.39,-683.55 298.53,-690.5"/>
</g>
<!-- Node2&#45;&gt;Node8 -->
<g id="edge10" class="edge">
<title>Node2&#45;&gt;Node8</title>
<path fill="none" stroke="midnightblue" d="M227.87,-691.54C244.82,-709.52 275.84,-739 309,-753.5 354.41,-773.35 410.01,-780.66 452.88,-783.11"/>
<polygon fill="midnightblue" stroke="midnightblue" points="452.77,-786.61 462.93,-783.61 453.12,-779.62 452.77,-786.61"/>
</g>
<!-- Node6&#45;&gt;Node4 -->
<g id="edge6" class="edge">
<title>Node6&#45;&gt;Node4</title>
<path fill="none" stroke="midnightblue" d="M400.55,-680.41C409.28,-675.91 418.65,-670.76 427,-665.5 451.01,-650.38 476.61,-630.79 495.02,-616.02"/>
<polygon fill="midnightblue" stroke="midnightblue" points="497.37,-618.62 502.94,-609.61 492.96,-613.18 497.37,-618.62"/>
</g>
<!-- Node6&#45;&gt;Node7 -->
<g id="edge7" class="edge">
<title>Node6&#45;&gt;Node7</title>
<path fill="none" stroke="midnightblue" d="M375.73,-680.19C386.86,-654.71 409.58,-601.91 427,-556.5 460.99,-467.91 497,-361.06 512.78,-313.47"/>
<polygon fill="midnightblue" stroke="midnightblue" points="516.19,-314.32 516,-303.72 509.54,-312.12 516.19,-314.32"/>
</g>
<!-- Node6&#45;&gt;Node8 -->
<g id="edge8" class="edge">
<title>Node6&#45;&gt;Node8</title>
<path fill="none" stroke="midnightblue" d="M395.13,-710.63C420.22,-725.15 458.29,-747.2 485.99,-763.23"/>
<polygon fill="midnightblue" stroke="midnightblue" points="484.55,-766.44 494.96,-768.42 488.06,-760.38 484.55,-766.44"/>
</g>
<!-- Node8&#45;&gt;Node3 -->
<g id="edge9" class="edge">
<title>Node8&#45;&gt;Node3</title>
<path fill="none" stroke="midnightblue" d="M574.88,-768.48C587.29,-764.89 600.65,-761.02 613.44,-757.32"/>
<polygon fill="midnightblue" stroke="midnightblue" points="614.46,-760.67 623.09,-754.53 612.51,-753.94 614.46,-760.67"/>
</g>
<!-- Node9&#45;&gt;Node3 -->
<g id="edge12" class="edge">
<title>Node9&#45;&gt;Node3</title>
<path fill="none" stroke="midnightblue" d="M272.85,-317.14C318.11,-322.34 380.72,-334.96 427,-365.5 562.46,-454.88 641.67,-646.43 666.49,-714.7"/>
<polygon fill="midnightblue" stroke="midnightblue" points="663.22,-715.97 669.88,-724.21 669.82,-713.61 663.22,-715.97"/>
</g>
<!-- Node9&#45;&gt;Node4 -->
<g id="edge13" class="edge">
<title>Node9&#45;&gt;Node4</title>
<path fill="none" stroke="midnightblue" d="M239.65,-328.66C258.4,-339.63 284.83,-354.42 309,-365.5 359.88,-388.83 385.25,-372.22 427,-409.5 476.6,-453.78 503.54,-530.38 514.72,-569.68"/>
<polygon fill="midnightblue" stroke="midnightblue" points="511.38,-570.76 517.4,-579.49 518.14,-568.92 511.38,-570.76"/>
</g>
<!-- Node9&#45;&gt;Node5 -->
<g id="edge17" class="edge">
<title>Node9&#45;&gt;Node5</title>
<path fill="none" stroke="midnightblue" d="M227.79,-328.57C245.15,-347.65 277.08,-380.75 309,-403.5 313.91,-407 319.28,-410.34 324.71,-413.43"/>
<polygon fill="midnightblue" stroke="midnightblue" points="323.38,-416.69 333.84,-418.4 326.72,-410.54 323.38,-416.69"/>
</g>
<!-- Node9&#45;&gt;Node7 -->
<g id="edge18" class="edge">
<title>Node9&#45;&gt;Node7</title>
<path fill="none" stroke="midnightblue" d="M272.51,-308.77C323.79,-304.59 398.63,-298.48 452.77,-294.07"/>
<polygon fill="midnightblue" stroke="midnightblue" points="453.28,-297.54 462.97,-293.23 452.71,-290.56 453.28,-297.54"/>
</g>
<!-- Node9&#45;&gt;Node10 -->
<g id="edge14" class="edge">
<title>Node9&#45;&gt;Node10</title>
<path fill="none" stroke="midnightblue" d="M226.46,-298.13C244.14,-275.54 278.44,-232.21 309,-196.5 321,-182.48 334.86,-167.15 346.02,-155.01"/>
<polygon fill="midnightblue" stroke="midnightblue" points="348.71,-157.26 352.92,-147.54 343.57,-152.51 348.71,-157.26"/>
</g>
<!-- Node11 -->
<g id="node11" class="node">
<title>Node11</title>
<g id="a_node11"><a xlink:href="classControlFlowAnalyzer.html#a87984e70a3b1e4a644ea06e566df2e59" target="_top" xlink:title=" ">
<polygon fill="white" stroke="black" points="309,-254.5 309,-284.5 427,-284.5 427,-254.5 309,-254.5"/>
<text text-anchor="start" x="317" y="-272.5" font-family="Helvetica,sans-Serif" font-size="10.00">ControlFlowAnalyzer</text>
<text text-anchor="middle" x="368" y="-261.5" font-family="Helvetica,sans-Serif" font-size="10.00">::getLoopType</text>
</a>
</g>
</g>
<!-- Node9&#45;&gt;Node11 -->
<g id="edge15" class="edge">
<title>Node9&#45;&gt;Node11</title>
<path fill="none" stroke="midnightblue" d="M266.56,-298.48C279,-294.89 292.41,-291.02 305.24,-287.32"/>
<polygon fill="midnightblue" stroke="midnightblue" points="306.28,-290.66 314.92,-284.53 304.34,-283.94 306.28,-290.66"/>
</g>
<!-- Node12 -->
<g id="node12" class="node">
<title>Node12</title>
<g id="a_node12"><a xlink:href="classControlFlowAnalyzer.html#aa4ee0915ead9ec1c8c67329e13c0ad26" target="_top" xlink:title=" ">
<polygon fill="white" stroke="black" points="309,-205.5 309,-235.5 427,-235.5 427,-205.5 309,-205.5"/>
<text text-anchor="start" x="317" y="-223.5" font-family="Helvetica,sans-Serif" font-size="10.00">ControlFlowAnalyzer</text>
<text text-anchor="middle" x="368" y="-212.5" font-family="Helvetica,sans-Serif" font-size="10.00">::setLoopFollow</text>
</a>
</g>
</g>
<!-- Node9&#45;&gt;Node12 -->
<g id="edge19" class="edge">
<title>Node9&#45;&gt;Node12</title>
<path fill="none" stroke="midnightblue" d="M232.88,-298.43C251.35,-283.73 281.04,-261.34 309,-245.5 312.39,-243.58 315.96,-241.71 319.59,-239.91"/>
<polygon fill="midnightblue" stroke="midnightblue" points="321.13,-243.06 328.68,-235.62 318.14,-236.73 321.13,-243.06"/>
</g>
<!-- Node11&#45;&gt;Node7 -->
<g id="edge16" class="edge">
<title>Node11&#45;&gt;Node7</title>
<path fill="none" stroke="midnightblue" d="M427.33,-276.79C435.7,-277.84 444.36,-278.92 452.9,-279.99"/>
<polygon fill="midnightblue" stroke="midnightblue" points="452.47,-283.46 462.82,-281.23 453.34,-276.51 452.47,-283.46"/>
</g>
<!-- Node15 -->
<g id="node15" class="node">
<title>Node15</title>
<g id="a_node15"><a xlink:href="classControlFlowAnalyzer.html#afe278fe226ac77462df23d2e3b85260a" target="_top" xlink:title=" ">
<polygon fill="white" stroke="black" points="309,-49.5 309,-79.5 427,-79.5 427,-49.5 309,-49.5"/>
<text text-anchor="start" x="317" y="-67.5" font-family="Helvetica,sans-Serif" font-size="10.00">ControlFlowAnalyzer</text>
<text text-anchor="middle" x="368" y="-56.5" font-family="Helvetica,sans-Serif" font-size="10.00">::isAncestorOf</text>
</a>
</g>
</g>
<!-- Node14&#45;&gt;Node15 -->
<g id="edge26" class="edge">
<title>Node14&#45;&gt;Node15</title>
<path fill="none" stroke="midnightblue" d="M272.59,-64.5C281.12,-64.5 289.97,-64.5 298.68,-64.5"/>
<polygon fill="midnightblue" stroke="midnightblue" points="298.82,-68 308.82,-64.5 298.82,-61 298.82,-68"/>
</g>
<!-- Node17&#45;&gt;Node4 -->
<g id="edge30" class="edge">
<title>Node17&#45;&gt;Node4</title>
<path fill="none" stroke="midnightblue" d="M229,-497.65C246.33,-514.8 277.05,-542.2 309,-556.5 354.5,-576.86 410.1,-586.32 452.95,-590.71"/>
<polygon fill="midnightblue" stroke="midnightblue" points="452.7,-594.21 462.99,-591.68 453.37,-587.24 452.7,-594.21"/>
</g>
<!-- Node17&#45;&gt;Node5 -->
<g id="edge31" class="edge">
<title>Node17&#45;&gt;Node5</title>
<path fill="none" stroke="midnightblue" d="M261.5,-467.4C276.94,-462.44 294.26,-456.87 310.34,-451.71"/>
<polygon fill="midnightblue" stroke="midnightblue" points="311.71,-454.94 320.16,-448.55 309.56,-448.28 311.71,-454.94"/>
</g>
<!-- Node18 -->
<g id="node18" class="node">
<title>Node18</title>
<g id="a_node18"><a xlink:href="classControlFlowAnalyzer.html#a11cac956f4afe587a6aeb0eec544a819" target="_top" xlink:title=" ">
<polygon fill="white" stroke="black" points="309,-516.5 309,-546.5 427,-546.5 427,-516.5 309,-516.5"/>
<text text-anchor="start" x="317" y="-534.5" font-family="Helvetica,sans-Serif" font-size="10.00">ControlFlowAnalyzer</text>
<text text-anchor="middle" x="368" y="-523.5" font-family="Helvetica,sans-Serif" font-size="10.00">::isFragInLoop</text>
</a>
</g>
</g>
<!-- Node17&#45;&gt;Node18 -->
<g id="edge32" class="edge">
<title>Node17&#45;&gt;Node18</title>
<path fill="none" stroke="midnightblue" d="M261.5,-497.6C276.94,-502.56 294.26,-508.13 310.34,-513.29"/>
<polygon fill="midnightblue" stroke="midnightblue" points="309.56,-516.72 320.16,-516.45 311.71,-510.06 309.56,-516.72"/>
</g>
<!-- Node19 -->
<g id="node19" class="node">
<title>Node19</title>
<g id="a_node19"><a xlink:href="classControlFlowAnalyzer.html#add473e031af8158354696dc078905aaa" target="_top" xlink:title=" ">
<polygon fill="white" stroke="black" points="309,-467.5 309,-497.5 427,-497.5 427,-467.5 309,-467.5"/>
<text text-anchor="start" x="317" y="-485.5" font-family="Helvetica,sans-Serif" font-size="10.00">ControlFlowAnalyzer</text>
<text text-anchor="middle" x="368" y="-474.5" font-family="Helvetica,sans-Serif" font-size="10.00">::setLoopHead</text>
</a>
</g>
</g>
<!-- Node17&#45;&gt;Node19 -->
<g id="edge34" class="edge">
<title>Node17&#45;&gt;Node19</title>
<path fill="none" stroke="midnightblue" d="M272.59,-482.5C281.12,-482.5 289.97,-482.5 298.68,-482.5"/>
<polygon fill="midnightblue" stroke="midnightblue" points="298.82,-486 308.82,-482.5 298.82,-479 298.82,-486"/>
</g>
<!-- Node18&#45;&gt;Node4 -->
<g id="edge33" class="edge">
<title>Node18&#45;&gt;Node4</title>
<path fill="none" stroke="midnightblue" d="M405.41,-546.59C426.39,-555.29 452.95,-566.3 475.32,-575.57"/>
<polygon fill="midnightblue" stroke="midnightblue" points="474.05,-578.83 484.63,-579.42 476.73,-572.36 474.05,-578.83"/>
</g>
</g>
</svg>
