<?xml version="1.0" encoding="UTF-8" standalone="no"?>
<!DOCTYPE svg PUBLIC "-//W3C//DTD SVG 1.1//EN"
 "http://www.w3.org/Graphics/SVG/1.1/DTD/svg11.dtd">
<!-- Generated by graphviz version 2.43.0 (0)
 -->
<!-- Title: BlockVarRenamePass::renameBlockVars Pages: 1 -->
<svg width="464pt" height="137pt"
 viewBox="0.00 0.00 464.00 137.00" xmlns="http://www.w3.org/2000/svg" xmlns:xlink="http://www.w3.org/1999/xlink">
<g id="graph0" class="graph" transform="scale(1 1) rotate(0) translate(4 133)">
<title>BlockVarRenamePass::renameBlockVars</title>
<polygon fill="white" stroke="transparent" points="-4,4 -4,-133 460,-133 460,4 -4,4"/>
<!-- Node1 -->
<g id="node1" class="node">
<title>Node1</title>
<g id="a_node1"><a xlink:title=" ">
<polygon fill="#bfbfbf" stroke="black" points="0,-49.5 0,-79.5 123,-79.5 123,-49.5 0,-49.5"/>
<text text-anchor="start" x="8" y="-67.5" font-family="Helvetica,sans-Serif" font-size="10.00">BlockVarRenamePass</text>
<text text-anchor="middle" x="61.5" y="-56.5" font-family="Helvetica,sans-Serif" font-size="10.00">::renameBlockVars</text>
</a>
</g>
</g>
<!-- Node2 -->
<g id="node2" class="node">
<title>Node2</title>
<g id="a_node2"><a xlink:href="classBlockVarRenamePass.html#a8228b015dce9c56fcc492be6c681cb24" target="_top" xlink:title="pop definitions in this statement from the stacks">
<polygon fill="white" stroke="black" points="166.5,-98.5 166.5,-128.5 289.5,-128.5 289.5,-98.5 166.5,-98.5"/>
<text text-anchor="start" x="174.5" y="-116.5" font-family="Helvetica,sans-Serif" font-size="10.00">BlockVarRenamePass</text>
<text text-anchor="middle" x="228" y="-105.5" font-family="Helvetica,sans-Serif" font-size="10.00">::popDefinitions</text>
</a>
</g>
</g>
<!-- Node1&#45;&gt;Node2 -->
<g id="edge1" class="edge">
<title>Node1&#45;&gt;Node2</title>
<path fill="none" stroke="midnightblue" d="M113.2,-79.6C130.16,-84.66 149.24,-90.34 166.86,-95.58"/>
<polygon fill="midnightblue" stroke="midnightblue" points="165.89,-98.95 176.47,-98.45 167.89,-92.24 165.89,-98.95"/>
</g>
<!-- Node3 -->
<g id="node3" class="node">
<title>Node3</title>
<g id="a_node3"><a xlink:href="classBlockVarRenamePass.html#a6c96c779cb874ef545af66abce655471" target="_top" xlink:title="push definitions in this statement onto the stacks">
<polygon fill="white" stroke="black" points="166.5,-49.5 166.5,-79.5 289.5,-79.5 289.5,-49.5 166.5,-49.5"/>
<text text-anchor="start" x="174.5" y="-67.5" font-family="Helvetica,sans-Serif" font-size="10.00">BlockVarRenamePass</text>
<text text-anchor="middle" x="228" y="-56.5" font-family="Helvetica,sans-Serif" font-size="10.00">::pushDefinitions</text>
</a>
</g>
</g>
<!-- Node1&#45;&gt;Node3 -->
<g id="edge2" class="edge">
<title>Node1&#45;&gt;Node3</title>
<path fill="none" stroke="midnightblue" d="M123.29,-64.5C134.08,-64.5 145.4,-64.5 156.43,-64.5"/>
<polygon fill="midnightblue" stroke="midnightblue" points="156.46,-68 166.46,-64.5 156.46,-61 156.46,-68"/>
</g>
<!-- Node4 -->
<g id="node4" class="node">
<title>Node4</title>
<g id="a_node4"><a xlink:href="classBlockVarRenamePass.html#a20456a2cc290481b4c03762ea3e22433" target="_top" xlink:title=" ">
<polygon fill="white" stroke="black" points="159,-0.5 159,-30.5 297,-30.5 297,-0.5 159,-0.5"/>
<text text-anchor="start" x="167" y="-18.5" font-family="Helvetica,sans-Serif" font-size="10.00">BlockVarRenamePass</text>
<text text-anchor="middle" x="228" y="-7.5" font-family="Helvetica,sans-Serif" font-size="10.00">::subscriptUsedLocations</text>
</a>
</g>
</g>
<!-- Node1&#45;&gt;Node4 -->
<g id="edge3" class="edge">
<title>Node1&#45;&gt;Node4</title>
<path fill="none" stroke="midnightblue" d="M113.2,-49.4C130.16,-44.34 149.24,-38.66 166.86,-33.42"/>
<polygon fill="midnightblue" stroke="midnightblue" points="167.89,-36.76 176.47,-30.55 165.89,-30.05 167.89,-36.76"/>
</g>
<!-- Node5 -->
<g id="node5" class="node">
<title>Node5</title>
<g id="a_node5"><a xlink:href="classBlockVarRenamePass.html#a6fb2ae3b5ee5b18a9f904eed34f02b22" target="_top" xlink:title="For all expressions in stmt, replace var with var{varDef}.">
<polygon fill="white" stroke="black" points="333,-0.5 333,-30.5 456,-30.5 456,-0.5 333,-0.5"/>
<text text-anchor="start" x="341" y="-18.5" font-family="Helvetica,sans-Serif" font-size="10.00">BlockVarRenamePass</text>
<text text-anchor="middle" x="394.5" y="-7.5" font-family="Helvetica,sans-Serif" font-size="10.00">::subscriptVar</text>
</a>
</g>
</g>
<!-- Node4&#45;&gt;Node5 -->
<g id="edge4" class="edge">
<title>Node4&#45;&gt;Node5</title>
<path fill="none" stroke="midnightblue" d="M297.33,-15.5C305.74,-15.5 314.35,-15.5 322.8,-15.5"/>
<polygon fill="midnightblue" stroke="midnightblue" points="322.99,-19 332.99,-15.5 322.99,-12 322.99,-19"/>
</g>
</g>
</svg>
