<?xml version="1.0" encoding="UTF-8" standalone="no"?>
<!DOCTYPE svg PUBLIC "-//W3C//DTD SVG 1.1//EN"
 "http://www.w3.org/Graphics/SVG/1.1/DTD/svg11.dtd">
<!-- Generated by graphviz version 2.43.0 (0)
 -->
<!-- Title: BinarySectionImpl::isAddressBss Pages: 1 -->
<svg width="290pt" height="66pt"
 viewBox="0.00 0.00 290.00 66.00" xmlns="http://www.w3.org/2000/svg" xmlns:xlink="http://www.w3.org/1999/xlink">
<g id="graph0" class="graph" transform="scale(1 1) rotate(0) translate(4 62)">
<title>BinarySectionImpl::isAddressBss</title>
<polygon fill="white" stroke="transparent" points="-4,4 -4,-62 286,-62 286,4 -4,4"/>
<!-- Node1 -->
<g id="node1" class="node">
<title>Node1</title>
<g id="a_node1"><a xlink:title=" ">
<polygon fill="#bfbfbf" stroke="black" points="0,-14 0,-44 112,-44 112,-14 0,-14"/>
<text text-anchor="start" x="8" y="-32" font-family="Helvetica,sans-Serif" font-size="10.00">BinarySectionImpl::</text>
<text text-anchor="middle" x="56" y="-21" font-family="Helvetica,sans-Serif" font-size="10.00">isAddressBss</text>
</a>
</g>
</g>
<!-- Node2 -->
<g id="node2" class="node">
<title>Node2</title>
<g id="a_node2"><a xlink:href="classIntervalSet.html#a0fb0b5277d90302f0173847caf636f33" target="_top" xlink:title=" ">
<polygon fill="white" stroke="black" points="148,-38.5 148,-57.5 282,-57.5 282,-38.5 148,-38.5"/>
<text text-anchor="middle" x="215" y="-45.5" font-family="Helvetica,sans-Serif" font-size="10.00">IntervalSet::isContained</text>
</a>
</g>
</g>
<!-- Node1&#45;&gt;Node2 -->
<g id="edge1" class="edge">
<title>Node1&#45;&gt;Node2</title>
<path fill="none" stroke="midnightblue" d="M112.35,-35.7C120.6,-36.7 129.22,-37.74 137.81,-38.78"/>
<polygon fill="midnightblue" stroke="midnightblue" points="137.5,-42.27 147.85,-39.99 138.34,-35.32 137.5,-42.27"/>
</g>
<!-- Node3 -->
<g id="node3" class="node">
<title>Node3</title>
<g id="a_node3"><a xlink:href="classIntervalSet.html#a56f6953850db8ffaccf76c6f0797af42" target="_top" xlink:title=" ">
<polygon fill="white" stroke="black" points="157,-0.5 157,-19.5 273,-19.5 273,-0.5 157,-0.5"/>
<text text-anchor="middle" x="215" y="-7.5" font-family="Helvetica,sans-Serif" font-size="10.00">IntervalSet::isEmpty</text>
</a>
</g>
</g>
<!-- Node1&#45;&gt;Node3 -->
<g id="edge2" class="edge">
<title>Node1&#45;&gt;Node3</title>
<path fill="none" stroke="midnightblue" d="M112.35,-22.3C123.48,-20.95 135.29,-19.52 146.78,-18.14"/>
<polygon fill="midnightblue" stroke="midnightblue" points="147.25,-21.6 156.76,-16.93 146.41,-14.65 147.25,-21.6"/>
</g>
</g>
</svg>
