<?xml version="1.0" encoding="UTF-8" standalone="no"?>
<!DOCTYPE svg PUBLIC "-//W3C//DTD SVG 1.1//EN"
 "http://www.w3.org/Graphics/SVG/1.1/DTD/svg11.dtd">
<!-- Generated by graphviz version 2.43.0 (0)
 -->
<!-- Title: CFGCompressor::compressCFG Pages: 1 -->
<svg width="574pt" height="184pt"
 viewBox="0.00 0.00 574.00 183.50" xmlns="http://www.w3.org/2000/svg" xmlns:xlink="http://www.w3.org/1999/xlink">
<g id="graph0" class="graph" transform="scale(1 1) rotate(0) translate(4 179.5)">
<title>CFGCompressor::compressCFG</title>
<polygon fill="white" stroke="transparent" points="-4,4 -4,-179.5 570,-179.5 570,4 -4,4"/>
<!-- Node1 -->
<g id="node1" class="node">
<title>Node1</title>
<g id="a_node1"><a xlink:title="Given a well&#45;formed ProcCFG, optimizations are performed on the graph to reduce the number of basic b...">
<polygon fill="#bfbfbf" stroke="black" points="0,-55 0,-74 169,-74 169,-55 0,-55"/>
<text text-anchor="middle" x="84.5" y="-62" font-family="Helvetica,sans-Serif" font-size="10.00">CFGCompressor::compressCFG</text>
</a>
</g>
</g>
<!-- Node2 -->
<g id="node2" class="node">
<title>Node2</title>
<g id="a_node2"><a xlink:href="classCFGCompressor.html#af131a551ed771f14b7c57ecc389cd298" target="_top" xlink:title=" ">
<polygon fill="white" stroke="black" points="205,-99 205,-118 414,-118 414,-99 205,-99"/>
<text text-anchor="middle" x="309.5" y="-106" font-family="Helvetica,sans-Serif" font-size="10.00">CFGCompressor::compressFallthroughs</text>
</a>
</g>
</g>
<!-- Node1&#45;&gt;Node2 -->
<g id="edge1" class="edge">
<title>Node1&#45;&gt;Node2</title>
<path fill="none" stroke="midnightblue" d="M132.59,-74.04C154.58,-78.47 181.12,-83.8 205,-88.5 219.09,-91.28 234.26,-94.23 248.53,-96.99"/>
<polygon fill="midnightblue" stroke="midnightblue" points="248.25,-100.5 258.74,-98.96 249.58,-93.63 248.25,-100.5"/>
</g>
<!-- Node7 -->
<g id="node7" class="node">
<title>Node7</title>
<g id="a_node7"><a xlink:href="classCFGCompressor.html#ab47e619e95a666b0c03eba279dcc7490" target="_top" xlink:title="Removes empty jumps and empty BBs.">
<polygon fill="white" stroke="black" points="224.5,-49.5 224.5,-79.5 394.5,-79.5 394.5,-49.5 224.5,-49.5"/>
<text text-anchor="start" x="232.5" y="-67.5" font-family="Helvetica,sans-Serif" font-size="10.00">CFGCompressor::removeEmpty</text>
<text text-anchor="middle" x="309.5" y="-56.5" font-family="Helvetica,sans-Serif" font-size="10.00">Jumps</text>
</a>
</g>
</g>
<!-- Node1&#45;&gt;Node7 -->
<g id="edge6" class="edge">
<title>Node1&#45;&gt;Node7</title>
<path fill="none" stroke="midnightblue" d="M169.17,-64.5C183.83,-64.5 199.18,-64.5 214.11,-64.5"/>
<polygon fill="midnightblue" stroke="midnightblue" points="214.36,-68 224.36,-64.5 214.36,-61 214.36,-68"/>
</g>
<!-- Node8 -->
<g id="node8" class="node">
<title>Node8</title>
<g id="a_node8"><a xlink:href="classCFGCompressor.html#a0dee97e401fe6198f397d6dc4b5848d2" target="_top" xlink:title="Removes fragments that are not reachable from the entry fragment.">
<polygon fill="white" stroke="black" points="222.5,-0.5 222.5,-30.5 396.5,-30.5 396.5,-0.5 222.5,-0.5"/>
<text text-anchor="start" x="230.5" y="-18.5" font-family="Helvetica,sans-Serif" font-size="10.00">CFGCompressor::removeOrphan</text>
<text text-anchor="middle" x="309.5" y="-7.5" font-family="Helvetica,sans-Serif" font-size="10.00">Fragments</text>
</a>
</g>
</g>
<!-- Node1&#45;&gt;Node8 -->
<g id="edge7" class="edge">
<title>Node1&#45;&gt;Node8</title>
<path fill="none" stroke="midnightblue" d="M128.76,-54.99C157.47,-48.69 195.97,-40.23 229.98,-32.75"/>
<polygon fill="midnightblue" stroke="midnightblue" points="230.89,-36.14 239.91,-30.57 229.39,-29.3 230.89,-36.14"/>
</g>
<!-- Node3 -->
<g id="node3" class="node">
<title>Node3</title>
<g id="a_node3"><a xlink:href="classUniqueStack.html#a4eb06ca1ae654f6414076d1cb2ad57c3" target="_top" xlink:title=" ">
<polygon fill="white" stroke="black" points="450,-156 450,-175 566,-175 566,-156 450,-156"/>
<text text-anchor="middle" x="508" y="-163" font-family="Helvetica,sans-Serif" font-size="10.00">UniqueStack::empty</text>
</a>
</g>
</g>
<!-- Node2&#45;&gt;Node3 -->
<g id="edge2" class="edge">
<title>Node2&#45;&gt;Node3</title>
<path fill="none" stroke="midnightblue" d="M343.39,-118.04C376.55,-127.66 427.88,-142.55 464.19,-153.08"/>
<polygon fill="midnightblue" stroke="midnightblue" points="463.42,-156.5 474,-155.93 465.37,-149.78 463.42,-156.5"/>
</g>
<!-- Node4 -->
<g id="node4" class="node">
<title>Node4</title>
<g id="a_node4"><a xlink:href="classUniqueStack.html#a724a227031511a08cc54d99dec8c67f2" target="_top" xlink:title=" ">
<polygon fill="white" stroke="black" points="452.5,-118 452.5,-137 563.5,-137 563.5,-118 452.5,-118"/>
<text text-anchor="middle" x="508" y="-125" font-family="Helvetica,sans-Serif" font-size="10.00">UniqueStack::erase</text>
</a>
</g>
</g>
<!-- Node2&#45;&gt;Node4 -->
<g id="edge3" class="edge">
<title>Node2&#45;&gt;Node4</title>
<path fill="none" stroke="midnightblue" d="M409.04,-118.03C420.36,-119.12 431.67,-120.22 442.38,-121.25"/>
<polygon fill="midnightblue" stroke="midnightblue" points="442.15,-124.75 452.45,-122.22 442.83,-117.78 442.15,-124.75"/>
</g>
<!-- Node5 -->
<g id="node5" class="node">
<title>Node5</title>
<g id="a_node5"><a xlink:href="classUniqueStack.html#aacea7d752d438306ded5196e0d6dbcb9" target="_top" xlink:title=" ">
<polygon fill="white" stroke="black" points="457,-80 457,-99 559,-99 559,-80 457,-80"/>
<text text-anchor="middle" x="508" y="-87" font-family="Helvetica,sans-Serif" font-size="10.00">UniqueStack::pop</text>
</a>
</g>
</g>
<!-- Node2&#45;&gt;Node5 -->
<g id="edge4" class="edge">
<title>Node2&#45;&gt;Node5</title>
<path fill="none" stroke="midnightblue" d="M409.04,-98.97C421.85,-97.73 434.66,-96.49 446.59,-95.34"/>
<polygon fill="midnightblue" stroke="midnightblue" points="447.2,-98.8 456.82,-94.35 446.53,-91.83 447.2,-98.8"/>
</g>
<!-- Node6 -->
<g id="node6" class="node">
<title>Node6</title>
<g id="a_node6"><a xlink:href="classUniqueStack.html#aa1a6756a83051d9daa8d498f57944944" target="_top" xlink:title=" ">
<polygon fill="white" stroke="black" points="454.5,-42 454.5,-61 561.5,-61 561.5,-42 454.5,-42"/>
<text text-anchor="middle" x="508" y="-49" font-family="Helvetica,sans-Serif" font-size="10.00">UniqueStack::push</text>
</a>
</g>
</g>
<!-- Node2&#45;&gt;Node6 -->
<g id="edge5" class="edge">
<title>Node2&#45;&gt;Node6</title>
<path fill="none" stroke="midnightblue" d="M374.43,-98.98C387.69,-96.22 401.44,-92.77 414,-88.5 430.94,-82.75 433.47,-77.35 450,-70.5 455.12,-68.38 460.57,-66.32 465.99,-64.39"/>
<polygon fill="midnightblue" stroke="midnightblue" points="467.33,-67.63 475.64,-61.07 465.05,-61.01 467.33,-67.63"/>
</g>
</g>
</svg>
