<?xml version="1.0" encoding="UTF-8" standalone="no"?>
<!DOCTYPE svg PUBLIC "-//W3C//DTD SVG 1.1//EN"
 "http://www.w3.org/Graphics/SVG/1.1/DTD/svg11.dtd">
<!-- Generated by graphviz version 2.43.0 (0)
 -->
<!-- Title: CallingConvention::Win32TcSignature::clone Pages: 1 -->
<svg width="377pt" height="78pt"
 viewBox="0.00 0.00 377.00 77.50" xmlns="http://www.w3.org/2000/svg" xmlns:xlink="http://www.w3.org/1999/xlink">
<g id="graph0" class="graph" transform="scale(1 1) rotate(0) translate(4 73.5)">
<title>CallingConvention::Win32TcSignature::clone</title>
<polygon fill="white" stroke="transparent" points="-4,4 -4,-73.5 373,-73.5 373,4 -4,4"/>
<!-- Node1 -->
<g id="node1" class="node">
<title>Node1</title>
<g id="a_node1"><a xlink:title=" ">
<polygon fill="#bfbfbf" stroke="black" points="0,-22.5 0,-52.5 136,-52.5 136,-22.5 0,-22.5"/>
<text text-anchor="start" x="8" y="-40.5" font-family="Helvetica,sans-Serif" font-size="10.00">CallingConvention::</text>
<text text-anchor="middle" x="68" y="-29.5" font-family="Helvetica,sans-Serif" font-size="10.00">Win32TcSignature::clone</text>
</a>
</g>
</g>
<!-- Node2 -->
<g id="node2" class="node">
<title>Node2</title>
<g id="a_node2"><a xlink:href="namespaceUtil.html#a44742ffafe9085ba6fd968429c7e4021" target="_top" xlink:title=" ">
<polygon fill="white" stroke="black" points="237.5,-50 237.5,-69 303.5,-69 303.5,-50 237.5,-50"/>
<text text-anchor="middle" x="270.5" y="-57" font-family="Helvetica,sans-Serif" font-size="10.00">Util::clone</text>
</a>
</g>
</g>
<!-- Node1&#45;&gt;Node2 -->
<g id="edge1" class="edge">
<title>Node1&#45;&gt;Node2</title>
<path fill="none" stroke="midnightblue" d="M136.04,-44.86C166.19,-48.16 200.86,-51.97 227.3,-54.87"/>
<polygon fill="midnightblue" stroke="midnightblue" points="227.05,-58.36 237.37,-55.97 227.81,-51.4 227.05,-58.36"/>
</g>
<!-- Node3 -->
<g id="node3" class="node">
<title>Node3</title>
<g id="a_node3"><a xlink:href="classCallingConvention_1_1Win32TcSignature.html#ab841f08ca105d1614a711792ab1c58e2" target="_top" xlink:title=" ">
<polygon fill="white" stroke="black" points="172,-0.5 172,-30.5 369,-30.5 369,-0.5 172,-0.5"/>
<text text-anchor="start" x="180" y="-18.5" font-family="Helvetica,sans-Serif" font-size="10.00">CallingConvention::</text>
<text text-anchor="middle" x="270.5" y="-7.5" font-family="Helvetica,sans-Serif" font-size="10.00">Win32TcSignature::Win32TcSignature</text>
</a>
</g>
</g>
<!-- Node1&#45;&gt;Node3 -->
<g id="edge2" class="edge">
<title>Node1&#45;&gt;Node3</title>
<path fill="none" stroke="midnightblue" d="M136.04,-30.14C144.31,-29.24 152.91,-28.29 161.59,-27.34"/>
<polygon fill="midnightblue" stroke="midnightblue" points="162.24,-30.79 171.8,-26.22 161.48,-23.83 162.24,-30.79"/>
</g>
</g>
</svg>
