<?xml version="1.0" encoding="UTF-8" standalone="no"?>
<!DOCTYPE svg PUBLIC "-//W3C//DTD SVG 1.1//EN"
 "http://www.w3.org/Graphics/SVG/1.1/DTD/svg11.dtd">
<!-- Generated by graphviz version 2.43.0 (0)
 -->
<!-- Title: ConsoleLogSink.cpp Pages: 1 -->
<svg width="287pt" height="207pt"
 viewBox="0.00 0.00 286.50 207.00" xmlns="http://www.w3.org/2000/svg" xmlns:xlink="http://www.w3.org/1999/xlink">
<g id="graph0" class="graph" transform="scale(1 1) rotate(0) translate(4 203)">
<title>ConsoleLogSink.cpp</title>
<polygon fill="white" stroke="transparent" points="-4,4 -4,-203 282.5,-203 282.5,4 -4,4"/>
<!-- Node1 -->
<g id="node1" class="node">
<title>Node1</title>
<g id="a_node1"><a xlink:title=" ">
<polygon fill="#bfbfbf" stroke="black" points="116.5,-179.5 116.5,-198.5 230.5,-198.5 230.5,-179.5 116.5,-179.5"/>
<text text-anchor="middle" x="173.5" y="-186.5" font-family="Helvetica,sans-Serif" font-size="10.00">ConsoleLogSink.cpp</text>
</a>
</g>
</g>
<!-- Node2 -->
<g id="node2" class="node">
<title>Node2</title>
<g id="a_node2"><a xlink:href="ConsoleLogSink_8h.html" target="_top" xlink:title=" ">
<polygon fill="white" stroke="black" points="26,-123.5 26,-142.5 129,-142.5 129,-123.5 26,-123.5"/>
<text text-anchor="middle" x="77.5" y="-130.5" font-family="Helvetica,sans-Serif" font-size="10.00">ConsoleLogSink.h</text>
</a>
</g>
</g>
<!-- Node1&#45;&gt;Node2 -->
<g id="edge1" class="edge">
<title>Node1&#45;&gt;Node2</title>
<path fill="none" stroke="midnightblue" d="M158.08,-179.32C142.96,-170.82 119.68,-157.73 102.03,-147.8"/>
<polygon fill="midnightblue" stroke="midnightblue" points="103.32,-144.51 92.89,-142.65 99.89,-150.61 103.32,-144.51"/>
</g>
<!-- Node5 -->
<g id="node5" class="node">
<title>Node5</title>
<g id="a_node5"><a xlink:title=" ">
<polygon fill="white" stroke="#bfbfbf" points="147,-123.5 147,-142.5 200,-142.5 200,-123.5 147,-123.5"/>
<text text-anchor="middle" x="173.5" y="-130.5" font-family="Helvetica,sans-Serif" font-size="10.00">QString</text>
</a>
</g>
</g>
<!-- Node1&#45;&gt;Node5 -->
<g id="edge4" class="edge">
<title>Node1&#45;&gt;Node5</title>
<path fill="none" stroke="midnightblue" d="M173.5,-179.08C173.5,-172.01 173.5,-161.86 173.5,-152.99"/>
<polygon fill="midnightblue" stroke="midnightblue" points="177,-152.75 173.5,-142.75 170,-152.75 177,-152.75"/>
</g>
<!-- Node6 -->
<g id="node6" class="node">
<title>Node6</title>
<g id="a_node6"><a xlink:title=" ">
<polygon fill="white" stroke="#bfbfbf" points="218.5,-123.5 218.5,-142.5 278.5,-142.5 278.5,-123.5 218.5,-123.5"/>
<text text-anchor="middle" x="248.5" y="-130.5" font-family="Helvetica,sans-Serif" font-size="10.00">iostream</text>
</a>
</g>
</g>
<!-- Node1&#45;&gt;Node6 -->
<g id="edge5" class="edge">
<title>Node1&#45;&gt;Node6</title>
<path fill="none" stroke="midnightblue" d="M185.55,-179.32C196.96,-171.11 214.33,-158.6 227.93,-148.81"/>
<polygon fill="midnightblue" stroke="midnightblue" points="230.16,-151.52 236.23,-142.83 226.07,-145.84 230.16,-151.52"/>
</g>
<!-- Node3 -->
<g id="node3" class="node">
<title>Node3</title>
<g id="a_node3"><a xlink:href="ILogSink_8h.html" target="_top" xlink:title=" ">
<polygon fill="white" stroke="black" points="7.5,-67.5 7.5,-86.5 147.5,-86.5 147.5,-67.5 7.5,-67.5"/>
<text text-anchor="middle" x="77.5" y="-74.5" font-family="Helvetica,sans-Serif" font-size="10.00">boomerang/ifc/ILogSink.h</text>
</a>
</g>
</g>
<!-- Node2&#45;&gt;Node3 -->
<g id="edge2" class="edge">
<title>Node2&#45;&gt;Node3</title>
<path fill="none" stroke="midnightblue" d="M77.5,-123.08C77.5,-116.01 77.5,-105.86 77.5,-96.99"/>
<polygon fill="midnightblue" stroke="midnightblue" points="81,-96.75 77.5,-86.75 74,-96.75 81,-96.75"/>
</g>
<!-- Node4 -->
<g id="node4" class="node">
<title>Node4</title>
<g id="a_node4"><a xlink:href="BoomerangAPI_8h.html" target="_top" xlink:title=" ">
<polygon fill="white" stroke="black" points="0,-0.5 0,-30.5 155,-30.5 155,-0.5 0,-0.5"/>
<text text-anchor="start" x="8" y="-18.5" font-family="Helvetica,sans-Serif" font-size="10.00">boomerang/core/Boomerang</text>
<text text-anchor="middle" x="77.5" y="-7.5" font-family="Helvetica,sans-Serif" font-size="10.00">API.h</text>
</a>
</g>
</g>
<!-- Node3&#45;&gt;Node4 -->
<g id="edge3" class="edge">
<title>Node3&#45;&gt;Node4</title>
<path fill="none" stroke="midnightblue" d="M77.5,-67.48C77.5,-60.47 77.5,-50.19 77.5,-40.7"/>
<polygon fill="midnightblue" stroke="midnightblue" points="81,-40.52 77.5,-30.52 74,-40.52 81,-40.52"/>
</g>
</g>
</svg>
