<?xml version="1.0" encoding="UTF-8" standalone="no"?>
<!DOCTYPE svg PUBLIC "-//W3C//DTD SVG 1.1//EN"
 "http://www.w3.org/Graphics/SVG/1.1/DTD/svg11.dtd">
<!-- Generated by graphviz version 2.43.0 (0)
 -->
<!-- Title: Const.h Pages: 1 -->
<svg width="867pt" height="386pt"
 viewBox="0.00 0.00 866.50 386.00" xmlns="http://www.w3.org/2000/svg" xmlns:xlink="http://www.w3.org/1999/xlink">
<g id="graph0" class="graph" transform="scale(1 1) rotate(0) translate(4 382)">
<title>Const.h</title>
<polygon fill="white" stroke="transparent" points="-4,4 -4,-382 862.5,-382 862.5,4 -4,4"/>
<!-- Node1 -->
<g id="node1" class="node">
<title>Node1</title>
<g id="a_node1"><a xlink:title=" ">
<polygon fill="#bfbfbf" stroke="black" points="752.5,-358.5 752.5,-377.5 805.5,-377.5 805.5,-358.5 752.5,-358.5"/>
<text text-anchor="middle" x="779" y="-365.5" font-family="Helvetica,sans-Serif" font-size="10.00">Const.h</text>
</a>
</g>
</g>
<!-- Node2 -->
<g id="node2" class="node">
<title>Node2</title>
<g id="a_node2"><a xlink:href="Exp_8h.html" target="_top" xlink:title=" ">
<polygon fill="white" stroke="black" points="377,-302.5 377,-321.5 517,-321.5 517,-302.5 377,-302.5"/>
<text text-anchor="middle" x="447" y="-309.5" font-family="Helvetica,sans-Serif" font-size="10.00">boomerang/ssl/exp/Exp.h</text>
</a>
</g>
</g>
<!-- Node1&#45;&gt;Node2 -->
<g id="edge1" class="edge">
<title>Node1&#45;&gt;Node2</title>
<path fill="none" stroke="midnightblue" d="M752.39,-362.67C700.07,-354.16 582.57,-335.05 509.52,-323.17"/>
<polygon fill="midnightblue" stroke="midnightblue" points="509.95,-319.69 499.52,-321.54 508.83,-326.6 509.95,-319.69"/>
</g>
<!-- Node8 -->
<g id="node8" class="node">
<title>Node8</title>
<g id="a_node8"><a xlink:href="Address_8h.html" target="_top" xlink:title=" ">
<polygon fill="white" stroke="black" points="571,-179.5 571,-198.5 713,-198.5 713,-179.5 571,-179.5"/>
<text text-anchor="middle" x="642" y="-186.5" font-family="Helvetica,sans-Serif" font-size="10.00">boomerang/util/Address.h</text>
</a>
</g>
</g>
<!-- Node1&#45;&gt;Node8 -->
<g id="edge29" class="edge">
<title>Node1&#45;&gt;Node8</title>
<path fill="none" stroke="midnightblue" d="M772.45,-358.3C756.45,-337.1 714.1,-281.13 678,-235 670.59,-225.53 662.2,-215.02 655.38,-206.55"/>
<polygon fill="midnightblue" stroke="midnightblue" points="657.96,-204.17 648.96,-198.58 652.51,-208.56 657.96,-204.17"/>
</g>
<!-- Node19 -->
<g id="node19" class="node">
<title>Node19</title>
<g id="a_node19"><a xlink:title=" ">
<polygon fill="white" stroke="#bfbfbf" points="807.5,-302.5 807.5,-321.5 858.5,-321.5 858.5,-302.5 807.5,-302.5"/>
<text text-anchor="middle" x="833" y="-309.5" font-family="Helvetica,sans-Serif" font-size="10.00">variant</text>
</a>
</g>
</g>
<!-- Node1&#45;&gt;Node19 -->
<g id="edge30" class="edge">
<title>Node1&#45;&gt;Node19</title>
<path fill="none" stroke="midnightblue" d="M787.92,-358.08C795.78,-350.22 807.43,-338.57 816.92,-329.08"/>
<polygon fill="midnightblue" stroke="midnightblue" points="819.65,-331.3 824.25,-321.75 814.7,-326.35 819.65,-331.3"/>
</g>
<!-- Node3 -->
<g id="node3" class="node">
<title>Node3</title>
<g id="a_node3"><a xlink:href="ExpHelp_8h.html" target="_top" xlink:title=" ">
<polygon fill="white" stroke="black" points="353,-179.5 353,-198.5 515,-198.5 515,-179.5 353,-179.5"/>
<text text-anchor="middle" x="434" y="-186.5" font-family="Helvetica,sans-Serif" font-size="10.00">boomerang/ssl/exp/ExpHelp.h</text>
</a>
</g>
</g>
<!-- Node2&#45;&gt;Node3 -->
<g id="edge2" class="edge">
<title>Node2&#45;&gt;Node3</title>
<path fill="none" stroke="midnightblue" d="M446.07,-302.3C443.98,-282.85 438.89,-235.49 436.03,-208.9"/>
<polygon fill="midnightblue" stroke="midnightblue" points="439.47,-208.19 434.93,-198.62 432.51,-208.94 439.47,-208.19"/>
</g>
<!-- Node5 -->
<g id="node5" class="node">
<title>Node5</title>
<g id="a_node5"><a xlink:title=" ">
<polygon fill="white" stroke="#bfbfbf" points="190,-123.5 190,-142.5 248,-142.5 248,-123.5 190,-123.5"/>
<text text-anchor="middle" x="219" y="-130.5" font-family="Helvetica,sans-Serif" font-size="10.00">memory</text>
</a>
</g>
</g>
<!-- Node2&#45;&gt;Node5 -->
<g id="edge26" class="edge">
<title>Node2&#45;&gt;Node5</title>
<path fill="none" stroke="midnightblue" d="M376.92,-304.17C311.56,-296.85 219.53,-283.83 188,-266 147.55,-243.13 105.66,-218.59 130,-179 140.99,-161.12 161.53,-150.09 180.11,-143.42"/>
<polygon fill="midnightblue" stroke="midnightblue" points="181.45,-146.66 189.87,-140.24 179.27,-140.01 181.45,-146.66"/>
</g>
<!-- Node6 -->
<g id="node6" class="node">
<title>Node6</title>
<g id="a_node6"><a xlink:href="Operator_8h.html" target="_top" xlink:title=" ">
<polygon fill="white" stroke="black" points="0,-123.5 0,-142.5 164,-142.5 164,-123.5 0,-123.5"/>
<text text-anchor="middle" x="82" y="-130.5" font-family="Helvetica,sans-Serif" font-size="10.00">boomerang/ssl/exp/Operator.h</text>
</a>
</g>
</g>
<!-- Node2&#45;&gt;Node6 -->
<g id="edge5" class="edge">
<title>Node2&#45;&gt;Node6</title>
<path fill="none" stroke="midnightblue" d="M376.76,-308.64C297.32,-304.63 174.27,-293.98 138,-266 101.63,-237.94 88.6,-181.76 84.15,-152.57"/>
<polygon fill="midnightblue" stroke="midnightblue" points="87.6,-151.95 82.8,-142.5 80.66,-152.88 87.6,-151.95"/>
</g>
<!-- Node7 -->
<g id="node7" class="node">
<title>Node7</title>
<g id="a_node7"><a xlink:href="Statement_8h.html" target="_top" xlink:title=" ">
<polygon fill="white" stroke="black" points="233.5,-235.5 233.5,-265.5 380.5,-265.5 380.5,-235.5 233.5,-235.5"/>
<text text-anchor="start" x="241.5" y="-253.5" font-family="Helvetica,sans-Serif" font-size="10.00">boomerang/ssl/statements</text>
<text text-anchor="middle" x="307" y="-242.5" font-family="Helvetica,sans-Serif" font-size="10.00">/Statement.h</text>
</a>
</g>
</g>
<!-- Node2&#45;&gt;Node7 -->
<g id="edge7" class="edge">
<title>Node2&#45;&gt;Node7</title>
<path fill="none" stroke="midnightblue" d="M426.94,-302.48C406.83,-293.93 375.24,-280.5 349.53,-269.57"/>
<polygon fill="midnightblue" stroke="midnightblue" points="350.57,-266.21 340,-265.52 347.83,-272.66 350.57,-266.21"/>
</g>
<!-- Node9 -->
<g id="node9" class="node">
<title>Node9</title>
<g id="a_node9"><a xlink:href="OStream_8h.html" target="_top" xlink:title=" ">
<polygon fill="white" stroke="black" points="667,-123.5 667,-142.5 813,-142.5 813,-123.5 667,-123.5"/>
<text text-anchor="middle" x="740" y="-130.5" font-family="Helvetica,sans-Serif" font-size="10.00">boomerang/util/OStream.h</text>
</a>
</g>
</g>
<!-- Node2&#45;&gt;Node9 -->
<g id="edge22" class="edge">
<title>Node2&#45;&gt;Node9</title>
<path fill="none" stroke="midnightblue" d="M517.06,-303.39C575.11,-296.01 652.13,-283.36 678,-266 716.96,-239.85 732,-182.39 737.34,-152.65"/>
<polygon fill="midnightblue" stroke="midnightblue" points="740.8,-153.16 738.94,-142.73 733.89,-152.05 740.8,-153.16"/>
</g>
<!-- Node13 -->
<g id="node13" class="node">
<title>Node13</title>
<g id="a_node13"><a xlink:title=" ">
<polygon fill="white" stroke="#bfbfbf" points="516.5,-123.5 516.5,-142.5 569.5,-142.5 569.5,-123.5 516.5,-123.5"/>
<text text-anchor="middle" x="543" y="-130.5" font-family="Helvetica,sans-Serif" font-size="10.00">QString</text>
</a>
</g>
</g>
<!-- Node2&#45;&gt;Node13 -->
<g id="edge23" class="edge">
<title>Node2&#45;&gt;Node13</title>
<path fill="none" stroke="midnightblue" d="M454.44,-302.31C469.56,-284.24 504.16,-240.78 524,-199 531.09,-184.07 536.13,-165.92 539.22,-152.61"/>
<polygon fill="midnightblue" stroke="midnightblue" points="542.67,-153.25 541.37,-142.73 535.83,-151.76 542.67,-153.25"/>
</g>
<!-- Node14 -->
<g id="node14" class="node">
<title>Node14</title>
<g id="a_node14"><a xlink:title=" ">
<polygon fill="white" stroke="#bfbfbf" points="139,-179.5 139,-198.5 191,-198.5 191,-179.5 139,-179.5"/>
<text text-anchor="middle" x="165" y="-186.5" font-family="Helvetica,sans-Serif" font-size="10.00">cassert</text>
</a>
</g>
</g>
<!-- Node2&#45;&gt;Node14 -->
<g id="edge24" class="edge">
<title>Node2&#45;&gt;Node14</title>
<path fill="none" stroke="midnightblue" d="M376.93,-309.12C330.81,-305.04 270.73,-294.11 225,-266 202.02,-251.87 184.27,-225.58 174.22,-207.94"/>
<polygon fill="midnightblue" stroke="midnightblue" points="177.06,-205.83 169.22,-198.71 170.91,-209.16 177.06,-205.83"/>
</g>
<!-- Node15 -->
<g id="node15" class="node">
<title>Node15</title>
<g id="a_node15"><a xlink:title=" ">
<polygon fill="white" stroke="#bfbfbf" points="303,-179.5 303,-198.5 335,-198.5 335,-179.5 303,-179.5"/>
<text text-anchor="middle" x="319" y="-186.5" font-family="Helvetica,sans-Serif" font-size="10.00">list</text>
</a>
</g>
</g>
<!-- Node2&#45;&gt;Node15 -->
<g id="edge25" class="edge">
<title>Node2&#45;&gt;Node15</title>
<path fill="none" stroke="midnightblue" d="M441.89,-302.22C432.84,-287.17 412.77,-256.05 390,-235 376.2,-222.24 358.31,-210.93 343.95,-202.84"/>
<polygon fill="midnightblue" stroke="midnightblue" points="345.55,-199.73 335.09,-198.01 342.19,-205.87 345.55,-199.73"/>
</g>
<!-- Node17 -->
<g id="node17" class="node">
<title>Node17</title>
<g id="a_node17"><a xlink:title=" ">
<polygon fill="white" stroke="#bfbfbf" points="571,-241 571,-260 603,-260 603,-241 571,-241"/>
<text text-anchor="middle" x="587" y="-248" font-family="Helvetica,sans-Serif" font-size="10.00">set</text>
</a>
</g>
</g>
<!-- Node2&#45;&gt;Node17 -->
<g id="edge27" class="edge">
<title>Node2&#45;&gt;Node17</title>
<path fill="none" stroke="midnightblue" d="M469.08,-302.43C491.42,-293.66 526.85,-279.44 557,-266 558.56,-265.3 560.16,-264.58 561.77,-263.83"/>
<polygon fill="midnightblue" stroke="midnightblue" points="563.35,-266.95 570.89,-259.51 560.36,-260.63 563.35,-266.95"/>
</g>
<!-- Node18 -->
<g id="node18" class="node">
<title>Node18</title>
<g id="a_node18"><a xlink:title=" ">
<polygon fill="white" stroke="#bfbfbf" points="621.5,-241 621.5,-260 668.5,-260 668.5,-241 621.5,-241"/>
<text text-anchor="middle" x="645" y="-248" font-family="Helvetica,sans-Serif" font-size="10.00">vector</text>
</a>
</g>
</g>
<!-- Node2&#45;&gt;Node18 -->
<g id="edge28" class="edge">
<title>Node2&#45;&gt;Node18</title>
<path fill="none" stroke="midnightblue" d="M484.51,-302.45C518.27,-294.35 569.03,-281.2 612,-266 613.66,-265.41 615.36,-264.78 617.06,-264.11"/>
<polygon fill="midnightblue" stroke="midnightblue" points="618.8,-267.18 626.69,-260.12 616.11,-260.72 618.8,-267.18"/>
</g>
<!-- Node4 -->
<g id="node4" class="node">
<title>Node4</title>
<g id="a_node4"><a xlink:href="BoomerangAPI_8h.html" target="_top" xlink:title=" ">
<polygon fill="white" stroke="black" points="378.5,-56.5 378.5,-86.5 533.5,-86.5 533.5,-56.5 378.5,-56.5"/>
<text text-anchor="start" x="386.5" y="-74.5" font-family="Helvetica,sans-Serif" font-size="10.00">boomerang/core/Boomerang</text>
<text text-anchor="middle" x="456" y="-63.5" font-family="Helvetica,sans-Serif" font-size="10.00">API.h</text>
</a>
</g>
</g>
<!-- Node3&#45;&gt;Node4 -->
<g id="edge3" class="edge">
<title>Node3&#45;&gt;Node4</title>
<path fill="none" stroke="midnightblue" d="M435.65,-179.32C438.96,-161.97 446.48,-122.46 451.4,-96.66"/>
<polygon fill="midnightblue" stroke="midnightblue" points="454.89,-97.02 453.32,-86.55 448.02,-95.71 454.89,-97.02"/>
</g>
<!-- Node3&#45;&gt;Node5 -->
<g id="edge4" class="edge">
<title>Node3&#45;&gt;Node5</title>
<path fill="none" stroke="midnightblue" d="M399.93,-179.44C361.29,-169.74 298.4,-153.94 257.87,-143.76"/>
<polygon fill="midnightblue" stroke="midnightblue" points="258.63,-140.35 248.08,-141.3 256.93,-147.13 258.63,-140.35"/>
</g>
<!-- Node6&#45;&gt;Node4 -->
<g id="edge6" class="edge">
<title>Node6&#45;&gt;Node4</title>
<path fill="none" stroke="midnightblue" d="M135.59,-123.48C196.35,-113.81 296.33,-97.9 368.47,-86.43"/>
<polygon fill="midnightblue" stroke="midnightblue" points="369.13,-89.86 378.45,-84.84 368.03,-82.95 369.13,-89.86"/>
</g>
<!-- Node7&#45;&gt;Node3 -->
<g id="edge8" class="edge">
<title>Node7&#45;&gt;Node3</title>
<path fill="none" stroke="midnightblue" d="M337.1,-235.4C358.12,-225.55 385.97,-212.5 406.42,-202.92"/>
<polygon fill="midnightblue" stroke="midnightblue" points="407.95,-206.07 415.52,-198.66 404.98,-199.73 407.95,-206.07"/>
</g>
<!-- Node7&#45;&gt;Node5 -->
<g id="edge21" class="edge">
<title>Node7&#45;&gt;Node5</title>
<path fill="none" stroke="midnightblue" d="M279.66,-235.3C265.36,-226.59 248.66,-214.19 238,-199 228.4,-185.31 223.6,-166.78 221.23,-153"/>
<polygon fill="midnightblue" stroke="midnightblue" points="224.65,-152.16 219.76,-142.76 217.72,-153.16 224.65,-152.16"/>
</g>
<!-- Node7&#45;&gt;Node8 -->
<g id="edge9" class="edge">
<title>Node7&#45;&gt;Node8</title>
<path fill="none" stroke="midnightblue" d="M380.52,-236.44C441.62,-225.59 527.4,-210.35 583.81,-200.34"/>
<polygon fill="midnightblue" stroke="midnightblue" points="584.75,-203.72 593.99,-198.53 583.53,-196.83 584.75,-203.72"/>
</g>
<!-- Node7&#45;&gt;Node14 -->
<g id="edge18" class="edge">
<title>Node7&#45;&gt;Node14</title>
<path fill="none" stroke="midnightblue" d="M273.35,-235.4C249.52,-225.42 217.85,-212.15 194.91,-202.53"/>
<polygon fill="midnightblue" stroke="midnightblue" points="196.24,-199.29 185.66,-198.66 193.53,-205.75 196.24,-199.29"/>
</g>
<!-- Node7&#45;&gt;Node15 -->
<g id="edge19" class="edge">
<title>Node7&#45;&gt;Node15</title>
<path fill="none" stroke="midnightblue" d="M309.84,-235.4C311.46,-227.38 313.51,-217.23 315.25,-208.57"/>
<polygon fill="midnightblue" stroke="midnightblue" points="318.71,-209.15 317.25,-198.66 311.85,-207.77 318.71,-209.15"/>
</g>
<!-- Node16 -->
<g id="node16" class="node">
<title>Node16</title>
<g id="a_node16"><a xlink:title=" ">
<polygon fill="white" stroke="#bfbfbf" points="247,-179.5 247,-198.5 285,-198.5 285,-179.5 247,-179.5"/>
<text text-anchor="middle" x="266" y="-186.5" font-family="Helvetica,sans-Serif" font-size="10.00">map</text>
</a>
</g>
</g>
<!-- Node7&#45;&gt;Node16 -->
<g id="edge20" class="edge">
<title>Node7&#45;&gt;Node16</title>
<path fill="none" stroke="midnightblue" d="M297.28,-235.4C291.45,-226.93 283.98,-216.1 277.81,-207.14"/>
<polygon fill="midnightblue" stroke="midnightblue" points="280.52,-204.91 271.97,-198.66 274.76,-208.88 280.52,-204.91"/>
</g>
<!-- Node8&#45;&gt;Node4 -->
<g id="edge10" class="edge">
<title>Node8&#45;&gt;Node4</title>
<path fill="none" stroke="midnightblue" d="M635.53,-179.32C625.01,-165.7 602.94,-139.22 579,-123 558.69,-109.24 534.04,-98.21 512.16,-90"/>
<polygon fill="midnightblue" stroke="midnightblue" points="513.25,-86.67 502.65,-86.54 510.86,-93.25 513.25,-86.67"/>
</g>
<!-- Node8&#45;&gt;Node9 -->
<g id="edge11" class="edge">
<title>Node8&#45;&gt;Node9</title>
<path fill="none" stroke="midnightblue" d="M657.75,-179.32C673.32,-170.74 697.38,-157.49 715.46,-147.52"/>
<polygon fill="midnightblue" stroke="midnightblue" points="717.22,-150.55 724.29,-142.65 713.85,-144.42 717.22,-150.55"/>
</g>
<!-- Node10 -->
<g id="node10" class="node">
<title>Node10</title>
<g id="a_node10"><a xlink:href="Types_8h.html" target="_top" xlink:title=" ">
<polygon fill="white" stroke="black" points="573.5,-62 573.5,-81 704.5,-81 704.5,-62 573.5,-62"/>
<text text-anchor="middle" x="639" y="-69" font-family="Helvetica,sans-Serif" font-size="10.00">boomerang/util/Types.h</text>
</a>
</g>
</g>
<!-- Node8&#45;&gt;Node10 -->
<g id="edge16" class="edge">
<title>Node8&#45;&gt;Node10</title>
<path fill="none" stroke="midnightblue" d="M641.77,-179.32C641.29,-160.76 640.15,-116.84 639.49,-91.47"/>
<polygon fill="midnightblue" stroke="midnightblue" points="642.99,-91.19 639.23,-81.28 635.99,-91.37 642.99,-91.19"/>
</g>
<!-- Node8&#45;&gt;Node13 -->
<g id="edge17" class="edge">
<title>Node8&#45;&gt;Node13</title>
<path fill="none" stroke="midnightblue" d="M626.09,-179.32C610.36,-170.74 586.06,-157.49 567.79,-147.52"/>
<polygon fill="midnightblue" stroke="midnightblue" points="569.32,-144.37 558.87,-142.65 565.97,-150.52 569.32,-144.37"/>
</g>
<!-- Node9&#45;&gt;Node4 -->
<g id="edge12" class="edge">
<title>Node9&#45;&gt;Node4</title>
<path fill="none" stroke="midnightblue" d="M699.31,-123.48C655.99,-114.4 586.43,-99.83 532.76,-88.58"/>
<polygon fill="midnightblue" stroke="midnightblue" points="533.44,-85.15 522.93,-86.52 532,-92 533.44,-85.15"/>
</g>
<!-- Node9&#45;&gt;Node10 -->
<g id="edge13" class="edge">
<title>Node9&#45;&gt;Node10</title>
<path fill="none" stroke="midnightblue" d="M725.53,-123.48C709.03,-113.75 681.82,-97.73 662.32,-86.24"/>
<polygon fill="midnightblue" stroke="midnightblue" points="663.84,-83.07 653.44,-81.01 660.28,-89.1 663.84,-83.07"/>
</g>
<!-- Node12 -->
<g id="node12" class="node">
<title>Node12</title>
<g id="a_node12"><a xlink:title=" ">
<polygon fill="white" stroke="#bfbfbf" points="723,-62 723,-81 769,-81 769,-62 723,-62"/>
<text text-anchor="middle" x="746" y="-69" font-family="Helvetica,sans-Serif" font-size="10.00">cstdio</text>
</a>
</g>
</g>
<!-- Node9&#45;&gt;Node12 -->
<g id="edge15" class="edge">
<title>Node9&#45;&gt;Node12</title>
<path fill="none" stroke="midnightblue" d="M740.86,-123.48C741.71,-115.08 743.03,-101.98 744.12,-91.16"/>
<polygon fill="midnightblue" stroke="midnightblue" points="747.62,-91.31 745.14,-81.01 740.66,-90.61 747.62,-91.31"/>
</g>
<!-- Node11 -->
<g id="node11" class="node">
<title>Node11</title>
<g id="a_node11"><a xlink:title=" ">
<polygon fill="white" stroke="#bfbfbf" points="614,-0.5 614,-19.5 664,-19.5 664,-0.5 614,-0.5"/>
<text text-anchor="middle" x="639" y="-7.5" font-family="Helvetica,sans-Serif" font-size="10.00">cstdint</text>
</a>
</g>
</g>
<!-- Node10&#45;&gt;Node11 -->
<g id="edge14" class="edge">
<title>Node10&#45;&gt;Node11</title>
<path fill="none" stroke="midnightblue" d="M639,-61.98C639,-53.58 639,-40.48 639,-29.66"/>
<polygon fill="midnightblue" stroke="midnightblue" points="642.5,-29.51 639,-19.51 635.5,-29.51 642.5,-29.51"/>
</g>
</g>
</svg>
