<?xml version="1.0" encoding="UTF-8" standalone="no"?>
<!DOCTYPE svg PUBLIC "-//W3C//DTD SVG 1.1//EN"
 "http://www.w3.org/Graphics/SVG/1.1/DTD/svg11.dtd">
<!-- Generated by graphviz version 2.43.0 (0)
 -->
<!-- Title: CustomSignature.h Pages: 1 -->
<svg width="242pt" height="84pt"
 viewBox="0.00 0.00 242.00 84.00" xmlns="http://www.w3.org/2000/svg" xmlns:xlink="http://www.w3.org/1999/xlink">
<g id="graph0" class="graph" transform="scale(1 1) rotate(0) translate(4 80)">
<title>CustomSignature.h</title>
<polygon fill="white" stroke="transparent" points="-4,4 -4,-80 238,-80 238,4 -4,4"/>
<!-- Node1 -->
<g id="node1" class="node">
<title>Node1</title>
<g id="a_node1"><a xlink:title=" ">
<polygon fill="#bfbfbf" stroke="black" points="68.5,-56.5 68.5,-75.5 178.5,-75.5 178.5,-56.5 68.5,-56.5"/>
<text text-anchor="middle" x="123.5" y="-63.5" font-family="Helvetica,sans-Serif" font-size="10.00">CustomSignature.h</text>
</a>
</g>
</g>
<!-- Node2 -->
<g id="node2" class="node">
<title>Node2</title>
<g id="a_node2"><a xlink:href="CustomSignature_8cpp.html" target="_top" xlink:title=" ">
<polygon fill="white" stroke="black" points="0,-0.5 0,-19.5 121,-19.5 121,-0.5 0,-0.5"/>
<text text-anchor="middle" x="60.5" y="-7.5" font-family="Helvetica,sans-Serif" font-size="10.00">CustomSignature.cpp</text>
</a>
</g>
</g>
<!-- Node1&#45;&gt;Node2 -->
<g id="edge1" class="edge">
<title>Node1&#45;&gt;Node2</title>
<path fill="none" stroke="midnightblue" d="M105.46,-49.54C94.23,-39.91 80.18,-27.87 70.81,-19.83"/>
<polygon fill="midnightblue" stroke="midnightblue" points="103.51,-52.47 113.38,-56.32 108.06,-47.16 103.51,-52.47"/>
</g>
<!-- Node3 -->
<g id="node3" class="node">
<title>Node3</title>
<g id="a_node3"><a xlink:href="AnsiCParser_8cpp.html" target="_top" xlink:title=" ">
<polygon fill="white" stroke="black" points="139,-0.5 139,-19.5 234,-19.5 234,-0.5 139,-0.5"/>
<text text-anchor="middle" x="186.5" y="-7.5" font-family="Helvetica,sans-Serif" font-size="10.00">AnsiCParser.cpp</text>
</a>
</g>
</g>
<!-- Node1&#45;&gt;Node3 -->
<g id="edge2" class="edge">
<title>Node1&#45;&gt;Node3</title>
<path fill="none" stroke="midnightblue" d="M141.54,-49.54C152.77,-39.91 166.82,-27.87 176.19,-19.83"/>
<polygon fill="midnightblue" stroke="midnightblue" points="138.94,-47.16 133.62,-56.32 143.49,-52.47 138.94,-47.16"/>
</g>
</g>
</svg>
