<?xml version="1.0" encoding="UTF-8" standalone="no"?>
<!DOCTYPE svg PUBLIC "-//W3C//DTD SVG 1.1//EN"
 "http://www.w3.org/Graphics/SVG/1.1/DTD/svg11.dtd">
<!-- Generated by graphviz version 2.43.0 (0)
 -->
<!-- Title: DefCollector.h Pages: 1 -->
<!--zoomable 598 -->
<svg id="main" version="1.1" xmlns="http://www.w3.org/2000/svg" xmlns:xlink="http://www.w3.org/1999/xlink" xml:space="preserve" onload="init(evt)">
<style type="text/css"><![CDATA[
.edge:hover path { stroke: red; }
.edge:hover polygon { stroke: red; fill: red; }
]]></style>
<script type="text/javascript"><![CDATA[
var edges = document.getElementsByTagName('g');
if (edges && edges.length) {
  for (var i=0;i<edges.length;i++) {
    if (edges[i].id.substr(0,4)=='edge') {
      edges[i].setAttribute('class','edge');
    }
  }
}
]]></script>
        <defs>
                <circle id="rim" cx="0" cy="0" r="7"/>
                <circle id="rim2" cx="0" cy="0" r="3.5"/>
                <g id="zoomPlus">
                        <use xlink:href="#rim" fill="#404040">
                                <set attributeName="fill" to="#808080" begin="zoomplus.mouseover" end="zoomplus.mouseout"/>
                        </use>
                        <path d="M-4,0h8M0,-4v8" fill="none" stroke="white" stroke-width="1.5" pointer-events="none"/>
                </g>
                <g id="zoomMin">
                        <use xlink:href="#rim" fill="#404040">
                                <set attributeName="fill" to="#808080" begin="zoomminus.mouseover" end="zoomminus.mouseout"/>
                        </use>
                        <path d="M-4,0h8" fill="none" stroke="white" stroke-width="1.5" pointer-events="none"/>
                </g>
                <g id="dirArrow">
                        <path fill="none" stroke="white" stroke-width="1.5" d="M0,-3.0v7 M-2.5,-0.5L0,-3.0L2.5,-0.5"/>
                </g>
               <g id="resetDef">
                       <use xlink:href="#rim2" fill="#404040">
                               <set attributeName="fill" to="#808080" begin="reset.mouseover" end="reset.mouseout"/>
                       </use>
               </g>
        </defs>

<script type="text/javascript">
var viewWidth = 762;
var viewHeight = 598;
var sectionId = 'dynsection-0';
</script>
<script xlink:href="svgpan.js"/>
<svg id="graph" class="graph">
<g id="viewport">
<title>DefCollector.h</title>
<polygon fill="white" stroke="transparent" points="-4,4 -4,-594 757.5,-594 757.5,4 -4,4"/>
<!-- Node1 -->
<g id="node1" class="node">
<title>Node1</title>
<g id="a_node1"><a xlink:title=" ">
<polygon fill="#bfbfbf" stroke="black" points="480,-570.5 480,-589.5 566,-589.5 566,-570.5 480,-570.5"/>
<text text-anchor="middle" x="523" y="-577.5" font-family="Helvetica,sans-Serif" font-size="10.00">DefCollector.h</text>
</a>
</g>
</g>
<!-- Node2 -->
<g id="node2" class="node">
<title>Node2</title>
<g id="a_node2"><a xlink:href="ExpHelp_8h.html" target="_top" xlink:title=" ">
<polygon fill="white" stroke="black" points="160,-179.5 160,-198.5 322,-198.5 322,-179.5 160,-179.5"/>
<text text-anchor="middle" x="241" y="-186.5" font-family="Helvetica,sans-Serif" font-size="10.00">boomerang/ssl/exp/ExpHelp.h</text>
</a>
</g>
</g>
<!-- Node1&#45;&gt;Node2 -->
<g id="edge1" class="edge">
<title>Node1&#45;&gt;Node2</title>
<path fill="none" stroke="midnightblue" d="M479.76,-574.74C375.54,-563.28 119,-527.47 119,-452.5 119,-452.5 119,-452.5 119,-316.5 119,-262.44 177.43,-222.62 213.42,-203.22"/>
<polygon fill="midnightblue" stroke="midnightblue" points="215.21,-206.23 222.47,-198.51 211.98,-200.02 215.21,-206.23"/>
</g>
<!-- Node5 -->
<g id="node5" class="node">
<title>Node5</title>
<g id="a_node5"><a xlink:href="StatementSet_8h.html" target="_top" xlink:title=" ">
<polygon fill="white" stroke="black" points="303.5,-503.5 303.5,-533.5 448.5,-533.5 448.5,-503.5 303.5,-503.5"/>
<text text-anchor="start" x="311.5" y="-521.5" font-family="Helvetica,sans-Serif" font-size="10.00">boomerang/util/Statement</text>
<text text-anchor="middle" x="376" y="-510.5" font-family="Helvetica,sans-Serif" font-size="10.00">Set.h</text>
</a>
</g>
</g>
<!-- Node1&#45;&gt;Node5 -->
<g id="edge4" class="edge">
<title>Node1&#45;&gt;Node5</title>
<path fill="none" stroke="midnightblue" d="M501.94,-570.48C480.63,-561.85 447.06,-548.26 419.94,-537.29"/>
<polygon fill="midnightblue" stroke="midnightblue" points="421.23,-534.03 410.64,-533.52 418.6,-540.52 421.23,-534.03"/>
</g>
<!-- Node18 -->
<g id="node18" class="node">
<title>Node18</title>
<g id="a_node18"><a xlink:title=" ">
<polygon fill="white" stroke="#bfbfbf" points="696,-179.5 696,-198.5 734,-198.5 734,-179.5 696,-179.5"/>
<text text-anchor="middle" x="715" y="-186.5" font-family="Helvetica,sans-Serif" font-size="10.00">map</text>
</a>
</g>
</g>
<!-- Node1&#45;&gt;Node18 -->
<g id="edge38" class="edge">
<title>Node1&#45;&gt;Node18</title>
<path fill="none" stroke="midnightblue" d="M547.43,-570.46C588.51,-554.37 667,-515.39 667,-452.5 667,-452.5 667,-452.5 667,-316.5 667,-275.21 689.63,-230.98 703.81,-207.32"/>
<polygon fill="midnightblue" stroke="midnightblue" points="706.82,-209.11 709.11,-198.77 700.87,-205.42 706.82,-209.11"/>
</g>
<!-- Node25 -->
<g id="node25" class="node">
<title>Node25</title>
<g id="a_node25"><a xlink:title=" ">
<polygon fill="white" stroke="#bfbfbf" points="695.5,-509 695.5,-528 738.5,-528 738.5,-509 695.5,-509"/>
<text text-anchor="middle" x="717" y="-516" font-family="Helvetica,sans-Serif" font-size="10.00">stack</text>
</a>
</g>
</g>
<!-- Node1&#45;&gt;Node25 -->
<g id="edge39" class="edge">
<title>Node1&#45;&gt;Node25</title>
<path fill="none" stroke="midnightblue" d="M556.92,-570.45C589.13,-562.07 638.78,-548.47 681,-534 683.12,-533.27 685.3,-532.49 687.49,-531.68"/>
<polygon fill="midnightblue" stroke="midnightblue" points="688.9,-534.88 696.96,-528.01 686.37,-528.36 688.9,-534.88"/>
</g>
<!-- Node3 -->
<g id="node3" class="node">
<title>Node3</title>
<g id="a_node3"><a xlink:href="BoomerangAPI_8h.html" target="_top" xlink:title=" ">
<polygon fill="white" stroke="black" points="307.5,-56.5 307.5,-86.5 462.5,-86.5 462.5,-56.5 307.5,-56.5"/>
<text text-anchor="start" x="315.5" y="-74.5" font-family="Helvetica,sans-Serif" font-size="10.00">boomerang/core/Boomerang</text>
<text text-anchor="middle" x="385" y="-63.5" font-family="Helvetica,sans-Serif" font-size="10.00">API.h</text>
</a>
</g>
</g>
<!-- Node2&#45;&gt;Node3 -->
<g id="edge2" class="edge">
<title>Node2&#45;&gt;Node3</title>
<path fill="none" stroke="midnightblue" d="M251.82,-179.32C274.52,-161.11 327.62,-118.52 359.49,-92.96"/>
<polygon fill="midnightblue" stroke="midnightblue" points="361.88,-95.53 367.49,-86.55 357.5,-90.07 361.88,-95.53"/>
</g>
<!-- Node4 -->
<g id="node4" class="node">
<title>Node4</title>
<g id="a_node4"><a xlink:title=" ">
<polygon fill="white" stroke="#bfbfbf" points="195,-123.5 195,-142.5 253,-142.5 253,-123.5 195,-123.5"/>
<text text-anchor="middle" x="224" y="-130.5" font-family="Helvetica,sans-Serif" font-size="10.00">memory</text>
</a>
</g>
</g>
<!-- Node2&#45;&gt;Node4 -->
<g id="edge3" class="edge">
<title>Node2&#45;&gt;Node4</title>
<path fill="none" stroke="midnightblue" d="M238.19,-179.08C235.92,-171.85 232.63,-161.41 229.79,-152.4"/>
<polygon fill="midnightblue" stroke="midnightblue" points="233.1,-151.24 226.75,-142.75 226.42,-153.34 233.1,-151.24"/>
</g>
<!-- Node5&#45;&gt;Node4 -->
<g id="edge36" class="edge">
<title>Node5&#45;&gt;Node4</title>
<path fill="none" stroke="midnightblue" d="M303.46,-507.3C255.06,-498.94 197.39,-485.48 181,-467 95.41,-370.49 80.18,-290.53 145,-179 153.87,-163.74 170.06,-153.23 185.48,-146.23"/>
<polygon fill="midnightblue" stroke="midnightblue" points="187.02,-149.38 194.91,-142.31 184.34,-142.91 187.02,-149.38"/>
</g>
<!-- Node6 -->
<g id="node6" class="node">
<title>Node6</title>
<g id="a_node6"><a xlink:href="Terminal_8h.html" target="_top" xlink:title=" ">
<polygon fill="white" stroke="black" points="294,-442 294,-461 458,-461 458,-442 294,-442"/>
<text text-anchor="middle" x="376" y="-449" font-family="Helvetica,sans-Serif" font-size="10.00">boomerang/ssl/exp/Terminal.h</text>
</a>
</g>
</g>
<!-- Node5&#45;&gt;Node6 -->
<g id="edge5" class="edge">
<title>Node5&#45;&gt;Node6</title>
<path fill="none" stroke="midnightblue" d="M376,-503.4C376,-494.06 376,-481.71 376,-471.52"/>
<polygon fill="midnightblue" stroke="midnightblue" points="379.5,-471.19 376,-461.19 372.5,-471.19 379.5,-471.19"/>
</g>
<!-- Node21 -->
<g id="node21" class="node">
<title>Node21</title>
<g id="a_node21"><a xlink:href="Assign_8h.html" target="_top" xlink:title=" ">
<polygon fill="white" stroke="black" points="477.5,-436.5 477.5,-466.5 624.5,-466.5 624.5,-436.5 477.5,-436.5"/>
<text text-anchor="start" x="485.5" y="-454.5" font-family="Helvetica,sans-Serif" font-size="10.00">boomerang/ssl/statements</text>
<text text-anchor="middle" x="551" y="-443.5" font-family="Helvetica,sans-Serif" font-size="10.00">/Assign.h</text>
</a>
</g>
</g>
<!-- Node5&#45;&gt;Node21 -->
<g id="edge32" class="edge">
<title>Node5&#45;&gt;Node21</title>
<path fill="none" stroke="midnightblue" d="M413.97,-503.4C440.23,-493.64 475.36,-480.59 503.48,-470.15"/>
<polygon fill="midnightblue" stroke="midnightblue" points="504.95,-473.34 513.1,-466.58 502.51,-466.78 504.95,-473.34"/>
</g>
<!-- Node24 -->
<g id="node24" class="node">
<title>Node24</title>
<g id="a_node24"><a xlink:title=" ">
<polygon fill="white" stroke="#bfbfbf" points="190,-442 190,-461 276,-461 276,-442 190,-442"/>
<text text-anchor="middle" x="233" y="-449" font-family="Helvetica,sans-Serif" font-size="10.00">unordered_set</text>
</a>
</g>
</g>
<!-- Node5&#45;&gt;Node24 -->
<g id="edge37" class="edge">
<title>Node5&#45;&gt;Node24</title>
<path fill="none" stroke="midnightblue" d="M344.97,-503.4C319.99,-492.04 285.18,-476.22 261.04,-465.24"/>
<polygon fill="midnightblue" stroke="midnightblue" points="262.27,-461.96 251.72,-461.01 259.37,-468.33 262.27,-461.96"/>
</g>
<!-- Node7 -->
<g id="node7" class="node">
<title>Node7</title>
<g id="a_node7"><a xlink:href="Exp_8h.html" target="_top" xlink:title=" ">
<polygon fill="white" stroke="black" points="303,-308 303,-327 443,-327 443,-308 303,-308"/>
<text text-anchor="middle" x="373" y="-315" font-family="Helvetica,sans-Serif" font-size="10.00">boomerang/ssl/exp/Exp.h</text>
</a>
</g>
</g>
<!-- Node6&#45;&gt;Node7 -->
<g id="edge6" class="edge">
<title>Node6&#45;&gt;Node7</title>
<path fill="none" stroke="midnightblue" d="M375.8,-441.84C375.32,-420.67 374.08,-365.95 373.42,-337.03"/>
<polygon fill="midnightblue" stroke="midnightblue" points="376.92,-336.94 373.19,-327.02 369.92,-337.1 376.92,-336.94"/>
</g>
<!-- Node7&#45;&gt;Node2 -->
<g id="edge7" class="edge">
<title>Node7&#45;&gt;Node2</title>
<path fill="none" stroke="midnightblue" d="M329.47,-307.93C304.67,-300.81 275.04,-288.13 257,-266 243.85,-249.86 240.74,-225.55 240.35,-208.79"/>
<polygon fill="midnightblue" stroke="midnightblue" points="243.85,-208.61 240.41,-198.59 236.85,-208.57 243.85,-208.61"/>
</g>
<!-- Node7&#45;&gt;Node4 -->
<g id="edge29" class="edge">
<title>Node7&#45;&gt;Node4</title>
<path fill="none" stroke="midnightblue" d="M325.39,-307.97C270.62,-295.21 184,-265.14 151,-199 139.7,-176.34 166.36,-158.02 190.58,-146.67"/>
<polygon fill="midnightblue" stroke="midnightblue" points="192.26,-149.76 200,-142.53 189.44,-143.35 192.26,-149.76"/>
</g>
<!-- Node8 -->
<g id="node8" class="node">
<title>Node8</title>
<g id="a_node8"><a xlink:href="Operator_8h.html" target="_top" xlink:title=" ">
<polygon fill="white" stroke="black" points="0,-123.5 0,-142.5 164,-142.5 164,-123.5 0,-123.5"/>
<text text-anchor="middle" x="82" y="-130.5" font-family="Helvetica,sans-Serif" font-size="10.00">boomerang/ssl/exp/Operator.h</text>
</a>
</g>
</g>
<!-- Node7&#45;&gt;Node8 -->
<g id="edge8" class="edge">
<title>Node7&#45;&gt;Node8</title>
<path fill="none" stroke="midnightblue" d="M302.98,-310.72C262.66,-304.59 212.68,-291.97 175,-266 132.24,-236.53 102.67,-180.59 89.59,-151.92"/>
<polygon fill="midnightblue" stroke="midnightblue" points="92.75,-150.43 85.52,-142.69 86.35,-153.25 92.75,-150.43"/>
</g>
<!-- Node9 -->
<g id="node9" class="node">
<title>Node9</title>
<g id="a_node9"><a xlink:href="Statement_8h.html" target="_top" xlink:title=" ">
<polygon fill="white" stroke="black" points="491.5,-235.5 491.5,-265.5 638.5,-265.5 638.5,-235.5 491.5,-235.5"/>
<text text-anchor="start" x="499.5" y="-253.5" font-family="Helvetica,sans-Serif" font-size="10.00">boomerang/ssl/statements</text>
<text text-anchor="middle" x="565" y="-242.5" font-family="Helvetica,sans-Serif" font-size="10.00">/Statement.h</text>
</a>
</g>
</g>
<!-- Node7&#45;&gt;Node9 -->
<g id="edge10" class="edge">
<title>Node7&#45;&gt;Node9</title>
<path fill="none" stroke="midnightblue" d="M398.5,-307.87C427.81,-297.95 476.65,-281.41 513.88,-268.81"/>
<polygon fill="midnightblue" stroke="midnightblue" points="515.21,-272.05 523.56,-265.53 512.97,-265.42 515.21,-272.05"/>
</g>
<!-- Node11 -->
<g id="node11" class="node">
<title>Node11</title>
<g id="a_node11"><a xlink:href="OStream_8h.html" target="_top" xlink:title=" ">
<polygon fill="white" stroke="black" points="514,-123.5 514,-142.5 660,-142.5 660,-123.5 514,-123.5"/>
<text text-anchor="middle" x="587" y="-130.5" font-family="Helvetica,sans-Serif" font-size="10.00">boomerang/util/OStream.h</text>
</a>
</g>
</g>
<!-- Node7&#45;&gt;Node11 -->
<g id="edge25" class="edge">
<title>Node7&#45;&gt;Node11</title>
<path fill="none" stroke="midnightblue" d="M426.11,-307.96C499.97,-295.89 626.94,-274.38 647,-266 695.01,-245.94 718.94,-245.13 743,-199 761.39,-163.74 716.57,-147.59 670.32,-140.21"/>
<polygon fill="midnightblue" stroke="midnightblue" points="670.54,-136.7 660.14,-138.72 669.53,-143.63 670.54,-136.7"/>
</g>
<!-- Node15 -->
<g id="node15" class="node">
<title>Node15</title>
<g id="a_node15"><a xlink:title=" ">
<polygon fill="white" stroke="#bfbfbf" points="342.5,-123.5 342.5,-142.5 395.5,-142.5 395.5,-123.5 342.5,-123.5"/>
<text text-anchor="middle" x="369" y="-130.5" font-family="Helvetica,sans-Serif" font-size="10.00">QString</text>
</a>
</g>
</g>
<!-- Node7&#45;&gt;Node15 -->
<g id="edge26" class="edge">
<title>Node7&#45;&gt;Node15</title>
<path fill="none" stroke="midnightblue" d="M345.67,-307.96C326.33,-300.32 301.82,-287.03 290,-266 283.25,-253.99 284.32,-247.55 290,-235 300,-212.91 315.57,-217.71 331,-199 343.06,-184.37 353.65,-165.46 360.57,-151.81"/>
<polygon fill="midnightblue" stroke="midnightblue" points="363.85,-153.07 365.1,-142.55 357.56,-149.99 363.85,-153.07"/>
</g>
<!-- Node16 -->
<g id="node16" class="node">
<title>Node16</title>
<g id="a_node16"><a xlink:title=" ">
<polygon fill="white" stroke="#bfbfbf" points="428,-179.5 428,-198.5 480,-198.5 480,-179.5 428,-179.5"/>
<text text-anchor="middle" x="454" y="-186.5" font-family="Helvetica,sans-Serif" font-size="10.00">cassert</text>
</a>
</g>
</g>
<!-- Node7&#45;&gt;Node16 -->
<g id="edge27" class="edge">
<title>Node7&#45;&gt;Node16</title>
<path fill="none" stroke="midnightblue" d="M383.29,-307.68C393.83,-298.22 410.18,-282.34 421,-266 433,-247.87 442.33,-224.66 447.97,-208.69"/>
<polygon fill="midnightblue" stroke="midnightblue" points="451.38,-209.53 451.26,-198.94 444.74,-207.29 451.38,-209.53"/>
</g>
<!-- Node17 -->
<g id="node17" class="node">
<title>Node17</title>
<g id="a_node17"><a xlink:title=" ">
<polygon fill="white" stroke="#bfbfbf" points="378,-179.5 378,-198.5 410,-198.5 410,-179.5 378,-179.5"/>
<text text-anchor="middle" x="394" y="-186.5" font-family="Helvetica,sans-Serif" font-size="10.00">list</text>
</a>
</g>
</g>
<!-- Node7&#45;&gt;Node17 -->
<g id="edge28" class="edge">
<title>Node7&#45;&gt;Node17</title>
<path fill="none" stroke="midnightblue" d="M380.59,-307.96C388.46,-298.48 400.26,-282.35 405,-266 410.61,-246.65 405.77,-223.66 400.85,-208.07"/>
<polygon fill="midnightblue" stroke="midnightblue" points="404.15,-206.9 397.57,-198.6 397.54,-209.19 404.15,-206.9"/>
</g>
<!-- Node19 -->
<g id="node19" class="node">
<title>Node19</title>
<g id="a_node19"><a xlink:title=" ">
<polygon fill="white" stroke="#bfbfbf" points="299,-241 299,-260 331,-260 331,-241 299,-241"/>
<text text-anchor="middle" x="315" y="-248" font-family="Helvetica,sans-Serif" font-size="10.00">set</text>
</a>
</g>
</g>
<!-- Node7&#45;&gt;Node19 -->
<g id="edge30" class="edge">
<title>Node7&#45;&gt;Node19</title>
<path fill="none" stroke="midnightblue" d="M365.18,-307.73C356.05,-297.5 340.76,-280.36 329.45,-267.69"/>
<polygon fill="midnightblue" stroke="midnightblue" points="331.97,-265.26 322.7,-260.13 326.74,-269.92 331.97,-265.26"/>
</g>
<!-- Node20 -->
<g id="node20" class="node">
<title>Node20</title>
<g id="a_node20"><a xlink:title=" ">
<polygon fill="white" stroke="#bfbfbf" points="349.5,-241 349.5,-260 396.5,-260 396.5,-241 349.5,-241"/>
<text text-anchor="middle" x="373" y="-248" font-family="Helvetica,sans-Serif" font-size="10.00">vector</text>
</a>
</g>
</g>
<!-- Node7&#45;&gt;Node20 -->
<g id="edge31" class="edge">
<title>Node7&#45;&gt;Node20</title>
<path fill="none" stroke="midnightblue" d="M373,-307.73C373,-298.18 373,-282.62 373,-270.28"/>
<polygon fill="midnightblue" stroke="midnightblue" points="376.5,-270.13 373,-260.13 369.5,-270.13 376.5,-270.13"/>
</g>
<!-- Node8&#45;&gt;Node3 -->
<g id="edge9" class="edge">
<title>Node8&#45;&gt;Node3</title>
<path fill="none" stroke="midnightblue" d="M125.41,-123.48C171.72,-114.38 246.15,-99.77 303.46,-88.51"/>
<polygon fill="midnightblue" stroke="midnightblue" points="304.45,-91.88 313.59,-86.52 303.1,-85.02 304.45,-91.88"/>
</g>
<!-- Node9&#45;&gt;Node2 -->
<g id="edge11" class="edge">
<title>Node9&#45;&gt;Node2</title>
<path fill="none" stroke="midnightblue" d="M491.48,-236C432.72,-225.21 351.56,-210.3 297.74,-200.42"/>
<polygon fill="midnightblue" stroke="midnightblue" points="298.15,-196.94 287.68,-198.57 296.89,-203.82 298.15,-196.94"/>
</g>
<!-- Node9&#45;&gt;Node4 -->
<g id="edge24" class="edge">
<title>Node9&#45;&gt;Node4</title>
<path fill="none" stroke="midnightblue" d="M554.09,-235.27C540.66,-218.87 516.28,-192.45 489,-179 449.95,-159.75 327.02,-144.65 263.25,-137.88"/>
<polygon fill="midnightblue" stroke="midnightblue" points="263.48,-134.39 253.17,-136.83 262.75,-141.35 263.48,-134.39"/>
</g>
<!-- Node10 -->
<g id="node10" class="node">
<title>Node10</title>
<g id="a_node10"><a xlink:href="Address_8h.html" target="_top" xlink:title=" ">
<polygon fill="white" stroke="black" points="536,-179.5 536,-198.5 678,-198.5 678,-179.5 536,-179.5"/>
<text text-anchor="middle" x="607" y="-186.5" font-family="Helvetica,sans-Serif" font-size="10.00">boomerang/util/Address.h</text>
</a>
</g>
</g>
<!-- Node9&#45;&gt;Node10 -->
<g id="edge12" class="edge">
<title>Node9&#45;&gt;Node10</title>
<path fill="none" stroke="midnightblue" d="M574.95,-235.4C580.99,-226.84 588.74,-215.87 595.1,-206.86"/>
<polygon fill="midnightblue" stroke="midnightblue" points="597.98,-208.85 600.89,-198.66 592.26,-204.81 597.98,-208.85"/>
</g>
<!-- Node9&#45;&gt;Node16 -->
<g id="edge21" class="edge">
<title>Node9&#45;&gt;Node16</title>
<path fill="none" stroke="midnightblue" d="M538.69,-235.4C520.74,-225.77 497.08,-213.09 479.33,-203.58"/>
<polygon fill="midnightblue" stroke="midnightblue" points="480.62,-200.3 470.15,-198.66 477.31,-206.47 480.62,-200.3"/>
</g>
<!-- Node9&#45;&gt;Node17 -->
<g id="edge22" class="edge">
<title>Node9&#45;&gt;Node17</title>
<path fill="none" stroke="midnightblue" d="M524.05,-235.49C496.87,-226.16 460.18,-213.49 419.66,-199.21"/>
<polygon fill="midnightblue" stroke="midnightblue" points="420.72,-195.87 410.13,-195.84 418.39,-202.47 420.72,-195.87"/>
</g>
<!-- Node9&#45;&gt;Node18 -->
<g id="edge23" class="edge">
<title>Node9&#45;&gt;Node18</title>
<path fill="none" stroke="midnightblue" d="M600.55,-235.4C626.74,-225.01 661.91,-211.06 686.32,-201.38"/>
<polygon fill="midnightblue" stroke="midnightblue" points="687.74,-204.58 695.75,-197.64 685.16,-198.07 687.74,-204.58"/>
</g>
<!-- Node10&#45;&gt;Node3 -->
<g id="edge13" class="edge">
<title>Node10&#45;&gt;Node3</title>
<path fill="none" stroke="midnightblue" d="M585.57,-179.39C564.69,-170.81 532.22,-156.94 505,-143 473.92,-127.08 439.68,-106.66 415.76,-91.9"/>
<polygon fill="midnightblue" stroke="midnightblue" points="417.47,-88.84 407.13,-86.54 413.78,-94.79 417.47,-88.84"/>
</g>
<!-- Node10&#45;&gt;Node11 -->
<g id="edge14" class="edge">
<title>Node10&#45;&gt;Node11</title>
<path fill="none" stroke="midnightblue" d="M603.7,-179.08C601.02,-171.85 597.15,-161.41 593.81,-152.4"/>
<polygon fill="midnightblue" stroke="midnightblue" points="597,-150.91 590.24,-142.75 590.43,-153.34 597,-150.91"/>
</g>
<!-- Node12 -->
<g id="node12" class="node">
<title>Node12</title>
<g id="a_node12"><a xlink:href="Types_8h.html" target="_top" xlink:title=" ">
<polygon fill="white" stroke="black" points="622.5,-62 622.5,-81 753.5,-81 753.5,-62 622.5,-62"/>
<text text-anchor="middle" x="688" y="-69" font-family="Helvetica,sans-Serif" font-size="10.00">boomerang/util/Types.h</text>
</a>
</g>
</g>
<!-- Node10&#45;&gt;Node12 -->
<g id="edge19" class="edge">
<title>Node10&#45;&gt;Node12</title>
<path fill="none" stroke="midnightblue" d="M624.83,-179.39C638.86,-171.72 657.83,-159.21 669,-143 679.66,-127.53 684.34,-106.34 686.4,-91.24"/>
<polygon fill="midnightblue" stroke="midnightblue" points="689.9,-91.4 687.51,-81.08 682.94,-90.63 689.9,-91.4"/>
</g>
<!-- Node10&#45;&gt;Node15 -->
<g id="edge20" class="edge">
<title>Node10&#45;&gt;Node15</title>
<path fill="none" stroke="midnightblue" d="M569.29,-179.44C524.42,-169.26 450.01,-152.38 405.62,-142.31"/>
<polygon fill="midnightblue" stroke="midnightblue" points="406.35,-138.89 395.83,-140.09 404.8,-145.71 406.35,-138.89"/>
</g>
<!-- Node11&#45;&gt;Node3 -->
<g id="edge15" class="edge">
<title>Node11&#45;&gt;Node3</title>
<path fill="none" stroke="midnightblue" d="M558.06,-123.48C528.02,-114.63 480.22,-100.55 442.47,-89.43"/>
<polygon fill="midnightblue" stroke="midnightblue" points="443.19,-85.99 432.61,-86.52 441.21,-92.71 443.19,-85.99"/>
</g>
<!-- Node11&#45;&gt;Node12 -->
<g id="edge16" class="edge">
<title>Node11&#45;&gt;Node12</title>
<path fill="none" stroke="midnightblue" d="M601.47,-123.48C617.97,-113.75 645.18,-97.73 664.68,-86.24"/>
<polygon fill="midnightblue" stroke="midnightblue" points="666.72,-89.1 673.56,-81.01 663.16,-83.07 666.72,-89.1"/>
</g>
<!-- Node14 -->
<g id="node14" class="node">
<title>Node14</title>
<g id="a_node14"><a xlink:title=" ">
<polygon fill="white" stroke="#bfbfbf" points="558,-62 558,-81 604,-81 604,-62 558,-62"/>
<text text-anchor="middle" x="581" y="-69" font-family="Helvetica,sans-Serif" font-size="10.00">cstdio</text>
</a>
</g>
</g>
<!-- Node11&#45;&gt;Node14 -->
<g id="edge18" class="edge">
<title>Node11&#45;&gt;Node14</title>
<path fill="none" stroke="midnightblue" d="M586.14,-123.48C585.29,-115.08 583.97,-101.98 582.88,-91.16"/>
<polygon fill="midnightblue" stroke="midnightblue" points="586.34,-90.61 581.86,-81.01 579.38,-91.31 586.34,-90.61"/>
</g>
<!-- Node13 -->
<g id="node13" class="node">
<title>Node13</title>
<g id="a_node13"><a xlink:title=" ">
<polygon fill="white" stroke="#bfbfbf" points="663,-0.5 663,-19.5 713,-19.5 713,-0.5 663,-0.5"/>
<text text-anchor="middle" x="688" y="-7.5" font-family="Helvetica,sans-Serif" font-size="10.00">cstdint</text>
</a>
</g>
</g>
<!-- Node12&#45;&gt;Node13 -->
<g id="edge17" class="edge">
<title>Node12&#45;&gt;Node13</title>
<path fill="none" stroke="midnightblue" d="M688,-61.98C688,-53.58 688,-40.48 688,-29.66"/>
<polygon fill="midnightblue" stroke="midnightblue" points="691.5,-29.51 688,-19.51 684.5,-29.51 691.5,-29.51"/>
</g>
<!-- Node22 -->
<g id="node22" class="node">
<title>Node22</title>
<g id="a_node22"><a xlink:href="Assignment_8h.html" target="_top" xlink:title=" ">
<polygon fill="white" stroke="black" points="478.5,-369.5 478.5,-399.5 625.5,-399.5 625.5,-369.5 478.5,-369.5"/>
<text text-anchor="start" x="486.5" y="-387.5" font-family="Helvetica,sans-Serif" font-size="10.00">boomerang/ssl/statements</text>
<text text-anchor="middle" x="552" y="-376.5" font-family="Helvetica,sans-Serif" font-size="10.00">/Assignment.h</text>
</a>
</g>
</g>
<!-- Node21&#45;&gt;Node22 -->
<g id="edge33" class="edge">
<title>Node21&#45;&gt;Node22</title>
<path fill="none" stroke="midnightblue" d="M551.22,-436.4C551.34,-428.64 551.49,-418.81 551.63,-409.86"/>
<polygon fill="midnightblue" stroke="midnightblue" points="555.13,-409.63 551.78,-399.58 548.13,-409.52 555.13,-409.63"/>
</g>
<!-- Node23 -->
<g id="node23" class="node">
<title>Node23</title>
<g id="a_node23"><a xlink:href="TypingStatement_8h.html" target="_top" xlink:title=" ">
<polygon fill="white" stroke="black" points="482.5,-302.5 482.5,-332.5 629.5,-332.5 629.5,-302.5 482.5,-302.5"/>
<text text-anchor="start" x="490.5" y="-320.5" font-family="Helvetica,sans-Serif" font-size="10.00">boomerang/ssl/statements</text>
<text text-anchor="middle" x="556" y="-309.5" font-family="Helvetica,sans-Serif" font-size="10.00">/TypingStatement.h</text>
</a>
</g>
</g>
<!-- Node22&#45;&gt;Node23 -->
<g id="edge34" class="edge">
<title>Node22&#45;&gt;Node23</title>
<path fill="none" stroke="midnightblue" d="M552.87,-369.4C553.35,-361.56 553.96,-351.6 554.52,-342.57"/>
<polygon fill="midnightblue" stroke="midnightblue" points="558.01,-342.77 555.13,-332.58 551.03,-342.34 558.01,-342.77"/>
</g>
<!-- Node23&#45;&gt;Node9 -->
<g id="edge35" class="edge">
<title>Node23&#45;&gt;Node9</title>
<path fill="none" stroke="midnightblue" d="M557.95,-302.4C559.04,-294.56 560.42,-284.6 561.67,-275.57"/>
<polygon fill="midnightblue" stroke="midnightblue" points="565.15,-275.96 563.05,-265.58 558.21,-275 565.15,-275.96"/>
</g>
</g>
</svg>
        <g id="navigator" transform="translate(0 0)" fill="#404254">
                <rect fill="#f2f5e9" fill-opacity="0.5" stroke="#606060" stroke-width=".5" x="0" y="0" width="60" height="60"/>
                <use id="zoomplus" xlink:href="#zoomPlus" x="17" y="9" onmousedown="handleZoom(evt,'in')"/>
                <use id="zoomminus" xlink:href="#zoomMin" x="42" y="9" onmousedown="handleZoom(evt,'out')"/>
                <use id="reset" xlink:href="#resetDef" x="30" y="36" onmousedown="handleReset()"/>
                <g id="arrowUp" xlink:href="#dirArrow" transform="translate(30 24)" onmousedown="handlePan(0,-1)">
                  <use xlink:href="#rim" fill="#404040">
                        <set attributeName="fill" to="#808080" begin="arrowUp.mouseover" end="arrowUp.mouseout"/>
                  </use>
                  <path fill="none" stroke="white" stroke-width="1.5" d="M0,-3.0v7 M-2.5,-0.5L0,-3.0L2.5,-0.5"/>
                </g>
                <g id="arrowRight" xlink:href="#dirArrow" transform="rotate(90) translate(36 -43)" onmousedown="handlePan(1,0)">
                  <use xlink:href="#rim" fill="#404040">
                        <set attributeName="fill" to="#808080" begin="arrowRight.mouseover" end="arrowRight.mouseout"/>
                  </use>
                  <path fill="none" stroke="white" stroke-width="1.5" d="M0,-3.0v7 M-2.5,-0.5L0,-3.0L2.5,-0.5"/>
                </g>
                <g id="arrowDown" xlink:href="#dirArrow" transform="rotate(180) translate(-30 -48)" onmousedown="handlePan(0,1)">
                  <use xlink:href="#rim" fill="#404040">
                        <set attributeName="fill" to="#808080" begin="arrowDown.mouseover" end="arrowDown.mouseout"/>
                  </use>
                  <path fill="none" stroke="white" stroke-width="1.5" d="M0,-3.0v7 M-2.5,-0.5L0,-3.0L2.5,-0.5"/>
                </g>
                <g id="arrowLeft" xlink:href="#dirArrow" transform="rotate(270) translate(-36 17)" onmousedown="handlePan(-1,0)">
                  <use xlink:href="#rim" fill="#404040">
                        <set attributeName="fill" to="#808080" begin="arrowLeft.mouseover" end="arrowLeft.mouseout"/>
                  </use>
                  <path fill="none" stroke="white" stroke-width="1.5" d="M0,-3.0v7 M-2.5,-0.5L0,-3.0L2.5,-0.5"/>
                </g>
        </g>
        <svg viewBox="0 0 15 15" width="100%" height="30px" preserveAspectRatio="xMaxYMin meet">
         <g id="arrow_out" transform="scale(0.3 0.3)">
          <a xlink:href="DefCollector_8h__incl_org.svg" target="_base">
           <rect id="button" ry="5" rx="5" y="6" x="6" height="38" width="38"
                fill="#f2f5e9" fill-opacity="0.5" stroke="#606060" stroke-width="1.0"/>
           <path id="arrow"
             d="M 11.500037,31.436501 C 11.940474,20.09759 22.043105,11.32322 32.158766,21.979434 L 37.068811,17.246167 C 37.068811,17.246167 37.088388,32 37.088388,32 L 22.160133,31.978069 C 22.160133,31.978069 26.997745,27.140456 26.997745,27.140456 C 18.528582,18.264221 13.291696,25.230495 11.500037,31.436501 z"
             style="fill:#404040;"/>
          </a>
         </g>
        </svg>
</svg>
