<?xml version="1.0" encoding="UTF-8" standalone="no"?>
<!DOCTYPE svg PUBLIC "-//W3C//DTD SVG 1.1//EN"
 "http://www.w3.org/Graphics/SVG/1.1/DTD/svg11.dtd">
<!-- Generated by graphviz version 2.43.0 (0)
 -->
<!-- Title: boomerang&#45;plugins Pages: 1 -->
<!--zoomable 159 -->
<svg id="main" version="1.1" xmlns="http://www.w3.org/2000/svg" xmlns:xlink="http://www.w3.org/1999/xlink" xml:space="preserve" onload="init(evt)">
<style type="text/css"><![CDATA[
.edge:hover path { stroke: red; }
.edge:hover polygon { stroke: red; fill: red; }
]]></style>
<script type="text/javascript"><![CDATA[
var edges = document.getElementsByTagName('g');
if (edges && edges.length) {
  for (var i=0;i<edges.length;i++) {
    if (edges[i].id.substr(0,4)=='edge') {
      edges[i].setAttribute('class','edge');
    }
  }
}
]]></script>
        <defs>
                <circle id="rim" cx="0" cy="0" r="7"/>
                <circle id="rim2" cx="0" cy="0" r="3.5"/>
                <g id="zoomPlus">
                        <use xlink:href="#rim" fill="#404040">
                                <set attributeName="fill" to="#808080" begin="zoomplus.mouseover" end="zoomplus.mouseout"/>
                        </use>
                        <path d="M-4,0h8M0,-4v8" fill="none" stroke="white" stroke-width="1.5" pointer-events="none"/>
                </g>
                <g id="zoomMin">
                        <use xlink:href="#rim" fill="#404040">
                                <set attributeName="fill" to="#808080" begin="zoomminus.mouseover" end="zoomminus.mouseout"/>
                        </use>
                        <path d="M-4,0h8" fill="none" stroke="white" stroke-width="1.5" pointer-events="none"/>
                </g>
                <g id="dirArrow">
                        <path fill="none" stroke="white" stroke-width="1.5" d="M0,-3.0v7 M-2.5,-0.5L0,-3.0L2.5,-0.5"/>
                </g>
               <g id="resetDef">
                       <use xlink:href="#rim2" fill="#404040">
                               <set attributeName="fill" to="#808080" begin="reset.mouseover" end="reset.mouseout"/>
                       </use>
               </g>
        </defs>

<script type="text/javascript">
var viewWidth = 609;
var viewHeight = 159;
var sectionId = 'dynsection-0';
</script>
<script xlink:href="svgpan.js"/>
<svg id="graph" class="graph">
<g id="viewport">
<title>boomerang&#45;plugins</title>
<polygon fill="white" stroke="transparent" points="-4,4 -4,-155 605,-155 605,4 -4,4"/>
<g id="clust1" class="cluster">
<title>clusterdir_68267d1309a1af8e8297ef4c3efbcdba</title>
<g id="a_clust1"><a xlink:href="dir_68267d1309a1af8e8297ef4c3efbcdba.html" target="_top" xlink:title="src">
<polygon fill="#ddddee" stroke="black" points="8,-56 8,-143 593,-143 593,-56 8,-56"/>
<text text-anchor="middle" x="300.5" y="-131" font-family="Helvetica,sans-Serif" font-size="10.00">src</text>
</a>
</g>
</g>
<g id="clust2" class="cluster">
<title>clusterdir_673183c191e84783e502f000e39cf706</title>
<g id="a_clust2"><a xlink:href="dir_673183c191e84783e502f000e39cf706.html" target="_top">
<polygon fill="#eeeeff" stroke="black" points="16,-64 16,-116 585,-116 585,-64 16,-64"/>
</a>
</g>
</g>
<!-- dir_673183c191e84783e502f000e39cf706 -->
<g id="node1" class="node">
<title>dir_673183c191e84783e502f000e39cf706</title>
<text text-anchor="middle" x="522" y="-87.5" font-family="Helvetica,sans-Serif" font-size="10.00">boomerang&#45;plugins</text>
</g>
<!-- dir_a6c2df410a7910d9a76d4d6a868aef3e -->
<g id="node2" class="node">
<title>dir_a6c2df410a7910d9a76d4d6a868aef3e</title>
<g id="a_node2"><a xlink:href="dir_a6c2df410a7910d9a76d4d6a868aef3e.html" target="_top" xlink:title="codegen">
<polygon fill="white" stroke="red" points="448,-108 390,-108 390,-72 448,-72 448,-108"/>
<text text-anchor="middle" x="419" y="-87.5" font-family="Helvetica,sans-Serif" font-size="10.00">codegen</text>
</a>
</g>
</g>
<!-- dir_8622b0e63b7fb230ba833b193101c161 -->
<g id="node8" class="node">
<title>dir_8622b0e63b7fb230ba833b193101c161</title>
<g id="a_node8"><a xlink:href="dir_8622b0e63b7fb230ba833b193101c161.html" target="_top" xlink:title="boomerang">
<polygon fill="white" stroke="red" points="268,-36 196,-36 196,0 268,0 268,-36"/>
<text text-anchor="middle" x="232" y="-15.5" font-family="Helvetica,sans-Serif" font-size="10.00">boomerang</text>
</a>
</g>
</g>
<!-- dir_a6c2df410a7910d9a76d4d6a868aef3e&#45;&gt;dir_8622b0e63b7fb230ba833b193101c161 -->
<g id="edge2" class="edge">
<title>dir_a6c2df410a7910d9a76d4d6a868aef3e&#45;&gt;dir_8622b0e63b7fb230ba833b193101c161</title>
<path fill="none" stroke="black" d="M402.5,-71.66C396.25,-65.95 388.75,-60.03 381,-56 348.81,-39.27 308.73,-29.87 278.25,-24.74"/>
<polygon fill="black" stroke="black" points="278.73,-21.27 268.3,-23.15 277.63,-28.18 278.73,-21.27"/>
<g id="a_edge2&#45;headlabel"><a xlink:href="dir_000025_000001.html" target="_top" xlink:title="36">
<text text-anchor="middle" x="282.72" y="-16.53" font-family="Helvetica,sans-Serif" font-size="10.00">36</text>
</a>
</g>
</g>
<!-- dir_172359ee9690668144b051e2e32ba7c5 -->
<g id="node3" class="node">
<title>dir_172359ee9690668144b051e2e32ba7c5</title>
<g id="a_node3"><a xlink:href="dir_172359ee9690668144b051e2e32ba7c5.html" target="_top" xlink:title="decoder">
<polygon fill="white" stroke="red" points="372,-108 316,-108 316,-72 372,-72 372,-108"/>
<text text-anchor="middle" x="344" y="-87.5" font-family="Helvetica,sans-Serif" font-size="10.00">decoder</text>
</a>
</g>
</g>
<!-- dir_172359ee9690668144b051e2e32ba7c5&#45;&gt;dir_8622b0e63b7fb230ba833b193101c161 -->
<g id="edge6" class="edge">
<title>dir_172359ee9690668144b051e2e32ba7c5&#45;&gt;dir_8622b0e63b7fb230ba833b193101c161</title>
<path fill="none" stroke="black" d="M326.74,-71.86C320.77,-66.42 313.85,-60.62 307,-56 297.78,-49.78 287.37,-43.98 277.3,-38.89"/>
<polygon fill="black" stroke="black" points="278.72,-35.69 268.2,-34.43 275.64,-41.97 278.72,-35.69"/>
<g id="a_edge6&#45;headlabel"><a xlink:href="dir_000022_000001.html" target="_top" xlink:title="46">
<text text-anchor="middle" x="283.2" y="-32.22" font-family="Helvetica,sans-Serif" font-size="10.00">46</text>
</a>
</g>
</g>
<!-- dir_13d483c2f680e12c66b3ccfe6f7c511a -->
<g id="node4" class="node">
<title>dir_13d483c2f680e12c66b3ccfe6f7c511a</title>
<g id="a_node4"><a xlink:href="dir_13d483c2f680e12c66b3ccfe6f7c511a.html" target="_top" xlink:title="frontend">
<polygon fill="white" stroke="red" points="298,-108 240,-108 240,-72 298,-72 298,-108"/>
<text text-anchor="middle" x="269" y="-87.5" font-family="Helvetica,sans-Serif" font-size="10.00">frontend</text>
</a>
</g>
</g>
<!-- dir_13d483c2f680e12c66b3ccfe6f7c511a&#45;&gt;dir_8622b0e63b7fb230ba833b193101c161 -->
<g id="edge3" class="edge">
<title>dir_13d483c2f680e12c66b3ccfe6f7c511a&#45;&gt;dir_8622b0e63b7fb230ba833b193101c161</title>
<path fill="none" stroke="black" d="M259.85,-71.7C255.6,-63.64 250.44,-53.89 245.73,-44.98"/>
<polygon fill="black" stroke="black" points="248.81,-43.31 241.04,-36.1 242.62,-46.58 248.81,-43.31"/>
<g id="a_edge3&#45;headlabel"><a xlink:href="dir_000049_000001.html" target="_top" xlink:title="54">
<text text-anchor="middle" x="253" y="-42.66" font-family="Helvetica,sans-Serif" font-size="10.00">54</text>
</a>
</g>
</g>
<!-- dir_7d44c4ac9e2a7b077e37d264a5efb96c -->
<g id="node5" class="node">
<title>dir_7d44c4ac9e2a7b077e37d264a5efb96c</title>
<g id="a_node5"><a xlink:href="dir_7d44c4ac9e2a7b077e37d264a5efb96c.html" target="_top" xlink:title="loader">
<polygon fill="white" stroke="red" points="222,-108 168,-108 168,-72 222,-72 222,-108"/>
<text text-anchor="middle" x="195" y="-87.5" font-family="Helvetica,sans-Serif" font-size="10.00">loader</text>
</a>
</g>
</g>
<!-- dir_7d44c4ac9e2a7b077e37d264a5efb96c&#45;&gt;dir_8622b0e63b7fb230ba833b193101c161 -->
<g id="edge5" class="edge">
<title>dir_7d44c4ac9e2a7b077e37d264a5efb96c&#45;&gt;dir_8622b0e63b7fb230ba833b193101c161</title>
<path fill="none" stroke="black" d="M204.15,-71.7C208.4,-63.64 213.56,-53.89 218.27,-44.98"/>
<polygon fill="black" stroke="black" points="221.38,-46.58 222.96,-36.1 215.19,-43.31 221.38,-46.58"/>
<g id="a_edge5&#45;headlabel"><a xlink:href="dir_000037_000001.html" target="_top" xlink:title="51">
<text text-anchor="middle" x="222.21" y="-48.59" font-family="Helvetica,sans-Serif" font-size="10.00">51</text>
</a>
</g>
</g>
<!-- dir_5ce3db1802c5b8e4374e175f04ca9541 -->
<g id="node6" class="node">
<title>dir_5ce3db1802c5b8e4374e175f04ca9541</title>
<g id="a_node6"><a xlink:href="dir_5ce3db1802c5b8e4374e175f04ca9541.html" target="_top" xlink:title="symbol">
<polygon fill="white" stroke="red" points="150,-108 96,-108 96,-72 150,-72 150,-108"/>
<text text-anchor="middle" x="123" y="-87.5" font-family="Helvetica,sans-Serif" font-size="10.00">symbol</text>
</a>
</g>
</g>
<!-- dir_5ce3db1802c5b8e4374e175f04ca9541&#45;&gt;dir_8622b0e63b7fb230ba833b193101c161 -->
<g id="edge1" class="edge">
<title>dir_5ce3db1802c5b8e4374e175f04ca9541&#45;&gt;dir_8622b0e63b7fb230ba833b193101c161</title>
<path fill="none" stroke="black" d="M139.77,-71.87C145.57,-66.43 152.31,-60.63 159,-56 167.68,-49.99 177.46,-44.36 186.98,-39.38"/>
<polygon fill="black" stroke="black" points="188.64,-42.47 195.99,-34.83 185.48,-36.22 188.64,-42.47"/>
<g id="a_edge1&#45;headlabel"><a xlink:href="dir_000004_000001.html" target="_top" xlink:title="26">
<text text-anchor="middle" x="186.72" y="-44.12" font-family="Helvetica,sans-Serif" font-size="10.00">26</text>
</a>
</g>
</g>
<!-- dir_721da5a0de15c9d82ad9efd7cc4b1d54 -->
<g id="node7" class="node">
<title>dir_721da5a0de15c9d82ad9efd7cc4b1d54</title>
<g id="a_node7"><a xlink:href="dir_721da5a0de15c9d82ad9efd7cc4b1d54.html" target="_top" xlink:title="type">
<polygon fill="white" stroke="red" points="78,-108 24,-108 24,-72 78,-72 78,-108"/>
<text text-anchor="middle" x="51" y="-87.5" font-family="Helvetica,sans-Serif" font-size="10.00">type</text>
</a>
</g>
</g>
<!-- dir_721da5a0de15c9d82ad9efd7cc4b1d54&#45;&gt;dir_8622b0e63b7fb230ba833b193101c161 -->
<g id="edge4" class="edge">
<title>dir_721da5a0de15c9d82ad9efd7cc4b1d54&#45;&gt;dir_8622b0e63b7fb230ba833b193101c161</title>
<path fill="none" stroke="black" d="M66.5,-71.67C72.42,-65.95 79.54,-60.03 87,-56 117.76,-39.36 156.27,-29.99 185.87,-24.84"/>
<polygon fill="black" stroke="black" points="186.64,-28.26 195.94,-23.19 185.51,-21.35 186.64,-28.26"/>
<g id="a_edge4&#45;headlabel"><a xlink:href="dir_000035_000001.html" target="_top" xlink:title="62">
<text text-anchor="middle" x="183.55" y="-29.15" font-family="Helvetica,sans-Serif" font-size="10.00">62</text>
</a>
</g>
</g>
</g>
</svg>
        <g id="navigator" transform="translate(0 0)" fill="#404254">
                <rect fill="#f2f5e9" fill-opacity="0.5" stroke="#606060" stroke-width=".5" x="0" y="0" width="60" height="60"/>
                <use id="zoomplus" xlink:href="#zoomPlus" x="17" y="9" onmousedown="handleZoom(evt,'in')"/>
                <use id="zoomminus" xlink:href="#zoomMin" x="42" y="9" onmousedown="handleZoom(evt,'out')"/>
                <use id="reset" xlink:href="#resetDef" x="30" y="36" onmousedown="handleReset()"/>
                <g id="arrowUp" xlink:href="#dirArrow" transform="translate(30 24)" onmousedown="handlePan(0,-1)">
                  <use xlink:href="#rim" fill="#404040">
                        <set attributeName="fill" to="#808080" begin="arrowUp.mouseover" end="arrowUp.mouseout"/>
                  </use>
                  <path fill="none" stroke="white" stroke-width="1.5" d="M0,-3.0v7 M-2.5,-0.5L0,-3.0L2.5,-0.5"/>
                </g>
                <g id="arrowRight" xlink:href="#dirArrow" transform="rotate(90) translate(36 -43)" onmousedown="handlePan(1,0)">
                  <use xlink:href="#rim" fill="#404040">
                        <set attributeName="fill" to="#808080" begin="arrowRight.mouseover" end="arrowRight.mouseout"/>
                  </use>
                  <path fill="none" stroke="white" stroke-width="1.5" d="M0,-3.0v7 M-2.5,-0.5L0,-3.0L2.5,-0.5"/>
                </g>
                <g id="arrowDown" xlink:href="#dirArrow" transform="rotate(180) translate(-30 -48)" onmousedown="handlePan(0,1)">
                  <use xlink:href="#rim" fill="#404040">
                        <set attributeName="fill" to="#808080" begin="arrowDown.mouseover" end="arrowDown.mouseout"/>
                  </use>
                  <path fill="none" stroke="white" stroke-width="1.5" d="M0,-3.0v7 M-2.5,-0.5L0,-3.0L2.5,-0.5"/>
                </g>
                <g id="arrowLeft" xlink:href="#dirArrow" transform="rotate(270) translate(-36 17)" onmousedown="handlePan(-1,0)">
                  <use xlink:href="#rim" fill="#404040">
                        <set attributeName="fill" to="#808080" begin="arrowLeft.mouseover" end="arrowLeft.mouseout"/>
                  </use>
                  <path fill="none" stroke="white" stroke-width="1.5" d="M0,-3.0v7 M-2.5,-0.5L0,-3.0L2.5,-0.5"/>
                </g>
        </g>
        <svg viewBox="0 0 15 15" width="100%" height="30px" preserveAspectRatio="xMaxYMin meet">
         <g id="arrow_out" transform="scale(0.3 0.3)">
          <a xlink:href="dir_673183c191e84783e502f000e39cf706_dep_org.svg" target="_base">
           <rect id="button" ry="5" rx="5" y="6" x="6" height="38" width="38"
                fill="#f2f5e9" fill-opacity="0.5" stroke="#606060" stroke-width="1.0"/>
           <path id="arrow"
             d="M 11.500037,31.436501 C 11.940474,20.09759 22.043105,11.32322 32.158766,21.979434 L 37.068811,17.246167 C 37.068811,17.246167 37.088388,32 37.088388,32 L 22.160133,31.978069 C 22.160133,31.978069 26.997745,27.140456 26.997745,27.140456 C 18.528582,18.264221 13.291696,25.230495 11.500037,31.436501 z"
             style="fill:#404040;"/>
          </a>
         </g>
        </svg>
</svg>
