<?xml version="1.0" encoding="UTF-8" standalone="no"?>
<!DOCTYPE svg PUBLIC "-//W3C//DTD SVG 1.1//EN"
 "http://www.w3.org/Graphics/SVG/1.1/DTD/svg11.dtd">
<!-- Generated by graphviz version 2.43.0 (0)
 -->
<!-- Title: visitor Pages: 1 -->
<svg width="509pt" height="326pt"
 viewBox="0.00 0.00 508.61 326.49" xmlns="http://www.w3.org/2000/svg" xmlns:xlink="http://www.w3.org/1999/xlink">
<g id="graph0" class="graph" transform="scale(1 1) rotate(0) translate(4 322.49)">
<title>visitor</title>
<polygon fill="white" stroke="transparent" points="-4,4 -4,-322.49 504.61,-322.49 504.61,4 -4,4"/>
<g id="clust1" class="cluster">
<title>clusterdir_8622b0e63b7fb230ba833b193101c161</title>
<g id="a_clust1"><a xlink:href="dir_8622b0e63b7fb230ba833b193101c161.html" target="_top" xlink:title="boomerang">
<polygon fill="#ddddee" stroke="black" points="8,-128 8,-287 386,-287 386,-128 8,-128"/>
<text text-anchor="middle" x="197" y="-275" font-family="Helvetica,sans-Serif" font-size="10.00">boomerang</text>
</a>
</g>
</g>
<g id="clust2" class="cluster">
<title>clusterdir_014c721151abc8438874b072d5fa83c2</title>
<g id="a_clust2"><a xlink:href="dir_014c721151abc8438874b072d5fa83c2.html" target="_top">
<polygon fill="#eeeeff" stroke="black" points="16,-136 16,-260 378,-260 378,-136 16,-136"/>
</a>
</g>
</g>
<!-- dir_014c721151abc8438874b072d5fa83c2 -->
<g id="node1" class="node">
<title>dir_014c721151abc8438874b072d5fa83c2</title>
<text text-anchor="middle" x="51" y="-231.5" font-family="Helvetica,sans-Serif" font-size="10.00">visitor</text>
</g>
<!-- dir_b92bdf1392c6a155b2fe0705d8bea461 -->
<g id="node2" class="node">
<title>dir_b92bdf1392c6a155b2fe0705d8bea461</title>
<g id="a_node2"><a xlink:href="dir_b92bdf1392c6a155b2fe0705d8bea461.html" target="_top" xlink:title="expmodifier">
<polygon fill="white" stroke="black" points="286,-180 210,-180 210,-144 286,-144 286,-180"/>
<text text-anchor="middle" x="248" y="-159.5" font-family="Helvetica,sans-Serif" font-size="10.00">expmodifier</text>
</a>
</g>
</g>
<!-- dir_cacbc0f8d661c3f2ef6995c140cb013b -->
<g id="node7" class="node">
<title>dir_cacbc0f8d661c3f2ef6995c140cb013b</title>
<g id="a_node7"><a xlink:href="dir_cacbc0f8d661c3f2ef6995c140cb013b.html" target="_top" xlink:title="db">
<polygon fill="white" stroke="red" points="448,-252 394,-252 394,-216 448,-216 448,-252"/>
<text text-anchor="middle" x="421" y="-231.5" font-family="Helvetica,sans-Serif" font-size="10.00">db</text>
</a>
</g>
</g>
<!-- dir_b92bdf1392c6a155b2fe0705d8bea461&#45;&gt;dir_cacbc0f8d661c3f2ef6995c140cb013b -->
<g id="edge33" class="edge">
<title>dir_b92bdf1392c6a155b2fe0705d8bea461&#45;&gt;dir_cacbc0f8d661c3f2ef6995c140cb013b</title>
<path fill="none" stroke="black" d="M284.36,-180.05C309.41,-190.25 343.2,-203.62 373,-216 376.66,-217.52 380.49,-219.15 384.35,-220.77"/>
<polygon fill="black" stroke="black" points="383.34,-224.14 393.91,-224.74 386.02,-217.68 383.34,-224.14"/>
<g id="a_edge33&#45;headlabel"><a xlink:href="dir_000021_000014.html" target="_top" xlink:title="10">
<text text-anchor="middle" x="378.93" y="-222.89" font-family="Helvetica,sans-Serif" font-size="10.00">10</text>
</a>
</g>
</g>
<!-- dir_b7264726bdfa508dc9a1f79664d9f9a2 -->
<g id="node8" class="node">
<title>dir_b7264726bdfa508dc9a1f79664d9f9a2</title>
<g id="a_node8"><a xlink:href="dir_b7264726bdfa508dc9a1f79664d9f9a2.html" target="_top" xlink:title="ssl">
<polygon fill="white" stroke="red" points="448,-180 394,-180 394,-144 448,-144 448,-180"/>
<text text-anchor="middle" x="421" y="-159.5" font-family="Helvetica,sans-Serif" font-size="10.00">ssl</text>
</a>
</g>
</g>
<!-- dir_b92bdf1392c6a155b2fe0705d8bea461&#45;&gt;dir_b7264726bdfa508dc9a1f79664d9f9a2 -->
<g id="edge34" class="edge">
<title>dir_b92bdf1392c6a155b2fe0705d8bea461&#45;&gt;dir_b7264726bdfa508dc9a1f79664d9f9a2</title>
<path fill="none" stroke="black" d="M270.13,-180.09C280.15,-187.14 292.52,-194.39 305,-198 334.03,-206.4 344.33,-207.56 373,-198 380.64,-195.45 388.05,-191.16 394.66,-186.4"/>
<polygon fill="black" stroke="black" points="396.84,-189.14 402.58,-180.24 392.54,-183.62 396.84,-189.14"/>
<g id="a_edge34&#45;headlabel"><a xlink:href="dir_000021_000007.html" target="_top" xlink:title="62">
<text text-anchor="middle" x="395.75" y="-191.09" font-family="Helvetica,sans-Serif" font-size="10.00">62</text>
</a>
</g>
</g>
<!-- dir_5646c4a3c156db227fe899778b3c4cdf -->
<g id="node9" class="node">
<title>dir_5646c4a3c156db227fe899778b3c4cdf</title>
<g id="a_node9"><a xlink:href="dir_5646c4a3c156db227fe899778b3c4cdf.html" target="_top" xlink:title="util">
<polygon fill="white" stroke="red" points="363,-36 309,-36 309,0 363,0 363,-36"/>
<text text-anchor="middle" x="336" y="-15.5" font-family="Helvetica,sans-Serif" font-size="10.00">util</text>
</a>
</g>
</g>
<!-- dir_b92bdf1392c6a155b2fe0705d8bea461&#45;&gt;dir_5646c4a3c156db227fe899778b3c4cdf -->
<g id="edge35" class="edge">
<title>dir_b92bdf1392c6a155b2fe0705d8bea461&#45;&gt;dir_5646c4a3c156db227fe899778b3c4cdf</title>
<path fill="none" stroke="black" d="M242.41,-143.98C237.27,-125.07 232.21,-94.25 245,-72 256.67,-51.7 279.43,-38.45 299.27,-30.27"/>
<polygon fill="black" stroke="black" points="300.62,-33.5 308.71,-26.66 298.12,-26.97 300.62,-33.5"/>
<g id="a_edge35&#45;headlabel"><a xlink:href="dir_000021_000002.html" target="_top" xlink:title="5">
<text text-anchor="middle" x="298.28" y="-34.94" font-family="Helvetica,sans-Serif" font-size="10.00">5</text>
</a>
</g>
</g>
<!-- dir_89a2a0f8e65887f6f5e7f07c9ce97f37 -->
<g id="node10" class="node">
<title>dir_89a2a0f8e65887f6f5e7f07c9ce97f37</title>
<g id="a_node10"><a xlink:href="dir_89a2a0f8e65887f6f5e7f07c9ce97f37.html" target="_top" xlink:title="core">
<polygon fill="white" stroke="red" points="308,-108 254,-108 254,-72 308,-72 308,-108"/>
<text text-anchor="middle" x="281" y="-87.5" font-family="Helvetica,sans-Serif" font-size="10.00">core</text>
</a>
</g>
</g>
<!-- dir_b92bdf1392c6a155b2fe0705d8bea461&#45;&gt;dir_89a2a0f8e65887f6f5e7f07c9ce97f37 -->
<g id="edge36" class="edge">
<title>dir_b92bdf1392c6a155b2fe0705d8bea461&#45;&gt;dir_89a2a0f8e65887f6f5e7f07c9ce97f37</title>
<path fill="none" stroke="black" d="M256.16,-143.7C259.91,-135.73 264.45,-126.1 268.62,-117.26"/>
<polygon fill="black" stroke="black" points="271.84,-118.64 272.94,-108.1 265.51,-115.66 271.84,-118.64"/>
<g id="a_edge36&#45;headlabel"><a xlink:href="dir_000021_000018.html" target="_top" xlink:title="3">
<text text-anchor="middle" x="272.87" y="-120.6" font-family="Helvetica,sans-Serif" font-size="10.00">3</text>
</a>
</g>
</g>
<!-- dir_d5873659e51aa5642b4dd8852fe8d0ae -->
<g id="node3" class="node">
<title>dir_d5873659e51aa5642b4dd8852fe8d0ae</title>
<g id="a_node3"><a xlink:href="dir_d5873659e51aa5642b4dd8852fe8d0ae.html" target="_top" xlink:title="expvisitor">
<polygon fill="white" stroke="black" points="369.5,-180 304.5,-180 304.5,-144 369.5,-144 369.5,-180"/>
<text text-anchor="middle" x="337" y="-159.5" font-family="Helvetica,sans-Serif" font-size="10.00">expvisitor</text>
</a>
</g>
</g>
<!-- dir_d5873659e51aa5642b4dd8852fe8d0ae&#45;&gt;dir_cacbc0f8d661c3f2ef6995c140cb013b -->
<g id="edge37" class="edge">
<title>dir_d5873659e51aa5642b4dd8852fe8d0ae&#45;&gt;dir_cacbc0f8d661c3f2ef6995c140cb013b</title>
<path fill="none" stroke="black" d="M357.53,-180.1C367.97,-188.8 380.83,-199.52 392.24,-209.03"/>
<polygon fill="black" stroke="black" points="390.31,-211.98 400.24,-215.7 394.79,-206.61 390.31,-211.98"/>
<g id="a_edge37&#45;headlabel"><a xlink:href="dir_000013_000014.html" target="_top" xlink:title="3">
<text text-anchor="middle" x="385.73" y="-209.36" font-family="Helvetica,sans-Serif" font-size="10.00">3</text>
</a>
</g>
</g>
<!-- dir_d5873659e51aa5642b4dd8852fe8d0ae&#45;&gt;dir_b7264726bdfa508dc9a1f79664d9f9a2 -->
<g id="edge38" class="edge">
<title>dir_d5873659e51aa5642b4dd8852fe8d0ae&#45;&gt;dir_b7264726bdfa508dc9a1f79664d9f9a2</title>
<path fill="none" stroke="black" d="M369.81,-162C374.44,-162 379.06,-162 383.68,-162"/>
<polygon fill="black" stroke="black" points="383.81,-165.5 393.81,-162 383.81,-158.5 383.81,-165.5"/>
<g id="a_edge38&#45;headlabel"><a xlink:href="dir_000013_000007.html" target="_top" xlink:title="16">
<text text-anchor="middle" x="380.21" y="-165.84" font-family="Helvetica,sans-Serif" font-size="10.00">16</text>
</a>
</g>
</g>
<!-- dir_d5873659e51aa5642b4dd8852fe8d0ae&#45;&gt;dir_5646c4a3c156db227fe899778b3c4cdf -->
<g id="edge39" class="edge">
<title>dir_d5873659e51aa5642b4dd8852fe8d0ae&#45;&gt;dir_5646c4a3c156db227fe899778b3c4cdf</title>
<path fill="none" stroke="black" d="M336.88,-143.87C336.71,-119.67 336.4,-75.21 336.19,-46.39"/>
<polygon fill="black" stroke="black" points="339.69,-46.16 336.12,-36.19 332.69,-46.21 339.69,-46.16"/>
<g id="a_edge39&#45;headlabel"><a xlink:href="dir_000013_000002.html" target="_top" xlink:title="1">
<text text-anchor="middle" x="342.56" y="-47.24" font-family="Helvetica,sans-Serif" font-size="10.00">1</text>
</a>
</g>
</g>
<!-- dir_d5873659e51aa5642b4dd8852fe8d0ae&#45;&gt;dir_89a2a0f8e65887f6f5e7f07c9ce97f37 -->
<g id="edge40" class="edge">
<title>dir_d5873659e51aa5642b4dd8852fe8d0ae&#45;&gt;dir_89a2a0f8e65887f6f5e7f07c9ce97f37</title>
<path fill="none" stroke="black" d="M323.16,-143.7C316.51,-135.39 308.42,-125.28 301.11,-116.14"/>
<polygon fill="black" stroke="black" points="303.66,-113.73 294.68,-108.1 298.2,-118.1 303.66,-113.73"/>
<g id="a_edge40&#45;headlabel"><a xlink:href="dir_000013_000018.html" target="_top" xlink:title="1">
<text text-anchor="middle" x="308.13" y="-112.26" font-family="Helvetica,sans-Serif" font-size="10.00">1</text>
</a>
</g>
</g>
<!-- dir_b2314dfbb7a332aca8fc31c62f23d6f1 -->
<g id="node4" class="node">
<title>dir_b2314dfbb7a332aca8fc31c62f23d6f1</title>
<g id="a_node4"><a xlink:href="dir_b2314dfbb7a332aca8fc31c62f23d6f1.html" target="_top" xlink:title="stmtexpvisitor">
<polygon fill="white" stroke="black" points="370,-252 282,-252 282,-216 370,-216 370,-252"/>
<text text-anchor="middle" x="326" y="-231.5" font-family="Helvetica,sans-Serif" font-size="10.00">stmtexpvisitor</text>
</a>
</g>
</g>
<!-- dir_b2314dfbb7a332aca8fc31c62f23d6f1&#45;&gt;dir_d5873659e51aa5642b4dd8852fe8d0ae -->
<g id="edge32" class="edge">
<title>dir_b2314dfbb7a332aca8fc31c62f23d6f1&#45;&gt;dir_d5873659e51aa5642b4dd8852fe8d0ae</title>
<path fill="none" stroke="black" d="M328.72,-215.7C329.93,-207.98 331.39,-198.71 332.74,-190.11"/>
<polygon fill="black" stroke="black" points="336.22,-190.53 334.31,-180.1 329.3,-189.44 336.22,-190.53"/>
<g id="a_edge32&#45;headlabel"><a xlink:href="dir_000055_000013.html" target="_top" xlink:title="4">
<text text-anchor="middle" x="338.46" y="-192.02" font-family="Helvetica,sans-Serif" font-size="10.00">4</text>
</a>
</g>
</g>
<!-- dir_b2314dfbb7a332aca8fc31c62f23d6f1&#45;&gt;dir_b7264726bdfa508dc9a1f79664d9f9a2 -->
<g id="edge30" class="edge">
<title>dir_b2314dfbb7a332aca8fc31c62f23d6f1&#45;&gt;dir_b7264726bdfa508dc9a1f79664d9f9a2</title>
<path fill="none" stroke="black" d="M343.57,-215.7C355.45,-206.22 371.38,-194.4 385.75,-184.35"/>
<polygon fill="black" stroke="black" points="387.75,-187.23 394,-178.67 383.78,-181.46 387.75,-187.23"/>
<g id="a_edge30&#45;headlabel"><a xlink:href="dir_000055_000007.html" target="_top" xlink:title="13">
<text text-anchor="middle" x="386.4" y="-189.1" font-family="Helvetica,sans-Serif" font-size="10.00">13</text>
</a>
</g>
</g>
<!-- dir_b2314dfbb7a332aca8fc31c62f23d6f1&#45;&gt;dir_89a2a0f8e65887f6f5e7f07c9ce97f37 -->
<g id="edge31" class="edge">
<title>dir_b2314dfbb7a332aca8fc31c62f23d6f1&#45;&gt;dir_89a2a0f8e65887f6f5e7f07c9ce97f37</title>
<path fill="none" stroke="black" d="M281.96,-217.06C247.96,-204.3 205.88,-187.37 201,-180 188.24,-160.73 188.55,-147.47 201,-128 210.56,-113.05 227.86,-104.05 243.94,-98.68"/>
<polygon fill="black" stroke="black" points="245.12,-101.98 253.72,-95.79 243.13,-95.27 245.12,-101.98"/>
<g id="a_edge31&#45;headlabel"><a xlink:href="dir_000055_000018.html" target="_top" xlink:title="1">
<text text-anchor="middle" x="242.48" y="-103.23" font-family="Helvetica,sans-Serif" font-size="10.00">1</text>
</a>
</g>
</g>
<!-- dir_b2dbe3ef876199a580a9e778cdd03e43 -->
<g id="node5" class="node">
<title>dir_b2dbe3ef876199a580a9e778cdd03e43</title>
<g id="a_node5"><a xlink:href="dir_b2dbe3ef876199a580a9e778cdd03e43.html" target="_top" xlink:title="stmtmodifier">
<polygon fill="white" stroke="black" points="176,-252 96,-252 96,-216 176,-216 176,-252"/>
<text text-anchor="middle" x="136" y="-231.5" font-family="Helvetica,sans-Serif" font-size="10.00">stmtmodifier</text>
</a>
</g>
</g>
<!-- dir_b2dbe3ef876199a580a9e778cdd03e43&#45;&gt;dir_b92bdf1392c6a155b2fe0705d8bea461 -->
<g id="edge22" class="edge">
<title>dir_b2dbe3ef876199a580a9e778cdd03e43&#45;&gt;dir_b92bdf1392c6a155b2fe0705d8bea461</title>
<path fill="none" stroke="black" d="M163.4,-215.88C177.91,-206.81 195.92,-195.55 211.59,-185.76"/>
<polygon fill="black" stroke="black" points="213.87,-188.46 220.5,-180.19 210.16,-182.52 213.87,-188.46"/>
<g id="a_edge22&#45;headlabel"><a xlink:href="dir_000056_000021.html" target="_top" xlink:title="5">
<text text-anchor="middle" x="212.33" y="-190.27" font-family="Helvetica,sans-Serif" font-size="10.00">5</text>
</a>
</g>
</g>
<!-- dir_b2dbe3ef876199a580a9e778cdd03e43&#45;&gt;dir_cacbc0f8d661c3f2ef6995c140cb013b -->
<g id="edge18" class="edge">
<title>dir_b2dbe3ef876199a580a9e778cdd03e43&#45;&gt;dir_cacbc0f8d661c3f2ef6995c140cb013b</title>
<path fill="none" stroke="black" d="M144.82,-252.18C154.3,-269.39 171.13,-294.15 194,-305 229.94,-322.05 337.87,-323.66 373,-305 390.3,-295.81 402.51,-277.29 410.28,-261.47"/>
<polygon fill="black" stroke="black" points="413.59,-262.63 414.55,-252.08 407.22,-259.73 413.59,-262.63"/>
<g id="a_edge18&#45;headlabel"><a xlink:href="dir_000056_000014.html" target="_top" xlink:title="2">
<text text-anchor="middle" x="414.69" y="-264.58" font-family="Helvetica,sans-Serif" font-size="10.00">2</text>
</a>
</g>
</g>
<!-- dir_b2dbe3ef876199a580a9e778cdd03e43&#45;&gt;dir_b7264726bdfa508dc9a1f79664d9f9a2 -->
<g id="edge19" class="edge">
<title>dir_b2dbe3ef876199a580a9e778cdd03e43&#45;&gt;dir_b7264726bdfa508dc9a1f79664d9f9a2</title>
<path fill="none" stroke="black" d="M176.25,-215.93C262.12,-193.37 287.95,-205.93 373,-180 376.71,-178.87 380.54,-177.49 384.36,-176"/>
<polygon fill="black" stroke="black" points="385.81,-179.19 393.76,-172.2 383.18,-172.71 385.81,-179.19"/>
<g id="a_edge19&#45;headlabel"><a xlink:href="dir_000056_000007.html" target="_top" xlink:title="20">
<text text-anchor="middle" x="383.54" y="-180.67" font-family="Helvetica,sans-Serif" font-size="10.00">20</text>
</a>
</g>
</g>
<!-- dir_b2dbe3ef876199a580a9e778cdd03e43&#45;&gt;dir_5646c4a3c156db227fe899778b3c4cdf -->
<g id="edge20" class="edge">
<title>dir_b2dbe3ef876199a580a9e778cdd03e43&#45;&gt;dir_5646c4a3c156db227fe899778b3c4cdf</title>
<path fill="none" stroke="black" d="M132.46,-215.99C128.84,-194.01 125.78,-155.32 142,-128 176.19,-70.4 253.06,-40.82 299.11,-27.73"/>
<polygon fill="black" stroke="black" points="300.27,-31.04 309,-25.04 298.43,-24.29 300.27,-31.04"/>
<g id="a_edge20&#45;headlabel"><a xlink:href="dir_000056_000002.html" target="_top" xlink:title="1">
<text text-anchor="middle" x="297.55" y="-32.23" font-family="Helvetica,sans-Serif" font-size="10.00">1</text>
</a>
</g>
</g>
<!-- dir_b2dbe3ef876199a580a9e778cdd03e43&#45;&gt;dir_89a2a0f8e65887f6f5e7f07c9ce97f37 -->
<g id="edge21" class="edge">
<title>dir_b2dbe3ef876199a580a9e778cdd03e43&#45;&gt;dir_89a2a0f8e65887f6f5e7f07c9ce97f37</title>
<path fill="none" stroke="black" d="M137.89,-215.67C141.29,-192.6 150.56,-151.96 175,-128 193.47,-109.9 221.26,-100.62 243.76,-95.88"/>
<polygon fill="black" stroke="black" points="244.5,-99.31 253.67,-94.01 243.2,-92.43 244.5,-99.31"/>
<g id="a_edge21&#45;headlabel"><a xlink:href="dir_000056_000018.html" target="_top" xlink:title="1">
<text text-anchor="middle" x="241.49" y="-100.26" font-family="Helvetica,sans-Serif" font-size="10.00">1</text>
</a>
</g>
</g>
<!-- dir_92236376d0dcb7dfe1c45a961a338569 -->
<g id="node6" class="node">
<title>dir_92236376d0dcb7dfe1c45a961a338569</title>
<g id="a_node6"><a xlink:href="dir_92236376d0dcb7dfe1c45a961a338569.html" target="_top" xlink:title="stmtvisitor">
<polygon fill="white" stroke="black" points="264,-252 194,-252 194,-216 264,-216 264,-252"/>
<text text-anchor="middle" x="229" y="-231.5" font-family="Helvetica,sans-Serif" font-size="10.00">stmtvisitor</text>
</a>
</g>
</g>
<!-- dir_92236376d0dcb7dfe1c45a961a338569&#45;&gt;dir_b92bdf1392c6a155b2fe0705d8bea461 -->
<g id="edge9" class="edge">
<title>dir_92236376d0dcb7dfe1c45a961a338569&#45;&gt;dir_b92bdf1392c6a155b2fe0705d8bea461</title>
<path fill="none" stroke="black" d="M233.7,-215.7C235.81,-207.9 238.36,-198.51 240.72,-189.83"/>
<polygon fill="black" stroke="black" points="244.12,-190.67 243.36,-180.1 237.36,-188.84 244.12,-190.67"/>
<g id="a_edge9&#45;headlabel"><a xlink:href="dir_000054_000021.html" target="_top" xlink:title="1">
<text text-anchor="middle" x="245.91" y="-192.38" font-family="Helvetica,sans-Serif" font-size="10.00">1</text>
</a>
</g>
</g>
<!-- dir_92236376d0dcb7dfe1c45a961a338569&#45;&gt;dir_b7264726bdfa508dc9a1f79664d9f9a2 -->
<g id="edge7" class="edge">
<title>dir_92236376d0dcb7dfe1c45a961a338569&#45;&gt;dir_b7264726bdfa508dc9a1f79664d9f9a2</title>
<path fill="none" stroke="black" d="M264.28,-215.9C312.08,-198.8 325.44,-198.18 373,-180 376.62,-178.62 380.4,-177.08 384.19,-175.52"/>
<polygon fill="black" stroke="black" points="385.67,-178.7 393.58,-171.65 383,-172.23 385.67,-178.7"/>
<g id="a_edge7&#45;headlabel"><a xlink:href="dir_000054_000007.html" target="_top" xlink:title="5">
<text text-anchor="middle" x="383.42" y="-180.2" font-family="Helvetica,sans-Serif" font-size="10.00">5</text>
</a>
</g>
</g>
<!-- dir_92236376d0dcb7dfe1c45a961a338569&#45;&gt;dir_89a2a0f8e65887f6f5e7f07c9ce97f37 -->
<g id="edge8" class="edge">
<title>dir_92236376d0dcb7dfe1c45a961a338569&#45;&gt;dir_89a2a0f8e65887f6f5e7f07c9ce97f37</title>
<path fill="none" stroke="black" d="M210.4,-215.76C201.47,-206.2 191.71,-193.53 187,-180 179.4,-158.17 173.99,-147.1 187,-128 199.67,-109.4 223.25,-100.15 243.63,-95.55"/>
<polygon fill="black" stroke="black" points="244.47,-98.95 253.61,-93.59 243.13,-92.08 244.47,-98.95"/>
<g id="a_edge8&#45;headlabel"><a xlink:href="dir_000054_000018.html" target="_top" xlink:title="1">
<text text-anchor="middle" x="241.49" y="-99.93" font-family="Helvetica,sans-Serif" font-size="10.00">1</text>
</a>
</g>
</g>
<!-- dir_cacbc0f8d661c3f2ef6995c140cb013b&#45;&gt;dir_014c721151abc8438874b072d5fa83c2 -->
<g id="edge1" class="edge">
<title>dir_cacbc0f8d661c3f2ef6995c140cb013b&#45;&gt;dir_014c721151abc8438874b072d5fa83c2</title>
<path fill="none" stroke="black" d="M414.55,-252.08C407.35,-269.2 393.89,-293.9 373,-305 345.82,-319.43 122.97,-319.84 96,-305 79.16,-295.74 67.74,-277.22 60.62,-261.42"/>
<polygon fill="black" stroke="black" points="63.79,-259.94 56.73,-252.04 57.33,-262.62 63.79,-259.94"/>
<g id="a_edge1&#45;headlabel"><a xlink:href="dir_000014_000012.html" target="_top" xlink:title="5">
<text text-anchor="middle" x="67.79" y="-259.67" font-family="Helvetica,sans-Serif" font-size="10.00">5</text>
</a>
</g>
</g>
<!-- dir_cacbc0f8d661c3f2ef6995c140cb013b&#45;&gt;dir_b92bdf1392c6a155b2fe0705d8bea461 -->
<g id="edge6" class="edge">
<title>dir_cacbc0f8d661c3f2ef6995c140cb013b&#45;&gt;dir_b92bdf1392c6a155b2fe0705d8bea461</title>
<path fill="none" stroke="black" d="M393.9,-217.21C392.92,-216.8 391.95,-216.4 391,-216 359.59,-202.95 323.74,-188.81 295.69,-178.42"/>
<polygon fill="black" stroke="black" points="296.7,-175.06 286.11,-174.91 294.29,-181.64 296.7,-175.06"/>
<g id="a_edge6&#45;headlabel"><a xlink:href="dir_000014_000021.html" target="_top" xlink:title="4">
<text text-anchor="middle" x="301.05" y="-171.13" font-family="Helvetica,sans-Serif" font-size="10.00">4</text>
</a>
</g>
</g>
<!-- dir_cacbc0f8d661c3f2ef6995c140cb013b&#45;&gt;dir_b2dbe3ef876199a580a9e778cdd03e43 -->
<g id="edge3" class="edge">
<title>dir_cacbc0f8d661c3f2ef6995c140cb013b&#45;&gt;dir_b2dbe3ef876199a580a9e778cdd03e43</title>
<path fill="none" stroke="black" d="M414.55,-252.08C407.35,-269.2 393.89,-293.9 373,-305 337.87,-323.66 229.94,-322.05 194,-305 174.89,-295.93 159.99,-277.14 150.07,-261.17"/>
<polygon fill="black" stroke="black" points="152.89,-259.05 144.82,-252.18 146.85,-262.58 152.89,-259.05"/>
<g id="a_edge3&#45;headlabel"><a xlink:href="dir_000014_000056.html" target="_top" xlink:title="1">
<text text-anchor="middle" x="157.16" y="-258.22" font-family="Helvetica,sans-Serif" font-size="10.00">1</text>
</a>
</g>
</g>
<!-- dir_cacbc0f8d661c3f2ef6995c140cb013b&#45;&gt;dir_b7264726bdfa508dc9a1f79664d9f9a2 -->
<g id="edge2" class="edge">
<title>dir_cacbc0f8d661c3f2ef6995c140cb013b&#45;&gt;dir_b7264726bdfa508dc9a1f79664d9f9a2</title>
<path fill="none" stroke="black" d="M415.08,-215.7C414.29,-207.98 414.06,-198.71 414.4,-190.11"/>
<polygon fill="black" stroke="black" points="417.9,-190.32 415.1,-180.1 410.92,-189.84 417.9,-190.32"/>
<g id="a_edge2&#45;headlabel"><a xlink:href="dir_000014_000007.html" target="_top" xlink:title="119">
<text text-anchor="middle" x="420.48" y="-191.61" font-family="Helvetica,sans-Serif" font-size="10.00">119</text>
</a>
</g>
</g>
<!-- dir_cacbc0f8d661c3f2ef6995c140cb013b&#45;&gt;dir_5646c4a3c156db227fe899778b3c4cdf -->
<g id="edge4" class="edge">
<title>dir_cacbc0f8d661c3f2ef6995c140cb013b&#45;&gt;dir_5646c4a3c156db227fe899778b3c4cdf</title>
<path fill="none" stroke="black" d="M443.09,-215.8C454.88,-206.9 468.12,-194.77 475,-180 484.75,-159.05 485.43,-148.63 475,-128 453.29,-85.05 405.79,-54.87 372.27,-37.33"/>
<polygon fill="black" stroke="black" points="373.71,-34.14 363.21,-32.71 370.53,-40.37 373.71,-34.14"/>
<g id="a_edge4&#45;headlabel"><a xlink:href="dir_000014_000002.html" target="_top" xlink:title="58">
<text text-anchor="middle" x="378.2" y="-30.74" font-family="Helvetica,sans-Serif" font-size="10.00">58</text>
</a>
</g>
</g>
<!-- dir_cacbc0f8d661c3f2ef6995c140cb013b&#45;&gt;dir_89a2a0f8e65887f6f5e7f07c9ce97f37 -->
<g id="edge5" class="edge">
<title>dir_cacbc0f8d661c3f2ef6995c140cb013b&#45;&gt;dir_89a2a0f8e65887f6f5e7f07c9ce97f37</title>
<path fill="none" stroke="black" d="M429.79,-215.98C444.63,-193.64 469.25,-154.18 448,-128 431.65,-107.86 362.37,-98.27 318.22,-94.03"/>
<polygon fill="black" stroke="black" points="318.4,-90.53 308.13,-93.11 317.77,-97.5 318.4,-90.53"/>
<g id="a_edge5&#45;headlabel"><a xlink:href="dir_000014_000018.html" target="_top" xlink:title="15">
<text text-anchor="middle" x="322.24" y="-85.53" font-family="Helvetica,sans-Serif" font-size="10.00">15</text>
</a>
</g>
</g>
<!-- dir_b7264726bdfa508dc9a1f79664d9f9a2&#45;&gt;dir_b92bdf1392c6a155b2fe0705d8bea461 -->
<g id="edge16" class="edge">
<title>dir_b7264726bdfa508dc9a1f79664d9f9a2&#45;&gt;dir_b92bdf1392c6a155b2fe0705d8bea461</title>
<path fill="none" stroke="black" d="M402.58,-180.24C394.26,-187.22 383.87,-194.38 373,-198 344.33,-207.56 334.03,-206.4 305,-198 295.84,-195.35 286.73,-190.74 278.57,-185.68"/>
<polygon fill="black" stroke="black" points="280.4,-182.69 270.13,-180.09 276.54,-188.53 280.4,-182.69"/>
<g id="a_edge16&#45;headlabel"><a xlink:href="dir_000007_000021.html" target="_top" xlink:title="21">
<text text-anchor="middle" x="284.97" y="-179.81" font-family="Helvetica,sans-Serif" font-size="10.00">21</text>
</a>
</g>
</g>
<!-- dir_b7264726bdfa508dc9a1f79664d9f9a2&#45;&gt;dir_d5873659e51aa5642b4dd8852fe8d0ae -->
<g id="edge17" class="edge">
<title>dir_b7264726bdfa508dc9a1f79664d9f9a2&#45;&gt;dir_d5873659e51aa5642b4dd8852fe8d0ae</title>
<path fill="none" stroke="black" d="M393.81,-162C389.18,-162 384.56,-162 379.94,-162"/>
<polygon fill="black" stroke="black" points="379.81,-158.5 369.81,-162 379.81,-165.5 379.81,-158.5"/>
<g id="a_edge17&#45;headlabel"><a xlink:href="dir_000007_000013.html" target="_top" xlink:title="21">
<text text-anchor="middle" x="383.41" y="-153.16" font-family="Helvetica,sans-Serif" font-size="10.00">21</text>
</a>
</g>
</g>
<!-- dir_b7264726bdfa508dc9a1f79664d9f9a2&#45;&gt;dir_b2314dfbb7a332aca8fc31c62f23d6f1 -->
<g id="edge15" class="edge">
<title>dir_b7264726bdfa508dc9a1f79664d9f9a2&#45;&gt;dir_b2314dfbb7a332aca8fc31c62f23d6f1</title>
<path fill="none" stroke="black" d="M403.58,-180.19C392.31,-189.18 377.36,-200.32 363.55,-210.04"/>
<polygon fill="black" stroke="black" points="361.35,-207.3 355.14,-215.88 365.35,-213.05 361.35,-207.3"/>
<g id="a_edge15&#45;headlabel"><a xlink:href="dir_000007_000055.html" target="_top" xlink:title="10">
<text text-anchor="middle" x="362.69" y="-200.42" font-family="Helvetica,sans-Serif" font-size="10.00">10</text>
</a>
</g>
</g>
<!-- dir_b7264726bdfa508dc9a1f79664d9f9a2&#45;&gt;dir_b2dbe3ef876199a580a9e778cdd03e43 -->
<g id="edge12" class="edge">
<title>dir_b7264726bdfa508dc9a1f79664d9f9a2&#45;&gt;dir_b2dbe3ef876199a580a9e778cdd03e43</title>
<path fill="none" stroke="black" d="M393.99,-179.04C392.99,-179.38 391.99,-179.7 391,-180 305.86,-205.95 280.07,-193.35 194,-216 191.4,-216.69 188.73,-217.44 186.04,-218.25"/>
<polygon fill="black" stroke="black" points="184.76,-214.98 176.26,-221.31 186.85,-221.66 184.76,-214.98"/>
<g id="a_edge12&#45;headlabel"><a xlink:href="dir_000007_000056.html" target="_top" xlink:title="20">
<text text-anchor="middle" x="187.34" y="-208.7" font-family="Helvetica,sans-Serif" font-size="10.00">20</text>
</a>
</g>
</g>
<!-- dir_b7264726bdfa508dc9a1f79664d9f9a2&#45;&gt;dir_92236376d0dcb7dfe1c45a961a338569 -->
<g id="edge11" class="edge">
<title>dir_b7264726bdfa508dc9a1f79664d9f9a2&#45;&gt;dir_92236376d0dcb7dfe1c45a961a338569</title>
<path fill="none" stroke="black" d="M393.93,-178.86C392.94,-179.25 391.97,-179.63 391,-180 343.34,-198.21 330.03,-198.8 282,-216 279.33,-216.96 276.57,-217.97 273.78,-219"/>
<polygon fill="black" stroke="black" points="272.39,-215.78 264.23,-222.54 274.82,-222.34 272.39,-215.78"/>
<g id="a_edge11&#45;headlabel"><a xlink:href="dir_000007_000054.html" target="_top" xlink:title="9">
<text text-anchor="middle" x="274.77" y="-209.37" font-family="Helvetica,sans-Serif" font-size="10.00">9</text>
</a>
</g>
</g>
<!-- dir_b7264726bdfa508dc9a1f79664d9f9a2&#45;&gt;dir_cacbc0f8d661c3f2ef6995c140cb013b -->
<g id="edge10" class="edge">
<title>dir_b7264726bdfa508dc9a1f79664d9f9a2&#45;&gt;dir_cacbc0f8d661c3f2ef6995c140cb013b</title>
<path fill="none" stroke="black" d="M426.9,-180.1C427.7,-187.79 427.94,-197.05 427.6,-205.67"/>
<polygon fill="black" stroke="black" points="424.11,-205.48 426.92,-215.7 431.09,-205.96 424.11,-205.48"/>
<g id="a_edge10&#45;headlabel"><a xlink:href="dir_000007_000014.html" target="_top" xlink:title="35">
<text text-anchor="middle" x="421.52" y="-199.2" font-family="Helvetica,sans-Serif" font-size="10.00">35</text>
</a>
</g>
</g>
<!-- dir_b7264726bdfa508dc9a1f79664d9f9a2&#45;&gt;dir_5646c4a3c156db227fe899778b3c4cdf -->
<g id="edge13" class="edge">
<title>dir_b7264726bdfa508dc9a1f79664d9f9a2&#45;&gt;dir_5646c4a3c156db227fe899778b3c4cdf</title>
<path fill="none" stroke="black" d="M406.16,-143.87C388.89,-119.35 361.5,-74.03 346.34,-45.26"/>
<polygon fill="black" stroke="black" points="349.37,-43.5 341.7,-36.19 343.14,-46.69 349.37,-43.5"/>
<g id="a_edge13&#45;headlabel"><a xlink:href="dir_000007_000002.html" target="_top" xlink:title="57">
<text text-anchor="middle" x="353.53" y="-42.9" font-family="Helvetica,sans-Serif" font-size="10.00">57</text>
</a>
</g>
</g>
<!-- dir_b7264726bdfa508dc9a1f79664d9f9a2&#45;&gt;dir_89a2a0f8e65887f6f5e7f07c9ce97f37 -->
<g id="edge14" class="edge">
<title>dir_b7264726bdfa508dc9a1f79664d9f9a2&#45;&gt;dir_89a2a0f8e65887f6f5e7f07c9ce97f37</title>
<path fill="none" stroke="black" d="M403.36,-143.8C396.99,-138.23 389.51,-132.37 382,-128 361.98,-116.36 337.64,-107.31 317.88,-101.08"/>
<polygon fill="black" stroke="black" points="318.88,-97.72 308.3,-98.16 316.84,-104.42 318.88,-97.72"/>
<g id="a_edge14&#45;headlabel"><a xlink:href="dir_000007_000018.html" target="_top" xlink:title="7">
<text text-anchor="middle" x="323.15" y="-93.55" font-family="Helvetica,sans-Serif" font-size="10.00">7</text>
</a>
</g>
</g>
<!-- dir_5646c4a3c156db227fe899778b3c4cdf&#45;&gt;dir_014c721151abc8438874b072d5fa83c2 -->
<g id="edge24" class="edge">
<title>dir_5646c4a3c156db227fe899778b3c4cdf&#45;&gt;dir_014c721151abc8438874b072d5fa83c2</title>
<path fill="none" stroke="black" d="M308.98,-20.78C270.55,-24.55 199.53,-36.2 152,-72 105.38,-107.11 74.97,-170.56 60.62,-206.43"/>
<polygon fill="black" stroke="black" points="57.35,-205.18 57,-215.76 63.88,-207.71 57.35,-205.18"/>
<g id="a_edge24&#45;headlabel"><a xlink:href="dir_000002_000012.html" target="_top" xlink:title="2">
<text text-anchor="middle" x="56" y="-198.3" font-family="Helvetica,sans-Serif" font-size="10.00">2</text>
</a>
</g>
</g>
<!-- dir_5646c4a3c156db227fe899778b3c4cdf&#45;&gt;dir_d5873659e51aa5642b4dd8852fe8d0ae -->
<g id="edge27" class="edge">
<title>dir_5646c4a3c156db227fe899778b3c4cdf&#45;&gt;dir_d5873659e51aa5642b4dd8852fe8d0ae</title>
<path fill="none" stroke="black" d="M341.82,-36.44C344.93,-46.67 348.43,-59.92 350,-72 352.06,-87.87 351.92,-92.12 350,-108 348.98,-116.47 347.07,-125.53 345.02,-133.72"/>
<polygon fill="black" stroke="black" points="341.6,-132.97 342.41,-143.53 348.36,-134.77 341.6,-132.97"/>
<g id="a_edge27&#45;headlabel"><a xlink:href="dir_000002_000013.html" target="_top" xlink:title="2">
<text text-anchor="middle" x="339.78" y="-126.26" font-family="Helvetica,sans-Serif" font-size="10.00">2</text>
</a>
</g>
</g>
<!-- dir_5646c4a3c156db227fe899778b3c4cdf&#45;&gt;dir_cacbc0f8d661c3f2ef6995c140cb013b -->
<g id="edge23" class="edge">
<title>dir_5646c4a3c156db227fe899778b3c4cdf&#45;&gt;dir_cacbc0f8d661c3f2ef6995c140cb013b</title>
<path fill="none" stroke="black" d="M363.3,-27.34C400.94,-41.85 466.37,-75.31 493,-128 503.43,-148.63 502.75,-159.05 493,-180 485.66,-195.77 471.05,-208.53 456.78,-217.57"/>
<polygon fill="black" stroke="black" points="454.87,-214.64 448.01,-222.72 458.41,-220.68 454.87,-214.64"/>
<g id="a_edge23&#45;headlabel"><a xlink:href="dir_000002_000014.html" target="_top" xlink:title="21">
<text text-anchor="middle" x="456.53" y="-207.87" font-family="Helvetica,sans-Serif" font-size="10.00">21</text>
</a>
</g>
</g>
<!-- dir_5646c4a3c156db227fe899778b3c4cdf&#45;&gt;dir_b7264726bdfa508dc9a1f79664d9f9a2 -->
<g id="edge25" class="edge">
<title>dir_5646c4a3c156db227fe899778b3c4cdf&#45;&gt;dir_b7264726bdfa508dc9a1f79664d9f9a2</title>
<path fill="none" stroke="black" d="M350.88,-36.19C368.17,-60.74 395.56,-106.07 410.7,-134.81"/>
<polygon fill="black" stroke="black" points="407.66,-136.56 415.33,-143.87 413.89,-133.37 407.66,-136.56"/>
<g id="a_edge25&#45;headlabel"><a xlink:href="dir_000002_000007.html" target="_top" xlink:title="41">
<text text-anchor="middle" x="403.5" y="-132.15" font-family="Helvetica,sans-Serif" font-size="10.00">41</text>
</a>
</g>
</g>
<!-- dir_5646c4a3c156db227fe899778b3c4cdf&#45;&gt;dir_89a2a0f8e65887f6f5e7f07c9ce97f37 -->
<g id="edge26" class="edge">
<title>dir_5646c4a3c156db227fe899778b3c4cdf&#45;&gt;dir_89a2a0f8e65887f6f5e7f07c9ce97f37</title>
<path fill="none" stroke="black" d="M328.46,-36.1C322.76,-44.47 314.93,-54.69 307.21,-63.92"/>
<polygon fill="black" stroke="black" points="304.38,-61.84 300.51,-71.7 309.69,-66.4 304.38,-61.84"/>
<g id="a_edge26&#45;headlabel"><a xlink:href="dir_000002_000018.html" target="_top" xlink:title="15">
<text text-anchor="middle" x="304.58" y="-54.76" font-family="Helvetica,sans-Serif" font-size="10.00">15</text>
</a>
</g>
</g>
<!-- dir_89a2a0f8e65887f6f5e7f07c9ce97f37&#45;&gt;dir_cacbc0f8d661c3f2ef6995c140cb013b -->
<g id="edge28" class="edge">
<title>dir_89a2a0f8e65887f6f5e7f07c9ce97f37&#45;&gt;dir_cacbc0f8d661c3f2ef6995c140cb013b</title>
<path fill="none" stroke="black" d="M308.33,-92.3C355.21,-95.31 446.86,-104.42 466,-128 485.01,-151.42 467.31,-185.46 448.63,-208.38"/>
<polygon fill="black" stroke="black" points="445.94,-206.13 442.04,-215.98 451.23,-210.72 445.94,-206.13"/>
<g id="a_edge28&#45;headlabel"><a xlink:href="dir_000018_000014.html" target="_top" xlink:title="3">
<text text-anchor="middle" x="446.15" y="-199.06" font-family="Helvetica,sans-Serif" font-size="10.00">3</text>
</a>
</g>
</g>
<!-- dir_89a2a0f8e65887f6f5e7f07c9ce97f37&#45;&gt;dir_5646c4a3c156db227fe899778b3c4cdf -->
<g id="edge29" class="edge">
<title>dir_89a2a0f8e65887f6f5e7f07c9ce97f37&#45;&gt;dir_5646c4a3c156db227fe899778b3c4cdf</title>
<path fill="none" stroke="black" d="M288.68,-71.7C294.41,-63.3 302.26,-53.07 309.97,-43.86"/>
<polygon fill="black" stroke="black" points="312.78,-45.96 316.67,-36.1 307.48,-41.39 312.78,-45.96"/>
<g id="a_edge29&#45;headlabel"><a xlink:href="dir_000018_000002.html" target="_top" xlink:title="8">
<text text-anchor="middle" x="312.59" y="-48.04" font-family="Helvetica,sans-Serif" font-size="10.00">8</text>
</a>
</g>
</g>
</g>
</svg>
