<?xml version="1.0" encoding="UTF-8" standalone="no"?>
<!DOCTYPE svg PUBLIC "-//W3C//DTD SVG 1.1//EN"
 "http://www.w3.org/Graphics/SVG/1.1/DTD/svg11.dtd">
<!-- Generated by graphviz version 2.43.0 (0)
 -->
<!-- Title: statements Pages: 1 -->
<!--zoomable 548 -->
<svg id="main" version="1.1" xmlns="http://www.w3.org/2000/svg" xmlns:xlink="http://www.w3.org/1999/xlink" xml:space="preserve" onload="init(evt)">
<style type="text/css"><![CDATA[
.edge:hover path { stroke: red; }
.edge:hover polygon { stroke: red; fill: red; }
]]></style>
<script type="text/javascript"><![CDATA[
var edges = document.getElementsByTagName('g');
if (edges && edges.length) {
  for (var i=0;i<edges.length;i++) {
    if (edges[i].id.substr(0,4)=='edge') {
      edges[i].setAttribute('class','edge');
    }
  }
}
]]></script>
        <defs>
                <circle id="rim" cx="0" cy="0" r="7"/>
                <circle id="rim2" cx="0" cy="0" r="3.5"/>
                <g id="zoomPlus">
                        <use xlink:href="#rim" fill="#404040">
                                <set attributeName="fill" to="#808080" begin="zoomplus.mouseover" end="zoomplus.mouseout"/>
                        </use>
                        <path d="M-4,0h8M0,-4v8" fill="none" stroke="white" stroke-width="1.5" pointer-events="none"/>
                </g>
                <g id="zoomMin">
                        <use xlink:href="#rim" fill="#404040">
                                <set attributeName="fill" to="#808080" begin="zoomminus.mouseover" end="zoomminus.mouseout"/>
                        </use>
                        <path d="M-4,0h8" fill="none" stroke="white" stroke-width="1.5" pointer-events="none"/>
                </g>
                <g id="dirArrow">
                        <path fill="none" stroke="white" stroke-width="1.5" d="M0,-3.0v7 M-2.5,-0.5L0,-3.0L2.5,-0.5"/>
                </g>
               <g id="resetDef">
                       <use xlink:href="#rim2" fill="#404040">
                               <set attributeName="fill" to="#808080" begin="reset.mouseover" end="reset.mouseout"/>
                       </use>
               </g>
        </defs>

<script type="text/javascript">
var viewWidth = 740;
var viewHeight = 548;
var sectionId = 'dynsection-0';
</script>
<script xlink:href="svgpan.js"/>
<svg id="graph" class="graph">
<g id="viewport">
<title>statements</title>
<polygon fill="white" stroke="transparent" points="-4,4 -4,-544 736,-544 736,4 -4,4"/>
<g id="clust1" class="cluster">
<title>clusterdir_b7264726bdfa508dc9a1f79664d9f9a2</title>
<g id="a_clust1"><a xlink:href="dir_b7264726bdfa508dc9a1f79664d9f9a2.html" target="_top" xlink:title="ssl">
<polygon fill="#ddddee" stroke="black" points="220,-424 220,-495 308,-495 308,-424 220,-424"/>
<text text-anchor="middle" x="264" y="-483" font-family="Helvetica,sans-Serif" font-size="10.00">ssl</text>
</a>
</g>
</g>
<!-- dir_ce2dbf2f59050224e9f81d9bf5259747 -->
<g id="node1" class="node">
<title>dir_ce2dbf2f59050224e9f81d9bf5259747</title>
<g id="a_node1"><a xlink:href="dir_ce2dbf2f59050224e9f81d9bf5259747.html" target="_top" xlink:title="statements">
<polygon fill="#eeeeff" stroke="black" points="300,-468 228,-468 228,-432 300,-432 300,-468"/>
<text text-anchor="middle" x="264" y="-447.5" font-family="Helvetica,sans-Serif" font-size="10.00">statements</text>
</a>
</g>
</g>
<!-- dir_cacbc0f8d661c3f2ef6995c140cb013b -->
<g id="node2" class="node">
<title>dir_cacbc0f8d661c3f2ef6995c140cb013b</title>
<g id="a_node2"><a xlink:href="dir_cacbc0f8d661c3f2ef6995c140cb013b.html" target="_top" xlink:title="db">
<polygon fill="white" stroke="red" points="457,-540 403,-540 403,-504 457,-504 457,-540"/>
<text text-anchor="middle" x="430" y="-519.5" font-family="Helvetica,sans-Serif" font-size="10.00">db</text>
</a>
</g>
</g>
<!-- dir_ce2dbf2f59050224e9f81d9bf5259747&#45;&gt;dir_cacbc0f8d661c3f2ef6995c140cb013b -->
<g id="edge40" class="edge">
<title>dir_ce2dbf2f59050224e9f81d9bf5259747&#45;&gt;dir_cacbc0f8d661c3f2ef6995c140cb013b</title>
<path fill="none" stroke="black" d="M280.49,-468.01C293.22,-477.01 311.02,-487.67 328,-495 348.58,-503.88 373.03,-510.58 392.97,-514.95"/>
<polygon fill="black" stroke="black" points="392.45,-518.42 402.95,-517.02 393.87,-511.56 392.45,-518.42"/>
<g id="a_edge40&#45;headlabel"><a xlink:href="dir_000009_000014.html" target="_top" xlink:title="22">
<text text-anchor="middle" x="388.35" y="-517.96" font-family="Helvetica,sans-Serif" font-size="10.00">22</text>
</a>
</g>
</g>
<!-- dir_00cea25d4360966f2fbb8df56cdad836 -->
<g id="node3" class="node">
<title>dir_00cea25d4360966f2fbb8df56cdad836</title>
<g id="a_node3"><a xlink:href="dir_00cea25d4360966f2fbb8df56cdad836.html" target="_top" xlink:title="ifc">
<polygon fill="none" stroke="black" points="384,-396 330,-396 330,-360 384,-360 384,-396"/>
<text text-anchor="middle" x="357" y="-375.5" font-family="Helvetica,sans-Serif" font-size="10.00">ifc</text>
</a>
</g>
</g>
<!-- dir_ce2dbf2f59050224e9f81d9bf5259747&#45;&gt;dir_00cea25d4360966f2fbb8df56cdad836 -->
<g id="edge41" class="edge">
<title>dir_ce2dbf2f59050224e9f81d9bf5259747&#45;&gt;dir_00cea25d4360966f2fbb8df56cdad836</title>
<path fill="none" stroke="black" d="M286.99,-431.7C298.81,-422.8 313.39,-411.82 326.18,-402.2"/>
<polygon fill="black" stroke="black" points="328.39,-404.91 334.28,-396.1 324.18,-399.32 328.39,-404.91"/>
<g id="a_edge41&#45;headlabel"><a xlink:href="dir_000009_000044.html" target="_top" xlink:title="5">
<text text-anchor="middle" x="327.23" y="-406.84" font-family="Helvetica,sans-Serif" font-size="10.00">5</text>
</a>
</g>
</g>
<!-- dir_3731137dd4cde3a8f32b6960f0d2e696 -->
<g id="node4" class="node">
<title>dir_3731137dd4cde3a8f32b6960f0d2e696</title>
<g id="a_node4"><a xlink:href="dir_3731137dd4cde3a8f32b6960f0d2e696.html" target="_top" xlink:title="passes">
<polygon fill="white" stroke="red" points="457,-468 403,-468 403,-432 457,-432 457,-468"/>
<text text-anchor="middle" x="430" y="-447.5" font-family="Helvetica,sans-Serif" font-size="10.00">passes</text>
</a>
</g>
</g>
<!-- dir_ce2dbf2f59050224e9f81d9bf5259747&#45;&gt;dir_3731137dd4cde3a8f32b6960f0d2e696 -->
<g id="edge42" class="edge">
<title>dir_ce2dbf2f59050224e9f81d9bf5259747&#45;&gt;dir_3731137dd4cde3a8f32b6960f0d2e696</title>
<path fill="none" stroke="black" d="M300.31,-450C331.17,-450 362.02,-450 392.88,-450"/>
<polygon fill="black" stroke="black" points="392.9,-453.5 402.9,-450 392.9,-446.5 392.9,-453.5"/>
<g id="a_edge42&#45;headlabel"><a xlink:href="dir_000009_000010.html" target="_top" xlink:title="1">
<text text-anchor="middle" x="389.3" y="-453.84" font-family="Helvetica,sans-Serif" font-size="10.00">1</text>
</a>
</g>
</g>
<!-- dir_014c721151abc8438874b072d5fa83c2 -->
<g id="node5" class="node">
<title>dir_014c721151abc8438874b072d5fa83c2</title>
<g id="a_node5"><a xlink:href="dir_014c721151abc8438874b072d5fa83c2.html" target="_top" xlink:title="visitor">
<polygon fill="white" stroke="red" points="420,-36 366,-36 366,0 420,0 420,-36"/>
<text text-anchor="middle" x="393" y="-15.5" font-family="Helvetica,sans-Serif" font-size="10.00">visitor</text>
</a>
</g>
</g>
<!-- dir_ce2dbf2f59050224e9f81d9bf5259747&#45;&gt;dir_014c721151abc8438874b072d5fa83c2 -->
<g id="edge43" class="edge">
<title>dir_ce2dbf2f59050224e9f81d9bf5259747&#45;&gt;dir_014c721151abc8438874b072d5fa83c2</title>
<path fill="none" stroke="black" d="M227.85,-446.13C155.54,-438.2 0,-409.26 0,-307 0,-307 0,-307 0,-161 0,-85.75 258.05,-39.22 355.94,-24.27"/>
<polygon fill="black" stroke="black" points="356.62,-27.71 365.99,-22.76 355.58,-20.78 356.62,-27.71"/>
<g id="a_edge43&#45;headlabel"><a xlink:href="dir_000009_000012.html" target="_top" xlink:title="54">
<text text-anchor="middle" x="353.48" y="-28.55" font-family="Helvetica,sans-Serif" font-size="10.00">54</text>
</a>
</g>
</g>
<!-- dir_1cc991b776bed98ebc69792ba0e99102 -->
<g id="node6" class="node">
<title>dir_1cc991b776bed98ebc69792ba0e99102</title>
<g id="a_node6"><a xlink:href="dir_1cc991b776bed98ebc69792ba0e99102.html" target="_top" xlink:title="exp">
<polygon fill="none" stroke="black" points="319,-108 265,-108 265,-72 319,-72 319,-108"/>
<text text-anchor="middle" x="292" y="-87.5" font-family="Helvetica,sans-Serif" font-size="10.00">exp</text>
</a>
</g>
</g>
<!-- dir_ce2dbf2f59050224e9f81d9bf5259747&#45;&gt;dir_1cc991b776bed98ebc69792ba0e99102 -->
<g id="edge44" class="edge">
<title>dir_ce2dbf2f59050224e9f81d9bf5259747&#45;&gt;dir_1cc991b776bed98ebc69792ba0e99102</title>
<path fill="none" stroke="black" d="M247.51,-431.77C225.16,-406.53 188,-357.05 188,-307 188,-307 188,-307 188,-233 188,-183.63 229.42,-140.02 259.98,-114.56"/>
<polygon fill="black" stroke="black" points="262.3,-117.19 267.88,-108.18 257.9,-111.74 262.3,-117.19"/>
<g id="a_edge44&#45;headlabel"><a xlink:href="dir_000009_000015.html" target="_top" xlink:title="32">
<text text-anchor="middle" x="261.29" y="-119.15" font-family="Helvetica,sans-Serif" font-size="10.00">32</text>
</a>
</g>
</g>
<!-- dir_5646c4a3c156db227fe899778b3c4cdf -->
<g id="node7" class="node">
<title>dir_5646c4a3c156db227fe899778b3c4cdf</title>
<g id="a_node7"><a xlink:href="dir_5646c4a3c156db227fe899778b3c4cdf.html" target="_top" xlink:title="util">
<polygon fill="white" stroke="red" points="340,-252 286,-252 286,-216 340,-216 340,-252"/>
<text text-anchor="middle" x="313" y="-231.5" font-family="Helvetica,sans-Serif" font-size="10.00">util</text>
</a>
</g>
</g>
<!-- dir_ce2dbf2f59050224e9f81d9bf5259747&#45;&gt;dir_5646c4a3c156db227fe899778b3c4cdf -->
<g id="edge45" class="edge">
<title>dir_ce2dbf2f59050224e9f81d9bf5259747&#45;&gt;dir_5646c4a3c156db227fe899778b3c4cdf</title>
<path fill="none" stroke="black" d="M257.35,-431.78C251.3,-413.74 244.14,-384.65 250,-360 258.72,-323.31 280.02,-285.17 295.44,-260.82"/>
<polygon fill="black" stroke="black" points="298.53,-262.49 301.02,-252.2 292.65,-258.69 298.53,-262.49"/>
<g id="a_edge45&#45;headlabel"><a xlink:href="dir_000009_000002.html" target="_top" xlink:title="17">
<text text-anchor="middle" x="298.96" y="-264.55" font-family="Helvetica,sans-Serif" font-size="10.00">17</text>
</a>
</g>
</g>
<!-- dir_89a2a0f8e65887f6f5e7f07c9ce97f37 -->
<g id="node8" class="node">
<title>dir_89a2a0f8e65887f6f5e7f07c9ce97f37</title>
<g id="a_node8"><a xlink:href="dir_89a2a0f8e65887f6f5e7f07c9ce97f37.html" target="_top" xlink:title="core">
<polygon fill="white" stroke="red" points="478,-324 424,-324 424,-288 478,-288 478,-324"/>
<text text-anchor="middle" x="451" y="-303.5" font-family="Helvetica,sans-Serif" font-size="10.00">core</text>
</a>
</g>
</g>
<!-- dir_ce2dbf2f59050224e9f81d9bf5259747&#45;&gt;dir_89a2a0f8e65887f6f5e7f07c9ce97f37 -->
<g id="edge46" class="edge">
<title>dir_ce2dbf2f59050224e9f81d9bf5259747&#45;&gt;dir_89a2a0f8e65887f6f5e7f07c9ce97f37</title>
<path fill="none" stroke="black" d="M271.17,-431.66C280.14,-411.86 297.28,-379.69 321,-360 353.83,-332.75 370.51,-340.17 410,-324 411.38,-323.43 412.79,-322.86 414.21,-322.27"/>
<polygon fill="black" stroke="black" points="415.76,-325.42 423.67,-318.37 413.09,-318.95 415.76,-325.42"/>
<g id="a_edge46&#45;headlabel"><a xlink:href="dir_000009_000018.html" target="_top" xlink:title="3">
<text text-anchor="middle" x="413.52" y="-326.92" font-family="Helvetica,sans-Serif" font-size="10.00">3</text>
</a>
</g>
</g>
<!-- dir_175e5c1b3af505175d15180c337822cd -->
<g id="node9" class="node">
<title>dir_175e5c1b3af505175d15180c337822cd</title>
<g id="a_node9"><a xlink:href="dir_175e5c1b3af505175d15180c337822cd.html" target="_top" xlink:title="type">
<polygon fill="none" stroke="black" points="483,-180 429,-180 429,-144 483,-144 483,-180"/>
<text text-anchor="middle" x="456" y="-159.5" font-family="Helvetica,sans-Serif" font-size="10.00">type</text>
</a>
</g>
</g>
<!-- dir_ce2dbf2f59050224e9f81d9bf5259747&#45;&gt;dir_175e5c1b3af505175d15180c337822cd -->
<g id="edge47" class="edge">
<title>dir_ce2dbf2f59050224e9f81d9bf5259747&#45;&gt;dir_175e5c1b3af505175d15180c337822cd</title>
<path fill="none" stroke="black" d="M266.08,-431.77C268.86,-413.2 274.89,-383.2 287,-360 324.08,-288.95 391.2,-221.54 428.73,-187"/>
<polygon fill="black" stroke="black" points="431.23,-189.46 436.27,-180.14 426.52,-184.29 431.23,-189.46"/>
<g id="a_edge47&#45;headlabel"><a xlink:href="dir_000009_000008.html" target="_top" xlink:title="17">
<text text-anchor="middle" x="430.48" y="-191.48" font-family="Helvetica,sans-Serif" font-size="10.00">17</text>
</a>
</g>
</g>
<!-- dir_cacbc0f8d661c3f2ef6995c140cb013b&#45;&gt;dir_ce2dbf2f59050224e9f81d9bf5259747 -->
<g id="edge6" class="edge">
<title>dir_cacbc0f8d661c3f2ef6995c140cb013b&#45;&gt;dir_ce2dbf2f59050224e9f81d9bf5259747</title>
<path fill="none" stroke="black" d="M402.86,-513.53C386.06,-509.18 364.47,-502.97 346,-495 332.2,-489.04 317.86,-480.89 305.02,-473.22"/>
<polygon fill="black" stroke="black" points="306.77,-470.18 296.39,-468.01 303.15,-476.18 306.77,-470.18"/>
<g id="a_edge6&#45;headlabel"><a xlink:href="dir_000014_000009.html" target="_top" xlink:title="24">
<text text-anchor="middle" x="311.31" y="-467.11" font-family="Helvetica,sans-Serif" font-size="10.00">24</text>
</a>
</g>
</g>
<!-- dir_cacbc0f8d661c3f2ef6995c140cb013b&#45;&gt;dir_00cea25d4360966f2fbb8df56cdad836 -->
<g id="edge1" class="edge">
<title>dir_cacbc0f8d661c3f2ef6995c140cb013b&#45;&gt;dir_00cea25d4360966f2fbb8df56cdad836</title>
<path fill="none" stroke="black" d="M402.76,-510.76C396.01,-506.58 389.52,-501.24 385,-495 365.77,-468.46 356.26,-431.51 353.75,-406.5"/>
<polygon fill="black" stroke="black" points="357.23,-406.01 353.09,-396.26 350.24,-406.46 357.23,-406.01"/>
<g id="a_edge1&#45;headlabel"><a xlink:href="dir_000014_000044.html" target="_top" xlink:title="7">
<text text-anchor="middle" x="360.29" y="-406.92" font-family="Helvetica,sans-Serif" font-size="10.00">7</text>
</a>
</g>
</g>
<!-- dir_cacbc0f8d661c3f2ef6995c140cb013b&#45;&gt;dir_3731137dd4cde3a8f32b6960f0d2e696 -->
<g id="edge2" class="edge">
<title>dir_cacbc0f8d661c3f2ef6995c140cb013b&#45;&gt;dir_3731137dd4cde3a8f32b6960f0d2e696</title>
<path fill="none" stroke="black" d="M424.08,-503.7C423.29,-495.98 423.06,-486.71 423.4,-478.11"/>
<polygon fill="black" stroke="black" points="426.9,-478.32 424.1,-468.1 419.92,-477.84 426.9,-478.32"/>
<g id="a_edge2&#45;headlabel"><a xlink:href="dir_000014_000010.html" target="_top" xlink:title="2">
<text text-anchor="middle" x="429.48" y="-479.61" font-family="Helvetica,sans-Serif" font-size="10.00">2</text>
</a>
</g>
</g>
<!-- dir_cacbc0f8d661c3f2ef6995c140cb013b&#45;&gt;dir_014c721151abc8438874b072d5fa83c2 -->
<g id="edge3" class="edge">
<title>dir_cacbc0f8d661c3f2ef6995c140cb013b&#45;&gt;dir_014c721151abc8438874b072d5fa83c2</title>
<path fill="none" stroke="black" d="M457.17,-520.06C528.4,-515.96 714,-494.17 714,-379 714,-379 714,-379 714,-161 714,-37.04 515.09,-19.97 430.34,-18.53"/>
<polygon fill="black" stroke="black" points="430.15,-15.03 420.12,-18.42 430.08,-22.03 430.15,-15.03"/>
<g id="a_edge3&#45;headlabel"><a xlink:href="dir_000014_000012.html" target="_top" xlink:title="5">
<text text-anchor="middle" x="433.78" y="-9.73" font-family="Helvetica,sans-Serif" font-size="10.00">5</text>
</a>
</g>
</g>
<!-- dir_cacbc0f8d661c3f2ef6995c140cb013b&#45;&gt;dir_1cc991b776bed98ebc69792ba0e99102 -->
<g id="edge4" class="edge">
<title>dir_cacbc0f8d661c3f2ef6995c140cb013b&#45;&gt;dir_1cc991b776bed98ebc69792ba0e99102</title>
<path fill="none" stroke="black" d="M402.95,-519.96C348.63,-517.39 229.26,-509.85 192,-495 112.4,-463.27 38,-464.69 38,-379 38,-379 38,-379 38,-233 38,-135.97 183.63,-104.15 254.46,-94.66"/>
<polygon fill="black" stroke="black" points="255.26,-98.09 264.74,-93.37 254.39,-91.15 255.26,-98.09"/>
<g id="a_edge4&#45;headlabel"><a xlink:href="dir_000014_000015.html" target="_top" xlink:title="51">
<text text-anchor="middle" x="252.04" y="-98.86" font-family="Helvetica,sans-Serif" font-size="10.00">51</text>
</a>
</g>
</g>
<!-- dir_cacbc0f8d661c3f2ef6995c140cb013b&#45;&gt;dir_5646c4a3c156db227fe899778b3c4cdf -->
<g id="edge5" class="edge">
<title>dir_cacbc0f8d661c3f2ef6995c140cb013b&#45;&gt;dir_5646c4a3c156db227fe899778b3c4cdf</title>
<path fill="none" stroke="black" d="M402.97,-519.93C346.15,-517.2 219.56,-509.18 207,-495 168.73,-451.8 237.6,-306.53 249,-288 256.37,-276.03 267.06,-264.89 277.7,-255.94"/>
<polygon fill="black" stroke="black" points="280.11,-258.5 285.77,-249.55 275.76,-253.01 280.11,-258.5"/>
<g id="a_edge5&#45;headlabel"><a xlink:href="dir_000014_000002.html" target="_top" xlink:title="58">
<text text-anchor="middle" x="279.05" y="-260.46" font-family="Helvetica,sans-Serif" font-size="10.00">58</text>
</a>
</g>
</g>
<!-- dir_cacbc0f8d661c3f2ef6995c140cb013b&#45;&gt;dir_89a2a0f8e65887f6f5e7f07c9ce97f37 -->
<g id="edge7" class="edge">
<title>dir_cacbc0f8d661c3f2ef6995c140cb013b&#45;&gt;dir_89a2a0f8e65887f6f5e7f07c9ce97f37</title>
<path fill="none" stroke="black" d="M450.4,-503.92C453,-501.27 455.32,-498.29 457,-495 483.57,-443.04 465.87,-372.3 455.7,-334.12"/>
<polygon fill="black" stroke="black" points="459.03,-333.02 453.08,-324.25 452.27,-334.82 459.03,-333.02"/>
<g id="a_edge7&#45;headlabel"><a xlink:href="dir_000014_000018.html" target="_top" xlink:title="15">
<text text-anchor="middle" x="462.7" y="-333.26" font-family="Helvetica,sans-Serif" font-size="10.00">15</text>
</a>
</g>
</g>
<!-- dir_cacbc0f8d661c3f2ef6995c140cb013b&#45;&gt;dir_175e5c1b3af505175d15180c337822cd -->
<g id="edge8" class="edge">
<title>dir_cacbc0f8d661c3f2ef6995c140cb013b&#45;&gt;dir_175e5c1b3af505175d15180c337822cd</title>
<path fill="none" stroke="black" d="M457.04,-514.74C467.76,-510.94 479.05,-504.82 486,-495 557.6,-393.76 530.34,-331.8 486,-216 482.24,-206.18 476.14,-196.57 470.29,-188.29"/>
<polygon fill="black" stroke="black" points="473.11,-186.21 464.4,-180.19 467.45,-190.33 473.11,-186.21"/>
<g id="a_edge8&#45;headlabel"><a xlink:href="dir_000014_000008.html" target="_top" xlink:title="35">
<text text-anchor="middle" x="477.52" y="-184.95" font-family="Helvetica,sans-Serif" font-size="10.00">35</text>
</a>
</g>
</g>
<!-- dir_00cea25d4360966f2fbb8df56cdad836&#45;&gt;dir_cacbc0f8d661c3f2ef6995c140cb013b -->
<g id="edge9" class="edge">
<title>dir_00cea25d4360966f2fbb8df56cdad836&#45;&gt;dir_cacbc0f8d661c3f2ef6995c140cb013b</title>
<path fill="none" stroke="black" d="M365.04,-396.26C371.66,-420.35 380.92,-464.53 403,-495 403.37,-495.51 403.75,-496.01 404.14,-496.5"/>
<polygon fill="black" stroke="black" points="401.82,-499.15 411.26,-503.97 406.89,-494.31 401.82,-499.15"/>
<g id="a_edge9&#45;headlabel"><a xlink:href="dir_000044_000014.html" target="_top" xlink:title="2">
<text text-anchor="middle" x="397.29" y="-496" font-family="Helvetica,sans-Serif" font-size="10.00">2</text>
</a>
</g>
</g>
<!-- dir_00cea25d4360966f2fbb8df56cdad836&#45;&gt;dir_1cc991b776bed98ebc69792ba0e99102 -->
<g id="edge10" class="edge">
<title>dir_00cea25d4360966f2fbb8df56cdad836&#45;&gt;dir_1cc991b776bed98ebc69792ba0e99102</title>
<path fill="none" stroke="black" d="M341.51,-359.98C322.02,-337.31 289.59,-295.03 277,-252 263.63,-206.29 274.56,-150.47 283.46,-118"/>
<polygon fill="black" stroke="black" points="286.85,-118.9 286.25,-108.32 280.12,-116.96 286.85,-118.9"/>
<g id="a_edge10&#45;headlabel"><a xlink:href="dir_000044_000015.html" target="_top" xlink:title="1">
<text text-anchor="middle" x="288.58" y="-120.64" font-family="Helvetica,sans-Serif" font-size="10.00">1</text>
</a>
</g>
</g>
<!-- dir_00cea25d4360966f2fbb8df56cdad836&#45;&gt;dir_5646c4a3c156db227fe899778b3c4cdf -->
<g id="edge11" class="edge">
<title>dir_00cea25d4360966f2fbb8df56cdad836&#45;&gt;dir_5646c4a3c156db227fe899778b3c4cdf</title>
<path fill="none" stroke="black" d="M347.11,-359.87C337.01,-335.56 322.86,-290.82 315.94,-262.01"/>
<polygon fill="black" stroke="black" points="319.34,-261.18 313.74,-252.19 312.51,-262.71 319.34,-261.18"/>
<g id="a_edge11&#45;headlabel"><a xlink:href="dir_000044_000002.html" target="_top" xlink:title="1">
<text text-anchor="middle" x="322.89" y="-261.57" font-family="Helvetica,sans-Serif" font-size="10.00">1</text>
</a>
</g>
</g>
<!-- dir_00cea25d4360966f2fbb8df56cdad836&#45;&gt;dir_89a2a0f8e65887f6f5e7f07c9ce97f37 -->
<g id="edge12" class="edge">
<title>dir_00cea25d4360966f2fbb8df56cdad836&#45;&gt;dir_89a2a0f8e65887f6f5e7f07c9ce97f37</title>
<path fill="none" stroke="black" d="M374.32,-359.7C385.88,-350.38 401.31,-338.78 415.36,-328.85"/>
<polygon fill="black" stroke="black" points="417.67,-331.5 423.88,-322.91 413.67,-325.76 417.67,-331.5"/>
<g id="a_edge12&#45;headlabel"><a xlink:href="dir_000044_000018.html" target="_top" xlink:title="4">
<text text-anchor="middle" x="416.35" y="-333.38" font-family="Helvetica,sans-Serif" font-size="10.00">4</text>
</a>
</g>
</g>
<!-- dir_3731137dd4cde3a8f32b6960f0d2e696&#45;&gt;dir_cacbc0f8d661c3f2ef6995c140cb013b -->
<g id="edge13" class="edge">
<title>dir_3731137dd4cde3a8f32b6960f0d2e696&#45;&gt;dir_cacbc0f8d661c3f2ef6995c140cb013b</title>
<path fill="none" stroke="black" d="M435.9,-468.1C436.7,-475.79 436.94,-485.05 436.6,-493.67"/>
<polygon fill="black" stroke="black" points="433.11,-493.48 435.92,-503.7 440.09,-493.96 433.11,-493.48"/>
<g id="a_edge13&#45;headlabel"><a xlink:href="dir_000010_000014.html" target="_top" xlink:title="59">
<text text-anchor="middle" x="430.52" y="-487.2" font-family="Helvetica,sans-Serif" font-size="10.00">59</text>
</a>
</g>
</g>
<!-- dir_3731137dd4cde3a8f32b6960f0d2e696&#45;&gt;dir_00cea25d4360966f2fbb8df56cdad836 -->
<g id="edge14" class="edge">
<title>dir_3731137dd4cde3a8f32b6960f0d2e696&#45;&gt;dir_00cea25d4360966f2fbb8df56cdad836</title>
<path fill="none" stroke="black" d="M411.96,-431.7C402.94,-423.05 391.88,-412.45 382.06,-403.03"/>
<polygon fill="black" stroke="black" points="384.48,-400.5 374.84,-396.1 379.63,-405.55 384.48,-400.5"/>
<g id="a_edge14&#45;headlabel"><a xlink:href="dir_000010_000044.html" target="_top" xlink:title="2">
<text text-anchor="middle" x="389.04" y="-398.44" font-family="Helvetica,sans-Serif" font-size="10.00">2</text>
</a>
</g>
</g>
<!-- dir_3731137dd4cde3a8f32b6960f0d2e696&#45;&gt;dir_014c721151abc8438874b072d5fa83c2 -->
<g id="edge15" class="edge">
<title>dir_3731137dd4cde3a8f32b6960f0d2e696&#45;&gt;dir_014c721151abc8438874b072d5fa83c2</title>
<path fill="none" stroke="black" d="M457.26,-438.46C517.37,-413.24 656,-343.34 656,-235 656,-235 656,-235 656,-161 656,-59.61 502.79,-30.27 430.25,-22.06"/>
<polygon fill="black" stroke="black" points="430.47,-18.56 420.16,-21 429.73,-25.53 430.47,-18.56"/>
<g id="a_edge15&#45;headlabel"><a xlink:href="dir_000010_000012.html" target="_top" xlink:title="20">
<text text-anchor="middle" x="434.34" y="-13.62" font-family="Helvetica,sans-Serif" font-size="10.00">20</text>
</a>
</g>
</g>
<!-- dir_3731137dd4cde3a8f32b6960f0d2e696&#45;&gt;dir_1cc991b776bed98ebc69792ba0e99102 -->
<g id="edge16" class="edge">
<title>dir_3731137dd4cde3a8f32b6960f0d2e696&#45;&gt;dir_1cc991b776bed98ebc69792ba0e99102</title>
<path fill="none" stroke="black" d="M450.62,-431.95C461.05,-422.36 473.13,-409.59 481,-396 537.19,-298.99 563.41,-230.42 492,-144 471.45,-119.13 381.27,-103.07 329.3,-95.7"/>
<polygon fill="black" stroke="black" points="329.52,-92.19 319.13,-94.3 328.56,-99.13 329.52,-92.19"/>
<g id="a_edge16&#45;headlabel"><a xlink:href="dir_000010_000015.html" target="_top" xlink:title="26">
<text text-anchor="middle" x="333.46" y="-87.37" font-family="Helvetica,sans-Serif" font-size="10.00">26</text>
</a>
</g>
</g>
<!-- dir_3731137dd4cde3a8f32b6960f0d2e696&#45;&gt;dir_5646c4a3c156db227fe899778b3c4cdf -->
<g id="edge17" class="edge">
<title>dir_3731137dd4cde3a8f32b6960f0d2e696&#45;&gt;dir_5646c4a3c156db227fe899778b3c4cdf</title>
<path fill="none" stroke="black" d="M423.9,-431.87C417.18,-413.64 405.64,-384.17 393,-360 374.29,-324.21 348.5,-285.38 331.31,-260.66"/>
<polygon fill="black" stroke="black" points="334.01,-258.4 325.4,-252.22 328.27,-262.42 334.01,-258.4"/>
<g id="a_edge17&#45;headlabel"><a xlink:href="dir_000010_000002.html" target="_top" xlink:title="29">
<text text-anchor="middle" x="338.39" y="-257.21" font-family="Helvetica,sans-Serif" font-size="10.00">29</text>
</a>
</g>
</g>
<!-- dir_3731137dd4cde3a8f32b6960f0d2e696&#45;&gt;dir_89a2a0f8e65887f6f5e7f07c9ce97f37 -->
<g id="edge18" class="edge">
<title>dir_3731137dd4cde3a8f32b6960f0d2e696&#45;&gt;dir_89a2a0f8e65887f6f5e7f07c9ce97f37</title>
<path fill="none" stroke="black" d="M432.53,-431.87C436.11,-407.67 442.69,-363.21 446.95,-334.39"/>
<polygon fill="black" stroke="black" points="450.46,-334.59 448.46,-324.19 443.53,-333.57 450.46,-334.59"/>
<g id="a_edge18&#45;headlabel"><a xlink:href="dir_000010_000018.html" target="_top" xlink:title="26">
<text text-anchor="middle" x="452.74" y="-336.07" font-family="Helvetica,sans-Serif" font-size="10.00">26</text>
</a>
</g>
</g>
<!-- dir_3731137dd4cde3a8f32b6960f0d2e696&#45;&gt;dir_175e5c1b3af505175d15180c337822cd -->
<g id="edge19" class="edge">
<title>dir_3731137dd4cde3a8f32b6960f0d2e696&#45;&gt;dir_175e5c1b3af505175d15180c337822cd</title>
<path fill="none" stroke="black" d="M440.85,-431.63C454.76,-408.22 478.14,-364.79 487,-324 497.2,-277.06 480.48,-222.05 467.9,-190.01"/>
<polygon fill="black" stroke="black" points="471.02,-188.38 464,-180.45 464.54,-191.03 471.02,-188.38"/>
<g id="a_edge19&#45;headlabel"><a xlink:href="dir_000010_000008.html" target="_top" xlink:title="3">
<text text-anchor="middle" x="475.01" y="-188.14" font-family="Helvetica,sans-Serif" font-size="10.00">3</text>
</a>
</g>
</g>
<!-- dir_014c721151abc8438874b072d5fa83c2&#45;&gt;dir_cacbc0f8d661c3f2ef6995c140cb013b -->
<g id="edge20" class="edge">
<title>dir_014c721151abc8438874b072d5fa83c2&#45;&gt;dir_cacbc0f8d661c3f2ef6995c140cb013b</title>
<path fill="none" stroke="black" d="M420.19,-18.44C500.86,-17.95 732,-27.37 732,-161 732,-379 732,-379 732,-379 732,-493.55 548.39,-515.73 467.41,-519.99"/>
<polygon fill="black" stroke="black" points="466.97,-516.51 457.14,-520.47 467.29,-523.5 466.97,-516.51"/>
<g id="a_edge20&#45;headlabel"><a xlink:href="dir_000012_000014.html" target="_top" xlink:title="15">
<text text-anchor="middle" x="470.43" y="-511.01" font-family="Helvetica,sans-Serif" font-size="10.00">15</text>
</a>
</g>
</g>
<!-- dir_014c721151abc8438874b072d5fa83c2&#45;&gt;dir_1cc991b776bed98ebc69792ba0e99102 -->
<g id="edge21" class="edge">
<title>dir_014c721151abc8438874b072d5fa83c2&#45;&gt;dir_1cc991b776bed98ebc69792ba0e99102</title>
<path fill="none" stroke="black" d="M374.3,-36.04C361.15,-45.87 343.31,-58.31 327.55,-68.65"/>
<polygon fill="black" stroke="black" points="325.55,-65.78 319.06,-74.15 329.35,-71.66 325.55,-65.78"/>
<g id="a_edge21&#45;headlabel"><a xlink:href="dir_000012_000015.html" target="_top" xlink:title="71">
<text text-anchor="middle" x="327.02" y="-58.94" font-family="Helvetica,sans-Serif" font-size="10.00">71</text>
</a>
</g>
</g>
<!-- dir_014c721151abc8438874b072d5fa83c2&#45;&gt;dir_5646c4a3c156db227fe899778b3c4cdf -->
<g id="edge22" class="edge">
<title>dir_014c721151abc8438874b072d5fa83c2&#45;&gt;dir_5646c4a3c156db227fe899778b3c4cdf</title>
<path fill="none" stroke="black" d="M390.44,-36.23C380.04,-73.56 347.19,-162.09 327.51,-206.56"/>
<polygon fill="black" stroke="black" points="324.24,-205.3 323.29,-215.85 330.61,-208.19 324.24,-205.3"/>
<g id="a_edge22&#45;headlabel"><a xlink:href="dir_000012_000002.html" target="_top" xlink:title="7">
<text text-anchor="middle" x="323.14" y="-198.35" font-family="Helvetica,sans-Serif" font-size="10.00">7</text>
</a>
</g>
</g>
<!-- dir_014c721151abc8438874b072d5fa83c2&#45;&gt;dir_89a2a0f8e65887f6f5e7f07c9ce97f37 -->
<g id="edge23" class="edge">
<title>dir_014c721151abc8438874b072d5fa83c2&#45;&gt;dir_89a2a0f8e65887f6f5e7f07c9ce97f37</title>
<path fill="none" stroke="black" d="M413.54,-36.34C437.89,-58.4 477.03,-99.09 492,-144 507.61,-190.82 484.03,-246.98 466.68,-279.08"/>
<polygon fill="black" stroke="black" points="463.61,-277.41 461.77,-287.84 469.71,-280.83 463.61,-277.41"/>
<g id="a_edge23&#45;headlabel"><a xlink:href="dir_000012_000018.html" target="_top" xlink:title="7">
<text text-anchor="middle" x="462.88" y="-270.39" font-family="Helvetica,sans-Serif" font-size="10.00">7</text>
</a>
</g>
</g>
<!-- dir_014c721151abc8438874b072d5fa83c2&#45;&gt;dir_175e5c1b3af505175d15180c337822cd -->
<g id="edge24" class="edge">
<title>dir_014c721151abc8438874b072d5fa83c2&#45;&gt;dir_175e5c1b3af505175d15180c337822cd</title>
<path fill="none" stroke="black" d="M400.63,-36.19C411.47,-60.64 431.45,-105.67 444.21,-134.44"/>
<polygon fill="black" stroke="black" points="441.15,-136.15 448.4,-143.87 447.54,-133.31 441.15,-136.15"/>
<g id="a_edge24&#45;headlabel"><a xlink:href="dir_000012_000008.html" target="_top" xlink:title="8">
<text text-anchor="middle" x="437.09" y="-131.52" font-family="Helvetica,sans-Serif" font-size="10.00">8</text>
</a>
</g>
</g>
<!-- dir_1cc991b776bed98ebc69792ba0e99102&#45;&gt;dir_ce2dbf2f59050224e9f81d9bf5259747 -->
<g id="edge29" class="edge">
<title>dir_1cc991b776bed98ebc69792ba0e99102&#45;&gt;dir_ce2dbf2f59050224e9f81d9bf5259747</title>
<path fill="none" stroke="black" d="M264.75,-96.17C237.83,-102.7 197.39,-116.57 174,-144 147.42,-175.17 150,-192.03 150,-233 150,-307 150,-307 150,-307 150,-347.97 148.82,-363.68 174,-396 189.65,-416.09 202.08,-411.02 224,-424 225.45,-424.86 226.93,-425.74 228.42,-426.64"/>
<polygon fill="black" stroke="black" points="226.64,-429.65 237,-431.88 230.29,-423.68 226.64,-429.65"/>
<g id="a_edge29&#45;headlabel"><a xlink:href="dir_000015_000009.html" target="_top" xlink:title="4">
<text text-anchor="middle" x="222.09" y="-427.7" font-family="Helvetica,sans-Serif" font-size="10.00">4</text>
</a>
</g>
</g>
<!-- dir_1cc991b776bed98ebc69792ba0e99102&#45;&gt;dir_cacbc0f8d661c3f2ef6995c140cb013b -->
<g id="edge25" class="edge">
<title>dir_1cc991b776bed98ebc69792ba0e99102&#45;&gt;dir_cacbc0f8d661c3f2ef6995c140cb013b</title>
<path fill="none" stroke="black" d="M264.81,-94.57C202.56,-103.95 56,-135.66 56,-233 56,-379 56,-379 56,-379 56,-464.69 130.4,-463.27 210,-495 242.75,-508.06 338.95,-515.46 392.77,-518.8"/>
<polygon fill="black" stroke="black" points="392.75,-522.31 402.94,-519.42 393.17,-515.32 392.75,-522.31"/>
<g id="a_edge25&#45;headlabel"><a xlink:href="dir_000015_000014.html" target="_top" xlink:title="9">
<text text-anchor="middle" x="388.99" y="-522.43" font-family="Helvetica,sans-Serif" font-size="10.00">9</text>
</a>
</g>
</g>
<!-- dir_1cc991b776bed98ebc69792ba0e99102&#45;&gt;dir_014c721151abc8438874b072d5fa83c2 -->
<g id="edge26" class="edge">
<title>dir_1cc991b776bed98ebc69792ba0e99102&#45;&gt;dir_014c721151abc8438874b072d5fa83c2</title>
<path fill="none" stroke="black" d="M311.05,-71.7C324.14,-61.93 341.74,-49.66 357.34,-39.42"/>
<polygon fill="black" stroke="black" points="359.26,-42.34 365.75,-33.97 355.45,-36.47 359.26,-42.34"/>
<g id="a_edge26&#45;headlabel"><a xlink:href="dir_000015_000012.html" target="_top" xlink:title="27">
<text text-anchor="middle" x="357.79" y="-44.18" font-family="Helvetica,sans-Serif" font-size="10.00">27</text>
</a>
</g>
</g>
<!-- dir_1cc991b776bed98ebc69792ba0e99102&#45;&gt;dir_5646c4a3c156db227fe899778b3c4cdf -->
<g id="edge27" class="edge">
<title>dir_1cc991b776bed98ebc69792ba0e99102&#45;&gt;dir_5646c4a3c156db227fe899778b3c4cdf</title>
<path fill="none" stroke="black" d="M299.13,-108.19C305.27,-132.42 312.13,-176.89 314.41,-205.68"/>
<polygon fill="black" stroke="black" points="310.93,-206.11 315.05,-215.87 317.92,-205.67 310.93,-206.11"/>
<g id="a_edge27&#45;headlabel"><a xlink:href="dir_000015_000002.html" target="_top" xlink:title="17">
<text text-anchor="middle" x="307.88" y="-200.2" font-family="Helvetica,sans-Serif" font-size="10.00">17</text>
</a>
</g>
</g>
<!-- dir_1cc991b776bed98ebc69792ba0e99102&#45;&gt;dir_89a2a0f8e65887f6f5e7f07c9ce97f37 -->
<g id="edge28" class="edge">
<title>dir_1cc991b776bed98ebc69792ba0e99102&#45;&gt;dir_89a2a0f8e65887f6f5e7f07c9ce97f37</title>
<path fill="none" stroke="black" d="M304.8,-108.23C332.77,-145.87 399.43,-235.59 432.18,-279.67"/>
<polygon fill="black" stroke="black" points="429.48,-281.91 438.26,-287.85 435.1,-277.73 429.48,-281.91"/>
<g id="a_edge28&#45;headlabel"><a xlink:href="dir_000015_000018.html" target="_top" xlink:title="2">
<text text-anchor="middle" x="425.06" y="-278.22" font-family="Helvetica,sans-Serif" font-size="10.00">2</text>
</a>
</g>
</g>
<!-- dir_1cc991b776bed98ebc69792ba0e99102&#45;&gt;dir_175e5c1b3af505175d15180c337822cd -->
<g id="edge30" class="edge">
<title>dir_1cc991b776bed98ebc69792ba0e99102&#45;&gt;dir_175e5c1b3af505175d15180c337822cd</title>
<path fill="none" stroke="black" d="M319.03,-100.49C346.47,-111.31 388.88,-129.23 419.31,-142.78"/>
<polygon fill="black" stroke="black" points="418.18,-146.1 428.73,-147 421.04,-139.72 418.18,-146.1"/>
<g id="a_edge30&#45;headlabel"><a xlink:href="dir_000015_000008.html" target="_top" xlink:title="28">
<text text-anchor="middle" x="413.73" y="-144.72" font-family="Helvetica,sans-Serif" font-size="10.00">28</text>
</a>
</g>
</g>
<!-- dir_5646c4a3c156db227fe899778b3c4cdf&#45;&gt;dir_cacbc0f8d661c3f2ef6995c140cb013b -->
<g id="edge31" class="edge">
<title>dir_5646c4a3c156db227fe899778b3c4cdf&#45;&gt;dir_cacbc0f8d661c3f2ef6995c140cb013b</title>
<path fill="none" stroke="black" d="M298.56,-252.04C288.37,-261.54 275.48,-274.22 267,-288 255.6,-306.53 186.73,-451.8 225,-495 236.1,-507.53 336.27,-515.25 392.47,-518.76"/>
<polygon fill="black" stroke="black" points="392.56,-522.27 402.75,-519.39 392.98,-515.28 392.56,-522.27"/>
<g id="a_edge31&#45;headlabel"><a xlink:href="dir_000002_000014.html" target="_top" xlink:title="21">
<text text-anchor="middle" x="388.8" y="-522.39" font-family="Helvetica,sans-Serif" font-size="10.00">21</text>
</a>
</g>
</g>
<!-- dir_5646c4a3c156db227fe899778b3c4cdf&#45;&gt;dir_00cea25d4360966f2fbb8df56cdad836 -->
<g id="edge32" class="edge">
<title>dir_5646c4a3c156db227fe899778b3c4cdf&#45;&gt;dir_00cea25d4360966f2fbb8df56cdad836</title>
<path fill="none" stroke="black" d="M322.92,-252.19C333.03,-276.53 347.17,-321.28 354.08,-350.06"/>
<polygon fill="black" stroke="black" points="350.68,-350.88 356.28,-359.87 357.51,-349.35 350.68,-350.88"/>
<g id="a_edge32&#45;headlabel"><a xlink:href="dir_000002_000044.html" target="_top" xlink:title="2">
<text text-anchor="middle" x="347.12" y="-345.49" font-family="Helvetica,sans-Serif" font-size="10.00">2</text>
</a>
</g>
</g>
<!-- dir_5646c4a3c156db227fe899778b3c4cdf&#45;&gt;dir_014c721151abc8438874b072d5fa83c2 -->
<g id="edge33" class="edge">
<title>dir_5646c4a3c156db227fe899778b3c4cdf&#45;&gt;dir_014c721151abc8438874b072d5fa83c2</title>
<path fill="none" stroke="black" d="M315.53,-215.85C325.9,-178.6 358.74,-90.07 378.44,-45.54"/>
<polygon fill="black" stroke="black" points="381.72,-46.78 382.67,-36.23 375.35,-43.89 381.72,-46.78"/>
<g id="a_edge33&#45;headlabel"><a xlink:href="dir_000002_000012.html" target="_top" xlink:title="2">
<text text-anchor="middle" x="382.82" y="-48.73" font-family="Helvetica,sans-Serif" font-size="10.00">2</text>
</a>
</g>
</g>
<!-- dir_5646c4a3c156db227fe899778b3c4cdf&#45;&gt;dir_1cc991b776bed98ebc69792ba0e99102 -->
<g id="edge34" class="edge">
<title>dir_5646c4a3c156db227fe899778b3c4cdf&#45;&gt;dir_1cc991b776bed98ebc69792ba0e99102</title>
<path fill="none" stroke="black" d="M305.88,-215.87C299.74,-191.67 292.88,-147.21 290.59,-118.39"/>
<polygon fill="black" stroke="black" points="294.07,-117.95 289.95,-108.19 287.09,-118.39 294.07,-117.95"/>
<g id="a_edge34&#45;headlabel"><a xlink:href="dir_000002_000015.html" target="_top" xlink:title="30">
<text text-anchor="middle" x="297.13" y="-118.86" font-family="Helvetica,sans-Serif" font-size="10.00">30</text>
</a>
</g>
</g>
<!-- dir_5646c4a3c156db227fe899778b3c4cdf&#45;&gt;dir_89a2a0f8e65887f6f5e7f07c9ce97f37 -->
<g id="edge35" class="edge">
<title>dir_5646c4a3c156db227fe899778b3c4cdf&#45;&gt;dir_89a2a0f8e65887f6f5e7f07c9ce97f37</title>
<path fill="none" stroke="black" d="M340.12,-246.17C361.55,-256.18 391.44,-271.15 414.86,-283.48"/>
<polygon fill="black" stroke="black" points="413.33,-286.63 423.8,-288.23 416.62,-280.45 413.33,-286.63"/>
<g id="a_edge35&#45;headlabel"><a xlink:href="dir_000002_000018.html" target="_top" xlink:title="15">
<text text-anchor="middle" x="408.83" y="-284.95" font-family="Helvetica,sans-Serif" font-size="10.00">15</text>
</a>
</g>
</g>
<!-- dir_5646c4a3c156db227fe899778b3c4cdf&#45;&gt;dir_175e5c1b3af505175d15180c337822cd -->
<g id="edge36" class="edge">
<title>dir_5646c4a3c156db227fe899778b3c4cdf&#45;&gt;dir_175e5c1b3af505175d15180c337822cd</title>
<path fill="none" stroke="black" d="M340.03,-216.94C362.67,-205.2 395.01,-189.39 419.86,-177.93"/>
<polygon fill="black" stroke="black" points="421.34,-181.1 428.98,-173.76 418.43,-174.73 421.34,-181.1"/>
<g id="a_edge36&#45;headlabel"><a xlink:href="dir_000002_000008.html" target="_top" xlink:title="3">
<text text-anchor="middle" x="419.25" y="-182.68" font-family="Helvetica,sans-Serif" font-size="10.00">3</text>
</a>
</g>
</g>
<!-- dir_89a2a0f8e65887f6f5e7f07c9ce97f37&#45;&gt;dir_cacbc0f8d661c3f2ef6995c140cb013b -->
<g id="edge37" class="edge">
<title>dir_89a2a0f8e65887f6f5e7f07c9ce97f37&#45;&gt;dir_cacbc0f8d661c3f2ef6995c140cb013b</title>
<path fill="none" stroke="black" d="M463.12,-324.25C480.15,-358.83 504.07,-438.15 475,-495 472.79,-499.32 469.49,-503.09 465.64,-506.31"/>
<polygon fill="black" stroke="black" points="463.38,-503.62 457.12,-512.18 467.35,-509.39 463.38,-503.62"/>
<g id="a_edge37&#45;headlabel"><a xlink:href="dir_000018_000014.html" target="_top" xlink:title="3">
<text text-anchor="middle" x="464.73" y="-496.75" font-family="Helvetica,sans-Serif" font-size="10.00">3</text>
</a>
</g>
</g>
<!-- dir_89a2a0f8e65887f6f5e7f07c9ce97f37&#45;&gt;dir_00cea25d4360966f2fbb8df56cdad836 -->
<g id="edge38" class="edge">
<title>dir_89a2a0f8e65887f6f5e7f07c9ce97f37&#45;&gt;dir_00cea25d4360966f2fbb8df56cdad836</title>
<path fill="none" stroke="black" d="M434,-324.04C422.42,-333.4 406.85,-345.1 392.68,-355.13"/>
<polygon fill="black" stroke="black" points="390.29,-352.53 384.09,-361.12 394.3,-358.27 390.29,-352.53"/>
<g id="a_edge38&#45;headlabel"><a xlink:href="dir_000018_000044.html" target="_top" xlink:title="8">
<text text-anchor="middle" x="391.62" y="-345.64" font-family="Helvetica,sans-Serif" font-size="10.00">8</text>
</a>
</g>
</g>
<!-- dir_89a2a0f8e65887f6f5e7f07c9ce97f37&#45;&gt;dir_5646c4a3c156db227fe899778b3c4cdf -->
<g id="edge39" class="edge">
<title>dir_89a2a0f8e65887f6f5e7f07c9ce97f37&#45;&gt;dir_5646c4a3c156db227fe899778b3c4cdf</title>
<path fill="none" stroke="black" d="M423.71,-293.75C402.26,-283.72 372.38,-268.76 349.01,-256.45"/>
<polygon fill="black" stroke="black" points="350.55,-253.31 340.08,-251.7 347.27,-259.49 350.55,-253.31"/>
<g id="a_edge39&#45;headlabel"><a xlink:href="dir_000018_000002.html" target="_top" xlink:title="8">
<text text-anchor="middle" x="355.06" y="-249.99" font-family="Helvetica,sans-Serif" font-size="10.00">8</text>
</a>
</g>
</g>
<!-- dir_175e5c1b3af505175d15180c337822cd&#45;&gt;dir_cacbc0f8d661c3f2ef6995c140cb013b -->
<g id="edge48" class="edge">
<title>dir_175e5c1b3af505175d15180c337822cd&#45;&gt;dir_cacbc0f8d661c3f2ef6995c140cb013b</title>
<path fill="none" stroke="black" d="M480.35,-180.19C489.63,-189.92 498.93,-202.77 504,-216 548.34,-331.8 575.6,-393.76 504,-495 495.7,-506.74 481.19,-513.18 467.1,-516.71"/>
<polygon fill="black" stroke="black" points="466.08,-513.35 457,-518.81 467.5,-520.2 466.08,-513.35"/>
<g id="a_edge48&#45;headlabel"><a xlink:href="dir_000008_000014.html" target="_top" xlink:title="4">
<text text-anchor="middle" x="469.03" y="-507.34" font-family="Helvetica,sans-Serif" font-size="10.00">4</text>
</a>
</g>
</g>
<!-- dir_175e5c1b3af505175d15180c337822cd&#45;&gt;dir_1cc991b776bed98ebc69792ba0e99102 -->
<g id="edge49" class="edge">
<title>dir_175e5c1b3af505175d15180c337822cd&#45;&gt;dir_1cc991b776bed98ebc69792ba0e99102</title>
<path fill="none" stroke="black" d="M428.72,-151.41C401.22,-140.57 358.87,-122.66 328.52,-109.15"/>
<polygon fill="black" stroke="black" points="329.68,-105.83 319.12,-104.93 326.81,-112.22 329.68,-105.83"/>
<g id="a_edge49&#45;headlabel"><a xlink:href="dir_000008_000015.html" target="_top" xlink:title="5">
<text text-anchor="middle" x="334.12" y="-102.21" font-family="Helvetica,sans-Serif" font-size="10.00">5</text>
</a>
</g>
</g>
<!-- dir_175e5c1b3af505175d15180c337822cd&#45;&gt;dir_5646c4a3c156db227fe899778b3c4cdf -->
<g id="edge50" class="edge">
<title>dir_175e5c1b3af505175d15180c337822cd&#45;&gt;dir_5646c4a3c156db227fe899778b3c4cdf</title>
<path fill="none" stroke="black" d="M428.83,-179.13C406.2,-190.86 373.96,-206.62 349.17,-218.06"/>
<polygon fill="black" stroke="black" points="347.71,-214.88 340.07,-222.22 350.62,-221.25 347.71,-214.88"/>
<g id="a_edge50&#45;headlabel"><a xlink:href="dir_000008_000002.html" target="_top" xlink:title="10">
<text text-anchor="middle" x="349.8" y="-208.3" font-family="Helvetica,sans-Serif" font-size="10.00">10</text>
</a>
</g>
</g>
<!-- dir_175e5c1b3af505175d15180c337822cd&#45;&gt;dir_89a2a0f8e65887f6f5e7f07c9ce97f37 -->
<g id="edge51" class="edge">
<title>dir_175e5c1b3af505175d15180c337822cd&#45;&gt;dir_89a2a0f8e65887f6f5e7f07c9ce97f37</title>
<path fill="none" stroke="black" d="M455.39,-180.19C454.54,-204.42 452.98,-248.89 451.96,-277.68"/>
<polygon fill="black" stroke="black" points="448.46,-277.75 451.6,-287.87 455.45,-278 448.46,-277.75"/>
<g id="a_edge51&#45;headlabel"><a xlink:href="dir_000008_000018.html" target="_top" xlink:title="1">
<text text-anchor="middle" x="445.75" y="-271.56" font-family="Helvetica,sans-Serif" font-size="10.00">1</text>
</a>
</g>
</g>
</g>
</svg>
        <g id="navigator" transform="translate(0 0)" fill="#404254">
                <rect fill="#f2f5e9" fill-opacity="0.5" stroke="#606060" stroke-width=".5" x="0" y="0" width="60" height="60"/>
                <use id="zoomplus" xlink:href="#zoomPlus" x="17" y="9" onmousedown="handleZoom(evt,'in')"/>
                <use id="zoomminus" xlink:href="#zoomMin" x="42" y="9" onmousedown="handleZoom(evt,'out')"/>
                <use id="reset" xlink:href="#resetDef" x="30" y="36" onmousedown="handleReset()"/>
                <g id="arrowUp" xlink:href="#dirArrow" transform="translate(30 24)" onmousedown="handlePan(0,-1)">
                  <use xlink:href="#rim" fill="#404040">
                        <set attributeName="fill" to="#808080" begin="arrowUp.mouseover" end="arrowUp.mouseout"/>
                  </use>
                  <path fill="none" stroke="white" stroke-width="1.5" d="M0,-3.0v7 M-2.5,-0.5L0,-3.0L2.5,-0.5"/>
                </g>
                <g id="arrowRight" xlink:href="#dirArrow" transform="rotate(90) translate(36 -43)" onmousedown="handlePan(1,0)">
                  <use xlink:href="#rim" fill="#404040">
                        <set attributeName="fill" to="#808080" begin="arrowRight.mouseover" end="arrowRight.mouseout"/>
                  </use>
                  <path fill="none" stroke="white" stroke-width="1.5" d="M0,-3.0v7 M-2.5,-0.5L0,-3.0L2.5,-0.5"/>
                </g>
                <g id="arrowDown" xlink:href="#dirArrow" transform="rotate(180) translate(-30 -48)" onmousedown="handlePan(0,1)">
                  <use xlink:href="#rim" fill="#404040">
                        <set attributeName="fill" to="#808080" begin="arrowDown.mouseover" end="arrowDown.mouseout"/>
                  </use>
                  <path fill="none" stroke="white" stroke-width="1.5" d="M0,-3.0v7 M-2.5,-0.5L0,-3.0L2.5,-0.5"/>
                </g>
                <g id="arrowLeft" xlink:href="#dirArrow" transform="rotate(270) translate(-36 17)" onmousedown="handlePan(-1,0)">
                  <use xlink:href="#rim" fill="#404040">
                        <set attributeName="fill" to="#808080" begin="arrowLeft.mouseover" end="arrowLeft.mouseout"/>
                  </use>
                  <path fill="none" stroke="white" stroke-width="1.5" d="M0,-3.0v7 M-2.5,-0.5L0,-3.0L2.5,-0.5"/>
                </g>
        </g>
        <svg viewBox="0 0 15 15" width="100%" height="30px" preserveAspectRatio="xMaxYMin meet">
         <g id="arrow_out" transform="scale(0.3 0.3)">
          <a xlink:href="dir_ce2dbf2f59050224e9f81d9bf5259747_dep_org.svg" target="_base">
           <rect id="button" ry="5" rx="5" y="6" x="6" height="38" width="38"
                fill="#f2f5e9" fill-opacity="0.5" stroke="#606060" stroke-width="1.0"/>
           <path id="arrow"
             d="M 11.500037,31.436501 C 11.940474,20.09759 22.043105,11.32322 32.158766,21.979434 L 37.068811,17.246167 C 37.068811,17.246167 37.088388,32 37.088388,32 L 22.160133,31.978069 C 22.160133,31.978069 26.997745,27.140456 26.997745,27.140456 C 18.528582,18.264221 13.291696,25.230495 11.500037,31.436501 z"
             style="fill:#404040;"/>
          </a>
         </g>
        </svg>
</svg>
