<?xml version="1.0" encoding="UTF-8" standalone="no"?>
<!DOCTYPE svg PUBLIC "-//W3C//DTD SVG 1.1//EN"
 "http://www.w3.org/Graphics/SVG/1.1/DTD/svg11.dtd">
<!-- Generated by graphviz version 2.43.0 (0)
 -->
<!-- Title: stmtmodifier Pages: 1 -->
<svg width="334pt" height="439pt"
 viewBox="0.00 0.00 334.00 439.00" xmlns="http://www.w3.org/2000/svg" xmlns:xlink="http://www.w3.org/1999/xlink">
<g id="graph0" class="graph" transform="scale(1 1) rotate(0) translate(4 435)">
<title>stmtmodifier</title>
<polygon fill="white" stroke="transparent" points="-4,4 -4,-435 330,-435 330,4 -4,4"/>
<g id="clust1" class="cluster">
<title>clusterdir_014c721151abc8438874b072d5fa83c2</title>
<g id="a_clust1"><a xlink:href="dir_014c721151abc8438874b072d5fa83c2.html" target="_top" xlink:title="visitor">
<polygon fill="#ddddee" stroke="black" points="117,-352 117,-423 213,-423 213,-352 117,-352"/>
<text text-anchor="middle" x="165" y="-411" font-family="Helvetica,sans-Serif" font-size="10.00">visitor</text>
</a>
</g>
</g>
<!-- dir_b2dbe3ef876199a580a9e778cdd03e43 -->
<g id="node1" class="node">
<title>dir_b2dbe3ef876199a580a9e778cdd03e43</title>
<g id="a_node1"><a xlink:href="dir_b2dbe3ef876199a580a9e778cdd03e43.html" target="_top" xlink:title="stmtmodifier">
<polygon fill="#eeeeff" stroke="black" points="205,-396 125,-396 125,-360 205,-360 205,-396"/>
<text text-anchor="middle" x="165" y="-375.5" font-family="Helvetica,sans-Serif" font-size="10.00">stmtmodifier</text>
</a>
</g>
</g>
<!-- dir_cacbc0f8d661c3f2ef6995c140cb013b -->
<g id="node2" class="node">
<title>dir_cacbc0f8d661c3f2ef6995c140cb013b</title>
<g id="a_node2"><a xlink:href="dir_cacbc0f8d661c3f2ef6995c140cb013b.html" target="_top" xlink:title="db">
<polygon fill="white" stroke="red" points="192,-324 138,-324 138,-288 192,-288 192,-324"/>
<text text-anchor="middle" x="165" y="-303.5" font-family="Helvetica,sans-Serif" font-size="10.00">db</text>
</a>
</g>
</g>
<!-- dir_b2dbe3ef876199a580a9e778cdd03e43&#45;&gt;dir_cacbc0f8d661c3f2ef6995c140cb013b -->
<g id="edge9" class="edge">
<title>dir_b2dbe3ef876199a580a9e778cdd03e43&#45;&gt;dir_cacbc0f8d661c3f2ef6995c140cb013b</title>
<path fill="none" stroke="black" d="M165,-359.7C165,-351.98 165,-342.71 165,-334.11"/>
<polygon fill="black" stroke="black" points="168.5,-334.1 165,-324.1 161.5,-334.1 168.5,-334.1"/>
<g id="a_edge9&#45;headlabel"><a xlink:href="dir_000056_000014.html" target="_top" xlink:title="2">
<text text-anchor="middle" x="171.34" y="-335.2" font-family="Helvetica,sans-Serif" font-size="10.00">2</text>
</a>
</g>
</g>
<!-- dir_b7264726bdfa508dc9a1f79664d9f9a2 -->
<g id="node3" class="node">
<title>dir_b7264726bdfa508dc9a1f79664d9f9a2</title>
<g id="a_node3"><a xlink:href="dir_b7264726bdfa508dc9a1f79664d9f9a2.html" target="_top" xlink:title="ssl">
<polygon fill="white" stroke="red" points="326,-252 272,-252 272,-216 326,-216 326,-252"/>
<text text-anchor="middle" x="299" y="-231.5" font-family="Helvetica,sans-Serif" font-size="10.00">ssl</text>
</a>
</g>
</g>
<!-- dir_b2dbe3ef876199a580a9e778cdd03e43&#45;&gt;dir_b7264726bdfa508dc9a1f79664d9f9a2 -->
<g id="edge10" class="edge">
<title>dir_b2dbe3ef876199a580a9e778cdd03e43&#45;&gt;dir_b7264726bdfa508dc9a1f79664d9f9a2</title>
<path fill="none" stroke="black" d="M205.41,-360.81C223.32,-352.04 243.55,-339.75 258,-324 274.28,-306.25 285.09,-280.92 291.5,-261.82"/>
<polygon fill="black" stroke="black" points="294.87,-262.79 294.54,-252.2 288.19,-260.68 294.87,-262.79"/>
<g id="a_edge10&#45;headlabel"><a xlink:href="dir_000056_000007.html" target="_top" xlink:title="20">
<text text-anchor="middle" x="296.49" y="-264.57" font-family="Helvetica,sans-Serif" font-size="10.00">20</text>
</a>
</g>
</g>
<!-- dir_5646c4a3c156db227fe899778b3c4cdf -->
<g id="node4" class="node">
<title>dir_5646c4a3c156db227fe899778b3c4cdf</title>
<g id="a_node4"><a xlink:href="dir_5646c4a3c156db227fe899778b3c4cdf.html" target="_top" xlink:title="util">
<polygon fill="white" stroke="red" points="176,-36 122,-36 122,0 176,0 176,-36"/>
<text text-anchor="middle" x="149" y="-15.5" font-family="Helvetica,sans-Serif" font-size="10.00">util</text>
</a>
</g>
</g>
<!-- dir_b2dbe3ef876199a580a9e778cdd03e43&#45;&gt;dir_5646c4a3c156db227fe899778b3c4cdf -->
<g id="edge11" class="edge">
<title>dir_b2dbe3ef876199a580a9e778cdd03e43&#45;&gt;dir_5646c4a3c156db227fe899778b3c4cdf</title>
<path fill="none" stroke="black" d="M124.64,-362.69C75.79,-342.49 0,-300.57 0,-235 0,-235 0,-235 0,-161 0,-99.08 68.27,-55.92 112.39,-34.5"/>
<polygon fill="black" stroke="black" points="114.11,-37.56 121.67,-30.14 111.13,-31.22 114.11,-37.56"/>
<g id="a_edge11&#45;headlabel"><a xlink:href="dir_000056_000002.html" target="_top" xlink:title="1">
<text text-anchor="middle" x="112.06" y="-39.16" font-family="Helvetica,sans-Serif" font-size="10.00">1</text>
</a>
</g>
</g>
<!-- dir_89a2a0f8e65887f6f5e7f07c9ce97f37 -->
<g id="node5" class="node">
<title>dir_89a2a0f8e65887f6f5e7f07c9ce97f37</title>
<g id="a_node5"><a xlink:href="dir_89a2a0f8e65887f6f5e7f07c9ce97f37.html" target="_top" xlink:title="core">
<polygon fill="white" stroke="red" points="176,-108 122,-108 122,-72 176,-72 176,-108"/>
<text text-anchor="middle" x="149" y="-87.5" font-family="Helvetica,sans-Serif" font-size="10.00">core</text>
</a>
</g>
</g>
<!-- dir_b2dbe3ef876199a580a9e778cdd03e43&#45;&gt;dir_89a2a0f8e65887f6f5e7f07c9ce97f37 -->
<g id="edge12" class="edge">
<title>dir_b2dbe3ef876199a580a9e778cdd03e43&#45;&gt;dir_89a2a0f8e65887f6f5e7f07c9ce97f37</title>
<path fill="none" stroke="black" d="M149.39,-359.77C141.63,-350.03 133.05,-337.18 129,-324 106.85,-251.97 127.34,-161.9 140.27,-117.82"/>
<polygon fill="black" stroke="black" points="143.66,-118.72 143.21,-108.13 136.96,-116.69 143.66,-118.72"/>
<g id="a_edge12&#45;headlabel"><a xlink:href="dir_000056_000018.html" target="_top" xlink:title="1">
<text text-anchor="middle" x="145.33" y="-120.48" font-family="Helvetica,sans-Serif" font-size="10.00">1</text>
</a>
</g>
</g>
<!-- dir_b92bdf1392c6a155b2fe0705d8bea461 -->
<g id="node6" class="node">
<title>dir_b92bdf1392c6a155b2fe0705d8bea461</title>
<g id="a_node6"><a xlink:href="dir_b92bdf1392c6a155b2fe0705d8bea461.html" target="_top" xlink:title="expmodifier">
<polygon fill="none" stroke="black" points="254,-180 178,-180 178,-144 254,-144 254,-180"/>
<text text-anchor="middle" x="216" y="-159.5" font-family="Helvetica,sans-Serif" font-size="10.00">expmodifier</text>
</a>
</g>
</g>
<!-- dir_b2dbe3ef876199a580a9e778cdd03e43&#45;&gt;dir_b92bdf1392c6a155b2fe0705d8bea461 -->
<g id="edge13" class="edge">
<title>dir_b2dbe3ef876199a580a9e778cdd03e43&#45;&gt;dir_b92bdf1392c6a155b2fe0705d8bea461</title>
<path fill="none" stroke="black" d="M179.32,-359.92C186.9,-350.02 195.7,-336.98 201,-324 219.02,-279.87 219.73,-223.45 218.17,-190.46"/>
<polygon fill="black" stroke="black" points="221.65,-190 217.58,-180.22 214.66,-190.4 221.65,-190"/>
<g id="a_edge13&#45;headlabel"><a xlink:href="dir_000056_000021.html" target="_top" xlink:title="5">
<text text-anchor="middle" x="224.69" y="-190.92" font-family="Helvetica,sans-Serif" font-size="10.00">5</text>
</a>
</g>
</g>
<!-- dir_cacbc0f8d661c3f2ef6995c140cb013b&#45;&gt;dir_b7264726bdfa508dc9a1f79664d9f9a2 -->
<g id="edge1" class="edge">
<title>dir_cacbc0f8d661c3f2ef6995c140cb013b&#45;&gt;dir_b7264726bdfa508dc9a1f79664d9f9a2</title>
<path fill="none" stroke="black" d="M191.88,-287.88C212.26,-276.61 240.33,-261.98 262.68,-250.96"/>
<polygon fill="black" stroke="black" points="264.42,-254 271.88,-246.48 261.35,-247.71 264.42,-254"/>
<g id="a_edge1&#45;headlabel"><a xlink:href="dir_000014_000007.html" target="_top" xlink:title="119">
<text text-anchor="middle" x="262.43" y="-255.63" font-family="Helvetica,sans-Serif" font-size="10.00">119</text>
</a>
</g>
</g>
<!-- dir_cacbc0f8d661c3f2ef6995c140cb013b&#45;&gt;dir_5646c4a3c156db227fe899778b3c4cdf -->
<g id="edge2" class="edge">
<title>dir_cacbc0f8d661c3f2ef6995c140cb013b&#45;&gt;dir_5646c4a3c156db227fe899778b3c4cdf</title>
<path fill="none" stroke="black" d="M153.8,-287.91C138.14,-254.1 112.83,-176.05 104,-108 101.94,-92.13 99.3,-87.29 104,-72 107.04,-62.11 112.62,-52.41 118.93,-44.07"/>
<polygon fill="black" stroke="black" points="121.74,-46.16 125.41,-36.23 116.35,-41.71 121.74,-46.16"/>
<g id="a_edge2&#45;headlabel"><a xlink:href="dir_000014_000002.html" target="_top" xlink:title="58">
<text text-anchor="middle" x="121.64" y="-48.24" font-family="Helvetica,sans-Serif" font-size="10.00">58</text>
</a>
</g>
</g>
<!-- dir_cacbc0f8d661c3f2ef6995c140cb013b&#45;&gt;dir_89a2a0f8e65887f6f5e7f07c9ce97f37 -->
<g id="edge3" class="edge">
<title>dir_cacbc0f8d661c3f2ef6995c140cb013b&#45;&gt;dir_89a2a0f8e65887f6f5e7f07c9ce97f37</title>
<path fill="none" stroke="black" d="M159.84,-287.85C153.54,-250.83 146.71,-163.18 146.36,-118.39"/>
<polygon fill="black" stroke="black" points="149.86,-118.25 146.4,-108.23 142.86,-118.22 149.86,-118.25"/>
<g id="a_edge3&#45;headlabel"><a xlink:href="dir_000014_000018.html" target="_top" xlink:title="15">
<text text-anchor="middle" x="152.68" y="-119.36" font-family="Helvetica,sans-Serif" font-size="10.00">15</text>
</a>
</g>
</g>
<!-- dir_cacbc0f8d661c3f2ef6995c140cb013b&#45;&gt;dir_b92bdf1392c6a155b2fe0705d8bea461 -->
<g id="edge4" class="edge">
<title>dir_cacbc0f8d661c3f2ef6995c140cb013b&#45;&gt;dir_b92bdf1392c6a155b2fe0705d8bea461</title>
<path fill="none" stroke="black" d="M166.57,-287.87C172.75,-263.46 188.65,-218.43 201.03,-189.64"/>
<polygon fill="black" stroke="black" points="204.36,-190.75 205.24,-180.19 197.97,-187.9 204.36,-190.75"/>
<g id="a_edge4&#45;headlabel"><a xlink:href="dir_000014_000021.html" target="_top" xlink:title="4">
<text text-anchor="middle" x="205.49" y="-192.69" font-family="Helvetica,sans-Serif" font-size="10.00">4</text>
</a>
</g>
</g>
<!-- dir_b7264726bdfa508dc9a1f79664d9f9a2&#45;&gt;dir_cacbc0f8d661c3f2ef6995c140cb013b -->
<g id="edge5" class="edge">
<title>dir_b7264726bdfa508dc9a1f79664d9f9a2&#45;&gt;dir_cacbc0f8d661c3f2ef6995c140cb013b</title>
<path fill="none" stroke="black" d="M272.19,-252.08C251.86,-263.32 223.84,-277.94 201.49,-288.96"/>
<polygon fill="black" stroke="black" points="199.75,-285.91 192.29,-293.44 202.82,-292.2 199.75,-285.91"/>
<g id="a_edge5&#45;headlabel"><a xlink:href="dir_000007_000014.html" target="_top" xlink:title="35">
<text text-anchor="middle" x="201.73" y="-279.28" font-family="Helvetica,sans-Serif" font-size="10.00">35</text>
</a>
</g>
</g>
<!-- dir_b7264726bdfa508dc9a1f79664d9f9a2&#45;&gt;dir_5646c4a3c156db227fe899778b3c4cdf -->
<g id="edge6" class="edge">
<title>dir_b7264726bdfa508dc9a1f79664d9f9a2&#45;&gt;dir_5646c4a3c156db227fe899778b3c4cdf</title>
<path fill="none" stroke="black" d="M293.73,-215.89C292.01,-197.17 290.88,-166.78 279,-144 255.96,-99.81 210.54,-63.66 179.83,-41.8"/>
<polygon fill="black" stroke="black" points="181.79,-38.9 171.59,-36.02 177.77,-44.63 181.79,-38.9"/>
<g id="a_edge6&#45;headlabel"><a xlink:href="dir_000007_000002.html" target="_top" xlink:title="57">
<text text-anchor="middle" x="186.36" y="-36.14" font-family="Helvetica,sans-Serif" font-size="10.00">57</text>
</a>
</g>
</g>
<!-- dir_b7264726bdfa508dc9a1f79664d9f9a2&#45;&gt;dir_89a2a0f8e65887f6f5e7f07c9ce97f37 -->
<g id="edge7" class="edge">
<title>dir_b7264726bdfa508dc9a1f79664d9f9a2&#45;&gt;dir_89a2a0f8e65887f6f5e7f07c9ce97f37</title>
<path fill="none" stroke="black" d="M296,-215.88C291.77,-196.28 282.29,-164.3 263,-144 242.25,-122.17 210.75,-108.47 186.11,-100.49"/>
<polygon fill="black" stroke="black" points="186.96,-97.08 176.37,-97.5 184.91,-103.78 186.96,-97.08"/>
<g id="a_edge7&#45;headlabel"><a xlink:href="dir_000007_000018.html" target="_top" xlink:title="7">
<text text-anchor="middle" x="191.22" y="-92.92" font-family="Helvetica,sans-Serif" font-size="10.00">7</text>
</a>
</g>
</g>
<!-- dir_b7264726bdfa508dc9a1f79664d9f9a2&#45;&gt;dir_b92bdf1392c6a155b2fe0705d8bea461 -->
<g id="edge8" class="edge">
<title>dir_b7264726bdfa508dc9a1f79664d9f9a2&#45;&gt;dir_b92bdf1392c6a155b2fe0705d8bea461</title>
<path fill="none" stroke="black" d="M272.57,-215.7C261.42,-207.05 248.68,-196.45 238.04,-187.03"/>
<polygon fill="black" stroke="black" points="240.15,-184.21 230.39,-180.1 235.46,-189.41 240.15,-184.21"/>
<g id="a_edge8&#45;headlabel"><a xlink:href="dir_000007_000021.html" target="_top" xlink:title="21">
<text text-anchor="middle" x="244.72" y="-182.02" font-family="Helvetica,sans-Serif" font-size="10.00">21</text>
</a>
</g>
</g>
<!-- dir_5646c4a3c156db227fe899778b3c4cdf&#45;&gt;dir_cacbc0f8d661c3f2ef6995c140cb013b -->
<g id="edge14" class="edge">
<title>dir_5646c4a3c156db227fe899778b3c4cdf&#45;&gt;dir_cacbc0f8d661c3f2ef6995c140cb013b</title>
<path fill="none" stroke="black" d="M141.37,-36.23C134.63,-45.97 126.05,-58.82 122,-72 117.3,-87.29 119.94,-92.13 122,-108 130.04,-169.94 151.72,-240.15 161.46,-277.76"/>
<polygon fill="black" stroke="black" points="158.17,-279.04 163.96,-287.91 164.96,-277.36 158.17,-279.04"/>
<g id="a_edge14&#45;headlabel"><a xlink:href="dir_000002_000014.html" target="_top" xlink:title="21">
<text text-anchor="middle" x="154.55" y="-273.73" font-family="Helvetica,sans-Serif" font-size="10.00">21</text>
</a>
</g>
</g>
<!-- dir_5646c4a3c156db227fe899778b3c4cdf&#45;&gt;dir_b7264726bdfa508dc9a1f79664d9f9a2 -->
<g id="edge15" class="edge">
<title>dir_5646c4a3c156db227fe899778b3c4cdf&#45;&gt;dir_b7264726bdfa508dc9a1f79664d9f9a2</title>
<path fill="none" stroke="black" d="M176.05,-31.17C210.96,-50.54 269.69,-91.63 297,-144 306.93,-163.04 309.35,-187.4 308.07,-205.82"/>
<polygon fill="black" stroke="black" points="304.57,-205.56 306.91,-215.89 311.53,-206.36 304.57,-205.56"/>
<g id="a_edge15&#45;headlabel"><a xlink:href="dir_000002_000007.html" target="_top" xlink:title="41">
<text text-anchor="middle" x="302.16" y="-199.16" font-family="Helvetica,sans-Serif" font-size="10.00">41</text>
</a>
</g>
</g>
<!-- dir_5646c4a3c156db227fe899778b3c4cdf&#45;&gt;dir_89a2a0f8e65887f6f5e7f07c9ce97f37 -->
<g id="edge16" class="edge">
<title>dir_5646c4a3c156db227fe899778b3c4cdf&#45;&gt;dir_89a2a0f8e65887f6f5e7f07c9ce97f37</title>
<path fill="none" stroke="black" d="M154.9,-36.1C155.7,-43.79 155.94,-53.05 155.6,-61.67"/>
<polygon fill="black" stroke="black" points="152.11,-61.48 154.92,-71.7 159.09,-61.96 152.11,-61.48"/>
<g id="a_edge16&#45;headlabel"><a xlink:href="dir_000002_000018.html" target="_top" xlink:title="15">
<text text-anchor="middle" x="149.52" y="-55.2" font-family="Helvetica,sans-Serif" font-size="10.00">15</text>
</a>
</g>
</g>
<!-- dir_89a2a0f8e65887f6f5e7f07c9ce97f37&#45;&gt;dir_cacbc0f8d661c3f2ef6995c140cb013b -->
<g id="edge17" class="edge">
<title>dir_89a2a0f8e65887f6f5e7f07c9ce97f37&#45;&gt;dir_cacbc0f8d661c3f2ef6995c140cb013b</title>
<path fill="none" stroke="black" d="M154.17,-108.23C160.48,-145.32 167.3,-232.98 167.65,-277.71"/>
<polygon fill="black" stroke="black" points="164.14,-277.83 167.6,-287.85 171.14,-277.87 164.14,-277.83"/>
<g id="a_edge17&#45;headlabel"><a xlink:href="dir_000018_000014.html" target="_top" xlink:title="3">
<text text-anchor="middle" x="161.32" y="-271.72" font-family="Helvetica,sans-Serif" font-size="10.00">3</text>
</a>
</g>
</g>
<!-- dir_89a2a0f8e65887f6f5e7f07c9ce97f37&#45;&gt;dir_5646c4a3c156db227fe899778b3c4cdf -->
<g id="edge18" class="edge">
<title>dir_89a2a0f8e65887f6f5e7f07c9ce97f37&#45;&gt;dir_5646c4a3c156db227fe899778b3c4cdf</title>
<path fill="none" stroke="black" d="M143.08,-71.7C142.29,-63.98 142.06,-54.71 142.4,-46.11"/>
<polygon fill="black" stroke="black" points="145.9,-46.32 143.1,-36.1 138.92,-45.84 145.9,-46.32"/>
<g id="a_edge18&#45;headlabel"><a xlink:href="dir_000018_000002.html" target="_top" xlink:title="8">
<text text-anchor="middle" x="148.48" y="-47.61" font-family="Helvetica,sans-Serif" font-size="10.00">8</text>
</a>
</g>
</g>
<!-- dir_b92bdf1392c6a155b2fe0705d8bea461&#45;&gt;dir_cacbc0f8d661c3f2ef6995c140cb013b -->
<g id="edge19" class="edge">
<title>dir_b92bdf1392c6a155b2fe0705d8bea461&#45;&gt;dir_cacbc0f8d661c3f2ef6995c140cb013b</title>
<path fill="none" stroke="black" d="M214.42,-180.19C208.21,-204.64 192.31,-249.67 179.94,-278.44"/>
<polygon fill="black" stroke="black" points="176.61,-277.31 175.74,-287.87 183,-280.16 176.61,-277.31"/>
<g id="a_edge19&#45;headlabel"><a xlink:href="dir_000021_000014.html" target="_top" xlink:title="10">
<text text-anchor="middle" x="175.48" y="-270.37" font-family="Helvetica,sans-Serif" font-size="10.00">10</text>
</a>
</g>
</g>
<!-- dir_b92bdf1392c6a155b2fe0705d8bea461&#45;&gt;dir_b7264726bdfa508dc9a1f79664d9f9a2 -->
<g id="edge20" class="edge">
<title>dir_b92bdf1392c6a155b2fe0705d8bea461&#45;&gt;dir_b7264726bdfa508dc9a1f79664d9f9a2</title>
<path fill="none" stroke="black" d="M242.18,-180.1C253.3,-188.72 266.05,-199.32 276.71,-208.76"/>
<polygon fill="black" stroke="black" points="274.63,-211.59 284.4,-215.7 279.32,-206.4 274.63,-211.59"/>
<g id="a_edge20&#45;headlabel"><a xlink:href="dir_000021_000007.html" target="_top" xlink:title="62">
<text text-anchor="middle" x="270.06" y="-208.79" font-family="Helvetica,sans-Serif" font-size="10.00">62</text>
</a>
</g>
</g>
<!-- dir_b92bdf1392c6a155b2fe0705d8bea461&#45;&gt;dir_5646c4a3c156db227fe899778b3c4cdf -->
<g id="edge21" class="edge">
<title>dir_b92bdf1392c6a155b2fe0705d8bea461&#45;&gt;dir_5646c4a3c156db227fe899778b3c4cdf</title>
<path fill="none" stroke="black" d="M211.44,-143.73C206.27,-125.39 196.98,-95.83 185,-72 180.33,-62.71 174.26,-53.13 168.45,-44.72"/>
<polygon fill="black" stroke="black" points="171.2,-42.55 162.55,-36.43 165.5,-46.61 171.2,-42.55"/>
<g id="a_edge21&#45;headlabel"><a xlink:href="dir_000021_000002.html" target="_top" xlink:title="5">
<text text-anchor="middle" x="175.6" y="-41.33" font-family="Helvetica,sans-Serif" font-size="10.00">5</text>
</a>
</g>
</g>
<!-- dir_b92bdf1392c6a155b2fe0705d8bea461&#45;&gt;dir_89a2a0f8e65887f6f5e7f07c9ce97f37 -->
<g id="edge22" class="edge">
<title>dir_b92bdf1392c6a155b2fe0705d8bea461&#45;&gt;dir_89a2a0f8e65887f6f5e7f07c9ce97f37</title>
<path fill="none" stroke="black" d="M199.44,-143.7C191.32,-135.22 181.41,-124.86 172.53,-115.58"/>
<polygon fill="black" stroke="black" points="174.81,-112.91 165.37,-108.1 169.76,-117.75 174.81,-112.91"/>
<g id="a_edge22&#45;headlabel"><a xlink:href="dir_000021_000018.html" target="_top" xlink:title="3">
<text text-anchor="middle" x="179.35" y="-111.04" font-family="Helvetica,sans-Serif" font-size="10.00">3</text>
</a>
</g>
</g>
</g>
</svg>
