<?xml version="1.0" encoding="UTF-8" standalone="no"?>
<!DOCTYPE svg PUBLIC "-//W3C//DTD SVG 1.1//EN"
 "http://www.w3.org/Graphics/SVG/1.1/DTD/svg11.dtd">
<!-- Generated by graphviz version 2.43.0 (0)
 -->
<!-- Title: decomp Pages: 1 -->
<svg width="568pt" height="511pt"
 viewBox="0.00 0.00 568.00 511.00" xmlns="http://www.w3.org/2000/svg" xmlns:xlink="http://www.w3.org/1999/xlink">
<g id="graph0" class="graph" transform="scale(1 1) rotate(0) translate(4 507)">
<title>decomp</title>
<polygon fill="white" stroke="transparent" points="-4,4 -4,-507 564,-507 564,4 -4,4"/>
<g id="clust1" class="cluster">
<title>clusterdir_8622b0e63b7fb230ba833b193101c161</title>
<g id="a_clust1"><a xlink:href="dir_8622b0e63b7fb230ba833b193101c161.html" target="_top" xlink:title="boomerang">
<polygon fill="#ddddee" stroke="black" points="97,-424 97,-495 169,-495 169,-424 97,-424"/>
<text text-anchor="middle" x="133" y="-483" font-family="Helvetica,sans-Serif" font-size="10.00">boomerang</text>
</a>
</g>
</g>
<!-- dir_1670a14e30757f4c1b31e1e530e46487 -->
<g id="node1" class="node">
<title>dir_1670a14e30757f4c1b31e1e530e46487</title>
<g id="a_node1"><a xlink:href="dir_1670a14e30757f4c1b31e1e530e46487.html" target="_top" xlink:title="decomp">
<polygon fill="#eeeeff" stroke="black" points="161,-468 105,-468 105,-432 161,-432 161,-468"/>
<text text-anchor="middle" x="133" y="-447.5" font-family="Helvetica,sans-Serif" font-size="10.00">decomp</text>
</a>
</g>
</g>
<!-- dir_cacbc0f8d661c3f2ef6995c140cb013b -->
<g id="node2" class="node">
<title>dir_cacbc0f8d661c3f2ef6995c140cb013b</title>
<g id="a_node2"><a xlink:href="dir_cacbc0f8d661c3f2ef6995c140cb013b.html" target="_top" xlink:title="db">
<polygon fill="white" stroke="red" points="354,-468 300,-468 300,-432 354,-432 354,-468"/>
<text text-anchor="middle" x="327" y="-447.5" font-family="Helvetica,sans-Serif" font-size="10.00">db</text>
</a>
</g>
</g>
<!-- dir_1670a14e30757f4c1b31e1e530e46487&#45;&gt;dir_cacbc0f8d661c3f2ef6995c140cb013b -->
<g id="edge21" class="edge">
<title>dir_1670a14e30757f4c1b31e1e530e46487&#45;&gt;dir_cacbc0f8d661c3f2ef6995c140cb013b</title>
<path fill="none" stroke="black" d="M161.04,-450C203.94,-450 246.84,-450 289.75,-450"/>
<polygon fill="black" stroke="black" points="289.77,-453.5 299.77,-450 289.77,-446.5 289.77,-453.5"/>
<g id="a_edge21&#45;headlabel"><a xlink:href="dir_000027_000014.html" target="_top" xlink:title="25">
<text text-anchor="middle" x="286.18" y="-453.84" font-family="Helvetica,sans-Serif" font-size="10.00">25</text>
</a>
</g>
</g>
<!-- dir_00cea25d4360966f2fbb8df56cdad836 -->
<g id="node3" class="node">
<title>dir_00cea25d4360966f2fbb8df56cdad836</title>
<g id="a_node3"><a xlink:href="dir_00cea25d4360966f2fbb8df56cdad836.html" target="_top" xlink:title="ifc">
<polygon fill="none" stroke="black" points="290,-396 236,-396 236,-360 290,-360 290,-396"/>
<text text-anchor="middle" x="263" y="-375.5" font-family="Helvetica,sans-Serif" font-size="10.00">ifc</text>
</a>
</g>
</g>
<!-- dir_1670a14e30757f4c1b31e1e530e46487&#45;&gt;dir_00cea25d4360966f2fbb8df56cdad836 -->
<g id="edge22" class="edge">
<title>dir_1670a14e30757f4c1b31e1e530e46487&#45;&gt;dir_00cea25d4360966f2fbb8df56cdad836</title>
<path fill="none" stroke="black" d="M161.21,-433.81C180.46,-423.44 206.14,-409.62 226.89,-398.45"/>
<polygon fill="black" stroke="black" points="228.59,-401.5 235.74,-393.68 225.27,-395.34 228.59,-401.5"/>
<g id="a_edge22&#45;headlabel"><a xlink:href="dir_000027_000044.html" target="_top" xlink:title="1">
<text text-anchor="middle" x="226.77" y="-403.21" font-family="Helvetica,sans-Serif" font-size="10.00">1</text>
</a>
</g>
</g>
<!-- dir_3731137dd4cde3a8f32b6960f0d2e696 -->
<g id="node4" class="node">
<title>dir_3731137dd4cde3a8f32b6960f0d2e696</title>
<g id="a_node4"><a xlink:href="dir_3731137dd4cde3a8f32b6960f0d2e696.html" target="_top" xlink:title="passes">
<polygon fill="white" stroke="red" points="308,-108 254,-108 254,-72 308,-72 308,-108"/>
<text text-anchor="middle" x="281" y="-87.5" font-family="Helvetica,sans-Serif" font-size="10.00">passes</text>
</a>
</g>
</g>
<!-- dir_1670a14e30757f4c1b31e1e530e46487&#45;&gt;dir_3731137dd4cde3a8f32b6960f0d2e696 -->
<g id="edge23" class="edge">
<title>dir_1670a14e30757f4c1b31e1e530e46487&#45;&gt;dir_3731137dd4cde3a8f32b6960f0d2e696</title>
<path fill="none" stroke="black" d="M111.61,-431.66C101.65,-422.25 90.74,-409.75 85,-396 66.48,-351.68 65.51,-333.47 81,-288 107.06,-211.51 131.55,-197.62 192,-144 207.78,-130 227.78,-117.71 244.82,-108.49"/>
<polygon fill="black" stroke="black" points="246.72,-111.45 253.94,-103.7 243.46,-105.25 246.72,-111.45"/>
<g id="a_edge23&#45;headlabel"><a xlink:href="dir_000027_000010.html" target="_top" xlink:title="3">
<text text-anchor="middle" x="244.86" y="-113.14" font-family="Helvetica,sans-Serif" font-size="10.00">3</text>
</a>
</g>
</g>
<!-- dir_014c721151abc8438874b072d5fa83c2 -->
<g id="node5" class="node">
<title>dir_014c721151abc8438874b072d5fa83c2</title>
<g id="a_node5"><a xlink:href="dir_014c721151abc8438874b072d5fa83c2.html" target="_top" xlink:title="visitor">
<polygon fill="white" stroke="red" points="308,-36 254,-36 254,0 308,0 308,-36"/>
<text text-anchor="middle" x="281" y="-15.5" font-family="Helvetica,sans-Serif" font-size="10.00">visitor</text>
</a>
</g>
</g>
<!-- dir_1670a14e30757f4c1b31e1e530e46487&#45;&gt;dir_014c721151abc8438874b072d5fa83c2 -->
<g id="edge24" class="edge">
<title>dir_1670a14e30757f4c1b31e1e530e46487&#45;&gt;dir_014c721151abc8438874b072d5fa83c2</title>
<path fill="none" stroke="black" d="M104.79,-434.96C65.75,-413.3 0,-367.8 0,-307 0,-307 0,-307 0,-161 0,-53.07 167.18,-27.16 243.64,-20.95"/>
<polygon fill="black" stroke="black" points="244.09,-24.43 253.8,-20.2 243.57,-17.44 244.09,-24.43"/>
<g id="a_edge24&#45;headlabel"><a xlink:href="dir_000027_000012.html" target="_top" xlink:title="2">
<text text-anchor="middle" x="240.71" y="-25.02" font-family="Helvetica,sans-Serif" font-size="10.00">2</text>
</a>
</g>
</g>
<!-- dir_b7264726bdfa508dc9a1f79664d9f9a2 -->
<g id="node6" class="node">
<title>dir_b7264726bdfa508dc9a1f79664d9f9a2</title>
<g id="a_node6"><a xlink:href="dir_b7264726bdfa508dc9a1f79664d9f9a2.html" target="_top" xlink:title="ssl">
<polygon fill="white" stroke="red" points="372,-180 318,-180 318,-144 372,-144 372,-180"/>
<text text-anchor="middle" x="345" y="-159.5" font-family="Helvetica,sans-Serif" font-size="10.00">ssl</text>
</a>
</g>
</g>
<!-- dir_1670a14e30757f4c1b31e1e530e46487&#45;&gt;dir_b7264726bdfa508dc9a1f79664d9f9a2 -->
<g id="edge25" class="edge">
<title>dir_1670a14e30757f4c1b31e1e530e46487&#45;&gt;dir_b7264726bdfa508dc9a1f79664d9f9a2</title>
<path fill="none" stroke="black" d="M161.05,-446.09C196.5,-441.16 257.84,-428.32 299,-396 353.94,-352.86 353.01,-321.28 362,-252 364.06,-236.13 364.47,-231.81 362,-216 360.64,-207.31 358.1,-198.1 355.39,-189.84"/>
<polygon fill="black" stroke="black" points="358.67,-188.62 352.07,-180.33 352.06,-190.93 358.67,-188.62"/>
<g id="a_edge25&#45;headlabel"><a xlink:href="dir_000027_000007.html" target="_top" xlink:title="26">
<text text-anchor="middle" x="362.54" y="-188.58" font-family="Helvetica,sans-Serif" font-size="10.00">26</text>
</a>
</g>
</g>
<!-- dir_5646c4a3c156db227fe899778b3c4cdf -->
<g id="node7" class="node">
<title>dir_5646c4a3c156db227fe899778b3c4cdf</title>
<g id="a_node7"><a xlink:href="dir_5646c4a3c156db227fe899778b3c4cdf.html" target="_top" xlink:title="util">
<polygon fill="white" stroke="red" points="232,-252 178,-252 178,-216 232,-216 232,-252"/>
<text text-anchor="middle" x="205" y="-231.5" font-family="Helvetica,sans-Serif" font-size="10.00">util</text>
</a>
</g>
</g>
<!-- dir_1670a14e30757f4c1b31e1e530e46487&#45;&gt;dir_5646c4a3c156db227fe899778b3c4cdf -->
<g id="edge26" class="edge">
<title>dir_1670a14e30757f4c1b31e1e530e46487&#45;&gt;dir_5646c4a3c156db227fe899778b3c4cdf</title>
<path fill="none" stroke="black" d="M120.94,-431.63C100.97,-400.51 65.97,-334.21 95,-288 110.93,-262.65 142.77,-249.13 168.11,-242.12"/>
<polygon fill="black" stroke="black" points="168.98,-245.51 177.81,-239.65 167.25,-238.72 168.98,-245.51"/>
<g id="a_edge26&#45;headlabel"><a xlink:href="dir_000027_000002.html" target="_top" xlink:title="11">
<text text-anchor="middle" x="166.19" y="-246.65" font-family="Helvetica,sans-Serif" font-size="10.00">11</text>
</a>
</g>
</g>
<!-- dir_89a2a0f8e65887f6f5e7f07c9ce97f37 -->
<g id="node8" class="node">
<title>dir_89a2a0f8e65887f6f5e7f07c9ce97f37</title>
<g id="a_node8"><a xlink:href="dir_89a2a0f8e65887f6f5e7f07c9ce97f37.html" target="_top" xlink:title="core">
<polygon fill="white" stroke="red" points="158,-324 104,-324 104,-288 158,-288 158,-324"/>
<text text-anchor="middle" x="131" y="-303.5" font-family="Helvetica,sans-Serif" font-size="10.00">core</text>
</a>
</g>
</g>
<!-- dir_1670a14e30757f4c1b31e1e530e46487&#45;&gt;dir_89a2a0f8e65887f6f5e7f07c9ce97f37 -->
<g id="edge27" class="edge">
<title>dir_1670a14e30757f4c1b31e1e530e46487&#45;&gt;dir_89a2a0f8e65887f6f5e7f07c9ce97f37</title>
<path fill="none" stroke="black" d="M132.76,-431.87C132.42,-407.67 131.79,-363.21 131.39,-334.39"/>
<polygon fill="black" stroke="black" points="134.88,-334.14 131.24,-324.19 127.88,-334.24 134.88,-334.14"/>
<g id="a_edge27&#45;headlabel"><a xlink:href="dir_000027_000018.html" target="_top" xlink:title="15">
<text text-anchor="middle" x="137.77" y="-335.19" font-family="Helvetica,sans-Serif" font-size="10.00">15</text>
</a>
</g>
</g>
<!-- dir_cacbc0f8d661c3f2ef6995c140cb013b&#45;&gt;dir_00cea25d4360966f2fbb8df56cdad836 -->
<g id="edge1" class="edge">
<title>dir_cacbc0f8d661c3f2ef6995c140cb013b&#45;&gt;dir_00cea25d4360966f2fbb8df56cdad836</title>
<path fill="none" stroke="black" d="M305.26,-431.7C296.73,-423.3 287.18,-413.07 279.24,-403.86"/>
<polygon fill="black" stroke="black" points="281.85,-401.52 272.74,-396.1 276.48,-406.02 281.85,-401.52"/>
<g id="a_edge1&#45;headlabel"><a xlink:href="dir_000014_000044.html" target="_top" xlink:title="7">
<text text-anchor="middle" x="286.33" y="-399.96" font-family="Helvetica,sans-Serif" font-size="10.00">7</text>
</a>
</g>
</g>
<!-- dir_cacbc0f8d661c3f2ef6995c140cb013b&#45;&gt;dir_3731137dd4cde3a8f32b6960f0d2e696 -->
<g id="edge2" class="edge">
<title>dir_cacbc0f8d661c3f2ef6995c140cb013b&#45;&gt;dir_3731137dd4cde3a8f32b6960f0d2e696</title>
<path fill="none" stroke="black" d="M354.11,-438.15C399.68,-419.65 486,-377.08 486,-307 486,-307 486,-307 486,-233 486,-151.65 377.31,-114.13 318.11,-99.28"/>
<polygon fill="black" stroke="black" points="318.9,-95.88 308.36,-96.93 317.26,-102.68 318.9,-95.88"/>
<g id="a_edge2&#45;headlabel"><a xlink:href="dir_000014_000010.html" target="_top" xlink:title="2">
<text text-anchor="middle" x="323.06" y="-91.46" font-family="Helvetica,sans-Serif" font-size="10.00">2</text>
</a>
</g>
</g>
<!-- dir_cacbc0f8d661c3f2ef6995c140cb013b&#45;&gt;dir_014c721151abc8438874b072d5fa83c2 -->
<g id="edge3" class="edge">
<title>dir_cacbc0f8d661c3f2ef6995c140cb013b&#45;&gt;dir_014c721151abc8438874b072d5fa83c2</title>
<path fill="none" stroke="black" d="M354.07,-443.95C412.03,-432.18 542,-396.79 542,-307 542,-307 542,-307 542,-161 542,-59.54 390.79,-30.41 318.46,-22.18"/>
<polygon fill="black" stroke="black" points="318.7,-18.68 308.39,-21.11 317.96,-25.64 318.7,-18.68"/>
<g id="a_edge3&#45;headlabel"><a xlink:href="dir_000014_000012.html" target="_top" xlink:title="5">
<text text-anchor="middle" x="322.58" y="-13.74" font-family="Helvetica,sans-Serif" font-size="10.00">5</text>
</a>
</g>
</g>
<!-- dir_cacbc0f8d661c3f2ef6995c140cb013b&#45;&gt;dir_b7264726bdfa508dc9a1f79664d9f9a2 -->
<g id="edge4" class="edge">
<title>dir_cacbc0f8d661c3f2ef6995c140cb013b&#45;&gt;dir_b7264726bdfa508dc9a1f79664d9f9a2</title>
<path fill="none" stroke="black" d="M354.23,-434.83C369.73,-426.23 387.67,-413.49 397,-396 434.65,-325.41 430.18,-288.79 397,-216 391.82,-204.65 382.88,-194.78 373.79,-186.75"/>
<polygon fill="black" stroke="black" points="375.79,-183.86 365.86,-180.16 371.32,-189.24 375.79,-183.86"/>
<g id="a_edge4&#45;headlabel"><a xlink:href="dir_000014_000007.html" target="_top" xlink:title="119">
<text text-anchor="middle" x="380.37" y="-181.47" font-family="Helvetica,sans-Serif" font-size="10.00">119</text>
</a>
</g>
</g>
<!-- dir_cacbc0f8d661c3f2ef6995c140cb013b&#45;&gt;dir_5646c4a3c156db227fe899778b3c4cdf -->
<g id="edge5" class="edge">
<title>dir_cacbc0f8d661c3f2ef6995c140cb013b&#45;&gt;dir_5646c4a3c156db227fe899778b3c4cdf</title>
<path fill="none" stroke="black" d="M316.82,-431.93C310.22,-413.51 302.14,-383.63 290,-360 270.68,-322.41 240.1,-284.32 221.12,-260.24"/>
<polygon fill="black" stroke="black" points="223.85,-258.04 214.93,-252.33 218.34,-262.36 223.85,-258.04"/>
<g id="a_edge5&#45;headlabel"><a xlink:href="dir_000014_000002.html" target="_top" xlink:title="58">
<text text-anchor="middle" x="228.3" y="-256.62" font-family="Helvetica,sans-Serif" font-size="10.00">58</text>
</a>
</g>
</g>
<!-- dir_cacbc0f8d661c3f2ef6995c140cb013b&#45;&gt;dir_89a2a0f8e65887f6f5e7f07c9ce97f37 -->
<g id="edge6" class="edge">
<title>dir_cacbc0f8d661c3f2ef6995c140cb013b&#45;&gt;dir_89a2a0f8e65887f6f5e7f07c9ce97f37</title>
<path fill="none" stroke="black" d="M299.8,-440.09C276.7,-430.56 243.79,-414.32 218,-396 191.08,-376.89 163.81,-350.81 146.89,-331.83"/>
<polygon fill="black" stroke="black" points="149.47,-329.47 140.3,-324.17 144.17,-334.03 149.47,-329.47"/>
<g id="a_edge6&#45;headlabel"><a xlink:href="dir_000014_000018.html" target="_top" xlink:title="15">
<text text-anchor="middle" x="153.97" y="-327.84" font-family="Helvetica,sans-Serif" font-size="10.00">15</text>
</a>
</g>
</g>
<!-- dir_00cea25d4360966f2fbb8df56cdad836&#45;&gt;dir_cacbc0f8d661c3f2ef6995c140cb013b -->
<g id="edge7" class="edge">
<title>dir_00cea25d4360966f2fbb8df56cdad836&#45;&gt;dir_cacbc0f8d661c3f2ef6995c140cb013b</title>
<path fill="none" stroke="black" d="M284.53,-396.1C293.06,-404.47 302.61,-414.69 310.57,-423.92"/>
<polygon fill="black" stroke="black" points="307.99,-426.28 317.1,-431.7 313.35,-421.79 307.99,-426.28"/>
<g id="a_edge7&#45;headlabel"><a xlink:href="dir_000044_000014.html" target="_top" xlink:title="2">
<text text-anchor="middle" x="303.5" y="-422.85" font-family="Helvetica,sans-Serif" font-size="10.00">2</text>
</a>
</g>
</g>
<!-- dir_00cea25d4360966f2fbb8df56cdad836&#45;&gt;dir_b7264726bdfa508dc9a1f79664d9f9a2 -->
<g id="edge8" class="edge">
<title>dir_00cea25d4360966f2fbb8df56cdad836&#45;&gt;dir_b7264726bdfa508dc9a1f79664d9f9a2</title>
<path fill="none" stroke="black" d="M275.46,-359.82C284.56,-350.28 296.02,-337.6 303,-324 325.22,-280.71 332.48,-223.65 337.51,-190.37"/>
<polygon fill="black" stroke="black" points="340.98,-190.88 339.08,-180.45 334.06,-189.78 340.98,-190.88"/>
<g id="a_edge8&#45;headlabel"><a xlink:href="dir_000044_000007.html" target="_top" xlink:title="2">
<text text-anchor="middle" x="343.22" y="-192.37" font-family="Helvetica,sans-Serif" font-size="10.00">2</text>
</a>
</g>
</g>
<!-- dir_00cea25d4360966f2fbb8df56cdad836&#45;&gt;dir_5646c4a3c156db227fe899778b3c4cdf -->
<g id="edge9" class="edge">
<title>dir_00cea25d4360966f2fbb8df56cdad836&#45;&gt;dir_5646c4a3c156db227fe899778b3c4cdf</title>
<path fill="none" stroke="black" d="M241.53,-359.7C233.21,-349.73 224.64,-336.7 219,-324 210.21,-304.22 204.28,-280.42 201.98,-262.41"/>
<polygon fill="black" stroke="black" points="205.45,-261.93 201.04,-252.29 198.48,-262.57 205.45,-261.93"/>
<g id="a_edge9&#45;headlabel"><a xlink:href="dir_000044_000002.html" target="_top" xlink:title="1">
<text text-anchor="middle" x="208.61" y="-262.74" font-family="Helvetica,sans-Serif" font-size="10.00">1</text>
</a>
</g>
</g>
<!-- dir_00cea25d4360966f2fbb8df56cdad836&#45;&gt;dir_89a2a0f8e65887f6f5e7f07c9ce97f37 -->
<g id="edge10" class="edge">
<title>dir_00cea25d4360966f2fbb8df56cdad836&#45;&gt;dir_89a2a0f8e65887f6f5e7f07c9ce97f37</title>
<path fill="none" stroke="black" d="M235.71,-365.28C215.5,-355.41 187.97,-341 166.15,-328.99"/>
<polygon fill="black" stroke="black" points="167.62,-325.8 157.18,-324 164.22,-331.92 167.62,-325.8"/>
<g id="a_edge10&#45;headlabel"><a xlink:href="dir_000044_000018.html" target="_top" xlink:title="4">
<text text-anchor="middle" x="172.14" y="-322.57" font-family="Helvetica,sans-Serif" font-size="10.00">4</text>
</a>
</g>
</g>
<!-- dir_3731137dd4cde3a8f32b6960f0d2e696&#45;&gt;dir_cacbc0f8d661c3f2ef6995c140cb013b -->
<g id="edge11" class="edge">
<title>dir_3731137dd4cde3a8f32b6960f0d2e696&#45;&gt;dir_cacbc0f8d661c3f2ef6995c140cb013b</title>
<path fill="none" stroke="black" d="M308.35,-94.94C368.11,-105.88 504,-142.04 504,-233 504,-307 504,-307 504,-307 504,-377.86 415.75,-420.6 363.75,-438.75"/>
<polygon fill="black" stroke="black" points="362.55,-435.46 354.18,-441.96 364.77,-442.1 362.55,-435.46"/>
<g id="a_edge11&#45;headlabel"><a xlink:href="dir_000010_000014.html" target="_top" xlink:title="59">
<text text-anchor="middle" x="365.05" y="-429.13" font-family="Helvetica,sans-Serif" font-size="10.00">59</text>
</a>
</g>
</g>
<!-- dir_3731137dd4cde3a8f32b6960f0d2e696&#45;&gt;dir_00cea25d4360966f2fbb8df56cdad836 -->
<g id="edge12" class="edge">
<title>dir_3731137dd4cde3a8f32b6960f0d2e696&#45;&gt;dir_00cea25d4360966f2fbb8df56cdad836</title>
<path fill="none" stroke="black" d="M279.91,-108.31C276.89,-156.31 268.38,-291.44 264.72,-349.7"/>
<polygon fill="black" stroke="black" points="261.21,-349.77 264.07,-359.97 268.19,-350.21 261.21,-349.77"/>
<g id="a_edge12&#45;headlabel"><a xlink:href="dir_000010_000044.html" target="_top" xlink:title="2">
<text text-anchor="middle" x="258.6" y="-343.5" font-family="Helvetica,sans-Serif" font-size="10.00">2</text>
</a>
</g>
</g>
<!-- dir_3731137dd4cde3a8f32b6960f0d2e696&#45;&gt;dir_014c721151abc8438874b072d5fa83c2 -->
<g id="edge13" class="edge">
<title>dir_3731137dd4cde3a8f32b6960f0d2e696&#45;&gt;dir_014c721151abc8438874b072d5fa83c2</title>
<path fill="none" stroke="black" d="M281,-71.7C281,-63.98 281,-54.71 281,-46.11"/>
<polygon fill="black" stroke="black" points="284.5,-46.1 281,-36.1 277.5,-46.1 284.5,-46.1"/>
<g id="a_edge13&#45;headlabel"><a xlink:href="dir_000010_000012.html" target="_top" xlink:title="20">
<text text-anchor="middle" x="287.34" y="-47.2" font-family="Helvetica,sans-Serif" font-size="10.00">20</text>
</a>
</g>
</g>
<!-- dir_3731137dd4cde3a8f32b6960f0d2e696&#45;&gt;dir_b7264726bdfa508dc9a1f79664d9f9a2 -->
<g id="edge14" class="edge">
<title>dir_3731137dd4cde3a8f32b6960f0d2e696&#45;&gt;dir_b7264726bdfa508dc9a1f79664d9f9a2</title>
<path fill="none" stroke="black" d="M302.53,-108.1C311.06,-116.47 320.61,-126.69 328.57,-135.92"/>
<polygon fill="black" stroke="black" points="325.99,-138.28 335.1,-143.7 331.35,-133.79 325.99,-138.28"/>
<g id="a_edge14&#45;headlabel"><a xlink:href="dir_000010_000007.html" target="_top" xlink:title="60">
<text text-anchor="middle" x="321.5" y="-134.85" font-family="Helvetica,sans-Serif" font-size="10.00">60</text>
</a>
</g>
</g>
<!-- dir_3731137dd4cde3a8f32b6960f0d2e696&#45;&gt;dir_5646c4a3c156db227fe899778b3c4cdf -->
<g id="edge15" class="edge">
<title>dir_3731137dd4cde3a8f32b6960f0d2e696&#45;&gt;dir_5646c4a3c156db227fe899778b3c4cdf</title>
<path fill="none" stroke="black" d="M271.8,-108.19C258.66,-132.74 234.4,-178.07 219.02,-206.81"/>
<polygon fill="black" stroke="black" points="215.8,-205.4 214.17,-215.87 221.97,-208.71 215.8,-205.4"/>
<g id="a_edge15&#45;headlabel"><a xlink:href="dir_000010_000002.html" target="_top" xlink:title="29">
<text text-anchor="middle" x="214.99" y="-198.39" font-family="Helvetica,sans-Serif" font-size="10.00">29</text>
</a>
</g>
</g>
<!-- dir_3731137dd4cde3a8f32b6960f0d2e696&#45;&gt;dir_89a2a0f8e65887f6f5e7f07c9ce97f37 -->
<g id="edge16" class="edge">
<title>dir_3731137dd4cde3a8f32b6960f0d2e696&#45;&gt;dir_89a2a0f8e65887f6f5e7f07c9ce97f37</title>
<path fill="none" stroke="black" d="M263.72,-108.4C253.71,-118.62 240.96,-131.87 230,-144 201.89,-175.13 191.04,-180.32 169,-216 156.78,-235.78 146.67,-260.18 139.96,-278.43"/>
<polygon fill="black" stroke="black" points="136.66,-277.27 136.59,-287.86 143.25,-279.62 136.66,-277.27"/>
<g id="a_edge16&#45;headlabel"><a xlink:href="dir_000010_000018.html" target="_top" xlink:title="26">
<text text-anchor="middle" x="135.19" y="-270.43" font-family="Helvetica,sans-Serif" font-size="10.00">26</text>
</a>
</g>
</g>
<!-- dir_014c721151abc8438874b072d5fa83c2&#45;&gt;dir_cacbc0f8d661c3f2ef6995c140cb013b -->
<g id="edge17" class="edge">
<title>dir_014c721151abc8438874b072d5fa83c2&#45;&gt;dir_cacbc0f8d661c3f2ef6995c140cb013b</title>
<path fill="none" stroke="black" d="M308.05,-20.33C378.31,-25.48 560,-49.78 560,-161 560,-307 560,-307 560,-307 560,-396.82 429.95,-432.2 364.05,-443.96"/>
<polygon fill="black" stroke="black" points="363.33,-440.53 354.06,-445.65 364.5,-447.43 363.33,-440.53"/>
<g id="a_edge17&#45;headlabel"><a xlink:href="dir_000012_000014.html" target="_top" xlink:title="15">
<text text-anchor="middle" x="366.4" y="-434.63" font-family="Helvetica,sans-Serif" font-size="10.00">15</text>
</a>
</g>
</g>
<!-- dir_014c721151abc8438874b072d5fa83c2&#45;&gt;dir_b7264726bdfa508dc9a1f79664d9f9a2 -->
<g id="edge18" class="edge">
<title>dir_014c721151abc8438874b072d5fa83c2&#45;&gt;dir_b7264726bdfa508dc9a1f79664d9f9a2</title>
<path fill="none" stroke="black" d="M302.63,-36.36C311.08,-46.35 319.89,-59.38 326,-72 335.57,-91.77 342.86,-115.58 346.26,-133.59"/>
<polygon fill="black" stroke="black" points="342.84,-134.36 347.83,-143.71 349.75,-133.29 342.84,-134.36"/>
<g id="a_edge18&#45;headlabel"><a xlink:href="dir_000012_000007.html" target="_top" xlink:title="116">
<text text-anchor="middle" x="339.48" y="-128.75" font-family="Helvetica,sans-Serif" font-size="10.00">116</text>
</a>
</g>
</g>
<!-- dir_014c721151abc8438874b072d5fa83c2&#45;&gt;dir_5646c4a3c156db227fe899778b3c4cdf -->
<g id="edge19" class="edge">
<title>dir_014c721151abc8438874b072d5fa83c2&#45;&gt;dir_5646c4a3c156db227fe899778b3c4cdf</title>
<path fill="none" stroke="black" d="M274.93,-36.22C268.53,-46.16 259.72,-59.2 254,-72 233.97,-116.85 222.87,-173.39 215.04,-206.15"/>
<polygon fill="black" stroke="black" points="211.63,-205.35 212.6,-215.9 218.42,-207.05 211.63,-205.35"/>
<g id="a_edge19&#45;headlabel"><a xlink:href="dir_000012_000002.html" target="_top" xlink:title="7">
<text text-anchor="middle" x="209.75" y="-198.68" font-family="Helvetica,sans-Serif" font-size="10.00">7</text>
</a>
</g>
</g>
<!-- dir_014c721151abc8438874b072d5fa83c2&#45;&gt;dir_89a2a0f8e65887f6f5e7f07c9ce97f37 -->
<g id="edge20" class="edge">
<title>dir_014c721151abc8438874b072d5fa83c2&#45;&gt;dir_89a2a0f8e65887f6f5e7f07c9ce97f37</title>
<path fill="none" stroke="black" d="M261.96,-36.09C251.54,-46 238.79,-59.04 229,-72 184.62,-130.77 172.1,-146.76 147,-216 139.74,-236.02 135.69,-259.8 133.47,-277.75"/>
<polygon fill="black" stroke="black" points="129.98,-277.5 132.35,-287.82 136.94,-278.27 129.98,-277.5"/>
<g id="a_edge20&#45;headlabel"><a xlink:href="dir_000012_000018.html" target="_top" xlink:title="7">
<text text-anchor="middle" x="127.56" y="-271.11" font-family="Helvetica,sans-Serif" font-size="10.00">7</text>
</a>
</g>
</g>
<!-- dir_b7264726bdfa508dc9a1f79664d9f9a2&#45;&gt;dir_cacbc0f8d661c3f2ef6995c140cb013b -->
<g id="edge28" class="edge">
<title>dir_b7264726bdfa508dc9a1f79664d9f9a2&#45;&gt;dir_cacbc0f8d661c3f2ef6995c140cb013b</title>
<path fill="none" stroke="black" d="M372.06,-173.81C388.11,-182.95 406.56,-197.49 415,-216 448.18,-288.79 452.65,-325.41 415,-396 404.5,-415.7 383.06,-429.37 363.84,-437.89"/>
<polygon fill="black" stroke="black" points="362.28,-434.74 354.35,-441.77 364.93,-441.22 362.28,-434.74"/>
<g id="a_edge28&#45;headlabel"><a xlink:href="dir_000007_000014.html" target="_top" xlink:title="35">
<text text-anchor="middle" x="364.54" y="-428.25" font-family="Helvetica,sans-Serif" font-size="10.00">35</text>
</a>
</g>
</g>
<!-- dir_b7264726bdfa508dc9a1f79664d9f9a2&#45;&gt;dir_00cea25d4360966f2fbb8df56cdad836 -->
<g id="edge29" class="edge">
<title>dir_b7264726bdfa508dc9a1f79664d9f9a2&#45;&gt;dir_00cea25d4360966f2fbb8df56cdad836</title>
<path fill="none" stroke="black" d="M349.84,-180.45C351.88,-211.13 345.62,-276.02 321,-324 315.32,-335.06 306.69,-345.51 297.71,-354.16"/>
<polygon fill="black" stroke="black" points="295.24,-351.68 290.15,-360.98 299.92,-356.88 295.24,-351.68"/>
<g id="a_edge29&#45;headlabel"><a xlink:href="dir_000007_000044.html" target="_top" xlink:title="5">
<text text-anchor="middle" x="296" y="-344.66" font-family="Helvetica,sans-Serif" font-size="10.00">5</text>
</a>
</g>
</g>
<!-- dir_b7264726bdfa508dc9a1f79664d9f9a2&#45;&gt;dir_3731137dd4cde3a8f32b6960f0d2e696 -->
<g id="edge30" class="edge">
<title>dir_b7264726bdfa508dc9a1f79664d9f9a2&#45;&gt;dir_3731137dd4cde3a8f32b6960f0d2e696</title>
<path fill="none" stroke="black" d="M323.26,-143.7C314.73,-135.3 305.18,-125.07 297.24,-115.86"/>
<polygon fill="black" stroke="black" points="299.85,-113.52 290.74,-108.1 294.48,-118.02 299.85,-113.52"/>
<g id="a_edge30&#45;headlabel"><a xlink:href="dir_000007_000010.html" target="_top" xlink:title="1">
<text text-anchor="middle" x="304.33" y="-111.96" font-family="Helvetica,sans-Serif" font-size="10.00">1</text>
</a>
</g>
</g>
<!-- dir_b7264726bdfa508dc9a1f79664d9f9a2&#45;&gt;dir_014c721151abc8438874b072d5fa83c2 -->
<g id="edge31" class="edge">
<title>dir_b7264726bdfa508dc9a1f79664d9f9a2&#45;&gt;dir_014c721151abc8438874b072d5fa83c2</title>
<path fill="none" stroke="black" d="M334.48,-143.71C327.71,-125.35 319.5,-95.77 308,-72 303.52,-62.74 297.57,-53.24 292.23,-44.9"/>
<polygon fill="black" stroke="black" points="295.11,-42.9 286.77,-36.36 289.21,-46.67 295.11,-42.9"/>
<g id="a_edge31&#45;headlabel"><a xlink:href="dir_000007_000012.html" target="_top" xlink:title="81">
<text text-anchor="middle" x="299.44" y="-41.9" font-family="Helvetica,sans-Serif" font-size="10.00">81</text>
</a>
</g>
</g>
<!-- dir_b7264726bdfa508dc9a1f79664d9f9a2&#45;&gt;dir_5646c4a3c156db227fe899778b3c4cdf -->
<g id="edge32" class="edge">
<title>dir_b7264726bdfa508dc9a1f79664d9f9a2&#45;&gt;dir_5646c4a3c156db227fe899778b3c4cdf</title>
<path fill="none" stroke="black" d="M317.8,-179.51C295.98,-191.06 265.32,-206.37 241.4,-217.65"/>
<polygon fill="black" stroke="black" points="239.85,-214.51 232.27,-221.91 242.81,-220.85 239.85,-214.51"/>
<g id="a_edge32&#45;headlabel"><a xlink:href="dir_000007_000002.html" target="_top" xlink:title="57">
<text text-anchor="middle" x="241.91" y="-207.92" font-family="Helvetica,sans-Serif" font-size="10.00">57</text>
</a>
</g>
</g>
<!-- dir_b7264726bdfa508dc9a1f79664d9f9a2&#45;&gt;dir_89a2a0f8e65887f6f5e7f07c9ce97f37 -->
<g id="edge33" class="edge">
<title>dir_b7264726bdfa508dc9a1f79664d9f9a2&#45;&gt;dir_89a2a0f8e65887f6f5e7f07c9ce97f37</title>
<path fill="none" stroke="black" d="M327.72,-180.27C307.95,-199.41 274.03,-230.43 241,-252 217.81,-267.14 189.63,-280.63 167.61,-290.22"/>
<polygon fill="black" stroke="black" points="166.09,-287.06 158.27,-294.21 168.84,-293.5 166.09,-287.06"/>
<g id="a_edge33&#45;headlabel"><a xlink:href="dir_000007_000018.html" target="_top" xlink:title="7">
<text text-anchor="middle" x="168.28" y="-280.54" font-family="Helvetica,sans-Serif" font-size="10.00">7</text>
</a>
</g>
</g>
<!-- dir_5646c4a3c156db227fe899778b3c4cdf&#45;&gt;dir_cacbc0f8d661c3f2ef6995c140cb013b -->
<g id="edge34" class="edge">
<title>dir_5646c4a3c156db227fe899778b3c4cdf&#45;&gt;dir_cacbc0f8d661c3f2ef6995c140cb013b</title>
<path fill="none" stroke="black" d="M227.28,-252.33C250.74,-275.33 286.4,-317.98 308,-360 318.15,-379.75 325.46,-403.87 328.68,-422.02"/>
<polygon fill="black" stroke="black" points="325.21,-422.53 330.09,-431.93 332.14,-421.54 325.21,-422.53"/>
<g id="a_edge34&#45;headlabel"><a xlink:href="dir_000002_000014.html" target="_top" xlink:title="21">
<text text-anchor="middle" x="321.9" y="-416.87" font-family="Helvetica,sans-Serif" font-size="10.00">21</text>
</a>
</g>
</g>
<!-- dir_5646c4a3c156db227fe899778b3c4cdf&#45;&gt;dir_00cea25d4360966f2fbb8df56cdad836 -->
<g id="edge35" class="edge">
<title>dir_5646c4a3c156db227fe899778b3c4cdf&#45;&gt;dir_00cea25d4360966f2fbb8df56cdad836</title>
<path fill="none" stroke="black" d="M214.39,-252.29C220,-270.65 226.43,-300.23 237,-324 241.14,-333.32 246.87,-342.83 252.06,-351.17"/>
<polygon fill="black" stroke="black" points="249.12,-353.07 257.38,-359.7 255.05,-349.36 249.12,-353.07"/>
<g id="a_edge35&#45;headlabel"><a xlink:href="dir_000002_000044.html" target="_top" xlink:title="2">
<text text-anchor="middle" x="244.8" y="-349.03" font-family="Helvetica,sans-Serif" font-size="10.00">2</text>
</a>
</g>
</g>
<!-- dir_5646c4a3c156db227fe899778b3c4cdf&#45;&gt;dir_014c721151abc8438874b072d5fa83c2 -->
<g id="edge36" class="edge">
<title>dir_5646c4a3c156db227fe899778b3c4cdf&#45;&gt;dir_014c721151abc8438874b072d5fa83c2</title>
<path fill="none" stroke="black" d="M201.85,-215.9C202.58,-185.77 213.8,-121.7 236,-72 240.29,-62.4 246.31,-52.67 252.67,-44.21"/>
<polygon fill="black" stroke="black" points="255.55,-46.21 259.07,-36.22 250.09,-41.83 255.55,-46.21"/>
<g id="a_edge36&#45;headlabel"><a xlink:href="dir_000002_000012.html" target="_top" xlink:title="2">
<text text-anchor="middle" x="255.51" y="-48.29" font-family="Helvetica,sans-Serif" font-size="10.00">2</text>
</a>
</g>
</g>
<!-- dir_5646c4a3c156db227fe899778b3c4cdf&#45;&gt;dir_b7264726bdfa508dc9a1f79664d9f9a2 -->
<g id="edge37" class="edge">
<title>dir_5646c4a3c156db227fe899778b3c4cdf&#45;&gt;dir_b7264726bdfa508dc9a1f79664d9f9a2</title>
<path fill="none" stroke="black" d="M232,-216.59C253.84,-205.03 284.62,-189.66 308.61,-178.35"/>
<polygon fill="black" stroke="black" points="310.18,-181.47 317.77,-174.07 307.23,-175.13 310.18,-181.47"/>
<g id="a_edge37&#45;headlabel"><a xlink:href="dir_000002_000007.html" target="_top" xlink:title="41">
<text text-anchor="middle" x="308.13" y="-183.07" font-family="Helvetica,sans-Serif" font-size="10.00">41</text>
</a>
</g>
</g>
<!-- dir_5646c4a3c156db227fe899778b3c4cdf&#45;&gt;dir_89a2a0f8e65887f6f5e7f07c9ce97f37 -->
<g id="edge38" class="edge">
<title>dir_5646c4a3c156db227fe899778b3c4cdf&#45;&gt;dir_89a2a0f8e65887f6f5e7f07c9ce97f37</title>
<path fill="none" stroke="black" d="M192.81,-252.1C184.53,-260.8 173.38,-271.52 162.78,-281.03"/>
<polygon fill="black" stroke="black" points="160.4,-278.46 155.21,-287.7 165.03,-283.72 160.4,-278.46"/>
<g id="a_edge38&#45;headlabel"><a xlink:href="dir_000002_000018.html" target="_top" xlink:title="15">
<text text-anchor="middle" x="161.22" y="-271.46" font-family="Helvetica,sans-Serif" font-size="10.00">15</text>
</a>
</g>
</g>
<!-- dir_89a2a0f8e65887f6f5e7f07c9ce97f37&#45;&gt;dir_1670a14e30757f4c1b31e1e530e46487 -->
<g id="edge41" class="edge">
<title>dir_89a2a0f8e65887f6f5e7f07c9ce97f37&#45;&gt;dir_1670a14e30757f4c1b31e1e530e46487</title>
<path fill="none" stroke="black" d="M129.61,-324.07C128.34,-341.99 126.82,-370.98 128,-396 128.39,-404.34 129.13,-413.4 129.92,-421.63"/>
<polygon fill="black" stroke="black" points="126.47,-422.25 130.97,-431.84 133.43,-421.54 126.47,-422.25"/>
<g id="a_edge41&#45;headlabel"><a xlink:href="dir_000018_000027.html" target="_top" xlink:title="1">
<text text-anchor="middle" x="123.28" y="-416.47" font-family="Helvetica,sans-Serif" font-size="10.00">1</text>
</a>
</g>
</g>
<!-- dir_89a2a0f8e65887f6f5e7f07c9ce97f37&#45;&gt;dir_cacbc0f8d661c3f2ef6995c140cb013b -->
<g id="edge39" class="edge">
<title>dir_89a2a0f8e65887f6f5e7f07c9ce97f37&#45;&gt;dir_cacbc0f8d661c3f2ef6995c140cb013b</title>
<path fill="none" stroke="black" d="M153.39,-324.17C174.01,-343.22 205.24,-374.16 236,-396 253.17,-408.19 273.48,-419.46 290.64,-428.45"/>
<polygon fill="black" stroke="black" points="289.32,-431.7 299.81,-433.2 292.54,-425.49 289.32,-431.7"/>
<g id="a_edge39&#45;headlabel"><a xlink:href="dir_000018_000014.html" target="_top" xlink:title="3">
<text text-anchor="middle" x="284.83" y="-430.07" font-family="Helvetica,sans-Serif" font-size="10.00">3</text>
</a>
</g>
</g>
<!-- dir_89a2a0f8e65887f6f5e7f07c9ce97f37&#45;&gt;dir_00cea25d4360966f2fbb8df56cdad836 -->
<g id="edge40" class="edge">
<title>dir_89a2a0f8e65887f6f5e7f07c9ce97f37&#45;&gt;dir_00cea25d4360966f2fbb8df56cdad836</title>
<path fill="none" stroke="black" d="M158.23,-318.69C178.38,-328.54 205.83,-342.89 227.64,-354.9"/>
<polygon fill="black" stroke="black" points="226.16,-358.08 236.61,-359.88 229.56,-351.96 226.16,-358.08"/>
<g id="a_edge40&#45;headlabel"><a xlink:href="dir_000018_000044.html" target="_top" xlink:title="8">
<text text-anchor="middle" x="221.64" y="-356.31" font-family="Helvetica,sans-Serif" font-size="10.00">8</text>
</a>
</g>
</g>
<!-- dir_89a2a0f8e65887f6f5e7f07c9ce97f37&#45;&gt;dir_5646c4a3c156db227fe899778b3c4cdf -->
<g id="edge42" class="edge">
<title>dir_89a2a0f8e65887f6f5e7f07c9ce97f37&#45;&gt;dir_5646c4a3c156db227fe899778b3c4cdf</title>
<path fill="none" stroke="black" d="M143.38,-287.7C151.71,-278.97 162.87,-268.24 173.46,-258.75"/>
<polygon fill="black" stroke="black" points="175.82,-261.34 181.02,-252.1 171.2,-256.08 175.82,-261.34"/>
<g id="a_edge42&#45;headlabel"><a xlink:href="dir_000018_000002.html" target="_top" xlink:title="8">
<text text-anchor="middle" x="175" y="-263.34" font-family="Helvetica,sans-Serif" font-size="10.00">8</text>
</a>
</g>
</g>
</g>
</svg>
