<?xml version="1.0" encoding="UTF-8" standalone="no"?>
<!DOCTYPE svg PUBLIC "-//W3C//DTD SVG 1.1//EN"
 "http://www.w3.org/Graphics/SVG/1.1/DTD/svg11.dtd">
<!-- Generated by graphviz version 2.43.0 (0)
 -->
<!-- Title: stmtexpvisitor Pages: 1 -->
<svg width="150pt" height="295pt"
 viewBox="0.00 0.00 150.00 295.00" xmlns="http://www.w3.org/2000/svg" xmlns:xlink="http://www.w3.org/1999/xlink">
<g id="graph0" class="graph" transform="scale(1 1) rotate(0) translate(4 291)">
<title>stmtexpvisitor</title>
<polygon fill="white" stroke="transparent" points="-4,4 -4,-291 146,-291 146,4 -4,4"/>
<g id="clust1" class="cluster">
<title>clusterdir_014c721151abc8438874b072d5fa83c2</title>
<g id="a_clust1"><a xlink:href="dir_014c721151abc8438874b072d5fa83c2.html" target="_top" xlink:title="visitor">
<polygon fill="#ddddee" stroke="black" points="30,-208 30,-279 134,-279 134,-208 30,-208"/>
<text text-anchor="middle" x="82" y="-267" font-family="Helvetica,sans-Serif" font-size="10.00">visitor</text>
</a>
</g>
</g>
<!-- dir_b2314dfbb7a332aca8fc31c62f23d6f1 -->
<g id="node1" class="node">
<title>dir_b2314dfbb7a332aca8fc31c62f23d6f1</title>
<g id="a_node1"><a xlink:href="dir_b2314dfbb7a332aca8fc31c62f23d6f1.html" target="_top" xlink:title="stmtexpvisitor">
<polygon fill="#eeeeff" stroke="black" points="126,-252 38,-252 38,-216 126,-216 126,-252"/>
<text text-anchor="middle" x="82" y="-231.5" font-family="Helvetica,sans-Serif" font-size="10.00">stmtexpvisitor</text>
</a>
</g>
</g>
<!-- dir_b7264726bdfa508dc9a1f79664d9f9a2 -->
<g id="node2" class="node">
<title>dir_b7264726bdfa508dc9a1f79664d9f9a2</title>
<g id="a_node2"><a xlink:href="dir_b7264726bdfa508dc9a1f79664d9f9a2.html" target="_top" xlink:title="ssl">
<polygon fill="white" stroke="red" points="54,-180 0,-180 0,-144 54,-144 54,-180"/>
<text text-anchor="middle" x="27" y="-159.5" font-family="Helvetica,sans-Serif" font-size="10.00">ssl</text>
</a>
</g>
</g>
<!-- dir_b2314dfbb7a332aca8fc31c62f23d6f1&#45;&gt;dir_b7264726bdfa508dc9a1f79664d9f9a2 -->
<g id="edge3" class="edge">
<title>dir_b2314dfbb7a332aca8fc31c62f23d6f1&#45;&gt;dir_b7264726bdfa508dc9a1f79664d9f9a2</title>
<path fill="none" stroke="black" d="M68.4,-215.7C61.88,-207.39 53.93,-197.28 46.75,-188.14"/>
<polygon fill="black" stroke="black" points="49.37,-185.81 40.44,-180.1 43.87,-190.13 49.37,-185.81"/>
<g id="a_edge3&#45;headlabel"><a xlink:href="dir_000055_000007.html" target="_top" xlink:title="13">
<text text-anchor="middle" x="53.82" y="-184.38" font-family="Helvetica,sans-Serif" font-size="10.00">13</text>
</a>
</g>
</g>
<!-- dir_89a2a0f8e65887f6f5e7f07c9ce97f37 -->
<g id="node3" class="node">
<title>dir_89a2a0f8e65887f6f5e7f07c9ce97f37</title>
<g id="a_node3"><a xlink:href="dir_89a2a0f8e65887f6f5e7f07c9ce97f37.html" target="_top" xlink:title="core">
<polygon fill="white" stroke="red" points="86,-36 32,-36 32,0 86,0 86,-36"/>
<text text-anchor="middle" x="59" y="-15.5" font-family="Helvetica,sans-Serif" font-size="10.00">core</text>
</a>
</g>
</g>
<!-- dir_b2314dfbb7a332aca8fc31c62f23d6f1&#45;&gt;dir_89a2a0f8e65887f6f5e7f07c9ce97f37 -->
<g id="edge4" class="edge">
<title>dir_b2314dfbb7a332aca8fc31c62f23d6f1&#45;&gt;dir_89a2a0f8e65887f6f5e7f07c9ce97f37</title>
<path fill="none" stroke="black" d="M88.75,-215.55C99.37,-185.41 117.09,-122.04 100,-72 96.56,-61.93 90.34,-52.28 83.77,-44.05"/>
<polygon fill="black" stroke="black" points="86.32,-41.65 77.17,-36.32 81,-46.2 86.32,-41.65"/>
<g id="a_edge4&#45;headlabel"><a xlink:href="dir_000055_000018.html" target="_top" xlink:title="1">
<text text-anchor="middle" x="90.82" y="-40.04" font-family="Helvetica,sans-Serif" font-size="10.00">1</text>
</a>
</g>
</g>
<!-- dir_d5873659e51aa5642b4dd8852fe8d0ae -->
<g id="node4" class="node">
<title>dir_d5873659e51aa5642b4dd8852fe8d0ae</title>
<g id="a_node4"><a xlink:href="dir_d5873659e51aa5642b4dd8852fe8d0ae.html" target="_top" xlink:title="expvisitor">
<polygon fill="none" stroke="black" points="91.5,-108 26.5,-108 26.5,-72 91.5,-72 91.5,-108"/>
<text text-anchor="middle" x="59" y="-87.5" font-family="Helvetica,sans-Serif" font-size="10.00">expvisitor</text>
</a>
</g>
</g>
<!-- dir_b2314dfbb7a332aca8fc31c62f23d6f1&#45;&gt;dir_d5873659e51aa5642b4dd8852fe8d0ae -->
<g id="edge5" class="edge">
<title>dir_b2314dfbb7a332aca8fc31c62f23d6f1&#45;&gt;dir_d5873659e51aa5642b4dd8852fe8d0ae</title>
<path fill="none" stroke="black" d="M79.23,-215.87C75.31,-191.67 68.1,-147.21 63.44,-118.39"/>
<polygon fill="black" stroke="black" points="66.84,-117.5 61.78,-108.19 59.93,-118.62 66.84,-117.5"/>
<g id="a_edge5&#45;headlabel"><a xlink:href="dir_000055_000013.html" target="_top" xlink:title="4">
<text text-anchor="middle" x="70.22" y="-118.1" font-family="Helvetica,sans-Serif" font-size="10.00">4</text>
</a>
</g>
</g>
<!-- dir_b7264726bdfa508dc9a1f79664d9f9a2&#45;&gt;dir_89a2a0f8e65887f6f5e7f07c9ce97f37 -->
<g id="edge1" class="edge">
<title>dir_b7264726bdfa508dc9a1f79664d9f9a2&#45;&gt;dir_89a2a0f8e65887f6f5e7f07c9ce97f37</title>
<path fill="none" stroke="black" d="M20.7,-143.77C15,-125.47 8.67,-95.93 17,-72 20.53,-61.86 26.91,-52.19 33.64,-43.96"/>
<polygon fill="black" stroke="black" points="36.44,-46.07 40.4,-36.24 31.17,-41.46 36.44,-46.07"/>
<g id="a_edge1&#45;headlabel"><a xlink:href="dir_000007_000018.html" target="_top" xlink:title="7">
<text text-anchor="middle" x="36.21" y="-48.15" font-family="Helvetica,sans-Serif" font-size="10.00">7</text>
</a>
</g>
</g>
<!-- dir_b7264726bdfa508dc9a1f79664d9f9a2&#45;&gt;dir_d5873659e51aa5642b4dd8852fe8d0ae -->
<g id="edge2" class="edge">
<title>dir_b7264726bdfa508dc9a1f79664d9f9a2&#45;&gt;dir_d5873659e51aa5642b4dd8852fe8d0ae</title>
<path fill="none" stroke="black" d="M28.99,-143.7C31.85,-135.64 36.09,-125.89 40.58,-116.98"/>
<polygon fill="black" stroke="black" points="43.69,-118.58 45.29,-108.1 37.51,-115.3 43.69,-118.58"/>
<g id="a_edge2&#45;headlabel"><a xlink:href="dir_000007_000013.html" target="_top" xlink:title="21">
<text text-anchor="middle" x="44.51" y="-120.58" font-family="Helvetica,sans-Serif" font-size="10.00">21</text>
</a>
</g>
</g>
<!-- dir_d5873659e51aa5642b4dd8852fe8d0ae&#45;&gt;dir_b7264726bdfa508dc9a1f79664d9f9a2 -->
<g id="edge6" class="edge">
<title>dir_d5873659e51aa5642b4dd8852fe8d0ae&#45;&gt;dir_b7264726bdfa508dc9a1f79664d9f9a2</title>
<path fill="none" stroke="black" d="M57.08,-108.1C54.25,-116.13 50.02,-125.87 45.54,-134.8"/>
<polygon fill="black" stroke="black" points="42.41,-133.22 40.83,-143.7 48.6,-136.49 42.41,-133.22"/>
<g id="a_edge6&#45;headlabel"><a xlink:href="dir_000013_000007.html" target="_top" xlink:title="16">
<text text-anchor="middle" x="41.58" y="-126.22" font-family="Helvetica,sans-Serif" font-size="10.00">16</text>
</a>
</g>
</g>
<!-- dir_d5873659e51aa5642b4dd8852fe8d0ae&#45;&gt;dir_89a2a0f8e65887f6f5e7f07c9ce97f37 -->
<g id="edge7" class="edge">
<title>dir_d5873659e51aa5642b4dd8852fe8d0ae&#45;&gt;dir_89a2a0f8e65887f6f5e7f07c9ce97f37</title>
<path fill="none" stroke="black" d="M59,-71.7C59,-63.98 59,-54.71 59,-46.11"/>
<polygon fill="black" stroke="black" points="62.5,-46.1 59,-36.1 55.5,-46.1 62.5,-46.1"/>
<g id="a_edge7&#45;headlabel"><a xlink:href="dir_000013_000018.html" target="_top" xlink:title="1">
<text text-anchor="middle" x="65.34" y="-47.2" font-family="Helvetica,sans-Serif" font-size="10.00">1</text>
</a>
</g>
</g>
</g>
</svg>
