<?xml version="1.0" encoding="UTF-8" standalone="no"?>
<!DOCTYPE svg PUBLIC "-//W3C//DTD SVG 1.1//EN"
 "http://www.w3.org/Graphics/SVG/1.1/DTD/svg11.dtd">
<!-- Generated by graphviz version 2.43.0 (0)
 -->
<!-- Title: ExeBinaryLoader.h Pages: 1 -->
<svg width="718pt" height="386pt"
 viewBox="0.00 0.00 718.00 386.00" xmlns="http://www.w3.org/2000/svg" xmlns:xlink="http://www.w3.org/1999/xlink">
<g id="graph0" class="graph" transform="scale(1 1) rotate(0) translate(4 382)">
<title>ExeBinaryLoader.h</title>
<polygon fill="white" stroke="transparent" points="-4,4 -4,-382 714,-382 714,4 -4,4"/>
<!-- Node1 -->
<g id="node1" class="node">
<title>Node1</title>
<g id="a_node1"><a xlink:title=" ">
<polygon fill="#bfbfbf" stroke="black" points="63.5,-358.5 63.5,-377.5 171.5,-377.5 171.5,-358.5 63.5,-358.5"/>
<text text-anchor="middle" x="117.5" y="-365.5" font-family="Helvetica,sans-Serif" font-size="10.00">ExeBinaryLoader.h</text>
</a>
</g>
</g>
<!-- Node2 -->
<g id="node2" class="node">
<title>Node2</title>
<g id="a_node2"><a xlink:href="BoomerangAPI_8h.html" target="_top" xlink:title=" ">
<polygon fill="white" stroke="black" points="0,-56.5 0,-86.5 155,-86.5 155,-56.5 0,-56.5"/>
<text text-anchor="start" x="8" y="-74.5" font-family="Helvetica,sans-Serif" font-size="10.00">boomerang/core/Boomerang</text>
<text text-anchor="middle" x="77.5" y="-63.5" font-family="Helvetica,sans-Serif" font-size="10.00">API.h</text>
</a>
</g>
</g>
<!-- Node1&#45;&gt;Node2 -->
<g id="edge1" class="edge">
<title>Node1&#45;&gt;Node2</title>
<path fill="none" stroke="midnightblue" d="M107.91,-358.48C88.95,-340.66 48.5,-297.28 48.5,-251.5 48.5,-251.5 48.5,-251.5 48.5,-188 48.5,-155.55 59.4,-119.47 67.84,-96.41"/>
<polygon fill="midnightblue" stroke="midnightblue" points="71.21,-97.39 71.49,-86.8 64.67,-94.9 71.21,-97.39"/>
</g>
<!-- Node3 -->
<g id="node3" class="node">
<title>Node3</title>
<g id="a_node3"><a xlink:href="IFileLoader_8h.html" target="_top" xlink:title=" ">
<polygon fill="white" stroke="black" points="178.5,-302.5 178.5,-321.5 330.5,-321.5 330.5,-302.5 178.5,-302.5"/>
<text text-anchor="middle" x="254.5" y="-309.5" font-family="Helvetica,sans-Serif" font-size="10.00">boomerang/ifc/IFileLoader.h</text>
</a>
</g>
</g>
<!-- Node1&#45;&gt;Node3 -->
<g id="edge2" class="edge">
<title>Node1&#45;&gt;Node3</title>
<path fill="none" stroke="midnightblue" d="M139.21,-358.44C161.85,-349.52 197.57,-335.44 223.25,-325.32"/>
<polygon fill="midnightblue" stroke="midnightblue" points="224.87,-328.44 232.89,-321.52 222.31,-321.93 224.87,-328.44"/>
</g>
<!-- Node4 -->
<g id="node4" class="node">
<title>Node4</title>
<g id="a_node4"><a xlink:href="BinaryFile_8h.html" target="_top" xlink:title=" ">
<polygon fill="white" stroke="black" points="194,-235.5 194,-265.5 315,-265.5 315,-235.5 194,-235.5"/>
<text text-anchor="start" x="202" y="-253.5" font-family="Helvetica,sans-Serif" font-size="10.00">boomerang/db/binary</text>
<text text-anchor="middle" x="254.5" y="-242.5" font-family="Helvetica,sans-Serif" font-size="10.00">/BinaryFile.h</text>
</a>
</g>
</g>
<!-- Node3&#45;&gt;Node4 -->
<g id="edge3" class="edge">
<title>Node3&#45;&gt;Node4</title>
<path fill="none" stroke="midnightblue" d="M254.5,-302.48C254.5,-295.47 254.5,-285.19 254.5,-275.7"/>
<polygon fill="midnightblue" stroke="midnightblue" points="258,-275.52 254.5,-265.52 251,-275.52 258,-275.52"/>
</g>
<!-- Node12 -->
<g id="node12" class="node">
<title>Node12</title>
<g id="a_node12"><a xlink:href="BinaryImage_8h.html" target="_top" xlink:title=" ">
<polygon fill="white" stroke="black" points="386,-235.5 386,-265.5 507,-265.5 507,-235.5 386,-235.5"/>
<text text-anchor="start" x="394" y="-253.5" font-family="Helvetica,sans-Serif" font-size="10.00">boomerang/db/binary</text>
<text text-anchor="middle" x="446.5" y="-242.5" font-family="Helvetica,sans-Serif" font-size="10.00">/BinaryImage.h</text>
</a>
</g>
</g>
<!-- Node3&#45;&gt;Node12 -->
<g id="edge14" class="edge">
<title>Node3&#45;&gt;Node12</title>
<path fill="none" stroke="midnightblue" d="M282.01,-302.48C310.44,-293.66 355.6,-279.67 391.42,-268.57"/>
<polygon fill="midnightblue" stroke="midnightblue" points="392.73,-271.83 401.25,-265.52 390.66,-265.14 392.73,-271.83"/>
</g>
<!-- Node5 -->
<g id="node5" class="node">
<title>Node5</title>
<g id="a_node5"><a xlink:href="Address_8h.html" target="_top" xlink:title=" ">
<polygon fill="white" stroke="black" points="156.5,-179.5 156.5,-198.5 298.5,-198.5 298.5,-179.5 156.5,-179.5"/>
<text text-anchor="middle" x="227.5" y="-186.5" font-family="Helvetica,sans-Serif" font-size="10.00">boomerang/util/Address.h</text>
</a>
</g>
</g>
<!-- Node4&#45;&gt;Node5 -->
<g id="edge4" class="edge">
<title>Node4&#45;&gt;Node5</title>
<path fill="none" stroke="midnightblue" d="M248.1,-235.4C244.38,-227.2 239.65,-216.78 235.67,-207.99"/>
<polygon fill="midnightblue" stroke="midnightblue" points="238.75,-206.32 231.43,-198.66 232.37,-209.21 238.75,-206.32"/>
</g>
<!-- Node11 -->
<g id="node11" class="node">
<title>Node11</title>
<g id="a_node11"><a xlink:title=" ">
<polygon fill="white" stroke="#bfbfbf" points="316.5,-179.5 316.5,-198.5 374.5,-198.5 374.5,-179.5 316.5,-179.5"/>
<text text-anchor="middle" x="345.5" y="-186.5" font-family="Helvetica,sans-Serif" font-size="10.00">memory</text>
</a>
</g>
</g>
<!-- Node4&#45;&gt;Node11 -->
<g id="edge13" class="edge">
<title>Node4&#45;&gt;Node11</title>
<path fill="none" stroke="midnightblue" d="M276.07,-235.4C290.38,-226.04 309.11,-213.79 323.51,-204.38"/>
<polygon fill="midnightblue" stroke="midnightblue" points="325.8,-207.06 332.26,-198.66 321.97,-201.2 325.8,-207.06"/>
</g>
<!-- Node5&#45;&gt;Node2 -->
<g id="edge5" class="edge">
<title>Node5&#45;&gt;Node2</title>
<path fill="none" stroke="midnightblue" d="M177.51,-179.49C153.14,-173.08 124.97,-162 105.5,-143 92.83,-130.64 85.75,-111.83 81.88,-96.75"/>
<polygon fill="midnightblue" stroke="midnightblue" points="85.2,-95.56 79.59,-86.57 78.37,-97.09 85.2,-95.56"/>
</g>
<!-- Node6 -->
<g id="node6" class="node">
<title>Node6</title>
<g id="a_node6"><a xlink:href="OStream_8h.html" target="_top" xlink:title=" ">
<polygon fill="white" stroke="black" points="114.5,-123.5 114.5,-142.5 260.5,-142.5 260.5,-123.5 114.5,-123.5"/>
<text text-anchor="middle" x="187.5" y="-130.5" font-family="Helvetica,sans-Serif" font-size="10.00">boomerang/util/OStream.h</text>
</a>
</g>
</g>
<!-- Node5&#45;&gt;Node6 -->
<g id="edge6" class="edge">
<title>Node5&#45;&gt;Node6</title>
<path fill="none" stroke="midnightblue" d="M220.89,-179.08C215.24,-171.46 206.96,-160.26 200.05,-150.94"/>
<polygon fill="midnightblue" stroke="midnightblue" points="202.75,-148.7 193.98,-142.75 197.12,-152.87 202.75,-148.7"/>
</g>
<!-- Node7 -->
<g id="node7" class="node">
<title>Node7</title>
<g id="a_node7"><a xlink:href="Types_8h.html" target="_top" xlink:title=" ">
<polygon fill="white" stroke="black" points="272,-62 272,-81 403,-81 403,-62 272,-62"/>
<text text-anchor="middle" x="337.5" y="-69" font-family="Helvetica,sans-Serif" font-size="10.00">boomerang/util/Types.h</text>
</a>
</g>
</g>
<!-- Node5&#45;&gt;Node7 -->
<g id="edge11" class="edge">
<title>Node5&#45;&gt;Node7</title>
<path fill="none" stroke="midnightblue" d="M284.19,-179.5C305.85,-173.18 328.45,-162.18 341.5,-143 351.82,-127.83 348.71,-106.3 344.34,-91.03"/>
<polygon fill="midnightblue" stroke="midnightblue" points="347.56,-89.61 341.11,-81.2 340.91,-91.79 347.56,-89.61"/>
</g>
<!-- Node10 -->
<g id="node10" class="node">
<title>Node10</title>
<g id="a_node10"><a xlink:title=" ">
<polygon fill="white" stroke="#bfbfbf" points="279,-123.5 279,-142.5 332,-142.5 332,-123.5 279,-123.5"/>
<text text-anchor="middle" x="305.5" y="-130.5" font-family="Helvetica,sans-Serif" font-size="10.00">QString</text>
</a>
</g>
</g>
<!-- Node5&#45;&gt;Node10 -->
<g id="edge12" class="edge">
<title>Node5&#45;&gt;Node10</title>
<path fill="none" stroke="midnightblue" d="M240.03,-179.32C252.09,-170.98 270.53,-158.21 284.77,-148.35"/>
<polygon fill="midnightblue" stroke="midnightblue" points="286.77,-151.22 293,-142.65 282.78,-145.47 286.77,-151.22"/>
</g>
<!-- Node6&#45;&gt;Node2 -->
<g id="edge7" class="edge">
<title>Node6&#45;&gt;Node2</title>
<path fill="none" stroke="midnightblue" d="M171.74,-123.48C156.28,-115.12 132.2,-102.09 112.25,-91.3"/>
<polygon fill="midnightblue" stroke="midnightblue" points="113.89,-88.2 103.42,-86.52 110.56,-94.36 113.89,-88.2"/>
</g>
<!-- Node6&#45;&gt;Node7 -->
<g id="edge8" class="edge">
<title>Node6&#45;&gt;Node7</title>
<path fill="none" stroke="midnightblue" d="M208.99,-123.48C234.61,-113.31 277.61,-96.26 306.74,-84.7"/>
<polygon fill="midnightblue" stroke="midnightblue" points="308.04,-87.95 316.05,-81.01 305.46,-81.44 308.04,-87.95"/>
</g>
<!-- Node9 -->
<g id="node9" class="node">
<title>Node9</title>
<g id="a_node9"><a xlink:title=" ">
<polygon fill="white" stroke="#bfbfbf" points="173.5,-62 173.5,-81 219.5,-81 219.5,-62 173.5,-62"/>
<text text-anchor="middle" x="196.5" y="-69" font-family="Helvetica,sans-Serif" font-size="10.00">cstdio</text>
</a>
</g>
</g>
<!-- Node6&#45;&gt;Node9 -->
<g id="edge10" class="edge">
<title>Node6&#45;&gt;Node9</title>
<path fill="none" stroke="midnightblue" d="M188.79,-123.48C190.06,-115.08 192.04,-101.98 193.68,-91.16"/>
<polygon fill="midnightblue" stroke="midnightblue" points="197.18,-91.42 195.21,-81.01 190.26,-90.37 197.18,-91.42"/>
</g>
<!-- Node8 -->
<g id="node8" class="node">
<title>Node8</title>
<g id="a_node8"><a xlink:title=" ">
<polygon fill="white" stroke="#bfbfbf" points="312.5,-0.5 312.5,-19.5 362.5,-19.5 362.5,-0.5 312.5,-0.5"/>
<text text-anchor="middle" x="337.5" y="-7.5" font-family="Helvetica,sans-Serif" font-size="10.00">cstdint</text>
</a>
</g>
</g>
<!-- Node7&#45;&gt;Node8 -->
<g id="edge9" class="edge">
<title>Node7&#45;&gt;Node8</title>
<path fill="none" stroke="midnightblue" d="M337.5,-61.98C337.5,-53.58 337.5,-40.48 337.5,-29.66"/>
<polygon fill="midnightblue" stroke="midnightblue" points="341,-29.51 337.5,-19.51 334,-29.51 341,-29.51"/>
</g>
<!-- Node12&#45;&gt;Node5 -->
<g id="edge15" class="edge">
<title>Node12&#45;&gt;Node5</title>
<path fill="none" stroke="midnightblue" d="M394.88,-235.47C356.44,-225.03 304.64,-210.96 268.9,-201.25"/>
<polygon fill="midnightblue" stroke="midnightblue" points="269.38,-197.75 258.81,-198.51 267.54,-204.51 269.38,-197.75"/>
</g>
<!-- Node12&#45;&gt;Node11 -->
<g id="edge23" class="edge">
<title>Node12&#45;&gt;Node11</title>
<path fill="none" stroke="midnightblue" d="M422.56,-235.4C406.37,-225.86 385.09,-213.32 369,-203.84"/>
<polygon fill="midnightblue" stroke="midnightblue" points="370.59,-200.72 360.2,-198.66 367.04,-206.75 370.59,-200.72"/>
</g>
<!-- Node13 -->
<g id="node13" class="node">
<title>Node13</title>
<g id="a_node13"><a xlink:href="IntervalMap_8h.html" target="_top" xlink:title=" ">
<polygon fill="white" stroke="black" points="393,-179.5 393,-198.5 554,-198.5 554,-179.5 393,-179.5"/>
<text text-anchor="middle" x="473.5" y="-186.5" font-family="Helvetica,sans-Serif" font-size="10.00">boomerang/util/IntervalMap.h</text>
</a>
</g>
</g>
<!-- Node12&#45;&gt;Node13 -->
<g id="edge16" class="edge">
<title>Node12&#45;&gt;Node13</title>
<path fill="none" stroke="midnightblue" d="M452.9,-235.4C456.62,-227.2 461.35,-216.78 465.33,-207.99"/>
<polygon fill="midnightblue" stroke="midnightblue" points="468.63,-209.21 469.57,-198.66 462.25,-206.32 468.63,-209.21"/>
</g>
<!-- Node19 -->
<g id="node19" class="node">
<title>Node19</title>
<g id="a_node19"><a xlink:title=" ">
<polygon fill="white" stroke="#bfbfbf" points="572,-179.5 572,-198.5 645,-198.5 645,-179.5 572,-179.5"/>
<text text-anchor="middle" x="608.5" y="-186.5" font-family="Helvetica,sans-Serif" font-size="10.00">QByteArray</text>
</a>
</g>
</g>
<!-- Node12&#45;&gt;Node19 -->
<g id="edge22" class="edge">
<title>Node12&#45;&gt;Node19</title>
<path fill="none" stroke="midnightblue" d="M484.89,-235.4C512.44,-225.28 549.17,-211.79 575.42,-202.15"/>
<polygon fill="midnightblue" stroke="midnightblue" points="576.75,-205.39 584.93,-198.66 574.33,-198.82 576.75,-205.39"/>
</g>
<!-- Node20 -->
<g id="node20" class="node">
<title>Node20</title>
<g id="a_node20"><a xlink:title=" ">
<polygon fill="white" stroke="#bfbfbf" points="663,-179.5 663,-198.5 710,-198.5 710,-179.5 663,-179.5"/>
<text text-anchor="middle" x="686.5" y="-186.5" font-family="Helvetica,sans-Serif" font-size="10.00">vector</text>
</a>
</g>
</g>
<!-- Node12&#45;&gt;Node20 -->
<g id="edge24" class="edge">
<title>Node12&#45;&gt;Node20</title>
<path fill="none" stroke="midnightblue" d="M506.72,-235.48C545.97,-226.21 598.53,-213.53 652.94,-199.35"/>
<polygon fill="midnightblue" stroke="midnightblue" points="653.97,-202.7 662.76,-196.78 652.2,-195.93 653.97,-202.7"/>
</g>
<!-- Node14 -->
<g id="node14" class="node">
<title>Node14</title>
<g id="a_node14"><a xlink:href="Interval_8h.html" target="_top" xlink:title=" ">
<polygon fill="white" stroke="black" points="444.5,-123.5 444.5,-142.5 584.5,-142.5 584.5,-123.5 444.5,-123.5"/>
<text text-anchor="middle" x="514.5" y="-130.5" font-family="Helvetica,sans-Serif" font-size="10.00">boomerang/util/Interval.h</text>
</a>
</g>
</g>
<!-- Node13&#45;&gt;Node14 -->
<g id="edge17" class="edge">
<title>Node13&#45;&gt;Node14</title>
<path fill="none" stroke="midnightblue" d="M480.27,-179.08C486.06,-171.46 494.56,-160.26 501.64,-150.94"/>
<polygon fill="midnightblue" stroke="midnightblue" points="504.6,-152.83 507.86,-142.75 499.02,-148.6 504.6,-152.83"/>
</g>
<!-- Node17 -->
<g id="node17" class="node">
<title>Node17</title>
<g id="a_node17"><a xlink:title=" ">
<polygon fill="white" stroke="#bfbfbf" points="602.5,-123.5 602.5,-142.5 654.5,-142.5 654.5,-123.5 602.5,-123.5"/>
<text text-anchor="middle" x="628.5" y="-130.5" font-family="Helvetica,sans-Serif" font-size="10.00">cassert</text>
</a>
</g>
</g>
<!-- Node13&#45;&gt;Node17 -->
<g id="edge20" class="edge">
<title>Node13&#45;&gt;Node17</title>
<path fill="none" stroke="midnightblue" d="M498.06,-179.44C524.02,-170.4 565.17,-156.06 594.3,-145.92"/>
<polygon fill="midnightblue" stroke="midnightblue" points="595.76,-149.11 604.05,-142.52 593.46,-142.5 595.76,-149.11"/>
</g>
<!-- Node18 -->
<g id="node18" class="node">
<title>Node18</title>
<g id="a_node18"><a xlink:title=" ">
<polygon fill="white" stroke="#bfbfbf" points="388.5,-123.5 388.5,-142.5 426.5,-142.5 426.5,-123.5 388.5,-123.5"/>
<text text-anchor="middle" x="407.5" y="-130.5" font-family="Helvetica,sans-Serif" font-size="10.00">map</text>
</a>
</g>
</g>
<!-- Node13&#45;&gt;Node18 -->
<g id="edge21" class="edge">
<title>Node13&#45;&gt;Node18</title>
<path fill="none" stroke="midnightblue" d="M462.9,-179.32C453.04,-171.26 438.15,-159.08 426.28,-149.37"/>
<polygon fill="midnightblue" stroke="midnightblue" points="428.25,-146.46 418.3,-142.83 423.82,-151.88 428.25,-146.46"/>
</g>
<!-- Node15 -->
<g id="node15" class="node">
<title>Node15</title>
<g id="a_node15"><a xlink:title=" ">
<polygon fill="white" stroke="#bfbfbf" points="504.5,-62 504.5,-81 568.5,-81 568.5,-62 504.5,-62"/>
<text text-anchor="middle" x="536.5" y="-69" font-family="Helvetica,sans-Serif" font-size="10.00">algorithm</text>
</a>
</g>
</g>
<!-- Node14&#45;&gt;Node15 -->
<g id="edge18" class="edge">
<title>Node14&#45;&gt;Node15</title>
<path fill="none" stroke="midnightblue" d="M517.65,-123.48C520.82,-114.9 525.8,-101.43 529.85,-90.48"/>
<polygon fill="midnightblue" stroke="midnightblue" points="533.17,-91.6 533.35,-81.01 526.6,-89.17 533.17,-91.6"/>
</g>
<!-- Node16 -->
<g id="node16" class="node">
<title>Node16</title>
<g id="a_node16"><a xlink:title=" ">
<polygon fill="white" stroke="#bfbfbf" points="441,-62 441,-81 486,-81 486,-62 441,-62"/>
<text text-anchor="middle" x="463.5" y="-69" font-family="Helvetica,sans-Serif" font-size="10.00">utility</text>
</a>
</g>
</g>
<!-- Node14&#45;&gt;Node16 -->
<g id="edge19" class="edge">
<title>Node14&#45;&gt;Node16</title>
<path fill="none" stroke="midnightblue" d="M507.19,-123.48C499.47,-114.46 487.09,-100.02 477.48,-88.81"/>
<polygon fill="midnightblue" stroke="midnightblue" points="479.96,-86.32 470.79,-81.01 474.64,-90.88 479.96,-86.32"/>
</g>
</g>
</svg>
