<?xml version="1.0" encoding="UTF-8" standalone="no"?>
<!DOCTYPE svg PUBLIC "-//W3C//DTD SVG 1.1//EN"
 "http://www.w3.org/Graphics/SVG/1.1/DTD/svg11.dtd">
<!-- Generated by graphviz version 2.43.0 (0)
 -->
<!-- Title: ExpArithSimplifier.cpp Pages: 1 -->
<svg width="944pt" height="509pt"
 viewBox="0.00 0.00 944.00 509.00" xmlns="http://www.w3.org/2000/svg" xmlns:xlink="http://www.w3.org/1999/xlink">
<g id="graph0" class="graph" transform="scale(1 1) rotate(0) translate(4 505)">
<title>ExpArithSimplifier.cpp</title>
<polygon fill="white" stroke="transparent" points="-4,4 -4,-505 940,-505 940,4 -4,4"/>
<!-- Node1 -->
<g id="node1" class="node">
<title>Node1</title>
<g id="a_node1"><a xlink:title=" ">
<polygon fill="#bfbfbf" stroke="black" points="609.5,-481.5 609.5,-500.5 734.5,-500.5 734.5,-481.5 609.5,-481.5"/>
<text text-anchor="middle" x="672" y="-488.5" font-family="Helvetica,sans-Serif" font-size="10.00">ExpArithSimplifier.cpp</text>
</a>
</g>
</g>
<!-- Node2 -->
<g id="node2" class="node">
<title>Node2</title>
<g id="a_node2"><a xlink:href="ExpArithSimplifier_8h.html" target="_top" xlink:title=" ">
<polygon fill="white" stroke="black" points="54,-252 54,-271 168,-271 168,-252 54,-252"/>
<text text-anchor="middle" x="111" y="-259" font-family="Helvetica,sans-Serif" font-size="10.00">ExpArithSimplifier.h</text>
</a>
</g>
</g>
<!-- Node1&#45;&gt;Node2 -->
<g id="edge1" class="edge">
<title>Node1&#45;&gt;Node2</title>
<path fill="none" stroke="midnightblue" d="M643.4,-481.42C615.51,-472.86 571.99,-459 535,-445 383.15,-387.51 206.09,-306.71 138.83,-275.51"/>
<polygon fill="midnightblue" stroke="midnightblue" points="139.9,-272.14 129.36,-271.1 136.95,-278.49 139.9,-272.14"/>
</g>
<!-- Node7 -->
<g id="node7" class="node">
<title>Node7</title>
<g id="a_node7"><a xlink:href="Binary_8h.html" target="_top" xlink:title=" ">
<polygon fill="white" stroke="black" points="544,-425.5 544,-444.5 696,-444.5 696,-425.5 544,-425.5"/>
<text text-anchor="middle" x="620" y="-432.5" font-family="Helvetica,sans-Serif" font-size="10.00">boomerang/ssl/exp/Binary.h</text>
</a>
</g>
</g>
<!-- Node1&#45;&gt;Node7 -->
<g id="edge6" class="edge">
<title>Node1&#45;&gt;Node7</title>
<path fill="none" stroke="midnightblue" d="M663.41,-481.08C655.84,-473.22 644.62,-461.57 635.49,-452.08"/>
<polygon fill="midnightblue" stroke="midnightblue" points="637.88,-449.53 628.43,-444.75 632.84,-454.38 637.88,-449.53"/>
</g>
<!-- Node23 -->
<g id="node23" class="node">
<title>Node23</title>
<g id="a_node23"><a xlink:href="Const_8h.html" target="_top" xlink:title=" ">
<polygon fill="white" stroke="black" points="725.5,-369.5 725.5,-388.5 874.5,-388.5 874.5,-369.5 725.5,-369.5"/>
<text text-anchor="middle" x="800" y="-376.5" font-family="Helvetica,sans-Serif" font-size="10.00">boomerang/ssl/exp/Const.h</text>
</a>
</g>
</g>
<!-- Node1&#45;&gt;Node23 -->
<g id="edge36" class="edge">
<title>Node1&#45;&gt;Node23</title>
<path fill="none" stroke="midnightblue" d="M681,-481.37C694.29,-468.71 720.09,-444.49 743,-425 755.13,-414.69 769.15,-403.6 780.26,-395.01"/>
<polygon fill="midnightblue" stroke="midnightblue" points="782.65,-397.59 788.45,-388.72 778.39,-392.04 782.65,-397.59"/>
</g>
<!-- Node25 -->
<g id="node25" class="node">
<title>Node25</title>
<g id="a_node25"><a xlink:title=" ">
<polygon fill="white" stroke="#bfbfbf" points="752,-425.5 752,-444.5 808,-444.5 808,-425.5 752,-425.5"/>
<text text-anchor="middle" x="780" y="-432.5" font-family="Helvetica,sans-Serif" font-size="10.00">numeric</text>
</a>
</g>
</g>
<!-- Node1&#45;&gt;Node25 -->
<g id="edge40" class="edge">
<title>Node1&#45;&gt;Node25</title>
<path fill="none" stroke="midnightblue" d="M689.35,-481.32C706.67,-472.66 733.52,-459.24 753.5,-449.25"/>
<polygon fill="midnightblue" stroke="midnightblue" points="755.31,-452.26 762.69,-444.65 752.18,-446 755.31,-452.26"/>
</g>
<!-- Node3 -->
<g id="node3" class="node">
<title>Node3</title>
<g id="a_node3"><a xlink:href="ExpModifier_8h.html" target="_top" xlink:title=" ">
<polygon fill="white" stroke="black" points="0,-179.5 0,-209.5 168,-209.5 168,-179.5 0,-179.5"/>
<text text-anchor="start" x="8" y="-197.5" font-family="Helvetica,sans-Serif" font-size="10.00">boomerang/visitor/expmodifier</text>
<text text-anchor="middle" x="84" y="-186.5" font-family="Helvetica,sans-Serif" font-size="10.00">/ExpModifier.h</text>
</a>
</g>
</g>
<!-- Node2&#45;&gt;Node3 -->
<g id="edge2" class="edge">
<title>Node2&#45;&gt;Node3</title>
<path fill="none" stroke="midnightblue" d="M107.36,-251.73C103.89,-243.37 98.5,-230.4 93.77,-219.02"/>
<polygon fill="midnightblue" stroke="midnightblue" points="96.92,-217.48 89.85,-209.59 90.46,-220.17 96.92,-217.48"/>
</g>
<!-- Node6 -->
<g id="node6" class="node">
<title>Node6</title>
<g id="a_node6"><a xlink:title=" ">
<polygon fill="white" stroke="#bfbfbf" points="262,-185 262,-204 294,-204 294,-185 262,-185"/>
<text text-anchor="middle" x="278" y="-192" font-family="Helvetica,sans-Serif" font-size="10.00">list</text>
</a>
</g>
</g>
<!-- Node2&#45;&gt;Node6 -->
<g id="edge5" class="edge">
<title>Node2&#45;&gt;Node6</title>
<path fill="none" stroke="midnightblue" d="M133.18,-251.87C163.92,-239.9 219.38,-218.32 252.02,-205.61"/>
<polygon fill="midnightblue" stroke="midnightblue" points="253.71,-208.71 261.76,-201.82 251.17,-202.19 253.71,-208.71"/>
</g>
<!-- Node4 -->
<g id="node4" class="node">
<title>Node4</title>
<g id="a_node4"><a xlink:href="BoomerangAPI_8h.html" target="_top" xlink:title=" ">
<polygon fill="white" stroke="black" points="353.5,-56.5 353.5,-86.5 508.5,-86.5 508.5,-56.5 353.5,-56.5"/>
<text text-anchor="start" x="361.5" y="-74.5" font-family="Helvetica,sans-Serif" font-size="10.00">boomerang/core/Boomerang</text>
<text text-anchor="middle" x="431" y="-63.5" font-family="Helvetica,sans-Serif" font-size="10.00">API.h</text>
</a>
</g>
</g>
<!-- Node3&#45;&gt;Node4 -->
<g id="edge3" class="edge">
<title>Node3&#45;&gt;Node4</title>
<path fill="none" stroke="midnightblue" d="M83.79,-179.25C84.38,-163.09 87.98,-137.15 104,-123 138.59,-92.43 258.63,-80.34 343.2,-75.58"/>
<polygon fill="midnightblue" stroke="midnightblue" points="343.53,-79.06 353.32,-75.03 343.15,-72.07 343.53,-79.06"/>
</g>
<!-- Node5 -->
<g id="node5" class="node">
<title>Node5</title>
<g id="a_node5"><a xlink:title=" ">
<polygon fill="white" stroke="#bfbfbf" points="295,-123.5 295,-142.5 353,-142.5 353,-123.5 295,-123.5"/>
<text text-anchor="middle" x="324" y="-130.5" font-family="Helvetica,sans-Serif" font-size="10.00">memory</text>
</a>
</g>
</g>
<!-- Node3&#45;&gt;Node5 -->
<g id="edge4" class="edge">
<title>Node3&#45;&gt;Node5</title>
<path fill="none" stroke="midnightblue" d="M140.57,-179.47C185.07,-168.44 245.88,-153.37 285.06,-143.65"/>
<polygon fill="midnightblue" stroke="midnightblue" points="285.91,-147.05 294.77,-141.25 284.22,-140.26 285.91,-147.05"/>
</g>
<!-- Node8 -->
<g id="node8" class="node">
<title>Node8</title>
<g id="a_node8"><a xlink:href="Unary_8h.html" target="_top" xlink:title=" ">
<polygon fill="white" stroke="black" points="545.5,-369.5 545.5,-388.5 694.5,-388.5 694.5,-369.5 545.5,-369.5"/>
<text text-anchor="middle" x="620" y="-376.5" font-family="Helvetica,sans-Serif" font-size="10.00">boomerang/ssl/exp/Unary.h</text>
</a>
</g>
</g>
<!-- Node7&#45;&gt;Node8 -->
<g id="edge7" class="edge">
<title>Node7&#45;&gt;Node8</title>
<path fill="none" stroke="midnightblue" d="M620,-425.08C620,-418.01 620,-407.86 620,-398.99"/>
<polygon fill="midnightblue" stroke="midnightblue" points="623.5,-398.75 620,-388.75 616.5,-398.75 623.5,-398.75"/>
</g>
<!-- Node9 -->
<g id="node9" class="node">
<title>Node9</title>
<g id="a_node9"><a xlink:href="Exp_8h.html" target="_top" xlink:title=" ">
<polygon fill="white" stroke="black" points="550,-313.5 550,-332.5 690,-332.5 690,-313.5 550,-313.5"/>
<text text-anchor="middle" x="620" y="-320.5" font-family="Helvetica,sans-Serif" font-size="10.00">boomerang/ssl/exp/Exp.h</text>
</a>
</g>
</g>
<!-- Node8&#45;&gt;Node9 -->
<g id="edge8" class="edge">
<title>Node8&#45;&gt;Node9</title>
<path fill="none" stroke="midnightblue" d="M620,-369.08C620,-362.01 620,-351.86 620,-342.99"/>
<polygon fill="midnightblue" stroke="midnightblue" points="623.5,-342.75 620,-332.75 616.5,-342.75 623.5,-342.75"/>
</g>
<!-- Node9&#45;&gt;Node5 -->
<g id="edge33" class="edge">
<title>Node9&#45;&gt;Node5</title>
<path fill="none" stroke="midnightblue" d="M549.84,-317.83C495.41,-312.77 418.89,-301.6 356,-277 305.14,-257.11 279.04,-258 253,-210 246.43,-197.89 246.36,-191.07 253,-179 260.89,-164.66 275.49,-154.25 289.4,-147.08"/>
<polygon fill="midnightblue" stroke="midnightblue" points="291.29,-150.06 298.84,-142.62 288.3,-143.73 291.29,-150.06"/>
</g>
<!-- Node9&#45;&gt;Node6 -->
<g id="edge32" class="edge">
<title>Node9&#45;&gt;Node6</title>
<path fill="none" stroke="midnightblue" d="M560.87,-313.49C520.31,-306.5 465.77,-294.81 420,-277 374.03,-259.11 325.13,-228.02 298.4,-209.85"/>
<polygon fill="midnightblue" stroke="midnightblue" points="300.13,-206.79 289.91,-204.01 296.16,-212.56 300.13,-206.79"/>
</g>
<!-- Node10 -->
<g id="node10" class="node">
<title>Node10</title>
<g id="a_node10"><a xlink:href="ExpHelp_8h.html" target="_top" xlink:title=" ">
<polygon fill="white" stroke="black" points="350,-185 350,-204 512,-204 512,-185 350,-185"/>
<text text-anchor="middle" x="431" y="-192" font-family="Helvetica,sans-Serif" font-size="10.00">boomerang/ssl/exp/ExpHelp.h</text>
</a>
</g>
</g>
<!-- Node9&#45;&gt;Node10 -->
<g id="edge9" class="edge">
<title>Node9&#45;&gt;Node10</title>
<path fill="none" stroke="midnightblue" d="M549.55,-313.64C503.69,-306.62 449.74,-294.84 435,-277 420.65,-259.64 422.58,-232.4 426.11,-214.26"/>
<polygon fill="midnightblue" stroke="midnightblue" points="429.57,-214.83 428.38,-204.3 422.74,-213.28 429.57,-214.83"/>
</g>
<!-- Node11 -->
<g id="node11" class="node">
<title>Node11</title>
<g id="a_node11"><a xlink:href="Operator_8h.html" target="_top" xlink:title=" ">
<polygon fill="white" stroke="black" points="113,-123.5 113,-142.5 277,-142.5 277,-123.5 113,-123.5"/>
<text text-anchor="middle" x="195" y="-130.5" font-family="Helvetica,sans-Serif" font-size="10.00">boomerang/ssl/exp/Operator.h</text>
</a>
</g>
</g>
<!-- Node9&#45;&gt;Node11 -->
<g id="edge12" class="edge">
<title>Node9&#45;&gt;Node11</title>
<path fill="none" stroke="midnightblue" d="M549.89,-319.84C463.56,-315.97 323.06,-305.4 280,-277 234.49,-246.99 209.88,-183.5 200.09,-152.21"/>
<polygon fill="midnightblue" stroke="midnightblue" points="203.44,-151.18 197.24,-142.59 196.73,-153.17 203.44,-151.18"/>
</g>
<!-- Node12 -->
<g id="node12" class="node">
<title>Node12</title>
<g id="a_node12"><a xlink:href="Statement_8h.html" target="_top" xlink:title=" ">
<polygon fill="white" stroke="black" points="444.5,-246.5 444.5,-276.5 591.5,-276.5 591.5,-246.5 444.5,-246.5"/>
<text text-anchor="start" x="452.5" y="-264.5" font-family="Helvetica,sans-Serif" font-size="10.00">boomerang/ssl/statements</text>
<text text-anchor="middle" x="518" y="-253.5" font-family="Helvetica,sans-Serif" font-size="10.00">/Statement.h</text>
</a>
</g>
</g>
<!-- Node9&#45;&gt;Node12 -->
<g id="edge14" class="edge">
<title>Node9&#45;&gt;Node12</title>
<path fill="none" stroke="midnightblue" d="M605.39,-313.48C591.18,-305.19 569.13,-292.32 550.73,-281.59"/>
<polygon fill="midnightblue" stroke="midnightblue" points="552.44,-278.54 542.04,-276.52 548.91,-284.58 552.44,-278.54"/>
</g>
<!-- Node14 -->
<g id="node14" class="node">
<title>Node14</title>
<g id="a_node14"><a xlink:href="OStream_8h.html" target="_top" xlink:title=" ">
<polygon fill="white" stroke="black" points="790,-123.5 790,-142.5 936,-142.5 936,-123.5 790,-123.5"/>
<text text-anchor="middle" x="863" y="-130.5" font-family="Helvetica,sans-Serif" font-size="10.00">boomerang/util/OStream.h</text>
</a>
</g>
</g>
<!-- Node9&#45;&gt;Node14 -->
<g id="edge29" class="edge">
<title>Node9&#45;&gt;Node14</title>
<path fill="none" stroke="midnightblue" d="M690.38,-314.36C723.61,-308.19 762.55,-297.06 793,-277 824.48,-256.26 828.73,-244 845,-210 853.76,-191.69 858.43,-168.81 860.8,-152.97"/>
<polygon fill="midnightblue" stroke="midnightblue" points="864.3,-153.21 862.14,-142.84 857.36,-152.29 864.3,-153.21"/>
</g>
<!-- Node18 -->
<g id="node18" class="node">
<title>Node18</title>
<g id="a_node18"><a xlink:title=" ">
<polygon fill="white" stroke="#bfbfbf" points="639.5,-123.5 639.5,-142.5 692.5,-142.5 692.5,-123.5 639.5,-123.5"/>
<text text-anchor="middle" x="666" y="-130.5" font-family="Helvetica,sans-Serif" font-size="10.00">QString</text>
</a>
</g>
</g>
<!-- Node9&#45;&gt;Node18 -->
<g id="edge30" class="edge">
<title>Node9&#45;&gt;Node18</title>
<path fill="none" stroke="midnightblue" d="M622.1,-313.43C629.09,-284.87 651.7,-192.43 661.46,-152.57"/>
<polygon fill="midnightblue" stroke="midnightblue" points="664.91,-153.16 663.89,-142.62 658.12,-151.5 664.91,-153.16"/>
</g>
<!-- Node19 -->
<g id="node19" class="node">
<title>Node19</title>
<g id="a_node19"><a xlink:title=" ">
<polygon fill="white" stroke="#bfbfbf" points="586,-185 586,-204 638,-204 638,-185 586,-185"/>
<text text-anchor="middle" x="612" y="-192" font-family="Helvetica,sans-Serif" font-size="10.00">cassert</text>
</a>
</g>
</g>
<!-- Node9&#45;&gt;Node19 -->
<g id="edge31" class="edge">
<title>Node9&#45;&gt;Node19</title>
<path fill="none" stroke="midnightblue" d="M619.45,-313.31C618.17,-292.99 614.94,-242.05 613.19,-214.28"/>
<polygon fill="midnightblue" stroke="midnightblue" points="616.68,-214.01 612.55,-204.26 609.69,-214.46 616.68,-214.01"/>
</g>
<!-- Node21 -->
<g id="node21" class="node">
<title>Node21</title>
<g id="a_node21"><a xlink:title=" ">
<polygon fill="white" stroke="#bfbfbf" points="686,-252 686,-271 718,-271 718,-252 686,-252"/>
<text text-anchor="middle" x="702" y="-259" font-family="Helvetica,sans-Serif" font-size="10.00">set</text>
</a>
</g>
</g>
<!-- Node9&#45;&gt;Node21 -->
<g id="edge34" class="edge">
<title>Node9&#45;&gt;Node21</title>
<path fill="none" stroke="midnightblue" d="M631.75,-313.48C644.78,-304.02 666.04,-288.6 681.76,-277.19"/>
<polygon fill="midnightblue" stroke="midnightblue" points="684.23,-279.71 690.27,-271.01 680.12,-274.05 684.23,-279.71"/>
</g>
<!-- Node22 -->
<g id="node22" class="node">
<title>Node22</title>
<g id="a_node22"><a xlink:title=" ">
<polygon fill="white" stroke="#bfbfbf" points="736.5,-252 736.5,-271 783.5,-271 783.5,-252 736.5,-252"/>
<text text-anchor="middle" x="760" y="-259" font-family="Helvetica,sans-Serif" font-size="10.00">vector</text>
</a>
</g>
</g>
<!-- Node9&#45;&gt;Node22 -->
<g id="edge35" class="edge">
<title>Node9&#45;&gt;Node22</title>
<path fill="none" stroke="midnightblue" d="M640.55,-313.47C662.13,-304.49 697.01,-289.9 727,-277 728.37,-276.41 729.76,-275.81 731.17,-275.2"/>
<polygon fill="midnightblue" stroke="midnightblue" points="732.71,-278.35 740.48,-271.14 729.91,-271.93 732.71,-278.35"/>
</g>
<!-- Node10&#45;&gt;Node4 -->
<g id="edge10" class="edge">
<title>Node10&#45;&gt;Node4</title>
<path fill="none" stroke="midnightblue" d="M431,-184.8C431,-166.6 431,-123.98 431,-96.79"/>
<polygon fill="midnightblue" stroke="midnightblue" points="434.5,-96.54 431,-86.54 427.5,-96.54 434.5,-96.54"/>
</g>
<!-- Node10&#45;&gt;Node5 -->
<g id="edge11" class="edge">
<title>Node10&#45;&gt;Node5</title>
<path fill="none" stroke="midnightblue" d="M415.67,-184.98C398.03,-175.17 368.84,-158.93 348.14,-147.42"/>
<polygon fill="midnightblue" stroke="midnightblue" points="349.74,-144.31 339.3,-142.51 346.34,-150.43 349.74,-144.31"/>
</g>
<!-- Node11&#45;&gt;Node4 -->
<g id="edge13" class="edge">
<title>Node11&#45;&gt;Node4</title>
<path fill="none" stroke="midnightblue" d="M228.81,-123.48C264.36,-114.51 321.18,-100.19 365.54,-89"/>
<polygon fill="midnightblue" stroke="midnightblue" points="366.54,-92.36 375.38,-86.52 364.83,-85.57 366.54,-92.36"/>
</g>
<!-- Node12&#45;&gt;Node5 -->
<g id="edge28" class="edge">
<title>Node12&#45;&gt;Node5</title>
<path fill="none" stroke="midnightblue" d="M444.39,-256.64C408.53,-250.94 367.54,-238.12 341,-210 326.6,-194.74 323.41,-170.05 323.13,-152.98"/>
<polygon fill="midnightblue" stroke="midnightblue" points="326.64,-152.63 323.3,-142.58 319.64,-152.52 326.64,-152.63"/>
</g>
<!-- Node12&#45;&gt;Node6 -->
<g id="edge26" class="edge">
<title>Node12&#45;&gt;Node6</title>
<path fill="none" stroke="midnightblue" d="M444.47,-246.85C403.65,-238.28 352.32,-225.83 308,-210 306.57,-209.49 305.12,-208.93 303.66,-208.34"/>
<polygon fill="midnightblue" stroke="midnightblue" points="304.79,-205.01 294.23,-204.13 301.94,-211.4 304.79,-205.01"/>
</g>
<!-- Node12&#45;&gt;Node10 -->
<g id="edge15" class="edge">
<title>Node12&#45;&gt;Node10</title>
<path fill="none" stroke="midnightblue" d="M499.12,-246.4C484.89,-235.76 465.4,-221.2 450.92,-210.38"/>
<polygon fill="midnightblue" stroke="midnightblue" points="452.74,-207.38 442.64,-204.19 448.55,-212.98 452.74,-207.38"/>
</g>
<!-- Node13 -->
<g id="node13" class="node">
<title>Node13</title>
<g id="a_node13"><a xlink:href="Address_8h.html" target="_top" xlink:title=" ">
<polygon fill="white" stroke="black" points="694,-185 694,-204 836,-204 836,-185 694,-185"/>
<text text-anchor="middle" x="765" y="-192" font-family="Helvetica,sans-Serif" font-size="10.00">boomerang/util/Address.h</text>
</a>
</g>
</g>
<!-- Node12&#45;&gt;Node13 -->
<g id="edge16" class="edge">
<title>Node12&#45;&gt;Node13</title>
<path fill="none" stroke="midnightblue" d="M571.29,-246.48C616.62,-234.55 680.85,-217.64 722.72,-206.63"/>
<polygon fill="midnightblue" stroke="midnightblue" points="723.81,-209.96 732.59,-204.03 722.03,-203.19 723.81,-209.96"/>
</g>
<!-- Node12&#45;&gt;Node19 -->
<g id="edge25" class="edge">
<title>Node12&#45;&gt;Node19</title>
<path fill="none" stroke="midnightblue" d="M538.4,-246.4C554.01,-235.6 575.48,-220.76 591.19,-209.89"/>
<polygon fill="midnightblue" stroke="midnightblue" points="593.46,-212.57 599.7,-204.01 589.48,-206.82 593.46,-212.57"/>
</g>
<!-- Node20 -->
<g id="node20" class="node">
<title>Node20</title>
<g id="a_node20"><a xlink:title=" ">
<polygon fill="white" stroke="#bfbfbf" points="530,-185 530,-204 568,-204 568,-185 530,-185"/>
<text text-anchor="middle" x="549" y="-192" font-family="Helvetica,sans-Serif" font-size="10.00">map</text>
</a>
</g>
</g>
<!-- Node12&#45;&gt;Node20 -->
<g id="edge27" class="edge">
<title>Node12&#45;&gt;Node20</title>
<path fill="none" stroke="midnightblue" d="M524.73,-246.4C529.32,-236.76 535.45,-223.91 540.4,-213.54"/>
<polygon fill="midnightblue" stroke="midnightblue" points="543.71,-214.73 544.85,-204.19 537.39,-211.71 543.71,-214.73"/>
</g>
<!-- Node13&#45;&gt;Node4 -->
<g id="edge17" class="edge">
<title>Node13&#45;&gt;Node4</title>
<path fill="none" stroke="midnightblue" d="M760.02,-184.91C750.72,-169.73 729.17,-138.3 702,-123 646.06,-91.5 574.33,-79.14 518.72,-74.52"/>
<polygon fill="midnightblue" stroke="midnightblue" points="518.77,-71.01 508.53,-73.74 518.24,-77.99 518.77,-71.01"/>
</g>
<!-- Node13&#45;&gt;Node14 -->
<g id="edge18" class="edge">
<title>Node13&#45;&gt;Node14</title>
<path fill="none" stroke="midnightblue" d="M779.04,-184.98C795.05,-175.25 821.45,-159.23 840.37,-147.74"/>
<polygon fill="midnightblue" stroke="midnightblue" points="842.25,-150.69 848.99,-142.51 838.62,-144.71 842.25,-150.69"/>
</g>
<!-- Node15 -->
<g id="node15" class="node">
<title>Node15</title>
<g id="a_node15"><a xlink:href="Types_8h.html" target="_top" xlink:title=" ">
<polygon fill="white" stroke="black" points="696.5,-62 696.5,-81 827.5,-81 827.5,-62 696.5,-62"/>
<text text-anchor="middle" x="762" y="-69" font-family="Helvetica,sans-Serif" font-size="10.00">boomerang/util/Types.h</text>
</a>
</g>
</g>
<!-- Node13&#45;&gt;Node15 -->
<g id="edge23" class="edge">
<title>Node13&#45;&gt;Node15</title>
<path fill="none" stroke="midnightblue" d="M764.78,-184.8C764.3,-165.35 763.13,-117.99 762.47,-91.4"/>
<polygon fill="midnightblue" stroke="midnightblue" points="765.96,-91.03 762.21,-81.12 758.96,-91.21 765.96,-91.03"/>
</g>
<!-- Node13&#45;&gt;Node18 -->
<g id="edge24" class="edge">
<title>Node13&#45;&gt;Node18</title>
<path fill="none" stroke="midnightblue" d="M750.82,-184.98C734.64,-175.25 707.97,-159.23 688.86,-147.74"/>
<polygon fill="midnightblue" stroke="midnightblue" points="690.53,-144.66 680.16,-142.51 686.93,-150.66 690.53,-144.66"/>
</g>
<!-- Node14&#45;&gt;Node4 -->
<g id="edge19" class="edge">
<title>Node14&#45;&gt;Node4</title>
<path fill="none" stroke="midnightblue" d="M801.1,-123.48C727.12,-113.29 602.81,-96.16 518.89,-84.61"/>
<polygon fill="midnightblue" stroke="midnightblue" points="519.25,-81.12 508.86,-83.22 518.29,-88.06 519.25,-81.12"/>
</g>
<!-- Node14&#45;&gt;Node15 -->
<g id="edge20" class="edge">
<title>Node14&#45;&gt;Node15</title>
<path fill="none" stroke="midnightblue" d="M848.53,-123.48C832.03,-113.75 804.82,-97.73 785.32,-86.24"/>
<polygon fill="midnightblue" stroke="midnightblue" points="786.84,-83.07 776.44,-81.01 783.28,-89.1 786.84,-83.07"/>
</g>
<!-- Node17 -->
<g id="node17" class="node">
<title>Node17</title>
<g id="a_node17"><a xlink:title=" ">
<polygon fill="white" stroke="#bfbfbf" points="846,-62 846,-81 892,-81 892,-62 846,-62"/>
<text text-anchor="middle" x="869" y="-69" font-family="Helvetica,sans-Serif" font-size="10.00">cstdio</text>
</a>
</g>
</g>
<!-- Node14&#45;&gt;Node17 -->
<g id="edge22" class="edge">
<title>Node14&#45;&gt;Node17</title>
<path fill="none" stroke="midnightblue" d="M863.86,-123.48C864.71,-115.08 866.03,-101.98 867.12,-91.16"/>
<polygon fill="midnightblue" stroke="midnightblue" points="870.62,-91.31 868.14,-81.01 863.66,-90.61 870.62,-91.31"/>
</g>
<!-- Node16 -->
<g id="node16" class="node">
<title>Node16</title>
<g id="a_node16"><a xlink:title=" ">
<polygon fill="white" stroke="#bfbfbf" points="737,-0.5 737,-19.5 787,-19.5 787,-0.5 737,-0.5"/>
<text text-anchor="middle" x="762" y="-7.5" font-family="Helvetica,sans-Serif" font-size="10.00">cstdint</text>
</a>
</g>
</g>
<!-- Node15&#45;&gt;Node16 -->
<g id="edge21" class="edge">
<title>Node15&#45;&gt;Node16</title>
<path fill="none" stroke="midnightblue" d="M762,-61.98C762,-53.58 762,-40.48 762,-29.66"/>
<polygon fill="midnightblue" stroke="midnightblue" points="765.5,-29.51 762,-19.51 758.5,-29.51 765.5,-29.51"/>
</g>
<!-- Node23&#45;&gt;Node9 -->
<g id="edge37" class="edge">
<title>Node23&#45;&gt;Node9</title>
<path fill="none" stroke="midnightblue" d="M771.48,-369.44C740.93,-360.28 692.29,-345.69 658.4,-335.52"/>
<polygon fill="midnightblue" stroke="midnightblue" points="658.97,-332.04 648.39,-332.52 656.96,-338.74 658.97,-332.04"/>
</g>
<!-- Node23&#45;&gt;Node13 -->
<g id="edge38" class="edge">
<title>Node23&#45;&gt;Node13</title>
<path fill="none" stroke="midnightblue" d="M800.85,-369.44C802.69,-348.1 805.92,-291 793,-246 789.6,-234.15 783,-222.03 777.06,-212.63"/>
<polygon fill="midnightblue" stroke="midnightblue" points="779.94,-210.64 771.49,-204.26 774.12,-214.52 779.94,-210.64"/>
</g>
<!-- Node24 -->
<g id="node24" class="node">
<title>Node24</title>
<g id="a_node24"><a xlink:title=" ">
<polygon fill="white" stroke="#bfbfbf" points="840.5,-313.5 840.5,-332.5 891.5,-332.5 891.5,-313.5 840.5,-313.5"/>
<text text-anchor="middle" x="866" y="-320.5" font-family="Helvetica,sans-Serif" font-size="10.00">variant</text>
</a>
</g>
</g>
<!-- Node23&#45;&gt;Node24 -->
<g id="edge39" class="edge">
<title>Node23&#45;&gt;Node24</title>
<path fill="none" stroke="midnightblue" d="M810.6,-369.32C820.46,-361.26 835.35,-349.08 847.22,-339.37"/>
<polygon fill="midnightblue" stroke="midnightblue" points="849.68,-341.88 855.2,-332.83 845.25,-336.46 849.68,-341.88"/>
</g>
</g>
</svg>
