<?xml version="1.0" encoding="UTF-8" standalone="no"?>
<!DOCTYPE svg PUBLIC "-//W3C//DTD SVG 1.1//EN"
 "http://www.w3.org/Graphics/SVG/1.1/DTD/svg11.dtd">
<!-- Generated by graphviz version 2.43.0 (0)
 -->
<!-- Title: ExpCastInserter.cpp Pages: 1 -->
<!--zoomable 531 -->
<svg id="main" version="1.1" xmlns="http://www.w3.org/2000/svg" xmlns:xlink="http://www.w3.org/1999/xlink" xml:space="preserve" onload="init(evt)">
<style type="text/css"><![CDATA[
.edge:hover path { stroke: red; }
.edge:hover polygon { stroke: red; fill: red; }
]]></style>
<script type="text/javascript"><![CDATA[
var edges = document.getElementsByTagName('g');
if (edges && edges.length) {
  for (var i=0;i<edges.length;i++) {
    if (edges[i].id.substr(0,4)=='edge') {
      edges[i].setAttribute('class','edge');
    }
  }
}
]]></script>
        <defs>
                <circle id="rim" cx="0" cy="0" r="7"/>
                <circle id="rim2" cx="0" cy="0" r="3.5"/>
                <g id="zoomPlus">
                        <use xlink:href="#rim" fill="#404040">
                                <set attributeName="fill" to="#808080" begin="zoomplus.mouseover" end="zoomplus.mouseout"/>
                        </use>
                        <path d="M-4,0h8M0,-4v8" fill="none" stroke="white" stroke-width="1.5" pointer-events="none"/>
                </g>
                <g id="zoomMin">
                        <use xlink:href="#rim" fill="#404040">
                                <set attributeName="fill" to="#808080" begin="zoomminus.mouseover" end="zoomminus.mouseout"/>
                        </use>
                        <path d="M-4,0h8" fill="none" stroke="white" stroke-width="1.5" pointer-events="none"/>
                </g>
                <g id="dirArrow">
                        <path fill="none" stroke="white" stroke-width="1.5" d="M0,-3.0v7 M-2.5,-0.5L0,-3.0L2.5,-0.5"/>
                </g>
               <g id="resetDef">
                       <use xlink:href="#rim2" fill="#404040">
                               <set attributeName="fill" to="#808080" begin="reset.mouseover" end="reset.mouseout"/>
                       </use>
               </g>
        </defs>

<script type="text/javascript">
var viewWidth = 1176;
var viewHeight = 531;
var sectionId = 'dynsection-0';
</script>
<script xlink:href="svgpan.js"/>
<svg id="graph" class="graph">
<g id="viewport">
<title>ExpCastInserter.cpp</title>
<polygon fill="white" stroke="transparent" points="-4,4 -4,-527 1171.5,-527 1171.5,4 -4,4"/>
<!-- Node1 -->
<g id="node1" class="node">
<title>Node1</title>
<g id="a_node1"><a xlink:title=" ">
<polygon fill="#bfbfbf" stroke="black" points="684,-503.5 684,-522.5 798,-522.5 798,-503.5 684,-503.5"/>
<text text-anchor="middle" x="741" y="-510.5" font-family="Helvetica,sans-Serif" font-size="10.00">ExpCastInserter.cpp</text>
</a>
</g>
</g>
<!-- Node2 -->
<g id="node2" class="node">
<title>Node2</title>
<g id="a_node2"><a xlink:href="ExpCastInserter_8h.html" target="_top" xlink:title=" ">
<polygon fill="white" stroke="black" points="115.5,-313.5 115.5,-332.5 218.5,-332.5 218.5,-313.5 115.5,-313.5"/>
<text text-anchor="middle" x="167" y="-320.5" font-family="Helvetica,sans-Serif" font-size="10.00">ExpCastInserter.h</text>
</a>
</g>
</g>
<!-- Node1&#45;&gt;Node2 -->
<g id="edge1" class="edge">
<title>Node1&#45;&gt;Node2</title>
<path fill="none" stroke="midnightblue" d="M683.98,-512.63C573.01,-512.9 332.75,-508.5 263,-467 214.5,-438.14 185.33,-374.1 173.35,-342.45"/>
<polygon fill="midnightblue" stroke="midnightblue" points="176.52,-340.92 169.83,-332.71 169.94,-343.31 176.52,-340.92"/>
</g>
<!-- Node6 -->
<g id="node6" class="node">
<title>Node6</title>
<g id="a_node6"><a xlink:href="Binary_8h.html" target="_top" xlink:title=" ">
<polygon fill="white" stroke="black" points="665,-442 665,-461 817,-461 817,-442 665,-442"/>
<text text-anchor="middle" x="741" y="-449" font-family="Helvetica,sans-Serif" font-size="10.00">boomerang/ssl/exp/Binary.h</text>
</a>
</g>
</g>
<!-- Node1&#45;&gt;Node6 -->
<g id="edge5" class="edge">
<title>Node1&#45;&gt;Node6</title>
<path fill="none" stroke="midnightblue" d="M741,-503.48C741,-495.08 741,-481.98 741,-471.16"/>
<polygon fill="midnightblue" stroke="midnightblue" points="744.5,-471.01 741,-461.01 737.5,-471.01 744.5,-471.01"/>
</g>
<!-- Node11 -->
<g id="node11" class="node">
<title>Node11</title>
<g id="a_node11"><a xlink:href="Statement_8h.html" target="_top" xlink:title=" ">
<polygon fill="white" stroke="black" points="306.5,-246.5 306.5,-276.5 453.5,-276.5 453.5,-246.5 306.5,-246.5"/>
<text text-anchor="start" x="314.5" y="-264.5" font-family="Helvetica,sans-Serif" font-size="10.00">boomerang/ssl/statements</text>
<text text-anchor="middle" x="380" y="-253.5" font-family="Helvetica,sans-Serif" font-size="10.00">/Statement.h</text>
</a>
</g>
</g>
<!-- Node1&#45;&gt;Node11 -->
<g id="edge44" class="edge">
<title>Node1&#45;&gt;Node11</title>
<path fill="none" stroke="midnightblue" d="M683.77,-510.41C569.44,-506.64 321.55,-495.26 296,-467 246.53,-412.28 318.68,-324.46 357.72,-284.08"/>
<polygon fill="midnightblue" stroke="midnightblue" points="360.51,-286.24 365.04,-276.67 355.53,-281.32 360.51,-286.24"/>
</g>
<!-- Node23 -->
<g id="node23" class="node">
<title>Node23</title>
<g id="a_node23"><a xlink:href="Const_8h.html" target="_top" xlink:title=" ">
<polygon fill="white" stroke="black" points="659.5,-375 659.5,-394 808.5,-394 808.5,-375 659.5,-375"/>
<text text-anchor="middle" x="734" y="-382" font-family="Helvetica,sans-Serif" font-size="10.00">boomerang/ssl/exp/Const.h</text>
</a>
</g>
</g>
<!-- Node1&#45;&gt;Node23 -->
<g id="edge35" class="edge">
<title>Node1&#45;&gt;Node23</title>
<path fill="none" stroke="midnightblue" d="M774.8,-503.39C793.39,-496.74 814.89,-485.45 826,-467 833.11,-455.2 833.02,-447.86 826,-436 815.04,-417.49 794.63,-405.31 775.81,-397.56"/>
<polygon fill="midnightblue" stroke="midnightblue" points="777.05,-394.29 766.46,-394 774.56,-400.83 777.05,-394.29"/>
</g>
<!-- Node25 -->
<g id="node25" class="node">
<title>Node25</title>
<g id="a_node25"><a xlink:href="RefExp_8h.html" target="_top" xlink:title=" ">
<polygon fill="white" stroke="black" points="305,-442 305,-461 461,-461 461,-442 305,-442"/>
<text text-anchor="middle" x="383" y="-449" font-family="Helvetica,sans-Serif" font-size="10.00">boomerang/ssl/exp/RefExp.h</text>
</a>
</g>
</g>
<!-- Node1&#45;&gt;Node25 -->
<g id="edge39" class="edge">
<title>Node1&#45;&gt;Node25</title>
<path fill="none" stroke="midnightblue" d="M689.55,-503.47C635.04,-494.42 546.45,-479.72 470,-467 461.64,-465.61 452.83,-464.14 444.15,-462.7"/>
<polygon fill="midnightblue" stroke="midnightblue" points="444.5,-459.21 434.06,-461.02 443.35,-466.11 444.5,-459.21"/>
</g>
<!-- Node26 -->
<g id="node26" class="node">
<title>Node26</title>
<g id="a_node26"><a xlink:href="TypedExp_8h.html" target="_top" xlink:title=" ">
<polygon fill="white" stroke="black" points="479,-442 479,-461 647,-461 647,-442 479,-442"/>
<text text-anchor="middle" x="563" y="-449" font-family="Helvetica,sans-Serif" font-size="10.00">boomerang/ssl/exp/TypedExp.h</text>
</a>
</g>
</g>
<!-- Node1&#45;&gt;Node26 -->
<g id="edge42" class="edge">
<title>Node1&#45;&gt;Node26</title>
<path fill="none" stroke="midnightblue" d="M715.5,-503.48C684.7,-493.18 632.73,-475.81 598.15,-464.25"/>
<polygon fill="midnightblue" stroke="midnightblue" points="599.05,-460.86 588.46,-461.01 596.83,-467.5 599.05,-460.86"/>
</g>
<!-- Node27 -->
<g id="node27" class="node">
<title>Node27</title>
<g id="a_node27"><a xlink:href="IntegerType_8h.html" target="_top" xlink:title=" ">
<polygon fill="white" stroke="black" points="826.5,-369.5 826.5,-399.5 939.5,-399.5 939.5,-369.5 826.5,-369.5"/>
<text text-anchor="start" x="834.5" y="-387.5" font-family="Helvetica,sans-Serif" font-size="10.00">boomerang/ssl/type</text>
<text text-anchor="middle" x="883" y="-376.5" font-family="Helvetica,sans-Serif" font-size="10.00">/IntegerType.h</text>
</a>
</g>
</g>
<!-- Node1&#45;&gt;Node27 -->
<g id="edge45" class="edge">
<title>Node1&#45;&gt;Node27</title>
<path fill="none" stroke="midnightblue" d="M774.32,-503.49C795.79,-496.6 823.11,-485.02 842,-467 858.57,-451.19 869.51,-427.23 875.88,-409.38"/>
<polygon fill="midnightblue" stroke="midnightblue" points="879.27,-410.27 879.12,-399.68 872.63,-408.06 879.27,-410.27"/>
</g>
<!-- Node29 -->
<g id="node29" class="node">
<title>Node29</title>
<g id="a_node29"><a xlink:href="PointerType_8h.html" target="_top" xlink:title=" ">
<polygon fill="white" stroke="black" points="911.5,-436.5 911.5,-466.5 1024.5,-466.5 1024.5,-436.5 911.5,-436.5"/>
<text text-anchor="start" x="919.5" y="-454.5" font-family="Helvetica,sans-Serif" font-size="10.00">boomerang/ssl/type</text>
<text text-anchor="middle" x="968" y="-443.5" font-family="Helvetica,sans-Serif" font-size="10.00">/PointerType.h</text>
</a>
</g>
</g>
<!-- Node1&#45;&gt;Node29 -->
<g id="edge52" class="edge">
<title>Node1&#45;&gt;Node29</title>
<path fill="none" stroke="midnightblue" d="M773.52,-503.48C807.64,-494.53 862.14,-480.25 904.77,-469.07"/>
<polygon fill="midnightblue" stroke="midnightblue" points="905.71,-472.44 914.5,-466.52 903.94,-465.67 905.71,-472.44"/>
</g>
<!-- Node30 -->
<g id="node30" class="node">
<title>Node30</title>
<g id="a_node30"><a xlink:href="Log_8h.html" target="_top" xlink:title=" ">
<polygon fill="white" stroke="black" points="998.5,-246.5 998.5,-276.5 1107.5,-276.5 1107.5,-246.5 998.5,-246.5"/>
<text text-anchor="start" x="1006.5" y="-264.5" font-family="Helvetica,sans-Serif" font-size="10.00">boomerang/util/log</text>
<text text-anchor="middle" x="1053" y="-253.5" font-family="Helvetica,sans-Serif" font-size="10.00">/Log.h</text>
</a>
</g>
</g>
<!-- Node1&#45;&gt;Node30 -->
<g id="edge54" class="edge">
<title>Node1&#45;&gt;Node30</title>
<path fill="none" stroke="midnightblue" d="M798.24,-511.27C874.3,-509 1002.73,-500.2 1034,-467 1080.43,-417.71 1068.43,-329.01 1059.14,-286.5"/>
<polygon fill="midnightblue" stroke="midnightblue" points="1062.54,-285.69 1056.87,-276.74 1055.72,-287.27 1062.54,-285.69"/>
</g>
<!-- Node3 -->
<g id="node3" class="node">
<title>Node3</title>
<g id="a_node3"><a xlink:href="ExpModifier_8h.html" target="_top" xlink:title=" ">
<polygon fill="white" stroke="black" points="0,-179.5 0,-209.5 168,-209.5 168,-179.5 0,-179.5"/>
<text text-anchor="start" x="8" y="-197.5" font-family="Helvetica,sans-Serif" font-size="10.00">boomerang/visitor/expmodifier</text>
<text text-anchor="middle" x="84" y="-186.5" font-family="Helvetica,sans-Serif" font-size="10.00">/ExpModifier.h</text>
</a>
</g>
</g>
<!-- Node2&#45;&gt;Node3 -->
<g id="edge2" class="edge">
<title>Node2&#45;&gt;Node3</title>
<path fill="none" stroke="midnightblue" d="M161.3,-313.31C148.6,-293.96 117.69,-246.85 99.03,-218.41"/>
<polygon fill="midnightblue" stroke="midnightblue" points="101.85,-216.33 93.44,-209.89 96,-220.17 101.85,-216.33"/>
</g>
<!-- Node4 -->
<g id="node4" class="node">
<title>Node4</title>
<g id="a_node4"><a xlink:href="BoomerangAPI_8h.html" target="_top" xlink:title=" ">
<polygon fill="white" stroke="black" points="571.5,-56.5 571.5,-86.5 726.5,-86.5 726.5,-56.5 571.5,-56.5"/>
<text text-anchor="start" x="579.5" y="-74.5" font-family="Helvetica,sans-Serif" font-size="10.00">boomerang/core/Boomerang</text>
<text text-anchor="middle" x="649" y="-63.5" font-family="Helvetica,sans-Serif" font-size="10.00">API.h</text>
</a>
</g>
</g>
<!-- Node3&#45;&gt;Node4 -->
<g id="edge3" class="edge">
<title>Node3&#45;&gt;Node4</title>
<path fill="none" stroke="midnightblue" d="M130.33,-179.49C182.25,-164.14 269.1,-139.51 345,-123 417.42,-107.24 500.49,-93.75 561.47,-84.69"/>
<polygon fill="midnightblue" stroke="midnightblue" points="562.06,-88.14 571.44,-83.22 561.04,-81.21 562.06,-88.14"/>
</g>
<!-- Node5 -->
<g id="node5" class="node">
<title>Node5</title>
<g id="a_node5"><a xlink:title=" ">
<polygon fill="white" stroke="#bfbfbf" points="401,-123.5 401,-142.5 459,-142.5 459,-123.5 401,-123.5"/>
<text text-anchor="middle" x="430" y="-130.5" font-family="Helvetica,sans-Serif" font-size="10.00">memory</text>
</a>
</g>
</g>
<!-- Node3&#45;&gt;Node5 -->
<g id="edge4" class="edge">
<title>Node3&#45;&gt;Node5</title>
<path fill="none" stroke="midnightblue" d="M165.56,-179.47C236.51,-167.27 336.25,-150.12 390.71,-140.76"/>
<polygon fill="midnightblue" stroke="midnightblue" points="391.4,-144.19 400.66,-139.05 390.21,-137.29 391.4,-144.19"/>
</g>
<!-- Node7 -->
<g id="node7" class="node">
<title>Node7</title>
<g id="a_node7"><a xlink:href="Unary_8h.html" target="_top" xlink:title=" ">
<polygon fill="white" stroke="black" points="490.5,-375 490.5,-394 639.5,-394 639.5,-375 490.5,-375"/>
<text text-anchor="middle" x="565" y="-382" font-family="Helvetica,sans-Serif" font-size="10.00">boomerang/ssl/exp/Unary.h</text>
</a>
</g>
</g>
<!-- Node6&#45;&gt;Node7 -->
<g id="edge6" class="edge">
<title>Node6&#45;&gt;Node7</title>
<path fill="none" stroke="midnightblue" d="M717.63,-441.87C686.91,-430.52 632.76,-410.52 597.9,-397.65"/>
<polygon fill="midnightblue" stroke="midnightblue" points="598.78,-394.24 588.19,-394.06 596.36,-400.81 598.78,-394.24"/>
</g>
<!-- Node8 -->
<g id="node8" class="node">
<title>Node8</title>
<g id="a_node8"><a xlink:href="Exp_8h.html" target="_top" xlink:title=" ">
<polygon fill="white" stroke="black" points="517,-313.5 517,-332.5 657,-332.5 657,-313.5 517,-313.5"/>
<text text-anchor="middle" x="587" y="-320.5" font-family="Helvetica,sans-Serif" font-size="10.00">boomerang/ssl/exp/Exp.h</text>
</a>
</g>
</g>
<!-- Node7&#45;&gt;Node8 -->
<g id="edge7" class="edge">
<title>Node7&#45;&gt;Node8</title>
<path fill="none" stroke="midnightblue" d="M568.15,-374.98C571.32,-366.4 576.3,-352.93 580.35,-341.98"/>
<polygon fill="midnightblue" stroke="midnightblue" points="583.67,-343.1 583.85,-332.51 577.1,-340.67 583.67,-343.1"/>
</g>
<!-- Node8&#45;&gt;Node5 -->
<g id="edge32" class="edge">
<title>Node8&#45;&gt;Node5</title>
<path fill="none" stroke="midnightblue" d="M574.9,-313.21C564.21,-304.9 548.84,-291.58 539,-277 512.86,-238.28 530.66,-215.09 501,-179 489.83,-165.4 473.43,-154.63 459.2,-147.04"/>
<polygon fill="midnightblue" stroke="midnightblue" points="460.75,-143.9 450.25,-142.51 457.59,-150.15 460.75,-143.9"/>
</g>
<!-- Node9 -->
<g id="node9" class="node">
<title>Node9</title>
<g id="a_node9"><a xlink:href="ExpHelp_8h.html" target="_top" xlink:title=" ">
<polygon fill="white" stroke="black" points="186,-185 186,-204 348,-204 348,-185 186,-185"/>
<text text-anchor="middle" x="267" y="-192" font-family="Helvetica,sans-Serif" font-size="10.00">boomerang/ssl/exp/ExpHelp.h</text>
</a>
</g>
</g>
<!-- Node8&#45;&gt;Node9 -->
<g id="edge8" class="edge">
<title>Node8&#45;&gt;Node9</title>
<path fill="none" stroke="midnightblue" d="M516.81,-319.16C441.94,-314.76 329.72,-303.79 297,-277 278.07,-261.5 271.09,-232.91 268.51,-214.05"/>
<polygon fill="midnightblue" stroke="midnightblue" points="271.98,-213.57 267.42,-204 265.02,-214.32 271.98,-213.57"/>
</g>
<!-- Node10 -->
<g id="node10" class="node">
<title>Node10</title>
<g id="a_node10"><a xlink:href="Operator_8h.html" target="_top" xlink:title=" ">
<polygon fill="white" stroke="black" points="512,-123.5 512,-142.5 676,-142.5 676,-123.5 512,-123.5"/>
<text text-anchor="middle" x="594" y="-130.5" font-family="Helvetica,sans-Serif" font-size="10.00">boomerang/ssl/exp/Operator.h</text>
</a>
</g>
</g>
<!-- Node8&#45;&gt;Node10 -->
<g id="edge11" class="edge">
<title>Node8&#45;&gt;Node10</title>
<path fill="none" stroke="midnightblue" d="M590.87,-313.23C594.62,-304.3 600.16,-289.96 603,-277 612.33,-234.37 615.99,-222.07 609,-179 607.53,-169.96 604.51,-160.28 601.56,-152.22"/>
<polygon fill="midnightblue" stroke="midnightblue" points="604.76,-150.79 597.86,-142.75 598.24,-153.34 604.76,-150.79"/>
</g>
<!-- Node8&#45;&gt;Node11 -->
<g id="edge13" class="edge">
<title>Node8&#45;&gt;Node11</title>
<path fill="none" stroke="midnightblue" d="M557.34,-313.48C526.42,-304.59 477.16,-290.43 438.4,-279.29"/>
<polygon fill="midnightblue" stroke="midnightblue" points="439.36,-275.92 428.79,-276.52 437.43,-282.65 439.36,-275.92"/>
</g>
<!-- Node13 -->
<g id="node13" class="node">
<title>Node13</title>
<g id="a_node13"><a xlink:href="OStream_8h.html" target="_top" xlink:title=" ">
<polygon fill="white" stroke="black" points="770,-123.5 770,-142.5 916,-142.5 916,-123.5 770,-123.5"/>
<text text-anchor="middle" x="843" y="-130.5" font-family="Helvetica,sans-Serif" font-size="10.00">boomerang/util/OStream.h</text>
</a>
</g>
</g>
<!-- Node8&#45;&gt;Node13 -->
<g id="edge28" class="edge">
<title>Node8&#45;&gt;Node13</title>
<path fill="none" stroke="midnightblue" d="M598.67,-313.43C638.9,-283.89 772.17,-186.02 823.03,-148.66"/>
<polygon fill="midnightblue" stroke="midnightblue" points="825.28,-151.36 831.27,-142.62 821.13,-145.71 825.28,-151.36"/>
</g>
<!-- Node17 -->
<g id="node17" class="node">
<title>Node17</title>
<g id="a_node17"><a xlink:title=" ">
<polygon fill="white" stroke="#bfbfbf" points="972.5,-123.5 972.5,-142.5 1025.5,-142.5 1025.5,-123.5 972.5,-123.5"/>
<text text-anchor="middle" x="999" y="-130.5" font-family="Helvetica,sans-Serif" font-size="10.00">QString</text>
</a>
</g>
</g>
<!-- Node8&#45;&gt;Node17 -->
<g id="edge29" class="edge">
<title>Node8&#45;&gt;Node17</title>
<path fill="none" stroke="midnightblue" d="M608.08,-313.46C645.87,-298.38 727.85,-266.67 799,-246 868.99,-225.66 901.14,-254.33 959,-210 977.82,-195.58 988.69,-169.76 994.23,-152.25"/>
<polygon fill="midnightblue" stroke="midnightblue" points="997.6,-153.19 997.01,-142.61 990.88,-151.25 997.6,-153.19"/>
</g>
<!-- Node18 -->
<g id="node18" class="node">
<title>Node18</title>
<g id="a_node18"><a xlink:title=" ">
<polygon fill="white" stroke="#bfbfbf" points="548,-185 548,-204 600,-204 600,-185 548,-185"/>
<text text-anchor="middle" x="574" y="-192" font-family="Helvetica,sans-Serif" font-size="10.00">cassert</text>
</a>
</g>
</g>
<!-- Node8&#45;&gt;Node18 -->
<g id="edge30" class="edge">
<title>Node8&#45;&gt;Node18</title>
<path fill="none" stroke="midnightblue" d="M588.21,-313.05C589.93,-298.78 592.49,-270.03 589,-246 587.41,-235.08 583.99,-223.24 580.82,-213.77"/>
<polygon fill="midnightblue" stroke="midnightblue" points="584.09,-212.52 577.45,-204.27 577.49,-214.86 584.09,-212.52"/>
</g>
<!-- Node19 -->
<g id="node19" class="node">
<title>Node19</title>
<g id="a_node19"><a xlink:title=" ">
<polygon fill="white" stroke="#bfbfbf" points="460,-185 460,-204 492,-204 492,-185 460,-185"/>
<text text-anchor="middle" x="476" y="-192" font-family="Helvetica,sans-Serif" font-size="10.00">list</text>
</a>
</g>
</g>
<!-- Node8&#45;&gt;Node19 -->
<g id="edge31" class="edge">
<title>Node8&#45;&gt;Node19</title>
<path fill="none" stroke="midnightblue" d="M561.96,-313.5C544.16,-306.3 520.86,-294.35 506,-277 490.48,-258.88 482.68,-232.02 478.99,-214.15"/>
<polygon fill="midnightblue" stroke="midnightblue" points="482.4,-213.32 477.16,-204.11 475.51,-214.58 482.4,-213.32"/>
</g>
<!-- Node21 -->
<g id="node21" class="node">
<title>Node21</title>
<g id="a_node21"><a xlink:title=" ">
<polygon fill="white" stroke="#bfbfbf" points="548,-252 548,-271 580,-271 580,-252 548,-252"/>
<text text-anchor="middle" x="564" y="-259" font-family="Helvetica,sans-Serif" font-size="10.00">set</text>
</a>
</g>
</g>
<!-- Node8&#45;&gt;Node21 -->
<g id="edge33" class="edge">
<title>Node8&#45;&gt;Node21</title>
<path fill="none" stroke="midnightblue" d="M583.7,-313.48C580.39,-304.9 575.18,-291.43 570.95,-280.48"/>
<polygon fill="midnightblue" stroke="midnightblue" points="574.16,-279.07 567.29,-271.01 567.63,-281.6 574.16,-279.07"/>
</g>
<!-- Node22 -->
<g id="node22" class="node">
<title>Node22</title>
<g id="a_node22"><a xlink:title=" ">
<polygon fill="white" stroke="#bfbfbf" points="1120.5,-185 1120.5,-204 1167.5,-204 1167.5,-185 1120.5,-185"/>
<text text-anchor="middle" x="1144" y="-192" font-family="Helvetica,sans-Serif" font-size="10.00">vector</text>
</a>
</g>
</g>
<!-- Node8&#45;&gt;Node22 -->
<g id="edge34" class="edge">
<title>Node8&#45;&gt;Node22</title>
<path fill="none" stroke="midnightblue" d="M657.03,-316.3C800.53,-304.59 1114.76,-278.76 1117,-277 1135.99,-262.02 1141.75,-233.29 1143.43,-214.26"/>
<polygon fill="midnightblue" stroke="midnightblue" points="1146.93,-214.3 1144.02,-204.11 1139.94,-213.89 1146.93,-214.3"/>
</g>
<!-- Node9&#45;&gt;Node4 -->
<g id="edge9" class="edge">
<title>Node9&#45;&gt;Node4</title>
<path fill="none" stroke="midnightblue" d="M279.13,-184.89C300.75,-169.97 347.83,-139.31 392,-123 446.59,-102.84 510.82,-90.22 561.41,-82.63"/>
<polygon fill="midnightblue" stroke="midnightblue" points="561.95,-86.09 571.34,-81.18 560.94,-79.16 561.95,-86.09"/>
</g>
<!-- Node9&#45;&gt;Node5 -->
<g id="edge10" class="edge">
<title>Node9&#45;&gt;Node5</title>
<path fill="none" stroke="midnightblue" d="M290.35,-184.98C318.31,-174.77 365.33,-157.61 396.99,-146.05"/>
<polygon fill="midnightblue" stroke="midnightblue" points="398.5,-149.23 406.69,-142.51 396.1,-142.65 398.5,-149.23"/>
</g>
<!-- Node10&#45;&gt;Node4 -->
<g id="edge12" class="edge">
<title>Node10&#45;&gt;Node4</title>
<path fill="none" stroke="midnightblue" d="M601.88,-123.48C608.98,-115.79 619.72,-104.17 629.16,-93.96"/>
<polygon fill="midnightblue" stroke="midnightblue" points="631.82,-96.24 636.04,-86.52 626.68,-91.49 631.82,-96.24"/>
</g>
<!-- Node11&#45;&gt;Node5 -->
<g id="edge27" class="edge">
<title>Node11&#45;&gt;Node5</title>
<path fill="none" stroke="midnightblue" d="M380.57,-246.35C381.7,-229.6 385.05,-201.19 395,-179 399.69,-168.54 407.3,-158.34 414.22,-150.3"/>
<polygon fill="midnightblue" stroke="midnightblue" points="416.91,-152.54 421.04,-142.79 411.73,-147.84 416.91,-152.54"/>
</g>
<!-- Node11&#45;&gt;Node9 -->
<g id="edge14" class="edge">
<title>Node11&#45;&gt;Node9</title>
<path fill="none" stroke="midnightblue" d="M355.48,-246.4C336.27,-235.34 309.7,-220.06 290.7,-209.13"/>
<polygon fill="midnightblue" stroke="midnightblue" points="292.2,-205.96 281.79,-204.01 288.71,-212.03 292.2,-205.96"/>
</g>
<!-- Node12 -->
<g id="node12" class="node">
<title>Node12</title>
<g id="a_node12"><a xlink:href="Address_8h.html" target="_top" xlink:title=" ">
<polygon fill="white" stroke="black" points="808,-185 808,-204 950,-204 950,-185 808,-185"/>
<text text-anchor="middle" x="879" y="-192" font-family="Helvetica,sans-Serif" font-size="10.00">boomerang/util/Address.h</text>
</a>
</g>
</g>
<!-- Node11&#45;&gt;Node12 -->
<g id="edge15" class="edge">
<title>Node11&#45;&gt;Node12</title>
<path fill="none" stroke="midnightblue" d="M453.63,-250.91C547.4,-238.69 708.62,-217.69 803.35,-205.35"/>
<polygon fill="midnightblue" stroke="midnightblue" points="803.97,-208.8 813.43,-204.04 803.06,-201.86 803.97,-208.8"/>
</g>
<!-- Node11&#45;&gt;Node18 -->
<g id="edge24" class="edge">
<title>Node11&#45;&gt;Node18</title>
<path fill="none" stroke="midnightblue" d="M422.1,-246.4C457.04,-234.69 506.16,-218.23 538.98,-207.23"/>
<polygon fill="midnightblue" stroke="midnightblue" points="540.24,-210.5 548.61,-204.01 538.02,-203.87 540.24,-210.5"/>
</g>
<!-- Node11&#45;&gt;Node19 -->
<g id="edge25" class="edge">
<title>Node11&#45;&gt;Node19</title>
<path fill="none" stroke="midnightblue" d="M400.83,-246.4C416.78,-235.6 438.7,-220.76 454.75,-209.89"/>
<polygon fill="midnightblue" stroke="midnightblue" points="457.12,-212.51 463.44,-204.01 453.19,-206.72 457.12,-212.51"/>
</g>
<!-- Node20 -->
<g id="node20" class="node">
<title>Node20</title>
<g id="a_node20"><a xlink:title=" ">
<polygon fill="white" stroke="#bfbfbf" points="404,-185 404,-204 442,-204 442,-185 404,-185"/>
<text text-anchor="middle" x="423" y="-192" font-family="Helvetica,sans-Serif" font-size="10.00">map</text>
</a>
</g>
</g>
<!-- Node11&#45;&gt;Node20 -->
<g id="edge26" class="edge">
<title>Node11&#45;&gt;Node20</title>
<path fill="none" stroke="midnightblue" d="M389.33,-246.4C395.9,-236.46 404.74,-223.11 411.71,-212.57"/>
<polygon fill="midnightblue" stroke="midnightblue" points="414.65,-214.47 417.25,-204.19 408.81,-210.6 414.65,-214.47"/>
</g>
<!-- Node12&#45;&gt;Node4 -->
<g id="edge16" class="edge">
<title>Node12&#45;&gt;Node4</title>
<path fill="none" stroke="midnightblue" d="M855.89,-184.86C831.73,-175.54 792.97,-159.77 761,-143 731.72,-127.64 699.97,-107.27 677.78,-92.38"/>
<polygon fill="midnightblue" stroke="midnightblue" points="679.72,-89.47 669.47,-86.76 675.8,-95.27 679.72,-89.47"/>
</g>
<!-- Node12&#45;&gt;Node13 -->
<g id="edge17" class="edge">
<title>Node12&#45;&gt;Node13</title>
<path fill="none" stroke="midnightblue" d="M873.84,-184.98C868.55,-176.23 860.16,-162.37 853.47,-151.31"/>
<polygon fill="midnightblue" stroke="midnightblue" points="856.32,-149.25 848.15,-142.51 850.33,-152.88 856.32,-149.25"/>
</g>
<!-- Node14 -->
<g id="node14" class="node">
<title>Node14</title>
<g id="a_node14"><a xlink:href="Types_8h.html" target="_top" xlink:title=" ">
<polygon fill="white" stroke="black" points="936.5,-62 936.5,-81 1067.5,-81 1067.5,-62 936.5,-62"/>
<text text-anchor="middle" x="1002" y="-69" font-family="Helvetica,sans-Serif" font-size="10.00">boomerang/util/Types.h</text>
</a>
</g>
</g>
<!-- Node12&#45;&gt;Node14 -->
<g id="edge22" class="edge">
<title>Node12&#45;&gt;Node14</title>
<path fill="none" stroke="midnightblue" d="M887.85,-184.8C908.41,-164.57 959.69,-114.12 985.95,-88.29"/>
<polygon fill="midnightblue" stroke="midnightblue" points="988.56,-90.63 993.23,-81.12 983.65,-85.64 988.56,-90.63"/>
</g>
<!-- Node12&#45;&gt;Node17 -->
<g id="edge23" class="edge">
<title>Node12&#45;&gt;Node17</title>
<path fill="none" stroke="midnightblue" d="M896.19,-184.98C916.24,-175.03 949.6,-158.49 972.86,-146.96"/>
<polygon fill="midnightblue" stroke="midnightblue" points="974.43,-150.09 981.84,-142.51 971.32,-143.82 974.43,-150.09"/>
</g>
<!-- Node13&#45;&gt;Node4 -->
<g id="edge18" class="edge">
<title>Node13&#45;&gt;Node4</title>
<path fill="none" stroke="midnightblue" d="M815.2,-123.48C786.47,-114.66 740.84,-100.67 704.66,-89.57"/>
<polygon fill="midnightblue" stroke="midnightblue" points="705.31,-86.11 694.72,-86.52 703.26,-92.8 705.31,-86.11"/>
</g>
<!-- Node13&#45;&gt;Node14 -->
<g id="edge19" class="edge">
<title>Node13&#45;&gt;Node14</title>
<path fill="none" stroke="midnightblue" d="M865.78,-123.48C893.05,-113.27 938.91,-96.11 969.8,-84.55"/>
<polygon fill="midnightblue" stroke="midnightblue" points="971.12,-87.79 979.26,-81.01 968.67,-81.24 971.12,-87.79"/>
</g>
<!-- Node16 -->
<g id="node16" class="node">
<title>Node16</title>
<g id="a_node16"><a xlink:title=" ">
<polygon fill="white" stroke="#bfbfbf" points="820,-62 820,-81 866,-81 866,-62 820,-62"/>
<text text-anchor="middle" x="843" y="-69" font-family="Helvetica,sans-Serif" font-size="10.00">cstdio</text>
</a>
</g>
</g>
<!-- Node13&#45;&gt;Node16 -->
<g id="edge21" class="edge">
<title>Node13&#45;&gt;Node16</title>
<path fill="none" stroke="midnightblue" d="M843,-123.48C843,-115.08 843,-101.98 843,-91.16"/>
<polygon fill="midnightblue" stroke="midnightblue" points="846.5,-91.01 843,-81.01 839.5,-91.01 846.5,-91.01"/>
</g>
<!-- Node15 -->
<g id="node15" class="node">
<title>Node15</title>
<g id="a_node15"><a xlink:title=" ">
<polygon fill="white" stroke="#bfbfbf" points="977,-0.5 977,-19.5 1027,-19.5 1027,-0.5 977,-0.5"/>
<text text-anchor="middle" x="1002" y="-7.5" font-family="Helvetica,sans-Serif" font-size="10.00">cstdint</text>
</a>
</g>
</g>
<!-- Node14&#45;&gt;Node15 -->
<g id="edge20" class="edge">
<title>Node14&#45;&gt;Node15</title>
<path fill="none" stroke="midnightblue" d="M1002,-61.98C1002,-53.58 1002,-40.48 1002,-29.66"/>
<polygon fill="midnightblue" stroke="midnightblue" points="1005.5,-29.51 1002,-19.51 998.5,-29.51 1005.5,-29.51"/>
</g>
<!-- Node23&#45;&gt;Node8 -->
<g id="edge36" class="edge">
<title>Node23&#45;&gt;Node8</title>
<path fill="none" stroke="midnightblue" d="M712.94,-374.98C687.94,-364.86 646.06,-347.9 617.51,-336.35"/>
<polygon fill="midnightblue" stroke="midnightblue" points="618.61,-333.02 608.02,-332.51 615.98,-339.51 618.61,-333.02"/>
</g>
<!-- Node23&#45;&gt;Node12 -->
<g id="edge37" class="edge">
<title>Node23&#45;&gt;Node12</title>
<path fill="none" stroke="midnightblue" d="M773.28,-374.9C820.07,-362.32 896.15,-333.92 930,-277 943.96,-253.53 919.24,-226.76 899.58,-210.51"/>
<polygon fill="midnightblue" stroke="midnightblue" points="901.62,-207.66 891.59,-204.22 897.29,-213.16 901.62,-207.66"/>
</g>
<!-- Node24 -->
<g id="node24" class="node">
<title>Node24</title>
<g id="a_node24"><a xlink:title=" ">
<polygon fill="white" stroke="#bfbfbf" points="708.5,-313.5 708.5,-332.5 759.5,-332.5 759.5,-313.5 708.5,-313.5"/>
<text text-anchor="middle" x="734" y="-320.5" font-family="Helvetica,sans-Serif" font-size="10.00">variant</text>
</a>
</g>
</g>
<!-- Node23&#45;&gt;Node24 -->
<g id="edge38" class="edge">
<title>Node23&#45;&gt;Node24</title>
<path fill="none" stroke="midnightblue" d="M734,-374.98C734,-366.58 734,-353.48 734,-342.66"/>
<polygon fill="midnightblue" stroke="midnightblue" points="737.5,-342.51 734,-332.51 730.5,-342.51 737.5,-342.51"/>
</g>
<!-- Node25&#45;&gt;Node7 -->
<g id="edge40" class="edge">
<title>Node25&#45;&gt;Node7</title>
<path fill="none" stroke="midnightblue" d="M407.17,-441.87C439.08,-430.47 495.41,-410.35 531.44,-397.49"/>
<polygon fill="midnightblue" stroke="midnightblue" points="532.78,-400.72 541.02,-394.06 530.43,-394.13 532.78,-400.72"/>
</g>
<!-- Node25&#45;&gt;Node11 -->
<g id="edge41" class="edge">
<title>Node25&#45;&gt;Node11</title>
<path fill="none" stroke="midnightblue" d="M382.86,-441.93C382.43,-414.64 381.06,-329.05 380.39,-286.71"/>
<polygon fill="midnightblue" stroke="midnightblue" points="383.89,-286.65 380.23,-276.7 376.89,-286.76 383.89,-286.65"/>
</g>
<!-- Node26&#45;&gt;Node7 -->
<g id="edge43" class="edge">
<title>Node26&#45;&gt;Node7</title>
<path fill="none" stroke="midnightblue" d="M563.27,-441.73C563.56,-432.18 564.04,-416.62 564.42,-404.28"/>
<polygon fill="midnightblue" stroke="midnightblue" points="567.93,-404.23 564.73,-394.13 560.93,-404.01 567.93,-404.23"/>
</g>
<!-- Node28 -->
<g id="node28" class="node">
<title>Node28</title>
<g id="a_node28"><a xlink:href="Type_8h.html" target="_top" xlink:title=" ">
<polygon fill="white" stroke="black" points="807.5,-246.5 807.5,-276.5 920.5,-276.5 920.5,-246.5 807.5,-246.5"/>
<text text-anchor="start" x="815.5" y="-264.5" font-family="Helvetica,sans-Serif" font-size="10.00">boomerang/ssl/type</text>
<text text-anchor="middle" x="864" y="-253.5" font-family="Helvetica,sans-Serif" font-size="10.00">/Type.h</text>
</a>
</g>
</g>
<!-- Node27&#45;&gt;Node28 -->
<g id="edge46" class="edge">
<title>Node27&#45;&gt;Node28</title>
<path fill="none" stroke="midnightblue" d="M880.75,-369.14C877.56,-348.86 871.7,-311.53 867.83,-286.86"/>
<polygon fill="midnightblue" stroke="midnightblue" points="871.26,-286.17 866.25,-276.84 864.34,-287.26 871.26,-286.17"/>
</g>
<!-- Node28&#45;&gt;Node4 -->
<g id="edge47" class="edge">
<title>Node28&#45;&gt;Node4</title>
<path fill="none" stroke="midnightblue" d="M845.29,-246.4C832.19,-236.42 814.34,-222.62 799,-210 763.96,-181.18 755.44,-173.66 722,-143 704.36,-126.83 684.88,-107.97 670.49,-93.82"/>
<polygon fill="midnightblue" stroke="midnightblue" points="672.64,-91.03 663.06,-86.5 667.72,-96.01 672.64,-91.03"/>
</g>
<!-- Node28&#45;&gt;Node5 -->
<g id="edge51" class="edge">
<title>Node28&#45;&gt;Node5</title>
<path fill="none" stroke="midnightblue" d="M822.73,-246.42C772.5,-229.5 684.98,-200.67 609,-179 561.32,-165.4 505.89,-151.8 469.49,-143.17"/>
<polygon fill="midnightblue" stroke="midnightblue" points="469.83,-139.66 459.29,-140.77 468.22,-146.47 469.83,-139.66"/>
</g>
<!-- Node28&#45;&gt;Node14 -->
<g id="edge48" class="edge">
<title>Node28&#45;&gt;Node14</title>
<path fill="none" stroke="midnightblue" d="M920.5,-253.14C950.81,-246.49 986.8,-233.88 1011,-210 1039.55,-181.82 1046.45,-161.44 1035,-123 1031.29,-110.52 1023.4,-98.26 1016.27,-88.94"/>
<polygon fill="midnightblue" stroke="midnightblue" points="1018.84,-86.56 1009.82,-81 1013.41,-90.97 1018.84,-86.56"/>
</g>
<!-- Node28&#45;&gt;Node17 -->
<g id="edge49" class="edge">
<title>Node28&#45;&gt;Node17</title>
<path fill="none" stroke="midnightblue" d="M920.74,-251.96C946.57,-245.04 975.09,-232.55 992,-210 1004.27,-193.64 1004.29,-169.37 1002.37,-152.68"/>
<polygon fill="midnightblue" stroke="midnightblue" points="1005.79,-151.91 1000.86,-142.53 998.87,-152.94 1005.79,-151.91"/>
</g>
<!-- Node28&#45;&gt;Node18 -->
<g id="edge50" class="edge">
<title>Node28&#45;&gt;Node18</title>
<path fill="none" stroke="midnightblue" d="M807.4,-247.81C748.92,-234.71 659.42,-214.65 609.97,-203.56"/>
<polygon fill="midnightblue" stroke="midnightblue" points="610.57,-200.11 600.05,-201.34 609.04,-206.94 610.57,-200.11"/>
</g>
<!-- Node29&#45;&gt;Node28 -->
<g id="edge53" class="edge">
<title>Node29&#45;&gt;Node28</title>
<path fill="none" stroke="midnightblue" d="M966.62,-436.32C964.56,-419.54 959.71,-391.1 949,-369 933.06,-336.11 905.4,-304.13 885.98,-283.94"/>
<polygon fill="midnightblue" stroke="midnightblue" points="888.22,-281.24 878.72,-276.55 883.23,-286.14 888.22,-281.24"/>
</g>
<!-- Node30&#45;&gt;Node5 -->
<g id="edge57" class="edge">
<title>Node30&#45;&gt;Node5</title>
<path fill="none" stroke="midnightblue" d="M998.36,-250.34C946.82,-240.59 867.48,-225.16 799,-210 742.27,-197.44 728.81,-191.2 672,-179 600.77,-163.7 517.08,-148.82 469.12,-140.59"/>
<polygon fill="midnightblue" stroke="midnightblue" points="469.61,-137.12 459.16,-138.88 468.43,-144.02 469.61,-137.12"/>
</g>
<!-- Node30&#45;&gt;Node12 -->
<g id="edge55" class="edge">
<title>Node30&#45;&gt;Node12</title>
<path fill="none" stroke="midnightblue" d="M1015.24,-246.4C984.17,-234.79 940.61,-218.51 911.17,-207.52"/>
<polygon fill="midnightblue" stroke="midnightblue" points="912.37,-204.23 901.77,-204.01 909.92,-210.79 912.37,-204.23"/>
</g>
<!-- Node30&#45;&gt;Node14 -->
<g id="edge56" class="edge">
<title>Node30&#45;&gt;Node14</title>
<path fill="none" stroke="midnightblue" d="M1059.34,-246.36C1069.97,-220.42 1088.31,-164.12 1068,-123 1060.08,-106.98 1044.38,-94.64 1030.27,-86.17"/>
<polygon fill="midnightblue" stroke="midnightblue" points="1031.77,-82.99 1021.33,-81.16 1028.35,-89.1 1031.77,-82.99"/>
</g>
<!-- Node30&#45;&gt;Node22 -->
<g id="edge58" class="edge">
<title>Node30&#45;&gt;Node22</title>
<path fill="none" stroke="midnightblue" d="M1072.75,-246.4C1087.86,-235.6 1108.64,-220.76 1123.86,-209.89"/>
<polygon fill="midnightblue" stroke="midnightblue" points="1125.99,-212.67 1132.09,-204.01 1121.92,-206.97 1125.99,-212.67"/>
</g>
</g>
</svg>
        <g id="navigator" transform="translate(0 0)" fill="#404254">
                <rect fill="#f2f5e9" fill-opacity="0.5" stroke="#606060" stroke-width=".5" x="0" y="0" width="60" height="60"/>
                <use id="zoomplus" xlink:href="#zoomPlus" x="17" y="9" onmousedown="handleZoom(evt,'in')"/>
                <use id="zoomminus" xlink:href="#zoomMin" x="42" y="9" onmousedown="handleZoom(evt,'out')"/>
                <use id="reset" xlink:href="#resetDef" x="30" y="36" onmousedown="handleReset()"/>
                <g id="arrowUp" xlink:href="#dirArrow" transform="translate(30 24)" onmousedown="handlePan(0,-1)">
                  <use xlink:href="#rim" fill="#404040">
                        <set attributeName="fill" to="#808080" begin="arrowUp.mouseover" end="arrowUp.mouseout"/>
                  </use>
                  <path fill="none" stroke="white" stroke-width="1.5" d="M0,-3.0v7 M-2.5,-0.5L0,-3.0L2.5,-0.5"/>
                </g>
                <g id="arrowRight" xlink:href="#dirArrow" transform="rotate(90) translate(36 -43)" onmousedown="handlePan(1,0)">
                  <use xlink:href="#rim" fill="#404040">
                        <set attributeName="fill" to="#808080" begin="arrowRight.mouseover" end="arrowRight.mouseout"/>
                  </use>
                  <path fill="none" stroke="white" stroke-width="1.5" d="M0,-3.0v7 M-2.5,-0.5L0,-3.0L2.5,-0.5"/>
                </g>
                <g id="arrowDown" xlink:href="#dirArrow" transform="rotate(180) translate(-30 -48)" onmousedown="handlePan(0,1)">
                  <use xlink:href="#rim" fill="#404040">
                        <set attributeName="fill" to="#808080" begin="arrowDown.mouseover" end="arrowDown.mouseout"/>
                  </use>
                  <path fill="none" stroke="white" stroke-width="1.5" d="M0,-3.0v7 M-2.5,-0.5L0,-3.0L2.5,-0.5"/>
                </g>
                <g id="arrowLeft" xlink:href="#dirArrow" transform="rotate(270) translate(-36 17)" onmousedown="handlePan(-1,0)">
                  <use xlink:href="#rim" fill="#404040">
                        <set attributeName="fill" to="#808080" begin="arrowLeft.mouseover" end="arrowLeft.mouseout"/>
                  </use>
                  <path fill="none" stroke="white" stroke-width="1.5" d="M0,-3.0v7 M-2.5,-0.5L0,-3.0L2.5,-0.5"/>
                </g>
        </g>
        <svg viewBox="0 0 15 15" width="100%" height="30px" preserveAspectRatio="xMaxYMin meet">
         <g id="arrow_out" transform="scale(0.3 0.3)">
          <a xlink:href="ExpCastInserter_8cpp__incl_org.svg" target="_base">
           <rect id="button" ry="5" rx="5" y="6" x="6" height="38" width="38"
                fill="#f2f5e9" fill-opacity="0.5" stroke="#606060" stroke-width="1.0"/>
           <path id="arrow"
             d="M 11.500037,31.436501 C 11.940474,20.09759 22.043105,11.32322 32.158766,21.979434 L 37.068811,17.246167 C 37.068811,17.246167 37.088388,32 37.088388,32 L 22.160133,31.978069 C 22.160133,31.978069 26.997745,27.140456 26.997745,27.140456 C 18.528582,18.264221 13.291696,25.230495 11.500037,31.436501 z"
             style="fill:#404040;"/>
          </a>
         </g>
        </svg>
</svg>
