<?xml version="1.0" encoding="UTF-8" standalone="no"?>
<!DOCTYPE svg PUBLIC "-//W3C//DTD SVG 1.1//EN"
 "http://www.w3.org/Graphics/SVG/1.1/DTD/svg11.dtd">
<!-- Generated by graphviz version 2.43.0 (0)
 -->
<!-- Title: ExpSet.cpp Pages: 1 -->
<svg width="548pt" height="263pt"
 viewBox="0.00 0.00 548.00 263.00" xmlns="http://www.w3.org/2000/svg" xmlns:xlink="http://www.w3.org/1999/xlink">
<g id="graph0" class="graph" transform="scale(1 1) rotate(0) translate(4 259)">
<title>ExpSet.cpp</title>
<polygon fill="white" stroke="transparent" points="-4,4 -4,-259 544,-259 544,4 -4,4"/>
<!-- Node1 -->
<g id="node1" class="node">
<title>Node1</title>
<g id="a_node1"><a xlink:title=" ">
<polygon fill="#bfbfbf" stroke="black" points="277.5,-235.5 277.5,-254.5 348.5,-254.5 348.5,-235.5 277.5,-235.5"/>
<text text-anchor="middle" x="313" y="-242.5" font-family="Helvetica,sans-Serif" font-size="10.00">ExpSet.cpp</text>
</a>
</g>
</g>
<!-- Node2 -->
<g id="node2" class="node">
<title>Node2</title>
<g id="a_node2"><a xlink:href="ExpSet_8h.html" target="_top" xlink:title=" ">
<polygon fill="white" stroke="black" points="283.5,-179.5 283.5,-198.5 342.5,-198.5 342.5,-179.5 283.5,-179.5"/>
<text text-anchor="middle" x="313" y="-186.5" font-family="Helvetica,sans-Serif" font-size="10.00">ExpSet.h</text>
</a>
</g>
</g>
<!-- Node1&#45;&gt;Node2 -->
<g id="edge1" class="edge">
<title>Node1&#45;&gt;Node2</title>
<path fill="none" stroke="midnightblue" d="M313,-235.08C313,-228.01 313,-217.86 313,-208.99"/>
<polygon fill="midnightblue" stroke="midnightblue" points="316.5,-208.75 313,-198.75 309.5,-208.75 316.5,-208.75"/>
</g>
<!-- Node3 -->
<g id="node3" class="node">
<title>Node3</title>
<g id="a_node3"><a xlink:href="ExpHelp_8h.html" target="_top" xlink:title=" ">
<polygon fill="white" stroke="black" points="60,-123.5 60,-142.5 222,-142.5 222,-123.5 60,-123.5"/>
<text text-anchor="middle" x="141" y="-130.5" font-family="Helvetica,sans-Serif" font-size="10.00">boomerang/ssl/exp/ExpHelp.h</text>
</a>
</g>
</g>
<!-- Node2&#45;&gt;Node3 -->
<g id="edge2" class="edge">
<title>Node2&#45;&gt;Node3</title>
<path fill="none" stroke="midnightblue" d="M285.75,-179.44C256.56,-170.28 210.08,-155.69 177.69,-145.52"/>
<polygon fill="midnightblue" stroke="midnightblue" points="178.72,-142.17 168.13,-142.52 176.62,-148.85 178.72,-142.17"/>
</g>
<!-- Node5 -->
<g id="node5" class="node">
<title>Node5</title>
<g id="a_node5"><a xlink:title=" ">
<polygon fill="white" stroke="#bfbfbf" points="0,-62 0,-81 58,-81 58,-62 0,-62"/>
<text text-anchor="middle" x="29" y="-69" font-family="Helvetica,sans-Serif" font-size="10.00">memory</text>
</a>
</g>
</g>
<!-- Node2&#45;&gt;Node5 -->
<g id="edge10" class="edge">
<title>Node2&#45;&gt;Node5</title>
<path fill="none" stroke="midnightblue" d="M283.12,-186.7C221.92,-183.45 85.2,-172.95 51,-143 36.41,-130.22 31.38,-107.93 29.71,-91.82"/>
<polygon fill="midnightblue" stroke="midnightblue" points="33.17,-91.16 28.99,-81.42 26.19,-91.63 33.17,-91.16"/>
</g>
<!-- Node6 -->
<g id="node6" class="node">
<title>Node6</title>
<g id="a_node6"><a xlink:href="OStream_8h.html" target="_top" xlink:title=" ">
<polygon fill="white" stroke="black" points="240,-123.5 240,-142.5 386,-142.5 386,-123.5 240,-123.5"/>
<text text-anchor="middle" x="313" y="-130.5" font-family="Helvetica,sans-Serif" font-size="10.00">boomerang/util/OStream.h</text>
</a>
</g>
</g>
<!-- Node2&#45;&gt;Node6 -->
<g id="edge5" class="edge">
<title>Node2&#45;&gt;Node6</title>
<path fill="none" stroke="midnightblue" d="M313,-179.08C313,-172.01 313,-161.86 313,-152.99"/>
<polygon fill="midnightblue" stroke="midnightblue" points="316.5,-152.75 313,-142.75 309.5,-152.75 316.5,-152.75"/>
</g>
<!-- Node10 -->
<g id="node10" class="node">
<title>Node10</title>
<g id="a_node10"><a xlink:title=" ">
<polygon fill="white" stroke="#bfbfbf" points="404,-123.5 404,-142.5 436,-142.5 436,-123.5 404,-123.5"/>
<text text-anchor="middle" x="420" y="-130.5" font-family="Helvetica,sans-Serif" font-size="10.00">set</text>
</a>
</g>
</g>
<!-- Node2&#45;&gt;Node10 -->
<g id="edge11" class="edge">
<title>Node2&#45;&gt;Node10</title>
<path fill="none" stroke="midnightblue" d="M330.19,-179.32C347.66,-170.51 374.89,-156.76 394.8,-146.72"/>
<polygon fill="midnightblue" stroke="midnightblue" points="396.55,-149.75 403.9,-142.12 393.4,-143.51 396.55,-149.75"/>
</g>
<!-- Node11 -->
<g id="node11" class="node">
<title>Node11</title>
<g id="a_node11"><a xlink:title=" ">
<polygon fill="white" stroke="#bfbfbf" points="454,-123.5 454,-142.5 540,-142.5 540,-123.5 454,-123.5"/>
<text text-anchor="middle" x="497" y="-130.5" font-family="Helvetica,sans-Serif" font-size="10.00">unordered_set</text>
</a>
</g>
</g>
<!-- Node2&#45;&gt;Node11 -->
<g id="edge12" class="edge">
<title>Node2&#45;&gt;Node11</title>
<path fill="none" stroke="midnightblue" d="M342.16,-179.44C373.51,-170.24 423.53,-155.56 458.2,-145.39"/>
<polygon fill="midnightblue" stroke="midnightblue" points="459.37,-148.69 467.98,-142.52 457.4,-141.97 459.37,-148.69"/>
</g>
<!-- Node4 -->
<g id="node4" class="node">
<title>Node4</title>
<g id="a_node4"><a xlink:href="BoomerangAPI_8h.html" target="_top" xlink:title=" ">
<polygon fill="white" stroke="black" points="76.5,-56.5 76.5,-86.5 231.5,-86.5 231.5,-56.5 76.5,-56.5"/>
<text text-anchor="start" x="84.5" y="-74.5" font-family="Helvetica,sans-Serif" font-size="10.00">boomerang/core/Boomerang</text>
<text text-anchor="middle" x="154" y="-63.5" font-family="Helvetica,sans-Serif" font-size="10.00">API.h</text>
</a>
</g>
</g>
<!-- Node3&#45;&gt;Node4 -->
<g id="edge3" class="edge">
<title>Node3&#45;&gt;Node4</title>
<path fill="none" stroke="midnightblue" d="M142.86,-123.48C144.41,-116.4 146.69,-105.97 148.78,-96.39"/>
<polygon fill="midnightblue" stroke="midnightblue" points="152.22,-97.04 150.94,-86.52 145.38,-95.55 152.22,-97.04"/>
</g>
<!-- Node3&#45;&gt;Node5 -->
<g id="edge4" class="edge">
<title>Node3&#45;&gt;Node5</title>
<path fill="none" stroke="midnightblue" d="M124.95,-123.48C106.41,-113.62 75.66,-97.29 53.98,-85.77"/>
<polygon fill="midnightblue" stroke="midnightblue" points="55.49,-82.61 45.02,-81.01 52.21,-88.79 55.49,-82.61"/>
</g>
<!-- Node6&#45;&gt;Node4 -->
<g id="edge6" class="edge">
<title>Node6&#45;&gt;Node4</title>
<path fill="none" stroke="midnightblue" d="M290.22,-123.48C267.07,-114.81 230.55,-101.15 201.14,-90.14"/>
<polygon fill="midnightblue" stroke="midnightblue" points="202.07,-86.75 191.47,-86.52 199.61,-93.31 202.07,-86.75"/>
</g>
<!-- Node7 -->
<g id="node7" class="node">
<title>Node7</title>
<g id="a_node7"><a xlink:href="Types_8h.html" target="_top" xlink:title=" ">
<polygon fill="white" stroke="black" points="249.5,-62 249.5,-81 380.5,-81 380.5,-62 249.5,-62"/>
<text text-anchor="middle" x="315" y="-69" font-family="Helvetica,sans-Serif" font-size="10.00">boomerang/util/Types.h</text>
</a>
</g>
</g>
<!-- Node6&#45;&gt;Node7 -->
<g id="edge7" class="edge">
<title>Node6&#45;&gt;Node7</title>
<path fill="none" stroke="midnightblue" d="M313.29,-123.48C313.57,-115.08 314.01,-101.98 314.37,-91.16"/>
<polygon fill="midnightblue" stroke="midnightblue" points="317.88,-91.12 314.71,-81.01 310.88,-90.89 317.88,-91.12"/>
</g>
<!-- Node9 -->
<g id="node9" class="node">
<title>Node9</title>
<g id="a_node9"><a xlink:title=" ">
<polygon fill="white" stroke="#bfbfbf" points="399,-62 399,-81 445,-81 445,-62 399,-62"/>
<text text-anchor="middle" x="422" y="-69" font-family="Helvetica,sans-Serif" font-size="10.00">cstdio</text>
</a>
</g>
</g>
<!-- Node6&#45;&gt;Node9 -->
<g id="edge9" class="edge">
<title>Node6&#45;&gt;Node9</title>
<path fill="none" stroke="midnightblue" d="M328.62,-123.48C346.59,-113.67 376.32,-97.43 397.41,-85.92"/>
<polygon fill="midnightblue" stroke="midnightblue" points="399.31,-88.87 406.41,-81.01 395.96,-82.73 399.31,-88.87"/>
</g>
<!-- Node8 -->
<g id="node8" class="node">
<title>Node8</title>
<g id="a_node8"><a xlink:title=" ">
<polygon fill="white" stroke="#bfbfbf" points="290,-0.5 290,-19.5 340,-19.5 340,-0.5 290,-0.5"/>
<text text-anchor="middle" x="315" y="-7.5" font-family="Helvetica,sans-Serif" font-size="10.00">cstdint</text>
</a>
</g>
</g>
<!-- Node7&#45;&gt;Node8 -->
<g id="edge8" class="edge">
<title>Node7&#45;&gt;Node8</title>
<path fill="none" stroke="midnightblue" d="M315,-61.98C315,-53.58 315,-40.48 315,-29.66"/>
<polygon fill="midnightblue" stroke="midnightblue" points="318.5,-29.51 315,-19.51 311.5,-29.51 318.5,-29.51"/>
</g>
</g>
</svg>
