<?xml version="1.0" encoding="UTF-8" standalone="no"?>
<!DOCTYPE svg PUBLIC "-//W3C//DTD SVG 1.1//EN"
 "http://www.w3.org/Graphics/SVG/1.1/DTD/svg11.dtd">
<!-- Generated by graphviz version 2.43.0 (0)
 -->
<!-- Title: FlagsFinder.cpp Pages: 1 -->
<!--zoomable 509 -->
<svg id="main" version="1.1" xmlns="http://www.w3.org/2000/svg" xmlns:xlink="http://www.w3.org/1999/xlink" xml:space="preserve" onload="init(evt)">
<style type="text/css"><![CDATA[
.edge:hover path { stroke: red; }
.edge:hover polygon { stroke: red; fill: red; }
]]></style>
<script type="text/javascript"><![CDATA[
var edges = document.getElementsByTagName('g');
if (edges && edges.length) {
  for (var i=0;i<edges.length;i++) {
    if (edges[i].id.substr(0,4)=='edge') {
      edges[i].setAttribute('class','edge');
    }
  }
}
]]></script>
        <defs>
                <circle id="rim" cx="0" cy="0" r="7"/>
                <circle id="rim2" cx="0" cy="0" r="3.5"/>
                <g id="zoomPlus">
                        <use xlink:href="#rim" fill="#404040">
                                <set attributeName="fill" to="#808080" begin="zoomplus.mouseover" end="zoomplus.mouseout"/>
                        </use>
                        <path d="M-4,0h8M0,-4v8" fill="none" stroke="white" stroke-width="1.5" pointer-events="none"/>
                </g>
                <g id="zoomMin">
                        <use xlink:href="#rim" fill="#404040">
                                <set attributeName="fill" to="#808080" begin="zoomminus.mouseover" end="zoomminus.mouseout"/>
                        </use>
                        <path d="M-4,0h8" fill="none" stroke="white" stroke-width="1.5" pointer-events="none"/>
                </g>
                <g id="dirArrow">
                        <path fill="none" stroke="white" stroke-width="1.5" d="M0,-3.0v7 M-2.5,-0.5L0,-3.0L2.5,-0.5"/>
                </g>
               <g id="resetDef">
                       <use xlink:href="#rim2" fill="#404040">
                               <set attributeName="fill" to="#808080" begin="reset.mouseover" end="reset.mouseout"/>
                       </use>
               </g>
        </defs>

<script type="text/javascript">
var viewWidth = 833;
var viewHeight = 509;
var sectionId = 'dynsection-0';
</script>
<script xlink:href="svgpan.js"/>
<svg id="graph" class="graph">
<g id="viewport">
<title>FlagsFinder.cpp</title>
<polygon fill="white" stroke="transparent" points="-4,4 -4,-505 829.25,-505 829.25,4 -4,4"/>
<!-- Node1 -->
<g id="node1" class="node">
<title>Node1</title>
<g id="a_node1"><a xlink:title=" ">
<polygon fill="#bfbfbf" stroke="black" points="186,-481.5 186,-500.5 278,-500.5 278,-481.5 186,-481.5"/>
<text text-anchor="middle" x="232" y="-488.5" font-family="Helvetica,sans-Serif" font-size="10.00">FlagsFinder.cpp</text>
</a>
</g>
</g>
<!-- Node2 -->
<g id="node2" class="node">
<title>Node2</title>
<g id="a_node2"><a xlink:href="FlagsFinder_8h.html" target="_top" xlink:title=" ">
<polygon fill="white" stroke="black" points="124.5,-425.5 124.5,-444.5 205.5,-444.5 205.5,-425.5 124.5,-425.5"/>
<text text-anchor="middle" x="165" y="-432.5" font-family="Helvetica,sans-Serif" font-size="10.00">FlagsFinder.h</text>
</a>
</g>
</g>
<!-- Node1&#45;&gt;Node2 -->
<g id="edge1" class="edge">
<title>Node1&#45;&gt;Node2</title>
<path fill="none" stroke="midnightblue" d="M221.24,-481.32C211.23,-473.26 196.11,-461.08 184.07,-451.37"/>
<polygon fill="midnightblue" stroke="midnightblue" points="185.94,-448.38 175.96,-444.83 181.55,-453.83 185.94,-448.38"/>
</g>
<!-- Node6 -->
<g id="node6" class="node">
<title>Node6</title>
<g id="a_node6"><a xlink:href="Binary_8h.html" target="_top" xlink:title=" ">
<polygon fill="white" stroke="black" points="386,-425.5 386,-444.5 538,-444.5 538,-425.5 386,-425.5"/>
<text text-anchor="middle" x="462" y="-432.5" font-family="Helvetica,sans-Serif" font-size="10.00">boomerang/ssl/exp/Binary.h</text>
</a>
</g>
</g>
<!-- Node1&#45;&gt;Node6 -->
<g id="edge5" class="edge">
<title>Node1&#45;&gt;Node6</title>
<path fill="none" stroke="midnightblue" d="M268.44,-481.44C308.4,-472.06 372.59,-456.99 415.98,-446.8"/>
<polygon fill="midnightblue" stroke="midnightblue" points="416.79,-450.21 425.73,-444.52 415.19,-443.39 416.79,-450.21"/>
</g>
<!-- Node3 -->
<g id="node3" class="node">
<title>Node3</title>
<g id="a_node3"><a xlink:href="ExpVisitor_8h.html" target="_top" xlink:title=" ">
<polygon fill="white" stroke="black" points="0,-179.5 0,-209.5 158,-209.5 158,-179.5 0,-179.5"/>
<text text-anchor="start" x="8" y="-197.5" font-family="Helvetica,sans-Serif" font-size="10.00">boomerang/visitor/expvisitor</text>
<text text-anchor="middle" x="79" y="-186.5" font-family="Helvetica,sans-Serif" font-size="10.00">/ExpVisitor.h</text>
</a>
</g>
</g>
<!-- Node2&#45;&gt;Node3 -->
<g id="edge2" class="edge">
<title>Node2&#45;&gt;Node3</title>
<path fill="none" stroke="midnightblue" d="M161.84,-425.23C149.76,-391.74 106.29,-271.19 87.62,-219.41"/>
<polygon fill="midnightblue" stroke="midnightblue" points="90.82,-217.96 84.13,-209.74 84.23,-220.33 90.82,-217.96"/>
</g>
<!-- Node4 -->
<g id="node4" class="node">
<title>Node4</title>
<g id="a_node4"><a xlink:href="BoomerangAPI_8h.html" target="_top" xlink:title=" ">
<polygon fill="white" stroke="black" points="221.5,-56.5 221.5,-86.5 376.5,-86.5 376.5,-56.5 221.5,-56.5"/>
<text text-anchor="start" x="229.5" y="-74.5" font-family="Helvetica,sans-Serif" font-size="10.00">boomerang/core/Boomerang</text>
<text text-anchor="middle" x="299" y="-63.5" font-family="Helvetica,sans-Serif" font-size="10.00">API.h</text>
</a>
</g>
</g>
<!-- Node3&#45;&gt;Node4 -->
<g id="edge3" class="edge">
<title>Node3&#45;&gt;Node4</title>
<path fill="none" stroke="midnightblue" d="M78.82,-179.24C79.42,-163.32 82.9,-137.84 98,-123 114.46,-106.81 164.93,-94.17 211.18,-85.58"/>
<polygon fill="midnightblue" stroke="midnightblue" points="212.05,-88.97 221.27,-83.75 210.81,-82.09 212.05,-88.97"/>
</g>
<!-- Node5 -->
<g id="node5" class="node">
<title>Node5</title>
<g id="a_node5"><a xlink:title=" ">
<polygon fill="white" stroke="#bfbfbf" points="351,-123.5 351,-142.5 409,-142.5 409,-123.5 351,-123.5"/>
<text text-anchor="middle" x="380" y="-130.5" font-family="Helvetica,sans-Serif" font-size="10.00">memory</text>
</a>
</g>
</g>
<!-- Node3&#45;&gt;Node5 -->
<g id="edge4" class="edge">
<title>Node3&#45;&gt;Node5</title>
<path fill="none" stroke="midnightblue" d="M149.95,-179.47C209.54,-167.7 292.48,-151.3 340.77,-141.75"/>
<polygon fill="midnightblue" stroke="midnightblue" points="341.69,-145.14 350.82,-139.77 340.33,-138.27 341.69,-145.14"/>
</g>
<!-- Node7 -->
<g id="node7" class="node">
<title>Node7</title>
<g id="a_node7"><a xlink:href="Unary_8h.html" target="_top" xlink:title=" ">
<polygon fill="white" stroke="black" points="488.5,-369.5 488.5,-388.5 637.5,-388.5 637.5,-369.5 488.5,-369.5"/>
<text text-anchor="middle" x="563" y="-376.5" font-family="Helvetica,sans-Serif" font-size="10.00">boomerang/ssl/exp/Unary.h</text>
</a>
</g>
</g>
<!-- Node6&#45;&gt;Node7 -->
<g id="edge6" class="edge">
<title>Node6&#45;&gt;Node7</title>
<path fill="none" stroke="midnightblue" d="M478.23,-425.32C494.35,-416.7 519.3,-403.36 537.96,-393.39"/>
<polygon fill="midnightblue" stroke="midnightblue" points="539.64,-396.46 546.81,-388.65 536.34,-390.28 539.64,-396.46"/>
</g>
<!-- Node8 -->
<g id="node8" class="node">
<title>Node8</title>
<g id="a_node8"><a xlink:href="Exp_8h.html" target="_top" xlink:title=" ">
<polygon fill="white" stroke="black" points="543,-313.5 543,-332.5 683,-332.5 683,-313.5 543,-313.5"/>
<text text-anchor="middle" x="613" y="-320.5" font-family="Helvetica,sans-Serif" font-size="10.00">boomerang/ssl/exp/Exp.h</text>
</a>
</g>
</g>
<!-- Node7&#45;&gt;Node8 -->
<g id="edge7" class="edge">
<title>Node7&#45;&gt;Node8</title>
<path fill="none" stroke="midnightblue" d="M571.26,-369.08C578.46,-361.3 589.11,-349.8 597.85,-340.37"/>
<polygon fill="midnightblue" stroke="midnightblue" points="600.67,-342.47 604.9,-332.75 595.53,-337.71 600.67,-342.47"/>
</g>
<!-- Node8&#45;&gt;Node5 -->
<g id="edge32" class="edge">
<title>Node8&#45;&gt;Node5</title>
<path fill="none" stroke="midnightblue" d="M551.15,-313.49C504.64,-305.91 445.96,-293.49 428,-277 409.38,-259.9 391.54,-187.23 383.9,-152.56"/>
<polygon fill="midnightblue" stroke="midnightblue" points="387.31,-151.79 381.79,-142.75 380.47,-153.27 387.31,-151.79"/>
</g>
<!-- Node9 -->
<g id="node9" class="node">
<title>Node9</title>
<g id="a_node9"><a xlink:href="ExpHelp_8h.html" target="_top" xlink:title=" ">
<polygon fill="white" stroke="black" points="214,-185 214,-204 376,-204 376,-185 214,-185"/>
<text text-anchor="middle" x="295" y="-192" font-family="Helvetica,sans-Serif" font-size="10.00">boomerang/ssl/exp/ExpHelp.h</text>
</a>
</g>
</g>
<!-- Node8&#45;&gt;Node9 -->
<g id="edge8" class="edge">
<title>Node8&#45;&gt;Node9</title>
<path fill="none" stroke="midnightblue" d="M542.75,-317.02C497.31,-311.62 437.92,-300.39 390,-277 356.98,-260.88 326.13,-230.5 308.99,-211.73"/>
<polygon fill="midnightblue" stroke="midnightblue" points="311.39,-209.15 302.12,-204.01 306.16,-213.81 311.39,-209.15"/>
</g>
<!-- Node10 -->
<g id="node10" class="node">
<title>Node10</title>
<g id="a_node10"><a xlink:href="Operator_8h.html" target="_top" xlink:title=" ">
<polygon fill="white" stroke="black" points="107,-123.5 107,-142.5 271,-142.5 271,-123.5 107,-123.5"/>
<text text-anchor="middle" x="189" y="-130.5" font-family="Helvetica,sans-Serif" font-size="10.00">boomerang/ssl/exp/Operator.h</text>
</a>
</g>
</g>
<!-- Node8&#45;&gt;Node10 -->
<g id="edge11" class="edge">
<title>Node8&#45;&gt;Node10</title>
<path fill="none" stroke="midnightblue" d="M542.92,-316.12C487.19,-310.08 407.76,-298.45 341,-277 276.85,-256.39 246.33,-263.22 205,-210 192.23,-193.56 189.05,-169.31 188.53,-152.65"/>
<polygon fill="midnightblue" stroke="midnightblue" points="192.03,-152.51 188.51,-142.52 185.03,-152.52 192.03,-152.51"/>
</g>
<!-- Node11 -->
<g id="node11" class="node">
<title>Node11</title>
<g id="a_node11"><a xlink:href="Statement_8h.html" target="_top" xlink:title=" ">
<polygon fill="white" stroke="black" points="437.5,-246.5 437.5,-276.5 584.5,-276.5 584.5,-246.5 437.5,-246.5"/>
<text text-anchor="start" x="445.5" y="-264.5" font-family="Helvetica,sans-Serif" font-size="10.00">boomerang/ssl/statements</text>
<text text-anchor="middle" x="511" y="-253.5" font-family="Helvetica,sans-Serif" font-size="10.00">/Statement.h</text>
</a>
</g>
</g>
<!-- Node8&#45;&gt;Node11 -->
<g id="edge13" class="edge">
<title>Node8&#45;&gt;Node11</title>
<path fill="none" stroke="midnightblue" d="M598.39,-313.48C584.18,-305.19 562.13,-292.32 543.73,-281.59"/>
<polygon fill="midnightblue" stroke="midnightblue" points="545.44,-278.54 535.04,-276.52 541.91,-284.58 545.44,-278.54"/>
</g>
<!-- Node13 -->
<g id="node13" class="node">
<title>Node13</title>
<g id="a_node13"><a xlink:href="OStream_8h.html" target="_top" xlink:title=" ">
<polygon fill="white" stroke="black" points="669,-123.5 669,-142.5 815,-142.5 815,-123.5 669,-123.5"/>
<text text-anchor="middle" x="742" y="-130.5" font-family="Helvetica,sans-Serif" font-size="10.00">boomerang/util/OStream.h</text>
</a>
</g>
</g>
<!-- Node8&#45;&gt;Node13 -->
<g id="edge28" class="edge">
<title>Node8&#45;&gt;Node13</title>
<path fill="none" stroke="midnightblue" d="M674.2,-313.47C719.76,-305.93 776.9,-293.55 794,-277 825.88,-246.14 834.39,-217.87 813,-179 805.11,-164.66 790.51,-154.25 776.6,-147.08"/>
<polygon fill="midnightblue" stroke="midnightblue" points="777.7,-143.73 767.16,-142.62 774.71,-150.06 777.7,-143.73"/>
</g>
<!-- Node17 -->
<g id="node17" class="node">
<title>Node17</title>
<g id="a_node17"><a xlink:title=" ">
<polygon fill="white" stroke="#bfbfbf" points="597.5,-123.5 597.5,-142.5 650.5,-142.5 650.5,-123.5 597.5,-123.5"/>
<text text-anchor="middle" x="624" y="-130.5" font-family="Helvetica,sans-Serif" font-size="10.00">QString</text>
</a>
</g>
</g>
<!-- Node8&#45;&gt;Node17 -->
<g id="edge29" class="edge">
<title>Node8&#45;&gt;Node17</title>
<path fill="none" stroke="midnightblue" d="M683.35,-315.56C713.11,-309.63 746.3,-298.35 770,-277 793.85,-255.51 790.89,-241.52 797,-210 799.62,-196.47 805.43,-189.9 797,-179 795.93,-177.62 711.19,-156.02 660.72,-143.26"/>
<polygon fill="midnightblue" stroke="midnightblue" points="661.37,-139.81 650.82,-140.76 659.66,-146.6 661.37,-139.81"/>
</g>
<!-- Node18 -->
<g id="node18" class="node">
<title>Node18</title>
<g id="a_node18"><a xlink:title=" ">
<polygon fill="white" stroke="#bfbfbf" points="686,-185 686,-204 738,-204 738,-185 686,-185"/>
<text text-anchor="middle" x="712" y="-192" font-family="Helvetica,sans-Serif" font-size="10.00">cassert</text>
</a>
</g>
</g>
<!-- Node8&#45;&gt;Node18 -->
<g id="edge30" class="edge">
<title>Node8&#45;&gt;Node18</title>
<path fill="none" stroke="midnightblue" d="M613.14,-313.15C613.79,-297.99 617.01,-266.72 632,-246 644.07,-229.31 663.51,-216.86 680.2,-208.49"/>
<polygon fill="midnightblue" stroke="midnightblue" points="682.09,-211.47 689.64,-204.04 679.1,-205.14 682.09,-211.47"/>
</g>
<!-- Node19 -->
<g id="node19" class="node">
<title>Node19</title>
<g id="a_node19"><a xlink:title=" ">
<polygon fill="white" stroke="#bfbfbf" points="756,-185 756,-204 788,-204 788,-185 756,-185"/>
<text text-anchor="middle" x="772" y="-192" font-family="Helvetica,sans-Serif" font-size="10.00">list</text>
</a>
</g>
</g>
<!-- Node8&#45;&gt;Node19 -->
<g id="edge31" class="edge">
<title>Node8&#45;&gt;Node19</title>
<path fill="none" stroke="midnightblue" d="M677.96,-313.43C702.8,-307.1 729.56,-296.11 748,-277 764.29,-260.13 769.6,-232.77 771.29,-214.47"/>
<polygon fill="midnightblue" stroke="midnightblue" points="774.79,-214.62 771.94,-204.41 767.8,-214.17 774.79,-214.62"/>
</g>
<!-- Node21 -->
<g id="node21" class="node">
<title>Node21</title>
<g id="a_node21"><a xlink:title=" ">
<polygon fill="white" stroke="#bfbfbf" points="641,-252 641,-271 673,-271 673,-252 641,-252"/>
<text text-anchor="middle" x="657" y="-259" font-family="Helvetica,sans-Serif" font-size="10.00">set</text>
</a>
</g>
</g>
<!-- Node8&#45;&gt;Node21 -->
<g id="edge33" class="edge">
<title>Node8&#45;&gt;Node21</title>
<path fill="none" stroke="midnightblue" d="M619.3,-313.48C625.9,-304.55 636.44,-290.31 644.69,-279.14"/>
<polygon fill="midnightblue" stroke="midnightblue" points="647.58,-281.13 650.71,-271.01 641.95,-276.97 647.58,-281.13"/>
</g>
<!-- Node22 -->
<g id="node22" class="node">
<title>Node22</title>
<g id="a_node22"><a xlink:title=" ">
<polygon fill="white" stroke="#bfbfbf" points="691.5,-252 691.5,-271 738.5,-271 738.5,-252 691.5,-252"/>
<text text-anchor="middle" x="715" y="-259" font-family="Helvetica,sans-Serif" font-size="10.00">vector</text>
</a>
</g>
</g>
<!-- Node8&#45;&gt;Node22 -->
<g id="edge34" class="edge">
<title>Node8&#45;&gt;Node22</title>
<path fill="none" stroke="midnightblue" d="M627.61,-313.48C644.35,-303.71 672,-287.58 691.72,-276.08"/>
<polygon fill="midnightblue" stroke="midnightblue" points="693.54,-279.07 700.41,-271.01 690.01,-273.02 693.54,-279.07"/>
</g>
<!-- Node9&#45;&gt;Node4 -->
<g id="edge9" class="edge">
<title>Node9&#45;&gt;Node4</title>
<path fill="none" stroke="midnightblue" d="M295.29,-184.8C295.89,-166.6 297.3,-123.98 298.2,-96.79"/>
<polygon fill="midnightblue" stroke="midnightblue" points="301.7,-96.65 298.54,-86.54 294.71,-96.42 301.7,-96.65"/>
</g>
<!-- Node9&#45;&gt;Node5 -->
<g id="edge10" class="edge">
<title>Node9&#45;&gt;Node5</title>
<path fill="none" stroke="midnightblue" d="M307.18,-184.98C320.81,-175.43 343.13,-159.81 359.47,-148.37"/>
<polygon fill="midnightblue" stroke="midnightblue" points="361.66,-151.11 367.84,-142.51 357.64,-145.38 361.66,-151.11"/>
</g>
<!-- Node10&#45;&gt;Node4 -->
<g id="edge12" class="edge">
<title>Node10&#45;&gt;Node4</title>
<path fill="none" stroke="midnightblue" d="M204.76,-123.48C220.22,-115.12 244.3,-102.09 264.25,-91.3"/>
<polygon fill="midnightblue" stroke="midnightblue" points="265.94,-94.36 273.08,-86.52 262.61,-88.2 265.94,-94.36"/>
</g>
<!-- Node11&#45;&gt;Node5 -->
<g id="edge27" class="edge">
<title>Node11&#45;&gt;Node5</title>
<path fill="none" stroke="midnightblue" d="M496.48,-246.48C471.96,-222.8 422.47,-175.02 396.61,-150.04"/>
<polygon fill="midnightblue" stroke="midnightblue" points="398.73,-147.22 389.1,-142.79 393.86,-152.25 398.73,-147.22"/>
</g>
<!-- Node11&#45;&gt;Node9 -->
<g id="edge14" class="edge">
<title>Node11&#45;&gt;Node9</title>
<path fill="none" stroke="midnightblue" d="M464.4,-246.48C425.17,-234.67 369.77,-218 333.15,-206.98"/>
<polygon fill="midnightblue" stroke="midnightblue" points="333.93,-203.56 323.34,-204.03 331.91,-210.26 333.93,-203.56"/>
</g>
<!-- Node12 -->
<g id="node12" class="node">
<title>Node12</title>
<g id="a_node12"><a xlink:href="Address_8h.html" target="_top" xlink:title=" ">
<polygon fill="white" stroke="black" points="526,-185 526,-204 668,-204 668,-185 526,-185"/>
<text text-anchor="middle" x="597" y="-192" font-family="Helvetica,sans-Serif" font-size="10.00">boomerang/util/Address.h</text>
</a>
</g>
</g>
<!-- Node11&#45;&gt;Node12 -->
<g id="edge15" class="edge">
<title>Node11&#45;&gt;Node12</title>
<path fill="none" stroke="midnightblue" d="M529.66,-246.4C543.73,-235.76 562.99,-221.2 577.31,-210.38"/>
<polygon fill="midnightblue" stroke="midnightblue" points="579.63,-213.02 585.5,-204.19 575.41,-207.43 579.63,-213.02"/>
</g>
<!-- Node11&#45;&gt;Node18 -->
<g id="edge24" class="edge">
<title>Node11&#45;&gt;Node18</title>
<path fill="none" stroke="midnightblue" d="M561.91,-246.41C594.97,-236.91 638.86,-223.67 677,-210 678.86,-209.33 680.76,-208.63 682.67,-207.89"/>
<polygon fill="midnightblue" stroke="midnightblue" points="684.15,-211.07 692.14,-204.12 681.56,-204.57 684.15,-211.07"/>
</g>
<!-- Node11&#45;&gt;Node19 -->
<g id="edge25" class="edge">
<title>Node11&#45;&gt;Node19</title>
<path fill="none" stroke="midnightblue" d="M584.75,-250.84C632.18,-243.15 694.52,-230.25 747,-210 747.88,-209.66 748.77,-209.29 749.65,-208.9"/>
<polygon fill="midnightblue" stroke="midnightblue" points="751.61,-211.83 758.89,-204.14 748.4,-205.61 751.61,-211.83"/>
</g>
<!-- Node20 -->
<g id="node20" class="node">
<title>Node20</title>
<g id="a_node20"><a xlink:title=" ">
<polygon fill="white" stroke="#bfbfbf" points="470,-185 470,-204 508,-204 508,-185 470,-185"/>
<text text-anchor="middle" x="489" y="-192" font-family="Helvetica,sans-Serif" font-size="10.00">map</text>
</a>
</g>
</g>
<!-- Node11&#45;&gt;Node20 -->
<g id="edge26" class="edge">
<title>Node11&#45;&gt;Node20</title>
<path fill="none" stroke="midnightblue" d="M506.23,-246.4C503,-236.86 498.71,-224.18 495.21,-213.86"/>
<polygon fill="midnightblue" stroke="midnightblue" points="498.46,-212.54 491.94,-204.19 491.83,-214.79 498.46,-212.54"/>
</g>
<!-- Node12&#45;&gt;Node4 -->
<g id="edge16" class="edge">
<title>Node12&#45;&gt;Node4</title>
<path fill="none" stroke="midnightblue" d="M576.05,-184.99C527.91,-165.45 408.57,-116.99 343.33,-90.5"/>
<polygon fill="midnightblue" stroke="midnightblue" points="344.31,-87.12 333.72,-86.6 341.67,-93.6 344.31,-87.12"/>
</g>
<!-- Node12&#45;&gt;Node13 -->
<g id="edge17" class="edge">
<title>Node12&#45;&gt;Node13</title>
<path fill="none" stroke="midnightblue" d="M617.77,-184.98C642.43,-174.86 683.75,-157.9 711.9,-146.35"/>
<polygon fill="midnightblue" stroke="midnightblue" points="713.34,-149.54 721.26,-142.51 710.68,-143.07 713.34,-149.54"/>
</g>
<!-- Node14 -->
<g id="node14" class="node">
<title>Node14</title>
<g id="a_node14"><a xlink:href="Types_8h.html" target="_top" xlink:title=" ">
<polygon fill="white" stroke="black" points="536.5,-62 536.5,-81 667.5,-81 667.5,-62 536.5,-62"/>
<text text-anchor="middle" x="602" y="-69" font-family="Helvetica,sans-Serif" font-size="10.00">boomerang/util/Types.h</text>
</a>
</g>
</g>
<!-- Node12&#45;&gt;Node14 -->
<g id="edge22" class="edge">
<title>Node12&#45;&gt;Node14</title>
<path fill="none" stroke="midnightblue" d="M594.67,-184.81C591.41,-171.49 586.18,-145.24 589,-123 590.36,-112.28 593.27,-100.59 596,-91.15"/>
<polygon fill="midnightblue" stroke="midnightblue" points="599.43,-91.89 599.01,-81.31 592.74,-89.85 599.43,-91.89"/>
</g>
<!-- Node12&#45;&gt;Node17 -->
<g id="edge23" class="edge">
<title>Node12&#45;&gt;Node17</title>
<path fill="none" stroke="midnightblue" d="M600.87,-184.98C604.8,-176.32 611,-162.65 615.99,-151.65"/>
<polygon fill="midnightblue" stroke="midnightblue" points="619.19,-153.06 620.14,-142.51 612.82,-150.17 619.19,-153.06"/>
</g>
<!-- Node13&#45;&gt;Node4 -->
<g id="edge18" class="edge">
<title>Node13&#45;&gt;Node4</title>
<path fill="none" stroke="midnightblue" d="M678.53,-123.48C601.89,-113.18 472.6,-95.82 386.53,-84.26"/>
<polygon fill="midnightblue" stroke="midnightblue" points="386.89,-80.77 376.52,-82.91 385.96,-87.71 386.89,-80.77"/>
</g>
<!-- Node13&#45;&gt;Node14 -->
<g id="edge19" class="edge">
<title>Node13&#45;&gt;Node14</title>
<path fill="none" stroke="midnightblue" d="M721.94,-123.48C698.24,-113.4 658.59,-96.55 631.42,-85"/>
<polygon fill="midnightblue" stroke="midnightblue" points="632.59,-81.7 622.02,-81.01 629.86,-88.14 632.59,-81.7"/>
</g>
<!-- Node16 -->
<g id="node16" class="node">
<title>Node16</title>
<g id="a_node16"><a xlink:title=" ">
<polygon fill="white" stroke="#bfbfbf" points="719,-62 719,-81 765,-81 765,-62 719,-62"/>
<text text-anchor="middle" x="742" y="-69" font-family="Helvetica,sans-Serif" font-size="10.00">cstdio</text>
</a>
</g>
</g>
<!-- Node13&#45;&gt;Node16 -->
<g id="edge21" class="edge">
<title>Node13&#45;&gt;Node16</title>
<path fill="none" stroke="midnightblue" d="M742,-123.48C742,-115.08 742,-101.98 742,-91.16"/>
<polygon fill="midnightblue" stroke="midnightblue" points="745.5,-91.01 742,-81.01 738.5,-91.01 745.5,-91.01"/>
</g>
<!-- Node15 -->
<g id="node15" class="node">
<title>Node15</title>
<g id="a_node15"><a xlink:title=" ">
<polygon fill="white" stroke="#bfbfbf" points="577,-0.5 577,-19.5 627,-19.5 627,-0.5 577,-0.5"/>
<text text-anchor="middle" x="602" y="-7.5" font-family="Helvetica,sans-Serif" font-size="10.00">cstdint</text>
</a>
</g>
</g>
<!-- Node14&#45;&gt;Node15 -->
<g id="edge20" class="edge">
<title>Node14&#45;&gt;Node15</title>
<path fill="none" stroke="midnightblue" d="M602,-61.98C602,-53.58 602,-40.48 602,-29.66"/>
<polygon fill="midnightblue" stroke="midnightblue" points="605.5,-29.51 602,-19.51 598.5,-29.51 605.5,-29.51"/>
</g>
</g>
</svg>
        <g id="navigator" transform="translate(0 0)" fill="#404254">
                <rect fill="#f2f5e9" fill-opacity="0.5" stroke="#606060" stroke-width=".5" x="0" y="0" width="60" height="60"/>
                <use id="zoomplus" xlink:href="#zoomPlus" x="17" y="9" onmousedown="handleZoom(evt,'in')"/>
                <use id="zoomminus" xlink:href="#zoomMin" x="42" y="9" onmousedown="handleZoom(evt,'out')"/>
                <use id="reset" xlink:href="#resetDef" x="30" y="36" onmousedown="handleReset()"/>
                <g id="arrowUp" xlink:href="#dirArrow" transform="translate(30 24)" onmousedown="handlePan(0,-1)">
                  <use xlink:href="#rim" fill="#404040">
                        <set attributeName="fill" to="#808080" begin="arrowUp.mouseover" end="arrowUp.mouseout"/>
                  </use>
                  <path fill="none" stroke="white" stroke-width="1.5" d="M0,-3.0v7 M-2.5,-0.5L0,-3.0L2.5,-0.5"/>
                </g>
                <g id="arrowRight" xlink:href="#dirArrow" transform="rotate(90) translate(36 -43)" onmousedown="handlePan(1,0)">
                  <use xlink:href="#rim" fill="#404040">
                        <set attributeName="fill" to="#808080" begin="arrowRight.mouseover" end="arrowRight.mouseout"/>
                  </use>
                  <path fill="none" stroke="white" stroke-width="1.5" d="M0,-3.0v7 M-2.5,-0.5L0,-3.0L2.5,-0.5"/>
                </g>
                <g id="arrowDown" xlink:href="#dirArrow" transform="rotate(180) translate(-30 -48)" onmousedown="handlePan(0,1)">
                  <use xlink:href="#rim" fill="#404040">
                        <set attributeName="fill" to="#808080" begin="arrowDown.mouseover" end="arrowDown.mouseout"/>
                  </use>
                  <path fill="none" stroke="white" stroke-width="1.5" d="M0,-3.0v7 M-2.5,-0.5L0,-3.0L2.5,-0.5"/>
                </g>
                <g id="arrowLeft" xlink:href="#dirArrow" transform="rotate(270) translate(-36 17)" onmousedown="handlePan(-1,0)">
                  <use xlink:href="#rim" fill="#404040">
                        <set attributeName="fill" to="#808080" begin="arrowLeft.mouseover" end="arrowLeft.mouseout"/>
                  </use>
                  <path fill="none" stroke="white" stroke-width="1.5" d="M0,-3.0v7 M-2.5,-0.5L0,-3.0L2.5,-0.5"/>
                </g>
        </g>
        <svg viewBox="0 0 15 15" width="100%" height="30px" preserveAspectRatio="xMaxYMin meet">
         <g id="arrow_out" transform="scale(0.3 0.3)">
          <a xlink:href="FlagsFinder_8cpp__incl_org.svg" target="_base">
           <rect id="button" ry="5" rx="5" y="6" x="6" height="38" width="38"
                fill="#f2f5e9" fill-opacity="0.5" stroke="#606060" stroke-width="1.0"/>
           <path id="arrow"
             d="M 11.500037,31.436501 C 11.940474,20.09759 22.043105,11.32322 32.158766,21.979434 L 37.068811,17.246167 C 37.068811,17.246167 37.088388,32 37.088388,32 L 22.160133,31.978069 C 22.160133,31.978069 26.997745,27.140456 26.997745,27.140456 C 18.528582,18.264221 13.291696,25.230495 11.500037,31.436501 z"
             style="fill:#404040;"/>
          </a>
         </g>
        </svg>
</svg>
