<?xml version="1.0" encoding="UTF-8" standalone="no"?>
<!DOCTYPE svg PUBLIC "-//W3C//DTD SVG 1.1//EN"
 "http://www.w3.org/Graphics/SVG/1.1/DTD/svg11.dtd">
<!-- Generated by graphviz version 2.43.0 (0)
 -->
<!-- Title: GotoStatement.h Pages: 1 -->
<!--zoomable 140 -->
<svg id="main" version="1.1" xmlns="http://www.w3.org/2000/svg" xmlns:xlink="http://www.w3.org/1999/xlink" xml:space="preserve" onload="init(evt)">
<style type="text/css"><![CDATA[
.edge:hover path { stroke: red; }
.edge:hover polygon { stroke: red; fill: red; }
]]></style>
<script type="text/javascript"><![CDATA[
var edges = document.getElementsByTagName('g');
if (edges && edges.length) {
  for (var i=0;i<edges.length;i++) {
    if (edges[i].id.substr(0,4)=='edge') {
      edges[i].setAttribute('class','edge');
    }
  }
}
]]></script>
        <defs>
                <circle id="rim" cx="0" cy="0" r="7"/>
                <circle id="rim2" cx="0" cy="0" r="3.5"/>
                <g id="zoomPlus">
                        <use xlink:href="#rim" fill="#404040">
                                <set attributeName="fill" to="#808080" begin="zoomplus.mouseover" end="zoomplus.mouseout"/>
                        </use>
                        <path d="M-4,0h8M0,-4v8" fill="none" stroke="white" stroke-width="1.5" pointer-events="none"/>
                </g>
                <g id="zoomMin">
                        <use xlink:href="#rim" fill="#404040">
                                <set attributeName="fill" to="#808080" begin="zoomminus.mouseover" end="zoomminus.mouseout"/>
                        </use>
                        <path d="M-4,0h8" fill="none" stroke="white" stroke-width="1.5" pointer-events="none"/>
                </g>
                <g id="dirArrow">
                        <path fill="none" stroke="white" stroke-width="1.5" d="M0,-3.0v7 M-2.5,-0.5L0,-3.0L2.5,-0.5"/>
                </g>
               <g id="resetDef">
                       <use xlink:href="#rim2" fill="#404040">
                               <set attributeName="fill" to="#808080" begin="reset.mouseover" end="reset.mouseout"/>
                       </use>
               </g>
        </defs>

<script type="text/javascript">
var viewWidth = 5841;
var viewHeight = 140;
var sectionId = 'dynsection-1';
</script>
<script xlink:href="svgpan.js"/>
<svg id="graph" class="graph">
<g id="viewport">
<title>GotoStatement.h</title>
<polygon fill="white" stroke="transparent" points="-4,4 -4,-136 5837,-136 5837,4 -4,4"/>
<!-- Node1 -->
<g id="node1" class="node">
<title>Node1</title>
<g id="a_node1"><a xlink:title=" ">
<polygon fill="#bfbfbf" stroke="black" points="1903.5,-112.5 1903.5,-131.5 2003.5,-131.5 2003.5,-112.5 1903.5,-112.5"/>
<text text-anchor="middle" x="1953.5" y="-119.5" font-family="Helvetica,sans-Serif" font-size="10.00">GotoStatement.h</text>
</a>
</g>
</g>
<!-- Node2 -->
<g id="node2" class="node">
<title>Node2</title>
<g id="a_node2"><a xlink:href="CallStatement_8h.html" target="_top" xlink:title=" ">
<polygon fill="white" stroke="black" points="2886,-56.5 2886,-75.5 2981,-75.5 2981,-56.5 2886,-56.5"/>
<text text-anchor="middle" x="2933.5" y="-63.5" font-family="Helvetica,sans-Serif" font-size="10.00">CallStatement.h</text>
</a>
</g>
</g>
<!-- Node1&#45;&gt;Node2 -->
<g id="edge1" class="edge">
<title>Node1&#45;&gt;Node2</title>
<path fill="none" stroke="midnightblue" d="M2013.86,-117.67C2193.7,-107.76 2723.49,-78.57 2885.73,-69.63"/>
<polygon fill="midnightblue" stroke="midnightblue" points="2013.58,-114.18 2003.79,-118.23 2013.96,-121.17 2013.58,-114.18"/>
</g>
<!-- Node22 -->
<g id="node22" class="node">
<title>Node22</title>
<g id="a_node22"><a xlink:href="SSL2Parser_8cpp.html" target="_top" xlink:title=" ">
<polygon fill="white" stroke="black" points="1908,-0.5 1908,-19.5 1999,-19.5 1999,-0.5 1908,-0.5"/>
<text text-anchor="middle" x="1953.5" y="-7.5" font-family="Helvetica,sans-Serif" font-size="10.00">SSL2Parser.cpp</text>
</a>
</g>
</g>
<!-- Node1&#45;&gt;Node22 -->
<g id="edge64" class="edge">
<title>Node1&#45;&gt;Node22</title>
<path fill="none" stroke="midnightblue" d="M1953.5,-102.35C1953.5,-78.25 1953.5,-37.31 1953.5,-19.59"/>
<polygon fill="midnightblue" stroke="midnightblue" points="1950,-102.37 1953.5,-112.37 1957,-102.37 1950,-102.37"/>
</g>
<!-- Node23 -->
<g id="node23" class="node">
<title>Node23</title>
<g id="a_node23"><a xlink:href="RTLInstDict_8cpp.html" target="_top" xlink:title=" ">
<polygon fill="white" stroke="black" points="271.5,-0.5 271.5,-19.5 363.5,-19.5 363.5,-0.5 271.5,-0.5"/>
<text text-anchor="middle" x="317.5" y="-7.5" font-family="Helvetica,sans-Serif" font-size="10.00">RTLInstDict.cpp</text>
</a>
</g>
</g>
<!-- Node1&#45;&gt;Node23 -->
<g id="edge65" class="edge">
<title>Node1&#45;&gt;Node23</title>
<path fill="none" stroke="midnightblue" d="M1893.27,-120.01C1674.2,-116.21 920.1,-101.56 680.5,-76 560.5,-63.2 420.41,-34.01 354.87,-19.5"/>
<polygon fill="midnightblue" stroke="midnightblue" points="1893.24,-123.51 1903.29,-120.18 1893.36,-116.51 1893.24,-123.51"/>
</g>
<!-- Node39 -->
<g id="node39" class="node">
<title>Node39</title>
<g id="a_node39"><a xlink:href="DFATypeRecovery_8cpp.html" target="_top" xlink:title=" ">
<polygon fill="white" stroke="black" points="2017.5,-0.5 2017.5,-19.5 2139.5,-19.5 2139.5,-0.5 2017.5,-0.5"/>
<text text-anchor="middle" x="2078.5" y="-7.5" font-family="Helvetica,sans-Serif" font-size="10.00">DFATypeRecovery.cpp</text>
</a>
</g>
</g>
<!-- Node1&#45;&gt;Node39 -->
<g id="edge67" class="edge">
<title>Node1&#45;&gt;Node39</title>
<path fill="none" stroke="midnightblue" d="M1971.1,-105.51C1997.81,-82.01 2047.69,-38.11 2068.74,-19.59"/>
<polygon fill="midnightblue" stroke="midnightblue" points="1968.5,-103.13 1963.31,-112.37 1973.13,-108.39 1968.5,-103.13"/>
</g>
<!-- Node40 -->
<g id="node40" class="node">
<title>Node40</title>
<g id="a_node40"><a xlink:href="BranchStatement_8h.html" target="_top" xlink:title=" ">
<polygon fill="white" stroke="black" points="1243.5,-56.5 1243.5,-75.5 1353.5,-75.5 1353.5,-56.5 1243.5,-56.5"/>
<text text-anchor="middle" x="1298.5" y="-63.5" font-family="Helvetica,sans-Serif" font-size="10.00">BranchStatement.h</text>
</a>
</g>
</g>
<!-- Node1&#45;&gt;Node40 -->
<g id="edge39" class="edge">
<title>Node1&#45;&gt;Node40</title>
<path fill="none" stroke="midnightblue" d="M1893.19,-116.03C1766.73,-105.6 1475.44,-81.59 1353.63,-71.54"/>
<polygon fill="midnightblue" stroke="midnightblue" points="1893.21,-119.54 1903.46,-116.87 1893.78,-112.56 1893.21,-119.54"/>
</g>
<!-- Node45 -->
<g id="node45" class="node">
<title>Node45</title>
<g id="a_node45"><a xlink:href="CaseStatement_8h.html" target="_top" xlink:title=" ">
<polygon fill="white" stroke="black" points="690,-56.5 690,-75.5 791,-75.5 791,-56.5 690,-56.5"/>
<text text-anchor="middle" x="740.5" y="-63.5" font-family="Helvetica,sans-Serif" font-size="10.00">CaseStatement.h</text>
</a>
</g>
</g>
<!-- Node1&#45;&gt;Node45 -->
<g id="edge54" class="edge">
<title>Node1&#45;&gt;Node45</title>
<path fill="none" stroke="midnightblue" d="M1893.08,-118.31C1682.77,-108.95 985.12,-77.89 791.01,-69.25"/>
<polygon fill="midnightblue" stroke="midnightblue" points="1893.16,-121.82 1903.31,-118.77 1893.47,-114.82 1893.16,-121.82"/>
</g>
<!-- Node48 -->
<g id="node48" class="node">
<title>Node48</title>
<g id="a_node48"><a xlink:href="GotoStatement_8cpp.html" target="_top" xlink:title=" ">
<polygon fill="white" stroke="black" points="2999,-56.5 2999,-75.5 3110,-75.5 3110,-56.5 2999,-56.5"/>
<text text-anchor="middle" x="3054.5" y="-63.5" font-family="Helvetica,sans-Serif" font-size="10.00">GotoStatement.cpp</text>
</a>
</g>
</g>
<!-- Node1&#45;&gt;Node48 -->
<g id="edge66" class="edge">
<title>Node1&#45;&gt;Node48</title>
<path fill="none" stroke="midnightblue" d="M2013.62,-120.41C2173.13,-118.42 2620.22,-109.99 2990.5,-76 2993.18,-75.75 2995.92,-75.47 2998.69,-75.17"/>
<polygon fill="midnightblue" stroke="midnightblue" points="2013.49,-116.92 2003.53,-120.54 2013.57,-123.91 2013.49,-116.92"/>
</g>
<!-- Node3 -->
<g id="node3" class="node">
<title>Node3</title>
<g id="a_node3"><a xlink:href="DataFlow_8cpp.html" target="_top" xlink:title=" ">
<polygon fill="white" stroke="black" points="2414,-0.5 2414,-19.5 2497,-19.5 2497,-0.5 2414,-0.5"/>
<text text-anchor="middle" x="2455.5" y="-7.5" font-family="Helvetica,sans-Serif" font-size="10.00">DataFlow.cpp</text>
</a>
</g>
</g>
<!-- Node2&#45;&gt;Node3 -->
<g id="edge2" class="edge">
<title>Node2&#45;&gt;Node3</title>
<path fill="none" stroke="midnightblue" d="M2875.84,-60.21C2793.65,-53.09 2638.16,-38.53 2506.5,-20 2503.47,-19.57 2500.35,-19.1 2497.21,-18.6"/>
<polygon fill="midnightblue" stroke="midnightblue" points="2875.71,-63.71 2885.98,-61.08 2876.31,-56.74 2875.71,-63.71"/>
</g>
<!-- Node4 -->
<g id="node4" class="node">
<title>Node4</title>
<g id="a_node4"><a xlink:href="IRFragment_8cpp.html" target="_top" xlink:title=" ">
<polygon fill="white" stroke="black" points="1519,-0.5 1519,-19.5 1612,-19.5 1612,-0.5 1519,-0.5"/>
<text text-anchor="middle" x="1565.5" y="-7.5" font-family="Helvetica,sans-Serif" font-size="10.00">IRFragment.cpp</text>
</a>
</g>
</g>
<!-- Node2&#45;&gt;Node4 -->
<g id="edge3" class="edge">
<title>Node2&#45;&gt;Node4</title>
<path fill="none" stroke="midnightblue" d="M2875.91,-64.01C2656.05,-60.07 1869.49,-44.54 1620.5,-20 1617.8,-19.73 1615.04,-19.42 1612.25,-19.07"/>
<polygon fill="midnightblue" stroke="midnightblue" points="2875.88,-67.51 2885.94,-64.19 2876.01,-60.51 2875.88,-67.51"/>
</g>
<!-- Node5 -->
<g id="node5" class="node">
<title>Node5</title>
<g id="a_node5"><a xlink:href="Module_8cpp.html" target="_top" xlink:title=" ">
<polygon fill="white" stroke="black" points="2515,-0.5 2515,-19.5 2588,-19.5 2588,-0.5 2515,-0.5"/>
<text text-anchor="middle" x="2551.5" y="-7.5" font-family="Helvetica,sans-Serif" font-size="10.00">Module.cpp</text>
</a>
</g>
</g>
<!-- Node2&#45;&gt;Node5 -->
<g id="edge4" class="edge">
<title>Node2&#45;&gt;Node5</title>
<path fill="none" stroke="midnightblue" d="M2875.84,-58.35C2808.79,-50.36 2694.85,-36.03 2597.5,-20 2594.45,-19.5 2591.29,-18.95 2588.12,-18.37"/>
<polygon fill="midnightblue" stroke="midnightblue" points="2875.45,-61.82 2885.79,-59.53 2876.27,-54.87 2875.45,-61.82"/>
</g>
<!-- Node6 -->
<g id="node6" class="node">
<title>Node6</title>
<g id="a_node6"><a xlink:href="Proc_8cpp.html" target="_top" xlink:title=" ">
<polygon fill="white" stroke="black" points="2606.5,-0.5 2606.5,-19.5 2664.5,-19.5 2664.5,-0.5 2606.5,-0.5"/>
<text text-anchor="middle" x="2635.5" y="-7.5" font-family="Helvetica,sans-Serif" font-size="10.00">Proc.cpp</text>
</a>
</g>
</g>
<!-- Node2&#45;&gt;Node6 -->
<g id="edge5" class="edge">
<title>Node2&#45;&gt;Node6</title>
<path fill="none" stroke="midnightblue" d="M2875.71,-56.04C2822.89,-47.6 2742.71,-34.17 2673.5,-20 2670.58,-19.4 2667.54,-18.74 2664.51,-18.06"/>
<polygon fill="midnightblue" stroke="midnightblue" points="2875.47,-59.54 2885.89,-57.66 2876.57,-52.63 2875.47,-59.54"/>
</g>
<!-- Node7 -->
<g id="node7" class="node">
<title>Node7</title>
<g id="a_node7"><a xlink:href="ProcCFG_8cpp.html" target="_top" xlink:title=" ">
<polygon fill="white" stroke="black" points="2682.5,-0.5 2682.5,-19.5 2760.5,-19.5 2760.5,-0.5 2682.5,-0.5"/>
<text text-anchor="middle" x="2721.5" y="-7.5" font-family="Helvetica,sans-Serif" font-size="10.00">ProcCFG.cpp</text>
</a>
</g>
</g>
<!-- Node2&#45;&gt;Node7 -->
<g id="edge6" class="edge">
<title>Node2&#45;&gt;Node7</title>
<path fill="none" stroke="midnightblue" d="M2890.15,-53.96C2850.11,-43.76 2791.47,-28.82 2754.93,-19.52"/>
<polygon fill="midnightblue" stroke="midnightblue" points="2889.35,-57.37 2899.91,-56.44 2891.08,-50.58 2889.35,-57.37"/>
</g>
<!-- Node8 -->
<g id="node8" class="node">
<title>Node8</title>
<g id="a_node8"><a xlink:href="UserProc_8cpp.html" target="_top" xlink:title=" ">
<polygon fill="white" stroke="black" points="2778.5,-0.5 2778.5,-19.5 2858.5,-19.5 2858.5,-0.5 2778.5,-0.5"/>
<text text-anchor="middle" x="2818.5" y="-7.5" font-family="Helvetica,sans-Serif" font-size="10.00">UserProc.cpp</text>
</a>
</g>
</g>
<!-- Node2&#45;&gt;Node8 -->
<g id="edge7" class="edge">
<title>Node2&#45;&gt;Node8</title>
<path fill="none" stroke="midnightblue" d="M2906.02,-52.1C2884.53,-42.01 2855.28,-28.27 2836.64,-19.52"/>
<polygon fill="midnightblue" stroke="midnightblue" points="2904.74,-55.36 2915.28,-56.44 2907.71,-49.02 2904.74,-55.36"/>
</g>
<!-- Node9 -->
<g id="node9" class="node">
<title>Node9</title>
<g id="a_node9"><a xlink:href="IndirectJumpAnalyzer_8cpp.html" target="_top" xlink:title=" ">
<polygon fill="white" stroke="black" points="1630,-0.5 1630,-19.5 1771,-19.5 1771,-0.5 1630,-0.5"/>
<text text-anchor="middle" x="1700.5" y="-7.5" font-family="Helvetica,sans-Serif" font-size="10.00">IndirectJumpAnalyzer.cpp</text>
</a>
</g>
</g>
<!-- Node2&#45;&gt;Node9 -->
<g id="edge8" class="edge">
<title>Node2&#45;&gt;Node9</title>
<path fill="none" stroke="midnightblue" d="M2875.72,-64.27C2706.81,-61.8 2199.28,-52.05 1779.5,-20 1776.75,-19.79 1773.94,-19.56 1771.11,-19.31"/>
<polygon fill="midnightblue" stroke="midnightblue" points="2875.84,-67.77 2885.89,-64.41 2875.94,-60.77 2875.84,-67.77"/>
</g>
<!-- Node10 -->
<g id="node10" class="node">
<title>Node10</title>
<g id="a_node10"><a xlink:href="ProcDecompiler_8cpp.html" target="_top" xlink:title=" ">
<polygon fill="white" stroke="black" points="2876.5,-0.5 2876.5,-19.5 2990.5,-19.5 2990.5,-0.5 2876.5,-0.5"/>
<text text-anchor="middle" x="2933.5" y="-7.5" font-family="Helvetica,sans-Serif" font-size="10.00">ProcDecompiler.cpp</text>
</a>
</g>
</g>
<!-- Node2&#45;&gt;Node10 -->
<g id="edge9" class="edge">
<title>Node2&#45;&gt;Node10</title>
<path fill="none" stroke="midnightblue" d="M2933.5,-45.8C2933.5,-36.91 2933.5,-26.78 2933.5,-19.75"/>
<polygon fill="midnightblue" stroke="midnightblue" points="2930,-46.08 2933.5,-56.08 2937,-46.08 2930,-46.08"/>
</g>
<!-- Node11 -->
<g id="node11" class="node">
<title>Node11</title>
<g id="a_node11"><a xlink:href="UnusedReturnRemover_8cpp.html" target="_top" xlink:title=" ">
<polygon fill="white" stroke="black" points="3008.5,-0.5 3008.5,-19.5 3158.5,-19.5 3158.5,-0.5 3008.5,-0.5"/>
<text text-anchor="middle" x="3083.5" y="-7.5" font-family="Helvetica,sans-Serif" font-size="10.00">UnusedReturnRemover.cpp</text>
</a>
</g>
</g>
<!-- Node2&#45;&gt;Node11 -->
<g id="edge10" class="edge">
<title>Node2&#45;&gt;Node11</title>
<path fill="none" stroke="midnightblue" d="M2966.72,-53.04C2994.95,-42.88 3034.76,-28.55 3059.84,-19.52"/>
<polygon fill="midnightblue" stroke="midnightblue" points="2965.49,-49.76 2957.27,-56.44 2967.86,-56.35 2965.49,-49.76"/>
</g>
<!-- Node12 -->
<g id="node12" class="node">
<title>Node12</title>
<g id="a_node12"><a xlink:href="DefaultFrontEnd_8cpp.html" target="_top" xlink:title=" ">
<polygon fill="white" stroke="black" points="455.5,-0.5 455.5,-19.5 571.5,-19.5 571.5,-0.5 455.5,-0.5"/>
<text text-anchor="middle" x="513.5" y="-7.5" font-family="Helvetica,sans-Serif" font-size="10.00">DefaultFrontEnd.cpp</text>
</a>
</g>
</g>
<!-- Node2&#45;&gt;Node12 -->
<g id="edge11" class="edge">
<title>Node2&#45;&gt;Node12</title>
<path fill="none" stroke="midnightblue" d="M2875.65,-64.79C2560.41,-63.53 1046.76,-55.66 580.5,-20 577.57,-19.78 574.58,-19.51 571.56,-19.21"/>
<polygon fill="midnightblue" stroke="midnightblue" points="2875.91,-68.29 2885.93,-64.83 2875.94,-61.29 2875.91,-68.29"/>
</g>
<!-- Node13 -->
<g id="node13" class="node">
<title>Node13</title>
<g id="a_node13"><a xlink:href="CallArgumentUpdatePass_8cpp.html" target="_top" xlink:title=" ">
<polygon fill="white" stroke="black" points="3177,-0.5 3177,-19.5 3338,-19.5 3338,-0.5 3177,-0.5"/>
<text text-anchor="middle" x="3257.5" y="-7.5" font-family="Helvetica,sans-Serif" font-size="10.00">CallArgumentUpdatePass.cpp</text>
</a>
</g>
</g>
<!-- Node2&#45;&gt;Node13 -->
<g id="edge12" class="edge">
<title>Node2&#45;&gt;Node13</title>
<path fill="none" stroke="midnightblue" d="M2991.18,-55.39C3052.26,-45.21 3147.77,-29.29 3206.28,-19.54"/>
<polygon fill="midnightblue" stroke="midnightblue" points="2990.6,-51.94 2981.31,-57.03 2991.75,-58.84 2990.6,-51.94"/>
</g>
<!-- Node14 -->
<g id="node14" class="node">
<title>Node14</title>
<g id="a_node14"><a xlink:href="CallDefineUpdatePass_8cpp.html" target="_top" xlink:title=" ">
<polygon fill="white" stroke="black" points="3356.5,-0.5 3356.5,-19.5 3502.5,-19.5 3502.5,-0.5 3356.5,-0.5"/>
<text text-anchor="middle" x="3429.5" y="-7.5" font-family="Helvetica,sans-Serif" font-size="10.00">CallDefineUpdatePass.cpp</text>
</a>
</g>
</g>
<!-- Node2&#45;&gt;Node14 -->
<g id="edge13" class="edge">
<title>Node2&#45;&gt;Node14</title>
<path fill="none" stroke="midnightblue" d="M2991.21,-55.98C3150.36,-35.6 3192.16,-36.36 3347.5,-20 3350.35,-19.7 3353.25,-19.39 3356.19,-19.08"/>
<polygon fill="midnightblue" stroke="midnightblue" points="2990.53,-52.54 2981.06,-57.29 2991.42,-59.48 2990.53,-52.54"/>
</g>
<!-- Node15 -->
<g id="node15" class="node">
<title>Node15</title>
<g id="a_node15"><a xlink:href="BlockVarRenamePass_8cpp.html" target="_top" xlink:title=" ">
<polygon fill="white" stroke="black" points="3521,-0.5 3521,-19.5 3664,-19.5 3664,-0.5 3521,-0.5"/>
<text text-anchor="middle" x="3592.5" y="-7.5" font-family="Helvetica,sans-Serif" font-size="10.00">BlockVarRenamePass.cpp</text>
</a>
</g>
</g>
<!-- Node2&#45;&gt;Node15 -->
<g id="edge14" class="edge">
<title>Node2&#45;&gt;Node15</title>
<path fill="none" stroke="midnightblue" d="M2991.13,-56.04C3222.84,-30.18 3283.6,-40.53 3511.5,-20 3514.6,-19.72 3517.77,-19.42 3520.96,-19.11"/>
<polygon fill="midnightblue" stroke="midnightblue" points="2990.59,-52.58 2981.04,-57.17 2991.37,-59.53 2990.59,-52.58"/>
</g>
<!-- Node16 -->
<g id="node16" class="node">
<title>Node16</title>
<g id="a_node16"><a xlink:href="StatementInitPass_8cpp.html" target="_top" xlink:title=" ">
<polygon fill="white" stroke="black" points="3682.5,-0.5 3682.5,-19.5 3808.5,-19.5 3808.5,-0.5 3682.5,-0.5"/>
<text text-anchor="middle" x="3745.5" y="-7.5" font-family="Helvetica,sans-Serif" font-size="10.00">StatementInitPass.cpp</text>
</a>
</g>
</g>
<!-- Node2&#45;&gt;Node16 -->
<g id="edge15" class="edge">
<title>Node2&#45;&gt;Node16</title>
<path fill="none" stroke="midnightblue" d="M2991,-56.08C3294.51,-24.73 3373.97,-46.58 3673.5,-20 3676.39,-19.74 3679.33,-19.46 3682.31,-19.16"/>
<polygon fill="midnightblue" stroke="midnightblue" points="2990.62,-52.6 2981.04,-57.12 2991.35,-59.56 2990.62,-52.6"/>
</g>
<!-- Node17 -->
<g id="node17" class="node">
<title>Node17</title>
<g id="a_node17"><a xlink:href="CallLivenessRemovalPass_8cpp.html" target="_top" xlink:title=" ">
<polygon fill="white" stroke="black" points="3826.5,-0.5 3826.5,-19.5 3990.5,-19.5 3990.5,-0.5 3826.5,-0.5"/>
<text text-anchor="middle" x="3908.5" y="-7.5" font-family="Helvetica,sans-Serif" font-size="10.00">CallLivenessRemovalPass.cpp</text>
</a>
</g>
</g>
<!-- Node2&#45;&gt;Node17 -->
<g id="edge16" class="edge">
<title>Node2&#45;&gt;Node17</title>
<path fill="none" stroke="midnightblue" d="M2991.14,-56.07C3358.28,-19.73 3453.84,-45.88 3817.5,-20 3820.35,-19.8 3823.25,-19.58 3826.18,-19.35"/>
<polygon fill="midnightblue" stroke="midnightblue" points="2990.64,-52.61 2981.03,-57.08 2991.33,-59.57 2990.64,-52.61"/>
</g>
<!-- Node18 -->
<g id="node18" class="node">
<title>Node18</title>
<g id="a_node18"><a xlink:href="UnusedLocalRemovalPass_8cpp.html" target="_top" xlink:title=" ">
<polygon fill="white" stroke="black" points="4009,-0.5 4009,-19.5 4174,-19.5 4174,-0.5 4009,-0.5"/>
<text text-anchor="middle" x="4091.5" y="-7.5" font-family="Helvetica,sans-Serif" font-size="10.00">UnusedLocalRemovalPass.cpp</text>
</a>
</g>
</g>
<!-- Node2&#45;&gt;Node18 -->
<g id="edge17" class="edge">
<title>Node2&#45;&gt;Node18</title>
<path fill="none" stroke="midnightblue" d="M2991,-56.1C3438.85,-13.47 3555.04,-49.64 3999.5,-20 4002.54,-19.8 4005.64,-19.57 4008.77,-19.34"/>
<polygon fill="midnightblue" stroke="midnightblue" points="2990.65,-52.62 2981.03,-57.05 2991.32,-59.58 2990.65,-52.62"/>
</g>
<!-- Node19 -->
<g id="node19" class="node">
<title>Node19</title>
<g id="a_node19"><a xlink:href="UnusedParamRemovalPass_8cpp.html" target="_top" xlink:title=" ">
<polygon fill="white" stroke="black" points="4192,-0.5 4192,-19.5 4363,-19.5 4363,-0.5 4192,-0.5"/>
<text text-anchor="middle" x="4277.5" y="-7.5" font-family="Helvetica,sans-Serif" font-size="10.00">UnusedParamRemovalPass.cpp</text>
</a>
</g>
</g>
<!-- Node2&#45;&gt;Node19 -->
<g id="edge18" class="edge">
<title>Node2&#45;&gt;Node19</title>
<path fill="none" stroke="midnightblue" d="M2991.22,-56.09C3520.39,-7.13 3657.44,-53.09 4183.5,-20 4186.28,-19.83 4189.11,-19.63 4191.96,-19.43"/>
<polygon fill="midnightblue" stroke="midnightblue" points="2990.66,-52.62 2981.03,-57.04 2991.31,-59.59 2990.66,-52.62"/>
</g>
<!-- Node20 -->
<g id="node20" class="node">
<title>Node20</title>
<g id="a_node20"><a xlink:href="CallAndPhiFixPass_8cpp.html" target="_top" xlink:title=" ">
<polygon fill="white" stroke="black" points="4381,-0.5 4381,-19.5 4506,-19.5 4506,-0.5 4381,-0.5"/>
<text text-anchor="middle" x="4443.5" y="-7.5" font-family="Helvetica,sans-Serif" font-size="10.00">CallAndPhiFixPass.cpp</text>
</a>
</g>
</g>
<!-- Node2&#45;&gt;Node20 -->
<g id="edge19" class="edge">
<title>Node2&#45;&gt;Node20</title>
<path fill="none" stroke="midnightblue" d="M2991,-56.11C3604.08,-0.68 3763.14,-66.44 4372.5,-20 4375.23,-19.79 4378.01,-19.55 4380.81,-19.29"/>
<polygon fill="midnightblue" stroke="midnightblue" points="2990.67,-52.63 2981.03,-57.02 2991.3,-59.6 2990.67,-52.63"/>
</g>
<!-- Node21 -->
<g id="node21" class="node">
<title>Node21</title>
<g id="a_node21"><a xlink:href="DuplicateArgsRemovalPass_8cpp.html" target="_top" xlink:title=" ">
<polygon fill="white" stroke="black" points="4524,-0.5 4524,-19.5 4695,-19.5 4695,-0.5 4524,-0.5"/>
<text text-anchor="middle" x="4609.5" y="-7.5" font-family="Helvetica,sans-Serif" font-size="10.00">DuplicateArgsRemovalPass.cpp</text>
</a>
</g>
</g>
<!-- Node2&#45;&gt;Node21 -->
<g id="edge20" class="edge">
<title>Node2&#45;&gt;Node21</title>
<path fill="none" stroke="midnightblue" d="M2991.02,-56.11C3667.42,4.37 3842.04,-60.14 4515.5,-20 4518.28,-19.83 4521.11,-19.65 4523.96,-19.45"/>
<polygon fill="midnightblue" stroke="midnightblue" points="2990.67,-52.63 2981.03,-57.01 2991.3,-59.6 2990.67,-52.63"/>
</g>
<!-- Node2&#45;&gt;Node22 -->
<g id="edge21" class="edge">
<title>Node2&#45;&gt;Node22</title>
<path fill="none" stroke="midnightblue" d="M2875.62,-64.46C2729.73,-62.62 2335.22,-54.57 2008.5,-20 2005.42,-19.67 2002.25,-19.29 1999.06,-18.87"/>
<polygon fill="midnightblue" stroke="midnightblue" points="2875.65,-67.97 2885.7,-64.59 2875.74,-60.97 2875.65,-67.97"/>
</g>
<!-- Node2&#45;&gt;Node23 -->
<g id="edge22" class="edge">
<title>Node2&#45;&gt;Node23</title>
<path fill="none" stroke="midnightblue" d="M2875.39,-65.12C2543.21,-65.65 881.83,-65.9 372.5,-20 369.61,-19.74 366.64,-19.42 363.65,-19.05"/>
<polygon fill="midnightblue" stroke="midnightblue" points="2875.74,-68.62 2885.74,-65.11 2875.73,-61.62 2875.74,-68.62"/>
</g>
<!-- Node24 -->
<g id="node24" class="node">
<title>Node24</title>
<g id="a_node24"><a xlink:href="CallStatement_8cpp.html" target="_top" xlink:title=" ">
<polygon fill="white" stroke="black" points="4713,-0.5 4713,-19.5 4820,-19.5 4820,-0.5 4713,-0.5"/>
<text text-anchor="middle" x="4766.5" y="-7.5" font-family="Helvetica,sans-Serif" font-size="10.00">CallStatement.cpp</text>
</a>
</g>
</g>
<!-- Node2&#45;&gt;Node24 -->
<g id="edge23" class="edge">
<title>Node2&#45;&gt;Node24</title>
<path fill="none" stroke="midnightblue" d="M2991.12,-56.11C3751.17,10.75 3948.49,-82.57 4704.5,-20 4707.21,-19.78 4709.98,-19.51 4712.78,-19.21"/>
<polygon fill="midnightblue" stroke="midnightblue" points="2990.68,-52.63 2981.03,-57 2991.3,-59.61 2990.68,-52.63"/>
</g>
<!-- Node25 -->
<g id="node25" class="node">
<title>Node25</title>
<g id="a_node25"><a xlink:href="ReturnStatement_8cpp.html" target="_top" xlink:title=" ">
<polygon fill="white" stroke="black" points="4838.5,-0.5 4838.5,-19.5 4958.5,-19.5 4958.5,-0.5 4838.5,-0.5"/>
<text text-anchor="middle" x="4898.5" y="-7.5" font-family="Helvetica,sans-Serif" font-size="10.00">ReturnStatement.cpp</text>
</a>
</g>
</g>
<!-- Node2&#45;&gt;Node25 -->
<g id="edge24" class="edge">
<title>Node2&#45;&gt;Node25</title>
<path fill="none" stroke="midnightblue" d="M2991.25,-56.1C3806.57,15.12 4017.67,-80.71 4829.5,-20 4832.39,-19.78 4835.35,-19.53 4838.33,-19.24"/>
<polygon fill="midnightblue" stroke="midnightblue" points="2990.68,-52.63 2981.03,-57 2991.29,-59.61 2990.68,-52.63"/>
</g>
<!-- Node26 -->
<g id="node26" class="node">
<title>Node26</title>
<g id="a_node26"><a xlink:href="Statement_8cpp.html" target="_top" xlink:title=" ">
<polygon fill="white" stroke="black" points="4976.5,-0.5 4976.5,-19.5 5064.5,-19.5 5064.5,-0.5 4976.5,-0.5"/>
<text text-anchor="middle" x="5020.5" y="-7.5" font-family="Helvetica,sans-Serif" font-size="10.00">Statement.cpp</text>
</a>
</g>
</g>
<!-- Node2&#45;&gt;Node26 -->
<g id="edge25" class="edge">
<title>Node2&#45;&gt;Node26</title>
<path fill="none" stroke="midnightblue" d="M2991.04,-56.12C3867.68,19.79 4095.81,-101.48 4967.5,-20 4970.38,-19.73 4973.34,-19.39 4976.32,-19.01"/>
<polygon fill="midnightblue" stroke="midnightblue" points="2990.68,-52.64 2981.03,-56.99 2991.29,-59.61 2990.68,-52.64"/>
</g>
<!-- Node27 -->
<g id="node27" class="node">
<title>Node27</title>
<g id="a_node27"><a xlink:href="ArgSourceProvider_8cpp.html" target="_top" xlink:title=" ">
<polygon fill="white" stroke="black" points="5083,-0.5 5083,-19.5 5210,-19.5 5210,-0.5 5083,-0.5"/>
<text text-anchor="middle" x="5146.5" y="-7.5" font-family="Helvetica,sans-Serif" font-size="10.00">ArgSourceProvider.cpp</text>
</a>
</g>
</g>
<!-- Node2&#45;&gt;Node27 -->
<g id="edge26" class="edge">
<title>Node2&#45;&gt;Node27</title>
<path fill="none" stroke="midnightblue" d="M2991.24,-56.1C3914.66,23.6 4153.23,-84.5 5073.5,-20 5076.56,-19.79 5079.68,-19.53 5082.84,-19.25"/>
<polygon fill="midnightblue" stroke="midnightblue" points="2990.68,-52.64 2981.02,-56.99 2991.29,-59.61 2990.68,-52.64"/>
</g>
<!-- Node28 -->
<g id="node28" class="node">
<title>Node28</title>
<g id="a_node28"><a xlink:href="CallBypasser_8cpp.html" target="_top" xlink:title=" ">
<polygon fill="white" stroke="black" points="5228,-0.5 5228,-19.5 5329,-19.5 5329,-0.5 5228,-0.5"/>
<text text-anchor="middle" x="5278.5" y="-7.5" font-family="Helvetica,sans-Serif" font-size="10.00">CallBypasser.cpp</text>
</a>
</g>
</g>
<!-- Node2&#45;&gt;Node28 -->
<g id="edge27" class="edge">
<title>Node2&#45;&gt;Node28</title>
<path fill="none" stroke="midnightblue" d="M2991.22,-56.11C3979.35,28.57 4235.55,-102.61 5219.5,-20 5222.18,-19.77 5224.93,-19.5 5227.7,-19.19"/>
<polygon fill="midnightblue" stroke="midnightblue" points="2990.69,-52.64 2981.02,-56.98 2991.29,-59.61 2990.69,-52.64"/>
</g>
<!-- Node29 -->
<g id="node29" class="node">
<title>Node29</title>
<g id="a_node29"><a xlink:href="Localiser_8cpp.html" target="_top" xlink:title=" ">
<polygon fill="white" stroke="black" points="5347.5,-0.5 5347.5,-19.5 5427.5,-19.5 5427.5,-0.5 5347.5,-0.5"/>
<text text-anchor="middle" x="5387.5" y="-7.5" font-family="Helvetica,sans-Serif" font-size="10.00">Localiser.cpp</text>
</a>
</g>
</g>
<!-- Node2&#45;&gt;Node29 -->
<g id="edge28" class="edge">
<title>Node2&#45;&gt;Node29</title>
<path fill="none" stroke="midnightblue" d="M2991.2,-56.12C3527,-11.95 4822.49,-70.99 5338.5,-20 5341.43,-19.71 5344.44,-19.34 5347.47,-18.91"/>
<polygon fill="midnightblue" stroke="midnightblue" points="2990.69,-52.65 2981.02,-56.98 2991.28,-59.63 2990.69,-52.65"/>
</g>
<!-- Node30 -->
<g id="node30" class="node">
<title>Node30</title>
<g id="a_node30"><a xlink:href="UsedLocsVisitor_8cpp.html" target="_top" xlink:title=" ">
<polygon fill="white" stroke="black" points="5446,-0.5 5446,-19.5 5561,-19.5 5561,-0.5 5446,-0.5"/>
<text text-anchor="middle" x="5503.5" y="-7.5" font-family="Helvetica,sans-Serif" font-size="10.00">UsedLocsVisitor.cpp</text>
</a>
</g>
</g>
<!-- Node2&#45;&gt;Node30 -->
<g id="edge29" class="edge">
<title>Node2&#45;&gt;Node30</title>
<path fill="none" stroke="midnightblue" d="M2991.01,-56.13C4075.45,36.18 4355.57,-100.27 5436.5,-20 5439.54,-19.77 5442.66,-19.5 5445.8,-19.19"/>
<polygon fill="midnightblue" stroke="midnightblue" points="2990.69,-52.64 2981.02,-56.98 2991.29,-59.61 2990.69,-52.64"/>
</g>
<!-- Node31 -->
<g id="node31" class="node">
<title>Node31</title>
<g id="a_node31"><a xlink:href="StmtSSAXFormer_8cpp.html" target="_top" xlink:title=" ">
<polygon fill="white" stroke="black" points="5579,-0.5 5579,-19.5 5700,-19.5 5700,-0.5 5579,-0.5"/>
<text text-anchor="middle" x="5639.5" y="-7.5" font-family="Helvetica,sans-Serif" font-size="10.00">StmtSSAXFormer.cpp</text>
</a>
</g>
</g>
<!-- Node2&#45;&gt;Node31 -->
<g id="edge30" class="edge">
<title>Node2&#45;&gt;Node31</title>
<path fill="none" stroke="midnightblue" d="M2991.13,-56.12C4134.84,40.83 4430.03,-102.06 5570.5,-20 5573.27,-19.8 5576.1,-19.56 5578.96,-19.3"/>
<polygon fill="midnightblue" stroke="midnightblue" points="2990.69,-52.64 2981.02,-56.98 2991.28,-59.62 2990.69,-52.64"/>
</g>
<!-- Node32 -->
<g id="node32" class="node">
<title>Node32</title>
<g id="a_node32"><a xlink:href="StmtSubscripter_8cpp.html" target="_top" xlink:title=" ">
<polygon fill="white" stroke="black" points="5718,-0.5 5718,-19.5 5833,-19.5 5833,-0.5 5718,-0.5"/>
<text text-anchor="middle" x="5775.5" y="-7.5" font-family="Helvetica,sans-Serif" font-size="10.00">StmtSubscripter.cpp</text>
</a>
</g>
</g>
<!-- Node2&#45;&gt;Node32 -->
<g id="edge31" class="edge">
<title>Node2&#45;&gt;Node32</title>
<path fill="none" stroke="midnightblue" d="M2991.41,-56.11C3609.58,-5.42 5110.28,-64.65 5709.5,-20 5712.27,-19.79 5715.1,-19.55 5717.95,-19.27"/>
<polygon fill="midnightblue" stroke="midnightblue" points="2990.7,-52.65 2981.02,-56.97 2991.28,-59.63 2990.7,-52.65"/>
</g>
<!-- Node33 -->
<g id="node33" class="node">
<title>Node33</title>
<g id="a_node33"><a xlink:href="CCodeGenerator_8cpp.html" target="_top" xlink:title=" ">
<polygon fill="white" stroke="black" points="1384,-0.5 1384,-19.5 1501,-19.5 1501,-0.5 1384,-0.5"/>
<text text-anchor="middle" x="1442.5" y="-7.5" font-family="Helvetica,sans-Serif" font-size="10.00">CCodeGenerator.cpp</text>
</a>
</g>
</g>
<!-- Node2&#45;&gt;Node33 -->
<g id="edge32" class="edge">
<title>Node2&#45;&gt;Node33</title>
<path fill="none" stroke="midnightblue" d="M2875.53,-65.28C2681.71,-65.78 2038.68,-63.79 1509.5,-20 1506.81,-19.78 1504.06,-19.52 1501.29,-19.24"/>
<polygon fill="midnightblue" stroke="midnightblue" points="2875.78,-68.78 2885.77,-65.25 2875.76,-61.78 2875.78,-68.78"/>
</g>
<!-- Node34 -->
<g id="node34" class="node">
<title>Node34</title>
<g id="a_node34"><a xlink:href="CapstoneX86Decoder_8cpp.html" target="_top" xlink:title=" ">
<polygon fill="white" stroke="black" points="589.5,-0.5 589.5,-19.5 731.5,-19.5 731.5,-0.5 589.5,-0.5"/>
<text text-anchor="middle" x="660.5" y="-7.5" font-family="Helvetica,sans-Serif" font-size="10.00">CapstoneX86Decoder.cpp</text>
</a>
</g>
</g>
<!-- Node2&#45;&gt;Node34 -->
<g id="edge33" class="edge">
<title>Node2&#45;&gt;Node34</title>
<path fill="none" stroke="midnightblue" d="M2875.28,-64.53C2572.3,-61.96 1173.29,-48.72 740.5,-20 737.57,-19.81 734.58,-19.58 731.57,-19.34"/>
<polygon fill="midnightblue" stroke="midnightblue" points="2875.56,-68.03 2885.59,-64.61 2875.62,-61.03 2875.56,-68.03"/>
</g>
<!-- Node35 -->
<g id="node35" class="node">
<title>Node35</title>
<g id="a_node35"><a xlink:href="CapstonePPCDecoder_8cpp.html" target="_top" xlink:title=" ">
<polygon fill="white" stroke="black" points="749.5,-0.5 749.5,-19.5 891.5,-19.5 891.5,-0.5 749.5,-0.5"/>
<text text-anchor="middle" x="820.5" y="-7.5" font-family="Helvetica,sans-Serif" font-size="10.00">CapstonePPCDecoder.cpp</text>
</a>
</g>
</g>
<!-- Node2&#45;&gt;Node35 -->
<g id="edge34" class="edge">
<title>Node2&#45;&gt;Node35</title>
<path fill="none" stroke="midnightblue" d="M2875.39,-64.42C2586.14,-61.43 1299.77,-46.82 900.5,-20 897.57,-19.8 894.59,-19.58 891.57,-19.33"/>
<polygon fill="midnightblue" stroke="midnightblue" points="2875.61,-67.92 2885.65,-64.53 2875.69,-60.92 2875.61,-67.92"/>
</g>
<!-- Node36 -->
<g id="node36" class="node">
<title>Node36</title>
<g id="a_node36"><a xlink:href="ST20Decoder_8cpp.html" target="_top" xlink:title=" ">
<polygon fill="white" stroke="black" points="1789,-0.5 1789,-19.5 1890,-19.5 1890,-0.5 1789,-0.5"/>
<text text-anchor="middle" x="1839.5" y="-7.5" font-family="Helvetica,sans-Serif" font-size="10.00">ST20Decoder.cpp</text>
</a>
</g>
</g>
<!-- Node2&#45;&gt;Node36 -->
<g id="edge35" class="edge">
<title>Node2&#45;&gt;Node36</title>
<path fill="none" stroke="midnightblue" d="M2875.53,-64.67C2718.09,-63.3 2269.47,-56.25 1898.5,-20 1895.82,-19.74 1893.07,-19.44 1890.31,-19.11"/>
<polygon fill="midnightblue" stroke="midnightblue" points="2875.89,-68.17 2885.92,-64.76 2875.95,-61.17 2875.89,-68.17"/>
</g>
<!-- Node37 -->
<g id="node37" class="node">
<title>Node37</title>
<g id="a_node37"><a xlink:href="X86FrontEnd_8cpp.html" target="_top" xlink:title=" ">
<polygon fill="white" stroke="black" points="2297.5,-0.5 2297.5,-19.5 2395.5,-19.5 2395.5,-0.5 2297.5,-0.5"/>
<text text-anchor="middle" x="2346.5" y="-7.5" font-family="Helvetica,sans-Serif" font-size="10.00">X86FrontEnd.cpp</text>
</a>
</g>
</g>
<!-- Node2&#45;&gt;Node37 -->
<g id="edge36" class="edge">
<title>Node2&#45;&gt;Node37</title>
<path fill="none" stroke="midnightblue" d="M2875.49,-61.32C2778.14,-54.86 2575.84,-40.23 2405.5,-20 2402.31,-19.62 2399.03,-19.2 2395.72,-18.76"/>
<polygon fill="midnightblue" stroke="midnightblue" points="2875.5,-64.83 2885.7,-61.99 2875.96,-57.84 2875.5,-64.83"/>
</g>
<!-- Node38 -->
<g id="node38" class="node">
<title>Node38</title>
<g id="a_node38"><a xlink:href="DFATypeAnalyzer_8cpp.html" target="_top" xlink:title=" ">
<polygon fill="white" stroke="black" points="2158,-0.5 2158,-19.5 2279,-19.5 2279,-0.5 2158,-0.5"/>
<text text-anchor="middle" x="2218.5" y="-7.5" font-family="Helvetica,sans-Serif" font-size="10.00">DFATypeAnalyzer.cpp</text>
</a>
</g>
</g>
<!-- Node2&#45;&gt;Node38 -->
<g id="edge37" class="edge">
<title>Node2&#45;&gt;Node38</title>
<path fill="none" stroke="midnightblue" d="M2875.52,-62.09C2762.44,-56.16 2504.6,-41.41 2288.5,-20 2285.45,-19.7 2282.33,-19.37 2279.18,-19.02"/>
<polygon fill="midnightblue" stroke="midnightblue" points="2875.51,-65.59 2885.68,-62.62 2875.88,-58.6 2875.51,-65.59"/>
</g>
<!-- Node2&#45;&gt;Node39 -->
<g id="edge38" class="edge">
<title>Node2&#45;&gt;Node39</title>
<path fill="none" stroke="midnightblue" d="M2875.55,-63.04C2745.49,-58.34 2420.47,-44.92 2149.5,-20 2146.28,-19.7 2142.99,-19.38 2139.66,-19.02"/>
<polygon fill="midnightblue" stroke="midnightblue" points="2875.57,-66.54 2885.69,-63.4 2875.82,-59.55 2875.57,-66.54"/>
</g>
<!-- Node40&#45;&gt;Node4 -->
<g id="edge40" class="edge">
<title>Node40&#45;&gt;Node4</title>
<path fill="none" stroke="midnightblue" d="M1350.86,-54.41C1401.32,-44.2 1476.7,-28.96 1523.39,-19.52"/>
<polygon fill="midnightblue" stroke="midnightblue" points="1349.91,-51.03 1340.81,-56.44 1351.3,-57.89 1349.91,-51.03"/>
</g>
<!-- Node40&#45;&gt;Node9 -->
<g id="edge41" class="edge">
<title>Node40&#45;&gt;Node9</title>
<path fill="none" stroke="midnightblue" d="M1363.87,-56.22C1439.34,-46.08 1562.6,-29.52 1637.18,-19.51"/>
<polygon fill="midnightblue" stroke="midnightblue" points="1363,-52.8 1353.55,-57.6 1363.93,-59.74 1363,-52.8"/>
</g>
<!-- Node40&#45;&gt;Node12 -->
<g id="edge42" class="edge">
<title>Node40&#45;&gt;Node12</title>
<path fill="none" stroke="midnightblue" d="M1233.18,-62.46C1106.88,-57.2 820.48,-43.61 580.5,-20 577.58,-19.71 574.59,-19.4 571.58,-19.06"/>
<polygon fill="midnightblue" stroke="midnightblue" points="1233.31,-65.97 1243.45,-62.88 1233.6,-58.97 1233.31,-65.97"/>
</g>
<!-- Node40&#45;&gt;Node22 -->
<g id="edge44" class="edge">
<title>Node40&#45;&gt;Node22</title>
<path fill="none" stroke="midnightblue" d="M1363.98,-61.96C1474.46,-56.42 1704.82,-43.07 1898.5,-20 1901.57,-19.63 1904.74,-19.22 1907.92,-18.77"/>
<polygon fill="midnightblue" stroke="midnightblue" points="1363.48,-58.49 1353.67,-62.48 1363.83,-65.48 1363.48,-58.49"/>
</g>
<!-- Node40&#45;&gt;Node23 -->
<g id="edge46" class="edge">
<title>Node40&#45;&gt;Node23</title>
<path fill="none" stroke="midnightblue" d="M1233.2,-64.37C1081.62,-62.36 694.23,-54.03 372.5,-20 369.61,-19.69 366.65,-19.34 363.66,-18.94"/>
<polygon fill="midnightblue" stroke="midnightblue" points="1233.23,-67.87 1243.28,-64.5 1233.32,-60.87 1233.23,-67.87"/>
</g>
<!-- Node40&#45;&gt;Node34 -->
<g id="edge48" class="edge">
<title>Node40&#45;&gt;Node34</title>
<path fill="none" stroke="midnightblue" d="M1233.35,-60.42C1129.16,-52.93 918.62,-37.2 740.5,-20 737.58,-19.72 734.6,-19.42 731.59,-19.12"/>
<polygon fill="midnightblue" stroke="midnightblue" points="1233.18,-63.91 1243.4,-61.14 1233.68,-56.93 1233.18,-63.91"/>
</g>
<!-- Node40&#45;&gt;Node35 -->
<g id="edge49" class="edge">
<title>Node40&#45;&gt;Node35</title>
<path fill="none" stroke="midnightblue" d="M1233.19,-57.62C1143.78,-47.52 983.88,-29.46 891.56,-19.03"/>
<polygon fill="midnightblue" stroke="midnightblue" points="1232.87,-61.11 1243.2,-58.75 1233.66,-54.15 1232.87,-61.11"/>
</g>
<!-- Node40&#45;&gt;Node36 -->
<g id="edge50" class="edge">
<title>Node40&#45;&gt;Node36</title>
<path fill="none" stroke="midnightblue" d="M1363.86,-60.04C1456.5,-52.76 1631.24,-38.04 1779.5,-20 1782.53,-19.63 1785.65,-19.23 1788.79,-18.81"/>
<polygon fill="midnightblue" stroke="midnightblue" points="1363.49,-56.56 1353.79,-60.83 1364.04,-63.54 1363.49,-56.56"/>
</g>
<!-- Node40&#45;&gt;Node38 -->
<g id="edge52" class="edge">
<title>Node40&#45;&gt;Node38</title>
<path fill="none" stroke="midnightblue" d="M1364.13,-63.2C1506.97,-58.92 1856.67,-46.45 2148.5,-20 2151.55,-19.72 2154.67,-19.42 2157.82,-19.08"/>
<polygon fill="midnightblue" stroke="midnightblue" points="1363.69,-59.71 1353.79,-63.51 1363.89,-66.71 1363.69,-59.71"/>
</g>
<!-- Node40&#45;&gt;Node39 -->
<g id="edge53" class="edge">
<title>Node40&#45;&gt;Node39</title>
<path fill="none" stroke="midnightblue" d="M1364.03,-62.26C1489.38,-56.71 1771.72,-42.7 2008.5,-20 2011.43,-19.72 2014.42,-19.41 2017.44,-19.09"/>
<polygon fill="midnightblue" stroke="midnightblue" points="1363.67,-58.78 1353.83,-62.71 1363.98,-65.77 1363.67,-58.78"/>
</g>
<!-- Node41 -->
<g id="node41" class="node">
<title>Node41</title>
<g id="a_node41"><a xlink:href="BranchAnalysisPass_8cpp.html" target="_top" xlink:title=" ">
<polygon fill="white" stroke="black" points="1231.5,-0.5 1231.5,-19.5 1365.5,-19.5 1365.5,-0.5 1231.5,-0.5"/>
<text text-anchor="middle" x="1298.5" y="-7.5" font-family="Helvetica,sans-Serif" font-size="10.00">BranchAnalysisPass.cpp</text>
</a>
</g>
</g>
<!-- Node40&#45;&gt;Node41 -->
<g id="edge43" class="edge">
<title>Node40&#45;&gt;Node41</title>
<path fill="none" stroke="midnightblue" d="M1298.5,-45.8C1298.5,-36.91 1298.5,-26.78 1298.5,-19.75"/>
<polygon fill="midnightblue" stroke="midnightblue" points="1295,-46.08 1298.5,-56.08 1302,-46.08 1295,-46.08"/>
</g>
<!-- Node42 -->
<g id="node42" class="node">
<title>Node42</title>
<g id="a_node42"><a xlink:href="RTL_8cpp.html" target="_top" xlink:title=" ">
<polygon fill="white" stroke="black" points="382,-0.5 382,-19.5 437,-19.5 437,-0.5 382,-0.5"/>
<text text-anchor="middle" x="409.5" y="-7.5" font-family="Helvetica,sans-Serif" font-size="10.00">RTL.cpp</text>
</a>
</g>
</g>
<!-- Node40&#45;&gt;Node42 -->
<g id="edge45" class="edge">
<title>Node40&#45;&gt;Node42</title>
<path fill="none" stroke="midnightblue" d="M1232.96,-65.67C1089.54,-66.23 737.46,-62.69 446.5,-20 443.49,-19.56 440.37,-18.99 437.27,-18.34"/>
<polygon fill="midnightblue" stroke="midnightblue" points="1233.34,-69.17 1243.33,-65.62 1233.31,-62.17 1233.34,-69.17"/>
</g>
<!-- Node43 -->
<g id="node43" class="node">
<title>Node43</title>
<g id="a_node43"><a xlink:href="BranchStatement_8cpp.html" target="_top" xlink:title=" ">
<polygon fill="white" stroke="black" points="909.5,-0.5 909.5,-19.5 1031.5,-19.5 1031.5,-0.5 909.5,-0.5"/>
<text text-anchor="middle" x="970.5" y="-7.5" font-family="Helvetica,sans-Serif" font-size="10.00">BranchStatement.cpp</text>
</a>
</g>
</g>
<!-- Node40&#45;&gt;Node43 -->
<g id="edge47" class="edge">
<title>Node40&#45;&gt;Node43</title>
<path fill="none" stroke="midnightblue" d="M1236.49,-54.79C1174.51,-44.59 1080.31,-29.08 1022.23,-19.52"/>
<polygon fill="midnightblue" stroke="midnightblue" points="1236.09,-58.27 1246.53,-56.44 1237.23,-51.37 1236.09,-58.27"/>
</g>
<!-- Node44 -->
<g id="node44" class="node">
<title>Node44</title>
<g id="a_node44"><a xlink:href="StringInstructionProcessor_8cpp.html" target="_top" xlink:title=" ">
<polygon fill="white" stroke="black" points="1049.5,-0.5 1049.5,-19.5 1213.5,-19.5 1213.5,-0.5 1049.5,-0.5"/>
<text text-anchor="middle" x="1131.5" y="-7.5" font-family="Helvetica,sans-Serif" font-size="10.00">StringInstructionProcessor.cpp</text>
</a>
</g>
</g>
<!-- Node40&#45;&gt;Node44 -->
<g id="edge51" class="edge">
<title>Node40&#45;&gt;Node44</title>
<path fill="none" stroke="midnightblue" d="M1262.33,-53.3C1230.86,-43.13 1186.01,-28.62 1157.84,-19.52"/>
<polygon fill="midnightblue" stroke="midnightblue" points="1261.45,-56.7 1272.04,-56.44 1263.6,-50.04 1261.45,-56.7"/>
</g>
<!-- Node45&#45;&gt;Node4 -->
<g id="edge55" class="edge">
<title>Node45&#45;&gt;Node4</title>
<path fill="none" stroke="midnightblue" d="M801.19,-63.53C931.33,-59.92 1246.74,-48.73 1509.5,-20 1512.53,-19.67 1515.66,-19.28 1518.8,-18.87"/>
<polygon fill="midnightblue" stroke="midnightblue" points="800.93,-60.04 791.03,-63.81 801.12,-67.03 800.93,-60.04"/>
</g>
<!-- Node45&#45;&gt;Node9 -->
<g id="edge56" class="edge">
<title>Node45&#45;&gt;Node9</title>
<path fill="none" stroke="midnightblue" d="M801.49,-63.16C944.65,-58.57 1313.34,-45.11 1620.5,-20 1623.56,-19.75 1626.69,-19.48 1629.85,-19.18"/>
<polygon fill="midnightblue" stroke="midnightblue" points="801.05,-59.67 791.17,-63.49 801.27,-66.67 801.05,-59.67"/>
</g>
<!-- Node45&#45;&gt;Node12 -->
<g id="edge57" class="edge">
<title>Node45&#45;&gt;Node12</title>
<path fill="none" stroke="midnightblue" d="M694.63,-54.09C651.75,-43.89 588.58,-28.86 549.3,-19.52"/>
<polygon fill="midnightblue" stroke="midnightblue" points="693.99,-57.53 704.53,-56.44 695.61,-50.72 693.99,-57.53"/>
</g>
<!-- Node45&#45;&gt;Node23 -->
<g id="edge58" class="edge">
<title>Node45&#45;&gt;Node23</title>
<path fill="none" stroke="midnightblue" d="M679.87,-58.35C606.85,-50.16 480.52,-35.44 372.5,-20 369.63,-19.59 366.67,-19.15 363.69,-18.7"/>
<polygon fill="midnightblue" stroke="midnightblue" points="679.49,-61.83 689.82,-59.46 680.27,-54.87 679.49,-61.83"/>
</g>
<!-- Node45&#45;&gt;Node33 -->
<g id="edge60" class="edge">
<title>Node45&#45;&gt;Node33</title>
<path fill="none" stroke="midnightblue" d="M801.31,-61.92C914.37,-55.91 1164.51,-41.33 1374.5,-20 1377.58,-19.69 1380.74,-19.34 1383.92,-18.98"/>
<polygon fill="midnightblue" stroke="midnightblue" points="800.93,-58.43 791.13,-62.45 801.3,-65.42 800.93,-58.43"/>
</g>
<!-- Node45&#45;&gt;Node34 -->
<g id="edge62" class="edge">
<title>Node45&#45;&gt;Node34</title>
<path fill="none" stroke="midnightblue" d="M719.2,-50.62C704.58,-40.76 685.67,-27.99 673.32,-19.65"/>
<polygon fill="midnightblue" stroke="midnightblue" points="717.4,-53.63 727.65,-56.32 721.32,-47.83 717.4,-53.63"/>
</g>
<!-- Node45&#45;&gt;Node35 -->
<g id="edge63" class="edge">
<title>Node45&#45;&gt;Node35</title>
<path fill="none" stroke="midnightblue" d="M761.8,-50.62C776.42,-40.76 795.33,-27.99 807.68,-19.65"/>
<polygon fill="midnightblue" stroke="midnightblue" points="759.68,-47.83 753.35,-56.32 763.6,-53.63 759.68,-47.83"/>
</g>
<!-- Node46 -->
<g id="node46" class="node">
<title>Node46</title>
<g id="a_node46"><a xlink:href="CaseStatement_8cpp.html" target="_top" xlink:title=" ">
<polygon fill="white" stroke="black" points="141.5,-0.5 141.5,-19.5 253.5,-19.5 253.5,-0.5 141.5,-0.5"/>
<text text-anchor="middle" x="197.5" y="-7.5" font-family="Helvetica,sans-Serif" font-size="10.00">CaseStatement.cpp</text>
</a>
</g>
</g>
<!-- Node45&#45;&gt;Node46 -->
<g id="edge59" class="edge">
<title>Node45&#45;&gt;Node46</title>
<path fill="none" stroke="midnightblue" d="M679.72,-60.13C588.83,-52.67 412.18,-37.4 262.5,-20 259.56,-19.66 256.54,-19.29 253.5,-18.91"/>
<polygon fill="midnightblue" stroke="midnightblue" points="679.59,-63.64 689.84,-60.96 680.16,-56.66 679.59,-63.64"/>
</g>
<!-- Node47 -->
<g id="node47" class="node">
<title>Node47</title>
<g id="a_node47"><a xlink:href="CapstoneDecoder_8cpp.html" target="_top" xlink:title=" ">
<polygon fill="white" stroke="black" points="0,-0.5 0,-19.5 123,-19.5 123,-0.5 0,-0.5"/>
<text text-anchor="middle" x="61.5" y="-7.5" font-family="Helvetica,sans-Serif" font-size="10.00">CapstoneDecoder.cpp</text>
</a>
</g>
</g>
<!-- Node45&#45;&gt;Node47 -->
<g id="edge61" class="edge">
<title>Node45&#45;&gt;Node47</title>
<path fill="none" stroke="midnightblue" d="M679.79,-61.56C570.28,-55.12 332.47,-40.06 132.5,-20 129.41,-19.69 126.25,-19.35 123.05,-19"/>
<polygon fill="midnightblue" stroke="midnightblue" points="679.79,-65.07 689.98,-62.16 680.2,-58.08 679.79,-65.07"/>
</g>
</g>
</svg>
        <g id="navigator" transform="translate(0 0)" fill="#404254">
                <rect fill="#f2f5e9" fill-opacity="0.5" stroke="#606060" stroke-width=".5" x="0" y="0" width="60" height="60"/>
                <use id="zoomplus" xlink:href="#zoomPlus" x="17" y="9" onmousedown="handleZoom(evt,'in')"/>
                <use id="zoomminus" xlink:href="#zoomMin" x="42" y="9" onmousedown="handleZoom(evt,'out')"/>
                <use id="reset" xlink:href="#resetDef" x="30" y="36" onmousedown="handleReset()"/>
                <g id="arrowUp" xlink:href="#dirArrow" transform="translate(30 24)" onmousedown="handlePan(0,-1)">
                  <use xlink:href="#rim" fill="#404040">
                        <set attributeName="fill" to="#808080" begin="arrowUp.mouseover" end="arrowUp.mouseout"/>
                  </use>
                  <path fill="none" stroke="white" stroke-width="1.5" d="M0,-3.0v7 M-2.5,-0.5L0,-3.0L2.5,-0.5"/>
                </g>
                <g id="arrowRight" xlink:href="#dirArrow" transform="rotate(90) translate(36 -43)" onmousedown="handlePan(1,0)">
                  <use xlink:href="#rim" fill="#404040">
                        <set attributeName="fill" to="#808080" begin="arrowRight.mouseover" end="arrowRight.mouseout"/>
                  </use>
                  <path fill="none" stroke="white" stroke-width="1.5" d="M0,-3.0v7 M-2.5,-0.5L0,-3.0L2.5,-0.5"/>
                </g>
                <g id="arrowDown" xlink:href="#dirArrow" transform="rotate(180) translate(-30 -48)" onmousedown="handlePan(0,1)">
                  <use xlink:href="#rim" fill="#404040">
                        <set attributeName="fill" to="#808080" begin="arrowDown.mouseover" end="arrowDown.mouseout"/>
                  </use>
                  <path fill="none" stroke="white" stroke-width="1.5" d="M0,-3.0v7 M-2.5,-0.5L0,-3.0L2.5,-0.5"/>
                </g>
                <g id="arrowLeft" xlink:href="#dirArrow" transform="rotate(270) translate(-36 17)" onmousedown="handlePan(-1,0)">
                  <use xlink:href="#rim" fill="#404040">
                        <set attributeName="fill" to="#808080" begin="arrowLeft.mouseover" end="arrowLeft.mouseout"/>
                  </use>
                  <path fill="none" stroke="white" stroke-width="1.5" d="M0,-3.0v7 M-2.5,-0.5L0,-3.0L2.5,-0.5"/>
                </g>
        </g>
        <svg viewBox="0 0 15 15" width="100%" height="30px" preserveAspectRatio="xMaxYMin meet">
         <g id="arrow_out" transform="scale(0.3 0.3)">
          <a xlink:href="GotoStatement_8h__dep__incl_org.svg" target="_base">
           <rect id="button" ry="5" rx="5" y="6" x="6" height="38" width="38"
                fill="#f2f5e9" fill-opacity="0.5" stroke="#606060" stroke-width="1.0"/>
           <path id="arrow"
             d="M 11.500037,31.436501 C 11.940474,20.09759 22.043105,11.32322 32.158766,21.979434 L 37.068811,17.246167 C 37.068811,17.246167 37.088388,32 37.088388,32 L 22.160133,31.978069 C 22.160133,31.978069 26.997745,27.140456 26.997745,27.140456 C 18.528582,18.264221 13.291696,25.230495 11.500037,31.436501 z"
             style="fill:#404040;"/>
          </a>
         </g>
        </svg>
</svg>
