<?xml version="1.0" encoding="UTF-8" standalone="no"?>
<!DOCTYPE svg PUBLIC "-//W3C//DTD SVG 1.1//EN"
 "http://www.w3.org/Graphics/SVG/1.1/DTD/svg11.dtd">
<!-- Generated by graphviz version 2.43.0 (0)
 -->
<!-- Title: GotoStatement.cpp Pages: 1 -->
<!--zoomable 475 -->
<svg id="main" version="1.1" xmlns="http://www.w3.org/2000/svg" xmlns:xlink="http://www.w3.org/1999/xlink" xml:space="preserve" onload="init(evt)">
<style type="text/css"><![CDATA[
.edge:hover path { stroke: red; }
.edge:hover polygon { stroke: red; fill: red; }
]]></style>
<script type="text/javascript"><![CDATA[
var edges = document.getElementsByTagName('g');
if (edges && edges.length) {
  for (var i=0;i<edges.length;i++) {
    if (edges[i].id.substr(0,4)=='edge') {
      edges[i].setAttribute('class','edge');
    }
  }
}
]]></script>
        <defs>
                <circle id="rim" cx="0" cy="0" r="7"/>
                <circle id="rim2" cx="0" cy="0" r="3.5"/>
                <g id="zoomPlus">
                        <use xlink:href="#rim" fill="#404040">
                                <set attributeName="fill" to="#808080" begin="zoomplus.mouseover" end="zoomplus.mouseout"/>
                        </use>
                        <path d="M-4,0h8M0,-4v8" fill="none" stroke="white" stroke-width="1.5" pointer-events="none"/>
                </g>
                <g id="zoomMin">
                        <use xlink:href="#rim" fill="#404040">
                                <set attributeName="fill" to="#808080" begin="zoomminus.mouseover" end="zoomminus.mouseout"/>
                        </use>
                        <path d="M-4,0h8" fill="none" stroke="white" stroke-width="1.5" pointer-events="none"/>
                </g>
                <g id="dirArrow">
                        <path fill="none" stroke="white" stroke-width="1.5" d="M0,-3.0v7 M-2.5,-0.5L0,-3.0L2.5,-0.5"/>
                </g>
               <g id="resetDef">
                       <use xlink:href="#rim2" fill="#404040">
                               <set attributeName="fill" to="#808080" begin="reset.mouseover" end="reset.mouseout"/>
                       </use>
               </g>
        </defs>

<script type="text/javascript">
var viewWidth = 1513;
var viewHeight = 475;
var sectionId = 'dynsection-0';
</script>
<script xlink:href="svgpan.js"/>
<svg id="graph" class="graph">
<g id="viewport">
<title>GotoStatement.cpp</title>
<polygon fill="white" stroke="transparent" points="-4,4 -4,-471 1509,-471 1509,4 -4,4"/>
<!-- Node1 -->
<g id="node1" class="node">
<title>Node1</title>
<g id="a_node1"><a xlink:title=" ">
<polygon fill="#bfbfbf" stroke="black" points="834.5,-447.5 834.5,-466.5 945.5,-466.5 945.5,-447.5 834.5,-447.5"/>
<text text-anchor="middle" x="890" y="-454.5" font-family="Helvetica,sans-Serif" font-size="10.00">GotoStatement.cpp</text>
</a>
</g>
</g>
<!-- Node2 -->
<g id="node2" class="node">
<title>Node2</title>
<g id="a_node2"><a xlink:href="GotoStatement_8h.html" target="_top" xlink:title=" ">
<polygon fill="white" stroke="black" points="664,-319 664,-338 764,-338 764,-319 664,-319"/>
<text text-anchor="middle" x="714" y="-326" font-family="Helvetica,sans-Serif" font-size="10.00">GotoStatement.h</text>
</a>
</g>
</g>
<!-- Node1&#45;&gt;Node2 -->
<g id="edge1" class="edge">
<title>Node1&#45;&gt;Node2</title>
<path fill="none" stroke="midnightblue" d="M877.9,-447.31C848.26,-426 771.74,-371 734.7,-344.38"/>
<polygon fill="midnightblue" stroke="midnightblue" points="736.34,-341.25 726.18,-338.26 732.26,-346.93 736.34,-341.25"/>
</g>
<!-- Node16 -->
<g id="node16" class="node">
<title>Node16</title>
<g id="a_node16"><a xlink:href="Const_8h.html" target="_top" xlink:title=" ">
<polygon fill="white" stroke="black" points="393.5,-386 393.5,-405 542.5,-405 542.5,-386 393.5,-386"/>
<text text-anchor="middle" x="468" y="-393" font-family="Helvetica,sans-Serif" font-size="10.00">boomerang/ssl/exp/Const.h</text>
</a>
</g>
</g>
<!-- Node1&#45;&gt;Node16 -->
<g id="edge19" class="edge">
<title>Node1&#45;&gt;Node16</title>
<path fill="none" stroke="midnightblue" d="M834.4,-448.16C758.34,-437.44 621.84,-418.19 538.63,-406.46"/>
<polygon fill="midnightblue" stroke="midnightblue" points="538.9,-402.96 528.51,-405.03 537.92,-409.89 538.9,-402.96"/>
</g>
<!-- Node22 -->
<g id="node22" class="node">
<title>Node22</title>
<g id="a_node22"><a xlink:href="Log_8h.html" target="_top" xlink:title=" ">
<polygon fill="white" stroke="black" points="207.5,-246.5 207.5,-276.5 316.5,-276.5 316.5,-246.5 207.5,-246.5"/>
<text text-anchor="start" x="215.5" y="-264.5" font-family="Helvetica,sans-Serif" font-size="10.00">boomerang/util/log</text>
<text text-anchor="middle" x="262" y="-253.5" font-family="Helvetica,sans-Serif" font-size="10.00">/Log.h</text>
</a>
</g>
</g>
<!-- Node1&#45;&gt;Node22 -->
<g id="edge34" class="edge">
<title>Node1&#45;&gt;Node22</title>
<path fill="none" stroke="midnightblue" d="M834.12,-456.36C719.42,-456.24 461.74,-451.34 385,-411 331.33,-382.79 292.03,-320.16 273.64,-285.94"/>
<polygon fill="midnightblue" stroke="midnightblue" points="276.54,-283.94 268.81,-276.7 270.34,-287.18 276.54,-283.94"/>
</g>
<!-- Node23 -->
<g id="node23" class="node">
<title>Node23</title>
<g id="a_node23"><a xlink:href="ExpVisitor_8h.html" target="_top" xlink:title=" ">
<polygon fill="white" stroke="black" points="1347,-179.5 1347,-209.5 1505,-209.5 1505,-179.5 1347,-179.5"/>
<text text-anchor="start" x="1355" y="-197.5" font-family="Helvetica,sans-Serif" font-size="10.00">boomerang/visitor/expvisitor</text>
<text text-anchor="middle" x="1426" y="-186.5" font-family="Helvetica,sans-Serif" font-size="10.00">/ExpVisitor.h</text>
</a>
</g>
</g>
<!-- Node1&#45;&gt;Node23 -->
<g id="edge39" class="edge">
<title>Node1&#45;&gt;Node23</title>
<path fill="none" stroke="midnightblue" d="M908.65,-447.49C928.22,-438.53 959.86,-423.96 987,-411 1136.53,-339.62 1313.2,-251.84 1388.73,-214.14"/>
<polygon fill="midnightblue" stroke="midnightblue" points="1390.47,-217.18 1397.86,-209.58 1387.35,-210.92 1390.47,-217.18"/>
</g>
<!-- Node24 -->
<g id="node24" class="node">
<title>Node24</title>
<g id="a_node24"><a xlink:href="StmtExpVisitor_8h.html" target="_top" xlink:title=" ">
<polygon fill="white" stroke="black" points="957,-179.5 957,-209.5 1137,-209.5 1137,-179.5 957,-179.5"/>
<text text-anchor="start" x="965" y="-197.5" font-family="Helvetica,sans-Serif" font-size="10.00">boomerang/visitor/stmtexpvisitor</text>
<text text-anchor="middle" x="1047" y="-186.5" font-family="Helvetica,sans-Serif" font-size="10.00">/StmtExpVisitor.h</text>
</a>
</g>
</g>
<!-- Node1&#45;&gt;Node24 -->
<g id="edge42" class="edge">
<title>Node1&#45;&gt;Node24</title>
<path fill="none" stroke="midnightblue" d="M899.03,-447.48C917.44,-429.72 959.8,-386.81 986,-344 999.31,-322.25 1024.75,-255.75 1038.18,-219.57"/>
<polygon fill="midnightblue" stroke="midnightblue" points="1041.61,-220.4 1041.79,-209.81 1035.04,-217.98 1041.61,-220.4"/>
</g>
<!-- Node25 -->
<g id="node25" class="node">
<title>Node25</title>
<g id="a_node25"><a xlink:href="StmtModifier_8h.html" target="_top" xlink:title=" ">
<polygon fill="white" stroke="black" points="1155.5,-179.5 1155.5,-209.5 1328.5,-209.5 1328.5,-179.5 1155.5,-179.5"/>
<text text-anchor="start" x="1163.5" y="-197.5" font-family="Helvetica,sans-Serif" font-size="10.00">boomerang/visitor/stmtmodifier</text>
<text text-anchor="middle" x="1242" y="-186.5" font-family="Helvetica,sans-Serif" font-size="10.00">/StmtModifier.h</text>
</a>
</g>
</g>
<!-- Node1&#45;&gt;Node25 -->
<g id="edge45" class="edge">
<title>Node1&#45;&gt;Node25</title>
<path fill="none" stroke="midnightblue" d="M907.73,-447.38C922.99,-439.37 945.03,-426.39 961,-411 987.01,-385.93 987.34,-374.3 1007,-344 1034.8,-301.16 1026.38,-276.96 1067,-246 1082.88,-233.9 1125.69,-221.44 1164.98,-211.93"/>
<polygon fill="midnightblue" stroke="midnightblue" points="1165.96,-215.3 1174.88,-209.58 1164.34,-208.49 1165.96,-215.3"/>
</g>
<!-- Node26 -->
<g id="node26" class="node">
<title>Node26</title>
<g id="a_node26"><a xlink:href="StmtPartModifier_8h.html" target="_top" xlink:title=" ">
<polygon fill="white" stroke="black" points="803.5,-313.5 803.5,-343.5 976.5,-343.5 976.5,-313.5 803.5,-313.5"/>
<text text-anchor="start" x="811.5" y="-331.5" font-family="Helvetica,sans-Serif" font-size="10.00">boomerang/visitor/stmtmodifier</text>
<text text-anchor="middle" x="890" y="-320.5" font-family="Helvetica,sans-Serif" font-size="10.00">/StmtPartModifier.h</text>
</a>
</g>
</g>
<!-- Node1&#45;&gt;Node26 -->
<g id="edge48" class="edge">
<title>Node1&#45;&gt;Node26</title>
<path fill="none" stroke="midnightblue" d="M890,-447.31C890,-428.3 890,-382.47 890,-353.9"/>
<polygon fill="midnightblue" stroke="midnightblue" points="893.5,-353.89 890,-343.89 886.5,-353.89 893.5,-353.89"/>
</g>
<!-- Node27 -->
<g id="node27" class="node">
<title>Node27</title>
<g id="a_node27"><a xlink:href="StmtVisitor_8h.html" target="_top" xlink:title=" ">
<polygon fill="white" stroke="black" points="0,-380.5 0,-410.5 162,-410.5 162,-380.5 0,-380.5"/>
<text text-anchor="start" x="8" y="-398.5" font-family="Helvetica,sans-Serif" font-size="10.00">boomerang/visitor/stmtvisitor</text>
<text text-anchor="middle" x="81" y="-387.5" font-family="Helvetica,sans-Serif" font-size="10.00">/StmtVisitor.h</text>
</a>
</g>
</g>
<!-- Node1&#45;&gt;Node27 -->
<g id="edge50" class="edge">
<title>Node1&#45;&gt;Node27</title>
<path fill="none" stroke="midnightblue" d="M834.31,-454.17C713.91,-449.84 420.51,-437.31 176,-411 174.72,-410.86 173.42,-410.72 172.13,-410.57"/>
<polygon fill="midnightblue" stroke="midnightblue" points="172.39,-407.08 162.04,-409.36 171.55,-414.03 172.39,-407.08"/>
</g>
<!-- Node28 -->
<g id="node28" class="node">
<title>Node28</title>
<g id="a_node28"><a xlink:title=" ">
<polygon fill="white" stroke="#bfbfbf" points="1109,-386 1109,-405 1247,-405 1247,-386 1109,-386"/>
<text text-anchor="middle" x="1178" y="-393" font-family="Helvetica,sans-Serif" font-size="10.00">QTextStreamManipulator</text>
</a>
</g>
</g>
<!-- Node1&#45;&gt;Node28 -->
<g id="edge52" class="edge">
<title>Node1&#45;&gt;Node28</title>
<path fill="none" stroke="midnightblue" d="M931.26,-447.48C982.8,-436.83 1070.98,-418.61 1126.79,-407.08"/>
<polygon fill="midnightblue" stroke="midnightblue" points="1127.73,-410.46 1136.81,-405.01 1126.31,-403.6 1127.73,-410.46"/>
</g>
<!-- Node3 -->
<g id="node3" class="node">
<title>Node3</title>
<g id="a_node3"><a xlink:href="Statement_8h.html" target="_top" xlink:title=" ">
<polygon fill="white" stroke="black" points="620.5,-246.5 620.5,-276.5 767.5,-276.5 767.5,-246.5 620.5,-246.5"/>
<text text-anchor="start" x="628.5" y="-264.5" font-family="Helvetica,sans-Serif" font-size="10.00">boomerang/ssl/statements</text>
<text text-anchor="middle" x="694" y="-253.5" font-family="Helvetica,sans-Serif" font-size="10.00">/Statement.h</text>
</a>
</g>
</g>
<!-- Node2&#45;&gt;Node3 -->
<g id="edge2" class="edge">
<title>Node2&#45;&gt;Node3</title>
<path fill="none" stroke="midnightblue" d="M711.3,-318.73C708.76,-310.46 704.82,-297.66 701.34,-286.37"/>
<polygon fill="midnightblue" stroke="midnightblue" points="704.62,-285.12 698.34,-276.59 697.93,-287.18 704.62,-285.12"/>
</g>
<!-- Node4 -->
<g id="node4" class="node">
<title>Node4</title>
<g id="a_node4"><a xlink:href="ExpHelp_8h.html" target="_top" xlink:title=" ">
<polygon fill="white" stroke="black" points="537,-185 537,-204 699,-204 699,-185 537,-185"/>
<text text-anchor="middle" x="618" y="-192" font-family="Helvetica,sans-Serif" font-size="10.00">boomerang/ssl/exp/ExpHelp.h</text>
</a>
</g>
</g>
<!-- Node3&#45;&gt;Node4 -->
<g id="edge3" class="edge">
<title>Node3&#45;&gt;Node4</title>
<path fill="none" stroke="midnightblue" d="M677.51,-246.4C665.31,-235.96 648.69,-221.75 636.12,-211"/>
<polygon fill="midnightblue" stroke="midnightblue" points="638.04,-208.03 628.17,-204.19 633.49,-213.35 638.04,-208.03"/>
</g>
<!-- Node6 -->
<g id="node6" class="node">
<title>Node6</title>
<g id="a_node6"><a xlink:title=" ">
<polygon fill="white" stroke="#bfbfbf" points="881,-123.5 881,-142.5 939,-142.5 939,-123.5 881,-123.5"/>
<text text-anchor="middle" x="910" y="-130.5" font-family="Helvetica,sans-Serif" font-size="10.00">memory</text>
</a>
</g>
</g>
<!-- Node3&#45;&gt;Node6 -->
<g id="edge18" class="edge">
<title>Node3&#45;&gt;Node6</title>
<path fill="none" stroke="midnightblue" d="M714.15,-246.44C728.26,-236.48 747.48,-222.68 764,-210 781.29,-196.73 783.3,-190.2 802,-179 824.82,-165.34 852.55,-153.88 874.2,-145.94"/>
<polygon fill="midnightblue" stroke="midnightblue" points="875.44,-149.21 883.68,-142.55 873.08,-142.62 875.44,-149.21"/>
</g>
<!-- Node7 -->
<g id="node7" class="node">
<title>Node7</title>
<g id="a_node7"><a xlink:href="Address_8h.html" target="_top" xlink:title=" ">
<polygon fill="white" stroke="black" points="147,-185 147,-204 289,-204 289,-185 147,-185"/>
<text text-anchor="middle" x="218" y="-192" font-family="Helvetica,sans-Serif" font-size="10.00">boomerang/util/Address.h</text>
</a>
</g>
</g>
<!-- Node3&#45;&gt;Node7 -->
<g id="edge6" class="edge">
<title>Node3&#45;&gt;Node7</title>
<path fill="none" stroke="midnightblue" d="M620.32,-252.2C540.86,-242.98 410.73,-227.13 299,-210 290.68,-208.72 281.89,-207.27 273.3,-205.78"/>
<polygon fill="midnightblue" stroke="midnightblue" points="273.8,-202.31 263.34,-204.03 272.59,-209.21 273.8,-202.31"/>
</g>
<!-- Node13 -->
<g id="node13" class="node">
<title>Node13</title>
<g id="a_node13"><a xlink:title=" ">
<polygon fill="white" stroke="#bfbfbf" points="811,-185 811,-204 863,-204 863,-185 811,-185"/>
<text text-anchor="middle" x="837" y="-192" font-family="Helvetica,sans-Serif" font-size="10.00">cassert</text>
</a>
</g>
</g>
<!-- Node3&#45;&gt;Node13 -->
<g id="edge15" class="edge">
<title>Node3&#45;&gt;Node13</title>
<path fill="none" stroke="midnightblue" d="M725.03,-246.4C750.01,-235.04 784.82,-219.22 808.96,-208.24"/>
<polygon fill="midnightblue" stroke="midnightblue" points="810.63,-211.33 818.28,-204.01 807.73,-204.96 810.63,-211.33"/>
</g>
<!-- Node14 -->
<g id="node14" class="node">
<title>Node14</title>
<g id="a_node14"><a xlink:title=" ">
<polygon fill="white" stroke="#bfbfbf" points="487,-185 487,-204 519,-204 519,-185 487,-185"/>
<text text-anchor="middle" x="503" y="-192" font-family="Helvetica,sans-Serif" font-size="10.00">list</text>
</a>
</g>
</g>
<!-- Node3&#45;&gt;Node14 -->
<g id="edge16" class="edge">
<title>Node3&#45;&gt;Node14</title>
<path fill="none" stroke="midnightblue" d="M636.36,-246.48C603.88,-237.71 562.94,-225.21 528,-210 527.15,-209.63 526.3,-209.24 525.45,-208.84"/>
<polygon fill="midnightblue" stroke="midnightblue" points="526.93,-205.66 516.46,-204.06 523.65,-211.84 526.93,-205.66"/>
</g>
<!-- Node15 -->
<g id="node15" class="node">
<title>Node15</title>
<g id="a_node15"><a xlink:title=" ">
<polygon fill="white" stroke="#bfbfbf" points="717,-185 717,-204 755,-204 755,-185 717,-185"/>
<text text-anchor="middle" x="736" y="-192" font-family="Helvetica,sans-Serif" font-size="10.00">map</text>
</a>
</g>
</g>
<!-- Node3&#45;&gt;Node15 -->
<g id="edge17" class="edge">
<title>Node3&#45;&gt;Node15</title>
<path fill="none" stroke="midnightblue" d="M703.11,-246.4C709.47,-236.56 717.99,-223.38 724.76,-212.89"/>
<polygon fill="midnightblue" stroke="midnightblue" points="727.89,-214.49 730.38,-204.19 722.02,-210.69 727.89,-214.49"/>
</g>
<!-- Node5 -->
<g id="node5" class="node">
<title>Node5</title>
<g id="a_node5"><a xlink:href="BoomerangAPI_8h.html" target="_top" xlink:title=" ">
<polygon fill="white" stroke="black" points="483.5,-56.5 483.5,-86.5 638.5,-86.5 638.5,-56.5 483.5,-56.5"/>
<text text-anchor="start" x="491.5" y="-74.5" font-family="Helvetica,sans-Serif" font-size="10.00">boomerang/core/Boomerang</text>
<text text-anchor="middle" x="561" y="-63.5" font-family="Helvetica,sans-Serif" font-size="10.00">API.h</text>
</a>
</g>
</g>
<!-- Node4&#45;&gt;Node5 -->
<g id="edge4" class="edge">
<title>Node4&#45;&gt;Node5</title>
<path fill="none" stroke="midnightblue" d="M616.4,-184.92C613.65,-171.3 607.31,-144.11 597,-123 592.23,-113.23 585.62,-103.32 579.37,-94.89"/>
<polygon fill="midnightblue" stroke="midnightblue" points="581.95,-92.5 573.08,-86.71 576.4,-96.77 581.95,-92.5"/>
</g>
<!-- Node4&#45;&gt;Node6 -->
<g id="edge5" class="edge">
<title>Node4&#45;&gt;Node6</title>
<path fill="none" stroke="midnightblue" d="M659.84,-184.98C716.13,-173.5 815.54,-153.25 870.58,-142.03"/>
<polygon fill="midnightblue" stroke="midnightblue" points="871.54,-145.41 880.64,-139.98 870.14,-138.55 871.54,-145.41"/>
</g>
<!-- Node7&#45;&gt;Node5 -->
<g id="edge7" class="edge">
<title>Node7&#45;&gt;Node5</title>
<path fill="none" stroke="midnightblue" d="M232.05,-184.9C259.68,-168.1 320.36,-131.8 343,-123 384.73,-106.79 433.07,-94.93 473.61,-86.81"/>
<polygon fill="midnightblue" stroke="midnightblue" points="474.33,-90.23 483.47,-84.87 472.99,-83.36 474.33,-90.23"/>
</g>
<!-- Node8 -->
<g id="node8" class="node">
<title>Node8</title>
<g id="a_node8"><a xlink:href="OStream_8h.html" target="_top" xlink:title=" ">
<polygon fill="white" stroke="black" points="147,-123.5 147,-142.5 293,-142.5 293,-123.5 147,-123.5"/>
<text text-anchor="middle" x="220" y="-130.5" font-family="Helvetica,sans-Serif" font-size="10.00">boomerang/util/OStream.h</text>
</a>
</g>
</g>
<!-- Node7&#45;&gt;Node8 -->
<g id="edge8" class="edge">
<title>Node7&#45;&gt;Node8</title>
<path fill="none" stroke="midnightblue" d="M218.29,-184.98C218.57,-176.58 219.01,-163.48 219.37,-152.66"/>
<polygon fill="midnightblue" stroke="midnightblue" points="222.88,-152.62 219.71,-142.51 215.88,-152.39 222.88,-152.62"/>
</g>
<!-- Node9 -->
<g id="node9" class="node">
<title>Node9</title>
<g id="a_node9"><a xlink:href="Types_8h.html" target="_top" xlink:title=" ">
<polygon fill="white" stroke="black" points="50.5,-62 50.5,-81 181.5,-81 181.5,-62 50.5,-62"/>
<text text-anchor="middle" x="116" y="-69" font-family="Helvetica,sans-Serif" font-size="10.00">boomerang/util/Types.h</text>
</a>
</g>
</g>
<!-- Node7&#45;&gt;Node9 -->
<g id="edge13" class="edge">
<title>Node7&#45;&gt;Node9</title>
<path fill="none" stroke="midnightblue" d="M196.29,-184.91C178.23,-176.7 153.11,-162.67 138,-143 126.42,-127.93 120.88,-106.68 118.26,-91.45"/>
<polygon fill="midnightblue" stroke="midnightblue" points="121.67,-90.59 116.78,-81.19 114.74,-91.59 121.67,-90.59"/>
</g>
<!-- Node12 -->
<g id="node12" class="node">
<title>Node12</title>
<g id="a_node12"><a xlink:title=" ">
<polygon fill="white" stroke="#bfbfbf" points="351.5,-123.5 351.5,-142.5 404.5,-142.5 404.5,-123.5 351.5,-123.5"/>
<text text-anchor="middle" x="378" y="-130.5" font-family="Helvetica,sans-Serif" font-size="10.00">QString</text>
</a>
</g>
</g>
<!-- Node7&#45;&gt;Node12 -->
<g id="edge14" class="edge">
<title>Node7&#45;&gt;Node12</title>
<path fill="none" stroke="midnightblue" d="M240.92,-184.98C268.37,-174.77 314.52,-157.61 345.6,-146.05"/>
<polygon fill="midnightblue" stroke="midnightblue" points="346.97,-149.28 355.12,-142.51 344.53,-142.71 346.97,-149.28"/>
</g>
<!-- Node8&#45;&gt;Node5 -->
<g id="edge9" class="edge">
<title>Node8&#45;&gt;Node5</title>
<path fill="none" stroke="midnightblue" d="M268.86,-123.48C322,-114.2 408.04,-99.19 473.01,-87.85"/>
<polygon fill="midnightblue" stroke="midnightblue" points="474,-91.23 483.25,-86.07 472.8,-84.34 474,-91.23"/>
</g>
<!-- Node8&#45;&gt;Node9 -->
<g id="edge10" class="edge">
<title>Node8&#45;&gt;Node9</title>
<path fill="none" stroke="midnightblue" d="M205.1,-123.48C188.03,-113.71 159.84,-97.58 139.74,-86.08"/>
<polygon fill="midnightblue" stroke="midnightblue" points="141.29,-82.94 130.87,-81.01 137.81,-89.01 141.29,-82.94"/>
</g>
<!-- Node11 -->
<g id="node11" class="node">
<title>Node11</title>
<g id="a_node11"><a xlink:title=" ">
<polygon fill="white" stroke="#bfbfbf" points="200,-62 200,-81 246,-81 246,-62 200,-62"/>
<text text-anchor="middle" x="223" y="-69" font-family="Helvetica,sans-Serif" font-size="10.00">cstdio</text>
</a>
</g>
</g>
<!-- Node8&#45;&gt;Node11 -->
<g id="edge12" class="edge">
<title>Node8&#45;&gt;Node11</title>
<path fill="none" stroke="midnightblue" d="M220.43,-123.48C220.85,-115.08 221.51,-101.98 222.06,-91.16"/>
<polygon fill="midnightblue" stroke="midnightblue" points="225.56,-91.17 222.57,-81.01 218.57,-90.82 225.56,-91.17"/>
</g>
<!-- Node10 -->
<g id="node10" class="node">
<title>Node10</title>
<g id="a_node10"><a xlink:title=" ">
<polygon fill="white" stroke="#bfbfbf" points="91,-0.5 91,-19.5 141,-19.5 141,-0.5 91,-0.5"/>
<text text-anchor="middle" x="116" y="-7.5" font-family="Helvetica,sans-Serif" font-size="10.00">cstdint</text>
</a>
</g>
</g>
<!-- Node9&#45;&gt;Node10 -->
<g id="edge11" class="edge">
<title>Node9&#45;&gt;Node10</title>
<path fill="none" stroke="midnightblue" d="M116,-61.98C116,-53.58 116,-40.48 116,-29.66"/>
<polygon fill="midnightblue" stroke="midnightblue" points="119.5,-29.51 116,-19.51 112.5,-29.51 119.5,-29.51"/>
</g>
<!-- Node16&#45;&gt;Node7 -->
<g id="edge32" class="edge">
<title>Node16&#45;&gt;Node7</title>
<path fill="none" stroke="midnightblue" d="M401.12,-385.99C336.98,-373.89 243.51,-345.01 199,-277 186.18,-257.41 197.03,-230.19 206.83,-212.7"/>
<polygon fill="midnightblue" stroke="midnightblue" points="209.85,-214.48 212.01,-204.1 203.85,-210.86 209.85,-214.48"/>
</g>
<!-- Node17 -->
<g id="node17" class="node">
<title>Node17</title>
<g id="a_node17"><a xlink:href="Exp_8h.html" target="_top" xlink:title=" ">
<polygon fill="white" stroke="black" points="455,-319 455,-338 595,-338 595,-319 455,-319"/>
<text text-anchor="middle" x="525" y="-326" font-family="Helvetica,sans-Serif" font-size="10.00">boomerang/ssl/exp/Exp.h</text>
</a>
</g>
</g>
<!-- Node16&#45;&gt;Node17 -->
<g id="edge20" class="edge">
<title>Node16&#45;&gt;Node17</title>
<path fill="none" stroke="midnightblue" d="M475.69,-385.73C484.66,-375.5 499.69,-358.36 510.8,-345.69"/>
<polygon fill="midnightblue" stroke="midnightblue" points="513.47,-347.95 517.43,-338.13 508.21,-343.34 513.47,-347.95"/>
</g>
<!-- Node21 -->
<g id="node21" class="node">
<title>Node21</title>
<g id="a_node21"><a xlink:title=" ">
<polygon fill="white" stroke="#bfbfbf" points="385.5,-319 385.5,-338 436.5,-338 436.5,-319 385.5,-319"/>
<text text-anchor="middle" x="411" y="-326" font-family="Helvetica,sans-Serif" font-size="10.00">variant</text>
</a>
</g>
</g>
<!-- Node16&#45;&gt;Node21 -->
<g id="edge33" class="edge">
<title>Node16&#45;&gt;Node21</title>
<path fill="none" stroke="midnightblue" d="M460.31,-385.73C451.34,-375.5 436.31,-358.36 425.2,-345.69"/>
<polygon fill="midnightblue" stroke="midnightblue" points="427.79,-343.34 418.57,-338.13 422.53,-347.95 427.79,-343.34"/>
</g>
<!-- Node17&#45;&gt;Node3 -->
<g id="edge24" class="edge">
<title>Node17&#45;&gt;Node3</title>
<path fill="none" stroke="midnightblue" d="M547.44,-318.87C573.02,-309.03 615.51,-292.69 648.17,-280.13"/>
<polygon fill="midnightblue" stroke="midnightblue" points="649.45,-283.38 657.53,-276.53 646.94,-276.85 649.45,-283.38"/>
</g>
<!-- Node17&#45;&gt;Node4 -->
<g id="edge21" class="edge">
<title>Node17&#45;&gt;Node4</title>
<path fill="none" stroke="midnightblue" d="M531.1,-318.84C546.28,-297.3 585.94,-241 606.01,-212.52"/>
<polygon fill="midnightblue" stroke="midnightblue" points="609.1,-214.21 612,-204.02 603.38,-210.18 609.1,-214.21"/>
</g>
<!-- Node17&#45;&gt;Node6 -->
<g id="edge29" class="edge">
<title>Node17&#45;&gt;Node6</title>
<path fill="none" stroke="midnightblue" d="M595.16,-319.81C666.12,-311.17 770.27,-295.85 806,-277 857.72,-249.72 890.05,-183.88 903.21,-151.95"/>
<polygon fill="midnightblue" stroke="midnightblue" points="906.51,-153.12 906.94,-142.53 900.01,-150.54 906.51,-153.12"/>
</g>
<!-- Node17&#45;&gt;Node8 -->
<g id="edge25" class="edge">
<title>Node17&#45;&gt;Node8</title>
<path fill="none" stroke="midnightblue" d="M479.93,-318.93C468.85,-316.91 457.01,-314.81 446,-313 336.54,-294.98 296.96,-329.06 199,-277 153.7,-252.92 111.87,-223.15 138,-179 146.97,-163.84 163.07,-153.45 178.63,-146.5"/>
<polygon fill="midnightblue" stroke="midnightblue" points="180.25,-149.63 188.19,-142.62 177.61,-143.14 180.25,-149.63"/>
</g>
<!-- Node17&#45;&gt;Node12 -->
<g id="edge26" class="edge">
<title>Node17&#45;&gt;Node12</title>
<path fill="none" stroke="midnightblue" d="M512.24,-318.9C499.09,-309.62 478.52,-293.89 464,-277 429.17,-236.51 399.91,-180.17 386.25,-151.82"/>
<polygon fill="midnightblue" stroke="midnightblue" points="389.39,-150.26 381.95,-142.71 383.06,-153.25 389.39,-150.26"/>
</g>
<!-- Node17&#45;&gt;Node13 -->
<g id="edge27" class="edge">
<title>Node17&#45;&gt;Node13</title>
<path fill="none" stroke="midnightblue" d="M595.05,-319.21C658.81,-310.64 747.36,-295.87 777,-277 801.5,-261.4 819.37,-231.97 828.97,-213.07"/>
<polygon fill="midnightblue" stroke="midnightblue" points="832.13,-214.57 833.33,-204.04 825.83,-211.53 832.13,-214.57"/>
</g>
<!-- Node17&#45;&gt;Node14 -->
<g id="edge28" class="edge">
<title>Node17&#45;&gt;Node14</title>
<path fill="none" stroke="midnightblue" d="M526.81,-318.79C529.6,-303.72 534.06,-271.92 528,-246 525.29,-234.41 519.5,-222.42 514.18,-213.04"/>
<polygon fill="midnightblue" stroke="midnightblue" points="517.1,-211.1 508.95,-204.33 511.1,-214.7 517.1,-211.1"/>
</g>
<!-- Node18 -->
<g id="node18" class="node">
<title>Node18</title>
<g id="a_node18"><a xlink:href="Operator_8h.html" target="_top" xlink:title=" ">
<polygon fill="white" stroke="black" points="424,-123.5 424,-142.5 588,-142.5 588,-123.5 424,-123.5"/>
<text text-anchor="middle" x="506" y="-130.5" font-family="Helvetica,sans-Serif" font-size="10.00">boomerang/ssl/exp/Operator.h</text>
</a>
</g>
</g>
<!-- Node17&#45;&gt;Node18 -->
<g id="edge22" class="edge">
<title>Node17&#45;&gt;Node18</title>
<path fill="none" stroke="midnightblue" d="M512.66,-318.71C501.21,-309.72 484.93,-294.61 478,-277 462.06,-236.47 466.03,-220.88 478,-179 480.9,-168.84 486.83,-158.75 492.49,-150.7"/>
<polygon fill="midnightblue" stroke="midnightblue" points="495.38,-152.69 498.59,-142.59 489.78,-148.48 495.38,-152.69"/>
</g>
<!-- Node19 -->
<g id="node19" class="node">
<title>Node19</title>
<g id="a_node19"><a xlink:title=" ">
<polygon fill="white" stroke="#bfbfbf" points="487,-252 487,-271 519,-271 519,-252 487,-252"/>
<text text-anchor="middle" x="503" y="-259" font-family="Helvetica,sans-Serif" font-size="10.00">set</text>
</a>
</g>
</g>
<!-- Node17&#45;&gt;Node19 -->
<g id="edge30" class="edge">
<title>Node17&#45;&gt;Node19</title>
<path fill="none" stroke="midnightblue" d="M522.03,-318.73C518.77,-309.09 513.42,-293.3 509.23,-280.91"/>
<polygon fill="midnightblue" stroke="midnightblue" points="512.44,-279.48 505.92,-271.13 505.81,-281.72 512.44,-279.48"/>
</g>
<!-- Node20 -->
<g id="node20" class="node">
<title>Node20</title>
<g id="a_node20"><a xlink:title=" ">
<polygon fill="white" stroke="#bfbfbf" points="307.5,-185 307.5,-204 354.5,-204 354.5,-185 307.5,-185"/>
<text text-anchor="middle" x="331" y="-192" font-family="Helvetica,sans-Serif" font-size="10.00">vector</text>
</a>
</g>
</g>
<!-- Node17&#45;&gt;Node20 -->
<g id="edge31" class="edge">
<title>Node17&#45;&gt;Node20</title>
<path fill="none" stroke="midnightblue" d="M487.28,-318.97C447.04,-309.24 386.7,-292.65 369,-277 350.22,-260.4 340.04,-232.56 335.07,-214.11"/>
<polygon fill="midnightblue" stroke="midnightblue" points="338.44,-213.14 332.67,-204.25 331.64,-214.8 338.44,-213.14"/>
</g>
<!-- Node18&#45;&gt;Node5 -->
<g id="edge23" class="edge">
<title>Node18&#45;&gt;Node5</title>
<path fill="none" stroke="midnightblue" d="M513.88,-123.48C520.98,-115.79 531.72,-104.17 541.16,-93.96"/>
<polygon fill="midnightblue" stroke="midnightblue" points="543.82,-96.24 548.04,-86.52 538.68,-91.49 543.82,-96.24"/>
</g>
<!-- Node22&#45;&gt;Node6 -->
<g id="edge37" class="edge">
<title>Node22&#45;&gt;Node6</title>
<path fill="none" stroke="midnightblue" d="M291.99,-246.36C333,-227.67 409.35,-195.24 478,-179 619.92,-145.43 793.97,-136.9 870.6,-134.73"/>
<polygon fill="midnightblue" stroke="midnightblue" points="870.85,-138.23 880.75,-134.47 870.67,-131.23 870.85,-138.23"/>
</g>
<!-- Node22&#45;&gt;Node7 -->
<g id="edge35" class="edge">
<title>Node22&#45;&gt;Node7</title>
<path fill="none" stroke="midnightblue" d="M252.45,-246.4C245.73,-236.46 236.69,-223.11 229.56,-212.57"/>
<polygon fill="midnightblue" stroke="midnightblue" points="232.39,-210.51 223.89,-204.19 226.59,-214.44 232.39,-210.51"/>
</g>
<!-- Node22&#45;&gt;Node9 -->
<g id="edge36" class="edge">
<title>Node22&#45;&gt;Node9</title>
<path fill="none" stroke="midnightblue" d="M207.25,-250.27C182.74,-242.99 155.49,-230.67 138,-210 109.33,-176.11 110.47,-120.09 113.41,-91.13"/>
<polygon fill="midnightblue" stroke="midnightblue" points="116.89,-91.49 114.61,-81.14 109.94,-90.65 116.89,-91.49"/>
</g>
<!-- Node22&#45;&gt;Node20 -->
<g id="edge38" class="edge">
<title>Node22&#45;&gt;Node20</title>
<path fill="none" stroke="midnightblue" d="M276.97,-246.4C287.94,-236.06 302.84,-222.02 314.22,-211.31"/>
<polygon fill="midnightblue" stroke="midnightblue" points="316.89,-213.6 321.77,-204.19 312.09,-208.5 316.89,-213.6"/>
</g>
<!-- Node23&#45;&gt;Node5 -->
<g id="edge40" class="edge">
<title>Node23&#45;&gt;Node5</title>
<path fill="none" stroke="midnightblue" d="M1357.21,-179.5C1279.48,-164.04 1149.06,-139.21 1036,-123 901.35,-103.7 744.25,-88.4 648.74,-79.9"/>
<polygon fill="midnightblue" stroke="midnightblue" points="648.82,-76.39 638.55,-79 648.21,-83.36 648.82,-76.39"/>
</g>
<!-- Node23&#45;&gt;Node6 -->
<g id="edge41" class="edge">
<title>Node23&#45;&gt;Node6</title>
<path fill="none" stroke="midnightblue" d="M1346.88,-180.24C1343.88,-179.81 1340.92,-179.39 1338,-179 1195.15,-159.74 1024.53,-143.95 949.13,-137.34"/>
<polygon fill="midnightblue" stroke="midnightblue" points="949.4,-133.85 939.13,-136.47 948.79,-140.83 949.4,-133.85"/>
</g>
<!-- Node24&#45;&gt;Node5 -->
<g id="edge43" class="edge">
<title>Node24&#45;&gt;Node5</title>
<path fill="none" stroke="midnightblue" d="M1032.29,-179.42C1014.09,-162.9 981.39,-136.11 948,-123 895.16,-102.24 745.68,-87.02 648.72,-78.98"/>
<polygon fill="midnightblue" stroke="midnightblue" points="648.88,-75.49 638.63,-78.16 648.31,-82.46 648.88,-75.49"/>
</g>
<!-- Node24&#45;&gt;Node6 -->
<g id="edge44" class="edge">
<title>Node24&#45;&gt;Node6</title>
<path fill="none" stroke="midnightblue" d="M1014.53,-179.4C991.65,-169.46 961.27,-156.26 939.16,-146.66"/>
<polygon fill="midnightblue" stroke="midnightblue" points="940.5,-143.43 929.93,-142.66 937.71,-149.85 940.5,-143.43"/>
</g>
<!-- Node25&#45;&gt;Node5 -->
<g id="edge46" class="edge">
<title>Node25&#45;&gt;Node5</title>
<path fill="none" stroke="midnightblue" d="M1197.31,-179.44C1145.34,-163.58 1056.74,-138.04 979,-123 865.9,-101.12 733.64,-87.04 648.67,-79.45"/>
<polygon fill="midnightblue" stroke="midnightblue" points="648.82,-75.95 638.55,-78.56 648.2,-82.92 648.82,-75.95"/>
</g>
<!-- Node25&#45;&gt;Node6 -->
<g id="edge47" class="edge">
<title>Node25&#45;&gt;Node6</title>
<path fill="none" stroke="midnightblue" d="M1163.74,-179.47C1096.34,-167.4 1001.87,-150.46 949.28,-141.04"/>
<polygon fill="midnightblue" stroke="midnightblue" points="949.8,-137.58 939.34,-139.26 948.56,-144.47 949.8,-137.58"/>
</g>
<!-- Node26&#45;&gt;Node6 -->
<g id="edge49" class="edge">
<title>Node26&#45;&gt;Node6</title>
<path fill="none" stroke="midnightblue" d="M895.33,-313.14C898.77,-303.16 902.97,-289.46 905,-277 912.18,-233.02 911.75,-180.47 910.85,-152.95"/>
<polygon fill="midnightblue" stroke="midnightblue" points="914.34,-152.64 910.46,-142.78 907.35,-152.91 914.34,-152.64"/>
</g>
<!-- Node27&#45;&gt;Node5 -->
<g id="edge51" class="edge">
<title>Node27&#45;&gt;Node5</title>
<path fill="none" stroke="midnightblue" d="M81,-380.24C81,-356.03 81,-305.35 81,-262.5 81,-262.5 81,-262.5 81,-193.5 81,-153.21 102.73,-142.49 138,-123 193.81,-92.16 366.36,-79.95 473.05,-75.27"/>
<polygon fill="midnightblue" stroke="midnightblue" points="473.33,-78.76 483.17,-74.84 473.03,-71.77 473.33,-78.76"/>
</g>
</g>
</svg>
        <g id="navigator" transform="translate(0 0)" fill="#404254">
                <rect fill="#f2f5e9" fill-opacity="0.5" stroke="#606060" stroke-width=".5" x="0" y="0" width="60" height="60"/>
                <use id="zoomplus" xlink:href="#zoomPlus" x="17" y="9" onmousedown="handleZoom(evt,'in')"/>
                <use id="zoomminus" xlink:href="#zoomMin" x="42" y="9" onmousedown="handleZoom(evt,'out')"/>
                <use id="reset" xlink:href="#resetDef" x="30" y="36" onmousedown="handleReset()"/>
                <g id="arrowUp" xlink:href="#dirArrow" transform="translate(30 24)" onmousedown="handlePan(0,-1)">
                  <use xlink:href="#rim" fill="#404040">
                        <set attributeName="fill" to="#808080" begin="arrowUp.mouseover" end="arrowUp.mouseout"/>
                  </use>
                  <path fill="none" stroke="white" stroke-width="1.5" d="M0,-3.0v7 M-2.5,-0.5L0,-3.0L2.5,-0.5"/>
                </g>
                <g id="arrowRight" xlink:href="#dirArrow" transform="rotate(90) translate(36 -43)" onmousedown="handlePan(1,0)">
                  <use xlink:href="#rim" fill="#404040">
                        <set attributeName="fill" to="#808080" begin="arrowRight.mouseover" end="arrowRight.mouseout"/>
                  </use>
                  <path fill="none" stroke="white" stroke-width="1.5" d="M0,-3.0v7 M-2.5,-0.5L0,-3.0L2.5,-0.5"/>
                </g>
                <g id="arrowDown" xlink:href="#dirArrow" transform="rotate(180) translate(-30 -48)" onmousedown="handlePan(0,1)">
                  <use xlink:href="#rim" fill="#404040">
                        <set attributeName="fill" to="#808080" begin="arrowDown.mouseover" end="arrowDown.mouseout"/>
                  </use>
                  <path fill="none" stroke="white" stroke-width="1.5" d="M0,-3.0v7 M-2.5,-0.5L0,-3.0L2.5,-0.5"/>
                </g>
                <g id="arrowLeft" xlink:href="#dirArrow" transform="rotate(270) translate(-36 17)" onmousedown="handlePan(-1,0)">
                  <use xlink:href="#rim" fill="#404040">
                        <set attributeName="fill" to="#808080" begin="arrowLeft.mouseover" end="arrowLeft.mouseout"/>
                  </use>
                  <path fill="none" stroke="white" stroke-width="1.5" d="M0,-3.0v7 M-2.5,-0.5L0,-3.0L2.5,-0.5"/>
                </g>
        </g>
        <svg viewBox="0 0 15 15" width="100%" height="30px" preserveAspectRatio="xMaxYMin meet">
         <g id="arrow_out" transform="scale(0.3 0.3)">
          <a xlink:href="GotoStatement_8cpp__incl_org.svg" target="_base">
           <rect id="button" ry="5" rx="5" y="6" x="6" height="38" width="38"
                fill="#f2f5e9" fill-opacity="0.5" stroke="#606060" stroke-width="1.0"/>
           <path id="arrow"
             d="M 11.500037,31.436501 C 11.940474,20.09759 22.043105,11.32322 32.158766,21.979434 L 37.068811,17.246167 C 37.068811,17.246167 37.088388,32 37.088388,32 L 22.160133,31.978069 C 22.160133,31.978069 26.997745,27.140456 26.997745,27.140456 C 18.528582,18.264221 13.291696,25.230495 11.500037,31.436501 z"
             style="fill:#404040;"/>
          </a>
         </g>
        </svg>
</svg>
