<?xml version="1.0" encoding="UTF-8" standalone="no"?>
<!DOCTYPE svg PUBLIC "-//W3C//DTD SVG 1.1//EN"
 "http://www.w3.org/Graphics/SVG/1.1/DTD/svg11.dtd">
<!-- Generated by graphviz version 2.43.0 (0)
 -->
<!-- Title: IDecoder.h Pages: 1 -->
<!--zoomable 308 -->
<svg id="main" version="1.1" xmlns="http://www.w3.org/2000/svg" xmlns:xlink="http://www.w3.org/1999/xlink" xml:space="preserve" onload="init(evt)">
<style type="text/css"><![CDATA[
.edge:hover path { stroke: red; }
.edge:hover polygon { stroke: red; fill: red; }
]]></style>
<script type="text/javascript"><![CDATA[
var edges = document.getElementsByTagName('g');
if (edges && edges.length) {
  for (var i=0;i<edges.length;i++) {
    if (edges[i].id.substr(0,4)=='edge') {
      edges[i].setAttribute('class','edge');
    }
  }
}
]]></script>
        <defs>
                <circle id="rim" cx="0" cy="0" r="7"/>
                <circle id="rim2" cx="0" cy="0" r="3.5"/>
                <g id="zoomPlus">
                        <use xlink:href="#rim" fill="#404040">
                                <set attributeName="fill" to="#808080" begin="zoomplus.mouseover" end="zoomplus.mouseout"/>
                        </use>
                        <path d="M-4,0h8M0,-4v8" fill="none" stroke="white" stroke-width="1.5" pointer-events="none"/>
                </g>
                <g id="zoomMin">
                        <use xlink:href="#rim" fill="#404040">
                                <set attributeName="fill" to="#808080" begin="zoomminus.mouseover" end="zoomminus.mouseout"/>
                        </use>
                        <path d="M-4,0h8" fill="none" stroke="white" stroke-width="1.5" pointer-events="none"/>
                </g>
                <g id="dirArrow">
                        <path fill="none" stroke="white" stroke-width="1.5" d="M0,-3.0v7 M-2.5,-0.5L0,-3.0L2.5,-0.5"/>
                </g>
               <g id="resetDef">
                       <use xlink:href="#rim2" fill="#404040">
                               <set attributeName="fill" to="#808080" begin="reset.mouseover" end="reset.mouseout"/>
                       </use>
               </g>
        </defs>

<script type="text/javascript">
var viewWidth = 4410;
var viewHeight = 308;
var sectionId = 'dynsection-1';
</script>
<script xlink:href="svgpan.js"/>
<svg id="graph" class="graph">
<g id="viewport">
<title>IDecoder.h</title>
<polygon fill="white" stroke="transparent" points="-4,4 -4,-304 4405.5,-304 4405.5,4 -4,4"/>
<!-- Node1 -->
<g id="node1" class="node">
<title>Node1</title>
<g id="a_node1"><a xlink:title=" ">
<polygon fill="#bfbfbf" stroke="black" points="228,-280.5 228,-299.5 297,-299.5 297,-280.5 228,-280.5"/>
<text text-anchor="middle" x="262.5" y="-287.5" font-family="Helvetica,sans-Serif" font-size="10.00">IDecoder.h</text>
</a>
</g>
</g>
<!-- Node2 -->
<g id="node2" class="node">
<title>Node2</title>
<g id="a_node2"><a xlink:href="PluginType_8h.html" target="_top" xlink:title=" ">
<polygon fill="white" stroke="black" points="1101.5,-224.5 1101.5,-243.5 1179.5,-243.5 1179.5,-224.5 1101.5,-224.5"/>
<text text-anchor="middle" x="1140.5" y="-231.5" font-family="Helvetica,sans-Serif" font-size="10.00">PluginType.h</text>
</a>
</g>
</g>
<!-- Node1&#45;&gt;Node2 -->
<g id="edge1" class="edge">
<title>Node1&#45;&gt;Node2</title>
<path fill="none" stroke="midnightblue" d="M307.6,-286.23C460.56,-276.82 958.05,-246.22 1101.47,-237.4"/>
<polygon fill="midnightblue" stroke="midnightblue" points="306.96,-282.76 297.19,-286.87 307.39,-289.75 306.96,-282.76"/>
</g>
<!-- Node13 -->
<g id="node13" class="node">
<title>Node13</title>
<g id="a_node13"><a xlink:href="Prog_8cpp.html" target="_top" xlink:title=" ">
<polygon fill="white" stroke="black" points="0,-0.5 0,-19.5 59,-19.5 59,-0.5 0,-0.5"/>
<text text-anchor="middle" x="29.5" y="-7.5" font-family="Helvetica,sans-Serif" font-size="10.00">Prog.cpp</text>
</a>
</g>
</g>
<!-- Node1&#45;&gt;Node13 -->
<g id="edge47" class="edge">
<title>Node1&#45;&gt;Node13</title>
<path fill="none" stroke="midnightblue" d="M217.87,-282.41C163.12,-271.52 77.5,-244.08 77.5,-179 77.5,-179 77.5,-179 77.5,-121 77.5,-80.16 49.36,-37.38 36.17,-19.56"/>
<polygon fill="midnightblue" stroke="midnightblue" points="217.23,-285.86 227.7,-284.26 218.52,-278.98 217.23,-285.86"/>
</g>
<!-- Node20 -->
<g id="node20" class="node">
<title>Node20</title>
<g id="a_node20"><a xlink:href="DefaultFrontEnd_8cpp.html" target="_top" xlink:title=" ">
<polygon fill="white" stroke="black" points="77.5,-0.5 77.5,-19.5 193.5,-19.5 193.5,-0.5 77.5,-0.5"/>
<text text-anchor="middle" x="135.5" y="-7.5" font-family="Helvetica,sans-Serif" font-size="10.00">DefaultFrontEnd.cpp</text>
</a>
</g>
</g>
<!-- Node1&#45;&gt;Node20 -->
<g id="edge48" class="edge">
<title>Node1&#45;&gt;Node20</title>
<path fill="none" stroke="midnightblue" d="M236.51,-275.13C206.88,-257.2 162.5,-223.02 162.5,-179 162.5,-179 162.5,-179 162.5,-121 162.5,-82.26 146.51,-38 139.14,-19.66"/>
<polygon fill="midnightblue" stroke="midnightblue" points="235.13,-278.37 245.54,-280.36 238.64,-272.32 235.13,-278.37"/>
</g>
<!-- Node68 -->
<g id="node47" class="node">
<title>Node68</title>
<g id="a_node47"><a xlink:href="CapstoneDecoder_8h.html" target="_top" xlink:title=" ">
<polygon fill="white" stroke="black" points="620.5,-224.5 620.5,-243.5 732.5,-243.5 732.5,-224.5 620.5,-224.5"/>
<text text-anchor="middle" x="676.5" y="-231.5" font-family="Helvetica,sans-Serif" font-size="10.00">CapstoneDecoder.h</text>
</a>
</g>
</g>
<!-- Node1&#45;&gt;Node68 -->
<g id="edge49" class="edge">
<title>Node1&#45;&gt;Node68</title>
<path fill="none" stroke="midnightblue" d="M307.27,-283.16C383.24,-273.25 537.23,-253.17 620.32,-242.33"/>
<polygon fill="midnightblue" stroke="midnightblue" points="306.55,-279.72 297.09,-284.49 307.45,-286.67 306.55,-279.72"/>
</g>
<!-- Node71 -->
<g id="node50" class="node">
<title>Node71</title>
<g id="a_node50"><a xlink:href="ST20Decoder_8h.html" target="_top" xlink:title=" ">
<polygon fill="white" stroke="black" points="217.5,-56.5 217.5,-75.5 307.5,-75.5 307.5,-56.5 217.5,-56.5"/>
<text text-anchor="middle" x="262.5" y="-63.5" font-family="Helvetica,sans-Serif" font-size="10.00">ST20Decoder.h</text>
</a>
</g>
</g>
<!-- Node1&#45;&gt;Node71 -->
<g id="edge55" class="edge">
<title>Node1&#45;&gt;Node71</title>
<path fill="none" stroke="midnightblue" d="M262.5,-270.3C262.5,-224.64 262.5,-108.85 262.5,-75.88"/>
<polygon fill="midnightblue" stroke="midnightblue" points="259,-270.3 262.5,-280.3 266,-270.3 259,-270.3"/>
</g>
<!-- Node3 -->
<g id="node3" class="node">
<title>Node3</title>
<g id="a_node3"><a xlink:href="Plugin_8h.html" target="_top" xlink:title=" ">
<polygon fill="white" stroke="black" points="2891.5,-168.5 2891.5,-187.5 2947.5,-187.5 2947.5,-168.5 2891.5,-168.5"/>
<text text-anchor="middle" x="2919.5" y="-175.5" font-family="Helvetica,sans-Serif" font-size="10.00">Plugin.h</text>
</a>
</g>
</g>
<!-- Node2&#45;&gt;Node3 -->
<g id="edge2" class="edge">
<title>Node2&#45;&gt;Node3</title>
<path fill="none" stroke="midnightblue" d="M1189.75,-231.5C1452.96,-223.52 2689.18,-185.99 2891.47,-179.85"/>
<polygon fill="midnightblue" stroke="midnightblue" points="1189.62,-228.01 1179.73,-231.81 1189.83,-235 1189.62,-228.01"/>
</g>
<!-- Node4 -->
<g id="node4" class="node">
<title>Node4</title>
<g id="a_node4"><a xlink:href="Plugin_8cpp.html" target="_top" xlink:title=" ">
<polygon fill="white" stroke="black" points="3069,-112.5 3069,-131.5 3136,-131.5 3136,-112.5 3069,-112.5"/>
<text text-anchor="middle" x="3102.5" y="-119.5" font-family="Helvetica,sans-Serif" font-size="10.00">Plugin.cpp</text>
</a>
</g>
</g>
<!-- Node3&#45;&gt;Node4 -->
<g id="edge3" class="edge">
<title>Node3&#45;&gt;Node4</title>
<path fill="none" stroke="midnightblue" d="M2957.43,-165.81C2992,-155.61 3042.3,-140.77 3073.67,-131.51"/>
<polygon fill="midnightblue" stroke="midnightblue" points="2956.29,-162.49 2947.69,-168.68 2958.27,-169.21 2956.29,-162.49"/>
</g>
<!-- Node5 -->
<g id="node5" class="node">
<title>Node5</title>
<g id="a_node5"><a xlink:href="PluginManager_8h.html" target="_top" xlink:title=" ">
<polygon fill="white" stroke="black" points="2366.5,-112.5 2366.5,-131.5 2464.5,-131.5 2464.5,-112.5 2366.5,-112.5"/>
<text text-anchor="middle" x="2415.5" y="-119.5" font-family="Helvetica,sans-Serif" font-size="10.00">PluginManager.h</text>
</a>
</g>
</g>
<!-- Node3&#45;&gt;Node5 -->
<g id="edge4" class="edge">
<title>Node3&#45;&gt;Node5</title>
<path fill="none" stroke="midnightblue" d="M2881.13,-173.78C2803.98,-167.16 2624.59,-151.02 2474.5,-132 2471.31,-131.6 2468.03,-131.16 2464.73,-130.7"/>
<polygon fill="midnightblue" stroke="midnightblue" points="2881.07,-177.29 2891.33,-174.65 2881.66,-170.31 2881.07,-177.29"/>
</g>
<!-- Node53 -->
<g id="node37" class="node">
<title>Node53</title>
<g id="a_node37"><a xlink:href="CapstoneX86Decoder_8cpp.html" target="_top" xlink:title=" ">
<polygon fill="white" stroke="black" points="4259.5,-0.5 4259.5,-19.5 4401.5,-19.5 4401.5,-0.5 4259.5,-0.5"/>
<text text-anchor="middle" x="4330.5" y="-7.5" font-family="Helvetica,sans-Serif" font-size="10.00">CapstoneX86Decoder.cpp</text>
</a>
</g>
</g>
<!-- Node3&#45;&gt;Node53 -->
<g id="edge38" class="edge">
<title>Node3&#45;&gt;Node53</title>
<path fill="none" stroke="midnightblue" d="M2957.73,-172.8C3003.4,-167 3081.65,-154.62 3145.5,-132 3163.49,-125.63 3165.19,-117.37 3183.5,-112 3640.25,21.94 3776.85,-67.05 4250.5,-20 4253.42,-19.71 4256.4,-19.41 4259.41,-19.09"/>
<polygon fill="midnightblue" stroke="midnightblue" points="2957.17,-169.34 2947.67,-174.03 2958.02,-176.29 2957.17,-169.34"/>
</g>
<!-- Node60 -->
<g id="node39" class="node">
<title>Node60</title>
<g id="a_node39"><a xlink:href="CapstonePPCDecoder_8cpp.html" target="_top" xlink:title=" ">
<polygon fill="white" stroke="black" points="2206.5,-112.5 2206.5,-131.5 2348.5,-131.5 2348.5,-112.5 2206.5,-112.5"/>
<text text-anchor="middle" x="2277.5" y="-119.5" font-family="Helvetica,sans-Serif" font-size="10.00">CapstonePPCDecoder.cpp</text>
</a>
</g>
</g>
<!-- Node3&#45;&gt;Node60 -->
<g id="edge39" class="edge">
<title>Node3&#45;&gt;Node60</title>
<path fill="none" stroke="midnightblue" d="M2881.31,-174.37C2790.45,-168.01 2554.31,-150.95 2357.5,-132 2354.58,-131.72 2351.6,-131.42 2348.59,-131.12"/>
<polygon fill="midnightblue" stroke="midnightblue" points="2881.18,-177.87 2891.4,-175.07 2881.67,-170.88 2881.18,-177.87"/>
</g>
<!-- Node61 -->
<g id="node40" class="node">
<title>Node61</title>
<g id="a_node40"><a xlink:href="DOS4GWBinaryLoader_8cpp.html" target="_top" xlink:title=" ">
<polygon fill="white" stroke="black" points="3192.5,-112.5 3192.5,-131.5 3338.5,-131.5 3338.5,-112.5 3192.5,-112.5"/>
<text text-anchor="middle" x="3265.5" y="-119.5" font-family="Helvetica,sans-Serif" font-size="10.00">DOS4GWBinaryLoader.cpp</text>
</a>
</g>
</g>
<!-- Node3&#45;&gt;Node61 -->
<g id="edge40" class="edge">
<title>Node3&#45;&gt;Node61</title>
<path fill="none" stroke="midnightblue" d="M2957.56,-171.06C3018.99,-161.47 3140.24,-142.55 3210.88,-131.52"/>
<polygon fill="midnightblue" stroke="midnightblue" points="2956.86,-167.63 2947.52,-172.63 2957.94,-174.54 2956.86,-167.63"/>
</g>
<!-- Node62 -->
<g id="node41" class="node">
<title>Node62</title>
<g id="a_node41"><a xlink:href="ElfBinaryLoader_8cpp.html" target="_top" xlink:title=" ">
<polygon fill="white" stroke="black" points="3356.5,-112.5 3356.5,-131.5 3470.5,-131.5 3470.5,-112.5 3356.5,-112.5"/>
<text text-anchor="middle" x="3413.5" y="-119.5" font-family="Helvetica,sans-Serif" font-size="10.00">ElfBinaryLoader.cpp</text>
</a>
</g>
</g>
<!-- Node3&#45;&gt;Node62 -->
<g id="edge41" class="edge">
<title>Node3&#45;&gt;Node62</title>
<path fill="none" stroke="midnightblue" d="M2957.93,-173.36C3032.92,-166.17 3203.98,-149.33 3347.5,-132 3350.37,-131.65 3353.31,-131.29 3356.28,-130.91"/>
<polygon fill="midnightblue" stroke="midnightblue" points="2957.2,-169.91 2947.58,-174.35 2957.86,-176.88 2957.2,-169.91"/>
</g>
<!-- Node63 -->
<g id="node42" class="node">
<title>Node63</title>
<g id="a_node42"><a xlink:href="ExeBinaryLoader_8cpp.html" target="_top" xlink:title=" ">
<polygon fill="white" stroke="black" points="3489,-112.5 3489,-131.5 3608,-131.5 3608,-112.5 3489,-112.5"/>
<text text-anchor="middle" x="3548.5" y="-119.5" font-family="Helvetica,sans-Serif" font-size="10.00">ExeBinaryLoader.cpp</text>
</a>
</g>
</g>
<!-- Node3&#45;&gt;Node63 -->
<g id="edge42" class="edge">
<title>Node3&#45;&gt;Node63</title>
<path fill="none" stroke="midnightblue" d="M2957.58,-174.59C3048.17,-168.72 3283.56,-152.64 3479.5,-132 3482.5,-131.68 3485.58,-131.34 3488.68,-130.99"/>
<polygon fill="midnightblue" stroke="midnightblue" points="2957.27,-171.11 2947.51,-175.24 2957.72,-178.09 2957.27,-171.11"/>
</g>
<!-- Node64 -->
<g id="node43" class="node">
<title>Node64</title>
<g id="a_node43"><a xlink:href="MachOBinaryLoader_8cpp.html" target="_top" xlink:title=" ">
<polygon fill="white" stroke="black" points="2483,-112.5 2483,-131.5 2618,-131.5 2618,-112.5 2483,-112.5"/>
<text text-anchor="middle" x="2550.5" y="-119.5" font-family="Helvetica,sans-Serif" font-size="10.00">MachOBinaryLoader.cpp</text>
</a>
</g>
</g>
<!-- Node3&#45;&gt;Node64 -->
<g id="edge43" class="edge">
<title>Node3&#45;&gt;Node64</title>
<path fill="none" stroke="midnightblue" d="M2881.3,-171.41C2816.61,-161.94 2685.09,-142.7 2608.82,-131.53"/>
<polygon fill="midnightblue" stroke="midnightblue" points="2881.06,-174.91 2891.46,-172.9 2882.07,-167.99 2881.06,-174.91"/>
</g>
<!-- Node65 -->
<g id="node44" class="node">
<title>Node65</title>
<g id="a_node44"><a xlink:href="Win32BinaryLoader_8cpp.html" target="_top" xlink:title=" ">
<polygon fill="white" stroke="black" points="2636.5,-112.5 2636.5,-131.5 2768.5,-131.5 2768.5,-112.5 2636.5,-112.5"/>
<text text-anchor="middle" x="2702.5" y="-119.5" font-family="Helvetica,sans-Serif" font-size="10.00">Win32BinaryLoader.cpp</text>
</a>
</g>
</g>
<!-- Node3&#45;&gt;Node65 -->
<g id="edge44" class="edge">
<title>Node3&#45;&gt;Node65</title>
<path fill="none" stroke="midnightblue" d="M2881.28,-167.49C2840.45,-157.33 2776.3,-141.36 2736.96,-131.58"/>
<polygon fill="midnightblue" stroke="midnightblue" points="2880.58,-170.92 2891.13,-169.94 2882.27,-164.13 2880.58,-170.92"/>
</g>
<!-- Node66 -->
<g id="node45" class="node">
<title>Node66</title>
<g id="a_node45"><a xlink:href="ST20BinaryLoader_8cpp.html" target="_top" xlink:title=" ">
<polygon fill="white" stroke="black" points="2787,-112.5 2787,-131.5 2912,-131.5 2912,-112.5 2787,-112.5"/>
<text text-anchor="middle" x="2849.5" y="-119.5" font-family="Helvetica,sans-Serif" font-size="10.00">ST20BinaryLoader.cpp</text>
</a>
</g>
</g>
<!-- Node3&#45;&gt;Node66 -->
<g id="edge45" class="edge">
<title>Node3&#45;&gt;Node66</title>
<path fill="none" stroke="midnightblue" d="M2900.19,-162.1C2887.59,-152.38 2871.57,-140.03 2860.95,-131.83"/>
<polygon fill="midnightblue" stroke="midnightblue" points="2898.2,-164.99 2908.25,-168.32 2902.47,-159.44 2898.2,-164.99"/>
</g>
<!-- Node67 -->
<g id="node46" class="node">
<title>Node67</title>
<g id="a_node46"><a xlink:href="CSymbolProvider_8cpp.html" target="_top" xlink:title=" ">
<polygon fill="white" stroke="black" points="2930,-112.5 2930,-131.5 3051,-131.5 3051,-112.5 2930,-112.5"/>
<text text-anchor="middle" x="2990.5" y="-119.5" font-family="Helvetica,sans-Serif" font-size="10.00">CSymbolProvider.cpp</text>
</a>
</g>
</g>
<!-- Node3&#45;&gt;Node67 -->
<g id="edge46" class="edge">
<title>Node3&#45;&gt;Node67</title>
<path fill="none" stroke="midnightblue" d="M2939.09,-162.1C2951.87,-152.38 2968.11,-140.03 2978.89,-131.83"/>
<polygon fill="midnightblue" stroke="midnightblue" points="2936.75,-159.48 2930.91,-168.32 2940.99,-165.06 2936.75,-159.48"/>
</g>
<!-- Node6 -->
<g id="node6" class="node">
<title>Node6</title>
<g id="a_node6"><a xlink:href="PluginManager_8cpp.html" target="_top" xlink:title=" ">
<polygon fill="white" stroke="black" points="2360.5,-56.5 2360.5,-75.5 2470.5,-75.5 2470.5,-56.5 2360.5,-56.5"/>
<text text-anchor="middle" x="2415.5" y="-63.5" font-family="Helvetica,sans-Serif" font-size="10.00">PluginManager.cpp</text>
</a>
</g>
</g>
<!-- Node5&#45;&gt;Node6 -->
<g id="edge5" class="edge">
<title>Node5&#45;&gt;Node6</title>
<path fill="none" stroke="midnightblue" d="M2415.5,-101.8C2415.5,-92.91 2415.5,-82.78 2415.5,-75.75"/>
<polygon fill="midnightblue" stroke="midnightblue" points="2412,-102.08 2415.5,-112.08 2419,-102.08 2412,-102.08"/>
</g>
<!-- Node7 -->
<g id="node7" class="node">
<title>Node7</title>
<g id="a_node7"><a xlink:href="Project_8h.html" target="_top" xlink:title=" ">
<polygon fill="white" stroke="red" points="2091,-56.5 2091,-75.5 2150,-75.5 2150,-56.5 2091,-56.5"/>
<text text-anchor="middle" x="2120.5" y="-63.5" font-family="Helvetica,sans-Serif" font-size="10.00">Project.h</text>
</a>
</g>
</g>
<!-- Node5&#45;&gt;Node7 -->
<g id="edge6" class="edge">
<title>Node5&#45;&gt;Node7</title>
<path fill="none" stroke="midnightblue" d="M2358.71,-110.6C2296.52,-99.22 2199.14,-81.4 2150.4,-72.47"/>
<polygon fill="midnightblue" stroke="midnightblue" points="2358.29,-114.09 2368.76,-112.44 2359.55,-107.2 2358.29,-114.09"/>
</g>
<!-- Node8 -->
<g id="node8" class="node">
<title>Node8</title>
<g id="a_node8"><a xlink:href="Project_8cpp.html" target="_top" xlink:title=" ">
<polygon fill="white" stroke="black" points="3902,-0.5 3902,-19.5 3973,-19.5 3973,-0.5 3902,-0.5"/>
<text text-anchor="middle" x="3937.5" y="-7.5" font-family="Helvetica,sans-Serif" font-size="10.00">Project.cpp</text>
</a>
</g>
</g>
<!-- Node7&#45;&gt;Node8 -->
<g id="edge7" class="edge">
<title>Node7&#45;&gt;Node8</title>
<path fill="none" stroke="midnightblue" d="M2160.08,-56.56C2161.57,-56.35 2163.05,-56.16 2164.5,-56 2928.36,29.36 3129.64,-105.36 3893.5,-20 3896.13,-19.71 3898.85,-19.33 3901.57,-18.9"/>
<polygon fill="midnightblue" stroke="midnightblue" points="2159.51,-53.1 2150.21,-58.17 2160.64,-60.01 2159.51,-53.1"/>
</g>
<!-- Node9 -->
<g id="node9" class="node">
<title>Node9</title>
<g id="a_node9"><a xlink:href="DataFlow_8cpp.html" target="_top" xlink:title=" ">
<polygon fill="white" stroke="black" points="3991,-0.5 3991,-19.5 4074,-19.5 4074,-0.5 3991,-0.5"/>
<text text-anchor="middle" x="4032.5" y="-7.5" font-family="Helvetica,sans-Serif" font-size="10.00">DataFlow.cpp</text>
</a>
</g>
</g>
<!-- Node7&#45;&gt;Node9 -->
<g id="edge8" class="edge">
<title>Node7&#45;&gt;Node9</title>
<path fill="none" stroke="midnightblue" d="M2160.08,-56.55C2161.57,-56.35 2163.05,-56.16 2164.5,-56 2967.7,33.35 3178.29,-99.83 3982.5,-20 3985.22,-19.73 3988.02,-19.39 3990.83,-19.01"/>
<polygon fill="midnightblue" stroke="midnightblue" points="2159.51,-53.1 2150.21,-58.16 2160.64,-60.01 2159.51,-53.1"/>
</g>
<!-- Node10 -->
<g id="node10" class="node">
<title>Node10</title>
<g id="a_node10"><a xlink:href="Module_8cpp.html" target="_top" xlink:title=" ">
<polygon fill="white" stroke="black" points="4092,-0.5 4092,-19.5 4165,-19.5 4165,-0.5 4092,-0.5"/>
<text text-anchor="middle" x="4128.5" y="-7.5" font-family="Helvetica,sans-Serif" font-size="10.00">Module.cpp</text>
</a>
</g>
</g>
<!-- Node7&#45;&gt;Node10 -->
<g id="edge9" class="edge">
<title>Node7&#45;&gt;Node10</title>
<path fill="none" stroke="midnightblue" d="M2160.08,-56.55C2161.57,-56.35 2163.05,-56.16 2164.5,-56 3012.36,37.87 3235.44,-112.01 4083.5,-20 4086.19,-19.71 4088.96,-19.33 4091.75,-18.91"/>
<polygon fill="midnightblue" stroke="midnightblue" points="2159.51,-53.1 2150.21,-58.16 2160.64,-60.01 2159.51,-53.1"/>
</g>
<!-- Node11 -->
<g id="node11" class="node">
<title>Node11</title>
<g id="a_node11"><a xlink:href="Proc_8cpp.html" target="_top" xlink:title=" ">
<polygon fill="white" stroke="black" points="4183.5,-0.5 4183.5,-19.5 4241.5,-19.5 4241.5,-0.5 4183.5,-0.5"/>
<text text-anchor="middle" x="4212.5" y="-7.5" font-family="Helvetica,sans-Serif" font-size="10.00">Proc.cpp</text>
</a>
</g>
</g>
<!-- Node7&#45;&gt;Node11 -->
<g id="edge10" class="edge">
<title>Node7&#45;&gt;Node11</title>
<path fill="none" stroke="midnightblue" d="M2160.08,-56.55C2161.57,-56.35 2163.05,-56.16 2164.5,-56 2608.55,-7.03 3731.26,-75.8 4174.5,-20 4177.33,-19.64 4180.25,-19.16 4183.16,-18.61"/>
<polygon fill="midnightblue" stroke="midnightblue" points="2159.52,-53.1 2150.2,-58.15 2160.64,-60.01 2159.52,-53.1"/>
</g>
<!-- Node12 -->
<g id="node12" class="node">
<title>Node12</title>
<g id="a_node12"><a xlink:href="UserProc_8cpp.html" target="_top" xlink:title=" ">
<polygon fill="white" stroke="black" points="472.5,-0.5 472.5,-19.5 552.5,-19.5 552.5,-0.5 472.5,-0.5"/>
<text text-anchor="middle" x="512.5" y="-7.5" font-family="Helvetica,sans-Serif" font-size="10.00">UserProc.cpp</text>
</a>
</g>
</g>
<!-- Node7&#45;&gt;Node12 -->
<g id="edge11" class="edge">
<title>Node7&#45;&gt;Node12</title>
<path fill="none" stroke="midnightblue" d="M2080.78,-64.66C1868.89,-62.7 869.86,-51.92 562.5,-20 559.25,-19.66 555.9,-19.24 552.54,-18.75"/>
<polygon fill="midnightblue" stroke="midnightblue" points="2080.8,-68.16 2090.83,-64.75 2080.86,-61.16 2080.8,-68.16"/>
</g>
<!-- Node7&#45;&gt;Node13 -->
<g id="edge12" class="edge">
<title>Node7&#45;&gt;Node13</title>
<path fill="none" stroke="midnightblue" d="M2080.73,-65.24C1831.18,-66.57 478.73,-71.28 68.5,-20 65.47,-19.62 62.32,-19.11 59.2,-18.51"/>
<polygon fill="midnightblue" stroke="midnightblue" points="2080.81,-68.74 2090.79,-65.18 2080.77,-61.74 2080.81,-68.74"/>
</g>
<!-- Node14 -->
<g id="node14" class="node">
<title>Node14</title>
<g id="a_node14"><a xlink:href="IndirectJumpAnalyzer_8cpp.html" target="_top" xlink:title=" ">
<polygon fill="white" stroke="black" points="571,-0.5 571,-19.5 712,-19.5 712,-0.5 571,-0.5"/>
<text text-anchor="middle" x="641.5" y="-7.5" font-family="Helvetica,sans-Serif" font-size="10.00">IndirectJumpAnalyzer.cpp</text>
</a>
</g>
</g>
<!-- Node7&#45;&gt;Node14 -->
<g id="edge13" class="edge">
<title>Node7&#45;&gt;Node14</title>
<path fill="none" stroke="midnightblue" d="M2080.68,-64.88C1914.33,-64.14 1258.69,-58.79 721.5,-20 718.43,-19.78 715.3,-19.53 712.14,-19.26"/>
<polygon fill="midnightblue" stroke="midnightblue" points="2080.91,-68.38 2090.92,-64.92 2080.93,-61.38 2080.91,-68.38"/>
</g>
<!-- Node15 -->
<g id="node15" class="node">
<title>Node15</title>
<g id="a_node15"><a xlink:href="InterferenceFinder_8cpp.html" target="_top" xlink:title=" ">
<polygon fill="white" stroke="black" points="730,-0.5 730,-19.5 855,-19.5 855,-0.5 730,-0.5"/>
<text text-anchor="middle" x="792.5" y="-7.5" font-family="Helvetica,sans-Serif" font-size="10.00">InterferenceFinder.cpp</text>
</a>
</g>
</g>
<!-- Node7&#45;&gt;Node15 -->
<g id="edge14" class="edge">
<title>Node7&#45;&gt;Node15</title>
<path fill="none" stroke="midnightblue" d="M2080.73,-64.86C1925.08,-64.02 1342.34,-58.35 864.5,-20 861.49,-19.76 858.4,-19.48 855.29,-19.18"/>
<polygon fill="midnightblue" stroke="midnightblue" points="2080.76,-68.36 2090.77,-64.91 2080.79,-61.36 2080.76,-68.36"/>
</g>
<!-- Node16 -->
<g id="node16" class="node">
<title>Node16</title>
<g id="a_node16"><a xlink:href="LivenessAnalyzer_8cpp.html" target="_top" xlink:title=" ">
<polygon fill="white" stroke="black" points="873.5,-0.5 873.5,-19.5 995.5,-19.5 995.5,-0.5 873.5,-0.5"/>
<text text-anchor="middle" x="934.5" y="-7.5" font-family="Helvetica,sans-Serif" font-size="10.00">LivenessAnalyzer.cpp</text>
</a>
</g>
</g>
<!-- Node7&#45;&gt;Node16 -->
<g id="edge15" class="edge">
<title>Node7&#45;&gt;Node16</title>
<path fill="none" stroke="midnightblue" d="M2080.51,-64.65C1935.59,-63.12 1424.39,-55.39 1004.5,-20 1001.57,-19.75 998.57,-19.47 995.55,-19.17"/>
<polygon fill="midnightblue" stroke="midnightblue" points="2080.66,-68.15 2090.69,-64.76 2080.73,-61.15 2080.66,-68.15"/>
</g>
<!-- Node17 -->
<g id="node17" class="node">
<title>Node17</title>
<g id="a_node17"><a xlink:href="ProcDecompiler_8cpp.html" target="_top" xlink:title=" ">
<polygon fill="white" stroke="black" points="1013.5,-0.5 1013.5,-19.5 1127.5,-19.5 1127.5,-0.5 1013.5,-0.5"/>
<text text-anchor="middle" x="1070.5" y="-7.5" font-family="Helvetica,sans-Serif" font-size="10.00">ProcDecompiler.cpp</text>
</a>
</g>
</g>
<!-- Node7&#45;&gt;Node17 -->
<g id="edge16" class="edge">
<title>Node7&#45;&gt;Node17</title>
<path fill="none" stroke="midnightblue" d="M2080.5,-64.43C1946.73,-62.24 1502.79,-52.83 1137.5,-20 1134.34,-19.72 1131.11,-19.39 1127.84,-19.04"/>
<polygon fill="midnightblue" stroke="midnightblue" points="2080.62,-67.93 2090.68,-64.59 2080.73,-60.93 2080.62,-67.93"/>
</g>
<!-- Node18 -->
<g id="node18" class="node">
<title>Node18</title>
<g id="a_node18"><a xlink:href="ProgDecompiler_8cpp.html" target="_top" xlink:title=" ">
<polygon fill="white" stroke="black" points="1146,-0.5 1146,-19.5 1261,-19.5 1261,-0.5 1146,-0.5"/>
<text text-anchor="middle" x="1203.5" y="-7.5" font-family="Helvetica,sans-Serif" font-size="10.00">ProgDecompiler.cpp</text>
</a>
</g>
</g>
<!-- Node7&#45;&gt;Node18 -->
<g id="edge17" class="edge">
<title>Node7&#45;&gt;Node18</title>
<path fill="none" stroke="midnightblue" d="M2080.36,-64.02C1958.4,-60.81 1581.5,-49.07 1270.5,-20 1267.46,-19.72 1264.35,-19.4 1261.21,-19.05"/>
<polygon fill="midnightblue" stroke="midnightblue" points="2080.61,-67.53 2090.7,-64.29 2080.79,-60.53 2080.61,-67.53"/>
</g>
<!-- Node19 -->
<g id="node19" class="node">
<title>Node19</title>
<g id="a_node19"><a xlink:href="UnusedReturnRemover_8cpp.html" target="_top" xlink:title=" ">
<polygon fill="white" stroke="black" points="1279.5,-0.5 1279.5,-19.5 1429.5,-19.5 1429.5,-0.5 1279.5,-0.5"/>
<text text-anchor="middle" x="1354.5" y="-7.5" font-family="Helvetica,sans-Serif" font-size="10.00">UnusedReturnRemover.cpp</text>
</a>
</g>
</g>
<!-- Node7&#45;&gt;Node19 -->
<g id="edge18" class="edge">
<title>Node7&#45;&gt;Node19</title>
<path fill="none" stroke="midnightblue" d="M2080.8,-62.93C1975.94,-57.33 1682.89,-40.92 1439.5,-20 1436.25,-19.72 1432.93,-19.42 1429.57,-19.11"/>
<polygon fill="midnightblue" stroke="midnightblue" points="2080.76,-66.43 2090.93,-63.46 2081.13,-59.44 2080.76,-66.43"/>
</g>
<!-- Node7&#45;&gt;Node20 -->
<g id="edge19" class="edge">
<title>Node7&#45;&gt;Node20</title>
<path fill="none" stroke="midnightblue" d="M2080.76,-64.66C1841.13,-62.55 586.33,-50.19 202.5,-20 199.57,-19.77 196.58,-19.5 193.56,-19.2"/>
<polygon fill="midnightblue" stroke="midnightblue" points="2080.74,-68.16 2090.77,-64.75 2080.8,-61.16 2080.74,-68.16"/>
</g>
<!-- Node21 -->
<g id="node21" class="node">
<title>Node21</title>
<g id="a_node21"><a xlink:href="CallArgumentUpdatePass_8cpp.html" target="_top" xlink:title=" ">
<polygon fill="white" stroke="black" points="1448,-0.5 1448,-19.5 1609,-19.5 1609,-0.5 1448,-0.5"/>
<text text-anchor="middle" x="1528.5" y="-7.5" font-family="Helvetica,sans-Serif" font-size="10.00">CallArgumentUpdatePass.cpp</text>
</a>
</g>
</g>
<!-- Node7&#45;&gt;Node21 -->
<g id="edge20" class="edge">
<title>Node7&#45;&gt;Node21</title>
<path fill="none" stroke="midnightblue" d="M2080.81,-61.58C1995.94,-54.24 1790.56,-36.31 1618.5,-20 1615.53,-19.72 1612.5,-19.43 1609.45,-19.13"/>
<polygon fill="midnightblue" stroke="midnightblue" points="2080.52,-65.07 2090.78,-62.44 2081.12,-58.1 2080.52,-65.07"/>
</g>
<!-- Node22 -->
<g id="node22" class="node">
<title>Node22</title>
<g id="a_node22"><a xlink:href="CallDefineUpdatePass_8cpp.html" target="_top" xlink:title=" ">
<polygon fill="white" stroke="black" points="1627.5,-0.5 1627.5,-19.5 1773.5,-19.5 1773.5,-0.5 1627.5,-0.5"/>
<text text-anchor="middle" x="1700.5" y="-7.5" font-family="Helvetica,sans-Serif" font-size="10.00">CallDefineUpdatePass.cpp</text>
</a>
</g>
</g>
<!-- Node7&#45;&gt;Node22 -->
<g id="edge21" class="edge">
<title>Node7&#45;&gt;Node22</title>
<path fill="none" stroke="midnightblue" d="M2080.93,-59.91C2008.75,-50.63 1855.05,-30.87 1766.69,-19.51"/>
<polygon fill="midnightblue" stroke="midnightblue" points="2080.6,-63.4 2090.97,-61.2 2081.49,-56.46 2080.6,-63.4"/>
</g>
<!-- Node23 -->
<g id="node23" class="node">
<title>Node23</title>
<g id="a_node23"><a xlink:href="BlockVarRenamePass_8cpp.html" target="_top" xlink:title=" ">
<polygon fill="white" stroke="black" points="1792,-0.5 1792,-19.5 1935,-19.5 1935,-0.5 1792,-0.5"/>
<text text-anchor="middle" x="1863.5" y="-7.5" font-family="Helvetica,sans-Serif" font-size="10.00">BlockVarRenamePass.cpp</text>
</a>
</g>
</g>
<!-- Node7&#45;&gt;Node23 -->
<g id="edge22" class="edge">
<title>Node7&#45;&gt;Node23</title>
<path fill="none" stroke="midnightblue" d="M2080.77,-56.65C2032.86,-46.59 1952.77,-29.76 1904.36,-19.59"/>
<polygon fill="midnightblue" stroke="midnightblue" points="2080.26,-60.12 2090.77,-58.75 2081.7,-53.27 2080.26,-60.12"/>
</g>
<!-- Node24 -->
<g id="node24" class="node">
<title>Node24</title>
<g id="a_node24"><a xlink:href="StatementPropagationPass_8cpp.html" target="_top" xlink:title=" ">
<polygon fill="white" stroke="black" points="1953,-0.5 1953,-19.5 2122,-19.5 2122,-0.5 1953,-0.5"/>
<text text-anchor="middle" x="2037.5" y="-7.5" font-family="Helvetica,sans-Serif" font-size="10.00">StatementPropagationPass.cpp</text>
</a>
</g>
</g>
<!-- Node7&#45;&gt;Node24 -->
<g id="edge23" class="edge">
<title>Node7&#45;&gt;Node24</title>
<path fill="none" stroke="midnightblue" d="M2098.4,-50.62C2083.24,-40.76 2063.62,-27.99 2050.8,-19.65"/>
<polygon fill="midnightblue" stroke="midnightblue" points="2096.87,-53.8 2107.16,-56.32 2100.69,-47.94 2096.87,-53.8"/>
</g>
<!-- Node25 -->
<g id="node25" class="node">
<title>Node25</title>
<g id="a_node25"><a xlink:href="FromSSAFormPass_8cpp.html" target="_top" xlink:title=" ">
<polygon fill="white" stroke="black" points="2140.5,-0.5 2140.5,-19.5 2268.5,-19.5 2268.5,-0.5 2140.5,-0.5"/>
<text text-anchor="middle" x="2204.5" y="-7.5" font-family="Helvetica,sans-Serif" font-size="10.00">FromSSAFormPass.cpp</text>
</a>
</g>
</g>
<!-- Node7&#45;&gt;Node25 -->
<g id="edge24" class="edge">
<title>Node7&#45;&gt;Node25</title>
<path fill="none" stroke="midnightblue" d="M2142.43,-50.9C2157.84,-41 2177.95,-28.07 2191.04,-19.65"/>
<polygon fill="midnightblue" stroke="midnightblue" points="2140.52,-47.97 2134,-56.32 2144.3,-53.86 2140.52,-47.97"/>
</g>
<!-- Node26 -->
<g id="node26" class="node">
<title>Node26</title>
<g id="a_node26"><a xlink:href="LocalAndParamMapPass_8cpp.html" target="_top" xlink:title=" ">
<polygon fill="white" stroke="black" points="2286.5,-0.5 2286.5,-19.5 2442.5,-19.5 2442.5,-0.5 2286.5,-0.5"/>
<text text-anchor="middle" x="2364.5" y="-7.5" font-family="Helvetica,sans-Serif" font-size="10.00">LocalAndParamMapPass.cpp</text>
</a>
</g>
</g>
<!-- Node7&#45;&gt;Node26 -->
<g id="edge25" class="edge">
<title>Node7&#45;&gt;Node26</title>
<path fill="none" stroke="midnightblue" d="M2160.28,-56.2C2206.03,-46.07 2280.64,-29.56 2325.89,-19.55"/>
<polygon fill="midnightblue" stroke="midnightblue" points="2159.43,-52.8 2150.42,-58.38 2160.94,-59.63 2159.43,-52.8"/>
</g>
<!-- Node27 -->
<g id="node27" class="node">
<title>Node27</title>
<g id="a_node27"><a xlink:href="LocalTypeAnalysisPass_8cpp.html" target="_top" xlink:title=" ">
<polygon fill="white" stroke="black" points="2461,-0.5 2461,-19.5 2610,-19.5 2610,-0.5 2461,-0.5"/>
<text text-anchor="middle" x="2535.5" y="-7.5" font-family="Helvetica,sans-Serif" font-size="10.00">LocalTypeAnalysisPass.cpp</text>
</a>
</g>
</g>
<!-- Node7&#45;&gt;Node27 -->
<g id="edge26" class="edge">
<title>Node7&#45;&gt;Node27</title>
<path fill="none" stroke="midnightblue" d="M2160.11,-56.74C2161.59,-56.48 2163.06,-56.23 2164.5,-56 2219.81,-47 2369.42,-29.66 2460.86,-19.33"/>
<polygon fill="midnightblue" stroke="midnightblue" points="2159.45,-53.3 2150.26,-58.57 2160.73,-60.19 2159.45,-53.3"/>
</g>
<!-- Node28 -->
<g id="node28" class="node">
<title>Node28</title>
<g id="a_node28"><a xlink:href="UnusedLocalRemovalPass_8cpp.html" target="_top" xlink:title=" ">
<polygon fill="white" stroke="black" points="2628,-0.5 2628,-19.5 2793,-19.5 2793,-0.5 2628,-0.5"/>
<text text-anchor="middle" x="2710.5" y="-7.5" font-family="Helvetica,sans-Serif" font-size="10.00">UnusedLocalRemovalPass.cpp</text>
</a>
</g>
</g>
<!-- Node7&#45;&gt;Node28 -->
<g id="edge27" class="edge">
<title>Node7&#45;&gt;Node28</title>
<path fill="none" stroke="midnightblue" d="M2160.1,-56.66C2161.58,-56.43 2163.05,-56.2 2164.5,-56 2365.36,-27.62 2417.44,-37.98 2619.5,-20 2622.19,-19.76 2624.92,-19.51 2627.68,-19.26"/>
<polygon fill="midnightblue" stroke="midnightblue" points="2159.48,-53.22 2150.24,-58.4 2160.69,-60.11 2159.48,-53.22"/>
</g>
<!-- Node29 -->
<g id="node29" class="node">
<title>Node29</title>
<g id="a_node29"><a xlink:href="UnusedParamRemovalPass_8cpp.html" target="_top" xlink:title=" ">
<polygon fill="white" stroke="black" points="2811,-0.5 2811,-19.5 2982,-19.5 2982,-0.5 2811,-0.5"/>
<text text-anchor="middle" x="2896.5" y="-7.5" font-family="Helvetica,sans-Serif" font-size="10.00">UnusedParamRemovalPass.cpp</text>
</a>
</g>
</g>
<!-- Node7&#45;&gt;Node29 -->
<g id="edge28" class="edge">
<title>Node7&#45;&gt;Node29</title>
<path fill="none" stroke="midnightblue" d="M2160.09,-56.62C2161.58,-56.4 2163.05,-56.19 2164.5,-56 2446.14,-19.45 2519.31,-41.54 2802.5,-20 2805.28,-19.79 2808.1,-19.57 2810.95,-19.33"/>
<polygon fill="midnightblue" stroke="midnightblue" points="2159.49,-53.17 2150.22,-58.31 2160.67,-60.07 2159.49,-53.17"/>
</g>
<!-- Node30 -->
<g id="node30" class="node">
<title>Node30</title>
<g id="a_node30"><a xlink:href="UnusedStatementRemovalPass_8cpp.html" target="_top" xlink:title=" ">
<polygon fill="white" stroke="black" points="3000,-0.5 3000,-19.5 3191,-19.5 3191,-0.5 3000,-0.5"/>
<text text-anchor="middle" x="3095.5" y="-7.5" font-family="Helvetica,sans-Serif" font-size="10.00">UnusedStatementRemovalPass.cpp</text>
</a>
</g>
</g>
<!-- Node7&#45;&gt;Node30 -->
<g id="edge29" class="edge">
<title>Node7&#45;&gt;Node30</title>
<path fill="none" stroke="midnightblue" d="M2160.09,-56.6C2161.57,-56.38 2163.05,-56.18 2164.5,-56 2529.64,-11 2624.37,-43.87 2991.5,-20 2994.21,-19.82 2996.96,-19.64 2999.74,-19.44"/>
<polygon fill="midnightblue" stroke="midnightblue" points="2159.5,-53.15 2150.22,-58.26 2160.66,-60.05 2159.5,-53.15"/>
</g>
<!-- Node31 -->
<g id="node31" class="node">
<title>Node31</title>
<g id="a_node31"><a xlink:href="AssignRemovalPass_8cpp.html" target="_top" xlink:title=" ">
<polygon fill="white" stroke="black" points="3209,-0.5 3209,-19.5 3344,-19.5 3344,-0.5 3209,-0.5"/>
<text text-anchor="middle" x="3276.5" y="-7.5" font-family="Helvetica,sans-Serif" font-size="10.00">AssignRemovalPass.cpp</text>
</a>
</g>
</g>
<!-- Node7&#45;&gt;Node31 -->
<g id="edge30" class="edge">
<title>Node7&#45;&gt;Node31</title>
<path fill="none" stroke="midnightblue" d="M2160.09,-56.58C2161.57,-56.37 2163.05,-56.17 2164.5,-56 2622.01,-1.65 2741.12,-55.12 3200.5,-20 3203.28,-19.79 3206.12,-19.55 3208.98,-19.29"/>
<polygon fill="midnightblue" stroke="midnightblue" points="2159.5,-53.13 2150.21,-58.22 2160.65,-60.04 2159.5,-53.13"/>
</g>
<!-- Node32 -->
<g id="node32" class="node">
<title>Node32</title>
<g id="a_node32"><a xlink:href="PreservationAnalysisPass_8cpp.html" target="_top" xlink:title=" ">
<polygon fill="white" stroke="black" points="3362.5,-0.5 3362.5,-19.5 3524.5,-19.5 3524.5,-0.5 3362.5,-0.5"/>
<text text-anchor="middle" x="3443.5" y="-7.5" font-family="Helvetica,sans-Serif" font-size="10.00">PreservationAnalysisPass.cpp</text>
</a>
</g>
</g>
<!-- Node7&#45;&gt;Node32 -->
<g id="edge31" class="edge">
<title>Node7&#45;&gt;Node32</title>
<path fill="none" stroke="midnightblue" d="M2160.08,-56.57C2161.57,-56.36 2163.05,-56.17 2164.5,-56 2689.63,5.2 2825.93,-54.32 3353.5,-20 3356.32,-19.82 3359.19,-19.61 3362.09,-19.4"/>
<polygon fill="midnightblue" stroke="midnightblue" points="2159.51,-53.12 2150.21,-58.2 2160.65,-60.03 2159.51,-53.12"/>
</g>
<!-- Node33 -->
<g id="node33" class="node">
<title>Node33</title>
<g id="a_node33"><a xlink:href="SPPreservationPass_8cpp.html" target="_top" xlink:title=" ">
<polygon fill="white" stroke="black" points="3543,-0.5 3543,-19.5 3676,-19.5 3676,-0.5 3543,-0.5"/>
<text text-anchor="middle" x="3609.5" y="-7.5" font-family="Helvetica,sans-Serif" font-size="10.00">SPPreservationPass.cpp</text>
</a>
</g>
</g>
<!-- Node7&#45;&gt;Node33 -->
<g id="edge32" class="edge">
<title>Node7&#45;&gt;Node33</title>
<path fill="none" stroke="midnightblue" d="M2160.08,-56.57C2161.57,-56.36 2163.05,-56.17 2164.5,-56 2769.2,13.25 2926.43,-63.83 3533.5,-20 3536.55,-19.78 3539.66,-19.53 3542.8,-19.25"/>
<polygon fill="midnightblue" stroke="midnightblue" points="2159.51,-53.11 2150.21,-58.19 2160.64,-60.02 2159.51,-53.11"/>
</g>
<!-- Node34 -->
<g id="node34" class="node">
<title>Node34</title>
<g id="a_node34"><a xlink:href="PassManager_8cpp.html" target="_top" xlink:title=" ">
<polygon fill="white" stroke="black" points="3694.5,-0.5 3694.5,-19.5 3796.5,-19.5 3796.5,-0.5 3694.5,-0.5"/>
<text text-anchor="middle" x="3745.5" y="-7.5" font-family="Helvetica,sans-Serif" font-size="10.00">PassManager.cpp</text>
</a>
</g>
</g>
<!-- Node7&#45;&gt;Node34 -->
<g id="edge33" class="edge">
<title>Node7&#45;&gt;Node34</title>
<path fill="none" stroke="midnightblue" d="M2160.08,-56.56C2161.57,-56.35 2163.05,-56.16 2164.5,-56 2836.4,20.05 3011.83,-78.27 3685.5,-20 3688.44,-19.75 3691.45,-19.44 3694.49,-19.1"/>
<polygon fill="midnightblue" stroke="midnightblue" points="2159.51,-53.11 2150.21,-58.18 2160.64,-60.02 2159.51,-53.11"/>
</g>
<!-- Node35 -->
<g id="node35" class="node">
<title>Node35</title>
<g id="a_node35"><a xlink:href="Assign_8cpp.html" target="_top" xlink:title=" ">
<polygon fill="white" stroke="black" points="3815,-0.5 3815,-19.5 3884,-19.5 3884,-0.5 3815,-0.5"/>
<text text-anchor="middle" x="3849.5" y="-7.5" font-family="Helvetica,sans-Serif" font-size="10.00">Assign.cpp</text>
</a>
</g>
</g>
<!-- Node7&#45;&gt;Node35 -->
<g id="edge34" class="edge">
<title>Node7&#45;&gt;Node35</title>
<path fill="none" stroke="midnightblue" d="M2160.08,-56.56C2161.57,-56.35 2163.05,-56.16 2164.5,-56 2889.45,25.42 3080.55,-101.42 3805.5,-20 3808.44,-19.67 3811.48,-19.24 3814.53,-18.74"/>
<polygon fill="midnightblue" stroke="midnightblue" points="2159.51,-53.1 2150.21,-58.17 2160.64,-60.01 2159.51,-53.1"/>
</g>
<!-- Node52 -->
<g id="node36" class="node">
<title>Node52</title>
<g id="a_node36"><a xlink:href="CapstoneDecoder_8cpp.html" target="_top" xlink:title=" ">
<polygon fill="white" stroke="black" points="331,-0.5 331,-19.5 454,-19.5 454,-0.5 331,-0.5"/>
<text text-anchor="middle" x="392.5" y="-7.5" font-family="Helvetica,sans-Serif" font-size="10.00">CapstoneDecoder.cpp</text>
</a>
</g>
</g>
<!-- Node7&#45;&gt;Node52 -->
<g id="edge35" class="edge">
<title>Node7&#45;&gt;Node52</title>
<path fill="none" stroke="midnightblue" d="M2080.71,-65.37C1896.45,-66.78 1107.72,-69.46 463.5,-20 460.4,-19.76 457.23,-19.49 454.04,-19.18"/>
<polygon fill="midnightblue" stroke="midnightblue" points="2080.78,-68.87 2090.75,-65.29 2080.72,-61.87 2080.78,-68.87"/>
</g>
<!-- Node7&#45;&gt;Node53 -->
<g id="edge36" class="edge">
<title>Node7&#45;&gt;Node53</title>
<path fill="none" stroke="midnightblue" d="M2160.08,-56.55C2161.57,-56.34 2163.05,-56.16 2164.5,-56 2625.35,-5.33 3787.84,-49.95 4250.5,-20 4253.43,-19.81 4256.42,-19.59 4259.43,-19.35"/>
<polygon fill="midnightblue" stroke="midnightblue" points="2159.52,-53.1 2150.2,-58.15 2160.64,-60.01 2159.52,-53.1"/>
</g>
<!-- Node54 -->
<g id="node38" class="node">
<title>Node54</title>
<g id="a_node38"><a xlink:href="ST20Decoder_8cpp.html" target="_top" xlink:title=" ">
<polygon fill="white" stroke="black" points="212,-0.5 212,-19.5 313,-19.5 313,-0.5 212,-0.5"/>
<text text-anchor="middle" x="262.5" y="-7.5" font-family="Helvetica,sans-Serif" font-size="10.00">ST20Decoder.cpp</text>
</a>
</g>
</g>
<!-- Node7&#45;&gt;Node54 -->
<g id="edge37" class="edge">
<title>Node7&#45;&gt;Node54</title>
<path fill="none" stroke="midnightblue" d="M2080.37,-64.67C1848.73,-62.68 680.57,-51.22 322.5,-20 319.46,-19.73 316.33,-19.41 313.19,-19.05"/>
<polygon fill="midnightblue" stroke="midnightblue" points="2080.65,-68.18 2090.68,-64.76 2080.71,-61.18 2080.65,-68.18"/>
</g>
<!-- Node68&#45;&gt;Node52 -->
<g id="edge50" class="edge">
<title>Node68&#45;&gt;Node52</title>
<path fill="none" stroke="midnightblue" d="M657.17,-217.89C602.24,-174.95 446.46,-53.18 403.56,-19.64"/>
<polygon fill="midnightblue" stroke="midnightblue" points="655.33,-220.9 665.37,-224.3 659.64,-215.38 655.33,-220.9"/>
</g>
<!-- Node69 -->
<g id="node48" class="node">
<title>Node69</title>
<g id="a_node48"><a xlink:href="CapstoneX86Decoder_8h.html" target="_top" xlink:title=" ">
<polygon fill="white" stroke="black" points="1437,-168.5 1437,-187.5 1568,-187.5 1568,-168.5 1437,-168.5"/>
<text text-anchor="middle" x="1502.5" y="-175.5" font-family="Helvetica,sans-Serif" font-size="10.00">CapstoneX86Decoder.h</text>
</a>
</g>
</g>
<!-- Node68&#45;&gt;Node69 -->
<g id="edge51" class="edge">
<title>Node68&#45;&gt;Node69</title>
<path fill="none" stroke="midnightblue" d="M742.95,-228.66C898.12,-218.51 1282.78,-193.36 1437,-183.28"/>
<polygon fill="midnightblue" stroke="midnightblue" points="742.38,-225.19 732.62,-229.33 742.83,-232.17 742.38,-225.19"/>
</g>
<!-- Node70 -->
<g id="node49" class="node">
<title>Node70</title>
<g id="a_node49"><a xlink:href="CapstonePPCDecoder_8h.html" target="_top" xlink:title=" ">
<polygon fill="white" stroke="black" points="1976,-168.5 1976,-187.5 2107,-187.5 2107,-168.5 1976,-168.5"/>
<text text-anchor="middle" x="2041.5" y="-175.5" font-family="Helvetica,sans-Serif" font-size="10.00">CapstonePPCDecoder.h</text>
</a>
</g>
</g>
<!-- Node68&#45;&gt;Node70 -->
<g id="edge53" class="edge">
<title>Node68&#45;&gt;Node70</title>
<path fill="none" stroke="midnightblue" d="M742.85,-230.38C974.49,-221.21 1745.67,-190.7 1975.99,-181.59"/>
<polygon fill="midnightblue" stroke="midnightblue" points="742.41,-226.89 732.55,-230.78 742.68,-233.88 742.41,-226.89"/>
</g>
<!-- Node69&#45;&gt;Node53 -->
<g id="edge52" class="edge">
<title>Node69&#45;&gt;Node53</title>
<path fill="none" stroke="midnightblue" d="M1566.07,-166.91C1735.88,-140.11 2197.61,-68.38 2351.5,-56 3192.93,11.68 3408.16,-75.25 4250.5,-20 4253.43,-19.81 4256.42,-19.59 4259.43,-19.34"/>
<polygon fill="midnightblue" stroke="midnightblue" points="1565.36,-163.47 1556.03,-168.49 1566.45,-170.39 1565.36,-163.47"/>
</g>
<!-- Node70&#45;&gt;Node60 -->
<g id="edge54" class="edge">
<title>Node70&#45;&gt;Node60</title>
<path fill="none" stroke="midnightblue" d="M2088.91,-166.15C2133.5,-155.95 2199.35,-140.88 2240.28,-131.52"/>
<polygon fill="midnightblue" stroke="midnightblue" points="2087.86,-162.8 2078.89,-168.44 2089.42,-169.62 2087.86,-162.8"/>
</g>
<!-- Node71&#45;&gt;Node54 -->
<g id="edge56" class="edge">
<title>Node71&#45;&gt;Node54</title>
<path fill="none" stroke="midnightblue" d="M262.5,-45.8C262.5,-36.91 262.5,-26.78 262.5,-19.75"/>
<polygon fill="midnightblue" stroke="midnightblue" points="259,-46.08 262.5,-56.08 266,-46.08 259,-46.08"/>
</g>
</g>
</svg>
        <g id="navigator" transform="translate(0 0)" fill="#404254">
                <rect fill="#f2f5e9" fill-opacity="0.5" stroke="#606060" stroke-width=".5" x="0" y="0" width="60" height="60"/>
                <use id="zoomplus" xlink:href="#zoomPlus" x="17" y="9" onmousedown="handleZoom(evt,'in')"/>
                <use id="zoomminus" xlink:href="#zoomMin" x="42" y="9" onmousedown="handleZoom(evt,'out')"/>
                <use id="reset" xlink:href="#resetDef" x="30" y="36" onmousedown="handleReset()"/>
                <g id="arrowUp" xlink:href="#dirArrow" transform="translate(30 24)" onmousedown="handlePan(0,-1)">
                  <use xlink:href="#rim" fill="#404040">
                        <set attributeName="fill" to="#808080" begin="arrowUp.mouseover" end="arrowUp.mouseout"/>
                  </use>
                  <path fill="none" stroke="white" stroke-width="1.5" d="M0,-3.0v7 M-2.5,-0.5L0,-3.0L2.5,-0.5"/>
                </g>
                <g id="arrowRight" xlink:href="#dirArrow" transform="rotate(90) translate(36 -43)" onmousedown="handlePan(1,0)">
                  <use xlink:href="#rim" fill="#404040">
                        <set attributeName="fill" to="#808080" begin="arrowRight.mouseover" end="arrowRight.mouseout"/>
                  </use>
                  <path fill="none" stroke="white" stroke-width="1.5" d="M0,-3.0v7 M-2.5,-0.5L0,-3.0L2.5,-0.5"/>
                </g>
                <g id="arrowDown" xlink:href="#dirArrow" transform="rotate(180) translate(-30 -48)" onmousedown="handlePan(0,1)">
                  <use xlink:href="#rim" fill="#404040">
                        <set attributeName="fill" to="#808080" begin="arrowDown.mouseover" end="arrowDown.mouseout"/>
                  </use>
                  <path fill="none" stroke="white" stroke-width="1.5" d="M0,-3.0v7 M-2.5,-0.5L0,-3.0L2.5,-0.5"/>
                </g>
                <g id="arrowLeft" xlink:href="#dirArrow" transform="rotate(270) translate(-36 17)" onmousedown="handlePan(-1,0)">
                  <use xlink:href="#rim" fill="#404040">
                        <set attributeName="fill" to="#808080" begin="arrowLeft.mouseover" end="arrowLeft.mouseout"/>
                  </use>
                  <path fill="none" stroke="white" stroke-width="1.5" d="M0,-3.0v7 M-2.5,-0.5L0,-3.0L2.5,-0.5"/>
                </g>
        </g>
        <svg viewBox="0 0 15 15" width="100%" height="30px" preserveAspectRatio="xMaxYMin meet">
         <g id="arrow_out" transform="scale(0.3 0.3)">
          <a xlink:href="IDecoder_8h__dep__incl_org.svg" target="_base">
           <rect id="button" ry="5" rx="5" y="6" x="6" height="38" width="38"
                fill="#f2f5e9" fill-opacity="0.5" stroke="#606060" stroke-width="1.0"/>
           <path id="arrow"
             d="M 11.500037,31.436501 C 11.940474,20.09759 22.043105,11.32322 32.158766,21.979434 L 37.068811,17.246167 C 37.068811,17.246167 37.088388,32 37.088388,32 L 22.160133,31.978069 C 22.160133,31.978069 26.997745,27.140456 26.997745,27.140456 C 18.528582,18.264221 13.291696,25.230495 11.500037,31.436501 z"
             style="fill:#404040;"/>
          </a>
         </g>
        </svg>
</svg>
