<?xml version="1.0" encoding="UTF-8" standalone="no"?>
<!DOCTYPE svg PUBLIC "-//W3C//DTD SVG 1.1//EN"
 "http://www.w3.org/Graphics/SVG/1.1/DTD/svg11.dtd">
<!-- Generated by graphviz version 2.43.0 (0)
 -->
<!-- Title: IFrontEnd.h Pages: 1 -->
<svg width="3811pt" height="308pt"
 viewBox="0.00 0.00 3810.50 308.00" xmlns="http://www.w3.org/2000/svg" xmlns:xlink="http://www.w3.org/1999/xlink">
<g id="graph0" class="graph" transform="scale(1 1) rotate(0) translate(4 304)">
<title>IFrontEnd.h</title>
<polygon fill="white" stroke="transparent" points="-4,4 -4,-304 3806.5,-304 3806.5,4 -4,4"/>
<!-- Node1 -->
<g id="node1" class="node">
<title>Node1</title>
<g id="a_node1"><a xlink:title=" ">
<polygon fill="#bfbfbf" stroke="black" points="1991,-280.5 1991,-299.5 2062,-299.5 2062,-280.5 1991,-280.5"/>
<text text-anchor="middle" x="2026.5" y="-287.5" font-family="Helvetica,sans-Serif" font-size="10.00">IFrontEnd.h</text>
</a>
</g>
</g>
<!-- Node2 -->
<g id="node2" class="node">
<title>Node2</title>
<g id="a_node2"><a xlink:href="PluginType_8h.html" target="_top" xlink:title=" ">
<polygon fill="white" stroke="black" points="1954.5,-224.5 1954.5,-243.5 2032.5,-243.5 2032.5,-224.5 1954.5,-224.5"/>
<text text-anchor="middle" x="1993.5" y="-231.5" font-family="Helvetica,sans-Serif" font-size="10.00">PluginType.h</text>
</a>
</g>
</g>
<!-- Node1&#45;&gt;Node2 -->
<g id="edge1" class="edge">
<title>Node1&#45;&gt;Node2</title>
<path fill="none" stroke="midnightblue" d="M2015.67,-271.27C2010.03,-262.05 2003.38,-251.17 1998.85,-243.75"/>
<polygon fill="midnightblue" stroke="midnightblue" points="2012.85,-273.38 2021.05,-280.08 2018.82,-269.73 2012.85,-273.38"/>
</g>
<!-- Node10 -->
<g id="node10" class="node">
<title>Node10</title>
<g id="a_node10"><a xlink:href="Module_8cpp.html" target="_top" xlink:title=" ">
<polygon fill="white" stroke="black" points="0,-0.5 0,-19.5 73,-19.5 73,-0.5 0,-0.5"/>
<text text-anchor="middle" x="36.5" y="-7.5" font-family="Helvetica,sans-Serif" font-size="10.00">Module.cpp</text>
</a>
</g>
</g>
<!-- Node1&#45;&gt;Node10 -->
<g id="edge43" class="edge">
<title>Node1&#45;&gt;Node10</title>
<path fill="none" stroke="midnightblue" d="M1980.47,-288.71C1696.84,-286.6 198.5,-271.11 198.5,-179 198.5,-179 198.5,-179 198.5,-121 198.5,-60.83 121.06,-31.28 73.26,-18.77"/>
<polygon fill="midnightblue" stroke="midnightblue" points="1980.78,-292.21 1990.8,-288.78 1980.83,-285.21 1980.78,-292.21"/>
</g>
<!-- Node13 -->
<g id="node13" class="node">
<title>Node13</title>
<g id="a_node13"><a xlink:href="Prog_8cpp.html" target="_top" xlink:title=" ">
<polygon fill="white" stroke="black" points="91,-0.5 91,-19.5 150,-19.5 150,-0.5 91,-0.5"/>
<text text-anchor="middle" x="120.5" y="-7.5" font-family="Helvetica,sans-Serif" font-size="10.00">Prog.cpp</text>
</a>
</g>
</g>
<!-- Node1&#45;&gt;Node13 -->
<g id="edge45" class="edge">
<title>Node1&#45;&gt;Node13</title>
<path fill="none" stroke="midnightblue" d="M1980.72,-289.49C1767.32,-291.2 880.5,-291.53 880.5,-179 880.5,-179 880.5,-179 880.5,-121 880.5,40.79 318.59,-49.44 159.5,-20 156.49,-19.44 153.37,-18.81 150.25,-18.15"/>
<polygon fill="midnightblue" stroke="midnightblue" points="1980.98,-292.99 1990.95,-289.41 1980.92,-285.99 1980.98,-292.99"/>
</g>
<!-- Node17 -->
<g id="node17" class="node">
<title>Node17</title>
<g id="a_node17"><a xlink:href="ProcDecompiler_8cpp.html" target="_top" xlink:title=" ">
<polygon fill="white" stroke="black" points="168.5,-0.5 168.5,-19.5 282.5,-19.5 282.5,-0.5 168.5,-0.5"/>
<text text-anchor="middle" x="225.5" y="-7.5" font-family="Helvetica,sans-Serif" font-size="10.00">ProcDecompiler.cpp</text>
</a>
</g>
</g>
<!-- Node1&#45;&gt;Node17 -->
<g id="edge46" class="edge">
<title>Node1&#45;&gt;Node17</title>
<path fill="none" stroke="midnightblue" d="M1980.71,-287.45C1812.78,-281.17 1240.5,-254.25 1240.5,-179 1240.5,-179 1240.5,-179 1240.5,-121 1240.5,35.47 1049.79,-75.14 894.5,-56 628.04,-23.15 558.7,-46.16 291.5,-20 288.62,-19.72 285.68,-19.41 282.71,-19.07"/>
<polygon fill="midnightblue" stroke="midnightblue" points="1980.82,-290.96 1990.94,-287.83 1981.08,-283.96 1980.82,-290.96"/>
</g>
<!-- Node67 -->
<g id="node42" class="node">
<title>Node67</title>
<g id="a_node42"><a xlink:href="CSymbolProvider_8cpp.html" target="_top" xlink:title=" ">
<polygon fill="white" stroke="black" points="2893,-112.5 2893,-131.5 3014,-131.5 3014,-112.5 2893,-112.5"/>
<text text-anchor="middle" x="2953.5" y="-119.5" font-family="Helvetica,sans-Serif" font-size="10.00">CSymbolProvider.cpp</text>
</a>
</g>
</g>
<!-- Node1&#45;&gt;Node67 -->
<g id="edge58" class="edge">
<title>Node1&#45;&gt;Node67</title>
<path fill="none" stroke="midnightblue" d="M2035.63,-271.45C2044.6,-256.15 2059.8,-234.77 2079.5,-224 2237.49,-137.64 2705.78,-153.87 2884.5,-132 2887.26,-131.66 2890.08,-131.31 2892.92,-130.96"/>
<polygon fill="midnightblue" stroke="midnightblue" points="2032.43,-270.01 2030.65,-280.46 2038.55,-273.4 2032.43,-270.01"/>
</g>
<!-- Node68 -->
<g id="node43" class="node">
<title>Node68</title>
<g id="a_node43"><a xlink:href="LibProc_8cpp.html" target="_top" xlink:title=" ">
<polygon fill="white" stroke="black" points="2088.5,-224.5 2088.5,-243.5 2160.5,-243.5 2160.5,-224.5 2088.5,-224.5"/>
<text text-anchor="middle" x="2124.5" y="-231.5" font-family="Helvetica,sans-Serif" font-size="10.00">LibProc.cpp</text>
</a>
</g>
</g>
<!-- Node1&#45;&gt;Node68 -->
<g id="edge44" class="edge">
<title>Node1&#45;&gt;Node68</title>
<path fill="none" stroke="midnightblue" d="M2051.09,-275.45C2069.18,-265.48 2093.23,-252.23 2108.79,-243.65"/>
<polygon fill="midnightblue" stroke="midnightblue" points="2049.31,-272.43 2042.25,-280.32 2052.69,-278.56 2049.31,-272.43"/>
</g>
<!-- Node69 -->
<g id="node44" class="node">
<title>Node69</title>
<g id="a_node44"><a xlink:href="DefaultFrontEnd_8h.html" target="_top" xlink:title=" ">
<polygon fill="white" stroke="black" points="1692.5,-112.5 1692.5,-131.5 1796.5,-131.5 1796.5,-112.5 1692.5,-112.5"/>
<text text-anchor="middle" x="1744.5" y="-119.5" font-family="Helvetica,sans-Serif" font-size="10.00">DefaultFrontEnd.h</text>
</a>
</g>
</g>
<!-- Node1&#45;&gt;Node69 -->
<g id="edge47" class="edge">
<title>Node1&#45;&gt;Node69</title>
<path fill="none" stroke="midnightblue" d="M2001.77,-275.55C1985.66,-266.72 1964.24,-254.84 1945.5,-244 1874.64,-203 1791.14,-151.79 1758.53,-131.68"/>
<polygon fill="midnightblue" stroke="midnightblue" points="2000.12,-278.64 2010.58,-280.37 2003.48,-272.5 2000.12,-278.64"/>
</g>
<!-- Node73 -->
<g id="node48" class="node">
<title>Node73</title>
<g id="a_node48"><a xlink:href="StatementInitPass_8cpp.html" target="_top" xlink:title=" ">
<polygon fill="white" stroke="black" points="2178.5,-224.5 2178.5,-243.5 2304.5,-243.5 2304.5,-224.5 2178.5,-224.5"/>
<text text-anchor="middle" x="2241.5" y="-231.5" font-family="Helvetica,sans-Serif" font-size="10.00">StatementInitPass.cpp</text>
</a>
</g>
</g>
<!-- Node1&#45;&gt;Node73 -->
<g id="edge55" class="edge">
<title>Node1&#45;&gt;Node73</title>
<path fill="none" stroke="midnightblue" d="M2070.46,-277.96C2111.07,-267.76 2170.54,-252.82 2207.59,-243.52"/>
<polygon fill="midnightblue" stroke="midnightblue" points="2069.41,-274.61 2060.57,-280.44 2071.12,-281.4 2069.41,-274.61"/>
</g>
<!-- Node74 -->
<g id="node49" class="node">
<title>Node74</title>
<g id="a_node49"><a xlink:href="ReturnStatement_8cpp.html" target="_top" xlink:title=" ">
<polygon fill="white" stroke="black" points="2322.5,-224.5 2322.5,-243.5 2442.5,-243.5 2442.5,-224.5 2322.5,-224.5"/>
<text text-anchor="middle" x="2382.5" y="-231.5" font-family="Helvetica,sans-Serif" font-size="10.00">ReturnStatement.cpp</text>
</a>
</g>
</g>
<!-- Node1&#45;&gt;Node74 -->
<g id="edge56" class="edge">
<title>Node1&#45;&gt;Node74</title>
<path fill="none" stroke="midnightblue" d="M2072.21,-282.07C2137.2,-272.21 2256.17,-254.16 2326.41,-243.51"/>
<polygon fill="midnightblue" stroke="midnightblue" points="2071.63,-278.61 2062.26,-283.58 2072.68,-285.54 2071.63,-278.61"/>
</g>
<!-- Node47 -->
<g id="node50" class="node">
<title>Node47</title>
<g id="a_node50"><a xlink:href="Decompiler_8cpp.html" target="_top" xlink:title=" ">
<polygon fill="white" stroke="black" points="2461,-224.5 2461,-243.5 2554,-243.5 2554,-224.5 2461,-224.5"/>
<text text-anchor="middle" x="2507.5" y="-231.5" font-family="Helvetica,sans-Serif" font-size="10.00">Decompiler.cpp</text>
</a>
</g>
</g>
<!-- Node1&#45;&gt;Node47 -->
<g id="edge57" class="edge">
<title>Node1&#45;&gt;Node47</title>
<path fill="none" stroke="midnightblue" d="M2072.08,-284.99C2149.99,-277.94 2313.72,-262.35 2451.5,-244 2454.53,-243.6 2457.64,-243.16 2460.78,-242.7"/>
<polygon fill="midnightblue" stroke="midnightblue" points="2071.76,-281.5 2062.12,-285.88 2072.39,-288.47 2071.76,-281.5"/>
</g>
<!-- Node3 -->
<g id="node3" class="node">
<title>Node3</title>
<g id="a_node3"><a xlink:href="Plugin_8h.html" target="_top" xlink:title=" ">
<polygon fill="white" stroke="black" points="1976.5,-168.5 1976.5,-187.5 2032.5,-187.5 2032.5,-168.5 1976.5,-168.5"/>
<text text-anchor="middle" x="2004.5" y="-175.5" font-family="Helvetica,sans-Serif" font-size="10.00">Plugin.h</text>
</a>
</g>
</g>
<!-- Node2&#45;&gt;Node3 -->
<g id="edge2" class="edge">
<title>Node2&#45;&gt;Node3</title>
<path fill="none" stroke="midnightblue" d="M1997.35,-214.1C1999.18,-205.14 2001.27,-194.86 2002.72,-187.75"/>
<polygon fill="midnightblue" stroke="midnightblue" points="1993.88,-213.59 1995.32,-224.08 2000.74,-214.98 1993.88,-213.59"/>
</g>
<!-- Node4 -->
<g id="node4" class="node">
<title>Node4</title>
<g id="a_node4"><a xlink:href="Plugin_8cpp.html" target="_top" xlink:title=" ">
<polygon fill="white" stroke="black" points="1491,-112.5 1491,-131.5 1558,-131.5 1558,-112.5 1491,-112.5"/>
<text text-anchor="middle" x="1524.5" y="-119.5" font-family="Helvetica,sans-Serif" font-size="10.00">Plugin.cpp</text>
</a>
</g>
</g>
<!-- Node3&#45;&gt;Node4 -->
<g id="edge3" class="edge">
<title>Node3&#45;&gt;Node4</title>
<path fill="none" stroke="midnightblue" d="M1966.17,-174.4C1889.93,-168.92 1713.97,-154.81 1567.5,-132 1564.49,-131.53 1561.36,-130.99 1558.24,-130.41"/>
<polygon fill="midnightblue" stroke="midnightblue" points="1966.03,-177.9 1976.25,-175.11 1966.52,-170.91 1966.03,-177.9"/>
</g>
<!-- Node5 -->
<g id="node5" class="node">
<title>Node5</title>
<g id="a_node5"><a xlink:href="PluginManager_8h.html" target="_top" xlink:title=" ">
<polygon fill="white" stroke="black" points="1576.5,-112.5 1576.5,-131.5 1674.5,-131.5 1674.5,-112.5 1576.5,-112.5"/>
<text text-anchor="middle" x="1625.5" y="-119.5" font-family="Helvetica,sans-Serif" font-size="10.00">PluginManager.h</text>
</a>
</g>
</g>
<!-- Node3&#45;&gt;Node5 -->
<g id="edge4" class="edge">
<title>Node3&#45;&gt;Node5</title>
<path fill="none" stroke="midnightblue" d="M1965.94,-171.78C1905.65,-163.58 1785.38,-147.05 1683.5,-132 1680.58,-131.57 1677.57,-131.12 1674.54,-130.66"/>
<polygon fill="midnightblue" stroke="midnightblue" points="1965.76,-175.29 1976.14,-173.17 1966.7,-168.35 1965.76,-175.29"/>
</g>
<!-- Node53 -->
<g id="node31" class="node">
<title>Node53</title>
<g id="a_node31"><a xlink:href="CapstoneX86Decoder_8cpp.html" target="_top" xlink:title=" ">
<polygon fill="white" stroke="black" points="3660.5,-0.5 3660.5,-19.5 3802.5,-19.5 3802.5,-0.5 3660.5,-0.5"/>
<text text-anchor="middle" x="3731.5" y="-7.5" font-family="Helvetica,sans-Serif" font-size="10.00">CapstoneX86Decoder.cpp</text>
</a>
</g>
</g>
<!-- Node3&#45;&gt;Node53 -->
<g id="edge34" class="edge">
<title>Node3&#45;&gt;Node53</title>
<path fill="none" stroke="midnightblue" d="M1966.16,-174.18C1907.19,-168.51 1804.91,-152.61 1843.5,-112 1912.79,-39.1 3551.26,-28.18 3651.5,-20 3654.43,-19.76 3657.41,-19.5 3660.42,-19.22"/>
<polygon fill="midnightblue" stroke="midnightblue" points="1965.99,-177.68 1976.27,-175.09 1966.62,-170.71 1965.99,-177.68"/>
</g>
<!-- Node60 -->
<g id="node35" class="node">
<title>Node60</title>
<g id="a_node35"><a xlink:href="CapstonePPCDecoder_8cpp.html" target="_top" xlink:title=" ">
<polygon fill="white" stroke="black" points="1852.5,-112.5 1852.5,-131.5 1994.5,-131.5 1994.5,-112.5 1852.5,-112.5"/>
<text text-anchor="middle" x="1923.5" y="-119.5" font-family="Helvetica,sans-Serif" font-size="10.00">CapstonePPCDecoder.cpp</text>
</a>
</g>
</g>
<!-- Node3&#45;&gt;Node60 -->
<g id="edge35" class="edge">
<title>Node3&#45;&gt;Node60</title>
<path fill="none" stroke="midnightblue" d="M1982.93,-162.62C1968.14,-152.76 1948.99,-139.99 1936.48,-131.65"/>
<polygon fill="midnightblue" stroke="midnightblue" points="1981.22,-165.69 1991.49,-168.32 1985.11,-159.86 1981.22,-165.69"/>
</g>
<!-- Node61 -->
<g id="node36" class="node">
<title>Node61</title>
<g id="a_node36"><a xlink:href="DOS4GWBinaryLoader_8cpp.html" target="_top" xlink:title=" ">
<polygon fill="white" stroke="black" points="2012.5,-112.5 2012.5,-131.5 2158.5,-131.5 2158.5,-112.5 2012.5,-112.5"/>
<text text-anchor="middle" x="2085.5" y="-119.5" font-family="Helvetica,sans-Serif" font-size="10.00">DOS4GWBinaryLoader.cpp</text>
</a>
</g>
</g>
<!-- Node3&#45;&gt;Node61 -->
<g id="edge36" class="edge">
<title>Node3&#45;&gt;Node61</title>
<path fill="none" stroke="midnightblue" d="M2026.07,-162.62C2040.86,-152.76 2060.01,-139.99 2072.52,-131.65"/>
<polygon fill="midnightblue" stroke="midnightblue" points="2023.89,-159.86 2017.51,-168.32 2027.78,-165.69 2023.89,-159.86"/>
</g>
<!-- Node62 -->
<g id="node37" class="node">
<title>Node62</title>
<g id="a_node37"><a xlink:href="ElfBinaryLoader_8cpp.html" target="_top" xlink:title=" ">
<polygon fill="white" stroke="black" points="2176.5,-112.5 2176.5,-131.5 2290.5,-131.5 2290.5,-112.5 2176.5,-112.5"/>
<text text-anchor="middle" x="2233.5" y="-119.5" font-family="Helvetica,sans-Serif" font-size="10.00">ElfBinaryLoader.cpp</text>
</a>
</g>
</g>
<!-- Node3&#45;&gt;Node62 -->
<g id="edge37" class="edge">
<title>Node3&#45;&gt;Node62</title>
<path fill="none" stroke="midnightblue" d="M2042.38,-168.07C2085.36,-157.93 2154.97,-141.52 2197.26,-131.55"/>
<polygon fill="midnightblue" stroke="midnightblue" points="2041.51,-164.68 2032.58,-170.38 2043.12,-171.49 2041.51,-164.68"/>
</g>
<!-- Node63 -->
<g id="node38" class="node">
<title>Node63</title>
<g id="a_node38"><a xlink:href="ExeBinaryLoader_8cpp.html" target="_top" xlink:title=" ">
<polygon fill="white" stroke="black" points="2309,-112.5 2309,-131.5 2428,-131.5 2428,-112.5 2309,-112.5"/>
<text text-anchor="middle" x="2368.5" y="-119.5" font-family="Helvetica,sans-Serif" font-size="10.00">ExeBinaryLoader.cpp</text>
</a>
</g>
</g>
<!-- Node3&#45;&gt;Node63 -->
<g id="edge38" class="edge">
<title>Node3&#45;&gt;Node63</title>
<path fill="none" stroke="midnightblue" d="M2042.73,-168.69C2044,-168.45 2045.26,-168.22 2046.5,-168 2095.55,-159.33 2230.03,-141.22 2308.82,-130.82"/>
<polygon fill="midnightblue" stroke="midnightblue" points="2042.05,-165.25 2032.91,-170.62 2043.4,-172.12 2042.05,-165.25"/>
</g>
<!-- Node64 -->
<g id="node39" class="node">
<title>Node64</title>
<g id="a_node39"><a xlink:href="MachOBinaryLoader_8cpp.html" target="_top" xlink:title=" ">
<polygon fill="white" stroke="black" points="2446,-112.5 2446,-131.5 2581,-131.5 2581,-112.5 2446,-112.5"/>
<text text-anchor="middle" x="2513.5" y="-119.5" font-family="Helvetica,sans-Serif" font-size="10.00">MachOBinaryLoader.cpp</text>
</a>
</g>
</g>
<!-- Node3&#45;&gt;Node64 -->
<g id="edge39" class="edge">
<title>Node3&#45;&gt;Node64</title>
<path fill="none" stroke="midnightblue" d="M2042.72,-168.61C2043.99,-168.39 2045.26,-168.19 2046.5,-168 2219.02,-141.67 2263.95,-150.26 2437.5,-132 2440.27,-131.71 2443.11,-131.4 2445.97,-131.09"/>
<polygon fill="midnightblue" stroke="midnightblue" points="2042.07,-165.17 2032.88,-170.44 2043.35,-172.05 2042.07,-165.17"/>
</g>
<!-- Node65 -->
<g id="node40" class="node">
<title>Node65</title>
<g id="a_node40"><a xlink:href="Win32BinaryLoader_8cpp.html" target="_top" xlink:title=" ">
<polygon fill="white" stroke="black" points="2599.5,-112.5 2599.5,-131.5 2731.5,-131.5 2731.5,-112.5 2599.5,-112.5"/>
<text text-anchor="middle" x="2665.5" y="-119.5" font-family="Helvetica,sans-Serif" font-size="10.00">Win32BinaryLoader.cpp</text>
</a>
</g>
</g>
<!-- Node3&#45;&gt;Node65 -->
<g id="edge40" class="edge">
<title>Node3&#45;&gt;Node65</title>
<path fill="none" stroke="midnightblue" d="M2042.71,-168.57C2043.99,-168.36 2045.25,-168.17 2046.5,-168 2286.48,-134.53 2349.23,-154.44 2590.5,-132 2593.37,-131.73 2596.31,-131.45 2599.27,-131.14"/>
<polygon fill="midnightblue" stroke="midnightblue" points="2042.09,-165.12 2032.87,-170.34 2043.33,-172.01 2042.09,-165.12"/>
</g>
<!-- Node66 -->
<g id="node41" class="node">
<title>Node66</title>
<g id="a_node41"><a xlink:href="ST20BinaryLoader_8cpp.html" target="_top" xlink:title=" ">
<polygon fill="white" stroke="black" points="2750,-112.5 2750,-131.5 2875,-131.5 2875,-112.5 2750,-112.5"/>
<text text-anchor="middle" x="2812.5" y="-119.5" font-family="Helvetica,sans-Serif" font-size="10.00">ST20BinaryLoader.cpp</text>
</a>
</g>
</g>
<!-- Node3&#45;&gt;Node66 -->
<g id="edge41" class="edge">
<title>Node3&#45;&gt;Node66</title>
<path fill="none" stroke="midnightblue" d="M2042.71,-168.54C2043.99,-168.35 2045.25,-168.16 2046.5,-168 2352.69,-127.51 2432.84,-159.17 2740.5,-132 2743.51,-131.73 2746.59,-131.44 2749.7,-131.12"/>
<polygon fill="midnightblue" stroke="midnightblue" points="2042.1,-165.1 2032.86,-170.28 2043.32,-171.99 2042.1,-165.1"/>
</g>
<!-- Node3&#45;&gt;Node67 -->
<g id="edge42" class="edge">
<title>Node3&#45;&gt;Node67</title>
<path fill="none" stroke="midnightblue" d="M2042.71,-168.53C2043.99,-168.34 2045.25,-168.16 2046.5,-168 2416.29,-120.78 2513.1,-164.14 2884.5,-132 2887.27,-131.76 2890.1,-131.49 2892.95,-131.2"/>
<polygon fill="midnightblue" stroke="midnightblue" points="2042.11,-165.08 2032.86,-170.25 2043.31,-171.98 2042.11,-165.08"/>
</g>
<!-- Node6 -->
<g id="node6" class="node">
<title>Node6</title>
<g id="a_node6"><a xlink:href="PluginManager_8cpp.html" target="_top" xlink:title=" ">
<polygon fill="white" stroke="black" points="1429.5,-56.5 1429.5,-75.5 1539.5,-75.5 1539.5,-56.5 1429.5,-56.5"/>
<text text-anchor="middle" x="1484.5" y="-63.5" font-family="Helvetica,sans-Serif" font-size="10.00">PluginManager.cpp</text>
</a>
</g>
</g>
<!-- Node5&#45;&gt;Node6 -->
<g id="edge5" class="edge">
<title>Node5&#45;&gt;Node6</title>
<path fill="none" stroke="midnightblue" d="M1593.57,-108.77C1567.09,-98.63 1530.11,-84.47 1506.74,-75.52"/>
<polygon fill="midnightblue" stroke="midnightblue" points="1592.57,-112.14 1603.16,-112.44 1595.07,-105.6 1592.57,-112.14"/>
</g>
<!-- Node7 -->
<g id="node7" class="node">
<title>Node7</title>
<g id="a_node7"><a xlink:href="Project_8h.html" target="_top" xlink:title=" ">
<polygon fill="white" stroke="red" points="1596,-56.5 1596,-75.5 1655,-75.5 1655,-56.5 1596,-56.5"/>
<text text-anchor="middle" x="1625.5" y="-63.5" font-family="Helvetica,sans-Serif" font-size="10.00">Project.h</text>
</a>
</g>
</g>
<!-- Node5&#45;&gt;Node7 -->
<g id="edge6" class="edge">
<title>Node5&#45;&gt;Node7</title>
<path fill="none" stroke="midnightblue" d="M1625.5,-101.8C1625.5,-92.91 1625.5,-82.78 1625.5,-75.75"/>
<polygon fill="midnightblue" stroke="midnightblue" points="1622,-102.08 1625.5,-112.08 1629,-102.08 1622,-102.08"/>
</g>
<!-- Node8 -->
<g id="node8" class="node">
<title>Node8</title>
<g id="a_node8"><a xlink:href="Project_8cpp.html" target="_top" xlink:title=" ">
<polygon fill="white" stroke="black" points="435,-0.5 435,-19.5 506,-19.5 506,-0.5 435,-0.5"/>
<text text-anchor="middle" x="470.5" y="-7.5" font-family="Helvetica,sans-Serif" font-size="10.00">Project.cpp</text>
</a>
</g>
</g>
<!-- Node7&#45;&gt;Node8 -->
<g id="edge7" class="edge">
<title>Node7&#45;&gt;Node8</title>
<path fill="none" stroke="midnightblue" d="M1585.91,-56.58C1584.43,-56.37 1582.95,-56.17 1581.5,-56 1110.29,-0.26 985.71,-75.74 514.5,-20 511.87,-19.69 509.16,-19.3 506.44,-18.86"/>
<polygon fill="midnightblue" stroke="midnightblue" points="1585.35,-60.03 1595.79,-58.22 1586.5,-53.13 1585.35,-60.03"/>
</g>
<!-- Node9 -->
<g id="node9" class="node">
<title>Node9</title>
<g id="a_node9"><a xlink:href="DataFlow_8cpp.html" target="_top" xlink:title=" ">
<polygon fill="white" stroke="black" points="524,-0.5 524,-19.5 607,-19.5 607,-0.5 524,-0.5"/>
<text text-anchor="middle" x="565.5" y="-7.5" font-family="Helvetica,sans-Serif" font-size="10.00">DataFlow.cpp</text>
</a>
</g>
</g>
<!-- Node7&#45;&gt;Node9 -->
<g id="edge8" class="edge">
<title>Node7&#45;&gt;Node9</title>
<path fill="none" stroke="midnightblue" d="M1585.91,-56.59C1584.43,-56.37 1582.95,-56.17 1581.5,-56 1155.37,-4.82 1043.28,-65.4 616.5,-20 613.46,-19.68 610.33,-19.28 607.18,-18.84"/>
<polygon fill="midnightblue" stroke="midnightblue" points="1585.35,-60.04 1595.79,-58.23 1586.5,-53.14 1585.35,-60.04"/>
</g>
<!-- Node7&#45;&gt;Node10 -->
<g id="edge9" class="edge">
<title>Node7&#45;&gt;Node10</title>
<path fill="none" stroke="midnightblue" d="M1585.8,-59.65C1573.83,-58.23 1560.65,-56.86 1548.5,-56 897.92,-10.09 729.69,-92.22 81.5,-20 78.81,-19.7 76.04,-19.32 73.26,-18.89"/>
<polygon fill="midnightblue" stroke="midnightblue" points="1585.59,-63.15 1595.94,-60.9 1586.44,-56.21 1585.59,-63.15"/>
</g>
<!-- Node11 -->
<g id="node11" class="node">
<title>Node11</title>
<g id="a_node11"><a xlink:href="Proc_8cpp.html" target="_top" xlink:title=" ">
<polygon fill="white" stroke="black" points="625.5,-0.5 625.5,-19.5 683.5,-19.5 683.5,-0.5 625.5,-0.5"/>
<text text-anchor="middle" x="654.5" y="-7.5" font-family="Helvetica,sans-Serif" font-size="10.00">Proc.cpp</text>
</a>
</g>
</g>
<!-- Node7&#45;&gt;Node11 -->
<g id="edge10" class="edge">
<title>Node7&#45;&gt;Node11</title>
<path fill="none" stroke="midnightblue" d="M1585.91,-56.59C1584.43,-56.38 1582.95,-56.18 1581.5,-56 1188.96,-8.22 1084.26,-73.82 692.5,-20 689.68,-19.61 686.76,-19.11 683.85,-18.54"/>
<polygon fill="midnightblue" stroke="midnightblue" points="1585.34,-60.05 1595.78,-58.25 1586.5,-53.14 1585.34,-60.05"/>
</g>
<!-- Node12 -->
<g id="node12" class="node">
<title>Node12</title>
<g id="a_node12"><a xlink:href="UserProc_8cpp.html" target="_top" xlink:title=" ">
<polygon fill="white" stroke="black" points="701.5,-0.5 701.5,-19.5 781.5,-19.5 781.5,-0.5 701.5,-0.5"/>
<text text-anchor="middle" x="741.5" y="-7.5" font-family="Helvetica,sans-Serif" font-size="10.00">UserProc.cpp</text>
</a>
</g>
</g>
<!-- Node7&#45;&gt;Node12 -->
<g id="edge11" class="edge">
<title>Node7&#45;&gt;Node12</title>
<path fill="none" stroke="midnightblue" d="M1585.91,-56.6C1584.43,-56.38 1582.95,-56.18 1581.5,-56 1232.27,-12.61 1140.15,-59.88 790.5,-20 787.58,-19.67 784.57,-19.26 781.54,-18.81"/>
<polygon fill="midnightblue" stroke="midnightblue" points="1585.34,-60.06 1595.78,-58.27 1586.5,-53.15 1585.34,-60.06"/>
</g>
<!-- Node7&#45;&gt;Node13 -->
<g id="edge12" class="edge">
<title>Node7&#45;&gt;Node13</title>
<path fill="none" stroke="midnightblue" d="M1585.8,-59.66C1573.83,-58.24 1560.65,-56.87 1548.5,-56 932.52,-12.11 772.12,-97.82 159.5,-20 156.47,-19.61 153.32,-19.1 150.2,-18.5"/>
<polygon fill="midnightblue" stroke="midnightblue" points="1585.59,-63.17 1595.94,-60.91 1586.44,-56.22 1585.59,-63.17"/>
</g>
<!-- Node14 -->
<g id="node14" class="node">
<title>Node14</title>
<g id="a_node14"><a xlink:href="IndirectJumpAnalyzer_8cpp.html" target="_top" xlink:title=" ">
<polygon fill="white" stroke="black" points="800,-0.5 800,-19.5 941,-19.5 941,-0.5 800,-0.5"/>
<text text-anchor="middle" x="870.5" y="-7.5" font-family="Helvetica,sans-Serif" font-size="10.00">IndirectJumpAnalyzer.cpp</text>
</a>
</g>
</g>
<!-- Node7&#45;&gt;Node14 -->
<g id="edge13" class="edge">
<title>Node7&#45;&gt;Node14</title>
<path fill="none" stroke="midnightblue" d="M1585.91,-56.62C1584.42,-56.4 1582.95,-56.19 1581.5,-56 1302.51,-19.71 1229.82,-43.93 949.5,-20 946.75,-19.77 943.95,-19.51 941.12,-19.25"/>
<polygon fill="midnightblue" stroke="midnightblue" points="1585.33,-60.08 1595.78,-58.31 1586.51,-53.18 1585.33,-60.08"/>
</g>
<!-- Node15 -->
<g id="node15" class="node">
<title>Node15</title>
<g id="a_node15"><a xlink:href="InterferenceFinder_8cpp.html" target="_top" xlink:title=" ">
<polygon fill="white" stroke="black" points="959,-0.5 959,-19.5 1084,-19.5 1084,-0.5 959,-0.5"/>
<text text-anchor="middle" x="1021.5" y="-7.5" font-family="Helvetica,sans-Serif" font-size="10.00">InterferenceFinder.cpp</text>
</a>
</g>
</g>
<!-- Node7&#45;&gt;Node15 -->
<g id="edge14" class="edge">
<title>Node7&#45;&gt;Node15</title>
<path fill="none" stroke="midnightblue" d="M1585.9,-56.65C1584.42,-56.42 1582.95,-56.2 1581.5,-56 1366.08,-26.15 1309.91,-41.49 1093.5,-20 1090.49,-19.7 1087.41,-19.38 1084.31,-19.04"/>
<polygon fill="midnightblue" stroke="midnightblue" points="1585.31,-60.1 1595.77,-58.38 1586.52,-53.21 1585.31,-60.1"/>
</g>
<!-- Node16 -->
<g id="node16" class="node">
<title>Node16</title>
<g id="a_node16"><a xlink:href="LivenessAnalyzer_8cpp.html" target="_top" xlink:title=" ">
<polygon fill="white" stroke="black" points="1102.5,-0.5 1102.5,-19.5 1224.5,-19.5 1224.5,-0.5 1102.5,-0.5"/>
<text text-anchor="middle" x="1163.5" y="-7.5" font-family="Helvetica,sans-Serif" font-size="10.00">LivenessAnalyzer.cpp</text>
</a>
</g>
</g>
<!-- Node7&#45;&gt;Node16 -->
<g id="edge15" class="edge">
<title>Node7&#45;&gt;Node16</title>
<path fill="none" stroke="midnightblue" d="M1585.9,-56.71C1584.41,-56.46 1582.94,-56.22 1581.5,-56 1427.81,-32.39 1387.96,-37.92 1233.5,-20 1230.58,-19.66 1227.59,-19.31 1224.57,-18.94"/>
<polygon fill="midnightblue" stroke="midnightblue" points="1585.28,-60.16 1595.75,-58.5 1586.54,-53.27 1585.28,-60.16"/>
</g>
<!-- Node7&#45;&gt;Node17 -->
<g id="edge16" class="edge">
<title>Node7&#45;&gt;Node17</title>
<path fill="none" stroke="midnightblue" d="M1585.79,-59.68C1573.83,-58.27 1560.65,-56.88 1548.5,-56 991.07,-15.52 848.51,-65.82 291.5,-20 288.62,-19.76 285.67,-19.49 282.7,-19.18"/>
<polygon fill="midnightblue" stroke="midnightblue" points="1585.59,-63.19 1595.94,-60.93 1586.44,-56.24 1585.59,-63.19"/>
</g>
<!-- Node18 -->
<g id="node18" class="node">
<title>Node18</title>
<g id="a_node18"><a xlink:href="ProgDecompiler_8cpp.html" target="_top" xlink:title=" ">
<polygon fill="white" stroke="black" points="1243,-0.5 1243,-19.5 1358,-19.5 1358,-0.5 1243,-0.5"/>
<text text-anchor="middle" x="1300.5" y="-7.5" font-family="Helvetica,sans-Serif" font-size="10.00">ProgDecompiler.cpp</text>
</a>
</g>
</g>
<!-- Node7&#45;&gt;Node18 -->
<g id="edge17" class="edge">
<title>Node7&#45;&gt;Node18</title>
<path fill="none" stroke="midnightblue" d="M1585.88,-56.81C1584.4,-56.53 1582.94,-56.26 1581.5,-56 1504.46,-41.96 1415.1,-28.05 1358.21,-19.5"/>
<polygon fill="midnightblue" stroke="midnightblue" points="1585.23,-60.25 1595.71,-58.73 1586.56,-53.38 1585.23,-60.25"/>
</g>
<!-- Node19 -->
<g id="node19" class="node">
<title>Node19</title>
<g id="a_node19"><a xlink:href="UnusedReturnRemover_8cpp.html" target="_top" xlink:title=" ">
<polygon fill="white" stroke="black" points="1376.5,-0.5 1376.5,-19.5 1526.5,-19.5 1526.5,-0.5 1376.5,-0.5"/>
<text text-anchor="middle" x="1451.5" y="-7.5" font-family="Helvetica,sans-Serif" font-size="10.00">UnusedReturnRemover.cpp</text>
</a>
</g>
</g>
<!-- Node7&#45;&gt;Node19 -->
<g id="edge18" class="edge">
<title>Node7&#45;&gt;Node19</title>
<path fill="none" stroke="midnightblue" d="M1588.24,-53.44C1555.43,-43.26 1508.42,-28.66 1478.94,-19.52"/>
<polygon fill="midnightblue" stroke="midnightblue" points="1587.34,-56.82 1597.93,-56.44 1589.42,-50.14 1587.34,-56.82"/>
</g>
<!-- Node20 -->
<g id="node20" class="node">
<title>Node20</title>
<g id="a_node20"><a xlink:href="DefaultFrontEnd_8cpp.html" target="_top" xlink:title=" ">
<polygon fill="white" stroke="black" points="300.5,-0.5 300.5,-19.5 416.5,-19.5 416.5,-0.5 300.5,-0.5"/>
<text text-anchor="middle" x="358.5" y="-7.5" font-family="Helvetica,sans-Serif" font-size="10.00">DefaultFrontEnd.cpp</text>
</a>
</g>
</g>
<!-- Node7&#45;&gt;Node20 -->
<g id="edge19" class="edge">
<title>Node7&#45;&gt;Node20</title>
<path fill="none" stroke="midnightblue" d="M1585.91,-56.58C1584.43,-56.36 1582.95,-56.17 1581.5,-56 1070.95,3.72 937.79,-62.27 425.5,-20 422.58,-19.76 419.58,-19.48 416.57,-19.17"/>
<polygon fill="midnightblue" stroke="midnightblue" points="1585.35,-60.03 1595.79,-58.21 1586.49,-53.12 1585.35,-60.03"/>
</g>
<!-- Node21 -->
<g id="node21" class="node">
<title>Node21</title>
<g id="a_node21"><a xlink:href="CallArgumentUpdatePass_8cpp.html" target="_top" xlink:title=" ">
<polygon fill="white" stroke="black" points="1545,-0.5 1545,-19.5 1706,-19.5 1706,-0.5 1545,-0.5"/>
<text text-anchor="middle" x="1625.5" y="-7.5" font-family="Helvetica,sans-Serif" font-size="10.00">CallArgumentUpdatePass.cpp</text>
</a>
</g>
</g>
<!-- Node7&#45;&gt;Node21 -->
<g id="edge20" class="edge">
<title>Node7&#45;&gt;Node21</title>
<path fill="none" stroke="midnightblue" d="M1625.5,-45.8C1625.5,-36.91 1625.5,-26.78 1625.5,-19.75"/>
<polygon fill="midnightblue" stroke="midnightblue" points="1622,-46.08 1625.5,-56.08 1629,-46.08 1622,-46.08"/>
</g>
<!-- Node22 -->
<g id="node22" class="node">
<title>Node22</title>
<g id="a_node22"><a xlink:href="CallDefineUpdatePass_8cpp.html" target="_top" xlink:title=" ">
<polygon fill="white" stroke="black" points="1724.5,-0.5 1724.5,-19.5 1870.5,-19.5 1870.5,-0.5 1724.5,-0.5"/>
<text text-anchor="middle" x="1797.5" y="-7.5" font-family="Helvetica,sans-Serif" font-size="10.00">CallDefineUpdatePass.cpp</text>
</a>
</g>
</g>
<!-- Node7&#45;&gt;Node22 -->
<g id="edge21" class="edge">
<title>Node7&#45;&gt;Node22</title>
<path fill="none" stroke="midnightblue" d="M1662.33,-53.44C1694.76,-43.26 1741.24,-28.66 1770.37,-19.52"/>
<polygon fill="midnightblue" stroke="midnightblue" points="1661.25,-50.11 1652.75,-56.44 1663.34,-56.79 1661.25,-50.11"/>
</g>
<!-- Node23 -->
<g id="node23" class="node">
<title>Node23</title>
<g id="a_node23"><a xlink:href="BlockVarRenamePass_8cpp.html" target="_top" xlink:title=" ">
<polygon fill="white" stroke="black" points="1889,-0.5 1889,-19.5 2032,-19.5 2032,-0.5 1889,-0.5"/>
<text text-anchor="middle" x="1960.5" y="-7.5" font-family="Helvetica,sans-Serif" font-size="10.00">BlockVarRenamePass.cpp</text>
</a>
</g>
</g>
<!-- Node7&#45;&gt;Node23 -->
<g id="edge22" class="edge">
<title>Node7&#45;&gt;Node23</title>
<path fill="none" stroke="midnightblue" d="M1665.25,-55.78C1748.99,-39.77 1835.51,-27.31 1893.59,-19.54"/>
<polygon fill="midnightblue" stroke="midnightblue" points="1664.48,-52.36 1655.32,-57.69 1665.8,-59.23 1664.48,-52.36"/>
</g>
<!-- Node24 -->
<g id="node24" class="node">
<title>Node24</title>
<g id="a_node24"><a xlink:href="StatementPropagationPass_8cpp.html" target="_top" xlink:title=" ">
<polygon fill="white" stroke="black" points="2050,-0.5 2050,-19.5 2219,-19.5 2219,-0.5 2050,-0.5"/>
<text text-anchor="middle" x="2134.5" y="-7.5" font-family="Helvetica,sans-Serif" font-size="10.00">StatementPropagationPass.cpp</text>
</a>
</g>
</g>
<!-- Node7&#45;&gt;Node24 -->
<g id="edge23" class="edge">
<title>Node7&#45;&gt;Node24</title>
<path fill="none" stroke="midnightblue" d="M1665.36,-55.88C1831.3,-28.82 1876.22,-35.71 2040.5,-20 2043.6,-19.7 2046.76,-19.4 2049.95,-19.1"/>
<polygon fill="midnightblue" stroke="midnightblue" points="1664.59,-52.46 1655.29,-57.54 1665.73,-59.36 1664.59,-52.46"/>
</g>
<!-- Node25 -->
<g id="node25" class="node">
<title>Node25</title>
<g id="a_node25"><a xlink:href="FromSSAFormPass_8cpp.html" target="_top" xlink:title=" ">
<polygon fill="white" stroke="black" points="2237.5,-0.5 2237.5,-19.5 2365.5,-19.5 2365.5,-0.5 2237.5,-0.5"/>
<text text-anchor="middle" x="2301.5" y="-7.5" font-family="Helvetica,sans-Serif" font-size="10.00">FromSSAFormPass.cpp</text>
</a>
</g>
</g>
<!-- Node7&#45;&gt;Node25 -->
<g id="edge24" class="edge">
<title>Node7&#45;&gt;Node25</title>
<path fill="none" stroke="midnightblue" d="M1665.35,-55.95C1914.13,-19.51 1981.27,-43.1 2228.5,-20 2231.42,-19.73 2234.41,-19.43 2237.43,-19.12"/>
<polygon fill="midnightblue" stroke="midnightblue" points="1664.66,-52.52 1655.28,-57.45 1665.68,-59.44 1664.66,-52.52"/>
</g>
<!-- Node26 -->
<g id="node26" class="node">
<title>Node26</title>
<g id="a_node26"><a xlink:href="LocalAndParamMapPass_8cpp.html" target="_top" xlink:title=" ">
<polygon fill="white" stroke="black" points="2383.5,-0.5 2383.5,-19.5 2539.5,-19.5 2539.5,-0.5 2383.5,-0.5"/>
<text text-anchor="middle" x="2461.5" y="-7.5" font-family="Helvetica,sans-Serif" font-size="10.00">LocalAndParamMapPass.cpp</text>
</a>
</g>
</g>
<!-- Node7&#45;&gt;Node26 -->
<g id="edge25" class="edge">
<title>Node7&#45;&gt;Node26</title>
<path fill="none" stroke="midnightblue" d="M1665.55,-55.95C1978.53,-12.06 2062.42,-44.03 2374.5,-20 2377.38,-19.78 2380.31,-19.54 2383.26,-19.29"/>
<polygon fill="midnightblue" stroke="midnightblue" points="1664.68,-52.54 1655.27,-57.41 1665.67,-59.47 1664.68,-52.54"/>
</g>
<!-- Node27 -->
<g id="node27" class="node">
<title>Node27</title>
<g id="a_node27"><a xlink:href="LocalTypeAnalysisPass_8cpp.html" target="_top" xlink:title=" ">
<polygon fill="white" stroke="black" points="2558,-0.5 2558,-19.5 2707,-19.5 2707,-0.5 2558,-0.5"/>
<text text-anchor="middle" x="2632.5" y="-7.5" font-family="Helvetica,sans-Serif" font-size="10.00">LocalTypeAnalysisPass.cpp</text>
</a>
</g>
</g>
<!-- Node7&#45;&gt;Node27 -->
<g id="edge26" class="edge">
<title>Node7&#45;&gt;Node27</title>
<path fill="none" stroke="midnightblue" d="M1665.41,-55.99C2055.26,-3.18 2159.26,-48.74 2548.5,-20 2551.57,-19.77 2554.7,-19.52 2557.87,-19.25"/>
<polygon fill="midnightblue" stroke="midnightblue" points="1664.7,-52.56 1655.27,-57.38 1665.65,-59.49 1664.7,-52.56"/>
</g>
<!-- Node28 -->
<g id="node28" class="node">
<title>Node28</title>
<g id="a_node28"><a xlink:href="UnusedLocalRemovalPass_8cpp.html" target="_top" xlink:title=" ">
<polygon fill="white" stroke="black" points="2725,-0.5 2725,-19.5 2890,-19.5 2890,-0.5 2725,-0.5"/>
<text text-anchor="middle" x="2807.5" y="-7.5" font-family="Helvetica,sans-Serif" font-size="10.00">UnusedLocalRemovalPass.cpp</text>
</a>
</g>
</g>
<!-- Node7&#45;&gt;Node28 -->
<g id="edge27" class="edge">
<title>Node7&#45;&gt;Node28</title>
<path fill="none" stroke="midnightblue" d="M1665.25,-56.03C2129.35,5.46 2252.57,-50.84 2716.5,-20 2719.19,-19.82 2721.93,-19.63 2724.69,-19.42"/>
<polygon fill="midnightblue" stroke="midnightblue" points="1664.71,-52.57 1655.27,-57.36 1665.64,-59.51 1664.71,-52.57"/>
</g>
<!-- Node29 -->
<g id="node29" class="node">
<title>Node29</title>
<g id="a_node29"><a xlink:href="UnusedParamRemovalPass_8cpp.html" target="_top" xlink:title=" ">
<polygon fill="white" stroke="black" points="2908,-0.5 2908,-19.5 3079,-19.5 3079,-0.5 2908,-0.5"/>
<text text-anchor="middle" x="2993.5" y="-7.5" font-family="Helvetica,sans-Serif" font-size="10.00">UnusedParamRemovalPass.cpp</text>
</a>
</g>
</g>
<!-- Node7&#45;&gt;Node29 -->
<g id="edge28" class="edge">
<title>Node7&#45;&gt;Node29</title>
<path fill="none" stroke="midnightblue" d="M1665.35,-56.02C2210.13,14.85 2354.35,-54 2899.5,-20 2902.28,-19.83 2905.11,-19.64 2907.96,-19.43"/>
<polygon fill="midnightblue" stroke="midnightblue" points="1664.72,-52.58 1655.26,-57.35 1665.63,-59.52 1664.72,-52.58"/>
</g>
<!-- Node30 -->
<g id="node30" class="node">
<title>Node30</title>
<g id="a_node30"><a xlink:href="UnusedStatementRemovalPass_8cpp.html" target="_top" xlink:title=" ">
<polygon fill="white" stroke="black" points="3097,-0.5 3097,-19.5 3288,-19.5 3288,-0.5 3097,-0.5"/>
<text text-anchor="middle" x="3192.5" y="-7.5" font-family="Helvetica,sans-Serif" font-size="10.00">UnusedStatementRemovalPass.cpp</text>
</a>
</g>
</g>
<!-- Node7&#45;&gt;Node30 -->
<g id="edge29" class="edge">
<title>Node7&#45;&gt;Node30</title>
<path fill="none" stroke="midnightblue" d="M1665.33,-56.06C1993.88,-15.73 2775.47,-37.48 3088.5,-20 3091.21,-19.85 3093.97,-19.68 3096.75,-19.51"/>
<polygon fill="midnightblue" stroke="midnightblue" points="1664.74,-52.61 1655.26,-57.34 1665.62,-59.55 1664.74,-52.61"/>
</g>
<!-- Node7&#45;&gt;Node53 -->
<g id="edge30" class="edge">
<title>Node7&#45;&gt;Node53</title>
<path fill="none" stroke="midnightblue" d="M1665.51,-56.05C2118.63,-1.49 3213.92,-48.51 3651.5,-20 3654.43,-19.81 3657.42,-19.59 3660.43,-19.35"/>
<polygon fill="midnightblue" stroke="midnightblue" points="1664.76,-52.62 1655.26,-57.31 1665.61,-59.56 1664.76,-52.62"/>
</g>
<!-- Node55 -->
<g id="node32" class="node">
<title>Node55</title>
<g id="a_node32"><a xlink:href="PPCFrontEnd_8cpp.html" target="_top" xlink:title=" ">
<polygon fill="white" stroke="black" points="3306.5,-0.5 3306.5,-19.5 3404.5,-19.5 3404.5,-0.5 3306.5,-0.5"/>
<text text-anchor="middle" x="3355.5" y="-7.5" font-family="Helvetica,sans-Serif" font-size="10.00">PPCFrontEnd.cpp</text>
</a>
</g>
</g>
<!-- Node7&#45;&gt;Node55 -->
<g id="edge31" class="edge">
<title>Node7&#45;&gt;Node55</title>
<path fill="none" stroke="midnightblue" d="M1665.38,-56.06C2040.19,-10.65 2938.97,-51.63 3297.5,-20 3300.34,-19.75 3303.26,-19.45 3306.19,-19.1"/>
<polygon fill="midnightblue" stroke="midnightblue" points="1664.75,-52.61 1655.26,-57.33 1665.62,-59.56 1664.75,-52.61"/>
</g>
<!-- Node56 -->
<g id="node33" class="node">
<title>Node56</title>
<g id="a_node33"><a xlink:href="ST20FrontEnd_8cpp.html" target="_top" xlink:title=" ">
<polygon fill="white" stroke="black" points="3422.5,-0.5 3422.5,-19.5 3526.5,-19.5 3526.5,-0.5 3422.5,-0.5"/>
<text text-anchor="middle" x="3474.5" y="-7.5" font-family="Helvetica,sans-Serif" font-size="10.00">ST20FrontEnd.cpp</text>
</a>
</g>
</g>
<!-- Node7&#45;&gt;Node56 -->
<g id="edge32" class="edge">
<title>Node7&#45;&gt;Node56</title>
<path fill="none" stroke="midnightblue" d="M1665.19,-56.09C2065.53,-7.65 3029.1,-52.18 3413.5,-20 3416.38,-19.76 3419.33,-19.47 3422.31,-19.14"/>
<polygon fill="midnightblue" stroke="midnightblue" points="1664.75,-52.61 1655.26,-57.32 1665.62,-59.56 1664.75,-52.61"/>
</g>
<!-- Node57 -->
<g id="node34" class="node">
<title>Node57</title>
<g id="a_node34"><a xlink:href="X86FrontEnd_8cpp.html" target="_top" xlink:title=" ">
<polygon fill="white" stroke="black" points="3544.5,-0.5 3544.5,-19.5 3642.5,-19.5 3642.5,-0.5 3544.5,-0.5"/>
<text text-anchor="middle" x="3593.5" y="-7.5" font-family="Helvetica,sans-Serif" font-size="10.00">X86FrontEnd.cpp</text>
</a>
</g>
</g>
<!-- Node7&#45;&gt;Node57 -->
<g id="edge33" class="edge">
<title>Node7&#45;&gt;Node57</title>
<path fill="none" stroke="midnightblue" d="M1665.24,-56.08C2092.57,-4.57 3124.22,-55.7 3535.5,-20 3538.34,-19.75 3541.26,-19.45 3544.19,-19.11"/>
<polygon fill="midnightblue" stroke="midnightblue" points="1664.75,-52.62 1655.26,-57.32 1665.62,-59.56 1664.75,-52.62"/>
</g>
<!-- Node69&#45;&gt;Node20 -->
<g id="edge48" class="edge">
<title>Node69&#45;&gt;Node20</title>
<path fill="none" stroke="midnightblue" d="M1696.18,-110C1664.45,-102.11 1622.34,-90.35 1586.5,-76 1568.78,-68.9 1566.95,-60.87 1548.5,-56 1307.1,7.77 674.33,-40.65 425.5,-20 422.58,-19.76 419.58,-19.48 416.57,-19.17"/>
<polygon fill="midnightblue" stroke="midnightblue" points="1695.55,-113.45 1706.09,-112.43 1697.21,-106.65 1695.55,-113.45"/>
</g>
<!-- Node70 -->
<g id="node45" class="node">
<title>Node70</title>
<g id="a_node45"><a xlink:href="PPCFrontEnd_8h.html" target="_top" xlink:title=" ">
<polygon fill="white" stroke="black" points="1673,-56.5 1673,-75.5 1760,-75.5 1760,-56.5 1673,-56.5"/>
<text text-anchor="middle" x="1716.5" y="-63.5" font-family="Helvetica,sans-Serif" font-size="10.00">PPCFrontEnd.h</text>
</a>
</g>
</g>
<!-- Node69&#45;&gt;Node70 -->
<g id="edge49" class="edge">
<title>Node69&#45;&gt;Node70</title>
<path fill="none" stroke="midnightblue" d="M1735.16,-102.98C1730.41,-93.82 1724.84,-83.09 1721.04,-75.75"/>
<polygon fill="midnightblue" stroke="midnightblue" points="1732.17,-104.82 1739.88,-112.08 1738.38,-101.59 1732.17,-104.82"/>
</g>
<!-- Node71 -->
<g id="node46" class="node">
<title>Node71</title>
<g id="a_node46"><a xlink:href="ST20FrontEnd_8h.html" target="_top" xlink:title=" ">
<polygon fill="white" stroke="black" points="1778.5,-56.5 1778.5,-75.5 1870.5,-75.5 1870.5,-56.5 1778.5,-56.5"/>
<text text-anchor="middle" x="1824.5" y="-63.5" font-family="Helvetica,sans-Serif" font-size="10.00">ST20FrontEnd.h</text>
</a>
</g>
</g>
<!-- Node69&#45;&gt;Node71 -->
<g id="edge51" class="edge">
<title>Node69&#45;&gt;Node71</title>
<path fill="none" stroke="midnightblue" d="M1765.8,-106.62C1780.42,-96.76 1799.33,-83.99 1811.68,-75.65"/>
<polygon fill="midnightblue" stroke="midnightblue" points="1763.68,-103.83 1757.35,-112.32 1767.6,-109.63 1763.68,-103.83"/>
</g>
<!-- Node72 -->
<g id="node47" class="node">
<title>Node72</title>
<g id="a_node47"><a xlink:href="X86FrontEnd_8h.html" target="_top" xlink:title=" ">
<polygon fill="white" stroke="black" points="1889,-56.5 1889,-75.5 1976,-75.5 1976,-56.5 1889,-56.5"/>
<text text-anchor="middle" x="1932.5" y="-63.5" font-family="Helvetica,sans-Serif" font-size="10.00">X86FrontEnd.h</text>
</a>
</g>
</g>
<!-- Node69&#45;&gt;Node72 -->
<g id="edge53" class="edge">
<title>Node69&#45;&gt;Node72</title>
<path fill="none" stroke="midnightblue" d="M1784.3,-109.57C1819.77,-99.38 1870.87,-84.7 1902.85,-75.52"/>
<polygon fill="midnightblue" stroke="midnightblue" points="1782.93,-106.32 1774.29,-112.44 1784.87,-113.05 1782.93,-106.32"/>
</g>
<!-- Node70&#45;&gt;Node55 -->
<g id="edge50" class="edge">
<title>Node70&#45;&gt;Node55</title>
<path fill="none" stroke="midnightblue" d="M1770.11,-56.12C2447.4,8.16 2624.18,-79.91 3297.5,-20 3300.34,-19.75 3303.26,-19.44 3306.19,-19.1"/>
<polygon fill="midnightblue" stroke="midnightblue" points="1769.73,-52.64 1760.11,-57.08 1770.39,-59.61 1769.73,-52.64"/>
</g>
<!-- Node71&#45;&gt;Node56 -->
<g id="edge52" class="edge">
<title>Node71&#45;&gt;Node56</title>
<path fill="none" stroke="midnightblue" d="M1880.69,-56.04C2560.25,6.39 2737.31,-77.6 3413.5,-20 3416.38,-19.75 3419.33,-19.46 3422.31,-19.13"/>
<polygon fill="midnightblue" stroke="midnightblue" points="1880.29,-52.56 1870.65,-56.97 1880.93,-59.53 1880.29,-52.56"/>
</g>
<!-- Node72&#45;&gt;Node57 -->
<g id="edge54" class="edge">
<title>Node72&#45;&gt;Node57</title>
<path fill="none" stroke="midnightblue" d="M1986.07,-56.43C1987.56,-56.27 1989.04,-56.13 1990.5,-56 2674.66,4.79 2851.34,-80.79 3535.5,-20 3538.34,-19.75 3541.26,-19.44 3544.19,-19.1"/>
<polygon fill="midnightblue" stroke="midnightblue" points="1985.65,-52.95 1976.13,-57.6 1986.47,-59.91 1985.65,-52.95"/>
</g>
</g>
</svg>
