<?xml version="1.0" encoding="UTF-8" standalone="no"?>
<!DOCTYPE svg PUBLIC "-//W3C//DTD SVG 1.1//EN"
 "http://www.w3.org/Graphics/SVG/1.1/DTD/svg11.dtd">
<!-- Generated by graphviz version 2.43.0 (0)
 -->
<!-- Title: IntervalMap.h Pages: 1 -->
<svg width="4453pt" height="252pt"
 viewBox="0.00 0.00 4452.50 252.00" xmlns="http://www.w3.org/2000/svg" xmlns:xlink="http://www.w3.org/1999/xlink">
<g id="graph0" class="graph" transform="scale(1 1) rotate(0) translate(4 248)">
<title>IntervalMap.h</title>
<polygon fill="white" stroke="transparent" points="-4,4 -4,-248 4448.5,-248 4448.5,4 -4,4"/>
<!-- Node1 -->
<g id="node1" class="node">
<title>Node1</title>
<g id="a_node1"><a xlink:title=" ">
<polygon fill="#bfbfbf" stroke="black" points="2062,-224.5 2062,-243.5 2146,-243.5 2146,-224.5 2062,-224.5"/>
<text text-anchor="middle" x="2104" y="-231.5" font-family="Helvetica,sans-Serif" font-size="10.00">IntervalMap.h</text>
</a>
</g>
</g>
<!-- Node2 -->
<g id="node2" class="node">
<title>Node2</title>
<g id="a_node2"><a xlink:href="BinaryImage_8h.html" target="_top" xlink:title=" ">
<polygon fill="white" stroke="black" points="1182,-168.5 1182,-187.5 1270,-187.5 1270,-168.5 1182,-168.5"/>
<text text-anchor="middle" x="1226" y="-175.5" font-family="Helvetica,sans-Serif" font-size="10.00">BinaryImage.h</text>
</a>
</g>
</g>
<!-- Node1&#45;&gt;Node2 -->
<g id="edge1" class="edge">
<title>Node1&#45;&gt;Node2</title>
<path fill="none" stroke="midnightblue" d="M2051.96,-229.8C1893.29,-220.04 1417.46,-190.78 1270.04,-181.71"/>
<polygon fill="midnightblue" stroke="midnightblue" points="2051.75,-233.29 2061.95,-230.41 2052.18,-226.31 2051.75,-233.29"/>
</g>
<!-- Node82 -->
<g id="node40" class="node">
<title>Node82</title>
<g id="a_node40"><a xlink:href="DataIntervalMap_8h.html" target="_top" xlink:title=" ">
<polygon fill="white" stroke="black" points="2940.5,-112.5 2940.5,-131.5 3047.5,-131.5 3047.5,-112.5 2940.5,-112.5"/>
<text text-anchor="middle" x="2994" y="-119.5" font-family="Helvetica,sans-Serif" font-size="10.00">DataIntervalMap.h</text>
</a>
</g>
</g>
<!-- Node1&#45;&gt;Node82 -->
<g id="edge48" class="edge">
<title>Node1&#45;&gt;Node82</title>
<path fill="none" stroke="midnightblue" d="M2103.98,-213.86C2105.09,-198.85 2109.29,-178.76 2123,-168 2193.25,-112.85 2837.04,-139.87 2926,-132 2930.63,-131.59 2935.42,-131.1 2940.23,-130.56"/>
<polygon fill="midnightblue" stroke="midnightblue" points="2100.47,-213.99 2103.63,-224.11 2107.47,-214.23 2100.47,-213.99"/>
</g>
<!-- Node100 -->
<g id="node50" class="node">
<title>Node100</title>
<g id="a_node50"><a xlink:href="BinarySection_8cpp.html" target="_top" xlink:title=" ">
<polygon fill="white" stroke="black" points="2132,-168.5 2132,-187.5 2236,-187.5 2236,-168.5 2132,-168.5"/>
<text text-anchor="middle" x="2184" y="-175.5" font-family="Helvetica,sans-Serif" font-size="10.00">BinarySection.cpp</text>
</a>
</g>
</g>
<!-- Node1&#45;&gt;Node100 -->
<g id="edge79" class="edge">
<title>Node1&#45;&gt;Node100</title>
<path fill="none" stroke="midnightblue" d="M2125.3,-218.62C2139.92,-208.76 2158.83,-195.99 2171.18,-187.65"/>
<polygon fill="midnightblue" stroke="midnightblue" points="2123.18,-215.83 2116.85,-224.32 2127.1,-221.63 2123.18,-215.83"/>
</g>
<!-- Node3 -->
<g id="node3" class="node">
<title>Node3</title>
<g id="a_node3"><a xlink:href="IFileLoader_8h.html" target="_top" xlink:title=" ">
<polygon fill="white" stroke="black" points="636,-112.5 636,-131.5 714,-131.5 714,-112.5 636,-112.5"/>
<text text-anchor="middle" x="675" y="-119.5" font-family="Helvetica,sans-Serif" font-size="10.00">IFileLoader.h</text>
</a>
</g>
</g>
<!-- Node2&#45;&gt;Node3 -->
<g id="edge2" class="edge">
<title>Node2&#45;&gt;Node3</title>
<path fill="none" stroke="midnightblue" d="M1171.88,-171.7C1061.11,-160.84 810.81,-136.31 714.13,-126.84"/>
<polygon fill="midnightblue" stroke="midnightblue" points="1171.55,-175.18 1181.84,-172.67 1172.23,-168.21 1171.55,-175.18"/>
</g>
<!-- Node15 -->
<g id="node11" class="node">
<title>Node15</title>
<g id="a_node11"><a xlink:href="Prog_8cpp.html" target="_top" xlink:title=" ">
<polygon fill="white" stroke="black" points="1108.5,-0.5 1108.5,-19.5 1167.5,-19.5 1167.5,-0.5 1108.5,-0.5"/>
<text text-anchor="middle" x="1138" y="-7.5" font-family="Helvetica,sans-Serif" font-size="10.00">Prog.cpp</text>
</a>
</g>
</g>
<!-- Node2&#45;&gt;Node15 -->
<g id="edge37" class="edge">
<title>Node2&#45;&gt;Node15</title>
<path fill="none" stroke="midnightblue" d="M1230.57,-158.15C1235.6,-132.84 1240.59,-87.4 1221,-56 1209.2,-37.08 1186.52,-25.57 1167.84,-18.92"/>
<polygon fill="midnightblue" stroke="midnightblue" points="1227.08,-157.73 1228.35,-168.25 1233.92,-159.23 1227.08,-157.73"/>
</g>
<!-- Node59 -->
<g id="node21" class="node">
<title>Node59</title>
<g id="a_node21"><a xlink:href="X86FrontEnd_8cpp.html" target="_top" xlink:title=" ">
<polygon fill="white" stroke="black" points="1186,-0.5 1186,-19.5 1284,-19.5 1284,-0.5 1186,-0.5"/>
<text text-anchor="middle" x="1235" y="-7.5" font-family="Helvetica,sans-Serif" font-size="10.00">X86FrontEnd.cpp</text>
</a>
</g>
</g>
<!-- Node2&#45;&gt;Node59 -->
<g id="edge42" class="edge">
<title>Node2&#45;&gt;Node59</title>
<path fill="none" stroke="midnightblue" d="M1241.71,-160.88C1248.43,-152.88 1255.51,-142.66 1259,-132 1269.51,-99.9 1267.19,-88.77 1259,-56 1255.61,-42.43 1247.26,-28.47 1241.37,-19.77"/>
<polygon fill="midnightblue" stroke="midnightblue" points="1239.1,-158.56 1235.02,-168.34 1244.3,-163.24 1239.1,-158.56"/>
</g>
<!-- Node70 -->
<g id="node22" class="node">
<title>Node70</title>
<g id="a_node22"><a xlink:href="BinaryFile_8cpp.html" target="_top" xlink:title=" ">
<polygon fill="white" stroke="black" points="70.5,-56.5 70.5,-75.5 155.5,-75.5 155.5,-56.5 70.5,-56.5"/>
<text text-anchor="middle" x="113" y="-63.5" font-family="Helvetica,sans-Serif" font-size="10.00">BinaryFile.cpp</text>
</a>
</g>
</g>
<!-- Node2&#45;&gt;Node70 -->
<g id="edge34" class="edge">
<title>Node2&#45;&gt;Node70</title>
<path fill="none" stroke="midnightblue" d="M1171.93,-173.76C1066.82,-167.29 827.64,-151.66 627,-132 420.71,-111.79 369.03,-106.47 164,-76 161.24,-75.59 158.41,-75.15 155.55,-74.69"/>
<polygon fill="midnightblue" stroke="midnightblue" points="1171.78,-177.26 1181.98,-174.38 1172.21,-170.27 1171.78,-177.26"/>
</g>
<!-- Node63 -->
<g id="node24" class="node">
<title>Node63</title>
<g id="a_node24"><a xlink:href="DOS4GWBinaryLoader_8cpp.html" target="_top" xlink:title=" ">
<polygon fill="white" stroke="black" points="944,-0.5 944,-19.5 1090,-19.5 1090,-0.5 944,-0.5"/>
<text text-anchor="middle" x="1017" y="-7.5" font-family="Helvetica,sans-Serif" font-size="10.00">DOS4GWBinaryLoader.cpp</text>
</a>
</g>
</g>
<!-- Node2&#45;&gt;Node63 -->
<g id="edge43" class="edge">
<title>Node2&#45;&gt;Node63</title>
<path fill="none" stroke="midnightblue" d="M1225.48,-157.94C1223.7,-131.29 1216.45,-83.14 1188,-56 1171.29,-40.05 1115.12,-27.3 1071.67,-19.5"/>
<polygon fill="midnightblue" stroke="midnightblue" points="1222,-158.39 1225.96,-168.22 1228.99,-158.06 1222,-158.39"/>
</g>
<!-- Node64 -->
<g id="node26" class="node">
<title>Node64</title>
<g id="a_node26"><a xlink:href="ElfBinaryLoader_8cpp.html" target="_top" xlink:title=" ">
<polygon fill="white" stroke="black" points="0,-0.5 0,-19.5 114,-19.5 114,-0.5 0,-0.5"/>
<text text-anchor="middle" x="57" y="-7.5" font-family="Helvetica,sans-Serif" font-size="10.00">ElfBinaryLoader.cpp</text>
</a>
</g>
</g>
<!-- Node2&#45;&gt;Node64 -->
<g id="edge44" class="edge">
<title>Node2&#45;&gt;Node64</title>
<path fill="none" stroke="midnightblue" d="M1171.7,-176.26C966.84,-173.28 247.41,-160.82 149,-132 101.6,-118.12 77.6,-118.83 53,-76 42.75,-58.16 49.1,-32.83 53.62,-19.68"/>
<polygon fill="midnightblue" stroke="midnightblue" points="1171.87,-179.77 1181.92,-176.41 1171.97,-172.77 1171.87,-179.77"/>
</g>
<!-- Node65 -->
<g id="node28" class="node">
<title>Node65</title>
<g id="a_node28"><a xlink:href="ExeBinaryLoader_8cpp.html" target="_top" xlink:title=" ">
<polygon fill="white" stroke="black" points="656.5,-0.5 656.5,-19.5 775.5,-19.5 775.5,-0.5 656.5,-0.5"/>
<text text-anchor="middle" x="716" y="-7.5" font-family="Helvetica,sans-Serif" font-size="10.00">ExeBinaryLoader.cpp</text>
</a>
</g>
</g>
<!-- Node2&#45;&gt;Node65 -->
<g id="edge45" class="edge">
<title>Node2&#45;&gt;Node65</title>
<path fill="none" stroke="midnightblue" d="M1178.68,-166.09C1141.63,-157.37 1088.86,-144.57 1043,-132 960.15,-109.29 937.48,-108.6 858,-76 840.34,-68.76 837.21,-64.24 820,-56 791.61,-42.41 758.08,-28.23 736.93,-19.5"/>
<polygon fill="midnightblue" stroke="midnightblue" points="1178.16,-169.56 1188.7,-168.44 1179.76,-162.75 1178.16,-169.56"/>
</g>
<!-- Node66 -->
<g id="node30" class="node">
<title>Node66</title>
<g id="a_node30"><a xlink:href="MachOBinaryLoader_8cpp.html" target="_top" xlink:title=" ">
<polygon fill="white" stroke="black" points="184.5,-0.5 184.5,-19.5 319.5,-19.5 319.5,-0.5 184.5,-0.5"/>
<text text-anchor="middle" x="252" y="-7.5" font-family="Helvetica,sans-Serif" font-size="10.00">MachOBinaryLoader.cpp</text>
</a>
</g>
</g>
<!-- Node2&#45;&gt;Node66 -->
<g id="edge46" class="edge">
<title>Node2&#45;&gt;Node66</title>
<path fill="none" stroke="midnightblue" d="M1171.81,-176.63C951.88,-174.57 134.24,-161.19 61,-76 55.21,-69.26 55.48,-62.97 61,-56 76.36,-36.6 135.78,-24.73 184.31,-18.09"/>
<polygon fill="midnightblue" stroke="midnightblue" points="1171.79,-180.13 1181.82,-176.72 1171.86,-173.13 1171.79,-180.13"/>
</g>
<!-- Node67 -->
<g id="node32" class="node">
<title>Node67</title>
<g id="a_node32"><a xlink:href="Win32BinaryLoader_8cpp.html" target="_top" xlink:title=" ">
<polygon fill="white" stroke="black" points="794,-0.5 794,-19.5 926,-19.5 926,-0.5 794,-0.5"/>
<text text-anchor="middle" x="860" y="-7.5" font-family="Helvetica,sans-Serif" font-size="10.00">Win32BinaryLoader.cpp</text>
</a>
</g>
</g>
<!-- Node2&#45;&gt;Node67 -->
<g id="edge47" class="edge">
<title>Node2&#45;&gt;Node67</title>
<path fill="none" stroke="midnightblue" d="M1171.92,-168.65C1140.52,-162.08 1101.14,-150.8 1070,-132 1029.91,-107.79 1036.65,-80.94 997,-56 968.29,-37.94 931.59,-26.39 903.4,-19.52"/>
<polygon fill="midnightblue" stroke="midnightblue" points="1171.33,-172.1 1181.82,-170.61 1172.69,-165.23 1171.33,-172.1"/>
</g>
<!-- Node77 -->
<g id="node34" class="node">
<title>Node77</title>
<g id="a_node34"><a xlink:href="BinaryImage_8cpp.html" target="_top" xlink:title=" ">
<polygon fill="white" stroke="black" points="1079.5,-112.5 1079.5,-131.5 1178.5,-131.5 1178.5,-112.5 1079.5,-112.5"/>
<text text-anchor="middle" x="1129" y="-119.5" font-family="Helvetica,sans-Serif" font-size="10.00">BinaryImage.cpp</text>
</a>
</g>
</g>
<!-- Node2&#45;&gt;Node77 -->
<g id="edge35" class="edge">
<title>Node2&#45;&gt;Node77</title>
<path fill="none" stroke="midnightblue" d="M1201.66,-163.45C1183.76,-153.48 1159.95,-140.23 1144.55,-131.65"/>
<polygon fill="midnightblue" stroke="midnightblue" points="1199.98,-166.52 1210.42,-168.32 1203.38,-160.4 1199.98,-166.52"/>
</g>
<!-- Node78 -->
<g id="node35" class="node">
<title>Node78</title>
<g id="a_node35"><a xlink:href="Global_8cpp.html" target="_top" xlink:title=" ">
<polygon fill="white" stroke="black" points="3802,-0.5 3802,-19.5 3870,-19.5 3870,-0.5 3802,-0.5"/>
<text text-anchor="middle" x="3836" y="-7.5" font-family="Helvetica,sans-Serif" font-size="10.00">Global.cpp</text>
</a>
</g>
</g>
<!-- Node2&#45;&gt;Node78 -->
<g id="edge36" class="edge">
<title>Node2&#45;&gt;Node78</title>
<path fill="none" stroke="midnightblue" d="M1280.26,-176.05C1516.48,-171.49 2456.06,-149.05 2741,-76 2761.42,-70.77 2763.5,-60.92 2784,-56 3002.17,-3.65 3570.28,-47.08 3793,-20 3795.88,-19.65 3798.85,-19.21 3801.82,-18.7"/>
<polygon fill="midnightblue" stroke="midnightblue" points="1280.13,-172.55 1270.2,-176.24 1280.26,-179.55 1280.13,-172.55"/>
</g>
<!-- Node79 -->
<g id="node36" class="node">
<title>Node79</title>
<g id="a_node36"><a xlink:href="GlobalConstReplacePass_8cpp.html" target="_top" xlink:title=" ">
<polygon fill="white" stroke="black" points="3888,-0.5 3888,-19.5 4046,-19.5 4046,-0.5 3888,-0.5"/>
<text text-anchor="middle" x="3967" y="-7.5" font-family="Helvetica,sans-Serif" font-size="10.00">GlobalConstReplacePass.cpp</text>
</a>
</g>
</g>
<!-- Node2&#45;&gt;Node79 -->
<g id="edge38" class="edge">
<title>Node2&#45;&gt;Node79</title>
<path fill="none" stroke="midnightblue" d="M1280.34,-177.35C1450.46,-177.92 1987.83,-175.88 2430,-132 2585.02,-116.62 2626.52,-119.84 2776,-76 2797.39,-69.73 2800.25,-60.91 2822,-56 3051.25,-4.23 3644.52,-35.97 3879,-20 3881.91,-19.8 3884.87,-19.58 3887.87,-19.35"/>
<polygon fill="midnightblue" stroke="midnightblue" points="1280.15,-173.85 1270.14,-177.31 1280.13,-180.85 1280.15,-173.85"/>
</g>
<!-- Node80 -->
<g id="node37" class="node">
<title>Node80</title>
<g id="a_node37"><a xlink:href="CallStatement_8cpp.html" target="_top" xlink:title=" ">
<polygon fill="white" stroke="black" points="4063.5,-0.5 4063.5,-19.5 4170.5,-19.5 4170.5,-0.5 4063.5,-0.5"/>
<text text-anchor="middle" x="4117" y="-7.5" font-family="Helvetica,sans-Serif" font-size="10.00">CallStatement.cpp</text>
</a>
</g>
</g>
<!-- Node2&#45;&gt;Node80 -->
<g id="edge39" class="edge">
<title>Node2&#45;&gt;Node80</title>
<path fill="none" stroke="midnightblue" d="M1280.3,-176.35C1495.55,-173.59 2289.27,-161.59 2539,-132 2662.43,-117.38 2694.33,-112.96 2813,-76 2834.67,-69.25 2837.83,-60.87 2860,-56 3119.49,1 3790.33,-43.12 4055,-20 4057.71,-19.76 4060.48,-19.49 4063.28,-19.18"/>
<polygon fill="midnightblue" stroke="midnightblue" points="1280.15,-172.85 1270.19,-176.48 1280.24,-179.85 1280.15,-172.85"/>
</g>
<!-- Node81 -->
<g id="node38" class="node">
<title>Node81</title>
<g id="a_node38"><a xlink:href="ConstGlobalConverter_8cpp.html" target="_top" xlink:title=" ">
<polygon fill="white" stroke="black" points="4189,-0.5 4189,-19.5 4333,-19.5 4333,-0.5 4189,-0.5"/>
<text text-anchor="middle" x="4261" y="-7.5" font-family="Helvetica,sans-Serif" font-size="10.00">ConstGlobalConverter.cpp</text>
</a>
</g>
</g>
<!-- Node2&#45;&gt;Node81 -->
<g id="edge40" class="edge">
<title>Node2&#45;&gt;Node81</title>
<path fill="none" stroke="midnightblue" d="M1280.41,-176.76C1504.38,-175.55 2355.82,-168.57 2622,-132 2725.37,-117.8 2750.88,-108.61 2850,-76 2871.95,-68.78 2875.4,-60.85 2898,-56 3176.65,3.81 3895.68,-39.75 4180,-20 4182.82,-19.8 4185.7,-19.58 4188.6,-19.34"/>
<polygon fill="midnightblue" stroke="midnightblue" points="1280.2,-173.26 1270.22,-176.82 1280.24,-180.26 1280.2,-173.26"/>
</g>
<!-- Node49 -->
<g id="node39" class="node">
<title>Node49</title>
<g id="a_node39"><a xlink:href="Decompiler_8cpp.html" target="_top" xlink:title=" ">
<polygon fill="white" stroke="black" points="4351.5,-0.5 4351.5,-19.5 4444.5,-19.5 4444.5,-0.5 4351.5,-0.5"/>
<text text-anchor="middle" x="4398" y="-7.5" font-family="Helvetica,sans-Serif" font-size="10.00">Decompiler.cpp</text>
</a>
</g>
</g>
<!-- Node2&#45;&gt;Node49 -->
<g id="edge41" class="edge">
<title>Node2&#45;&gt;Node49</title>
<path fill="none" stroke="midnightblue" d="M1280.46,-177.12C1511.47,-177.34 2411.31,-175.37 2691,-132 2780.95,-118.05 2801.31,-103.77 2888,-76 2913.17,-67.94 2918.02,-60.85 2944,-56 3249.5,0.98 4032.56,-48.72 4342,-20 4345.04,-19.72 4348.16,-19.37 4351.31,-18.98"/>
<polygon fill="midnightblue" stroke="midnightblue" points="1280.29,-173.62 1270.29,-177.11 1280.28,-180.62 1280.29,-173.62"/>
</g>
<!-- Node4 -->
<g id="node4" class="node">
<title>Node4</title>
<g id="a_node4"><a xlink:href="PluginType_8h.html" target="_top" xlink:title=" ">
<polygon fill="white" stroke="red" points="569,-56.5 569,-75.5 647,-75.5 647,-56.5 569,-56.5"/>
<text text-anchor="middle" x="608" y="-63.5" font-family="Helvetica,sans-Serif" font-size="10.00">PluginType.h</text>
</a>
</g>
</g>
<!-- Node3&#45;&gt;Node4 -->
<g id="edge3" class="edge">
<title>Node3&#45;&gt;Node4</title>
<path fill="none" stroke="midnightblue" d="M656.17,-105.82C644.16,-96.15 629.03,-83.95 618.96,-75.83"/>
<polygon fill="midnightblue" stroke="midnightblue" points="654.25,-108.77 664.24,-112.32 658.65,-103.32 654.25,-108.77"/>
</g>
<!-- Node9 -->
<g id="node5" class="node">
<title>Node9</title>
<g id="a_node5"><a xlink:href="Project_8h.html" target="_top" xlink:title=" ">
<polygon fill="white" stroke="red" points="2061.5,-56.5 2061.5,-75.5 2120.5,-75.5 2120.5,-56.5 2061.5,-56.5"/>
<text text-anchor="middle" x="2091" y="-63.5" font-family="Helvetica,sans-Serif" font-size="10.00">Project.h</text>
</a>
</g>
</g>
<!-- Node3&#45;&gt;Node9 -->
<g id="edge4" class="edge">
<title>Node3&#45;&gt;Node9</title>
<path fill="none" stroke="midnightblue" d="M724.59,-119.11C950.92,-110.48 1882.53,-74.95 2061.27,-68.13"/>
<polygon fill="midnightblue" stroke="midnightblue" points="724.21,-115.62 714.35,-119.5 724.48,-122.62 724.21,-115.62"/>
</g>
<!-- Node3&#45;&gt;Node70 -->
<g id="edge21" class="edge">
<title>Node3&#45;&gt;Node70</title>
<path fill="none" stroke="midnightblue" d="M625.71,-118.09C534.37,-112.37 332.76,-98.28 164,-76 161.24,-75.64 158.39,-75.23 155.53,-74.79"/>
<polygon fill="midnightblue" stroke="midnightblue" points="625.57,-121.59 635.77,-118.71 626,-114.6 625.57,-121.59"/>
</g>
<!-- Node71 -->
<g id="node23" class="node">
<title>Node71</title>
<g id="a_node23"><a xlink:href="DOS4GWBinaryLoader_8h.html" target="_top" xlink:title=" ">
<polygon fill="white" stroke="black" points="1045,-56.5 1045,-75.5 1179,-75.5 1179,-56.5 1045,-56.5"/>
<text text-anchor="middle" x="1112" y="-63.5" font-family="Helvetica,sans-Serif" font-size="10.00">DOS4GWBinaryLoader.h</text>
</a>
</g>
</g>
<!-- Node3&#45;&gt;Node71 -->
<g id="edge22" class="edge">
<title>Node3&#45;&gt;Node71</title>
<path fill="none" stroke="midnightblue" d="M724.27,-114.91C802.78,-105.21 956.38,-86.23 1044.87,-75.3"/>
<polygon fill="midnightblue" stroke="midnightblue" points="723.66,-111.46 714.17,-116.16 724.52,-118.41 723.66,-111.46"/>
</g>
<!-- Node72 -->
<g id="node25" class="node">
<title>Node72</title>
<g id="a_node25"><a xlink:href="ElfBinaryLoader_8h.html" target="_top" xlink:title=" ">
<polygon fill="white" stroke="black" points="173.5,-56.5 173.5,-75.5 276.5,-75.5 276.5,-56.5 173.5,-56.5"/>
<text text-anchor="middle" x="225" y="-63.5" font-family="Helvetica,sans-Serif" font-size="10.00">ElfBinaryLoader.h</text>
</a>
</g>
</g>
<!-- Node3&#45;&gt;Node72 -->
<g id="edge24" class="edge">
<title>Node3&#45;&gt;Node72</title>
<path fill="none" stroke="midnightblue" d="M625.8,-115.81C551.92,-107.9 407.99,-92.05 286,-76 282.92,-75.6 279.76,-75.17 276.57,-74.72"/>
<polygon fill="midnightblue" stroke="midnightblue" points="625.43,-119.29 635.75,-116.87 626.18,-112.33 625.43,-119.29"/>
</g>
<!-- Node73 -->
<g id="node27" class="node">
<title>Node73</title>
<g id="a_node27"><a xlink:href="ExeBinaryLoader_8h.html" target="_top" xlink:title=" ">
<polygon fill="white" stroke="black" points="703,-56.5 703,-75.5 811,-75.5 811,-56.5 703,-56.5"/>
<text text-anchor="middle" x="757" y="-63.5" font-family="Helvetica,sans-Serif" font-size="10.00">ExeBinaryLoader.h</text>
</a>
</g>
</g>
<!-- Node3&#45;&gt;Node73 -->
<g id="edge26" class="edge">
<title>Node3&#45;&gt;Node73</title>
<path fill="none" stroke="midnightblue" d="M696.83,-106.62C711.81,-96.76 731.2,-83.99 743.86,-75.65"/>
<polygon fill="midnightblue" stroke="midnightblue" points="694.6,-103.9 688.17,-112.32 698.45,-109.75 694.6,-103.9"/>
</g>
<!-- Node3&#45;&gt;Node65 -->
<g id="edge28" class="edge">
<title>Node3&#45;&gt;Node65</title>
<path fill="none" stroke="midnightblue" d="M679.46,-102.69C682.88,-89.51 688.03,-71.42 694,-56 699.03,-43.03 706.36,-28.69 711.16,-19.76"/>
<polygon fill="midnightblue" stroke="midnightblue" points="676.05,-101.88 677.01,-112.43 682.84,-103.59 676.05,-101.88"/>
</g>
<!-- Node74 -->
<g id="node29" class="node">
<title>Node74</title>
<g id="a_node29"><a xlink:href="MachOBinaryLoader_8h.html" target="_top" xlink:title=" ">
<polygon fill="white" stroke="black" points="295,-56.5 295,-75.5 419,-75.5 419,-56.5 295,-56.5"/>
<text text-anchor="middle" x="357" y="-63.5" font-family="Helvetica,sans-Serif" font-size="10.00">MachOBinaryLoader.h</text>
</a>
</g>
</g>
<!-- Node3&#45;&gt;Node74 -->
<g id="edge29" class="edge">
<title>Node3&#45;&gt;Node74</title>
<path fill="none" stroke="midnightblue" d="M625.8,-112.64C566.4,-102.56 467.05,-85.69 407.21,-75.53"/>
<polygon fill="midnightblue" stroke="midnightblue" points="625.24,-116.1 635.69,-114.32 626.42,-109.2 625.24,-116.1"/>
</g>
<!-- Node75 -->
<g id="node31" class="node">
<title>Node75</title>
<g id="a_node31"><a xlink:href="Win32BinaryLoader_8h.html" target="_top" xlink:title=" ">
<polygon fill="white" stroke="black" points="867.5,-56.5 867.5,-75.5 988.5,-75.5 988.5,-56.5 867.5,-56.5"/>
<text text-anchor="middle" x="928" y="-63.5" font-family="Helvetica,sans-Serif" font-size="10.00">Win32BinaryLoader.h</text>
</a>
</g>
</g>
<!-- Node3&#45;&gt;Node75 -->
<g id="edge31" class="edge">
<title>Node3&#45;&gt;Node75</title>
<path fill="none" stroke="midnightblue" d="M724.05,-110.53C771.77,-100.35 843.38,-85.06 887.82,-75.58"/>
<polygon fill="midnightblue" stroke="midnightblue" points="723.3,-107.11 714.25,-112.62 724.76,-113.96 723.3,-107.11"/>
</g>
<!-- Node76 -->
<g id="node33" class="node">
<title>Node76</title>
<g id="a_node33"><a xlink:href="ST20BinaryLoader_8h.html" target="_top" xlink:title=" ">
<polygon fill="white" stroke="red" points="437,-56.5 437,-75.5 551,-75.5 551,-56.5 437,-56.5"/>
<text text-anchor="middle" x="494" y="-63.5" font-family="Helvetica,sans-Serif" font-size="10.00">ST20BinaryLoader.h</text>
</a>
</g>
</g>
<!-- Node3&#45;&gt;Node76 -->
<g id="edge33" class="edge">
<title>Node3&#45;&gt;Node76</title>
<path fill="none" stroke="midnightblue" d="M636.68,-109.57C602.54,-99.38 553.34,-84.7 522.55,-75.52"/>
<polygon fill="midnightblue" stroke="midnightblue" points="635.74,-112.94 646.32,-112.44 637.74,-106.23 635.74,-112.94"/>
</g>
<!-- Node10 -->
<g id="node6" class="node">
<title>Node10</title>
<g id="a_node6"><a xlink:href="Project_8cpp.html" target="_top" xlink:title=" ">
<polygon fill="white" stroke="black" points="2354.5,-0.5 2354.5,-19.5 2425.5,-19.5 2425.5,-0.5 2354.5,-0.5"/>
<text text-anchor="middle" x="2390" y="-7.5" font-family="Helvetica,sans-Serif" font-size="10.00">Project.cpp</text>
</a>
</g>
</g>
<!-- Node9&#45;&gt;Node10 -->
<g id="edge5" class="edge">
<title>Node9&#45;&gt;Node10</title>
<path fill="none" stroke="midnightblue" d="M2130.84,-58.22C2180.89,-49.64 2269.4,-34.25 2345,-20 2347.98,-19.44 2351.06,-18.85 2354.15,-18.24"/>
<polygon fill="midnightblue" stroke="midnightblue" points="2130.02,-54.81 2120.76,-59.95 2131.21,-61.71 2130.02,-54.81"/>
</g>
<!-- Node11 -->
<g id="node7" class="node">
<title>Node11</title>
<g id="a_node7"><a xlink:href="DataFlow_8cpp.html" target="_top" xlink:title=" ">
<polygon fill="white" stroke="black" points="2443.5,-0.5 2443.5,-19.5 2526.5,-19.5 2526.5,-0.5 2443.5,-0.5"/>
<text text-anchor="middle" x="2485" y="-7.5" font-family="Helvetica,sans-Serif" font-size="10.00">DataFlow.cpp</text>
</a>
</g>
</g>
<!-- Node9&#45;&gt;Node11 -->
<g id="edge6" class="edge">
<title>Node9&#45;&gt;Node11</title>
<path fill="none" stroke="midnightblue" d="M2130.59,-60.45C2194.68,-52.94 2325.06,-37.08 2435,-20 2437.7,-19.58 2440.48,-19.13 2443.28,-18.66"/>
<polygon fill="midnightblue" stroke="midnightblue" points="2130.04,-56.99 2120.52,-61.62 2130.86,-63.94 2130.04,-56.99"/>
</g>
<!-- Node12 -->
<g id="node8" class="node">
<title>Node12</title>
<g id="a_node8"><a xlink:href="Module_8cpp.html" target="_top" xlink:title=" ">
<polygon fill="white" stroke="black" points="2544.5,-0.5 2544.5,-19.5 2617.5,-19.5 2617.5,-0.5 2544.5,-0.5"/>
<text text-anchor="middle" x="2581" y="-7.5" font-family="Helvetica,sans-Serif" font-size="10.00">Module.cpp</text>
</a>
</g>
</g>
<!-- Node9&#45;&gt;Node12 -->
<g id="edge7" class="edge">
<title>Node9&#45;&gt;Node12</title>
<path fill="none" stroke="midnightblue" d="M2130.88,-62.27C2208.95,-56.63 2387.3,-42.33 2536,-20 2538.68,-19.6 2541.44,-19.14 2544.21,-18.66"/>
<polygon fill="midnightblue" stroke="midnightblue" points="2130.27,-58.8 2120.54,-63 2130.77,-65.78 2130.27,-58.8"/>
</g>
<!-- Node13 -->
<g id="node9" class="node">
<title>Node13</title>
<g id="a_node9"><a xlink:href="Proc_8cpp.html" target="_top" xlink:title=" ">
<polygon fill="white" stroke="black" points="2636,-0.5 2636,-19.5 2694,-19.5 2694,-0.5 2636,-0.5"/>
<text text-anchor="middle" x="2665" y="-7.5" font-family="Helvetica,sans-Serif" font-size="10.00">Proc.cpp</text>
</a>
</g>
</g>
<!-- Node9&#45;&gt;Node13 -->
<g id="edge8" class="edge">
<title>Node9&#45;&gt;Node13</title>
<path fill="none" stroke="midnightblue" d="M2130.74,-63.69C2219.98,-60.3 2442.9,-49.36 2627,-20 2629.81,-19.55 2632.72,-19.01 2635.63,-18.41"/>
<polygon fill="midnightblue" stroke="midnightblue" points="2130.39,-60.2 2120.53,-64.06 2130.65,-67.19 2130.39,-60.2"/>
</g>
<!-- Node14 -->
<g id="node10" class="node">
<title>Node14</title>
<g id="a_node10"><a xlink:href="UserProc_8cpp.html" target="_top" xlink:title=" ">
<polygon fill="white" stroke="black" points="2712,-0.5 2712,-19.5 2792,-19.5 2792,-0.5 2712,-0.5"/>
<text text-anchor="middle" x="2752" y="-7.5" font-family="Helvetica,sans-Serif" font-size="10.00">UserProc.cpp</text>
</a>
</g>
</g>
<!-- Node9&#45;&gt;Node14 -->
<g id="edge9" class="edge">
<title>Node9&#45;&gt;Node14</title>
<path fill="none" stroke="midnightblue" d="M2130.76,-63.57C2228.48,-59.73 2488.13,-47.55 2703,-20 2705.92,-19.63 2708.92,-19.19 2711.94,-18.72"/>
<polygon fill="midnightblue" stroke="midnightblue" points="2130.59,-60.07 2120.73,-63.96 2130.86,-67.07 2130.59,-60.07"/>
</g>
<!-- Node9&#45;&gt;Node15 -->
<g id="edge10" class="edge">
<title>Node9&#45;&gt;Node15</title>
<path fill="none" stroke="midnightblue" d="M2051.13,-65.55C1923.32,-66.79 1512.58,-66.61 1177,-20 1173.97,-19.58 1170.83,-19.04 1167.71,-18.43"/>
<polygon fill="midnightblue" stroke="midnightblue" points="2051.27,-69.05 2061.23,-65.45 2051.19,-62.05 2051.27,-69.05"/>
</g>
<!-- Node16 -->
<g id="node12" class="node">
<title>Node16</title>
<g id="a_node12"><a xlink:href="IndirectJumpAnalyzer_8cpp.html" target="_top" xlink:title=" ">
<polygon fill="white" stroke="black" points="2810.5,-0.5 2810.5,-19.5 2951.5,-19.5 2951.5,-0.5 2810.5,-0.5"/>
<text text-anchor="middle" x="2881" y="-7.5" font-family="Helvetica,sans-Serif" font-size="10.00">IndirectJumpAnalyzer.cpp</text>
</a>
</g>
</g>
<!-- Node9&#45;&gt;Node16 -->
<g id="edge11" class="edge">
<title>Node9&#45;&gt;Node16</title>
<path fill="none" stroke="midnightblue" d="M2130.92,-63.15C2238.98,-58.01 2546.19,-42.39 2801,-20 2804.06,-19.73 2807.19,-19.44 2810.35,-19.14"/>
<polygon fill="midnightblue" stroke="midnightblue" points="2130.62,-59.66 2120.8,-63.63 2130.95,-66.66 2130.62,-59.66"/>
</g>
<!-- Node17 -->
<g id="node13" class="node">
<title>Node17</title>
<g id="a_node13"><a xlink:href="InterferenceFinder_8cpp.html" target="_top" xlink:title=" ">
<polygon fill="white" stroke="black" points="2969.5,-0.5 2969.5,-19.5 3094.5,-19.5 3094.5,-0.5 2969.5,-0.5"/>
<text text-anchor="middle" x="3032" y="-7.5" font-family="Helvetica,sans-Serif" font-size="10.00">InterferenceFinder.cpp</text>
</a>
</g>
</g>
<!-- Node9&#45;&gt;Node17 -->
<g id="edge12" class="edge">
<title>Node9&#45;&gt;Node17</title>
<path fill="none" stroke="midnightblue" d="M2130.84,-63.99C2254.33,-60.65 2641.53,-48.47 2961,-20 2963.72,-19.76 2966.5,-19.49 2969.31,-19.2"/>
<polygon fill="midnightblue" stroke="midnightblue" points="2130.63,-60.5 2120.73,-64.26 2130.82,-67.5 2130.63,-60.5"/>
</g>
<!-- Node18 -->
<g id="node14" class="node">
<title>Node18</title>
<g id="a_node14"><a xlink:href="LivenessAnalyzer_8cpp.html" target="_top" xlink:title=" ">
<polygon fill="white" stroke="black" points="1302,-0.5 1302,-19.5 1424,-19.5 1424,-0.5 1302,-0.5"/>
<text text-anchor="middle" x="1363" y="-7.5" font-family="Helvetica,sans-Serif" font-size="10.00">LivenessAnalyzer.cpp</text>
</a>
</g>
</g>
<!-- Node9&#45;&gt;Node18 -->
<g id="edge13" class="edge">
<title>Node9&#45;&gt;Node18</title>
<path fill="none" stroke="midnightblue" d="M2051.23,-63.11C1948.67,-58.05 1666.87,-43.01 1433,-20 1430.07,-19.71 1427.08,-19.4 1424.06,-19.07"/>
<polygon fill="midnightblue" stroke="midnightblue" points="2051.28,-66.61 2061.44,-63.61 2051.62,-59.62 2051.28,-66.61"/>
</g>
<!-- Node19 -->
<g id="node15" class="node">
<title>Node19</title>
<g id="a_node15"><a xlink:href="ProcDecompiler_8cpp.html" target="_top" xlink:title=" ">
<polygon fill="white" stroke="black" points="1442,-0.5 1442,-19.5 1556,-19.5 1556,-0.5 1442,-0.5"/>
<text text-anchor="middle" x="1499" y="-7.5" font-family="Helvetica,sans-Serif" font-size="10.00">ProcDecompiler.cpp</text>
</a>
</g>
</g>
<!-- Node9&#45;&gt;Node19 -->
<g id="edge14" class="edge">
<title>Node9&#45;&gt;Node19</title>
<path fill="none" stroke="midnightblue" d="M2051.31,-62.25C1963.63,-56.04 1746.88,-39.89 1566,-20 1562.85,-19.65 1559.62,-19.28 1556.36,-18.89"/>
<polygon fill="midnightblue" stroke="midnightblue" points="2051.13,-65.75 2061.35,-62.96 2051.62,-58.77 2051.13,-65.75"/>
</g>
<!-- Node20 -->
<g id="node16" class="node">
<title>Node20</title>
<g id="a_node16"><a xlink:href="ProgDecompiler_8cpp.html" target="_top" xlink:title=" ">
<polygon fill="white" stroke="black" points="1574.5,-0.5 1574.5,-19.5 1689.5,-19.5 1689.5,-0.5 1574.5,-0.5"/>
<text text-anchor="middle" x="1632" y="-7.5" font-family="Helvetica,sans-Serif" font-size="10.00">ProgDecompiler.cpp</text>
</a>
</g>
</g>
<!-- Node9&#45;&gt;Node20 -->
<g id="edge15" class="edge">
<title>Node9&#45;&gt;Node20</title>
<path fill="none" stroke="midnightblue" d="M2051.22,-60.69C1980.37,-52.95 1827.67,-36.03 1699,-20 1695.97,-19.62 1692.87,-19.23 1689.73,-18.83"/>
<polygon fill="midnightblue" stroke="midnightblue" points="2051.15,-64.2 2061.47,-61.81 2051.91,-57.24 2051.15,-64.2"/>
</g>
<!-- Node21 -->
<g id="node17" class="node">
<title>Node21</title>
<g id="a_node17"><a xlink:href="UnusedReturnRemover_8cpp.html" target="_top" xlink:title=" ">
<polygon fill="white" stroke="black" points="1708,-0.5 1708,-19.5 1858,-19.5 1858,-0.5 1708,-0.5"/>
<text text-anchor="middle" x="1783" y="-7.5" font-family="Helvetica,sans-Serif" font-size="10.00">UnusedReturnRemover.cpp</text>
</a>
</g>
</g>
<!-- Node9&#45;&gt;Node21 -->
<g id="edge16" class="edge">
<title>Node9&#45;&gt;Node21</title>
<path fill="none" stroke="midnightblue" d="M2051.54,-58.08C1995.33,-48.23 1892.3,-30.16 1831.51,-19.5"/>
<polygon fill="midnightblue" stroke="midnightblue" points="2051.01,-61.54 2061.47,-59.82 2052.22,-54.65 2051.01,-61.54"/>
</g>
<!-- Node22 -->
<g id="node18" class="node">
<title>Node22</title>
<g id="a_node18"><a xlink:href="DefaultFrontEnd_8cpp.html" target="_top" xlink:title=" ">
<polygon fill="white" stroke="black" points="1876,-0.5 1876,-19.5 1992,-19.5 1992,-0.5 1876,-0.5"/>
<text text-anchor="middle" x="1934" y="-7.5" font-family="Helvetica,sans-Serif" font-size="10.00">DefaultFrontEnd.cpp</text>
</a>
</g>
</g>
<!-- Node9&#45;&gt;Node22 -->
<g id="edge17" class="edge">
<title>Node9&#45;&gt;Node22</title>
<path fill="none" stroke="midnightblue" d="M2056.61,-53.17C2027.05,-43 1985.13,-28.59 1958.76,-19.52"/>
<polygon fill="midnightblue" stroke="midnightblue" points="2055.53,-56.5 2066.12,-56.44 2057.8,-49.88 2055.53,-56.5"/>
</g>
<!-- Node23 -->
<g id="node19" class="node">
<title>Node23</title>
<g id="a_node19"><a xlink:href="CallArgumentUpdatePass_8cpp.html" target="_top" xlink:title=" ">
<polygon fill="white" stroke="black" points="2010.5,-0.5 2010.5,-19.5 2171.5,-19.5 2171.5,-0.5 2010.5,-0.5"/>
<text text-anchor="middle" x="2091" y="-7.5" font-family="Helvetica,sans-Serif" font-size="10.00">CallArgumentUpdatePass.cpp</text>
</a>
</g>
</g>
<!-- Node9&#45;&gt;Node23 -->
<g id="edge18" class="edge">
<title>Node9&#45;&gt;Node23</title>
<path fill="none" stroke="midnightblue" d="M2091,-45.8C2091,-36.91 2091,-26.78 2091,-19.75"/>
<polygon fill="midnightblue" stroke="midnightblue" points="2087.5,-46.08 2091,-56.08 2094.5,-46.08 2087.5,-46.08"/>
</g>
<!-- Node24 -->
<g id="node20" class="node">
<title>Node24</title>
<g id="a_node20"><a xlink:href="CallDefineUpdatePass_8cpp.html" target="_top" xlink:title=" ">
<polygon fill="white" stroke="black" points="2190,-0.5 2190,-19.5 2336,-19.5 2336,-0.5 2190,-0.5"/>
<text text-anchor="middle" x="2263" y="-7.5" font-family="Helvetica,sans-Serif" font-size="10.00">CallDefineUpdatePass.cpp</text>
</a>
</g>
</g>
<!-- Node9&#45;&gt;Node24 -->
<g id="edge19" class="edge">
<title>Node9&#45;&gt;Node24</title>
<path fill="none" stroke="midnightblue" d="M2127.83,-53.44C2160.26,-43.26 2206.74,-28.66 2235.87,-19.52"/>
<polygon fill="midnightblue" stroke="midnightblue" points="2126.75,-50.11 2118.25,-56.44 2128.84,-56.79 2126.75,-50.11"/>
</g>
<!-- Node9&#45;&gt;Node59 -->
<g id="edge20" class="edge">
<title>Node9&#45;&gt;Node59</title>
<path fill="none" stroke="midnightblue" d="M2050.94,-64.12C1933.95,-61.27 1582.72,-50.57 1293,-20 1290.06,-19.69 1287.04,-19.33 1284,-18.95"/>
<polygon fill="midnightblue" stroke="midnightblue" points="2051.13,-67.63 2061.21,-64.37 2051.29,-60.63 2051.13,-67.63"/>
</g>
<!-- Node71&#45;&gt;Node63 -->
<g id="edge23" class="edge">
<title>Node71&#45;&gt;Node63</title>
<path fill="none" stroke="midnightblue" d="M1087.68,-51.18C1070.2,-41.24 1047.17,-28.15 1032.23,-19.65"/>
<polygon fill="midnightblue" stroke="midnightblue" points="1086.31,-54.43 1096.74,-56.32 1089.77,-48.34 1086.31,-54.43"/>
</g>
<!-- Node72&#45;&gt;Node64 -->
<g id="edge25" class="edge">
<title>Node72&#45;&gt;Node64</title>
<path fill="none" stroke="midnightblue" d="M188.61,-53.3C156.96,-43.13 111.83,-28.62 83.5,-19.52"/>
<polygon fill="midnightblue" stroke="midnightblue" points="187.79,-56.72 198.38,-56.44 189.93,-50.05 187.79,-56.72"/>
</g>
<!-- Node73&#45;&gt;Node65 -->
<g id="edge27" class="edge">
<title>Node73&#45;&gt;Node65</title>
<path fill="none" stroke="midnightblue" d="M743.98,-47.86C736.88,-38.5 728.4,-27.33 722.64,-19.75"/>
<polygon fill="midnightblue" stroke="midnightblue" points="741.39,-50.24 750.23,-56.08 746.97,-46 741.39,-50.24"/>
</g>
<!-- Node74&#45;&gt;Node66 -->
<g id="edge30" class="edge">
<title>Node74&#45;&gt;Node66</title>
<path fill="none" stroke="midnightblue" d="M331.19,-51.73C311.75,-41.73 285.65,-28.31 268.83,-19.65"/>
<polygon fill="midnightblue" stroke="midnightblue" points="329.64,-54.86 340.13,-56.32 332.84,-48.64 329.64,-54.86"/>
</g>
<!-- Node75&#45;&gt;Node67 -->
<g id="edge32" class="edge">
<title>Node75&#45;&gt;Node67</title>
<path fill="none" stroke="midnightblue" d="M909.24,-50.1C897,-40.38 881.44,-28.03 871.12,-19.83"/>
<polygon fill="midnightblue" stroke="midnightblue" points="907.07,-52.85 917.07,-56.32 911.42,-47.36 907.07,-52.85"/>
</g>
<!-- Node83 -->
<g id="node41" class="node">
<title>Node83</title>
<g id="a_node41"><a xlink:href="Prog_8h.html" target="_top" xlink:title=" ">
<polygon fill="white" stroke="red" points="2684.5,-56.5 2684.5,-75.5 2731.5,-75.5 2731.5,-56.5 2684.5,-56.5"/>
<text text-anchor="middle" x="2708" y="-63.5" font-family="Helvetica,sans-Serif" font-size="10.00">Prog.h</text>
</a>
</g>
</g>
<!-- Node82&#45;&gt;Node83 -->
<g id="edge49" class="edge">
<title>Node82&#45;&gt;Node83</title>
<path fill="none" stroke="midnightblue" d="M2938.57,-110.53C2875.89,-98.7 2776.7,-79.97 2731.65,-71.47"/>
<polygon fill="midnightblue" stroke="midnightblue" points="2938.21,-114.03 2948.68,-112.44 2939.51,-107.15 2938.21,-114.03"/>
</g>
<!-- Node98 -->
<g id="node48" class="node">
<title>Node98</title>
<g id="a_node48"><a xlink:href="Type_8cpp.html" target="_top" xlink:title=" ">
<polygon fill="white" stroke="black" points="2952.5,-56.5 2952.5,-75.5 3011.5,-75.5 3011.5,-56.5 2952.5,-56.5"/>
<text text-anchor="middle" x="2982" y="-63.5" font-family="Helvetica,sans-Serif" font-size="10.00">Type.cpp</text>
</a>
</g>
</g>
<!-- Node82&#45;&gt;Node98 -->
<g id="edge77" class="edge">
<title>Node82&#45;&gt;Node98</title>
<path fill="none" stroke="midnightblue" d="M2989.8,-102.1C2987.81,-93.14 2985.52,-82.86 2983.94,-75.75"/>
<polygon fill="midnightblue" stroke="midnightblue" points="2986.43,-103.08 2992.02,-112.08 2993.27,-101.56 2986.43,-103.08"/>
</g>
<!-- Node99 -->
<g id="node49" class="node">
<title>Node99</title>
<g id="a_node49"><a xlink:href="DataIntervalMap_8cpp.html" target="_top" xlink:title=" ">
<polygon fill="white" stroke="black" points="3029.5,-56.5 3029.5,-75.5 3148.5,-75.5 3148.5,-56.5 3029.5,-56.5"/>
<text text-anchor="middle" x="3089" y="-63.5" font-family="Helvetica,sans-Serif" font-size="10.00">DataIntervalMap.cpp</text>
</a>
</g>
</g>
<!-- Node82&#45;&gt;Node99 -->
<g id="edge78" class="edge">
<title>Node82&#45;&gt;Node99</title>
<path fill="none" stroke="midnightblue" d="M3018.32,-107.18C3035.8,-97.24 3058.83,-84.15 3073.77,-75.65"/>
<polygon fill="midnightblue" stroke="midnightblue" points="3016.23,-104.34 3009.26,-112.32 3019.69,-110.43 3016.23,-104.34"/>
</g>
<!-- Node83&#45;&gt;Node10 -->
<g id="edge50" class="edge">
<title>Node83&#45;&gt;Node10</title>
<path fill="none" stroke="midnightblue" d="M2674.28,-59.82C2622.66,-51.81 2520.99,-35.68 2435,-20 2432.02,-19.46 2428.94,-18.88 2425.84,-18.28"/>
<polygon fill="midnightblue" stroke="midnightblue" points="2673.8,-63.29 2684.22,-61.36 2674.87,-56.37 2673.8,-63.29"/>
</g>
<!-- Node83&#45;&gt;Node11 -->
<g id="edge51" class="edge">
<title>Node83&#45;&gt;Node11</title>
<path fill="none" stroke="midnightblue" d="M2674.23,-56.82C2632.73,-46.77 2562.61,-29.79 2520.38,-19.57"/>
<polygon fill="midnightblue" stroke="midnightblue" points="2673.59,-60.27 2684.14,-59.22 2675.24,-53.47 2673.59,-60.27"/>
</g>
<!-- Node83&#45;&gt;Node12 -->
<g id="edge53" class="edge">
<title>Node83&#45;&gt;Node12</title>
<path fill="none" stroke="midnightblue" d="M2678.61,-52.5C2654.8,-42.38 2621.89,-28.39 2601.03,-19.52"/>
<polygon fill="midnightblue" stroke="midnightblue" points="2677.3,-55.75 2687.88,-56.44 2680.04,-49.31 2677.3,-55.75"/>
</g>
<!-- Node83&#45;&gt;Node13 -->
<g id="edge55" class="edge">
<title>Node83&#45;&gt;Node13</title>
<path fill="none" stroke="midnightblue" d="M2694.58,-48.14C2687.09,-38.74 2678.06,-27.4 2671.97,-19.75"/>
<polygon fill="midnightblue" stroke="midnightblue" points="2691.93,-50.44 2700.9,-56.08 2697.41,-46.08 2691.93,-50.44"/>
</g>
<!-- Node83&#45;&gt;Node14 -->
<g id="edge56" class="edge">
<title>Node83&#45;&gt;Node14</title>
<path fill="none" stroke="midnightblue" d="M2721.73,-48.14C2729.4,-38.74 2738.63,-27.4 2744.87,-19.75"/>
<polygon fill="midnightblue" stroke="midnightblue" points="2718.87,-46.12 2715.27,-56.08 2724.3,-50.54 2718.87,-46.12"/>
</g>
<!-- Node83&#45;&gt;Node15 -->
<g id="edge57" class="edge">
<title>Node83&#45;&gt;Node15</title>
<path fill="none" stroke="midnightblue" d="M2674.1,-64.41C2462.75,-60.65 1329.94,-39.7 1177,-20 1173.97,-19.61 1170.83,-19.09 1167.7,-18.49"/>
<polygon fill="midnightblue" stroke="midnightblue" points="2674.22,-67.91 2684.28,-64.59 2674.34,-60.91 2674.22,-67.91"/>
</g>
<!-- Node83&#45;&gt;Node16 -->
<g id="edge63" class="edge">
<title>Node83&#45;&gt;Node16</title>
<path fill="none" stroke="midnightblue" d="M2741.26,-54.62C2773.91,-44.43 2823.14,-29.06 2853.61,-19.55"/>
<polygon fill="midnightblue" stroke="midnightblue" points="2740.2,-51.28 2731.69,-57.6 2742.28,-57.97 2740.2,-51.28"/>
</g>
<!-- Node83&#45;&gt;Node17 -->
<g id="edge64" class="edge">
<title>Node83&#45;&gt;Node17</title>
<path fill="none" stroke="midnightblue" d="M2741.56,-56.9C2743.06,-56.59 2744.54,-56.29 2746,-56 2822.44,-40.96 2911.16,-27.63 2969.27,-19.46"/>
<polygon fill="midnightblue" stroke="midnightblue" points="2740.66,-53.52 2731.66,-59.1 2742.18,-60.35 2740.66,-53.52"/>
</g>
<!-- Node83&#45;&gt;Node18 -->
<g id="edge65" class="edge">
<title>Node83&#45;&gt;Node18</title>
<path fill="none" stroke="midnightblue" d="M2674.29,-64.96C2526.97,-64.52 1925.11,-60.23 1433,-20 1430.07,-19.76 1427.07,-19.49 1424.05,-19.19"/>
<polygon fill="midnightblue" stroke="midnightblue" points="2674.48,-68.46 2684.48,-64.98 2674.49,-61.46 2674.48,-68.46"/>
</g>
<!-- Node83&#45;&gt;Node19 -->
<g id="edge66" class="edge">
<title>Node83&#45;&gt;Node19</title>
<path fill="none" stroke="midnightblue" d="M2673.87,-64.83C2535.43,-63.88 2002.41,-57.83 1566,-20 1562.84,-19.73 1559.61,-19.41 1556.34,-19.06"/>
<polygon fill="midnightblue" stroke="midnightblue" points="2674.21,-68.33 2684.24,-64.89 2674.26,-61.33 2674.21,-68.33"/>
</g>
<!-- Node83&#45;&gt;Node20 -->
<g id="edge67" class="edge">
<title>Node83&#45;&gt;Node20</title>
<path fill="none" stroke="midnightblue" d="M2674.18,-64.58C2546.39,-62.77 2080.84,-54.09 1699,-20 1695.96,-19.73 1692.85,-19.42 1689.71,-19.08"/>
<polygon fill="midnightblue" stroke="midnightblue" points="2674.44,-68.09 2684.48,-64.72 2674.53,-61.09 2674.44,-68.09"/>
</g>
<!-- Node83&#45;&gt;Node21 -->
<g id="edge68" class="edge">
<title>Node83&#45;&gt;Node21</title>
<path fill="none" stroke="midnightblue" d="M2674.02,-63.83C2559.93,-59.77 2180.09,-45.13 1867,-20 1864.08,-19.77 1861.1,-19.51 1858.09,-19.25"/>
<polygon fill="midnightblue" stroke="midnightblue" points="2674.11,-67.34 2684.22,-64.19 2674.35,-60.34 2674.11,-67.34"/>
</g>
<!-- Node83&#45;&gt;Node22 -->
<g id="edge69" class="edge">
<title>Node83&#45;&gt;Node22</title>
<path fill="none" stroke="midnightblue" d="M2674.22,-63.66C2572.46,-59.46 2259.99,-45.27 2002,-20 1998.8,-19.69 1995.52,-19.34 1992.21,-18.97"/>
<polygon fill="midnightblue" stroke="midnightblue" points="2674.36,-67.17 2684.49,-64.08 2674.64,-60.18 2674.36,-67.17"/>
</g>
<!-- Node83&#45;&gt;Node23 -->
<g id="edge70" class="edge">
<title>Node83&#45;&gt;Node23</title>
<path fill="none" stroke="midnightblue" d="M2674.17,-62.28C2590.5,-55.52 2367.14,-37.25 2181,-20 2178.03,-19.72 2175,-19.44 2171.95,-19.15"/>
<polygon fill="midnightblue" stroke="midnightblue" points="2674.1,-65.79 2684.35,-63.1 2674.67,-58.81 2674.1,-65.79"/>
</g>
<!-- Node83&#45;&gt;Node24 -->
<g id="edge71" class="edge">
<title>Node83&#45;&gt;Node24</title>
<path fill="none" stroke="midnightblue" d="M2674.02,-60.88C2601.47,-52.07 2430.14,-31.28 2333.14,-19.51"/>
<polygon fill="midnightblue" stroke="midnightblue" points="2674.04,-64.4 2684.39,-62.13 2674.88,-57.46 2674.04,-64.4"/>
</g>
<!-- Node83&#45;&gt;Node59 -->
<g id="edge76" class="edge">
<title>Node83&#45;&gt;Node59</title>
<path fill="none" stroke="midnightblue" d="M2674.19,-64.49C2486.75,-61.55 1573.58,-46.13 1293,-20 1290.16,-19.74 1287.25,-19.42 1284.31,-19.07"/>
<polygon fill="midnightblue" stroke="midnightblue" points="2674.22,-67.99 2684.27,-64.64 2674.33,-60.99 2674.22,-67.99"/>
</g>
<!-- Node83&#45;&gt;Node78 -->
<g id="edge52" class="edge">
<title>Node83&#45;&gt;Node78</title>
<path fill="none" stroke="midnightblue" d="M2741.53,-56.68C2743.03,-56.43 2744.53,-56.2 2746,-56 3207.47,5.96 3330.76,-75.9 3793,-20 3795.88,-19.65 3798.85,-19.21 3801.82,-18.71"/>
<polygon fill="midnightblue" stroke="midnightblue" points="2740.71,-53.27 2731.58,-58.65 2742.07,-60.14 2740.71,-53.27"/>
</g>
<!-- Node83&#45;&gt;Node79 -->
<g id="edge72" class="edge">
<title>Node83&#45;&gt;Node79</title>
<path fill="none" stroke="midnightblue" d="M2741.63,-60.39C2754.82,-58.75 2770.1,-57.05 2784,-56 3269.55,-19.34 3393.18,-52.79 3879,-20 3881.91,-19.8 3884.88,-19.59 3887.87,-19.35"/>
<polygon fill="midnightblue" stroke="midnightblue" points="2741.04,-56.94 2731.57,-61.69 2741.94,-63.88 2741.04,-56.94"/>
</g>
<!-- Node83&#45;&gt;Node80 -->
<g id="edge73" class="edge">
<title>Node83&#45;&gt;Node80</title>
<path fill="none" stroke="midnightblue" d="M2741.69,-61.9C2764.37,-59.92 2794.96,-57.46 2822,-56 3369.43,-26.42 3508.82,-67.46 4055,-20 4057.71,-19.76 4060.48,-19.49 4063.28,-19.18"/>
<polygon fill="midnightblue" stroke="midnightblue" points="2741.21,-58.43 2731.56,-62.8 2741.83,-65.4 2741.21,-58.43"/>
</g>
<!-- Node83&#45;&gt;Node81 -->
<g id="edge74" class="edge">
<title>Node83&#45;&gt;Node81</title>
<path fill="none" stroke="midnightblue" d="M2741.88,-62.68C2772.67,-60.65 2819.37,-57.76 2860,-56 3446.34,-30.65 3594.51,-60.44 4180,-20 4182.82,-19.81 4185.7,-19.59 4188.6,-19.35"/>
<polygon fill="midnightblue" stroke="midnightblue" points="2741.43,-59.21 2731.68,-63.36 2741.89,-66.19 2741.43,-59.21"/>
</g>
<!-- Node83&#45;&gt;Node49 -->
<g id="edge75" class="edge">
<title>Node83&#45;&gt;Node49</title>
<path fill="none" stroke="midnightblue" d="M2741.69,-63.18C2779.67,-61.17 2843.25,-57.98 2898,-56 3539.56,-32.81 3702.75,-79.07 4342,-20 4345.04,-19.72 4348.16,-19.37 4351.31,-18.99"/>
<polygon fill="midnightblue" stroke="midnightblue" points="2741.49,-59.68 2731.69,-63.71 2741.86,-66.67 2741.49,-59.68"/>
</g>
<!-- Node84 -->
<g id="node42" class="node">
<title>Node84</title>
<g id="a_node42"><a xlink:href="LibProc_8cpp.html" target="_top" xlink:title=" ">
<polygon fill="white" stroke="black" points="3113,-0.5 3113,-19.5 3185,-19.5 3185,-0.5 3113,-0.5"/>
<text text-anchor="middle" x="3149" y="-7.5" font-family="Helvetica,sans-Serif" font-size="10.00">LibProc.cpp</text>
</a>
</g>
</g>
<!-- Node83&#45;&gt;Node84 -->
<g id="edge54" class="edge">
<title>Node83&#45;&gt;Node84</title>
<path fill="none" stroke="midnightblue" d="M2741.55,-56.8C2743.05,-56.51 2744.54,-56.25 2746,-56 2903.71,-29.51 2945.85,-43.71 3104,-20 3106.84,-19.57 3109.77,-19.09 3112.7,-18.57"/>
<polygon fill="midnightblue" stroke="midnightblue" points="2740.68,-53.41 2731.62,-58.9 2742.13,-60.26 2740.68,-53.41"/>
</g>
<!-- Node85 -->
<g id="node43" class="node">
<title>Node85</title>
<g id="a_node43"><a xlink:href="PPCSignature_8cpp.html" target="_top" xlink:title=" ">
<polygon fill="white" stroke="black" points="3203,-0.5 3203,-19.5 3305,-19.5 3305,-0.5 3203,-0.5"/>
<text text-anchor="middle" x="3254" y="-7.5" font-family="Helvetica,sans-Serif" font-size="10.00">PPCSignature.cpp</text>
</a>
</g>
</g>
<!-- Node83&#45;&gt;Node85 -->
<g id="edge58" class="edge">
<title>Node83&#45;&gt;Node85</title>
<path fill="none" stroke="midnightblue" d="M2741.54,-56.77C2743.04,-56.49 2744.54,-56.23 2746,-56 2943.32,-24.89 2995.56,-42.83 3194,-20 3196.93,-19.66 3199.94,-19.29 3202.97,-18.9"/>
<polygon fill="midnightblue" stroke="midnightblue" points="2740.69,-53.37 2731.61,-58.82 2742.11,-60.22 2740.69,-53.37"/>
</g>
<!-- Node86 -->
<g id="node44" class="node">
<title>Node86</title>
<g id="a_node44"><a xlink:href="Signature_8cpp.html" target="_top" xlink:title=" ">
<polygon fill="white" stroke="black" points="3323.5,-0.5 3323.5,-19.5 3406.5,-19.5 3406.5,-0.5 3323.5,-0.5"/>
<text text-anchor="middle" x="3365" y="-7.5" font-family="Helvetica,sans-Serif" font-size="10.00">Signature.cpp</text>
</a>
</g>
</g>
<!-- Node83&#45;&gt;Node86 -->
<g id="edge59" class="edge">
<title>Node83&#45;&gt;Node86</title>
<path fill="none" stroke="midnightblue" d="M2741.53,-56.73C2743.04,-56.47 2744.53,-56.22 2746,-56 2996.19,-18.72 3062.84,-50.03 3314,-20 3317.04,-19.64 3320.16,-19.21 3323.31,-18.75"/>
<polygon fill="midnightblue" stroke="midnightblue" points="2740.7,-53.33 2731.6,-58.76 2742.09,-60.19 2740.7,-53.33"/>
</g>
<!-- Node87 -->
<g id="node45" class="node">
<title>Node87</title>
<g id="a_node45"><a xlink:href="ST20Signature_8cpp.html" target="_top" xlink:title=" ">
<polygon fill="white" stroke="black" points="3424.5,-0.5 3424.5,-19.5 3531.5,-19.5 3531.5,-0.5 3424.5,-0.5"/>
<text text-anchor="middle" x="3478" y="-7.5" font-family="Helvetica,sans-Serif" font-size="10.00">ST20Signature.cpp</text>
</a>
</g>
</g>
<!-- Node83&#45;&gt;Node87 -->
<g id="edge60" class="edge">
<title>Node83&#45;&gt;Node87</title>
<path fill="none" stroke="midnightblue" d="M2741.53,-56.72C2743.04,-56.45 2744.53,-56.21 2746,-56 3041.16,-13.47 3119.25,-49.45 3416,-20 3418.71,-19.73 3421.47,-19.43 3424.27,-19.1"/>
<polygon fill="midnightblue" stroke="midnightblue" points="2740.7,-53.31 2731.59,-58.72 2742.09,-60.18 2740.7,-53.31"/>
</g>
<!-- Node88 -->
<g id="node46" class="node">
<title>Node88</title>
<g id="a_node46"><a xlink:href="Win32Signature_8cpp.html" target="_top" xlink:title=" ">
<polygon fill="white" stroke="black" points="3550,-0.5 3550,-19.5 3664,-19.5 3664,-0.5 3550,-0.5"/>
<text text-anchor="middle" x="3607" y="-7.5" font-family="Helvetica,sans-Serif" font-size="10.00">Win32Signature.cpp</text>
</a>
</g>
</g>
<!-- Node83&#45;&gt;Node88 -->
<g id="edge61" class="edge">
<title>Node83&#45;&gt;Node88</title>
<path fill="none" stroke="midnightblue" d="M2741.53,-56.7C2743.04,-56.44 2744.53,-56.21 2746,-56 3096.29,-7.03 3188.75,-51.93 3541,-20 3543.88,-19.74 3546.83,-19.44 3549.8,-19.12"/>
<polygon fill="midnightblue" stroke="midnightblue" points="2740.71,-53.3 2731.59,-58.69 2742.08,-60.16 2740.71,-53.3"/>
</g>
<!-- Node89 -->
<g id="node47" class="node">
<title>Node89</title>
<g id="a_node47"><a xlink:href="X86Signature_8cpp.html" target="_top" xlink:title=" ">
<polygon fill="white" stroke="black" points="3682,-0.5 3682,-19.5 3784,-19.5 3784,-0.5 3682,-0.5"/>
<text text-anchor="middle" x="3733" y="-7.5" font-family="Helvetica,sans-Serif" font-size="10.00">X86Signature.cpp</text>
</a>
</g>
</g>
<!-- Node83&#45;&gt;Node89 -->
<g id="edge62" class="edge">
<title>Node83&#45;&gt;Node89</title>
<path fill="none" stroke="midnightblue" d="M2741.53,-56.69C2743.03,-56.43 2744.53,-56.2 2746,-56 3154.52,-0.23 3262.5,-58.64 3673,-20 3675.94,-19.72 3678.95,-19.4 3681.98,-19.04"/>
<polygon fill="midnightblue" stroke="midnightblue" points="2740.71,-53.28 2731.58,-58.67 2742.07,-60.15 2740.71,-53.28"/>
</g>
</g>
</svg>
