<?xml version="1.0" encoding="UTF-8" standalone="no"?>
<!DOCTYPE svg PUBLIC "-//W3C//DTD SVG 1.1//EN"
 "http://www.w3.org/Graphics/SVG/1.1/DTD/svg11.dtd">
<!-- Generated by graphviz version 2.43.0 (0)
 -->
<!-- Title: ISymbolProvider.h Pages: 1 -->
<svg width="4804pt" height="308pt"
 viewBox="0.00 0.00 4803.50 308.00" xmlns="http://www.w3.org/2000/svg" xmlns:xlink="http://www.w3.org/1999/xlink">
<g id="graph0" class="graph" transform="scale(1 1) rotate(0) translate(4 304)">
<title>ISymbolProvider.h</title>
<polygon fill="white" stroke="transparent" points="-4,4 -4,-304 4799.5,-304 4799.5,4 -4,4"/>
<!-- Node1 -->
<g id="node1" class="node">
<title>Node1</title>
<g id="a_node1"><a xlink:title=" ">
<polygon fill="#bfbfbf" stroke="black" points="2850.5,-280.5 2850.5,-299.5 2956.5,-299.5 2956.5,-280.5 2850.5,-280.5"/>
<text text-anchor="middle" x="2903.5" y="-287.5" font-family="Helvetica,sans-Serif" font-size="10.00">ISymbolProvider.h</text>
</a>
</g>
</g>
<!-- Node2 -->
<g id="node2" class="node">
<title>Node2</title>
<g id="a_node2"><a xlink:href="PluginType_8h.html" target="_top" xlink:title=" ">
<polygon fill="white" stroke="black" points="2831.5,-224.5 2831.5,-243.5 2909.5,-243.5 2909.5,-224.5 2831.5,-224.5"/>
<text text-anchor="middle" x="2870.5" y="-231.5" font-family="Helvetica,sans-Serif" font-size="10.00">PluginType.h</text>
</a>
</g>
</g>
<!-- Node1&#45;&gt;Node2 -->
<g id="edge1" class="edge">
<title>Node1&#45;&gt;Node2</title>
<path fill="none" stroke="midnightblue" d="M2892.67,-271.27C2887.03,-262.05 2880.38,-251.17 2875.85,-243.75"/>
<polygon fill="midnightblue" stroke="midnightblue" points="2889.85,-273.38 2898.05,-280.08 2895.82,-269.73 2889.85,-273.38"/>
</g>
<!-- Node68 -->
<g id="node50" class="node">
<title>Node68</title>
<g id="a_node50"><a xlink:href="CSymbolProvider_8h.html" target="_top" xlink:title=" ">
<polygon fill="white" stroke="black" points="3175.5,-168.5 3175.5,-187.5 3285.5,-187.5 3285.5,-168.5 3175.5,-168.5"/>
<text text-anchor="middle" x="3230.5" y="-175.5" font-family="Helvetica,sans-Serif" font-size="10.00">CSymbolProvider.h</text>
</a>
</g>
</g>
<!-- Node1&#45;&gt;Node68 -->
<g id="edge50" class="edge">
<title>Node1&#45;&gt;Node68</title>
<path fill="none" stroke="midnightblue" d="M2938.46,-277.24C3004.62,-254.98 3146.75,-207.17 3204.9,-187.61"/>
<polygon fill="midnightblue" stroke="midnightblue" points="2937.25,-273.95 2928.89,-280.46 2939.48,-280.59 2937.25,-273.95"/>
</g>
<!-- Node3 -->
<g id="node3" class="node">
<title>Node3</title>
<g id="a_node3"><a xlink:href="Plugin_8h.html" target="_top" xlink:title=" ">
<polygon fill="white" stroke="black" points="2825.5,-168.5 2825.5,-187.5 2881.5,-187.5 2881.5,-168.5 2825.5,-168.5"/>
<text text-anchor="middle" x="2853.5" y="-175.5" font-family="Helvetica,sans-Serif" font-size="10.00">Plugin.h</text>
</a>
</g>
</g>
<!-- Node2&#45;&gt;Node3 -->
<g id="edge2" class="edge">
<title>Node2&#45;&gt;Node3</title>
<path fill="none" stroke="midnightblue" d="M2864.64,-214.4C2861.8,-205.36 2858.52,-194.94 2856.25,-187.75"/>
<polygon fill="midnightblue" stroke="midnightblue" points="2861.35,-215.6 2867.69,-224.08 2868.03,-213.49 2861.35,-215.6"/>
</g>
<!-- Node4 -->
<g id="node4" class="node">
<title>Node4</title>
<g id="a_node4"><a xlink:href="Plugin_8cpp.html" target="_top" xlink:title=" ">
<polygon fill="white" stroke="black" points="2166,-112.5 2166,-131.5 2233,-131.5 2233,-112.5 2166,-112.5"/>
<text text-anchor="middle" x="2199.5" y="-119.5" font-family="Helvetica,sans-Serif" font-size="10.00">Plugin.cpp</text>
</a>
</g>
</g>
<!-- Node3&#45;&gt;Node4 -->
<g id="edge3" class="edge">
<title>Node3&#45;&gt;Node4</title>
<path fill="none" stroke="midnightblue" d="M2815.19,-175.95C2718.65,-172.9 2457.72,-162.31 2242.5,-132 2239.48,-131.57 2236.35,-131.06 2233.23,-130.5"/>
<polygon fill="midnightblue" stroke="midnightblue" points="2815.24,-179.45 2825.34,-176.26 2815.46,-172.45 2815.24,-179.45"/>
</g>
<!-- Node5 -->
<g id="node5" class="node">
<title>Node5</title>
<g id="a_node5"><a xlink:href="PluginManager_8h.html" target="_top" xlink:title=" ">
<polygon fill="white" stroke="black" points="2251.5,-112.5 2251.5,-131.5 2349.5,-131.5 2349.5,-112.5 2251.5,-112.5"/>
<text text-anchor="middle" x="2300.5" y="-119.5" font-family="Helvetica,sans-Serif" font-size="10.00">PluginManager.h</text>
</a>
</g>
</g>
<!-- Node3&#45;&gt;Node5 -->
<g id="edge4" class="edge">
<title>Node3&#45;&gt;Node5</title>
<path fill="none" stroke="midnightblue" d="M2815.1,-174.13C2732.4,-167.82 2531.35,-151.68 2363.5,-132 2359,-131.47 2354.33,-130.88 2349.65,-130.26"/>
<polygon fill="midnightblue" stroke="midnightblue" points="2815.04,-177.64 2825.28,-174.91 2815.57,-170.66 2815.04,-177.64"/>
</g>
<!-- Node53 -->
<g id="node41" class="node">
<title>Node53</title>
<g id="a_node41"><a xlink:href="CapstoneX86Decoder_8cpp.html" target="_top" xlink:title=" ">
<polygon fill="white" stroke="black" points="4653.5,-0.5 4653.5,-19.5 4795.5,-19.5 4795.5,-0.5 4653.5,-0.5"/>
<text text-anchor="middle" x="4724.5" y="-7.5" font-family="Helvetica,sans-Serif" font-size="10.00">CapstoneX86Decoder.cpp</text>
</a>
</g>
</g>
<!-- Node3&#45;&gt;Node53 -->
<g id="edge41" class="edge">
<title>Node3&#45;&gt;Node53</title>
<path fill="none" stroke="midnightblue" d="M2815.09,-177.32C2694.87,-177.7 2337.24,-173.73 2396.5,-112 2483.06,-21.83 4519.87,-29.55 4644.5,-20 4647.43,-19.78 4650.41,-19.53 4653.42,-19.26"/>
<polygon fill="midnightblue" stroke="midnightblue" points="2815.32,-180.82 2825.31,-177.28 2815.29,-173.82 2815.32,-180.82"/>
</g>
<!-- Node60 -->
<g id="node42" class="node">
<title>Node60</title>
<g id="a_node42"><a xlink:href="CapstonePPCDecoder_8cpp.html" target="_top" xlink:title=" ">
<polygon fill="white" stroke="black" points="2405.5,-112.5 2405.5,-131.5 2547.5,-131.5 2547.5,-112.5 2405.5,-112.5"/>
<text text-anchor="middle" x="2476.5" y="-119.5" font-family="Helvetica,sans-Serif" font-size="10.00">CapstonePPCDecoder.cpp</text>
</a>
</g>
</g>
<!-- Node3&#45;&gt;Node60 -->
<g id="edge42" class="edge">
<title>Node3&#45;&gt;Node60</title>
<path fill="none" stroke="midnightblue" d="M2815.54,-171.56C2749.81,-162.15 2614.32,-142.74 2535.99,-131.52"/>
<polygon fill="midnightblue" stroke="midnightblue" points="2815.08,-175.03 2825.47,-172.99 2816.07,-168.1 2815.08,-175.03"/>
</g>
<!-- Node61 -->
<g id="node43" class="node">
<title>Node61</title>
<g id="a_node43"><a xlink:href="DOS4GWBinaryLoader_8cpp.html" target="_top" xlink:title=" ">
<polygon fill="white" stroke="black" points="2565.5,-112.5 2565.5,-131.5 2711.5,-131.5 2711.5,-112.5 2565.5,-112.5"/>
<text text-anchor="middle" x="2638.5" y="-119.5" font-family="Helvetica,sans-Serif" font-size="10.00">DOS4GWBinaryLoader.cpp</text>
</a>
</g>
</g>
<!-- Node3&#45;&gt;Node61 -->
<g id="edge43" class="edge">
<title>Node3&#45;&gt;Node61</title>
<path fill="none" stroke="midnightblue" d="M2815.63,-167.49C2775.17,-157.33 2711.62,-141.36 2672.65,-131.58"/>
<polygon fill="midnightblue" stroke="midnightblue" points="2814.84,-170.9 2825.39,-169.94 2816.55,-164.11 2814.84,-170.9"/>
</g>
<!-- Node62 -->
<g id="node44" class="node">
<title>Node62</title>
<g id="a_node44"><a xlink:href="ElfBinaryLoader_8cpp.html" target="_top" xlink:title=" ">
<polygon fill="white" stroke="black" points="2729.5,-112.5 2729.5,-131.5 2843.5,-131.5 2843.5,-112.5 2729.5,-112.5"/>
<text text-anchor="middle" x="2786.5" y="-119.5" font-family="Helvetica,sans-Serif" font-size="10.00">ElfBinaryLoader.cpp</text>
</a>
</g>
</g>
<!-- Node3&#45;&gt;Node62 -->
<g id="edge44" class="edge">
<title>Node3&#45;&gt;Node62</title>
<path fill="none" stroke="midnightblue" d="M2834.67,-161.82C2822.66,-152.15 2807.53,-139.95 2797.46,-131.83"/>
<polygon fill="midnightblue" stroke="midnightblue" points="2832.75,-164.77 2842.74,-168.32 2837.15,-159.32 2832.75,-164.77"/>
</g>
<!-- Node63 -->
<g id="node45" class="node">
<title>Node63</title>
<g id="a_node45"><a xlink:href="ExeBinaryLoader_8cpp.html" target="_top" xlink:title=" ">
<polygon fill="white" stroke="black" points="2862,-112.5 2862,-131.5 2981,-131.5 2981,-112.5 2862,-112.5"/>
<text text-anchor="middle" x="2921.5" y="-119.5" font-family="Helvetica,sans-Serif" font-size="10.00">ExeBinaryLoader.cpp</text>
</a>
</g>
</g>
<!-- Node3&#45;&gt;Node63 -->
<g id="edge45" class="edge">
<title>Node3&#45;&gt;Node63</title>
<path fill="none" stroke="midnightblue" d="M2872.26,-162.1C2884.5,-152.38 2900.06,-140.03 2910.38,-131.83"/>
<polygon fill="midnightblue" stroke="midnightblue" points="2870.08,-159.36 2864.43,-168.32 2874.43,-164.85 2870.08,-159.36"/>
</g>
<!-- Node64 -->
<g id="node46" class="node">
<title>Node64</title>
<g id="a_node46"><a xlink:href="MachOBinaryLoader_8cpp.html" target="_top" xlink:title=" ">
<polygon fill="white" stroke="black" points="2999,-112.5 2999,-131.5 3134,-131.5 3134,-112.5 2999,-112.5"/>
<text text-anchor="middle" x="3066.5" y="-119.5" font-family="Helvetica,sans-Serif" font-size="10.00">MachOBinaryLoader.cpp</text>
</a>
</g>
</g>
<!-- Node3&#45;&gt;Node64 -->
<g id="edge46" class="edge">
<title>Node3&#45;&gt;Node64</title>
<path fill="none" stroke="midnightblue" d="M2891.48,-167.37C2931.64,-157.19 2994.38,-141.28 3032.83,-131.54"/>
<polygon fill="midnightblue" stroke="midnightblue" points="2890.62,-163.98 2881.78,-169.83 2892.34,-170.76 2890.62,-163.98"/>
</g>
<!-- Node65 -->
<g id="node47" class="node">
<title>Node65</title>
<g id="a_node47"><a xlink:href="Win32BinaryLoader_8cpp.html" target="_top" xlink:title=" ">
<polygon fill="white" stroke="black" points="3152.5,-112.5 3152.5,-131.5 3284.5,-131.5 3284.5,-112.5 3152.5,-112.5"/>
<text text-anchor="middle" x="3218.5" y="-119.5" font-family="Helvetica,sans-Serif" font-size="10.00">Win32BinaryLoader.cpp</text>
</a>
</g>
</g>
<!-- Node3&#45;&gt;Node65 -->
<g id="edge47" class="edge">
<title>Node3&#45;&gt;Node65</title>
<path fill="none" stroke="midnightblue" d="M2891.62,-171.36C2955.76,-161.87 3085.64,-142.66 3160.94,-131.52"/>
<polygon fill="midnightblue" stroke="midnightblue" points="2890.91,-167.93 2881.53,-172.85 2891.94,-174.85 2890.91,-167.93"/>
</g>
<!-- Node66 -->
<g id="node48" class="node">
<title>Node66</title>
<g id="a_node48"><a xlink:href="ST20BinaryLoader_8cpp.html" target="_top" xlink:title=" ">
<polygon fill="white" stroke="black" points="3303,-112.5 3303,-131.5 3428,-131.5 3428,-112.5 3303,-112.5"/>
<text text-anchor="middle" x="3365.5" y="-119.5" font-family="Helvetica,sans-Serif" font-size="10.00">ST20BinaryLoader.cpp</text>
</a>
</g>
</g>
<!-- Node3&#45;&gt;Node66 -->
<g id="edge48" class="edge">
<title>Node3&#45;&gt;Node66</title>
<path fill="none" stroke="midnightblue" d="M2891.67,-173.39C2968.04,-166.09 3145.03,-148.87 3293.5,-132 3296.5,-131.66 3299.58,-131.3 3302.68,-130.94"/>
<polygon fill="midnightblue" stroke="midnightblue" points="2891.2,-169.92 2881.58,-174.35 2891.87,-176.88 2891.2,-169.92"/>
</g>
<!-- Node67 -->
<g id="node49" class="node">
<title>Node67</title>
<g id="a_node49"><a xlink:href="CSymbolProvider_8cpp.html" target="_top" xlink:title=" ">
<polygon fill="white" stroke="black" points="3446,-112.5 3446,-131.5 3567,-131.5 3567,-112.5 3446,-112.5"/>
<text text-anchor="middle" x="3506.5" y="-119.5" font-family="Helvetica,sans-Serif" font-size="10.00">CSymbolProvider.cpp</text>
</a>
</g>
</g>
<!-- Node3&#45;&gt;Node67 -->
<g id="edge49" class="edge">
<title>Node3&#45;&gt;Node67</title>
<path fill="none" stroke="midnightblue" d="M2891.59,-174.76C2984.85,-169.14 3232,-153.3 3437.5,-132 3440.26,-131.71 3443.09,-131.41 3445.94,-131.08"/>
<polygon fill="midnightblue" stroke="midnightblue" points="2891.28,-171.28 2881.51,-175.37 2891.7,-178.26 2891.28,-171.28"/>
</g>
<!-- Node6 -->
<g id="node6" class="node">
<title>Node6</title>
<g id="a_node6"><a xlink:href="PluginManager_8cpp.html" target="_top" xlink:title=" ">
<polygon fill="white" stroke="black" points="2142.5,-56.5 2142.5,-75.5 2252.5,-75.5 2252.5,-56.5 2142.5,-56.5"/>
<text text-anchor="middle" x="2197.5" y="-63.5" font-family="Helvetica,sans-Serif" font-size="10.00">PluginManager.cpp</text>
</a>
</g>
</g>
<!-- Node5&#45;&gt;Node6 -->
<g id="edge5" class="edge">
<title>Node5&#45;&gt;Node6</title>
<path fill="none" stroke="midnightblue" d="M2274.92,-107.59C2255.88,-97.61 2230.44,-84.27 2214.01,-75.65"/>
<polygon fill="midnightblue" stroke="midnightblue" points="2273.47,-110.78 2283.95,-112.32 2276.72,-104.58 2273.47,-110.78"/>
</g>
<!-- Node7 -->
<g id="node7" class="node">
<title>Node7</title>
<g id="a_node7"><a xlink:href="Project_8h.html" target="_top" xlink:title=" ">
<polygon fill="white" stroke="red" points="2271,-56.5 2271,-75.5 2330,-75.5 2330,-56.5 2271,-56.5"/>
<text text-anchor="middle" x="2300.5" y="-63.5" font-family="Helvetica,sans-Serif" font-size="10.00">Project.h</text>
</a>
</g>
</g>
<!-- Node5&#45;&gt;Node7 -->
<g id="edge6" class="edge">
<title>Node5&#45;&gt;Node7</title>
<path fill="none" stroke="midnightblue" d="M2300.5,-101.8C2300.5,-92.91 2300.5,-82.78 2300.5,-75.75"/>
<polygon fill="midnightblue" stroke="midnightblue" points="2297,-102.08 2300.5,-112.08 2304,-102.08 2297,-102.08"/>
</g>
<!-- Node8 -->
<g id="node8" class="node">
<title>Node8</title>
<g id="a_node8"><a xlink:href="Project_8cpp.html" target="_top" xlink:title=" ">
<polygon fill="white" stroke="black" points="0,-0.5 0,-19.5 71,-19.5 71,-0.5 0,-0.5"/>
<text text-anchor="middle" x="35.5" y="-7.5" font-family="Helvetica,sans-Serif" font-size="10.00">Project.cpp</text>
</a>
</g>
</g>
<!-- Node7&#45;&gt;Node8 -->
<g id="edge7" class="edge">
<title>Node7&#45;&gt;Node8</title>
<path fill="none" stroke="midnightblue" d="M2260.64,-56.25C1763.5,1.82 558.27,-72.46 79.5,-20 76.86,-19.71 74.15,-19.34 71.43,-18.91"/>
<polygon fill="midnightblue" stroke="midnightblue" points="2260.46,-59.75 2270.8,-57.47 2261.29,-52.8 2260.46,-59.75"/>
</g>
<!-- Node9 -->
<g id="node9" class="node">
<title>Node9</title>
<g id="a_node9"><a xlink:href="DataFlow_8cpp.html" target="_top" xlink:title=" ">
<polygon fill="white" stroke="black" points="89,-0.5 89,-19.5 172,-19.5 172,-0.5 89,-0.5"/>
<text text-anchor="middle" x="130.5" y="-7.5" font-family="Helvetica,sans-Serif" font-size="10.00">DataFlow.cpp</text>
</a>
</g>
</g>
<!-- Node7&#45;&gt;Node9 -->
<g id="edge8" class="edge">
<title>Node7&#45;&gt;Node9</title>
<path fill="none" stroke="midnightblue" d="M2260.75,-56.26C1786.01,-0.61 637.55,-64.79 180.5,-20 177.78,-19.73 174.98,-19.4 172.17,-19.02"/>
<polygon fill="midnightblue" stroke="midnightblue" points="2260.46,-59.75 2270.8,-57.47 2261.29,-52.8 2260.46,-59.75"/>
</g>
<!-- Node10 -->
<g id="node10" class="node">
<title>Node10</title>
<g id="a_node10"><a xlink:href="Module_8cpp.html" target="_top" xlink:title=" ">
<polygon fill="white" stroke="black" points="190,-0.5 190,-19.5 263,-19.5 263,-0.5 190,-0.5"/>
<text text-anchor="middle" x="226.5" y="-7.5" font-family="Helvetica,sans-Serif" font-size="10.00">Module.cpp</text>
</a>
</g>
</g>
<!-- Node7&#45;&gt;Node10 -->
<g id="edge9" class="edge">
<title>Node7&#45;&gt;Node10</title>
<path fill="none" stroke="midnightblue" d="M2260.85,-56.27C1806.5,-2.94 708.89,-66.28 272.5,-20 269.42,-19.67 266.25,-19.25 263.07,-18.75"/>
<polygon fill="midnightblue" stroke="midnightblue" points="2260.46,-59.75 2270.8,-57.47 2261.29,-52.8 2260.46,-59.75"/>
</g>
<!-- Node11 -->
<g id="node11" class="node">
<title>Node11</title>
<g id="a_node11"><a xlink:href="Proc_8cpp.html" target="_top" xlink:title=" ">
<polygon fill="white" stroke="black" points="281.5,-0.5 281.5,-19.5 339.5,-19.5 339.5,-0.5 281.5,-0.5"/>
<text text-anchor="middle" x="310.5" y="-7.5" font-family="Helvetica,sans-Serif" font-size="10.00">Proc.cpp</text>
</a>
</g>
</g>
<!-- Node7&#45;&gt;Node11 -->
<g id="edge10" class="edge">
<title>Node7&#45;&gt;Node11</title>
<path fill="none" stroke="midnightblue" d="M2260.83,-56.25C1415.76,46.81 1188.87,-126.18 348.5,-20 345.67,-19.64 342.75,-19.16 339.84,-18.6"/>
<polygon fill="midnightblue" stroke="midnightblue" points="2260.45,-59.73 2270.8,-57.48 2261.3,-52.78 2260.45,-59.73"/>
</g>
<!-- Node12 -->
<g id="node12" class="node">
<title>Node12</title>
<g id="a_node12"><a xlink:href="UserProc_8cpp.html" target="_top" xlink:title=" ">
<polygon fill="white" stroke="black" points="357.5,-0.5 357.5,-19.5 437.5,-19.5 437.5,-0.5 357.5,-0.5"/>
<text text-anchor="middle" x="397.5" y="-7.5" font-family="Helvetica,sans-Serif" font-size="10.00">UserProc.cpp</text>
</a>
</g>
</g>
<!-- Node7&#45;&gt;Node12 -->
<g id="edge11" class="edge">
<title>Node7&#45;&gt;Node12</title>
<path fill="none" stroke="midnightblue" d="M2260.78,-56.27C1844.86,-7.25 844.63,-60.24 446.5,-20 443.57,-19.7 440.56,-19.33 437.54,-18.9"/>
<polygon fill="midnightblue" stroke="midnightblue" points="2260.45,-59.75 2270.8,-57.48 2261.3,-52.8 2260.45,-59.75"/>
</g>
<!-- Node13 -->
<g id="node13" class="node">
<title>Node13</title>
<g id="a_node13"><a xlink:href="Prog_8cpp.html" target="_top" xlink:title=" ">
<polygon fill="white" stroke="black" points="456,-0.5 456,-19.5 515,-19.5 515,-0.5 456,-0.5"/>
<text text-anchor="middle" x="485.5" y="-7.5" font-family="Helvetica,sans-Serif" font-size="10.00">Prog.cpp</text>
</a>
</g>
</g>
<!-- Node7&#45;&gt;Node13 -->
<g id="edge12" class="edge">
<title>Node7&#45;&gt;Node13</title>
<path fill="none" stroke="midnightblue" d="M2260.6,-56.22C1492.99,38 1286.56,-117.15 523.5,-20 520.81,-19.66 518.03,-19.2 515.26,-18.68"/>
<polygon fill="midnightblue" stroke="midnightblue" points="2260.45,-59.73 2270.8,-57.48 2261.31,-52.78 2260.45,-59.73"/>
</g>
<!-- Node14 -->
<g id="node14" class="node">
<title>Node14</title>
<g id="a_node14"><a xlink:href="IndirectJumpAnalyzer_8cpp.html" target="_top" xlink:title=" ">
<polygon fill="white" stroke="black" points="533,-0.5 533,-19.5 674,-19.5 674,-0.5 533,-0.5"/>
<text text-anchor="middle" x="603.5" y="-7.5" font-family="Helvetica,sans-Serif" font-size="10.00">IndirectJumpAnalyzer.cpp</text>
</a>
</g>
</g>
<!-- Node7&#45;&gt;Node14 -->
<g id="edge13" class="edge">
<title>Node7&#45;&gt;Node14</title>
<path fill="none" stroke="midnightblue" d="M2260.72,-56.25C1896.96,-12.89 1029.42,-43.67 682.5,-20 679.75,-19.81 676.94,-19.6 674.11,-19.36"/>
<polygon fill="midnightblue" stroke="midnightblue" points="2260.45,-59.75 2270.8,-57.49 2261.3,-52.8 2260.45,-59.75"/>
</g>
<!-- Node15 -->
<g id="node15" class="node">
<title>Node15</title>
<g id="a_node15"><a xlink:href="InterferenceFinder_8cpp.html" target="_top" xlink:title=" ">
<polygon fill="white" stroke="black" points="692,-0.5 692,-19.5 817,-19.5 817,-0.5 692,-0.5"/>
<text text-anchor="middle" x="754.5" y="-7.5" font-family="Helvetica,sans-Serif" font-size="10.00">InterferenceFinder.cpp</text>
</a>
</g>
</g>
<!-- Node7&#45;&gt;Node15 -->
<g id="edge14" class="edge">
<title>Node7&#45;&gt;Node15</title>
<path fill="none" stroke="midnightblue" d="M2260.49,-56.2C1626.78,23.15 1459.28,-67.37 826.5,-20 823.49,-19.77 820.4,-19.51 817.29,-19.22"/>
<polygon fill="midnightblue" stroke="midnightblue" points="2260.44,-59.72 2270.8,-57.5 2261.32,-52.77 2260.44,-59.72"/>
</g>
<!-- Node16 -->
<g id="node16" class="node">
<title>Node16</title>
<g id="a_node16"><a xlink:href="LivenessAnalyzer_8cpp.html" target="_top" xlink:title=" ">
<polygon fill="white" stroke="black" points="835.5,-0.5 835.5,-19.5 957.5,-19.5 957.5,-0.5 835.5,-0.5"/>
<text text-anchor="middle" x="896.5" y="-7.5" font-family="Helvetica,sans-Serif" font-size="10.00">LivenessAnalyzer.cpp</text>
</a>
</g>
</g>
<!-- Node7&#45;&gt;Node16 -->
<g id="edge15" class="edge">
<title>Node7&#45;&gt;Node16</title>
<path fill="none" stroke="midnightblue" d="M2260.64,-56.21C1688.61,16.14 1537.17,-64.51 966.5,-20 963.57,-19.77 960.57,-19.51 957.55,-19.21"/>
<polygon fill="midnightblue" stroke="midnightblue" points="2260.44,-59.71 2270.8,-57.5 2261.32,-52.77 2260.44,-59.71"/>
</g>
<!-- Node17 -->
<g id="node17" class="node">
<title>Node17</title>
<g id="a_node17"><a xlink:href="ProcDecompiler_8cpp.html" target="_top" xlink:title=" ">
<polygon fill="white" stroke="black" points="975.5,-0.5 975.5,-19.5 1089.5,-19.5 1089.5,-0.5 975.5,-0.5"/>
<text text-anchor="middle" x="1032.5" y="-7.5" font-family="Helvetica,sans-Serif" font-size="10.00">ProcDecompiler.cpp</text>
</a>
</g>
</g>
<!-- Node7&#45;&gt;Node17 -->
<g id="edge16" class="edge">
<title>Node7&#45;&gt;Node17</title>
<path fill="none" stroke="midnightblue" d="M2260.52,-56.19C1746.86,9.5 1610.45,-62.71 1098.5,-20 1095.62,-19.76 1092.67,-19.48 1089.7,-19.17"/>
<polygon fill="midnightblue" stroke="midnightblue" points="2260.43,-59.71 2270.8,-57.51 2261.33,-52.76 2260.43,-59.71"/>
</g>
<!-- Node18 -->
<g id="node18" class="node">
<title>Node18</title>
<g id="a_node18"><a xlink:href="ProgDecompiler_8cpp.html" target="_top" xlink:title=" ">
<polygon fill="white" stroke="black" points="1108,-0.5 1108,-19.5 1223,-19.5 1223,-0.5 1108,-0.5"/>
<text text-anchor="middle" x="1165.5" y="-7.5" font-family="Helvetica,sans-Serif" font-size="10.00">ProgDecompiler.cpp</text>
</a>
</g>
</g>
<!-- Node7&#45;&gt;Node18 -->
<g id="edge17" class="edge">
<title>Node7&#45;&gt;Node18</title>
<path fill="none" stroke="midnightblue" d="M2260.68,-56.2C1806.04,2.82 1685.15,-58.23 1232.5,-20 1229.46,-19.74 1226.35,-19.45 1223.2,-19.12"/>
<polygon fill="midnightblue" stroke="midnightblue" points="2260.43,-59.7 2270.8,-57.53 2261.34,-52.76 2260.43,-59.7"/>
</g>
<!-- Node19 -->
<g id="node19" class="node">
<title>Node19</title>
<g id="a_node19"><a xlink:href="UnusedReturnRemover_8cpp.html" target="_top" xlink:title=" ">
<polygon fill="white" stroke="black" points="1241.5,-0.5 1241.5,-19.5 1391.5,-19.5 1391.5,-0.5 1241.5,-0.5"/>
<text text-anchor="middle" x="1316.5" y="-7.5" font-family="Helvetica,sans-Serif" font-size="10.00">UnusedReturnRemover.cpp</text>
</a>
</g>
</g>
<!-- Node7&#45;&gt;Node19 -->
<g id="edge18" class="edge">
<title>Node7&#45;&gt;Node19</title>
<path fill="none" stroke="midnightblue" d="M2260.61,-56.18C1880.18,-5.48 1779.09,-48.17 1400.5,-20 1397.57,-19.78 1394.59,-19.54 1391.58,-19.29"/>
<polygon fill="midnightblue" stroke="midnightblue" points="2260.42,-59.68 2270.79,-57.55 2261.35,-52.75 2260.42,-59.68"/>
</g>
<!-- Node20 -->
<g id="node20" class="node">
<title>Node20</title>
<g id="a_node20"><a xlink:href="DefaultFrontEnd_8cpp.html" target="_top" xlink:title=" ">
<polygon fill="white" stroke="black" points="1409.5,-0.5 1409.5,-19.5 1525.5,-19.5 1525.5,-0.5 1409.5,-0.5"/>
<text text-anchor="middle" x="1467.5" y="-7.5" font-family="Helvetica,sans-Serif" font-size="10.00">DefaultFrontEnd.cpp</text>
</a>
</g>
</g>
<!-- Node7&#45;&gt;Node20 -->
<g id="edge19" class="edge">
<title>Node7&#45;&gt;Node20</title>
<path fill="none" stroke="midnightblue" d="M2260.72,-56.18C1939.32,-12.23 1853.35,-49.26 1534.5,-20 1531.58,-19.73 1528.59,-19.43 1525.57,-19.1"/>
<polygon fill="midnightblue" stroke="midnightblue" points="2260.41,-59.67 2270.79,-57.57 2261.36,-52.74 2260.41,-59.67"/>
</g>
<!-- Node21 -->
<g id="node21" class="node">
<title>Node21</title>
<g id="a_node21"><a xlink:href="CallArgumentUpdatePass_8cpp.html" target="_top" xlink:title=" ">
<polygon fill="white" stroke="black" points="1544,-0.5 1544,-19.5 1705,-19.5 1705,-0.5 1544,-0.5"/>
<text text-anchor="middle" x="1624.5" y="-7.5" font-family="Helvetica,sans-Serif" font-size="10.00">CallArgumentUpdatePass.cpp</text>
</a>
</g>
</g>
<!-- Node7&#45;&gt;Node21 -->
<g id="edge20" class="edge">
<title>Node7&#45;&gt;Node21</title>
<path fill="none" stroke="midnightblue" d="M2260.62,-56.13C2018.7,-21.02 1953.98,-39.85 1714.5,-20 1711.53,-19.75 1708.5,-19.49 1705.44,-19.22"/>
<polygon fill="midnightblue" stroke="midnightblue" points="2260.38,-59.63 2270.78,-57.62 2261.4,-52.71 2260.38,-59.63"/>
</g>
<!-- Node22 -->
<g id="node22" class="node">
<title>Node22</title>
<g id="a_node22"><a xlink:href="CallDefineUpdatePass_8cpp.html" target="_top" xlink:title=" ">
<polygon fill="white" stroke="black" points="1723.5,-0.5 1723.5,-19.5 1869.5,-19.5 1869.5,-0.5 1723.5,-0.5"/>
<text text-anchor="middle" x="1796.5" y="-7.5" font-family="Helvetica,sans-Serif" font-size="10.00">CallDefineUpdatePass.cpp</text>
</a>
</g>
</g>
<!-- Node7&#45;&gt;Node22 -->
<g id="edge21" class="edge">
<title>Node7&#45;&gt;Node22</title>
<path fill="none" stroke="midnightblue" d="M2260.74,-56.09C2090.99,-29.04 2045.35,-37 1878.5,-20 1875.65,-19.71 1872.75,-19.41 1869.81,-19.1"/>
<polygon fill="midnightblue" stroke="midnightblue" points="2260.34,-59.57 2270.77,-57.71 2261.45,-52.66 2260.34,-59.57"/>
</g>
<!-- Node23 -->
<g id="node23" class="node">
<title>Node23</title>
<g id="a_node23"><a xlink:href="BlockVarRenamePass_8cpp.html" target="_top" xlink:title=" ">
<polygon fill="white" stroke="black" points="1888,-0.5 1888,-19.5 2031,-19.5 2031,-0.5 1888,-0.5"/>
<text text-anchor="middle" x="1959.5" y="-7.5" font-family="Helvetica,sans-Serif" font-size="10.00">BlockVarRenamePass.cpp</text>
</a>
</g>
</g>
<!-- Node7&#45;&gt;Node23 -->
<g id="edge22" class="edge">
<title>Node7&#45;&gt;Node23</title>
<path fill="none" stroke="midnightblue" d="M2260.78,-55.99C2174.58,-39.85 2086.32,-27.34 2027.23,-19.54"/>
<polygon fill="midnightblue" stroke="midnightblue" points="2260.26,-59.46 2270.74,-57.88 2261.57,-52.58 2260.26,-59.46"/>
</g>
<!-- Node24 -->
<g id="node24" class="node">
<title>Node24</title>
<g id="a_node24"><a xlink:href="StatementPropagationPass_8cpp.html" target="_top" xlink:title=" ">
<polygon fill="white" stroke="black" points="2049,-0.5 2049,-19.5 2218,-19.5 2218,-0.5 2049,-0.5"/>
<text text-anchor="middle" x="2133.5" y="-7.5" font-family="Helvetica,sans-Serif" font-size="10.00">StatementPropagationPass.cpp</text>
</a>
</g>
</g>
<!-- Node7&#45;&gt;Node24 -->
<g id="edge23" class="edge">
<title>Node7&#45;&gt;Node24</title>
<path fill="none" stroke="midnightblue" d="M2264.33,-53.3C2232.86,-43.13 2188.01,-28.62 2159.84,-19.52"/>
<polygon fill="midnightblue" stroke="midnightblue" points="2263.45,-56.7 2274.04,-56.44 2265.6,-50.04 2263.45,-56.7"/>
</g>
<!-- Node25 -->
<g id="node25" class="node">
<title>Node25</title>
<g id="a_node25"><a xlink:href="FromSSAFormPass_8cpp.html" target="_top" xlink:title=" ">
<polygon fill="white" stroke="black" points="2236.5,-0.5 2236.5,-19.5 2364.5,-19.5 2364.5,-0.5 2236.5,-0.5"/>
<text text-anchor="middle" x="2300.5" y="-7.5" font-family="Helvetica,sans-Serif" font-size="10.00">FromSSAFormPass.cpp</text>
</a>
</g>
</g>
<!-- Node7&#45;&gt;Node25 -->
<g id="edge24" class="edge">
<title>Node7&#45;&gt;Node25</title>
<path fill="none" stroke="midnightblue" d="M2300.5,-45.8C2300.5,-36.91 2300.5,-26.78 2300.5,-19.75"/>
<polygon fill="midnightblue" stroke="midnightblue" points="2297,-46.08 2300.5,-56.08 2304,-46.08 2297,-46.08"/>
</g>
<!-- Node26 -->
<g id="node26" class="node">
<title>Node26</title>
<g id="a_node26"><a xlink:href="LocalAndParamMapPass_8cpp.html" target="_top" xlink:title=" ">
<polygon fill="white" stroke="black" points="2382.5,-0.5 2382.5,-19.5 2538.5,-19.5 2538.5,-0.5 2382.5,-0.5"/>
<text text-anchor="middle" x="2460.5" y="-7.5" font-family="Helvetica,sans-Serif" font-size="10.00">LocalAndParamMapPass.cpp</text>
</a>
</g>
</g>
<!-- Node7&#45;&gt;Node26 -->
<g id="edge25" class="edge">
<title>Node7&#45;&gt;Node26</title>
<path fill="none" stroke="midnightblue" d="M2335.55,-53.17C2365.67,-43 2408.4,-28.59 2435.27,-19.52"/>
<polygon fill="midnightblue" stroke="midnightblue" points="2334.21,-49.93 2325.85,-56.44 2336.45,-56.56 2334.21,-49.93"/>
</g>
<!-- Node27 -->
<g id="node27" class="node">
<title>Node27</title>
<g id="a_node27"><a xlink:href="LocalTypeAnalysisPass_8cpp.html" target="_top" xlink:title=" ">
<polygon fill="white" stroke="black" points="2557,-0.5 2557,-19.5 2706,-19.5 2706,-0.5 2557,-0.5"/>
<text text-anchor="middle" x="2631.5" y="-7.5" font-family="Helvetica,sans-Serif" font-size="10.00">LocalTypeAnalysisPass.cpp</text>
</a>
</g>
</g>
<!-- Node7&#45;&gt;Node27 -->
<g id="edge26" class="edge">
<title>Node7&#45;&gt;Node27</title>
<path fill="none" stroke="midnightblue" d="M2340.33,-58.5C2400.05,-48.76 2512.87,-30.35 2579.17,-19.54"/>
<polygon fill="midnightblue" stroke="midnightblue" points="2339.47,-55.1 2330.17,-60.16 2340.6,-62 2339.47,-55.1"/>
</g>
<!-- Node28 -->
<g id="node28" class="node">
<title>Node28</title>
<g id="a_node28"><a xlink:href="UnusedLocalRemovalPass_8cpp.html" target="_top" xlink:title=" ">
<polygon fill="white" stroke="black" points="2724,-0.5 2724,-19.5 2889,-19.5 2889,-0.5 2724,-0.5"/>
<text text-anchor="middle" x="2806.5" y="-7.5" font-family="Helvetica,sans-Serif" font-size="10.00">UnusedLocalRemovalPass.cpp</text>
</a>
</g>
</g>
<!-- Node7&#45;&gt;Node28 -->
<g id="edge27" class="edge">
<title>Node7&#45;&gt;Node28</title>
<path fill="none" stroke="midnightblue" d="M2340.18,-59.08C2347.91,-58 2355.95,-56.92 2363.5,-56 2398.22,-51.76 2605.3,-31.02 2723.65,-19.23"/>
<polygon fill="midnightblue" stroke="midnightblue" points="2339.68,-55.62 2330.27,-60.49 2340.67,-62.55 2339.68,-55.62"/>
</g>
<!-- Node29 -->
<g id="node29" class="node">
<title>Node29</title>
<g id="a_node29"><a xlink:href="UnusedParamRemovalPass_8cpp.html" target="_top" xlink:title=" ">
<polygon fill="white" stroke="black" points="2907,-0.5 2907,-19.5 3078,-19.5 3078,-0.5 2907,-0.5"/>
<text text-anchor="middle" x="2992.5" y="-7.5" font-family="Helvetica,sans-Serif" font-size="10.00">UnusedParamRemovalPass.cpp</text>
</a>
</g>
</g>
<!-- Node7&#45;&gt;Node29 -->
<g id="edge28" class="edge">
<title>Node7&#45;&gt;Node29</title>
<path fill="none" stroke="midnightblue" d="M2340.16,-58.88C2347.89,-57.81 2355.94,-56.79 2363.5,-56 2600.07,-31.16 2660.41,-39.22 2897.5,-20 2900.55,-19.75 2903.66,-19.49 2906.8,-19.23"/>
<polygon fill="midnightblue" stroke="midnightblue" points="2339.65,-55.41 2330.25,-60.29 2340.64,-62.34 2339.65,-55.41"/>
</g>
<!-- Node30 -->
<g id="node30" class="node">
<title>Node30</title>
<g id="a_node30"><a xlink:href="UnusedStatementRemovalPass_8cpp.html" target="_top" xlink:title=" ">
<polygon fill="white" stroke="black" points="3096,-0.5 3096,-19.5 3287,-19.5 3287,-0.5 3096,-0.5"/>
<text text-anchor="middle" x="3191.5" y="-7.5" font-family="Helvetica,sans-Serif" font-size="10.00">UnusedStatementRemovalPass.cpp</text>
</a>
</g>
</g>
<!-- Node7&#45;&gt;Node30 -->
<g id="edge29" class="edge">
<title>Node7&#45;&gt;Node30</title>
<path fill="none" stroke="midnightblue" d="M2340.14,-58.77C2347.88,-57.71 2355.93,-56.73 2363.5,-56 2684.2,-25.19 2766.07,-41.89 3087.5,-20 3090.21,-19.82 3092.96,-19.62 3095.74,-19.42"/>
<polygon fill="midnightblue" stroke="midnightblue" points="2339.64,-55.3 2330.24,-60.18 2340.63,-62.23 2339.64,-55.3"/>
</g>
<!-- Node31 -->
<g id="node31" class="node">
<title>Node31</title>
<g id="a_node31"><a xlink:href="AssignRemovalPass_8cpp.html" target="_top" xlink:title=" ">
<polygon fill="white" stroke="black" points="3305,-0.5 3305,-19.5 3440,-19.5 3440,-0.5 3305,-0.5"/>
<text text-anchor="middle" x="3372.5" y="-7.5" font-family="Helvetica,sans-Serif" font-size="10.00">AssignRemovalPass.cpp</text>
</a>
</g>
</g>
<!-- Node7&#45;&gt;Node31 -->
<g id="edge30" class="edge">
<title>Node7&#45;&gt;Node31</title>
<path fill="none" stroke="midnightblue" d="M2340.14,-58.7C2347.87,-57.65 2355.93,-56.69 2363.5,-56 2776.79,-18.61 2882.79,-52.43 3296.5,-20 3299.28,-19.78 3302.12,-19.54 3304.98,-19.28"/>
<polygon fill="midnightblue" stroke="midnightblue" points="2339.64,-55.24 2330.23,-60.11 2340.62,-62.17 2339.64,-55.24"/>
</g>
<!-- Node32 -->
<g id="node32" class="node">
<title>Node32</title>
<g id="a_node32"><a xlink:href="PreservationAnalysisPass_8cpp.html" target="_top" xlink:title=" ">
<polygon fill="white" stroke="black" points="3458.5,-0.5 3458.5,-19.5 3620.5,-19.5 3620.5,-0.5 3458.5,-0.5"/>
<text text-anchor="middle" x="3539.5" y="-7.5" font-family="Helvetica,sans-Serif" font-size="10.00">PreservationAnalysisPass.cpp</text>
</a>
</g>
</g>
<!-- Node7&#45;&gt;Node32 -->
<g id="edge31" class="edge">
<title>Node7&#45;&gt;Node32</title>
<path fill="none" stroke="midnightblue" d="M2340.14,-58.67C2347.87,-57.62 2355.92,-56.66 2363.5,-56 2844.58,-13.79 2967.63,-52.04 3449.5,-20 3452.32,-19.81 3455.19,-19.61 3458.09,-19.39"/>
<polygon fill="midnightblue" stroke="midnightblue" points="2339.64,-55.2 2330.23,-60.08 2340.62,-62.13 2339.64,-55.2"/>
</g>
<!-- Node33 -->
<g id="node33" class="node">
<title>Node33</title>
<g id="a_node33"><a xlink:href="SPPreservationPass_8cpp.html" target="_top" xlink:title=" ">
<polygon fill="white" stroke="black" points="3639,-0.5 3639,-19.5 3772,-19.5 3772,-0.5 3639,-0.5"/>
<text text-anchor="middle" x="3705.5" y="-7.5" font-family="Helvetica,sans-Serif" font-size="10.00">SPPreservationPass.cpp</text>
</a>
</g>
</g>
<!-- Node7&#45;&gt;Node33 -->
<g id="edge32" class="edge">
<title>Node7&#45;&gt;Node33</title>
<path fill="none" stroke="midnightblue" d="M2340.13,-58.64C2347.86,-57.6 2355.92,-56.65 2363.5,-56 2924.35,-8.12 3068.11,-61.14 3629.5,-20 3632.55,-19.78 3635.66,-19.52 3638.8,-19.24"/>
<polygon fill="midnightblue" stroke="midnightblue" points="2339.63,-55.18 2330.22,-60.05 2340.62,-62.11 2339.63,-55.18"/>
</g>
<!-- Node34 -->
<g id="node34" class="node">
<title>Node34</title>
<g id="a_node34"><a xlink:href="PassManager_8cpp.html" target="_top" xlink:title=" ">
<polygon fill="white" stroke="black" points="3790.5,-0.5 3790.5,-19.5 3892.5,-19.5 3892.5,-0.5 3790.5,-0.5"/>
<text text-anchor="middle" x="3841.5" y="-7.5" font-family="Helvetica,sans-Serif" font-size="10.00">PassManager.cpp</text>
</a>
</g>
</g>
<!-- Node7&#45;&gt;Node34 -->
<g id="edge33" class="edge">
<title>Node7&#45;&gt;Node34</title>
<path fill="none" stroke="midnightblue" d="M2340.13,-58.62C2347.86,-57.58 2355.92,-56.64 2363.5,-56 2991.72,-3.33 3153.47,-74.86 3781.5,-20 3784.44,-19.74 3787.45,-19.44 3790.49,-19.09"/>
<polygon fill="midnightblue" stroke="midnightblue" points="2339.63,-55.16 2330.22,-60.03 2340.62,-62.09 2339.63,-55.16"/>
</g>
<!-- Node35 -->
<g id="node35" class="node">
<title>Node35</title>
<g id="a_node35"><a xlink:href="Assign_8cpp.html" target="_top" xlink:title=" ">
<polygon fill="white" stroke="black" points="3911,-0.5 3911,-19.5 3980,-19.5 3980,-0.5 3911,-0.5"/>
<text text-anchor="middle" x="3945.5" y="-7.5" font-family="Helvetica,sans-Serif" font-size="10.00">Assign.cpp</text>
</a>
</g>
</g>
<!-- Node7&#45;&gt;Node35 -->
<g id="edge34" class="edge">
<title>Node7&#45;&gt;Node35</title>
<path fill="none" stroke="midnightblue" d="M2340.13,-58.61C2347.86,-57.57 2355.92,-56.63 2363.5,-56 3044.91,0.45 3222.09,-96.81 3901.5,-20 3904.44,-19.67 3907.48,-19.23 3910.53,-18.74"/>
<polygon fill="midnightblue" stroke="midnightblue" points="2339.63,-55.14 2330.22,-60.02 2340.61,-62.08 2339.63,-55.14"/>
</g>
<!-- Node36 -->
<g id="node36" class="node">
<title>Node36</title>
<g id="a_node36"><a xlink:href="Statement_8cpp.html" target="_top" xlink:title=" ">
<polygon fill="white" stroke="black" points="3998.5,-0.5 3998.5,-19.5 4086.5,-19.5 4086.5,-0.5 3998.5,-0.5"/>
<text text-anchor="middle" x="4042.5" y="-7.5" font-family="Helvetica,sans-Serif" font-size="10.00">Statement.cpp</text>
</a>
</g>
</g>
<!-- Node7&#45;&gt;Node36 -->
<g id="edge35" class="edge">
<title>Node7&#45;&gt;Node36</title>
<path fill="none" stroke="midnightblue" d="M2340.13,-58.6C2347.86,-57.56 2355.92,-56.62 2363.5,-56 3083.91,3.22 3269.93,-88.69 3989.5,-20 3992.38,-19.73 3995.34,-19.38 3998.32,-19"/>
<polygon fill="midnightblue" stroke="midnightblue" points="2339.63,-55.14 2330.22,-60.01 2340.61,-62.07 2339.63,-55.14"/>
</g>
<!-- Node37 -->
<g id="node37" class="node">
<title>Node37</title>
<g id="a_node37"><a xlink:href="CallGraphDotWriter_8cpp.html" target="_top" xlink:title=" ">
<polygon fill="white" stroke="black" points="4104.5,-0.5 4104.5,-19.5 4236.5,-19.5 4236.5,-0.5 4104.5,-0.5"/>
<text text-anchor="middle" x="4170.5" y="-7.5" font-family="Helvetica,sans-Serif" font-size="10.00">CallGraphDotWriter.cpp</text>
</a>
</g>
</g>
<!-- Node7&#45;&gt;Node37 -->
<g id="edge36" class="edge">
<title>Node7&#45;&gt;Node37</title>
<path fill="none" stroke="midnightblue" d="M2340.13,-58.59C2347.86,-57.55 2355.92,-56.62 2363.5,-56 3130.9,6.56 3327.45,-73.93 4095.5,-20 4098.38,-19.8 4101.32,-19.56 4104.28,-19.31"/>
<polygon fill="midnightblue" stroke="midnightblue" points="2339.63,-55.13 2330.22,-60 2340.61,-62.06 2339.63,-55.13"/>
</g>
<!-- Node38 -->
<g id="node38" class="node">
<title>Node38</title>
<g id="a_node38"><a xlink:href="CFGDotWriter_8cpp.html" target="_top" xlink:title=" ">
<polygon fill="white" stroke="black" points="4254.5,-0.5 4254.5,-19.5 4358.5,-19.5 4358.5,-0.5 4254.5,-0.5"/>
<text text-anchor="middle" x="4306.5" y="-7.5" font-family="Helvetica,sans-Serif" font-size="10.00">CFGDotWriter.cpp</text>
</a>
</g>
</g>
<!-- Node7&#45;&gt;Node38 -->
<g id="edge37" class="edge">
<title>Node7&#45;&gt;Node38</title>
<path fill="none" stroke="midnightblue" d="M2340.13,-58.58C2347.86,-57.55 2355.92,-56.61 2363.5,-56 3197.39,11.28 3411.77,-89.2 4245.5,-20 4248.38,-19.76 4251.33,-19.47 4254.31,-19.15"/>
<polygon fill="midnightblue" stroke="midnightblue" points="2339.63,-55.12 2330.22,-59.99 2340.61,-62.05 2339.63,-55.12"/>
</g>
<!-- Node39 -->
<g id="node39" class="node">
<title>Node39</title>
<g id="a_node39"><a xlink:href="ProgSymbolWriter_8cpp.html" target="_top" xlink:title=" ">
<polygon fill="white" stroke="black" points="4377,-0.5 4377,-19.5 4502,-19.5 4502,-0.5 4377,-0.5"/>
<text text-anchor="middle" x="4439.5" y="-7.5" font-family="Helvetica,sans-Serif" font-size="10.00">ProgSymbolWriter.cpp</text>
</a>
</g>
</g>
<!-- Node7&#45;&gt;Node39 -->
<g id="edge38" class="edge">
<title>Node7&#45;&gt;Node39</title>
<path fill="none" stroke="midnightblue" d="M2340.13,-58.58C2347.86,-57.54 2355.92,-56.61 2363.5,-56 3251.47,15.13 3478.94,-83.34 4367.5,-20 4370.52,-19.79 4373.6,-19.53 4376.71,-19.25"/>
<polygon fill="midnightblue" stroke="midnightblue" points="2339.63,-55.11 2330.22,-59.98 2340.61,-62.04 2339.63,-55.11"/>
</g>
<!-- Node40 -->
<g id="node40" class="node">
<title>Node40</title>
<g id="a_node40"><a xlink:href="UseGraphWriter_8cpp.html" target="_top" xlink:title=" ">
<polygon fill="white" stroke="black" points="4520,-0.5 4520,-19.5 4635,-19.5 4635,-0.5 4520,-0.5"/>
<text text-anchor="middle" x="4577.5" y="-7.5" font-family="Helvetica,sans-Serif" font-size="10.00">UseGraphWriter.cpp</text>
</a>
</g>
</g>
<!-- Node7&#45;&gt;Node40 -->
<g id="edge39" class="edge">
<title>Node7&#45;&gt;Node40</title>
<path fill="none" stroke="midnightblue" d="M2340.13,-58.57C2347.86,-57.53 2355.92,-56.6 2363.5,-56 3315.3,19.66 3559.47,-92.63 4511.5,-20 4514.27,-19.79 4517.1,-19.54 4519.95,-19.26"/>
<polygon fill="midnightblue" stroke="midnightblue" points="2339.63,-55.1 2330.22,-59.97 2340.61,-62.03 2339.63,-55.1"/>
</g>
<!-- Node7&#45;&gt;Node53 -->
<g id="edge40" class="edge">
<title>Node7&#45;&gt;Node53</title>
<path fill="none" stroke="midnightblue" d="M2340.13,-58.56C2347.86,-57.53 2355.92,-56.6 2363.5,-56 3374.25,23.85 3632.67,-84.75 4644.5,-20 4647.43,-19.81 4650.42,-19.6 4653.43,-19.35"/>
<polygon fill="midnightblue" stroke="midnightblue" points="2339.63,-55.1 2330.22,-59.97 2340.61,-62.03 2339.63,-55.1"/>
</g>
<!-- Node68&#45;&gt;Node67 -->
<g id="edge51" class="edge">
<title>Node68&#45;&gt;Node67</title>
<path fill="none" stroke="midnightblue" d="M3284.3,-166.47C3336.46,-156.27 3414.61,-140.98 3462.97,-131.52"/>
<polygon fill="midnightblue" stroke="midnightblue" points="3283.37,-163.09 3274.23,-168.44 3284.72,-169.96 3283.37,-163.09"/>
</g>
</g>
</svg>
