<?xml version="1.0" encoding="UTF-8" standalone="no"?>
<!DOCTYPE svg PUBLIC "-//W3C//DTD SVG 1.1//EN"
 "http://www.w3.org/Graphics/SVG/1.1/DTD/svg11.dtd">
<!-- Generated by graphviz version 2.43.0 (0)
 -->
<!-- Title: LiftedInstruction.h Pages: 1 -->
<!--zoomable 364 -->
<svg id="main" version="1.1" xmlns="http://www.w3.org/2000/svg" xmlns:xlink="http://www.w3.org/1999/xlink" xml:space="preserve" onload="init(evt)">
<style type="text/css"><![CDATA[
.edge:hover path { stroke: red; }
.edge:hover polygon { stroke: red; fill: red; }
]]></style>
<script type="text/javascript"><![CDATA[
var edges = document.getElementsByTagName('g');
if (edges && edges.length) {
  for (var i=0;i<edges.length;i++) {
    if (edges[i].id.substr(0,4)=='edge') {
      edges[i].setAttribute('class','edge');
    }
  }
}
]]></script>
        <defs>
                <circle id="rim" cx="0" cy="0" r="7"/>
                <circle id="rim2" cx="0" cy="0" r="3.5"/>
                <g id="zoomPlus">
                        <use xlink:href="#rim" fill="#404040">
                                <set attributeName="fill" to="#808080" begin="zoomplus.mouseover" end="zoomplus.mouseout"/>
                        </use>
                        <path d="M-4,0h8M0,-4v8" fill="none" stroke="white" stroke-width="1.5" pointer-events="none"/>
                </g>
                <g id="zoomMin">
                        <use xlink:href="#rim" fill="#404040">
                                <set attributeName="fill" to="#808080" begin="zoomminus.mouseover" end="zoomminus.mouseout"/>
                        </use>
                        <path d="M-4,0h8" fill="none" stroke="white" stroke-width="1.5" pointer-events="none"/>
                </g>
                <g id="dirArrow">
                        <path fill="none" stroke="white" stroke-width="1.5" d="M0,-3.0v7 M-2.5,-0.5L0,-3.0L2.5,-0.5"/>
                </g>
               <g id="resetDef">
                       <use xlink:href="#rim2" fill="#404040">
                               <set attributeName="fill" to="#808080" begin="reset.mouseover" end="reset.mouseout"/>
                       </use>
               </g>
        </defs>

<script type="text/javascript">
var viewWidth = 4283;
var viewHeight = 364;
var sectionId = 'dynsection-1';
</script>
<script xlink:href="svgpan.js"/>
<svg id="graph" class="graph">
<g id="viewport">
<title>LiftedInstruction.h</title>
<polygon fill="white" stroke="transparent" points="-4,4 -4,-360 4278.5,-360 4278.5,4 -4,4"/>
<!-- Node1 -->
<g id="node1" class="node">
<title>Node1</title>
<g id="a_node1"><a xlink:title=" ">
<polygon fill="#bfbfbf" stroke="black" points="4078,-336.5 4078,-355.5 4183,-355.5 4183,-336.5 4078,-336.5"/>
<text text-anchor="middle" x="4130.5" y="-343.5" font-family="Helvetica,sans-Serif" font-size="10.00">LiftedInstruction.h</text>
</a>
</g>
</g>
<!-- Node2 -->
<g id="node2" class="node">
<title>Node2</title>
<g id="a_node2"><a xlink:href="IDecoder_8h.html" target="_top" xlink:title=" ">
<polygon fill="white" stroke="black" points="3905,-280.5 3905,-299.5 3974,-299.5 3974,-280.5 3905,-280.5"/>
<text text-anchor="middle" x="3939.5" y="-287.5" font-family="Helvetica,sans-Serif" font-size="10.00">IDecoder.h</text>
</a>
</g>
</g>
<!-- Node1&#45;&gt;Node2 -->
<g id="edge1" class="edge">
<title>Node1&#45;&gt;Node2</title>
<path fill="none" stroke="midnightblue" d="M4090.53,-333.7C4054.48,-323.51 4002.26,-308.74 3969.62,-299.52"/>
<polygon fill="midnightblue" stroke="midnightblue" points="4089.66,-337.09 4100.24,-336.44 4091.56,-330.35 4089.66,-337.09"/>
</g>
<!-- Node21 -->
<g id="node21" class="node">
<title>Node21</title>
<g id="a_node21"><a xlink:href="DefaultFrontEnd_8cpp.html" target="_top" xlink:title=" ">
<polygon fill="white" stroke="black" points="4076.5,-0.5 4076.5,-19.5 4192.5,-19.5 4192.5,-0.5 4076.5,-0.5"/>
<text text-anchor="middle" x="4134.5" y="-7.5" font-family="Helvetica,sans-Serif" font-size="10.00">DefaultFrontEnd.cpp</text>
</a>
</g>
</g>
<!-- Node1&#45;&gt;Node21 -->
<g id="edge56" class="edge">
<title>Node1&#45;&gt;Node21</title>
<path fill="none" stroke="midnightblue" d="M4130.5,-326.25C4130.5,-304.36 4130.5,-267.05 4130.5,-235 4130.5,-235 4130.5,-235 4130.5,-121 4130.5,-83.16 4132.89,-38.05 4133.98,-19.55"/>
<polygon fill="midnightblue" stroke="midnightblue" points="4127,-326.44 4130.5,-336.44 4134,-326.44 4127,-326.44"/>
</g>
<!-- Node73 -->
<g id="node50" class="node">
<title>Node73</title>
<g id="a_node50"><a xlink:href="LiftedInstruction_8cpp.html" target="_top" xlink:title=" ">
<polygon fill="white" stroke="black" points="4158.5,-280.5 4158.5,-299.5 4274.5,-299.5 4274.5,-280.5 4158.5,-280.5"/>
<text text-anchor="middle" x="4216.5" y="-287.5" font-family="Helvetica,sans-Serif" font-size="10.00">LiftedInstruction.cpp</text>
</a>
</g>
</g>
<!-- Node1&#45;&gt;Node73 -->
<g id="edge57" class="edge">
<title>Node1&#45;&gt;Node73</title>
<path fill="none" stroke="midnightblue" d="M4152.95,-330.9C4168.72,-321 4189.31,-308.07 4202.72,-299.65"/>
<polygon fill="midnightblue" stroke="midnightblue" points="4150.93,-328.04 4144.32,-336.32 4154.65,-333.97 4150.93,-328.04"/>
</g>
<!-- Node3 -->
<g id="node3" class="node">
<title>Node3</title>
<g id="a_node3"><a xlink:href="PluginType_8h.html" target="_top" xlink:title=" ">
<polygon fill="white" stroke="black" points="2985.5,-224.5 2985.5,-243.5 3063.5,-243.5 3063.5,-224.5 2985.5,-224.5"/>
<text text-anchor="middle" x="3024.5" y="-231.5" font-family="Helvetica,sans-Serif" font-size="10.00">PluginType.h</text>
</a>
</g>
</g>
<!-- Node2&#45;&gt;Node3 -->
<g id="edge2" class="edge">
<title>Node2&#45;&gt;Node3</title>
<path fill="none" stroke="midnightblue" d="M3894.47,-286.34C3736.86,-277.04 3211.49,-246.04 3063.56,-237.31"/>
<polygon fill="midnightblue" stroke="midnightblue" points="3894.56,-289.85 3904.75,-286.95 3894.97,-282.87 3894.56,-289.85"/>
</g>
<!-- Node14 -->
<g id="node14" class="node">
<title>Node14</title>
<g id="a_node14"><a xlink:href="Prog_8cpp.html" target="_top" xlink:title=" ">
<polygon fill="white" stroke="black" points="3880,-0.5 3880,-19.5 3939,-19.5 3939,-0.5 3880,-0.5"/>
<text text-anchor="middle" x="3909.5" y="-7.5" font-family="Helvetica,sans-Serif" font-size="10.00">Prog.cpp</text>
</a>
</g>
</g>
<!-- Node2&#45;&gt;Node14 -->
<g id="edge46" class="edge">
<title>Node2&#45;&gt;Node14</title>
<path fill="none" stroke="midnightblue" d="M3932.47,-270.83C3924.77,-249.27 3913.5,-212.07 3913.5,-179 3913.5,-179 3913.5,-179 3913.5,-121 3913.5,-83.16 3911.11,-38.05 3910.02,-19.55"/>
<polygon fill="midnightblue" stroke="midnightblue" points="3929.23,-272.17 3935.99,-280.32 3935.79,-269.73 3929.23,-272.17"/>
</g>
<!-- Node2&#45;&gt;Node21 -->
<g id="edge47" class="edge">
<title>Node2&#45;&gt;Node21</title>
<path fill="none" stroke="midnightblue" d="M3981.26,-277.2C4024.41,-262.15 4085.5,-231.56 4085.5,-179 4085.5,-179 4085.5,-179 4085.5,-121 4085.5,-80.02 4114.22,-37.31 4127.69,-19.54"/>
<polygon fill="midnightblue" stroke="midnightblue" points="3979.92,-273.95 3971.54,-280.44 3982.13,-280.6 3979.92,-273.95"/>
</g>
<!-- Node69 -->
<g id="node46" class="node">
<title>Node69</title>
<g id="a_node46"><a xlink:href="CapstoneDecoder_8h.html" target="_top" xlink:title=" ">
<polygon fill="white" stroke="black" points="487.5,-224.5 487.5,-243.5 599.5,-243.5 599.5,-224.5 487.5,-224.5"/>
<text text-anchor="middle" x="543.5" y="-231.5" font-family="Helvetica,sans-Serif" font-size="10.00">CapstoneDecoder.h</text>
</a>
</g>
</g>
<!-- Node2&#45;&gt;Node69 -->
<g id="edge48" class="edge">
<title>Node2&#45;&gt;Node69</title>
<path fill="none" stroke="midnightblue" d="M3894.51,-288.28C3526.1,-282.43 1008.97,-242.4 599.69,-235.89"/>
<polygon fill="midnightblue" stroke="midnightblue" points="3894.73,-291.79 3904.78,-288.45 3894.84,-284.79 3894.73,-291.79"/>
</g>
<!-- Node72 -->
<g id="node49" class="node">
<title>Node72</title>
<g id="a_node49"><a xlink:href="ST20Decoder_8h.html" target="_top" xlink:title=" ">
<polygon fill="white" stroke="black" points="3953.5,-56.5 3953.5,-75.5 4043.5,-75.5 4043.5,-56.5 3953.5,-56.5"/>
<text text-anchor="middle" x="3998.5" y="-63.5" font-family="Helvetica,sans-Serif" font-size="10.00">ST20Decoder.h</text>
</a>
</g>
</g>
<!-- Node2&#45;&gt;Node72 -->
<g id="edge54" class="edge">
<title>Node2&#45;&gt;Node72</title>
<path fill="none" stroke="midnightblue" d="M3944.39,-270.58C3956.47,-225.14 3987.36,-108.92 3996.14,-75.88"/>
<polygon fill="midnightblue" stroke="midnightblue" points="3941,-269.73 3941.81,-280.3 3947.76,-271.53 3941,-269.73"/>
</g>
<!-- Node4 -->
<g id="node4" class="node">
<title>Node4</title>
<g id="a_node4"><a xlink:href="Plugin_8h.html" target="_top" xlink:title=" ">
<polygon fill="white" stroke="black" points="2302.5,-168.5 2302.5,-187.5 2358.5,-187.5 2358.5,-168.5 2302.5,-168.5"/>
<text text-anchor="middle" x="2330.5" y="-175.5" font-family="Helvetica,sans-Serif" font-size="10.00">Plugin.h</text>
</a>
</g>
</g>
<!-- Node3&#45;&gt;Node4 -->
<g id="edge3" class="edge">
<title>Node3&#45;&gt;Node4</title>
<path fill="none" stroke="midnightblue" d="M2975.09,-229.16C2839.45,-218.6 2464.34,-189.41 2358.58,-181.19"/>
<polygon fill="midnightblue" stroke="midnightblue" points="2974.96,-232.66 2985.2,-229.94 2975.5,-225.68 2974.96,-232.66"/>
</g>
<!-- Node5 -->
<g id="node5" class="node">
<title>Node5</title>
<g id="a_node5"><a xlink:href="Plugin_8cpp.html" target="_top" xlink:title=" ">
<polygon fill="white" stroke="black" points="2247,-112.5 2247,-131.5 2314,-131.5 2314,-112.5 2247,-112.5"/>
<text text-anchor="middle" x="2280.5" y="-119.5" font-family="Helvetica,sans-Serif" font-size="10.00">Plugin.cpp</text>
</a>
</g>
</g>
<!-- Node4&#45;&gt;Node5 -->
<g id="edge4" class="edge">
<title>Node4&#45;&gt;Node5</title>
<path fill="none" stroke="midnightblue" d="M2315.42,-160.72C2306.61,-151.2 2295.83,-139.56 2288.6,-131.75"/>
<polygon fill="midnightblue" stroke="midnightblue" points="2312.88,-163.12 2322.24,-168.08 2318.02,-158.37 2312.88,-163.12"/>
</g>
<!-- Node6 -->
<g id="node6" class="node">
<title>Node6</title>
<g id="a_node6"><a xlink:href="PluginManager_8h.html" target="_top" xlink:title=" ">
<polygon fill="white" stroke="black" points="2332.5,-112.5 2332.5,-131.5 2430.5,-131.5 2430.5,-112.5 2332.5,-112.5"/>
<text text-anchor="middle" x="2381.5" y="-119.5" font-family="Helvetica,sans-Serif" font-size="10.00">PluginManager.h</text>
</a>
</g>
</g>
<!-- Node4&#45;&gt;Node6 -->
<g id="edge5" class="edge">
<title>Node4&#45;&gt;Node6</title>
<path fill="none" stroke="midnightblue" d="M2345.88,-160.72C2354.87,-151.2 2365.86,-139.56 2373.24,-131.75"/>
<polygon fill="midnightblue" stroke="midnightblue" points="2343.24,-158.41 2338.92,-168.08 2348.33,-163.22 2343.24,-158.41"/>
</g>
<!-- Node54 -->
<g id="node36" class="node">
<title>Node54</title>
<g id="a_node36"><a xlink:href="CapstoneX86Decoder_8cpp.html" target="_top" xlink:title=" ">
<polygon fill="white" stroke="black" points="141.5,-0.5 141.5,-19.5 283.5,-19.5 283.5,-0.5 141.5,-0.5"/>
<text text-anchor="middle" x="212.5" y="-7.5" font-family="Helvetica,sans-Serif" font-size="10.00">CapstoneX86Decoder.cpp</text>
</a>
</g>
</g>
<!-- Node4&#45;&gt;Node54 -->
<g id="edge37" class="edge">
<title>Node4&#45;&gt;Node54</title>
<path fill="none" stroke="midnightblue" d="M2292.05,-174.54C2086.72,-161.32 1098.58,-96.37 292.5,-20 289.58,-19.72 286.6,-19.43 283.59,-19.13"/>
<polygon fill="midnightblue" stroke="midnightblue" points="2292.11,-178.06 2302.32,-175.2 2292.56,-171.07 2292.11,-178.06"/>
</g>
<!-- Node61 -->
<g id="node38" class="node">
<title>Node61</title>
<g id="a_node38"><a xlink:href="CapstonePPCDecoder_8cpp.html" target="_top" xlink:title=" ">
<polygon fill="white" stroke="black" points="684.5,-112.5 684.5,-131.5 826.5,-131.5 826.5,-112.5 684.5,-112.5"/>
<text text-anchor="middle" x="755.5" y="-119.5" font-family="Helvetica,sans-Serif" font-size="10.00">CapstonePPCDecoder.cpp</text>
</a>
</g>
</g>
<!-- Node4&#45;&gt;Node61 -->
<g id="edge38" class="edge">
<title>Node4&#45;&gt;Node61</title>
<path fill="none" stroke="midnightblue" d="M2292.45,-175.7C2086.25,-168.63 1101.85,-134.87 826.94,-125.45"/>
<polygon fill="midnightblue" stroke="midnightblue" points="2292.38,-179.2 2302.49,-176.04 2292.62,-172.2 2292.38,-179.2"/>
</g>
<!-- Node62 -->
<g id="node39" class="node">
<title>Node62</title>
<g id="a_node39"><a xlink:href="DOS4GWBinaryLoader_8cpp.html" target="_top" xlink:title=" ">
<polygon fill="white" stroke="black" points="2448.5,-112.5 2448.5,-131.5 2594.5,-131.5 2594.5,-112.5 2448.5,-112.5"/>
<text text-anchor="middle" x="2521.5" y="-119.5" font-family="Helvetica,sans-Serif" font-size="10.00">DOS4GWBinaryLoader.cpp</text>
</a>
</g>
</g>
<!-- Node4&#45;&gt;Node62 -->
<g id="edge39" class="edge">
<title>Node4&#45;&gt;Node62</title>
<path fill="none" stroke="midnightblue" d="M2368.36,-166.3C2404.43,-156.1 2458.03,-140.95 2491.31,-131.54"/>
<polygon fill="midnightblue" stroke="midnightblue" points="2367.35,-162.94 2358.68,-169.03 2369.26,-169.68 2367.35,-162.94"/>
</g>
<!-- Node63 -->
<g id="node40" class="node">
<title>Node63</title>
<g id="a_node40"><a xlink:href="ElfBinaryLoader_8cpp.html" target="_top" xlink:title=" ">
<polygon fill="white" stroke="black" points="2612.5,-112.5 2612.5,-131.5 2726.5,-131.5 2726.5,-112.5 2612.5,-112.5"/>
<text text-anchor="middle" x="2669.5" y="-119.5" font-family="Helvetica,sans-Serif" font-size="10.00">ElfBinaryLoader.cpp</text>
</a>
</g>
</g>
<!-- Node4&#45;&gt;Node63 -->
<g id="edge40" class="edge">
<title>Node4&#45;&gt;Node63</title>
<path fill="none" stroke="midnightblue" d="M2368.78,-170.9C2429.25,-161.27 2547.06,-142.5 2615.91,-131.54"/>
<polygon fill="midnightblue" stroke="midnightblue" points="2367.86,-167.51 2358.53,-172.54 2368.96,-174.42 2367.86,-167.51"/>
</g>
<!-- Node64 -->
<g id="node41" class="node">
<title>Node64</title>
<g id="a_node41"><a xlink:href="ExeBinaryLoader_8cpp.html" target="_top" xlink:title=" ">
<polygon fill="white" stroke="black" points="2745,-112.5 2745,-131.5 2864,-131.5 2864,-112.5 2745,-112.5"/>
<text text-anchor="middle" x="2804.5" y="-119.5" font-family="Helvetica,sans-Serif" font-size="10.00">ExeBinaryLoader.cpp</text>
</a>
</g>
</g>
<!-- Node4&#45;&gt;Node64 -->
<g id="edge41" class="edge">
<title>Node4&#45;&gt;Node64</title>
<path fill="none" stroke="midnightblue" d="M2368.88,-172.98C2440.83,-165.39 2600.89,-148.26 2735.5,-132 2738.5,-131.64 2741.57,-131.26 2744.67,-130.87"/>
<polygon fill="midnightblue" stroke="midnightblue" points="2368.09,-169.55 2358.51,-174.07 2368.82,-176.51 2368.09,-169.55"/>
</g>
<!-- Node65 -->
<g id="node42" class="node">
<title>Node65</title>
<g id="a_node42"><a xlink:href="MachOBinaryLoader_8cpp.html" target="_top" xlink:title=" ">
<polygon fill="white" stroke="black" points="2882,-112.5 2882,-131.5 3017,-131.5 3017,-112.5 2882,-112.5"/>
<text text-anchor="middle" x="2949.5" y="-119.5" font-family="Helvetica,sans-Serif" font-size="10.00">MachOBinaryLoader.cpp</text>
</a>
</g>
</g>
<!-- Node4&#45;&gt;Node65 -->
<g id="edge42" class="edge">
<title>Node4&#45;&gt;Node65</title>
<path fill="none" stroke="midnightblue" d="M2368.87,-174.26C2457.6,-167.82 2683.81,-150.86 2872.5,-132 2875.58,-131.69 2878.73,-131.37 2881.91,-131.03"/>
<polygon fill="midnightblue" stroke="midnightblue" points="2368.46,-170.78 2358.74,-174.99 2368.97,-177.76 2368.46,-170.78"/>
</g>
<!-- Node66 -->
<g id="node43" class="node">
<title>Node66</title>
<g id="a_node43"><a xlink:href="Win32BinaryLoader_8cpp.html" target="_top" xlink:title=" ">
<polygon fill="white" stroke="black" points="1814.5,-112.5 1814.5,-131.5 1946.5,-131.5 1946.5,-112.5 1814.5,-112.5"/>
<text text-anchor="middle" x="1880.5" y="-119.5" font-family="Helvetica,sans-Serif" font-size="10.00">Win32BinaryLoader.cpp</text>
</a>
</g>
</g>
<!-- Node4&#45;&gt;Node66 -->
<g id="edge43" class="edge">
<title>Node4&#45;&gt;Node66</title>
<path fill="none" stroke="midnightblue" d="M2292.18,-172.4C2215.45,-163.19 2042.13,-142.4 1946.66,-130.94"/>
<polygon fill="midnightblue" stroke="midnightblue" points="2292,-175.91 2302.35,-173.62 2292.84,-168.96 2292,-175.91"/>
</g>
<!-- Node67 -->
<g id="node44" class="node">
<title>Node67</title>
<g id="a_node44"><a xlink:href="ST20BinaryLoader_8cpp.html" target="_top" xlink:title=" ">
<polygon fill="white" stroke="black" points="1965,-112.5 1965,-131.5 2090,-131.5 2090,-112.5 1965,-112.5"/>
<text text-anchor="middle" x="2027.5" y="-119.5" font-family="Helvetica,sans-Serif" font-size="10.00">ST20BinaryLoader.cpp</text>
</a>
</g>
</g>
<!-- Node4&#45;&gt;Node67 -->
<g id="edge44" class="edge">
<title>Node4&#45;&gt;Node67</title>
<path fill="none" stroke="midnightblue" d="M2292.21,-170.18C2237.04,-160.34 2135.27,-142.21 2075.26,-131.51"/>
<polygon fill="midnightblue" stroke="midnightblue" points="2291.81,-173.66 2302.27,-171.97 2293.04,-166.77 2291.81,-173.66"/>
</g>
<!-- Node68 -->
<g id="node45" class="node">
<title>Node68</title>
<g id="a_node45"><a xlink:href="CSymbolProvider_8cpp.html" target="_top" xlink:title=" ">
<polygon fill="white" stroke="black" points="2108,-112.5 2108,-131.5 2229,-131.5 2229,-112.5 2108,-112.5"/>
<text text-anchor="middle" x="2168.5" y="-119.5" font-family="Helvetica,sans-Serif" font-size="10.00">CSymbolProvider.cpp</text>
</a>
</g>
</g>
<!-- Node4&#45;&gt;Node68 -->
<g id="edge45" class="edge">
<title>Node4&#45;&gt;Node68</title>
<path fill="none" stroke="midnightblue" d="M2295.02,-165.17C2264.51,-155 2221.26,-140.59 2194.05,-131.52"/>
<polygon fill="midnightblue" stroke="midnightblue" points="2294.24,-168.6 2304.83,-168.44 2296.45,-161.96 2294.24,-168.6"/>
</g>
<!-- Node7 -->
<g id="node7" class="node">
<title>Node7</title>
<g id="a_node7"><a xlink:href="PluginManager_8cpp.html" target="_top" xlink:title=" ">
<polygon fill="white" stroke="black" points="2429.5,-56.5 2429.5,-75.5 2539.5,-75.5 2539.5,-56.5 2429.5,-56.5"/>
<text text-anchor="middle" x="2484.5" y="-63.5" font-family="Helvetica,sans-Serif" font-size="10.00">PluginManager.cpp</text>
</a>
</g>
</g>
<!-- Node6&#45;&gt;Node7 -->
<g id="edge6" class="edge">
<title>Node6&#45;&gt;Node7</title>
<path fill="none" stroke="midnightblue" d="M2407.08,-107.59C2426.12,-97.61 2451.56,-84.27 2467.99,-75.65"/>
<polygon fill="midnightblue" stroke="midnightblue" points="2405.28,-104.58 2398.05,-112.32 2408.53,-110.78 2405.28,-104.58"/>
</g>
<!-- Node8 -->
<g id="node8" class="node">
<title>Node8</title>
<g id="a_node8"><a xlink:href="Project_8h.html" target="_top" xlink:title=" ">
<polygon fill="white" stroke="red" points="2352,-56.5 2352,-75.5 2411,-75.5 2411,-56.5 2352,-56.5"/>
<text text-anchor="middle" x="2381.5" y="-63.5" font-family="Helvetica,sans-Serif" font-size="10.00">Project.h</text>
</a>
</g>
</g>
<!-- Node6&#45;&gt;Node8 -->
<g id="edge7" class="edge">
<title>Node6&#45;&gt;Node8</title>
<path fill="none" stroke="midnightblue" d="M2381.5,-101.8C2381.5,-92.91 2381.5,-82.78 2381.5,-75.75"/>
<polygon fill="midnightblue" stroke="midnightblue" points="2378,-102.08 2381.5,-112.08 2385,-102.08 2378,-102.08"/>
</g>
<!-- Node9 -->
<g id="node9" class="node">
<title>Node9</title>
<g id="a_node9"><a xlink:href="Project_8cpp.html" target="_top" xlink:title=" ">
<polygon fill="white" stroke="black" points="2716,-0.5 2716,-19.5 2787,-19.5 2787,-0.5 2716,-0.5"/>
<text text-anchor="middle" x="2751.5" y="-7.5" font-family="Helvetica,sans-Serif" font-size="10.00">Project.cpp</text>
</a>
</g>
</g>
<!-- Node8&#45;&gt;Node9 -->
<g id="edge8" class="edge">
<title>Node8&#45;&gt;Node9</title>
<path fill="none" stroke="midnightblue" d="M2421.37,-56.02C2548.39,-33.91 2583.26,-40.05 2706.5,-20 2709.49,-19.51 2712.58,-18.97 2715.68,-18.41"/>
<polygon fill="midnightblue" stroke="midnightblue" points="2420.49,-52.62 2411.25,-57.81 2421.7,-59.52 2420.49,-52.62"/>
</g>
<!-- Node10 -->
<g id="node10" class="node">
<title>Node10</title>
<g id="a_node10"><a xlink:href="DataFlow_8cpp.html" target="_top" xlink:title=" ">
<polygon fill="white" stroke="black" points="2805,-0.5 2805,-19.5 2888,-19.5 2888,-0.5 2805,-0.5"/>
<text text-anchor="middle" x="2846.5" y="-7.5" font-family="Helvetica,sans-Serif" font-size="10.00">DataFlow.cpp</text>
</a>
</g>
</g>
<!-- Node8&#45;&gt;Node10 -->
<g id="edge9" class="edge">
<title>Node8&#45;&gt;Node10</title>
<path fill="none" stroke="midnightblue" d="M2421.31,-56.09C2587.52,-29.63 2632.84,-42.13 2795.5,-20 2798.53,-19.59 2801.65,-19.13 2804.79,-18.64"/>
<polygon fill="midnightblue" stroke="midnightblue" points="2420.54,-52.67 2411.23,-57.72 2421.66,-59.58 2420.54,-52.67"/>
</g>
<!-- Node11 -->
<g id="node11" class="node">
<title>Node11</title>
<g id="a_node11"><a xlink:href="Module_8cpp.html" target="_top" xlink:title=" ">
<polygon fill="white" stroke="black" points="2906,-0.5 2906,-19.5 2979,-19.5 2979,-0.5 2906,-0.5"/>
<text text-anchor="middle" x="2942.5" y="-7.5" font-family="Helvetica,sans-Serif" font-size="10.00">Module.cpp</text>
</a>
</g>
</g>
<!-- Node8&#45;&gt;Node11 -->
<g id="edge10" class="edge">
<title>Node8&#45;&gt;Node11</title>
<path fill="none" stroke="midnightblue" d="M2421.37,-56.12C2632.03,-24.8 2689.54,-47.97 2896.5,-20 2899.56,-19.59 2902.73,-19.1 2905.91,-18.56"/>
<polygon fill="midnightblue" stroke="midnightblue" points="2420.59,-52.7 2411.22,-57.65 2421.63,-59.62 2420.59,-52.7"/>
</g>
<!-- Node12 -->
<g id="node12" class="node">
<title>Node12</title>
<g id="a_node12"><a xlink:href="Proc_8cpp.html" target="_top" xlink:title=" ">
<polygon fill="white" stroke="black" points="2997.5,-0.5 2997.5,-19.5 3055.5,-19.5 3055.5,-0.5 2997.5,-0.5"/>
<text text-anchor="middle" x="3026.5" y="-7.5" font-family="Helvetica,sans-Serif" font-size="10.00">Proc.cpp</text>
</a>
</g>
</g>
<!-- Node8&#45;&gt;Node12 -->
<g id="edge11" class="edge">
<title>Node8&#45;&gt;Node12</title>
<path fill="none" stroke="midnightblue" d="M2421.37,-56.15C2672.16,-20.45 2740.94,-56.03 2987.5,-20 2990.66,-19.54 2993.95,-18.95 2997.21,-18.3"/>
<polygon fill="midnightblue" stroke="midnightblue" points="2420.61,-52.72 2411.22,-57.62 2421.61,-59.65 2420.61,-52.72"/>
</g>
<!-- Node13 -->
<g id="node13" class="node">
<title>Node13</title>
<g id="a_node13"><a xlink:href="UserProc_8cpp.html" target="_top" xlink:title=" ">
<polygon fill="white" stroke="black" points="3073.5,-0.5 3073.5,-19.5 3153.5,-19.5 3153.5,-0.5 3073.5,-0.5"/>
<text text-anchor="middle" x="3113.5" y="-7.5" font-family="Helvetica,sans-Serif" font-size="10.00">UserProc.cpp</text>
</a>
</g>
</g>
<!-- Node8&#45;&gt;Node13 -->
<g id="edge12" class="edge">
<title>Node8&#45;&gt;Node13</title>
<path fill="none" stroke="midnightblue" d="M2421.43,-56.15C2706.11,-16.51 2783.19,-53.56 3064.5,-20 3067.42,-19.65 3070.43,-19.24 3073.45,-18.78"/>
<polygon fill="midnightblue" stroke="midnightblue" points="2420.62,-52.73 2411.21,-57.59 2421.6,-59.66 2420.62,-52.73"/>
</g>
<!-- Node8&#45;&gt;Node14 -->
<g id="edge13" class="edge">
<title>Node8&#45;&gt;Node14</title>
<path fill="none" stroke="midnightblue" d="M2421.14,-56.24C3061.81,23.6 3234.23,-100.47 3870.5,-20 3873.53,-19.62 3876.68,-19.1 3879.8,-18.5"/>
<polygon fill="midnightblue" stroke="midnightblue" points="2420.68,-52.77 2411.2,-57.5 2421.56,-59.72 2420.68,-52.77"/>
</g>
<!-- Node15 -->
<g id="node15" class="node">
<title>Node15</title>
<g id="a_node15"><a xlink:href="IndirectJumpAnalyzer_8cpp.html" target="_top" xlink:title=" ">
<polygon fill="white" stroke="black" points="3172,-0.5 3172,-19.5 3313,-19.5 3313,-0.5 3172,-0.5"/>
<text text-anchor="middle" x="3242.5" y="-7.5" font-family="Helvetica,sans-Serif" font-size="10.00">IndirectJumpAnalyzer.cpp</text>
</a>
</g>
</g>
<!-- Node8&#45;&gt;Node15 -->
<g id="edge14" class="edge">
<title>Node8&#45;&gt;Node15</title>
<path fill="none" stroke="midnightblue" d="M2421.48,-56.15C2749.33,-11.43 2836.77,-46.2 3162.5,-20 3165.56,-19.75 3168.69,-19.48 3171.85,-19.19"/>
<polygon fill="midnightblue" stroke="midnightblue" points="2420.64,-52.74 2411.21,-57.57 2421.59,-59.67 2420.64,-52.74"/>
</g>
<!-- Node16 -->
<g id="node16" class="node">
<title>Node16</title>
<g id="a_node16"><a xlink:href="InterferenceFinder_8cpp.html" target="_top" xlink:title=" ">
<polygon fill="white" stroke="black" points="3331,-0.5 3331,-19.5 3456,-19.5 3456,-0.5 3331,-0.5"/>
<text text-anchor="middle" x="3393.5" y="-7.5" font-family="Helvetica,sans-Serif" font-size="10.00">InterferenceFinder.cpp</text>
</a>
</g>
</g>
<!-- Node8&#45;&gt;Node16 -->
<g id="edge15" class="edge">
<title>Node8&#45;&gt;Node16</title>
<path fill="none" stroke="midnightblue" d="M2421.27,-56.2C2819.46,-3.54 2925.4,-52.61 3321.5,-20 3324.51,-19.75 3327.59,-19.47 3330.7,-19.17"/>
<polygon fill="midnightblue" stroke="midnightblue" points="2420.65,-52.75 2411.21,-57.54 2421.58,-59.69 2420.65,-52.75"/>
</g>
<!-- Node17 -->
<g id="node17" class="node">
<title>Node17</title>
<g id="a_node17"><a xlink:href="LivenessAnalyzer_8cpp.html" target="_top" xlink:title=" ">
<polygon fill="white" stroke="black" points="3474.5,-0.5 3474.5,-19.5 3596.5,-19.5 3596.5,-0.5 3474.5,-0.5"/>
<text text-anchor="middle" x="3535.5" y="-7.5" font-family="Helvetica,sans-Serif" font-size="10.00">LivenessAnalyzer.cpp</text>
</a>
</g>
</g>
<!-- Node8&#45;&gt;Node17 -->
<g id="edge16" class="edge">
<title>Node8&#45;&gt;Node17</title>
<path fill="none" stroke="midnightblue" d="M2421.13,-56.23C2882.55,3.61 3005,-56.97 3464.5,-20 3467.72,-19.74 3471.02,-19.44 3474.35,-19.11"/>
<polygon fill="midnightblue" stroke="midnightblue" points="2420.66,-52.76 2411.2,-57.53 2421.57,-59.7 2420.66,-52.76"/>
</g>
<!-- Node18 -->
<g id="node18" class="node">
<title>Node18</title>
<g id="a_node18"><a xlink:href="ProcDecompiler_8cpp.html" target="_top" xlink:title=" ">
<polygon fill="white" stroke="black" points="3614.5,-0.5 3614.5,-19.5 3728.5,-19.5 3728.5,-0.5 3614.5,-0.5"/>
<text text-anchor="middle" x="3671.5" y="-7.5" font-family="Helvetica,sans-Serif" font-size="10.00">ProcDecompiler.cpp</text>
</a>
</g>
</g>
<!-- Node8&#45;&gt;Node18 -->
<g id="edge17" class="edge">
<title>Node8&#45;&gt;Node18</title>
<path fill="none" stroke="midnightblue" d="M2421.28,-56.21C2944.82,10.62 3083.74,-63.38 3605.5,-20 3608.38,-19.76 3611.33,-19.48 3614.3,-19.17"/>
<polygon fill="midnightblue" stroke="midnightblue" points="2420.67,-52.76 2411.2,-57.51 2421.57,-59.71 2420.67,-52.76"/>
</g>
<!-- Node19 -->
<g id="node19" class="node">
<title>Node19</title>
<g id="a_node19"><a xlink:href="ProgDecompiler_8cpp.html" target="_top" xlink:title=" ">
<polygon fill="white" stroke="black" points="3747,-0.5 3747,-19.5 3862,-19.5 3862,-0.5 3747,-0.5"/>
<text text-anchor="middle" x="3804.5" y="-7.5" font-family="Helvetica,sans-Serif" font-size="10.00">ProgDecompiler.cpp</text>
</a>
</g>
</g>
<!-- Node8&#45;&gt;Node19 -->
<g id="edge18" class="edge">
<title>Node8&#45;&gt;Node19</title>
<path fill="none" stroke="midnightblue" d="M2421.53,-56.19C3003.13,17.21 3157.26,-66.77 3737.5,-20 3740.54,-19.75 3743.66,-19.47 3746.8,-19.15"/>
<polygon fill="midnightblue" stroke="midnightblue" points="2420.68,-52.77 2411.2,-57.5 2421.56,-59.71 2420.68,-52.77"/>
</g>
<!-- Node20 -->
<g id="node20" class="node">
<title>Node20</title>
<g id="a_node20"><a xlink:href="UnusedReturnRemover_8cpp.html" target="_top" xlink:title=" ">
<polygon fill="white" stroke="black" points="301.5,-0.5 301.5,-19.5 451.5,-19.5 451.5,-0.5 301.5,-0.5"/>
<text text-anchor="middle" x="376.5" y="-7.5" font-family="Helvetica,sans-Serif" font-size="10.00">UnusedReturnRemover.cpp</text>
</a>
</g>
</g>
<!-- Node8&#45;&gt;Node20 -->
<g id="edge19" class="edge">
<title>Node8&#45;&gt;Node20</title>
<path fill="none" stroke="midnightblue" d="M2341.71,-64.52C2101.76,-61.56 845.3,-45.08 460.5,-20 457.57,-19.81 454.59,-19.59 451.58,-19.36"/>
<polygon fill="midnightblue" stroke="midnightblue" points="2341.68,-68.02 2351.73,-64.64 2341.77,-61.02 2341.68,-68.02"/>
</g>
<!-- Node8&#45;&gt;Node21 -->
<g id="edge20" class="edge">
<title>Node8&#45;&gt;Node21</title>
<path fill="none" stroke="midnightblue" d="M2421.14,-56.27C2799.64,-11.28 3704.92,-47.8 4066.5,-20 4069.71,-19.75 4072.99,-19.46 4076.31,-19.13"/>
<polygon fill="midnightblue" stroke="midnightblue" points="2420.7,-52.8 2411.2,-57.49 2421.55,-59.75 2420.7,-52.8"/>
</g>
<!-- Node22 -->
<g id="node22" class="node">
<title>Node22</title>
<g id="a_node22"><a xlink:href="CallArgumentUpdatePass_8cpp.html" target="_top" xlink:title=" ">
<polygon fill="white" stroke="black" points="470,-0.5 470,-19.5 631,-19.5 631,-0.5 470,-0.5"/>
<text text-anchor="middle" x="550.5" y="-7.5" font-family="Helvetica,sans-Serif" font-size="10.00">CallArgumentUpdatePass.cpp</text>
</a>
</g>
</g>
<!-- Node8&#45;&gt;Node22 -->
<g id="edge21" class="edge">
<title>Node8&#45;&gt;Node22</title>
<path fill="none" stroke="midnightblue" d="M2341.89,-65.06C2152.51,-65.1 1320.57,-62.73 640.5,-20 637.52,-19.81 634.49,-19.6 631.43,-19.38"/>
<polygon fill="midnightblue" stroke="midnightblue" points="2341.93,-68.56 2351.93,-65.05 2341.93,-61.56 2341.93,-68.56"/>
</g>
<!-- Node23 -->
<g id="node23" class="node">
<title>Node23</title>
<g id="a_node23"><a xlink:href="CallDefineUpdatePass_8cpp.html" target="_top" xlink:title=" ">
<polygon fill="white" stroke="black" points="649.5,-0.5 649.5,-19.5 795.5,-19.5 795.5,-0.5 649.5,-0.5"/>
<text text-anchor="middle" x="722.5" y="-7.5" font-family="Helvetica,sans-Serif" font-size="10.00">CallDefineUpdatePass.cpp</text>
</a>
</g>
</g>
<!-- Node8&#45;&gt;Node23 -->
<g id="edge22" class="edge">
<title>Node8&#45;&gt;Node23</title>
<path fill="none" stroke="midnightblue" d="M2341.67,-65.05C2162.77,-65.01 1415.7,-62.19 804.5,-20 801.64,-19.8 798.73,-19.58 795.79,-19.34"/>
<polygon fill="midnightblue" stroke="midnightblue" points="2341.91,-68.55 2351.91,-65.05 2341.91,-61.55 2341.91,-68.55"/>
</g>
<!-- Node24 -->
<g id="node24" class="node">
<title>Node24</title>
<g id="a_node24"><a xlink:href="BlockVarRenamePass_8cpp.html" target="_top" xlink:title=" ">
<polygon fill="white" stroke="black" points="814,-0.5 814,-19.5 957,-19.5 957,-0.5 814,-0.5"/>
<text text-anchor="middle" x="885.5" y="-7.5" font-family="Helvetica,sans-Serif" font-size="10.00">BlockVarRenamePass.cpp</text>
</a>
</g>
</g>
<!-- Node8&#45;&gt;Node24 -->
<g id="edge23" class="edge">
<title>Node8&#45;&gt;Node24</title>
<path fill="none" stroke="midnightblue" d="M2341.44,-64.9C2173.48,-64.25 1509.49,-59.18 965.5,-20 962.71,-19.8 959.87,-19.57 957,-19.33"/>
<polygon fill="midnightblue" stroke="midnightblue" points="2341.55,-68.4 2351.56,-64.94 2341.57,-61.4 2341.55,-68.4"/>
</g>
<!-- Node25 -->
<g id="node25" class="node">
<title>Node25</title>
<g id="a_node25"><a xlink:href="StatementPropagationPass_8cpp.html" target="_top" xlink:title=" ">
<polygon fill="white" stroke="black" points="975,-0.5 975,-19.5 1144,-19.5 1144,-0.5 975,-0.5"/>
<text text-anchor="middle" x="1059.5" y="-7.5" font-family="Helvetica,sans-Serif" font-size="10.00">StatementPropagationPass.cpp</text>
</a>
</g>
</g>
<!-- Node8&#45;&gt;Node25 -->
<g id="edge24" class="edge">
<title>Node8&#45;&gt;Node25</title>
<path fill="none" stroke="midnightblue" d="M2341.16,-64.38C2186.91,-61.84 1619.68,-50.83 1153.5,-20 1150.39,-19.79 1147.23,-19.57 1144.03,-19.33"/>
<polygon fill="midnightblue" stroke="midnightblue" points="2341.49,-67.89 2351.55,-64.55 2341.61,-60.89 2341.49,-67.89"/>
</g>
<!-- Node26 -->
<g id="node26" class="node">
<title>Node26</title>
<g id="a_node26"><a xlink:href="FromSSAFormPass_8cpp.html" target="_top" xlink:title=" ">
<polygon fill="white" stroke="black" points="1162.5,-0.5 1162.5,-19.5 1290.5,-19.5 1290.5,-0.5 1162.5,-0.5"/>
<text text-anchor="middle" x="1226.5" y="-7.5" font-family="Helvetica,sans-Serif" font-size="10.00">FromSSAFormPass.cpp</text>
</a>
</g>
</g>
<!-- Node8&#45;&gt;Node26 -->
<g id="edge25" class="edge">
<title>Node8&#45;&gt;Node26</title>
<path fill="none" stroke="midnightblue" d="M2341.36,-64.5C2199.04,-62.5 1705.37,-53.4 1299.5,-20 1296.57,-19.76 1293.58,-19.49 1290.56,-19.2"/>
<polygon fill="midnightblue" stroke="midnightblue" points="2341.71,-68.01 2351.76,-64.65 2341.8,-61.01 2341.71,-68.01"/>
</g>
<!-- Node27 -->
<g id="node27" class="node">
<title>Node27</title>
<g id="a_node27"><a xlink:href="LocalAndParamMapPass_8cpp.html" target="_top" xlink:title=" ">
<polygon fill="white" stroke="black" points="1308.5,-0.5 1308.5,-19.5 1464.5,-19.5 1464.5,-0.5 1308.5,-0.5"/>
<text text-anchor="middle" x="1386.5" y="-7.5" font-family="Helvetica,sans-Serif" font-size="10.00">LocalAndParamMapPass.cpp</text>
</a>
</g>
</g>
<!-- Node8&#45;&gt;Node27 -->
<g id="edge26" class="edge">
<title>Node8&#45;&gt;Node27</title>
<path fill="none" stroke="midnightblue" d="M2341.65,-63.79C2214.74,-59.76 1808.72,-45.63 1473.5,-20 1470.62,-19.78 1467.69,-19.54 1464.74,-19.29"/>
<polygon fill="midnightblue" stroke="midnightblue" points="2341.57,-67.29 2351.68,-64.1 2341.79,-60.29 2341.57,-67.29"/>
</g>
<!-- Node28 -->
<g id="node28" class="node">
<title>Node28</title>
<g id="a_node28"><a xlink:href="LocalTypeAnalysisPass_8cpp.html" target="_top" xlink:title=" ">
<polygon fill="white" stroke="black" points="1483,-0.5 1483,-19.5 1632,-19.5 1632,-0.5 1483,-0.5"/>
<text text-anchor="middle" x="1557.5" y="-7.5" font-family="Helvetica,sans-Serif" font-size="10.00">LocalTypeAnalysisPass.cpp</text>
</a>
</g>
</g>
<!-- Node8&#45;&gt;Node28 -->
<g id="edge27" class="edge">
<title>Node8&#45;&gt;Node28</title>
<path fill="none" stroke="midnightblue" d="M2341.74,-63.25C2230.72,-58.22 1907.98,-42.61 1640.5,-20 1637.76,-19.77 1634.96,-19.52 1632.14,-19.26"/>
<polygon fill="midnightblue" stroke="midnightblue" points="2341.67,-66.75 2351.82,-63.7 2341.98,-59.76 2341.67,-66.75"/>
</g>
<!-- Node29 -->
<g id="node29" class="node">
<title>Node29</title>
<g id="a_node29"><a xlink:href="UnusedLocalRemovalPass_8cpp.html" target="_top" xlink:title=" ">
<polygon fill="white" stroke="black" points="1650,-0.5 1650,-19.5 1815,-19.5 1815,-0.5 1650,-0.5"/>
<text text-anchor="middle" x="1732.5" y="-7.5" font-family="Helvetica,sans-Serif" font-size="10.00">UnusedLocalRemovalPass.cpp</text>
</a>
</g>
</g>
<!-- Node8&#45;&gt;Node29 -->
<g id="edge28" class="edge">
<title>Node8&#45;&gt;Node29</title>
<path fill="none" stroke="midnightblue" d="M2341.64,-62.03C2250.07,-55.17 2017.64,-37.43 1823.5,-20 1820.81,-19.76 1818.08,-19.51 1815.32,-19.26"/>
<polygon fill="midnightblue" stroke="midnightblue" points="2341.61,-65.54 2351.84,-62.8 2342.13,-58.56 2341.61,-65.54"/>
</g>
<!-- Node30 -->
<g id="node30" class="node">
<title>Node30</title>
<g id="a_node30"><a xlink:href="UnusedParamRemovalPass_8cpp.html" target="_top" xlink:title=" ">
<polygon fill="white" stroke="black" points="1833,-0.5 1833,-19.5 2004,-19.5 2004,-0.5 1833,-0.5"/>
<text text-anchor="middle" x="1918.5" y="-7.5" font-family="Helvetica,sans-Serif" font-size="10.00">UnusedParamRemovalPass.cpp</text>
</a>
</g>
</g>
<!-- Node8&#45;&gt;Node30 -->
<g id="edge29" class="edge">
<title>Node8&#45;&gt;Node30</title>
<path fill="none" stroke="midnightblue" d="M2341.48,-60.33C2263.52,-51.24 2090.29,-31.04 1991.4,-19.5"/>
<polygon fill="midnightblue" stroke="midnightblue" points="2341.49,-63.86 2351.83,-61.54 2342.31,-56.9 2341.49,-63.86"/>
</g>
<!-- Node31 -->
<g id="node31" class="node">
<title>Node31</title>
<g id="a_node31"><a xlink:href="UnusedStatementRemovalPass_8cpp.html" target="_top" xlink:title=" ">
<polygon fill="white" stroke="black" points="2022,-0.5 2022,-19.5 2213,-19.5 2213,-0.5 2022,-0.5"/>
<text text-anchor="middle" x="2117.5" y="-7.5" font-family="Helvetica,sans-Serif" font-size="10.00">UnusedStatementRemovalPass.cpp</text>
</a>
</g>
</g>
<!-- Node8&#45;&gt;Node31 -->
<g id="edge30" class="edge">
<title>Node8&#45;&gt;Node31</title>
<path fill="none" stroke="midnightblue" d="M2342.06,-56.93C2292.99,-46.9 2209.57,-29.83 2159.39,-19.57"/>
<polygon fill="midnightblue" stroke="midnightblue" points="2341.49,-60.39 2351.98,-58.96 2342.89,-53.53 2341.49,-60.39"/>
</g>
<!-- Node32 -->
<g id="node32" class="node">
<title>Node32</title>
<g id="a_node32"><a xlink:href="AssignRemovalPass_8cpp.html" target="_top" xlink:title=" ">
<polygon fill="white" stroke="black" points="2231,-0.5 2231,-19.5 2366,-19.5 2366,-0.5 2231,-0.5"/>
<text text-anchor="middle" x="2298.5" y="-7.5" font-family="Helvetica,sans-Serif" font-size="10.00">AssignRemovalPass.cpp</text>
</a>
</g>
</g>
<!-- Node8&#45;&gt;Node32 -->
<g id="edge31" class="edge">
<title>Node8&#45;&gt;Node32</title>
<path fill="none" stroke="midnightblue" d="M2359.4,-50.62C2344.24,-40.76 2324.62,-27.99 2311.8,-19.65"/>
<polygon fill="midnightblue" stroke="midnightblue" points="2357.87,-53.8 2368.16,-56.32 2361.69,-47.94 2357.87,-53.8"/>
</g>
<!-- Node33 -->
<g id="node33" class="node">
<title>Node33</title>
<g id="a_node33"><a xlink:href="PreservationAnalysisPass_8cpp.html" target="_top" xlink:title=" ">
<polygon fill="white" stroke="black" points="2384.5,-0.5 2384.5,-19.5 2546.5,-19.5 2546.5,-0.5 2384.5,-0.5"/>
<text text-anchor="middle" x="2465.5" y="-7.5" font-family="Helvetica,sans-Serif" font-size="10.00">PreservationAnalysisPass.cpp</text>
</a>
</g>
</g>
<!-- Node8&#45;&gt;Node33 -->
<g id="edge32" class="edge">
<title>Node8&#45;&gt;Node33</title>
<path fill="none" stroke="midnightblue" d="M2403.43,-50.9C2418.84,-41 2438.95,-28.07 2452.04,-19.65"/>
<polygon fill="midnightblue" stroke="midnightblue" points="2401.52,-47.97 2395,-56.32 2405.3,-53.86 2401.52,-47.97"/>
</g>
<!-- Node34 -->
<g id="node34" class="node">
<title>Node34</title>
<g id="a_node34"><a xlink:href="SPPreservationPass_8cpp.html" target="_top" xlink:title=" ">
<polygon fill="white" stroke="black" points="2565,-0.5 2565,-19.5 2698,-19.5 2698,-0.5 2565,-0.5"/>
<text text-anchor="middle" x="2631.5" y="-7.5" font-family="Helvetica,sans-Serif" font-size="10.00">SPPreservationPass.cpp</text>
</a>
</g>
</g>
<!-- Node8&#45;&gt;Node34 -->
<g id="edge33" class="edge">
<title>Node8&#45;&gt;Node34</title>
<path fill="none" stroke="midnightblue" d="M2421.3,-55.85C2486.18,-41.49 2550.15,-27.98 2590.61,-19.51"/>
<polygon fill="midnightblue" stroke="midnightblue" points="2420.3,-52.49 2411.3,-58.07 2421.82,-59.32 2420.3,-52.49"/>
</g>
<!-- Node53 -->
<g id="node35" class="node">
<title>Node53</title>
<g id="a_node35"><a xlink:href="CapstoneDecoder_8cpp.html" target="_top" xlink:title=" ">
<polygon fill="white" stroke="black" points="0,-0.5 0,-19.5 123,-19.5 123,-0.5 0,-0.5"/>
<text text-anchor="middle" x="61.5" y="-7.5" font-family="Helvetica,sans-Serif" font-size="10.00">CapstoneDecoder.cpp</text>
</a>
</g>
</g>
<!-- Node8&#45;&gt;Node53 -->
<g id="edge34" class="edge">
<title>Node8&#45;&gt;Node53</title>
<path fill="none" stroke="midnightblue" d="M2341.77,-64.78C2078.9,-63.26 586.53,-53.22 132.5,-20 129.4,-19.77 126.23,-19.51 123.03,-19.21"/>
<polygon fill="midnightblue" stroke="midnightblue" points="2341.97,-68.28 2351.99,-64.84 2342.01,-61.28 2341.97,-68.28"/>
</g>
<!-- Node8&#45;&gt;Node54 -->
<g id="edge35" class="edge">
<title>Node8&#45;&gt;Node54</title>
<path fill="none" stroke="midnightblue" d="M2341.47,-64.63C2088.86,-62.24 712.66,-48.1 292.5,-20 289.57,-19.8 286.59,-19.58 283.57,-19.33"/>
<polygon fill="midnightblue" stroke="midnightblue" points="2341.62,-68.13 2351.66,-64.73 2341.69,-61.13 2341.62,-68.13"/>
</g>
<!-- Node55 -->
<g id="node37" class="node">
<title>Node55</title>
<g id="a_node37"><a xlink:href="ST20Decoder_8cpp.html" target="_top" xlink:title=" ">
<polygon fill="white" stroke="black" points="3957,-0.5 3957,-19.5 4058,-19.5 4058,-0.5 3957,-0.5"/>
<text text-anchor="middle" x="4007.5" y="-7.5" font-family="Helvetica,sans-Serif" font-size="10.00">ST20Decoder.cpp</text>
</a>
</g>
</g>
<!-- Node8&#45;&gt;Node55 -->
<g id="edge36" class="edge">
<title>Node8&#45;&gt;Node55</title>
<path fill="none" stroke="midnightblue" d="M2421.17,-56.24C3095.78,27.72 3274.47,-78.18 3947.5,-20 3950.54,-19.74 3953.67,-19.42 3956.81,-19.06"/>
<polygon fill="midnightblue" stroke="midnightblue" points="2420.69,-52.77 2411.2,-57.49 2421.56,-59.72 2420.69,-52.77"/>
</g>
<!-- Node69&#45;&gt;Node53 -->
<g id="edge49" class="edge">
<title>Node69&#45;&gt;Node53</title>
<path fill="none" stroke="midnightblue" d="M477.09,-227.1C430.67,-221.25 368.01,-209.85 316.5,-188 209.84,-142.75 102.47,-48.66 70.82,-19.68"/>
<polygon fill="midnightblue" stroke="midnightblue" points="476.69,-230.57 487.04,-228.3 477.53,-223.62 476.69,-230.57"/>
</g>
<!-- Node70 -->
<g id="node47" class="node">
<title>Node70</title>
<g id="a_node47"><a xlink:href="CapstoneX86Decoder_8h.html" target="_top" xlink:title=" ">
<polygon fill="white" stroke="black" points="326,-168.5 326,-187.5 457,-187.5 457,-168.5 326,-168.5"/>
<text text-anchor="middle" x="391.5" y="-175.5" font-family="Helvetica,sans-Serif" font-size="10.00">CapstoneX86Decoder.h</text>
</a>
</g>
</g>
<!-- Node69&#45;&gt;Node70 -->
<g id="edge50" class="edge">
<title>Node69&#45;&gt;Node70</title>
<path fill="none" stroke="midnightblue" d="M509.83,-221.04C481.23,-210.88 440.89,-196.55 415.47,-187.52"/>
<polygon fill="midnightblue" stroke="midnightblue" points="508.82,-224.39 519.42,-224.44 511.16,-217.8 508.82,-224.39"/>
</g>
<!-- Node71 -->
<g id="node48" class="node">
<title>Node71</title>
<g id="a_node48"><a xlink:href="CapstonePPCDecoder_8h.html" target="_top" xlink:title=" ">
<polygon fill="white" stroke="black" points="630,-168.5 630,-187.5 761,-187.5 761,-168.5 630,-168.5"/>
<text text-anchor="middle" x="695.5" y="-175.5" font-family="Helvetica,sans-Serif" font-size="10.00">CapstonePPCDecoder.h</text>
</a>
</g>
</g>
<!-- Node69&#45;&gt;Node71 -->
<g id="edge52" class="edge">
<title>Node69&#45;&gt;Node71</title>
<path fill="none" stroke="midnightblue" d="M577.17,-221.04C605.77,-210.88 646.11,-196.55 671.53,-187.52"/>
<polygon fill="midnightblue" stroke="midnightblue" points="575.84,-217.8 567.58,-224.44 578.18,-224.39 575.84,-217.8"/>
</g>
<!-- Node70&#45;&gt;Node54 -->
<g id="edge51" class="edge">
<title>Node70&#45;&gt;Node54</title>
<path fill="none" stroke="midnightblue" d="M374.34,-161.09C337.17,-126.62 250.25,-46.01 221.74,-19.57"/>
<polygon fill="midnightblue" stroke="midnightblue" points="372.16,-163.84 381.88,-168.08 376.92,-158.71 372.16,-163.84"/>
</g>
<!-- Node71&#45;&gt;Node61 -->
<g id="edge53" class="edge">
<title>Node71&#45;&gt;Node61</title>
<path fill="none" stroke="midnightblue" d="M712.68,-161.54C723.38,-151.91 736.76,-139.87 745.68,-131.83"/>
<polygon fill="midnightblue" stroke="midnightblue" points="710.23,-159.03 705.14,-168.32 714.91,-164.24 710.23,-159.03"/>
</g>
<!-- Node72&#45;&gt;Node55 -->
<g id="edge55" class="edge">
<title>Node72&#45;&gt;Node55</title>
<path fill="none" stroke="midnightblue" d="M4001.65,-46.1C4003.14,-37.14 4004.86,-26.86 4006.04,-19.75"/>
<polygon fill="midnightblue" stroke="midnightblue" points="3998.18,-45.64 3999.99,-56.08 4005.08,-46.79 3998.18,-45.64"/>
</g>
</g>
</svg>
        <g id="navigator" transform="translate(0 0)" fill="#404254">
                <rect fill="#f2f5e9" fill-opacity="0.5" stroke="#606060" stroke-width=".5" x="0" y="0" width="60" height="60"/>
                <use id="zoomplus" xlink:href="#zoomPlus" x="17" y="9" onmousedown="handleZoom(evt,'in')"/>
                <use id="zoomminus" xlink:href="#zoomMin" x="42" y="9" onmousedown="handleZoom(evt,'out')"/>
                <use id="reset" xlink:href="#resetDef" x="30" y="36" onmousedown="handleReset()"/>
                <g id="arrowUp" xlink:href="#dirArrow" transform="translate(30 24)" onmousedown="handlePan(0,-1)">
                  <use xlink:href="#rim" fill="#404040">
                        <set attributeName="fill" to="#808080" begin="arrowUp.mouseover" end="arrowUp.mouseout"/>
                  </use>
                  <path fill="none" stroke="white" stroke-width="1.5" d="M0,-3.0v7 M-2.5,-0.5L0,-3.0L2.5,-0.5"/>
                </g>
                <g id="arrowRight" xlink:href="#dirArrow" transform="rotate(90) translate(36 -43)" onmousedown="handlePan(1,0)">
                  <use xlink:href="#rim" fill="#404040">
                        <set attributeName="fill" to="#808080" begin="arrowRight.mouseover" end="arrowRight.mouseout"/>
                  </use>
                  <path fill="none" stroke="white" stroke-width="1.5" d="M0,-3.0v7 M-2.5,-0.5L0,-3.0L2.5,-0.5"/>
                </g>
                <g id="arrowDown" xlink:href="#dirArrow" transform="rotate(180) translate(-30 -48)" onmousedown="handlePan(0,1)">
                  <use xlink:href="#rim" fill="#404040">
                        <set attributeName="fill" to="#808080" begin="arrowDown.mouseover" end="arrowDown.mouseout"/>
                  </use>
                  <path fill="none" stroke="white" stroke-width="1.5" d="M0,-3.0v7 M-2.5,-0.5L0,-3.0L2.5,-0.5"/>
                </g>
                <g id="arrowLeft" xlink:href="#dirArrow" transform="rotate(270) translate(-36 17)" onmousedown="handlePan(-1,0)">
                  <use xlink:href="#rim" fill="#404040">
                        <set attributeName="fill" to="#808080" begin="arrowLeft.mouseover" end="arrowLeft.mouseout"/>
                  </use>
                  <path fill="none" stroke="white" stroke-width="1.5" d="M0,-3.0v7 M-2.5,-0.5L0,-3.0L2.5,-0.5"/>
                </g>
        </g>
        <svg viewBox="0 0 15 15" width="100%" height="30px" preserveAspectRatio="xMaxYMin meet">
         <g id="arrow_out" transform="scale(0.3 0.3)">
          <a xlink:href="LiftedInstruction_8h__dep__incl_org.svg" target="_base">
           <rect id="button" ry="5" rx="5" y="6" x="6" height="38" width="38"
                fill="#f2f5e9" fill-opacity="0.5" stroke="#606060" stroke-width="1.0"/>
           <path id="arrow"
             d="M 11.500037,31.436501 C 11.940474,20.09759 22.043105,11.32322 32.158766,21.979434 L 37.068811,17.246167 C 37.068811,17.246167 37.088388,32 37.088388,32 L 22.160133,31.978069 C 22.160133,31.978069 26.997745,27.140456 26.997745,27.140456 C 18.528582,18.264221 13.291696,25.230495 11.500037,31.436501 z"
             style="fill:#404040;"/>
          </a>
         </g>
        </svg>
</svg>
