<?xml version="1.0" encoding="UTF-8" standalone="no"?>
<!DOCTYPE svg PUBLIC "-//W3C//DTD SVG 1.1//EN"
 "http://www.w3.org/Graphics/SVG/1.1/DTD/svg11.dtd">
<!-- Generated by graphviz version 2.43.0 (0)
 -->
<!-- Title: List.h Pages: 1 -->
<svg width="134pt" height="308pt"
 viewBox="0.00 0.00 133.50 308.00" xmlns="http://www.w3.org/2000/svg" xmlns:xlink="http://www.w3.org/1999/xlink">
<g id="graph0" class="graph" transform="scale(1 1) rotate(0) translate(4 304)">
<title>List.h</title>
<polygon fill="white" stroke="transparent" points="-4,4 -4,-304 129.5,-304 129.5,4 -4,4"/>
<!-- Node1 -->
<g id="node1" class="node">
<title>Node1</title>
<g id="a_node1"><a xlink:title=" ">
<polygon fill="#bfbfbf" stroke="black" points="34,-280.5 34,-299.5 77,-299.5 77,-280.5 34,-280.5"/>
<text text-anchor="middle" x="55.5" y="-287.5" font-family="Helvetica,sans-Serif" font-size="10.00">List.h</text>
</a>
</g>
</g>
<!-- Node2 -->
<g id="node2" class="node">
<title>Node2</title>
<g id="a_node2"><a xlink:href="Object_8h.html" target="_top" xlink:title=" ">
<polygon fill="white" stroke="black" points="15.5,-224.5 15.5,-243.5 95.5,-243.5 95.5,-224.5 15.5,-224.5"/>
<text text-anchor="middle" x="55.5" y="-231.5" font-family="Helvetica,sans-Serif" font-size="10.00">objc/Object.h</text>
</a>
</g>
</g>
<!-- Node1&#45;&gt;Node2 -->
<g id="edge1" class="edge">
<title>Node1&#45;&gt;Node2</title>
<path fill="none" stroke="midnightblue" d="M55.5,-280.08C55.5,-273.01 55.5,-262.86 55.5,-253.99"/>
<polygon fill="midnightblue" stroke="midnightblue" points="59,-253.75 55.5,-243.75 52,-253.75 59,-253.75"/>
</g>
<!-- Node3 -->
<g id="node3" class="node">
<title>Node3</title>
<g id="a_node3"><a xlink:href="objc-runtime_8h.html" target="_top" xlink:title=" ">
<polygon fill="white" stroke="black" points="0,-168.5 0,-187.5 111,-187.5 111,-168.5 0,-168.5"/>
<text text-anchor="middle" x="55.5" y="-175.5" font-family="Helvetica,sans-Serif" font-size="10.00">objc/objc&#45;runtime.h</text>
</a>
</g>
</g>
<!-- Node2&#45;&gt;Node3 -->
<g id="edge2" class="edge">
<title>Node2&#45;&gt;Node3</title>
<path fill="none" stroke="midnightblue" d="M55.5,-224.08C55.5,-217.01 55.5,-206.86 55.5,-197.99"/>
<polygon fill="midnightblue" stroke="midnightblue" points="59,-197.75 55.5,-187.75 52,-197.75 59,-197.75"/>
</g>
<!-- Node4 -->
<g id="node4" class="node">
<title>Node4</title>
<g id="a_node4"><a xlink:href="objc_8h.html" target="_top" xlink:title=" ">
<polygon fill="white" stroke="black" points="32.5,-56.5 32.5,-75.5 78.5,-75.5 78.5,-56.5 32.5,-56.5"/>
<text text-anchor="middle" x="55.5" y="-63.5" font-family="Helvetica,sans-Serif" font-size="10.00">objc.h</text>
</a>
</g>
</g>
<!-- Node3&#45;&gt;Node4 -->
<g id="edge3" class="edge">
<title>Node3&#45;&gt;Node4</title>
<path fill="none" stroke="midnightblue" d="M52.16,-168.2C48.95,-159.24 44.32,-144.88 42.5,-132 40.26,-116.15 44.29,-98.34 48.44,-85.38"/>
<polygon fill="midnightblue" stroke="midnightblue" points="51.8,-86.37 51.82,-75.78 45.19,-84.05 51.8,-86.37"/>
</g>
<!-- Node6 -->
<g id="node6" class="node">
<title>Node6</title>
<g id="a_node6"><a xlink:href="objc-class_8h.html" target="_top" xlink:title=" ">
<polygon fill="white" stroke="black" points="51.5,-112.5 51.5,-131.5 125.5,-131.5 125.5,-112.5 51.5,-112.5"/>
<text text-anchor="middle" x="88.5" y="-119.5" font-family="Helvetica,sans-Serif" font-size="10.00">objc&#45;class.h</text>
</a>
</g>
</g>
<!-- Node3&#45;&gt;Node6 -->
<g id="edge5" class="edge">
<title>Node3&#45;&gt;Node6</title>
<path fill="none" stroke="midnightblue" d="M60.95,-168.08C65.51,-160.61 72.17,-149.72 77.79,-140.52"/>
<polygon fill="midnightblue" stroke="midnightblue" points="80.92,-142.11 83.15,-131.75 74.95,-138.46 80.92,-142.11"/>
</g>
<!-- Node5 -->
<g id="node5" class="node">
<title>Node5</title>
<g id="a_node5"><a xlink:href="objc-api_8h.html" target="_top" xlink:title=" ">
<polygon fill="white" stroke="black" points="23,-0.5 23,-19.5 88,-19.5 88,-0.5 23,-0.5"/>
<text text-anchor="middle" x="55.5" y="-7.5" font-family="Helvetica,sans-Serif" font-size="10.00">objc&#45;api.h</text>
</a>
</g>
</g>
<!-- Node4&#45;&gt;Node5 -->
<g id="edge4" class="edge">
<title>Node4&#45;&gt;Node5</title>
<path fill="none" stroke="midnightblue" d="M55.5,-56.08C55.5,-49.01 55.5,-38.86 55.5,-29.99"/>
<polygon fill="midnightblue" stroke="midnightblue" points="59,-29.75 55.5,-19.75 52,-29.75 59,-29.75"/>
</g>
<!-- Node6&#45;&gt;Node4 -->
<g id="edge6" class="edge">
<title>Node6&#45;&gt;Node4</title>
<path fill="none" stroke="midnightblue" d="M83.05,-112.08C78.49,-104.61 71.83,-93.72 66.21,-84.52"/>
<polygon fill="midnightblue" stroke="midnightblue" points="69.05,-82.46 60.85,-75.75 63.08,-86.11 69.05,-82.46"/>
</g>
</g>
</svg>
