<?xml version="1.0" encoding="UTF-8" standalone="no"?>
<!DOCTYPE svg PUBLIC "-//W3C//DTD SVG 1.1//EN"
 "http://www.w3.org/Graphics/SVG/1.1/DTD/svg11.dtd">
<!-- Generated by graphviz version 2.43.0 (0)
 -->
<!-- Title: LocationSet.cpp Pages: 1 -->
<svg width="1281pt" height="598pt"
 viewBox="0.00 0.00 1281.02 598.00" xmlns="http://www.w3.org/2000/svg" xmlns:xlink="http://www.w3.org/1999/xlink">
<g id="graph0" class="graph" transform="scale(1 1) rotate(0) translate(4 594)">
<title>LocationSet.cpp</title>
<polygon fill="white" stroke="transparent" points="-4,4 -4,-594 1277.02,-594 1277.02,4 -4,4"/>
<!-- Node1 -->
<g id="node1" class="node">
<title>Node1</title>
<g id="a_node1"><a xlink:title=" ">
<polygon fill="#bfbfbf" stroke="black" points="620.5,-570.5 620.5,-589.5 714.5,-589.5 714.5,-570.5 620.5,-570.5"/>
<text text-anchor="middle" x="667.5" y="-577.5" font-family="Helvetica,sans-Serif" font-size="10.00">LocationSet.cpp</text>
</a>
</g>
</g>
<!-- Node2 -->
<g id="node2" class="node">
<title>Node2</title>
<g id="a_node2"><a xlink:href="LocationSet_8h.html" target="_top" xlink:title=" ">
<polygon fill="white" stroke="black" points="662,-375 662,-394 745,-394 745,-375 662,-375"/>
<text text-anchor="middle" x="703.5" y="-382" font-family="Helvetica,sans-Serif" font-size="10.00">LocationSet.h</text>
</a>
</g>
</g>
<!-- Node1&#45;&gt;Node2 -->
<g id="edge1" class="edge">
<title>Node1&#45;&gt;Node2</title>
<path fill="none" stroke="midnightblue" d="M669.09,-570.44C674.52,-541.29 692.34,-445.47 699.98,-404.43"/>
<polygon fill="midnightblue" stroke="midnightblue" points="703.45,-404.88 701.84,-394.41 696.57,-403.6 703.45,-404.88"/>
</g>
<!-- Node22 -->
<g id="node22" class="node">
<title>Node22</title>
<g id="a_node22"><a xlink:href="Location_8h.html" target="_top" xlink:title=" ">
<polygon fill="white" stroke="black" points="0,-442 0,-461 163,-461 163,-442 0,-442"/>
<text text-anchor="middle" x="81.5" y="-449" font-family="Helvetica,sans-Serif" font-size="10.00">boomerang/ssl/exp/Location.h</text>
</a>
</g>
</g>
<!-- Node1&#45;&gt;Node22 -->
<g id="edge37" class="edge">
<title>Node1&#45;&gt;Node22</title>
<path fill="none" stroke="midnightblue" d="M620.33,-578.27C513.58,-576.03 256.65,-567.25 177.5,-534 143.09,-519.54 111.88,-488.12 94.9,-468.79"/>
<polygon fill="midnightblue" stroke="midnightblue" points="97.49,-466.43 88.34,-461.1 92.17,-470.98 97.49,-466.43"/>
</g>
<!-- Node27 -->
<g id="node27" class="node">
<title>Node27</title>
<g id="a_node27"><a xlink:href="RefExp_8h.html" target="_top" xlink:title=" ">
<polygon fill="white" stroke="black" points="481.5,-442 481.5,-461 637.5,-461 637.5,-442 481.5,-442"/>
<text text-anchor="middle" x="559.5" y="-449" font-family="Helvetica,sans-Serif" font-size="10.00">boomerang/ssl/exp/RefExp.h</text>
</a>
</g>
</g>
<!-- Node1&#45;&gt;Node27 -->
<g id="edge47" class="edge">
<title>Node1&#45;&gt;Node27</title>
<path fill="none" stroke="midnightblue" d="M660.08,-570.31C642.27,-549.45 596.91,-496.31 573.68,-469.11"/>
<polygon fill="midnightblue" stroke="midnightblue" points="576.13,-466.59 566.98,-461.26 570.81,-471.13 576.13,-466.59"/>
</g>
<!-- Node28 -->
<g id="node28" class="node">
<title>Node28</title>
<g id="a_node28"><a xlink:href="StatementSet_8h.html" target="_top" xlink:title=" ">
<polygon fill="white" stroke="black" points="764,-503.5 764,-533.5 909,-533.5 909,-503.5 764,-503.5"/>
<text text-anchor="start" x="772" y="-521.5" font-family="Helvetica,sans-Serif" font-size="10.00">boomerang/util/Statement</text>
<text text-anchor="middle" x="836.5" y="-510.5" font-family="Helvetica,sans-Serif" font-size="10.00">Set.h</text>
</a>
</g>
</g>
<!-- Node1&#45;&gt;Node28 -->
<g id="edge50" class="edge">
<title>Node1&#45;&gt;Node28</title>
<path fill="none" stroke="midnightblue" d="M691.71,-570.48C716.53,-561.74 755.81,-547.91 787.21,-536.86"/>
<polygon fill="midnightblue" stroke="midnightblue" points="788.4,-540.15 796.67,-533.52 786.08,-533.54 788.4,-540.15"/>
</g>
<!-- Node33 -->
<g id="node33" class="node">
<title>Node33</title>
<g id="a_node33"><a xlink:href="Util_8h.html" target="_top" xlink:title=" ">
<polygon fill="white" stroke="black" points="198.5,-179.5 198.5,-198.5 318.5,-198.5 318.5,-179.5 198.5,-179.5"/>
<text text-anchor="middle" x="258.5" y="-186.5" font-family="Helvetica,sans-Serif" font-size="10.00">boomerang/util/Util.h</text>
</a>
</g>
</g>
<!-- Node1&#45;&gt;Node33 -->
<g id="edge59" class="edge">
<title>Node1&#45;&gt;Node33</title>
<path fill="none" stroke="midnightblue" d="M620.32,-571.74C535.77,-556.17 358.52,-511.48 264.5,-400 216.23,-342.76 209.93,-306.99 230.5,-235 233.4,-224.84 239.33,-214.75 244.99,-206.7"/>
<polygon fill="midnightblue" stroke="midnightblue" points="247.88,-208.69 251.09,-198.59 242.28,-204.48 247.88,-208.69"/>
</g>
<!-- Node34 -->
<g id="node34" class="node">
<title>Node34</title>
<g id="a_node34"><a xlink:href="Log_8h.html" target="_top" xlink:title=" ">
<polygon fill="white" stroke="black" points="1137,-235.5 1137,-265.5 1246,-265.5 1246,-235.5 1137,-235.5"/>
<text text-anchor="start" x="1145" y="-253.5" font-family="Helvetica,sans-Serif" font-size="10.00">boomerang/util/log</text>
<text text-anchor="middle" x="1191.5" y="-242.5" font-family="Helvetica,sans-Serif" font-size="10.00">/Log.h</text>
</a>
</g>
</g>
<!-- Node1&#45;&gt;Node34 -->
<g id="edge64" class="edge">
<title>Node1&#45;&gt;Node34</title>
<path fill="none" stroke="midnightblue" d="M714.63,-577.12C839.35,-570.87 1168.5,-545.57 1168.5,-452.5 1168.5,-452.5 1168.5,-452.5 1168.5,-383.5 1168.5,-345.27 1177.98,-301.72 1184.77,-275.44"/>
<polygon fill="midnightblue" stroke="midnightblue" points="1188.19,-276.18 1187.39,-265.62 1181.43,-274.38 1188.19,-276.18"/>
</g>
<!-- Node3 -->
<g id="node3" class="node">
<title>Node3</title>
<g id="a_node3"><a xlink:href="Exp_8h.html" target="_top" xlink:title=" ">
<polygon fill="white" stroke="black" points="453.5,-308 453.5,-327 593.5,-327 593.5,-308 453.5,-308"/>
<text text-anchor="middle" x="523.5" y="-315" font-family="Helvetica,sans-Serif" font-size="10.00">boomerang/ssl/exp/Exp.h</text>
</a>
</g>
</g>
<!-- Node2&#45;&gt;Node3 -->
<g id="edge2" class="edge">
<title>Node2&#45;&gt;Node3</title>
<path fill="none" stroke="midnightblue" d="M679.6,-374.87C648.04,-363.47 592.32,-343.35 556.69,-330.49"/>
<polygon fill="midnightblue" stroke="midnightblue" points="557.81,-327.17 547.21,-327.06 555.43,-333.75 557.81,-327.17"/>
</g>
<!-- Node8 -->
<g id="node8" class="node">
<title>Node8</title>
<g id="a_node8"><a xlink:href="Statement_8h.html" target="_top" xlink:title=" ">
<polygon fill="white" stroke="black" points="627,-235.5 627,-265.5 774,-265.5 774,-235.5 627,-235.5"/>
<text text-anchor="start" x="635" y="-253.5" font-family="Helvetica,sans-Serif" font-size="10.00">boomerang/ssl/statements</text>
<text text-anchor="middle" x="700.5" y="-242.5" font-family="Helvetica,sans-Serif" font-size="10.00">/Statement.h</text>
</a>
</g>
</g>
<!-- Node2&#45;&gt;Node8 -->
<g id="edge30" class="edge">
<title>Node2&#45;&gt;Node8</title>
<path fill="none" stroke="midnightblue" d="M701.73,-374.97C699.75,-364.97 696.67,-347.87 695.5,-333 693.99,-313.82 695.49,-292.08 697.22,-275.88"/>
<polygon fill="midnightblue" stroke="midnightblue" points="700.74,-275.99 698.43,-265.64 693.78,-275.17 700.74,-275.99"/>
</g>
<!-- Node20 -->
<g id="node20" class="node">
<title>Node20</title>
<g id="a_node20"><a xlink:href="ExpSet_8h.html" target="_top" xlink:title=" ">
<polygon fill="white" stroke="black" points="869,-308 869,-327 1006,-327 1006,-308 869,-308"/>
<text text-anchor="middle" x="937.5" y="-315" font-family="Helvetica,sans-Serif" font-size="10.00">boomerang/util/ExpSet.h</text>
</a>
</g>
</g>
<!-- Node2&#45;&gt;Node20 -->
<g id="edge31" class="edge">
<title>Node2&#45;&gt;Node20</title>
<path fill="none" stroke="midnightblue" d="M733.42,-374.95C740.34,-372.99 747.67,-370.91 754.5,-369 803.24,-355.35 859.35,-339.9 896.46,-329.73"/>
<polygon fill="midnightblue" stroke="midnightblue" points="897.68,-333.02 906.4,-327 895.83,-326.27 897.68,-333.02"/>
</g>
<!-- Node4 -->
<g id="node4" class="node">
<title>Node4</title>
<g id="a_node4"><a xlink:href="ExpHelp_8h.html" target="_top" xlink:title=" ">
<polygon fill="white" stroke="black" points="632.5,-179.5 632.5,-198.5 794.5,-198.5 794.5,-179.5 632.5,-179.5"/>
<text text-anchor="middle" x="713.5" y="-186.5" font-family="Helvetica,sans-Serif" font-size="10.00">boomerang/ssl/exp/ExpHelp.h</text>
</a>
</g>
</g>
<!-- Node3&#45;&gt;Node4 -->
<g id="edge3" class="edge">
<title>Node3&#45;&gt;Node4</title>
<path fill="none" stroke="midnightblue" d="M532.03,-307.78C547.94,-291.84 583.68,-257.6 618.5,-235 638.44,-222.05 662.7,-210.63 681.7,-202.53"/>
<polygon fill="midnightblue" stroke="midnightblue" points="683.23,-205.69 691.11,-198.61 680.54,-199.23 683.23,-205.69"/>
</g>
<!-- Node6 -->
<g id="node6" class="node">
<title>Node6</title>
<g id="a_node6"><a xlink:title=" ">
<polygon fill="white" stroke="#bfbfbf" points="729.5,-123.5 729.5,-142.5 787.5,-142.5 787.5,-123.5 729.5,-123.5"/>
<text text-anchor="middle" x="758.5" y="-130.5" font-family="Helvetica,sans-Serif" font-size="10.00">memory</text>
</a>
</g>
</g>
<!-- Node3&#45;&gt;Node6 -->
<g id="edge27" class="edge">
<title>Node3&#45;&gt;Node6</title>
<path fill="none" stroke="midnightblue" d="M509.13,-307.75C496.28,-298.99 478.31,-284.22 470.5,-266 455.27,-230.46 445.36,-208.38 470.5,-179 502.03,-142.16 647.78,-135.26 719.05,-134.12"/>
<polygon fill="midnightblue" stroke="midnightblue" points="719.45,-137.61 729.41,-133.98 719.36,-130.61 719.45,-137.61"/>
</g>
<!-- Node7 -->
<g id="node7" class="node">
<title>Node7</title>
<g id="a_node7"><a xlink:href="Operator_8h.html" target="_top" xlink:title=" ">
<polygon fill="white" stroke="black" points="254.5,-241 254.5,-260 418.5,-260 418.5,-241 254.5,-241"/>
<text text-anchor="middle" x="336.5" y="-248" font-family="Helvetica,sans-Serif" font-size="10.00">boomerang/ssl/exp/Operator.h</text>
</a>
</g>
</g>
<!-- Node3&#45;&gt;Node7 -->
<g id="edge6" class="edge">
<title>Node3&#45;&gt;Node7</title>
<path fill="none" stroke="midnightblue" d="M498.67,-307.87C465.88,-296.47 408,-276.35 370.99,-263.49"/>
<polygon fill="midnightblue" stroke="midnightblue" points="371.73,-260.04 361.14,-260.06 369.43,-266.65 371.73,-260.04"/>
</g>
<!-- Node3&#45;&gt;Node8 -->
<g id="edge8" class="edge">
<title>Node3&#45;&gt;Node8</title>
<path fill="none" stroke="midnightblue" d="M547,-307.87C573.79,-298.03 618.29,-281.69 652.5,-269.13"/>
<polygon fill="midnightblue" stroke="midnightblue" points="654.12,-272.26 662.3,-265.53 651.71,-265.69 654.12,-272.26"/>
</g>
<!-- Node10 -->
<g id="node10" class="node">
<title>Node10</title>
<g id="a_node10"><a xlink:href="OStream_8h.html" target="_top" xlink:title=" ">
<polygon fill="white" stroke="black" points="980.5,-123.5 980.5,-142.5 1126.5,-142.5 1126.5,-123.5 980.5,-123.5"/>
<text text-anchor="middle" x="1053.5" y="-130.5" font-family="Helvetica,sans-Serif" font-size="10.00">boomerang/util/OStream.h</text>
</a>
</g>
</g>
<!-- Node3&#45;&gt;Node10 -->
<g id="edge23" class="edge">
<title>Node3&#45;&gt;Node10</title>
<path fill="none" stroke="midnightblue" d="M518.07,-307.7C503.95,-283.61 469.5,-215.9 503.5,-179 519.08,-162.09 820.55,-145.24 970.4,-137.87"/>
<polygon fill="midnightblue" stroke="midnightblue" points="970.67,-141.36 980.48,-137.37 970.32,-134.36 970.67,-141.36"/>
</g>
<!-- Node14 -->
<g id="node14" class="node">
<title>Node14</title>
<g id="a_node14"><a xlink:title=" ">
<polygon fill="white" stroke="#bfbfbf" points="320,-123.5 320,-142.5 373,-142.5 373,-123.5 320,-123.5"/>
<text text-anchor="middle" x="346.5" y="-130.5" font-family="Helvetica,sans-Serif" font-size="10.00">QString</text>
</a>
</g>
</g>
<!-- Node3&#45;&gt;Node14 -->
<g id="edge24" class="edge">
<title>Node3&#45;&gt;Node14</title>
<path fill="none" stroke="midnightblue" d="M453.26,-313.69C379.75,-309.1 271.47,-297.12 245.5,-266 198.14,-209.26 312.63,-215.93 327.5,-199 338.77,-186.18 343.36,-166.99 345.23,-152.78"/>
<polygon fill="midnightblue" stroke="midnightblue" points="348.73,-152.97 346.22,-142.68 341.77,-152.29 348.73,-152.97"/>
</g>
<!-- Node15 -->
<g id="node15" class="node">
<title>Node15</title>
<g id="a_node15"><a xlink:title=" ">
<polygon fill="white" stroke="#bfbfbf" points="512.5,-179.5 512.5,-198.5 564.5,-198.5 564.5,-179.5 512.5,-179.5"/>
<text text-anchor="middle" x="538.5" y="-186.5" font-family="Helvetica,sans-Serif" font-size="10.00">cassert</text>
</a>
</g>
</g>
<!-- Node3&#45;&gt;Node15 -->
<g id="edge25" class="edge">
<title>Node3&#45;&gt;Node15</title>
<path fill="none" stroke="midnightblue" d="M524.53,-307.81C526.94,-287.49 532.98,-236.55 536.27,-208.78"/>
<polygon fill="midnightblue" stroke="midnightblue" points="539.76,-209.1 537.46,-198.76 532.81,-208.27 539.76,-209.1"/>
</g>
<!-- Node16 -->
<g id="node16" class="node">
<title>Node16</title>
<g id="a_node16"><a xlink:title=" ">
<polygon fill="white" stroke="#bfbfbf" points="582.5,-179.5 582.5,-198.5 614.5,-198.5 614.5,-179.5 582.5,-179.5"/>
<text text-anchor="middle" x="598.5" y="-186.5" font-family="Helvetica,sans-Serif" font-size="10.00">list</text>
</a>
</g>
</g>
<!-- Node3&#45;&gt;Node16 -->
<g id="edge26" class="edge">
<title>Node3&#45;&gt;Node16</title>
<path fill="none" stroke="midnightblue" d="M528.66,-307.81C540.86,-287.22 571.71,-235.19 588.02,-207.68"/>
<polygon fill="midnightblue" stroke="midnightblue" points="591.22,-209.14 593.31,-198.76 585.2,-205.57 591.22,-209.14"/>
</g>
<!-- Node18 -->
<g id="node18" class="node">
<title>Node18</title>
<g id="a_node18"><a xlink:title=" ">
<polygon fill="white" stroke="#bfbfbf" points="830.5,-241 830.5,-260 862.5,-260 862.5,-241 830.5,-241"/>
<text text-anchor="middle" x="846.5" y="-248" font-family="Helvetica,sans-Serif" font-size="10.00">set</text>
</a>
</g>
</g>
<!-- Node3&#45;&gt;Node18 -->
<g id="edge28" class="edge">
<title>Node3&#45;&gt;Node18</title>
<path fill="none" stroke="midnightblue" d="M593.78,-309.97C653.97,-303.06 742.41,-289.77 816.5,-266 818.17,-265.47 819.86,-264.85 821.54,-264.19"/>
<polygon fill="midnightblue" stroke="midnightblue" points="823.23,-267.27 830.96,-260.03 820.4,-260.87 823.23,-267.27"/>
</g>
<!-- Node19 -->
<g id="node19" class="node">
<title>Node19</title>
<g id="a_node19"><a xlink:title=" ">
<polygon fill="white" stroke="#bfbfbf" points="983,-179.5 983,-198.5 1030,-198.5 1030,-179.5 983,-179.5"/>
<text text-anchor="middle" x="1006.5" y="-186.5" font-family="Helvetica,sans-Serif" font-size="10.00">vector</text>
</a>
</g>
</g>
<!-- Node3&#45;&gt;Node19 -->
<g id="edge29" class="edge">
<title>Node3&#45;&gt;Node19</title>
<path fill="none" stroke="midnightblue" d="M593.7,-312.2C647.73,-306.73 723.12,-294.28 783.5,-266 803.24,-256.75 801.98,-244.7 821.5,-235 870.87,-210.45 934.45,-198.79 972.76,-193.64"/>
<polygon fill="midnightblue" stroke="midnightblue" points="973.39,-197.09 982.86,-192.36 972.5,-190.14 973.39,-197.09"/>
</g>
<!-- Node5 -->
<g id="node5" class="node">
<title>Node5</title>
<g id="a_node5"><a xlink:href="BoomerangAPI_8h.html" target="_top" xlink:title=" ">
<polygon fill="white" stroke="black" points="450,-56.5 450,-86.5 605,-86.5 605,-56.5 450,-56.5"/>
<text text-anchor="start" x="458" y="-74.5" font-family="Helvetica,sans-Serif" font-size="10.00">boomerang/core/Boomerang</text>
<text text-anchor="middle" x="527.5" y="-63.5" font-family="Helvetica,sans-Serif" font-size="10.00">API.h</text>
</a>
</g>
</g>
<!-- Node4&#45;&gt;Node5 -->
<g id="edge4" class="edge">
<title>Node4&#45;&gt;Node5</title>
<path fill="none" stroke="midnightblue" d="M699.52,-179.32C669.77,-160.84 599.56,-117.25 558.63,-91.83"/>
<polygon fill="midnightblue" stroke="midnightblue" points="560.46,-88.85 550.12,-86.55 556.77,-94.79 560.46,-88.85"/>
</g>
<!-- Node4&#45;&gt;Node6 -->
<g id="edge5" class="edge">
<title>Node4&#45;&gt;Node6</title>
<path fill="none" stroke="midnightblue" d="M720.93,-179.08C727.35,-171.38 736.81,-160.03 744.62,-150.65"/>
<polygon fill="midnightblue" stroke="midnightblue" points="747.49,-152.67 751.21,-142.75 742.12,-148.19 747.49,-152.67"/>
</g>
<!-- Node7&#45;&gt;Node5 -->
<g id="edge7" class="edge">
<title>Node7&#45;&gt;Node5</title>
<path fill="none" stroke="midnightblue" d="M345.71,-240.96C374.41,-214.36 462.81,-132.44 504.85,-93.49"/>
<polygon fill="midnightblue" stroke="midnightblue" points="507.41,-95.89 512.37,-86.52 502.65,-90.75 507.41,-95.89"/>
</g>
<!-- Node8&#45;&gt;Node4 -->
<g id="edge9" class="edge">
<title>Node8&#45;&gt;Node4</title>
<path fill="none" stroke="midnightblue" d="M703.58,-235.4C705.33,-227.38 707.55,-217.23 709.44,-208.57"/>
<polygon fill="midnightblue" stroke="midnightblue" points="712.89,-209.17 711.61,-198.66 706.05,-207.68 712.89,-209.17"/>
</g>
<!-- Node8&#45;&gt;Node6 -->
<g id="edge22" class="edge">
<title>Node8&#45;&gt;Node6</title>
<path fill="none" stroke="midnightblue" d="M755.54,-235.49C774.04,-227.87 792.7,-216.32 803.5,-199 814.51,-181.35 796.7,-161.81 780.35,-148.81"/>
<polygon fill="midnightblue" stroke="midnightblue" points="782.2,-145.82 772.09,-142.65 778.01,-151.43 782.2,-145.82"/>
</g>
<!-- Node9 -->
<g id="node9" class="node">
<title>Node9</title>
<g id="a_node9"><a xlink:href="Address_8h.html" target="_top" xlink:title=" ">
<polygon fill="white" stroke="black" points="1086.5,-179.5 1086.5,-198.5 1228.5,-198.5 1228.5,-179.5 1086.5,-179.5"/>
<text text-anchor="middle" x="1157.5" y="-186.5" font-family="Helvetica,sans-Serif" font-size="10.00">boomerang/util/Address.h</text>
</a>
</g>
</g>
<!-- Node8&#45;&gt;Node9 -->
<g id="edge10" class="edge">
<title>Node8&#45;&gt;Node9</title>
<path fill="none" stroke="midnightblue" d="M774.18,-239.91C858.73,-228.9 996.66,-210.94 1081.98,-199.83"/>
<polygon fill="midnightblue" stroke="midnightblue" points="1082.65,-203.27 1092.11,-198.51 1081.75,-196.33 1082.65,-203.27"/>
</g>
<!-- Node8&#45;&gt;Node15 -->
<g id="edge19" class="edge">
<title>Node8&#45;&gt;Node15</title>
<path fill="none" stroke="midnightblue" d="M662.11,-235.4C634.56,-225.28 597.83,-211.79 571.58,-202.15"/>
<polygon fill="midnightblue" stroke="midnightblue" points="572.67,-198.82 562.07,-198.66 570.25,-205.39 572.67,-198.82"/>
</g>
<!-- Node8&#45;&gt;Node16 -->
<g id="edge20" class="edge">
<title>Node8&#45;&gt;Node16</title>
<path fill="none" stroke="midnightblue" d="M676.33,-235.4C659.98,-225.86 638.49,-213.32 622.23,-203.84"/>
<polygon fill="midnightblue" stroke="midnightblue" points="623.74,-200.67 613.34,-198.66 620.22,-206.72 623.74,-200.67"/>
</g>
<!-- Node17 -->
<g id="node17" class="node">
<title>Node17</title>
<g id="a_node17"><a xlink:title=" ">
<polygon fill="white" stroke="#bfbfbf" points="850.5,-179.5 850.5,-198.5 888.5,-198.5 888.5,-179.5 850.5,-179.5"/>
<text text-anchor="middle" x="869.5" y="-186.5" font-family="Helvetica,sans-Serif" font-size="10.00">map</text>
</a>
</g>
</g>
<!-- Node8&#45;&gt;Node17 -->
<g id="edge21" class="edge">
<title>Node8&#45;&gt;Node17</title>
<path fill="none" stroke="midnightblue" d="M740.55,-235.4C771.32,-224.56 813.09,-209.86 840.65,-200.16"/>
<polygon fill="midnightblue" stroke="midnightblue" points="841.84,-203.45 850.11,-196.83 839.52,-196.85 841.84,-203.45"/>
</g>
<!-- Node9&#45;&gt;Node5 -->
<g id="edge11" class="edge">
<title>Node9&#45;&gt;Node5</title>
<path fill="none" stroke="midnightblue" d="M1110.92,-179.46C1005.87,-160.2 749.19,-113.14 614.01,-88.36"/>
<polygon fill="midnightblue" stroke="midnightblue" points="614.56,-84.9 604.1,-86.54 613.3,-91.79 614.56,-84.9"/>
</g>
<!-- Node9&#45;&gt;Node10 -->
<g id="edge12" class="edge">
<title>Node9&#45;&gt;Node10</title>
<path fill="none" stroke="midnightblue" d="M1140.79,-179.32C1124.19,-170.7 1098.5,-157.36 1079.28,-147.39"/>
<polygon fill="midnightblue" stroke="midnightblue" points="1080.66,-144.16 1070.17,-142.65 1077.43,-150.37 1080.66,-144.16"/>
</g>
<!-- Node11 -->
<g id="node11" class="node">
<title>Node11</title>
<g id="a_node11"><a xlink:href="Types_8h.html" target="_top" xlink:title=" ">
<polygon fill="white" stroke="black" points="1092,-62 1092,-81 1223,-81 1223,-62 1092,-62"/>
<text text-anchor="middle" x="1157.5" y="-69" font-family="Helvetica,sans-Serif" font-size="10.00">boomerang/util/Types.h</text>
</a>
</g>
</g>
<!-- Node9&#45;&gt;Node11 -->
<g id="edge17" class="edge">
<title>Node9&#45;&gt;Node11</title>
<path fill="none" stroke="midnightblue" d="M1157.5,-179.32C1157.5,-160.76 1157.5,-116.84 1157.5,-91.47"/>
<polygon fill="midnightblue" stroke="midnightblue" points="1161,-91.28 1157.5,-81.28 1154,-91.28 1161,-91.28"/>
</g>
<!-- Node9&#45;&gt;Node14 -->
<g id="edge18" class="edge">
<title>Node9&#45;&gt;Node14</title>
<path fill="none" stroke="midnightblue" d="M1086.38,-182.44C1070.92,-181.27 1054.67,-180.07 1039.5,-179 788.89,-161.31 487.12,-142.6 383.51,-136.26"/>
<polygon fill="midnightblue" stroke="midnightblue" points="383.46,-132.75 373.26,-135.63 383.03,-139.73 383.46,-132.75"/>
</g>
<!-- Node10&#45;&gt;Node5 -->
<g id="edge13" class="edge">
<title>Node10&#45;&gt;Node5</title>
<path fill="none" stroke="midnightblue" d="M980.36,-123.73C884.75,-112.91 717.44,-93.99 615.15,-82.41"/>
<polygon fill="midnightblue" stroke="midnightblue" points="615.48,-78.93 605.15,-81.28 614.69,-85.89 615.48,-78.93"/>
</g>
<!-- Node10&#45;&gt;Node11 -->
<g id="edge14" class="edge">
<title>Node10&#45;&gt;Node11</title>
<path fill="none" stroke="midnightblue" d="M1068.4,-123.48C1085.47,-113.71 1113.66,-97.58 1133.76,-86.08"/>
<polygon fill="midnightblue" stroke="midnightblue" points="1135.69,-89.01 1142.63,-81.01 1132.21,-82.94 1135.69,-89.01"/>
</g>
<!-- Node13 -->
<g id="node13" class="node">
<title>Node13</title>
<g id="a_node13"><a xlink:title=" ">
<polygon fill="white" stroke="#bfbfbf" points="1027.5,-62 1027.5,-81 1073.5,-81 1073.5,-62 1027.5,-62"/>
<text text-anchor="middle" x="1050.5" y="-69" font-family="Helvetica,sans-Serif" font-size="10.00">cstdio</text>
</a>
</g>
</g>
<!-- Node10&#45;&gt;Node13 -->
<g id="edge16" class="edge">
<title>Node10&#45;&gt;Node13</title>
<path fill="none" stroke="midnightblue" d="M1053.07,-123.48C1052.65,-115.08 1051.99,-101.98 1051.44,-91.16"/>
<polygon fill="midnightblue" stroke="midnightblue" points="1054.93,-90.82 1050.93,-81.01 1047.94,-91.17 1054.93,-90.82"/>
</g>
<!-- Node12 -->
<g id="node12" class="node">
<title>Node12</title>
<g id="a_node12"><a xlink:title=" ">
<polygon fill="white" stroke="#bfbfbf" points="1132.5,-0.5 1132.5,-19.5 1182.5,-19.5 1182.5,-0.5 1132.5,-0.5"/>
<text text-anchor="middle" x="1157.5" y="-7.5" font-family="Helvetica,sans-Serif" font-size="10.00">cstdint</text>
</a>
</g>
</g>
<!-- Node11&#45;&gt;Node12 -->
<g id="edge15" class="edge">
<title>Node11&#45;&gt;Node12</title>
<path fill="none" stroke="midnightblue" d="M1157.5,-61.98C1157.5,-53.58 1157.5,-40.48 1157.5,-29.66"/>
<polygon fill="midnightblue" stroke="midnightblue" points="1161,-29.51 1157.5,-19.51 1154,-29.51 1161,-29.51"/>
</g>
<!-- Node20&#45;&gt;Node4 -->
<g id="edge32" class="edge">
<title>Node20&#45;&gt;Node4</title>
<path fill="none" stroke="midnightblue" d="M932.95,-307.9C923.68,-291.23 900.97,-254.47 871.5,-235 845.85,-218.05 813.79,-207.4 785.26,-200.75"/>
<polygon fill="midnightblue" stroke="midnightblue" points="785.85,-197.29 775.33,-198.55 784.34,-204.13 785.85,-197.29"/>
</g>
<!-- Node20&#45;&gt;Node6 -->
<g id="edge34" class="edge">
<title>Node20&#45;&gt;Node6</title>
<path fill="none" stroke="midnightblue" d="M937.61,-307.72C937.41,-283.69 933.51,-216.11 897.5,-179 883.55,-164.63 833.92,-150.86 797.94,-142.43"/>
<polygon fill="midnightblue" stroke="midnightblue" points="798.26,-138.91 787.73,-140.09 796.69,-145.73 798.26,-138.91"/>
</g>
<!-- Node20&#45;&gt;Node10 -->
<g id="edge33" class="edge">
<title>Node20&#45;&gt;Node10</title>
<path fill="none" stroke="midnightblue" d="M939.85,-307.86C944.97,-290.78 958.9,-252.82 985.5,-235 1079.5,-172.03 1163.37,-284.47 1237.5,-199 1271.21,-160.13 1200.16,-144.5 1136.79,-138.22"/>
<polygon fill="midnightblue" stroke="midnightblue" points="1136.98,-134.72 1126.7,-137.29 1136.34,-141.69 1136.98,-134.72"/>
</g>
<!-- Node20&#45;&gt;Node18 -->
<g id="edge35" class="edge">
<title>Node20&#45;&gt;Node18</title>
<path fill="none" stroke="midnightblue" d="M925.23,-307.73C910.35,-297.11 885.07,-279.05 867.17,-266.26"/>
<polygon fill="midnightblue" stroke="midnightblue" points="868.75,-263.09 858.58,-260.13 864.68,-268.79 868.75,-263.09"/>
</g>
<!-- Node21 -->
<g id="node21" class="node">
<title>Node21</title>
<g id="a_node21"><a xlink:title=" ">
<polygon fill="white" stroke="#bfbfbf" points="994.5,-241 994.5,-260 1080.5,-260 1080.5,-241 994.5,-241"/>
<text text-anchor="middle" x="1037.5" y="-248" font-family="Helvetica,sans-Serif" font-size="10.00">unordered_set</text>
</a>
</g>
</g>
<!-- Node20&#45;&gt;Node21 -->
<g id="edge36" class="edge">
<title>Node20&#45;&gt;Node21</title>
<path fill="none" stroke="midnightblue" d="M950.99,-307.73C967.55,-296.96 995.88,-278.55 1015.59,-265.74"/>
<polygon fill="midnightblue" stroke="midnightblue" points="1017.75,-268.51 1024.23,-260.13 1013.94,-262.64 1017.75,-268.51"/>
</g>
<!-- Node23 -->
<g id="node23" class="node">
<title>Node23</title>
<g id="a_node23"><a xlink:href="Register_8h.html" target="_top" xlink:title=" ">
<polygon fill="white" stroke="black" points="39,-179.5 39,-198.5 180,-198.5 180,-179.5 39,-179.5"/>
<text text-anchor="middle" x="109.5" y="-186.5" font-family="Helvetica,sans-Serif" font-size="10.00">boomerang/ssl/Register.h</text>
</a>
</g>
</g>
<!-- Node22&#45;&gt;Node23 -->
<g id="edge38" class="edge">
<title>Node22&#45;&gt;Node23</title>
<path fill="none" stroke="midnightblue" d="M82.43,-441.83C86.39,-404.98 101.89,-260.83 107.48,-208.83"/>
<polygon fill="midnightblue" stroke="midnightblue" points="110.98,-209.02 108.56,-198.7 104.02,-208.27 110.98,-209.02"/>
</g>
<!-- Node26 -->
<g id="node26" class="node">
<title>Node26</title>
<g id="a_node26"><a xlink:href="Unary_8h.html" target="_top" xlink:title=" ">
<polygon fill="white" stroke="black" points="274,-375 274,-394 423,-394 423,-375 274,-375"/>
<text text-anchor="middle" x="348.5" y="-382" font-family="Helvetica,sans-Serif" font-size="10.00">boomerang/ssl/exp/Unary.h</text>
</a>
</g>
</g>
<!-- Node22&#45;&gt;Node26 -->
<g id="edge45" class="edge">
<title>Node22&#45;&gt;Node26</title>
<path fill="none" stroke="midnightblue" d="M116.68,-441.94C164.7,-430.24 250.82,-409.28 303.49,-396.46"/>
<polygon fill="midnightblue" stroke="midnightblue" points="304.35,-399.85 313.24,-394.08 302.7,-393.05 304.35,-399.85"/>
</g>
<!-- Node23&#45;&gt;Node5 -->
<g id="edge39" class="edge">
<title>Node23&#45;&gt;Node5</title>
<path fill="none" stroke="midnightblue" d="M101.16,-179.41C89.08,-165.92 69.69,-139.6 84.5,-123 107.69,-97.02 317.15,-82.61 439.56,-76.34"/>
<polygon fill="midnightblue" stroke="midnightblue" points="439.86,-79.83 449.68,-75.84 439.51,-72.84 439.86,-79.83"/>
</g>
<!-- Node23&#45;&gt;Node6 -->
<g id="edge42" class="edge">
<title>Node23&#45;&gt;Node6</title>
<path fill="none" stroke="midnightblue" d="M180.16,-179.92C183.31,-179.6 186.44,-179.29 189.5,-179 388.49,-159.94 627.18,-142.98 719.45,-136.64"/>
<polygon fill="midnightblue" stroke="midnightblue" points="719.72,-140.13 729.46,-135.96 719.24,-133.15 719.72,-140.13"/>
</g>
<!-- Node23&#45;&gt;Node11 -->
<g id="edge40" class="edge">
<title>Node23&#45;&gt;Node11</title>
<path fill="none" stroke="midnightblue" d="M116.19,-179.2C128.05,-164.39 154.38,-134.93 184.5,-123 277.34,-86.23 983.31,-98.51 1082.5,-87 1091.21,-85.99 1100.42,-84.53 1109.3,-82.93"/>
<polygon fill="midnightblue" stroke="midnightblue" points="1109.96,-86.37 1119.13,-81.07 1108.66,-79.49 1109.96,-86.37"/>
</g>
<!-- Node23&#45;&gt;Node14 -->
<g id="edge41" class="edge">
<title>Node23&#45;&gt;Node14</title>
<path fill="none" stroke="midnightblue" d="M147.05,-179.44C191.74,-169.26 265.83,-152.38 310.03,-142.31"/>
<polygon fill="midnightblue" stroke="midnightblue" points="310.81,-145.72 319.79,-140.09 309.26,-138.9 310.81,-145.72"/>
</g>
<!-- Node24 -->
<g id="node24" class="node">
<title>Node24</title>
<g id="a_node24"><a xlink:title=" ">
<polygon fill="white" stroke="#bfbfbf" points="93.5,-123.5 93.5,-142.5 137.5,-142.5 137.5,-123.5 93.5,-123.5"/>
<text text-anchor="middle" x="115.5" y="-130.5" font-family="Helvetica,sans-Serif" font-size="10.00">string</text>
</a>
</g>
</g>
<!-- Node23&#45;&gt;Node24 -->
<g id="edge43" class="edge">
<title>Node23&#45;&gt;Node24</title>
<path fill="none" stroke="midnightblue" d="M110.49,-179.08C111.29,-171.93 112.43,-161.64 113.42,-152.69"/>
<polygon fill="midnightblue" stroke="midnightblue" points="116.9,-153.08 114.53,-142.75 109.94,-152.3 116.9,-153.08"/>
</g>
<!-- Node25 -->
<g id="node25" class="node">
<title>Node25</title>
<g id="a_node25"><a xlink:title=" ">
<polygon fill="white" stroke="#bfbfbf" points="194,-123.5 194,-142.5 263,-142.5 263,-123.5 194,-123.5"/>
<text text-anchor="middle" x="228.5" y="-130.5" font-family="Helvetica,sans-Serif" font-size="10.00">type_traits</text>
</a>
</g>
</g>
<!-- Node23&#45;&gt;Node25 -->
<g id="edge44" class="edge">
<title>Node23&#45;&gt;Node25</title>
<path fill="none" stroke="midnightblue" d="M128.36,-179.44C147.77,-170.64 178.23,-156.81 200.46,-146.72"/>
<polygon fill="midnightblue" stroke="midnightblue" points="202.07,-149.84 209.73,-142.52 199.18,-143.46 202.07,-149.84"/>
</g>
<!-- Node26&#45;&gt;Node3 -->
<g id="edge46" class="edge">
<title>Node26&#45;&gt;Node3</title>
<path fill="none" stroke="midnightblue" d="M371.74,-374.87C402.29,-363.52 456.13,-343.52 490.78,-330.65"/>
<polygon fill="midnightblue" stroke="midnightblue" points="492.29,-333.83 500.44,-327.06 489.85,-327.26 492.29,-333.83"/>
</g>
<!-- Node27&#45;&gt;Node8 -->
<g id="edge49" class="edge">
<title>Node27&#45;&gt;Node8</title>
<path fill="none" stroke="midnightblue" d="M570.98,-441.7C582.82,-432.25 601.35,-416.38 614.5,-400 646.84,-359.72 674.83,-305.87 689.52,-275.32"/>
<polygon fill="midnightblue" stroke="midnightblue" points="692.86,-276.44 693.98,-265.91 686.53,-273.45 692.86,-276.44"/>
</g>
<!-- Node27&#45;&gt;Node26 -->
<g id="edge48" class="edge">
<title>Node27&#45;&gt;Node26</title>
<path fill="none" stroke="midnightblue" d="M531.48,-441.87C494.09,-430.35 427.78,-409.92 386.08,-397.08"/>
<polygon fill="midnightblue" stroke="midnightblue" points="386.89,-393.66 376.3,-394.06 384.83,-400.35 386.89,-393.66"/>
</g>
<!-- Node28&#45;&gt;Node6 -->
<g id="edge57" class="edge">
<title>Node28&#45;&gt;Node6</title>
<path fill="none" stroke="midnightblue" d="M909.03,-512.9C989.61,-503.41 1108.5,-474.34 1108.5,-385.5 1108.5,-385.5 1108.5,-385.5 1108.5,-316.5 1108.5,-279.31 1114.8,-262.26 1089.5,-235 1053.06,-195.75 1025.28,-216.01 974.5,-199 949.44,-190.61 943.68,-187.03 918.5,-179 877.57,-165.95 830.13,-152.86 797.59,-144.19"/>
<polygon fill="midnightblue" stroke="midnightblue" points="798.15,-140.71 787.58,-141.53 796.35,-147.48 798.15,-140.71"/>
</g>
<!-- Node28&#45;&gt;Node21 -->
<g id="edge58" class="edge">
<title>Node28&#45;&gt;Node21</title>
<path fill="none" stroke="midnightblue" d="M865.74,-503.47C882.6,-494.51 903.55,-481.8 919.5,-467 973.21,-417.18 984.12,-399.2 1015.5,-333 1025.09,-312.77 1031.07,-287.67 1034.33,-270.71"/>
<polygon fill="midnightblue" stroke="midnightblue" points="1037.85,-270.89 1036.17,-260.43 1030.96,-269.66 1037.85,-270.89"/>
</g>
<!-- Node29 -->
<g id="node29" class="node">
<title>Node29</title>
<g id="a_node29"><a xlink:href="Terminal_8h.html" target="_top" xlink:title=" ">
<polygon fill="white" stroke="black" points="441.5,-375 441.5,-394 605.5,-394 605.5,-375 441.5,-375"/>
<text text-anchor="middle" x="523.5" y="-382" font-family="Helvetica,sans-Serif" font-size="10.00">boomerang/ssl/exp/Terminal.h</text>
</a>
</g>
</g>
<!-- Node28&#45;&gt;Node29 -->
<g id="edge51" class="edge">
<title>Node28&#45;&gt;Node29</title>
<path fill="none" stroke="midnightblue" d="M803.95,-503.36C766.17,-486.98 701.94,-459.27 646.5,-436 615.12,-422.83 579.09,-408.08 554.17,-397.94"/>
<polygon fill="midnightblue" stroke="midnightblue" points="555.46,-394.68 544.87,-394.16 552.82,-401.17 555.46,-394.68"/>
</g>
<!-- Node30 -->
<g id="node30" class="node">
<title>Node30</title>
<g id="a_node30"><a xlink:href="Assign_8h.html" target="_top" xlink:title=" ">
<polygon fill="white" stroke="black" points="763,-436.5 763,-466.5 910,-466.5 910,-436.5 763,-436.5"/>
<text text-anchor="start" x="771" y="-454.5" font-family="Helvetica,sans-Serif" font-size="10.00">boomerang/ssl/statements</text>
<text text-anchor="middle" x="836.5" y="-443.5" font-family="Helvetica,sans-Serif" font-size="10.00">/Assign.h</text>
</a>
</g>
</g>
<!-- Node28&#45;&gt;Node30 -->
<g id="edge53" class="edge">
<title>Node28&#45;&gt;Node30</title>
<path fill="none" stroke="midnightblue" d="M836.5,-503.4C836.5,-495.64 836.5,-485.81 836.5,-476.86"/>
<polygon fill="midnightblue" stroke="midnightblue" points="840,-476.58 836.5,-466.58 833,-476.58 840,-476.58"/>
</g>
<!-- Node29&#45;&gt;Node3 -->
<g id="edge52" class="edge">
<title>Node29&#45;&gt;Node3</title>
<path fill="none" stroke="midnightblue" d="M523.5,-374.73C523.5,-365.18 523.5,-349.62 523.5,-337.28"/>
<polygon fill="midnightblue" stroke="midnightblue" points="527,-337.13 523.5,-327.13 520,-337.13 527,-337.13"/>
</g>
<!-- Node31 -->
<g id="node31" class="node">
<title>Node31</title>
<g id="a_node31"><a xlink:href="Assignment_8h.html" target="_top" xlink:title=" ">
<polygon fill="white" stroke="black" points="763,-369.5 763,-399.5 910,-399.5 910,-369.5 763,-369.5"/>
<text text-anchor="start" x="771" y="-387.5" font-family="Helvetica,sans-Serif" font-size="10.00">boomerang/ssl/statements</text>
<text text-anchor="middle" x="836.5" y="-376.5" font-family="Helvetica,sans-Serif" font-size="10.00">/Assignment.h</text>
</a>
</g>
</g>
<!-- Node30&#45;&gt;Node31 -->
<g id="edge54" class="edge">
<title>Node30&#45;&gt;Node31</title>
<path fill="none" stroke="midnightblue" d="M836.5,-436.4C836.5,-428.64 836.5,-418.81 836.5,-409.86"/>
<polygon fill="midnightblue" stroke="midnightblue" points="840,-409.58 836.5,-399.58 833,-409.58 840,-409.58"/>
</g>
<!-- Node32 -->
<g id="node32" class="node">
<title>Node32</title>
<g id="a_node32"><a xlink:href="TypingStatement_8h.html" target="_top" xlink:title=" ">
<polygon fill="white" stroke="black" points="704,-302.5 704,-332.5 851,-332.5 851,-302.5 704,-302.5"/>
<text text-anchor="start" x="712" y="-320.5" font-family="Helvetica,sans-Serif" font-size="10.00">boomerang/ssl/statements</text>
<text text-anchor="middle" x="777.5" y="-309.5" font-family="Helvetica,sans-Serif" font-size="10.00">/TypingStatement.h</text>
</a>
</g>
</g>
<!-- Node31&#45;&gt;Node32 -->
<g id="edge55" class="edge">
<title>Node31&#45;&gt;Node32</title>
<path fill="none" stroke="midnightblue" d="M823.7,-369.4C815.97,-360.88 805.95,-349.85 797.23,-340.23"/>
<polygon fill="midnightblue" stroke="midnightblue" points="799.59,-337.63 790.28,-332.58 794.41,-342.33 799.59,-337.63"/>
</g>
<!-- Node32&#45;&gt;Node8 -->
<g id="edge56" class="edge">
<title>Node32&#45;&gt;Node8</title>
<path fill="none" stroke="midnightblue" d="M760.79,-302.4C750.3,-293.54 736.58,-281.96 724.89,-272.09"/>
<polygon fill="midnightblue" stroke="midnightblue" points="727.07,-269.35 717.18,-265.58 722.56,-274.7 727.07,-269.35"/>
</g>
<!-- Node33&#45;&gt;Node5 -->
<g id="edge60" class="edge">
<title>Node33&#45;&gt;Node5</title>
<path fill="none" stroke="midnightblue" d="M262.94,-179.29C270.61,-165.15 287.76,-137.33 310.5,-123 349.04,-98.71 398.06,-86.08 439.75,-79.52"/>
<polygon fill="midnightblue" stroke="midnightblue" points="440.52,-82.95 449.9,-78.02 439.5,-76.02 440.52,-82.95"/>
</g>
<!-- Node33&#45;&gt;Node6 -->
<g id="edge62" class="edge">
<title>Node33&#45;&gt;Node6</title>
<path fill="none" stroke="midnightblue" d="M318.81,-181.49C422.64,-170.27 632.37,-147.62 719.34,-138.23"/>
<polygon fill="midnightblue" stroke="midnightblue" points="719.75,-141.71 729.32,-137.15 719,-134.75 719.75,-141.71"/>
</g>
<!-- Node33&#45;&gt;Node14 -->
<g id="edge61" class="edge">
<title>Node33&#45;&gt;Node14</title>
<path fill="none" stroke="midnightblue" d="M272.64,-179.32C286.37,-170.9 307.44,-157.97 323.56,-148.07"/>
<polygon fill="midnightblue" stroke="midnightblue" points="325.7,-150.87 332.4,-142.65 322.04,-144.9 325.7,-150.87"/>
</g>
<!-- Node33&#45;&gt;Node25 -->
<g id="edge63" class="edge">
<title>Node33&#45;&gt;Node25</title>
<path fill="none" stroke="midnightblue" d="M253.55,-179.08C249.4,-171.61 243.35,-160.72 238.23,-151.52"/>
<polygon fill="midnightblue" stroke="midnightblue" points="241.28,-149.79 233.36,-142.75 235.16,-153.19 241.28,-149.79"/>
</g>
<!-- Node34&#45;&gt;Node6 -->
<g id="edge67" class="edge">
<title>Node34&#45;&gt;Node6</title>
<path fill="none" stroke="midnightblue" d="M1158.3,-235.5C1135.42,-225.67 1104.39,-212.01 1077.5,-199 1060.32,-190.69 1057.61,-185.03 1039.5,-179 995.34,-164.29 863.96,-146.85 797.68,-138.68"/>
<polygon fill="midnightblue" stroke="midnightblue" points="797.97,-135.19 787.62,-137.44 797.12,-142.13 797.97,-135.19"/>
</g>
<!-- Node34&#45;&gt;Node9 -->
<g id="edge65" class="edge">
<title>Node34&#45;&gt;Node9</title>
<path fill="none" stroke="midnightblue" d="M1183.44,-235.4C1178.65,-227.02 1172.54,-216.33 1167.46,-207.42"/>
<polygon fill="midnightblue" stroke="midnightblue" points="1170.45,-205.6 1162.45,-198.66 1164.37,-209.08 1170.45,-205.6"/>
</g>
<!-- Node34&#45;&gt;Node11 -->
<g id="edge66" class="edge">
<title>Node34&#45;&gt;Node11</title>
<path fill="none" stroke="midnightblue" d="M1228.35,-235.41C1253.76,-223.24 1281.17,-203.73 1270.5,-179 1252.45,-137.19 1209.03,-104.19 1181.57,-86.58"/>
<polygon fill="midnightblue" stroke="midnightblue" points="1183.27,-83.51 1172.93,-81.2 1179.57,-89.46 1183.27,-83.51"/>
</g>
<!-- Node34&#45;&gt;Node19 -->
<g id="edge68" class="edge">
<title>Node34&#45;&gt;Node19</title>
<path fill="none" stroke="midnightblue" d="M1147.66,-235.4C1114.63,-224.78 1070.04,-210.44 1039.89,-200.74"/>
<polygon fill="midnightblue" stroke="midnightblue" points="1040.84,-197.37 1030.25,-197.64 1038.7,-204.03 1040.84,-197.37"/>
</g>
</g>
</svg>
