<?xml version="1.0" encoding="UTF-8" standalone="no"?>
<!DOCTYPE svg PUBLIC "-//W3C//DTD SVG 1.1//EN"
 "http://www.w3.org/Graphics/SVG/1.1/DTD/svg11.dtd">
<!-- Generated by graphviz version 2.43.0 (0)
 -->
<!-- Title: Location.cpp Pages: 1 -->
<svg width="1676pt" height="509pt"
 viewBox="0.00 0.00 1676.00 509.00" xmlns="http://www.w3.org/2000/svg" xmlns:xlink="http://www.w3.org/1999/xlink">
<g id="graph0" class="graph" transform="scale(1 1) rotate(0) translate(4 505)">
<title>Location.cpp</title>
<polygon fill="white" stroke="transparent" points="-4,4 -4,-505 1672,-505 1672,4 -4,4"/>
<!-- Node1 -->
<g id="node1" class="node">
<title>Node1</title>
<g id="a_node1"><a xlink:title=" ">
<polygon fill="#bfbfbf" stroke="black" points="749,-481.5 749,-500.5 827,-500.5 827,-481.5 749,-481.5"/>
<text text-anchor="middle" x="788" y="-488.5" font-family="Helvetica,sans-Serif" font-size="10.00">Location.cpp</text>
</a>
</g>
</g>
<!-- Node2 -->
<g id="node2" class="node">
<title>Node2</title>
<g id="a_node2"><a xlink:href="Location_8h.html" target="_top" xlink:title=" ">
<polygon fill="white" stroke="black" points="624.5,-425.5 624.5,-444.5 691.5,-444.5 691.5,-425.5 624.5,-425.5"/>
<text text-anchor="middle" x="658" y="-432.5" font-family="Helvetica,sans-Serif" font-size="10.00">Location.h</text>
</a>
</g>
</g>
<!-- Node1&#45;&gt;Node2 -->
<g id="edge1" class="edge">
<title>Node1&#45;&gt;Node2</title>
<path fill="none" stroke="midnightblue" d="M767.4,-481.44C746.01,-472.56 712.32,-458.56 687.98,-448.45"/>
<polygon fill="midnightblue" stroke="midnightblue" points="689.08,-445.12 678.5,-444.52 686.39,-451.58 689.08,-445.12"/>
</g>
<!-- Node24 -->
<g id="node24" class="node">
<title>Node24</title>
<g id="a_node24"><a xlink:href="Const_8h.html" target="_top" xlink:title=" ">
<polygon fill="white" stroke="black" points="211.5,-369.5 211.5,-388.5 360.5,-388.5 360.5,-369.5 211.5,-369.5"/>
<text text-anchor="middle" x="286" y="-376.5" font-family="Helvetica,sans-Serif" font-size="10.00">boomerang/ssl/exp/Const.h</text>
</a>
</g>
</g>
<!-- Node1&#45;&gt;Node24 -->
<g id="edge38" class="edge">
<title>Node1&#45;&gt;Node24</title>
<path fill="none" stroke="midnightblue" d="M748.57,-486.06C691.17,-479.87 581.46,-466.34 490,-445 428.1,-430.56 357.87,-406.41 318.06,-391.96"/>
<polygon fill="midnightblue" stroke="midnightblue" points="319.21,-388.66 308.61,-388.51 316.81,-395.23 319.21,-388.66"/>
</g>
<!-- Node26 -->
<g id="node26" class="node">
<title>Node26</title>
<g id="a_node26"><a xlink:href="RefExp_8h.html" target="_top" xlink:title=" ">
<polygon fill="white" stroke="black" points="710,-425.5 710,-444.5 866,-444.5 866,-425.5 710,-425.5"/>
<text text-anchor="middle" x="788" y="-432.5" font-family="Helvetica,sans-Serif" font-size="10.00">boomerang/ssl/exp/RefExp.h</text>
</a>
</g>
</g>
<!-- Node1&#45;&gt;Node26 -->
<g id="edge42" class="edge">
<title>Node1&#45;&gt;Node26</title>
<path fill="none" stroke="midnightblue" d="M788,-481.08C788,-474.01 788,-463.86 788,-454.99"/>
<polygon fill="midnightblue" stroke="midnightblue" points="791.5,-454.75 788,-444.75 784.5,-454.75 791.5,-454.75"/>
</g>
<!-- Node27 -->
<g id="node27" class="node">
<title>Node27</title>
<g id="a_node27"><a xlink:href="LocationSet_8h.html" target="_top" xlink:title=" ">
<polygon fill="white" stroke="black" points="816,-369.5 816,-388.5 976,-388.5 976,-369.5 816,-369.5"/>
<text text-anchor="middle" x="896" y="-376.5" font-family="Helvetica,sans-Serif" font-size="10.00">boomerang/util/LocationSet.h</text>
</a>
</g>
</g>
<!-- Node1&#45;&gt;Node27 -->
<g id="edge45" class="edge">
<title>Node1&#45;&gt;Node27</title>
<path fill="none" stroke="midnightblue" d="M817.16,-481.39C836.08,-474.41 859.94,-462.77 875,-445 886.13,-431.86 891.39,-412.72 893.86,-398.61"/>
<polygon fill="midnightblue" stroke="midnightblue" points="897.34,-398.98 895.3,-388.58 890.41,-397.98 897.34,-398.98"/>
</g>
<!-- Node30 -->
<g id="node30" class="node">
<title>Node30</title>
<g id="a_node30"><a xlink:href="Log_8h.html" target="_top" xlink:title=" ">
<polygon fill="white" stroke="black" points="292.5,-246.5 292.5,-276.5 401.5,-276.5 401.5,-246.5 292.5,-246.5"/>
<text text-anchor="start" x="300.5" y="-264.5" font-family="Helvetica,sans-Serif" font-size="10.00">boomerang/util/log</text>
<text text-anchor="middle" x="347" y="-253.5" font-family="Helvetica,sans-Serif" font-size="10.00">/Log.h</text>
</a>
</g>
</g>
<!-- Node1&#45;&gt;Node30 -->
<g id="edge54" class="edge">
<title>Node1&#45;&gt;Node30</title>
<path fill="none" stroke="midnightblue" d="M748.92,-483.8C712.98,-477.19 658.8,-464.88 615,-445 517.05,-400.53 415.99,-320.75 371.05,-283.16"/>
<polygon fill="midnightblue" stroke="midnightblue" points="373.23,-280.42 363.33,-276.65 368.72,-285.77 373.23,-280.42"/>
</g>
<!-- Node31 -->
<g id="node31" class="node">
<title>Node31</title>
<g id="a_node31"><a xlink:href="ExpModifier_8h.html" target="_top" xlink:title=" ">
<polygon fill="white" stroke="black" points="1324,-179.5 1324,-209.5 1492,-209.5 1492,-179.5 1324,-179.5"/>
<text text-anchor="start" x="1332" y="-197.5" font-family="Helvetica,sans-Serif" font-size="10.00">boomerang/visitor/expmodifier</text>
<text text-anchor="middle" x="1408" y="-186.5" font-family="Helvetica,sans-Serif" font-size="10.00">/ExpModifier.h</text>
</a>
</g>
</g>
<!-- Node1&#45;&gt;Node31 -->
<g id="edge59" class="edge">
<title>Node1&#45;&gt;Node31</title>
<path fill="none" stroke="midnightblue" d="M827.23,-489.72C945.1,-487.82 1288,-474.21 1288,-380 1288,-380 1288,-380 1288,-322 1288,-273.37 1335.25,-235.96 1370.46,-214.84"/>
<polygon fill="midnightblue" stroke="midnightblue" points="1372.66,-217.61 1379.56,-209.57 1369.15,-211.55 1372.66,-217.61"/>
</g>
<!-- Node32 -->
<g id="node32" class="node">
<title>Node32</title>
<g id="a_node32"><a xlink:href="ExpVisitor_8h.html" target="_top" xlink:title=" ">
<polygon fill="white" stroke="black" points="1510,-179.5 1510,-209.5 1668,-209.5 1668,-179.5 1510,-179.5"/>
<text text-anchor="start" x="1518" y="-197.5" font-family="Helvetica,sans-Serif" font-size="10.00">boomerang/visitor/expvisitor</text>
<text text-anchor="middle" x="1589" y="-186.5" font-family="Helvetica,sans-Serif" font-size="10.00">/ExpVisitor.h</text>
</a>
</g>
</g>
<!-- Node1&#45;&gt;Node32 -->
<g id="edge62" class="edge">
<title>Node1&#45;&gt;Node32</title>
<path fill="none" stroke="midnightblue" d="M827.09,-488.13C976.22,-480.5 1501,-448.77 1501,-380 1501,-380 1501,-380 1501,-322 1501,-278.36 1536.73,-238.97 1562.66,-216.14"/>
<polygon fill="midnightblue" stroke="midnightblue" points="1564.99,-218.74 1570.34,-209.59 1560.46,-213.41 1564.99,-218.74"/>
</g>
<!-- Node3 -->
<g id="node3" class="node">
<title>Node3</title>
<g id="a_node3"><a xlink:href="Register_8h.html" target="_top" xlink:title=" ">
<polygon fill="white" stroke="black" points="86.5,-185 86.5,-204 227.5,-204 227.5,-185 86.5,-185"/>
<text text-anchor="middle" x="157" y="-192" font-family="Helvetica,sans-Serif" font-size="10.00">boomerang/ssl/Register.h</text>
</a>
</g>
</g>
<!-- Node2&#45;&gt;Node3 -->
<g id="edge2" class="edge">
<title>Node2&#45;&gt;Node3</title>
<path fill="none" stroke="midnightblue" d="M624.26,-434C531.55,-433.5 274.93,-428.48 202,-389 173.92,-373.8 167.6,-363.12 157,-333 142.78,-292.61 148.49,-241.31 153.18,-214.23"/>
<polygon fill="midnightblue" stroke="midnightblue" points="156.66,-214.68 155.07,-204.2 149.78,-213.38 156.66,-214.68"/>
</g>
<!-- Node11 -->
<g id="node11" class="node">
<title>Node11</title>
<g id="a_node11"><a xlink:href="Unary_8h.html" target="_top" xlink:title=" ">
<polygon fill="white" stroke="black" points="611.5,-369.5 611.5,-388.5 760.5,-388.5 760.5,-369.5 611.5,-369.5"/>
<text text-anchor="middle" x="686" y="-376.5" font-family="Helvetica,sans-Serif" font-size="10.00">boomerang/ssl/exp/Unary.h</text>
</a>
</g>
</g>
<!-- Node2&#45;&gt;Node11 -->
<g id="edge10" class="edge">
<title>Node2&#45;&gt;Node11</title>
<path fill="none" stroke="midnightblue" d="M662.62,-425.08C666.46,-417.69 672.02,-406.95 676.76,-397.81"/>
<polygon fill="midnightblue" stroke="midnightblue" points="679.97,-399.24 681.46,-388.75 673.75,-396.02 679.97,-399.24"/>
</g>
<!-- Node4 -->
<g id="node4" class="node">
<title>Node4</title>
<g id="a_node4"><a xlink:href="BoomerangAPI_8h.html" target="_top" xlink:title=" ">
<polygon fill="white" stroke="black" points="565.5,-56.5 565.5,-86.5 720.5,-86.5 720.5,-56.5 565.5,-56.5"/>
<text text-anchor="start" x="573.5" y="-74.5" font-family="Helvetica,sans-Serif" font-size="10.00">boomerang/core/Boomerang</text>
<text text-anchor="middle" x="643" y="-63.5" font-family="Helvetica,sans-Serif" font-size="10.00">API.h</text>
</a>
</g>
</g>
<!-- Node3&#45;&gt;Node4 -->
<g id="edge3" class="edge">
<title>Node3&#45;&gt;Node4</title>
<path fill="none" stroke="midnightblue" d="M161.52,-184.7C170.03,-169.19 190,-137.26 217,-123 281.44,-88.98 466.12,-96.57 555.14,-86.92"/>
<polygon fill="midnightblue" stroke="midnightblue" points="555.74,-90.38 565.25,-85.69 554.9,-83.43 555.74,-90.38"/>
</g>
<!-- Node5 -->
<g id="node5" class="node">
<title>Node5</title>
<g id="a_node5"><a xlink:href="Types_8h.html" target="_top" xlink:title=" ">
<polygon fill="white" stroke="black" points="273.5,-62 273.5,-81 404.5,-81 404.5,-62 273.5,-62"/>
<text text-anchor="middle" x="339" y="-69" font-family="Helvetica,sans-Serif" font-size="10.00">boomerang/util/Types.h</text>
</a>
</g>
</g>
<!-- Node3&#45;&gt;Node5 -->
<g id="edge4" class="edge">
<title>Node3&#45;&gt;Node5</title>
<path fill="none" stroke="midnightblue" d="M157.92,-184.81C159.95,-170.04 166.14,-139.98 184,-123 205.56,-102.51 235.55,-90.33 263.4,-83.09"/>
<polygon fill="midnightblue" stroke="midnightblue" points="264.25,-86.49 273.15,-80.73 262.61,-79.68 264.25,-86.49"/>
</g>
<!-- Node7 -->
<g id="node7" class="node">
<title>Node7</title>
<g id="a_node7"><a xlink:title=" ">
<polygon fill="white" stroke="#bfbfbf" points="226.5,-123.5 226.5,-142.5 279.5,-142.5 279.5,-123.5 226.5,-123.5"/>
<text text-anchor="middle" x="253" y="-130.5" font-family="Helvetica,sans-Serif" font-size="10.00">QString</text>
</a>
</g>
</g>
<!-- Node3&#45;&gt;Node7 -->
<g id="edge6" class="edge">
<title>Node3&#45;&gt;Node7</title>
<path fill="none" stroke="midnightblue" d="M170.75,-184.98C186.37,-175.3 212.06,-159.37 230.58,-147.89"/>
<polygon fill="midnightblue" stroke="midnightblue" points="232.62,-150.75 239.27,-142.51 228.93,-144.8 232.62,-150.75"/>
</g>
<!-- Node8 -->
<g id="node8" class="node">
<title>Node8</title>
<g id="a_node8"><a xlink:title=" ">
<polygon fill="white" stroke="#bfbfbf" points="901,-123.5 901,-142.5 959,-142.5 959,-123.5 901,-123.5"/>
<text text-anchor="middle" x="930" y="-130.5" font-family="Helvetica,sans-Serif" font-size="10.00">memory</text>
</a>
</g>
</g>
<!-- Node3&#45;&gt;Node8 -->
<g id="edge7" class="edge">
<title>Node3&#45;&gt;Node8</title>
<path fill="none" stroke="midnightblue" d="M227.64,-186.63C254.37,-184.12 285.08,-181.32 313,-179 531.16,-160.91 793.05,-143.1 890.74,-136.59"/>
<polygon fill="midnightblue" stroke="midnightblue" points="891.01,-140.08 900.76,-135.93 890.55,-133.1 891.01,-140.08"/>
</g>
<!-- Node9 -->
<g id="node9" class="node">
<title>Node9</title>
<g id="a_node9"><a xlink:title=" ">
<polygon fill="white" stroke="#bfbfbf" points="0,-123.5 0,-142.5 44,-142.5 44,-123.5 0,-123.5"/>
<text text-anchor="middle" x="22" y="-130.5" font-family="Helvetica,sans-Serif" font-size="10.00">string</text>
</a>
</g>
</g>
<!-- Node3&#45;&gt;Node9 -->
<g id="edge8" class="edge">
<title>Node3&#45;&gt;Node9</title>
<path fill="none" stroke="midnightblue" d="M137.66,-184.98C114.9,-174.95 76.91,-158.2 50.71,-146.65"/>
<polygon fill="midnightblue" stroke="midnightblue" points="51.87,-143.34 41.31,-142.51 49.05,-149.74 51.87,-143.34"/>
</g>
<!-- Node10 -->
<g id="node10" class="node">
<title>Node10</title>
<g id="a_node10"><a xlink:title=" ">
<polygon fill="white" stroke="#bfbfbf" points="62.5,-123.5 62.5,-142.5 131.5,-142.5 131.5,-123.5 62.5,-123.5"/>
<text text-anchor="middle" x="97" y="-130.5" font-family="Helvetica,sans-Serif" font-size="10.00">type_traits</text>
</a>
</g>
</g>
<!-- Node3&#45;&gt;Node10 -->
<g id="edge9" class="edge">
<title>Node3&#45;&gt;Node10</title>
<path fill="none" stroke="midnightblue" d="M148.4,-184.98C139.14,-175.78 124.18,-160.96 112.79,-149.66"/>
<polygon fill="midnightblue" stroke="midnightblue" points="115.15,-147.07 105.58,-142.51 110.22,-152.04 115.15,-147.07"/>
</g>
<!-- Node6 -->
<g id="node6" class="node">
<title>Node6</title>
<g id="a_node6"><a xlink:title=" ">
<polygon fill="white" stroke="#bfbfbf" points="314,-0.5 314,-19.5 364,-19.5 364,-0.5 314,-0.5"/>
<text text-anchor="middle" x="339" y="-7.5" font-family="Helvetica,sans-Serif" font-size="10.00">cstdint</text>
</a>
</g>
</g>
<!-- Node5&#45;&gt;Node6 -->
<g id="edge5" class="edge">
<title>Node5&#45;&gt;Node6</title>
<path fill="none" stroke="midnightblue" d="M339,-61.98C339,-53.58 339,-40.48 339,-29.66"/>
<polygon fill="midnightblue" stroke="midnightblue" points="342.5,-29.51 339,-19.51 335.5,-29.51 342.5,-29.51"/>
</g>
<!-- Node12 -->
<g id="node12" class="node">
<title>Node12</title>
<g id="a_node12"><a xlink:href="Exp_8h.html" target="_top" xlink:title=" ">
<polygon fill="white" stroke="black" points="618,-313.5 618,-332.5 758,-332.5 758,-313.5 618,-313.5"/>
<text text-anchor="middle" x="688" y="-320.5" font-family="Helvetica,sans-Serif" font-size="10.00">boomerang/ssl/exp/Exp.h</text>
</a>
</g>
</g>
<!-- Node11&#45;&gt;Node12 -->
<g id="edge11" class="edge">
<title>Node11&#45;&gt;Node12</title>
<path fill="none" stroke="midnightblue" d="M686.33,-369.08C686.59,-362.01 686.97,-351.86 687.3,-342.99"/>
<polygon fill="midnightblue" stroke="midnightblue" points="690.8,-342.87 687.68,-332.75 683.81,-342.61 690.8,-342.87"/>
</g>
<!-- Node12&#45;&gt;Node7 -->
<g id="edge32" class="edge">
<title>Node12&#45;&gt;Node7</title>
<path fill="none" stroke="midnightblue" d="M617.86,-318.64C508.48,-312.74 307.25,-299.03 283,-277 248.03,-245.24 248.06,-184.03 250.68,-153.01"/>
<polygon fill="midnightblue" stroke="midnightblue" points="254.19,-153.03 251.74,-142.72 247.23,-152.31 254.19,-153.03"/>
</g>
<!-- Node12&#45;&gt;Node8 -->
<g id="edge35" class="edge">
<title>Node12&#45;&gt;Node8</title>
<path fill="none" stroke="midnightblue" d="M758.21,-317.26C815.87,-311.74 891.02,-300.21 910,-277 918.72,-266.33 910.95,-259.74 910,-246 907.94,-216.21 897.51,-207.91 905,-179 907.55,-169.18 912.75,-159.21 917.76,-151.17"/>
<polygon fill="midnightblue" stroke="midnightblue" points="920.75,-152.99 923.37,-142.73 914.92,-149.11 920.75,-152.99"/>
</g>
<!-- Node13 -->
<g id="node13" class="node">
<title>Node13</title>
<g id="a_node13"><a xlink:href="ExpHelp_8h.html" target="_top" xlink:title=" ">
<polygon fill="white" stroke="black" points="1040,-185 1040,-204 1202,-204 1202,-185 1040,-185"/>
<text text-anchor="middle" x="1121" y="-192" font-family="Helvetica,sans-Serif" font-size="10.00">boomerang/ssl/exp/ExpHelp.h</text>
</a>
</g>
</g>
<!-- Node12&#45;&gt;Node13 -->
<g id="edge12" class="edge">
<title>Node12&#45;&gt;Node13</title>
<path fill="none" stroke="midnightblue" d="M758.41,-320.11C879.52,-316.14 1116.78,-304.85 1142,-277 1158.04,-259.29 1145.02,-230.96 1133.53,-212.8"/>
<polygon fill="midnightblue" stroke="midnightblue" points="1136.31,-210.67 1127.81,-204.34 1130.51,-214.58 1136.31,-210.67"/>
</g>
<!-- Node14 -->
<g id="node14" class="node">
<title>Node14</title>
<g id="a_node14"><a xlink:href="Operator_8h.html" target="_top" xlink:title=" ">
<polygon fill="white" stroke="black" points="496,-252 496,-271 660,-271 660,-252 496,-252"/>
<text text-anchor="middle" x="578" y="-259" font-family="Helvetica,sans-Serif" font-size="10.00">boomerang/ssl/exp/Operator.h</text>
</a>
</g>
</g>
<!-- Node12&#45;&gt;Node14 -->
<g id="edge15" class="edge">
<title>Node12&#45;&gt;Node14</title>
<path fill="none" stroke="midnightblue" d="M672.24,-313.48C654.02,-303.62 623.83,-287.29 602.53,-275.77"/>
<polygon fill="midnightblue" stroke="midnightblue" points="604.19,-272.69 593.73,-271.01 600.86,-278.85 604.19,-272.69"/>
</g>
<!-- Node15 -->
<g id="node15" class="node">
<title>Node15</title>
<g id="a_node15"><a xlink:href="Statement_8h.html" target="_top" xlink:title=" ">
<polygon fill="white" stroke="black" points="754.5,-246.5 754.5,-276.5 901.5,-276.5 901.5,-246.5 754.5,-246.5"/>
<text text-anchor="start" x="762.5" y="-264.5" font-family="Helvetica,sans-Serif" font-size="10.00">boomerang/ssl/statements</text>
<text text-anchor="middle" x="828" y="-253.5" font-family="Helvetica,sans-Serif" font-size="10.00">/Statement.h</text>
</a>
</g>
</g>
<!-- Node12&#45;&gt;Node15 -->
<g id="edge17" class="edge">
<title>Node12&#45;&gt;Node15</title>
<path fill="none" stroke="midnightblue" d="M708.06,-313.48C728.17,-304.93 759.76,-291.5 785.47,-280.57"/>
<polygon fill="midnightblue" stroke="midnightblue" points="787.17,-283.66 795,-276.52 784.43,-277.21 787.17,-283.66"/>
</g>
<!-- Node17 -->
<g id="node17" class="node">
<title>Node17</title>
<g id="a_node17"><a xlink:href="OStream_8h.html" target="_top" xlink:title=" ">
<polygon fill="white" stroke="black" points="460,-123.5 460,-142.5 606,-142.5 606,-123.5 460,-123.5"/>
<text text-anchor="middle" x="533" y="-130.5" font-family="Helvetica,sans-Serif" font-size="10.00">boomerang/util/OStream.h</text>
</a>
</g>
</g>
<!-- Node12&#45;&gt;Node17 -->
<g id="edge31" class="edge">
<title>Node12&#45;&gt;Node17</title>
<path fill="none" stroke="midnightblue" d="M617.86,-315.53C566.62,-309.19 503.35,-297.41 487,-277 439.49,-217.68 560.31,-233.27 576,-210 589.55,-189.91 569.41,-165.28 552.38,-149.61"/>
<polygon fill="midnightblue" stroke="midnightblue" points="554.27,-146.61 544.42,-142.7 549.67,-151.9 554.27,-146.61"/>
</g>
<!-- Node19 -->
<g id="node19" class="node">
<title>Node19</title>
<g id="a_node19"><a xlink:title=" ">
<polygon fill="white" stroke="#bfbfbf" points="662,-185 662,-204 714,-204 714,-185 662,-185"/>
<text text-anchor="middle" x="688" y="-192" font-family="Helvetica,sans-Serif" font-size="10.00">cassert</text>
</a>
</g>
</g>
<!-- Node12&#45;&gt;Node19 -->
<g id="edge33" class="edge">
<title>Node12&#45;&gt;Node19</title>
<path fill="none" stroke="midnightblue" d="M688,-313.31C688,-292.99 688,-242.05 688,-214.28"/>
<polygon fill="midnightblue" stroke="midnightblue" points="691.5,-214.26 688,-204.26 684.5,-214.26 691.5,-214.26"/>
</g>
<!-- Node20 -->
<g id="node20" class="node">
<title>Node20</title>
<g id="a_node20"><a xlink:title=" ">
<polygon fill="white" stroke="#bfbfbf" points="732,-185 732,-204 764,-204 764,-185 732,-185"/>
<text text-anchor="middle" x="748" y="-192" font-family="Helvetica,sans-Serif" font-size="10.00">list</text>
</a>
</g>
</g>
<!-- Node12&#45;&gt;Node20 -->
<g id="edge34" class="edge">
<title>Node12&#45;&gt;Node20</title>
<path fill="none" stroke="midnightblue" d="M692.12,-313.31C701.84,-292.81 726.35,-241.15 739.44,-213.54"/>
<polygon fill="midnightblue" stroke="midnightblue" points="742.72,-214.79 743.85,-204.26 736.4,-211.79 742.72,-214.79"/>
</g>
<!-- Node22 -->
<g id="node22" class="node">
<title>Node22</title>
<g id="a_node22"><a xlink:title=" ">
<polygon fill="white" stroke="#bfbfbf" points="914,-185 914,-204 946,-204 946,-185 914,-185"/>
<text text-anchor="middle" x="930" y="-192" font-family="Helvetica,sans-Serif" font-size="10.00">set</text>
</a>
</g>
</g>
<!-- Node12&#45;&gt;Node22 -->
<g id="edge36" class="edge">
<title>Node12&#45;&gt;Node22</title>
<path fill="none" stroke="midnightblue" d="M758.26,-319.48C825.71,-315.41 920.68,-304.78 944,-277 958.95,-259.19 949.38,-231.28 940.33,-213.19"/>
<polygon fill="midnightblue" stroke="midnightblue" points="943.34,-211.41 935.51,-204.28 937.18,-214.74 943.34,-211.41"/>
</g>
<!-- Node23 -->
<g id="node23" class="node">
<title>Node23</title>
<g id="a_node23"><a xlink:title=" ">
<polygon fill="white" stroke="#bfbfbf" points="520.5,-185 520.5,-204 567.5,-204 567.5,-185 520.5,-185"/>
<text text-anchor="middle" x="544" y="-192" font-family="Helvetica,sans-Serif" font-size="10.00">vector</text>
</a>
</g>
</g>
<!-- Node12&#45;&gt;Node23 -->
<g id="edge37" class="edge">
<title>Node12&#45;&gt;Node23</title>
<path fill="none" stroke="midnightblue" d="M617.89,-318.13C556.68,-313.11 474.52,-301.84 454,-277 445.23,-266.38 447.04,-257.89 454,-246 460.8,-234.38 490.64,-219 514.12,-208.28"/>
<polygon fill="midnightblue" stroke="midnightblue" points="515.68,-211.41 523.38,-204.13 512.83,-205.02 515.68,-211.41"/>
</g>
<!-- Node13&#45;&gt;Node4 -->
<g id="edge13" class="edge">
<title>Node13&#45;&gt;Node4</title>
<path fill="none" stroke="midnightblue" d="M1105.92,-184.82C1079.09,-169.78 1020.92,-138.96 968,-123 889.48,-99.32 796.77,-86.31 730.5,-79.46"/>
<polygon fill="midnightblue" stroke="midnightblue" points="730.81,-75.97 720.51,-78.45 730.11,-82.94 730.81,-75.97"/>
</g>
<!-- Node13&#45;&gt;Node8 -->
<g id="edge14" class="edge">
<title>Node13&#45;&gt;Node8</title>
<path fill="none" stroke="midnightblue" d="M1093.63,-184.98C1060.45,-174.64 1004.35,-157.16 967.24,-145.6"/>
<polygon fill="midnightblue" stroke="midnightblue" points="967.9,-142.14 957.31,-142.51 965.82,-148.82 967.9,-142.14"/>
</g>
<!-- Node14&#45;&gt;Node4 -->
<g id="edge16" class="edge">
<title>Node14&#45;&gt;Node4</title>
<path fill="none" stroke="midnightblue" d="M584.86,-251.7C592.1,-241.99 603.37,-225.68 610,-210 626.04,-172.08 635.23,-124.82 639.66,-96.74"/>
<polygon fill="midnightblue" stroke="midnightblue" points="643.15,-97.05 641.17,-86.64 636.23,-96.01 643.15,-97.05"/>
</g>
<!-- Node15&#45;&gt;Node8 -->
<g id="edge30" class="edge">
<title>Node15&#45;&gt;Node8</title>
<path fill="none" stroke="midnightblue" d="M833.45,-246.45C840.56,-229.29 854.22,-199.98 872,-179 882.11,-167.07 895.86,-156.23 907.43,-148.19"/>
<polygon fill="midnightblue" stroke="midnightblue" points="909.4,-151.08 915.76,-142.61 905.5,-145.27 909.4,-151.08"/>
</g>
<!-- Node15&#45;&gt;Node13 -->
<g id="edge18" class="edge">
<title>Node15&#45;&gt;Node13</title>
<path fill="none" stroke="midnightblue" d="M891.22,-246.48C945.67,-234.4 1023.12,-217.21 1072.72,-206.21"/>
<polygon fill="midnightblue" stroke="midnightblue" points="1073.55,-209.61 1082.56,-204.03 1072.03,-202.78 1073.55,-209.61"/>
</g>
<!-- Node16 -->
<g id="node16" class="node">
<title>Node16</title>
<g id="a_node16"><a xlink:href="Address_8h.html" target="_top" xlink:title=" ">
<polygon fill="white" stroke="black" points="322,-185 322,-204 464,-204 464,-185 322,-185"/>
<text text-anchor="middle" x="393" y="-192" font-family="Helvetica,sans-Serif" font-size="10.00">boomerang/util/Address.h</text>
</a>
</g>
</g>
<!-- Node15&#45;&gt;Node16 -->
<g id="edge19" class="edge">
<title>Node15&#45;&gt;Node16</title>
<path fill="none" stroke="midnightblue" d="M754.21,-249.47C671.8,-237.16 539.58,-217.4 460.03,-205.52"/>
<polygon fill="midnightblue" stroke="midnightblue" points="460.53,-202.05 450.12,-204.03 459.49,-208.97 460.53,-202.05"/>
</g>
<!-- Node15&#45;&gt;Node19 -->
<g id="edge27" class="edge">
<title>Node15&#45;&gt;Node19</title>
<path fill="none" stroke="midnightblue" d="M797.62,-246.4C773.17,-235.04 739.09,-219.22 715.45,-208.24"/>
<polygon fill="midnightblue" stroke="midnightblue" points="716.87,-205.04 706.32,-204.01 713.92,-211.39 716.87,-205.04"/>
</g>
<!-- Node15&#45;&gt;Node20 -->
<g id="edge28" class="edge">
<title>Node15&#45;&gt;Node20</title>
<path fill="none" stroke="midnightblue" d="M810.64,-246.4C797.67,-235.86 779.97,-221.48 766.69,-210.69"/>
<polygon fill="midnightblue" stroke="midnightblue" points="768.67,-207.78 758.7,-204.19 764.26,-213.22 768.67,-207.78"/>
</g>
<!-- Node21 -->
<g id="node21" class="node">
<title>Node21</title>
<g id="a_node21"><a xlink:title=" ">
<polygon fill="white" stroke="#bfbfbf" points="782,-185 782,-204 820,-204 820,-185 782,-185"/>
<text text-anchor="middle" x="801" y="-192" font-family="Helvetica,sans-Serif" font-size="10.00">map</text>
</a>
</g>
</g>
<!-- Node15&#45;&gt;Node21 -->
<g id="edge29" class="edge">
<title>Node15&#45;&gt;Node21</title>
<path fill="none" stroke="midnightblue" d="M822.14,-246.4C818.14,-236.76 812.8,-223.91 808.49,-213.54"/>
<polygon fill="midnightblue" stroke="midnightblue" points="811.68,-212.09 804.61,-204.19 805.22,-214.77 811.68,-212.09"/>
</g>
<!-- Node16&#45;&gt;Node4 -->
<g id="edge20" class="edge">
<title>Node16&#45;&gt;Node4</title>
<path fill="none" stroke="midnightblue" d="M397.79,-184.62C406.39,-169.56 425.91,-139.07 451,-123 469.68,-111.03 518.15,-98.33 561.7,-88.65"/>
<polygon fill="midnightblue" stroke="midnightblue" points="562.47,-92.07 571.49,-86.51 560.97,-85.23 562.47,-92.07"/>
</g>
<!-- Node16&#45;&gt;Node5 -->
<g id="edge25" class="edge">
<title>Node16&#45;&gt;Node5</title>
<path fill="none" stroke="midnightblue" d="M389.12,-184.8C380.32,-165.09 358.73,-116.71 346.96,-90.34"/>
<polygon fill="midnightblue" stroke="midnightblue" points="350.12,-88.83 342.85,-81.12 343.73,-91.68 350.12,-88.83"/>
</g>
<!-- Node16&#45;&gt;Node7 -->
<g id="edge26" class="edge">
<title>Node16&#45;&gt;Node7</title>
<path fill="none" stroke="midnightblue" d="M372.94,-184.98C349.24,-174.9 309.59,-158.05 282.42,-146.5"/>
<polygon fill="midnightblue" stroke="midnightblue" points="283.59,-143.2 273.02,-142.51 280.86,-149.64 283.59,-143.2"/>
</g>
<!-- Node16&#45;&gt;Node17 -->
<g id="edge21" class="edge">
<title>Node16&#45;&gt;Node17</title>
<path fill="none" stroke="midnightblue" d="M413.06,-184.98C436.76,-174.9 476.41,-158.05 503.58,-146.5"/>
<polygon fill="midnightblue" stroke="midnightblue" points="505.14,-149.64 512.98,-142.51 502.41,-143.2 505.14,-149.64"/>
</g>
<!-- Node17&#45;&gt;Node4 -->
<g id="edge22" class="edge">
<title>Node17&#45;&gt;Node4</title>
<path fill="none" stroke="midnightblue" d="M548.76,-123.48C564.22,-115.12 588.3,-102.09 608.25,-91.3"/>
<polygon fill="midnightblue" stroke="midnightblue" points="609.94,-94.36 617.08,-86.52 606.61,-88.2 609.94,-94.36"/>
</g>
<!-- Node17&#45;&gt;Node5 -->
<g id="edge23" class="edge">
<title>Node17&#45;&gt;Node5</title>
<path fill="none" stroke="midnightblue" d="M505.2,-123.48C471.35,-113.09 414.03,-95.51 376.35,-83.95"/>
<polygon fill="midnightblue" stroke="midnightblue" points="377.33,-80.6 366.74,-81.01 375.28,-87.29 377.33,-80.6"/>
</g>
<!-- Node18 -->
<g id="node18" class="node">
<title>Node18</title>
<g id="a_node18"><a xlink:title=" ">
<polygon fill="white" stroke="#bfbfbf" points="501,-62 501,-81 547,-81 547,-62 501,-62"/>
<text text-anchor="middle" x="524" y="-69" font-family="Helvetica,sans-Serif" font-size="10.00">cstdio</text>
</a>
</g>
</g>
<!-- Node17&#45;&gt;Node18 -->
<g id="edge24" class="edge">
<title>Node17&#45;&gt;Node18</title>
<path fill="none" stroke="midnightblue" d="M531.71,-123.48C530.44,-115.08 528.46,-101.98 526.82,-91.16"/>
<polygon fill="midnightblue" stroke="midnightblue" points="530.24,-90.37 525.29,-81.01 523.32,-91.42 530.24,-90.37"/>
</g>
<!-- Node24&#45;&gt;Node12 -->
<g id="edge39" class="edge">
<title>Node24&#45;&gt;Node12</title>
<path fill="none" stroke="midnightblue" d="M349.7,-369.44C421.74,-359.77 538.85,-344.04 614.65,-333.85"/>
<polygon fill="midnightblue" stroke="midnightblue" points="615.15,-337.32 624.6,-332.52 614.22,-330.38 615.15,-337.32"/>
</g>
<!-- Node24&#45;&gt;Node16 -->
<g id="edge40" class="edge">
<title>Node24&#45;&gt;Node16</title>
<path fill="none" stroke="midnightblue" d="M282.78,-369.41C274.99,-347 257.51,-285.75 283,-246 295.44,-226.6 317.42,-214.55 338.48,-207.12"/>
<polygon fill="midnightblue" stroke="midnightblue" points="339.61,-210.43 348.05,-204.02 337.46,-203.77 339.61,-210.43"/>
</g>
<!-- Node25 -->
<g id="node25" class="node">
<title>Node25</title>
<g id="a_node25"><a xlink:title=" ">
<polygon fill="white" stroke="#bfbfbf" points="166.5,-313.5 166.5,-332.5 217.5,-332.5 217.5,-313.5 166.5,-313.5"/>
<text text-anchor="middle" x="192" y="-320.5" font-family="Helvetica,sans-Serif" font-size="10.00">variant</text>
</a>
</g>
</g>
<!-- Node24&#45;&gt;Node25 -->
<g id="edge41" class="edge">
<title>Node24&#45;&gt;Node25</title>
<path fill="none" stroke="midnightblue" d="M270.9,-369.32C256.1,-360.82 233.31,-347.73 216.02,-337.8"/>
<polygon fill="midnightblue" stroke="midnightblue" points="217.48,-334.6 207.07,-332.65 213.99,-340.67 217.48,-334.6"/>
</g>
<!-- Node26&#45;&gt;Node11 -->
<g id="edge43" class="edge">
<title>Node26&#45;&gt;Node11</title>
<path fill="none" stroke="midnightblue" d="M771.61,-425.32C755.33,-416.7 730.13,-403.36 711.28,-393.39"/>
<polygon fill="midnightblue" stroke="midnightblue" points="712.82,-390.24 702.35,-388.65 709.55,-396.43 712.82,-390.24"/>
</g>
<!-- Node26&#45;&gt;Node15 -->
<g id="edge44" class="edge">
<title>Node26&#45;&gt;Node15</title>
<path fill="none" stroke="midnightblue" d="M790.04,-425.26C795.96,-399.87 813.32,-325.44 822.37,-286.65"/>
<polygon fill="midnightblue" stroke="midnightblue" points="825.82,-287.26 824.68,-276.72 819,-285.67 825.82,-287.26"/>
</g>
<!-- Node27&#45;&gt;Node12 -->
<g id="edge46" class="edge">
<title>Node27&#45;&gt;Node12</title>
<path fill="none" stroke="midnightblue" d="M863.04,-369.44C827.21,-360.14 769.84,-345.25 730.61,-335.06"/>
<polygon fill="midnightblue" stroke="midnightblue" points="731.36,-331.64 720.8,-332.52 729.6,-338.42 731.36,-331.64"/>
</g>
<!-- Node27&#45;&gt;Node15 -->
<g id="edge47" class="edge">
<title>Node27&#45;&gt;Node15</title>
<path fill="none" stroke="midnightblue" d="M890.89,-369.32C880.49,-351.66 856.58,-311.04 841.42,-285.29"/>
<polygon fill="midnightblue" stroke="midnightblue" points="844.36,-283.39 836.27,-276.55 838.33,-286.94 844.36,-283.39"/>
</g>
<!-- Node28 -->
<g id="node28" class="node">
<title>Node28</title>
<g id="a_node28"><a xlink:href="ExpSet_8h.html" target="_top" xlink:title=" ">
<polygon fill="white" stroke="black" points="996.5,-252 996.5,-271 1133.5,-271 1133.5,-252 996.5,-252"/>
<text text-anchor="middle" x="1065" y="-259" font-family="Helvetica,sans-Serif" font-size="10.00">boomerang/util/ExpSet.h</text>
</a>
</g>
</g>
<!-- Node27&#45;&gt;Node28 -->
<g id="edge48" class="edge">
<title>Node27&#45;&gt;Node28</title>
<path fill="none" stroke="midnightblue" d="M908.7,-369.32C937.45,-349.67 1007.78,-301.61 1043.47,-277.22"/>
<polygon fill="midnightblue" stroke="midnightblue" points="1045.87,-279.81 1052.15,-271.28 1041.92,-274.03 1045.87,-279.81"/>
</g>
<!-- Node28&#45;&gt;Node8 -->
<g id="edge51" class="edge">
<title>Node28&#45;&gt;Node8</title>
<path fill="none" stroke="midnightblue" d="M1057.75,-252C1044.54,-236.71 1015.39,-203.85 988,-179 976.12,-168.22 961.89,-157.16 950.5,-148.7"/>
<polygon fill="midnightblue" stroke="midnightblue" points="952.57,-145.87 942.43,-142.79 948.43,-151.52 952.57,-145.87"/>
</g>
<!-- Node28&#45;&gt;Node13 -->
<g id="edge49" class="edge">
<title>Node28&#45;&gt;Node13</title>
<path fill="none" stroke="midnightblue" d="M1072.55,-251.73C1081.28,-241.6 1095.85,-224.69 1106.74,-212.06"/>
<polygon fill="midnightblue" stroke="midnightblue" points="1109.69,-213.99 1113.57,-204.13 1104.39,-209.42 1109.69,-213.99"/>
</g>
<!-- Node28&#45;&gt;Node17 -->
<g id="edge50" class="edge">
<title>Node28&#45;&gt;Node17</title>
<path fill="none" stroke="midnightblue" d="M1050.29,-251.91C1034.4,-242.39 1008.59,-226.23 988,-210 972.19,-197.55 973.29,-187.39 955,-179 896.59,-152.2 721.84,-141.03 616.42,-136.63"/>
<polygon fill="midnightblue" stroke="midnightblue" points="616.26,-133.12 606.13,-136.21 615.98,-140.12 616.26,-133.12"/>
</g>
<!-- Node28&#45;&gt;Node22 -->
<g id="edge52" class="edge">
<title>Node28&#45;&gt;Node22</title>
<path fill="none" stroke="midnightblue" d="M1047.16,-251.93C1026.26,-241.9 990.61,-224.76 960,-210 958.46,-209.26 956.87,-208.49 955.28,-207.72"/>
<polygon fill="midnightblue" stroke="midnightblue" points="956.72,-204.53 946.19,-203.33 953.67,-210.83 956.72,-204.53"/>
</g>
<!-- Node29 -->
<g id="node29" class="node">
<title>Node29</title>
<g id="a_node29"><a xlink:title=" ">
<polygon fill="white" stroke="#bfbfbf" points="1220,-185 1220,-204 1306,-204 1306,-185 1220,-185"/>
<text text-anchor="middle" x="1263" y="-192" font-family="Helvetica,sans-Serif" font-size="10.00">unordered_set</text>
</a>
</g>
</g>
<!-- Node28&#45;&gt;Node29 -->
<g id="edge53" class="edge">
<title>Node28&#45;&gt;Node29</title>
<path fill="none" stroke="midnightblue" d="M1091.29,-251.87C1126.23,-240.4 1188.08,-220.09 1227.24,-207.24"/>
<polygon fill="midnightblue" stroke="midnightblue" points="1228.5,-210.51 1236.91,-204.06 1226.32,-203.86 1228.5,-210.51"/>
</g>
<!-- Node30&#45;&gt;Node5 -->
<g id="edge56" class="edge">
<title>Node30&#45;&gt;Node5</title>
<path fill="none" stroke="midnightblue" d="M334.01,-246.25C326.26,-236.75 317.14,-223.55 313,-210 300.16,-167.95 318.47,-116.64 330.3,-90.17"/>
<polygon fill="midnightblue" stroke="midnightblue" points="333.51,-91.57 334.58,-81.03 327.17,-88.6 333.51,-91.57"/>
</g>
<!-- Node30&#45;&gt;Node8 -->
<g id="edge57" class="edge">
<title>Node30&#45;&gt;Node8</title>
<path fill="none" stroke="midnightblue" d="M391.39,-246.43C416.25,-237.65 447.32,-225.14 473,-210 491.78,-198.93 490.89,-187.4 511,-179 579.1,-150.56 800.12,-139 890.72,-135.37"/>
<polygon fill="midnightblue" stroke="midnightblue" points="890.99,-138.87 900.85,-134.98 890.72,-131.87 890.99,-138.87"/>
</g>
<!-- Node30&#45;&gt;Node16 -->
<g id="edge55" class="edge">
<title>Node30&#45;&gt;Node16</title>
<path fill="none" stroke="midnightblue" d="M356.98,-246.4C364.01,-236.46 373.46,-223.11 380.92,-212.57"/>
<polygon fill="midnightblue" stroke="midnightblue" points="383.93,-214.38 386.85,-204.19 378.21,-210.34 383.93,-214.38"/>
</g>
<!-- Node30&#45;&gt;Node23 -->
<g id="edge58" class="edge">
<title>Node30&#45;&gt;Node23</title>
<path fill="none" stroke="midnightblue" d="M393.5,-246.5C425.32,-236.73 468.4,-223.13 506,-210 508.11,-209.26 510.28,-208.48 512.47,-207.69"/>
<polygon fill="midnightblue" stroke="midnightblue" points="513.83,-210.92 521.97,-204.15 511.38,-204.36 513.83,-210.92"/>
</g>
<!-- Node31&#45;&gt;Node4 -->
<g id="edge60" class="edge">
<title>Node31&#45;&gt;Node4</title>
<path fill="none" stroke="midnightblue" d="M1333.5,-179.47C1253.46,-164.6 1122.44,-140.84 1009,-123 914.14,-108.08 805.06,-93.34 730.83,-83.67"/>
<polygon fill="midnightblue" stroke="midnightblue" points="730.96,-80.16 720.59,-82.34 730.06,-87.1 730.96,-80.16"/>
</g>
<!-- Node31&#45;&gt;Node8 -->
<g id="edge61" class="edge">
<title>Node31&#45;&gt;Node8</title>
<path fill="none" stroke="midnightblue" d="M1323.87,-180.24C1320.88,-179.81 1317.91,-179.4 1315,-179 1188.79,-161.79 1038.74,-145.43 969.1,-138.07"/>
<polygon fill="midnightblue" stroke="midnightblue" points="969.34,-134.58 959.03,-137.01 968.6,-141.54 969.34,-134.58"/>
</g>
<!-- Node32&#45;&gt;Node4 -->
<g id="edge63" class="edge">
<title>Node32&#45;&gt;Node4</title>
<path fill="none" stroke="midnightblue" d="M1509.86,-180.35C1506.87,-179.89 1503.91,-179.43 1501,-179 1220.28,-137.03 886.13,-98.96 730.65,-81.92"/>
<polygon fill="midnightblue" stroke="midnightblue" points="730.99,-78.44 720.67,-80.83 730.23,-85.4 730.99,-78.44"/>
</g>
<!-- Node32&#45;&gt;Node8 -->
<g id="edge64" class="edge">
<title>Node32&#45;&gt;Node8</title>
<path fill="none" stroke="midnightblue" d="M1509.89,-180.14C1506.89,-179.74 1503.92,-179.36 1501,-179 1301.87,-154.79 1062.02,-140.79 969.26,-135.95"/>
<polygon fill="midnightblue" stroke="midnightblue" points="969.37,-132.45 959.2,-135.43 969.01,-139.44 969.37,-132.45"/>
</g>
</g>
</svg>
