<?xml version="1.0" encoding="UTF-8" standalone="no"?>
<!DOCTYPE svg PUBLIC "-//W3C//DTD SVG 1.1//EN"
 "http://www.w3.org/Graphics/SVG/1.1/DTD/svg11.dtd">
<!-- Generated by graphviz version 2.43.0 (0)
 -->
<!-- Title: LowLevelCFG.h Pages: 1 -->
<!--zoomable 330 -->
<svg id="main" version="1.1" xmlns="http://www.w3.org/2000/svg" xmlns:xlink="http://www.w3.org/1999/xlink" xml:space="preserve" onload="init(evt)">
<style type="text/css"><![CDATA[
.edge:hover path { stroke: red; }
.edge:hover polygon { stroke: red; fill: red; }
]]></style>
<script type="text/javascript"><![CDATA[
var edges = document.getElementsByTagName('g');
if (edges && edges.length) {
  for (var i=0;i<edges.length;i++) {
    if (edges[i].id.substr(0,4)=='edge') {
      edges[i].setAttribute('class','edge');
    }
  }
}
]]></script>
        <defs>
                <circle id="rim" cx="0" cy="0" r="7"/>
                <circle id="rim2" cx="0" cy="0" r="3.5"/>
                <g id="zoomPlus">
                        <use xlink:href="#rim" fill="#404040">
                                <set attributeName="fill" to="#808080" begin="zoomplus.mouseover" end="zoomplus.mouseout"/>
                        </use>
                        <path d="M-4,0h8M0,-4v8" fill="none" stroke="white" stroke-width="1.5" pointer-events="none"/>
                </g>
                <g id="zoomMin">
                        <use xlink:href="#rim" fill="#404040">
                                <set attributeName="fill" to="#808080" begin="zoomminus.mouseover" end="zoomminus.mouseout"/>
                        </use>
                        <path d="M-4,0h8" fill="none" stroke="white" stroke-width="1.5" pointer-events="none"/>
                </g>
                <g id="dirArrow">
                        <path fill="none" stroke="white" stroke-width="1.5" d="M0,-3.0v7 M-2.5,-0.5L0,-3.0L2.5,-0.5"/>
                </g>
               <g id="resetDef">
                       <use xlink:href="#rim2" fill="#404040">
                               <set attributeName="fill" to="#808080" begin="reset.mouseover" end="reset.mouseout"/>
                       </use>
               </g>
        </defs>

<script type="text/javascript">
var viewWidth = 1005;
var viewHeight = 330;
var sectionId = 'dynsection-0';
</script>
<script xlink:href="svgpan.js"/>
<svg id="graph" class="graph">
<g id="viewport">
<title>LowLevelCFG.h</title>
<polygon fill="white" stroke="transparent" points="-4,4 -4,-326 1000.5,-326 1000.5,4 -4,4"/>
<!-- Node1 -->
<g id="node1" class="node">
<title>Node1</title>
<g id="a_node1"><a xlink:title=" ">
<polygon fill="#bfbfbf" stroke="black" points="650.5,-302.5 650.5,-321.5 742.5,-321.5 742.5,-302.5 650.5,-302.5"/>
<text text-anchor="middle" x="696.5" y="-309.5" font-family="Helvetica,sans-Serif" font-size="10.00">LowLevelCFG.h</text>
</a>
</g>
</g>
<!-- Node2 -->
<g id="node2" class="node">
<title>Node2</title>
<g id="a_node2"><a xlink:href="MachineInstruction_8h.html" target="_top" xlink:title=" ">
<polygon fill="white" stroke="black" points="319.5,-235.5 319.5,-265.5 441.5,-265.5 441.5,-235.5 319.5,-235.5"/>
<text text-anchor="start" x="327.5" y="-253.5" font-family="Helvetica,sans-Serif" font-size="10.00">boomerang/frontend</text>
<text text-anchor="middle" x="380.5" y="-242.5" font-family="Helvetica,sans-Serif" font-size="10.00">/MachineInstruction.h</text>
</a>
</g>
</g>
<!-- Node1&#45;&gt;Node2 -->
<g id="edge1" class="edge">
<title>Node1&#45;&gt;Node2</title>
<path fill="none" stroke="midnightblue" d="M651.22,-302.48C599.09,-292.66 512.79,-276.41 451.65,-264.9"/>
<polygon fill="midnightblue" stroke="midnightblue" points="452.16,-261.43 441.69,-263.02 450.87,-268.31 452.16,-261.43"/>
</g>
<!-- Node8 -->
<g id="node8" class="node">
<title>Node8</title>
<g id="a_node8"><a xlink:title=" ">
<polygon fill="white" stroke="#bfbfbf" points="631.5,-123.5 631.5,-142.5 689.5,-142.5 689.5,-123.5 631.5,-123.5"/>
<text text-anchor="middle" x="660.5" y="-130.5" font-family="Helvetica,sans-Serif" font-size="10.00">memory</text>
</a>
</g>
</g>
<!-- Node1&#45;&gt;Node8 -->
<g id="edge32" class="edge">
<title>Node1&#45;&gt;Node8</title>
<path fill="none" stroke="midnightblue" d="M694.76,-302.46C689.26,-275.43 672.14,-191.24 664.39,-153.11"/>
<polygon fill="midnightblue" stroke="midnightblue" points="667.73,-151.97 662.3,-142.87 660.87,-153.37 667.73,-151.97"/>
</g>
<!-- Node11 -->
<g id="node11" class="node">
<title>Node11</title>
<g id="a_node11"><a xlink:href="ExpHelp_8h.html" target="_top" xlink:title=" ">
<polygon fill="white" stroke="black" points="686.5,-179.5 686.5,-198.5 848.5,-198.5 848.5,-179.5 686.5,-179.5"/>
<text text-anchor="middle" x="767.5" y="-186.5" font-family="Helvetica,sans-Serif" font-size="10.00">boomerang/ssl/exp/ExpHelp.h</text>
</a>
</g>
</g>
<!-- Node1&#45;&gt;Node11 -->
<g id="edge26" class="edge">
<title>Node1&#45;&gt;Node11</title>
<path fill="none" stroke="midnightblue" d="M697.13,-302.38C698.56,-287.59 703.04,-256.83 716.5,-235 723.86,-223.06 735.37,-212.52 745.59,-204.64"/>
<polygon fill="midnightblue" stroke="midnightblue" points="747.74,-207.41 753.75,-198.68 743.61,-201.75 747.74,-207.41"/>
</g>
<!-- Node12 -->
<g id="node12" class="node">
<title>Node12</title>
<g id="a_node12"><a xlink:href="Address_8h.html" target="_top" xlink:title=" ">
<polygon fill="white" stroke="black" points="96.5,-179.5 96.5,-198.5 238.5,-198.5 238.5,-179.5 96.5,-179.5"/>
<text text-anchor="middle" x="167.5" y="-186.5" font-family="Helvetica,sans-Serif" font-size="10.00">boomerang/util/Address.h</text>
</a>
</g>
</g>
<!-- Node1&#45;&gt;Node12 -->
<g id="edge27" class="edge">
<title>Node1&#45;&gt;Node12</title>
<path fill="none" stroke="midnightblue" d="M650.5,-311.1C576.97,-310.05 429.17,-303.01 310.5,-266 264.16,-251.55 215.29,-222.02 188.37,-204.33"/>
<polygon fill="midnightblue" stroke="midnightblue" points="190.07,-201.25 179.81,-198.61 186.18,-207.07 190.07,-201.25"/>
</g>
<!-- Node18 -->
<g id="node18" class="node">
<title>Node18</title>
<g id="a_node18"><a xlink:href="MapIterators_8h.html" target="_top" xlink:title=" ">
<polygon fill="white" stroke="black" points="725,-241 725,-260 890,-260 890,-241 725,-241"/>
<text text-anchor="middle" x="807.5" y="-248" font-family="Helvetica,sans-Serif" font-size="10.00">boomerang/util/MapIterators.h</text>
</a>
</g>
</g>
<!-- Node1&#45;&gt;Node18 -->
<g id="edge28" class="edge">
<title>Node1&#45;&gt;Node18</title>
<path fill="none" stroke="midnightblue" d="M712.4,-302.48C730.78,-292.62 761.26,-276.29 782.74,-264.77"/>
<polygon fill="midnightblue" stroke="midnightblue" points="784.47,-267.82 791.63,-260.01 781.16,-261.65 784.47,-267.82"/>
</g>
<!-- Node20 -->
<g id="node20" class="node">
<title>Node20</title>
<g id="a_node20"><a xlink:title=" ">
<polygon fill="white" stroke="#bfbfbf" points="908.5,-241 908.5,-260 940.5,-260 940.5,-241 908.5,-241"/>
<text text-anchor="middle" x="924.5" y="-248" font-family="Helvetica,sans-Serif" font-size="10.00">list</text>
</a>
</g>
</g>
<!-- Node1&#45;&gt;Node20 -->
<g id="edge30" class="edge">
<title>Node1&#45;&gt;Node20</title>
<path fill="none" stroke="midnightblue" d="M742.83,-304.88C784.77,-298.38 847.71,-286.2 899.5,-266 900.38,-265.66 901.26,-265.29 902.15,-264.89"/>
<polygon fill="midnightblue" stroke="midnightblue" points="904.11,-267.82 911.39,-260.12 900.9,-261.6 904.11,-267.82"/>
</g>
<!-- Node21 -->
<g id="node21" class="node">
<title>Node21</title>
<g id="a_node21"><a xlink:title=" ">
<polygon fill="white" stroke="#bfbfbf" points="958.5,-241 958.5,-260 996.5,-260 996.5,-241 958.5,-241"/>
<text text-anchor="middle" x="977.5" y="-248" font-family="Helvetica,sans-Serif" font-size="10.00">map</text>
</a>
</g>
</g>
<!-- Node1&#45;&gt;Node21 -->
<g id="edge31" class="edge">
<title>Node1&#45;&gt;Node21</title>
<path fill="none" stroke="midnightblue" d="M742.78,-306.99C794.32,-301.57 879.58,-289.71 949.5,-266 950.93,-265.52 952.37,-264.97 953.81,-264.38"/>
<polygon fill="midnightblue" stroke="midnightblue" points="955.48,-267.46 963.05,-260.04 952.51,-261.12 955.48,-267.46"/>
</g>
<!-- Node3 -->
<g id="node3" class="node">
<title>Node3</title>
<g id="a_node3"><a xlink:href="BoomerangAPI_8h.html" target="_top" xlink:title=" ">
<polygon fill="white" stroke="black" points="338,-56.5 338,-86.5 493,-86.5 493,-56.5 338,-56.5"/>
<text text-anchor="start" x="346" y="-74.5" font-family="Helvetica,sans-Serif" font-size="10.00">boomerang/core/Boomerang</text>
<text text-anchor="middle" x="415.5" y="-63.5" font-family="Helvetica,sans-Serif" font-size="10.00">API.h</text>
</a>
</g>
</g>
<!-- Node2&#45;&gt;Node3 -->
<g id="edge2" class="edge">
<title>Node2&#45;&gt;Node3</title>
<path fill="none" stroke="midnightblue" d="M366.09,-235.25C353.91,-221.41 339.35,-199.55 345.5,-179 355.26,-146.4 378.56,-114.53 395.61,-94.28"/>
<polygon fill="midnightblue" stroke="midnightblue" points="398.35,-96.45 402.24,-86.6 393.06,-91.87 398.35,-96.45"/>
</g>
<!-- Node4 -->
<g id="node4" class="node">
<title>Node4</title>
<g id="a_node4"><a xlink:href="Register_8h.html" target="_top" xlink:title=" ">
<polygon fill="white" stroke="black" points="489,-179.5 489,-198.5 630,-198.5 630,-179.5 489,-179.5"/>
<text text-anchor="middle" x="559.5" y="-186.5" font-family="Helvetica,sans-Serif" font-size="10.00">boomerang/ssl/Register.h</text>
</a>
</g>
</g>
<!-- Node2&#45;&gt;Node4 -->
<g id="edge3" class="edge">
<title>Node2&#45;&gt;Node4</title>
<path fill="none" stroke="midnightblue" d="M422.92,-235.4C453.72,-225.16 494.91,-211.47 523.98,-201.81"/>
<polygon fill="midnightblue" stroke="midnightblue" points="525.33,-205.05 533.72,-198.57 523.12,-198.4 525.33,-205.05"/>
</g>
<!-- Node5 -->
<g id="node5" class="node">
<title>Node5</title>
<g id="a_node5"><a xlink:href="Types_8h.html" target="_top" xlink:title=" ">
<polygon fill="white" stroke="black" points="0,-62 0,-81 131,-81 131,-62 0,-62"/>
<text text-anchor="middle" x="65.5" y="-69" font-family="Helvetica,sans-Serif" font-size="10.00">boomerang/util/Types.h</text>
</a>
</g>
</g>
<!-- Node2&#45;&gt;Node5 -->
<g id="edge22" class="edge">
<title>Node2&#45;&gt;Node5</title>
<path fill="none" stroke="midnightblue" d="M319.28,-246.38C243.72,-241.3 121.07,-228.64 87.5,-199 57.1,-172.16 58.8,-119.58 62.33,-91.4"/>
<polygon fill="midnightblue" stroke="midnightblue" points="65.82,-91.67 63.81,-81.27 58.9,-90.66 65.82,-91.67"/>
</g>
<!-- Node2&#45;&gt;Node11 -->
<g id="edge11" class="edge">
<title>Node2&#45;&gt;Node11</title>
<path fill="none" stroke="midnightblue" d="M441.82,-240.07C512.86,-229.15 629.44,-211.23 702.15,-200.05"/>
<polygon fill="midnightblue" stroke="midnightblue" points="702.76,-203.5 712.11,-198.52 701.69,-196.58 702.76,-203.5"/>
</g>
<!-- Node2&#45;&gt;Node12 -->
<g id="edge14" class="edge">
<title>Node2&#45;&gt;Node12</title>
<path fill="none" stroke="midnightblue" d="M330.29,-235.47C292.9,-225.03 242.52,-210.96 207.76,-201.25"/>
<polygon fill="midnightblue" stroke="midnightblue" points="208.52,-197.83 197.95,-198.51 206.64,-204.57 208.52,-197.83"/>
</g>
<!-- Node15 -->
<g id="node15" class="node">
<title>Node15</title>
<g id="a_node15"><a xlink:title=" ">
<polygon fill="white" stroke="#bfbfbf" points="256.5,-179.5 256.5,-198.5 298.5,-198.5 298.5,-179.5 256.5,-179.5"/>
<text text-anchor="middle" x="277.5" y="-186.5" font-family="Helvetica,sans-Serif" font-size="10.00">array</text>
</a>
</g>
</g>
<!-- Node2&#45;&gt;Node15 -->
<g id="edge23" class="edge">
<title>Node2&#45;&gt;Node15</title>
<path fill="none" stroke="midnightblue" d="M356.09,-235.4C339.58,-225.86 317.88,-213.32 301.46,-203.84"/>
<polygon fill="midnightblue" stroke="midnightblue" points="302.9,-200.63 292.49,-198.66 299.4,-206.69 302.9,-200.63"/>
</g>
<!-- Node16 -->
<g id="node16" class="node">
<title>Node16</title>
<g id="a_node16"><a xlink:title=" ">
<polygon fill="white" stroke="#bfbfbf" points="355,-179.5 355,-198.5 406,-198.5 406,-179.5 355,-179.5"/>
<text text-anchor="middle" x="380.5" y="-186.5" font-family="Helvetica,sans-Serif" font-size="10.00">variant</text>
</a>
</g>
</g>
<!-- Node2&#45;&gt;Node16 -->
<g id="edge24" class="edge">
<title>Node2&#45;&gt;Node16</title>
<path fill="none" stroke="midnightblue" d="M380.5,-235.4C380.5,-227.47 380.5,-217.46 380.5,-208.86"/>
<polygon fill="midnightblue" stroke="midnightblue" points="384,-208.66 380.5,-198.66 377,-208.66 384,-208.66"/>
</g>
<!-- Node17 -->
<g id="node17" class="node">
<title>Node17</title>
<g id="a_node17"><a xlink:title=" ">
<polygon fill="white" stroke="#bfbfbf" points="424,-179.5 424,-198.5 471,-198.5 471,-179.5 424,-179.5"/>
<text text-anchor="middle" x="447.5" y="-186.5" font-family="Helvetica,sans-Serif" font-size="10.00">vector</text>
</a>
</g>
</g>
<!-- Node2&#45;&gt;Node17 -->
<g id="edge25" class="edge">
<title>Node2&#45;&gt;Node17</title>
<path fill="none" stroke="midnightblue" d="M396.38,-235.4C406.52,-226.4 419.66,-214.72 430.09,-205.47"/>
<polygon fill="midnightblue" stroke="midnightblue" points="432.6,-207.92 437.75,-198.66 427.95,-202.68 432.6,-207.92"/>
</g>
<!-- Node4&#45;&gt;Node3 -->
<g id="edge4" class="edge">
<title>Node4&#45;&gt;Node3</title>
<path fill="none" stroke="midnightblue" d="M567.63,-179.25C578.92,-166.01 596.56,-140.57 583.5,-123 564.64,-97.64 533.47,-84.54 503.06,-77.93"/>
<polygon fill="midnightblue" stroke="midnightblue" points="503.72,-74.49 493.23,-76.01 502.37,-81.36 503.72,-74.49"/>
</g>
<!-- Node4&#45;&gt;Node5 -->
<g id="edge5" class="edge">
<title>Node4&#45;&gt;Node5</title>
<path fill="none" stroke="midnightblue" d="M536.79,-179.48C499.73,-165.85 423.74,-139.06 357.5,-123 262.49,-99.96 236.72,-104.28 140.5,-87 133.41,-85.73 125.95,-84.34 118.6,-82.95"/>
<polygon fill="midnightblue" stroke="midnightblue" points="119.17,-79.49 108.69,-81.05 117.86,-86.37 119.17,-79.49"/>
</g>
<!-- Node7 -->
<g id="node7" class="node">
<title>Node7</title>
<g id="a_node7"><a xlink:title=" ">
<polygon fill="white" stroke="#bfbfbf" points="296,-123.5 296,-142.5 349,-142.5 349,-123.5 296,-123.5"/>
<text text-anchor="middle" x="322.5" y="-130.5" font-family="Helvetica,sans-Serif" font-size="10.00">QString</text>
</a>
</g>
</g>
<!-- Node4&#45;&gt;Node7 -->
<g id="edge7" class="edge">
<title>Node4&#45;&gt;Node7</title>
<path fill="none" stroke="midnightblue" d="M521.95,-179.44C477.26,-169.26 403.17,-152.38 358.97,-142.31"/>
<polygon fill="midnightblue" stroke="midnightblue" points="359.74,-138.9 349.21,-140.09 358.19,-145.72 359.74,-138.9"/>
</g>
<!-- Node4&#45;&gt;Node8 -->
<g id="edge8" class="edge">
<title>Node4&#45;&gt;Node8</title>
<path fill="none" stroke="midnightblue" d="M575.73,-179.32C591.85,-170.7 616.8,-157.36 635.46,-147.39"/>
<polygon fill="midnightblue" stroke="midnightblue" points="637.14,-150.46 644.31,-142.65 633.84,-144.28 637.14,-150.46"/>
</g>
<!-- Node9 -->
<g id="node9" class="node">
<title>Node9</title>
<g id="a_node9"><a xlink:title=" ">
<polygon fill="white" stroke="#bfbfbf" points="443.5,-123.5 443.5,-142.5 487.5,-142.5 487.5,-123.5 443.5,-123.5"/>
<text text-anchor="middle" x="465.5" y="-130.5" font-family="Helvetica,sans-Serif" font-size="10.00">string</text>
</a>
</g>
</g>
<!-- Node4&#45;&gt;Node9 -->
<g id="edge9" class="edge">
<title>Node4&#45;&gt;Node9</title>
<path fill="none" stroke="midnightblue" d="M544.4,-179.32C529.6,-170.82 506.81,-157.73 489.52,-147.8"/>
<polygon fill="midnightblue" stroke="midnightblue" points="490.98,-144.6 480.57,-142.65 487.49,-150.67 490.98,-144.6"/>
</g>
<!-- Node10 -->
<g id="node10" class="node">
<title>Node10</title>
<g id="a_node10"><a xlink:title=" ">
<polygon fill="white" stroke="#bfbfbf" points="506,-123.5 506,-142.5 575,-142.5 575,-123.5 506,-123.5"/>
<text text-anchor="middle" x="540.5" y="-130.5" font-family="Helvetica,sans-Serif" font-size="10.00">type_traits</text>
</a>
</g>
</g>
<!-- Node4&#45;&gt;Node10 -->
<g id="edge10" class="edge">
<title>Node4&#45;&gt;Node10</title>
<path fill="none" stroke="midnightblue" d="M556.36,-179.08C553.82,-171.85 550.14,-161.41 546.97,-152.4"/>
<polygon fill="midnightblue" stroke="midnightblue" points="550.2,-151.02 543.58,-142.75 543.6,-153.35 550.2,-151.02"/>
</g>
<!-- Node6 -->
<g id="node6" class="node">
<title>Node6</title>
<g id="a_node6"><a xlink:title=" ">
<polygon fill="white" stroke="#bfbfbf" points="40.5,-0.5 40.5,-19.5 90.5,-19.5 90.5,-0.5 40.5,-0.5"/>
<text text-anchor="middle" x="65.5" y="-7.5" font-family="Helvetica,sans-Serif" font-size="10.00">cstdint</text>
</a>
</g>
</g>
<!-- Node5&#45;&gt;Node6 -->
<g id="edge6" class="edge">
<title>Node5&#45;&gt;Node6</title>
<path fill="none" stroke="midnightblue" d="M65.5,-61.98C65.5,-53.58 65.5,-40.48 65.5,-29.66"/>
<polygon fill="midnightblue" stroke="midnightblue" points="69,-29.51 65.5,-19.51 62,-29.51 69,-29.51"/>
</g>
<!-- Node11&#45;&gt;Node3 -->
<g id="edge12" class="edge">
<title>Node11&#45;&gt;Node3</title>
<path fill="none" stroke="midnightblue" d="M760.98,-179.16C749.88,-164.84 725.85,-136.76 698.5,-123 637.72,-92.43 561.43,-80.1 503.38,-75.25"/>
<polygon fill="midnightblue" stroke="midnightblue" points="503.37,-71.73 493.13,-74.45 502.83,-78.71 503.37,-71.73"/>
</g>
<!-- Node11&#45;&gt;Node8 -->
<g id="edge13" class="edge">
<title>Node11&#45;&gt;Node8</title>
<path fill="none" stroke="midnightblue" d="M750.31,-179.32C733.15,-170.66 706.55,-157.24 686.75,-147.25"/>
<polygon fill="midnightblue" stroke="midnightblue" points="688.15,-144.04 677.65,-142.65 685,-150.28 688.15,-144.04"/>
</g>
<!-- Node12&#45;&gt;Node3 -->
<g id="edge15" class="edge">
<title>Node12&#45;&gt;Node3</title>
<path fill="none" stroke="midnightblue" d="M183.24,-179.26C213.15,-162.67 276.15,-127.83 286.5,-123 312.38,-110.93 342,-99.19 366.33,-90.07"/>
<polygon fill="midnightblue" stroke="midnightblue" points="367.56,-93.35 375.72,-86.59 365.13,-86.79 367.56,-93.35"/>
</g>
<!-- Node12&#45;&gt;Node5 -->
<g id="edge20" class="edge">
<title>Node12&#45;&gt;Node5</title>
<path fill="none" stroke="midnightblue" d="M139.79,-179.44C121.55,-172.44 98.52,-160.75 84.5,-143 72.85,-128.26 68.32,-106.95 66.57,-91.63"/>
<polygon fill="midnightblue" stroke="midnightblue" points="70.03,-90.95 65.71,-81.28 63.05,-91.54 70.03,-90.95"/>
</g>
<!-- Node12&#45;&gt;Node7 -->
<g id="edge21" class="edge">
<title>Node12&#45;&gt;Node7</title>
<path fill="none" stroke="midnightblue" d="M192.06,-179.44C218.02,-170.4 259.17,-156.06 288.3,-145.92"/>
<polygon fill="midnightblue" stroke="midnightblue" points="289.76,-149.11 298.05,-142.52 287.46,-142.5 289.76,-149.11"/>
</g>
<!-- Node13 -->
<g id="node13" class="node">
<title>Node13</title>
<g id="a_node13"><a xlink:href="OStream_8h.html" target="_top" xlink:title=" ">
<polygon fill="white" stroke="black" points="93.5,-123.5 93.5,-142.5 239.5,-142.5 239.5,-123.5 93.5,-123.5"/>
<text text-anchor="middle" x="166.5" y="-130.5" font-family="Helvetica,sans-Serif" font-size="10.00">boomerang/util/OStream.h</text>
</a>
</g>
</g>
<!-- Node12&#45;&gt;Node13 -->
<g id="edge16" class="edge">
<title>Node12&#45;&gt;Node13</title>
<path fill="none" stroke="midnightblue" d="M167.33,-179.08C167.2,-172.01 167.02,-161.86 166.85,-152.99"/>
<polygon fill="midnightblue" stroke="midnightblue" points="170.35,-152.68 166.66,-142.75 163.35,-152.81 170.35,-152.68"/>
</g>
<!-- Node13&#45;&gt;Node3 -->
<g id="edge17" class="edge">
<title>Node13&#45;&gt;Node3</title>
<path fill="none" stroke="midnightblue" d="M202.18,-123.48C239.84,-114.48 300.13,-100.07 347.03,-88.86"/>
<polygon fill="midnightblue" stroke="midnightblue" points="347.9,-92.25 356.82,-86.52 346.28,-85.44 347.9,-92.25"/>
</g>
<!-- Node13&#45;&gt;Node5 -->
<g id="edge18" class="edge">
<title>Node13&#45;&gt;Node5</title>
<path fill="none" stroke="midnightblue" d="M152.03,-123.48C135.53,-113.75 108.32,-97.73 88.82,-86.24"/>
<polygon fill="midnightblue" stroke="midnightblue" points="90.34,-83.07 79.94,-81.01 86.78,-89.1 90.34,-83.07"/>
</g>
<!-- Node14 -->
<g id="node14" class="node">
<title>Node14</title>
<g id="a_node14"><a xlink:title=" ">
<polygon fill="white" stroke="#bfbfbf" points="149.5,-62 149.5,-81 195.5,-81 195.5,-62 149.5,-62"/>
<text text-anchor="middle" x="172.5" y="-69" font-family="Helvetica,sans-Serif" font-size="10.00">cstdio</text>
</a>
</g>
</g>
<!-- Node13&#45;&gt;Node14 -->
<g id="edge19" class="edge">
<title>Node13&#45;&gt;Node14</title>
<path fill="none" stroke="midnightblue" d="M167.36,-123.48C168.21,-115.08 169.53,-101.98 170.62,-91.16"/>
<polygon fill="midnightblue" stroke="midnightblue" points="174.12,-91.31 171.64,-81.01 167.16,-90.61 174.12,-91.31"/>
</g>
<!-- Node19 -->
<g id="node19" class="node">
<title>Node19</title>
<g id="a_node19"><a xlink:title=" ">
<polygon fill="white" stroke="#bfbfbf" points="867,-179.5 867,-198.5 920,-198.5 920,-179.5 867,-179.5"/>
<text text-anchor="middle" x="893.5" y="-186.5" font-family="Helvetica,sans-Serif" font-size="10.00">iterator</text>
</a>
</g>
</g>
<!-- Node18&#45;&gt;Node19 -->
<g id="edge29" class="edge">
<title>Node18&#45;&gt;Node19</title>
<path fill="none" stroke="midnightblue" d="M819.82,-240.98C833.62,-231.43 856.2,-215.81 872.73,-204.37"/>
<polygon fill="midnightblue" stroke="midnightblue" points="874.97,-207.08 881.2,-198.51 870.99,-201.32 874.97,-207.08"/>
</g>
</g>
</svg>
        <g id="navigator" transform="translate(0 0)" fill="#404254">
                <rect fill="#f2f5e9" fill-opacity="0.5" stroke="#606060" stroke-width=".5" x="0" y="0" width="60" height="60"/>
                <use id="zoomplus" xlink:href="#zoomPlus" x="17" y="9" onmousedown="handleZoom(evt,'in')"/>
                <use id="zoomminus" xlink:href="#zoomMin" x="42" y="9" onmousedown="handleZoom(evt,'out')"/>
                <use id="reset" xlink:href="#resetDef" x="30" y="36" onmousedown="handleReset()"/>
                <g id="arrowUp" xlink:href="#dirArrow" transform="translate(30 24)" onmousedown="handlePan(0,-1)">
                  <use xlink:href="#rim" fill="#404040">
                        <set attributeName="fill" to="#808080" begin="arrowUp.mouseover" end="arrowUp.mouseout"/>
                  </use>
                  <path fill="none" stroke="white" stroke-width="1.5" d="M0,-3.0v7 M-2.5,-0.5L0,-3.0L2.5,-0.5"/>
                </g>
                <g id="arrowRight" xlink:href="#dirArrow" transform="rotate(90) translate(36 -43)" onmousedown="handlePan(1,0)">
                  <use xlink:href="#rim" fill="#404040">
                        <set attributeName="fill" to="#808080" begin="arrowRight.mouseover" end="arrowRight.mouseout"/>
                  </use>
                  <path fill="none" stroke="white" stroke-width="1.5" d="M0,-3.0v7 M-2.5,-0.5L0,-3.0L2.5,-0.5"/>
                </g>
                <g id="arrowDown" xlink:href="#dirArrow" transform="rotate(180) translate(-30 -48)" onmousedown="handlePan(0,1)">
                  <use xlink:href="#rim" fill="#404040">
                        <set attributeName="fill" to="#808080" begin="arrowDown.mouseover" end="arrowDown.mouseout"/>
                  </use>
                  <path fill="none" stroke="white" stroke-width="1.5" d="M0,-3.0v7 M-2.5,-0.5L0,-3.0L2.5,-0.5"/>
                </g>
                <g id="arrowLeft" xlink:href="#dirArrow" transform="rotate(270) translate(-36 17)" onmousedown="handlePan(-1,0)">
                  <use xlink:href="#rim" fill="#404040">
                        <set attributeName="fill" to="#808080" begin="arrowLeft.mouseover" end="arrowLeft.mouseout"/>
                  </use>
                  <path fill="none" stroke="white" stroke-width="1.5" d="M0,-3.0v7 M-2.5,-0.5L0,-3.0L2.5,-0.5"/>
                </g>
        </g>
        <svg viewBox="0 0 15 15" width="100%" height="30px" preserveAspectRatio="xMaxYMin meet">
         <g id="arrow_out" transform="scale(0.3 0.3)">
          <a xlink:href="LowLevelCFG_8h__incl_org.svg" target="_base">
           <rect id="button" ry="5" rx="5" y="6" x="6" height="38" width="38"
                fill="#f2f5e9" fill-opacity="0.5" stroke="#606060" stroke-width="1.0"/>
           <path id="arrow"
             d="M 11.500037,31.436501 C 11.940474,20.09759 22.043105,11.32322 32.158766,21.979434 L 37.068811,17.246167 C 37.068811,17.246167 37.088388,32 37.088388,32 L 22.160133,31.978069 C 22.160133,31.978069 26.997745,27.140456 26.997745,27.140456 C 18.528582,18.264221 13.291696,25.230495 11.500037,31.436501 z"
             style="fill:#404040;"/>
          </a>
         </g>
        </svg>
</svg>
