<?xml version="1.0" encoding="UTF-8" standalone="no"?>
<!DOCTYPE svg PUBLIC "-//W3C//DTD SVG 1.1//EN"
 "http://www.w3.org/Graphics/SVG/1.1/DTD/svg11.dtd">
<!-- Generated by graphviz version 2.43.0 (0)
 -->
<!-- Title: MachOBinaryLoader.h Pages: 1 -->
<svg width="753pt" height="386pt"
 viewBox="0.00 0.00 753.00 386.00" xmlns="http://www.w3.org/2000/svg" xmlns:xlink="http://www.w3.org/1999/xlink">
<g id="graph0" class="graph" transform="scale(1 1) rotate(0) translate(4 382)">
<title>MachOBinaryLoader.h</title>
<polygon fill="white" stroke="transparent" points="-4,4 -4,-382 749,-382 749,4 -4,4"/>
<!-- Node1 -->
<g id="node1" class="node">
<title>Node1</title>
<g id="a_node1"><a xlink:title=" ">
<polygon fill="#bfbfbf" stroke="black" points="490.5,-358.5 490.5,-377.5 614.5,-377.5 614.5,-358.5 490.5,-358.5"/>
<text text-anchor="middle" x="552.5" y="-365.5" font-family="Helvetica,sans-Serif" font-size="10.00">MachOBinaryLoader.h</text>
</a>
</g>
</g>
<!-- Node2 -->
<g id="node2" class="node">
<title>Node2</title>
<g id="a_node2"><a xlink:href="BoomerangAPI_8h.html" target="_top" xlink:title=" ">
<polygon fill="white" stroke="black" points="0,-56.5 0,-86.5 155,-86.5 155,-56.5 0,-56.5"/>
<text text-anchor="start" x="8" y="-74.5" font-family="Helvetica,sans-Serif" font-size="10.00">boomerang/core/Boomerang</text>
<text text-anchor="middle" x="77.5" y="-63.5" font-family="Helvetica,sans-Serif" font-size="10.00">API.h</text>
</a>
</g>
</g>
<!-- Node1&#45;&gt;Node2 -->
<g id="edge1" class="edge">
<title>Node1&#45;&gt;Node2</title>
<path fill="none" stroke="midnightblue" d="M490.19,-365.36C357.8,-360.17 60.5,-338.8 60.5,-251.5 60.5,-251.5 60.5,-251.5 60.5,-188 60.5,-156.16 66.9,-119.89 71.85,-96.63"/>
<polygon fill="midnightblue" stroke="midnightblue" points="75.32,-97.15 74.06,-86.63 68.49,-95.64 75.32,-97.15"/>
</g>
<!-- Node3 -->
<g id="node3" class="node">
<title>Node3</title>
<g id="a_node3"><a xlink:href="IFileLoader_8h.html" target="_top" xlink:title=" ">
<polygon fill="white" stroke="black" points="424.5,-302.5 424.5,-321.5 576.5,-321.5 576.5,-302.5 424.5,-302.5"/>
<text text-anchor="middle" x="500.5" y="-309.5" font-family="Helvetica,sans-Serif" font-size="10.00">boomerang/ifc/IFileLoader.h</text>
</a>
</g>
</g>
<!-- Node1&#45;&gt;Node3 -->
<g id="edge2" class="edge">
<title>Node1&#45;&gt;Node3</title>
<path fill="none" stroke="midnightblue" d="M543.91,-358.08C536.34,-350.22 525.12,-338.57 515.99,-329.08"/>
<polygon fill="midnightblue" stroke="midnightblue" points="518.38,-326.53 508.93,-321.75 513.34,-331.38 518.38,-326.53"/>
</g>
<!-- Node20 -->
<g id="node20" class="node">
<title>Node20</title>
<g id="a_node20"><a xlink:title=" ">
<polygon fill="white" stroke="#bfbfbf" points="698,-179.5 698,-198.5 745,-198.5 745,-179.5 698,-179.5"/>
<text text-anchor="middle" x="721.5" y="-186.5" font-family="Helvetica,sans-Serif" font-size="10.00">vector</text>
</a>
</g>
</g>
<!-- Node1&#45;&gt;Node20 -->
<g id="edge26" class="edge">
<title>Node1&#45;&gt;Node20</title>
<path fill="none" stroke="midnightblue" d="M560.65,-358.46C587.13,-330.73 671.04,-242.85 705.99,-206.24"/>
<polygon fill="midnightblue" stroke="midnightblue" points="708.66,-208.52 713.03,-198.87 703.6,-203.68 708.66,-208.52"/>
</g>
<!-- Node21 -->
<g id="node21" class="node">
<title>Node21</title>
<g id="a_node21"><a xlink:title=" ">
<polygon fill="white" stroke="#bfbfbf" points="632.5,-302.5 632.5,-321.5 676.5,-321.5 676.5,-302.5 632.5,-302.5"/>
<text text-anchor="middle" x="654.5" y="-309.5" font-family="Helvetica,sans-Serif" font-size="10.00">string</text>
</a>
</g>
</g>
<!-- Node1&#45;&gt;Node21 -->
<g id="edge25" class="edge">
<title>Node1&#45;&gt;Node21</title>
<path fill="none" stroke="midnightblue" d="M568.89,-358.32C585.17,-349.7 610.37,-336.36 629.22,-326.39"/>
<polygon fill="midnightblue" stroke="midnightblue" points="630.95,-329.43 638.15,-321.65 627.68,-323.24 630.95,-329.43"/>
</g>
<!-- Node4 -->
<g id="node4" class="node">
<title>Node4</title>
<g id="a_node4"><a xlink:href="BinaryFile_8h.html" target="_top" xlink:title=" ">
<polygon fill="white" stroke="black" points="309,-235.5 309,-265.5 430,-265.5 430,-235.5 309,-235.5"/>
<text text-anchor="start" x="317" y="-253.5" font-family="Helvetica,sans-Serif" font-size="10.00">boomerang/db/binary</text>
<text text-anchor="middle" x="369.5" y="-242.5" font-family="Helvetica,sans-Serif" font-size="10.00">/BinaryFile.h</text>
</a>
</g>
</g>
<!-- Node3&#45;&gt;Node4 -->
<g id="edge3" class="edge">
<title>Node3&#45;&gt;Node4</title>
<path fill="none" stroke="midnightblue" d="M481.73,-302.48C462.99,-293.96 433.61,-280.62 409.61,-269.72"/>
<polygon fill="midnightblue" stroke="midnightblue" points="410.93,-266.47 400.37,-265.52 408.03,-272.85 410.93,-266.47"/>
</g>
<!-- Node12 -->
<g id="node12" class="node">
<title>Node12</title>
<g id="a_node12"><a xlink:href="BinaryImage_8h.html" target="_top" xlink:title=" ">
<polygon fill="white" stroke="black" points="448,-235.5 448,-265.5 569,-265.5 569,-235.5 448,-235.5"/>
<text text-anchor="start" x="456" y="-253.5" font-family="Helvetica,sans-Serif" font-size="10.00">boomerang/db/binary</text>
<text text-anchor="middle" x="508.5" y="-242.5" font-family="Helvetica,sans-Serif" font-size="10.00">/BinaryImage.h</text>
</a>
</g>
</g>
<!-- Node3&#45;&gt;Node12 -->
<g id="edge14" class="edge">
<title>Node3&#45;&gt;Node12</title>
<path fill="none" stroke="midnightblue" d="M501.65,-302.48C502.59,-295.47 503.97,-285.19 505.25,-275.7"/>
<polygon fill="midnightblue" stroke="midnightblue" points="508.75,-275.9 506.61,-265.52 501.81,-274.97 508.75,-275.9"/>
</g>
<!-- Node5 -->
<g id="node5" class="node">
<title>Node5</title>
<g id="a_node5"><a xlink:href="Address_8h.html" target="_top" xlink:title=" ">
<polygon fill="white" stroke="black" points="191.5,-179.5 191.5,-198.5 333.5,-198.5 333.5,-179.5 191.5,-179.5"/>
<text text-anchor="middle" x="262.5" y="-186.5" font-family="Helvetica,sans-Serif" font-size="10.00">boomerang/util/Address.h</text>
</a>
</g>
</g>
<!-- Node4&#45;&gt;Node5 -->
<g id="edge4" class="edge">
<title>Node4&#45;&gt;Node5</title>
<path fill="none" stroke="midnightblue" d="M344.14,-235.4C326.83,-225.77 304.02,-213.09 286.92,-203.58"/>
<polygon fill="midnightblue" stroke="midnightblue" points="288.51,-200.46 278.07,-198.66 285.11,-206.58 288.51,-200.46"/>
</g>
<!-- Node11 -->
<g id="node11" class="node">
<title>Node11</title>
<g id="a_node11"><a xlink:title=" ">
<polygon fill="white" stroke="#bfbfbf" points="351.5,-179.5 351.5,-198.5 409.5,-198.5 409.5,-179.5 351.5,-179.5"/>
<text text-anchor="middle" x="380.5" y="-186.5" font-family="Helvetica,sans-Serif" font-size="10.00">memory</text>
</a>
</g>
</g>
<!-- Node4&#45;&gt;Node11 -->
<g id="edge13" class="edge">
<title>Node4&#45;&gt;Node11</title>
<path fill="none" stroke="midnightblue" d="M372.11,-235.4C373.59,-227.38 375.47,-217.23 377.07,-208.57"/>
<polygon fill="midnightblue" stroke="midnightblue" points="380.52,-209.13 378.9,-198.66 373.64,-207.85 380.52,-209.13"/>
</g>
<!-- Node5&#45;&gt;Node2 -->
<g id="edge5" class="edge">
<title>Node5&#45;&gt;Node2</title>
<path fill="none" stroke="midnightblue" d="M200.84,-179.47C173.05,-173.12 141.21,-162.09 117.5,-143 102.39,-130.84 91.96,-111.34 85.55,-95.93"/>
<polygon fill="midnightblue" stroke="midnightblue" points="88.77,-94.57 81.9,-86.51 82.25,-97.1 88.77,-94.57"/>
</g>
<!-- Node6 -->
<g id="node6" class="node">
<title>Node6</title>
<g id="a_node6"><a xlink:href="OStream_8h.html" target="_top" xlink:title=" ">
<polygon fill="white" stroke="black" points="126.5,-123.5 126.5,-142.5 272.5,-142.5 272.5,-123.5 126.5,-123.5"/>
<text text-anchor="middle" x="199.5" y="-130.5" font-family="Helvetica,sans-Serif" font-size="10.00">boomerang/util/OStream.h</text>
</a>
</g>
</g>
<!-- Node5&#45;&gt;Node6 -->
<g id="edge6" class="edge">
<title>Node5&#45;&gt;Node6</title>
<path fill="none" stroke="midnightblue" d="M252.38,-179.32C242.97,-171.26 228.76,-159.08 217.43,-149.37"/>
<polygon fill="midnightblue" stroke="midnightblue" points="219.68,-146.68 209.81,-142.83 215.12,-152 219.68,-146.68"/>
</g>
<!-- Node7 -->
<g id="node7" class="node">
<title>Node7</title>
<g id="a_node7"><a xlink:href="Types_8h.html" target="_top" xlink:title=" ">
<polygon fill="white" stroke="black" points="238,-62 238,-81 369,-81 369,-62 238,-62"/>
<text text-anchor="middle" x="303.5" y="-69" font-family="Helvetica,sans-Serif" font-size="10.00">boomerang/util/Types.h</text>
</a>
</g>
</g>
<!-- Node5&#45;&gt;Node7 -->
<g id="edge11" class="edge">
<title>Node5&#45;&gt;Node7</title>
<path fill="none" stroke="midnightblue" d="M266.39,-179.47C270.42,-170.49 276.78,-155.9 281.5,-143 287.89,-125.54 294.1,-105.23 298.29,-90.91"/>
<polygon fill="midnightblue" stroke="midnightblue" points="301.66,-91.85 301.06,-81.27 294.93,-89.92 301.66,-91.85"/>
</g>
<!-- Node10 -->
<g id="node10" class="node">
<title>Node10</title>
<g id="a_node10"><a xlink:title=" ">
<polygon fill="white" stroke="#bfbfbf" points="329,-123.5 329,-142.5 382,-142.5 382,-123.5 329,-123.5"/>
<text text-anchor="middle" x="355.5" y="-130.5" font-family="Helvetica,sans-Serif" font-size="10.00">QString</text>
</a>
</g>
</g>
<!-- Node5&#45;&gt;Node10 -->
<g id="edge12" class="edge">
<title>Node5&#45;&gt;Node10</title>
<path fill="none" stroke="midnightblue" d="M277.44,-179.32C292.09,-170.82 314.63,-157.73 331.74,-147.8"/>
<polygon fill="midnightblue" stroke="midnightblue" points="333.7,-150.7 340.6,-142.65 330.19,-144.65 333.7,-150.7"/>
</g>
<!-- Node6&#45;&gt;Node2 -->
<g id="edge7" class="edge">
<title>Node6&#45;&gt;Node2</title>
<path fill="none" stroke="midnightblue" d="M182.02,-123.48C164.73,-115.04 137.69,-101.86 115.45,-91.01"/>
<polygon fill="midnightblue" stroke="midnightblue" points="116.78,-87.76 106.25,-86.52 113.71,-94.05 116.78,-87.76"/>
</g>
<!-- Node6&#45;&gt;Node7 -->
<g id="edge8" class="edge">
<title>Node6&#45;&gt;Node7</title>
<path fill="none" stroke="midnightblue" d="M214.4,-123.48C231.47,-113.71 259.66,-97.58 279.76,-86.08"/>
<polygon fill="midnightblue" stroke="midnightblue" points="281.69,-89.01 288.63,-81.01 278.21,-82.94 281.69,-89.01"/>
</g>
<!-- Node9 -->
<g id="node9" class="node">
<title>Node9</title>
<g id="a_node9"><a xlink:title=" ">
<polygon fill="white" stroke="#bfbfbf" points="173.5,-62 173.5,-81 219.5,-81 219.5,-62 173.5,-62"/>
<text text-anchor="middle" x="196.5" y="-69" font-family="Helvetica,sans-Serif" font-size="10.00">cstdio</text>
</a>
</g>
</g>
<!-- Node6&#45;&gt;Node9 -->
<g id="edge10" class="edge">
<title>Node6&#45;&gt;Node9</title>
<path fill="none" stroke="midnightblue" d="M199.07,-123.48C198.65,-115.08 197.99,-101.98 197.44,-91.16"/>
<polygon fill="midnightblue" stroke="midnightblue" points="200.93,-90.82 196.93,-81.01 193.94,-91.17 200.93,-90.82"/>
</g>
<!-- Node8 -->
<g id="node8" class="node">
<title>Node8</title>
<g id="a_node8"><a xlink:title=" ">
<polygon fill="white" stroke="#bfbfbf" points="278.5,-0.5 278.5,-19.5 328.5,-19.5 328.5,-0.5 278.5,-0.5"/>
<text text-anchor="middle" x="303.5" y="-7.5" font-family="Helvetica,sans-Serif" font-size="10.00">cstdint</text>
</a>
</g>
</g>
<!-- Node7&#45;&gt;Node8 -->
<g id="edge9" class="edge">
<title>Node7&#45;&gt;Node8</title>
<path fill="none" stroke="midnightblue" d="M303.5,-61.98C303.5,-53.58 303.5,-40.48 303.5,-29.66"/>
<polygon fill="midnightblue" stroke="midnightblue" points="307,-29.51 303.5,-19.51 300,-29.51 307,-29.51"/>
</g>
<!-- Node12&#45;&gt;Node5 -->
<g id="edge15" class="edge">
<title>Node12&#45;&gt;Node5</title>
<path fill="none" stroke="midnightblue" d="M450.51,-235.47C406.78,-224.9 347.65,-210.59 307.46,-200.87"/>
<polygon fill="midnightblue" stroke="midnightblue" points="308.21,-197.46 297.67,-198.51 306.57,-204.26 308.21,-197.46"/>
</g>
<!-- Node12&#45;&gt;Node11 -->
<g id="edge23" class="edge">
<title>Node12&#45;&gt;Node11</title>
<path fill="none" stroke="midnightblue" d="M478.17,-235.4C456.98,-225.55 428.91,-212.5 408.3,-202.92"/>
<polygon fill="midnightblue" stroke="midnightblue" points="409.67,-199.7 399.13,-198.66 406.72,-206.05 409.67,-199.7"/>
</g>
<!-- Node13 -->
<g id="node13" class="node">
<title>Node13</title>
<g id="a_node13"><a xlink:href="IntervalMap_8h.html" target="_top" xlink:title=" ">
<polygon fill="white" stroke="black" points="428,-179.5 428,-198.5 589,-198.5 589,-179.5 428,-179.5"/>
<text text-anchor="middle" x="508.5" y="-186.5" font-family="Helvetica,sans-Serif" font-size="10.00">boomerang/util/IntervalMap.h</text>
</a>
</g>
</g>
<!-- Node12&#45;&gt;Node13 -->
<g id="edge16" class="edge">
<title>Node12&#45;&gt;Node13</title>
<path fill="none" stroke="midnightblue" d="M508.5,-235.4C508.5,-227.47 508.5,-217.46 508.5,-208.86"/>
<polygon fill="midnightblue" stroke="midnightblue" points="512,-208.66 508.5,-198.66 505,-208.66 512,-208.66"/>
</g>
<!-- Node19 -->
<g id="node19" class="node">
<title>Node19</title>
<g id="a_node19"><a xlink:title=" ">
<polygon fill="white" stroke="#bfbfbf" points="607,-179.5 607,-198.5 680,-198.5 680,-179.5 607,-179.5"/>
<text text-anchor="middle" x="643.5" y="-186.5" font-family="Helvetica,sans-Serif" font-size="10.00">QByteArray</text>
</a>
</g>
</g>
<!-- Node12&#45;&gt;Node19 -->
<g id="edge22" class="edge">
<title>Node12&#45;&gt;Node19</title>
<path fill="none" stroke="midnightblue" d="M540.49,-235.4C562.94,-225.51 592.71,-212.38 614.48,-202.79"/>
<polygon fill="midnightblue" stroke="midnightblue" points="616.12,-205.89 623.86,-198.66 613.29,-199.49 616.12,-205.89"/>
</g>
<!-- Node12&#45;&gt;Node20 -->
<g id="edge24" class="edge">
<title>Node12&#45;&gt;Node20</title>
<path fill="none" stroke="midnightblue" d="M558.83,-235.49C592.88,-226 639.14,-213.1 687.94,-199.43"/>
<polygon fill="midnightblue" stroke="midnightblue" points="689.05,-202.76 697.74,-196.69 687.16,-196.02 689.05,-202.76"/>
</g>
<!-- Node14 -->
<g id="node14" class="node">
<title>Node14</title>
<g id="a_node14"><a xlink:href="Interval_8h.html" target="_top" xlink:title=" ">
<polygon fill="white" stroke="black" points="400.5,-123.5 400.5,-142.5 540.5,-142.5 540.5,-123.5 400.5,-123.5"/>
<text text-anchor="middle" x="470.5" y="-130.5" font-family="Helvetica,sans-Serif" font-size="10.00">boomerang/util/Interval.h</text>
</a>
</g>
</g>
<!-- Node13&#45;&gt;Node14 -->
<g id="edge17" class="edge">
<title>Node13&#45;&gt;Node14</title>
<path fill="none" stroke="midnightblue" d="M502.23,-179.08C496.86,-171.46 488.98,-160.26 482.42,-150.94"/>
<polygon fill="midnightblue" stroke="midnightblue" points="485.28,-148.91 476.66,-142.75 479.55,-152.94 485.28,-148.91"/>
</g>
<!-- Node17 -->
<g id="node17" class="node">
<title>Node17</title>
<g id="a_node17"><a xlink:title=" ">
<polygon fill="white" stroke="#bfbfbf" points="558.5,-123.5 558.5,-142.5 610.5,-142.5 610.5,-123.5 558.5,-123.5"/>
<text text-anchor="middle" x="584.5" y="-130.5" font-family="Helvetica,sans-Serif" font-size="10.00">cassert</text>
</a>
</g>
</g>
<!-- Node13&#45;&gt;Node17 -->
<g id="edge20" class="edge">
<title>Node13&#45;&gt;Node17</title>
<path fill="none" stroke="midnightblue" d="M520.71,-179.32C532.28,-171.11 549.88,-158.6 563.66,-148.81"/>
<polygon fill="midnightblue" stroke="midnightblue" points="565.94,-151.48 572.07,-142.83 561.89,-145.77 565.94,-151.48"/>
</g>
<!-- Node18 -->
<g id="node18" class="node">
<title>Node18</title>
<g id="a_node18"><a xlink:title=" ">
<polygon fill="white" stroke="#bfbfbf" points="628.5,-123.5 628.5,-142.5 666.5,-142.5 666.5,-123.5 628.5,-123.5"/>
<text text-anchor="middle" x="647.5" y="-130.5" font-family="Helvetica,sans-Serif" font-size="10.00">map</text>
</a>
</g>
</g>
<!-- Node13&#45;&gt;Node18 -->
<g id="edge21" class="edge">
<title>Node13&#45;&gt;Node18</title>
<path fill="none" stroke="midnightblue" d="M530.52,-179.44C554.42,-170.16 592.65,-155.31 618.86,-145.13"/>
<polygon fill="midnightblue" stroke="midnightblue" points="620.21,-148.36 628.26,-141.47 617.68,-141.83 620.21,-148.36"/>
</g>
<!-- Node15 -->
<g id="node15" class="node">
<title>Node15</title>
<g id="a_node15"><a xlink:title=" ">
<polygon fill="white" stroke="#bfbfbf" points="482.5,-62 482.5,-81 546.5,-81 546.5,-62 482.5,-62"/>
<text text-anchor="middle" x="514.5" y="-69" font-family="Helvetica,sans-Serif" font-size="10.00">algorithm</text>
</a>
</g>
</g>
<!-- Node14&#45;&gt;Node15 -->
<g id="edge18" class="edge">
<title>Node14&#45;&gt;Node15</title>
<path fill="none" stroke="midnightblue" d="M476.8,-123.48C483.4,-114.55 493.94,-100.31 502.19,-89.14"/>
<polygon fill="midnightblue" stroke="midnightblue" points="505.08,-91.13 508.21,-81.01 499.45,-86.97 505.08,-91.13"/>
</g>
<!-- Node16 -->
<g id="node16" class="node">
<title>Node16</title>
<g id="a_node16"><a xlink:title=" ">
<polygon fill="white" stroke="#bfbfbf" points="419,-62 419,-81 464,-81 464,-62 419,-62"/>
<text text-anchor="middle" x="441.5" y="-69" font-family="Helvetica,sans-Serif" font-size="10.00">utility</text>
</a>
</g>
</g>
<!-- Node14&#45;&gt;Node16 -->
<g id="edge19" class="edge">
<title>Node14&#45;&gt;Node16</title>
<path fill="none" stroke="midnightblue" d="M466.35,-123.48C462.12,-114.82 455.46,-101.15 450.1,-90.15"/>
<polygon fill="midnightblue" stroke="midnightblue" points="453.17,-88.46 445.65,-81.01 446.88,-91.53 453.17,-88.46"/>
</g>
</g>
</svg>
