<?xml version="1.0" encoding="UTF-8" standalone="no"?>
<!DOCTYPE svg PUBLIC "-//W3C//DTD SVG 1.1//EN"
 "http://www.w3.org/Graphics/SVG/1.1/DTD/svg11.dtd">
<!-- Generated by graphviz version 2.43.0 (0)
 -->
<!-- Title: Module.h Pages: 1 -->
<!--zoomable 140 -->
<svg id="main" version="1.1" xmlns="http://www.w3.org/2000/svg" xmlns:xlink="http://www.w3.org/1999/xlink" xml:space="preserve" onload="init(evt)">
<style type="text/css"><![CDATA[
.edge:hover path { stroke: red; }
.edge:hover polygon { stroke: red; fill: red; }
]]></style>
<script type="text/javascript"><![CDATA[
var edges = document.getElementsByTagName('g');
if (edges && edges.length) {
  for (var i=0;i<edges.length;i++) {
    if (edges[i].id.substr(0,4)=='edge') {
      edges[i].setAttribute('class','edge');
    }
  }
}
]]></script>
        <defs>
                <circle id="rim" cx="0" cy="0" r="7"/>
                <circle id="rim2" cx="0" cy="0" r="3.5"/>
                <g id="zoomPlus">
                        <use xlink:href="#rim" fill="#404040">
                                <set attributeName="fill" to="#808080" begin="zoomplus.mouseover" end="zoomplus.mouseout"/>
                        </use>
                        <path d="M-4,0h8M0,-4v8" fill="none" stroke="white" stroke-width="1.5" pointer-events="none"/>
                </g>
                <g id="zoomMin">
                        <use xlink:href="#rim" fill="#404040">
                                <set attributeName="fill" to="#808080" begin="zoomminus.mouseover" end="zoomminus.mouseout"/>
                        </use>
                        <path d="M-4,0h8" fill="none" stroke="white" stroke-width="1.5" pointer-events="none"/>
                </g>
                <g id="dirArrow">
                        <path fill="none" stroke="white" stroke-width="1.5" d="M0,-3.0v7 M-2.5,-0.5L0,-3.0L2.5,-0.5"/>
                </g>
               <g id="resetDef">
                       <use xlink:href="#rim2" fill="#404040">
                               <set attributeName="fill" to="#808080" begin="reset.mouseover" end="reset.mouseout"/>
                       </use>
               </g>
        </defs>

<script type="text/javascript">
var viewWidth = 1965;
var viewHeight = 140;
var sectionId = 'dynsection-1';
</script>
<script xlink:href="svgpan.js"/>
<svg id="graph" class="graph">
<g id="viewport">
<title>Module.h</title>
<polygon fill="white" stroke="transparent" points="-4,4 -4,-136 1960.5,-136 1960.5,4 -4,4"/>
<!-- Node1 -->
<g id="node1" class="node">
<title>Node1</title>
<g id="a_node1"><a xlink:title=" ">
<polygon fill="#bfbfbf" stroke="black" points="888.5,-112.5 888.5,-131.5 950.5,-131.5 950.5,-112.5 888.5,-112.5"/>
<text text-anchor="middle" x="919.5" y="-119.5" font-family="Helvetica,sans-Serif" font-size="10.00">Module.h</text>
</a>
</g>
</g>
<!-- Node2 -->
<g id="node2" class="node">
<title>Node2</title>
<g id="a_node2"><a xlink:href="Class_8h.html" target="_top" xlink:title=" ">
<polygon fill="white" stroke="black" points="56.5,-56.5 56.5,-75.5 108.5,-75.5 108.5,-56.5 56.5,-56.5"/>
<text text-anchor="middle" x="82.5" y="-63.5" font-family="Helvetica,sans-Serif" font-size="10.00">Class.h</text>
</a>
</g>
</g>
<!-- Node1&#45;&gt;Node2 -->
<g id="edge1" class="edge">
<title>Node1&#45;&gt;Node2</title>
<path fill="none" stroke="midnightblue" d="M878.25,-121.42C759.51,-122.03 406.9,-119.75 118.5,-76 115.32,-75.52 112,-74.88 108.73,-74.17"/>
<polygon fill="midnightblue" stroke="midnightblue" points="878.38,-124.92 888.36,-121.35 878.34,-117.92 878.38,-124.92"/>
</g>
<!-- Node5 -->
<g id="node5" class="node">
<title>Node5</title>
<g id="a_node5"><a xlink:href="Module_8cpp.html" target="_top" xlink:title=" ">
<polygon fill="white" stroke="black" points="127,-56.5 127,-75.5 200,-75.5 200,-56.5 127,-56.5"/>
<text text-anchor="middle" x="163.5" y="-63.5" font-family="Helvetica,sans-Serif" font-size="10.00">Module.cpp</text>
</a>
</g>
</g>
<!-- Node1&#45;&gt;Node5 -->
<g id="edge4" class="edge">
<title>Node1&#45;&gt;Node5</title>
<path fill="none" stroke="midnightblue" d="M877.92,-120.25C768.22,-117.86 462.01,-108.56 209.5,-76 206.43,-75.6 203.26,-75.13 200.09,-74.6"/>
<polygon fill="midnightblue" stroke="midnightblue" points="878.15,-123.76 888.22,-120.47 878.29,-116.76 878.15,-123.76"/>
</g>
<!-- Node6 -->
<g id="node6" class="node">
<title>Node6</title>
<g id="a_node6"><a xlink:href="LibProc_8cpp.html" target="_top" xlink:title=" ">
<polygon fill="white" stroke="black" points="218.5,-56.5 218.5,-75.5 290.5,-75.5 290.5,-56.5 218.5,-56.5"/>
<text text-anchor="middle" x="254.5" y="-63.5" font-family="Helvetica,sans-Serif" font-size="10.00">LibProc.cpp</text>
</a>
</g>
</g>
<!-- Node1&#45;&gt;Node6 -->
<g id="edge5" class="edge">
<title>Node1&#45;&gt;Node6</title>
<path fill="none" stroke="midnightblue" d="M878.13,-119.78C778.25,-116.46 516.18,-105.41 299.5,-76 296.66,-75.61 293.73,-75.16 290.78,-74.66"/>
<polygon fill="midnightblue" stroke="midnightblue" points="878.28,-123.29 888.39,-120.12 878.51,-116.29 878.28,-123.29"/>
</g>
<!-- Node7 -->
<g id="node7" class="node">
<title>Node7</title>
<g id="a_node7"><a xlink:href="Proc_8cpp.html" target="_top" xlink:title=" ">
<polygon fill="white" stroke="black" points="308.5,-56.5 308.5,-75.5 366.5,-75.5 366.5,-56.5 308.5,-56.5"/>
<text text-anchor="middle" x="337.5" y="-63.5" font-family="Helvetica,sans-Serif" font-size="10.00">Proc.cpp</text>
</a>
</g>
</g>
<!-- Node1&#45;&gt;Node7 -->
<g id="edge6" class="edge">
<title>Node1&#45;&gt;Node7</title>
<path fill="none" stroke="midnightblue" d="M878.13,-119.7C786.88,-116.35 561.63,-105.57 375.5,-76 372.69,-75.55 369.78,-75.01 366.87,-74.42"/>
<polygon fill="midnightblue" stroke="midnightblue" points="878.21,-123.2 888.33,-120.06 878.46,-116.2 878.21,-123.2"/>
</g>
<!-- Node8 -->
<g id="node8" class="node">
<title>Node8</title>
<g id="a_node8"><a xlink:href="UserProc_8cpp.html" target="_top" xlink:title=" ">
<polygon fill="white" stroke="black" points="384.5,-56.5 384.5,-75.5 464.5,-75.5 464.5,-56.5 384.5,-56.5"/>
<text text-anchor="middle" x="424.5" y="-63.5" font-family="Helvetica,sans-Serif" font-size="10.00">UserProc.cpp</text>
</a>
</g>
</g>
<!-- Node1&#45;&gt;Node8 -->
<g id="edge7" class="edge">
<title>Node1&#45;&gt;Node8</title>
<path fill="none" stroke="midnightblue" d="M878.39,-117.91C799.74,-111.77 622.61,-96.79 474.5,-76 471.27,-75.55 467.93,-75.04 464.57,-74.49"/>
<polygon fill="midnightblue" stroke="midnightblue" points="878.14,-121.4 888.38,-118.69 878.68,-114.42 878.14,-121.4"/>
</g>
<!-- Node9 -->
<g id="node9" class="node">
<title>Node9</title>
<g id="a_node9"><a xlink:href="Prog_8cpp.html" target="_top" xlink:title=" ">
<polygon fill="white" stroke="black" points="483,-56.5 483,-75.5 542,-75.5 542,-56.5 483,-56.5"/>
<text text-anchor="middle" x="512.5" y="-63.5" font-family="Helvetica,sans-Serif" font-size="10.00">Prog.cpp</text>
</a>
</g>
</g>
<!-- Node1&#45;&gt;Node9 -->
<g id="edge8" class="edge">
<title>Node1&#45;&gt;Node9</title>
<path fill="none" stroke="midnightblue" d="M877.98,-117.36C809.6,-111.04 669.13,-96.71 551.5,-76 548.49,-75.47 545.36,-74.86 542.24,-74.2"/>
<polygon fill="midnightblue" stroke="midnightblue" points="878.04,-120.88 888.32,-118.3 878.68,-113.91 878.04,-120.88"/>
</g>
<!-- Node10 -->
<g id="node10" class="node">
<title>Node10</title>
<g id="a_node10"><a xlink:href="ProgDecompiler_8cpp.html" target="_top" xlink:title=" ">
<polygon fill="white" stroke="black" points="560,-56.5 560,-75.5 675,-75.5 675,-56.5 560,-56.5"/>
<text text-anchor="middle" x="617.5" y="-63.5" font-family="Helvetica,sans-Serif" font-size="10.00">ProgDecompiler.cpp</text>
</a>
</g>
</g>
<!-- Node1&#45;&gt;Node10 -->
<g id="edge9" class="edge">
<title>Node1&#45;&gt;Node10</title>
<path fill="none" stroke="midnightblue" d="M878.13,-113.6C822.55,-103.66 723.99,-86.04 665.3,-75.55"/>
<polygon fill="midnightblue" stroke="midnightblue" points="877.86,-117.11 888.32,-115.42 879.09,-110.22 877.86,-117.11"/>
</g>
<!-- Node11 -->
<g id="node11" class="node">
<title>Node11</title>
<g id="a_node11"><a xlink:href="UnusedReturnRemover_8cpp.html" target="_top" xlink:title=" ">
<polygon fill="white" stroke="black" points="693.5,-56.5 693.5,-75.5 843.5,-75.5 843.5,-56.5 693.5,-56.5"/>
<text text-anchor="middle" x="768.5" y="-63.5" font-family="Helvetica,sans-Serif" font-size="10.00">UnusedReturnRemover.cpp</text>
</a>
</g>
</g>
<!-- Node1&#45;&gt;Node11 -->
<g id="edge10" class="edge">
<title>Node1&#45;&gt;Node11</title>
<path fill="none" stroke="midnightblue" d="M886.05,-109.04C857.64,-98.88 817.56,-84.55 792.31,-75.52"/>
<polygon fill="midnightblue" stroke="midnightblue" points="884.98,-112.37 895.57,-112.44 887.34,-105.78 884.98,-112.37"/>
</g>
<!-- Node12 -->
<g id="node12" class="node">
<title>Node12</title>
<g id="a_node12"><a xlink:href="DefaultFrontEnd_8cpp.html" target="_top" xlink:title=" ">
<polygon fill="white" stroke="black" points="861.5,-56.5 861.5,-75.5 977.5,-75.5 977.5,-56.5 861.5,-56.5"/>
<text text-anchor="middle" x="919.5" y="-63.5" font-family="Helvetica,sans-Serif" font-size="10.00">DefaultFrontEnd.cpp</text>
</a>
</g>
</g>
<!-- Node1&#45;&gt;Node12 -->
<g id="edge11" class="edge">
<title>Node1&#45;&gt;Node12</title>
<path fill="none" stroke="midnightblue" d="M919.5,-101.8C919.5,-92.91 919.5,-82.78 919.5,-75.75"/>
<polygon fill="midnightblue" stroke="midnightblue" points="916,-102.08 919.5,-112.08 923,-102.08 916,-102.08"/>
</g>
<!-- Node13 -->
<g id="node13" class="node">
<title>Node13</title>
<g id="a_node13"><a xlink:href="CFGDotWriter_8cpp.html" target="_top" xlink:title=" ">
<polygon fill="white" stroke="black" points="995.5,-56.5 995.5,-75.5 1099.5,-75.5 1099.5,-56.5 995.5,-56.5"/>
<text text-anchor="middle" x="1047.5" y="-63.5" font-family="Helvetica,sans-Serif" font-size="10.00">CFGDotWriter.cpp</text>
</a>
</g>
</g>
<!-- Node1&#45;&gt;Node13 -->
<g id="edge12" class="edge">
<title>Node1&#45;&gt;Node13</title>
<path fill="none" stroke="midnightblue" d="M949.12,-108.5C973.12,-98.38 1006.28,-84.39 1027.31,-75.52"/>
<polygon fill="midnightblue" stroke="midnightblue" points="947.64,-105.33 939.78,-112.44 950.36,-111.78 947.64,-105.33"/>
</g>
<!-- Node14 -->
<g id="node14" class="node">
<title>Node14</title>
<g id="a_node14"><a xlink:href="ProgSymbolWriter_8cpp.html" target="_top" xlink:title=" ">
<polygon fill="white" stroke="black" points="1118,-56.5 1118,-75.5 1243,-75.5 1243,-56.5 1118,-56.5"/>
<text text-anchor="middle" x="1180.5" y="-63.5" font-family="Helvetica,sans-Serif" font-size="10.00">ProgSymbolWriter.cpp</text>
</a>
</g>
</g>
<!-- Node1&#45;&gt;Node14 -->
<g id="edge13" class="edge">
<title>Node1&#45;&gt;Node14</title>
<path fill="none" stroke="midnightblue" d="M960.64,-112.49C1009.5,-102.38 1090.51,-85.62 1139.37,-75.51"/>
<polygon fill="midnightblue" stroke="midnightblue" points="959.81,-109.09 950.72,-114.54 961.23,-115.94 959.81,-109.09"/>
</g>
<!-- Node15 -->
<g id="node15" class="node">
<title>Node15</title>
<g id="a_node15"><a xlink:href="Console_8cpp.html" target="_top" xlink:title=" ">
<polygon fill="white" stroke="black" points="1261.5,-56.5 1261.5,-75.5 1337.5,-75.5 1337.5,-56.5 1261.5,-56.5"/>
<text text-anchor="middle" x="1299.5" y="-63.5" font-family="Helvetica,sans-Serif" font-size="10.00">Console.cpp</text>
</a>
</g>
</g>
<!-- Node1&#45;&gt;Node15 -->
<g id="edge14" class="edge">
<title>Node1&#45;&gt;Node15</title>
<path fill="none" stroke="midnightblue" d="M960.75,-116.16C1023.78,-108.61 1147.78,-93.09 1252.5,-76 1255.37,-75.53 1258.33,-75.02 1261.31,-74.49"/>
<polygon fill="midnightblue" stroke="midnightblue" points="960.32,-112.69 950.8,-117.35 961.15,-119.64 960.32,-112.69"/>
</g>
<!-- Node16 -->
<g id="node16" class="node">
<title>Node16</title>
<g id="a_node16"><a xlink:href="Decompiler_8cpp.html" target="_top" xlink:title=" ">
<polygon fill="white" stroke="black" points="1356,-56.5 1356,-75.5 1449,-75.5 1449,-56.5 1356,-56.5"/>
<text text-anchor="middle" x="1402.5" y="-63.5" font-family="Helvetica,sans-Serif" font-size="10.00">Decompiler.cpp</text>
</a>
</g>
</g>
<!-- Node1&#45;&gt;Node16 -->
<g id="edge15" class="edge">
<title>Node1&#45;&gt;Node16</title>
<path fill="none" stroke="midnightblue" d="M960.79,-117.4C1037.11,-110.58 1205.35,-94.77 1346.5,-76 1349.53,-75.6 1352.64,-75.16 1355.78,-74.7"/>
<polygon fill="midnightblue" stroke="midnightblue" points="960.29,-113.93 950.64,-118.3 960.91,-120.9 960.29,-113.93"/>
</g>
<!-- Node17 -->
<g id="node17" class="node">
<title>Node17</title>
<g id="a_node17"><a xlink:href="CCodeGenerator_8cpp.html" target="_top" xlink:title=" ">
<polygon fill="white" stroke="black" points="1467,-56.5 1467,-75.5 1584,-75.5 1584,-56.5 1467,-56.5"/>
<text text-anchor="middle" x="1525.5" y="-63.5" font-family="Helvetica,sans-Serif" font-size="10.00">CCodeGenerator.cpp</text>
</a>
</g>
</g>
<!-- Node1&#45;&gt;Node17 -->
<g id="edge16" class="edge">
<title>Node1&#45;&gt;Node17</title>
<path fill="none" stroke="midnightblue" d="M960.63,-118.27C1050.89,-112.14 1273.07,-96.18 1458.5,-76 1461.18,-75.71 1463.93,-75.4 1466.69,-75.07"/>
<polygon fill="midnightblue" stroke="midnightblue" points="960.28,-114.79 950.54,-118.96 960.75,-121.77 960.28,-114.79"/>
</g>
<!-- Node18 -->
<g id="node18" class="node">
<title>Node18</title>
<g id="a_node18"><a xlink:href="CodeWriter_8cpp.html" target="_top" xlink:title=" ">
<polygon fill="white" stroke="black" points="1602.5,-56.5 1602.5,-75.5 1694.5,-75.5 1694.5,-56.5 1602.5,-56.5"/>
<text text-anchor="middle" x="1648.5" y="-63.5" font-family="Helvetica,sans-Serif" font-size="10.00">CodeWriter.cpp</text>
</a>
</g>
</g>
<!-- Node1&#45;&gt;Node18 -->
<g id="edge17" class="edge">
<title>Node1&#45;&gt;Node18</title>
<path fill="none" stroke="midnightblue" d="M961.09,-119.61C1066.92,-115.76 1354.99,-103.41 1593.5,-76 1596.38,-75.67 1599.35,-75.29 1602.33,-74.88"/>
<polygon fill="midnightblue" stroke="midnightblue" points="960.71,-116.12 950.84,-119.97 960.96,-123.11 960.71,-116.12"/>
</g>
<!-- Node19 -->
<g id="node19" class="node">
<title>Node19</title>
<g id="a_node19"><a xlink:href="CSymbolProvider_8cpp.html" target="_top" xlink:title=" ">
<polygon fill="white" stroke="black" points="1713,-56.5 1713,-75.5 1834,-75.5 1834,-56.5 1713,-56.5"/>
<text text-anchor="middle" x="1773.5" y="-63.5" font-family="Helvetica,sans-Serif" font-size="10.00">CSymbolProvider.cpp</text>
</a>
</g>
</g>
<!-- Node1&#45;&gt;Node19 -->
<g id="edge18" class="edge">
<title>Node1&#45;&gt;Node19</title>
<path fill="none" stroke="midnightblue" d="M960.83,-119.66C1077.64,-115.63 1420.14,-102.31 1703.5,-76 1706.55,-75.72 1709.67,-75.4 1712.82,-75.07"/>
<polygon fill="midnightblue" stroke="midnightblue" points="960.43,-116.17 950.56,-120.01 960.67,-123.16 960.43,-116.17"/>
</g>
<!-- Node20 -->
<g id="node20" class="node">
<title>Node20</title>
<g id="a_node20"><a xlink:href="TypeRecovery_8cpp.html" target="_top" xlink:title=" ">
<polygon fill="white" stroke="black" points="1852.5,-56.5 1852.5,-75.5 1956.5,-75.5 1956.5,-56.5 1852.5,-56.5"/>
<text text-anchor="middle" x="1904.5" y="-63.5" font-family="Helvetica,sans-Serif" font-size="10.00">TypeRecovery.cpp</text>
</a>
</g>
</g>
<!-- Node1&#45;&gt;Node20 -->
<g id="edge19" class="edge">
<title>Node1&#45;&gt;Node20</title>
<path fill="none" stroke="midnightblue" d="M961,-120.42C1091.3,-118.31 1503.79,-109.25 1843.5,-76 1846.38,-75.72 1849.32,-75.4 1852.3,-75.04"/>
<polygon fill="midnightblue" stroke="midnightblue" points="960.63,-116.93 950.69,-120.59 960.74,-123.93 960.63,-116.93"/>
</g>
<!-- Node3 -->
<g id="node3" class="node">
<title>Node3</title>
<g id="a_node3"><a xlink:href="Class_8cpp.html" target="_top" xlink:title=" ">
<polygon fill="white" stroke="black" points="0,-0.5 0,-19.5 63,-19.5 63,-0.5 0,-0.5"/>
<text text-anchor="middle" x="31.5" y="-7.5" font-family="Helvetica,sans-Serif" font-size="10.00">Class.cpp</text>
</a>
</g>
</g>
<!-- Node2&#45;&gt;Node3 -->
<g id="edge2" class="edge">
<title>Node2&#45;&gt;Node3</title>
<path fill="none" stroke="midnightblue" d="M67.12,-48.72C58.13,-39.2 47.14,-27.56 39.76,-19.75"/>
<polygon fill="midnightblue" stroke="midnightblue" points="64.67,-51.22 74.08,-56.08 69.76,-46.41 64.67,-51.22"/>
</g>
<!-- Node4 -->
<g id="node4" class="node">
<title>Node4</title>
<g id="a_node4"><a xlink:href="ModuleFactory_8cpp.html" target="_top" xlink:title=" ">
<polygon fill="white" stroke="black" points="81,-0.5 81,-19.5 188,-19.5 188,-0.5 81,-0.5"/>
<text text-anchor="middle" x="134.5" y="-7.5" font-family="Helvetica,sans-Serif" font-size="10.00">ModuleFactory.cpp</text>
</a>
</g>
</g>
<!-- Node2&#45;&gt;Node4 -->
<g id="edge3" class="edge">
<title>Node2&#45;&gt;Node4</title>
<path fill="none" stroke="midnightblue" d="M98.18,-48.72C107.34,-39.2 118.55,-27.56 126.07,-19.75"/>
<polygon fill="midnightblue" stroke="midnightblue" points="95.5,-46.45 91.09,-56.08 100.54,-51.31 95.5,-46.45"/>
</g>
</g>
</svg>
        <g id="navigator" transform="translate(0 0)" fill="#404254">
                <rect fill="#f2f5e9" fill-opacity="0.5" stroke="#606060" stroke-width=".5" x="0" y="0" width="60" height="60"/>
                <use id="zoomplus" xlink:href="#zoomPlus" x="17" y="9" onmousedown="handleZoom(evt,'in')"/>
                <use id="zoomminus" xlink:href="#zoomMin" x="42" y="9" onmousedown="handleZoom(evt,'out')"/>
                <use id="reset" xlink:href="#resetDef" x="30" y="36" onmousedown="handleReset()"/>
                <g id="arrowUp" xlink:href="#dirArrow" transform="translate(30 24)" onmousedown="handlePan(0,-1)">
                  <use xlink:href="#rim" fill="#404040">
                        <set attributeName="fill" to="#808080" begin="arrowUp.mouseover" end="arrowUp.mouseout"/>
                  </use>
                  <path fill="none" stroke="white" stroke-width="1.5" d="M0,-3.0v7 M-2.5,-0.5L0,-3.0L2.5,-0.5"/>
                </g>
                <g id="arrowRight" xlink:href="#dirArrow" transform="rotate(90) translate(36 -43)" onmousedown="handlePan(1,0)">
                  <use xlink:href="#rim" fill="#404040">
                        <set attributeName="fill" to="#808080" begin="arrowRight.mouseover" end="arrowRight.mouseout"/>
                  </use>
                  <path fill="none" stroke="white" stroke-width="1.5" d="M0,-3.0v7 M-2.5,-0.5L0,-3.0L2.5,-0.5"/>
                </g>
                <g id="arrowDown" xlink:href="#dirArrow" transform="rotate(180) translate(-30 -48)" onmousedown="handlePan(0,1)">
                  <use xlink:href="#rim" fill="#404040">
                        <set attributeName="fill" to="#808080" begin="arrowDown.mouseover" end="arrowDown.mouseout"/>
                  </use>
                  <path fill="none" stroke="white" stroke-width="1.5" d="M0,-3.0v7 M-2.5,-0.5L0,-3.0L2.5,-0.5"/>
                </g>
                <g id="arrowLeft" xlink:href="#dirArrow" transform="rotate(270) translate(-36 17)" onmousedown="handlePan(-1,0)">
                  <use xlink:href="#rim" fill="#404040">
                        <set attributeName="fill" to="#808080" begin="arrowLeft.mouseover" end="arrowLeft.mouseout"/>
                  </use>
                  <path fill="none" stroke="white" stroke-width="1.5" d="M0,-3.0v7 M-2.5,-0.5L0,-3.0L2.5,-0.5"/>
                </g>
        </g>
        <svg viewBox="0 0 15 15" width="100%" height="30px" preserveAspectRatio="xMaxYMin meet">
         <g id="arrow_out" transform="scale(0.3 0.3)">
          <a xlink:href="Module_8h__dep__incl_org.svg" target="_base">
           <rect id="button" ry="5" rx="5" y="6" x="6" height="38" width="38"
                fill="#f2f5e9" fill-opacity="0.5" stroke="#606060" stroke-width="1.0"/>
           <path id="arrow"
             d="M 11.500037,31.436501 C 11.940474,20.09759 22.043105,11.32322 32.158766,21.979434 L 37.068811,17.246167 C 37.068811,17.246167 37.088388,32 37.088388,32 L 22.160133,31.978069 C 22.160133,31.978069 26.997745,27.140456 26.997745,27.140456 C 18.528582,18.264221 13.291696,25.230495 11.500037,31.436501 z"
             style="fill:#404040;"/>
          </a>
         </g>
        </svg>
</svg>
