<?xml version="1.0" encoding="UTF-8" standalone="no"?>
<!DOCTYPE svg PUBLIC "-//W3C//DTD SVG 1.1//EN"
 "http://www.w3.org/Graphics/SVG/1.1/DTD/svg11.dtd">
<!-- Generated by graphviz version 2.43.0 (0)
 -->
<!-- Title: ModuleFactory.h Pages: 1 -->
<svg width="6229pt" height="140pt"
 viewBox="0.00 0.00 6229.00 140.00" xmlns="http://www.w3.org/2000/svg" xmlns:xlink="http://www.w3.org/1999/xlink">
<g id="graph0" class="graph" transform="scale(1 1) rotate(0) translate(4 136)">
<title>ModuleFactory.h</title>
<polygon fill="white" stroke="transparent" points="-4,4 -4,-136 6225,-136 6225,4 -4,4"/>
<!-- Node1 -->
<g id="node1" class="node">
<title>Node1</title>
<g id="a_node1"><a xlink:title=" ">
<polygon fill="#bfbfbf" stroke="black" points="2904.5,-112.5 2904.5,-131.5 3000.5,-131.5 3000.5,-112.5 2904.5,-112.5"/>
<text text-anchor="middle" x="2952.5" y="-119.5" font-family="Helvetica,sans-Serif" font-size="10.00">ModuleFactory.h</text>
</a>
</g>
</g>
<!-- Node2 -->
<g id="node2" class="node">
<title>Node2</title>
<g id="a_node2"><a xlink:href="Prog_8h.html" target="_top" xlink:title=" ">
<polygon fill="white" stroke="red" points="2882,-56.5 2882,-75.5 2929,-75.5 2929,-56.5 2882,-56.5"/>
<text text-anchor="middle" x="2905.5" y="-63.5" font-family="Helvetica,sans-Serif" font-size="10.00">Prog.h</text>
</a>
</g>
</g>
<!-- Node1&#45;&gt;Node2 -->
<g id="edge1" class="edge">
<title>Node1&#45;&gt;Node2</title>
<path fill="none" stroke="midnightblue" d="M2938.08,-104.43C2929.84,-94.97 2919.85,-83.48 2913.12,-75.75"/>
<polygon fill="midnightblue" stroke="midnightblue" points="2935.53,-106.84 2944.74,-112.08 2940.81,-102.24 2935.53,-106.84"/>
</g>
<!-- Node69 -->
<g id="node50" class="node">
<title>Node69</title>
<g id="a_node50"><a xlink:href="ModuleFactory_8cpp.html" target="_top" xlink:title=" ">
<polygon fill="white" stroke="black" points="2947,-56.5 2947,-75.5 3054,-75.5 3054,-56.5 2947,-56.5"/>
<text text-anchor="middle" x="3000.5" y="-63.5" font-family="Helvetica,sans-Serif" font-size="10.00">ModuleFactory.cpp</text>
</a>
</g>
</g>
<!-- Node1&#45;&gt;Node69 -->
<g id="edge49" class="edge">
<title>Node1&#45;&gt;Node69</title>
<path fill="none" stroke="midnightblue" d="M2967.23,-104.43C2975.64,-94.97 2985.85,-83.48 2992.72,-75.75"/>
<polygon fill="midnightblue" stroke="midnightblue" points="2964.45,-102.28 2960.43,-112.08 2969.69,-106.93 2964.45,-102.28"/>
</g>
<!-- Node3 -->
<g id="node3" class="node">
<title>Node3</title>
<g id="a_node3"><a xlink:href="Project_8cpp.html" target="_top" xlink:title=" ">
<polygon fill="white" stroke="black" points="0,-0.5 0,-19.5 71,-19.5 71,-0.5 0,-0.5"/>
<text text-anchor="middle" x="35.5" y="-7.5" font-family="Helvetica,sans-Serif" font-size="10.00">Project.cpp</text>
</a>
</g>
</g>
<!-- Node2&#45;&gt;Node3 -->
<g id="edge2" class="edge">
<title>Node2&#45;&gt;Node3</title>
<path fill="none" stroke="midnightblue" d="M2871.5,-64.84C2570.78,-63.4 370.25,-51.77 79.5,-20 76.86,-19.71 74.15,-19.34 71.43,-18.92"/>
<polygon fill="midnightblue" stroke="midnightblue" points="2871.75,-68.34 2881.77,-64.89 2871.78,-61.34 2871.75,-68.34"/>
</g>
<!-- Node4 -->
<g id="node4" class="node">
<title>Node4</title>
<g id="a_node4"><a xlink:href="DataFlow_8cpp.html" target="_top" xlink:title=" ">
<polygon fill="white" stroke="black" points="89,-0.5 89,-19.5 172,-19.5 172,-0.5 89,-0.5"/>
<text text-anchor="middle" x="130.5" y="-7.5" font-family="Helvetica,sans-Serif" font-size="10.00">DataFlow.cpp</text>
</a>
</g>
</g>
<!-- Node2&#45;&gt;Node4 -->
<g id="edge3" class="edge">
<title>Node2&#45;&gt;Node4</title>
<path fill="none" stroke="midnightblue" d="M2871.82,-64.77C2578.53,-62.7 461.85,-46.88 181.5,-20 178.46,-19.71 175.32,-19.34 172.18,-18.91"/>
<polygon fill="midnightblue" stroke="midnightblue" points="2871.83,-68.27 2881.85,-64.84 2871.88,-61.27 2871.83,-68.27"/>
</g>
<!-- Node5 -->
<g id="node5" class="node">
<title>Node5</title>
<g id="a_node5"><a xlink:href="Global_8cpp.html" target="_top" xlink:title=" ">
<polygon fill="white" stroke="black" points="190.5,-0.5 190.5,-19.5 258.5,-19.5 258.5,-0.5 190.5,-0.5"/>
<text text-anchor="middle" x="224.5" y="-7.5" font-family="Helvetica,sans-Serif" font-size="10.00">Global.cpp</text>
</a>
</g>
</g>
<!-- Node2&#45;&gt;Node5 -->
<g id="edge4" class="edge">
<title>Node2&#45;&gt;Node5</title>
<path fill="none" stroke="midnightblue" d="M2871.56,-64.81C2582.51,-63.15 538.13,-50.35 267.5,-20 264.62,-19.68 261.65,-19.25 258.67,-18.76"/>
<polygon fill="midnightblue" stroke="midnightblue" points="2871.81,-68.31 2881.83,-64.87 2871.85,-61.31 2871.81,-68.31"/>
</g>
<!-- Node6 -->
<g id="node6" class="node">
<title>Node6</title>
<g id="a_node6"><a xlink:href="Module_8cpp.html" target="_top" xlink:title=" ">
<polygon fill="white" stroke="black" points="277,-0.5 277,-19.5 350,-19.5 350,-0.5 277,-0.5"/>
<text text-anchor="middle" x="313.5" y="-7.5" font-family="Helvetica,sans-Serif" font-size="10.00">Module.cpp</text>
</a>
</g>
</g>
<!-- Node2&#45;&gt;Node6 -->
<g id="edge5" class="edge">
<title>Node2&#45;&gt;Node6</title>
<path fill="none" stroke="midnightblue" d="M2871.87,-64.76C2589.71,-62.73 620.61,-47.63 359.5,-20 356.42,-19.67 353.25,-19.25 350.07,-18.76"/>
<polygon fill="midnightblue" stroke="midnightblue" points="2871.89,-68.26 2881.91,-64.84 2871.94,-61.26 2871.89,-68.26"/>
</g>
<!-- Node7 -->
<g id="node7" class="node">
<title>Node7</title>
<g id="a_node7"><a xlink:href="LibProc_8cpp.html" target="_top" xlink:title=" ">
<polygon fill="white" stroke="black" points="368.5,-0.5 368.5,-19.5 440.5,-19.5 440.5,-0.5 368.5,-0.5"/>
<text text-anchor="middle" x="404.5" y="-7.5" font-family="Helvetica,sans-Serif" font-size="10.00">LibProc.cpp</text>
</a>
</g>
</g>
<!-- Node2&#45;&gt;Node7 -->
<g id="edge6" class="edge">
<title>Node2&#45;&gt;Node7</title>
<path fill="none" stroke="midnightblue" d="M2871.37,-64.74C2593.07,-62.62 700.8,-47.21 449.5,-20 446.65,-19.69 443.71,-19.29 440.76,-18.83"/>
<polygon fill="midnightblue" stroke="midnightblue" points="2871.62,-68.25 2881.65,-64.82 2871.67,-61.25 2871.62,-68.25"/>
</g>
<!-- Node8 -->
<g id="node8" class="node">
<title>Node8</title>
<g id="a_node8"><a xlink:href="Proc_8cpp.html" target="_top" xlink:title=" ">
<polygon fill="white" stroke="black" points="458.5,-0.5 458.5,-19.5 516.5,-19.5 516.5,-0.5 458.5,-0.5"/>
<text text-anchor="middle" x="487.5" y="-7.5" font-family="Helvetica,sans-Serif" font-size="10.00">Proc.cpp</text>
</a>
</g>
</g>
<!-- Node2&#45;&gt;Node8 -->
<g id="edge7" class="edge">
<title>Node2&#45;&gt;Node8</title>
<path fill="none" stroke="midnightblue" d="M2871.57,-64.8C2598.85,-63.11 768.26,-50.68 525.5,-20 522.67,-19.64 519.75,-19.16 516.84,-18.6"/>
<polygon fill="midnightblue" stroke="midnightblue" points="2871.63,-68.3 2881.65,-64.86 2871.68,-61.3 2871.63,-68.3"/>
</g>
<!-- Node9 -->
<g id="node9" class="node">
<title>Node9</title>
<g id="a_node9"><a xlink:href="UserProc_8cpp.html" target="_top" xlink:title=" ">
<polygon fill="white" stroke="black" points="534.5,-0.5 534.5,-19.5 614.5,-19.5 614.5,-0.5 534.5,-0.5"/>
<text text-anchor="middle" x="574.5" y="-7.5" font-family="Helvetica,sans-Serif" font-size="10.00">UserProc.cpp</text>
</a>
</g>
</g>
<!-- Node2&#45;&gt;Node9 -->
<g id="edge8" class="edge">
<title>Node2&#45;&gt;Node9</title>
<path fill="none" stroke="midnightblue" d="M2871.71,-65.09C2624.16,-65.6 1087,-66.82 623.5,-20 620.57,-19.7 617.56,-19.33 614.54,-18.9"/>
<polygon fill="midnightblue" stroke="midnightblue" points="2871.9,-68.58 2881.89,-65.06 2871.88,-61.58 2871.9,-68.58"/>
</g>
<!-- Node10 -->
<g id="node10" class="node">
<title>Node10</title>
<g id="a_node10"><a xlink:href="Prog_8cpp.html" target="_top" xlink:title=" ">
<polygon fill="white" stroke="black" points="633,-0.5 633,-19.5 692,-19.5 692,-0.5 633,-0.5"/>
<text text-anchor="middle" x="662.5" y="-7.5" font-family="Helvetica,sans-Serif" font-size="10.00">Prog.cpp</text>
</a>
</g>
</g>
<!-- Node2&#45;&gt;Node10 -->
<g id="edge9" class="edge">
<title>Node2&#45;&gt;Node10</title>
<path fill="none" stroke="midnightblue" d="M2871.69,-64.73C2611.05,-62.61 925.68,-47.85 701.5,-20 698.47,-19.62 695.32,-19.11 692.2,-18.52"/>
<polygon fill="midnightblue" stroke="midnightblue" points="2871.67,-68.23 2881.7,-64.81 2871.73,-61.23 2871.67,-68.23"/>
</g>
<!-- Node11 -->
<g id="node11" class="node">
<title>Node11</title>
<g id="a_node11"><a xlink:href="PPCSignature_8cpp.html" target="_top" xlink:title=" ">
<polygon fill="white" stroke="black" points="710.5,-0.5 710.5,-19.5 812.5,-19.5 812.5,-0.5 710.5,-0.5"/>
<text text-anchor="middle" x="761.5" y="-7.5" font-family="Helvetica,sans-Serif" font-size="10.00">PPCSignature.cpp</text>
</a>
</g>
</g>
<!-- Node2&#45;&gt;Node11 -->
<g id="edge10" class="edge">
<title>Node2&#45;&gt;Node11</title>
<path fill="none" stroke="midnightblue" d="M2871.43,-64.86C2635.63,-63.8 1243.44,-56.05 821.5,-20 818.56,-19.75 815.55,-19.45 812.51,-19.1"/>
<polygon fill="midnightblue" stroke="midnightblue" points="2871.76,-68.36 2881.77,-64.9 2871.79,-61.36 2871.76,-68.36"/>
</g>
<!-- Node12 -->
<g id="node12" class="node">
<title>Node12</title>
<g id="a_node12"><a xlink:href="Signature_8cpp.html" target="_top" xlink:title=" ">
<polygon fill="white" stroke="black" points="831,-0.5 831,-19.5 914,-19.5 914,-0.5 831,-0.5"/>
<text text-anchor="middle" x="872.5" y="-7.5" font-family="Helvetica,sans-Serif" font-size="10.00">Signature.cpp</text>
</a>
</g>
</g>
<!-- Node2&#45;&gt;Node12 -->
<g id="edge11" class="edge">
<title>Node2&#45;&gt;Node12</title>
<path fill="none" stroke="midnightblue" d="M2871.99,-64.95C2644.44,-64.53 1322.8,-60.32 922.5,-20 919.78,-19.73 916.98,-19.39 914.17,-19"/>
<polygon fill="midnightblue" stroke="midnightblue" points="2871.99,-68.45 2882,-64.97 2872,-61.45 2871.99,-68.45"/>
</g>
<!-- Node13 -->
<g id="node13" class="node">
<title>Node13</title>
<g id="a_node13"><a xlink:href="ST20Signature_8cpp.html" target="_top" xlink:title=" ">
<polygon fill="white" stroke="black" points="932,-0.5 932,-19.5 1039,-19.5 1039,-0.5 932,-0.5"/>
<text text-anchor="middle" x="985.5" y="-7.5" font-family="Helvetica,sans-Serif" font-size="10.00">ST20Signature.cpp</text>
</a>
</g>
</g>
<!-- Node2&#45;&gt;Node13 -->
<g id="edge12" class="edge">
<title>Node2&#45;&gt;Node13</title>
<path fill="none" stroke="midnightblue" d="M2871.43,-64.72C2650.88,-62.85 1422.42,-51.13 1048.5,-20 1045.42,-19.74 1042.25,-19.44 1039.07,-19.09"/>
<polygon fill="midnightblue" stroke="midnightblue" points="2871.7,-68.23 2881.73,-64.81 2871.76,-61.23 2871.7,-68.23"/>
</g>
<!-- Node14 -->
<g id="node14" class="node">
<title>Node14</title>
<g id="a_node14"><a xlink:href="Win32Signature_8cpp.html" target="_top" xlink:title=" ">
<polygon fill="white" stroke="black" points="1057.5,-0.5 1057.5,-19.5 1171.5,-19.5 1171.5,-0.5 1057.5,-0.5"/>
<text text-anchor="middle" x="1114.5" y="-7.5" font-family="Helvetica,sans-Serif" font-size="10.00">Win32Signature.cpp</text>
</a>
</g>
</g>
<!-- Node2&#45;&gt;Node14 -->
<g id="edge13" class="edge">
<title>Node2&#45;&gt;Node14</title>
<path fill="none" stroke="midnightblue" d="M2871.57,-64.62C2660.64,-62.2 1526.65,-48.03 1180.5,-20 1177.62,-19.77 1174.67,-19.49 1171.7,-19.19"/>
<polygon fill="midnightblue" stroke="midnightblue" points="2871.68,-68.12 2881.72,-64.74 2871.76,-61.12 2871.68,-68.12"/>
</g>
<!-- Node15 -->
<g id="node15" class="node">
<title>Node15</title>
<g id="a_node15"><a xlink:href="X86Signature_8cpp.html" target="_top" xlink:title=" ">
<polygon fill="white" stroke="black" points="1189.5,-0.5 1189.5,-19.5 1291.5,-19.5 1291.5,-0.5 1189.5,-0.5"/>
<text text-anchor="middle" x="1240.5" y="-7.5" font-family="Helvetica,sans-Serif" font-size="10.00">X86Signature.cpp</text>
</a>
</g>
</g>
<!-- Node2&#45;&gt;Node15 -->
<g id="edge14" class="edge">
<title>Node2&#45;&gt;Node15</title>
<path fill="none" stroke="midnightblue" d="M2871.72,-64.61C2669.89,-62.19 1621.19,-48.44 1300.5,-20 1297.56,-19.74 1294.55,-19.43 1291.51,-19.08"/>
<polygon fill="midnightblue" stroke="midnightblue" points="2871.69,-68.11 2881.74,-64.73 2871.78,-61.11 2871.69,-68.11"/>
</g>
<!-- Node16 -->
<g id="node16" class="node">
<title>Node16</title>
<g id="a_node16"><a xlink:href="IndirectJumpAnalyzer_8cpp.html" target="_top" xlink:title=" ">
<polygon fill="white" stroke="black" points="1310,-0.5 1310,-19.5 1451,-19.5 1451,-0.5 1310,-0.5"/>
<text text-anchor="middle" x="1380.5" y="-7.5" font-family="Helvetica,sans-Serif" font-size="10.00">IndirectJumpAnalyzer.cpp</text>
</a>
</g>
</g>
<!-- Node2&#45;&gt;Node16 -->
<g id="edge15" class="edge">
<title>Node2&#45;&gt;Node16</title>
<path fill="none" stroke="midnightblue" d="M2871.47,-64.97C2711.99,-64.64 2022.73,-60.78 1459.5,-20 1456.75,-19.8 1453.94,-19.58 1451.11,-19.34"/>
<polygon fill="midnightblue" stroke="midnightblue" points="2871.61,-68.47 2881.61,-64.99 2871.62,-61.47 2871.61,-68.47"/>
</g>
<!-- Node17 -->
<g id="node17" class="node">
<title>Node17</title>
<g id="a_node17"><a xlink:href="InterferenceFinder_8cpp.html" target="_top" xlink:title=" ">
<polygon fill="white" stroke="black" points="1469,-0.5 1469,-19.5 1594,-19.5 1594,-0.5 1469,-0.5"/>
<text text-anchor="middle" x="1531.5" y="-7.5" font-family="Helvetica,sans-Serif" font-size="10.00">InterferenceFinder.cpp</text>
</a>
</g>
</g>
<!-- Node2&#45;&gt;Node17 -->
<g id="edge16" class="edge">
<title>Node2&#45;&gt;Node17</title>
<path fill="none" stroke="midnightblue" d="M2871.57,-64.95C2722,-64.47 2106.66,-60.06 1603.5,-20 1600.49,-19.76 1597.4,-19.49 1594.29,-19.19"/>
<polygon fill="midnightblue" stroke="midnightblue" points="2871.9,-68.45 2881.91,-64.97 2871.92,-61.45 2871.9,-68.45"/>
</g>
<!-- Node18 -->
<g id="node18" class="node">
<title>Node18</title>
<g id="a_node18"><a xlink:href="LivenessAnalyzer_8cpp.html" target="_top" xlink:title=" ">
<polygon fill="white" stroke="black" points="1612.5,-0.5 1612.5,-19.5 1734.5,-19.5 1734.5,-0.5 1612.5,-0.5"/>
<text text-anchor="middle" x="1673.5" y="-7.5" font-family="Helvetica,sans-Serif" font-size="10.00">LivenessAnalyzer.cpp</text>
</a>
</g>
</g>
<!-- Node2&#45;&gt;Node18 -->
<g id="edge17" class="edge">
<title>Node2&#45;&gt;Node18</title>
<path fill="none" stroke="midnightblue" d="M2871.66,-64.79C2732.22,-63.7 2188.6,-57.16 1743.5,-20 1740.57,-19.76 1737.57,-19.48 1734.55,-19.17"/>
<polygon fill="midnightblue" stroke="midnightblue" points="2871.7,-68.29 2881.73,-64.87 2871.75,-61.29 2871.7,-68.29"/>
</g>
<!-- Node19 -->
<g id="node19" class="node">
<title>Node19</title>
<g id="a_node19"><a xlink:href="ProcDecompiler_8cpp.html" target="_top" xlink:title=" ">
<polygon fill="white" stroke="black" points="1752.5,-0.5 1752.5,-19.5 1866.5,-19.5 1866.5,-0.5 1752.5,-0.5"/>
<text text-anchor="middle" x="1809.5" y="-7.5" font-family="Helvetica,sans-Serif" font-size="10.00">ProcDecompiler.cpp</text>
</a>
</g>
</g>
<!-- Node2&#45;&gt;Node19 -->
<g id="edge18" class="edge">
<title>Node2&#45;&gt;Node19</title>
<path fill="none" stroke="midnightblue" d="M2871.8,-64.65C2742.53,-63.08 2266.08,-55.09 1875.5,-20 1872.62,-19.74 1869.67,-19.45 1866.7,-19.13"/>
<polygon fill="midnightblue" stroke="midnightblue" points="2871.83,-68.15 2881.87,-64.77 2871.91,-61.15 2871.83,-68.15"/>
</g>
<!-- Node20 -->
<g id="node20" class="node">
<title>Node20</title>
<g id="a_node20"><a xlink:href="ProgDecompiler_8cpp.html" target="_top" xlink:title=" ">
<polygon fill="white" stroke="black" points="1885,-0.5 1885,-19.5 2000,-19.5 2000,-0.5 1885,-0.5"/>
<text text-anchor="middle" x="1942.5" y="-7.5" font-family="Helvetica,sans-Serif" font-size="10.00">ProgDecompiler.cpp</text>
</a>
</g>
</g>
<!-- Node2&#45;&gt;Node20 -->
<g id="edge19" class="edge">
<title>Node2&#45;&gt;Node20</title>
<path fill="none" stroke="midnightblue" d="M2871.66,-64.32C2753,-61.7 2344.89,-50.89 2009.5,-20 2006.46,-19.72 2003.35,-19.4 2000.21,-19.06"/>
<polygon fill="midnightblue" stroke="midnightblue" points="2871.84,-67.82 2881.91,-64.54 2871.99,-60.82 2871.84,-67.82"/>
</g>
<!-- Node21 -->
<g id="node21" class="node">
<title>Node21</title>
<g id="a_node21"><a xlink:href="UnusedReturnRemover_8cpp.html" target="_top" xlink:title=" ">
<polygon fill="white" stroke="black" points="2018.5,-0.5 2018.5,-19.5 2168.5,-19.5 2168.5,-0.5 2018.5,-0.5"/>
<text text-anchor="middle" x="2093.5" y="-7.5" font-family="Helvetica,sans-Serif" font-size="10.00">UnusedReturnRemover.cpp</text>
</a>
</g>
</g>
<!-- Node2&#45;&gt;Node21 -->
<g id="edge20" class="edge">
<title>Node2&#45;&gt;Node21</title>
<path fill="none" stroke="midnightblue" d="M2871.72,-63.45C2767.97,-58.59 2444.7,-42.56 2177.5,-20 2174.58,-19.75 2171.6,-19.49 2168.59,-19.21"/>
<polygon fill="midnightblue" stroke="midnightblue" points="2871.75,-66.96 2881.9,-63.93 2872.08,-59.97 2871.75,-66.96"/>
</g>
<!-- Node22 -->
<g id="node22" class="node">
<title>Node22</title>
<g id="a_node22"><a xlink:href="DefaultFrontEnd_8cpp.html" target="_top" xlink:title=" ">
<polygon fill="white" stroke="black" points="2186.5,-0.5 2186.5,-19.5 2302.5,-19.5 2302.5,-0.5 2186.5,-0.5"/>
<text text-anchor="middle" x="2244.5" y="-7.5" font-family="Helvetica,sans-Serif" font-size="10.00">DefaultFrontEnd.cpp</text>
</a>
</g>
</g>
<!-- Node2&#45;&gt;Node22 -->
<g id="edge21" class="edge">
<title>Node2&#45;&gt;Node22</title>
<path fill="none" stroke="midnightblue" d="M2871.74,-63.13C2780.98,-57.95 2524.25,-42.33 2311.5,-20 2308.58,-19.69 2305.59,-19.36 2302.58,-19.01"/>
<polygon fill="midnightblue" stroke="midnightblue" points="2871.79,-66.64 2881.97,-63.71 2872.18,-59.65 2871.79,-66.64"/>
</g>
<!-- Node23 -->
<g id="node23" class="node">
<title>Node23</title>
<g id="a_node23"><a xlink:href="CallArgumentUpdatePass_8cpp.html" target="_top" xlink:title=" ">
<polygon fill="white" stroke="black" points="2321,-0.5 2321,-19.5 2482,-19.5 2482,-0.5 2321,-0.5"/>
<text text-anchor="middle" x="2401.5" y="-7.5" font-family="Helvetica,sans-Serif" font-size="10.00">CallArgumentUpdatePass.cpp</text>
</a>
</g>
</g>
<!-- Node2&#45;&gt;Node23 -->
<g id="edge22" class="edge">
<title>Node2&#45;&gt;Node23</title>
<path fill="none" stroke="midnightblue" d="M2871.48,-61.36C2792.09,-52.85 2592.86,-31.5 2480.95,-19.51"/>
<polygon fill="midnightblue" stroke="midnightblue" points="2871.55,-64.88 2881.87,-62.47 2872.3,-57.92 2871.55,-64.88"/>
</g>
<!-- Node24 -->
<g id="node24" class="node">
<title>Node24</title>
<g id="a_node24"><a xlink:href="CallDefineUpdatePass_8cpp.html" target="_top" xlink:title=" ">
<polygon fill="white" stroke="black" points="2500.5,-0.5 2500.5,-19.5 2646.5,-19.5 2646.5,-0.5 2500.5,-0.5"/>
<text text-anchor="middle" x="2573.5" y="-7.5" font-family="Helvetica,sans-Serif" font-size="10.00">CallDefineUpdatePass.cpp</text>
</a>
</g>
</g>
<!-- Node2&#45;&gt;Node24 -->
<g id="edge23" class="edge">
<title>Node2&#45;&gt;Node24</title>
<path fill="none" stroke="midnightblue" d="M2871.8,-59.52C2813.86,-50.09 2694.92,-30.75 2626.02,-19.54"/>
<polygon fill="midnightblue" stroke="midnightblue" points="2871.46,-63.01 2881.89,-61.16 2872.58,-56.1 2871.46,-63.01"/>
</g>
<!-- Node25 -->
<g id="node25" class="node">
<title>Node25</title>
<g id="a_node25"><a xlink:href="BlockVarRenamePass_8cpp.html" target="_top" xlink:title=" ">
<polygon fill="white" stroke="black" points="2665,-0.5 2665,-19.5 2808,-19.5 2808,-0.5 2665,-0.5"/>
<text text-anchor="middle" x="2736.5" y="-7.5" font-family="Helvetica,sans-Serif" font-size="10.00">BlockVarRenamePass.cpp</text>
</a>
</g>
</g>
<!-- Node2&#45;&gt;Node25 -->
<g id="edge24" class="edge">
<title>Node2&#45;&gt;Node25</title>
<path fill="none" stroke="midnightblue" d="M2871.88,-54.26C2839.99,-44.07 2792.72,-28.96 2763.3,-19.56"/>
<polygon fill="midnightblue" stroke="midnightblue" points="2871.05,-57.67 2881.64,-57.38 2873.18,-51 2871.05,-57.67"/>
</g>
<!-- Node26 -->
<g id="node26" class="node">
<title>Node26</title>
<g id="a_node26"><a xlink:href="GlobalConstReplacePass_8cpp.html" target="_top" xlink:title=" ">
<polygon fill="white" stroke="black" points="2826.5,-0.5 2826.5,-19.5 2984.5,-19.5 2984.5,-0.5 2826.5,-0.5"/>
<text text-anchor="middle" x="2905.5" y="-7.5" font-family="Helvetica,sans-Serif" font-size="10.00">GlobalConstReplacePass.cpp</text>
</a>
</g>
</g>
<!-- Node2&#45;&gt;Node26 -->
<g id="edge25" class="edge">
<title>Node2&#45;&gt;Node26</title>
<path fill="none" stroke="midnightblue" d="M2905.5,-45.8C2905.5,-36.91 2905.5,-26.78 2905.5,-19.75"/>
<polygon fill="midnightblue" stroke="midnightblue" points="2902,-46.08 2905.5,-56.08 2909,-46.08 2902,-46.08"/>
</g>
<!-- Node27 -->
<g id="node27" class="node">
<title>Node27</title>
<g id="a_node27"><a xlink:href="StatementInitPass_8cpp.html" target="_top" xlink:title=" ">
<polygon fill="white" stroke="black" points="3002.5,-0.5 3002.5,-19.5 3128.5,-19.5 3128.5,-0.5 3002.5,-0.5"/>
<text text-anchor="middle" x="3065.5" y="-7.5" font-family="Helvetica,sans-Serif" font-size="10.00">StatementInitPass.cpp</text>
</a>
</g>
</g>
<!-- Node2&#45;&gt;Node27 -->
<g id="edge26" class="edge">
<title>Node2&#45;&gt;Node27</title>
<path fill="none" stroke="midnightblue" d="M2938.78,-53.77C2968.96,-43.58 3012.8,-28.78 3040.21,-19.54"/>
<polygon fill="midnightblue" stroke="midnightblue" points="2937.46,-50.52 2929.11,-57.03 2939.7,-57.15 2937.46,-50.52"/>
</g>
<!-- Node28 -->
<g id="node28" class="node">
<title>Node28</title>
<g id="a_node28"><a xlink:href="StatementPropagationPass_8cpp.html" target="_top" xlink:title=" ">
<polygon fill="white" stroke="black" points="3147,-0.5 3147,-19.5 3316,-19.5 3316,-0.5 3147,-0.5"/>
<text text-anchor="middle" x="3231.5" y="-7.5" font-family="Helvetica,sans-Serif" font-size="10.00">StatementPropagationPass.cpp</text>
</a>
</g>
</g>
<!-- Node2&#45;&gt;Node28 -->
<g id="edge27" class="edge">
<title>Node2&#45;&gt;Node28</title>
<path fill="none" stroke="midnightblue" d="M2939.16,-56.07C3020.81,-38.97 3103.96,-26.96 3161.24,-19.51"/>
<polygon fill="midnightblue" stroke="midnightblue" points="2938.27,-52.69 2929.21,-58.19 2939.72,-59.53 2938.27,-52.69"/>
</g>
<!-- Node29 -->
<g id="node29" class="node">
<title>Node29</title>
<g id="a_node29"><a xlink:href="FromSSAFormPass_8cpp.html" target="_top" xlink:title=" ">
<polygon fill="white" stroke="black" points="3334.5,-0.5 3334.5,-19.5 3462.5,-19.5 3462.5,-0.5 3334.5,-0.5"/>
<text text-anchor="middle" x="3398.5" y="-7.5" font-family="Helvetica,sans-Serif" font-size="10.00">FromSSAFormPass.cpp</text>
</a>
</g>
</g>
<!-- Node2&#45;&gt;Node29 -->
<g id="edge28" class="edge">
<title>Node2&#45;&gt;Node29</title>
<path fill="none" stroke="midnightblue" d="M2939.02,-56.23C3110.19,-25.64 3156.95,-38.23 3325.5,-20 3328.42,-19.68 3331.4,-19.35 3334.42,-19.01"/>
<polygon fill="midnightblue" stroke="midnightblue" points="2938.4,-52.79 2929.18,-58.01 2939.64,-59.68 2938.4,-52.79"/>
</g>
<!-- Node30 -->
<g id="node30" class="node">
<title>Node30</title>
<g id="a_node30"><a xlink:href="LocalAndParamMapPass_8cpp.html" target="_top" xlink:title=" ">
<polygon fill="white" stroke="black" points="3480.5,-0.5 3480.5,-19.5 3636.5,-19.5 3636.5,-0.5 3480.5,-0.5"/>
<text text-anchor="middle" x="3558.5" y="-7.5" font-family="Helvetica,sans-Serif" font-size="10.00">LocalAndParamMapPass.cpp</text>
</a>
</g>
</g>
<!-- Node2&#45;&gt;Node30 -->
<g id="edge29" class="edge">
<title>Node2&#45;&gt;Node30</title>
<path fill="none" stroke="midnightblue" d="M2939.05,-56.28C3174.37,-17.21 3238.17,-39.94 3471.5,-20 3474.37,-19.75 3477.3,-19.5 3480.26,-19.23"/>
<polygon fill="midnightblue" stroke="midnightblue" points="2938.45,-52.83 2929.17,-57.94 2939.61,-59.73 2938.45,-52.83"/>
</g>
<!-- Node31 -->
<g id="node31" class="node">
<title>Node31</title>
<g id="a_node31"><a xlink:href="LocalTypeAnalysisPass_8cpp.html" target="_top" xlink:title=" ">
<polygon fill="white" stroke="black" points="3655,-0.5 3655,-19.5 3804,-19.5 3804,-0.5 3655,-0.5"/>
<text text-anchor="middle" x="3729.5" y="-7.5" font-family="Helvetica,sans-Serif" font-size="10.00">LocalTypeAnalysisPass.cpp</text>
</a>
</g>
</g>
<!-- Node2&#45;&gt;Node31 -->
<g id="edge30" class="edge">
<title>Node2&#45;&gt;Node31</title>
<path fill="none" stroke="midnightblue" d="M2939.39,-56.26C3250.98,-7.14 3335.22,-44.5 3645.5,-20 3648.57,-19.76 3651.7,-19.49 3654.87,-19.22"/>
<polygon fill="midnightblue" stroke="midnightblue" points="2938.48,-52.86 2929.16,-57.89 2939.59,-59.77 2938.48,-52.86"/>
</g>
<!-- Node32 -->
<g id="node32" class="node">
<title>Node32</title>
<g id="a_node32"><a xlink:href="UnusedLocalRemovalPass_8cpp.html" target="_top" xlink:title=" ">
<polygon fill="white" stroke="black" points="3822,-0.5 3822,-19.5 3987,-19.5 3987,-0.5 3822,-0.5"/>
<text text-anchor="middle" x="3904.5" y="-7.5" font-family="Helvetica,sans-Serif" font-size="10.00">UnusedLocalRemovalPass.cpp</text>
</a>
</g>
</g>
<!-- Node2&#45;&gt;Node32 -->
<g id="edge31" class="edge">
<title>Node2&#45;&gt;Node32</title>
<path fill="none" stroke="midnightblue" d="M2939.19,-56.31C3324.9,2.72 3428.55,-46.93 3813.5,-20 3816.19,-19.81 3818.93,-19.61 3821.69,-19.39"/>
<polygon fill="midnightblue" stroke="midnightblue" points="2938.5,-52.88 2929.16,-57.86 2939.57,-59.8 2938.5,-52.88"/>
</g>
<!-- Node33 -->
<g id="node33" class="node">
<title>Node33</title>
<g id="a_node33"><a xlink:href="UnusedParamRemovalPass_8cpp.html" target="_top" xlink:title=" ">
<polygon fill="white" stroke="black" points="4005,-0.5 4005,-19.5 4176,-19.5 4176,-0.5 4005,-0.5"/>
<text text-anchor="middle" x="4090.5" y="-7.5" font-family="Helvetica,sans-Serif" font-size="10.00">UnusedParamRemovalPass.cpp</text>
</a>
</g>
</g>
<!-- Node2&#45;&gt;Node33 -->
<g id="edge32" class="edge">
<title>Node2&#45;&gt;Node33</title>
<path fill="none" stroke="midnightblue" d="M2939.18,-56.33C3405.47,13.46 3530.32,-50.22 3996.5,-20 3999.28,-19.82 4002.11,-19.62 4004.96,-19.41"/>
<polygon fill="midnightblue" stroke="midnightblue" points="2938.52,-52.89 2929.15,-57.84 2939.56,-59.81 2938.52,-52.89"/>
</g>
<!-- Node34 -->
<g id="node34" class="node">
<title>Node34</title>
<g id="a_node34"><a xlink:href="UnusedStatementRemovalPass_8cpp.html" target="_top" xlink:title=" ">
<polygon fill="white" stroke="black" points="4194,-0.5 4194,-19.5 4385,-19.5 4385,-0.5 4194,-0.5"/>
<text text-anchor="middle" x="4289.5" y="-7.5" font-family="Helvetica,sans-Serif" font-size="10.00">UnusedStatementRemovalPass.cpp</text>
</a>
</g>
</g>
<!-- Node2&#45;&gt;Node34 -->
<g id="edge33" class="edge">
<title>Node2&#45;&gt;Node34</title>
<path fill="none" stroke="midnightblue" d="M2939.29,-56.36C3228.97,-15.72 3911.98,-35.77 4185.5,-20 4188.21,-19.84 4190.97,-19.67 4193.75,-19.49"/>
<polygon fill="midnightblue" stroke="midnightblue" points="2938.54,-52.93 2929.15,-57.83 2939.55,-59.86 2938.54,-52.93"/>
</g>
<!-- Node35 -->
<g id="node35" class="node">
<title>Node35</title>
<g id="a_node35"><a xlink:href="AssignRemovalPass_8cpp.html" target="_top" xlink:title=" ">
<polygon fill="white" stroke="black" points="4403,-0.5 4403,-19.5 4538,-19.5 4538,-0.5 4403,-0.5"/>
<text text-anchor="middle" x="4470.5" y="-7.5" font-family="Helvetica,sans-Serif" font-size="10.00">AssignRemovalPass.cpp</text>
</a>
</g>
</g>
<!-- Node2&#45;&gt;Node35 -->
<g id="edge34" class="edge">
<title>Node2&#45;&gt;Node35</title>
<path fill="none" stroke="midnightblue" d="M2939.44,-56.34C3275.36,-9.77 4074.98,-42.82 4394.5,-20 4397.28,-19.8 4400.12,-19.57 4402.99,-19.33"/>
<polygon fill="midnightblue" stroke="midnightblue" points="2938.55,-52.93 2929.15,-57.82 2939.54,-59.86 2938.55,-52.93"/>
</g>
<!-- Node36 -->
<g id="node36" class="node">
<title>Node36</title>
<g id="a_node36"><a xlink:href="PreservationAnalysisPass_8cpp.html" target="_top" xlink:title=" ">
<polygon fill="white" stroke="black" points="4556.5,-0.5 4556.5,-19.5 4718.5,-19.5 4718.5,-0.5 4556.5,-0.5"/>
<text text-anchor="middle" x="4637.5" y="-7.5" font-family="Helvetica,sans-Serif" font-size="10.00">PreservationAnalysisPass.cpp</text>
</a>
</g>
</g>
<!-- Node2&#45;&gt;Node36 -->
<g id="edge35" class="edge">
<title>Node2&#45;&gt;Node36</title>
<path fill="none" stroke="midnightblue" d="M2939.12,-56.39C3308.61,-5.23 4193.75,-41.61 4547.5,-20 4550.32,-19.83 4553.19,-19.64 4556.09,-19.43"/>
<polygon fill="midnightblue" stroke="midnightblue" points="2938.55,-52.93 2929.15,-57.81 2939.54,-59.86 2938.55,-52.93"/>
</g>
<!-- Node37 -->
<g id="node37" class="node">
<title>Node37</title>
<g id="a_node37"><a xlink:href="SPPreservationPass_8cpp.html" target="_top" xlink:title=" ">
<polygon fill="white" stroke="black" points="4737,-0.5 4737,-19.5 4870,-19.5 4870,-0.5 4737,-0.5"/>
<text text-anchor="middle" x="4803.5" y="-7.5" font-family="Helvetica,sans-Serif" font-size="10.00">SPPreservationPass.cpp</text>
</a>
</g>
</g>
<!-- Node2&#45;&gt;Node37 -->
<g id="edge36" class="edge">
<title>Node2&#45;&gt;Node37</title>
<path fill="none" stroke="midnightblue" d="M2939.3,-56.37C3348.61,-0.05 4334.1,-47.19 4727.5,-20 4730.55,-19.79 4733.66,-19.54 4736.81,-19.27"/>
<polygon fill="midnightblue" stroke="midnightblue" points="2938.56,-52.94 2929.15,-57.8 2939.54,-59.87 2938.56,-52.94"/>
</g>
<!-- Node38 -->
<g id="node38" class="node">
<title>Node38</title>
<g id="a_node38"><a xlink:href="PassManager_8cpp.html" target="_top" xlink:title=" ">
<polygon fill="white" stroke="black" points="4888.5,-0.5 4888.5,-19.5 4990.5,-19.5 4990.5,-0.5 4888.5,-0.5"/>
<text text-anchor="middle" x="4939.5" y="-7.5" font-family="Helvetica,sans-Serif" font-size="10.00">PassManager.cpp</text>
</a>
</g>
</g>
<!-- Node2&#45;&gt;Node38 -->
<g id="edge37" class="edge">
<title>Node2&#45;&gt;Node38</title>
<path fill="none" stroke="midnightblue" d="M2939.16,-56.39C3381.91,4.3 4452.86,-55.8 4879.5,-20 4882.44,-19.75 4885.45,-19.45 4888.49,-19.11"/>
<polygon fill="midnightblue" stroke="midnightblue" points="2938.56,-52.94 2929.15,-57.8 2939.54,-59.87 2938.56,-52.94"/>
</g>
<!-- Node39 -->
<g id="node39" class="node">
<title>Node39</title>
<g id="a_node39"><a xlink:href="Exp_8cpp.html" target="_top" xlink:title=" ">
<polygon fill="white" stroke="black" points="5009,-0.5 5009,-19.5 5064,-19.5 5064,-0.5 5009,-0.5"/>
<text text-anchor="middle" x="5036.5" y="-7.5" font-family="Helvetica,sans-Serif" font-size="10.00">Exp.cpp</text>
</a>
</g>
</g>
<!-- Node2&#45;&gt;Node39 -->
<g id="edge38" class="edge">
<title>Node2&#45;&gt;Node39</title>
<path fill="none" stroke="midnightblue" d="M2939.08,-56.4C3408.26,7.54 4548.4,-78.08 4999.5,-20 5002.52,-19.61 5005.64,-19.07 5008.74,-18.45"/>
<polygon fill="midnightblue" stroke="midnightblue" points="2938.56,-52.94 2929.14,-57.79 2939.53,-59.87 2938.56,-52.94"/>
</g>
<!-- Node40 -->
<g id="node40" class="node">
<title>Node40</title>
<g id="a_node40"><a xlink:href="Ternary_8cpp.html" target="_top" xlink:title=" ">
<polygon fill="white" stroke="black" points="5082,-0.5 5082,-19.5 5153,-19.5 5153,-0.5 5082,-0.5"/>
<text text-anchor="middle" x="5117.5" y="-7.5" font-family="Helvetica,sans-Serif" font-size="10.00">Ternary.cpp</text>
</a>
</g>
</g>
<!-- Node2&#45;&gt;Node40 -->
<g id="edge39" class="edge">
<title>Node2&#45;&gt;Node40</title>
<path fill="none" stroke="midnightblue" d="M2939.07,-56.4C3424.55,9.82 4605.04,-71.41 5073.5,-20 5076.14,-19.71 5078.85,-19.34 5081.57,-18.91"/>
<polygon fill="midnightblue" stroke="midnightblue" points="2938.56,-52.94 2929.14,-57.79 2939.53,-59.87 2938.56,-52.94"/>
</g>
<!-- Node41 -->
<g id="node41" class="node">
<title>Node41</title>
<g id="a_node41"><a xlink:href="Unary_8cpp.html" target="_top" xlink:title=" ">
<polygon fill="white" stroke="black" points="5171,-0.5 5171,-19.5 5236,-19.5 5236,-0.5 5171,-0.5"/>
<text text-anchor="middle" x="5203.5" y="-7.5" font-family="Helvetica,sans-Serif" font-size="10.00">Unary.cpp</text>
</a>
</g>
</g>
<!-- Node2&#45;&gt;Node41 -->
<g id="edge40" class="edge">
<title>Node2&#45;&gt;Node41</title>
<path fill="none" stroke="midnightblue" d="M2939.1,-56.4C3444.23,12.38 4674.78,-76.9 5162.5,-20 5165.25,-19.68 5168.09,-19.26 5170.93,-18.77"/>
<polygon fill="midnightblue" stroke="midnightblue" points="2938.56,-52.94 2929.14,-57.79 2939.53,-59.87 2938.56,-52.94"/>
</g>
<!-- Node42 -->
<g id="node42" class="node">
<title>Node42</title>
<g id="a_node42"><a xlink:href="Assign_8cpp.html" target="_top" xlink:title=" ">
<polygon fill="white" stroke="black" points="5254,-0.5 5254,-19.5 5323,-19.5 5323,-0.5 5254,-0.5"/>
<text text-anchor="middle" x="5288.5" y="-7.5" font-family="Helvetica,sans-Serif" font-size="10.00">Assign.cpp</text>
</a>
</g>
</g>
<!-- Node2&#45;&gt;Node42 -->
<g id="edge41" class="edge">
<title>Node2&#45;&gt;Node42</title>
<path fill="none" stroke="midnightblue" d="M2939.08,-56.4C3462.49,14.85 4739.16,-76.42 5245.5,-20 5248.23,-19.7 5251.04,-19.3 5253.86,-18.84"/>
<polygon fill="midnightblue" stroke="midnightblue" points="2938.56,-52.94 2929.14,-57.79 2939.53,-59.88 2938.56,-52.94"/>
</g>
<!-- Node43 -->
<g id="node43" class="node">
<title>Node43</title>
<g id="a_node43"><a xlink:href="Assignment_8cpp.html" target="_top" xlink:title=" ">
<polygon fill="white" stroke="black" points="5341,-0.5 5341,-19.5 5436,-19.5 5436,-0.5 5341,-0.5"/>
<text text-anchor="middle" x="5388.5" y="-7.5" font-family="Helvetica,sans-Serif" font-size="10.00">Assignment.cpp</text>
</a>
</g>
</g>
<!-- Node2&#45;&gt;Node43 -->
<g id="edge42" class="edge">
<title>Node2&#45;&gt;Node43</title>
<path fill="none" stroke="midnightblue" d="M2939.05,-56.41C3481.6,17.55 4805.7,-66.05 5332.5,-20 5335.25,-19.76 5338.06,-19.46 5340.9,-19.13"/>
<polygon fill="midnightblue" stroke="midnightblue" points="2938.57,-52.94 2929.14,-57.79 2939.53,-59.87 2938.57,-52.94"/>
</g>
<!-- Node44 -->
<g id="node44" class="node">
<title>Node44</title>
<g id="a_node44"><a xlink:href="CallStatement_8cpp.html" target="_top" xlink:title=" ">
<polygon fill="white" stroke="black" points="5454,-0.5 5454,-19.5 5561,-19.5 5561,-0.5 5454,-0.5"/>
<text text-anchor="middle" x="5507.5" y="-7.5" font-family="Helvetica,sans-Serif" font-size="10.00">CallStatement.cpp</text>
</a>
</g>
</g>
<!-- Node2&#45;&gt;Node44 -->
<g id="edge43" class="edge">
<title>Node2&#45;&gt;Node44</title>
<path fill="none" stroke="midnightblue" d="M2939.09,-56.4C3506.57,20.91 4893.33,-63.85 5445.5,-20 5448.21,-19.78 5450.98,-19.53 5453.78,-19.23"/>
<polygon fill="midnightblue" stroke="midnightblue" points="2938.57,-52.94 2929.14,-57.79 2939.53,-59.87 2938.57,-52.94"/>
</g>
<!-- Node45 -->
<g id="node45" class="node">
<title>Node45</title>
<g id="a_node45"><a xlink:href="ReturnStatement_8cpp.html" target="_top" xlink:title=" ">
<polygon fill="white" stroke="black" points="5579.5,-0.5 5579.5,-19.5 5699.5,-19.5 5699.5,-0.5 5579.5,-0.5"/>
<text text-anchor="middle" x="5639.5" y="-7.5" font-family="Helvetica,sans-Serif" font-size="10.00">ReturnStatement.cpp</text>
</a>
</g>
</g>
<!-- Node2&#45;&gt;Node45 -->
<g id="edge44" class="edge">
<title>Node2&#45;&gt;Node45</title>
<path fill="none" stroke="midnightblue" d="M2939.38,-56.43C3271.97,-15.75 5281.91,-40.72 5570.5,-20 5573.39,-19.79 5576.35,-19.54 5579.33,-19.27"/>
<polygon fill="midnightblue" stroke="midnightblue" points="2938.6,-53.01 2929.14,-57.78 2939.51,-59.95 2938.6,-53.01"/>
</g>
<!-- Node46 -->
<g id="node46" class="node">
<title>Node46</title>
<g id="a_node46"><a xlink:href="Statement_8cpp.html" target="_top" xlink:title=" ">
<polygon fill="white" stroke="black" points="5717.5,-0.5 5717.5,-19.5 5805.5,-19.5 5805.5,-0.5 5717.5,-0.5"/>
<text text-anchor="middle" x="5761.5" y="-7.5" font-family="Helvetica,sans-Serif" font-size="10.00">Statement.cpp</text>
</a>
</g>
</g>
<!-- Node2&#45;&gt;Node46 -->
<g id="edge45" class="edge">
<title>Node2&#45;&gt;Node46</title>
<path fill="none" stroke="midnightblue" d="M2939.2,-56.39C3564.71,28.55 5098.71,-75.4 5708.5,-20 5711.38,-19.74 5714.34,-19.41 5717.32,-19.03"/>
<polygon fill="midnightblue" stroke="midnightblue" points="2938.57,-52.94 2929.14,-57.78 2939.53,-59.88 2938.57,-52.94"/>
</g>
<!-- Node47 -->
<g id="node47" class="node">
<title>Node47</title>
<g id="a_node47"><a xlink:href="CallGraphDotWriter_8cpp.html" target="_top" xlink:title=" ">
<polygon fill="white" stroke="black" points="5823.5,-0.5 5823.5,-19.5 5955.5,-19.5 5955.5,-0.5 5823.5,-0.5"/>
<text text-anchor="middle" x="5889.5" y="-7.5" font-family="Helvetica,sans-Serif" font-size="10.00">CallGraphDotWriter.cpp</text>
</a>
</g>
</g>
<!-- Node2&#45;&gt;Node47 -->
<g id="edge46" class="edge">
<title>Node2&#45;&gt;Node47</title>
<path fill="none" stroke="midnightblue" d="M2939.23,-56.45C3298.56,-12.17 5498.73,-40.86 5814.5,-20 5817.38,-19.81 5820.32,-19.59 5823.28,-19.34"/>
<polygon fill="midnightblue" stroke="midnightblue" points="2938.6,-53 2929.14,-57.78 2939.51,-59.94 2938.6,-53"/>
</g>
<!-- Node48 -->
<g id="node48" class="node">
<title>Node48</title>
<g id="a_node48"><a xlink:href="CFGDotWriter_8cpp.html" target="_top" xlink:title=" ">
<polygon fill="white" stroke="black" points="5973.5,-0.5 5973.5,-19.5 6077.5,-19.5 6077.5,-0.5 5973.5,-0.5"/>
<text text-anchor="middle" x="6025.5" y="-7.5" font-family="Helvetica,sans-Serif" font-size="10.00">CFGDotWriter.cpp</text>
</a>
</g>
</g>
<!-- Node2&#45;&gt;Node48 -->
<g id="edge47" class="edge">
<title>Node2&#45;&gt;Node48</title>
<path fill="none" stroke="midnightblue" d="M2939.19,-56.45C3315.07,-10.07 5632.42,-46.35 5964.5,-20 5967.38,-19.77 5970.33,-19.49 5973.31,-19.17"/>
<polygon fill="midnightblue" stroke="midnightblue" points="2938.6,-53 2929.14,-57.78 2939.51,-59.94 2938.6,-53"/>
</g>
<!-- Node49 -->
<g id="node49" class="node">
<title>Node49</title>
<g id="a_node49"><a xlink:href="ProgSymbolWriter_8cpp.html" target="_top" xlink:title=" ">
<polygon fill="white" stroke="black" points="6096,-0.5 6096,-19.5 6221,-19.5 6221,-0.5 6096,-0.5"/>
<text text-anchor="middle" x="6158.5" y="-7.5" font-family="Helvetica,sans-Serif" font-size="10.00">ProgSymbolWriter.cpp</text>
</a>
</g>
</g>
<!-- Node2&#45;&gt;Node49 -->
<g id="edge48" class="edge">
<title>Node2&#45;&gt;Node49</title>
<path fill="none" stroke="midnightblue" d="M2939.29,-56.44C3329.07,-8.24 5740.66,-43.52 6086.5,-20 6089.52,-19.79 6092.6,-19.55 6095.71,-19.27"/>
<polygon fill="midnightblue" stroke="midnightblue" points="2938.6,-53 2929.14,-57.78 2939.51,-59.94 2938.6,-53"/>
</g>
</g>
</svg>
