<?xml version="1.0" encoding="UTF-8" standalone="no"?>
<!DOCTYPE svg PUBLIC "-//W3C//DTD SVG 1.1//EN"
 "http://www.w3.org/Graphics/SVG/1.1/DTD/svg11.dtd">
<!-- Generated by graphviz version 2.43.0 (0)
 -->
<!-- Title: Operator.h Pages: 1 -->
<svg width="4300pt" height="252pt"
 viewBox="0.00 0.00 4300.00 252.00" xmlns="http://www.w3.org/2000/svg" xmlns:xlink="http://www.w3.org/1999/xlink">
<g id="graph0" class="graph" transform="scale(1 1) rotate(0) translate(4 248)">
<title>Operator.h</title>
<polygon fill="white" stroke="transparent" points="-4,4 -4,-248 4296,-248 4296,4 -4,4"/>
<!-- Node1 -->
<g id="node1" class="node">
<title>Node1</title>
<g id="a_node1"><a xlink:title=" ">
<polygon fill="#bfbfbf" stroke="black" points="3851.5,-224.5 3851.5,-243.5 3919.5,-243.5 3919.5,-224.5 3851.5,-224.5"/>
<text text-anchor="middle" x="3885.5" y="-231.5" font-family="Helvetica,sans-Serif" font-size="10.00">Operator.h</text>
</a>
</g>
</g>
<!-- Node2 -->
<g id="node2" class="node">
<title>Node2</title>
<g id="a_node2"><a xlink:href="Exp_8h.html" target="_top" xlink:title=" ">
<polygon fill="white" stroke="black" points="3009.5,-168.5 3009.5,-187.5 3053.5,-187.5 3053.5,-168.5 3009.5,-168.5"/>
<text text-anchor="middle" x="3031.5" y="-175.5" font-family="Helvetica,sans-Serif" font-size="10.00">Exp.h</text>
</a>
</g>
</g>
<!-- Node1&#45;&gt;Node2 -->
<g id="edge1" class="edge">
<title>Node1&#45;&gt;Node2</title>
<path fill="none" stroke="midnightblue" d="M3841.37,-230.21C3685.99,-220.38 3167.51,-187.6 3053.71,-180.4"/>
<polygon fill="midnightblue" stroke="midnightblue" points="3841.29,-233.71 3851.5,-230.85 3841.74,-226.73 3841.29,-233.71"/>
</g>
<!-- Node171 -->
<g id="node16" class="node">
<title>Node171</title>
<g id="a_node16"><a xlink:href="RTL_8cpp.html" target="_top" xlink:title=" ">
<polygon fill="white" stroke="black" points="3643,-56.5 3643,-75.5 3698,-75.5 3698,-56.5 3643,-56.5"/>
<text text-anchor="middle" x="3670.5" y="-63.5" font-family="Helvetica,sans-Serif" font-size="10.00">RTL.cpp</text>
</a>
</g>
</g>
<!-- Node1&#45;&gt;Node171 -->
<g id="edge74" class="edge">
<title>Node1&#45;&gt;Node171</title>
<path fill="none" stroke="midnightblue" d="M3882.33,-214.3C3876.61,-186.93 3861.82,-136.54 3827.5,-112 3788.18,-83.88 3731.59,-73.25 3698.18,-69.3"/>
<polygon fill="midnightblue" stroke="midnightblue" points="3878.95,-215.31 3884.25,-224.48 3885.83,-214 3878.95,-215.31"/>
</g>
<!-- Node182 -->
<g id="node31" class="node">
<title>Node182</title>
<g id="a_node31"><a xlink:href="Signature_8h.html" target="_top" xlink:title=" ">
<polygon fill="white" stroke="red" points="1792.5,-112.5 1792.5,-131.5 1864.5,-131.5 1864.5,-112.5 1792.5,-112.5"/>
<text text-anchor="middle" x="1828.5" y="-119.5" font-family="Helvetica,sans-Serif" font-size="10.00">Signature.h</text>
</a>
</g>
</g>
<!-- Node1&#45;&gt;Node182 -->
<g id="edge41" class="edge">
<title>Node1&#45;&gt;Node182</title>
<path fill="none" stroke="midnightblue" d="M3841.02,-230.81C3711.42,-224.42 3322.89,-205.14 3000.5,-188 2552.81,-164.2 2009.03,-133.3 1864.95,-125.08"/>
<polygon fill="midnightblue" stroke="midnightblue" points="3841.17,-234.32 3851.33,-231.32 3841.51,-227.33 3841.17,-234.32"/>
</g>
<!-- Node187 -->
<g id="node47" class="node">
<title>Node187</title>
<g id="a_node47"><a xlink:href="ExpPrinter_8h.html" target="_top" xlink:title=" ">
<polygon fill="white" stroke="red" points="3781.5,-168.5 3781.5,-187.5 3857.5,-187.5 3857.5,-168.5 3781.5,-168.5"/>
<text text-anchor="middle" x="3819.5" y="-175.5" font-family="Helvetica,sans-Serif" font-size="10.00">ExpPrinter.h</text>
</a>
</g>
</g>
<!-- Node1&#45;&gt;Node187 -->
<g id="edge71" class="edge">
<title>Node1&#45;&gt;Node187</title>
<path fill="none" stroke="midnightblue" d="M3866.95,-217.82C3855.12,-208.15 3840.21,-195.95 3830.3,-187.83"/>
<polygon fill="midnightblue" stroke="midnightblue" points="3864.94,-220.7 3874.9,-224.32 3869.37,-215.28 3864.94,-220.7"/>
</g>
<!-- Node188 -->
<g id="node48" class="node">
<title>Node188</title>
<g id="a_node48"><a xlink:href="Operator_8cpp.html" target="_top" xlink:title=" ">
<polygon fill="white" stroke="black" points="3913.5,-168.5 3913.5,-187.5 3993.5,-187.5 3993.5,-168.5 3913.5,-168.5"/>
<text text-anchor="middle" x="3953.5" y="-175.5" font-family="Helvetica,sans-Serif" font-size="10.00">Operator.cpp</text>
</a>
</g>
</g>
<!-- Node1&#45;&gt;Node188 -->
<g id="edge73" class="edge">
<title>Node1&#45;&gt;Node188</title>
<path fill="none" stroke="midnightblue" d="M3904.26,-218.1C3916.5,-208.38 3932.06,-196.03 3942.38,-187.83"/>
<polygon fill="midnightblue" stroke="midnightblue" points="3902.08,-215.36 3896.43,-224.32 3906.43,-220.85 3902.08,-215.36"/>
</g>
<!-- Node189 -->
<g id="node49" class="node">
<title>Node189</title>
<g id="a_node49"><a xlink:href="CapstoneX86Decoder_8h.html" target="_top" xlink:title=" ">
<polygon fill="white" stroke="red" points="4012,-168.5 4012,-187.5 4143,-187.5 4143,-168.5 4012,-168.5"/>
<text text-anchor="middle" x="4077.5" y="-175.5" font-family="Helvetica,sans-Serif" font-size="10.00">CapstoneX86Decoder.h</text>
</a>
</g>
</g>
<!-- Node1&#45;&gt;Node189 -->
<g id="edge75" class="edge">
<title>Node1&#45;&gt;Node189</title>
<path fill="none" stroke="midnightblue" d="M3925.68,-221.7C3961.92,-211.51 4014.41,-196.74 4047.22,-187.52"/>
<polygon fill="midnightblue" stroke="midnightblue" points="3924.6,-218.37 3915.92,-224.44 3926.5,-225.11 3924.6,-218.37"/>
</g>
<!-- Node190 -->
<g id="node50" class="node">
<title>Node190</title>
<g id="a_node50"><a xlink:href="CapstonePPCDecoder_8h.html" target="_top" xlink:title=" ">
<polygon fill="white" stroke="red" points="4161,-168.5 4161,-187.5 4292,-187.5 4292,-168.5 4161,-168.5"/>
<text text-anchor="middle" x="4226.5" y="-175.5" font-family="Helvetica,sans-Serif" font-size="10.00">CapstonePPCDecoder.h</text>
</a>
</g>
</g>
<!-- Node1&#45;&gt;Node190 -->
<g id="edge76" class="edge">
<title>Node1&#45;&gt;Node190</title>
<path fill="none" stroke="midnightblue" d="M3929.67,-226C3992,-216.13 4105.64,-198.14 4172.77,-187.51"/>
<polygon fill="midnightblue" stroke="midnightblue" points="3929.09,-222.55 3919.76,-227.58 3930.18,-229.47 3929.09,-222.55"/>
</g>
<!-- Node3 -->
<g id="node3" class="node">
<title>Node3</title>
<g id="a_node3"><a xlink:href="LocationSet_8h.html" target="_top" xlink:title=" ">
<polygon fill="white" stroke="red" points="3084,-112.5 3084,-131.5 3167,-131.5 3167,-112.5 3084,-112.5"/>
<text text-anchor="middle" x="3125.5" y="-119.5" font-family="Helvetica,sans-Serif" font-size="10.00">LocationSet.h</text>
</a>
</g>
</g>
<!-- Node2&#45;&gt;Node3 -->
<g id="edge2" class="edge">
<title>Node2&#45;&gt;Node3</title>
<path fill="none" stroke="midnightblue" d="M3055.56,-163.18C3072.86,-153.24 3095.65,-140.15 3110.43,-131.65"/>
<polygon fill="midnightblue" stroke="midnightblue" points="3053.53,-160.31 3046.6,-168.32 3057.02,-166.38 3053.53,-160.31"/>
</g>
<!-- Node109 -->
<g id="node4" class="node">
<title>Node109</title>
<g id="a_node4"><a xlink:href="Exp_8cpp.html" target="_top" xlink:title=" ">
<polygon fill="white" stroke="black" points="3354,-56.5 3354,-75.5 3409,-75.5 3409,-56.5 3354,-56.5"/>
<text text-anchor="middle" x="3381.5" y="-63.5" font-family="Helvetica,sans-Serif" font-size="10.00">Exp.cpp</text>
</a>
</g>
</g>
<!-- Node2&#45;&gt;Node109 -->
<g id="edge32" class="edge">
<title>Node2&#45;&gt;Node109</title>
<path fill="none" stroke="midnightblue" d="M3064,-176.3C3205.91,-173.1 3765.21,-158.83 3790.5,-132 3844.31,-74.9 3509.1,-67.92 3409.07,-67.1"/>
<polygon fill="midnightblue" stroke="midnightblue" points="3063.7,-172.81 3053.78,-176.53 3063.86,-179.81 3063.7,-172.81"/>
</g>
<!-- Node114 -->
<g id="node5" class="node">
<title>Node114</title>
<g id="a_node5"><a xlink:href="Terminal_8h.html" target="_top" xlink:title=" ">
<polygon fill="white" stroke="red" points="2997.5,-112.5 2997.5,-131.5 3065.5,-131.5 3065.5,-112.5 2997.5,-112.5"/>
<text text-anchor="middle" x="3031.5" y="-119.5" font-family="Helvetica,sans-Serif" font-size="10.00">Terminal.h</text>
</a>
</g>
</g>
<!-- Node2&#45;&gt;Node114 -->
<g id="edge4" class="edge">
<title>Node2&#45;&gt;Node114</title>
<path fill="none" stroke="midnightblue" d="M3031.5,-157.8C3031.5,-148.91 3031.5,-138.78 3031.5,-131.75"/>
<polygon fill="midnightblue" stroke="midnightblue" points="3028,-158.08 3031.5,-168.08 3035,-158.08 3028,-158.08"/>
</g>
<!-- Node146 -->
<g id="node11" class="node">
<title>Node146</title>
<g id="a_node11"><a xlink:href="Unary_8h.html" target="_top" xlink:title=" ">
<polygon fill="white" stroke="red" points="3185,-112.5 3185,-131.5 3238,-131.5 3238,-112.5 3185,-112.5"/>
<text text-anchor="middle" x="3211.5" y="-119.5" font-family="Helvetica,sans-Serif" font-size="10.00">Unary.h</text>
</a>
</g>
</g>
<!-- Node2&#45;&gt;Node146 -->
<g id="edge11" class="edge">
<title>Node2&#45;&gt;Node146</title>
<path fill="none" stroke="midnightblue" d="M3063.17,-167.5C3097.73,-157.13 3152.43,-140.72 3184.86,-130.99"/>
<polygon fill="midnightblue" stroke="midnightblue" points="3062.14,-164.15 3053.57,-170.38 3064.16,-170.86 3062.14,-164.15"/>
</g>
<!-- Node169 -->
<g id="node12" class="node">
<title>Node169</title>
<g id="a_node12"><a xlink:href="Const_8h.html" target="_top" xlink:title=" ">
<polygon fill="white" stroke="red" points="2926,-112.5 2926,-131.5 2979,-131.5 2979,-112.5 2926,-112.5"/>
<text text-anchor="middle" x="2952.5" y="-119.5" font-family="Helvetica,sans-Serif" font-size="10.00">Const.h</text>
</a>
</g>
</g>
<!-- Node2&#45;&gt;Node169 -->
<g id="edge13" class="edge">
<title>Node2&#45;&gt;Node169</title>
<path fill="none" stroke="midnightblue" d="M3010.47,-162.62C2996.03,-152.76 2977.36,-139.99 2965.16,-131.65"/>
<polygon fill="midnightblue" stroke="midnightblue" points="3008.58,-165.57 3018.81,-168.32 3012.53,-159.79 3008.58,-165.57"/>
</g>
<!-- Node174 -->
<g id="node18" class="node">
<title>Node174</title>
<g id="a_node18"><a xlink:href="Parameter_8cpp.html" target="_top" xlink:title=" ">
<polygon fill="white" stroke="black" points="3256.5,-112.5 3256.5,-131.5 3344.5,-131.5 3344.5,-112.5 3256.5,-112.5"/>
<text text-anchor="middle" x="3300.5" y="-119.5" font-family="Helvetica,sans-Serif" font-size="10.00">Parameter.cpp</text>
</a>
</g>
</g>
<!-- Node2&#45;&gt;Node174 -->
<g id="edge24" class="edge">
<title>Node2&#45;&gt;Node174</title>
<path fill="none" stroke="midnightblue" d="M3063.45,-170.59C3111.92,-160.86 3204.11,-142.35 3258.13,-131.51"/>
<polygon fill="midnightblue" stroke="midnightblue" points="3062.63,-167.18 3053.51,-172.58 3064.01,-174.04 3062.63,-167.18"/>
</g>
<!-- Node175 -->
<g id="node19" class="node">
<title>Node175</title>
<g id="a_node19"><a xlink:href="PPCSignature_8h.html" target="_top" xlink:title=" ">
<polygon fill="white" stroke="red" points="2225,-56.5 2225,-75.5 2316,-75.5 2316,-56.5 2225,-56.5"/>
<text text-anchor="middle" x="2270.5" y="-63.5" font-family="Helvetica,sans-Serif" font-size="10.00">PPCSignature.h</text>
</a>
</g>
</g>
<!-- Node2&#45;&gt;Node175 -->
<g id="edge25" class="edge">
<title>Node2&#45;&gt;Node175</title>
<path fill="none" stroke="midnightblue" d="M2999.48,-169.94C2967.1,-162.33 2915.91,-148.99 2873.5,-132 2855.78,-124.9 2853.86,-117.23 2835.5,-112 2616.96,-49.76 2551.19,-102.38 2325.5,-76 2322.42,-75.64 2319.26,-75.23 2316.07,-74.79"/>
<polygon fill="midnightblue" stroke="midnightblue" points="2998.77,-173.37 3009.3,-172.21 3000.34,-166.55 2998.77,-173.37"/>
</g>
<!-- Node176 -->
<g id="node20" class="node">
<title>Node176</title>
<g id="a_node20"><a xlink:href="Return_8cpp.html" target="_top" xlink:title=" ">
<polygon fill="white" stroke="black" points="3363,-112.5 3363,-131.5 3432,-131.5 3432,-112.5 3363,-112.5"/>
<text text-anchor="middle" x="3397.5" y="-119.5" font-family="Helvetica,sans-Serif" font-size="10.00">Return.cpp</text>
</a>
</g>
</g>
<!-- Node2&#45;&gt;Node176 -->
<g id="edge27" class="edge">
<title>Node2&#45;&gt;Node176</title>
<path fill="none" stroke="midnightblue" d="M3063.88,-173.16C3122.04,-166.11 3247.97,-150.15 3353.5,-132 3356.57,-131.47 3359.76,-130.89 3362.95,-130.28"/>
<polygon fill="midnightblue" stroke="midnightblue" points="3063.34,-169.7 3053.83,-174.37 3064.17,-176.65 3063.34,-169.7"/>
</g>
<!-- Node177 -->
<g id="node21" class="node">
<title>Node177</title>
<g id="a_node21"><a xlink:href="ST20Signature_8h.html" target="_top" xlink:title=" ">
<polygon fill="white" stroke="red" points="2334.5,-56.5 2334.5,-75.5 2430.5,-75.5 2430.5,-56.5 2334.5,-56.5"/>
<text text-anchor="middle" x="2382.5" y="-63.5" font-family="Helvetica,sans-Serif" font-size="10.00">ST20Signature.h</text>
</a>
</g>
</g>
<!-- Node2&#45;&gt;Node177 -->
<g id="edge28" class="edge">
<title>Node2&#45;&gt;Node177</title>
<path fill="none" stroke="midnightblue" d="M2999.93,-165.25C2976.7,-156.46 2944.44,-143.95 2916.5,-132 2897.12,-123.71 2893.87,-117.4 2873.5,-112 2686.41,-62.42 2631.67,-99.11 2439.5,-76 2436.62,-75.65 2433.65,-75.27 2430.67,-74.86"/>
<polygon fill="midnightblue" stroke="midnightblue" points="2998.7,-168.53 3009.29,-168.78 3001.16,-161.98 2998.7,-168.53"/>
</g>
<!-- Node178 -->
<g id="node22" class="node">
<title>Node178</title>
<g id="a_node22"><a xlink:href="Win32Signature_8h.html" target="_top" xlink:title=" ">
<polygon fill="white" stroke="red" points="2104,-56.5 2104,-75.5 2207,-75.5 2207,-56.5 2104,-56.5"/>
<text text-anchor="middle" x="2155.5" y="-63.5" font-family="Helvetica,sans-Serif" font-size="10.00">Win32Signature.h</text>
</a>
</g>
</g>
<!-- Node2&#45;&gt;Node178 -->
<g id="edge30" class="edge">
<title>Node2&#45;&gt;Node178</title>
<path fill="none" stroke="midnightblue" d="M2999.26,-172.69C2959.66,-166.71 2890.92,-154.05 2835.5,-132 2819.21,-125.52 2818.27,-117.12 2801.5,-112 2676.73,-73.88 2345.25,-89.69 2215.5,-76 2212.78,-75.71 2209.99,-75.39 2207.17,-75.04"/>
<polygon fill="midnightblue" stroke="midnightblue" points="2998.98,-176.19 3009.38,-174.17 2999.99,-169.26 2998.98,-176.19"/>
</g>
<!-- Node179 -->
<g id="node23" class="node">
<title>Node179</title>
<g id="a_node23"><a xlink:href="ExpHelp_8cpp.html" target="_top" xlink:title=" ">
<polygon fill="white" stroke="black" points="3450,-112.5 3450,-131.5 3527,-131.5 3527,-112.5 3450,-112.5"/>
<text text-anchor="middle" x="3488.5" y="-119.5" font-family="Helvetica,sans-Serif" font-size="10.00">ExpHelp.cpp</text>
</a>
</g>
</g>
<!-- Node2&#45;&gt;Node179 -->
<g id="edge33" class="edge">
<title>Node2&#45;&gt;Node179</title>
<path fill="none" stroke="midnightblue" d="M3064.02,-174.27C3133.39,-168.25 3300.99,-152.72 3440.5,-132 3443.52,-131.55 3446.64,-131.05 3449.77,-130.52"/>
<polygon fill="midnightblue" stroke="midnightblue" points="3063.41,-170.81 3053.74,-175.15 3064.01,-177.78 3063.41,-170.81"/>
</g>
<!-- Node180 -->
<g id="node24" class="node">
<title>Node180</title>
<g id="a_node24"><a xlink:href="CaseStatement_8cpp.html" target="_top" xlink:title=" ">
<polygon fill="white" stroke="black" points="3545.5,-112.5 3545.5,-131.5 3657.5,-131.5 3657.5,-112.5 3545.5,-112.5"/>
<text text-anchor="middle" x="3601.5" y="-119.5" font-family="Helvetica,sans-Serif" font-size="10.00">CaseStatement.cpp</text>
</a>
</g>
</g>
<!-- Node2&#45;&gt;Node180 -->
<g id="edge34" class="edge">
<title>Node2&#45;&gt;Node180</title>
<path fill="none" stroke="midnightblue" d="M3064.06,-174.62C3144.3,-168.64 3357.91,-152.03 3535.5,-132 3538.72,-131.64 3542.02,-131.25 3545.35,-130.84"/>
<polygon fill="midnightblue" stroke="midnightblue" points="3063.36,-171.16 3053.64,-175.39 3063.88,-178.14 3063.36,-171.16"/>
</g>
<!-- Node181 -->
<g id="node25" class="node">
<title>Node181</title>
<g id="a_node25"><a xlink:href="ImplicitAssign_8cpp.html" target="_top" xlink:title=" ">
<polygon fill="white" stroke="black" points="3675.5,-112.5 3675.5,-131.5 3781.5,-131.5 3781.5,-112.5 3675.5,-112.5"/>
<text text-anchor="middle" x="3728.5" y="-119.5" font-family="Helvetica,sans-Serif" font-size="10.00">ImplicitAssign.cpp</text>
</a>
</g>
</g>
<!-- Node2&#45;&gt;Node181 -->
<g id="edge35" class="edge">
<title>Node2&#45;&gt;Node181</title>
<path fill="none" stroke="midnightblue" d="M3064.01,-175.54C3157.72,-171.15 3436.34,-156.83 3666.5,-132 3669.42,-131.69 3672.41,-131.34 3675.43,-130.96"/>
<polygon fill="midnightblue" stroke="midnightblue" points="3063.59,-172.06 3053.77,-176.01 3063.92,-179.05 3063.59,-172.06"/>
</g>
<!-- Node70 -->
<g id="node26" class="node">
<title>Node70</title>
<g id="a_node26"><a xlink:href="CFGDotWriter_8cpp.html" target="_top" xlink:title=" ">
<polygon fill="white" stroke="black" points="2183.5,-112.5 2183.5,-131.5 2287.5,-131.5 2287.5,-112.5 2183.5,-112.5"/>
<text text-anchor="middle" x="2235.5" y="-119.5" font-family="Helvetica,sans-Serif" font-size="10.00">CFGDotWriter.cpp</text>
</a>
</g>
</g>
<!-- Node2&#45;&gt;Node70 -->
<g id="edge36" class="edge">
<title>Node2&#45;&gt;Node70</title>
<path fill="none" stroke="midnightblue" d="M2999.48,-176.02C2896.94,-172.66 2567.6,-160.25 2296.5,-132 2293.63,-131.7 2290.68,-131.36 2287.71,-131"/>
<polygon fill="midnightblue" stroke="midnightblue" points="2999.39,-179.51 3009.5,-176.34 2999.61,-172.52 2999.39,-179.51"/>
</g>
<!-- Node74 -->
<g id="node27" class="node">
<title>Node74</title>
<g id="a_node27"><a xlink:href="Log_8cpp.html" target="_top" xlink:title=" ">
<polygon fill="white" stroke="black" points="2305.5,-112.5 2305.5,-131.5 2359.5,-131.5 2359.5,-112.5 2305.5,-112.5"/>
<text text-anchor="middle" x="2332.5" y="-119.5" font-family="Helvetica,sans-Serif" font-size="10.00">Log.cpp</text>
</a>
</g>
</g>
<!-- Node2&#45;&gt;Node74 -->
<g id="edge37" class="edge">
<title>Node2&#45;&gt;Node74</title>
<path fill="none" stroke="midnightblue" d="M2999.03,-176.83C2902.41,-175.88 2608.54,-169.84 2368.5,-132 2365.57,-131.54 2362.54,-130.95 2359.52,-130.3"/>
<polygon fill="midnightblue" stroke="midnightblue" points="2999.28,-180.33 3009.31,-176.92 2999.34,-173.33 2999.28,-180.33"/>
</g>
<!-- Node121 -->
<g id="node28" class="node">
<title>Node121</title>
<g id="a_node28"><a xlink:href="StmtImplicitConverter_8cpp.html" target="_top" xlink:title=" ">
<polygon fill="white" stroke="black" points="2378,-112.5 2378,-131.5 2523,-131.5 2523,-112.5 2378,-112.5"/>
<text text-anchor="middle" x="2450.5" y="-119.5" font-family="Helvetica,sans-Serif" font-size="10.00">StmtImplicitConverter.cpp</text>
</a>
</g>
</g>
<!-- Node2&#45;&gt;Node121 -->
<g id="edge38" class="edge">
<title>Node2&#45;&gt;Node121</title>
<path fill="none" stroke="midnightblue" d="M2998.66,-174.28C2918.7,-167.62 2707.5,-149.7 2531.5,-132 2528.83,-131.73 2526.1,-131.45 2523.35,-131.17"/>
<polygon fill="midnightblue" stroke="midnightblue" points="2998.8,-177.81 3009.06,-175.15 2999.38,-170.83 2998.8,-177.81"/>
</g>
<!-- Node102 -->
<g id="node29" class="node">
<title>Node102</title>
<g id="a_node29"><a xlink:href="StmtSubscripter_8cpp.html" target="_top" xlink:title=" ">
<polygon fill="white" stroke="black" points="2541,-112.5 2541,-131.5 2656,-131.5 2656,-112.5 2541,-112.5"/>
<text text-anchor="middle" x="2598.5" y="-119.5" font-family="Helvetica,sans-Serif" font-size="10.00">StmtSubscripter.cpp</text>
</a>
</g>
</g>
<!-- Node2&#45;&gt;Node102 -->
<g id="edge39" class="edge">
<title>Node2&#45;&gt;Node102</title>
<path fill="none" stroke="midnightblue" d="M2998.87,-173.15C2934.76,-165.55 2787.87,-147.97 2664.5,-132 2661.75,-131.64 2658.93,-131.27 2656.09,-130.9"/>
<polygon fill="midnightblue" stroke="midnightblue" points="2998.8,-176.67 3009.15,-174.37 2999.63,-169.71 2998.8,-176.67"/>
</g>
<!-- Node129 -->
<g id="node30" class="node">
<title>Node129</title>
<g id="a_node30"><a xlink:href="StmtCastInserter_8cpp.html" target="_top" xlink:title=" ">
<polygon fill="white" stroke="black" points="2674,-112.5 2674,-131.5 2793,-131.5 2793,-112.5 2674,-112.5"/>
<text text-anchor="middle" x="2733.5" y="-119.5" font-family="Helvetica,sans-Serif" font-size="10.00">StmtCastInserter.cpp</text>
</a>
</g>
</g>
<!-- Node2&#45;&gt;Node129 -->
<g id="edge40" class="edge">
<title>Node2&#45;&gt;Node129</title>
<path fill="none" stroke="midnightblue" d="M2998.94,-171.1C2946.07,-161.52 2841.33,-142.54 2780.42,-131.5"/>
<polygon fill="midnightblue" stroke="midnightblue" points="2998.64,-174.6 3009.1,-172.94 2999.89,-167.71 2998.64,-174.6"/>
</g>
<!-- Node3&#45;&gt;Node109 -->
<g id="edge3" class="edge">
<title>Node3&#45;&gt;Node109</title>
<path fill="none" stroke="midnightblue" d="M3176.55,-110.32C3219.92,-101.24 3283.8,-87.82 3339.5,-76 3344.17,-75.01 3349.13,-73.95 3353.94,-72.92"/>
<polygon fill="midnightblue" stroke="midnightblue" points="3175.61,-106.94 3166.54,-112.42 3177.04,-113.8 3175.61,-106.94"/>
</g>
<!-- Node114&#45;&gt;Node109 -->
<g id="edge7" class="edge">
<title>Node114&#45;&gt;Node109</title>
<path fill="none" stroke="midnightblue" d="M3075.84,-111.88C3193.38,-92.05 3225.62,-95.91 3339.5,-76 3344.2,-75.18 3349.18,-74.2 3354,-73.21"/>
<polygon fill="midnightblue" stroke="midnightblue" points="3074.99,-108.47 3065.73,-113.61 3076.17,-115.37 3074.99,-108.47"/>
</g>
<!-- Node16 -->
<g id="node6" class="node">
<title>Node16</title>
<g id="a_node6"><a xlink:href="Prog_8cpp.html" target="_top" xlink:title=" ">
<polygon fill="white" stroke="black" points="2923,-56.5 2923,-75.5 2982,-75.5 2982,-56.5 2923,-56.5"/>
<text text-anchor="middle" x="2952.5" y="-63.5" font-family="Helvetica,sans-Serif" font-size="10.00">Prog.cpp</text>
</a>
</g>
</g>
<!-- Node114&#45;&gt;Node16 -->
<g id="edge5" class="edge">
<title>Node114&#45;&gt;Node16</title>
<path fill="none" stroke="midnightblue" d="M3010.47,-106.62C2996.03,-96.76 2977.36,-83.99 2965.16,-75.65"/>
<polygon fill="midnightblue" stroke="midnightblue" points="3008.58,-109.57 3018.81,-112.32 3012.53,-103.79 3008.58,-109.57"/>
</g>
<!-- Node18 -->
<g id="node7" class="node">
<title>Node18</title>
<g id="a_node7"><a xlink:href="Signature_8cpp.html" target="_top" xlink:title=" ">
<polygon fill="white" stroke="black" points="2171,-0.5 2171,-19.5 2254,-19.5 2254,-0.5 2171,-0.5"/>
<text text-anchor="middle" x="2212.5" y="-7.5" font-family="Helvetica,sans-Serif" font-size="10.00">Signature.cpp</text>
</a>
</g>
</g>
<!-- Node114&#45;&gt;Node18 -->
<g id="edge6" class="edge">
<title>Node114&#45;&gt;Node18</title>
<path fill="none" stroke="midnightblue" d="M3075.86,-112C3189.92,-95.24 3376.5,-129.99 3305.5,-56 3268.45,-17.4 2449.5,-11.89 2254.09,-11.12"/>
<polygon fill="midnightblue" stroke="midnightblue" points="3075.04,-108.59 3065.74,-113.67 3076.17,-115.5 3075.04,-108.59"/>
</g>
<!-- Node60 -->
<g id="node8" class="node">
<title>Node60</title>
<g id="a_node8"><a xlink:href="Assignment_8cpp.html" target="_top" xlink:title=" ">
<polygon fill="white" stroke="black" points="3000,-56.5 3000,-75.5 3095,-75.5 3095,-56.5 3000,-56.5"/>
<text text-anchor="middle" x="3047.5" y="-63.5" font-family="Helvetica,sans-Serif" font-size="10.00">Assignment.cpp</text>
</a>
</g>
</g>
<!-- Node114&#45;&gt;Node60 -->
<g id="edge8" class="edge">
<title>Node114&#45;&gt;Node60</title>
<path fill="none" stroke="midnightblue" d="M3037.01,-102.4C3039.69,-93.36 3042.78,-82.94 3044.91,-75.75"/>
<polygon fill="midnightblue" stroke="midnightblue" points="3033.63,-101.5 3034.14,-112.08 3040.34,-103.49 3033.63,-101.5"/>
</g>
<!-- Node61 -->
<g id="node9" class="node">
<title>Node61</title>
<g id="a_node9"><a xlink:href="CallStatement_8cpp.html" target="_top" xlink:title=" ">
<polygon fill="white" stroke="black" points="3113,-56.5 3113,-75.5 3220,-75.5 3220,-56.5 3113,-56.5"/>
<text text-anchor="middle" x="3166.5" y="-63.5" font-family="Helvetica,sans-Serif" font-size="10.00">CallStatement.cpp</text>
</a>
</g>
</g>
<!-- Node114&#45;&gt;Node61 -->
<g id="edge9" class="edge">
<title>Node114&#45;&gt;Node61</title>
<path fill="none" stroke="midnightblue" d="M3062.41,-108.64C3087.74,-98.5 3122.93,-84.43 3145.21,-75.52"/>
<polygon fill="midnightblue" stroke="midnightblue" points="3060.88,-105.48 3052.89,-112.44 3063.48,-111.98 3060.88,-105.48"/>
</g>
<!-- Node65 -->
<g id="node10" class="node">
<title>Node65</title>
<g id="a_node10"><a xlink:href="Type_8cpp.html" target="_top" xlink:title=" ">
<polygon fill="white" stroke="black" points="3238,-56.5 3238,-75.5 3297,-75.5 3297,-56.5 3238,-56.5"/>
<text text-anchor="middle" x="3267.5" y="-63.5" font-family="Helvetica,sans-Serif" font-size="10.00">Type.cpp</text>
</a>
</g>
</g>
<!-- Node114&#45;&gt;Node65 -->
<g id="edge10" class="edge">
<title>Node114&#45;&gt;Node65</title>
<path fill="none" stroke="midnightblue" d="M3075.61,-110.95C3115.54,-101.85 3175.97,-88.06 3228.5,-76 3231.48,-75.32 3234.59,-74.6 3237.69,-73.89"/>
<polygon fill="midnightblue" stroke="midnightblue" points="3074.64,-107.58 3065.67,-113.22 3076.2,-114.41 3074.64,-107.58"/>
</g>
<!-- Node146&#45;&gt;Node109 -->
<g id="edge12" class="edge">
<title>Node146&#45;&gt;Node109</title>
<path fill="none" stroke="midnightblue" d="M3247.93,-109.43C3279.93,-99.26 3325.76,-84.7 3354.56,-75.56"/>
<polygon fill="midnightblue" stroke="midnightblue" points="3246.53,-106.2 3238.06,-112.56 3248.65,-112.87 3246.53,-106.2"/>
</g>
<!-- Node169&#45;&gt;Node109 -->
<g id="edge18" class="edge">
<title>Node169&#45;&gt;Node109</title>
<path fill="none" stroke="midnightblue" d="M2989.02,-112.14C3129.73,-86.99 3167.81,-91.97 3305.5,-76 3321.47,-74.15 3339.32,-72.04 3353.71,-70.32"/>
<polygon fill="midnightblue" stroke="midnightblue" points="2988.37,-108.7 2979.15,-113.92 2989.61,-115.59 2988.37,-108.7"/>
</g>
<!-- Node169&#45;&gt;Node16 -->
<g id="edge16" class="edge">
<title>Node169&#45;&gt;Node16</title>
<path fill="none" stroke="midnightblue" d="M2952.5,-101.8C2952.5,-92.91 2952.5,-82.78 2952.5,-75.75"/>
<polygon fill="midnightblue" stroke="midnightblue" points="2949,-102.08 2952.5,-112.08 2956,-102.08 2949,-102.08"/>
</g>
<!-- Node169&#45;&gt;Node60 -->
<g id="edge20" class="edge">
<title>Node169&#45;&gt;Node60</title>
<path fill="none" stroke="midnightblue" d="M2976.82,-107.18C2994.3,-97.24 3017.33,-84.15 3032.27,-75.65"/>
<polygon fill="midnightblue" stroke="midnightblue" points="2974.73,-104.34 2967.76,-112.32 2978.19,-110.43 2974.73,-104.34"/>
</g>
<!-- Node169&#45;&gt;Node61 -->
<g id="edge21" class="edge">
<title>Node169&#45;&gt;Node61</title>
<path fill="none" stroke="midnightblue" d="M2989.12,-111.76C3029.43,-101.59 3093.68,-85.38 3132.79,-75.51"/>
<polygon fill="midnightblue" stroke="midnightblue" points="2988.01,-108.43 2979.17,-114.27 2989.72,-115.22 2988.01,-108.43"/>
</g>
<!-- Node169&#45;&gt;Node65 -->
<g id="edge22" class="edge">
<title>Node169&#45;&gt;Node65</title>
<path fill="none" stroke="midnightblue" d="M2989.07,-112.07C3096,-91.18 3125.64,-95.55 3228.5,-76 3231.5,-75.43 3234.63,-74.79 3237.74,-74.12"/>
<polygon fill="midnightblue" stroke="midnightblue" points="2988.3,-108.65 2979.17,-114.03 2989.66,-115.52 2988.3,-108.65"/>
</g>
<!-- Node8 -->
<g id="node13" class="node">
<title>Node8</title>
<g id="a_node13"><a xlink:href="DebugInfo_8cpp.html" target="_top" xlink:title=" ">
<polygon fill="white" stroke="black" points="2818,-56.5 2818,-75.5 2905,-75.5 2905,-56.5 2818,-56.5"/>
<text text-anchor="middle" x="2861.5" y="-63.5" font-family="Helvetica,sans-Serif" font-size="10.00">DebugInfo.cpp</text>
</a>
</g>
</g>
<!-- Node169&#45;&gt;Node8 -->
<g id="edge14" class="edge">
<title>Node169&#45;&gt;Node8</title>
<path fill="none" stroke="midnightblue" d="M2929.21,-107.18C2912.46,-97.24 2890.4,-84.15 2876.08,-75.65"/>
<polygon fill="midnightblue" stroke="midnightblue" points="2927.49,-110.23 2937.88,-112.32 2931.07,-104.21 2927.49,-110.23"/>
</g>
<!-- Node13 -->
<g id="node14" class="node">
<title>Node13</title>
<g id="a_node14"><a xlink:href="UserProc_8cpp.html" target="_top" xlink:title=" ">
<polygon fill="white" stroke="black" points="2448.5,-56.5 2448.5,-75.5 2528.5,-75.5 2528.5,-56.5 2448.5,-56.5"/>
<text text-anchor="middle" x="2488.5" y="-63.5" font-family="Helvetica,sans-Serif" font-size="10.00">UserProc.cpp</text>
</a>
</g>
</g>
<!-- Node169&#45;&gt;Node13 -->
<g id="edge15" class="edge">
<title>Node169&#45;&gt;Node13</title>
<path fill="none" stroke="midnightblue" d="M2915.44,-112.66C2914.11,-112.42 2912.8,-112.2 2911.5,-112 2746.54,-86.05 2702.88,-99.1 2537.5,-76 2534.59,-75.59 2531.58,-75.14 2528.57,-74.65"/>
<polygon fill="midnightblue" stroke="midnightblue" points="2915.2,-116.17 2925.68,-114.63 2916.52,-109.3 2915.2,-116.17"/>
</g>
<!-- Node28 -->
<g id="node15" class="node">
<title>Node28</title>
<g id="a_node15"><a xlink:href="DefaultFrontEnd_8cpp.html" target="_top" xlink:title=" ">
<polygon fill="white" stroke="black" points="2546.5,-56.5 2546.5,-75.5 2662.5,-75.5 2662.5,-56.5 2546.5,-56.5"/>
<text text-anchor="middle" x="2604.5" y="-63.5" font-family="Helvetica,sans-Serif" font-size="10.00">DefaultFrontEnd.cpp</text>
</a>
</g>
</g>
<!-- Node169&#45;&gt;Node28 -->
<g id="edge17" class="edge">
<title>Node169&#45;&gt;Node28</title>
<path fill="none" stroke="midnightblue" d="M2915.43,-112.74C2914.1,-112.48 2912.79,-112.24 2911.5,-112 2865,-103.5 2737.97,-85.51 2662.68,-75.03"/>
<polygon fill="midnightblue" stroke="midnightblue" points="2915.15,-116.25 2925.65,-114.82 2916.55,-109.4 2915.15,-116.25"/>
</g>
<!-- Node169&#45;&gt;Node171 -->
<g id="edge19" class="edge">
<title>Node169&#45;&gt;Node171</title>
<path fill="none" stroke="midnightblue" d="M2989.33,-112.23C3137.1,-90.85 3533.86,-72.84 3642.63,-68.17"/>
<polygon fill="midnightblue" stroke="midnightblue" points="2988.49,-108.82 2979.13,-113.78 2989.54,-115.74 2988.49,-108.82"/>
</g>
<!-- Node66 -->
<g id="node17" class="node">
<title>Node66</title>
<g id="a_node17"><a xlink:href="DataIntervalMap_8cpp.html" target="_top" xlink:title=" ">
<polygon fill="white" stroke="black" points="2681,-56.5 2681,-75.5 2800,-75.5 2800,-56.5 2681,-56.5"/>
<text text-anchor="middle" x="2740.5" y="-63.5" font-family="Helvetica,sans-Serif" font-size="10.00">DataIntervalMap.cpp</text>
</a>
</g>
</g>
<!-- Node169&#45;&gt;Node66 -->
<g id="edge23" class="edge">
<title>Node169&#45;&gt;Node66</title>
<path fill="none" stroke="midnightblue" d="M2915.8,-111.65C2875.91,-101.49 2812.74,-85.4 2774.11,-75.56"/>
<polygon fill="midnightblue" stroke="midnightblue" points="2915.1,-115.08 2925.65,-114.16 2916.82,-108.3 2915.1,-115.08"/>
</g>
<!-- Node175&#45;&gt;Node18 -->
<g id="edge26" class="edge">
<title>Node175&#45;&gt;Node18</title>
<path fill="none" stroke="midnightblue" d="M2253.59,-49.25C2243.3,-39.67 2230.53,-27.79 2221.99,-19.83"/>
<polygon fill="midnightblue" stroke="midnightblue" points="2251.48,-52.07 2261.18,-56.32 2256.25,-46.95 2251.48,-52.07"/>
</g>
<!-- Node177&#45;&gt;Node18 -->
<g id="edge29" class="edge">
<title>Node177&#45;&gt;Node18</title>
<path fill="none" stroke="midnightblue" d="M2345.68,-53.3C2313.65,-43.13 2267.98,-28.62 2239.31,-19.52"/>
<polygon fill="midnightblue" stroke="midnightblue" points="2344.97,-56.75 2355.56,-56.44 2347.09,-50.08 2344.97,-56.75"/>
</g>
<!-- Node178&#45;&gt;Node18 -->
<g id="edge31" class="edge">
<title>Node178&#45;&gt;Node18</title>
<path fill="none" stroke="midnightblue" d="M2172.12,-49.25C2182.23,-39.67 2194.78,-27.79 2203.18,-19.83"/>
<polygon fill="midnightblue" stroke="midnightblue" points="2169.51,-46.91 2164.66,-56.32 2174.32,-51.99 2169.51,-46.91"/>
</g>
<!-- Node182&#45;&gt;Node109 -->
<g id="edge63" class="edge">
<title>Node182&#45;&gt;Node109</title>
<path fill="none" stroke="midnightblue" d="M1875.07,-119.7C2118.11,-112.88 3232.59,-81.42 3305.5,-76 3321.53,-74.81 3339.39,-72.73 3353.76,-70.87"/>
<polygon fill="midnightblue" stroke="midnightblue" points="1874.71,-116.2 1864.82,-119.98 1874.91,-123.2 1874.71,-116.2"/>
</g>
<!-- Node182&#45;&gt;Node16 -->
<g id="edge47" class="edge">
<title>Node182&#45;&gt;Node16</title>
<path fill="none" stroke="midnightblue" d="M1874.92,-119.58C2068.94,-113.59 2809.73,-90 2913.5,-76 2916.53,-75.59 2919.67,-75.06 2922.79,-74.45"/>
<polygon fill="midnightblue" stroke="midnightblue" points="1874.66,-116.09 1864.77,-119.9 1874.87,-123.09 1874.66,-116.09"/>
</g>
<!-- Node182&#45;&gt;Node18 -->
<g id="edge50" class="edge">
<title>Node182&#45;&gt;Node18</title>
<path fill="none" stroke="midnightblue" d="M1782,-119.93C1622.71,-116.03 1107.51,-101.51 1083.5,-76 1077.41,-69.53 1077.34,-62.41 1083.5,-56 1121.88,-16.06 1971.45,-11.57 2170.87,-11.06"/>
<polygon fill="midnightblue" stroke="midnightblue" points="1782.32,-123.44 1792.4,-120.18 1782.49,-116.44 1782.32,-123.44"/>
</g>
<!-- Node182&#45;&gt;Node60 -->
<g id="edge64" class="edge">
<title>Node182&#45;&gt;Node60</title>
<path fill="none" stroke="midnightblue" d="M1874.83,-119.53C2077.18,-113.06 2878.29,-86.99 2990.5,-76 2993.59,-75.7 2996.77,-75.34 2999.97,-74.93"/>
<polygon fill="midnightblue" stroke="midnightblue" points="1874.44,-116.04 1864.55,-119.86 1874.66,-123.04 1874.44,-116.04"/>
</g>
<!-- Node182&#45;&gt;Node61 -->
<g id="edge65" class="edge">
<title>Node182&#45;&gt;Node61</title>
<path fill="none" stroke="midnightblue" d="M1875.09,-119.65C2089.89,-113.39 2979.49,-87.01 3103.5,-76 3106.58,-75.73 3109.74,-75.4 3112.93,-75.05"/>
<polygon fill="midnightblue" stroke="midnightblue" points="1874.69,-116.16 1864.79,-119.95 1874.89,-123.16 1874.69,-116.16"/>
</g>
<!-- Node182&#45;&gt;Node65 -->
<g id="edge68" class="edge">
<title>Node182&#45;&gt;Node65</title>
<path fill="none" stroke="midnightblue" d="M1874.89,-119.76C2109.84,-113.47 3160,-84.92 3228.5,-76 3231.53,-75.61 3234.67,-75.08 3237.8,-74.48"/>
<polygon fill="midnightblue" stroke="midnightblue" points="1874.55,-116.27 1864.64,-120.04 1874.73,-123.27 1874.55,-116.27"/>
</g>
<!-- Node182&#45;&gt;Node8 -->
<g id="edge42" class="edge">
<title>Node182&#45;&gt;Node8</title>
<path fill="none" stroke="midnightblue" d="M1874.53,-119.64C2042.73,-114.53 2623.87,-95.84 2808.5,-76 2811.56,-75.67 2814.72,-75.28 2817.89,-74.84"/>
<polygon fill="midnightblue" stroke="midnightblue" points="1874.41,-116.14 1864.52,-119.94 1874.62,-123.13 1874.41,-116.14"/>
</g>
<!-- Node182&#45;&gt;Node13 -->
<g id="edge46" class="edge">
<title>Node182&#45;&gt;Node13</title>
<path fill="none" stroke="midnightblue" d="M1874.78,-119.3C1977.01,-115.17 2229.64,-102.92 2439.5,-76 2442.42,-75.63 2445.42,-75.19 2448.44,-74.72"/>
<polygon fill="midnightblue" stroke="midnightblue" points="1874.65,-115.8 1864.79,-119.7 1874.92,-122.8 1874.65,-115.8"/>
</g>
<!-- Node182&#45;&gt;Node28 -->
<g id="edge56" class="edge">
<title>Node182&#45;&gt;Node28</title>
<path fill="none" stroke="midnightblue" d="M1874.78,-119.19C1988.05,-114.51 2288.14,-100.63 2537.5,-76 2540.42,-75.71 2543.41,-75.39 2546.42,-75.05"/>
<polygon fill="midnightblue" stroke="midnightblue" points="1874.58,-115.69 1864.73,-119.6 1874.86,-122.69 1874.58,-115.69"/>
</g>
<!-- Node182&#45;&gt;Node66 -->
<g id="edge69" class="edge">
<title>Node182&#45;&gt;Node66</title>
<path fill="none" stroke="midnightblue" d="M1874.9,-119.77C2002.34,-116.11 2368.42,-103.81 2671.5,-76 2674.51,-75.72 2677.59,-75.42 2680.69,-75.09"/>
<polygon fill="midnightblue" stroke="midnightblue" points="1874.62,-116.27 1864.72,-120.06 1874.82,-123.27 1874.62,-116.27"/>
</g>
<!-- Node182&#45;&gt;Node175 -->
<g id="edge49" class="edge">
<title>Node182&#45;&gt;Node175</title>
<path fill="none" stroke="midnightblue" d="M1874.77,-116.32C1947.45,-108.82 2092.75,-93.17 2215.5,-76 2218.57,-75.57 2221.73,-75.11 2224.91,-74.63"/>
<polygon fill="midnightblue" stroke="midnightblue" points="1874.17,-112.86 1864.59,-117.37 1874.89,-119.83 1874.17,-112.86"/>
</g>
<!-- Node182&#45;&gt;Node177 -->
<g id="edge51" class="edge">
<title>Node182&#45;&gt;Node177</title>
<path fill="none" stroke="midnightblue" d="M1874.85,-117.78C1962.73,-111.46 2159.56,-96.26 2324.5,-76 2327.74,-75.6 2331.07,-75.16 2334.43,-74.7"/>
<polygon fill="midnightblue" stroke="midnightblue" points="1874.4,-114.3 1864.68,-118.51 1874.9,-121.29 1874.4,-114.3"/>
</g>
<!-- Node182&#45;&gt;Node178 -->
<g id="edge52" class="edge">
<title>Node182&#45;&gt;Node178</title>
<path fill="none" stroke="midnightblue" d="M1874.77,-113.36C1935.22,-103.38 2040.76,-85.95 2103.79,-75.54"/>
<polygon fill="midnightblue" stroke="midnightblue" points="1874.04,-109.93 1864.74,-115.01 1875.18,-116.84 1874.04,-109.93"/>
</g>
<!-- Node11 -->
<g id="node32" class="node">
<title>Node11</title>
<g id="a_node32"><a xlink:href="Module_8cpp.html" target="_top" xlink:title=" ">
<polygon fill="white" stroke="black" points="1202,-56.5 1202,-75.5 1275,-75.5 1275,-56.5 1202,-56.5"/>
<text text-anchor="middle" x="1238.5" y="-63.5" font-family="Helvetica,sans-Serif" font-size="10.00">Module.cpp</text>
</a>
</g>
</g>
<!-- Node182&#45;&gt;Node11 -->
<g id="edge43" class="edge">
<title>Node182&#45;&gt;Node11</title>
<path fill="none" stroke="midnightblue" d="M1782.35,-118.91C1688.32,-114.27 1467.94,-101.45 1284.5,-76 1281.44,-75.58 1278.27,-75.08 1275.1,-74.54"/>
<polygon fill="midnightblue" stroke="midnightblue" points="1782.23,-122.41 1792.38,-119.4 1782.56,-115.42 1782.23,-122.41"/>
</g>
<!-- Node183 -->
<g id="node33" class="node">
<title>Node183</title>
<g id="a_node33"><a xlink:href="LibProc_8cpp.html" target="_top" xlink:title=" ">
<polygon fill="white" stroke="black" points="1293.5,-56.5 1293.5,-75.5 1365.5,-75.5 1365.5,-56.5 1293.5,-56.5"/>
<text text-anchor="middle" x="1329.5" y="-63.5" font-family="Helvetica,sans-Serif" font-size="10.00">LibProc.cpp</text>
</a>
</g>
</g>
<!-- Node182&#45;&gt;Node183 -->
<g id="edge44" class="edge">
<title>Node182&#45;&gt;Node183</title>
<path fill="none" stroke="midnightblue" d="M1782.43,-117.94C1700.2,-112.15 1522.87,-98.14 1374.5,-76 1371.66,-75.58 1368.73,-75.09 1365.8,-74.58"/>
<polygon fill="midnightblue" stroke="midnightblue" points="1782.23,-121.44 1792.45,-118.64 1782.72,-114.45 1782.23,-121.44"/>
</g>
<!-- Node96 -->
<g id="node34" class="node">
<title>Node96</title>
<g id="a_node34"><a xlink:href="Proc_8cpp.html" target="_top" xlink:title=" ">
<polygon fill="white" stroke="black" points="1383.5,-56.5 1383.5,-75.5 1441.5,-75.5 1441.5,-56.5 1383.5,-56.5"/>
<text text-anchor="middle" x="1412.5" y="-63.5" font-family="Helvetica,sans-Serif" font-size="10.00">Proc.cpp</text>
</a>
</g>
</g>
<!-- Node182&#45;&gt;Node96 -->
<g id="edge45" class="edge">
<title>Node182&#45;&gt;Node96</title>
<path fill="none" stroke="midnightblue" d="M1782.31,-117.21C1710.83,-110.97 1569.27,-97.06 1450.5,-76 1447.7,-75.5 1444.79,-74.93 1441.89,-74.31"/>
<polygon fill="midnightblue" stroke="midnightblue" points="1782.07,-120.7 1792.34,-118.08 1782.67,-113.73 1782.07,-120.7"/>
</g>
<!-- Node184 -->
<g id="node35" class="node">
<title>Node184</title>
<g id="a_node35"><a xlink:href="CustomSignature_8h.html" target="_top" xlink:title=" ">
<polygon fill="white" stroke="red" points="1459.5,-56.5 1459.5,-75.5 1569.5,-75.5 1569.5,-56.5 1459.5,-56.5"/>
<text text-anchor="middle" x="1514.5" y="-63.5" font-family="Helvetica,sans-Serif" font-size="10.00">CustomSignature.h</text>
</a>
</g>
</g>
<!-- Node182&#45;&gt;Node184 -->
<g id="edge48" class="edge">
<title>Node182&#45;&gt;Node184</title>
<path fill="none" stroke="midnightblue" d="M1782.44,-113.08C1724.09,-103.04 1623.93,-85.82 1563.99,-75.51"/>
<polygon fill="midnightblue" stroke="midnightblue" points="1782.03,-116.56 1792.48,-114.81 1783.22,-109.66 1782.03,-116.56"/>
</g>
<!-- Node185 -->
<g id="node36" class="node">
<title>Node185</title>
<g id="a_node36"><a xlink:href="X86Signature_8h.html" target="_top" xlink:title=" ">
<polygon fill="white" stroke="red" points="1093,-56.5 1093,-75.5 1184,-75.5 1184,-56.5 1093,-56.5"/>
<text text-anchor="middle" x="1138.5" y="-63.5" font-family="Helvetica,sans-Serif" font-size="10.00">X86Signature.h</text>
</a>
</g>
</g>
<!-- Node182&#45;&gt;Node185 -->
<g id="edge53" class="edge">
<title>Node182&#45;&gt;Node185</title>
<path fill="none" stroke="midnightblue" d="M1781.89,-119.21C1676.56,-114.84 1412.22,-102.02 1192.5,-76 1189.76,-75.68 1186.95,-75.31 1184.12,-74.91"/>
<polygon fill="midnightblue" stroke="midnightblue" points="1782.04,-122.72 1792.17,-119.63 1782.33,-115.73 1782.04,-122.72"/>
</g>
<!-- Node27 -->
<g id="node37" class="node">
<title>Node27</title>
<g id="a_node37"><a xlink:href="UnusedReturnRemover_8cpp.html" target="_top" xlink:title=" ">
<polygon fill="white" stroke="black" points="1587.5,-56.5 1587.5,-75.5 1737.5,-75.5 1737.5,-56.5 1587.5,-56.5"/>
<text text-anchor="middle" x="1662.5" y="-63.5" font-family="Helvetica,sans-Serif" font-size="10.00">UnusedReturnRemover.cpp</text>
</a>
</g>
</g>
<!-- Node182&#45;&gt;Node27 -->
<g id="edge55" class="edge">
<title>Node182&#45;&gt;Node27</title>
<path fill="none" stroke="midnightblue" d="M1792.55,-109.3C1761.27,-99.13 1716.68,-84.62 1688.68,-75.52"/>
<polygon fill="midnightblue" stroke="midnightblue" points="1791.6,-112.68 1802.2,-112.44 1793.77,-106.02 1791.6,-112.68"/>
</g>
<!-- Node30 -->
<g id="node38" class="node">
<title>Node30</title>
<g id="a_node38"><a xlink:href="CallDefineUpdatePass_8cpp.html" target="_top" xlink:title=" ">
<polygon fill="white" stroke="black" points="1755.5,-56.5 1755.5,-75.5 1901.5,-75.5 1901.5,-56.5 1755.5,-56.5"/>
<text text-anchor="middle" x="1828.5" y="-63.5" font-family="Helvetica,sans-Serif" font-size="10.00">CallDefineUpdatePass.cpp</text>
</a>
</g>
</g>
<!-- Node182&#45;&gt;Node30 -->
<g id="edge57" class="edge">
<title>Node182&#45;&gt;Node30</title>
<path fill="none" stroke="midnightblue" d="M1828.5,-101.8C1828.5,-92.91 1828.5,-82.78 1828.5,-75.75"/>
<polygon fill="midnightblue" stroke="midnightblue" points="1825,-102.08 1828.5,-112.08 1832,-102.08 1825,-102.08"/>
</g>
<!-- Node40 -->
<g id="node39" class="node">
<title>Node40</title>
<g id="a_node39"><a xlink:href="FinalParameterSearchPass_8cpp.html" target="_top" xlink:title=" ">
<polygon fill="white" stroke="black" points="1919.5,-56.5 1919.5,-75.5 2085.5,-75.5 2085.5,-56.5 1919.5,-56.5"/>
<text text-anchor="middle" x="2002.5" y="-63.5" font-family="Helvetica,sans-Serif" font-size="10.00">FinalParameterSearchPass.cpp</text>
</a>
</g>
</g>
<!-- Node182&#45;&gt;Node40 -->
<g id="edge58" class="edge">
<title>Node182&#45;&gt;Node40</title>
<path fill="none" stroke="midnightblue" d="M1865.76,-109.44C1898.57,-99.26 1945.58,-84.66 1975.06,-75.52"/>
<polygon fill="midnightblue" stroke="midnightblue" points="1864.58,-106.14 1856.07,-112.44 1866.66,-112.82 1864.58,-106.14"/>
</g>
<!-- Node47 -->
<g id="node40" class="node">
<title>Node47</title>
<g id="a_node40"><a xlink:href="UnusedParamRemovalPass_8cpp.html" target="_top" xlink:title=" ">
<polygon fill="white" stroke="black" points="0,-56.5 0,-75.5 171,-75.5 171,-56.5 0,-56.5"/>
<text text-anchor="middle" x="85.5" y="-63.5" font-family="Helvetica,sans-Serif" font-size="10.00">UnusedParamRemovalPass.cpp</text>
</a>
</g>
</g>
<!-- Node182&#45;&gt;Node47 -->
<g id="edge59" class="edge">
<title>Node182&#45;&gt;Node47</title>
<path fill="none" stroke="midnightblue" d="M1782.33,-120.89C1587.56,-120.19 813.85,-114.98 179.5,-76 176.72,-75.83 173.89,-75.64 171.04,-75.44"/>
<polygon fill="midnightblue" stroke="midnightblue" points="1782.47,-124.39 1792.49,-120.93 1782.5,-117.39 1782.47,-124.39"/>
</g>
<!-- Node51 -->
<g id="node41" class="node">
<title>Node51</title>
<g id="a_node41"><a xlink:href="CallAndPhiFixPass_8cpp.html" target="_top" xlink:title=" ">
<polygon fill="white" stroke="black" points="189,-56.5 189,-75.5 314,-75.5 314,-56.5 189,-56.5"/>
<text text-anchor="middle" x="251.5" y="-63.5" font-family="Helvetica,sans-Serif" font-size="10.00">CallAndPhiFixPass.cpp</text>
</a>
</g>
</g>
<!-- Node182&#45;&gt;Node51 -->
<g id="edge60" class="edge">
<title>Node182&#45;&gt;Node51</title>
<path fill="none" stroke="midnightblue" d="M1782.17,-121.21C1597.67,-121.7 897.46,-120.35 323.5,-76 320.49,-75.77 317.4,-75.5 314.29,-75.2"/>
<polygon fill="midnightblue" stroke="midnightblue" points="1782.33,-124.71 1792.32,-121.18 1782.31,-117.71 1782.33,-124.71"/>
</g>
<!-- Node53 -->
<g id="node42" class="node">
<title>Node53</title>
<g id="a_node42"><a xlink:href="ParameterSymbolMapPass_8cpp.html" target="_top" xlink:title=" ">
<polygon fill="white" stroke="black" points="332.5,-56.5 332.5,-75.5 500.5,-75.5 500.5,-56.5 332.5,-56.5"/>
<text text-anchor="middle" x="416.5" y="-63.5" font-family="Helvetica,sans-Serif" font-size="10.00">ParameterSymbolMapPass.cpp</text>
</a>
</g>
</g>
<!-- Node182&#45;&gt;Node53 -->
<g id="edge61" class="edge">
<title>Node182&#45;&gt;Node53</title>
<path fill="none" stroke="midnightblue" d="M1782.17,-120.46C1612.24,-118.28 1007.23,-108.54 509.5,-76 506.59,-75.81 503.62,-75.6 500.63,-75.38"/>
<polygon fill="midnightblue" stroke="midnightblue" points="1782.22,-123.97 1792.27,-120.59 1782.31,-116.97 1782.22,-123.97"/>
</g>
<!-- Node55 -->
<g id="node43" class="node">
<title>Node55</title>
<g id="a_node43"><a xlink:href="SPPreservationPass_8cpp.html" target="_top" xlink:title=" ">
<polygon fill="white" stroke="black" points="519,-56.5 519,-75.5 652,-75.5 652,-56.5 519,-56.5"/>
<text text-anchor="middle" x="585.5" y="-63.5" font-family="Helvetica,sans-Serif" font-size="10.00">SPPreservationPass.cpp</text>
</a>
</g>
</g>
<!-- Node182&#45;&gt;Node55 -->
<g id="edge62" class="edge">
<title>Node182&#45;&gt;Node55</title>
<path fill="none" stroke="midnightblue" d="M1781.86,-120.53C1624.12,-118.65 1096.21,-110.07 661.5,-76 658.45,-75.76 655.34,-75.49 652.2,-75.2"/>
<polygon fill="midnightblue" stroke="midnightblue" points="1782.1,-124.03 1792.14,-120.65 1782.18,-117.03 1782.1,-124.03"/>
</g>
<!-- Node63 -->
<g id="node44" class="node">
<title>Node63</title>
<g id="a_node44"><a xlink:href="ReturnStatement_8cpp.html" target="_top" xlink:title=" ">
<polygon fill="white" stroke="black" points="670.5,-56.5 670.5,-75.5 790.5,-75.5 790.5,-56.5 670.5,-56.5"/>
<text text-anchor="middle" x="730.5" y="-63.5" font-family="Helvetica,sans-Serif" font-size="10.00">ReturnStatement.cpp</text>
</a>
</g>
</g>
<!-- Node182&#45;&gt;Node63 -->
<g id="edge66" class="edge">
<title>Node182&#45;&gt;Node63</title>
<path fill="none" stroke="midnightblue" d="M1782.12,-120.39C1636.88,-118.18 1177.94,-108.89 799.5,-76 796.61,-75.75 793.66,-75.47 790.68,-75.16"/>
<polygon fill="midnightblue" stroke="midnightblue" points="1782.38,-123.9 1792.43,-120.54 1782.48,-116.9 1782.38,-123.9"/>
</g>
<!-- Node186 -->
<g id="node45" class="node">
<title>Node186</title>
<g id="a_node45"><a xlink:href="FuncType_8cpp.html" target="_top" xlink:title=" ">
<polygon fill="white" stroke="black" points="808.5,-56.5 808.5,-75.5 890.5,-75.5 890.5,-56.5 808.5,-56.5"/>
<text text-anchor="middle" x="849.5" y="-63.5" font-family="Helvetica,sans-Serif" font-size="10.00">FuncType.cpp</text>
</a>
</g>
</g>
<!-- Node182&#45;&gt;Node186 -->
<g id="edge67" class="edge">
<title>Node182&#45;&gt;Node186</title>
<path fill="none" stroke="midnightblue" d="M1782.46,-120.88C1646.78,-120.07 1236.86,-114.37 899.5,-76 896.61,-75.67 893.63,-75.28 890.64,-74.84"/>
<polygon fill="midnightblue" stroke="midnightblue" points="1782.48,-124.38 1792.5,-120.93 1782.52,-117.38 1782.48,-124.38"/>
</g>
<!-- Node67 -->
<g id="node46" class="node">
<title>Node67</title>
<g id="a_node46"><a xlink:href="ArgSourceProvider_8cpp.html" target="_top" xlink:title=" ">
<polygon fill="white" stroke="black" points="909,-56.5 909,-75.5 1036,-75.5 1036,-56.5 909,-56.5"/>
<text text-anchor="middle" x="972.5" y="-63.5" font-family="Helvetica,sans-Serif" font-size="10.00">ArgSourceProvider.cpp</text>
</a>
</g>
</g>
<!-- Node182&#45;&gt;Node67 -->
<g id="edge70" class="edge">
<title>Node182&#45;&gt;Node67</title>
<path fill="none" stroke="midnightblue" d="M1782.04,-119.24C1661.26,-114.46 1327.56,-99.98 1050.5,-76 1045.88,-75.6 1041.12,-75.15 1036.32,-74.66"/>
<polygon fill="midnightblue" stroke="midnightblue" points="1782.25,-122.75 1792.38,-119.65 1782.53,-115.76 1782.25,-122.75"/>
</g>
<!-- Node185&#45;&gt;Node18 -->
<g id="edge54" class="edge">
<title>Node185&#45;&gt;Node18</title>
<path fill="none" stroke="midnightblue" d="M1194.32,-55.93C1578.71,-16.21 2032.43,-11.53 2170.59,-11.03"/>
<polygon fill="midnightblue" stroke="midnightblue" points="1193.7,-52.48 1184.11,-57 1194.42,-59.44 1193.7,-52.48"/>
</g>
<!-- Node187&#45;&gt;Node109 -->
<g id="edge72" class="edge">
<title>Node187&#45;&gt;Node109</title>
<path fill="none" stroke="midnightblue" d="M3821.55,-158.28C3822.03,-143.52 3819.98,-123.55 3807.5,-112 3778.23,-84.91 3498.93,-71.62 3409.15,-68.03"/>
<polygon fill="midnightblue" stroke="midnightblue" points="3818.05,-158.1 3820.81,-168.33 3825.03,-158.61 3818.05,-158.1"/>
</g>
</g>
</svg>
