<?xml version="1.0" encoding="UTF-8" standalone="no"?>
<!DOCTYPE svg PUBLIC "-//W3C//DTD SVG 1.1//EN"
 "http://www.w3.org/Graphics/SVG/1.1/DTD/svg11.dtd">
<!-- Generated by graphviz version 2.43.0 (0)
 -->
<!-- Title: __attribute__ Pages: 1 -->
<svg width="707pt" height="28pt"
 viewBox="0.00 0.00 707.00 28.00" xmlns="http://www.w3.org/2000/svg" xmlns:xlink="http://www.w3.org/1999/xlink">
<g id="graph0" class="graph" transform="scale(1 1) rotate(0) translate(4 24)">
<title>__attribute__</title>
<polygon fill="white" stroke="transparent" points="-4,4 -4,-24 703,-24 703,4 -4,4"/>
<!-- Node1 -->
<g id="node1" class="node">
<title>Node1</title>
<g id="a_node1"><a xlink:title="Wrapper facade around QTextStream providing only output functionality to a target.">
<polygon fill="#bfbfbf" stroke="black" points="0,-0.5 0,-19.5 80,-19.5 80,-0.5 0,-0.5"/>
<text text-anchor="middle" x="40" y="-7.5" font-family="Helvetica,sans-Serif" font-size="10.00">__attribute__</text>
</a>
</g>
</g>
<!-- Node2 -->
<g id="node2" class="node">
<title>Node2</title>
<g id="a_node2"><a xlink:href="Exp_8cpp.html#a5d63cfb3e45bd8bad367bee7299b8914" target="_top" xlink:title=" ">
<polygon fill="white" stroke="black" points="116,-0.5 116,-19.5 190,-19.5 190,-0.5 116,-0.5"/>
<text text-anchor="middle" x="153" y="-7.5" font-family="Helvetica,sans-Serif" font-size="10.00">operator&lt;&lt;</text>
</a>
</g>
</g>
<!-- Node1&#45;&gt;Node2 -->
<g id="edge1" class="edge">
<title>Node1&#45;&gt;Node2</title>
<path fill="none" stroke="midnightblue" d="M80.13,-10C88.39,-10 97.17,-10 105.66,-10"/>
<polygon fill="midnightblue" stroke="midnightblue" points="105.82,-13.5 115.82,-10 105.82,-6.5 105.82,-13.5"/>
</g>
<!-- Node3 -->
<g id="node3" class="node">
<title>Node3</title>
<g id="a_node3"><a xlink:href="classExpPrinter.html#af6f8ba439a7fa650facd8b2ae0b21cd5" target="_top" xlink:title="print exp to os">
<polygon fill="white" stroke="black" points="226,-0.5 226,-19.5 321,-19.5 321,-0.5 226,-0.5"/>
<text text-anchor="middle" x="273.5" y="-7.5" font-family="Helvetica,sans-Serif" font-size="10.00">ExpPrinter::print</text>
</a>
</g>
</g>
<!-- Node2&#45;&gt;Node3 -->
<g id="edge2" class="edge">
<title>Node2&#45;&gt;Node3</title>
<path fill="none" stroke="midnightblue" d="M190.2,-10C198.22,-10 206.91,-10 215.54,-10"/>
<polygon fill="midnightblue" stroke="midnightblue" points="215.59,-13.5 225.59,-10 215.59,-6.5 215.59,-13.5"/>
</g>
<!-- Node4 -->
<g id="node4" class="node">
<title>Node4</title>
<g id="a_node4"><a xlink:href="classExpPrinter.html#a734d955c257757bb20048d6383850323" target="_top" xlink:title="print exp to os">
<polygon fill="white" stroke="black" points="357,-0.5 357,-19.5 476,-19.5 476,-0.5 357,-0.5"/>
<text text-anchor="middle" x="416.5" y="-7.5" font-family="Helvetica,sans-Serif" font-size="10.00">ExpPrinter::printPlain</text>
</a>
</g>
</g>
<!-- Node3&#45;&gt;Node4 -->
<g id="edge3" class="edge">
<title>Node3&#45;&gt;Node4</title>
<path fill="none" stroke="midnightblue" d="M321.06,-3.61C329.3,-3.35 338.04,-3.23 346.75,-3.25"/>
<polygon fill="midnightblue" stroke="midnightblue" points="346.89,-6.75 356.92,-3.34 346.95,0.25 346.89,-6.75"/>
</g>
<!-- Node4&#45;&gt;Node3 -->
<g id="edge5" class="edge">
<title>Node4&#45;&gt;Node3</title>
<path fill="none" stroke="midnightblue" d="M356.92,-16.66C348.42,-16.79 339.68,-16.78 331.21,-16.63"/>
<polygon fill="midnightblue" stroke="midnightblue" points="331.14,-13.13 321.06,-16.39 330.97,-20.13 331.14,-13.13"/>
</g>
<!-- Node5 -->
<g id="node5" class="node">
<title>Node5</title>
<g id="a_node5"><a xlink:href="classExpPrinter.html#a127fcfb148efbbc71e26e48689753b73" target="_top" xlink:title="Given an expression, and an immediate child expression, determine if the child expression needs to be...">
<polygon fill="white" stroke="black" points="512,-0.5 512,-19.5 699,-19.5 699,-0.5 512,-0.5"/>
<text text-anchor="middle" x="605.5" y="-7.5" font-family="Helvetica,sans-Serif" font-size="10.00">ExpPrinter::childNeedsParentheses</text>
</a>
</g>
</g>
<!-- Node4&#45;&gt;Node5 -->
<g id="edge4" class="edge">
<title>Node4&#45;&gt;Node5</title>
<path fill="none" stroke="midnightblue" d="M476.15,-10C484.32,-10 492.89,-10 501.57,-10"/>
<polygon fill="midnightblue" stroke="midnightblue" points="501.8,-13.5 511.8,-10 501.8,-6.5 501.8,-13.5"/>
</g>
</g>
</svg>
