<?xml version="1.0" encoding="UTF-8" standalone="no"?>
<!DOCTYPE svg PUBLIC "-//W3C//DTD SVG 1.1//EN"
 "http://www.w3.org/Graphics/SVG/1.1/DTD/svg11.dtd">
<!-- Generated by graphviz version 2.43.0 (0)
 -->
<!-- Title: PhiAssign.h Pages: 1 -->
<svg width="3719pt" height="95pt"
 viewBox="0.00 0.00 3719.00 95.00" xmlns="http://www.w3.org/2000/svg" xmlns:xlink="http://www.w3.org/1999/xlink">
<g id="graph0" class="graph" transform="scale(1 1) rotate(0) translate(4 91)">
<title>PhiAssign.h</title>
<polygon fill="white" stroke="transparent" points="-4,4 -4,-91 3715,-91 3715,4 -4,4"/>
<!-- Node1 -->
<g id="node1" class="node">
<title>Node1</title>
<g id="a_node1"><a xlink:title=" ">
<polygon fill="#bfbfbf" stroke="black" points="1859,-67.5 1859,-86.5 1932,-86.5 1932,-67.5 1859,-67.5"/>
<text text-anchor="middle" x="1895.5" y="-74.5" font-family="Helvetica,sans-Serif" font-size="10.00">PhiAssign.h</text>
</a>
</g>
</g>
<!-- Node2 -->
<g id="node2" class="node">
<title>Node2</title>
<g id="a_node2"><a xlink:href="DataFlow_8cpp.html" target="_top" xlink:title=" ">
<polygon fill="white" stroke="black" points="0,-6 0,-25 83,-25 83,-6 0,-6"/>
<text text-anchor="middle" x="41.5" y="-13" font-family="Helvetica,sans-Serif" font-size="10.00">DataFlow.cpp</text>
</a>
</g>
</g>
<!-- Node1&#45;&gt;Node2 -->
<g id="edge1" class="edge">
<title>Node1&#45;&gt;Node2</title>
<path fill="none" stroke="midnightblue" d="M1848.72,-75.55C1583.01,-72.91 269.47,-58.55 91.5,-31 83.1,-29.7 74.13,-27.4 66.14,-25.01"/>
<polygon fill="midnightblue" stroke="midnightblue" points="1848.76,-79.05 1858.8,-75.65 1848.83,-72.05 1848.76,-79.05"/>
</g>
<!-- Node3 -->
<g id="node3" class="node">
<title>Node3</title>
<g id="a_node3"><a xlink:href="IRFragment_8cpp.html" target="_top" xlink:title=" ">
<polygon fill="white" stroke="black" points="101,-6 101,-25 194,-25 194,-6 101,-6"/>
<text text-anchor="middle" x="147.5" y="-13" font-family="Helvetica,sans-Serif" font-size="10.00">IRFragment.cpp</text>
</a>
</g>
</g>
<!-- Node1&#45;&gt;Node3 -->
<g id="edge2" class="edge">
<title>Node1&#45;&gt;Node3</title>
<path fill="none" stroke="midnightblue" d="M1848.77,-76.19C1611.03,-76.92 534.12,-77.58 203.5,-31 194.25,-29.7 184.33,-27.43 175.45,-25.06"/>
<polygon fill="midnightblue" stroke="midnightblue" points="1848.83,-79.69 1858.81,-76.15 1848.8,-72.69 1848.83,-79.69"/>
</g>
<!-- Node4 -->
<g id="node4" class="node">
<title>Node4</title>
<g id="a_node4"><a xlink:href="UserProc_8cpp.html" target="_top" xlink:title=" ">
<polygon fill="white" stroke="black" points="212.5,-6 212.5,-25 292.5,-25 292.5,-6 212.5,-6"/>
<text text-anchor="middle" x="252.5" y="-13" font-family="Helvetica,sans-Serif" font-size="10.00">UserProc.cpp</text>
</a>
</g>
</g>
<!-- Node1&#45;&gt;Node4 -->
<g id="edge3" class="edge">
<title>Node1&#45;&gt;Node4</title>
<path fill="none" stroke="midnightblue" d="M1848.9,-76.31C1619.73,-77.6 610.98,-80.3 301.5,-31 293.35,-29.7 284.66,-27.43 276.89,-25.07"/>
<polygon fill="midnightblue" stroke="midnightblue" points="1848.92,-79.81 1858.9,-76.25 1848.88,-72.81 1848.92,-79.81"/>
</g>
<!-- Node5 -->
<g id="node5" class="node">
<title>Node5</title>
<g id="a_node5"><a xlink:href="IndirectJumpAnalyzer_8cpp.html" target="_top" xlink:title=" ">
<polygon fill="white" stroke="black" points="311,-6 311,-25 452,-25 452,-6 311,-6"/>
<text text-anchor="middle" x="381.5" y="-13" font-family="Helvetica,sans-Serif" font-size="10.00">IndirectJumpAnalyzer.cpp</text>
</a>
</g>
</g>
<!-- Node1&#45;&gt;Node5 -->
<g id="edge4" class="edge">
<title>Node1&#45;&gt;Node5</title>
<path fill="none" stroke="midnightblue" d="M1848.58,-75.46C1633.4,-72.85 739.65,-60.41 461.5,-31 448.59,-29.63 434.62,-27.38 422.03,-25.05"/>
<polygon fill="midnightblue" stroke="midnightblue" points="1848.85,-78.97 1858.89,-75.59 1848.93,-71.97 1848.85,-78.97"/>
</g>
<!-- Node6 -->
<g id="node6" class="node">
<title>Node6</title>
<g id="a_node6"><a xlink:href="LivenessAnalyzer_8cpp.html" target="_top" xlink:title=" ">
<polygon fill="white" stroke="black" points="470.5,-6 470.5,-25 592.5,-25 592.5,-6 470.5,-6"/>
<text text-anchor="middle" x="531.5" y="-13" font-family="Helvetica,sans-Serif" font-size="10.00">LivenessAnalyzer.cpp</text>
</a>
</g>
</g>
<!-- Node1&#45;&gt;Node6 -->
<g id="edge5" class="edge">
<title>Node1&#45;&gt;Node6</title>
<path fill="none" stroke="midnightblue" d="M1848.64,-75.44C1646.74,-72.84 850.23,-60.87 601.5,-31 590.16,-29.64 577.93,-27.38 566.92,-25.05"/>
<polygon fill="midnightblue" stroke="midnightblue" points="1848.85,-78.94 1858.9,-75.57 1848.94,-71.94 1848.85,-78.94"/>
</g>
<!-- Node7 -->
<g id="node7" class="node">
<title>Node7</title>
<g id="a_node7"><a xlink:href="UnusedReturnRemover_8cpp.html" target="_top" xlink:title=" ">
<polygon fill="white" stroke="black" points="610.5,-6 610.5,-25 760.5,-25 760.5,-6 610.5,-6"/>
<text text-anchor="middle" x="685.5" y="-13" font-family="Helvetica,sans-Serif" font-size="10.00">UnusedReturnRemover.cpp</text>
</a>
</g>
</g>
<!-- Node1&#45;&gt;Node7 -->
<g id="edge6" class="edge">
<title>Node1&#45;&gt;Node7</title>
<path fill="none" stroke="midnightblue" d="M1848.85,-76.32C1694.5,-76.91 1186.48,-75.13 769.5,-31 756.11,-29.58 741.62,-27.34 728.51,-25.04"/>
<polygon fill="midnightblue" stroke="midnightblue" points="1848.94,-79.82 1858.92,-76.28 1848.91,-72.82 1848.94,-79.82"/>
</g>
<!-- Node8 -->
<g id="node8" class="node">
<title>Node8</title>
<g id="a_node8"><a xlink:href="BlockVarRenamePass_8cpp.html" target="_top" xlink:title=" ">
<polygon fill="white" stroke="black" points="779,-6 779,-25 922,-25 922,-6 779,-6"/>
<text text-anchor="middle" x="850.5" y="-13" font-family="Helvetica,sans-Serif" font-size="10.00">BlockVarRenamePass.cpp</text>
</a>
</g>
</g>
<!-- Node1&#45;&gt;Node8 -->
<g id="edge7" class="edge">
<title>Node1&#45;&gt;Node8</title>
<path fill="none" stroke="midnightblue" d="M1848.65,-76.01C1708.7,-75.58 1281.73,-70.84 930.5,-31 917.74,-29.55 903.94,-27.3 891.45,-25"/>
<polygon fill="midnightblue" stroke="midnightblue" points="1848.98,-79.51 1858.99,-76.04 1849,-72.51 1848.98,-79.51"/>
</g>
<!-- Node9 -->
<g id="node9" class="node">
<title>Node9</title>
<g id="a_node9"><a xlink:href="FragSimplifyPass_8cpp.html" target="_top" xlink:title=" ">
<polygon fill="white" stroke="black" points="940,-6 940,-25 1061,-25 1061,-6 940,-6"/>
<text text-anchor="middle" x="1000.5" y="-13" font-family="Helvetica,sans-Serif" font-size="10.00">FragSimplifyPass.cpp</text>
</a>
</g>
</g>
<!-- Node1&#45;&gt;Node9 -->
<g id="edge8" class="edge">
<title>Node1&#45;&gt;Node9</title>
<path fill="none" stroke="midnightblue" d="M1848.57,-75.95C1722.16,-75.26 1364.15,-69.75 1069.5,-31 1058.58,-29.56 1046.81,-27.34 1036.13,-25.07"/>
<polygon fill="midnightblue" stroke="midnightblue" points="1848.66,-79.45 1858.68,-75.99 1848.69,-72.45 1848.66,-79.45"/>
</g>
<!-- Node10 -->
<g id="node10" class="node">
<title>Node10</title>
<g id="a_node10"><a xlink:href="StatementPropagationPass_8cpp.html" target="_top" xlink:title=" ">
<polygon fill="white" stroke="black" points="1079,-6 1079,-25 1248,-25 1248,-6 1079,-6"/>
<text text-anchor="middle" x="1163.5" y="-13" font-family="Helvetica,sans-Serif" font-size="10.00">StatementPropagationPass.cpp</text>
</a>
</g>
</g>
<!-- Node1&#45;&gt;Node10 -->
<g id="edge9" class="edge">
<title>Node1&#45;&gt;Node10</title>
<path fill="none" stroke="midnightblue" d="M1848.71,-74.03C1743.05,-69.28 1478.02,-55.74 1257.5,-31 1243.22,-29.4 1227.79,-27.21 1213.64,-25.02"/>
<polygon fill="midnightblue" stroke="midnightblue" points="1848.58,-77.52 1858.72,-74.47 1848.89,-70.53 1848.58,-77.52"/>
</g>
<!-- Node11 -->
<g id="node11" class="node">
<title>Node11</title>
<g id="a_node11"><a xlink:href="BranchAnalysisPass_8cpp.html" target="_top" xlink:title=" ">
<polygon fill="white" stroke="black" points="1266.5,-6 1266.5,-25 1400.5,-25 1400.5,-6 1266.5,-6"/>
<text text-anchor="middle" x="1333.5" y="-13" font-family="Helvetica,sans-Serif" font-size="10.00">BranchAnalysisPass.cpp</text>
</a>
</g>
</g>
<!-- Node1&#45;&gt;Node11 -->
<g id="edge10" class="edge">
<title>Node1&#45;&gt;Node11</title>
<path fill="none" stroke="midnightblue" d="M1848.72,-73.17C1761.87,-67.59 1569.94,-53.68 1409.5,-31 1398.06,-29.38 1385.73,-27.22 1374.4,-25.05"/>
<polygon fill="midnightblue" stroke="midnightblue" points="1848.58,-76.67 1858.78,-73.81 1849.02,-69.68 1848.58,-76.67"/>
</g>
<!-- Node12 -->
<g id="node12" class="node">
<title>Node12</title>
<g id="a_node12"><a xlink:href="FromSSAFormPass_8cpp.html" target="_top" xlink:title=" ">
<polygon fill="white" stroke="black" points="1418.5,-6 1418.5,-25 1546.5,-25 1546.5,-6 1418.5,-6"/>
<text text-anchor="middle" x="1482.5" y="-13" font-family="Helvetica,sans-Serif" font-size="10.00">FromSSAFormPass.cpp</text>
</a>
</g>
</g>
<!-- Node1&#45;&gt;Node12 -->
<g id="edge11" class="edge">
<title>Node1&#45;&gt;Node12</title>
<path fill="none" stroke="midnightblue" d="M1848.88,-70.79C1783.24,-63.25 1659.91,-48.26 1555.5,-31 1544.92,-29.25 1533.53,-27.11 1522.96,-25.02"/>
<polygon fill="midnightblue" stroke="midnightblue" points="1848.57,-74.28 1858.91,-71.94 1849.37,-67.33 1848.57,-74.28"/>
</g>
<!-- Node13 -->
<g id="node13" class="node">
<title>Node13</title>
<g id="a_node13"><a xlink:href="UnusedParamRemovalPass_8cpp.html" target="_top" xlink:title=" ">
<polygon fill="white" stroke="black" points="1565,-6 1565,-25 1736,-25 1736,-6 1565,-6"/>
<text text-anchor="middle" x="1650.5" y="-13" font-family="Helvetica,sans-Serif" font-size="10.00">UnusedParamRemovalPass.cpp</text>
</a>
</g>
</g>
<!-- Node1&#45;&gt;Node13 -->
<g id="edge12" class="edge">
<title>Node1&#45;&gt;Node13</title>
<path fill="none" stroke="midnightblue" d="M1850.67,-65.11C1803.12,-53.57 1728.99,-35.56 1685.54,-25.01"/>
<polygon fill="midnightblue" stroke="midnightblue" points="1849.85,-68.52 1860.4,-67.48 1851.51,-61.71 1849.85,-68.52"/>
</g>
<!-- Node14 -->
<g id="node14" class="node">
<title>Node14</title>
<g id="a_node14"><a xlink:href="AssignRemovalPass_8cpp.html" target="_top" xlink:title=" ">
<polygon fill="white" stroke="black" points="1754,-6 1754,-25 1889,-25 1889,-6 1754,-6"/>
<text text-anchor="middle" x="1821.5" y="-13" font-family="Helvetica,sans-Serif" font-size="10.00">AssignRemovalPass.cpp</text>
</a>
</g>
</g>
<!-- Node1&#45;&gt;Node14 -->
<g id="edge13" class="edge">
<title>Node1&#45;&gt;Node14</title>
<path fill="none" stroke="midnightblue" d="M1876.81,-60.97C1862.66,-49.59 1843.72,-34.37 1832.08,-25.01"/>
<polygon fill="midnightblue" stroke="midnightblue" points="1874.91,-63.94 1884.9,-67.48 1879.3,-58.48 1874.91,-63.94"/>
</g>
<!-- Node15 -->
<g id="node15" class="node">
<title>Node15</title>
<g id="a_node15"><a xlink:href="CallAndPhiFixPass_8cpp.html" target="_top" xlink:title=" ">
<polygon fill="white" stroke="black" points="1907,-6 1907,-25 2032,-25 2032,-6 1907,-6"/>
<text text-anchor="middle" x="1969.5" y="-13" font-family="Helvetica,sans-Serif" font-size="10.00">CallAndPhiFixPass.cpp</text>
</a>
</g>
</g>
<!-- Node1&#45;&gt;Node15 -->
<g id="edge14" class="edge">
<title>Node1&#45;&gt;Node15</title>
<path fill="none" stroke="midnightblue" d="M1914.19,-60.97C1928.34,-49.59 1947.28,-34.37 1958.92,-25.01"/>
<polygon fill="midnightblue" stroke="midnightblue" points="1911.7,-58.48 1906.1,-67.48 1916.09,-63.94 1911.7,-58.48"/>
</g>
<!-- Node16 -->
<g id="node16" class="node">
<title>Node16</title>
<g id="a_node16"><a xlink:href="StrengthReductionReversalPass_8cpp.html" target="_top" xlink:title=" ">
<polygon fill="white" stroke="black" points="2050,-0.5 2050,-30.5 2199,-30.5 2199,-0.5 2050,-0.5"/>
<text text-anchor="start" x="2058" y="-18.5" font-family="Helvetica,sans-Serif" font-size="10.00">StrengthReductionReversal</text>
<text text-anchor="middle" x="2124.5" y="-7.5" font-family="Helvetica,sans-Serif" font-size="10.00">Pass.cpp</text>
</a>
</g>
</g>
<!-- Node1&#45;&gt;Node16 -->
<g id="edge15" class="edge">
<title>Node1&#45;&gt;Node16</title>
<path fill="none" stroke="midnightblue" d="M1938.38,-64.86C1975.77,-55.14 2030.18,-41.01 2070.53,-30.52"/>
<polygon fill="midnightblue" stroke="midnightblue" points="1937.11,-61.57 1928.31,-67.48 1938.87,-68.35 1937.11,-61.57"/>
</g>
<!-- Node17 -->
<g id="node17" class="node">
<title>Node17</title>
<g id="a_node17"><a xlink:href="CallStatement_8cpp.html" target="_top" xlink:title=" ">
<polygon fill="white" stroke="black" points="2217,-6 2217,-25 2324,-25 2324,-6 2217,-6"/>
<text text-anchor="middle" x="2270.5" y="-13" font-family="Helvetica,sans-Serif" font-size="10.00">CallStatement.cpp</text>
</a>
</g>
</g>
<!-- Node1&#45;&gt;Node17 -->
<g id="edge16" class="edge">
<title>Node1&#45;&gt;Node17</title>
<path fill="none" stroke="midnightblue" d="M1942.44,-70.54C2003.84,-63.11 2114.66,-48.68 2208.5,-31 2217.63,-29.28 2227.44,-27.13 2236.5,-25.01"/>
<polygon fill="midnightblue" stroke="midnightblue" points="1941.8,-67.1 1932.29,-71.76 1942.64,-74.05 1941.8,-67.1"/>
</g>
<!-- Node18 -->
<g id="node18" class="node">
<title>Node18</title>
<g id="a_node18"><a xlink:href="PhiAssign_8cpp.html" target="_top" xlink:title=" ">
<polygon fill="white" stroke="black" points="2342.5,-6 2342.5,-25 2426.5,-25 2426.5,-6 2342.5,-6"/>
<text text-anchor="middle" x="2384.5" y="-13" font-family="Helvetica,sans-Serif" font-size="10.00">PhiAssign.cpp</text>
</a>
</g>
</g>
<!-- Node1&#45;&gt;Node18 -->
<g id="edge17" class="edge">
<title>Node1&#45;&gt;Node18</title>
<path fill="none" stroke="midnightblue" d="M1942.46,-73.87C2023.07,-69.61 2192.68,-58.04 2333.5,-31 2341.46,-29.47 2349.97,-27.28 2357.71,-25.06"/>
<polygon fill="midnightblue" stroke="midnightblue" points="1941.96,-70.39 1932.15,-74.4 1942.32,-77.38 1941.96,-70.39"/>
</g>
<!-- Node19 -->
<g id="node19" class="node">
<title>Node19</title>
<g id="a_node19"><a xlink:href="StmtDestCounter_8cpp.html" target="_top" xlink:title=" ">
<polygon fill="white" stroke="black" points="2444,-6 2444,-25 2565,-25 2565,-6 2444,-6"/>
<text text-anchor="middle" x="2504.5" y="-13" font-family="Helvetica,sans-Serif" font-size="10.00">StmtDestCounter.cpp</text>
</a>
</g>
</g>
<!-- Node1&#45;&gt;Node19 -->
<g id="edge18" class="edge">
<title>Node1&#45;&gt;Node19</title>
<path fill="none" stroke="midnightblue" d="M1942.03,-74.07C2035.81,-69.75 2254.04,-57.52 2435.5,-31 2446.16,-29.44 2457.64,-27.24 2468.13,-25.03"/>
<polygon fill="midnightblue" stroke="midnightblue" points="1941.85,-70.57 1932.02,-74.52 1942.17,-77.57 1941.85,-70.57"/>
</g>
<!-- Node20 -->
<g id="node20" class="node">
<title>Node20</title>
<g id="a_node20"><a xlink:href="StmtRegMapper_8cpp.html" target="_top" xlink:title=" ">
<polygon fill="white" stroke="black" points="2583.5,-6 2583.5,-25 2699.5,-25 2699.5,-6 2583.5,-6"/>
<text text-anchor="middle" x="2641.5" y="-13" font-family="Helvetica,sans-Serif" font-size="10.00">StmtRegMapper.cpp</text>
</a>
</g>
</g>
<!-- Node1&#45;&gt;Node20 -->
<g id="edge19" class="edge">
<title>Node1&#45;&gt;Node20</title>
<path fill="none" stroke="midnightblue" d="M1942.27,-75.26C2052.77,-73.01 2338.48,-64.18 2574.5,-31 2585.11,-29.51 2596.54,-27.27 2606.9,-25"/>
<polygon fill="midnightblue" stroke="midnightblue" points="1942.06,-71.77 1932.13,-75.46 1942.19,-78.77 1942.06,-71.77"/>
</g>
<!-- Node21 -->
<g id="node21" class="node">
<title>Node21</title>
<g id="a_node21"><a xlink:href="UsedLocsVisitor_8cpp.html" target="_top" xlink:title=" ">
<polygon fill="white" stroke="black" points="2718,-6 2718,-25 2833,-25 2833,-6 2718,-6"/>
<text text-anchor="middle" x="2775.5" y="-13" font-family="Helvetica,sans-Serif" font-size="10.00">UsedLocsVisitor.cpp</text>
</a>
</g>
</g>
<!-- Node1&#45;&gt;Node21 -->
<g id="edge20" class="edge">
<title>Node1&#45;&gt;Node21</title>
<path fill="none" stroke="midnightblue" d="M1942.52,-75.98C2067.69,-75.38 2419.24,-70.06 2708.5,-31 2719.11,-29.57 2730.55,-27.35 2740.91,-25.08"/>
<polygon fill="midnightblue" stroke="midnightblue" points="1942.14,-72.49 1932.16,-76.03 1942.17,-79.49 1942.14,-72.49"/>
</g>
<!-- Node22 -->
<g id="node22" class="node">
<title>Node22</title>
<g id="a_node22"><a xlink:href="StmtImplicitConverter_8cpp.html" target="_top" xlink:title=" ">
<polygon fill="white" stroke="black" points="2851,-6 2851,-25 2996,-25 2996,-6 2851,-6"/>
<text text-anchor="middle" x="2923.5" y="-13" font-family="Helvetica,sans-Serif" font-size="10.00">StmtImplicitConverter.cpp</text>
</a>
</g>
</g>
<!-- Node1&#45;&gt;Node22 -->
<g id="edge21" class="edge">
<title>Node1&#45;&gt;Node22</title>
<path fill="none" stroke="midnightblue" d="M1942.43,-75.92C2080.74,-75.22 2498.58,-69.79 2842.5,-31 2855.28,-29.56 2869.08,-27.34 2881.61,-25.07"/>
<polygon fill="midnightblue" stroke="midnightblue" points="1942.18,-72.42 1932.2,-75.96 1942.21,-79.42 1942.18,-72.42"/>
</g>
<!-- Node23 -->
<g id="node23" class="node">
<title>Node23</title>
<g id="a_node23"><a xlink:href="StmtSSAXFormer_8cpp.html" target="_top" xlink:title=" ">
<polygon fill="white" stroke="black" points="3014,-6 3014,-25 3135,-25 3135,-6 3014,-6"/>
<text text-anchor="middle" x="3074.5" y="-13" font-family="Helvetica,sans-Serif" font-size="10.00">StmtSSAXFormer.cpp</text>
</a>
</g>
</g>
<!-- Node1&#45;&gt;Node23 -->
<g id="edge22" class="edge">
<title>Node1&#45;&gt;Node23</title>
<path fill="none" stroke="midnightblue" d="M1942.13,-75.15C2125.16,-71.63 2794.76,-57.23 3005.5,-31 3016.68,-29.61 3028.73,-27.35 3039.59,-25.02"/>
<polygon fill="midnightblue" stroke="midnightblue" points="1941.96,-71.65 1932.02,-75.34 1942.09,-78.65 1941.96,-71.65"/>
</g>
<!-- Node24 -->
<g id="node24" class="node">
<title>Node24</title>
<g id="a_node24"><a xlink:href="StmtSubscripter_8cpp.html" target="_top" xlink:title=" ">
<polygon fill="white" stroke="black" points="3153,-6 3153,-25 3268,-25 3268,-6 3153,-6"/>
<text text-anchor="middle" x="3210.5" y="-13" font-family="Helvetica,sans-Serif" font-size="10.00">StmtSubscripter.cpp</text>
</a>
</g>
</g>
<!-- Node1&#45;&gt;Node24 -->
<g id="edge23" class="edge">
<title>Node1&#45;&gt;Node24</title>
<path fill="none" stroke="midnightblue" d="M1942.04,-75.45C2139.04,-72.93 2905.14,-61.35 3144.5,-31 3155.21,-29.64 3166.74,-27.39 3177.13,-25.06"/>
<polygon fill="midnightblue" stroke="midnightblue" points="1941.97,-71.95 1932.02,-75.57 1942.06,-78.95 1941.97,-71.95"/>
</g>
<!-- Node25 -->
<g id="node25" class="node">
<title>Node25</title>
<g id="a_node25"><a xlink:href="StmtSubscriptReplacer_8cpp.html" target="_top" xlink:title=" ">
<polygon fill="white" stroke="black" points="3286.5,-6 3286.5,-25 3434.5,-25 3434.5,-6 3286.5,-6"/>
<text text-anchor="middle" x="3360.5" y="-13" font-family="Helvetica,sans-Serif" font-size="10.00">StmtSubscriptReplacer.cpp</text>
</a>
</g>
</g>
<!-- Node1&#45;&gt;Node25 -->
<g id="edge24" class="edge">
<title>Node1&#45;&gt;Node25</title>
<path fill="none" stroke="midnightblue" d="M1942.09,-75.36C2151.84,-72.36 3009.94,-58.59 3277.5,-31 3290.89,-29.62 3305.37,-27.36 3318.44,-25.03"/>
<polygon fill="midnightblue" stroke="midnightblue" points="1941.97,-71.86 1932.03,-75.51 1942.07,-78.86 1941.97,-71.86"/>
</g>
<!-- Node26 -->
<g id="node26" class="node">
<title>Node26</title>
<g id="a_node26"><a xlink:href="StmtCastInserter_8cpp.html" target="_top" xlink:title=" ">
<polygon fill="white" stroke="black" points="3453,-6 3453,-25 3572,-25 3572,-6 3453,-6"/>
<text text-anchor="middle" x="3512.5" y="-13" font-family="Helvetica,sans-Serif" font-size="10.00">StmtCastInserter.cpp</text>
</a>
</g>
</g>
<!-- Node1&#45;&gt;Node26 -->
<g id="edge25" class="edge">
<title>Node1&#45;&gt;Node26</title>
<path fill="none" stroke="midnightblue" d="M1942.49,-75.76C2168.15,-74.45 3142.08,-66.76 3443.5,-31 3454.8,-29.66 3467,-27.38 3477.95,-25.02"/>
<polygon fill="midnightblue" stroke="midnightblue" points="1942.29,-72.26 1932.31,-75.82 1942.33,-79.26 1942.29,-72.26"/>
</g>
<!-- Node27 -->
<g id="node27" class="node">
<title>Node27</title>
<g id="a_node27"><a xlink:href="DFATypeAnalyzer_8cpp.html" target="_top" xlink:title=" ">
<polygon fill="white" stroke="black" points="3590,-6 3590,-25 3711,-25 3711,-6 3590,-6"/>
<text text-anchor="middle" x="3650.5" y="-13" font-family="Helvetica,sans-Serif" font-size="10.00">DFATypeAnalyzer.cpp</text>
</a>
</g>
</g>
<!-- Node1&#45;&gt;Node27 -->
<g id="edge26" class="edge">
<title>Node1&#45;&gt;Node27</title>
<path fill="none" stroke="midnightblue" d="M1942.38,-75.89C2179.8,-75.17 3251.23,-69.79 3581.5,-31 3592.81,-29.67 3605,-27.4 3615.95,-25.03"/>
<polygon fill="midnightblue" stroke="midnightblue" points="1942.02,-72.39 1932.03,-75.92 1942.04,-79.39 1942.02,-72.39"/>
</g>
</g>
</svg>
