<?xml version="1.0" encoding="UTF-8" standalone="no"?>
<!DOCTYPE svg PUBLIC "-//W3C//DTD SVG 1.1//EN"
 "http://www.w3.org/Graphics/SVG/1.1/DTD/svg11.dtd">
<!-- Generated by graphviz version 2.43.0 (0)
 -->
<!-- Title: PhiAssign.h Pages: 1 -->
<svg width="1622pt" height="766pt"
 viewBox="0.00 0.00 1621.94 766.00" xmlns="http://www.w3.org/2000/svg" xmlns:xlink="http://www.w3.org/1999/xlink">
<g id="graph0" class="graph" transform="scale(1 1) rotate(0) translate(4 762)">
<title>PhiAssign.h</title>
<polygon fill="white" stroke="transparent" points="-4,4 -4,-762 1617.94,-762 1617.94,4 -4,4"/>
<!-- Node1 -->
<g id="node1" class="node">
<title>Node1</title>
<g id="a_node1"><a xlink:title=" ">
<polygon fill="#bfbfbf" stroke="black" points="466.5,-738.5 466.5,-757.5 539.5,-757.5 539.5,-738.5 466.5,-738.5"/>
<text text-anchor="middle" x="503" y="-745.5" font-family="Helvetica,sans-Serif" font-size="10.00">PhiAssign.h</text>
</a>
</g>
</g>
<!-- Node2 -->
<g id="node2" class="node">
<title>Node2</title>
<g id="a_node2"><a xlink:href="BasicBlock_8h.html" target="_top" xlink:title=" ">
<polygon fill="white" stroke="black" points="854,-682.5 854,-701.5 1006,-701.5 1006,-682.5 854,-682.5"/>
<text text-anchor="middle" x="930" y="-689.5" font-family="Helvetica,sans-Serif" font-size="10.00">boomerang/db/BasicBlock.h</text>
</a>
</g>
</g>
<!-- Node1&#45;&gt;Node2 -->
<g id="edge1" class="edge">
<title>Node1&#45;&gt;Node2</title>
<path fill="none" stroke="midnightblue" d="M539.78,-742.35C608.99,-733.6 759.98,-714.5 852.53,-702.8"/>
<polygon fill="midnightblue" stroke="midnightblue" points="853.2,-706.24 862.68,-701.51 852.32,-699.3 853.2,-706.24"/>
</g>
<!-- Node29 -->
<g id="node29" class="node">
<title>Node29</title>
<g id="a_node29"><a xlink:href="Assignment_8h.html" target="_top" xlink:title=" ">
<polygon fill="white" stroke="black" points="104.5,-369.5 104.5,-399.5 251.5,-399.5 251.5,-369.5 104.5,-369.5"/>
<text text-anchor="start" x="112.5" y="-387.5" font-family="Helvetica,sans-Serif" font-size="10.00">boomerang/ssl/statements</text>
<text text-anchor="middle" x="178" y="-376.5" font-family="Helvetica,sans-Serif" font-size="10.00">/Assignment.h</text>
</a>
</g>
</g>
<!-- Node1&#45;&gt;Node29 -->
<g id="edge80" class="edge">
<title>Node1&#45;&gt;Node29</title>
<path fill="none" stroke="midnightblue" d="M466.47,-745.37C382.77,-741.21 179.55,-728.61 117,-702 75.16,-684.2 38,-682.47 38,-637 38,-637 38,-637 38,-512 38,-460.03 91.76,-423.89 132.66,-403.92"/>
<polygon fill="midnightblue" stroke="midnightblue" points="134.39,-406.98 141.95,-399.55 131.41,-400.64 134.39,-406.98"/>
</g>
<!-- Node37 -->
<g id="node37" class="node">
<title>Node37</title>
<g id="a_node37"><a xlink:href="RefExp_8h.html" target="_top" xlink:title=" ">
<polygon fill="white" stroke="black" points="104,-442 104,-461 260,-461 260,-442 104,-442"/>
<text text-anchor="middle" x="182" y="-449" font-family="Helvetica,sans-Serif" font-size="10.00">boomerang/ssl/exp/RefExp.h</text>
</a>
</g>
</g>
<!-- Node1&#45;&gt;Node37 -->
<g id="edge76" class="edge">
<title>Node1&#45;&gt;Node37</title>
<path fill="none" stroke="midnightblue" d="M466.22,-745.39C362.65,-739.85 76,-717.28 76,-637 76,-637 76,-637 76,-573.5 76,-524.44 125.91,-485.74 157.23,-466.28"/>
<polygon fill="midnightblue" stroke="midnightblue" points="159.12,-469.23 165.9,-461.08 155.52,-463.22 159.12,-469.23"/>
</g>
<!-- Node39 -->
<g id="node39" class="node">
<title>Node39</title>
<g id="a_node39"><a xlink:href="MapIterators_8h.html" target="_top" xlink:title=" ">
<polygon fill="white" stroke="black" points="1138.5,-682.5 1138.5,-701.5 1303.5,-701.5 1303.5,-682.5 1138.5,-682.5"/>
<text text-anchor="middle" x="1221" y="-689.5" font-family="Helvetica,sans-Serif" font-size="10.00">boomerang/util/MapIterators.h</text>
</a>
</g>
</g>
<!-- Node1&#45;&gt;Node39 -->
<g id="edge81" class="edge">
<title>Node1&#45;&gt;Node39</title>
<path fill="none" stroke="midnightblue" d="M539.59,-744.25C647.74,-736.11 968.29,-712.01 1128.17,-699.98"/>
<polygon fill="midnightblue" stroke="midnightblue" points="1128.75,-703.45 1138.46,-699.21 1128.23,-696.47 1128.75,-703.45"/>
</g>
<!-- Node3 -->
<g id="node3" class="node">
<title>Node3</title>
<g id="a_node3"><a xlink:href="GraphNode_8h.html" target="_top" xlink:title=" ">
<polygon fill="white" stroke="black" points="1022,-241 1022,-260 1176,-260 1176,-241 1022,-241"/>
<text text-anchor="middle" x="1099" y="-248" font-family="Helvetica,sans-Serif" font-size="10.00">boomerang/db/GraphNode.h</text>
</a>
</g>
</g>
<!-- Node2&#45;&gt;Node3 -->
<g id="edge2" class="edge">
<title>Node2&#45;&gt;Node3</title>
<path fill="none" stroke="midnightblue" d="M946.71,-682.41C976.11,-665.97 1034,-627.04 1034,-575.5 1034,-575.5 1034,-575.5 1034,-383.5 1034,-337.97 1065.51,-291.86 1084.65,-268.04"/>
<polygon fill="midnightblue" stroke="midnightblue" points="1087.59,-269.98 1091.29,-260.05 1082.2,-265.5 1087.59,-269.98"/>
</g>
<!-- Node10 -->
<g id="node10" class="node">
<title>Node10</title>
<g id="a_node10"><a xlink:title=" ">
<polygon fill="white" stroke="#bfbfbf" points="1218.5,-179.5 1218.5,-198.5 1265.5,-198.5 1265.5,-179.5 1218.5,-179.5"/>
<text text-anchor="middle" x="1242" y="-186.5" font-family="Helvetica,sans-Serif" font-size="10.00">vector</text>
</a>
</g>
</g>
<!-- Node2&#45;&gt;Node10 -->
<g id="edge75" class="edge">
<title>Node2&#45;&gt;Node10</title>
<path fill="none" stroke="midnightblue" d="M983.63,-682.5C1072.84,-666.83 1242,-629.94 1242,-575.5 1242,-575.5 1242,-575.5 1242,-316.5 1242,-278.2 1242,-233.38 1242,-208.7"/>
<polygon fill="midnightblue" stroke="midnightblue" points="1245.5,-208.59 1242,-198.59 1238.5,-208.59 1245.5,-208.59"/>
</g>
<!-- Node11 -->
<g id="node11" class="node">
<title>Node11</title>
<g id="a_node11"><a xlink:href="IRFragment_8h.html" target="_top" xlink:title=" ">
<polygon fill="white" stroke="black" points="616.5,-626.5 616.5,-645.5 771.5,-645.5 771.5,-626.5 616.5,-626.5"/>
<text text-anchor="middle" x="694" y="-633.5" font-family="Helvetica,sans-Serif" font-size="10.00">boomerang/db/IRFragment.h</text>
</a>
</g>
</g>
<!-- Node2&#45;&gt;Node11 -->
<g id="edge11" class="edge">
<title>Node2&#45;&gt;Node11</title>
<path fill="none" stroke="midnightblue" d="M892.61,-682.44C851.61,-673.06 785.75,-657.99 741.22,-647.8"/>
<polygon fill="midnightblue" stroke="midnightblue" points="741.75,-644.34 731.22,-645.52 740.19,-651.16 741.75,-644.34"/>
</g>
<!-- Node12 -->
<g id="node12" class="node">
<title>Node12</title>
<g id="a_node12"><a xlink:href="RTL_8h.html" target="_top" xlink:title=" ">
<polygon fill="white" stroke="black" points="381.5,-308 381.5,-327 500.5,-327 500.5,-308 381.5,-308"/>
<text text-anchor="middle" x="441" y="-315" font-family="Helvetica,sans-Serif" font-size="10.00">boomerang/ssl/RTL.h</text>
</a>
</g>
</g>
<!-- Node2&#45;&gt;Node12 -->
<g id="edge73" class="edge">
<title>Node2&#45;&gt;Node12</title>
<path fill="none" stroke="midnightblue" d="M853.83,-685.18C683.77,-671.15 288,-632.41 288,-575.5 288,-575.5 288,-575.5 288,-512 288,-472.75 303,-461.32 333,-436 367.19,-407.15 398.61,-434.57 427,-400 441.42,-382.44 443.36,-355.45 442.74,-337.39"/>
<polygon fill="midnightblue" stroke="midnightblue" points="446.22,-337 442.09,-327.24 439.24,-337.44 446.22,-337"/>
</g>
<!-- Node15 -->
<g id="node15" class="node">
<title>Node15</title>
<g id="a_node15"><a xlink:href="Address_8h.html" target="_top" xlink:title=" ">
<polygon fill="white" stroke="black" points="844,-179.5 844,-198.5 986,-198.5 986,-179.5 844,-179.5"/>
<text text-anchor="middle" x="915" y="-186.5" font-family="Helvetica,sans-Serif" font-size="10.00">boomerang/util/Address.h</text>
</a>
</g>
</g>
<!-- Node2&#45;&gt;Node15 -->
<g id="edge74" class="edge">
<title>Node2&#45;&gt;Node15</title>
<path fill="none" stroke="midnightblue" d="M930,-682.31C930,-663.06 930,-615.4 930,-575.5 930,-575.5 930,-575.5 930,-316.5 930,-277.93 923.04,-233.21 918.6,-208.62"/>
<polygon fill="midnightblue" stroke="midnightblue" points="922,-207.73 916.72,-198.55 915.12,-209.02 922,-207.73"/>
</g>
<!-- Node32 -->
<g id="node32" class="node">
<title>Node32</title>
<g id="a_node32"><a xlink:href="MachineInstruction_8h.html" target="_top" xlink:title=" ">
<polygon fill="white" stroke="black" points="1270,-235.5 1270,-265.5 1392,-265.5 1392,-235.5 1270,-235.5"/>
<text text-anchor="start" x="1278" y="-253.5" font-family="Helvetica,sans-Serif" font-size="10.00">boomerang/frontend</text>
<text text-anchor="middle" x="1331" y="-242.5" font-family="Helvetica,sans-Serif" font-size="10.00">/MachineInstruction.h</text>
</a>
</g>
</g>
<!-- Node2&#45;&gt;Node32 -->
<g id="edge58" class="edge">
<title>Node2&#45;&gt;Node32</title>
<path fill="none" stroke="midnightblue" d="M1006.34,-689.52C1090.54,-686.35 1219.04,-676.5 1256,-646 1281.53,-624.93 1280,-608.6 1280,-575.5 1280,-575.5 1280,-575.5 1280,-383.5 1280,-343.02 1301.13,-299.97 1316.18,-274.42"/>
<polygon fill="midnightblue" stroke="midnightblue" points="1319.2,-276.2 1321.41,-265.84 1313.22,-272.56 1319.2,-276.2"/>
</g>
<!-- Node4 -->
<g id="node4" class="node">
<title>Node4</title>
<g id="a_node4"><a xlink:href="BoomerangAPI_8h.html" target="_top" xlink:title=" ">
<polygon fill="white" stroke="black" points="970.5,-56.5 970.5,-86.5 1125.5,-86.5 1125.5,-56.5 970.5,-56.5"/>
<text text-anchor="start" x="978.5" y="-74.5" font-family="Helvetica,sans-Serif" font-size="10.00">boomerang/core/Boomerang</text>
<text text-anchor="middle" x="1048" y="-63.5" font-family="Helvetica,sans-Serif" font-size="10.00">API.h</text>
</a>
</g>
</g>
<!-- Node3&#45;&gt;Node4 -->
<g id="edge3" class="edge">
<title>Node3&#45;&gt;Node4</title>
<path fill="none" stroke="midnightblue" d="M1120.6,-240.83C1145.94,-229.2 1183.06,-206.76 1171,-179 1154.01,-139.91 1114.32,-109.9 1084.59,-91.85"/>
<polygon fill="midnightblue" stroke="midnightblue" points="1086.11,-88.68 1075.72,-86.63 1082.56,-94.72 1086.11,-88.68"/>
</g>
<!-- Node5 -->
<g id="node5" class="node">
<title>Node5</title>
<g id="a_node5"><a xlink:href="Util_8h.html" target="_top" xlink:title=" ">
<polygon fill="white" stroke="black" points="1042,-179.5 1042,-198.5 1162,-198.5 1162,-179.5 1042,-179.5"/>
<text text-anchor="middle" x="1102" y="-186.5" font-family="Helvetica,sans-Serif" font-size="10.00">boomerang/util/Util.h</text>
</a>
</g>
</g>
<!-- Node3&#45;&gt;Node5 -->
<g id="edge4" class="edge">
<title>Node3&#45;&gt;Node5</title>
<path fill="none" stroke="midnightblue" d="M1099.43,-240.98C1099.85,-232.58 1100.51,-219.48 1101.06,-208.66"/>
<polygon fill="midnightblue" stroke="midnightblue" points="1104.56,-208.67 1101.57,-198.51 1097.57,-208.32 1104.56,-208.67"/>
</g>
<!-- Node9 -->
<g id="node9" class="node">
<title>Node9</title>
<g id="a_node9"><a xlink:title=" ">
<polygon fill="white" stroke="#bfbfbf" points="442,-179.5 442,-198.5 494,-198.5 494,-179.5 442,-179.5"/>
<text text-anchor="middle" x="468" y="-186.5" font-family="Helvetica,sans-Serif" font-size="10.00">cassert</text>
</a>
</g>
</g>
<!-- Node3&#45;&gt;Node9 -->
<g id="edge9" class="edge">
<title>Node3&#45;&gt;Node9</title>
<path fill="none" stroke="midnightblue" d="M1021.8,-247.08C909.63,-242.65 695.03,-230.73 504.2,-198.93"/>
<polygon fill="midnightblue" stroke="midnightblue" points="504.71,-195.47 494.27,-197.26 503.55,-202.37 504.71,-195.47"/>
</g>
<!-- Node3&#45;&gt;Node10 -->
<g id="edge10" class="edge">
<title>Node3&#45;&gt;Node10</title>
<path fill="none" stroke="midnightblue" d="M1119.49,-240.98C1143.81,-230.86 1184.55,-213.9 1212.32,-202.35"/>
<polygon fill="midnightblue" stroke="midnightblue" points="1213.66,-205.58 1221.55,-198.51 1210.97,-199.12 1213.66,-205.58"/>
</g>
<!-- Node5&#45;&gt;Node4 -->
<g id="edge5" class="edge">
<title>Node5&#45;&gt;Node4</title>
<path fill="none" stroke="midnightblue" d="M1102.37,-179.14C1102.56,-166.19 1101.6,-141.62 1093,-123 1088.02,-112.23 1079.96,-102.09 1072.03,-93.76"/>
<polygon fill="midnightblue" stroke="midnightblue" points="1074.43,-91.22 1064.87,-86.66 1069.5,-96.19 1074.43,-91.22"/>
</g>
<!-- Node6 -->
<g id="node6" class="node">
<title>Node6</title>
<g id="a_node6"><a xlink:title=" ">
<polygon fill="white" stroke="#bfbfbf" points="1031.5,-123.5 1031.5,-142.5 1084.5,-142.5 1084.5,-123.5 1031.5,-123.5"/>
<text text-anchor="middle" x="1058" y="-130.5" font-family="Helvetica,sans-Serif" font-size="10.00">QString</text>
</a>
</g>
</g>
<!-- Node5&#45;&gt;Node6 -->
<g id="edge6" class="edge">
<title>Node5&#45;&gt;Node6</title>
<path fill="none" stroke="midnightblue" d="M1094.73,-179.08C1088.46,-171.38 1079.21,-160.03 1071.57,-150.65"/>
<polygon fill="midnightblue" stroke="midnightblue" points="1074.16,-148.29 1065.13,-142.75 1068.73,-152.71 1074.16,-148.29"/>
</g>
<!-- Node7 -->
<g id="node7" class="node">
<title>Node7</title>
<g id="a_node7"><a xlink:title=" ">
<polygon fill="white" stroke="#bfbfbf" points="700,-123.5 700,-142.5 758,-142.5 758,-123.5 700,-123.5"/>
<text text-anchor="middle" x="729" y="-130.5" font-family="Helvetica,sans-Serif" font-size="10.00">memory</text>
</a>
</g>
</g>
<!-- Node5&#45;&gt;Node7 -->
<g id="edge7" class="edge">
<title>Node5&#45;&gt;Node7</title>
<path fill="none" stroke="midnightblue" d="M1041.77,-180.05C977.39,-171.43 872.36,-157.02 782,-143 777.52,-142.3 772.83,-141.55 768.18,-140.78"/>
<polygon fill="midnightblue" stroke="midnightblue" points="768.58,-137.3 758.13,-139.1 767.42,-144.2 768.58,-137.3"/>
</g>
<!-- Node8 -->
<g id="node8" class="node">
<title>Node8</title>
<g id="a_node8"><a xlink:title=" ">
<polygon fill="white" stroke="#bfbfbf" points="1196.5,-123.5 1196.5,-142.5 1265.5,-142.5 1265.5,-123.5 1196.5,-123.5"/>
<text text-anchor="middle" x="1231" y="-130.5" font-family="Helvetica,sans-Serif" font-size="10.00">type_traits</text>
</a>
</g>
</g>
<!-- Node5&#45;&gt;Node8 -->
<g id="edge8" class="edge">
<title>Node5&#45;&gt;Node8</title>
<path fill="none" stroke="midnightblue" d="M1122.44,-179.44C1143.67,-170.56 1177.1,-156.56 1201.25,-146.45"/>
<polygon fill="midnightblue" stroke="midnightblue" points="1202.78,-149.61 1210.66,-142.52 1200.08,-143.15 1202.78,-149.61"/>
</g>
<!-- Node11&#45;&gt;Node3 -->
<g id="edge12" class="edge">
<title>Node11&#45;&gt;Node3</title>
<path fill="none" stroke="midnightblue" d="M771.84,-631.35C805.19,-625.98 842.31,-614.37 868,-590 893.7,-565.62 892,-549.42 892,-514 892,-514 892,-514 892,-383.5 892,-312.24 980.29,-277.76 1041.55,-262.41"/>
<polygon fill="midnightblue" stroke="midnightblue" points="1042.6,-265.75 1051.51,-260.02 1040.97,-258.95 1042.6,-265.75"/>
</g>
<!-- Node11&#45;&gt;Node7 -->
<g id="edge57" class="edge">
<title>Node11&#45;&gt;Node7</title>
<path fill="none" stroke="midnightblue" d="M726.38,-626.4C773.13,-611.8 854,-577.38 854,-514 854,-514 854,-514 854,-316.5 854,-243.22 784.54,-177.78 749.18,-149.21"/>
<polygon fill="midnightblue" stroke="midnightblue" points="751.01,-146.2 740.99,-142.76 746.68,-151.7 751.01,-146.2"/>
</g>
<!-- Node11&#45;&gt;Node12 -->
<g id="edge13" class="edge">
<title>Node11&#45;&gt;Node12</title>
<path fill="none" stroke="midnightblue" d="M632.01,-626.48C548.64,-611.23 404.06,-570.53 345,-467 300.12,-388.31 452.01,-410.87 460,-400 473.94,-381.03 462.63,-353.43 452.44,-335.72"/>
<polygon fill="midnightblue" stroke="midnightblue" points="455.3,-333.69 447.07,-327.02 449.34,-337.37 455.3,-333.69"/>
</g>
<!-- Node20 -->
<g id="node20" class="node">
<title>Node20</title>
<g id="a_node20"><a xlink:title=" ">
<polygon fill="white" stroke="#bfbfbf" points="54,-179.5 54,-198.5 86,-198.5 86,-179.5 54,-179.5"/>
<text text-anchor="middle" x="70" y="-186.5" font-family="Helvetica,sans-Serif" font-size="10.00">list</text>
</a>
</g>
</g>
<!-- Node11&#45;&gt;Node20 -->
<g id="edge56" class="edge">
<title>Node11&#45;&gt;Node20</title>
<path fill="none" stroke="midnightblue" d="M616.41,-630.99C435.31,-619.51 0,-578.8 0,-452.5 0,-452.5 0,-452.5 0,-316.5 0,-272.01 33.55,-228.49 54.2,-205.92"/>
<polygon fill="midnightblue" stroke="midnightblue" points="56.8,-208.26 61.13,-198.59 51.72,-203.45 56.8,-208.26"/>
</g>
<!-- Node22 -->
<g id="node22" class="node">
<title>Node22</title>
<g id="a_node22"><a xlink:href="StatementList_8h.html" target="_top" xlink:title=" ">
<polygon fill="white" stroke="black" points="562.5,-559.5 562.5,-589.5 707.5,-589.5 707.5,-559.5 562.5,-559.5"/>
<text text-anchor="start" x="570.5" y="-577.5" font-family="Helvetica,sans-Serif" font-size="10.00">boomerang/util/Statement</text>
<text text-anchor="middle" x="635" y="-566.5" font-family="Helvetica,sans-Serif" font-size="10.00">List.h</text>
</a>
</g>
</g>
<!-- Node11&#45;&gt;Node22 -->
<g id="edge34" class="edge">
<title>Node11&#45;&gt;Node22</title>
<path fill="none" stroke="midnightblue" d="M685.55,-626.48C677.85,-618.72 666.18,-606.94 655.99,-596.66"/>
<polygon fill="midnightblue" stroke="midnightblue" points="658.43,-594.16 648.91,-589.52 653.46,-599.09 658.43,-594.16"/>
</g>
<!-- Node12&#45;&gt;Node7 -->
<g id="edge33" class="edge">
<title>Node12&#45;&gt;Node7</title>
<path fill="none" stroke="midnightblue" d="M381.34,-309.39C305.95,-299.81 184.35,-282.07 171,-266 162.2,-255.4 162.94,-246.18 171,-235 231.85,-150.58 572.71,-136.71 689.63,-134.44"/>
<polygon fill="midnightblue" stroke="midnightblue" points="689.98,-137.94 699.91,-134.26 689.85,-130.94 689.98,-137.94"/>
</g>
<!-- Node13 -->
<g id="node13" class="node">
<title>Node13</title>
<g id="a_node13"><a xlink:href="Statement_8h.html" target="_top" xlink:title=" ">
<polygon fill="white" stroke="black" points="362.5,-235.5 362.5,-265.5 509.5,-265.5 509.5,-235.5 362.5,-235.5"/>
<text text-anchor="start" x="370.5" y="-253.5" font-family="Helvetica,sans-Serif" font-size="10.00">boomerang/ssl/statements</text>
<text text-anchor="middle" x="436" y="-242.5" font-family="Helvetica,sans-Serif" font-size="10.00">/Statement.h</text>
</a>
</g>
</g>
<!-- Node12&#45;&gt;Node13 -->
<g id="edge14" class="edge">
<title>Node12&#45;&gt;Node13</title>
<path fill="none" stroke="midnightblue" d="M440.33,-307.73C439.7,-299.54 438.72,-286.92 437.86,-275.71"/>
<polygon fill="midnightblue" stroke="midnightblue" points="441.34,-275.29 437.08,-265.59 434.36,-275.83 441.34,-275.29"/>
</g>
<!-- Node12&#45;&gt;Node15 -->
<g id="edge31" class="edge">
<title>Node12&#45;&gt;Node15</title>
<path fill="none" stroke="midnightblue" d="M457.45,-307.89C490.03,-291.2 565.48,-254.4 633,-235 699.3,-215.95 776.84,-204.31 833.81,-197.66"/>
<polygon fill="midnightblue" stroke="midnightblue" points="834.31,-201.13 843.85,-196.51 833.51,-194.17 834.31,-201.13"/>
</g>
<!-- Node12&#45;&gt;Node20 -->
<g id="edge32" class="edge">
<title>Node12&#45;&gt;Node20</title>
<path fill="none" stroke="midnightblue" d="M381.28,-309.23C286.44,-297.45 110.91,-274.66 100,-266 82.42,-252.04 75.11,-226.3 72.09,-208.68"/>
<polygon fill="midnightblue" stroke="midnightblue" points="75.55,-208.11 70.69,-198.7 68.62,-209.09 75.55,-208.11"/>
</g>
<!-- Node13&#45;&gt;Node7 -->
<g id="edge30" class="edge">
<title>Node13&#45;&gt;Node7</title>
<path fill="none" stroke="midnightblue" d="M430.33,-235.49C425,-219.79 419.66,-194.52 433,-179 465.62,-141.05 616.59,-134.73 689.45,-133.93"/>
<polygon fill="midnightblue" stroke="midnightblue" points="689.64,-137.43 699.61,-133.85 689.59,-130.43 689.64,-137.43"/>
</g>
<!-- Node13&#45;&gt;Node9 -->
<g id="edge27" class="edge">
<title>Node13&#45;&gt;Node9</title>
<path fill="none" stroke="midnightblue" d="M443.58,-235.4C448.04,-227.11 453.72,-216.55 458.48,-207.71"/>
<polygon fill="midnightblue" stroke="midnightblue" points="461.69,-209.12 463.34,-198.66 455.52,-205.81 461.69,-209.12"/>
</g>
<!-- Node14 -->
<g id="node14" class="node">
<title>Node14</title>
<g id="a_node14"><a xlink:href="ExpHelp_8h.html" target="_top" xlink:title=" ">
<polygon fill="white" stroke="black" points="512,-179.5 512,-198.5 674,-198.5 674,-179.5 512,-179.5"/>
<text text-anchor="middle" x="593" y="-186.5" font-family="Helvetica,sans-Serif" font-size="10.00">boomerang/ssl/exp/ExpHelp.h</text>
</a>
</g>
</g>
<!-- Node13&#45;&gt;Node14 -->
<g id="edge15" class="edge">
<title>Node13&#45;&gt;Node14</title>
<path fill="none" stroke="midnightblue" d="M473.21,-235.4C499.78,-225.33 535.19,-211.91 560.61,-202.28"/>
<polygon fill="midnightblue" stroke="midnightblue" points="562.04,-205.47 570.16,-198.66 559.56,-198.93 562.04,-205.47"/>
</g>
<!-- Node13&#45;&gt;Node15 -->
<g id="edge18" class="edge">
<title>Node13&#45;&gt;Node15</title>
<path fill="none" stroke="midnightblue" d="M509.9,-237.05C514.67,-236.34 519.4,-235.64 524,-235 630.7,-220.08 754.29,-206.47 833.48,-198.21"/>
<polygon fill="midnightblue" stroke="midnightblue" points="834.29,-201.65 843.88,-197.13 833.57,-194.69 834.29,-201.65"/>
</g>
<!-- Node13&#45;&gt;Node20 -->
<g id="edge28" class="edge">
<title>Node13&#45;&gt;Node20</title>
<path fill="none" stroke="midnightblue" d="M362.24,-236.55C359.12,-236.03 356.03,-235.51 353,-235 258.6,-219.25 146.26,-201.76 96.25,-194.04"/>
<polygon fill="midnightblue" stroke="midnightblue" points="96.7,-190.57 86.28,-192.5 95.63,-197.48 96.7,-190.57"/>
</g>
<!-- Node21 -->
<g id="node21" class="node">
<title>Node21</title>
<g id="a_node21"><a xlink:title=" ">
<polygon fill="white" stroke="#bfbfbf" points="348,-179.5 348,-198.5 386,-198.5 386,-179.5 348,-179.5"/>
<text text-anchor="middle" x="367" y="-186.5" font-family="Helvetica,sans-Serif" font-size="10.00">map</text>
</a>
</g>
</g>
<!-- Node13&#45;&gt;Node21 -->
<g id="edge29" class="edge">
<title>Node13&#45;&gt;Node21</title>
<path fill="none" stroke="midnightblue" d="M419.65,-235.4C409.1,-226.31 395.4,-214.49 384.62,-205.19"/>
<polygon fill="midnightblue" stroke="midnightblue" points="386.9,-202.54 377.04,-198.66 382.33,-207.84 386.9,-202.54"/>
</g>
<!-- Node14&#45;&gt;Node4 -->
<g id="edge16" class="edge">
<title>Node14&#45;&gt;Node4</title>
<path fill="none" stroke="midnightblue" d="M602.74,-179.33C619.47,-164.99 655.31,-136.56 691,-123 738.75,-104.86 870.72,-89.32 960.11,-80.44"/>
<polygon fill="midnightblue" stroke="midnightblue" points="960.64,-83.91 970.25,-79.45 959.96,-76.94 960.64,-83.91"/>
</g>
<!-- Node14&#45;&gt;Node7 -->
<g id="edge17" class="edge">
<title>Node14&#45;&gt;Node7</title>
<path fill="none" stroke="midnightblue" d="M614.55,-179.44C637.03,-170.52 672.49,-156.44 697.98,-146.32"/>
<polygon fill="midnightblue" stroke="midnightblue" points="699.55,-149.46 707.55,-142.52 696.97,-142.95 699.55,-149.46"/>
</g>
<!-- Node15&#45;&gt;Node4 -->
<g id="edge19" class="edge">
<title>Node15&#45;&gt;Node4</title>
<path fill="none" stroke="midnightblue" d="M925.02,-179.13C939.21,-166.58 966,-142.94 989,-123 1000.36,-113.15 1013.03,-102.29 1023.7,-93.18"/>
<polygon fill="midnightblue" stroke="midnightblue" points="1026.08,-95.75 1031.42,-86.59 1021.54,-90.42 1026.08,-95.75"/>
</g>
<!-- Node15&#45;&gt;Node6 -->
<g id="edge26" class="edge">
<title>Node15&#45;&gt;Node6</title>
<path fill="none" stroke="midnightblue" d="M937.66,-179.44C961.4,-170.48 998.91,-156.31 1025.74,-146.18"/>
<polygon fill="midnightblue" stroke="midnightblue" points="1027.33,-149.32 1035.45,-142.52 1024.86,-142.77 1027.33,-149.32"/>
</g>
<!-- Node16 -->
<g id="node16" class="node">
<title>Node16</title>
<g id="a_node16"><a xlink:href="OStream_8h.html" target="_top" xlink:title=" ">
<polygon fill="white" stroke="black" points="791,-123.5 791,-142.5 937,-142.5 937,-123.5 791,-123.5"/>
<text text-anchor="middle" x="864" y="-130.5" font-family="Helvetica,sans-Serif" font-size="10.00">boomerang/util/OStream.h</text>
</a>
</g>
</g>
<!-- Node15&#45;&gt;Node16 -->
<g id="edge20" class="edge">
<title>Node15&#45;&gt;Node16</title>
<path fill="none" stroke="midnightblue" d="M906.58,-179.08C899.15,-171.22 888.15,-159.57 879.19,-150.08"/>
<polygon fill="midnightblue" stroke="midnightblue" points="881.68,-147.62 872.26,-142.75 876.59,-152.42 881.68,-147.62"/>
</g>
<!-- Node17 -->
<g id="node17" class="node">
<title>Node17</title>
<g id="a_node17"><a xlink:href="Types_8h.html" target="_top" xlink:title=" ">
<polygon fill="white" stroke="black" points="1305.5,-62 1305.5,-81 1436.5,-81 1436.5,-62 1305.5,-62"/>
<text text-anchor="middle" x="1371" y="-69" font-family="Helvetica,sans-Serif" font-size="10.00">boomerang/util/Types.h</text>
</a>
</g>
</g>
<!-- Node15&#45;&gt;Node17 -->
<g id="edge25" class="edge">
<title>Node15&#45;&gt;Node17</title>
<path fill="none" stroke="midnightblue" d="M929.38,-179.25C958.49,-161.54 1021.69,-123.11 1022,-123 1112.34,-90.56 1222.93,-78.91 1295.08,-74.76"/>
<polygon fill="midnightblue" stroke="midnightblue" points="1295.65,-78.23 1305.44,-74.2 1295.27,-71.24 1295.65,-78.23"/>
</g>
<!-- Node16&#45;&gt;Node4 -->
<g id="edge21" class="edge">
<title>Node16&#45;&gt;Node4</title>
<path fill="none" stroke="midnightblue" d="M890.36,-123.48C917.5,-114.7 960.52,-100.79 994.77,-89.71"/>
<polygon fill="midnightblue" stroke="midnightblue" points="996.2,-92.93 1004.63,-86.52 994.04,-86.27 996.2,-92.93"/>
</g>
<!-- Node16&#45;&gt;Node17 -->
<g id="edge22" class="edge">
<title>Node16&#45;&gt;Node17</title>
<path fill="none" stroke="midnightblue" d="M936.64,-123.48C1031.97,-112.29 1198.52,-92.74 1295.33,-81.38"/>
<polygon fill="midnightblue" stroke="midnightblue" points="1295.82,-84.85 1305.34,-80.21 1295,-77.89 1295.82,-84.85"/>
</g>
<!-- Node19 -->
<g id="node19" class="node">
<title>Node19</title>
<g id="a_node19"><a xlink:title=" ">
<polygon fill="white" stroke="#bfbfbf" points="841,-62 841,-81 887,-81 887,-62 841,-62"/>
<text text-anchor="middle" x="864" y="-69" font-family="Helvetica,sans-Serif" font-size="10.00">cstdio</text>
</a>
</g>
</g>
<!-- Node16&#45;&gt;Node19 -->
<g id="edge24" class="edge">
<title>Node16&#45;&gt;Node19</title>
<path fill="none" stroke="midnightblue" d="M864,-123.48C864,-115.08 864,-101.98 864,-91.16"/>
<polygon fill="midnightblue" stroke="midnightblue" points="867.5,-91.01 864,-81.01 860.5,-91.01 867.5,-91.01"/>
</g>
<!-- Node18 -->
<g id="node18" class="node">
<title>Node18</title>
<g id="a_node18"><a xlink:title=" ">
<polygon fill="white" stroke="#bfbfbf" points="1346,-0.5 1346,-19.5 1396,-19.5 1396,-0.5 1346,-0.5"/>
<text text-anchor="middle" x="1371" y="-7.5" font-family="Helvetica,sans-Serif" font-size="10.00">cstdint</text>
</a>
</g>
</g>
<!-- Node17&#45;&gt;Node18 -->
<g id="edge23" class="edge">
<title>Node17&#45;&gt;Node18</title>
<path fill="none" stroke="midnightblue" d="M1371,-61.98C1371,-53.58 1371,-40.48 1371,-29.66"/>
<polygon fill="midnightblue" stroke="midnightblue" points="1374.5,-29.51 1371,-19.51 1367.5,-29.51 1374.5,-29.51"/>
</g>
<!-- Node22&#45;&gt;Node20 -->
<g id="edge55" class="edge">
<title>Node22&#45;&gt;Node20</title>
<path fill="none" stroke="midnightblue" d="M562.33,-569.2C430.31,-559.82 158.78,-532.85 95,-467 25.35,-395.08 52.12,-257.94 64.82,-208.42"/>
<polygon fill="midnightblue" stroke="midnightblue" points="68.27,-209.08 67.48,-198.51 61.5,-207.26 68.27,-209.08"/>
</g>
<!-- Node23 -->
<g id="node23" class="node">
<title>Node23</title>
<g id="a_node23"><a xlink:href="StatementSet_8h.html" target="_top" xlink:title=" ">
<polygon fill="white" stroke="black" points="589,-503.5 589,-522.5 681,-522.5 681,-503.5 589,-503.5"/>
<text text-anchor="middle" x="635" y="-510.5" font-family="Helvetica,sans-Serif" font-size="10.00">StatementSet.h</text>
</a>
</g>
</g>
<!-- Node22&#45;&gt;Node23 -->
<g id="edge35" class="edge">
<title>Node22&#45;&gt;Node23</title>
<path fill="none" stroke="midnightblue" d="M635,-559.4C635,-551.47 635,-541.46 635,-532.86"/>
<polygon fill="midnightblue" stroke="midnightblue" points="638.5,-532.66 635,-522.66 631.5,-532.66 638.5,-532.66"/>
</g>
<!-- Node23&#45;&gt;Node7 -->
<g id="edge53" class="edge">
<title>Node23&#45;&gt;Node7</title>
<path fill="none" stroke="midnightblue" d="M681.1,-505.47C723.87,-498.36 782.96,-485.47 797,-467 835.57,-416.26 760.62,-214.02 736.28,-152.11"/>
<polygon fill="midnightblue" stroke="midnightblue" points="739.42,-150.54 732.47,-142.54 732.91,-153.12 739.42,-150.54"/>
</g>
<!-- Node24 -->
<g id="node24" class="node">
<title>Node24</title>
<g id="a_node24"><a xlink:href="Terminal_8h.html" target="_top" xlink:title=" ">
<polygon fill="white" stroke="black" points="624,-442 624,-461 788,-461 788,-442 624,-442"/>
<text text-anchor="middle" x="706" y="-449" font-family="Helvetica,sans-Serif" font-size="10.00">boomerang/ssl/exp/Terminal.h</text>
</a>
</g>
</g>
<!-- Node23&#45;&gt;Node24 -->
<g id="edge36" class="edge">
<title>Node23&#45;&gt;Node24</title>
<path fill="none" stroke="midnightblue" d="M645.17,-503.48C656.35,-494.11 674.52,-478.88 688.09,-467.51"/>
<polygon fill="midnightblue" stroke="midnightblue" points="690.43,-470.11 695.85,-461.01 685.93,-464.75 690.43,-470.11"/>
</g>
<!-- Node28 -->
<g id="node28" class="node">
<title>Node28</title>
<g id="a_node28"><a xlink:href="Assign_8h.html" target="_top" xlink:title=" ">
<polygon fill="white" stroke="black" points="354.5,-436.5 354.5,-466.5 501.5,-466.5 501.5,-436.5 354.5,-436.5"/>
<text text-anchor="start" x="362.5" y="-454.5" font-family="Helvetica,sans-Serif" font-size="10.00">boomerang/ssl/statements</text>
<text text-anchor="middle" x="428" y="-443.5" font-family="Helvetica,sans-Serif" font-size="10.00">/Assign.h</text>
</a>
</g>
</g>
<!-- Node23&#45;&gt;Node28 -->
<g id="edge49" class="edge">
<title>Node23&#45;&gt;Node28</title>
<path fill="none" stroke="midnightblue" d="M605.34,-503.48C574.42,-494.59 525.16,-480.43 486.4,-469.29"/>
<polygon fill="midnightblue" stroke="midnightblue" points="487.36,-465.92 476.79,-466.52 485.43,-472.65 487.36,-465.92"/>
</g>
<!-- Node31 -->
<g id="node31" class="node">
<title>Node31</title>
<g id="a_node31"><a xlink:title=" ">
<polygon fill="white" stroke="#bfbfbf" points="520,-442 520,-461 606,-461 606,-442 520,-442"/>
<text text-anchor="middle" x="563" y="-449" font-family="Helvetica,sans-Serif" font-size="10.00">unordered_set</text>
</a>
</g>
</g>
<!-- Node23&#45;&gt;Node31 -->
<g id="edge54" class="edge">
<title>Node23&#45;&gt;Node31</title>
<path fill="none" stroke="midnightblue" d="M624.68,-503.48C613.35,-494.11 594.93,-478.88 581.16,-467.51"/>
<polygon fill="midnightblue" stroke="midnightblue" points="583.23,-464.68 573.3,-461.01 578.78,-470.08 583.23,-464.68"/>
</g>
<!-- Node25 -->
<g id="node25" class="node">
<title>Node25</title>
<g id="a_node25"><a xlink:href="Exp_8h.html" target="_top" xlink:title=" ">
<polygon fill="white" stroke="black" points="566,-308 566,-327 706,-327 706,-308 566,-308"/>
<text text-anchor="middle" x="636" y="-315" font-family="Helvetica,sans-Serif" font-size="10.00">boomerang/ssl/exp/Exp.h</text>
</a>
</g>
</g>
<!-- Node24&#45;&gt;Node25 -->
<g id="edge37" class="edge">
<title>Node24&#45;&gt;Node25</title>
<path fill="none" stroke="midnightblue" d="M701.41,-441.84C690.03,-420.39 660.39,-364.49 645.22,-335.9"/>
<polygon fill="midnightblue" stroke="midnightblue" points="648.3,-334.22 640.52,-327.02 642.11,-337.5 648.3,-334.22"/>
</g>
<!-- Node25&#45;&gt;Node6 -->
<g id="edge43" class="edge">
<title>Node25&#45;&gt;Node6</title>
<path fill="none" stroke="midnightblue" d="M686.58,-307.95C759.22,-293.97 895.32,-261.31 995,-199 1015.31,-186.31 1033.76,-165.7 1045.37,-151.09"/>
<polygon fill="midnightblue" stroke="midnightblue" points="1048.35,-152.96 1051.67,-142.9 1042.8,-148.69 1048.35,-152.96"/>
</g>
<!-- Node25&#45;&gt;Node7 -->
<g id="edge46" class="edge">
<title>Node25&#45;&gt;Node7</title>
<path fill="none" stroke="midnightblue" d="M646.31,-307.8C656.82,-298.43 672.98,-282.62 683,-266 705.47,-228.72 719.04,-178.87 725.14,-152.38"/>
<polygon fill="midnightblue" stroke="midnightblue" points="728.57,-153.07 727.31,-142.56 721.74,-151.57 728.57,-153.07"/>
</g>
<!-- Node25&#45;&gt;Node9 -->
<g id="edge44" class="edge">
<title>Node25&#45;&gt;Node9</title>
<path fill="none" stroke="midnightblue" d="M624.45,-307.81C596.16,-286.5 523.11,-231.5 487.76,-204.88"/>
<polygon fill="midnightblue" stroke="midnightblue" points="489.72,-201.97 479.63,-198.76 485.51,-207.57 489.72,-201.97"/>
</g>
<!-- Node25&#45;&gt;Node10 -->
<g id="edge48" class="edge">
<title>Node25&#45;&gt;Node10</title>
<path fill="none" stroke="midnightblue" d="M706.24,-317.01C835.38,-316.83 1104.68,-310.88 1185,-266 1208.22,-253.03 1224.8,-226.24 1233.9,-208.2"/>
<polygon fill="midnightblue" stroke="midnightblue" points="1237.15,-209.51 1238.28,-198.98 1230.82,-206.51 1237.15,-209.51"/>
</g>
<!-- Node25&#45;&gt;Node13 -->
<g id="edge41" class="edge">
<title>Node25&#45;&gt;Node13</title>
<path fill="none" stroke="midnightblue" d="M609.44,-307.87C578.78,-297.9 527.59,-281.27 488.75,-268.64"/>
<polygon fill="midnightblue" stroke="midnightblue" points="489.76,-265.29 479.16,-265.53 487.59,-271.95 489.76,-265.29"/>
</g>
<!-- Node25&#45;&gt;Node14 -->
<g id="edge38" class="edge">
<title>Node25&#45;&gt;Node14</title>
<path fill="none" stroke="midnightblue" d="M633.04,-307.81C626.11,-287.4 608.67,-236.1 599.26,-208.41"/>
<polygon fill="midnightblue" stroke="midnightblue" points="602.51,-207.1 595.98,-198.76 595.88,-209.35 602.51,-207.1"/>
</g>
<!-- Node25&#45;&gt;Node16 -->
<g id="edge42" class="edge">
<title>Node25&#45;&gt;Node16</title>
<path fill="none" stroke="midnightblue" d="M648.13,-307.96C662.04,-298.09 685.45,-281.25 705,-266 757.53,-225.03 817.5,-174.06 846.49,-149.14"/>
<polygon fill="midnightblue" stroke="midnightblue" points="848.84,-151.73 854.13,-142.56 844.27,-146.43 848.84,-151.73"/>
</g>
<!-- Node25&#45;&gt;Node20 -->
<g id="edge45" class="edge">
<title>Node25&#45;&gt;Node20</title>
<path fill="none" stroke="midnightblue" d="M565.81,-308.39C547.33,-306.28 527.42,-304.03 509,-302 358.84,-285.43 311.54,-321.42 171,-266 136.86,-252.54 104.22,-224.23 85.69,-206.21"/>
<polygon fill="midnightblue" stroke="midnightblue" points="87.98,-203.56 78.43,-198.98 83.04,-208.52 87.98,-203.56"/>
</g>
<!-- Node26 -->
<g id="node26" class="node">
<title>Node26</title>
<g id="a_node26"><a xlink:href="Operator_8h.html" target="_top" xlink:title=" ">
<polygon fill="white" stroke="black" points="180,-241 180,-260 344,-260 344,-241 180,-241"/>
<text text-anchor="middle" x="262" y="-248" font-family="Helvetica,sans-Serif" font-size="10.00">boomerang/ssl/exp/Operator.h</text>
</a>
</g>
</g>
<!-- Node25&#45;&gt;Node26 -->
<g id="edge39" class="edge">
<title>Node25&#45;&gt;Node26</title>
<path fill="none" stroke="midnightblue" d="M586.72,-307.94C518.24,-296.03 394.46,-274.52 321.1,-261.77"/>
<polygon fill="midnightblue" stroke="midnightblue" points="321.54,-258.3 311.09,-260.03 320.34,-265.19 321.54,-258.3"/>
</g>
<!-- Node27 -->
<g id="node27" class="node">
<title>Node27</title>
<g id="a_node27"><a xlink:title=" ">
<polygon fill="white" stroke="#bfbfbf" points="642,-241 642,-260 674,-260 674,-241 642,-241"/>
<text text-anchor="middle" x="658" y="-248" font-family="Helvetica,sans-Serif" font-size="10.00">set</text>
</a>
</g>
</g>
<!-- Node25&#45;&gt;Node27 -->
<g id="edge47" class="edge">
<title>Node25&#45;&gt;Node27</title>
<path fill="none" stroke="midnightblue" d="M638.97,-307.73C642.23,-298.09 647.58,-282.3 651.77,-269.91"/>
<polygon fill="midnightblue" stroke="midnightblue" points="655.19,-270.72 655.08,-260.13 648.56,-268.48 655.19,-270.72"/>
</g>
<!-- Node26&#45;&gt;Node4 -->
<g id="edge40" class="edge">
<title>Node26&#45;&gt;Node4</title>
<path fill="none" stroke="midnightblue" d="M268.56,-240.91C280.67,-225.71 308.14,-194.28 339,-179 393.85,-151.84 782.92,-103.55 960.28,-82.63"/>
<polygon fill="midnightblue" stroke="midnightblue" points="960.84,-86.09 970.36,-81.44 960.02,-79.14 960.84,-86.09"/>
</g>
<!-- Node28&#45;&gt;Node29 -->
<g id="edge50" class="edge">
<title>Node28&#45;&gt;Node29</title>
<path fill="none" stroke="midnightblue" d="M374.06,-436.48C335.34,-426.41 283,-412.8 242.13,-402.17"/>
<polygon fill="midnightblue" stroke="midnightblue" points="242.83,-398.74 232.27,-399.61 241.07,-405.51 242.83,-398.74"/>
</g>
<!-- Node30 -->
<g id="node30" class="node">
<title>Node30</title>
<g id="a_node30"><a xlink:href="TypingStatement_8h.html" target="_top" xlink:title=" ">
<polygon fill="white" stroke="black" points="163.5,-302.5 163.5,-332.5 310.5,-332.5 310.5,-302.5 163.5,-302.5"/>
<text text-anchor="start" x="171.5" y="-320.5" font-family="Helvetica,sans-Serif" font-size="10.00">boomerang/ssl/statements</text>
<text text-anchor="middle" x="237" y="-309.5" font-family="Helvetica,sans-Serif" font-size="10.00">/TypingStatement.h</text>
</a>
</g>
</g>
<!-- Node29&#45;&gt;Node30 -->
<g id="edge51" class="edge">
<title>Node29&#45;&gt;Node30</title>
<path fill="none" stroke="midnightblue" d="M190.8,-369.4C198.53,-360.88 208.55,-349.85 217.27,-340.23"/>
<polygon fill="midnightblue" stroke="midnightblue" points="220.09,-342.33 224.22,-332.58 214.91,-337.63 220.09,-342.33"/>
</g>
<!-- Node30&#45;&gt;Node13 -->
<g id="edge52" class="edge">
<title>Node30&#45;&gt;Node13</title>
<path fill="none" stroke="midnightblue" d="M280.18,-302.4C310.43,-292.52 351.03,-279.25 383.21,-268.74"/>
<polygon fill="midnightblue" stroke="midnightblue" points="384.49,-272.01 392.9,-265.58 382.31,-265.35 384.49,-272.01"/>
</g>
<!-- Node32&#45;&gt;Node4 -->
<g id="edge59" class="edge">
<title>Node32&#45;&gt;Node4</title>
<path fill="none" stroke="midnightblue" d="M1325.47,-235.08C1313.24,-203.54 1284.29,-130.61 1275,-123 1253.61,-105.47 1190.13,-92.25 1135.71,-83.73"/>
<polygon fill="midnightblue" stroke="midnightblue" points="1136.08,-80.25 1125.67,-82.2 1135.03,-87.17 1136.08,-80.25"/>
</g>
<!-- Node32&#45;&gt;Node10 -->
<g id="edge72" class="edge">
<title>Node32&#45;&gt;Node10</title>
<path fill="none" stroke="midnightblue" d="M1309.91,-235.4C1295.91,-226.04 1277.59,-213.79 1263.51,-204.38"/>
<polygon fill="midnightblue" stroke="midnightblue" points="1265.21,-201.31 1254.95,-198.66 1261.32,-207.13 1265.21,-201.31"/>
</g>
<!-- Node32&#45;&gt;Node14 -->
<g id="edge67" class="edge">
<title>Node32&#45;&gt;Node14</title>
<path fill="none" stroke="midnightblue" d="M1269.94,-243.12C1243.79,-240.47 1212.91,-237.45 1185,-235 1008.08,-219.49 801.14,-204.48 684.73,-196.31"/>
<polygon fill="midnightblue" stroke="midnightblue" points="684.66,-192.8 674.44,-195.59 684.18,-199.78 684.66,-192.8"/>
</g>
<!-- Node32&#45;&gt;Node15 -->
<g id="edge68" class="edge">
<title>Node32&#45;&gt;Node15</title>
<path fill="none" stroke="midnightblue" d="M1269.62,-240.72C1193.54,-229.84 1064.22,-211.34 984.55,-199.95"/>
<polygon fill="midnightblue" stroke="midnightblue" points="985,-196.48 974.61,-198.53 984.01,-203.41 985,-196.48"/>
</g>
<!-- Node32&#45;&gt;Node17 -->
<g id="edge69" class="edge">
<title>Node32&#45;&gt;Node17</title>
<path fill="none" stroke="midnightblue" d="M1392.14,-246.9C1463.72,-242.43 1575.85,-230.47 1602,-199 1654.28,-136.08 1520.65,-99.32 1435.44,-82.89"/>
<polygon fill="midnightblue" stroke="midnightblue" points="1436.03,-79.44 1425.56,-81.03 1434.74,-86.32 1436.03,-79.44"/>
</g>
<!-- Node33 -->
<g id="node33" class="node">
<title>Node33</title>
<g id="a_node33"><a xlink:href="Register_8h.html" target="_top" xlink:title=" ">
<polygon fill="white" stroke="black" points="1451.5,-179.5 1451.5,-198.5 1592.5,-198.5 1592.5,-179.5 1451.5,-179.5"/>
<text text-anchor="middle" x="1522" y="-186.5" font-family="Helvetica,sans-Serif" font-size="10.00">boomerang/ssl/Register.h</text>
</a>
</g>
</g>
<!-- Node32&#45;&gt;Node33 -->
<g id="edge60" class="edge">
<title>Node32&#45;&gt;Node33</title>
<path fill="none" stroke="midnightblue" d="M1376.26,-235.4C1409.41,-225.07 1453.85,-211.23 1484.9,-201.56"/>
<polygon fill="midnightblue" stroke="midnightblue" points="1485.98,-204.89 1494.49,-198.57 1483.9,-198.2 1485.98,-204.89"/>
</g>
<!-- Node35 -->
<g id="node35" class="node">
<title>Node35</title>
<g id="a_node35"><a xlink:title=" ">
<polygon fill="white" stroke="#bfbfbf" points="1322,-179.5 1322,-198.5 1364,-198.5 1364,-179.5 1322,-179.5"/>
<text text-anchor="middle" x="1343" y="-186.5" font-family="Helvetica,sans-Serif" font-size="10.00">array</text>
</a>
</g>
</g>
<!-- Node32&#45;&gt;Node35 -->
<g id="edge70" class="edge">
<title>Node32&#45;&gt;Node35</title>
<path fill="none" stroke="midnightblue" d="M1333.84,-235.4C1335.46,-227.38 1337.51,-217.23 1339.25,-208.57"/>
<polygon fill="midnightblue" stroke="midnightblue" points="1342.71,-209.15 1341.25,-198.66 1335.85,-207.77 1342.71,-209.15"/>
</g>
<!-- Node36 -->
<g id="node36" class="node">
<title>Node36</title>
<g id="a_node36"><a xlink:title=" ">
<polygon fill="white" stroke="#bfbfbf" points="1382.5,-179.5 1382.5,-198.5 1433.5,-198.5 1433.5,-179.5 1382.5,-179.5"/>
<text text-anchor="middle" x="1408" y="-186.5" font-family="Helvetica,sans-Serif" font-size="10.00">variant</text>
</a>
</g>
</g>
<!-- Node32&#45;&gt;Node36 -->
<g id="edge71" class="edge">
<title>Node32&#45;&gt;Node36</title>
<path fill="none" stroke="midnightblue" d="M1349.25,-235.4C1361.13,-226.22 1376.61,-214.26 1388.69,-204.92"/>
<polygon fill="midnightblue" stroke="midnightblue" points="1391.02,-207.54 1396.8,-198.66 1386.74,-202 1391.02,-207.54"/>
</g>
<!-- Node33&#45;&gt;Node4 -->
<g id="edge61" class="edge">
<title>Node33&#45;&gt;Node4</title>
<path fill="none" stroke="midnightblue" d="M1496.87,-179.44C1457.12,-166.12 1377.15,-140.17 1308,-123 1251,-108.85 1186.15,-96.24 1135.47,-87.17"/>
<polygon fill="midnightblue" stroke="midnightblue" points="1135.99,-83.71 1125.53,-85.4 1134.77,-90.6 1135.99,-83.71"/>
</g>
<!-- Node33&#45;&gt;Node6 -->
<g id="edge63" class="edge">
<title>Node33&#45;&gt;Node6</title>
<path fill="none" stroke="midnightblue" d="M1451.28,-179.77C1351.21,-168.12 1171.91,-147.26 1094.85,-138.29"/>
<polygon fill="midnightblue" stroke="midnightblue" points="1095.01,-134.78 1084.67,-137.1 1094.2,-141.74 1095.01,-134.78"/>
</g>
<!-- Node33&#45;&gt;Node7 -->
<g id="edge64" class="edge">
<title>Node33&#45;&gt;Node7</title>
<path fill="none" stroke="midnightblue" d="M1451.39,-179.75C1448.55,-179.48 1445.75,-179.23 1443,-179 1149.82,-154.34 1074.39,-175.68 782,-143 777.5,-142.5 772.79,-141.86 768.13,-141.16"/>
<polygon fill="midnightblue" stroke="midnightblue" points="768.5,-137.67 758.07,-139.55 767.4,-144.59 768.5,-137.67"/>
</g>
<!-- Node33&#45;&gt;Node8 -->
<g id="edge66" class="edge">
<title>Node33&#45;&gt;Node8</title>
<path fill="none" stroke="midnightblue" d="M1475.89,-179.44C1420.94,-169.25 1329.75,-152.32 1275.51,-142.26"/>
<polygon fill="midnightblue" stroke="midnightblue" points="1275.97,-138.79 1265.5,-140.4 1274.7,-145.67 1275.97,-138.79"/>
</g>
<!-- Node33&#45;&gt;Node17 -->
<g id="edge62" class="edge">
<title>Node33&#45;&gt;Node17</title>
<path fill="none" stroke="midnightblue" d="M1521.82,-179.24C1521.06,-165.52 1517.66,-138.9 1503,-123 1484.72,-103.17 1457.8,-91.06 1433.04,-83.7"/>
<polygon fill="midnightblue" stroke="midnightblue" points="1433.89,-80.3 1423.31,-81.01 1432.02,-87.05 1433.89,-80.3"/>
</g>
<!-- Node34 -->
<g id="node34" class="node">
<title>Node34</title>
<g id="a_node34"><a xlink:title=" ">
<polygon fill="white" stroke="#bfbfbf" points="1450,-123.5 1450,-142.5 1494,-142.5 1494,-123.5 1450,-123.5"/>
<text text-anchor="middle" x="1472" y="-130.5" font-family="Helvetica,sans-Serif" font-size="10.00">string</text>
</a>
</g>
</g>
<!-- Node33&#45;&gt;Node34 -->
<g id="edge65" class="edge">
<title>Node33&#45;&gt;Node34</title>
<path fill="none" stroke="midnightblue" d="M1513.74,-179.08C1506.54,-171.3 1495.89,-159.8 1487.15,-150.37"/>
<polygon fill="midnightblue" stroke="midnightblue" points="1489.47,-147.71 1480.1,-142.75 1484.33,-152.47 1489.47,-147.71"/>
</g>
<!-- Node37&#45;&gt;Node13 -->
<g id="edge79" class="edge">
<title>Node37&#45;&gt;Node13</title>
<path fill="none" stroke="midnightblue" d="M152.11,-441.84C132.08,-434.31 107.2,-421.19 95,-400 69.63,-355.94 109.7,-326.95 154,-302 156.21,-300.76 270.1,-280.59 352.45,-266.13"/>
<polygon fill="midnightblue" stroke="midnightblue" points="353.08,-269.57 362.32,-264.39 351.87,-262.68 353.08,-269.57"/>
</g>
<!-- Node38 -->
<g id="node38" class="node">
<title>Node38</title>
<g id="a_node38"><a xlink:href="Unary_8h.html" target="_top" xlink:title=" ">
<polygon fill="white" stroke="black" points="269.5,-375 269.5,-394 418.5,-394 418.5,-375 269.5,-375"/>
<text text-anchor="middle" x="344" y="-382" font-family="Helvetica,sans-Serif" font-size="10.00">boomerang/ssl/exp/Unary.h</text>
</a>
</g>
</g>
<!-- Node37&#45;&gt;Node38 -->
<g id="edge77" class="edge">
<title>Node37&#45;&gt;Node38</title>
<path fill="none" stroke="midnightblue" d="M203.51,-441.87C231.67,-430.57 281.2,-410.7 313.3,-397.82"/>
<polygon fill="midnightblue" stroke="midnightblue" points="314.68,-401.04 322.66,-394.06 312.07,-394.54 314.68,-401.04"/>
</g>
<!-- Node38&#45;&gt;Node25 -->
<g id="edge78" class="edge">
<title>Node38&#45;&gt;Node25</title>
<path fill="none" stroke="midnightblue" d="M382.47,-374.94C435.21,-363.2 529.96,-342.11 587.5,-329.3"/>
<polygon fill="midnightblue" stroke="midnightblue" points="588.44,-332.67 597.44,-327.08 586.92,-325.84 588.44,-332.67"/>
</g>
<!-- Node40 -->
<g id="node40" class="node">
<title>Node40</title>
<g id="a_node40"><a xlink:title=" ">
<polygon fill="white" stroke="#bfbfbf" points="1308.5,-626.5 1308.5,-645.5 1361.5,-645.5 1361.5,-626.5 1308.5,-626.5"/>
<text text-anchor="middle" x="1335" y="-633.5" font-family="Helvetica,sans-Serif" font-size="10.00">iterator</text>
</a>
</g>
</g>
<!-- Node39&#45;&gt;Node40 -->
<g id="edge82" class="edge">
<title>Node39&#45;&gt;Node40</title>
<path fill="none" stroke="midnightblue" d="M1239.06,-682.44C1257.57,-673.68 1286.58,-659.94 1307.86,-649.86"/>
<polygon fill="midnightblue" stroke="midnightblue" points="1309.48,-652.96 1317.02,-645.52 1306.49,-646.63 1309.48,-652.96"/>
</g>
</g>
</svg>
