<?xml version="1.0" encoding="UTF-8" standalone="no"?>
<!DOCTYPE svg PUBLIC "-//W3C//DTD SVG 1.1//EN"
 "http://www.w3.org/Graphics/SVG/1.1/DTD/svg11.dtd">
<!-- Generated by graphviz version 2.43.0 (0)
 -->
<!-- Title: Plugin.h Pages: 1 -->
<!--zoomable 196 -->
<svg id="main" version="1.1" xmlns="http://www.w3.org/2000/svg" xmlns:xlink="http://www.w3.org/1999/xlink" xml:space="preserve" onload="init(evt)">
<style type="text/css"><![CDATA[
.edge:hover path { stroke: red; }
.edge:hover polygon { stroke: red; fill: red; }
]]></style>
<script type="text/javascript"><![CDATA[
var edges = document.getElementsByTagName('g');
if (edges && edges.length) {
  for (var i=0;i<edges.length;i++) {
    if (edges[i].id.substr(0,4)=='edge') {
      edges[i].setAttribute('class','edge');
    }
  }
}
]]></script>
        <defs>
                <circle id="rim" cx="0" cy="0" r="7"/>
                <circle id="rim2" cx="0" cy="0" r="3.5"/>
                <g id="zoomPlus">
                        <use xlink:href="#rim" fill="#404040">
                                <set attributeName="fill" to="#808080" begin="zoomplus.mouseover" end="zoomplus.mouseout"/>
                        </use>
                        <path d="M-4,0h8M0,-4v8" fill="none" stroke="white" stroke-width="1.5" pointer-events="none"/>
                </g>
                <g id="zoomMin">
                        <use xlink:href="#rim" fill="#404040">
                                <set attributeName="fill" to="#808080" begin="zoomminus.mouseover" end="zoomminus.mouseout"/>
                        </use>
                        <path d="M-4,0h8" fill="none" stroke="white" stroke-width="1.5" pointer-events="none"/>
                </g>
                <g id="dirArrow">
                        <path fill="none" stroke="white" stroke-width="1.5" d="M0,-3.0v7 M-2.5,-0.5L0,-3.0L2.5,-0.5"/>
                </g>
               <g id="resetDef">
                       <use xlink:href="#rim2" fill="#404040">
                               <set attributeName="fill" to="#808080" begin="reset.mouseover" end="reset.mouseout"/>
                       </use>
               </g>
        </defs>

<script type="text/javascript">
var viewWidth = 5172;
var viewHeight = 196;
var sectionId = 'dynsection-1';
</script>
<script xlink:href="svgpan.js"/>
<svg id="graph" class="graph">
<g id="viewport">
<title>Plugin.h</title>
<polygon fill="white" stroke="transparent" points="-4,4 -4,-192 5167.5,-192 5167.5,4 -4,4"/>
<!-- Node1 -->
<g id="node1" class="node">
<title>Node1</title>
<g id="a_node1"><a xlink:title=" ">
<polygon fill="#bfbfbf" stroke="black" points="3003.5,-168.5 3003.5,-187.5 3059.5,-187.5 3059.5,-168.5 3003.5,-168.5"/>
<text text-anchor="middle" x="3031.5" y="-175.5" font-family="Helvetica,sans-Serif" font-size="10.00">Plugin.h</text>
</a>
</g>
</g>
<!-- Node2 -->
<g id="node2" class="node">
<title>Node2</title>
<g id="a_node2"><a xlink:href="Plugin_8cpp.html" target="_top" xlink:title=" ">
<polygon fill="white" stroke="black" points="2411,-112.5 2411,-131.5 2478,-131.5 2478,-112.5 2411,-112.5"/>
<text text-anchor="middle" x="2444.5" y="-119.5" font-family="Helvetica,sans-Serif" font-size="10.00">Plugin.cpp</text>
</a>
</g>
</g>
<!-- Node1&#45;&gt;Node2 -->
<g id="edge1" class="edge">
<title>Node1&#45;&gt;Node2</title>
<path fill="none" stroke="midnightblue" d="M2993.16,-175.46C2904.03,-171.53 2676.07,-159.43 2487.5,-132 2484.48,-131.56 2481.36,-131.04 2478.23,-130.47"/>
<polygon fill="midnightblue" stroke="midnightblue" points="2993.19,-178.97 3003.33,-175.9 2993.49,-171.97 2993.19,-178.97"/>
</g>
<!-- Node3 -->
<g id="node3" class="node">
<title>Node3</title>
<g id="a_node3"><a xlink:href="PluginManager_8h.html" target="_top" xlink:title=" ">
<polygon fill="white" stroke="black" points="2496.5,-112.5 2496.5,-131.5 2594.5,-131.5 2594.5,-112.5 2496.5,-112.5"/>
<text text-anchor="middle" x="2545.5" y="-119.5" font-family="Helvetica,sans-Serif" font-size="10.00">PluginManager.h</text>
</a>
</g>
</g>
<!-- Node1&#45;&gt;Node3 -->
<g id="edge2" class="edge">
<title>Node1&#45;&gt;Node3</title>
<path fill="none" stroke="midnightblue" d="M2993.24,-173.39C2918.97,-166.29 2750.12,-149.64 2608.5,-132 2604,-131.44 2599.33,-130.83 2594.66,-130.2"/>
<polygon fill="midnightblue" stroke="midnightblue" points="2993.21,-176.91 3003.49,-174.37 2993.87,-169.94 2993.21,-176.91"/>
</g>
<!-- Node51 -->
<g id="node42" class="node">
<title>Node51</title>
<g id="a_node42"><a xlink:href="CapstoneX86Decoder_8cpp.html" target="_top" xlink:title=" ">
<polygon fill="white" stroke="black" points="5021.5,-0.5 5021.5,-19.5 5163.5,-19.5 5163.5,-0.5 5021.5,-0.5"/>
<text text-anchor="middle" x="5092.5" y="-7.5" font-family="Helvetica,sans-Serif" font-size="10.00">CapstoneX86Decoder.cpp</text>
</a>
</g>
</g>
<!-- Node1&#45;&gt;Node51 -->
<g id="edge42" class="edge">
<title>Node1&#45;&gt;Node51</title>
<path fill="none" stroke="midnightblue" d="M2993.05,-176.48C2885.32,-174.38 2591.59,-163.88 2641.5,-112 2732.89,-17 4881.05,-29.93 5012.5,-20 5015.43,-19.78 5018.41,-19.53 5021.43,-19.27"/>
<polygon fill="midnightblue" stroke="midnightblue" points="2993.11,-179.98 3003.17,-176.67 2993.24,-172.99 2993.11,-179.98"/>
</g>
<!-- Node58 -->
<g id="node43" class="node">
<title>Node58</title>
<g id="a_node43"><a xlink:href="CapstonePPCDecoder_8cpp.html" target="_top" xlink:title=" ">
<polygon fill="white" stroke="black" points="2650.5,-112.5 2650.5,-131.5 2792.5,-131.5 2792.5,-112.5 2650.5,-112.5"/>
<text text-anchor="middle" x="2721.5" y="-119.5" font-family="Helvetica,sans-Serif" font-size="10.00">CapstonePPCDecoder.cpp</text>
</a>
</g>
</g>
<!-- Node1&#45;&gt;Node58 -->
<g id="edge43" class="edge">
<title>Node1&#45;&gt;Node58</title>
<path fill="none" stroke="midnightblue" d="M2993.55,-170.39C2937.42,-160.61 2832.25,-142.29 2770.4,-131.52"/>
<polygon fill="midnightblue" stroke="midnightblue" points="2992.99,-173.84 3003.44,-172.11 2994.19,-166.95 2992.99,-173.84"/>
</g>
<!-- Node59 -->
<g id="node44" class="node">
<title>Node59</title>
<g id="a_node44"><a xlink:href="DOS4GWBinaryLoader_8cpp.html" target="_top" xlink:title=" ">
<polygon fill="white" stroke="black" points="2810.5,-112.5 2810.5,-131.5 2956.5,-131.5 2956.5,-112.5 2810.5,-112.5"/>
<text text-anchor="middle" x="2883.5" y="-119.5" font-family="Helvetica,sans-Serif" font-size="10.00">DOS4GWBinaryLoader.cpp</text>
</a>
</g>
</g>
<!-- Node1&#45;&gt;Node59 -->
<g id="edge44" class="edge">
<title>Node1&#45;&gt;Node59</title>
<path fill="none" stroke="midnightblue" d="M2998.35,-164.91C2970.53,-154.75 2931.48,-140.51 2906.84,-131.52"/>
<polygon fill="midnightblue" stroke="midnightblue" points="2997.46,-168.3 3008.05,-168.44 2999.85,-161.73 2997.46,-168.3"/>
</g>
<!-- Node60 -->
<g id="node45" class="node">
<title>Node60</title>
<g id="a_node45"><a xlink:href="ElfBinaryLoader_8cpp.html" target="_top" xlink:title=" ">
<polygon fill="white" stroke="black" points="2974.5,-112.5 2974.5,-131.5 3088.5,-131.5 3088.5,-112.5 2974.5,-112.5"/>
<text text-anchor="middle" x="3031.5" y="-119.5" font-family="Helvetica,sans-Serif" font-size="10.00">ElfBinaryLoader.cpp</text>
</a>
</g>
</g>
<!-- Node1&#45;&gt;Node60 -->
<g id="edge45" class="edge">
<title>Node1&#45;&gt;Node60</title>
<path fill="none" stroke="midnightblue" d="M3031.5,-157.8C3031.5,-148.91 3031.5,-138.78 3031.5,-131.75"/>
<polygon fill="midnightblue" stroke="midnightblue" points="3028,-158.08 3031.5,-168.08 3035,-158.08 3028,-158.08"/>
</g>
<!-- Node61 -->
<g id="node46" class="node">
<title>Node61</title>
<g id="a_node46"><a xlink:href="ExeBinaryLoader_8cpp.html" target="_top" xlink:title=" ">
<polygon fill="white" stroke="black" points="3107,-112.5 3107,-131.5 3226,-131.5 3226,-112.5 3107,-112.5"/>
<text text-anchor="middle" x="3166.5" y="-119.5" font-family="Helvetica,sans-Serif" font-size="10.00">ExeBinaryLoader.cpp</text>
</a>
</g>
</g>
<!-- Node1&#45;&gt;Node61 -->
<g id="edge46" class="edge">
<title>Node1&#45;&gt;Node61</title>
<path fill="none" stroke="midnightblue" d="M3062.41,-164.64C3087.74,-154.5 3122.93,-140.43 3145.21,-131.52"/>
<polygon fill="midnightblue" stroke="midnightblue" points="3060.88,-161.48 3052.89,-168.44 3063.48,-167.98 3060.88,-161.48"/>
</g>
<!-- Node62 -->
<g id="node47" class="node">
<title>Node62</title>
<g id="a_node47"><a xlink:href="MachOBinaryLoader_8cpp.html" target="_top" xlink:title=" ">
<polygon fill="white" stroke="black" points="3244,-112.5 3244,-131.5 3379,-131.5 3379,-112.5 3244,-112.5"/>
<text text-anchor="middle" x="3311.5" y="-119.5" font-family="Helvetica,sans-Serif" font-size="10.00">MachOBinaryLoader.cpp</text>
</a>
</g>
</g>
<!-- Node1&#45;&gt;Node62 -->
<g id="edge47" class="edge">
<title>Node1&#45;&gt;Node62</title>
<path fill="none" stroke="midnightblue" d="M3069.69,-169.63C3121.25,-159.69 3212.94,-142.01 3267.38,-131.51"/>
<polygon fill="midnightblue" stroke="midnightblue" points="3068.79,-166.24 3059.63,-171.58 3070.11,-173.12 3068.79,-166.24"/>
</g>
<!-- Node63 -->
<g id="node48" class="node">
<title>Node63</title>
<g id="a_node48"><a xlink:href="Win32BinaryLoader_8cpp.html" target="_top" xlink:title=" ">
<polygon fill="white" stroke="black" points="3397.5,-112.5 3397.5,-131.5 3529.5,-131.5 3529.5,-112.5 3397.5,-112.5"/>
<text text-anchor="middle" x="3463.5" y="-119.5" font-family="Helvetica,sans-Serif" font-size="10.00">Win32BinaryLoader.cpp</text>
</a>
</g>
</g>
<!-- Node1&#45;&gt;Node63 -->
<g id="edge48" class="edge">
<title>Node1&#45;&gt;Node63</title>
<path fill="none" stroke="midnightblue" d="M3069.71,-172.22C3143.33,-163.02 3305.63,-142.73 3397.22,-131.28"/>
<polygon fill="midnightblue" stroke="midnightblue" points="3069,-168.79 3059.51,-173.5 3069.87,-175.73 3069,-168.79"/>
</g>
<!-- Node64 -->
<g id="node49" class="node">
<title>Node64</title>
<g id="a_node49"><a xlink:href="ST20BinaryLoader_8cpp.html" target="_top" xlink:title=" ">
<polygon fill="white" stroke="black" points="3548,-112.5 3548,-131.5 3673,-131.5 3673,-112.5 3548,-112.5"/>
<text text-anchor="middle" x="3610.5" y="-119.5" font-family="Helvetica,sans-Serif" font-size="10.00">ST20BinaryLoader.cpp</text>
</a>
</g>
</g>
<!-- Node1&#45;&gt;Node64 -->
<g id="edge49" class="edge">
<title>Node1&#45;&gt;Node64</title>
<path fill="none" stroke="midnightblue" d="M3069.72,-174.08C3154.3,-167.51 3363.65,-150.68 3538.5,-132 3541.51,-131.68 3544.58,-131.34 3547.69,-130.99"/>
<polygon fill="midnightblue" stroke="midnightblue" points="3069.27,-170.6 3059.57,-174.86 3069.81,-177.58 3069.27,-170.6"/>
</g>
<!-- Node65 -->
<g id="node50" class="node">
<title>Node65</title>
<g id="a_node50"><a xlink:href="CSymbolProvider_8cpp.html" target="_top" xlink:title=" ">
<polygon fill="white" stroke="black" points="3691,-112.5 3691,-131.5 3812,-131.5 3812,-112.5 3691,-112.5"/>
<text text-anchor="middle" x="3751.5" y="-119.5" font-family="Helvetica,sans-Serif" font-size="10.00">CSymbolProvider.cpp</text>
</a>
</g>
</g>
<!-- Node1&#45;&gt;Node65 -->
<g id="edge50" class="edge">
<title>Node1&#45;&gt;Node65</title>
<path fill="none" stroke="midnightblue" d="M3069.78,-175.17C3170.35,-170.18 3450.32,-155.15 3682.5,-132 3685.26,-131.72 3688.09,-131.43 3690.94,-131.11"/>
<polygon fill="midnightblue" stroke="midnightblue" points="3069.6,-171.67 3059.79,-175.66 3069.95,-178.66 3069.6,-171.67"/>
</g>
<!-- Node4 -->
<g id="node4" class="node">
<title>Node4</title>
<g id="a_node4"><a xlink:href="PluginManager_8cpp.html" target="_top" xlink:title=" ">
<polygon fill="white" stroke="black" points="2387.5,-56.5 2387.5,-75.5 2497.5,-75.5 2497.5,-56.5 2387.5,-56.5"/>
<text text-anchor="middle" x="2442.5" y="-63.5" font-family="Helvetica,sans-Serif" font-size="10.00">PluginManager.cpp</text>
</a>
</g>
</g>
<!-- Node3&#45;&gt;Node4 -->
<g id="edge3" class="edge">
<title>Node3&#45;&gt;Node4</title>
<path fill="none" stroke="midnightblue" d="M2519.92,-107.59C2500.88,-97.61 2475.44,-84.27 2459.01,-75.65"/>
<polygon fill="midnightblue" stroke="midnightblue" points="2518.47,-110.78 2528.95,-112.32 2521.72,-104.58 2518.47,-110.78"/>
</g>
<!-- Node5 -->
<g id="node5" class="node">
<title>Node5</title>
<g id="a_node5"><a xlink:href="Project_8h.html" target="_top" xlink:title=" ">
<polygon fill="white" stroke="red" points="2516,-56.5 2516,-75.5 2575,-75.5 2575,-56.5 2516,-56.5"/>
<text text-anchor="middle" x="2545.5" y="-63.5" font-family="Helvetica,sans-Serif" font-size="10.00">Project.h</text>
</a>
</g>
</g>
<!-- Node3&#45;&gt;Node5 -->
<g id="edge4" class="edge">
<title>Node3&#45;&gt;Node5</title>
<path fill="none" stroke="midnightblue" d="M2545.5,-101.8C2545.5,-92.91 2545.5,-82.78 2545.5,-75.75"/>
<polygon fill="midnightblue" stroke="midnightblue" points="2542,-102.08 2545.5,-112.08 2549,-102.08 2542,-102.08"/>
</g>
<!-- Node6 -->
<g id="node6" class="node">
<title>Node6</title>
<g id="a_node6"><a xlink:href="Project_8cpp.html" target="_top" xlink:title=" ">
<polygon fill="white" stroke="black" points="0,-0.5 0,-19.5 71,-19.5 71,-0.5 0,-0.5"/>
<text text-anchor="middle" x="35.5" y="-7.5" font-family="Helvetica,sans-Serif" font-size="10.00">Project.cpp</text>
</a>
</g>
</g>
<!-- Node5&#45;&gt;Node6 -->
<g id="edge5" class="edge">
<title>Node5&#45;&gt;Node6</title>
<path fill="none" stroke="midnightblue" d="M2505.74,-56.26C1954.53,7.95 612.46,-77.94 79.5,-20 76.86,-19.71 74.15,-19.34 71.43,-18.92"/>
<polygon fill="midnightblue" stroke="midnightblue" points="2505.46,-59.76 2515.8,-57.46 2506.29,-52.8 2505.46,-59.76"/>
</g>
<!-- Node7 -->
<g id="node7" class="node">
<title>Node7</title>
<g id="a_node7"><a xlink:href="DataFlow_8cpp.html" target="_top" xlink:title=" ">
<polygon fill="white" stroke="black" points="89,-0.5 89,-19.5 172,-19.5 172,-0.5 89,-0.5"/>
<text text-anchor="middle" x="130.5" y="-7.5" font-family="Helvetica,sans-Serif" font-size="10.00">DataFlow.cpp</text>
</a>
</g>
</g>
<!-- Node5&#45;&gt;Node7 -->
<g id="edge6" class="edge">
<title>Node5&#45;&gt;Node7</title>
<path fill="none" stroke="midnightblue" d="M2505.76,-56.27C1976.89,5.5 691.77,-69.64 180.5,-20 177.78,-19.74 174.98,-19.4 172.17,-19.02"/>
<polygon fill="midnightblue" stroke="midnightblue" points="2505.46,-59.75 2515.8,-57.47 2506.29,-52.8 2505.46,-59.75"/>
</g>
<!-- Node8 -->
<g id="node8" class="node">
<title>Node8</title>
<g id="a_node8"><a xlink:href="Module_8cpp.html" target="_top" xlink:title=" ">
<polygon fill="white" stroke="black" points="190,-0.5 190,-19.5 263,-19.5 263,-0.5 190,-0.5"/>
<text text-anchor="middle" x="226.5" y="-7.5" font-family="Helvetica,sans-Serif" font-size="10.00">Module.cpp</text>
</a>
</g>
</g>
<!-- Node5&#45;&gt;Node8 -->
<g id="edge7" class="edge">
<title>Node5&#45;&gt;Node8</title>
<path fill="none" stroke="midnightblue" d="M2505.78,-56.27C1997.24,3.16 763.04,-71.53 272.5,-20 269.42,-19.68 266.25,-19.25 263.07,-18.76"/>
<polygon fill="midnightblue" stroke="midnightblue" points="2505.46,-59.75 2515.8,-57.47 2506.29,-52.8 2505.46,-59.75"/>
</g>
<!-- Node9 -->
<g id="node9" class="node">
<title>Node9</title>
<g id="a_node9"><a xlink:href="Proc_8cpp.html" target="_top" xlink:title=" ">
<polygon fill="white" stroke="black" points="281.5,-0.5 281.5,-19.5 339.5,-19.5 339.5,-0.5 281.5,-0.5"/>
<text text-anchor="middle" x="310.5" y="-7.5" font-family="Helvetica,sans-Serif" font-size="10.00">Proc.cpp</text>
</a>
</g>
</g>
<!-- Node5&#45;&gt;Node9 -->
<g id="edge8" class="edge">
<title>Node5&#45;&gt;Node9</title>
<path fill="none" stroke="midnightblue" d="M2505.75,-56.27C2013.97,1.13 821.15,-79.21 348.5,-20 345.67,-19.65 342.75,-19.17 339.84,-18.61"/>
<polygon fill="midnightblue" stroke="midnightblue" points="2505.46,-59.76 2515.8,-57.47 2506.29,-52.81 2505.46,-59.76"/>
</g>
<!-- Node10 -->
<g id="node10" class="node">
<title>Node10</title>
<g id="a_node10"><a xlink:href="UserProc_8cpp.html" target="_top" xlink:title=" ">
<polygon fill="white" stroke="black" points="357.5,-0.5 357.5,-19.5 437.5,-19.5 437.5,-0.5 357.5,-0.5"/>
<text text-anchor="middle" x="397.5" y="-7.5" font-family="Helvetica,sans-Serif" font-size="10.00">UserProc.cpp</text>
</a>
</g>
</g>
<!-- Node5&#45;&gt;Node10 -->
<g id="edge9" class="edge">
<title>Node5&#45;&gt;Node10</title>
<path fill="none" stroke="midnightblue" d="M2505.85,-56.27C2035.81,-1.14 898.85,-65.19 446.5,-20 443.57,-19.71 440.56,-19.33 437.54,-18.91"/>
<polygon fill="midnightblue" stroke="midnightblue" points="2505.46,-59.75 2515.8,-57.47 2506.29,-52.8 2505.46,-59.75"/>
</g>
<!-- Node11 -->
<g id="node11" class="node">
<title>Node11</title>
<g id="a_node11"><a xlink:href="Prog_8cpp.html" target="_top" xlink:title=" ">
<polygon fill="white" stroke="black" points="456,-0.5 456,-19.5 515,-19.5 515,-0.5 456,-0.5"/>
<text text-anchor="middle" x="485.5" y="-7.5" font-family="Helvetica,sans-Serif" font-size="10.00">Prog.cpp</text>
</a>
</g>
</g>
<!-- Node5&#45;&gt;Node11 -->
<g id="edge10" class="edge">
<title>Node5&#45;&gt;Node11</title>
<path fill="none" stroke="midnightblue" d="M2505.55,-56.24C2052.32,-3.25 957.47,-74.69 523.5,-20 520.81,-19.66 518.03,-19.21 515.26,-18.69"/>
<polygon fill="midnightblue" stroke="midnightblue" points="2505.46,-59.75 2515.8,-57.47 2506.29,-52.81 2505.46,-59.75"/>
</g>
<!-- Node12 -->
<g id="node12" class="node">
<title>Node12</title>
<g id="a_node12"><a xlink:href="IndirectJumpAnalyzer_8cpp.html" target="_top" xlink:title=" ">
<polygon fill="white" stroke="black" points="533,-0.5 533,-19.5 674,-19.5 674,-0.5 533,-0.5"/>
<text text-anchor="middle" x="603.5" y="-7.5" font-family="Helvetica,sans-Serif" font-size="10.00">IndirectJumpAnalyzer.cpp</text>
</a>
</g>
</g>
<!-- Node5&#45;&gt;Node12 -->
<g id="edge11" class="edge">
<title>Node5&#45;&gt;Node12</title>
<path fill="none" stroke="midnightblue" d="M2505.74,-56.26C2087.81,-6.81 1083.75,-46.76 682.5,-20 679.75,-19.82 676.94,-19.61 674.11,-19.38"/>
<polygon fill="midnightblue" stroke="midnightblue" points="2505.45,-59.75 2515.8,-57.48 2506.3,-52.8 2505.45,-59.75"/>
</g>
<!-- Node13 -->
<g id="node13" class="node">
<title>Node13</title>
<g id="a_node13"><a xlink:href="InterferenceFinder_8cpp.html" target="_top" xlink:title=" ">
<polygon fill="white" stroke="black" points="692,-0.5 692,-19.5 817,-19.5 817,-0.5 692,-0.5"/>
<text text-anchor="middle" x="754.5" y="-7.5" font-family="Helvetica,sans-Serif" font-size="10.00">InterferenceFinder.cpp</text>
</a>
</g>
</g>
<!-- Node5&#45;&gt;Node13 -->
<g id="edge12" class="edge">
<title>Node5&#45;&gt;Node13</title>
<path fill="none" stroke="midnightblue" d="M2505.66,-56.25C2119.53,-10.43 1195.65,-46.96 826.5,-20 823.48,-19.78 820.4,-19.52 817.29,-19.24"/>
<polygon fill="midnightblue" stroke="midnightblue" points="2505.45,-59.75 2515.8,-57.48 2506.3,-52.8 2505.45,-59.75"/>
</g>
<!-- Node14 -->
<g id="node14" class="node">
<title>Node14</title>
<g id="a_node14"><a xlink:href="LivenessAnalyzer_8cpp.html" target="_top" xlink:title=" ">
<polygon fill="white" stroke="black" points="835.5,-0.5 835.5,-19.5 957.5,-19.5 957.5,-0.5 835.5,-0.5"/>
<text text-anchor="middle" x="896.5" y="-7.5" font-family="Helvetica,sans-Serif" font-size="10.00">LivenessAnalyzer.cpp</text>
</a>
</g>
</g>
<!-- Node5&#45;&gt;Node14 -->
<g id="edge13" class="edge">
<title>Node5&#45;&gt;Node14</title>
<path fill="none" stroke="midnightblue" d="M2505.75,-56.23C1825.47,28.43 1645.84,-71.47 966.5,-20 963.57,-19.78 960.57,-19.52 957.54,-19.23"/>
<polygon fill="midnightblue" stroke="midnightblue" points="2505.44,-59.72 2515.8,-57.49 2506.31,-52.77 2505.44,-59.72"/>
</g>
<!-- Node15 -->
<g id="node15" class="node">
<title>Node15</title>
<g id="a_node15"><a xlink:href="ProcDecompiler_8cpp.html" target="_top" xlink:title=" ">
<polygon fill="white" stroke="black" points="975.5,-0.5 975.5,-19.5 1089.5,-19.5 1089.5,-0.5 975.5,-0.5"/>
<text text-anchor="middle" x="1032.5" y="-7.5" font-family="Helvetica,sans-Serif" font-size="10.00">ProcDecompiler.cpp</text>
</a>
</g>
</g>
<!-- Node5&#45;&gt;Node15 -->
<g id="edge14" class="edge">
<title>Node5&#45;&gt;Node15</title>
<path fill="none" stroke="midnightblue" d="M2505.68,-56.22C1883.73,21.78 1719.1,-70.09 1098.5,-20 1095.62,-19.77 1092.67,-19.49 1089.7,-19.19"/>
<polygon fill="midnightblue" stroke="midnightblue" points="2505.44,-59.72 2515.8,-57.5 2506.32,-52.77 2505.44,-59.72"/>
</g>
<!-- Node16 -->
<g id="node16" class="node">
<title>Node16</title>
<g id="a_node16"><a xlink:href="ProgDecompiler_8cpp.html" target="_top" xlink:title=" ">
<polygon fill="white" stroke="black" points="1108,-0.5 1108,-19.5 1223,-19.5 1223,-0.5 1108,-0.5"/>
<text text-anchor="middle" x="1165.5" y="-7.5" font-family="Helvetica,sans-Serif" font-size="10.00">ProgDecompiler.cpp</text>
</a>
</g>
</g>
<!-- Node5&#45;&gt;Node16 -->
<g id="edge15" class="edge">
<title>Node5&#45;&gt;Node16</title>
<path fill="none" stroke="midnightblue" d="M2505.8,-56.23C1942.91,15.09 1793.79,-65.5 1232.5,-20 1229.46,-19.75 1226.34,-19.46 1223.2,-19.14"/>
<polygon fill="midnightblue" stroke="midnightblue" points="2505.44,-59.71 2515.8,-57.51 2506.32,-52.77 2505.44,-59.71"/>
</g>
<!-- Node17 -->
<g id="node17" class="node">
<title>Node17</title>
<g id="a_node17"><a xlink:href="UnusedReturnRemover_8cpp.html" target="_top" xlink:title=" ">
<polygon fill="white" stroke="black" points="1241.5,-0.5 1241.5,-19.5 1391.5,-19.5 1391.5,-0.5 1241.5,-0.5"/>
<text text-anchor="middle" x="1316.5" y="-7.5" font-family="Helvetica,sans-Serif" font-size="10.00">UnusedReturnRemover.cpp</text>
</a>
</g>
</g>
<!-- Node5&#45;&gt;Node17 -->
<g id="edge16" class="edge">
<title>Node5&#45;&gt;Node17</title>
<path fill="none" stroke="midnightblue" d="M2505.66,-56.2C2017.05,6.75 1887.77,-53.99 1400.5,-20 1397.57,-19.8 1394.59,-19.57 1391.58,-19.32"/>
<polygon fill="midnightblue" stroke="midnightblue" points="2505.43,-59.7 2515.8,-57.52 2506.33,-52.76 2505.43,-59.7"/>
</g>
<!-- Node18 -->
<g id="node18" class="node">
<title>Node18</title>
<g id="a_node18"><a xlink:href="DefaultFrontEnd_8cpp.html" target="_top" xlink:title=" ">
<polygon fill="white" stroke="black" points="1409.5,-0.5 1409.5,-19.5 1525.5,-19.5 1525.5,-0.5 1409.5,-0.5"/>
<text text-anchor="middle" x="1467.5" y="-7.5" font-family="Helvetica,sans-Serif" font-size="10.00">DefaultFrontEnd.cpp</text>
</a>
</g>
</g>
<!-- Node5&#45;&gt;Node18 -->
<g id="edge17" class="edge">
<title>Node5&#45;&gt;Node18</title>
<path fill="none" stroke="midnightblue" d="M2505.59,-56.19C2076.18,-0.04 1961.86,-56.53 1534.5,-20 1531.58,-19.75 1528.59,-19.46 1525.57,-19.15"/>
<polygon fill="midnightblue" stroke="midnightblue" points="2505.42,-59.69 2515.8,-57.53 2506.34,-52.75 2505.42,-59.69"/>
</g>
<!-- Node19 -->
<g id="node19" class="node">
<title>Node19</title>
<g id="a_node19"><a xlink:href="CallArgumentUpdatePass_8cpp.html" target="_top" xlink:title=" ">
<polygon fill="white" stroke="black" points="1544,-0.5 1544,-19.5 1705,-19.5 1705,-0.5 1544,-0.5"/>
<text text-anchor="middle" x="1624.5" y="-7.5" font-family="Helvetica,sans-Serif" font-size="10.00">CallArgumentUpdatePass.cpp</text>
</a>
</g>
</g>
<!-- Node5&#45;&gt;Node19 -->
<g id="edge18" class="edge">
<title>Node5&#45;&gt;Node19</title>
<path fill="none" stroke="midnightblue" d="M2505.63,-56.17C2155.63,-8.89 2062.59,-45.3 1714.5,-20 1711.52,-19.78 1708.49,-19.55 1705.44,-19.3"/>
<polygon fill="midnightblue" stroke="midnightblue" points="2505.41,-59.68 2515.79,-57.56 2506.36,-52.74 2505.41,-59.68"/>
</g>
<!-- Node20 -->
<g id="node20" class="node">
<title>Node20</title>
<g id="a_node20"><a xlink:href="CallDefineUpdatePass_8cpp.html" target="_top" xlink:title=" ">
<polygon fill="white" stroke="black" points="1723.5,-0.5 1723.5,-19.5 1869.5,-19.5 1869.5,-0.5 1723.5,-0.5"/>
<text text-anchor="middle" x="1796.5" y="-7.5" font-family="Helvetica,sans-Serif" font-size="10.00">CallDefineUpdatePass.cpp</text>
</a>
</g>
</g>
<!-- Node5&#45;&gt;Node20 -->
<g id="edge19" class="edge">
<title>Node5&#45;&gt;Node20</title>
<path fill="none" stroke="midnightblue" d="M2505.82,-56.18C2228.01,-17.05 2153.84,-42.99 1878.5,-20 1875.65,-19.76 1872.74,-19.51 1869.8,-19.24"/>
<polygon fill="midnightblue" stroke="midnightblue" points="2505.39,-59.65 2515.79,-57.6 2506.38,-52.72 2505.39,-59.65"/>
</g>
<!-- Node21 -->
<g id="node21" class="node">
<title>Node21</title>
<g id="a_node21"><a xlink:href="BlockVarRenamePass_8cpp.html" target="_top" xlink:title=" ">
<polygon fill="white" stroke="black" points="1888,-0.5 1888,-19.5 2031,-19.5 2031,-0.5 1888,-0.5"/>
<text text-anchor="middle" x="1959.5" y="-7.5" font-family="Helvetica,sans-Serif" font-size="10.00">BlockVarRenamePass.cpp</text>
</a>
</g>
</g>
<!-- Node5&#45;&gt;Node21 -->
<g id="edge20" class="edge">
<title>Node5&#45;&gt;Node21</title>
<path fill="none" stroke="midnightblue" d="M2505.81,-56.14C2299,-24.97 2243.5,-39.33 2039.5,-20 2036.72,-19.74 2033.88,-19.46 2031.02,-19.17"/>
<polygon fill="midnightblue" stroke="midnightblue" points="2505.36,-59.61 2515.78,-57.66 2506.42,-52.69 2505.36,-59.61"/>
</g>
<!-- Node22 -->
<g id="node22" class="node">
<title>Node22</title>
<g id="a_node22"><a xlink:href="StatementPropagationPass_8cpp.html" target="_top" xlink:title=" ">
<polygon fill="white" stroke="black" points="2049,-0.5 2049,-19.5 2218,-19.5 2218,-0.5 2049,-0.5"/>
<text text-anchor="middle" x="2133.5" y="-7.5" font-family="Helvetica,sans-Serif" font-size="10.00">StatementPropagationPass.cpp</text>
</a>
</g>
</g>
<!-- Node5&#45;&gt;Node22 -->
<g id="edge21" class="edge">
<title>Node5&#45;&gt;Node22</title>
<path fill="none" stroke="midnightblue" d="M2505.81,-56.09C2437.59,-44.8 2300.39,-29.18 2212.61,-19.54"/>
<polygon fill="midnightblue" stroke="midnightblue" points="2505.31,-59.55 2515.76,-57.79 2506.49,-52.65 2505.31,-59.55"/>
</g>
<!-- Node23 -->
<g id="node23" class="node">
<title>Node23</title>
<g id="a_node23"><a xlink:href="FromSSAFormPass_8cpp.html" target="_top" xlink:title=" ">
<polygon fill="white" stroke="black" points="2236.5,-0.5 2236.5,-19.5 2364.5,-19.5 2364.5,-0.5 2236.5,-0.5"/>
<text text-anchor="middle" x="2300.5" y="-7.5" font-family="Helvetica,sans-Serif" font-size="10.00">FromSSAFormPass.cpp</text>
</a>
</g>
</g>
<!-- Node5&#45;&gt;Node23 -->
<g id="edge22" class="edge">
<title>Node5&#45;&gt;Node23</title>
<path fill="none" stroke="midnightblue" d="M2505.9,-55.89C2442.34,-41.64 2379.9,-28.09 2340.41,-19.57"/>
<polygon fill="midnightblue" stroke="midnightblue" points="2505.17,-59.31 2515.7,-58.08 2506.71,-52.48 2505.17,-59.31"/>
</g>
<!-- Node24 -->
<g id="node24" class="node">
<title>Node24</title>
<g id="a_node24"><a xlink:href="LocalAndParamMapPass_8cpp.html" target="_top" xlink:title=" ">
<polygon fill="white" stroke="black" points="2382.5,-0.5 2382.5,-19.5 2538.5,-19.5 2538.5,-0.5 2382.5,-0.5"/>
<text text-anchor="middle" x="2460.5" y="-7.5" font-family="Helvetica,sans-Serif" font-size="10.00">LocalAndParamMapPass.cpp</text>
</a>
</g>
</g>
<!-- Node5&#45;&gt;Node24 -->
<g id="edge23" class="edge">
<title>Node5&#45;&gt;Node24</title>
<path fill="none" stroke="midnightblue" d="M2523.31,-50.9C2507.72,-41 2487.37,-28.07 2474.12,-19.65"/>
<polygon fill="midnightblue" stroke="midnightblue" points="2521.53,-53.92 2531.84,-56.32 2525.28,-48.01 2521.53,-53.92"/>
</g>
<!-- Node25 -->
<g id="node25" class="node">
<title>Node25</title>
<g id="a_node25"><a xlink:href="LocalTypeAnalysisPass_8cpp.html" target="_top" xlink:title=" ">
<polygon fill="white" stroke="black" points="2557,-0.5 2557,-19.5 2706,-19.5 2706,-0.5 2557,-0.5"/>
<text text-anchor="middle" x="2631.5" y="-7.5" font-family="Helvetica,sans-Serif" font-size="10.00">LocalTypeAnalysisPass.cpp</text>
</a>
</g>
</g>
<!-- Node5&#45;&gt;Node25 -->
<g id="edge24" class="edge">
<title>Node5&#45;&gt;Node25</title>
<path fill="none" stroke="midnightblue" d="M2567.95,-50.9C2583.72,-41 2604.31,-28.07 2617.72,-19.65"/>
<polygon fill="midnightblue" stroke="midnightblue" points="2565.93,-48.04 2559.32,-56.32 2569.65,-53.97 2565.93,-48.04"/>
</g>
<!-- Node26 -->
<g id="node26" class="node">
<title>Node26</title>
<g id="a_node26"><a xlink:href="UnusedLocalRemovalPass_8cpp.html" target="_top" xlink:title=" ">
<polygon fill="white" stroke="black" points="2724,-0.5 2724,-19.5 2889,-19.5 2889,-0.5 2724,-0.5"/>
<text text-anchor="middle" x="2806.5" y="-7.5" font-family="Helvetica,sans-Serif" font-size="10.00">UnusedLocalRemovalPass.cpp</text>
</a>
</g>
</g>
<!-- Node5&#45;&gt;Node26 -->
<g id="edge25" class="edge">
<title>Node5&#45;&gt;Node26</title>
<path fill="none" stroke="midnightblue" d="M2585.03,-56.82C2633.67,-46.76 2715.87,-29.75 2765.27,-19.53"/>
<polygon fill="midnightblue" stroke="midnightblue" points="2584.27,-53.4 2575.19,-58.86 2585.69,-60.26 2584.27,-53.4"/>
</g>
<!-- Node27 -->
<g id="node27" class="node">
<title>Node27</title>
<g id="a_node27"><a xlink:href="UnusedParamRemovalPass_8cpp.html" target="_top" xlink:title=" ">
<polygon fill="white" stroke="black" points="2907,-0.5 2907,-19.5 3078,-19.5 3078,-0.5 2907,-0.5"/>
<text text-anchor="middle" x="2992.5" y="-7.5" font-family="Helvetica,sans-Serif" font-size="10.00">UnusedParamRemovalPass.cpp</text>
</a>
</g>
</g>
<!-- Node5&#45;&gt;Node27 -->
<g id="edge26" class="edge">
<title>Node5&#45;&gt;Node27</title>
<path fill="none" stroke="midnightblue" d="M2585.19,-59.17C2592.92,-58.08 2600.96,-56.98 2608.5,-56 2714.5,-42.22 2837.22,-28.17 2914.84,-19.52"/>
<polygon fill="midnightblue" stroke="midnightblue" points="2584.69,-55.71 2575.28,-60.59 2585.68,-62.64 2584.69,-55.71"/>
</g>
<!-- Node28 -->
<g id="node28" class="node">
<title>Node28</title>
<g id="a_node28"><a xlink:href="UnusedStatementRemovalPass_8cpp.html" target="_top" xlink:title=" ">
<polygon fill="white" stroke="black" points="3096,-0.5 3096,-19.5 3287,-19.5 3287,-0.5 3096,-0.5"/>
<text text-anchor="middle" x="3191.5" y="-7.5" font-family="Helvetica,sans-Serif" font-size="10.00">UnusedStatementRemovalPass.cpp</text>
</a>
</g>
</g>
<!-- Node5&#45;&gt;Node28 -->
<g id="edge27" class="edge">
<title>Node5&#45;&gt;Node28</title>
<path fill="none" stroke="midnightblue" d="M2585.16,-58.92C2592.89,-57.85 2600.94,-56.82 2608.5,-56 2820.73,-32.89 2874.7,-37.2 3087.5,-20 3090.21,-19.78 3092.96,-19.56 3095.73,-19.33"/>
<polygon fill="midnightblue" stroke="midnightblue" points="2584.66,-55.46 2575.25,-60.33 2585.65,-62.39 2584.66,-55.46"/>
</g>
<!-- Node29 -->
<g id="node29" class="node">
<title>Node29</title>
<g id="a_node29"><a xlink:href="AssignRemovalPass_8cpp.html" target="_top" xlink:title=" ">
<polygon fill="white" stroke="black" points="3305,-0.5 3305,-19.5 3440,-19.5 3440,-0.5 3305,-0.5"/>
<text text-anchor="middle" x="3372.5" y="-7.5" font-family="Helvetica,sans-Serif" font-size="10.00">AssignRemovalPass.cpp</text>
</a>
</g>
</g>
<!-- Node5&#45;&gt;Node29 -->
<g id="edge28" class="edge">
<title>Node5&#45;&gt;Node29</title>
<path fill="none" stroke="midnightblue" d="M2585.15,-58.78C2592.88,-57.73 2600.93,-56.74 2608.5,-56 2913.25,-26.32 2991.41,-46.02 3296.5,-20 3299.28,-19.76 3302.12,-19.5 3304.98,-19.23"/>
<polygon fill="midnightblue" stroke="midnightblue" points="2584.65,-55.32 2575.24,-60.19 2585.63,-62.25 2584.65,-55.32"/>
</g>
<!-- Node30 -->
<g id="node30" class="node">
<title>Node30</title>
<g id="a_node30"><a xlink:href="PreservationAnalysisPass_8cpp.html" target="_top" xlink:title=" ">
<polygon fill="white" stroke="black" points="3458.5,-0.5 3458.5,-19.5 3620.5,-19.5 3620.5,-0.5 3458.5,-0.5"/>
<text text-anchor="middle" x="3539.5" y="-7.5" font-family="Helvetica,sans-Serif" font-size="10.00">PreservationAnalysisPass.cpp</text>
</a>
</g>
</g>
<!-- Node5&#45;&gt;Node30 -->
<g id="edge29" class="edge">
<title>Node5&#45;&gt;Node30</title>
<path fill="none" stroke="midnightblue" d="M2585.14,-58.73C2592.87,-57.68 2600.93,-56.7 2608.5,-56 2981.03,-21.5 3076.33,-46.62 3449.5,-20 3452.32,-19.8 3455.19,-19.58 3458.08,-19.35"/>
<polygon fill="midnightblue" stroke="midnightblue" points="2584.64,-55.26 2575.23,-60.13 2585.63,-62.19 2584.64,-55.26"/>
</g>
<!-- Node31 -->
<g id="node31" class="node">
<title>Node31</title>
<g id="a_node31"><a xlink:href="SPPreservationPass_8cpp.html" target="_top" xlink:title=" ">
<polygon fill="white" stroke="black" points="3639,-0.5 3639,-19.5 3772,-19.5 3772,-0.5 3639,-0.5"/>
<text text-anchor="middle" x="3705.5" y="-7.5" font-family="Helvetica,sans-Serif" font-size="10.00">SPPreservationPass.cpp</text>
</a>
</g>
</g>
<!-- Node5&#45;&gt;Node31 -->
<g id="edge30" class="edge">
<title>Node5&#45;&gt;Node31</title>
<path fill="none" stroke="midnightblue" d="M2585.14,-58.68C2592.87,-57.63 2600.92,-56.67 2608.5,-56 3060.78,-15.84 3176.77,-54.73 3629.5,-20 3632.55,-19.77 3635.66,-19.5 3638.8,-19.21"/>
<polygon fill="midnightblue" stroke="midnightblue" points="2584.64,-55.22 2575.23,-60.09 2585.62,-62.15 2584.64,-55.22"/>
</g>
<!-- Node32 -->
<g id="node32" class="node">
<title>Node32</title>
<g id="a_node32"><a xlink:href="PassManager_8cpp.html" target="_top" xlink:title=" ">
<polygon fill="white" stroke="black" points="3790.5,-0.5 3790.5,-19.5 3892.5,-19.5 3892.5,-0.5 3790.5,-0.5"/>
<text text-anchor="middle" x="3841.5" y="-7.5" font-family="Helvetica,sans-Serif" font-size="10.00">PassManager.cpp</text>
</a>
</g>
</g>
<!-- Node5&#45;&gt;Node32 -->
<g id="edge31" class="edge">
<title>Node5&#45;&gt;Node32</title>
<path fill="none" stroke="midnightblue" d="M2585.13,-58.65C2592.87,-57.61 2600.92,-56.66 2608.5,-56 3128.14,-11.05 3262.02,-66.77 3781.5,-20 3784.44,-19.74 3787.45,-19.42 3790.49,-19.07"/>
<polygon fill="midnightblue" stroke="midnightblue" points="2584.63,-55.19 2575.23,-60.06 2585.62,-62.12 2584.63,-55.19"/>
</g>
<!-- Node33 -->
<g id="node33" class="node">
<title>Node33</title>
<g id="a_node33"><a xlink:href="Assign_8cpp.html" target="_top" xlink:title=" ">
<polygon fill="white" stroke="black" points="3911,-0.5 3911,-19.5 3980,-19.5 3980,-0.5 3911,-0.5"/>
<text text-anchor="middle" x="3945.5" y="-7.5" font-family="Helvetica,sans-Serif" font-size="10.00">Assign.cpp</text>
</a>
</g>
</g>
<!-- Node5&#45;&gt;Node33 -->
<g id="edge32" class="edge">
<title>Node5&#45;&gt;Node33</title>
<path fill="none" stroke="midnightblue" d="M2585.13,-58.64C2592.86,-57.59 2600.92,-56.64 2608.5,-56 3181.32,-7.27 3330.39,-85.85 3901.5,-20 3904.44,-19.66 3907.48,-19.22 3910.52,-18.73"/>
<polygon fill="midnightblue" stroke="midnightblue" points="2584.63,-55.17 2575.22,-60.04 2585.62,-62.1 2584.63,-55.17"/>
</g>
<!-- Node34 -->
<g id="node34" class="node">
<title>Node34</title>
<g id="a_node34"><a xlink:href="Statement_8cpp.html" target="_top" xlink:title=" ">
<polygon fill="white" stroke="black" points="3998.5,-0.5 3998.5,-19.5 4086.5,-19.5 4086.5,-0.5 3998.5,-0.5"/>
<text text-anchor="middle" x="4042.5" y="-7.5" font-family="Helvetica,sans-Serif" font-size="10.00">Statement.cpp</text>
</a>
</g>
</g>
<!-- Node5&#45;&gt;Node34 -->
<g id="edge33" class="edge">
<title>Node5&#45;&gt;Node34</title>
<path fill="none" stroke="midnightblue" d="M2585.13,-58.63C2592.86,-57.58 2600.92,-56.64 2608.5,-56 3220.32,-4.5 3378.41,-79.55 3989.5,-20 3992.38,-19.72 3995.34,-19.37 3998.32,-18.99"/>
<polygon fill="midnightblue" stroke="midnightblue" points="2584.63,-55.16 2575.22,-60.03 2585.62,-62.09 2584.63,-55.16"/>
</g>
<!-- Node35 -->
<g id="node35" class="node">
<title>Node35</title>
<g id="a_node35"><a xlink:href="CallGraphDotWriter_8cpp.html" target="_top" xlink:title=" ">
<polygon fill="white" stroke="black" points="4104.5,-0.5 4104.5,-19.5 4236.5,-19.5 4236.5,-0.5 4104.5,-0.5"/>
<text text-anchor="middle" x="4170.5" y="-7.5" font-family="Helvetica,sans-Serif" font-size="10.00">CallGraphDotWriter.cpp</text>
</a>
</g>
</g>
<!-- Node5&#45;&gt;Node35 -->
<g id="edge34" class="edge">
<title>Node5&#45;&gt;Node35</title>
<path fill="none" stroke="midnightblue" d="M2585.13,-58.61C2592.86,-57.57 2600.92,-56.63 2608.5,-56 3267.3,-1.16 3436.12,-67.44 4095.5,-20 4098.38,-19.79 4101.31,-19.56 4104.28,-19.29"/>
<polygon fill="midnightblue" stroke="midnightblue" points="2584.63,-55.15 2575.22,-60.02 2585.62,-62.08 2584.63,-55.15"/>
</g>
<!-- Node36 -->
<g id="node36" class="node">
<title>Node36</title>
<g id="a_node36"><a xlink:href="CFGDotWriter_8cpp.html" target="_top" xlink:title=" ">
<polygon fill="white" stroke="black" points="4254.5,-0.5 4254.5,-19.5 4358.5,-19.5 4358.5,-0.5 4254.5,-0.5"/>
<text text-anchor="middle" x="4306.5" y="-7.5" font-family="Helvetica,sans-Serif" font-size="10.00">CFGDotWriter.cpp</text>
</a>
</g>
</g>
<!-- Node5&#45;&gt;Node36 -->
<g id="edge35" class="edge">
<title>Node5&#45;&gt;Node36</title>
<path fill="none" stroke="midnightblue" d="M2585.13,-58.6C2592.86,-57.56 2600.92,-56.62 2608.5,-56 3333.79,3.57 3520.35,-81.23 4245.5,-20 4248.38,-19.76 4251.33,-19.46 4254.31,-19.14"/>
<polygon fill="midnightblue" stroke="midnightblue" points="2584.63,-55.14 2575.22,-60.01 2585.61,-62.07 2584.63,-55.14"/>
</g>
<!-- Node37 -->
<g id="node37" class="node">
<title>Node37</title>
<g id="a_node37"><a xlink:href="ProgSymbolWriter_8cpp.html" target="_top" xlink:title=" ">
<polygon fill="white" stroke="black" points="4377,-0.5 4377,-19.5 4502,-19.5 4502,-0.5 4377,-0.5"/>
<text text-anchor="middle" x="4439.5" y="-7.5" font-family="Helvetica,sans-Serif" font-size="10.00">ProgSymbolWriter.cpp</text>
</a>
</g>
</g>
<!-- Node5&#45;&gt;Node37 -->
<g id="edge36" class="edge">
<title>Node5&#45;&gt;Node37</title>
<path fill="none" stroke="midnightblue" d="M2585.13,-58.59C2592.86,-57.55 2600.92,-56.62 2608.5,-56 3387.87,7.41 3587.61,-76.57 4367.5,-20 4370.52,-19.78 4373.6,-19.52 4376.71,-19.24"/>
<polygon fill="midnightblue" stroke="midnightblue" points="2584.63,-55.13 2575.22,-60 2585.61,-62.06 2584.63,-55.13"/>
</g>
<!-- Node38 -->
<g id="node38" class="node">
<title>Node38</title>
<g id="a_node38"><a xlink:href="UseGraphWriter_8cpp.html" target="_top" xlink:title=" ">
<polygon fill="white" stroke="black" points="4520,-0.5 4520,-19.5 4635,-19.5 4635,-0.5 4520,-0.5"/>
<text text-anchor="middle" x="4577.5" y="-7.5" font-family="Helvetica,sans-Serif" font-size="10.00">UseGraphWriter.cpp</text>
</a>
</g>
</g>
<!-- Node5&#45;&gt;Node38 -->
<g id="edge37" class="edge">
<title>Node5&#45;&gt;Node38</title>
<path fill="none" stroke="midnightblue" d="M2585.13,-58.58C2592.86,-57.54 2600.92,-56.61 2608.5,-56 3451.7,11.94 3668.09,-85.26 4511.5,-20 4514.27,-19.79 4517.1,-19.53 4519.95,-19.25"/>
<polygon fill="midnightblue" stroke="midnightblue" points="2584.63,-55.12 2575.22,-59.99 2585.61,-62.05 2584.63,-55.12"/>
</g>
<!-- Node39 -->
<g id="node39" class="node">
<title>Node39</title>
<g id="a_node39"><a xlink:href="ExpSSAXformer_8cpp.html" target="_top" xlink:title=" ">
<polygon fill="white" stroke="black" points="4653.5,-0.5 4653.5,-19.5 4767.5,-19.5 4767.5,-0.5 4653.5,-0.5"/>
<text text-anchor="middle" x="4710.5" y="-7.5" font-family="Helvetica,sans-Serif" font-size="10.00">ExpSSAXformer.cpp</text>
</a>
</g>
</g>
<!-- Node5&#45;&gt;Node39 -->
<g id="edge38" class="edge">
<title>Node5&#45;&gt;Node39</title>
<path fill="none" stroke="midnightblue" d="M2585.13,-58.57C2592.86,-57.54 2600.92,-56.61 2608.5,-56 3510.65,16.13 3742.12,-89.26 4644.5,-20 4647.38,-19.78 4650.33,-19.51 4653.31,-19.22"/>
<polygon fill="midnightblue" stroke="midnightblue" points="2584.63,-55.11 2575.22,-59.98 2585.61,-62.04 2584.63,-55.11"/>
</g>
<!-- Node40 -->
<g id="node40" class="node">
<title>Node40</title>
<g id="a_node40"><a xlink:href="CommandlineDriver_8h.html" target="_top" xlink:title=" ">
<polygon fill="white" stroke="red" points="4785.5,-0.5 4785.5,-19.5 4909.5,-19.5 4909.5,-0.5 4785.5,-0.5"/>
<text text-anchor="middle" x="4847.5" y="-7.5" font-family="Helvetica,sans-Serif" font-size="10.00">CommandlineDriver.h</text>
</a>
</g>
</g>
<!-- Node5&#45;&gt;Node40 -->
<g id="edge39" class="edge">
<title>Node5&#45;&gt;Node40</title>
<path fill="none" stroke="midnightblue" d="M2585.13,-58.57C2592.86,-57.53 2600.92,-56.6 2608.5,-56 3569.16,20.29 3815.26,-88.7 4776.5,-20 4779.35,-19.8 4782.26,-19.56 4785.2,-19.29"/>
<polygon fill="midnightblue" stroke="midnightblue" points="2584.63,-55.1 2575.22,-59.97 2585.61,-62.03 2584.63,-55.1"/>
</g>
<!-- Node43 -->
<g id="node41" class="node">
<title>Node43</title>
<g id="a_node41"><a xlink:href="Console_8cpp.html" target="_top" xlink:title=" ">
<polygon fill="white" stroke="black" points="4927.5,-0.5 4927.5,-19.5 5003.5,-19.5 5003.5,-0.5 4927.5,-0.5"/>
<text text-anchor="middle" x="4965.5" y="-7.5" font-family="Helvetica,sans-Serif" font-size="10.00">Console.cpp</text>
</a>
</g>
</g>
<!-- Node5&#45;&gt;Node43 -->
<g id="edge40" class="edge">
<title>Node5&#45;&gt;Node43</title>
<path fill="none" stroke="midnightblue" d="M2585.13,-58.56C2592.86,-57.53 2600.92,-56.6 2608.5,-56 3120.3,-15.62 4407.79,-72.48 4918.5,-20 4921.39,-19.7 4924.37,-19.32 4927.36,-18.88"/>
<polygon fill="midnightblue" stroke="midnightblue" points="2584.63,-55.1 2575.22,-59.97 2585.61,-62.03 2584.63,-55.1"/>
</g>
<!-- Node5&#45;&gt;Node51 -->
<g id="edge41" class="edge">
<title>Node5&#45;&gt;Node51</title>
<path fill="none" stroke="midnightblue" d="M2585.13,-58.56C2592.86,-57.52 2600.92,-56.6 2608.5,-56 3673.78,27.73 3946.09,-87.81 5012.5,-20 5015.43,-19.81 5018.42,-19.6 5021.43,-19.36"/>
<polygon fill="midnightblue" stroke="midnightblue" points="2584.63,-55.09 2575.22,-59.96 2585.61,-62.02 2584.63,-55.09"/>
</g>
</g>
</svg>
        <g id="navigator" transform="translate(0 0)" fill="#404254">
                <rect fill="#f2f5e9" fill-opacity="0.5" stroke="#606060" stroke-width=".5" x="0" y="0" width="60" height="60"/>
                <use id="zoomplus" xlink:href="#zoomPlus" x="17" y="9" onmousedown="handleZoom(evt,'in')"/>
                <use id="zoomminus" xlink:href="#zoomMin" x="42" y="9" onmousedown="handleZoom(evt,'out')"/>
                <use id="reset" xlink:href="#resetDef" x="30" y="36" onmousedown="handleReset()"/>
                <g id="arrowUp" xlink:href="#dirArrow" transform="translate(30 24)" onmousedown="handlePan(0,-1)">
                  <use xlink:href="#rim" fill="#404040">
                        <set attributeName="fill" to="#808080" begin="arrowUp.mouseover" end="arrowUp.mouseout"/>
                  </use>
                  <path fill="none" stroke="white" stroke-width="1.5" d="M0,-3.0v7 M-2.5,-0.5L0,-3.0L2.5,-0.5"/>
                </g>
                <g id="arrowRight" xlink:href="#dirArrow" transform="rotate(90) translate(36 -43)" onmousedown="handlePan(1,0)">
                  <use xlink:href="#rim" fill="#404040">
                        <set attributeName="fill" to="#808080" begin="arrowRight.mouseover" end="arrowRight.mouseout"/>
                  </use>
                  <path fill="none" stroke="white" stroke-width="1.5" d="M0,-3.0v7 M-2.5,-0.5L0,-3.0L2.5,-0.5"/>
                </g>
                <g id="arrowDown" xlink:href="#dirArrow" transform="rotate(180) translate(-30 -48)" onmousedown="handlePan(0,1)">
                  <use xlink:href="#rim" fill="#404040">
                        <set attributeName="fill" to="#808080" begin="arrowDown.mouseover" end="arrowDown.mouseout"/>
                  </use>
                  <path fill="none" stroke="white" stroke-width="1.5" d="M0,-3.0v7 M-2.5,-0.5L0,-3.0L2.5,-0.5"/>
                </g>
                <g id="arrowLeft" xlink:href="#dirArrow" transform="rotate(270) translate(-36 17)" onmousedown="handlePan(-1,0)">
                  <use xlink:href="#rim" fill="#404040">
                        <set attributeName="fill" to="#808080" begin="arrowLeft.mouseover" end="arrowLeft.mouseout"/>
                  </use>
                  <path fill="none" stroke="white" stroke-width="1.5" d="M0,-3.0v7 M-2.5,-0.5L0,-3.0L2.5,-0.5"/>
                </g>
        </g>
        <svg viewBox="0 0 15 15" width="100%" height="30px" preserveAspectRatio="xMaxYMin meet">
         <g id="arrow_out" transform="scale(0.3 0.3)">
          <a xlink:href="Plugin_8h__dep__incl_org.svg" target="_base">
           <rect id="button" ry="5" rx="5" y="6" x="6" height="38" width="38"
                fill="#f2f5e9" fill-opacity="0.5" stroke="#606060" stroke-width="1.0"/>
           <path id="arrow"
             d="M 11.500037,31.436501 C 11.940474,20.09759 22.043105,11.32322 32.158766,21.979434 L 37.068811,17.246167 C 37.068811,17.246167 37.088388,32 37.088388,32 L 22.160133,31.978069 C 22.160133,31.978069 26.997745,27.140456 26.997745,27.140456 C 18.528582,18.264221 13.291696,25.230495 11.500037,31.436501 z"
             style="fill:#404040;"/>
          </a>
         </g>
        </svg>
</svg>
