<?xml version="1.0" encoding="UTF-8" standalone="no"?>
<!DOCTYPE svg PUBLIC "-//W3C//DTD SVG 1.1//EN"
 "http://www.w3.org/Graphics/SVG/1.1/DTD/svg11.dtd">
<!-- Generated by graphviz version 2.43.0 (0)
 -->
<!-- Title: PluginManager.h Pages: 1 -->
<svg width="6323pt" height="196pt"
 viewBox="0.00 0.00 6322.50 196.00" xmlns="http://www.w3.org/2000/svg" xmlns:xlink="http://www.w3.org/1999/xlink">
<g id="graph0" class="graph" transform="scale(1 1) rotate(0) translate(4 192)">
<title>PluginManager.h</title>
<polygon fill="white" stroke="transparent" points="-4,4 -4,-192 6318.5,-192 6318.5,4 -4,4"/>
<!-- Node1 -->
<g id="node1" class="node">
<title>Node1</title>
<g id="a_node1"><a xlink:title=" ">
<polygon fill="#bfbfbf" stroke="black" points="3271.5,-168.5 3271.5,-187.5 3369.5,-187.5 3369.5,-168.5 3271.5,-168.5"/>
<text text-anchor="middle" x="3320.5" y="-175.5" font-family="Helvetica,sans-Serif" font-size="10.00">PluginManager.h</text>
</a>
</g>
</g>
<!-- Node2 -->
<g id="node2" class="node">
<title>Node2</title>
<g id="a_node2"><a xlink:href="PluginManager_8cpp.html" target="_top" xlink:title=" ">
<polygon fill="white" stroke="black" points="3214.5,-112.5 3214.5,-131.5 3324.5,-131.5 3324.5,-112.5 3214.5,-112.5"/>
<text text-anchor="middle" x="3269.5" y="-119.5" font-family="Helvetica,sans-Serif" font-size="10.00">PluginManager.cpp</text>
</a>
</g>
</g>
<!-- Node1&#45;&gt;Node2 -->
<g id="edge1" class="edge">
<title>Node1&#45;&gt;Node2</title>
<path fill="none" stroke="midnightblue" d="M3305.12,-160.72C3296.13,-151.2 3285.14,-139.56 3277.76,-131.75"/>
<polygon fill="midnightblue" stroke="midnightblue" points="3302.67,-163.22 3312.08,-168.08 3307.76,-158.41 3302.67,-163.22"/>
</g>
<!-- Node3 -->
<g id="node3" class="node">
<title>Node3</title>
<g id="a_node3"><a xlink:href="Project_8h.html" target="_top" xlink:title=" ">
<polygon fill="white" stroke="black" points="3343,-112.5 3343,-131.5 3402,-131.5 3402,-112.5 3343,-112.5"/>
<text text-anchor="middle" x="3372.5" y="-119.5" font-family="Helvetica,sans-Serif" font-size="10.00">Project.h</text>
</a>
</g>
</g>
<!-- Node1&#45;&gt;Node3 -->
<g id="edge2" class="edge">
<title>Node1&#45;&gt;Node3</title>
<path fill="none" stroke="midnightblue" d="M3336.18,-160.72C3345.34,-151.2 3356.55,-139.56 3364.07,-131.75"/>
<polygon fill="midnightblue" stroke="midnightblue" points="3333.5,-158.45 3329.09,-168.08 3338.54,-163.31 3333.5,-158.45"/>
</g>
<!-- Node4 -->
<g id="node4" class="node">
<title>Node4</title>
<g id="a_node4"><a xlink:href="Project_8cpp.html" target="_top" xlink:title=" ">
<polygon fill="white" stroke="black" points="0,-56.5 0,-75.5 71,-75.5 71,-56.5 0,-56.5"/>
<text text-anchor="middle" x="35.5" y="-63.5" font-family="Helvetica,sans-Serif" font-size="10.00">Project.cpp</text>
</a>
</g>
</g>
<!-- Node3&#45;&gt;Node4 -->
<g id="edge3" class="edge">
<title>Node3&#45;&gt;Node4</title>
<path fill="none" stroke="midnightblue" d="M3332.62,-112.25C2598.85,-27.38 796.17,-150.87 80.5,-76 77.49,-75.69 74.38,-75.27 71.27,-74.78"/>
<polygon fill="midnightblue" stroke="midnightblue" points="3332.47,-115.76 3342.81,-113.45 3333.28,-108.81 3332.47,-115.76"/>
</g>
<!-- Node5 -->
<g id="node5" class="node">
<title>Node5</title>
<g id="a_node5"><a xlink:href="DataFlow_8cpp.html" target="_top" xlink:title=" ">
<polygon fill="white" stroke="black" points="89,-56.5 89,-75.5 172,-75.5 172,-56.5 89,-56.5"/>
<text text-anchor="middle" x="130.5" y="-63.5" font-family="Helvetica,sans-Serif" font-size="10.00">DataFlow.cpp</text>
</a>
</g>
</g>
<!-- Node3&#45;&gt;Node5 -->
<g id="edge4" class="edge">
<title>Node3&#45;&gt;Node5</title>
<path fill="none" stroke="midnightblue" d="M3332.67,-112.26C2621.25,-29.83 875.64,-140.77 181.5,-76 178.46,-75.72 175.32,-75.35 172.17,-74.93"/>
<polygon fill="midnightblue" stroke="midnightblue" points="3332.46,-115.76 3342.81,-113.45 3333.29,-108.81 3332.46,-115.76"/>
</g>
<!-- Node6 -->
<g id="node6" class="node">
<title>Node6</title>
<g id="a_node6"><a xlink:href="Module_8cpp.html" target="_top" xlink:title=" ">
<polygon fill="white" stroke="black" points="190,-56.5 190,-75.5 263,-75.5 263,-56.5 190,-56.5"/>
<text text-anchor="middle" x="226.5" y="-63.5" font-family="Helvetica,sans-Serif" font-size="10.00">Module.cpp</text>
</a>
</g>
</g>
<!-- Node3&#45;&gt;Node6 -->
<g id="edge5" class="edge">
<title>Node3&#45;&gt;Node6</title>
<path fill="none" stroke="midnightblue" d="M3332.7,-112.26C2641.4,-32.16 945.9,-145.26 272.5,-76 269.42,-75.68 266.25,-75.26 263.07,-74.78"/>
<polygon fill="midnightblue" stroke="midnightblue" points="3332.46,-115.76 3342.81,-113.45 3333.29,-108.81 3332.46,-115.76"/>
</g>
<!-- Node7 -->
<g id="node7" class="node">
<title>Node7</title>
<g id="a_node7"><a xlink:href="Proc_8cpp.html" target="_top" xlink:title=" ">
<polygon fill="white" stroke="black" points="281.5,-56.5 281.5,-75.5 339.5,-75.5 339.5,-56.5 281.5,-56.5"/>
<text text-anchor="middle" x="310.5" y="-63.5" font-family="Helvetica,sans-Serif" font-size="10.00">Proc.cpp</text>
</a>
</g>
</g>
<!-- Node3&#45;&gt;Node7 -->
<g id="edge6" class="edge">
<title>Node3&#45;&gt;Node7</title>
<path fill="none" stroke="midnightblue" d="M3332.45,-112.23C2657.77,-34.23 1003.55,-156.52 348.5,-76 345.67,-75.65 342.75,-75.18 339.84,-74.62"/>
<polygon fill="midnightblue" stroke="midnightblue" points="3332.46,-115.76 3342.81,-113.46 3333.29,-108.81 3332.46,-115.76"/>
</g>
<!-- Node8 -->
<g id="node8" class="node">
<title>Node8</title>
<g id="a_node8"><a xlink:href="UserProc_8cpp.html" target="_top" xlink:title=" ">
<polygon fill="white" stroke="black" points="357.5,-56.5 357.5,-75.5 437.5,-75.5 437.5,-56.5 357.5,-56.5"/>
<text text-anchor="middle" x="397.5" y="-63.5" font-family="Helvetica,sans-Serif" font-size="10.00">UserProc.cpp</text>
</a>
</g>
</g>
<!-- Node3&#45;&gt;Node8 -->
<g id="edge7" class="edge">
<title>Node3&#45;&gt;Node8</title>
<path fill="none" stroke="midnightblue" d="M3332.79,-112.27C2680.21,-36.49 1082.7,-136.71 447.5,-76 444.25,-75.69 440.9,-75.28 437.54,-74.81"/>
<polygon fill="midnightblue" stroke="midnightblue" points="3332.46,-115.76 3342.81,-113.46 3333.29,-108.81 3332.46,-115.76"/>
</g>
<!-- Node9 -->
<g id="node9" class="node">
<title>Node9</title>
<g id="a_node9"><a xlink:href="Prog_8cpp.html" target="_top" xlink:title=" ">
<polygon fill="white" stroke="black" points="456,-56.5 456,-75.5 515,-75.5 515,-56.5 456,-56.5"/>
<text text-anchor="middle" x="485.5" y="-63.5" font-family="Helvetica,sans-Serif" font-size="10.00">Prog.cpp</text>
</a>
</g>
</g>
<!-- Node3&#45;&gt;Node9 -->
<g id="edge8" class="edge">
<title>Node3&#45;&gt;Node9</title>
<path fill="none" stroke="midnightblue" d="M3332.59,-112.25C2696.87,-38.6 1140.97,-150.21 524.5,-76 521.46,-75.63 518.32,-75.13 515.19,-74.54"/>
<polygon fill="midnightblue" stroke="midnightblue" points="3332.46,-115.76 3342.81,-113.46 3333.29,-108.81 3332.46,-115.76"/>
</g>
<!-- Node10 -->
<g id="node10" class="node">
<title>Node10</title>
<g id="a_node10"><a xlink:href="IndirectJumpAnalyzer_8cpp.html" target="_top" xlink:title=" ">
<polygon fill="white" stroke="black" points="533,-56.5 533,-75.5 674,-75.5 674,-56.5 533,-56.5"/>
<text text-anchor="middle" x="603.5" y="-63.5" font-family="Helvetica,sans-Serif" font-size="10.00">IndirectJumpAnalyzer.cpp</text>
</a>
</g>
</g>
<!-- Node3&#45;&gt;Node10 -->
<g id="edge9" class="edge">
<title>Node3&#45;&gt;Node10</title>
<path fill="none" stroke="midnightblue" d="M3332.72,-112.26C2732.24,-42.18 1267.98,-112.76 683.5,-76 680.43,-75.81 677.3,-75.58 674.14,-75.33"/>
<polygon fill="midnightblue" stroke="midnightblue" points="3332.46,-115.75 3342.81,-113.46 3333.29,-108.8 3332.46,-115.75"/>
</g>
<!-- Node11 -->
<g id="node11" class="node">
<title>Node11</title>
<g id="a_node11"><a xlink:href="InterferenceFinder_8cpp.html" target="_top" xlink:title=" ">
<polygon fill="white" stroke="black" points="692,-56.5 692,-75.5 817,-75.5 817,-56.5 692,-56.5"/>
<text text-anchor="middle" x="754.5" y="-63.5" font-family="Helvetica,sans-Serif" font-size="10.00">InterferenceFinder.cpp</text>
</a>
</g>
</g>
<!-- Node3&#45;&gt;Node11 -->
<g id="edge10" class="edge">
<title>Node3&#45;&gt;Node11</title>
<path fill="none" stroke="midnightblue" d="M3332.83,-112.27C2764.02,-45.79 1379.07,-114.39 826.5,-76 823.48,-75.79 820.4,-75.54 817.29,-75.26"/>
<polygon fill="midnightblue" stroke="midnightblue" points="3332.46,-115.75 3342.8,-113.46 3333.29,-108.8 3332.46,-115.75"/>
</g>
<!-- Node12 -->
<g id="node12" class="node">
<title>Node12</title>
<g id="a_node12"><a xlink:href="LivenessAnalyzer_8cpp.html" target="_top" xlink:title=" ">
<polygon fill="white" stroke="black" points="835.5,-56.5 835.5,-75.5 957.5,-75.5 957.5,-56.5 835.5,-56.5"/>
<text text-anchor="middle" x="896.5" y="-63.5" font-family="Helvetica,sans-Serif" font-size="10.00">LivenessAnalyzer.cpp</text>
</a>
</g>
</g>
<!-- Node3&#45;&gt;Node12 -->
<g id="edge11" class="edge">
<title>Node3&#45;&gt;Node12</title>
<path fill="none" stroke="midnightblue" d="M3332.59,-112.24C2794.56,-49.32 1487.88,-113.36 966.5,-76 963.57,-75.79 960.57,-75.54 957.54,-75.26"/>
<polygon fill="midnightblue" stroke="midnightblue" points="3332.46,-115.75 3342.8,-113.47 3333.29,-108.8 3332.46,-115.75"/>
</g>
<!-- Node13 -->
<g id="node13" class="node">
<title>Node13</title>
<g id="a_node13"><a xlink:href="ProcDecompiler_8cpp.html" target="_top" xlink:title=" ">
<polygon fill="white" stroke="black" points="975.5,-56.5 975.5,-75.5 1089.5,-75.5 1089.5,-56.5 975.5,-56.5"/>
<text text-anchor="middle" x="1032.5" y="-63.5" font-family="Helvetica,sans-Serif" font-size="10.00">ProcDecompiler.cpp</text>
</a>
</g>
</g>
<!-- Node3&#45;&gt;Node13 -->
<g id="edge12" class="edge">
<title>Node3&#45;&gt;Node13</title>
<path fill="none" stroke="midnightblue" d="M3332.78,-112.27C2824.25,-52.65 1591.36,-112.87 1099.5,-76 1096.34,-75.76 1093.1,-75.48 1089.84,-75.15"/>
<polygon fill="midnightblue" stroke="midnightblue" points="3332.46,-115.75 3342.8,-113.47 3333.29,-108.8 3332.46,-115.75"/>
</g>
<!-- Node14 -->
<g id="node14" class="node">
<title>Node14</title>
<g id="a_node14"><a xlink:href="ProgDecompiler_8cpp.html" target="_top" xlink:title=" ">
<polygon fill="white" stroke="black" points="1108,-56.5 1108,-75.5 1223,-75.5 1223,-56.5 1108,-56.5"/>
<text text-anchor="middle" x="1165.5" y="-63.5" font-family="Helvetica,sans-Serif" font-size="10.00">ProgDecompiler.cpp</text>
</a>
</g>
</g>
<!-- Node3&#45;&gt;Node14 -->
<g id="edge13" class="edge">
<title>Node3&#45;&gt;Node14</title>
<path fill="none" stroke="midnightblue" d="M3332.66,-112.25C2853.45,-55.98 1694.84,-110.89 1232.5,-76 1229.46,-75.77 1226.34,-75.49 1223.2,-75.18"/>
<polygon fill="midnightblue" stroke="midnightblue" points="3332.46,-115.75 3342.8,-113.47 3333.29,-108.8 3332.46,-115.75"/>
</g>
<!-- Node15 -->
<g id="node15" class="node">
<title>Node15</title>
<g id="a_node15"><a xlink:href="UnusedReturnRemover_8cpp.html" target="_top" xlink:title=" ">
<polygon fill="white" stroke="black" points="1241.5,-56.5 1241.5,-75.5 1391.5,-75.5 1391.5,-56.5 1241.5,-56.5"/>
<text text-anchor="middle" x="1316.5" y="-63.5" font-family="Helvetica,sans-Serif" font-size="10.00">UnusedReturnRemover.cpp</text>
</a>
</g>
</g>
<!-- Node3&#45;&gt;Node15 -->
<g id="edge14" class="edge">
<title>Node3&#45;&gt;Node15</title>
<path fill="none" stroke="midnightblue" d="M3332.8,-112.27C2890.82,-60.07 1826.04,-102.71 1400.5,-76 1397.57,-75.82 1394.59,-75.61 1391.58,-75.38"/>
<polygon fill="midnightblue" stroke="midnightblue" points="3332.46,-115.75 3342.8,-113.48 3333.3,-108.8 3332.46,-115.75"/>
</g>
<!-- Node16 -->
<g id="node16" class="node">
<title>Node16</title>
<g id="a_node16"><a xlink:href="DefaultFrontEnd_8cpp.html" target="_top" xlink:title=" ">
<polygon fill="white" stroke="black" points="1409.5,-56.5 1409.5,-75.5 1525.5,-75.5 1525.5,-56.5 1409.5,-56.5"/>
<text text-anchor="middle" x="1467.5" y="-63.5" font-family="Helvetica,sans-Serif" font-size="10.00">DefaultFrontEnd.cpp</text>
</a>
</g>
</g>
<!-- Node3&#45;&gt;Node16 -->
<g id="edge15" class="edge">
<title>Node3&#45;&gt;Node16</title>
<path fill="none" stroke="midnightblue" d="M3332.57,-112.24C2920.3,-63.52 1930.68,-106.01 1535.5,-76 1532.29,-75.76 1529.01,-75.46 1525.69,-75.14"/>
<polygon fill="midnightblue" stroke="midnightblue" points="3332.45,-115.75 3342.8,-113.48 3333.3,-108.8 3332.45,-115.75"/>
</g>
<!-- Node17 -->
<g id="node17" class="node">
<title>Node17</title>
<g id="a_node17"><a xlink:href="CallArgumentUpdatePass_8cpp.html" target="_top" xlink:title=" ">
<polygon fill="white" stroke="black" points="1544,-56.5 1544,-75.5 1705,-75.5 1705,-56.5 1544,-56.5"/>
<text text-anchor="middle" x="1624.5" y="-63.5" font-family="Helvetica,sans-Serif" font-size="10.00">CallArgumentUpdatePass.cpp</text>
</a>
</g>
</g>
<!-- Node3&#45;&gt;Node17 -->
<g id="edge16" class="edge">
<title>Node3&#45;&gt;Node17</title>
<path fill="none" stroke="midnightblue" d="M3332.74,-112.25C2960.15,-67.86 2070.45,-97.72 1714.5,-76 1711.52,-75.82 1708.49,-75.61 1705.43,-75.39"/>
<polygon fill="midnightblue" stroke="midnightblue" points="3332.45,-115.74 3342.8,-113.49 3333.3,-108.8 3332.45,-115.74"/>
</g>
<!-- Node18 -->
<g id="node18" class="node">
<title>Node18</title>
<g id="a_node18"><a xlink:href="CallDefineUpdatePass_8cpp.html" target="_top" xlink:title=" ">
<polygon fill="white" stroke="black" points="1723.5,-56.5 1723.5,-75.5 1869.5,-75.5 1869.5,-56.5 1723.5,-56.5"/>
<text text-anchor="middle" x="1796.5" y="-63.5" font-family="Helvetica,sans-Serif" font-size="10.00">CallDefineUpdatePass.cpp</text>
</a>
</g>
</g>
<!-- Node3&#45;&gt;Node18 -->
<g id="edge17" class="edge">
<title>Node3&#45;&gt;Node18</title>
<path fill="none" stroke="midnightblue" d="M3332.83,-112.24C2690.45,-31.81 2521.19,-118.66 1879.5,-76 1876.32,-75.79 1873.07,-75.55 1869.79,-75.28"/>
<polygon fill="midnightblue" stroke="midnightblue" points="3332.44,-115.72 3342.8,-113.5 3333.32,-108.77 3332.44,-115.72"/>
</g>
<!-- Node19 -->
<g id="node19" class="node">
<title>Node19</title>
<g id="a_node19"><a xlink:href="BlockVarRenamePass_8cpp.html" target="_top" xlink:title=" ">
<polygon fill="white" stroke="black" points="1888,-56.5 1888,-75.5 2031,-75.5 2031,-56.5 1888,-56.5"/>
<text text-anchor="middle" x="1959.5" y="-63.5" font-family="Helvetica,sans-Serif" font-size="10.00">BlockVarRenamePass.cpp</text>
</a>
</g>
</g>
<!-- Node3&#45;&gt;Node19 -->
<g id="edge18" class="edge">
<title>Node3&#45;&gt;Node19</title>
<path fill="none" stroke="midnightblue" d="M3332.66,-112.21C2761.5,-39.9 2610.65,-115.54 2040.5,-76 2037.39,-75.78 2034.22,-75.54 2031.02,-75.27"/>
<polygon fill="midnightblue" stroke="midnightblue" points="3332.44,-115.71 3342.8,-113.5 3333.32,-108.77 3332.44,-115.71"/>
</g>
<!-- Node20 -->
<g id="node20" class="node">
<title>Node20</title>
<g id="a_node20"><a xlink:href="StatementPropagationPass_8cpp.html" target="_top" xlink:title=" ">
<polygon fill="white" stroke="black" points="2049,-56.5 2049,-75.5 2218,-75.5 2218,-56.5 2049,-56.5"/>
<text text-anchor="middle" x="2133.5" y="-63.5" font-family="Helvetica,sans-Serif" font-size="10.00">StatementPropagationPass.cpp</text>
</a>
</g>
</g>
<!-- Node3&#45;&gt;Node20 -->
<g id="edge19" class="edge">
<title>Node3&#45;&gt;Node20</title>
<path fill="none" stroke="midnightblue" d="M3332.66,-112.2C2844.05,-49.21 2714.95,-107.24 2227.5,-76 2224.39,-75.8 2221.23,-75.58 2218.03,-75.35"/>
<polygon fill="midnightblue" stroke="midnightblue" points="3332.43,-115.7 3342.8,-113.52 3333.33,-108.76 3332.43,-115.7"/>
</g>
<!-- Node21 -->
<g id="node21" class="node">
<title>Node21</title>
<g id="a_node21"><a xlink:href="FromSSAFormPass_8cpp.html" target="_top" xlink:title=" ">
<polygon fill="white" stroke="black" points="2236.5,-56.5 2236.5,-75.5 2364.5,-75.5 2364.5,-56.5 2236.5,-56.5"/>
<text text-anchor="middle" x="2300.5" y="-63.5" font-family="Helvetica,sans-Serif" font-size="10.00">FromSSAFormPass.cpp</text>
</a>
</g>
</g>
<!-- Node3&#45;&gt;Node21 -->
<g id="edge20" class="edge">
<title>Node3&#45;&gt;Node21</title>
<path fill="none" stroke="midnightblue" d="M3332.72,-112.2C2908.5,-56.59 2795.77,-109.89 2373.5,-76 2370.57,-75.77 2367.58,-75.5 2364.56,-75.21"/>
<polygon fill="midnightblue" stroke="midnightblue" points="3332.42,-115.69 3342.8,-113.54 3333.34,-108.75 3332.42,-115.69"/>
</g>
<!-- Node22 -->
<g id="node22" class="node">
<title>Node22</title>
<g id="a_node22"><a xlink:href="LocalAndParamMapPass_8cpp.html" target="_top" xlink:title=" ">
<polygon fill="white" stroke="black" points="2382.5,-56.5 2382.5,-75.5 2538.5,-75.5 2538.5,-56.5 2382.5,-56.5"/>
<text text-anchor="middle" x="2460.5" y="-63.5" font-family="Helvetica,sans-Serif" font-size="10.00">LocalAndParamMapPass.cpp</text>
</a>
</g>
</g>
<!-- Node3&#45;&gt;Node22 -->
<g id="edge21" class="edge">
<title>Node3&#45;&gt;Node22</title>
<path fill="none" stroke="midnightblue" d="M3332.71,-112.18C2985.73,-65.24 2893.49,-101.53 2548.5,-76 2545.28,-75.76 2542,-75.5 2538.69,-75.23"/>
<polygon fill="midnightblue" stroke="midnightblue" points="3332.41,-115.67 3342.79,-113.56 3333.36,-108.74 3332.41,-115.67"/>
</g>
<!-- Node23 -->
<g id="node23" class="node">
<title>Node23</title>
<g id="a_node23"><a xlink:href="LocalTypeAnalysisPass_8cpp.html" target="_top" xlink:title=" ">
<polygon fill="white" stroke="black" points="2557,-56.5 2557,-75.5 2706,-75.5 2706,-56.5 2557,-56.5"/>
<text text-anchor="middle" x="2631.5" y="-63.5" font-family="Helvetica,sans-Serif" font-size="10.00">LocalTypeAnalysisPass.cpp</text>
</a>
</g>
</g>
<!-- Node3&#45;&gt;Node23 -->
<g id="edge22" class="edge">
<title>Node3&#45;&gt;Node23</title>
<path fill="none" stroke="midnightblue" d="M3332.57,-112.14C3059.38,-73.55 2986.35,-98.39 2715.5,-76 2712.43,-75.75 2709.3,-75.47 2706.14,-75.19"/>
<polygon fill="midnightblue" stroke="midnightblue" points="3332.39,-115.65 3342.79,-113.6 3333.38,-108.72 3332.39,-115.65"/>
</g>
<!-- Node24 -->
<g id="node24" class="node">
<title>Node24</title>
<g id="a_node24"><a xlink:href="UnusedLocalRemovalPass_8cpp.html" target="_top" xlink:title=" ">
<polygon fill="white" stroke="black" points="2724,-56.5 2724,-75.5 2889,-75.5 2889,-56.5 2724,-56.5"/>
<text text-anchor="middle" x="2806.5" y="-63.5" font-family="Helvetica,sans-Serif" font-size="10.00">UnusedLocalRemovalPass.cpp</text>
</a>
</g>
</g>
<!-- Node3&#45;&gt;Node24 -->
<g id="edge23" class="edge">
<title>Node3&#45;&gt;Node24</title>
<path fill="none" stroke="midnightblue" d="M3332.89,-112.14C3140.12,-82.48 3088.5,-93.15 2898.5,-76 2895.46,-75.73 2892.37,-75.44 2889.25,-75.15"/>
<polygon fill="midnightblue" stroke="midnightblue" points="3332.36,-115.6 3342.78,-113.68 3333.43,-108.68 3332.36,-115.6"/>
</g>
<!-- Node25 -->
<g id="node25" class="node">
<title>Node25</title>
<g id="a_node25"><a xlink:href="UnusedParamRemovalPass_8cpp.html" target="_top" xlink:title=" ">
<polygon fill="white" stroke="black" points="2907,-56.5 2907,-75.5 3078,-75.5 3078,-56.5 2907,-56.5"/>
<text text-anchor="middle" x="2992.5" y="-63.5" font-family="Helvetica,sans-Serif" font-size="10.00">UnusedParamRemovalPass.cpp</text>
</a>
</g>
</g>
<!-- Node3&#45;&gt;Node25 -->
<g id="edge24" class="edge">
<title>Node3&#45;&gt;Node25</title>
<path fill="none" stroke="midnightblue" d="M3332.73,-112.02C3238.27,-95.16 3140.73,-83.03 3073.8,-75.51"/>
<polygon fill="midnightblue" stroke="midnightblue" points="3332.29,-115.49 3342.75,-113.83 3333.53,-108.61 3332.29,-115.49"/>
</g>
<!-- Node26 -->
<g id="node26" class="node">
<title>Node26</title>
<g id="a_node26"><a xlink:href="UnusedStatementRemovalPass_8cpp.html" target="_top" xlink:title=" ">
<polygon fill="white" stroke="black" points="3096,-56.5 3096,-75.5 3287,-75.5 3287,-56.5 3096,-56.5"/>
<text text-anchor="middle" x="3191.5" y="-63.5" font-family="Helvetica,sans-Serif" font-size="10.00">UnusedStatementRemovalPass.cpp</text>
</a>
</g>
</g>
<!-- Node3&#45;&gt;Node26 -->
<g id="edge25" class="edge">
<title>Node3&#45;&gt;Node26</title>
<path fill="none" stroke="midnightblue" d="M3334.18,-109.57C3300.04,-99.38 3250.84,-84.7 3220.05,-75.52"/>
<polygon fill="midnightblue" stroke="midnightblue" points="3333.24,-112.94 3343.82,-112.44 3335.24,-106.23 3333.24,-112.94"/>
</g>
<!-- Node27 -->
<g id="node27" class="node">
<title>Node27</title>
<g id="a_node27"><a xlink:href="AssignRemovalPass_8cpp.html" target="_top" xlink:title=" ">
<polygon fill="white" stroke="black" points="3305,-56.5 3305,-75.5 3440,-75.5 3440,-56.5 3305,-56.5"/>
<text text-anchor="middle" x="3372.5" y="-63.5" font-family="Helvetica,sans-Serif" font-size="10.00">AssignRemovalPass.cpp</text>
</a>
</g>
</g>
<!-- Node3&#45;&gt;Node27 -->
<g id="edge26" class="edge">
<title>Node3&#45;&gt;Node27</title>
<path fill="none" stroke="midnightblue" d="M3372.5,-101.8C3372.5,-92.91 3372.5,-82.78 3372.5,-75.75"/>
<polygon fill="midnightblue" stroke="midnightblue" points="3369,-102.08 3372.5,-112.08 3376,-102.08 3369,-102.08"/>
</g>
<!-- Node28 -->
<g id="node28" class="node">
<title>Node28</title>
<g id="a_node28"><a xlink:href="PreservationAnalysisPass_8cpp.html" target="_top" xlink:title=" ">
<polygon fill="white" stroke="black" points="3458.5,-56.5 3458.5,-75.5 3620.5,-75.5 3620.5,-56.5 3458.5,-56.5"/>
<text text-anchor="middle" x="3539.5" y="-63.5" font-family="Helvetica,sans-Serif" font-size="10.00">PreservationAnalysisPass.cpp</text>
</a>
</g>
</g>
<!-- Node3&#45;&gt;Node28 -->
<g id="edge27" class="edge">
<title>Node3&#45;&gt;Node28</title>
<path fill="none" stroke="midnightblue" d="M3408.67,-109.3C3440.14,-99.13 3484.99,-84.62 3513.16,-75.52"/>
<polygon fill="midnightblue" stroke="midnightblue" points="3407.4,-106.04 3398.96,-112.44 3409.55,-112.7 3407.4,-106.04"/>
</g>
<!-- Node29 -->
<g id="node29" class="node">
<title>Node29</title>
<g id="a_node29"><a xlink:href="SPPreservationPass_8cpp.html" target="_top" xlink:title=" ">
<polygon fill="white" stroke="black" points="3639,-56.5 3639,-75.5 3772,-75.5 3772,-56.5 3639,-56.5"/>
<text text-anchor="middle" x="3705.5" y="-63.5" font-family="Helvetica,sans-Serif" font-size="10.00">SPPreservationPass.cpp</text>
</a>
</g>
</g>
<!-- Node3&#45;&gt;Node29 -->
<g id="edge28" class="edge">
<title>Node3&#45;&gt;Node29</title>
<path fill="none" stroke="midnightblue" d="M3412.27,-114.55C3472.33,-104.81 3586.25,-86.34 3653.04,-75.51"/>
<polygon fill="midnightblue" stroke="midnightblue" points="3411.36,-111.15 3402.05,-116.21 3412.48,-118.06 3411.36,-111.15"/>
</g>
<!-- Node30 -->
<g id="node30" class="node">
<title>Node30</title>
<g id="a_node30"><a xlink:href="PassManager_8cpp.html" target="_top" xlink:title=" ">
<polygon fill="white" stroke="black" points="3790.5,-56.5 3790.5,-75.5 3892.5,-75.5 3892.5,-56.5 3790.5,-56.5"/>
<text text-anchor="middle" x="3841.5" y="-63.5" font-family="Helvetica,sans-Serif" font-size="10.00">PassManager.cpp</text>
</a>
</g>
</g>
<!-- Node3&#45;&gt;Node30 -->
<g id="edge29" class="edge">
<title>Node3&#45;&gt;Node30</title>
<path fill="none" stroke="midnightblue" d="M3412.2,-117.16C3485.35,-109.96 3646.29,-93.57 3781.5,-76 3784.42,-75.62 3787.43,-75.22 3790.46,-74.8"/>
<polygon fill="midnightblue" stroke="midnightblue" points="3411.67,-113.69 3402.06,-118.15 3412.35,-120.66 3411.67,-113.69"/>
</g>
<!-- Node31 -->
<g id="node31" class="node">
<title>Node31</title>
<g id="a_node31"><a xlink:href="Assign_8cpp.html" target="_top" xlink:title=" ">
<polygon fill="white" stroke="black" points="3911,-56.5 3911,-75.5 3980,-75.5 3980,-56.5 3911,-56.5"/>
<text text-anchor="middle" x="3945.5" y="-63.5" font-family="Helvetica,sans-Serif" font-size="10.00">Assign.cpp</text>
</a>
</g>
</g>
<!-- Node3&#45;&gt;Node31 -->
<g id="edge30" class="edge">
<title>Node3&#45;&gt;Node31</title>
<path fill="none" stroke="midnightblue" d="M3412.29,-119.21C3500.66,-114.88 3719.82,-102.22 3901.5,-76 3904.59,-75.55 3907.78,-75.03 3910.98,-74.46"/>
<polygon fill="midnightblue" stroke="midnightblue" points="3412,-115.72 3402.18,-119.69 3412.33,-122.71 3412,-115.72"/>
</g>
<!-- Node32 -->
<g id="node32" class="node">
<title>Node32</title>
<g id="a_node32"><a xlink:href="Statement_8cpp.html" target="_top" xlink:title=" ">
<polygon fill="white" stroke="black" points="3998.5,-56.5 3998.5,-75.5 4086.5,-75.5 4086.5,-56.5 3998.5,-56.5"/>
<text text-anchor="middle" x="4042.5" y="-63.5" font-family="Helvetica,sans-Serif" font-size="10.00">Statement.cpp</text>
</a>
</g>
</g>
<!-- Node3&#45;&gt;Node32 -->
<g id="edge31" class="edge">
<title>Node3&#45;&gt;Node32</title>
<path fill="none" stroke="midnightblue" d="M3412.21,-119.42C3510.41,-115.22 3772.43,-102.29 3989.5,-76 3992.37,-75.65 3995.33,-75.26 3998.3,-74.83"/>
<polygon fill="midnightblue" stroke="midnightblue" points="3411.98,-115.93 3402.14,-119.84 3412.28,-122.92 3411.98,-115.93"/>
</g>
<!-- Node33 -->
<g id="node33" class="node">
<title>Node33</title>
<g id="a_node33"><a xlink:href="CallGraphDotWriter_8cpp.html" target="_top" xlink:title=" ">
<polygon fill="white" stroke="black" points="4104.5,-56.5 4104.5,-75.5 4236.5,-75.5 4236.5,-56.5 4104.5,-56.5"/>
<text text-anchor="middle" x="4170.5" y="-63.5" font-family="Helvetica,sans-Serif" font-size="10.00">CallGraphDotWriter.cpp</text>
</a>
</g>
</g>
<!-- Node3&#45;&gt;Node33 -->
<g id="edge32" class="edge">
<title>Node3&#45;&gt;Node33</title>
<path fill="none" stroke="midnightblue" d="M3412.4,-119.32C3521.76,-114.54 3835.51,-99.67 4095.5,-76 4098.37,-75.74 4101.31,-75.46 4104.27,-75.16"/>
<polygon fill="midnightblue" stroke="midnightblue" points="3412,-115.83 3402.16,-119.76 3412.3,-122.83 3412,-115.83"/>
</g>
<!-- Node34 -->
<g id="node34" class="node">
<title>Node34</title>
<g id="a_node34"><a xlink:href="CFGDotWriter_8cpp.html" target="_top" xlink:title=" ">
<polygon fill="white" stroke="black" points="4254.5,-56.5 4254.5,-75.5 4358.5,-75.5 4358.5,-56.5 4254.5,-56.5"/>
<text text-anchor="middle" x="4306.5" y="-63.5" font-family="Helvetica,sans-Serif" font-size="10.00">CFGDotWriter.cpp</text>
</a>
</g>
</g>
<!-- Node3&#45;&gt;Node34 -->
<g id="edge33" class="edge">
<title>Node3&#45;&gt;Node34</title>
<path fill="none" stroke="midnightblue" d="M3412.51,-120.29C3536.49,-117.8 3925.23,-107.81 4245.5,-76 4248.38,-75.71 4251.32,-75.39 4254.3,-75.04"/>
<polygon fill="midnightblue" stroke="midnightblue" points="3412.28,-116.79 3402.35,-120.49 3412.42,-123.79 3412.28,-116.79"/>
</g>
<!-- Node35 -->
<g id="node35" class="node">
<title>Node35</title>
<g id="a_node35"><a xlink:href="ProgSymbolWriter_8cpp.html" target="_top" xlink:title=" ">
<polygon fill="white" stroke="black" points="4377,-56.5 4377,-75.5 4502,-75.5 4502,-56.5 4377,-56.5"/>
<text text-anchor="middle" x="4439.5" y="-63.5" font-family="Helvetica,sans-Serif" font-size="10.00">ProgSymbolWriter.cpp</text>
</a>
</g>
</g>
<!-- Node3&#45;&gt;Node35 -->
<g id="edge34" class="edge">
<title>Node3&#45;&gt;Node35</title>
<path fill="none" stroke="midnightblue" d="M3412.52,-120.33C3547.33,-117.82 3997.18,-107.47 4367.5,-76 4370.51,-75.74 4373.59,-75.46 4376.7,-75.15"/>
<polygon fill="midnightblue" stroke="midnightblue" points="3412.2,-116.83 3402.27,-120.51 3412.33,-123.83 3412.2,-116.83"/>
</g>
<!-- Node36 -->
<g id="node36" class="node">
<title>Node36</title>
<g id="a_node36"><a xlink:href="UseGraphWriter_8cpp.html" target="_top" xlink:title=" ">
<polygon fill="white" stroke="black" points="4520,-56.5 4520,-75.5 4635,-75.5 4635,-56.5 4520,-56.5"/>
<text text-anchor="middle" x="4577.5" y="-63.5" font-family="Helvetica,sans-Serif" font-size="10.00">UseGraphWriter.cpp</text>
</a>
</g>
</g>
<!-- Node3&#45;&gt;Node36 -->
<g id="edge35" class="edge">
<title>Node3&#45;&gt;Node36</title>
<path fill="none" stroke="midnightblue" d="M3412.33,-120.81C3558.92,-119.81 4082.13,-113.67 4511.5,-76 4514.26,-75.76 4517.09,-75.48 4519.94,-75.18"/>
<polygon fill="midnightblue" stroke="midnightblue" points="3412.02,-117.31 3402.04,-120.87 3412.07,-124.31 3412.02,-117.31"/>
</g>
<!-- Node37 -->
<g id="node37" class="node">
<title>Node37</title>
<g id="a_node37"><a xlink:href="ExpSSAXformer_8cpp.html" target="_top" xlink:title=" ">
<polygon fill="white" stroke="black" points="4653.5,-56.5 4653.5,-75.5 4767.5,-75.5 4767.5,-56.5 4653.5,-56.5"/>
<text text-anchor="middle" x="4710.5" y="-63.5" font-family="Helvetica,sans-Serif" font-size="10.00">ExpSSAXformer.cpp</text>
</a>
</g>
</g>
<!-- Node3&#45;&gt;Node37 -->
<g id="edge36" class="edge">
<title>Node3&#45;&gt;Node37</title>
<path fill="none" stroke="midnightblue" d="M3412.27,-121.04C3569.16,-120.9 4160.25,-117.48 4644.5,-76 4647.38,-75.75 4650.33,-75.47 4653.3,-75.16"/>
<polygon fill="midnightblue" stroke="midnightblue" points="3412.15,-117.54 3402.15,-121.05 3412.15,-124.54 3412.15,-117.54"/>
</g>
<!-- Node38 -->
<g id="node38" class="node">
<title>Node38</title>
<g id="a_node38"><a xlink:href="CommandlineDriver_8h.html" target="_top" xlink:title=" ">
<polygon fill="white" stroke="red" points="4785.5,-56.5 4785.5,-75.5 4909.5,-75.5 4909.5,-56.5 4785.5,-56.5"/>
<text text-anchor="middle" x="4847.5" y="-63.5" font-family="Helvetica,sans-Serif" font-size="10.00">CommandlineDriver.h</text>
</a>
</g>
</g>
<!-- Node3&#45;&gt;Node38 -->
<g id="edge37" class="edge">
<title>Node3&#45;&gt;Node38</title>
<path fill="none" stroke="midnightblue" d="M3412.48,-121.09C3579.49,-121.19 4237.68,-118.69 4776.5,-76 4779.35,-75.77 4782.26,-75.52 4785.2,-75.23"/>
<polygon fill="midnightblue" stroke="midnightblue" points="3412.2,-117.59 3402.2,-121.08 3412.19,-124.59 3412.2,-117.59"/>
</g>
<!-- Node41 -->
<g id="node39" class="node">
<title>Node41</title>
<g id="a_node39"><a xlink:href="Console_8cpp.html" target="_top" xlink:title=" ">
<polygon fill="white" stroke="black" points="4927.5,-56.5 4927.5,-75.5 5003.5,-75.5 5003.5,-56.5 4927.5,-56.5"/>
<text text-anchor="middle" x="4965.5" y="-63.5" font-family="Helvetica,sans-Serif" font-size="10.00">Console.cpp</text>
</a>
</g>
</g>
<!-- Node3&#45;&gt;Node41 -->
<g id="edge38" class="edge">
<title>Node3&#45;&gt;Node41</title>
<path fill="none" stroke="midnightblue" d="M3412.26,-120.71C3623.28,-119.01 4613.85,-109.38 4918.5,-76 4921.39,-75.68 4924.37,-75.28 4927.36,-74.83"/>
<polygon fill="midnightblue" stroke="midnightblue" points="3412.22,-117.21 3402.25,-120.78 3412.28,-124.21 3412.22,-117.21"/>
</g>
<!-- Node42 -->
<g id="node40" class="node">
<title>Node42</title>
<g id="a_node40"><a xlink:href="Decompiler_8h.html" target="_top" xlink:title=" ">
<polygon fill="white" stroke="red" points="5021.5,-56.5 5021.5,-75.5 5103.5,-75.5 5103.5,-56.5 5021.5,-56.5"/>
<text text-anchor="middle" x="5062.5" y="-63.5" font-family="Helvetica,sans-Serif" font-size="10.00">Decompiler.h</text>
</a>
</g>
</g>
<!-- Node3&#45;&gt;Node42 -->
<g id="edge39" class="edge">
<title>Node3&#45;&gt;Node42</title>
<path fill="none" stroke="midnightblue" d="M3412.2,-120.72C3630.63,-119.08 4687.92,-109.47 5012.5,-76 5015.4,-75.7 5018.37,-75.33 5021.37,-74.91"/>
<polygon fill="midnightblue" stroke="midnightblue" points="3412.13,-117.22 3402.15,-120.8 3412.18,-124.22 3412.13,-117.22"/>
</g>
<!-- Node46 -->
<g id="node41" class="node">
<title>Node46</title>
<g id="a_node41"><a xlink:href="SettingsDlg_8cpp.html" target="_top" xlink:title=" ">
<polygon fill="white" stroke="black" points="5050,-0.5 5050,-19.5 5143,-19.5 5143,-0.5 5050,-0.5"/>
<text text-anchor="middle" x="5096.5" y="-7.5" font-family="Helvetica,sans-Serif" font-size="10.00">SettingsDlg.cpp</text>
</a>
</g>
</g>
<!-- Node3&#45;&gt;Node46 -->
<g id="edge41" class="edge">
<title>Node3&#45;&gt;Node46</title>
<path fill="none" stroke="midnightblue" d="M3412.49,-120.73C3669.74,-118.91 5081.83,-107.47 5112.5,-76 5127.42,-60.69 5112.63,-33.81 5103.13,-19.9"/>
<polygon fill="midnightblue" stroke="midnightblue" points="3412.11,-117.23 3402.13,-120.8 3412.16,-124.23 3412.11,-117.23"/>
</g>
<!-- Node47 -->
<g id="node42" class="node">
<title>Node47</title>
<g id="a_node42"><a xlink:href="CCodeGenerator_8cpp.html" target="_top" xlink:title=" ">
<polygon fill="white" stroke="black" points="5160,-56.5 5160,-75.5 5277,-75.5 5277,-56.5 5160,-56.5"/>
<text text-anchor="middle" x="5218.5" y="-63.5" font-family="Helvetica,sans-Serif" font-size="10.00">CCodeGenerator.cpp</text>
</a>
</g>
</g>
<!-- Node3&#45;&gt;Node47 -->
<g id="edge42" class="edge">
<title>Node3&#45;&gt;Node47</title>
<path fill="none" stroke="midnightblue" d="M3412.43,-120.52C3641.65,-117.66 4792.22,-102.2 5145.5,-76 5150.21,-75.65 5155.09,-75.21 5159.98,-74.72"/>
<polygon fill="midnightblue" stroke="midnightblue" points="3412.17,-117.02 3402.22,-120.64 3412.26,-124.02 3412.17,-117.02"/>
</g>
<!-- Node48 -->
<g id="node43" class="node">
<title>Node48</title>
<g id="a_node43"><a xlink:href="CapstoneDecoder_8cpp.html" target="_top" xlink:title=" ">
<polygon fill="white" stroke="black" points="5295,-56.5 5295,-75.5 5418,-75.5 5418,-56.5 5295,-56.5"/>
<text text-anchor="middle" x="5356.5" y="-63.5" font-family="Helvetica,sans-Serif" font-size="10.00">CapstoneDecoder.cpp</text>
</a>
</g>
</g>
<!-- Node3&#45;&gt;Node48 -->
<g id="edge43" class="edge">
<title>Node3&#45;&gt;Node48</title>
<path fill="none" stroke="midnightblue" d="M3412.51,-120.63C3652.51,-118.32 4903.57,-105.04 5286.5,-76 5289.19,-75.8 5291.93,-75.56 5294.7,-75.3"/>
<polygon fill="midnightblue" stroke="midnightblue" points="3412.14,-117.13 3402.17,-120.73 3412.2,-124.13 3412.14,-117.13"/>
</g>
<!-- Node49 -->
<g id="node44" class="node">
<title>Node49</title>
<g id="a_node44"><a xlink:href="CapstoneX86Decoder_8cpp.html" target="_top" xlink:title=" ">
<polygon fill="white" stroke="black" points="5436.5,-56.5 5436.5,-75.5 5578.5,-75.5 5578.5,-56.5 5436.5,-56.5"/>
<text text-anchor="middle" x="5507.5" y="-63.5" font-family="Helvetica,sans-Serif" font-size="10.00">CapstoneX86Decoder.cpp</text>
</a>
</g>
</g>
<!-- Node3&#45;&gt;Node49 -->
<g id="edge44" class="edge">
<title>Node3&#45;&gt;Node49</title>
<path fill="none" stroke="midnightblue" d="M3412.27,-120.62C3661.82,-118.16 5014.4,-103.7 5427.5,-76 5430.43,-75.8 5433.41,-75.58 5436.43,-75.33"/>
<polygon fill="midnightblue" stroke="midnightblue" points="3412.17,-117.12 3402.21,-120.72 3412.24,-124.12 3412.17,-117.12"/>
</g>
<!-- Node50 -->
<g id="node45" class="node">
<title>Node50</title>
<g id="a_node45"><a xlink:href="ST20Decoder_8cpp.html" target="_top" xlink:title=" ">
<polygon fill="white" stroke="black" points="5597,-56.5 5597,-75.5 5698,-75.5 5698,-56.5 5597,-56.5"/>
<text text-anchor="middle" x="5647.5" y="-63.5" font-family="Helvetica,sans-Serif" font-size="10.00">ST20Decoder.cpp</text>
</a>
</g>
</g>
<!-- Node3&#45;&gt;Node50 -->
<g id="edge45" class="edge">
<title>Node3&#45;&gt;Node50</title>
<path fill="none" stroke="midnightblue" d="M3412.46,-120.89C3673.7,-120.08 5141.21,-113.85 5587.5,-76 5590.54,-75.74 5593.67,-75.43 5596.81,-75.07"/>
<polygon fill="midnightblue" stroke="midnightblue" points="3412.29,-117.39 3402.3,-120.92 3412.31,-124.39 3412.29,-117.39"/>
</g>
<!-- Node51 -->
<g id="node46" class="node">
<title>Node51</title>
<g id="a_node46"><a xlink:href="PPCFrontEnd_8cpp.html" target="_top" xlink:title=" ">
<polygon fill="white" stroke="black" points="5716.5,-56.5 5716.5,-75.5 5814.5,-75.5 5814.5,-56.5 5716.5,-56.5"/>
<text text-anchor="middle" x="5765.5" y="-63.5" font-family="Helvetica,sans-Serif" font-size="10.00">PPCFrontEnd.cpp</text>
</a>
</g>
</g>
<!-- Node3&#45;&gt;Node51 -->
<g id="edge46" class="edge">
<title>Node3&#45;&gt;Node51</title>
<path fill="none" stroke="midnightblue" d="M3412.07,-120.97C3680.3,-120.64 5235.64,-116.97 5707.5,-76 5710.34,-75.75 5713.26,-75.45 5716.19,-75.11"/>
<polygon fill="midnightblue" stroke="midnightblue" points="3412.01,-117.47 3402.01,-120.98 3412.02,-124.47 3412.01,-117.47"/>
</g>
<!-- Node52 -->
<g id="node47" class="node">
<title>Node52</title>
<g id="a_node47"><a xlink:href="ST20FrontEnd_8cpp.html" target="_top" xlink:title=" ">
<polygon fill="white" stroke="black" points="5832.5,-56.5 5832.5,-75.5 5936.5,-75.5 5936.5,-56.5 5832.5,-56.5"/>
<text text-anchor="middle" x="5884.5" y="-63.5" font-family="Helvetica,sans-Serif" font-size="10.00">ST20FrontEnd.cpp</text>
</a>
</g>
</g>
<!-- Node3&#45;&gt;Node52 -->
<g id="edge47" class="edge">
<title>Node3&#45;&gt;Node52</title>
<path fill="none" stroke="midnightblue" d="M3412.7,-120.97C3690.39,-120.64 5327.25,-116.99 5823.5,-76 5826.38,-75.76 5829.33,-75.47 5832.31,-75.15"/>
<polygon fill="midnightblue" stroke="midnightblue" points="3412.3,-117.47 3402.31,-120.98 3412.31,-124.47 3412.3,-117.47"/>
</g>
<!-- Node53 -->
<g id="node48" class="node">
<title>Node53</title>
<g id="a_node48"><a xlink:href="X86FrontEnd_8cpp.html" target="_top" xlink:title=" ">
<polygon fill="white" stroke="black" points="5954.5,-56.5 5954.5,-75.5 6052.5,-75.5 6052.5,-56.5 5954.5,-56.5"/>
<text text-anchor="middle" x="6003.5" y="-63.5" font-family="Helvetica,sans-Serif" font-size="10.00">X86FrontEnd.cpp</text>
</a>
</g>
</g>
<!-- Node3&#45;&gt;Node53 -->
<g id="edge48" class="edge">
<title>Node3&#45;&gt;Node53</title>
<path fill="none" stroke="midnightblue" d="M3412.46,-121.05C3697.28,-121.29 5423.34,-120.87 5945.5,-76 5948.34,-75.76 5951.26,-75.46 5954.19,-75.12"/>
<polygon fill="midnightblue" stroke="midnightblue" points="3412.19,-117.55 3402.19,-121.04 3412.19,-124.55 3412.19,-117.55"/>
</g>
<!-- Node54 -->
<g id="node49" class="node">
<title>Node54</title>
<g id="a_node49"><a xlink:href="DFATypeRecovery_8cpp.html" target="_top" xlink:title=" ">
<polygon fill="white" stroke="black" points="6070.5,-56.5 6070.5,-75.5 6192.5,-75.5 6192.5,-56.5 6070.5,-56.5"/>
<text text-anchor="middle" x="6131.5" y="-63.5" font-family="Helvetica,sans-Serif" font-size="10.00">DFATypeRecovery.cpp</text>
</a>
</g>
</g>
<!-- Node3&#45;&gt;Node54 -->
<g id="edge49" class="edge">
<title>Node3&#45;&gt;Node54</title>
<path fill="none" stroke="midnightblue" d="M3412.42,-120.94C3704.34,-120.43 5514.1,-115.65 6061.5,-76 6064.43,-75.79 6067.43,-75.54 6070.46,-75.25"/>
<polygon fill="midnightblue" stroke="midnightblue" points="3412.29,-117.44 3402.29,-120.96 3412.3,-124.44 3412.29,-117.44"/>
</g>
<!-- Node55 -->
<g id="node50" class="node">
<title>Node55</title>
<g id="a_node50"><a xlink:href="TypeRecovery_8cpp.html" target="_top" xlink:title=" ">
<polygon fill="white" stroke="black" points="6210.5,-56.5 6210.5,-75.5 6314.5,-75.5 6314.5,-56.5 6210.5,-56.5"/>
<text text-anchor="middle" x="6262.5" y="-63.5" font-family="Helvetica,sans-Serif" font-size="10.00">TypeRecovery.cpp</text>
</a>
</g>
</g>
<!-- Node3&#45;&gt;Node55 -->
<g id="edge50" class="edge">
<title>Node3&#45;&gt;Node55</title>
<path fill="none" stroke="midnightblue" d="M3412.59,-121.08C3713.67,-121.59 5624.79,-122.93 6201.5,-76 6204.38,-75.77 6207.33,-75.48 6210.31,-75.16"/>
<polygon fill="midnightblue" stroke="midnightblue" points="3412.17,-117.58 3402.17,-121.06 3412.16,-124.58 3412.17,-117.58"/>
</g>
<!-- Node42&#45;&gt;Node46 -->
<g id="edge40" class="edge">
<title>Node42&#45;&gt;Node46</title>
<path fill="none" stroke="midnightblue" d="M5073.48,-47.57C5079.33,-38.27 5086.27,-27.25 5090.99,-19.75"/>
<polygon fill="midnightblue" stroke="midnightblue" points="5070.48,-45.76 5068.11,-56.08 5076.4,-49.49 5070.48,-45.76"/>
</g>
</g>
</svg>
