<?xml version="1.0" encoding="UTF-8" standalone="no"?>
<!DOCTYPE svg PUBLIC "-//W3C//DTD SVG 1.1//EN"
 "http://www.w3.org/Graphics/SVG/1.1/DTD/svg11.dtd">
<!-- Generated by graphviz version 2.43.0 (0)
 -->
<!-- Title: PluginManager.h Pages: 1 -->
<svg width="1919pt" height="654pt"
 viewBox="0.00 0.00 1918.87 654.00" xmlns="http://www.w3.org/2000/svg" xmlns:xlink="http://www.w3.org/1999/xlink">
<g id="graph0" class="graph" transform="scale(1 1) rotate(0) translate(4 650)">
<title>PluginManager.h</title>
<polygon fill="white" stroke="transparent" points="-4,4 -4,-650 1914.87,-650 1914.87,4 -4,4"/>
<!-- Node1 -->
<g id="node1" class="node">
<title>Node1</title>
<g id="a_node1"><a xlink:title=" ">
<polygon fill="#bfbfbf" stroke="black" points="362,-626.5 362,-645.5 460,-645.5 460,-626.5 362,-626.5"/>
<text text-anchor="middle" x="411" y="-633.5" font-family="Helvetica,sans-Serif" font-size="10.00">PluginManager.h</text>
</a>
</g>
</g>
<!-- Node2 -->
<g id="node2" class="node">
<title>Node2</title>
<g id="a_node2"><a xlink:href="BoomerangAPI_8h.html" target="_top" xlink:title=" ">
<polygon fill="white" stroke="black" points="831.5,-56.5 831.5,-86.5 986.5,-86.5 986.5,-56.5 831.5,-56.5"/>
<text text-anchor="start" x="839.5" y="-74.5" font-family="Helvetica,sans-Serif" font-size="10.00">boomerang/core/Boomerang</text>
<text text-anchor="middle" x="909" y="-63.5" font-family="Helvetica,sans-Serif" font-size="10.00">API.h</text>
</a>
</g>
</g>
<!-- Node1&#45;&gt;Node2 -->
<g id="edge1" class="edge">
<title>Node1&#45;&gt;Node2</title>
<path fill="none" stroke="midnightblue" d="M361.83,-630.34C252.74,-618.64 0,-583.44 0,-508.5 0,-508.5 0,-508.5 0,-188 0,-112.07 84.05,-140.22 158,-123 281.79,-94.18 651.08,-80 821.3,-74.85"/>
<polygon fill="midnightblue" stroke="midnightblue" points="821.58,-78.35 831.48,-74.55 821.38,-71.35 821.58,-78.35"/>
</g>
<!-- Node3 -->
<g id="node3" class="node">
<title>Node3</title>
<g id="a_node3"><a xlink:href="Plugin_8h.html" target="_top" xlink:title=" ">
<polygon fill="white" stroke="black" points="757.5,-559.5 757.5,-589.5 886.5,-589.5 886.5,-559.5 757.5,-559.5"/>
<text text-anchor="start" x="765.5" y="-577.5" font-family="Helvetica,sans-Serif" font-size="10.00">boomerang/core/plugin</text>
<text text-anchor="middle" x="822" y="-566.5" font-family="Helvetica,sans-Serif" font-size="10.00">/Plugin.h</text>
</a>
</g>
</g>
<!-- Node1&#45;&gt;Node3 -->
<g id="edge2" class="edge">
<title>Node1&#45;&gt;Node3</title>
<path fill="none" stroke="midnightblue" d="M460.17,-627.88C531.42,-617.57 663.95,-598.38 747.32,-586.31"/>
<polygon fill="midnightblue" stroke="midnightblue" points="747.84,-589.77 757.23,-584.88 746.84,-582.85 747.84,-589.77"/>
</g>
<!-- Node4 -->
<g id="node4" class="node">
<title>Node4</title>
<g id="a_node4"><a xlink:href="PluginHandle_8h.html" target="_top" xlink:title=" ">
<polygon fill="white" stroke="black" points="1577.5,-492.5 1577.5,-522.5 1706.5,-522.5 1706.5,-492.5 1577.5,-492.5"/>
<text text-anchor="start" x="1585.5" y="-510.5" font-family="Helvetica,sans-Serif" font-size="10.00">boomerang/core/plugin</text>
<text text-anchor="middle" x="1642" y="-499.5" font-family="Helvetica,sans-Serif" font-size="10.00">/PluginHandle.h</text>
</a>
</g>
</g>
<!-- Node3&#45;&gt;Node4 -->
<g id="edge3" class="edge">
<title>Node3&#45;&gt;Node4</title>
<path fill="none" stroke="midnightblue" d="M886.66,-571.56C1015.7,-567.15 1314.15,-554.21 1563,-523 1564.47,-522.82 1565.95,-522.62 1567.45,-522.42"/>
<polygon fill="midnightblue" stroke="midnightblue" points="1568.03,-525.87 1577.42,-520.97 1567.02,-518.94 1568.03,-525.87"/>
</g>
<!-- Node5 -->
<g id="node5" class="node">
<title>Node5</title>
<g id="a_node5"><a xlink:href="PluginType_8h.html" target="_top" xlink:title=" ">
<polygon fill="white" stroke="black" points="376.5,-492.5 376.5,-522.5 505.5,-522.5 505.5,-492.5 376.5,-492.5"/>
<text text-anchor="start" x="384.5" y="-510.5" font-family="Helvetica,sans-Serif" font-size="10.00">boomerang/core/plugin</text>
<text text-anchor="middle" x="441" y="-499.5" font-family="Helvetica,sans-Serif" font-size="10.00">/PluginType.h</text>
</a>
</g>
</g>
<!-- Node3&#45;&gt;Node5 -->
<g id="edge4" class="edge">
<title>Node3&#45;&gt;Node5</title>
<path fill="none" stroke="midnightblue" d="M757.37,-562.47C690.49,-551.06 586.15,-533.26 515.76,-521.25"/>
<polygon fill="midnightblue" stroke="midnightblue" points="516.08,-517.76 505.63,-519.53 514.9,-524.66 516.08,-517.76"/>
</g>
<!-- Node13 -->
<g id="node13" class="node">
<title>Node13</title>
<g id="a_node13"><a xlink:title=" ">
<polygon fill="white" stroke="#bfbfbf" points="1439.5,-123.5 1439.5,-142.5 1492.5,-142.5 1492.5,-123.5 1439.5,-123.5"/>
<text text-anchor="middle" x="1466" y="-130.5" font-family="Helvetica,sans-Serif" font-size="10.00">QString</text>
</a>
</g>
</g>
<!-- Node3&#45;&gt;Node13 -->
<g id="edge81" class="edge">
<title>Node3&#45;&gt;Node13</title>
<path fill="none" stroke="midnightblue" d="M886.52,-569.04C1064.44,-555.89 1549,-513.94 1549,-447 1549,-447 1549,-447 1549,-249.5 1549,-217.05 1548.61,-205.59 1530,-179 1520.79,-165.84 1506.42,-155.23 1493.64,-147.63"/>
<polygon fill="midnightblue" stroke="midnightblue" points="1495.14,-144.46 1484.7,-142.63 1491.72,-150.57 1495.14,-144.46"/>
</g>
<!-- Node15 -->
<g id="node15" class="node">
<title>Node15</title>
<g id="a_node15"><a xlink:title=" ">
<polygon fill="white" stroke="#bfbfbf" points="789,-179.5 789,-198.5 841,-198.5 841,-179.5 789,-179.5"/>
<text text-anchor="middle" x="815" y="-186.5" font-family="Helvetica,sans-Serif" font-size="10.00">cassert</text>
</a>
</g>
</g>
<!-- Node3&#45;&gt;Node15 -->
<g id="edge82" class="edge">
<title>Node3&#45;&gt;Node15</title>
<path fill="none" stroke="midnightblue" d="M822,-559.46C822,-536.12 822,-487.85 822,-447 822,-447 822,-447 822,-316.5 822,-278.14 818.75,-233.35 816.68,-208.68"/>
<polygon fill="midnightblue" stroke="midnightblue" points="820.16,-208.24 815.8,-198.58 813.18,-208.85 820.16,-208.24"/>
</g>
<!-- Node6 -->
<g id="node6" class="node">
<title>Node6</title>
<g id="a_node6"><a xlink:href="ICodeGenerator_8h.html" target="_top" xlink:title=" ">
<polygon fill="white" stroke="black" points="430,-375 430,-394 606,-394 606,-375 430,-375"/>
<text text-anchor="middle" x="518" y="-382" font-family="Helvetica,sans-Serif" font-size="10.00">boomerang/ifc/ICodeGenerator.h</text>
</a>
</g>
</g>
<!-- Node5&#45;&gt;Node6 -->
<g id="edge5" class="edge">
<title>Node5&#45;&gt;Node6</title>
<path fill="none" stroke="midnightblue" d="M450.14,-492.14C464.35,-469.81 491.72,-426.8 507,-402.79"/>
<polygon fill="midnightblue" stroke="midnightblue" points="510.14,-404.37 512.56,-394.05 504.24,-400.61 510.14,-404.37"/>
</g>
<!-- Node9 -->
<g id="node9" class="node">
<title>Node9</title>
<g id="a_node9"><a xlink:href="IDecoder_8h.html" target="_top" xlink:title=" ">
<polygon fill="white" stroke="black" points="1221.5,-436.5 1221.5,-455.5 1364.5,-455.5 1364.5,-436.5 1221.5,-436.5"/>
<text text-anchor="middle" x="1293" y="-443.5" font-family="Helvetica,sans-Serif" font-size="10.00">boomerang/ifc/IDecoder.h</text>
</a>
</g>
</g>
<!-- Node5&#45;&gt;Node9 -->
<g id="edge9" class="edge">
<title>Node5&#45;&gt;Node9</title>
<path fill="none" stroke="midnightblue" d="M505.74,-501.98C658.72,-491.3 1042.37,-464.5 1211.15,-452.72"/>
<polygon fill="midnightblue" stroke="midnightblue" points="1211.48,-456.2 1221.22,-452.01 1211,-449.22 1211.48,-456.2"/>
</g>
<!-- Node31 -->
<g id="node31" class="node">
<title>Node31</title>
<g id="a_node31"><a xlink:href="IFileLoader_8h.html" target="_top" xlink:title=" ">
<polygon fill="white" stroke="black" points="642,-375 642,-394 794,-394 794,-375 642,-375"/>
<text text-anchor="middle" x="718" y="-382" font-family="Helvetica,sans-Serif" font-size="10.00">boomerang/ifc/IFileLoader.h</text>
</a>
</g>
</g>
<!-- Node5&#45;&gt;Node31 -->
<g id="edge55" class="edge">
<title>Node5&#45;&gt;Node31</title>
<path fill="none" stroke="midnightblue" d="M473.32,-492.38C527.75,-468.61 636.87,-420.94 688.99,-398.17"/>
<polygon fill="midnightblue" stroke="midnightblue" points="690.57,-401.3 698.33,-394.09 687.77,-394.89 690.57,-401.3"/>
</g>
<!-- Node39 -->
<g id="node39" class="node">
<title>Node39</title>
<g id="a_node39"><a xlink:href="IFrontEnd_8h.html" target="_top" xlink:title=" ">
<polygon fill="white" stroke="black" points="262.5,-241 262.5,-260 407.5,-260 407.5,-241 262.5,-241"/>
<text text-anchor="middle" x="335" y="-248" font-family="Helvetica,sans-Serif" font-size="10.00">boomerang/ifc/IFrontEnd.h</text>
</a>
</g>
</g>
<!-- Node5&#45;&gt;Node39 -->
<g id="edge70" class="edge">
<title>Node5&#45;&gt;Node39</title>
<path fill="none" stroke="midnightblue" d="M435.15,-492.43C417.15,-449.13 362.62,-317.95 342.53,-269.63"/>
<polygon fill="midnightblue" stroke="midnightblue" points="345.67,-268.05 338.6,-260.16 339.21,-270.73 345.67,-268.05"/>
</g>
<!-- Node40 -->
<g id="node40" class="node">
<title>Node40</title>
<g id="a_node40"><a xlink:href="ILogSink_8h.html" target="_top" xlink:title=" ">
<polygon fill="white" stroke="black" points="28,-308 28,-327 168,-327 168,-308 28,-308"/>
<text text-anchor="middle" x="98" y="-315" font-family="Helvetica,sans-Serif" font-size="10.00">boomerang/ifc/ILogSink.h</text>
</a>
</g>
</g>
<!-- Node5&#45;&gt;Node40 -->
<g id="edge74" class="edge">
<title>Node5&#45;&gt;Node40</title>
<path fill="none" stroke="midnightblue" d="M376.3,-506.34C288.16,-504.6 137.26,-495.72 102,-456 72.76,-423.06 83.58,-366.21 91.91,-337"/>
<polygon fill="midnightblue" stroke="midnightblue" points="95.31,-337.86 94.89,-327.27 88.61,-335.81 95.31,-337.86"/>
</g>
<!-- Node41 -->
<g id="node41" class="node">
<title>Node41</title>
<g id="a_node41"><a xlink:href="ISymbolProvider_8h.html" target="_top" xlink:title=" ">
<polygon fill="white" stroke="black" points="273.5,-179.5 273.5,-198.5 452.5,-198.5 452.5,-179.5 273.5,-179.5"/>
<text text-anchor="middle" x="363" y="-186.5" font-family="Helvetica,sans-Serif" font-size="10.00">boomerang/ifc/ISymbolProvider.h</text>
</a>
</g>
</g>
<!-- Node5&#45;&gt;Node41 -->
<g id="edge76" class="edge">
<title>Node5&#45;&gt;Node41</title>
<path fill="none" stroke="midnightblue" d="M424.09,-492.42C384.76,-458.44 287.87,-367.22 253,-266 248.51,-252.97 245.32,-246.44 253,-235 263.92,-218.73 281.87,-208.34 300.14,-201.71"/>
<polygon fill="midnightblue" stroke="midnightblue" points="301.28,-205.02 309.68,-198.57 299.09,-198.37 301.28,-205.02"/>
</g>
<!-- Node42 -->
<g id="node42" class="node">
<title>Node42</title>
<g id="a_node42"><a xlink:href="ITypeRecovery_8h.html" target="_top" xlink:title=" ">
<polygon fill="white" stroke="black" points="111.5,-436.5 111.5,-455.5 280.5,-455.5 280.5,-436.5 111.5,-436.5"/>
<text text-anchor="middle" x="196" y="-443.5" font-family="Helvetica,sans-Serif" font-size="10.00">boomerang/ifc/ITypeRecovery.h</text>
</a>
</g>
</g>
<!-- Node5&#45;&gt;Node42 -->
<g id="edge79" class="edge">
<title>Node5&#45;&gt;Node42</title>
<path fill="none" stroke="midnightblue" d="M383.25,-492.47C339.69,-481.9 280.8,-467.59 240.78,-457.87"/>
<polygon fill="midnightblue" stroke="midnightblue" points="241.57,-454.47 231.03,-455.51 239.92,-461.27 241.57,-454.47"/>
</g>
<!-- Node7 -->
<g id="node7" class="node">
<title>Node7</title>
<g id="a_node7"><a xlink:href="ExpHelp_8h.html" target="_top" xlink:title=" ">
<polygon fill="white" stroke="black" points="947,-179.5 947,-198.5 1109,-198.5 1109,-179.5 947,-179.5"/>
<text text-anchor="middle" x="1028" y="-186.5" font-family="Helvetica,sans-Serif" font-size="10.00">boomerang/ssl/exp/ExpHelp.h</text>
</a>
</g>
</g>
<!-- Node6&#45;&gt;Node7 -->
<g id="edge6" class="edge">
<title>Node6&#45;&gt;Node7</title>
<path fill="none" stroke="midnightblue" d="M526.48,-374.82C556.33,-344.35 655.68,-243.71 674,-235 685.97,-229.31 840.11,-211.12 941.01,-199.68"/>
<polygon fill="midnightblue" stroke="midnightblue" points="941.67,-203.13 951.21,-198.53 940.88,-196.18 941.67,-203.13"/>
</g>
<!-- Node7&#45;&gt;Node2 -->
<g id="edge7" class="edge">
<title>Node7&#45;&gt;Node2</title>
<path fill="none" stroke="midnightblue" d="M1019.06,-179.32C1000.46,-161.27 957.16,-119.25 930.76,-93.62"/>
<polygon fill="midnightblue" stroke="midnightblue" points="933.08,-91 923.47,-86.55 928.21,-96.02 933.08,-91"/>
</g>
<!-- Node8 -->
<g id="node8" class="node">
<title>Node8</title>
<g id="a_node8"><a xlink:title=" ">
<polygon fill="white" stroke="#bfbfbf" points="1123,-123.5 1123,-142.5 1181,-142.5 1181,-123.5 1123,-123.5"/>
<text text-anchor="middle" x="1152" y="-130.5" font-family="Helvetica,sans-Serif" font-size="10.00">memory</text>
</a>
</g>
</g>
<!-- Node7&#45;&gt;Node8 -->
<g id="edge8" class="edge">
<title>Node7&#45;&gt;Node8</title>
<path fill="none" stroke="midnightblue" d="M1047.65,-179.44C1067.96,-170.6 1099.9,-156.69 1123.1,-146.59"/>
<polygon fill="midnightblue" stroke="midnightblue" points="1124.67,-149.72 1132.44,-142.52 1121.88,-143.3 1124.67,-149.72"/>
</g>
<!-- Node10 -->
<g id="node10" class="node">
<title>Node10</title>
<g id="a_node10"><a xlink:href="LiftedInstruction_8h.html" target="_top" xlink:title=" ">
<polygon fill="white" stroke="black" points="1121,-369.5 1121,-399.5 1237,-399.5 1237,-369.5 1121,-369.5"/>
<text text-anchor="start" x="1129" y="-387.5" font-family="Helvetica,sans-Serif" font-size="10.00">boomerang/frontend</text>
<text text-anchor="middle" x="1179" y="-376.5" font-family="Helvetica,sans-Serif" font-size="10.00">/LiftedInstruction.h</text>
</a>
</g>
</g>
<!-- Node9&#45;&gt;Node10 -->
<g id="edge10" class="edge">
<title>Node9&#45;&gt;Node10</title>
<path fill="none" stroke="midnightblue" d="M1276.67,-436.48C1260.58,-428.08 1235.47,-414.97 1214.74,-404.15"/>
<polygon fill="midnightblue" stroke="midnightblue" points="1216.35,-401.05 1205.87,-399.52 1213.11,-407.25 1216.35,-401.05"/>
</g>
<!-- Node26 -->
<g id="node26" class="node">
<title>Node26</title>
<g id="a_node26"><a xlink:href="MachineInstruction_8h.html" target="_top" xlink:title=" ">
<polygon fill="white" stroke="black" points="1577,-235.5 1577,-265.5 1699,-265.5 1699,-235.5 1577,-235.5"/>
<text text-anchor="start" x="1585" y="-253.5" font-family="Helvetica,sans-Serif" font-size="10.00">boomerang/frontend</text>
<text text-anchor="middle" x="1638" y="-242.5" font-family="Helvetica,sans-Serif" font-size="10.00">/MachineInstruction.h</text>
</a>
</g>
</g>
<!-- Node9&#45;&gt;Node26 -->
<g id="edge39" class="edge">
<title>Node9&#45;&gt;Node26</title>
<path fill="none" stroke="midnightblue" d="M1308.27,-436.44C1360.17,-407.33 1530.61,-311.73 1603.95,-270.6"/>
<polygon fill="midnightblue" stroke="midnightblue" points="1605.8,-273.57 1612.81,-265.63 1602.37,-267.47 1605.8,-273.57"/>
</g>
<!-- Node27 -->
<g id="node27" class="node">
<title>Node27</title>
<g id="a_node27"><a xlink:href="Register_8h.html" target="_top" xlink:title=" ">
<polygon fill="white" stroke="black" points="1745.5,-179.5 1745.5,-198.5 1886.5,-198.5 1886.5,-179.5 1745.5,-179.5"/>
<text text-anchor="middle" x="1816" y="-186.5" font-family="Helvetica,sans-Serif" font-size="10.00">boomerang/ssl/Register.h</text>
</a>
</g>
</g>
<!-- Node9&#45;&gt;Node27 -->
<g id="edge54" class="edge">
<title>Node9&#45;&gt;Node27</title>
<path fill="none" stroke="midnightblue" d="M1318.24,-436.35C1384.44,-413.2 1567.61,-346.11 1708,-266 1740.76,-247.31 1776.01,-221.26 1797.03,-205.02"/>
<polygon fill="midnightblue" stroke="midnightblue" points="1799.38,-207.63 1805.11,-198.72 1795.07,-202.11 1799.38,-207.63"/>
</g>
<!-- Node11 -->
<g id="node11" class="node">
<title>Node11</title>
<g id="a_node11"><a xlink:href="GraphNode_8h.html" target="_top" xlink:title=" ">
<polygon fill="white" stroke="black" points="850,-241 850,-260 1004,-260 1004,-241 850,-241"/>
<text text-anchor="middle" x="927" y="-248" font-family="Helvetica,sans-Serif" font-size="10.00">boomerang/db/GraphNode.h</text>
</a>
</g>
</g>
<!-- Node10&#45;&gt;Node11 -->
<g id="edge11" class="edge">
<title>Node10&#45;&gt;Node11</title>
<path fill="none" stroke="midnightblue" d="M1152.03,-369.37C1103.09,-343.74 1000.3,-289.9 952.48,-264.85"/>
<polygon fill="midnightblue" stroke="midnightblue" points="953.9,-261.64 943.41,-260.1 950.65,-267.84 953.9,-261.64"/>
</g>
<!-- Node17 -->
<g id="node17" class="node">
<title>Node17</title>
<g id="a_node17"><a xlink:href="RTL_8h.html" target="_top" xlink:title=" ">
<polygon fill="white" stroke="black" points="1119.5,-308 1119.5,-327 1238.5,-327 1238.5,-308 1119.5,-308"/>
<text text-anchor="middle" x="1179" y="-315" font-family="Helvetica,sans-Serif" font-size="10.00">boomerang/ssl/RTL.h</text>
</a>
</g>
</g>
<!-- Node10&#45;&gt;Node17 -->
<g id="edge20" class="edge">
<title>Node10&#45;&gt;Node17</title>
<path fill="none" stroke="midnightblue" d="M1179,-369.4C1179,-360.06 1179,-347.71 1179,-337.52"/>
<polygon fill="midnightblue" stroke="midnightblue" points="1182.5,-337.19 1179,-327.19 1175.5,-337.19 1182.5,-337.19"/>
</g>
<!-- Node11&#45;&gt;Node2 -->
<g id="edge12" class="edge">
<title>Node11&#45;&gt;Node2</title>
<path fill="none" stroke="midnightblue" d="M917.43,-240.94C907.87,-231.7 893.79,-215.98 888,-199 876.13,-164.22 888.3,-121.69 898.45,-95.87"/>
<polygon fill="midnightblue" stroke="midnightblue" points="901.72,-97.11 902.32,-86.53 895.25,-94.43 901.72,-97.11"/>
</g>
<!-- Node12 -->
<g id="node12" class="node">
<title>Node12</title>
<g id="a_node12"><a xlink:href="Util_8h.html" target="_top" xlink:title=" ">
<polygon fill="white" stroke="black" points="1241,-179.5 1241,-198.5 1361,-198.5 1361,-179.5 1241,-179.5"/>
<text text-anchor="middle" x="1301" y="-186.5" font-family="Helvetica,sans-Serif" font-size="10.00">boomerang/util/Util.h</text>
</a>
</g>
</g>
<!-- Node11&#45;&gt;Node12 -->
<g id="edge13" class="edge">
<title>Node11&#45;&gt;Node12</title>
<path fill="none" stroke="midnightblue" d="M980.59,-240.98C1048.49,-230.17 1165.36,-211.58 1237.62,-200.08"/>
<polygon fill="midnightblue" stroke="midnightblue" points="1238.19,-203.54 1247.51,-198.51 1237.09,-196.62 1238.19,-203.54"/>
</g>
<!-- Node11&#45;&gt;Node15 -->
<g id="edge18" class="edge">
<title>Node11&#45;&gt;Node15</title>
<path fill="none" stroke="midnightblue" d="M910.95,-240.98C892.41,-231.12 861.66,-214.79 839.98,-203.27"/>
<polygon fill="midnightblue" stroke="midnightblue" points="841.49,-200.11 831.02,-198.51 838.21,-206.29 841.49,-200.11"/>
</g>
<!-- Node16 -->
<g id="node16" class="node">
<title>Node16</title>
<g id="a_node16"><a xlink:title=" ">
<polygon fill="white" stroke="#bfbfbf" points="629.5,-179.5 629.5,-198.5 676.5,-198.5 676.5,-179.5 629.5,-179.5"/>
<text text-anchor="middle" x="653" y="-186.5" font-family="Helvetica,sans-Serif" font-size="10.00">vector</text>
</a>
</g>
</g>
<!-- Node11&#45;&gt;Node16 -->
<g id="edge19" class="edge">
<title>Node11&#45;&gt;Node16</title>
<path fill="none" stroke="midnightblue" d="M882.4,-240.98C835.98,-231.93 760.95,-216.79 686.74,-199.06"/>
<polygon fill="midnightblue" stroke="midnightblue" points="687.29,-195.6 676.75,-196.66 685.65,-202.4 687.29,-195.6"/>
</g>
<!-- Node12&#45;&gt;Node2 -->
<g id="edge14" class="edge">
<title>Node12&#45;&gt;Node2</title>
<path fill="none" stroke="midnightblue" d="M1289.38,-179.31C1269.9,-165.18 1228.96,-137.39 1190,-123 1127.5,-99.92 1053.15,-87.15 996.64,-80.23"/>
<polygon fill="midnightblue" stroke="midnightblue" points="997,-76.75 986.66,-79.05 996.17,-83.7 997,-76.75"/>
</g>
<!-- Node12&#45;&gt;Node8 -->
<g id="edge16" class="edge">
<title>Node12&#45;&gt;Node8</title>
<path fill="none" stroke="midnightblue" d="M1277.39,-179.44C1252.54,-170.44 1213.23,-156.19 1185.25,-146.05"/>
<polygon fill="midnightblue" stroke="midnightblue" points="1186.09,-142.63 1175.5,-142.52 1183.71,-149.21 1186.09,-142.63"/>
</g>
<!-- Node12&#45;&gt;Node13 -->
<g id="edge15" class="edge">
<title>Node12&#45;&gt;Node13</title>
<path fill="none" stroke="midnightblue" d="M1327.14,-179.44C1355.02,-170.32 1399.35,-155.81 1430.4,-145.65"/>
<polygon fill="midnightblue" stroke="midnightblue" points="1431.56,-148.95 1439.98,-142.52 1429.38,-142.3 1431.56,-148.95"/>
</g>
<!-- Node14 -->
<g id="node14" class="node">
<title>Node14</title>
<g id="a_node14"><a xlink:title=" ">
<polygon fill="white" stroke="#bfbfbf" points="1274.5,-123.5 1274.5,-142.5 1343.5,-142.5 1343.5,-123.5 1274.5,-123.5"/>
<text text-anchor="middle" x="1309" y="-130.5" font-family="Helvetica,sans-Serif" font-size="10.00">type_traits</text>
</a>
</g>
</g>
<!-- Node12&#45;&gt;Node14 -->
<g id="edge17" class="edge">
<title>Node12&#45;&gt;Node14</title>
<path fill="none" stroke="midnightblue" d="M1302.32,-179.08C1303.38,-171.93 1304.91,-161.64 1306.23,-152.69"/>
<polygon fill="midnightblue" stroke="midnightblue" points="1309.7,-153.16 1307.7,-142.75 1302.78,-152.13 1309.7,-153.16"/>
</g>
<!-- Node17&#45;&gt;Node8 -->
<g id="edge38" class="edge">
<title>Node17&#45;&gt;Node8</title>
<path fill="none" stroke="midnightblue" d="M1188.33,-307.89C1197.65,-298.6 1211.37,-282.86 1217,-266 1221.37,-252.93 1220.89,-248.22 1217,-235 1211.71,-216.99 1181.72,-174.37 1164.38,-150.66"/>
<polygon fill="midnightblue" stroke="midnightblue" points="1167.19,-148.56 1158.44,-142.58 1161.55,-152.71 1167.19,-148.56"/>
</g>
<!-- Node18 -->
<g id="node18" class="node">
<title>Node18</title>
<g id="a_node18"><a xlink:href="Statement_8h.html" target="_top" xlink:title=" ">
<polygon fill="white" stroke="black" points="1060.5,-235.5 1060.5,-265.5 1207.5,-265.5 1207.5,-235.5 1060.5,-235.5"/>
<text text-anchor="start" x="1068.5" y="-253.5" font-family="Helvetica,sans-Serif" font-size="10.00">boomerang/ssl/statements</text>
<text text-anchor="middle" x="1134" y="-242.5" font-family="Helvetica,sans-Serif" font-size="10.00">/Statement.h</text>
</a>
</g>
</g>
<!-- Node17&#45;&gt;Node18 -->
<g id="edge21" class="edge">
<title>Node17&#45;&gt;Node18</title>
<path fill="none" stroke="midnightblue" d="M1172.93,-307.73C1166.97,-299.12 1157.61,-285.61 1149.57,-273.99"/>
<polygon fill="midnightblue" stroke="midnightblue" points="1152.32,-271.82 1143.75,-265.59 1146.57,-275.8 1152.32,-271.82"/>
</g>
<!-- Node19 -->
<g id="node19" class="node">
<title>Node19</title>
<g id="a_node19"><a xlink:href="Address_8h.html" target="_top" xlink:title=" ">
<polygon fill="white" stroke="black" points="1379,-179.5 1379,-198.5 1521,-198.5 1521,-179.5 1379,-179.5"/>
<text text-anchor="middle" x="1450" y="-186.5" font-family="Helvetica,sans-Serif" font-size="10.00">boomerang/util/Address.h</text>
</a>
</g>
</g>
<!-- Node17&#45;&gt;Node19 -->
<g id="edge36" class="edge">
<title>Node17&#45;&gt;Node19</title>
<path fill="none" stroke="midnightblue" d="M1200.46,-307.91C1222.87,-298.63 1258.74,-282.9 1288,-266 1308.71,-254.03 1310.88,-246.24 1332,-235 1357.57,-221.39 1388.18,-209.84 1411.81,-201.85"/>
<polygon fill="midnightblue" stroke="midnightblue" points="1413.09,-205.12 1421.48,-198.65 1410.89,-198.47 1413.09,-205.12"/>
</g>
<!-- Node24 -->
<g id="node24" class="node">
<title>Node24</title>
<g id="a_node24"><a xlink:title=" ">
<polygon fill="white" stroke="#bfbfbf" points="897,-179.5 897,-198.5 929,-198.5 929,-179.5 897,-179.5"/>
<text text-anchor="middle" x="913" y="-186.5" font-family="Helvetica,sans-Serif" font-size="10.00">list</text>
</a>
</g>
</g>
<!-- Node17&#45;&gt;Node24 -->
<g id="edge37" class="edge">
<title>Node17&#45;&gt;Node24</title>
<path fill="none" stroke="midnightblue" d="M1150.92,-307.98C1124.44,-299.34 1084.13,-284.61 1052,-266 1032.84,-254.9 1031.91,-246.52 1013,-235 988.97,-220.36 959.35,-207.62 938.61,-199.47"/>
<polygon fill="midnightblue" stroke="midnightblue" points="939.79,-196.18 929.2,-195.85 937.28,-202.71 939.79,-196.18"/>
</g>
<!-- Node18&#45;&gt;Node7 -->
<g id="edge22" class="edge">
<title>Node18&#45;&gt;Node7</title>
<path fill="none" stroke="midnightblue" d="M1108.88,-235.4C1091.73,-225.77 1069.14,-213.09 1052.19,-203.58"/>
<polygon fill="midnightblue" stroke="midnightblue" points="1053.86,-200.5 1043.42,-198.66 1050.43,-206.6 1053.86,-200.5"/>
</g>
<!-- Node18&#45;&gt;Node8 -->
<g id="edge35" class="edge">
<title>Node18&#45;&gt;Node8</title>
<path fill="none" stroke="midnightblue" d="M1136.21,-235.34C1139.45,-214.53 1145.51,-175.66 1149.1,-152.58"/>
<polygon fill="midnightblue" stroke="midnightblue" points="1152.57,-153.09 1150.65,-142.67 1145.65,-152.01 1152.57,-153.09"/>
</g>
<!-- Node18&#45;&gt;Node15 -->
<g id="edge32" class="edge">
<title>Node18&#45;&gt;Node15</title>
<path fill="none" stroke="midnightblue" d="M1060.41,-235.77C994.97,-223.57 902.01,-206.23 851.35,-196.78"/>
<polygon fill="midnightblue" stroke="midnightblue" points="851.68,-193.28 841.21,-194.89 850.4,-200.16 851.68,-193.28"/>
</g>
<!-- Node18&#45;&gt;Node19 -->
<g id="edge23" class="edge">
<title>Node18&#45;&gt;Node19</title>
<path fill="none" stroke="midnightblue" d="M1207.69,-235.62C1264.8,-224.87 1342.68,-210.21 1394.57,-200.44"/>
<polygon fill="midnightblue" stroke="midnightblue" points="1395.41,-203.84 1404.59,-198.55 1394.11,-196.96 1395.41,-203.84"/>
</g>
<!-- Node18&#45;&gt;Node24 -->
<g id="edge33" class="edge">
<title>Node18&#45;&gt;Node24</title>
<path fill="none" stroke="midnightblue" d="M1073.55,-235.47C1036.95,-226.62 989.2,-214.45 938.83,-199.05"/>
<polygon fill="midnightblue" stroke="midnightblue" points="939.65,-195.64 929.06,-196.03 937.59,-202.33 939.65,-195.64"/>
</g>
<!-- Node25 -->
<g id="node25" class="node">
<title>Node25</title>
<g id="a_node25"><a xlink:title=" ">
<polygon fill="white" stroke="#bfbfbf" points="695,-179.5 695,-198.5 733,-198.5 733,-179.5 695,-179.5"/>
<text text-anchor="middle" x="714" y="-186.5" font-family="Helvetica,sans-Serif" font-size="10.00">map</text>
</a>
</g>
</g>
<!-- Node18&#45;&gt;Node25 -->
<g id="edge34" class="edge">
<title>Node18&#45;&gt;Node25</title>
<path fill="none" stroke="midnightblue" d="M1060.36,-239.07C966.32,-225.74 807.99,-203.32 743.09,-194.12"/>
<polygon fill="midnightblue" stroke="midnightblue" points="743.53,-190.65 733.14,-192.71 742.55,-197.58 743.53,-190.65"/>
</g>
<!-- Node19&#45;&gt;Node2 -->
<g id="edge24" class="edge">
<title>Node19&#45;&gt;Node2</title>
<path fill="none" stroke="midnightblue" d="M1440.68,-179.46C1424.32,-165.03 1388.78,-136.13 1353,-123 1289.62,-99.73 1107.15,-84.76 996.85,-77.56"/>
<polygon fill="midnightblue" stroke="midnightblue" points="996.94,-74.06 986.74,-76.91 996.49,-81.04 996.94,-74.06"/>
</g>
<!-- Node19&#45;&gt;Node13 -->
<g id="edge31" class="edge">
<title>Node19&#45;&gt;Node13</title>
<path fill="none" stroke="midnightblue" d="M1452.64,-179.08C1454.79,-171.85 1457.88,-161.41 1460.55,-152.4"/>
<polygon fill="midnightblue" stroke="midnightblue" points="1463.92,-153.33 1463.41,-142.75 1457.21,-151.34 1463.92,-153.33"/>
</g>
<!-- Node20 -->
<g id="node20" class="node">
<title>Node20</title>
<g id="a_node20"><a xlink:href="OStream_8h.html" target="_top" xlink:title=" ">
<polygon fill="white" stroke="black" points="1603,-123.5 1603,-142.5 1749,-142.5 1749,-123.5 1603,-123.5"/>
<text text-anchor="middle" x="1676" y="-130.5" font-family="Helvetica,sans-Serif" font-size="10.00">boomerang/util/OStream.h</text>
</a>
</g>
</g>
<!-- Node19&#45;&gt;Node20 -->
<g id="edge25" class="edge">
<title>Node19&#45;&gt;Node20</title>
<path fill="none" stroke="midnightblue" d="M1485.81,-179.44C1524.99,-170.08 1587.88,-155.06 1630.52,-144.87"/>
<polygon fill="midnightblue" stroke="midnightblue" points="1631.44,-148.24 1640.36,-142.52 1629.82,-141.44 1631.44,-148.24"/>
</g>
<!-- Node21 -->
<g id="node21" class="node">
<title>Node21</title>
<g id="a_node21"><a xlink:href="Types_8h.html" target="_top" xlink:title=" ">
<polygon fill="white" stroke="black" points="1733.5,-62 1733.5,-81 1864.5,-81 1864.5,-62 1733.5,-62"/>
<text text-anchor="middle" x="1799" y="-69" font-family="Helvetica,sans-Serif" font-size="10.00">boomerang/util/Types.h</text>
</a>
</g>
</g>
<!-- Node19&#45;&gt;Node21 -->
<g id="edge30" class="edge">
<title>Node19&#45;&gt;Node21</title>
<path fill="none" stroke="midnightblue" d="M1521.18,-184.7C1599.86,-179.83 1720.45,-168.39 1758,-143 1776.28,-130.64 1787.5,-107.2 1793.48,-90.75"/>
<polygon fill="midnightblue" stroke="midnightblue" points="1796.84,-91.73 1796.67,-81.14 1790.2,-89.52 1796.84,-91.73"/>
</g>
<!-- Node20&#45;&gt;Node2 -->
<g id="edge26" class="edge">
<title>Node20&#45;&gt;Node2</title>
<path fill="none" stroke="midnightblue" d="M1602.91,-124.28C1598.21,-123.84 1593.54,-123.4 1589,-123 1376.61,-104.13 1126.46,-86.81 996.83,-78.21"/>
<polygon fill="midnightblue" stroke="midnightblue" points="996.77,-74.7 986.56,-77.53 996.31,-81.68 996.77,-74.7"/>
</g>
<!-- Node20&#45;&gt;Node21 -->
<g id="edge27" class="edge">
<title>Node20&#45;&gt;Node21</title>
<path fill="none" stroke="midnightblue" d="M1693.62,-123.48C1714.17,-113.53 1748.36,-96.99 1772.21,-85.46"/>
<polygon fill="midnightblue" stroke="midnightblue" points="1773.93,-88.51 1781.41,-81.01 1770.88,-82.21 1773.93,-88.51"/>
</g>
<!-- Node23 -->
<g id="node23" class="node">
<title>Node23</title>
<g id="a_node23"><a xlink:title=" ">
<polygon fill="white" stroke="#bfbfbf" points="1653,-62 1653,-81 1699,-81 1699,-62 1653,-62"/>
<text text-anchor="middle" x="1676" y="-69" font-family="Helvetica,sans-Serif" font-size="10.00">cstdio</text>
</a>
</g>
</g>
<!-- Node20&#45;&gt;Node23 -->
<g id="edge29" class="edge">
<title>Node20&#45;&gt;Node23</title>
<path fill="none" stroke="midnightblue" d="M1676,-123.48C1676,-115.08 1676,-101.98 1676,-91.16"/>
<polygon fill="midnightblue" stroke="midnightblue" points="1679.5,-91.01 1676,-81.01 1672.5,-91.01 1679.5,-91.01"/>
</g>
<!-- Node22 -->
<g id="node22" class="node">
<title>Node22</title>
<g id="a_node22"><a xlink:title=" ">
<polygon fill="white" stroke="#bfbfbf" points="1774,-0.5 1774,-19.5 1824,-19.5 1824,-0.5 1774,-0.5"/>
<text text-anchor="middle" x="1799" y="-7.5" font-family="Helvetica,sans-Serif" font-size="10.00">cstdint</text>
</a>
</g>
</g>
<!-- Node21&#45;&gt;Node22 -->
<g id="edge28" class="edge">
<title>Node21&#45;&gt;Node22</title>
<path fill="none" stroke="midnightblue" d="M1799,-61.98C1799,-53.58 1799,-40.48 1799,-29.66"/>
<polygon fill="midnightblue" stroke="midnightblue" points="1802.5,-29.51 1799,-19.51 1795.5,-29.51 1802.5,-29.51"/>
</g>
<!-- Node26&#45;&gt;Node2 -->
<g id="edge40" class="edge">
<title>Node26&#45;&gt;Node2</title>
<path fill="none" stroke="midnightblue" d="M1628.01,-235.26C1607.85,-207.83 1559.28,-148.16 1502,-123 1413.71,-84.23 1138.95,-75.15 996.55,-73.07"/>
<polygon fill="midnightblue" stroke="midnightblue" points="996.58,-69.57 986.53,-72.94 996.48,-76.57 996.58,-69.57"/>
</g>
<!-- Node26&#45;&gt;Node7 -->
<g id="edge48" class="edge">
<title>Node26&#45;&gt;Node7</title>
<path fill="none" stroke="midnightblue" d="M1577,-243.55C1469.33,-233.05 1245.07,-211.17 1119.04,-198.88"/>
<polygon fill="midnightblue" stroke="midnightblue" points="1119.31,-195.39 1109.02,-197.9 1118.63,-202.36 1119.31,-195.39"/>
</g>
<!-- Node26&#45;&gt;Node16 -->
<g id="edge53" class="edge">
<title>Node26&#45;&gt;Node16</title>
<path fill="none" stroke="midnightblue" d="M1576.97,-243.6C1545.37,-240.7 1506.14,-237.33 1471,-235 1125.83,-212.11 1032.78,-252.49 686.71,-198.7"/>
<polygon fill="midnightblue" stroke="midnightblue" points="687.08,-195.22 676.66,-197.12 685.99,-202.13 687.08,-195.22"/>
</g>
<!-- Node26&#45;&gt;Node19 -->
<g id="edge49" class="edge">
<title>Node26&#45;&gt;Node19</title>
<path fill="none" stroke="midnightblue" d="M1593.45,-235.4C1560.96,-225.12 1517.46,-211.35 1486.91,-201.68"/>
<polygon fill="midnightblue" stroke="midnightblue" points="1487.67,-198.25 1477.08,-198.57 1485.56,-204.93 1487.67,-198.25"/>
</g>
<!-- Node26&#45;&gt;Node21 -->
<g id="edge50" class="edge">
<title>Node26&#45;&gt;Node21</title>
<path fill="none" stroke="midnightblue" d="M1699.25,-246.24C1767.52,-241.17 1871.56,-228.69 1896,-199 1917.47,-172.92 1913.52,-151.88 1896,-123 1884.71,-104.39 1864.08,-92.32 1844.74,-84.67"/>
<polygon fill="midnightblue" stroke="midnightblue" points="1845.69,-81.29 1835.1,-81.16 1843.3,-87.87 1845.69,-81.29"/>
</g>
<!-- Node26&#45;&gt;Node27 -->
<g id="edge41" class="edge">
<title>Node26&#45;&gt;Node27</title>
<path fill="none" stroke="midnightblue" d="M1680.18,-235.4C1710.81,-225.16 1751.77,-211.47 1780.67,-201.81"/>
<polygon fill="midnightblue" stroke="midnightblue" points="1781.98,-205.06 1790.36,-198.57 1779.77,-198.42 1781.98,-205.06"/>
</g>
<!-- Node29 -->
<g id="node29" class="node">
<title>Node29</title>
<g id="a_node29"><a xlink:title=" ">
<polygon fill="white" stroke="#bfbfbf" points="1685,-179.5 1685,-198.5 1727,-198.5 1727,-179.5 1685,-179.5"/>
<text text-anchor="middle" x="1706" y="-186.5" font-family="Helvetica,sans-Serif" font-size="10.00">array</text>
</a>
</g>
</g>
<!-- Node26&#45;&gt;Node29 -->
<g id="edge51" class="edge">
<title>Node26&#45;&gt;Node29</title>
<path fill="none" stroke="midnightblue" d="M1654.12,-235.4C1664.4,-226.4 1677.75,-214.72 1688.33,-205.47"/>
<polygon fill="midnightblue" stroke="midnightblue" points="1690.88,-207.88 1696.11,-198.66 1686.27,-202.61 1690.88,-207.88"/>
</g>
<!-- Node30 -->
<g id="node30" class="node">
<title>Node30</title>
<g id="a_node30"><a xlink:title=" ">
<polygon fill="white" stroke="#bfbfbf" points="1615.5,-179.5 1615.5,-198.5 1666.5,-198.5 1666.5,-179.5 1615.5,-179.5"/>
<text text-anchor="middle" x="1641" y="-186.5" font-family="Helvetica,sans-Serif" font-size="10.00">variant</text>
</a>
</g>
</g>
<!-- Node26&#45;&gt;Node30 -->
<g id="edge52" class="edge">
<title>Node26&#45;&gt;Node30</title>
<path fill="none" stroke="midnightblue" d="M1638.71,-235.4C1639.11,-227.47 1639.62,-217.46 1640.05,-208.86"/>
<polygon fill="midnightblue" stroke="midnightblue" points="1643.56,-208.82 1640.56,-198.66 1636.56,-208.47 1643.56,-208.82"/>
</g>
<!-- Node27&#45;&gt;Node2 -->
<g id="edge42" class="edge">
<title>Node27&#45;&gt;Node2</title>
<path fill="none" stroke="midnightblue" d="M1754.22,-179.48C1709.11,-172.3 1646.86,-160.38 1594,-143 1573.98,-136.42 1571.39,-128.36 1551,-123 1448.8,-96.15 1147.48,-81.42 996.83,-75.55"/>
<polygon fill="midnightblue" stroke="midnightblue" points="996.82,-72.04 986.69,-75.16 996.55,-79.04 996.82,-72.04"/>
</g>
<!-- Node27&#45;&gt;Node8 -->
<g id="edge45" class="edge">
<title>Node27&#45;&gt;Node8</title>
<path fill="none" stroke="midnightblue" d="M1745.34,-179.91C1742.19,-179.6 1739.06,-179.29 1736,-179 1527.43,-159.29 1474.87,-159.24 1266,-143 1241.05,-141.06 1213.04,-138.85 1191.02,-137.1"/>
<polygon fill="midnightblue" stroke="midnightblue" points="1191.29,-133.61 1181.05,-136.31 1190.74,-140.59 1191.29,-133.61"/>
</g>
<!-- Node27&#45;&gt;Node13 -->
<g id="edge44" class="edge">
<title>Node27&#45;&gt;Node13</title>
<path fill="none" stroke="midnightblue" d="M1760.54,-179.44C1688.38,-168.31 1564.29,-149.16 1502.78,-139.67"/>
<polygon fill="midnightblue" stroke="midnightblue" points="1503.17,-136.19 1492.75,-138.13 1502.1,-143.11 1503.17,-136.19"/>
</g>
<!-- Node27&#45;&gt;Node14 -->
<g id="edge47" class="edge">
<title>Node27&#45;&gt;Node14</title>
<path fill="none" stroke="midnightblue" d="M1745.33,-180.02C1742.18,-179.68 1739.06,-179.33 1736,-179 1596.75,-163.83 1431.86,-146.68 1354,-138.64"/>
<polygon fill="midnightblue" stroke="midnightblue" points="1353.91,-135.11 1343.6,-137.56 1353.19,-142.07 1353.91,-135.11"/>
</g>
<!-- Node27&#45;&gt;Node21 -->
<g id="edge43" class="edge">
<title>Node27&#45;&gt;Node21</title>
<path fill="none" stroke="midnightblue" d="M1814.72,-179.32C1811.99,-160.76 1805.53,-116.84 1801.79,-91.47"/>
<polygon fill="midnightblue" stroke="midnightblue" points="1805.21,-90.67 1800.29,-81.28 1798.29,-91.69 1805.21,-90.67"/>
</g>
<!-- Node28 -->
<g id="node28" class="node">
<title>Node28</title>
<g id="a_node28"><a xlink:title=" ">
<polygon fill="white" stroke="#bfbfbf" points="1843,-123.5 1843,-142.5 1887,-142.5 1887,-123.5 1843,-123.5"/>
<text text-anchor="middle" x="1865" y="-130.5" font-family="Helvetica,sans-Serif" font-size="10.00">string</text>
</a>
</g>
</g>
<!-- Node27&#45;&gt;Node28 -->
<g id="edge46" class="edge">
<title>Node27&#45;&gt;Node28</title>
<path fill="none" stroke="midnightblue" d="M1824.09,-179.08C1831.16,-171.3 1841.59,-159.8 1850.15,-150.37"/>
<polygon fill="midnightblue" stroke="midnightblue" points="1852.93,-152.51 1857.06,-142.75 1847.75,-147.8 1852.93,-152.51"/>
</g>
<!-- Node32 -->
<g id="node32" class="node">
<title>Node32</title>
<g id="a_node32"><a xlink:href="BinaryFile_8h.html" target="_top" xlink:title=" ">
<polygon fill="white" stroke="black" points="1340.5,-235.5 1340.5,-265.5 1461.5,-265.5 1461.5,-235.5 1340.5,-235.5"/>
<text text-anchor="start" x="1348.5" y="-253.5" font-family="Helvetica,sans-Serif" font-size="10.00">boomerang/db/binary</text>
<text text-anchor="middle" x="1401" y="-242.5" font-family="Helvetica,sans-Serif" font-size="10.00">/BinaryFile.h</text>
</a>
</g>
</g>
<!-- Node31&#45;&gt;Node32 -->
<g id="edge56" class="edge">
<title>Node31&#45;&gt;Node32</title>
<path fill="none" stroke="midnightblue" d="M794.21,-379.92C919.93,-373.41 1165.13,-357.93 1248,-333 1294.23,-319.09 1342.59,-290.62 1372.27,-271.29"/>
<polygon fill="midnightblue" stroke="midnightblue" points="1374.45,-274.04 1380.86,-265.61 1370.58,-268.21 1374.45,-274.04"/>
</g>
<!-- Node33 -->
<g id="node33" class="node">
<title>Node33</title>
<g id="a_node33"><a xlink:href="BinaryImage_8h.html" target="_top" xlink:title=" ">
<polygon fill="white" stroke="black" points="672.5,-302.5 672.5,-332.5 793.5,-332.5 793.5,-302.5 672.5,-302.5"/>
<text text-anchor="start" x="680.5" y="-320.5" font-family="Helvetica,sans-Serif" font-size="10.00">boomerang/db/binary</text>
<text text-anchor="middle" x="733" y="-309.5" font-family="Helvetica,sans-Serif" font-size="10.00">/BinaryImage.h</text>
</a>
</g>
</g>
<!-- Node31&#45;&gt;Node33 -->
<g id="edge59" class="edge">
<title>Node31&#45;&gt;Node33</title>
<path fill="none" stroke="midnightblue" d="M720.02,-374.73C721.93,-366.46 724.89,-353.66 727.49,-342.37"/>
<polygon fill="midnightblue" stroke="midnightblue" points="730.91,-343.12 729.75,-332.59 724.09,-341.55 730.91,-343.12"/>
</g>
<!-- Node32&#45;&gt;Node8 -->
<g id="edge58" class="edge">
<title>Node32&#45;&gt;Node8</title>
<path fill="none" stroke="midnightblue" d="M1340.11,-237.42C1306.93,-229.35 1265.84,-216.89 1232,-199 1207.44,-186.01 1183.25,-164.87 1168.01,-150.24"/>
<polygon fill="midnightblue" stroke="midnightblue" points="1170.1,-147.4 1160.52,-142.88 1165.19,-152.39 1170.1,-147.4"/>
</g>
<!-- Node32&#45;&gt;Node19 -->
<g id="edge57" class="edge">
<title>Node32&#45;&gt;Node19</title>
<path fill="none" stroke="midnightblue" d="M1412.61,-235.4C1419.73,-226.75 1428.88,-215.64 1436.35,-206.58"/>
<polygon fill="midnightblue" stroke="midnightblue" points="1439.21,-208.6 1442.87,-198.66 1433.81,-204.15 1439.21,-208.6"/>
</g>
<!-- Node33&#45;&gt;Node8 -->
<g id="edge68" class="edge">
<title>Node33&#45;&gt;Node8</title>
<path fill="none" stroke="midnightblue" d="M744.16,-302.3C751.21,-292.6 759.92,-279.17 765,-266 779.11,-229.39 751.57,-206.04 780,-179 803.84,-156.33 1022.18,-141.4 1112.83,-136.12"/>
<polygon fill="midnightblue" stroke="midnightblue" points="1113.19,-139.61 1122.98,-135.54 1112.79,-132.62 1113.19,-139.61"/>
</g>
<!-- Node33&#45;&gt;Node16 -->
<g id="edge69" class="edge">
<title>Node33&#45;&gt;Node16</title>
<path fill="none" stroke="midnightblue" d="M672.44,-314.22C599.39,-310.05 483.01,-298.38 456,-266 447.17,-255.42 447.36,-245.74 456,-235 500.85,-179.24 543.86,-213.71 619.37,-198.82"/>
<polygon fill="midnightblue" stroke="midnightblue" points="620.24,-202.22 629.24,-196.63 618.72,-195.38 620.24,-202.22"/>
</g>
<!-- Node33&#45;&gt;Node19 -->
<g id="edge60" class="edge">
<title>Node33&#45;&gt;Node19</title>
<path fill="none" stroke="midnightblue" d="M793.68,-316.11C886.42,-314.19 1068.32,-305.2 1217,-266 1250.29,-257.22 1255.55,-246.53 1288,-235 1326.39,-221.36 1371.07,-209.22 1403.77,-201"/>
<polygon fill="midnightblue" stroke="midnightblue" points="1404.66,-204.38 1413.51,-198.57 1402.97,-197.59 1404.66,-204.38"/>
</g>
<!-- Node34 -->
<g id="node34" class="node">
<title>Node34</title>
<g id="a_node34"><a xlink:href="IntervalMap_8h.html" target="_top" xlink:title=" ">
<polygon fill="white" stroke="black" points="464.5,-241 464.5,-260 625.5,-260 625.5,-241 464.5,-241"/>
<text text-anchor="middle" x="545" y="-248" font-family="Helvetica,sans-Serif" font-size="10.00">boomerang/util/IntervalMap.h</text>
</a>
</g>
</g>
<!-- Node33&#45;&gt;Node34 -->
<g id="edge61" class="edge">
<title>Node33&#45;&gt;Node34</title>
<path fill="none" stroke="midnightblue" d="M692.21,-302.4C658.49,-290.74 611.16,-274.37 579.35,-263.38"/>
<polygon fill="midnightblue" stroke="midnightblue" points="580.2,-259.97 569.6,-260.01 577.91,-266.58 580.2,-259.97"/>
</g>
<!-- Node38 -->
<g id="node38" class="node">
<title>Node38</title>
<g id="a_node38"><a xlink:title=" ">
<polygon fill="white" stroke="#bfbfbf" points="682.5,-241 682.5,-260 755.5,-260 755.5,-241 682.5,-241"/>
<text text-anchor="middle" x="719" y="-248" font-family="Helvetica,sans-Serif" font-size="10.00">QByteArray</text>
</a>
</g>
</g>
<!-- Node33&#45;&gt;Node38 -->
<g id="edge67" class="edge">
<title>Node33&#45;&gt;Node38</title>
<path fill="none" stroke="midnightblue" d="M729.96,-302.4C727.93,-292.96 725.24,-280.45 723.03,-270.19"/>
<polygon fill="midnightblue" stroke="midnightblue" points="726.4,-269.23 720.87,-260.19 719.56,-270.71 726.4,-269.23"/>
</g>
<!-- Node34&#45;&gt;Node15 -->
<g id="edge65" class="edge">
<title>Node34&#45;&gt;Node15</title>
<path fill="none" stroke="midnightblue" d="M583.68,-240.98C635.93,-229.46 728.34,-209.1 779.11,-197.91"/>
<polygon fill="midnightblue" stroke="midnightblue" points="779.97,-201.3 788.98,-195.73 778.46,-194.47 779.97,-201.3"/>
</g>
<!-- Node34&#45;&gt;Node25 -->
<g id="edge66" class="edge">
<title>Node34&#45;&gt;Node25</title>
<path fill="none" stroke="midnightblue" d="M569.21,-240.98C599.9,-230.17 652.72,-211.57 685.37,-200.08"/>
<polygon fill="midnightblue" stroke="midnightblue" points="686.54,-203.38 694.81,-196.76 684.22,-196.78 686.54,-203.38"/>
</g>
<!-- Node35 -->
<g id="node35" class="node">
<title>Node35</title>
<g id="a_node35"><a xlink:href="Interval_8h.html" target="_top" xlink:title=" ">
<polygon fill="white" stroke="black" points="471,-179.5 471,-198.5 611,-198.5 611,-179.5 471,-179.5"/>
<text text-anchor="middle" x="541" y="-186.5" font-family="Helvetica,sans-Serif" font-size="10.00">boomerang/util/Interval.h</text>
</a>
</g>
</g>
<!-- Node34&#45;&gt;Node35 -->
<g id="edge62" class="edge">
<title>Node34&#45;&gt;Node35</title>
<path fill="none" stroke="midnightblue" d="M544.43,-240.98C543.86,-232.58 542.98,-219.48 542.25,-208.66"/>
<polygon fill="midnightblue" stroke="midnightblue" points="545.74,-208.25 541.57,-198.51 538.75,-208.72 545.74,-208.25"/>
</g>
<!-- Node36 -->
<g id="node36" class="node">
<title>Node36</title>
<g id="a_node36"><a xlink:title=" ">
<polygon fill="white" stroke="#bfbfbf" points="546,-123.5 546,-142.5 610,-142.5 610,-123.5 546,-123.5"/>
<text text-anchor="middle" x="578" y="-130.5" font-family="Helvetica,sans-Serif" font-size="10.00">algorithm</text>
</a>
</g>
</g>
<!-- Node35&#45;&gt;Node36 -->
<g id="edge63" class="edge">
<title>Node35&#45;&gt;Node36</title>
<path fill="none" stroke="midnightblue" d="M547.11,-179.08C552.28,-171.53 559.85,-160.49 566.19,-151.23"/>
<polygon fill="midnightblue" stroke="midnightblue" points="569.24,-152.98 572,-142.75 563.46,-149.02 569.24,-152.98"/>
</g>
<!-- Node37 -->
<g id="node37" class="node">
<title>Node37</title>
<g id="a_node37"><a xlink:title=" ">
<polygon fill="white" stroke="#bfbfbf" points="482.5,-123.5 482.5,-142.5 527.5,-142.5 527.5,-123.5 482.5,-123.5"/>
<text text-anchor="middle" x="505" y="-130.5" font-family="Helvetica,sans-Serif" font-size="10.00">utility</text>
</a>
</g>
</g>
<!-- Node35&#45;&gt;Node37 -->
<g id="edge64" class="edge">
<title>Node35&#45;&gt;Node37</title>
<path fill="none" stroke="midnightblue" d="M535.06,-179.08C530.02,-171.53 522.66,-160.49 516.49,-151.23"/>
<polygon fill="midnightblue" stroke="midnightblue" points="519.29,-149.13 510.83,-142.75 513.47,-153.01 519.29,-149.13"/>
</g>
<!-- Node39&#45;&gt;Node2 -->
<g id="edge71" class="edge">
<title>Node39&#45;&gt;Node2</title>
<path fill="none" stroke="midnightblue" d="M314.23,-240.86C287.36,-228.41 246.01,-204.15 264,-179 327.52,-90.19 659.89,-74.72 821.11,-72.51"/>
<polygon fill="midnightblue" stroke="midnightblue" points="821.52,-76.01 831.48,-72.38 821.44,-69.01 821.52,-76.01"/>
</g>
<!-- Node39&#45;&gt;Node16 -->
<g id="edge73" class="edge">
<title>Node39&#45;&gt;Node16</title>
<path fill="none" stroke="midnightblue" d="M386.39,-240.97C451.89,-230.01 562.48,-211.16 619.31,-198.95"/>
<polygon fill="midnightblue" stroke="midnightblue" points="620.26,-202.32 629.27,-196.75 618.75,-195.49 620.26,-202.32"/>
</g>
<!-- Node39&#45;&gt;Node19 -->
<g id="edge72" class="edge">
<title>Node39&#45;&gt;Node19</title>
<path fill="none" stroke="midnightblue" d="M398.02,-240.98C416.66,-238.72 437.12,-236.5 456,-235 857.9,-203.06 962.89,-229.3 1368.67,-199.04"/>
<polygon fill="midnightblue" stroke="midnightblue" points="1369.22,-202.51 1378.93,-198.27 1368.69,-195.53 1369.22,-202.51"/>
</g>
<!-- Node40&#45;&gt;Node2 -->
<g id="edge75" class="edge">
<title>Node40&#45;&gt;Node2</title>
<path fill="none" stroke="midnightblue" d="M98.74,-307.59C101.87,-276.01 117.1,-168.87 182,-123 233.08,-86.9 639.09,-76.44 821.17,-73.55"/>
<polygon fill="midnightblue" stroke="midnightblue" points="821.31,-77.04 831.26,-73.39 821.2,-70.05 821.31,-77.04"/>
</g>
<!-- Node41&#45;&gt;Node2 -->
<g id="edge77" class="edge">
<title>Node41&#45;&gt;Node2</title>
<path fill="none" stroke="midnightblue" d="M373.91,-179.5C392.98,-165.13 434.18,-136.31 474,-123 589.95,-84.23 731.86,-74.24 821.38,-72.17"/>
<polygon fill="midnightblue" stroke="midnightblue" points="821.56,-75.67 831.49,-71.97 821.42,-68.67 821.56,-75.67"/>
</g>
<!-- Node41&#45;&gt;Node8 -->
<g id="edge78" class="edge">
<title>Node41&#45;&gt;Node8</title>
<path fill="none" stroke="midnightblue" d="M452.57,-179.75C455.75,-179.49 458.9,-179.24 462,-179 709.33,-159.7 1006.98,-142.23 1112.54,-136.22"/>
<polygon fill="midnightblue" stroke="midnightblue" points="1112.94,-139.7 1122.73,-135.64 1112.54,-132.71 1112.94,-139.7"/>
</g>
<!-- Node42&#45;&gt;Node2 -->
<g id="edge80" class="edge">
<title>Node42&#45;&gt;Node2</title>
<path fill="none" stroke="midnightblue" d="M196,-436.41C196,-415.98 196,-362.86 196,-318.5 196,-318.5 196,-318.5 196,-188 196,-128.51 256.1,-140.34 313,-123 405.49,-94.81 678.77,-80.91 820.9,-75.43"/>
<polygon fill="midnightblue" stroke="midnightblue" points="821.46,-78.91 831.32,-75.03 821.19,-71.92 821.46,-78.91"/>
</g>
</g>
</svg>
