<?xml version="1.0" encoding="UTF-8" standalone="no"?>
<!DOCTYPE svg PUBLIC "-//W3C//DTD SVG 1.1//EN"
 "http://www.w3.org/Graphics/SVG/1.1/DTD/svg11.dtd">
<!-- Generated by graphviz version 2.43.0 (0)
 -->
<!-- Title: Prog.h Pages: 1 -->
<!--zoomable 341 -->
<svg id="main" version="1.1" xmlns="http://www.w3.org/2000/svg" xmlns:xlink="http://www.w3.org/1999/xlink" xml:space="preserve" onload="init(evt)">
<style type="text/css"><![CDATA[
.edge:hover path { stroke: red; }
.edge:hover polygon { stroke: red; fill: red; }
]]></style>
<script type="text/javascript"><![CDATA[
var edges = document.getElementsByTagName('g');
if (edges && edges.length) {
  for (var i=0;i<edges.length;i++) {
    if (edges[i].id.substr(0,4)=='edge') {
      edges[i].setAttribute('class','edge');
    }
  }
}
]]></script>
        <defs>
                <circle id="rim" cx="0" cy="0" r="7"/>
                <circle id="rim2" cx="0" cy="0" r="3.5"/>
                <g id="zoomPlus">
                        <use xlink:href="#rim" fill="#404040">
                                <set attributeName="fill" to="#808080" begin="zoomplus.mouseover" end="zoomplus.mouseout"/>
                        </use>
                        <path d="M-4,0h8M0,-4v8" fill="none" stroke="white" stroke-width="1.5" pointer-events="none"/>
                </g>
                <g id="zoomMin">
                        <use xlink:href="#rim" fill="#404040">
                                <set attributeName="fill" to="#808080" begin="zoomminus.mouseover" end="zoomminus.mouseout"/>
                        </use>
                        <path d="M-4,0h8" fill="none" stroke="white" stroke-width="1.5" pointer-events="none"/>
                </g>
                <g id="dirArrow">
                        <path fill="none" stroke="white" stroke-width="1.5" d="M0,-3.0v7 M-2.5,-0.5L0,-3.0L2.5,-0.5"/>
                </g>
               <g id="resetDef">
                       <use xlink:href="#rim2" fill="#404040">
                               <set attributeName="fill" to="#808080" begin="reset.mouseover" end="reset.mouseout"/>
                       </use>
               </g>
        </defs>

<script type="text/javascript">
var viewWidth = 1241;
var viewHeight = 341;
var sectionId = 'dynsection-0';
</script>
<script xlink:href="svgpan.js"/>
<svg id="graph" class="graph">
<g id="viewport">
<title>Prog.h</title>
<polygon fill="white" stroke="transparent" points="-4,4 -4,-337 1236.82,-337 1236.82,4 -4,4"/>
<!-- Node1 -->
<g id="node1" class="node">
<title>Node1</title>
<g id="a_node1"><a xlink:title=" ">
<polygon fill="#bfbfbf" stroke="black" points="609.32,-313.5 609.32,-332.5 656.32,-332.5 656.32,-313.5 609.32,-313.5"/>
<text text-anchor="middle" x="632.82" y="-320.5" font-family="Helvetica,sans-Serif" font-size="10.00">Prog.h</text>
</a>
</g>
</g>
<!-- Node2 -->
<g id="node2" class="node">
<title>Node2</title>
<g id="a_node2"><a xlink:href="BoomerangAPI_8h.html" target="_top" xlink:title=" ">
<polygon fill="white" stroke="black" points="71.32,-56.5 71.32,-86.5 226.32,-86.5 226.32,-56.5 71.32,-56.5"/>
<text text-anchor="start" x="79.32" y="-74.5" font-family="Helvetica,sans-Serif" font-size="10.00">boomerang/core/Boomerang</text>
<text text-anchor="middle" x="148.82" y="-63.5" font-family="Helvetica,sans-Serif" font-size="10.00">API.h</text>
</a>
</g>
</g>
<!-- Node1&#45;&gt;Node2 -->
<g id="edge1" class="edge">
<title>Node1&#45;&gt;Node2</title>
<path fill="none" stroke="midnightblue" d="M609.06,-321.4C520.3,-318.92 208.51,-308.15 114.82,-277 61.22,-259.18 34.28,-259.36 6.82,-210 -21.77,-158.62 51.52,-114.43 103.12,-90.81"/>
<polygon fill="midnightblue" stroke="midnightblue" points="104.76,-93.91 112.47,-86.64 101.91,-87.52 104.76,-93.91"/>
</g>
<!-- Node3 -->
<g id="node3" class="node">
<title>Node3</title>
<g id="a_node3"><a xlink:href="Global_8h.html" target="_top" xlink:title=" ">
<polygon fill="white" stroke="black" points="473.32,-252 473.32,-271 604.32,-271 604.32,-252 473.32,-252"/>
<text text-anchor="middle" x="538.82" y="-259" font-family="Helvetica,sans-Serif" font-size="10.00">boomerang/db/Global.h</text>
</a>
</g>
</g>
<!-- Node1&#45;&gt;Node3 -->
<g id="edge2" class="edge">
<title>Node1&#45;&gt;Node3</title>
<path fill="none" stroke="midnightblue" d="M619.35,-313.48C604.13,-303.84 579.13,-288.02 561.02,-276.55"/>
<polygon fill="midnightblue" stroke="midnightblue" points="562.58,-273.4 552.26,-271.01 558.84,-279.31 562.58,-273.4"/>
</g>
<!-- Node7 -->
<g id="node7" class="node">
<title>Node7</title>
<g id="a_node7"><a xlink:title=" ">
<polygon fill="white" stroke="#bfbfbf" points="366.32,-123.5 366.32,-142.5 419.32,-142.5 419.32,-123.5 366.32,-123.5"/>
<text text-anchor="middle" x="392.82" y="-130.5" font-family="Helvetica,sans-Serif" font-size="10.00">QString</text>
</a>
</g>
</g>
<!-- Node1&#45;&gt;Node7 -->
<g id="edge46" class="edge">
<title>Node1&#45;&gt;Node7</title>
<path fill="none" stroke="midnightblue" d="M609.2,-322.48C552.51,-322.89 405.05,-319.42 291.82,-277 241.37,-258.1 216.29,-257.46 190.82,-210 184.3,-197.86 182.2,-189.75 190.82,-179 211.11,-153.69 303.26,-141.7 355.82,-136.83"/>
<polygon fill="midnightblue" stroke="midnightblue" points="356.43,-140.29 366.08,-135.92 355.81,-133.31 356.43,-140.29"/>
</g>
<!-- Node9 -->
<g id="node9" class="node">
<title>Node9</title>
<g id="a_node9"><a xlink:title=" ">
<polygon fill="white" stroke="#bfbfbf" points="662.82,-123.5 662.82,-142.5 720.82,-142.5 720.82,-123.5 662.82,-123.5"/>
<text text-anchor="middle" x="691.82" y="-130.5" font-family="Helvetica,sans-Serif" font-size="10.00">memory</text>
</a>
</g>
</g>
<!-- Node1&#45;&gt;Node9 -->
<g id="edge49" class="edge">
<title>Node1&#45;&gt;Node9</title>
<path fill="none" stroke="midnightblue" d="M636.5,-313.43C644.38,-294.86 663.08,-249.41 674.82,-210 680.59,-190.61 685.43,-167.91 688.44,-152.4"/>
<polygon fill="midnightblue" stroke="midnightblue" points="691.89,-153.01 690.31,-142.53 685.01,-151.71 691.89,-153.01"/>
</g>
<!-- Node10 -->
<g id="node10" class="node">
<title>Node10</title>
<g id="a_node10"><a xlink:href="Address_8h.html" target="_top" xlink:title=" ">
<polygon fill="white" stroke="black" points="199.82,-185 199.82,-204 341.82,-204 341.82,-185 199.82,-185"/>
<text text-anchor="middle" x="270.82" y="-192" font-family="Helvetica,sans-Serif" font-size="10.00">boomerang/util/Address.h</text>
</a>
</g>
</g>
<!-- Node1&#45;&gt;Node10 -->
<g id="edge45" class="edge">
<title>Node1&#45;&gt;Node10</title>
<path fill="none" stroke="midnightblue" d="M609.03,-320.97C545.44,-317.84 373.13,-306.75 325.82,-277 302.04,-262.05 286.11,-232.65 277.76,-213.55"/>
<polygon fill="midnightblue" stroke="midnightblue" points="280.94,-212.08 273.9,-204.16 274.46,-214.74 280.94,-212.08"/>
</g>
<!-- Node15 -->
<g id="node15" class="node">
<title>Node15</title>
<g id="a_node15"><a xlink:href="BinaryFile_8h.html" target="_top" xlink:title=" ">
<polygon fill="white" stroke="black" points="334.32,-246.5 334.32,-276.5 455.32,-276.5 455.32,-246.5 334.32,-246.5"/>
<text text-anchor="start" x="342.32" y="-264.5" font-family="Helvetica,sans-Serif" font-size="10.00">boomerang/db/binary</text>
<text text-anchor="middle" x="394.82" y="-253.5" font-family="Helvetica,sans-Serif" font-size="10.00">/BinaryFile.h</text>
</a>
</g>
</g>
<!-- Node1&#45;&gt;Node15 -->
<g id="edge23" class="edge">
<title>Node1&#45;&gt;Node15</title>
<path fill="none" stroke="midnightblue" d="M609.13,-316.08C574.92,-307.52 510.38,-291.39 461.03,-279.05"/>
<polygon fill="midnightblue" stroke="midnightblue" points="461.62,-275.59 451.07,-276.56 459.92,-282.38 461.62,-275.59"/>
</g>
<!-- Node16 -->
<g id="node16" class="node">
<title>Node16</title>
<g id="a_node16"><a xlink:href="ModuleFactory_8h.html" target="_top" xlink:title=" ">
<polygon fill="white" stroke="black" points="16.32,-179.5 16.32,-209.5 143.32,-209.5 143.32,-179.5 16.32,-179.5"/>
<text text-anchor="start" x="24.32" y="-197.5" font-family="Helvetica,sans-Serif" font-size="10.00">boomerang/db/module</text>
<text text-anchor="middle" x="79.82" y="-186.5" font-family="Helvetica,sans-Serif" font-size="10.00">/ModuleFactory.h</text>
</a>
</g>
</g>
<!-- Node1&#45;&gt;Node16 -->
<g id="edge26" class="edge">
<title>Node1&#45;&gt;Node16</title>
<path fill="none" stroke="midnightblue" d="M609.03,-321.91C524.42,-321.28 238.8,-316.21 157.82,-277 130.76,-263.9 108.11,-237.21 94.31,-217.94"/>
<polygon fill="midnightblue" stroke="midnightblue" points="97.17,-215.92 88.6,-209.68 91.41,-219.9 97.17,-215.92"/>
</g>
<!-- Node17 -->
<g id="node17" class="node">
<title>Node17</title>
<g id="a_node17"><a xlink:href="SigEnum_8h.html" target="_top" xlink:title=" ">
<polygon fill="white" stroke="black" points="1016.82,-246.5 1016.82,-276.5 1132.82,-276.5 1132.82,-246.5 1016.82,-246.5"/>
<text text-anchor="start" x="1024.82" y="-264.5" font-family="Helvetica,sans-Serif" font-size="10.00">boomerang/frontend</text>
<text text-anchor="middle" x="1074.82" y="-253.5" font-family="Helvetica,sans-Serif" font-size="10.00">/SigEnum.h</text>
</a>
</g>
</g>
<!-- Node1&#45;&gt;Node17 -->
<g id="edge28" class="edge">
<title>Node1&#45;&gt;Node17</title>
<path fill="none" stroke="midnightblue" d="M656.72,-319.74C715.69,-314.03 872.81,-297.96 1002.82,-277 1004.09,-276.79 1005.38,-276.58 1006.67,-276.36"/>
<polygon fill="midnightblue" stroke="midnightblue" points="1007.48,-279.78 1016.73,-274.6 1006.28,-272.88 1007.48,-279.78"/>
</g>
<!-- Node18 -->
<g id="node18" class="node">
<title>Node18</title>
<g id="a_node18"><a xlink:href="Register_8h.html" target="_top" xlink:title=" ">
<polygon fill="white" stroke="black" points="498.32,-185 498.32,-204 639.32,-204 639.32,-185 498.32,-185"/>
<text text-anchor="middle" x="568.82" y="-192" font-family="Helvetica,sans-Serif" font-size="10.00">boomerang/ssl/Register.h</text>
</a>
</g>
</g>
<!-- Node1&#45;&gt;Node18 -->
<g id="edge29" class="edge">
<title>Node1&#45;&gt;Node18</title>
<path fill="none" stroke="midnightblue" d="M631.99,-313.08C630.31,-298.35 625.64,-268.36 613.82,-246 606.87,-232.86 595.79,-220.37 586.37,-211.1"/>
<polygon fill="midnightblue" stroke="midnightblue" points="588.64,-208.43 578.97,-204.12 583.84,-213.53 588.64,-208.43"/>
</g>
<!-- Node20 -->
<g id="node20" class="node">
<title>Node20</title>
<g id="a_node20"><a xlink:href="DataIntervalMap_8h.html" target="_top" xlink:title=" ">
<polygon fill="white" stroke="black" points="734.32,-246.5 734.32,-276.5 895.32,-276.5 895.32,-246.5 734.32,-246.5"/>
<text text-anchor="start" x="742.32" y="-264.5" font-family="Helvetica,sans-Serif" font-size="10.00">boomerang/type/DataInterval</text>
<text text-anchor="middle" x="814.82" y="-253.5" font-family="Helvetica,sans-Serif" font-size="10.00">Map.h</text>
</a>
</g>
</g>
<!-- Node1&#45;&gt;Node20 -->
<g id="edge36" class="edge">
<title>Node1&#45;&gt;Node20</title>
<path fill="none" stroke="midnightblue" d="M656.61,-314.22C683.3,-305.5 727.41,-291.08 762.28,-279.68"/>
<polygon fill="midnightblue" stroke="midnightblue" points="763.43,-282.98 771.85,-276.55 761.26,-276.33 763.43,-282.98"/>
</g>
<!-- Node25 -->
<g id="node25" class="node">
<title>Node25</title>
<g id="a_node25"><a xlink:title=" ">
<polygon fill="white" stroke="#bfbfbf" points="1042.82,-123.5 1042.82,-142.5 1080.82,-142.5 1080.82,-123.5 1042.82,-123.5"/>
<text text-anchor="middle" x="1061.82" y="-130.5" font-family="Helvetica,sans-Serif" font-size="10.00">map</text>
</a>
</g>
</g>
<!-- Node1&#45;&gt;Node25 -->
<g id="edge48" class="edge">
<title>Node1&#45;&gt;Node25</title>
<path fill="none" stroke="midnightblue" d="M656.32,-320.56C704.18,-317.09 815.95,-306.29 904.82,-277 966.93,-256.53 993,-259.43 1035.82,-210 1049.91,-193.73 1056.46,-169.44 1059.44,-152.73"/>
<polygon fill="midnightblue" stroke="midnightblue" points="1062.95,-152.97 1060.98,-142.56 1056.03,-151.92 1062.95,-152.97"/>
</g>
<!-- Node26 -->
<g id="node26" class="node">
<title>Node26</title>
<g id="a_node26"><a xlink:title=" ">
<polygon fill="white" stroke="#bfbfbf" points="1150.82,-252 1150.82,-271 1182.82,-271 1182.82,-252 1150.82,-252"/>
<text text-anchor="middle" x="1166.82" y="-259" font-family="Helvetica,sans-Serif" font-size="10.00">list</text>
</a>
</g>
</g>
<!-- Node1&#45;&gt;Node26 -->
<g id="edge47" class="edge">
<title>Node1&#45;&gt;Node26</title>
<path fill="none" stroke="midnightblue" d="M656.44,-321.27C743.95,-318.36 1049.43,-306.28 1141.82,-277 1143.06,-276.61 1144.3,-276.15 1145.53,-275.63"/>
<polygon fill="midnightblue" stroke="midnightblue" points="1147.28,-278.67 1154.6,-271.01 1144.1,-272.44 1147.28,-278.67"/>
</g>
<!-- Node27 -->
<g id="node27" class="node">
<title>Node27</title>
<g id="a_node27"><a xlink:title=" ">
<polygon fill="white" stroke="#bfbfbf" points="1200.82,-252 1200.82,-271 1232.82,-271 1232.82,-252 1200.82,-252"/>
<text text-anchor="middle" x="1216.82" y="-259" font-family="Helvetica,sans-Serif" font-size="10.00">set</text>
</a>
</g>
</g>
<!-- Node1&#45;&gt;Node27 -->
<g id="edge50" class="edge">
<title>Node1&#45;&gt;Node27</title>
<path fill="none" stroke="midnightblue" d="M656.49,-321.48C749.46,-319.24 1089.48,-308.99 1191.82,-277 1193.06,-276.61 1194.3,-276.16 1195.54,-275.65"/>
<polygon fill="midnightblue" stroke="midnightblue" points="1197.28,-278.69 1204.61,-271.03 1194.11,-272.45 1197.28,-278.69"/>
</g>
<!-- Node4 -->
<g id="node4" class="node">
<title>Node4</title>
<g id="a_node4"><a xlink:href="Type_8h.html" target="_top" xlink:title=" ">
<polygon fill="white" stroke="black" points="734.32,-179.5 734.32,-209.5 847.32,-209.5 847.32,-179.5 734.32,-179.5"/>
<text text-anchor="start" x="742.32" y="-197.5" font-family="Helvetica,sans-Serif" font-size="10.00">boomerang/ssl/type</text>
<text text-anchor="middle" x="790.82" y="-186.5" font-family="Helvetica,sans-Serif" font-size="10.00">/Type.h</text>
</a>
</g>
</g>
<!-- Node3&#45;&gt;Node4 -->
<g id="edge3" class="edge">
<title>Node3&#45;&gt;Node4</title>
<path fill="none" stroke="midnightblue" d="M572.02,-251.94C611.16,-241.84 677.1,-224.83 726.38,-212.12"/>
<polygon fill="midnightblue" stroke="midnightblue" points="727.5,-215.45 736.31,-209.56 725.75,-208.67 727.5,-215.45"/>
</g>
<!-- Node3&#45;&gt;Node10 -->
<g id="edge10" class="edge">
<title>Node3&#45;&gt;Node10</title>
<path fill="none" stroke="midnightblue" d="M503.51,-251.94C455.3,-240.24 368.86,-219.28 315.99,-206.46"/>
<polygon fill="midnightblue" stroke="midnightblue" points="316.75,-203.04 306.21,-204.08 315.1,-209.84 316.75,-203.04"/>
</g>
<!-- Node13 -->
<g id="node13" class="node">
<title>Node13</title>
<g id="a_node13"><a xlink:href="Util_8h.html" target="_top" xlink:title=" ">
<polygon fill="white" stroke="black" points="359.82,-185 359.82,-204 479.82,-204 479.82,-185 359.82,-185"/>
<text text-anchor="middle" x="419.82" y="-192" font-family="Helvetica,sans-Serif" font-size="10.00">boomerang/util/Util.h</text>
</a>
</g>
</g>
<!-- Node3&#45;&gt;Node13 -->
<g id="edge18" class="edge">
<title>Node3&#45;&gt;Node13</title>
<path fill="none" stroke="midnightblue" d="M522.77,-251.73C502.7,-240.77 468.12,-221.88 444.62,-209.05"/>
<polygon fill="midnightblue" stroke="midnightblue" points="446.07,-205.85 435.61,-204.13 442.71,-211.99 446.07,-205.85"/>
</g>
<!-- Node4&#45;&gt;Node2 -->
<g id="edge4" class="edge">
<title>Node4&#45;&gt;Node2</title>
<path fill="none" stroke="midnightblue" d="M783.29,-179.45C773.46,-162.7 754.55,-135.41 729.82,-123 634.13,-74.98 360.63,-98.67 236.65,-86.9"/>
<polygon fill="midnightblue" stroke="midnightblue" points="236.87,-83.4 226.55,-85.82 236.13,-90.37 236.87,-83.4"/>
</g>
<!-- Node5 -->
<g id="node5" class="node">
<title>Node5</title>
<g id="a_node5"><a xlink:href="Types_8h.html" target="_top" xlink:title=" ">
<polygon fill="white" stroke="black" points="408.32,-62 408.32,-81 539.32,-81 539.32,-62 408.32,-62"/>
<text text-anchor="middle" x="473.82" y="-69" font-family="Helvetica,sans-Serif" font-size="10.00">boomerang/util/Types.h</text>
</a>
</g>
</g>
<!-- Node4&#45;&gt;Node5 -->
<g id="edge5" class="edge">
<title>Node4&#45;&gt;Node5</title>
<path fill="none" stroke="midnightblue" d="M789.3,-179.47C786.76,-163.27 780.08,-137.04 762.82,-123 730.88,-97.02 624.05,-83.72 549.64,-77.44"/>
<polygon fill="midnightblue" stroke="midnightblue" points="549.62,-73.92 539.37,-76.6 549.05,-80.9 549.62,-73.92"/>
</g>
<!-- Node4&#45;&gt;Node7 -->
<g id="edge7" class="edge">
<title>Node4&#45;&gt;Node7</title>
<path fill="none" stroke="midnightblue" d="M734.08,-187.48C664.57,-179.68 543.09,-164.69 429.4,-142.92"/>
<polygon fill="midnightblue" stroke="midnightblue" points="429.97,-139.47 419.48,-141 428.64,-146.34 429.97,-139.47"/>
</g>
<!-- Node8 -->
<g id="node8" class="node">
<title>Node8</title>
<g id="a_node8"><a xlink:title=" ">
<polygon fill="white" stroke="#bfbfbf" points="814.82,-123.5 814.82,-142.5 866.82,-142.5 866.82,-123.5 814.82,-123.5"/>
<text text-anchor="middle" x="840.82" y="-130.5" font-family="Helvetica,sans-Serif" font-size="10.00">cassert</text>
</a>
</g>
</g>
<!-- Node4&#45;&gt;Node8 -->
<g id="edge8" class="edge">
<title>Node4&#45;&gt;Node8</title>
<path fill="none" stroke="midnightblue" d="M802.67,-179.4C809.93,-170.75 819.27,-159.64 826.89,-150.58"/>
<polygon fill="midnightblue" stroke="midnightblue" points="829.79,-152.57 833.54,-142.66 824.43,-148.06 829.79,-152.57"/>
</g>
<!-- Node4&#45;&gt;Node9 -->
<g id="edge9" class="edge">
<title>Node4&#45;&gt;Node9</title>
<path fill="none" stroke="midnightblue" d="M767.36,-179.4C751.49,-169.86 730.63,-157.32 714.85,-147.84"/>
<polygon fill="midnightblue" stroke="midnightblue" points="716.6,-144.81 706.22,-142.66 712.99,-150.81 716.6,-144.81"/>
</g>
<!-- Node6 -->
<g id="node6" class="node">
<title>Node6</title>
<g id="a_node6"><a xlink:title=" ">
<polygon fill="white" stroke="#bfbfbf" points="448.82,-0.5 448.82,-19.5 498.82,-19.5 498.82,-0.5 448.82,-0.5"/>
<text text-anchor="middle" x="473.82" y="-7.5" font-family="Helvetica,sans-Serif" font-size="10.00">cstdint</text>
</a>
</g>
</g>
<!-- Node5&#45;&gt;Node6 -->
<g id="edge6" class="edge">
<title>Node5&#45;&gt;Node6</title>
<path fill="none" stroke="midnightblue" d="M473.82,-61.98C473.82,-53.58 473.82,-40.48 473.82,-29.66"/>
<polygon fill="midnightblue" stroke="midnightblue" points="477.32,-29.51 473.82,-19.51 470.32,-29.51 477.32,-29.51"/>
</g>
<!-- Node10&#45;&gt;Node2 -->
<g id="edge11" class="edge">
<title>Node10&#45;&gt;Node2</title>
<path fill="none" stroke="midnightblue" d="M199.8,-188.34C169.09,-182.17 135.88,-169.32 116.82,-143 106.07,-128.17 115.83,-109.15 127.31,-94.61"/>
<polygon fill="midnightblue" stroke="midnightblue" points="130.29,-96.5 134.13,-86.63 124.97,-91.96 130.29,-96.5"/>
</g>
<!-- Node10&#45;&gt;Node5 -->
<g id="edge16" class="edge">
<title>Node10&#45;&gt;Node5</title>
<path fill="none" stroke="midnightblue" d="M279.84,-184.78C294.99,-170.48 326.91,-141.77 357.82,-123 383.77,-107.24 415.52,-93.77 439.24,-84.72"/>
<polygon fill="midnightblue" stroke="midnightblue" points="440.74,-87.9 448.88,-81.12 438.28,-81.34 440.74,-87.9"/>
</g>
<!-- Node10&#45;&gt;Node7 -->
<g id="edge17" class="edge">
<title>Node10&#45;&gt;Node7</title>
<path fill="none" stroke="midnightblue" d="M288.3,-184.98C308.68,-175.03 342.59,-158.49 366.24,-146.96"/>
<polygon fill="midnightblue" stroke="midnightblue" points="367.92,-150.04 375.37,-142.51 364.85,-143.75 367.92,-150.04"/>
</g>
<!-- Node11 -->
<g id="node11" class="node">
<title>Node11</title>
<g id="a_node11"><a xlink:href="OStream_8h.html" target="_top" xlink:title=" ">
<polygon fill="white" stroke="black" points="125.82,-123.5 125.82,-142.5 271.82,-142.5 271.82,-123.5 125.82,-123.5"/>
<text text-anchor="middle" x="198.82" y="-130.5" font-family="Helvetica,sans-Serif" font-size="10.00">boomerang/util/OStream.h</text>
</a>
</g>
</g>
<!-- Node10&#45;&gt;Node11 -->
<g id="edge12" class="edge">
<title>Node10&#45;&gt;Node11</title>
<path fill="none" stroke="midnightblue" d="M260.5,-184.98C249.17,-175.61 230.74,-160.38 216.98,-149.01"/>
<polygon fill="midnightblue" stroke="midnightblue" points="219.05,-146.18 209.11,-142.51 214.59,-151.58 219.05,-146.18"/>
</g>
<!-- Node11&#45;&gt;Node2 -->
<g id="edge13" class="edge">
<title>Node11&#45;&gt;Node2</title>
<path fill="none" stroke="midnightblue" d="M191.65,-123.48C185.26,-115.87 175.62,-104.4 167.11,-94.26"/>
<polygon fill="midnightblue" stroke="midnightblue" points="169.71,-91.93 160.6,-86.52 164.36,-96.43 169.71,-91.93"/>
</g>
<!-- Node11&#45;&gt;Node5 -->
<g id="edge14" class="edge">
<title>Node11&#45;&gt;Node5</title>
<path fill="none" stroke="midnightblue" d="M238.22,-123.48C287.33,-112.85 371.28,-94.68 424.58,-83.15"/>
<polygon fill="midnightblue" stroke="midnightblue" points="425.46,-86.54 434.49,-81.01 423.98,-79.7 425.46,-86.54"/>
</g>
<!-- Node12 -->
<g id="node12" class="node">
<title>Node12</title>
<g id="a_node12"><a xlink:title=" ">
<polygon fill="white" stroke="#bfbfbf" points="244.82,-62 244.82,-81 290.82,-81 290.82,-62 244.82,-62"/>
<text text-anchor="middle" x="267.82" y="-69" font-family="Helvetica,sans-Serif" font-size="10.00">cstdio</text>
</a>
</g>
</g>
<!-- Node11&#45;&gt;Node12 -->
<g id="edge15" class="edge">
<title>Node11&#45;&gt;Node12</title>
<path fill="none" stroke="midnightblue" d="M208.7,-123.48C219.46,-114.2 236.89,-99.17 250.04,-87.83"/>
<polygon fill="midnightblue" stroke="midnightblue" points="252.66,-90.19 257.95,-81.01 248.09,-84.89 252.66,-90.19"/>
</g>
<!-- Node13&#45;&gt;Node2 -->
<g id="edge19" class="edge">
<title>Node13&#45;&gt;Node2</title>
<path fill="none" stroke="midnightblue" d="M404.23,-184.92C378.79,-171.07 326.58,-143.29 280.82,-123 253.99,-111.1 223.41,-99.3 198.45,-90.1"/>
<polygon fill="midnightblue" stroke="midnightblue" points="199.42,-86.72 188.82,-86.57 197.01,-93.3 199.42,-86.72"/>
</g>
<!-- Node13&#45;&gt;Node7 -->
<g id="edge20" class="edge">
<title>Node13&#45;&gt;Node7</title>
<path fill="none" stroke="midnightblue" d="M415.95,-184.98C412.02,-176.32 405.82,-162.65 400.82,-151.65"/>
<polygon fill="midnightblue" stroke="midnightblue" points="404,-150.17 396.68,-142.51 397.62,-153.06 404,-150.17"/>
</g>
<!-- Node13&#45;&gt;Node9 -->
<g id="edge21" class="edge">
<title>Node13&#45;&gt;Node9</title>
<path fill="none" stroke="midnightblue" d="M460.45,-184.99C505.16,-175.57 579.4,-159.75 652.89,-143.18"/>
<polygon fill="midnightblue" stroke="midnightblue" points="653.8,-146.56 662.79,-140.94 652.26,-139.73 653.8,-146.56"/>
</g>
<!-- Node14 -->
<g id="node14" class="node">
<title>Node14</title>
<g id="a_node14"><a xlink:title=" ">
<polygon fill="white" stroke="#bfbfbf" points="437.32,-123.5 437.32,-142.5 506.32,-142.5 506.32,-123.5 437.32,-123.5"/>
<text text-anchor="middle" x="471.82" y="-130.5" font-family="Helvetica,sans-Serif" font-size="10.00">type_traits</text>
</a>
</g>
</g>
<!-- Node13&#45;&gt;Node14 -->
<g id="edge22" class="edge">
<title>Node13&#45;&gt;Node14</title>
<path fill="none" stroke="midnightblue" d="M427.27,-184.98C435.15,-175.96 447.76,-161.52 457.56,-150.31"/>
<polygon fill="midnightblue" stroke="midnightblue" points="460.44,-152.34 464.38,-142.51 455.17,-147.74 460.44,-152.34"/>
</g>
<!-- Node15&#45;&gt;Node9 -->
<g id="edge25" class="edge">
<title>Node15&#45;&gt;Node9</title>
<path fill="none" stroke="midnightblue" d="M455.52,-247.88C458.66,-247.24 461.78,-246.61 464.82,-246 546.51,-229.55 581.22,-258.73 648.82,-210 668.37,-195.91 680.22,-170 686.4,-152.39"/>
<polygon fill="midnightblue" stroke="midnightblue" points="689.79,-153.28 689.53,-142.68 683.13,-151.13 689.79,-153.28"/>
</g>
<!-- Node15&#45;&gt;Node10 -->
<g id="edge24" class="edge">
<title>Node15&#45;&gt;Node10</title>
<path fill="none" stroke="midnightblue" d="M367.91,-246.4C346.54,-235.19 316.87,-219.64 295.97,-208.69"/>
<polygon fill="midnightblue" stroke="midnightblue" points="297.53,-205.55 287.05,-204.01 294.28,-211.75 297.53,-205.55"/>
</g>
<!-- Node16&#45;&gt;Node2 -->
<g id="edge27" class="edge">
<title>Node16&#45;&gt;Node2</title>
<path fill="none" stroke="midnightblue" d="M77.34,-179.35C75.45,-164.44 74.53,-140.69 83.82,-123 90.33,-110.6 101.38,-100.29 112.55,-92.29"/>
<polygon fill="midnightblue" stroke="midnightblue" points="114.66,-95.09 121.03,-86.63 110.77,-89.27 114.66,-95.09"/>
</g>
<!-- Node18&#45;&gt;Node2 -->
<g id="edge30" class="edge">
<title>Node18&#45;&gt;Node2</title>
<path fill="none" stroke="midnightblue" d="M565.08,-184.78C557.98,-169.38 540.96,-137.63 515.82,-123 410.13,-61.5 362.39,-103.08 236.58,-86.99"/>
<polygon fill="midnightblue" stroke="midnightblue" points="236.97,-83.51 226.58,-85.61 236.01,-90.44 236.97,-83.51"/>
</g>
<!-- Node18&#45;&gt;Node5 -->
<g id="edge31" class="edge">
<title>Node18&#45;&gt;Node5</title>
<path fill="none" stroke="midnightblue" d="M568.27,-184.87C566.97,-170.69 562.71,-142.16 548.82,-123 537.14,-106.9 518.65,-94.36 502.95,-85.81"/>
<polygon fill="midnightblue" stroke="midnightblue" points="504.12,-82.47 493.63,-81 500.91,-88.7 504.12,-82.47"/>
</g>
<!-- Node18&#45;&gt;Node7 -->
<g id="edge32" class="edge">
<title>Node18&#45;&gt;Node7</title>
<path fill="none" stroke="midnightblue" d="M543.6,-184.98C513.15,-174.68 461.77,-157.31 427.57,-145.75"/>
<polygon fill="midnightblue" stroke="midnightblue" points="428.58,-142.4 417.99,-142.51 426.34,-149.03 428.58,-142.4"/>
</g>
<!-- Node18&#45;&gt;Node9 -->
<g id="edge33" class="edge">
<title>Node18&#45;&gt;Node9</title>
<path fill="none" stroke="midnightblue" d="M586.44,-184.98C606.99,-175.03 641.18,-158.49 665.02,-146.96"/>
<polygon fill="midnightblue" stroke="midnightblue" points="666.75,-150.01 674.23,-142.51 663.7,-143.71 666.75,-150.01"/>
</g>
<!-- Node18&#45;&gt;Node14 -->
<g id="edge35" class="edge">
<title>Node18&#45;&gt;Node14</title>
<path fill="none" stroke="midnightblue" d="M554.92,-184.98C539.15,-175.3 513.18,-159.37 494.47,-147.89"/>
<polygon fill="midnightblue" stroke="midnightblue" points="496.04,-144.75 485.69,-142.51 492.38,-150.72 496.04,-144.75"/>
</g>
<!-- Node19 -->
<g id="node19" class="node">
<title>Node19</title>
<g id="a_node19"><a xlink:title=" ">
<polygon fill="white" stroke="#bfbfbf" points="600.82,-123.5 600.82,-142.5 644.82,-142.5 644.82,-123.5 600.82,-123.5"/>
<text text-anchor="middle" x="622.82" y="-130.5" font-family="Helvetica,sans-Serif" font-size="10.00">string</text>
</a>
</g>
</g>
<!-- Node18&#45;&gt;Node19 -->
<g id="edge34" class="edge">
<title>Node18&#45;&gt;Node19</title>
<path fill="none" stroke="midnightblue" d="M576.55,-184.98C584.82,-175.87 598.09,-161.24 608.31,-149.98"/>
<polygon fill="midnightblue" stroke="midnightblue" points="610.97,-152.27 615.1,-142.51 605.78,-147.56 610.97,-152.27"/>
</g>
<!-- Node20&#45;&gt;Node4 -->
<g id="edge37" class="edge">
<title>Node20&#45;&gt;Node4</title>
<path fill="none" stroke="midnightblue" d="M809.61,-246.4C806.65,-238.39 802.88,-228.16 799.49,-218.98"/>
<polygon fill="midnightblue" stroke="midnightblue" points="802.76,-217.75 796.02,-209.58 796.2,-220.17 802.76,-217.75"/>
</g>
<!-- Node20&#45;&gt;Node10 -->
<g id="edge38" class="edge">
<title>Node20&#45;&gt;Node10</title>
<path fill="none" stroke="midnightblue" d="M734.13,-253.47C641.39,-244.98 484.74,-229.4 350.82,-210 342.38,-208.78 333.48,-207.33 324.79,-205.82"/>
<polygon fill="midnightblue" stroke="midnightblue" points="325.2,-202.34 314.74,-204.04 323.98,-209.23 325.2,-202.34"/>
</g>
<!-- Node21 -->
<g id="node21" class="node">
<title>Node21</title>
<g id="a_node21"><a xlink:href="IntervalMap_8h.html" target="_top" xlink:title=" ">
<polygon fill="white" stroke="black" points="865.32,-185 865.32,-204 1026.32,-204 1026.32,-185 865.32,-185"/>
<text text-anchor="middle" x="945.82" y="-192" font-family="Helvetica,sans-Serif" font-size="10.00">boomerang/util/IntervalMap.h</text>
</a>
</g>
</g>
<!-- Node20&#45;&gt;Node21 -->
<g id="edge39" class="edge">
<title>Node20&#45;&gt;Node21</title>
<path fill="none" stroke="midnightblue" d="M843.24,-246.4C865.92,-235.14 897.45,-219.5 919.54,-208.54"/>
<polygon fill="midnightblue" stroke="midnightblue" points="921.27,-211.59 928.67,-204.01 918.16,-205.32 921.27,-211.59"/>
</g>
<!-- Node21&#45;&gt;Node8 -->
<g id="edge43" class="edge">
<title>Node21&#45;&gt;Node8</title>
<path fill="none" stroke="midnightblue" d="M930.77,-184.98C913.54,-175.21 885.08,-159.08 864.78,-147.58"/>
<polygon fill="midnightblue" stroke="midnightblue" points="866.26,-144.39 855.83,-142.51 862.81,-150.48 866.26,-144.39"/>
</g>
<!-- Node22 -->
<g id="node22" class="node">
<title>Node22</title>
<g id="a_node22"><a xlink:href="Interval_8h.html" target="_top" xlink:title=" ">
<polygon fill="white" stroke="black" points="884.82,-123.5 884.82,-142.5 1024.82,-142.5 1024.82,-123.5 884.82,-123.5"/>
<text text-anchor="middle" x="954.82" y="-130.5" font-family="Helvetica,sans-Serif" font-size="10.00">boomerang/util/Interval.h</text>
</a>
</g>
</g>
<!-- Node21&#45;&gt;Node22 -->
<g id="edge40" class="edge">
<title>Node21&#45;&gt;Node22</title>
<path fill="none" stroke="midnightblue" d="M947.11,-184.98C948.38,-176.58 950.36,-163.48 951.99,-152.66"/>
<polygon fill="midnightblue" stroke="midnightblue" points="955.5,-152.92 953.53,-142.51 948.57,-151.87 955.5,-152.92"/>
</g>
<!-- Node21&#45;&gt;Node25 -->
<g id="edge44" class="edge">
<title>Node21&#45;&gt;Node25</title>
<path fill="none" stroke="midnightblue" d="M962.44,-184.98C981.73,-175.08 1013.78,-158.64 1036.25,-147.12"/>
<polygon fill="midnightblue" stroke="midnightblue" points="1037.93,-150.19 1045.23,-142.51 1034.73,-143.96 1037.93,-150.19"/>
</g>
<!-- Node23 -->
<g id="node23" class="node">
<title>Node23</title>
<g id="a_node23"><a xlink:title=" ">
<polygon fill="white" stroke="#bfbfbf" points="958.82,-62 958.82,-81 1022.82,-81 1022.82,-62 958.82,-62"/>
<text text-anchor="middle" x="990.82" y="-69" font-family="Helvetica,sans-Serif" font-size="10.00">algorithm</text>
</a>
</g>
</g>
<!-- Node22&#45;&gt;Node23 -->
<g id="edge41" class="edge">
<title>Node22&#45;&gt;Node23</title>
<path fill="none" stroke="midnightblue" d="M959.98,-123.48C965.27,-114.73 973.65,-100.87 980.35,-89.81"/>
<polygon fill="midnightblue" stroke="midnightblue" points="983.49,-91.38 985.67,-81.01 977.5,-87.75 983.49,-91.38"/>
</g>
<!-- Node24 -->
<g id="node24" class="node">
<title>Node24</title>
<g id="a_node24"><a xlink:title=" ">
<polygon fill="white" stroke="#bfbfbf" points="895.32,-62 895.32,-81 940.32,-81 940.32,-62 895.32,-62"/>
<text text-anchor="middle" x="917.82" y="-69" font-family="Helvetica,sans-Serif" font-size="10.00">utility</text>
</a>
</g>
</g>
<!-- Node22&#45;&gt;Node24 -->
<g id="edge42" class="edge">
<title>Node22&#45;&gt;Node24</title>
<path fill="none" stroke="midnightblue" d="M949.52,-123.48C944.08,-114.73 935.46,-100.87 928.58,-89.81"/>
<polygon fill="midnightblue" stroke="midnightblue" points="931.36,-87.65 923.11,-81.01 925.42,-91.35 931.36,-87.65"/>
</g>
</g>
</svg>
        <g id="navigator" transform="translate(0 0)" fill="#404254">
                <rect fill="#f2f5e9" fill-opacity="0.5" stroke="#606060" stroke-width=".5" x="0" y="0" width="60" height="60"/>
                <use id="zoomplus" xlink:href="#zoomPlus" x="17" y="9" onmousedown="handleZoom(evt,'in')"/>
                <use id="zoomminus" xlink:href="#zoomMin" x="42" y="9" onmousedown="handleZoom(evt,'out')"/>
                <use id="reset" xlink:href="#resetDef" x="30" y="36" onmousedown="handleReset()"/>
                <g id="arrowUp" xlink:href="#dirArrow" transform="translate(30 24)" onmousedown="handlePan(0,-1)">
                  <use xlink:href="#rim" fill="#404040">
                        <set attributeName="fill" to="#808080" begin="arrowUp.mouseover" end="arrowUp.mouseout"/>
                  </use>
                  <path fill="none" stroke="white" stroke-width="1.5" d="M0,-3.0v7 M-2.5,-0.5L0,-3.0L2.5,-0.5"/>
                </g>
                <g id="arrowRight" xlink:href="#dirArrow" transform="rotate(90) translate(36 -43)" onmousedown="handlePan(1,0)">
                  <use xlink:href="#rim" fill="#404040">
                        <set attributeName="fill" to="#808080" begin="arrowRight.mouseover" end="arrowRight.mouseout"/>
                  </use>
                  <path fill="none" stroke="white" stroke-width="1.5" d="M0,-3.0v7 M-2.5,-0.5L0,-3.0L2.5,-0.5"/>
                </g>
                <g id="arrowDown" xlink:href="#dirArrow" transform="rotate(180) translate(-30 -48)" onmousedown="handlePan(0,1)">
                  <use xlink:href="#rim" fill="#404040">
                        <set attributeName="fill" to="#808080" begin="arrowDown.mouseover" end="arrowDown.mouseout"/>
                  </use>
                  <path fill="none" stroke="white" stroke-width="1.5" d="M0,-3.0v7 M-2.5,-0.5L0,-3.0L2.5,-0.5"/>
                </g>
                <g id="arrowLeft" xlink:href="#dirArrow" transform="rotate(270) translate(-36 17)" onmousedown="handlePan(-1,0)">
                  <use xlink:href="#rim" fill="#404040">
                        <set attributeName="fill" to="#808080" begin="arrowLeft.mouseover" end="arrowLeft.mouseout"/>
                  </use>
                  <path fill="none" stroke="white" stroke-width="1.5" d="M0,-3.0v7 M-2.5,-0.5L0,-3.0L2.5,-0.5"/>
                </g>
        </g>
        <svg viewBox="0 0 15 15" width="100%" height="30px" preserveAspectRatio="xMaxYMin meet">
         <g id="arrow_out" transform="scale(0.3 0.3)">
          <a xlink:href="Prog_8h__incl_org.svg" target="_base">
           <rect id="button" ry="5" rx="5" y="6" x="6" height="38" width="38"
                fill="#f2f5e9" fill-opacity="0.5" stroke="#606060" stroke-width="1.0"/>
           <path id="arrow"
             d="M 11.500037,31.436501 C 11.940474,20.09759 22.043105,11.32322 32.158766,21.979434 L 37.068811,17.246167 C 37.068811,17.246167 37.088388,32 37.088388,32 L 22.160133,31.978069 C 22.160133,31.978069 26.997745,27.140456 26.997745,27.140456 C 18.528582,18.264221 13.291696,25.230495 11.500037,31.436501 z"
             style="fill:#404040;"/>
          </a>
         </g>
        </svg>
</svg>
