<?xml version="1.0" encoding="UTF-8" standalone="no"?>
<!DOCTYPE svg PUBLIC "-//W3C//DTD SVG 1.1//EN"
 "http://www.w3.org/Graphics/SVG/1.1/DTD/svg11.dtd">
<!-- Generated by graphviz version 2.43.0 (0)
 -->
<!-- Title: RefExp.cpp Pages: 1 -->
<svg width="1398pt" height="520pt"
 viewBox="0.00 0.00 1398.00 520.00" xmlns="http://www.w3.org/2000/svg" xmlns:xlink="http://www.w3.org/1999/xlink">
<g id="graph0" class="graph" transform="scale(1 1) rotate(0) translate(4 516)">
<title>RefExp.cpp</title>
<polygon fill="white" stroke="transparent" points="-4,4 -4,-516 1394,-516 1394,4 -4,4"/>
<!-- Node1 -->
<g id="node1" class="node">
<title>Node1</title>
<g id="a_node1"><a xlink:title=" ">
<polygon fill="#bfbfbf" stroke="black" points="671.5,-492.5 671.5,-511.5 742.5,-511.5 742.5,-492.5 671.5,-492.5"/>
<text text-anchor="middle" x="707" y="-499.5" font-family="Helvetica,sans-Serif" font-size="10.00">RefExp.cpp</text>
</a>
</g>
</g>
<!-- Node2 -->
<g id="node2" class="node">
<title>Node2</title>
<g id="a_node2"><a xlink:href="RefExp_8h.html" target="_top" xlink:title=" ">
<polygon fill="white" stroke="black" points="648,-431 648,-450 708,-450 708,-431 648,-431"/>
<text text-anchor="middle" x="678" y="-438" font-family="Helvetica,sans-Serif" font-size="10.00">RefExp.h</text>
</a>
</g>
</g>
<!-- Node1&#45;&gt;Node2 -->
<g id="edge1" class="edge">
<title>Node1&#45;&gt;Node2</title>
<path fill="none" stroke="midnightblue" d="M702.85,-492.48C698.62,-483.82 691.96,-470.15 686.6,-459.15"/>
<polygon fill="midnightblue" stroke="midnightblue" points="689.67,-457.46 682.15,-450.01 683.38,-460.53 689.67,-457.46"/>
</g>
<!-- Node9 -->
<g id="node9" class="node">
<title>Node9</title>
<g id="a_node9"><a xlink:href="Statement_8h.html" target="_top" xlink:title=" ">
<polygon fill="white" stroke="black" points="662.5,-246.5 662.5,-276.5 809.5,-276.5 809.5,-246.5 662.5,-246.5"/>
<text text-anchor="start" x="670.5" y="-264.5" font-family="Helvetica,sans-Serif" font-size="10.00">boomerang/ssl/statements</text>
<text text-anchor="middle" x="736" y="-253.5" font-family="Helvetica,sans-Serif" font-size="10.00">/Statement.h</text>
</a>
</g>
</g>
<!-- Node1&#45;&gt;Node9 -->
<g id="edge32" class="edge">
<title>Node1&#45;&gt;Node9</title>
<path fill="none" stroke="midnightblue" d="M709.23,-492.43C711.49,-483.42 714.96,-468.8 717,-456 726.64,-395.58 732.16,-323.72 734.55,-286.91"/>
<polygon fill="midnightblue" stroke="midnightblue" points="738.06,-286.86 735.2,-276.66 731.08,-286.42 738.06,-286.86"/>
</g>
<!-- Node21 -->
<g id="node21" class="node">
<title>Node21</title>
<g id="a_node21"><a xlink:href="VoidType_8h.html" target="_top" xlink:title=" ">
<polygon fill="white" stroke="black" points="458.5,-425.5 458.5,-455.5 571.5,-455.5 571.5,-425.5 458.5,-425.5"/>
<text text-anchor="start" x="466.5" y="-443.5" font-family="Helvetica,sans-Serif" font-size="10.00">boomerang/ssl/type</text>
<text text-anchor="middle" x="515" y="-432.5" font-family="Helvetica,sans-Serif" font-size="10.00">/VoidType.h</text>
</a>
</g>
</g>
<!-- Node1&#45;&gt;Node21 -->
<g id="edge33" class="edge">
<title>Node1&#45;&gt;Node21</title>
<path fill="none" stroke="midnightblue" d="M679.49,-492.48C651.06,-483.66 605.9,-469.67 570.08,-458.57"/>
<polygon fill="midnightblue" stroke="midnightblue" points="570.84,-455.14 560.25,-455.52 568.77,-461.83 570.84,-455.14"/>
</g>
<!-- Node23 -->
<g id="node23" class="node">
<title>Node23</title>
<g id="a_node23"><a xlink:href="Log_8h.html" target="_top" xlink:title=" ">
<polygon fill="white" stroke="black" points="218.5,-246.5 218.5,-276.5 327.5,-276.5 327.5,-246.5 218.5,-246.5"/>
<text text-anchor="start" x="226.5" y="-264.5" font-family="Helvetica,sans-Serif" font-size="10.00">boomerang/util/log</text>
<text text-anchor="middle" x="273" y="-253.5" font-family="Helvetica,sans-Serif" font-size="10.00">/Log.h</text>
</a>
</g>
</g>
<!-- Node1&#45;&gt;Node23 -->
<g id="edge40" class="edge">
<title>Node1&#45;&gt;Node23</title>
<path fill="none" stroke="midnightblue" d="M671.4,-501.82C619.5,-501.53 521.49,-495.21 450,-456 373.55,-414.07 312.42,-326.58 286.48,-285.17"/>
<polygon fill="midnightblue" stroke="midnightblue" points="289.43,-283.28 281.21,-276.6 283.47,-286.95 289.43,-283.28"/>
</g>
<!-- Node24 -->
<g id="node24" class="node">
<title>Node24</title>
<g id="a_node24"><a xlink:href="ExpModifier_8h.html" target="_top" xlink:title=" ">
<polygon fill="white" stroke="black" points="1046,-179.5 1046,-209.5 1214,-209.5 1214,-179.5 1046,-179.5"/>
<text text-anchor="start" x="1054" y="-197.5" font-family="Helvetica,sans-Serif" font-size="10.00">boomerang/visitor/expmodifier</text>
<text text-anchor="middle" x="1130" y="-186.5" font-family="Helvetica,sans-Serif" font-size="10.00">/ExpModifier.h</text>
</a>
</g>
</g>
<!-- Node1&#45;&gt;Node24 -->
<g id="edge45" class="edge">
<title>Node1&#45;&gt;Node24</title>
<path fill="none" stroke="midnightblue" d="M742.53,-495.8C828.18,-482.26 1039,-442.57 1039,-380 1039,-380 1039,-380 1039,-322 1039,-278.11 1075.54,-239.05 1102.31,-216.32"/>
<polygon fill="midnightblue" stroke="midnightblue" points="1104.74,-218.85 1110.25,-209.81 1100.3,-213.44 1104.74,-218.85"/>
</g>
<!-- Node25 -->
<g id="node25" class="node">
<title>Node25</title>
<g id="a_node25"><a xlink:href="ExpVisitor_8h.html" target="_top" xlink:title=" ">
<polygon fill="white" stroke="black" points="1232,-179.5 1232,-209.5 1390,-209.5 1390,-179.5 1232,-179.5"/>
<text text-anchor="start" x="1240" y="-197.5" font-family="Helvetica,sans-Serif" font-size="10.00">boomerang/visitor/expvisitor</text>
<text text-anchor="middle" x="1311" y="-186.5" font-family="Helvetica,sans-Serif" font-size="10.00">/ExpVisitor.h</text>
</a>
</g>
</g>
<!-- Node1&#45;&gt;Node25 -->
<g id="edge48" class="edge">
<title>Node1&#45;&gt;Node25</title>
<path fill="none" stroke="midnightblue" d="M742.81,-499.79C855.28,-495.04 1194,-473 1194,-380 1194,-380 1194,-380 1194,-322 1194,-273.81 1240.34,-236.17 1274.69,-214.89"/>
<polygon fill="midnightblue" stroke="midnightblue" points="1276.78,-217.72 1283.57,-209.58 1273.19,-211.71 1276.78,-217.72"/>
</g>
<!-- Node3 -->
<g id="node3" class="node">
<title>Node3</title>
<g id="a_node3"><a xlink:href="Unary_8h.html" target="_top" xlink:title=" ">
<polygon fill="white" stroke="black" points="512.5,-369.5 512.5,-388.5 661.5,-388.5 661.5,-369.5 512.5,-369.5"/>
<text text-anchor="middle" x="587" y="-376.5" font-family="Helvetica,sans-Serif" font-size="10.00">boomerang/ssl/exp/Unary.h</text>
</a>
</g>
</g>
<!-- Node2&#45;&gt;Node3 -->
<g id="edge2" class="edge">
<title>Node2&#45;&gt;Node3</title>
<path fill="none" stroke="midnightblue" d="M664.96,-430.98C650.23,-421.34 626.03,-405.52 608.49,-394.05"/>
<polygon fill="midnightblue" stroke="midnightblue" points="610.3,-391.05 600.01,-388.51 606.47,-396.91 610.3,-391.05"/>
</g>
<!-- Node2&#45;&gt;Node9 -->
<g id="edge31" class="edge">
<title>Node2&#45;&gt;Node9</title>
<path fill="none" stroke="midnightblue" d="M680.8,-430.96C689.31,-404.97 715.14,-326.16 728.22,-286.23"/>
<polygon fill="midnightblue" stroke="midnightblue" points="731.62,-287.12 731.4,-276.52 724.96,-284.94 731.62,-287.12"/>
</g>
<!-- Node4 -->
<g id="node4" class="node">
<title>Node4</title>
<g id="a_node4"><a xlink:href="Exp_8h.html" target="_top" xlink:title=" ">
<polygon fill="white" stroke="black" points="514,-313.5 514,-332.5 654,-332.5 654,-313.5 514,-313.5"/>
<text text-anchor="middle" x="584" y="-320.5" font-family="Helvetica,sans-Serif" font-size="10.00">boomerang/ssl/exp/Exp.h</text>
</a>
</g>
</g>
<!-- Node3&#45;&gt;Node4 -->
<g id="edge3" class="edge">
<title>Node3&#45;&gt;Node4</title>
<path fill="none" stroke="midnightblue" d="M586.5,-369.08C586.11,-362.01 585.55,-351.86 585.05,-342.99"/>
<polygon fill="midnightblue" stroke="midnightblue" points="588.54,-342.54 584.49,-332.75 581.55,-342.93 588.54,-342.54"/>
</g>
<!-- Node5 -->
<g id="node5" class="node">
<title>Node5</title>
<g id="a_node5"><a xlink:href="ExpHelp_8h.html" target="_top" xlink:title=" ">
<polygon fill="white" stroke="black" points="866,-185 866,-204 1028,-204 1028,-185 866,-185"/>
<text text-anchor="middle" x="947" y="-192" font-family="Helvetica,sans-Serif" font-size="10.00">boomerang/ssl/exp/ExpHelp.h</text>
</a>
</g>
</g>
<!-- Node4&#45;&gt;Node5 -->
<g id="edge4" class="edge">
<title>Node4&#45;&gt;Node5</title>
<path fill="none" stroke="midnightblue" d="M654.22,-320.46C710.14,-316.87 789.18,-306.4 852,-277 885.43,-261.35 916.32,-230.59 933.33,-211.66"/>
<polygon fill="midnightblue" stroke="midnightblue" points="935.97,-213.95 939.93,-204.12 930.71,-209.34 935.97,-213.95"/>
</g>
<!-- Node7 -->
<g id="node7" class="node">
<title>Node7</title>
<g id="a_node7"><a xlink:title=" ">
<polygon fill="white" stroke="#bfbfbf" points="809,-123.5 809,-142.5 867,-142.5 867,-123.5 809,-123.5"/>
<text text-anchor="middle" x="838" y="-130.5" font-family="Helvetica,sans-Serif" font-size="10.00">memory</text>
</a>
</g>
</g>
<!-- Node4&#45;&gt;Node7 -->
<g id="edge28" class="edge">
<title>Node4&#45;&gt;Node7</title>
<path fill="none" stroke="midnightblue" d="M654.26,-317.47C715.15,-312 796.86,-300.44 819,-277 850.87,-243.26 846.55,-183.43 841.74,-152.96"/>
<polygon fill="midnightblue" stroke="midnightblue" points="845.14,-152.08 839.95,-142.84 838.25,-153.3 845.14,-152.08"/>
</g>
<!-- Node8 -->
<g id="node8" class="node">
<title>Node8</title>
<g id="a_node8"><a xlink:href="Operator_8h.html" target="_top" xlink:title=" ">
<polygon fill="white" stroke="black" points="411,-123.5 411,-142.5 575,-142.5 575,-123.5 411,-123.5"/>
<text text-anchor="middle" x="493" y="-130.5" font-family="Helvetica,sans-Serif" font-size="10.00">boomerang/ssl/exp/Operator.h</text>
</a>
</g>
</g>
<!-- Node4&#45;&gt;Node8 -->
<g id="edge7" class="edge">
<title>Node4&#45;&gt;Node8</title>
<path fill="none" stroke="midnightblue" d="M561.15,-313.39C525.45,-298.54 457.68,-264.35 430,-210 423.75,-197.72 423.7,-191.25 430,-179 437.08,-165.25 450.52,-154.77 463.18,-147.39"/>
<polygon fill="midnightblue" stroke="midnightblue" points="465,-150.39 472.15,-142.57 461.69,-144.22 465,-150.39"/>
</g>
<!-- Node4&#45;&gt;Node9 -->
<g id="edge9" class="edge">
<title>Node4&#45;&gt;Node9</title>
<path fill="none" stroke="midnightblue" d="M605.78,-313.48C627.81,-304.85 662.52,-291.26 690.57,-280.29"/>
<polygon fill="midnightblue" stroke="midnightblue" points="692.14,-283.43 700.18,-276.52 689.59,-276.91 692.14,-283.43"/>
</g>
<!-- Node11 -->
<g id="node11" class="node">
<title>Node11</title>
<g id="a_node11"><a xlink:href="OStream_8h.html" target="_top" xlink:title=" ">
<polygon fill="white" stroke="black" points="0,-123.5 0,-142.5 146,-142.5 146,-123.5 0,-123.5"/>
<text text-anchor="middle" x="73" y="-130.5" font-family="Helvetica,sans-Serif" font-size="10.00">boomerang/util/OStream.h</text>
</a>
</g>
</g>
<!-- Node4&#45;&gt;Node11 -->
<g id="edge24" class="edge">
<title>Node4&#45;&gt;Node11</title>
<path fill="none" stroke="midnightblue" d="M513.87,-319.67C411.03,-315.37 224.91,-304.05 164,-277 123.15,-258.86 111.39,-248.69 89,-210 78.78,-192.34 75.05,-169.02 73.71,-152.88"/>
<polygon fill="midnightblue" stroke="midnightblue" points="77.19,-152.37 73.1,-142.59 70.2,-152.78 77.19,-152.37"/>
</g>
<!-- Node15 -->
<g id="node15" class="node">
<title>Node15</title>
<g id="a_node15"><a xlink:title=" ">
<polygon fill="white" stroke="#bfbfbf" points="301.5,-123.5 301.5,-142.5 354.5,-142.5 354.5,-123.5 301.5,-123.5"/>
<text text-anchor="middle" x="328" y="-130.5" font-family="Helvetica,sans-Serif" font-size="10.00">QString</text>
</a>
</g>
</g>
<!-- Node4&#45;&gt;Node15 -->
<g id="edge25" class="edge">
<title>Node4&#45;&gt;Node15</title>
<path fill="none" stroke="midnightblue" d="M542.57,-313.46C515.72,-306.58 480.88,-295.03 454,-277 402.18,-242.24 358.33,-181.09 338.83,-151.29"/>
<polygon fill="midnightblue" stroke="midnightblue" points="341.72,-149.32 333.37,-142.79 335.83,-153.1 341.72,-149.32"/>
</g>
<!-- Node16 -->
<g id="node16" class="node">
<title>Node16</title>
<g id="a_node16"><a xlink:title=" ">
<polygon fill="white" stroke="#bfbfbf" points="631,-123.5 631,-142.5 683,-142.5 683,-123.5 631,-123.5"/>
<text text-anchor="middle" x="657" y="-130.5" font-family="Helvetica,sans-Serif" font-size="10.00">cassert</text>
</a>
</g>
</g>
<!-- Node4&#45;&gt;Node16 -->
<g id="edge26" class="edge">
<title>Node4&#45;&gt;Node16</title>
<path fill="none" stroke="midnightblue" d="M582.76,-313.33C581.03,-298.96 578.85,-269.48 586,-246 597.45,-208.42 625.17,-171.18 642.4,-150.52"/>
<polygon fill="midnightblue" stroke="midnightblue" points="645.22,-152.61 649.06,-142.73 639.9,-148.06 645.22,-152.61"/>
</g>
<!-- Node17 -->
<g id="node17" class="node">
<title>Node17</title>
<g id="a_node17"><a xlink:title=" ">
<polygon fill="white" stroke="#bfbfbf" points="646,-185 646,-204 678,-204 678,-185 646,-185"/>
<text text-anchor="middle" x="662" y="-192" font-family="Helvetica,sans-Serif" font-size="10.00">list</text>
</a>
</g>
</g>
<!-- Node4&#45;&gt;Node17 -->
<g id="edge27" class="edge">
<title>Node4&#45;&gt;Node17</title>
<path fill="none" stroke="midnightblue" d="M584.46,-313.36C585.61,-298.54 589.55,-267.75 603,-246 612.02,-231.42 626.63,-218.87 639.06,-209.92"/>
<polygon fill="midnightblue" stroke="midnightblue" points="641.33,-212.61 647.61,-204.07 637.38,-206.83 641.33,-212.61"/>
</g>
<!-- Node19 -->
<g id="node19" class="node">
<title>Node19</title>
<g id="a_node19"><a xlink:title=" ">
<polygon fill="white" stroke="#bfbfbf" points="612,-252 612,-271 644,-271 644,-252 612,-252"/>
<text text-anchor="middle" x="628" y="-259" font-family="Helvetica,sans-Serif" font-size="10.00">set</text>
</a>
</g>
</g>
<!-- Node4&#45;&gt;Node19 -->
<g id="edge29" class="edge">
<title>Node4&#45;&gt;Node19</title>
<path fill="none" stroke="midnightblue" d="M590.3,-313.48C596.9,-304.55 607.44,-290.31 615.69,-279.14"/>
<polygon fill="midnightblue" stroke="midnightblue" points="618.58,-281.13 621.71,-271.01 612.95,-276.97 618.58,-281.13"/>
</g>
<!-- Node20 -->
<g id="node20" class="node">
<title>Node20</title>
<g id="a_node20"><a xlink:title=" ">
<polygon fill="white" stroke="#bfbfbf" points="98.5,-185 98.5,-204 145.5,-204 145.5,-185 98.5,-185"/>
<text text-anchor="middle" x="122" y="-192" font-family="Helvetica,sans-Serif" font-size="10.00">vector</text>
</a>
</g>
</g>
<!-- Node4&#45;&gt;Node20 -->
<g id="edge30" class="edge">
<title>Node4&#45;&gt;Node20</title>
<path fill="none" stroke="midnightblue" d="M513.75,-318.71C420.76,-313.48 262.45,-301.27 210,-277 178.02,-262.2 149.87,-231.36 134.46,-212.15"/>
<polygon fill="midnightblue" stroke="midnightblue" points="137.03,-209.76 128.13,-204.01 131.51,-214.05 137.03,-209.76"/>
</g>
<!-- Node6 -->
<g id="node6" class="node">
<title>Node6</title>
<g id="a_node6"><a xlink:href="BoomerangAPI_8h.html" target="_top" xlink:title=" ">
<polygon fill="white" stroke="black" points="525.5,-56.5 525.5,-86.5 680.5,-86.5 680.5,-56.5 525.5,-56.5"/>
<text text-anchor="start" x="533.5" y="-74.5" font-family="Helvetica,sans-Serif" font-size="10.00">boomerang/core/Boomerang</text>
<text text-anchor="middle" x="603" y="-63.5" font-family="Helvetica,sans-Serif" font-size="10.00">API.h</text>
</a>
</g>
</g>
<!-- Node5&#45;&gt;Node6 -->
<g id="edge5" class="edge">
<title>Node5&#45;&gt;Node6</title>
<path fill="none" stroke="midnightblue" d="M941.11,-184.91C930.19,-169.73 905.24,-138.31 876,-123 818.72,-93 746.5,-80.58 690.74,-75.54"/>
<polygon fill="midnightblue" stroke="midnightblue" points="690.78,-72.04 680.52,-74.69 690.2,-79.01 690.78,-72.04"/>
</g>
<!-- Node5&#45;&gt;Node7 -->
<g id="edge6" class="edge">
<title>Node5&#45;&gt;Node7</title>
<path fill="none" stroke="midnightblue" d="M931.38,-184.98C913.41,-175.17 883.68,-158.93 862.59,-147.42"/>
<polygon fill="midnightblue" stroke="midnightblue" points="864.04,-144.23 853.59,-142.51 860.69,-150.37 864.04,-144.23"/>
</g>
<!-- Node8&#45;&gt;Node6 -->
<g id="edge8" class="edge">
<title>Node8&#45;&gt;Node6</title>
<path fill="none" stroke="midnightblue" d="M508.76,-123.48C524.22,-115.12 548.3,-102.09 568.25,-91.3"/>
<polygon fill="midnightblue" stroke="midnightblue" points="569.94,-94.36 577.08,-86.52 566.61,-88.2 569.94,-94.36"/>
</g>
<!-- Node9&#45;&gt;Node5 -->
<g id="edge10" class="edge">
<title>Node9&#45;&gt;Node5</title>
<path fill="none" stroke="midnightblue" d="M781.52,-246.48C819.84,-234.67 873.96,-218 909.74,-206.98"/>
<polygon fill="midnightblue" stroke="midnightblue" points="910.79,-210.32 919.31,-204.03 908.73,-203.63 910.79,-210.32"/>
</g>
<!-- Node9&#45;&gt;Node7 -->
<g id="edge23" class="edge">
<title>Node9&#45;&gt;Node7</title>
<path fill="none" stroke="midnightblue" d="M749.33,-246.2C758.46,-236.24 770.74,-222.54 781,-210 797.24,-190.15 814.78,-166.38 826.05,-150.77"/>
<polygon fill="midnightblue" stroke="midnightblue" points="828.91,-152.78 831.9,-142.61 823.23,-148.7 828.91,-152.78"/>
</g>
<!-- Node10 -->
<g id="node10" class="node">
<title>Node10</title>
<g id="a_node10"><a xlink:href="Address_8h.html" target="_top" xlink:title=" ">
<polygon fill="white" stroke="black" points="202,-185 202,-204 344,-204 344,-185 202,-185"/>
<text text-anchor="middle" x="273" y="-192" font-family="Helvetica,sans-Serif" font-size="10.00">boomerang/util/Address.h</text>
</a>
</g>
</g>
<!-- Node9&#45;&gt;Node10 -->
<g id="edge11" class="edge">
<title>Node9&#45;&gt;Node10</title>
<path fill="none" stroke="midnightblue" d="M662.26,-247.46C659.13,-246.95 656.04,-246.47 653,-246 550.07,-230.18 431,-214.83 353.97,-205.29"/>
<polygon fill="midnightblue" stroke="midnightblue" points="354.21,-201.79 343.86,-204.04 353.35,-208.74 354.21,-201.79"/>
</g>
<!-- Node9&#45;&gt;Node16 -->
<g id="edge20" class="edge">
<title>Node9&#45;&gt;Node16</title>
<path fill="none" stroke="midnightblue" d="M727.7,-246.24C718.11,-229.88 701.75,-202.29 687,-179 681.09,-169.66 674.27,-159.4 668.63,-151.04"/>
<polygon fill="midnightblue" stroke="midnightblue" points="671.38,-148.86 662.87,-142.55 665.59,-152.79 671.38,-148.86"/>
</g>
<!-- Node9&#45;&gt;Node17 -->
<g id="edge21" class="edge">
<title>Node9&#45;&gt;Node17</title>
<path fill="none" stroke="midnightblue" d="M719.94,-246.4C708.06,-235.96 691.89,-221.75 679.64,-211"/>
<polygon fill="midnightblue" stroke="midnightblue" points="681.72,-208.16 671.9,-204.19 677.1,-213.42 681.72,-208.16"/>
</g>
<!-- Node18 -->
<g id="node18" class="node">
<title>Node18</title>
<g id="a_node18"><a xlink:title=" ">
<polygon fill="white" stroke="#bfbfbf" points="734,-185 734,-204 772,-204 772,-185 734,-185"/>
<text text-anchor="middle" x="753" y="-192" font-family="Helvetica,sans-Serif" font-size="10.00">map</text>
</a>
</g>
</g>
<!-- Node9&#45;&gt;Node18 -->
<g id="edge22" class="edge">
<title>Node9&#45;&gt;Node18</title>
<path fill="none" stroke="midnightblue" d="M739.69,-246.4C742.16,-236.96 745.43,-224.45 748.11,-214.19"/>
<polygon fill="midnightblue" stroke="midnightblue" points="751.58,-214.75 750.73,-204.19 744.81,-212.98 751.58,-214.75"/>
</g>
<!-- Node10&#45;&gt;Node6 -->
<g id="edge12" class="edge">
<title>Node10&#45;&gt;Node6</title>
<path fill="none" stroke="midnightblue" d="M272.7,-184.59C272.73,-169.48 275.14,-138.91 293,-123 325.11,-94.38 435.36,-81.86 515.26,-76.46"/>
<polygon fill="midnightblue" stroke="midnightblue" points="515.58,-79.95 525.33,-75.81 515.13,-72.96 515.58,-79.95"/>
</g>
<!-- Node10&#45;&gt;Node11 -->
<g id="edge13" class="edge">
<title>Node10&#45;&gt;Node11</title>
<path fill="none" stroke="midnightblue" d="M244.34,-184.98C209.44,-174.59 150.35,-157.01 111.5,-145.45"/>
<polygon fill="midnightblue" stroke="midnightblue" points="112.18,-142.01 101.6,-142.51 110.19,-148.72 112.18,-142.01"/>
</g>
<!-- Node12 -->
<g id="node12" class="node">
<title>Node12</title>
<g id="a_node12"><a xlink:href="Types_8h.html" target="_top" xlink:title=" ">
<polygon fill="white" stroke="black" points="131.5,-62 131.5,-81 262.5,-81 262.5,-62 131.5,-62"/>
<text text-anchor="middle" x="197" y="-69" font-family="Helvetica,sans-Serif" font-size="10.00">boomerang/util/Types.h</text>
</a>
</g>
</g>
<!-- Node10&#45;&gt;Node12 -->
<g id="edge18" class="edge">
<title>Node10&#45;&gt;Node12</title>
<path fill="none" stroke="midnightblue" d="M267.53,-184.8C255.05,-164.91 224.23,-115.85 207.77,-89.65"/>
<polygon fill="midnightblue" stroke="midnightblue" points="210.7,-87.73 202.42,-81.12 204.77,-91.45 210.7,-87.73"/>
</g>
<!-- Node10&#45;&gt;Node15 -->
<g id="edge19" class="edge">
<title>Node10&#45;&gt;Node15</title>
<path fill="none" stroke="midnightblue" d="M280.88,-184.98C289.29,-175.87 302.82,-161.24 313.23,-149.98"/>
<polygon fill="midnightblue" stroke="midnightblue" points="315.92,-152.23 320.13,-142.51 310.78,-147.48 315.92,-152.23"/>
</g>
<!-- Node11&#45;&gt;Node6 -->
<g id="edge14" class="edge">
<title>Node11&#45;&gt;Node6</title>
<path fill="none" stroke="midnightblue" d="M146.14,-123.79C242.6,-112.96 412.16,-93.92 515.37,-82.34"/>
<polygon fill="midnightblue" stroke="midnightblue" points="515.91,-85.8 525.45,-81.21 515.13,-78.84 515.91,-85.8"/>
</g>
<!-- Node11&#45;&gt;Node12 -->
<g id="edge15" class="edge">
<title>Node11&#45;&gt;Node12</title>
<path fill="none" stroke="midnightblue" d="M90.77,-123.48C111.48,-113.53 145.95,-96.99 169.99,-85.46"/>
<polygon fill="midnightblue" stroke="midnightblue" points="171.77,-88.49 179.27,-81.01 168.74,-82.18 171.77,-88.49"/>
</g>
<!-- Node14 -->
<g id="node14" class="node">
<title>Node14</title>
<g id="a_node14"><a xlink:title=" ">
<polygon fill="white" stroke="#bfbfbf" points="50,-62 50,-81 96,-81 96,-62 50,-62"/>
<text text-anchor="middle" x="73" y="-69" font-family="Helvetica,sans-Serif" font-size="10.00">cstdio</text>
</a>
</g>
</g>
<!-- Node11&#45;&gt;Node14 -->
<g id="edge17" class="edge">
<title>Node11&#45;&gt;Node14</title>
<path fill="none" stroke="midnightblue" d="M73,-123.48C73,-115.08 73,-101.98 73,-91.16"/>
<polygon fill="midnightblue" stroke="midnightblue" points="76.5,-91.01 73,-81.01 69.5,-91.01 76.5,-91.01"/>
</g>
<!-- Node13 -->
<g id="node13" class="node">
<title>Node13</title>
<g id="a_node13"><a xlink:title=" ">
<polygon fill="white" stroke="#bfbfbf" points="172,-0.5 172,-19.5 222,-19.5 222,-0.5 172,-0.5"/>
<text text-anchor="middle" x="197" y="-7.5" font-family="Helvetica,sans-Serif" font-size="10.00">cstdint</text>
</a>
</g>
</g>
<!-- Node12&#45;&gt;Node13 -->
<g id="edge16" class="edge">
<title>Node12&#45;&gt;Node13</title>
<path fill="none" stroke="midnightblue" d="M197,-61.98C197,-53.58 197,-40.48 197,-29.66"/>
<polygon fill="midnightblue" stroke="midnightblue" points="200.5,-29.51 197,-19.51 193.5,-29.51 200.5,-29.51"/>
</g>
<!-- Node22 -->
<g id="node22" class="node">
<title>Node22</title>
<g id="a_node22"><a xlink:href="Type_8h.html" target="_top" xlink:title=" ">
<polygon fill="white" stroke="black" points="438.5,-179.5 438.5,-209.5 551.5,-209.5 551.5,-179.5 438.5,-179.5"/>
<text text-anchor="start" x="446.5" y="-197.5" font-family="Helvetica,sans-Serif" font-size="10.00">boomerang/ssl/type</text>
<text text-anchor="middle" x="495" y="-186.5" font-family="Helvetica,sans-Serif" font-size="10.00">/Type.h</text>
</a>
</g>
</g>
<!-- Node21&#45;&gt;Node22 -->
<g id="edge34" class="edge">
<title>Node21&#45;&gt;Node22</title>
<path fill="none" stroke="midnightblue" d="M511.28,-425.46C508.77,-415.39 505.63,-401.46 504,-389 496.07,-328.56 494.86,-256.71 494.83,-219.9"/>
<polygon fill="midnightblue" stroke="midnightblue" points="498.33,-219.66 494.85,-209.65 491.33,-219.65 498.33,-219.66"/>
</g>
<!-- Node22&#45;&gt;Node6 -->
<g id="edge35" class="edge">
<title>Node22&#45;&gt;Node6</title>
<path fill="none" stroke="midnightblue" d="M534.42,-179.33C551.93,-171.19 571.38,-159.29 584,-143 594.21,-129.82 598.94,-111.58 601.13,-96.96"/>
<polygon fill="midnightblue" stroke="midnightblue" points="604.65,-96.97 602.36,-86.62 597.7,-96.14 604.65,-96.97"/>
</g>
<!-- Node22&#45;&gt;Node7 -->
<g id="edge39" class="edge">
<title>Node22&#45;&gt;Node7</title>
<path fill="none" stroke="midnightblue" d="M551.54,-181.75C556.43,-180.8 561.3,-179.87 566,-179 648.74,-163.71 746.09,-148.2 798.99,-139.98"/>
<polygon fill="midnightblue" stroke="midnightblue" points="799.61,-143.43 808.95,-138.44 798.54,-136.51 799.61,-143.43"/>
</g>
<!-- Node22&#45;&gt;Node12 -->
<g id="edge36" class="edge">
<title>Node22&#45;&gt;Node12</title>
<path fill="none" stroke="midnightblue" d="M469.25,-179.47C432.65,-159.56 369.4,-125.24 364,-123 323.9,-106.34 276.35,-92.51 242.26,-83.55"/>
<polygon fill="midnightblue" stroke="midnightblue" points="243.14,-80.17 232.58,-81.05 241.38,-86.94 243.14,-80.17"/>
</g>
<!-- Node22&#45;&gt;Node15 -->
<g id="edge37" class="edge">
<title>Node22&#45;&gt;Node15</title>
<path fill="none" stroke="midnightblue" d="M455.42,-179.4C426.9,-169.24 388.83,-155.67 361.74,-146.02"/>
<polygon fill="midnightblue" stroke="midnightblue" points="362.89,-142.72 352.3,-142.66 360.55,-149.31 362.89,-142.72"/>
</g>
<!-- Node22&#45;&gt;Node16 -->
<g id="edge38" class="edge">
<title>Node22&#45;&gt;Node16</title>
<path fill="none" stroke="midnightblue" d="M533.39,-179.4C560.94,-169.28 597.67,-155.79 623.92,-146.15"/>
<polygon fill="midnightblue" stroke="midnightblue" points="625.25,-149.39 633.43,-142.66 622.83,-142.82 625.25,-149.39"/>
</g>
<!-- Node23&#45;&gt;Node7 -->
<g id="edge43" class="edge">
<title>Node23&#45;&gt;Node7</title>
<path fill="none" stroke="midnightblue" d="M327.66,-254.45C386.18,-247.16 481.37,-232.94 561,-210 596.05,-199.9 602.19,-189.91 637,-179 692.25,-161.68 758.01,-148.27 798.89,-140.75"/>
<polygon fill="midnightblue" stroke="midnightblue" points="799.76,-144.15 808.98,-138.92 798.51,-137.26 799.76,-144.15"/>
</g>
<!-- Node23&#45;&gt;Node10 -->
<g id="edge41" class="edge">
<title>Node23&#45;&gt;Node10</title>
<path fill="none" stroke="midnightblue" d="M273,-246.4C273,-237.06 273,-224.71 273,-214.52"/>
<polygon fill="midnightblue" stroke="midnightblue" points="276.5,-214.19 273,-204.19 269.5,-214.19 276.5,-214.19"/>
</g>
<!-- Node23&#45;&gt;Node12 -->
<g id="edge42" class="edge">
<title>Node23&#45;&gt;Node12</title>
<path fill="none" stroke="midnightblue" d="M235.23,-246.47C219.19,-238.41 202.12,-226.54 193,-210 172.03,-171.97 182.87,-118.58 190.91,-90.85"/>
<polygon fill="midnightblue" stroke="midnightblue" points="194.27,-91.84 193.88,-81.26 187.58,-89.77 194.27,-91.84"/>
</g>
<!-- Node23&#45;&gt;Node20 -->
<g id="edge44" class="edge">
<title>Node23&#45;&gt;Node20</title>
<path fill="none" stroke="midnightblue" d="M240.24,-246.4C213.74,-234.99 176.78,-219.08 151.27,-208.1"/>
<polygon fill="midnightblue" stroke="midnightblue" points="152.33,-204.75 141.76,-204.01 149.56,-211.18 152.33,-204.75"/>
</g>
<!-- Node24&#45;&gt;Node6 -->
<g id="edge46" class="edge">
<title>Node24&#45;&gt;Node6</title>
<path fill="none" stroke="midnightblue" d="M1090.27,-179.37C1045.3,-163.81 969.64,-138.88 903,-123 832.33,-106.16 751,-92.84 690.87,-84.11"/>
<polygon fill="midnightblue" stroke="midnightblue" points="691.04,-80.6 680.65,-82.65 690.05,-87.53 691.04,-80.6"/>
</g>
<!-- Node24&#45;&gt;Node7 -->
<g id="edge47" class="edge">
<title>Node24&#45;&gt;Node7</title>
<path fill="none" stroke="midnightblue" d="M1061.17,-179.47C1003.8,-167.78 924.12,-151.55 877.12,-141.97"/>
<polygon fill="midnightblue" stroke="midnightblue" points="877.53,-138.48 867.04,-139.92 876.14,-145.34 877.53,-138.48"/>
</g>
<!-- Node25&#45;&gt;Node6 -->
<g id="edge49" class="edge">
<title>Node25&#45;&gt;Node6</title>
<path fill="none" stroke="midnightblue" d="M1244.5,-179.46C1172.39,-164.47 1053.81,-140.51 951,-123 862.66,-107.95 761.22,-93.56 690.74,-84.01"/>
<polygon fill="midnightblue" stroke="midnightblue" points="690.95,-80.51 680.57,-82.64 690.02,-87.45 690.95,-80.51"/>
</g>
<!-- Node25&#45;&gt;Node7 -->
<g id="edge50" class="edge">
<title>Node25&#45;&gt;Node7</title>
<path fill="none" stroke="midnightblue" d="M1231.87,-180.28C1228.88,-179.84 1225.91,-179.41 1223,-179 1096.86,-161.25 946.78,-145.15 877.12,-137.96"/>
<polygon fill="midnightblue" stroke="midnightblue" points="877.34,-134.46 867.04,-136.92 876.63,-141.43 877.34,-134.46"/>
</g>
</g>
</svg>
