<?xml version="1.0" encoding="UTF-8" standalone="no"?>
<!DOCTYPE svg PUBLIC "-//W3C//DTD SVG 1.1//EN"
 "http://www.w3.org/Graphics/SVG/1.1/DTD/svg11.dtd">
<!-- Generated by graphviz version 2.43.0 (0)
 -->
<!-- Title: RegDB.h Pages: 1 -->
<!--zoomable 386 -->
<svg id="main" version="1.1" xmlns="http://www.w3.org/2000/svg" xmlns:xlink="http://www.w3.org/1999/xlink" xml:space="preserve" onload="init(evt)">
<style type="text/css"><![CDATA[
.edge:hover path { stroke: red; }
.edge:hover polygon { stroke: red; fill: red; }
]]></style>
<script type="text/javascript"><![CDATA[
var edges = document.getElementsByTagName('g');
if (edges && edges.length) {
  for (var i=0;i<edges.length;i++) {
    if (edges[i].id.substr(0,4)=='edge') {
      edges[i].setAttribute('class','edge');
    }
  }
}
]]></script>
        <defs>
                <circle id="rim" cx="0" cy="0" r="7"/>
                <circle id="rim2" cx="0" cy="0" r="3.5"/>
                <g id="zoomPlus">
                        <use xlink:href="#rim" fill="#404040">
                                <set attributeName="fill" to="#808080" begin="zoomplus.mouseover" end="zoomplus.mouseout"/>
                        </use>
                        <path d="M-4,0h8M0,-4v8" fill="none" stroke="white" stroke-width="1.5" pointer-events="none"/>
                </g>
                <g id="zoomMin">
                        <use xlink:href="#rim" fill="#404040">
                                <set attributeName="fill" to="#808080" begin="zoomminus.mouseover" end="zoomminus.mouseout"/>
                        </use>
                        <path d="M-4,0h8" fill="none" stroke="white" stroke-width="1.5" pointer-events="none"/>
                </g>
                <g id="dirArrow">
                        <path fill="none" stroke="white" stroke-width="1.5" d="M0,-3.0v7 M-2.5,-0.5L0,-3.0L2.5,-0.5"/>
                </g>
               <g id="resetDef">
                       <use xlink:href="#rim2" fill="#404040">
                               <set attributeName="fill" to="#808080" begin="reset.mouseover" end="reset.mouseout"/>
                       </use>
               </g>
        </defs>

<script type="text/javascript">
var viewWidth = 773;
var viewHeight = 386;
var sectionId = 'dynsection-0';
</script>
<script xlink:href="svgpan.js"/>
<svg id="graph" class="graph">
<g id="viewport">
<title>RegDB.h</title>
<polygon fill="white" stroke="transparent" points="-4,4 -4,-382 769.12,-382 769.12,4 -4,4"/>
<!-- Node1 -->
<g id="node1" class="node">
<title>Node1</title>
<g id="a_node1"><a xlink:title=" ">
<polygon fill="#bfbfbf" stroke="black" points="518.29,-358.5 518.29,-377.5 577.29,-377.5 577.29,-358.5 518.29,-358.5"/>
<text text-anchor="middle" x="547.79" y="-365.5" font-family="Helvetica,sans-Serif" font-size="10.00">RegDB.h</text>
</a>
</g>
</g>
<!-- Node2 -->
<g id="node2" class="node">
<title>Node2</title>
<g id="a_node2"><a xlink:href="RTL_8h.html" target="_top" xlink:title=" ">
<polygon fill="white" stroke="black" points="131.29,-302.5 131.29,-321.5 250.29,-321.5 250.29,-302.5 131.29,-302.5"/>
<text text-anchor="middle" x="190.79" y="-309.5" font-family="Helvetica,sans-Serif" font-size="10.00">boomerang/ssl/RTL.h</text>
</a>
</g>
</g>
<!-- Node1&#45;&gt;Node2 -->
<g id="edge1" class="edge">
<title>Node1&#45;&gt;Node2</title>
<path fill="none" stroke="midnightblue" d="M518.28,-362.54C461.44,-353.94 335.53,-334.89 257.45,-323.08"/>
<polygon fill="midnightblue" stroke="midnightblue" points="257.64,-319.57 247.23,-321.54 256.6,-326.49 257.64,-319.57"/>
</g>
<!-- Node15 -->
<g id="node15" class="node">
<title>Node15</title>
<g id="a_node15"><a xlink:title=" ">
<polygon fill="white" stroke="#bfbfbf" points="509.79,-179.5 509.79,-198.5 547.79,-198.5 547.79,-179.5 509.79,-179.5"/>
<text text-anchor="middle" x="528.79" y="-186.5" font-family="Helvetica,sans-Serif" font-size="10.00">map</text>
</a>
</g>
</g>
<!-- Node1&#45;&gt;Node15 -->
<g id="edge29" class="edge">
<title>Node1&#45;&gt;Node15</title>
<path fill="none" stroke="midnightblue" d="M546.88,-358.46C543.98,-331.43 534.94,-247.24 530.85,-209.11"/>
<polygon fill="midnightblue" stroke="midnightblue" points="534.29,-208.44 529.75,-198.87 527.33,-209.18 534.29,-208.44"/>
</g>
<!-- Node16 -->
<g id="node16" class="node">
<title>Node16</title>
<g id="a_node16"><a xlink:href="Register_8h.html" target="_top" xlink:title=" ">
<polygon fill="white" stroke="black" points="566.29,-179.5 566.29,-198.5 707.29,-198.5 707.29,-179.5 566.29,-179.5"/>
<text text-anchor="middle" x="636.79" y="-186.5" font-family="Helvetica,sans-Serif" font-size="10.00">boomerang/ssl/Register.h</text>
</a>
</g>
</g>
<!-- Node1&#45;&gt;Node16 -->
<g id="edge22" class="edge">
<title>Node1&#45;&gt;Node16</title>
<path fill="none" stroke="midnightblue" d="M552.09,-358.46C565.8,-331.19 608.74,-245.78 627.68,-208.13"/>
<polygon fill="midnightblue" stroke="midnightblue" points="630.97,-209.37 632.33,-198.87 624.72,-206.23 630.97,-209.37"/>
</g>
<!-- Node19 -->
<g id="node19" class="node">
<title>Node19</title>
<g id="a_node19"><a xlink:title=" ">
<polygon fill="white" stroke="#bfbfbf" points="594.79,-302.5 594.79,-321.5 626.79,-321.5 626.79,-302.5 594.79,-302.5"/>
<text text-anchor="middle" x="610.79" y="-309.5" font-family="Helvetica,sans-Serif" font-size="10.00">set</text>
</a>
</g>
</g>
<!-- Node1&#45;&gt;Node19 -->
<g id="edge30" class="edge">
<title>Node1&#45;&gt;Node19</title>
<path fill="none" stroke="midnightblue" d="M557.92,-358.32C567.32,-350.26 581.54,-338.08 592.86,-328.37"/>
<polygon fill="midnightblue" stroke="midnightblue" points="595.17,-331 600.49,-321.83 590.62,-325.68 595.17,-331"/>
</g>
<!-- Node3 -->
<g id="node3" class="node">
<title>Node3</title>
<g id="a_node3"><a xlink:href="Statement_8h.html" target="_top" xlink:title=" ">
<polygon fill="white" stroke="black" points="117.29,-235.5 117.29,-265.5 264.29,-265.5 264.29,-235.5 117.29,-235.5"/>
<text text-anchor="start" x="125.29" y="-253.5" font-family="Helvetica,sans-Serif" font-size="10.00">boomerang/ssl/statements</text>
<text text-anchor="middle" x="190.79" y="-242.5" font-family="Helvetica,sans-Serif" font-size="10.00">/Statement.h</text>
</a>
</g>
</g>
<!-- Node2&#45;&gt;Node3 -->
<g id="edge2" class="edge">
<title>Node2&#45;&gt;Node3</title>
<path fill="none" stroke="midnightblue" d="M190.79,-302.48C190.79,-295.47 190.79,-285.19 190.79,-275.7"/>
<polygon fill="midnightblue" stroke="midnightblue" points="194.29,-275.52 190.79,-265.52 187.29,-275.52 194.29,-275.52"/>
</g>
<!-- Node6 -->
<g id="node6" class="node">
<title>Node6</title>
<g id="a_node6"><a xlink:title=" ">
<polygon fill="white" stroke="#bfbfbf" points="99.79,-123.5 99.79,-142.5 157.79,-142.5 157.79,-123.5 99.79,-123.5"/>
<text text-anchor="middle" x="128.79" y="-130.5" font-family="Helvetica,sans-Serif" font-size="10.00">memory</text>
</a>
</g>
</g>
<!-- Node2&#45;&gt;Node6 -->
<g id="edge21" class="edge">
<title>Node2&#45;&gt;Node6</title>
<path fill="none" stroke="midnightblue" d="M152.25,-302.46C104.96,-289.52 27.95,-259.72 2.79,-199 -13.13,-160.55 46.93,-144.54 89.56,-138.1"/>
<polygon fill="midnightblue" stroke="midnightblue" points="90.27,-141.53 99.7,-136.69 89.31,-134.6 90.27,-141.53"/>
</g>
<!-- Node7 -->
<g id="node7" class="node">
<title>Node7</title>
<g id="a_node7"><a xlink:href="Address_8h.html" target="_top" xlink:title=" ">
<polygon fill="white" stroke="black" points="349.79,-179.5 349.79,-198.5 491.79,-198.5 491.79,-179.5 349.79,-179.5"/>
<text text-anchor="middle" x="420.79" y="-186.5" font-family="Helvetica,sans-Serif" font-size="10.00">boomerang/util/Address.h</text>
</a>
</g>
</g>
<!-- Node2&#45;&gt;Node7 -->
<g id="edge19" class="edge">
<title>Node2&#45;&gt;Node7</title>
<path fill="none" stroke="midnightblue" d="M206.97,-302.49C246.38,-281.76 347.64,-228.49 395.28,-203.42"/>
<polygon fill="midnightblue" stroke="midnightblue" points="397.11,-206.41 404.33,-198.66 393.85,-200.22 397.11,-206.41"/>
</g>
<!-- Node14 -->
<g id="node14" class="node">
<title>Node14</title>
<g id="a_node14"><a xlink:title=" ">
<polygon fill="white" stroke="#bfbfbf" points="11.79,-179.5 11.79,-198.5 43.79,-198.5 43.79,-179.5 11.79,-179.5"/>
<text text-anchor="middle" x="27.79" y="-186.5" font-family="Helvetica,sans-Serif" font-size="10.00">list</text>
</a>
</g>
</g>
<!-- Node2&#45;&gt;Node14 -->
<g id="edge20" class="edge">
<title>Node2&#45;&gt;Node14</title>
<path fill="none" stroke="midnightblue" d="M171.83,-302.49C154.44,-294.28 128.35,-280.93 107.79,-266 82.98,-247.97 57.92,-222.77 42.62,-206.42"/>
<polygon fill="midnightblue" stroke="midnightblue" points="44.91,-203.74 35.56,-198.76 39.76,-208.48 44.91,-203.74"/>
</g>
<!-- Node4 -->
<g id="node4" class="node">
<title>Node4</title>
<g id="a_node4"><a xlink:href="ExpHelp_8h.html" target="_top" xlink:title=" ">
<polygon fill="white" stroke="black" points="169.79,-179.5 169.79,-198.5 331.79,-198.5 331.79,-179.5 169.79,-179.5"/>
<text text-anchor="middle" x="250.79" y="-186.5" font-family="Helvetica,sans-Serif" font-size="10.00">boomerang/ssl/exp/ExpHelp.h</text>
</a>
</g>
</g>
<!-- Node3&#45;&gt;Node4 -->
<g id="edge3" class="edge">
<title>Node3&#45;&gt;Node4</title>
<path fill="none" stroke="midnightblue" d="M205.01,-235.4C214,-226.49 225.63,-214.95 234.92,-205.74"/>
<polygon fill="midnightblue" stroke="midnightblue" points="237.43,-208.18 242.06,-198.66 232.5,-203.21 237.43,-208.18"/>
</g>
<!-- Node3&#45;&gt;Node6 -->
<g id="edge18" class="edge">
<title>Node3&#45;&gt;Node6</title>
<path fill="none" stroke="midnightblue" d="M138.11,-235.45C119.88,-227.79 101.39,-216.23 90.79,-199 80.45,-182.19 95.54,-162.59 109.65,-149.34"/>
<polygon fill="midnightblue" stroke="midnightblue" points="112.01,-151.92 117.22,-142.7 107.4,-146.66 112.01,-151.92"/>
</g>
<!-- Node3&#45;&gt;Node7 -->
<g id="edge6" class="edge">
<title>Node3&#45;&gt;Node7</title>
<path fill="none" stroke="midnightblue" d="M245.01,-235.47C285.56,-224.99 340.25,-210.84 377.8,-201.12"/>
<polygon fill="midnightblue" stroke="midnightblue" points="379.11,-204.4 387.91,-198.51 377.35,-197.62 379.11,-204.4"/>
</g>
<!-- Node13 -->
<g id="node13" class="node">
<title>Node13</title>
<g id="a_node13"><a xlink:title=" ">
<polygon fill="white" stroke="#bfbfbf" points="99.79,-179.5 99.79,-198.5 151.79,-198.5 151.79,-179.5 99.79,-179.5"/>
<text text-anchor="middle" x="125.79" y="-186.5" font-family="Helvetica,sans-Serif" font-size="10.00">cassert</text>
</a>
</g>
</g>
<!-- Node3&#45;&gt;Node13 -->
<g id="edge15" class="edge">
<title>Node3&#45;&gt;Node13</title>
<path fill="none" stroke="midnightblue" d="M175.39,-235.4C165.56,-226.4 152.8,-214.72 142.69,-205.47"/>
<polygon fill="midnightblue" stroke="midnightblue" points="144.99,-202.83 135.25,-198.66 140.27,-207.99 144.99,-202.83"/>
</g>
<!-- Node3&#45;&gt;Node14 -->
<g id="edge16" class="edge">
<title>Node3&#45;&gt;Node14</title>
<path fill="none" stroke="midnightblue" d="M152.17,-235.4C121.75,-224.3 80.19,-209.13 53.67,-199.44"/>
<polygon fill="midnightblue" stroke="midnightblue" points="54.55,-196.04 43.96,-195.9 52.15,-202.62 54.55,-196.04"/>
</g>
<!-- Node3&#45;&gt;Node15 -->
<g id="edge17" class="edge">
<title>Node3&#45;&gt;Node15</title>
<path fill="none" stroke="midnightblue" d="M264.38,-240.67C325.24,-232.64 413.99,-219.28 499.72,-198.96"/>
<polygon fill="midnightblue" stroke="midnightblue" points="500.72,-202.32 509.62,-196.58 499.08,-195.51 500.72,-202.32"/>
</g>
<!-- Node5 -->
<g id="node5" class="node">
<title>Node5</title>
<g id="a_node5"><a xlink:href="BoomerangAPI_8h.html" target="_top" xlink:title=" ">
<polygon fill="white" stroke="black" points="210.29,-56.5 210.29,-86.5 365.29,-86.5 365.29,-56.5 210.29,-56.5"/>
<text text-anchor="start" x="218.29" y="-74.5" font-family="Helvetica,sans-Serif" font-size="10.00">boomerang/core/Boomerang</text>
<text text-anchor="middle" x="287.79" y="-63.5" font-family="Helvetica,sans-Serif" font-size="10.00">API.h</text>
</a>
</g>
</g>
<!-- Node4&#45;&gt;Node5 -->
<g id="edge4" class="edge">
<title>Node4&#45;&gt;Node5</title>
<path fill="none" stroke="midnightblue" d="M251.83,-179.41C253.49,-166.81 257.27,-142.66 263.79,-123 266.83,-113.86 271.11,-104.22 275.23,-95.85"/>
<polygon fill="midnightblue" stroke="midnightblue" points="278.47,-97.19 279.89,-86.69 272.23,-94.02 278.47,-97.19"/>
</g>
<!-- Node4&#45;&gt;Node6 -->
<g id="edge5" class="edge">
<title>Node4&#45;&gt;Node6</title>
<path fill="none" stroke="midnightblue" d="M231.46,-179.44C211.47,-170.6 180.05,-156.69 157.23,-146.59"/>
<polygon fill="midnightblue" stroke="midnightblue" points="158.6,-143.36 148.03,-142.52 155.76,-149.76 158.6,-143.36"/>
</g>
<!-- Node7&#45;&gt;Node5 -->
<g id="edge7" class="edge">
<title>Node7&#45;&gt;Node5</title>
<path fill="none" stroke="midnightblue" d="M366.29,-179.48C343.22,-173.14 317.99,-162.13 301.79,-143 291.02,-130.28 287.68,-111.64 286.95,-96.72"/>
<polygon fill="midnightblue" stroke="midnightblue" points="290.45,-96.6 286.8,-86.65 283.45,-96.7 290.45,-96.6"/>
</g>
<!-- Node8 -->
<g id="node8" class="node">
<title>Node8</title>
<g id="a_node8"><a xlink:href="OStream_8h.html" target="_top" xlink:title=" ">
<polygon fill="white" stroke="black" points="343.79,-123.5 343.79,-142.5 489.79,-142.5 489.79,-123.5 343.79,-123.5"/>
<text text-anchor="middle" x="416.79" y="-130.5" font-family="Helvetica,sans-Serif" font-size="10.00">boomerang/util/OStream.h</text>
</a>
</g>
</g>
<!-- Node7&#45;&gt;Node8 -->
<g id="edge8" class="edge">
<title>Node7&#45;&gt;Node8</title>
<path fill="none" stroke="midnightblue" d="M420.13,-179.08C419.61,-172.01 418.86,-161.86 418.2,-152.99"/>
<polygon fill="midnightblue" stroke="midnightblue" points="421.67,-152.47 417.44,-142.75 414.69,-152.98 421.67,-152.47"/>
</g>
<!-- Node9 -->
<g id="node9" class="node">
<title>Node9</title>
<g id="a_node9"><a xlink:href="Types_8h.html" target="_top" xlink:title=" ">
<polygon fill="white" stroke="black" points="455.29,-62 455.29,-81 586.29,-81 586.29,-62 455.29,-62"/>
<text text-anchor="middle" x="520.79" y="-69" font-family="Helvetica,sans-Serif" font-size="10.00">boomerang/util/Types.h</text>
</a>
</g>
</g>
<!-- Node7&#45;&gt;Node9 -->
<g id="edge13" class="edge">
<title>Node7&#45;&gt;Node9</title>
<path fill="none" stroke="midnightblue" d="M445.17,-179.49C462.44,-172.28 484.92,-160.33 498.79,-143 510.67,-128.16 516.17,-106.87 518.69,-91.58"/>
<polygon fill="midnightblue" stroke="midnightblue" points="522.22,-91.64 520.1,-81.25 515.28,-90.69 522.22,-91.64"/>
</g>
<!-- Node12 -->
<g id="node12" class="node">
<title>Node12</title>
<g id="a_node12"><a xlink:title=" ">
<polygon fill="white" stroke="#bfbfbf" points="546.29,-123.5 546.29,-142.5 599.29,-142.5 599.29,-123.5 546.29,-123.5"/>
<text text-anchor="middle" x="572.79" y="-130.5" font-family="Helvetica,sans-Serif" font-size="10.00">QString</text>
</a>
</g>
</g>
<!-- Node7&#45;&gt;Node12 -->
<g id="edge14" class="edge">
<title>Node7&#45;&gt;Node12</title>
<path fill="none" stroke="midnightblue" d="M444.88,-179.44C470.34,-170.4 510.69,-156.06 539.25,-145.92"/>
<polygon fill="midnightblue" stroke="midnightblue" points="540.57,-149.16 548.82,-142.52 538.23,-142.57 540.57,-149.16"/>
</g>
<!-- Node8&#45;&gt;Node5 -->
<g id="edge9" class="edge">
<title>Node8&#45;&gt;Node5</title>
<path fill="none" stroke="midnightblue" d="M398.31,-123.48C379.86,-114.96 350.93,-101.62 327.29,-90.72"/>
<polygon fill="midnightblue" stroke="midnightblue" points="328.74,-87.53 318.2,-86.52 325.81,-93.89 328.74,-87.53"/>
</g>
<!-- Node8&#45;&gt;Node9 -->
<g id="edge10" class="edge">
<title>Node8&#45;&gt;Node9</title>
<path fill="none" stroke="midnightblue" d="M431.69,-123.48C448.76,-113.71 476.96,-97.58 497.06,-86.08"/>
<polygon fill="midnightblue" stroke="midnightblue" points="498.98,-89.01 505.92,-81.01 495.5,-82.94 498.98,-89.01"/>
</g>
<!-- Node11 -->
<g id="node11" class="node">
<title>Node11</title>
<g id="a_node11"><a xlink:title=" ">
<polygon fill="white" stroke="#bfbfbf" points="390.79,-62 390.79,-81 436.79,-81 436.79,-62 390.79,-62"/>
<text text-anchor="middle" x="413.79" y="-69" font-family="Helvetica,sans-Serif" font-size="10.00">cstdio</text>
</a>
</g>
</g>
<!-- Node8&#45;&gt;Node11 -->
<g id="edge12" class="edge">
<title>Node8&#45;&gt;Node11</title>
<path fill="none" stroke="midnightblue" d="M416.36,-123.48C415.94,-115.08 415.28,-101.98 414.73,-91.16"/>
<polygon fill="midnightblue" stroke="midnightblue" points="418.22,-90.82 414.22,-81.01 411.23,-91.17 418.22,-90.82"/>
</g>
<!-- Node10 -->
<g id="node10" class="node">
<title>Node10</title>
<g id="a_node10"><a xlink:title=" ">
<polygon fill="white" stroke="#bfbfbf" points="495.79,-0.5 495.79,-19.5 545.79,-19.5 545.79,-0.5 495.79,-0.5"/>
<text text-anchor="middle" x="520.79" y="-7.5" font-family="Helvetica,sans-Serif" font-size="10.00">cstdint</text>
</a>
</g>
</g>
<!-- Node9&#45;&gt;Node10 -->
<g id="edge11" class="edge">
<title>Node9&#45;&gt;Node10</title>
<path fill="none" stroke="midnightblue" d="M520.79,-61.98C520.79,-53.58 520.79,-40.48 520.79,-29.66"/>
<polygon fill="midnightblue" stroke="midnightblue" points="524.29,-29.51 520.79,-19.51 517.29,-29.51 524.29,-29.51"/>
</g>
<!-- Node16&#45;&gt;Node5 -->
<g id="edge23" class="edge">
<title>Node16&#45;&gt;Node5</title>
<path fill="none" stroke="midnightblue" d="M570.37,-179.49C484.48,-168.28 344.67,-149.27 334.79,-143 317.41,-131.97 304.99,-111.93 297.3,-96.03"/>
<polygon fill="midnightblue" stroke="midnightblue" points="300.42,-94.45 293.12,-86.78 294.04,-97.33 300.42,-94.45"/>
</g>
<!-- Node16&#45;&gt;Node6 -->
<g id="edge26" class="edge">
<title>Node16&#45;&gt;Node6</title>
<path fill="none" stroke="midnightblue" d="M566.13,-180.02C562.97,-179.67 559.85,-179.33 556.79,-179 413.5,-163.41 243.1,-145.76 167.84,-138.01"/>
<polygon fill="midnightblue" stroke="midnightblue" points="168.17,-134.52 157.86,-136.98 167.45,-141.49 168.17,-134.52"/>
</g>
<!-- Node16&#45;&gt;Node9 -->
<g id="edge24" class="edge">
<title>Node16&#45;&gt;Node9</title>
<path fill="none" stroke="midnightblue" d="M688.06,-179.49C731.25,-170.09 782.51,-152.28 758.79,-123 738.58,-98.05 658.43,-84.92 596.67,-78.38"/>
<polygon fill="midnightblue" stroke="midnightblue" points="596.84,-74.88 586.54,-77.34 596.13,-81.84 596.84,-74.88"/>
</g>
<!-- Node16&#45;&gt;Node12 -->
<g id="edge25" class="edge">
<title>Node16&#45;&gt;Node12</title>
<path fill="none" stroke="midnightblue" d="M626.51,-179.32C616.96,-171.26 602.51,-159.08 591.01,-149.37"/>
<polygon fill="midnightblue" stroke="midnightblue" points="593.16,-146.61 583.26,-142.83 588.65,-151.96 593.16,-146.61"/>
</g>
<!-- Node17 -->
<g id="node17" class="node">
<title>Node17</title>
<g id="a_node17"><a xlink:title=" ">
<polygon fill="white" stroke="#bfbfbf" points="617.79,-123.5 617.79,-142.5 661.79,-142.5 661.79,-123.5 617.79,-123.5"/>
<text text-anchor="middle" x="639.79" y="-130.5" font-family="Helvetica,sans-Serif" font-size="10.00">string</text>
</a>
</g>
</g>
<!-- Node16&#45;&gt;Node17 -->
<g id="edge27" class="edge">
<title>Node16&#45;&gt;Node17</title>
<path fill="none" stroke="midnightblue" d="M637.29,-179.08C637.68,-172.01 638.25,-161.86 638.74,-152.99"/>
<polygon fill="midnightblue" stroke="midnightblue" points="642.25,-152.93 639.31,-142.75 635.26,-152.54 642.25,-152.93"/>
</g>
<!-- Node18 -->
<g id="node18" class="node">
<title>Node18</title>
<g id="a_node18"><a xlink:title=" ">
<polygon fill="white" stroke="#bfbfbf" points="680.29,-123.5 680.29,-142.5 749.29,-142.5 749.29,-123.5 680.29,-123.5"/>
<text text-anchor="middle" x="714.79" y="-130.5" font-family="Helvetica,sans-Serif" font-size="10.00">type_traits</text>
</a>
</g>
</g>
<!-- Node16&#45;&gt;Node18 -->
<g id="edge28" class="edge">
<title>Node16&#45;&gt;Node18</title>
<path fill="none" stroke="midnightblue" d="M649.33,-179.32C661.38,-170.98 679.82,-158.21 694.06,-148.35"/>
<polygon fill="midnightblue" stroke="midnightblue" points="696.06,-151.22 702.29,-142.65 692.08,-145.47 696.06,-151.22"/>
</g>
</g>
</svg>
        <g id="navigator" transform="translate(0 0)" fill="#404254">
                <rect fill="#f2f5e9" fill-opacity="0.5" stroke="#606060" stroke-width=".5" x="0" y="0" width="60" height="60"/>
                <use id="zoomplus" xlink:href="#zoomPlus" x="17" y="9" onmousedown="handleZoom(evt,'in')"/>
                <use id="zoomminus" xlink:href="#zoomMin" x="42" y="9" onmousedown="handleZoom(evt,'out')"/>
                <use id="reset" xlink:href="#resetDef" x="30" y="36" onmousedown="handleReset()"/>
                <g id="arrowUp" xlink:href="#dirArrow" transform="translate(30 24)" onmousedown="handlePan(0,-1)">
                  <use xlink:href="#rim" fill="#404040">
                        <set attributeName="fill" to="#808080" begin="arrowUp.mouseover" end="arrowUp.mouseout"/>
                  </use>
                  <path fill="none" stroke="white" stroke-width="1.5" d="M0,-3.0v7 M-2.5,-0.5L0,-3.0L2.5,-0.5"/>
                </g>
                <g id="arrowRight" xlink:href="#dirArrow" transform="rotate(90) translate(36 -43)" onmousedown="handlePan(1,0)">
                  <use xlink:href="#rim" fill="#404040">
                        <set attributeName="fill" to="#808080" begin="arrowRight.mouseover" end="arrowRight.mouseout"/>
                  </use>
                  <path fill="none" stroke="white" stroke-width="1.5" d="M0,-3.0v7 M-2.5,-0.5L0,-3.0L2.5,-0.5"/>
                </g>
                <g id="arrowDown" xlink:href="#dirArrow" transform="rotate(180) translate(-30 -48)" onmousedown="handlePan(0,1)">
                  <use xlink:href="#rim" fill="#404040">
                        <set attributeName="fill" to="#808080" begin="arrowDown.mouseover" end="arrowDown.mouseout"/>
                  </use>
                  <path fill="none" stroke="white" stroke-width="1.5" d="M0,-3.0v7 M-2.5,-0.5L0,-3.0L2.5,-0.5"/>
                </g>
                <g id="arrowLeft" xlink:href="#dirArrow" transform="rotate(270) translate(-36 17)" onmousedown="handlePan(-1,0)">
                  <use xlink:href="#rim" fill="#404040">
                        <set attributeName="fill" to="#808080" begin="arrowLeft.mouseover" end="arrowLeft.mouseout"/>
                  </use>
                  <path fill="none" stroke="white" stroke-width="1.5" d="M0,-3.0v7 M-2.5,-0.5L0,-3.0L2.5,-0.5"/>
                </g>
        </g>
        <svg viewBox="0 0 15 15" width="100%" height="30px" preserveAspectRatio="xMaxYMin meet">
         <g id="arrow_out" transform="scale(0.3 0.3)">
          <a xlink:href="RegDB_8h__incl_org.svg" target="_base">
           <rect id="button" ry="5" rx="5" y="6" x="6" height="38" width="38"
                fill="#f2f5e9" fill-opacity="0.5" stroke="#606060" stroke-width="1.0"/>
           <path id="arrow"
             d="M 11.500037,31.436501 C 11.940474,20.09759 22.043105,11.32322 32.158766,21.979434 L 37.068811,17.246167 C 37.068811,17.246167 37.088388,32 37.088388,32 L 22.160133,31.978069 C 22.160133,31.978069 26.997745,27.140456 26.997745,27.140456 C 18.528582,18.264221 13.291696,25.230495 11.500037,31.436501 z"
             style="fill:#404040;"/>
          </a>
         </g>
        </svg>
</svg>
