<?xml version="1.0" encoding="UTF-8" standalone="no"?>
<!DOCTYPE svg PUBLIC "-//W3C//DTD SVG 1.1//EN"
 "http://www.w3.org/Graphics/SVG/1.1/DTD/svg11.dtd">
<!-- Generated by graphviz version 2.43.0 (0)
 -->
<!-- Title: RegDB.cpp Pages: 1 -->
<svg width="1493pt" height="598pt"
 viewBox="0.00 0.00 1493.00 598.00" xmlns="http://www.w3.org/2000/svg" xmlns:xlink="http://www.w3.org/1999/xlink">
<g id="graph0" class="graph" transform="scale(1 1) rotate(0) translate(4 594)">
<title>RegDB.cpp</title>
<polygon fill="white" stroke="transparent" points="-4,4 -4,-594 1489,-594 1489,4 -4,4"/>
<!-- Node1 -->
<g id="node1" class="node">
<title>Node1</title>
<g id="a_node1"><a xlink:title=" ">
<polygon fill="#bfbfbf" stroke="black" points="1048.5,-570.5 1048.5,-589.5 1118.5,-589.5 1118.5,-570.5 1048.5,-570.5"/>
<text text-anchor="middle" x="1083.5" y="-577.5" font-family="Helvetica,sans-Serif" font-size="10.00">RegDB.cpp</text>
</a>
</g>
</g>
<!-- Node2 -->
<g id="node2" class="node">
<title>Node2</title>
<g id="a_node2"><a xlink:href="RegDB_8h.html" target="_top" xlink:title=" ">
<polygon fill="white" stroke="black" points="464,-380.5 464,-399.5 523,-399.5 523,-380.5 464,-380.5"/>
<text text-anchor="middle" x="493.5" y="-387.5" font-family="Helvetica,sans-Serif" font-size="10.00">RegDB.h</text>
</a>
</g>
</g>
<!-- Node1&#45;&gt;Node2 -->
<g id="edge1" class="edge">
<title>Node1&#45;&gt;Node2</title>
<path fill="none" stroke="midnightblue" d="M1048.34,-577.95C959.7,-574.89 729.22,-564.17 659.5,-534 592.46,-504.99 532.58,-439.03 506.85,-407.88"/>
<polygon fill="midnightblue" stroke="midnightblue" points="509.27,-405.31 500.26,-399.75 503.84,-409.72 509.27,-405.31"/>
</g>
<!-- Node21 -->
<g id="node21" class="node">
<title>Node21</title>
<g id="a_node21"><a xlink:href="Const_8h.html" target="_top" xlink:title=" ">
<polygon fill="white" stroke="black" points="958,-380.5 958,-399.5 1107,-399.5 1107,-380.5 958,-380.5"/>
<text text-anchor="middle" x="1032.5" y="-387.5" font-family="Helvetica,sans-Serif" font-size="10.00">boomerang/ssl/exp/Const.h</text>
</a>
</g>
</g>
<!-- Node1&#45;&gt;Node21 -->
<g id="edge32" class="edge">
<title>Node1&#45;&gt;Node21</title>
<path fill="none" stroke="midnightblue" d="M1086.18,-570.4C1092.88,-547.32 1108.3,-482.55 1086.5,-436 1080.46,-423.09 1068.69,-412.6 1057.68,-405"/>
<polygon fill="midnightblue" stroke="midnightblue" points="1059.44,-401.97 1049.13,-399.54 1055.67,-407.87 1059.44,-401.97"/>
</g>
<!-- Node26 -->
<g id="node26" class="node">
<title>Node26</title>
<g id="a_node26"><a xlink:href="Location_8h.html" target="_top" xlink:title=" ">
<polygon fill="white" stroke="black" points="783,-442 783,-461 946,-461 946,-442 783,-442"/>
<text text-anchor="middle" x="864.5" y="-449" font-family="Helvetica,sans-Serif" font-size="10.00">boomerang/ssl/exp/Location.h</text>
</a>
</g>
</g>
<!-- Node1&#45;&gt;Node26 -->
<g id="edge47" class="edge">
<title>Node1&#45;&gt;Node26</title>
<path fill="none" stroke="midnightblue" d="M1068.45,-570.31C1031.01,-548.68 933.44,-492.32 888.19,-466.18"/>
<polygon fill="midnightblue" stroke="midnightblue" points="889.78,-463.06 879.37,-461.09 886.28,-469.12 889.78,-463.06"/>
</g>
<!-- Node28 -->
<g id="node28" class="node">
<title>Node28</title>
<g id="a_node28"><a xlink:href="Ternary_8h.html" target="_top" xlink:title=" ">
<polygon fill="white" stroke="black" points="668.5,-509 668.5,-528 824.5,-528 824.5,-509 668.5,-509"/>
<text text-anchor="middle" x="746.5" y="-516" font-family="Helvetica,sans-Serif" font-size="10.00">boomerang/ssl/exp/Ternary.h</text>
</a>
</g>
</g>
<!-- Node1&#45;&gt;Node28 -->
<g id="edge51" class="edge">
<title>Node1&#45;&gt;Node28</title>
<path fill="none" stroke="midnightblue" d="M1048.39,-572.8C990.62,-562.6 874.97,-542.18 804.78,-529.79"/>
<polygon fill="midnightblue" stroke="midnightblue" points="805.22,-526.31 794.76,-528.02 804,-533.21 805.22,-526.31"/>
</g>
<!-- Node30 -->
<g id="node30" class="node">
<title>Node30</title>
<g id="a_node30"><a xlink:href="Assign_8h.html" target="_top" xlink:title=" ">
<polygon fill="white" stroke="black" points="177,-503.5 177,-533.5 324,-533.5 324,-503.5 177,-503.5"/>
<text text-anchor="start" x="185" y="-521.5" font-family="Helvetica,sans-Serif" font-size="10.00">boomerang/ssl/statements</text>
<text text-anchor="middle" x="250.5" y="-510.5" font-family="Helvetica,sans-Serif" font-size="10.00">/Assign.h</text>
</a>
</g>
</g>
<!-- Node1&#45;&gt;Node30 -->
<g id="edge54" class="edge">
<title>Node1&#45;&gt;Node30</title>
<path fill="none" stroke="midnightblue" d="M1048.24,-576.48C925.21,-567.69 512.79,-538.24 334.16,-525.48"/>
<polygon fill="midnightblue" stroke="midnightblue" points="334.25,-521.97 324.03,-524.75 333.75,-528.96 334.25,-521.97"/>
</g>
<!-- Node33 -->
<g id="node33" class="node">
<title>Node33</title>
<g id="a_node33"><a xlink:href="IntegerType_8h.html" target="_top" xlink:title=" ">
<polygon fill="white" stroke="black" points="964,-436.5 964,-466.5 1077,-466.5 1077,-436.5 964,-436.5"/>
<text text-anchor="start" x="972" y="-454.5" font-family="Helvetica,sans-Serif" font-size="10.00">boomerang/ssl/type</text>
<text text-anchor="middle" x="1020.5" y="-443.5" font-family="Helvetica,sans-Serif" font-size="10.00">/IntegerType.h</text>
</a>
</g>
</g>
<!-- Node1&#45;&gt;Node33 -->
<g id="edge58" class="edge">
<title>Node1&#45;&gt;Node33</title>
<path fill="none" stroke="midnightblue" d="M1079.17,-570.31C1069.62,-551.13 1046.48,-504.66 1032.28,-476.15"/>
<polygon fill="midnightblue" stroke="midnightblue" points="1035.26,-474.28 1027.67,-466.89 1028.99,-477.4 1035.26,-474.28"/>
</g>
<!-- Node35 -->
<g id="node35" class="node">
<title>Node35</title>
<g id="a_node35"><a xlink:href="ByteUtil_8h.html" target="_top" xlink:title=" ">
<polygon fill="white" stroke="black" points="1307,-185 1307,-204 1450,-204 1450,-185 1307,-185"/>
<text text-anchor="middle" x="1378.5" y="-192" font-family="Helvetica,sans-Serif" font-size="10.00">boomerang/util/ByteUtil.h</text>
</a>
</g>
</g>
<!-- Node1&#45;&gt;Node35 -->
<g id="edge65" class="edge">
<title>Node1&#45;&gt;Node35</title>
<path fill="none" stroke="midnightblue" d="M1118.63,-575.96C1183.73,-568.19 1316.5,-541.45 1316.5,-452.5 1316.5,-452.5 1316.5,-452.5 1316.5,-327.5 1316.5,-282.37 1346.55,-236.1 1364.81,-212.15"/>
<polygon fill="midnightblue" stroke="midnightblue" points="1367.7,-214.13 1371.14,-204.11 1362.21,-209.8 1367.7,-214.13"/>
</g>
<!-- Node37 -->
<g id="node37" class="node">
<title>Node37</title>
<g id="a_node37"><a xlink:href="Log_8h.html" target="_top" xlink:title=" ">
<polygon fill="white" stroke="black" points="1089,-246.5 1089,-276.5 1198,-276.5 1198,-246.5 1089,-246.5"/>
<text text-anchor="start" x="1097" y="-264.5" font-family="Helvetica,sans-Serif" font-size="10.00">boomerang/util/log</text>
<text text-anchor="middle" x="1143.5" y="-253.5" font-family="Helvetica,sans-Serif" font-size="10.00">/Log.h</text>
</a>
</g>
</g>
<!-- Node1&#45;&gt;Node37 -->
<g id="edge70" class="edge">
<title>Node1&#45;&gt;Node37</title>
<path fill="none" stroke="midnightblue" d="M1090.86,-570.47C1106.88,-550.98 1143.5,-501.11 1143.5,-452.5 1143.5,-452.5 1143.5,-452.5 1143.5,-389 1143.5,-353.42 1143.5,-312.2 1143.5,-286.74"/>
<polygon fill="midnightblue" stroke="midnightblue" points="1147,-286.54 1143.5,-276.54 1140,-286.54 1147,-286.54"/>
</g>
<!-- Node38 -->
<g id="node38" class="node">
<title>Node38</title>
<g id="a_node38"><a xlink:title=" ">
<polygon fill="white" stroke="#bfbfbf" points="1345,-509 1345,-528 1388,-528 1388,-509 1345,-509"/>
<text text-anchor="middle" x="1366.5" y="-516" font-family="Helvetica,sans-Serif" font-size="10.00">stack</text>
</a>
</g>
</g>
<!-- Node1&#45;&gt;Node38 -->
<g id="edge75" class="edge">
<title>Node1&#45;&gt;Node38</title>
<path fill="none" stroke="midnightblue" d="M1118.79,-574.86C1167.19,-568.67 1256.6,-555.38 1330.5,-534 1332.94,-533.3 1335.43,-532.49 1337.92,-531.61"/>
<polygon fill="midnightblue" stroke="midnightblue" points="1339.21,-534.87 1347.32,-528.06 1336.73,-528.32 1339.21,-534.87"/>
</g>
<!-- Node39 -->
<g id="node39" class="node">
<title>Node39</title>
<g id="a_node39"><a xlink:title=" ">
<polygon fill="white" stroke="#bfbfbf" points="1406,-509 1406,-528 1471,-528 1471,-509 1406,-509"/>
<text text-anchor="middle" x="1438.5" y="-516" font-family="Helvetica,sans-Serif" font-size="10.00">stdexcept</text>
</a>
</g>
</g>
<!-- Node1&#45;&gt;Node39 -->
<g id="edge76" class="edge">
<title>Node1&#45;&gt;Node39</title>
<path fill="none" stroke="midnightblue" d="M1118.78,-576.23C1177.34,-571.13 1298.03,-558.46 1397.5,-534 1400.55,-533.25 1403.7,-532.36 1406.83,-531.39"/>
<polygon fill="midnightblue" stroke="midnightblue" points="1408.23,-534.62 1416.61,-528.14 1406.02,-527.97 1408.23,-534.62"/>
</g>
<!-- Node3 -->
<g id="node3" class="node">
<title>Node3</title>
<g id="a_node3"><a xlink:href="RTL_8h.html" target="_top" xlink:title=" ">
<polygon fill="white" stroke="black" points="346,-319 346,-338 465,-338 465,-319 346,-319"/>
<text text-anchor="middle" x="405.5" y="-326" font-family="Helvetica,sans-Serif" font-size="10.00">boomerang/ssl/RTL.h</text>
</a>
</g>
</g>
<!-- Node2&#45;&gt;Node3 -->
<g id="edge2" class="edge">
<title>Node2&#45;&gt;Node3</title>
<path fill="none" stroke="midnightblue" d="M480.89,-380.48C466.78,-370.93 443.67,-355.31 426.75,-343.87"/>
<polygon fill="midnightblue" stroke="midnightblue" points="428.33,-340.71 418.08,-338.01 424.41,-346.51 428.33,-340.71"/>
</g>
<!-- Node16 -->
<g id="node16" class="node">
<title>Node16</title>
<g id="a_node16"><a xlink:title=" ">
<polygon fill="white" stroke="#bfbfbf" points="161.5,-185 161.5,-204 199.5,-204 199.5,-185 161.5,-185"/>
<text text-anchor="middle" x="180.5" y="-192" font-family="Helvetica,sans-Serif" font-size="10.00">map</text>
</a>
</g>
</g>
<!-- Node2&#45;&gt;Node16 -->
<g id="edge30" class="edge">
<title>Node2&#45;&gt;Node16</title>
<path fill="none" stroke="midnightblue" d="M463.78,-384.79C408.59,-375.44 289.81,-347.88 222.5,-277 204.99,-258.56 192.98,-231.4 186.42,-213.58"/>
<polygon fill="midnightblue" stroke="midnightblue" points="189.71,-212.37 183.12,-204.08 183.1,-214.67 189.71,-212.37"/>
</g>
<!-- Node17 -->
<g id="node17" class="node">
<title>Node17</title>
<g id="a_node17"><a xlink:href="Register_8h.html" target="_top" xlink:title=" ">
<polygon fill="white" stroke="black" points="807,-185 807,-204 948,-204 948,-185 807,-185"/>
<text text-anchor="middle" x="877.5" y="-192" font-family="Helvetica,sans-Serif" font-size="10.00">boomerang/ssl/Register.h</text>
</a>
</g>
</g>
<!-- Node2&#45;&gt;Node17 -->
<g id="edge23" class="edge">
<title>Node2&#45;&gt;Node17</title>
<path fill="none" stroke="midnightblue" d="M491.51,-380.4C486.3,-355.55 475.18,-283.06 512.5,-246 557.95,-200.86 735.19,-219.79 798.5,-210 806.53,-208.76 815.01,-207.33 823.3,-205.86"/>
<polygon fill="midnightblue" stroke="midnightblue" points="824.06,-209.28 833.28,-204.07 822.82,-202.39 824.06,-209.28"/>
</g>
<!-- Node20 -->
<g id="node20" class="node">
<title>Node20</title>
<g id="a_node20"><a xlink:title=" ">
<polygon fill="white" stroke="#bfbfbf" points="521.5,-252 521.5,-271 553.5,-271 553.5,-252 521.5,-252"/>
<text text-anchor="middle" x="537.5" y="-259" font-family="Helvetica,sans-Serif" font-size="10.00">set</text>
</a>
</g>
</g>
<!-- Node2&#45;&gt;Node20 -->
<g id="edge31" class="edge">
<title>Node2&#45;&gt;Node20</title>
<path fill="none" stroke="midnightblue" d="M496.52,-380.31C503.62,-359.9 521.47,-308.6 531.1,-280.91"/>
<polygon fill="midnightblue" stroke="midnightblue" points="534.48,-281.85 534.45,-271.26 527.86,-279.55 534.48,-281.85"/>
</g>
<!-- Node4 -->
<g id="node4" class="node">
<title>Node4</title>
<g id="a_node4"><a xlink:href="Statement_8h.html" target="_top" xlink:title=" ">
<polygon fill="white" stroke="black" points="242,-246.5 242,-276.5 389,-276.5 389,-246.5 242,-246.5"/>
<text text-anchor="start" x="250" y="-264.5" font-family="Helvetica,sans-Serif" font-size="10.00">boomerang/ssl/statements</text>
<text text-anchor="middle" x="315.5" y="-253.5" font-family="Helvetica,sans-Serif" font-size="10.00">/Statement.h</text>
</a>
</g>
</g>
<!-- Node3&#45;&gt;Node4 -->
<g id="edge3" class="edge">
<title>Node3&#45;&gt;Node4</title>
<path fill="none" stroke="midnightblue" d="M393.36,-318.73C380.61,-309.53 360.13,-294.73 343.37,-282.63"/>
<polygon fill="midnightblue" stroke="midnightblue" points="345.16,-279.61 335.01,-276.59 341.07,-285.28 345.16,-279.61"/>
</g>
<!-- Node7 -->
<g id="node7" class="node">
<title>Node7</title>
<g id="a_node7"><a xlink:title=" ">
<polygon fill="white" stroke="#bfbfbf" points="485.5,-123.5 485.5,-142.5 543.5,-142.5 543.5,-123.5 485.5,-123.5"/>
<text text-anchor="middle" x="514.5" y="-130.5" font-family="Helvetica,sans-Serif" font-size="10.00">memory</text>
</a>
</g>
</g>
<!-- Node3&#45;&gt;Node7 -->
<g id="edge22" class="edge">
<title>Node3&#45;&gt;Node7</title>
<path fill="none" stroke="midnightblue" d="M358.4,-318.97C268.42,-300.75 86.66,-253.53 152.5,-179 173.65,-155.06 386.32,-140.9 475.48,-135.98"/>
<polygon fill="midnightblue" stroke="midnightblue" points="475.68,-139.47 485.48,-135.44 475.3,-132.48 475.68,-139.47"/>
</g>
<!-- Node8 -->
<g id="node8" class="node">
<title>Node8</title>
<g id="a_node8"><a xlink:href="Address_8h.html" target="_top" xlink:title=" ">
<polygon fill="white" stroke="black" points="1004.5,-185 1004.5,-204 1146.5,-204 1146.5,-185 1004.5,-185"/>
<text text-anchor="middle" x="1075.5" y="-192" font-family="Helvetica,sans-Serif" font-size="10.00">boomerang/util/Address.h</text>
</a>
</g>
</g>
<!-- Node3&#45;&gt;Node8 -->
<g id="edge20" class="edge">
<title>Node3&#45;&gt;Node8</title>
<path fill="none" stroke="midnightblue" d="M413.33,-318.87C429.74,-301.45 469.76,-262.37 512.5,-246 605.15,-210.51 858.8,-220.05 957.5,-210 971.21,-208.6 985.8,-206.95 999.88,-205.27"/>
<polygon fill="midnightblue" stroke="midnightblue" points="1000.51,-208.71 1010.02,-204.04 999.67,-201.76 1000.51,-208.71"/>
</g>
<!-- Node15 -->
<g id="node15" class="node">
<title>Node15</title>
<g id="a_node15"><a xlink:title=" ">
<polygon fill="white" stroke="#bfbfbf" points="473.5,-185 473.5,-204 505.5,-204 505.5,-185 473.5,-185"/>
<text text-anchor="middle" x="489.5" y="-192" font-family="Helvetica,sans-Serif" font-size="10.00">list</text>
</a>
</g>
</g>
<!-- Node3&#45;&gt;Node15 -->
<g id="edge21" class="edge">
<title>Node3&#45;&gt;Node15</title>
<path fill="none" stroke="midnightblue" d="M408.19,-318.92C413.26,-303.5 425.2,-270.45 441.5,-246 449.99,-233.26 461.82,-220.78 471.61,-211.41"/>
<polygon fill="midnightblue" stroke="midnightblue" points="474.28,-213.7 479.23,-204.33 469.52,-208.57 474.28,-213.7"/>
</g>
<!-- Node5 -->
<g id="node5" class="node">
<title>Node5</title>
<g id="a_node5"><a xlink:href="ExpHelp_8h.html" target="_top" xlink:title=" ">
<polygon fill="white" stroke="black" points="217.5,-185 217.5,-204 379.5,-204 379.5,-185 217.5,-185"/>
<text text-anchor="middle" x="298.5" y="-192" font-family="Helvetica,sans-Serif" font-size="10.00">boomerang/ssl/exp/ExpHelp.h</text>
</a>
</g>
</g>
<!-- Node4&#45;&gt;Node5 -->
<g id="edge4" class="edge">
<title>Node4&#45;&gt;Node5</title>
<path fill="none" stroke="midnightblue" d="M311.81,-246.4C309.34,-236.96 306.07,-224.45 303.39,-214.19"/>
<polygon fill="midnightblue" stroke="midnightblue" points="306.69,-212.98 300.77,-204.19 299.92,-214.75 306.69,-212.98"/>
</g>
<!-- Node4&#45;&gt;Node7 -->
<g id="edge19" class="edge">
<title>Node4&#45;&gt;Node7</title>
<path fill="none" stroke="midnightblue" d="M336.03,-246.46C350.7,-236.38 370.88,-222.45 388.5,-210 407.74,-196.41 411.55,-191.53 431.5,-179 449.95,-167.41 471.62,-155.73 488.18,-147.17"/>
<polygon fill="midnightblue" stroke="midnightblue" points="489.98,-150.18 497.29,-142.52 486.79,-143.95 489.98,-150.18"/>
</g>
<!-- Node4&#45;&gt;Node8 -->
<g id="edge7" class="edge">
<title>Node4&#45;&gt;Node8</title>
<path fill="none" stroke="midnightblue" d="M389.06,-251.47C406.26,-249.52 424.51,-247.57 441.5,-246 670.42,-224.85 728.67,-232.03 957.5,-210 971.69,-208.63 986.81,-206.95 1001.33,-205.22"/>
<polygon fill="midnightblue" stroke="midnightblue" points="1001.76,-208.69 1011.26,-204.02 1000.92,-201.74 1001.76,-208.69"/>
</g>
<!-- Node14 -->
<g id="node14" class="node">
<title>Node14</title>
<g id="a_node14"><a xlink:title=" ">
<polygon fill="white" stroke="#bfbfbf" points="599.5,-123.5 599.5,-142.5 651.5,-142.5 651.5,-123.5 599.5,-123.5"/>
<text text-anchor="middle" x="625.5" y="-130.5" font-family="Helvetica,sans-Serif" font-size="10.00">cassert</text>
</a>
</g>
</g>
<!-- Node4&#45;&gt;Node14 -->
<g id="edge16" class="edge">
<title>Node4&#45;&gt;Node14</title>
<path fill="none" stroke="midnightblue" d="M350.5,-246.36C372.12,-237.09 400.1,-224.1 423.5,-210 443.07,-198.21 444.03,-189.14 464.5,-179 505.04,-158.92 555.9,-146.61 589.48,-140.05"/>
<polygon fill="midnightblue" stroke="midnightblue" points="590.14,-143.49 599.32,-138.2 588.85,-136.61 590.14,-143.49"/>
</g>
<!-- Node4&#45;&gt;Node15 -->
<g id="edge17" class="edge">
<title>Node4&#45;&gt;Node15</title>
<path fill="none" stroke="midnightblue" d="M359.78,-246.41C388.52,-236.92 426.59,-223.67 459.5,-210 461.08,-209.34 462.69,-208.65 464.31,-207.92"/>
<polygon fill="midnightblue" stroke="midnightblue" points="465.87,-211.06 473.46,-203.67 462.92,-204.71 465.87,-211.06"/>
</g>
<!-- Node4&#45;&gt;Node16 -->
<g id="edge18" class="edge">
<title>Node4&#45;&gt;Node16</title>
<path fill="none" stroke="midnightblue" d="M284.92,-246.43C263.44,-236.46 234.09,-222.66 208.5,-210 207.66,-209.59 206.81,-209.16 205.96,-208.73"/>
<polygon fill="midnightblue" stroke="midnightblue" points="207.23,-205.46 196.73,-204.04 204.06,-211.69 207.23,-205.46"/>
</g>
<!-- Node6 -->
<g id="node6" class="node">
<title>Node6</title>
<g id="a_node6"><a xlink:href="BoomerangAPI_8h.html" target="_top" xlink:title=" ">
<polygon fill="white" stroke="black" points="644,-56.5 644,-86.5 799,-86.5 799,-56.5 644,-56.5"/>
<text text-anchor="start" x="652" y="-74.5" font-family="Helvetica,sans-Serif" font-size="10.00">boomerang/core/Boomerang</text>
<text text-anchor="middle" x="721.5" y="-63.5" font-family="Helvetica,sans-Serif" font-size="10.00">API.h</text>
</a>
</g>
</g>
<!-- Node5&#45;&gt;Node6 -->
<g id="edge5" class="edge">
<title>Node5&#45;&gt;Node6</title>
<path fill="none" stroke="midnightblue" d="M317.09,-184.89C349.06,-170.36 416.78,-140.83 476.5,-123 527.98,-107.63 586.91,-95.32 634.07,-86.71"/>
<polygon fill="midnightblue" stroke="midnightblue" points="634.73,-90.14 643.95,-84.92 633.49,-83.25 634.73,-90.14"/>
</g>
<!-- Node5&#45;&gt;Node7 -->
<g id="edge6" class="edge">
<title>Node5&#45;&gt;Node7</title>
<path fill="none" stroke="midnightblue" d="M329.45,-184.98C367.92,-174.38 433.61,-156.28 475.49,-144.74"/>
<polygon fill="midnightblue" stroke="midnightblue" points="476.63,-148.06 485.34,-142.03 474.77,-141.31 476.63,-148.06"/>
</g>
<!-- Node8&#45;&gt;Node6 -->
<g id="edge8" class="edge">
<title>Node8&#45;&gt;Node6</title>
<path fill="none" stroke="midnightblue" d="M1060.93,-184.96C1030.5,-167.17 962.02,-127.41 950.5,-123 905.26,-105.7 852.6,-93.57 809.2,-85.54"/>
<polygon fill="midnightblue" stroke="midnightblue" points="809.69,-82.08 799.23,-83.74 808.45,-88.96 809.69,-82.08"/>
</g>
<!-- Node9 -->
<g id="node9" class="node">
<title>Node9</title>
<g id="a_node9"><a xlink:href="OStream_8h.html" target="_top" xlink:title=" ">
<polygon fill="white" stroke="black" points="997.5,-123.5 997.5,-142.5 1143.5,-142.5 1143.5,-123.5 997.5,-123.5"/>
<text text-anchor="middle" x="1070.5" y="-130.5" font-family="Helvetica,sans-Serif" font-size="10.00">boomerang/util/OStream.h</text>
</a>
</g>
</g>
<!-- Node8&#45;&gt;Node9 -->
<g id="edge9" class="edge">
<title>Node8&#45;&gt;Node9</title>
<path fill="none" stroke="midnightblue" d="M1074.78,-184.98C1074.08,-176.58 1072.98,-163.48 1072.07,-152.66"/>
<polygon fill="midnightblue" stroke="midnightblue" points="1075.54,-152.18 1071.22,-142.51 1068.56,-152.77 1075.54,-152.18"/>
</g>
<!-- Node10 -->
<g id="node10" class="node">
<title>Node10</title>
<g id="a_node10"><a xlink:href="Types_8h.html" target="_top" xlink:title=" ">
<polygon fill="white" stroke="black" points="1172,-62 1172,-81 1303,-81 1303,-62 1172,-62"/>
<text text-anchor="middle" x="1237.5" y="-69" font-family="Helvetica,sans-Serif" font-size="10.00">boomerang/util/Types.h</text>
</a>
</g>
</g>
<!-- Node8&#45;&gt;Node10 -->
<g id="edge14" class="edge">
<title>Node8&#45;&gt;Node10</title>
<path fill="none" stroke="midnightblue" d="M1125.42,-184.92C1168.75,-176.33 1226.65,-161.73 1240.5,-143 1251.4,-128.26 1248.53,-106.66 1244.27,-91.25"/>
<polygon fill="midnightblue" stroke="midnightblue" points="1247.47,-89.78 1241.09,-81.32 1240.8,-91.91 1247.47,-89.78"/>
</g>
<!-- Node13 -->
<g id="node13" class="node">
<title>Node13</title>
<g id="a_node13"><a xlink:title=" ">
<polygon fill="white" stroke="#bfbfbf" points="888,-123.5 888,-142.5 941,-142.5 941,-123.5 888,-123.5"/>
<text text-anchor="middle" x="914.5" y="-130.5" font-family="Helvetica,sans-Serif" font-size="10.00">QString</text>
</a>
</g>
</g>
<!-- Node8&#45;&gt;Node13 -->
<g id="edge15" class="edge">
<title>Node8&#45;&gt;Node13</title>
<path fill="none" stroke="midnightblue" d="M1052.43,-184.98C1024.82,-174.77 978.38,-157.61 947.1,-146.05"/>
<polygon fill="midnightblue" stroke="midnightblue" points="948.12,-142.69 937.52,-142.51 945.69,-149.26 948.12,-142.69"/>
</g>
<!-- Node9&#45;&gt;Node6 -->
<g id="edge10" class="edge">
<title>Node9&#45;&gt;Node6</title>
<path fill="none" stroke="midnightblue" d="M1020.5,-123.48C965.46,-114.09 875.94,-98.83 809.18,-87.45"/>
<polygon fill="midnightblue" stroke="midnightblue" points="809.53,-83.96 799.09,-85.73 808.36,-90.86 809.53,-83.96"/>
</g>
<!-- Node9&#45;&gt;Node10 -->
<g id="edge11" class="edge">
<title>Node9&#45;&gt;Node10</title>
<path fill="none" stroke="midnightblue" d="M1094.43,-123.48C1123.2,-113.22 1171.66,-95.96 1204.1,-84.4"/>
<polygon fill="midnightblue" stroke="midnightblue" points="1205.37,-87.66 1213.62,-81.01 1203.02,-81.07 1205.37,-87.66"/>
</g>
<!-- Node12 -->
<g id="node12" class="node">
<title>Node12</title>
<g id="a_node12"><a xlink:title=" ">
<polygon fill="white" stroke="#bfbfbf" points="1047.5,-62 1047.5,-81 1093.5,-81 1093.5,-62 1047.5,-62"/>
<text text-anchor="middle" x="1070.5" y="-69" font-family="Helvetica,sans-Serif" font-size="10.00">cstdio</text>
</a>
</g>
</g>
<!-- Node9&#45;&gt;Node12 -->
<g id="edge13" class="edge">
<title>Node9&#45;&gt;Node12</title>
<path fill="none" stroke="midnightblue" d="M1070.5,-123.48C1070.5,-115.08 1070.5,-101.98 1070.5,-91.16"/>
<polygon fill="midnightblue" stroke="midnightblue" points="1074,-91.01 1070.5,-81.01 1067,-91.01 1074,-91.01"/>
</g>
<!-- Node11 -->
<g id="node11" class="node">
<title>Node11</title>
<g id="a_node11"><a xlink:title=" ">
<polygon fill="white" stroke="#bfbfbf" points="1212.5,-0.5 1212.5,-19.5 1262.5,-19.5 1262.5,-0.5 1212.5,-0.5"/>
<text text-anchor="middle" x="1237.5" y="-7.5" font-family="Helvetica,sans-Serif" font-size="10.00">cstdint</text>
</a>
</g>
</g>
<!-- Node10&#45;&gt;Node11 -->
<g id="edge12" class="edge">
<title>Node10&#45;&gt;Node11</title>
<path fill="none" stroke="midnightblue" d="M1237.5,-61.98C1237.5,-53.58 1237.5,-40.48 1237.5,-29.66"/>
<polygon fill="midnightblue" stroke="midnightblue" points="1241,-29.51 1237.5,-19.51 1234,-29.51 1241,-29.51"/>
</g>
<!-- Node17&#45;&gt;Node6 -->
<g id="edge24" class="edge">
<title>Node17&#45;&gt;Node6</title>
<path fill="none" stroke="midnightblue" d="M854.28,-184.92C833.12,-176.37 801.73,-161.83 778.5,-143 761.79,-129.46 746.68,-110.28 736.22,-95.35"/>
<polygon fill="midnightblue" stroke="midnightblue" points="738.85,-93 730.34,-86.69 733.06,-96.93 738.85,-93"/>
</g>
<!-- Node17&#45;&gt;Node7 -->
<g id="edge27" class="edge">
<title>Node17&#45;&gt;Node7</title>
<path fill="none" stroke="midnightblue" d="M832,-184.95C821.04,-182.95 809.36,-180.86 798.5,-179 711.13,-164.06 608.34,-148.2 553.54,-139.88"/>
<polygon fill="midnightblue" stroke="midnightblue" points="553.98,-136.4 543.57,-138.37 552.93,-143.33 553.98,-136.4"/>
</g>
<!-- Node17&#45;&gt;Node10 -->
<g id="edge25" class="edge">
<title>Node17&#45;&gt;Node10</title>
<path fill="none" stroke="midnightblue" d="M874.6,-184.85C870.27,-170.14 864.16,-140.16 879.5,-123 888.85,-112.54 1059.77,-92.06 1162.01,-80.66"/>
<polygon fill="midnightblue" stroke="midnightblue" points="1162.43,-84.13 1171.99,-79.55 1161.66,-77.17 1162.43,-84.13"/>
</g>
<!-- Node17&#45;&gt;Node13 -->
<g id="edge26" class="edge">
<title>Node17&#45;&gt;Node13</title>
<path fill="none" stroke="midnightblue" d="M882.8,-184.98C888.24,-176.23 896.86,-162.37 903.74,-151.31"/>
<polygon fill="midnightblue" stroke="midnightblue" points="906.9,-152.85 909.21,-142.51 900.96,-149.15 906.9,-152.85"/>
</g>
<!-- Node18 -->
<g id="node18" class="node">
<title>Node18</title>
<g id="a_node18"><a xlink:title=" ">
<polygon fill="white" stroke="#bfbfbf" points="787.5,-123.5 787.5,-142.5 831.5,-142.5 831.5,-123.5 787.5,-123.5"/>
<text text-anchor="middle" x="809.5" y="-130.5" font-family="Helvetica,sans-Serif" font-size="10.00">string</text>
</a>
</g>
</g>
<!-- Node17&#45;&gt;Node18 -->
<g id="edge28" class="edge">
<title>Node17&#45;&gt;Node18</title>
<path fill="none" stroke="midnightblue" d="M867.76,-184.98C857.15,-175.7 839.98,-160.67 827.02,-149.33"/>
<polygon fill="midnightblue" stroke="midnightblue" points="829.06,-146.46 819.22,-142.51 824.45,-151.73 829.06,-146.46"/>
</g>
<!-- Node19 -->
<g id="node19" class="node">
<title>Node19</title>
<g id="a_node19"><a xlink:title=" ">
<polygon fill="white" stroke="#bfbfbf" points="1162,-123.5 1162,-142.5 1231,-142.5 1231,-123.5 1162,-123.5"/>
<text text-anchor="middle" x="1196.5" y="-130.5" font-family="Helvetica,sans-Serif" font-size="10.00">type_traits</text>
</a>
</g>
</g>
<!-- Node17&#45;&gt;Node19 -->
<g id="edge29" class="edge">
<title>Node17&#45;&gt;Node19</title>
<path fill="none" stroke="midnightblue" d="M925.74,-184.94C978.66,-175.49 1066.35,-159.63 1152.03,-143.06"/>
<polygon fill="midnightblue" stroke="midnightblue" points="1152.78,-146.48 1161.93,-141.14 1151.44,-139.61 1152.78,-146.48"/>
</g>
<!-- Node21&#45;&gt;Node8 -->
<g id="edge45" class="edge">
<title>Node21&#45;&gt;Node8</title>
<path fill="none" stroke="midnightblue" d="M1034.4,-380.44C1040.88,-351.29 1062.17,-255.47 1071.29,-214.43"/>
<polygon fill="midnightblue" stroke="midnightblue" points="1074.77,-214.93 1073.52,-204.41 1067.93,-213.41 1074.77,-214.93"/>
</g>
<!-- Node22 -->
<g id="node22" class="node">
<title>Node22</title>
<g id="a_node22"><a xlink:href="Exp_8h.html" target="_top" xlink:title=" ">
<polygon fill="white" stroke="black" points="659.5,-319 659.5,-338 799.5,-338 799.5,-319 659.5,-319"/>
<text text-anchor="middle" x="729.5" y="-326" font-family="Helvetica,sans-Serif" font-size="10.00">boomerang/ssl/exp/Exp.h</text>
</a>
</g>
</g>
<!-- Node21&#45;&gt;Node22 -->
<g id="edge33" class="edge">
<title>Node21&#45;&gt;Node22</title>
<path fill="none" stroke="midnightblue" d="M989.09,-380.48C934.64,-369.78 841.32,-351.46 782.65,-339.94"/>
<polygon fill="midnightblue" stroke="midnightblue" points="783.32,-336.5 772.83,-338.01 781.97,-343.37 783.32,-336.5"/>
</g>
<!-- Node25 -->
<g id="node25" class="node">
<title>Node25</title>
<g id="a_node25"><a xlink:title=" ">
<polygon fill="white" stroke="#bfbfbf" points="981,-319 981,-338 1032,-338 1032,-319 981,-319"/>
<text text-anchor="middle" x="1006.5" y="-326" font-family="Helvetica,sans-Serif" font-size="10.00">variant</text>
</a>
</g>
</g>
<!-- Node21&#45;&gt;Node25 -->
<g id="edge46" class="edge">
<title>Node21&#45;&gt;Node25</title>
<path fill="none" stroke="midnightblue" d="M1028.77,-380.48C1025.03,-371.9 1019.14,-358.43 1014.36,-347.48"/>
<polygon fill="midnightblue" stroke="midnightblue" points="1017.43,-345.77 1010.22,-338.01 1011.02,-348.57 1017.43,-345.77"/>
</g>
<!-- Node22&#45;&gt;Node4 -->
<g id="edge37" class="edge">
<title>Node22&#45;&gt;Node4</title>
<path fill="none" stroke="midnightblue" d="M674.95,-318.94C604.55,-307.88 481.36,-288.54 399.11,-275.63"/>
<polygon fill="midnightblue" stroke="midnightblue" points="399.46,-272.14 389.04,-274.05 398.37,-279.05 399.46,-272.14"/>
</g>
<!-- Node22&#45;&gt;Node5 -->
<g id="edge34" class="edge">
<title>Node22&#45;&gt;Node5</title>
<path fill="none" stroke="midnightblue" d="M659.42,-322.85C525.82,-313.64 246.63,-292.64 232.5,-277 211.86,-254.16 247.27,-225.94 273.7,-209.41"/>
<polygon fill="midnightblue" stroke="midnightblue" points="275.8,-212.23 282.56,-204.08 272.19,-206.23 275.8,-212.23"/>
</g>
<!-- Node22&#45;&gt;Node7 -->
<g id="edge42" class="edge">
<title>Node22&#45;&gt;Node7</title>
<path fill="none" stroke="midnightblue" d="M709.45,-318.87C690.14,-310.01 660.67,-294.98 638.5,-277 590.81,-238.31 546.67,-179.91 526.31,-151.19"/>
<polygon fill="midnightblue" stroke="midnightblue" points="528.94,-148.85 520.35,-142.66 523.21,-152.86 528.94,-148.85"/>
</g>
<!-- Node22&#45;&gt;Node9 -->
<g id="edge38" class="edge">
<title>Node22&#45;&gt;Node9</title>
<path fill="none" stroke="midnightblue" d="M799.74,-322.27C933.33,-312.06 1212.32,-289.4 1229.5,-277 1266.43,-250.34 1287.73,-214.75 1259.5,-179 1245.99,-161.9 1197.96,-150.59 1153.7,-143.59"/>
<polygon fill="midnightblue" stroke="midnightblue" points="1154.16,-140.12 1143.74,-142.08 1153.1,-147.04 1154.16,-140.12"/>
</g>
<!-- Node22&#45;&gt;Node13 -->
<g id="edge39" class="edge">
<title>Node22&#45;&gt;Node13</title>
<path fill="none" stroke="midnightblue" d="M775.43,-318.94C830.1,-305.99 918.84,-275.6 957.5,-210 964.5,-198.13 962.63,-191.79 957.5,-179 952.82,-167.33 943.51,-156.97 934.74,-149.14"/>
<polygon fill="midnightblue" stroke="midnightblue" points="936.92,-146.4 927,-142.7 932.45,-151.78 936.92,-146.4"/>
</g>
<!-- Node22&#45;&gt;Node14 -->
<g id="edge40" class="edge">
<title>Node22&#45;&gt;Node14</title>
<path fill="none" stroke="midnightblue" d="M761.62,-318.9C782.39,-311.48 807.85,-298.49 820.5,-277 827.49,-265.13 829.05,-256.8 820.5,-246 777.13,-191.24 723.17,-252.19 667.5,-210 648.4,-195.52 636.82,-169.71 630.79,-152.23"/>
<polygon fill="midnightblue" stroke="midnightblue" points="634.1,-151.07 627.74,-142.6 627.42,-153.19 634.1,-151.07"/>
</g>
<!-- Node22&#45;&gt;Node15 -->
<g id="edge41" class="edge">
<title>Node22&#45;&gt;Node15</title>
<path fill="none" stroke="midnightblue" d="M703.51,-318.95C677.84,-310.05 637.83,-294.9 605.5,-277 584.89,-265.59 581.74,-259.59 562.5,-246 544.99,-233.63 524.95,-219.79 510.3,-209.73"/>
<polygon fill="midnightblue" stroke="midnightblue" points="512.18,-206.77 501.95,-204 508.22,-212.55 512.18,-206.77"/>
</g>
<!-- Node22&#45;&gt;Node20 -->
<g id="edge43" class="edge">
<title>Node22&#45;&gt;Node20</title>
<path fill="none" stroke="midnightblue" d="M697.35,-319C664.32,-309.91 611.61,-294.43 567.5,-277 566.09,-276.44 564.65,-275.85 563.21,-275.23"/>
<polygon fill="midnightblue" stroke="midnightblue" points="564.36,-271.9 553.81,-270.92 561.44,-278.27 564.36,-271.9"/>
</g>
<!-- Node23 -->
<g id="node23" class="node">
<title>Node23</title>
<g id="a_node23"><a xlink:href="Operator_8h.html" target="_top" xlink:title=" ">
<polygon fill="white" stroke="black" points="647.5,-252 647.5,-271 811.5,-271 811.5,-252 647.5,-252"/>
<text text-anchor="middle" x="729.5" y="-259" font-family="Helvetica,sans-Serif" font-size="10.00">boomerang/ssl/exp/Operator.h</text>
</a>
</g>
</g>
<!-- Node22&#45;&gt;Node23 -->
<g id="edge35" class="edge">
<title>Node22&#45;&gt;Node23</title>
<path fill="none" stroke="midnightblue" d="M729.5,-318.73C729.5,-309.18 729.5,-293.62 729.5,-281.28"/>
<polygon fill="midnightblue" stroke="midnightblue" points="733,-281.13 729.5,-271.13 726,-281.13 733,-281.13"/>
</g>
<!-- Node24 -->
<g id="node24" class="node">
<title>Node24</title>
<g id="a_node24"><a xlink:title=" ">
<polygon fill="white" stroke="#bfbfbf" points="1203,-185 1203,-204 1250,-204 1250,-185 1203,-185"/>
<text text-anchor="middle" x="1226.5" y="-192" font-family="Helvetica,sans-Serif" font-size="10.00">vector</text>
</a>
</g>
</g>
<!-- Node22&#45;&gt;Node24 -->
<g id="edge44" class="edge">
<title>Node22&#45;&gt;Node24</title>
<path fill="none" stroke="midnightblue" d="M799.61,-322.23C928.73,-312.23 1192.42,-290.32 1207.5,-277 1225.08,-261.47 1228.04,-233.13 1227.83,-214.3"/>
<polygon fill="midnightblue" stroke="midnightblue" points="1231.33,-214.09 1227.41,-204.24 1224.33,-214.38 1231.33,-214.09"/>
</g>
<!-- Node23&#45;&gt;Node6 -->
<g id="edge36" class="edge">
<title>Node23&#45;&gt;Node6</title>
<path fill="none" stroke="midnightblue" d="M666.88,-251.98C640.66,-245.08 612.41,-232.59 595.5,-210 577.61,-186.09 591.61,-172.84 590.5,-143 590.17,-134.12 585.47,-130.33 590.5,-123 601.03,-107.65 616.93,-96.97 634.07,-89.53"/>
<polygon fill="midnightblue" stroke="midnightblue" points="635.68,-92.66 643.69,-85.72 633.1,-86.15 635.68,-92.66"/>
</g>
<!-- Node26&#45;&gt;Node17 -->
<g id="edge48" class="edge">
<title>Node26&#45;&gt;Node17</title>
<path fill="none" stroke="midnightblue" d="M864.95,-441.72C866.8,-405.32 873.92,-265.77 876.53,-214.52"/>
<polygon fill="midnightblue" stroke="midnightblue" points="880.04,-214.41 877.05,-204.24 873.05,-214.05 880.04,-214.41"/>
</g>
<!-- Node27 -->
<g id="node27" class="node">
<title>Node27</title>
<g id="a_node27"><a xlink:href="Unary_8h.html" target="_top" xlink:title=" ">
<polygon fill="white" stroke="black" points="655,-380.5 655,-399.5 804,-399.5 804,-380.5 655,-380.5"/>
<text text-anchor="middle" x="729.5" y="-387.5" font-family="Helvetica,sans-Serif" font-size="10.00">boomerang/ssl/exp/Unary.h</text>
</a>
</g>
</g>
<!-- Node26&#45;&gt;Node27 -->
<g id="edge49" class="edge">
<title>Node26&#45;&gt;Node27</title>
<path fill="none" stroke="midnightblue" d="M845.16,-441.98C822.4,-431.95 784.41,-415.2 758.21,-403.65"/>
<polygon fill="midnightblue" stroke="midnightblue" points="759.37,-400.34 748.81,-399.51 756.55,-406.74 759.37,-400.34"/>
</g>
<!-- Node27&#45;&gt;Node22 -->
<g id="edge50" class="edge">
<title>Node27&#45;&gt;Node22</title>
<path fill="none" stroke="midnightblue" d="M729.5,-380.48C729.5,-372.08 729.5,-358.98 729.5,-348.16"/>
<polygon fill="midnightblue" stroke="midnightblue" points="733,-348.01 729.5,-338.01 726,-348.01 733,-348.01"/>
</g>
<!-- Node29 -->
<g id="node29" class="node">
<title>Node29</title>
<g id="a_node29"><a xlink:href="Binary_8h.html" target="_top" xlink:title=" ">
<polygon fill="white" stroke="black" points="612.5,-442 612.5,-461 764.5,-461 764.5,-442 612.5,-442"/>
<text text-anchor="middle" x="688.5" y="-449" font-family="Helvetica,sans-Serif" font-size="10.00">boomerang/ssl/exp/Binary.h</text>
</a>
</g>
</g>
<!-- Node28&#45;&gt;Node29 -->
<g id="edge52" class="edge">
<title>Node28&#45;&gt;Node29</title>
<path fill="none" stroke="midnightblue" d="M738.68,-508.73C729.55,-498.5 714.26,-481.36 702.95,-468.69"/>
<polygon fill="midnightblue" stroke="midnightblue" points="705.47,-466.26 696.2,-461.13 700.24,-470.92 705.47,-466.26"/>
</g>
<!-- Node29&#45;&gt;Node27 -->
<g id="edge53" class="edge">
<title>Node29&#45;&gt;Node27</title>
<path fill="none" stroke="midnightblue" d="M694.37,-441.98C700.46,-433.14 710.14,-419.09 717.8,-407.98"/>
<polygon fill="midnightblue" stroke="midnightblue" points="720.84,-409.73 723.64,-399.51 715.08,-405.76 720.84,-409.73"/>
</g>
<!-- Node31 -->
<g id="node31" class="node">
<title>Node31</title>
<g id="a_node31"><a xlink:href="Assignment_8h.html" target="_top" xlink:title=" ">
<polygon fill="white" stroke="black" points="74,-436.5 74,-466.5 221,-466.5 221,-436.5 74,-436.5"/>
<text text-anchor="start" x="82" y="-454.5" font-family="Helvetica,sans-Serif" font-size="10.00">boomerang/ssl/statements</text>
<text text-anchor="middle" x="147.5" y="-443.5" font-family="Helvetica,sans-Serif" font-size="10.00">/Assignment.h</text>
</a>
</g>
</g>
<!-- Node30&#45;&gt;Node31 -->
<g id="edge55" class="edge">
<title>Node30&#45;&gt;Node31</title>
<path fill="none" stroke="midnightblue" d="M228.15,-503.4C213.57,-494.2 194.35,-482.07 178.33,-471.95"/>
<polygon fill="midnightblue" stroke="midnightblue" points="180.13,-468.95 169.81,-466.58 176.39,-474.87 180.13,-468.95"/>
</g>
<!-- Node32 -->
<g id="node32" class="node">
<title>Node32</title>
<g id="a_node32"><a xlink:href="TypingStatement_8h.html" target="_top" xlink:title=" ">
<polygon fill="white" stroke="black" points="0,-313.5 0,-343.5 147,-343.5 147,-313.5 0,-313.5"/>
<text text-anchor="start" x="8" y="-331.5" font-family="Helvetica,sans-Serif" font-size="10.00">boomerang/ssl/statements</text>
<text text-anchor="middle" x="73.5" y="-320.5" font-family="Helvetica,sans-Serif" font-size="10.00">/TypingStatement.h</text>
</a>
</g>
</g>
<!-- Node31&#45;&gt;Node32 -->
<g id="edge56" class="edge">
<title>Node31&#45;&gt;Node32</title>
<path fill="none" stroke="midnightblue" d="M138.72,-436.14C126.09,-415.5 102.66,-377.19 87.59,-352.55"/>
<polygon fill="midnightblue" stroke="midnightblue" points="90.47,-350.54 82.27,-343.84 84.5,-354.19 90.47,-350.54"/>
</g>
<!-- Node32&#45;&gt;Node4 -->
<g id="edge57" class="edge">
<title>Node32&#45;&gt;Node4</title>
<path fill="none" stroke="midnightblue" d="M125.71,-313.48C163.12,-303.43 213.65,-289.86 253.17,-279.24"/>
<polygon fill="midnightblue" stroke="midnightblue" points="254.21,-282.59 262.96,-276.61 252.4,-275.82 254.21,-282.59"/>
</g>
<!-- Node34 -->
<g id="node34" class="node">
<title>Node34</title>
<g id="a_node34"><a xlink:href="Type_8h.html" target="_top" xlink:title=" ">
<polygon fill="white" stroke="black" points="676,-179.5 676,-209.5 789,-209.5 789,-179.5 676,-179.5"/>
<text text-anchor="start" x="684" y="-197.5" font-family="Helvetica,sans-Serif" font-size="10.00">boomerang/ssl/type</text>
<text text-anchor="middle" x="732.5" y="-186.5" font-family="Helvetica,sans-Serif" font-size="10.00">/Type.h</text>
</a>
</g>
</g>
<!-- Node33&#45;&gt;Node34 -->
<g id="edge59" class="edge">
<title>Node33&#45;&gt;Node34</title>
<path fill="none" stroke="midnightblue" d="M996.67,-436.3C982.15,-427 963.72,-414.01 949.5,-400 889.03,-340.42 901.71,-300.36 836.5,-246 820.42,-232.59 800.17,-221.73 781.83,-213.56"/>
<polygon fill="midnightblue" stroke="midnightblue" points="783.01,-210.26 772.44,-209.53 780.25,-216.69 783.01,-210.26"/>
</g>
<!-- Node34&#45;&gt;Node6 -->
<g id="edge60" class="edge">
<title>Node34&#45;&gt;Node6</title>
<path fill="none" stroke="midnightblue" d="M723.17,-179.15C717.4,-169.4 710.53,-155.95 707.5,-143 703.88,-127.51 707.33,-109.96 711.72,-96.25"/>
<polygon fill="midnightblue" stroke="midnightblue" points="715.1,-97.2 715.15,-86.61 708.5,-94.85 715.1,-97.2"/>
</g>
<!-- Node34&#45;&gt;Node7 -->
<g id="edge64" class="edge">
<title>Node34&#45;&gt;Node7</title>
<path fill="none" stroke="midnightblue" d="M681.11,-179.47C642.16,-168.84 589.43,-154.45 553.81,-144.73"/>
<polygon fill="midnightblue" stroke="midnightblue" points="554.35,-141.25 543.79,-141.99 552.51,-148 554.35,-141.25"/>
</g>
<!-- Node34&#45;&gt;Node10 -->
<g id="edge61" class="edge">
<title>Node34&#45;&gt;Node10</title>
<path fill="none" stroke="midnightblue" d="M737.42,-179.38C743.99,-162.83 757.33,-136.01 778.5,-123 780.52,-121.76 1031.36,-94.65 1161.32,-80.68"/>
<polygon fill="midnightblue" stroke="midnightblue" points="1162.04,-84.12 1171.6,-79.57 1161.29,-77.16 1162.04,-84.12"/>
</g>
<!-- Node34&#45;&gt;Node13 -->
<g id="edge62" class="edge">
<title>Node34&#45;&gt;Node13</title>
<path fill="none" stroke="midnightblue" d="M775.63,-179.4C807.08,-169.12 849.19,-155.35 878.77,-145.68"/>
<polygon fill="midnightblue" stroke="midnightblue" points="879.87,-149.01 888.28,-142.57 877.69,-142.35 879.87,-149.01"/>
</g>
<!-- Node34&#45;&gt;Node14 -->
<g id="edge63" class="edge">
<title>Node34&#45;&gt;Node14</title>
<path fill="none" stroke="midnightblue" d="M707.14,-179.4C689.83,-169.77 667.02,-157.09 649.92,-147.58"/>
<polygon fill="midnightblue" stroke="midnightblue" points="651.51,-144.46 641.07,-142.66 648.11,-150.58 651.51,-144.46"/>
</g>
<!-- Node35&#45;&gt;Node6 -->
<g id="edge66" class="edge">
<title>Node35&#45;&gt;Node6</title>
<path fill="none" stroke="midnightblue" d="M1365.87,-184.96C1342.36,-169.57 1289.82,-137.43 1240.5,-123 1161.93,-100.01 935.35,-84.3 809.1,-77.06"/>
<polygon fill="midnightblue" stroke="midnightblue" points="809.25,-73.56 799.07,-76.49 808.85,-80.55 809.25,-73.56"/>
</g>
<!-- Node35&#45;&gt;Node10 -->
<g id="edge67" class="edge">
<title>Node35&#45;&gt;Node10</title>
<path fill="none" stroke="midnightblue" d="M1377.02,-184.54C1374.17,-169.89 1366.61,-140.69 1349.5,-123 1331.48,-104.37 1305.33,-92.05 1282.83,-84.24"/>
<polygon fill="midnightblue" stroke="midnightblue" points="1283.71,-80.85 1273.12,-81.07 1281.54,-87.5 1283.71,-80.85"/>
</g>
<!-- Node35&#45;&gt;Node19 -->
<g id="edge69" class="edge">
<title>Node35&#45;&gt;Node19</title>
<path fill="none" stroke="midnightblue" d="M1352.42,-184.98C1320.93,-174.68 1267.8,-157.31 1232.44,-145.75"/>
<polygon fill="midnightblue" stroke="midnightblue" points="1233.12,-142.29 1222.53,-142.51 1230.95,-148.94 1233.12,-142.29"/>
</g>
<!-- Node36 -->
<g id="node36" class="node">
<title>Node36</title>
<g id="a_node36"><a xlink:title=" ">
<polygon fill="white" stroke="#bfbfbf" points="1402,-123.5 1402,-142.5 1485,-142.5 1485,-123.5 1402,-123.5"/>
<text text-anchor="middle" x="1443.5" y="-130.5" font-family="Helvetica,sans-Serif" font-size="10.00">initializer_list</text>
</a>
</g>
</g>
<!-- Node35&#45;&gt;Node36 -->
<g id="edge68" class="edge">
<title>Node35&#45;&gt;Node36</title>
<path fill="none" stroke="midnightblue" d="M1387.81,-184.98C1397.95,-175.7 1414.36,-160.67 1426.75,-149.33"/>
<polygon fill="midnightblue" stroke="midnightblue" points="1429.19,-151.84 1434.2,-142.51 1424.46,-146.68 1429.19,-151.84"/>
</g>
<!-- Node37&#45;&gt;Node7 -->
<g id="edge73" class="edge">
<title>Node37&#45;&gt;Node7</title>
<path fill="none" stroke="midnightblue" d="M1088.76,-260.93C998.95,-260.25 815.51,-253.1 667.5,-210 618.12,-195.62 565.44,-165.85 536.59,-148.14"/>
<polygon fill="midnightblue" stroke="midnightblue" points="538.09,-144.95 527.75,-142.64 534.39,-150.89 538.09,-144.95"/>
</g>
<!-- Node37&#45;&gt;Node8 -->
<g id="edge71" class="edge">
<title>Node37&#45;&gt;Node8</title>
<path fill="none" stroke="midnightblue" d="M1128.75,-246.4C1117.93,-236.06 1103.25,-222.02 1092.04,-211.31"/>
<polygon fill="midnightblue" stroke="midnightblue" points="1094.24,-208.57 1084.6,-204.19 1089.41,-213.63 1094.24,-208.57"/>
</g>
<!-- Node37&#45;&gt;Node10 -->
<g id="edge72" class="edge">
<title>Node37&#45;&gt;Node10</title>
<path fill="none" stroke="midnightblue" d="M1149.68,-246.36C1157.89,-228.84 1173.8,-198.89 1194.5,-179 1217.76,-156.66 1241.31,-170.89 1257.5,-143 1267.14,-126.39 1258.46,-104.86 1249.71,-89.98"/>
<polygon fill="midnightblue" stroke="midnightblue" points="1252.48,-87.82 1244.14,-81.29 1246.59,-91.6 1252.48,-87.82"/>
</g>
<!-- Node37&#45;&gt;Node24 -->
<g id="edge74" class="edge">
<title>Node37&#45;&gt;Node24</title>
<path fill="none" stroke="midnightblue" d="M1161.51,-246.4C1175.09,-235.76 1193.68,-221.2 1207.5,-210.38"/>
<polygon fill="midnightblue" stroke="midnightblue" points="1209.68,-213.12 1215.4,-204.19 1205.37,-207.6 1209.68,-213.12"/>
</g>
</g>
</svg>
