<?xml version="1.0" encoding="UTF-8" standalone="no"?>
<!DOCTYPE svg PUBLIC "-//W3C//DTD SVG 1.1//EN"
 "http://www.w3.org/Graphics/SVG/1.1/DTD/svg11.dtd">
<!-- Generated by graphviz version 2.43.0 (0)
 -->
<!-- Title: __attribute__ Pages: 1 -->
<svg width="198pt" height="104pt"
 viewBox="0.00 0.00 198.00 104.00" xmlns="http://www.w3.org/2000/svg" xmlns:xlink="http://www.w3.org/1999/xlink">
<g id="graph0" class="graph" transform="scale(1 1) rotate(0) translate(4 100)">
<title>__attribute__</title>
<polygon fill="white" stroke="transparent" points="-4,4 -4,-100 194,-100 194,4 -4,4"/>
<!-- Node1 -->
<g id="node1" class="node">
<title>Node1</title>
<g id="a_node1"><a xlink:title="A return value of a function.">
<polygon fill="#bfbfbf" stroke="black" points="0,-38.5 0,-57.5 80,-57.5 80,-38.5 0,-38.5"/>
<text text-anchor="middle" x="40" y="-45.5" font-family="Helvetica,sans-Serif" font-size="10.00">__attribute__</text>
</a>
</g>
</g>
<!-- Node2 -->
<g id="node2" class="node">
<title>Node2</title>
<g id="a_node2"><a xlink:href="namespaceUtil.html#a44742ffafe9085ba6fd968429c7e4021" target="_top" xlink:title=" ">
<polygon fill="white" stroke="black" points="120,-76.5 120,-95.5 186,-95.5 186,-76.5 120,-76.5"/>
<text text-anchor="middle" x="153" y="-83.5" font-family="Helvetica,sans-Serif" font-size="10.00">Util::clone</text>
</a>
</g>
</g>
<!-- Node1&#45;&gt;Node2 -->
<g id="edge1" class="edge">
<title>Node1&#45;&gt;Node2</title>
<path fill="none" stroke="midnightblue" d="M69.01,-57.59C82.68,-62.27 99.33,-67.97 114.12,-73.03"/>
<polygon fill="midnightblue" stroke="midnightblue" points="113.4,-76.49 124,-76.41 115.67,-69.86 113.4,-76.49"/>
</g>
<!-- Node3 -->
<g id="node3" class="node">
<title>Node3</title>
<g id="a_node3"><a xlink:href="Register_8h.html#ad970226c2ca8479dffc849b50fe7493a" target="_top" xlink:title=" ">
<polygon fill="white" stroke="black" points="118,-38.5 118,-57.5 188,-57.5 188,-38.5 118,-38.5"/>
<text text-anchor="middle" x="153" y="-45.5" font-family="Helvetica,sans-Serif" font-size="10.00">operator!=</text>
</a>
</g>
</g>
<!-- Node1&#45;&gt;Node3 -->
<g id="edge2" class="edge">
<title>Node1&#45;&gt;Node3</title>
<path fill="none" stroke="midnightblue" d="M80.13,-48C89.02,-48 98.53,-48 107.62,-48"/>
<polygon fill="midnightblue" stroke="midnightblue" points="107.65,-51.5 117.65,-48 107.65,-44.5 107.65,-51.5"/>
</g>
<!-- Node4 -->
<g id="node4" class="node">
<title>Node4</title>
<g id="a_node4"><a xlink:href="Register_8h.html#ae8cdbd4339e7d43f824913657a70a97e" target="_top" xlink:title=" ">
<polygon fill="white" stroke="black" points="116,-0.5 116,-19.5 190,-19.5 190,-0.5 116,-0.5"/>
<text text-anchor="middle" x="153" y="-7.5" font-family="Helvetica,sans-Serif" font-size="10.00">operator==</text>
</a>
</g>
</g>
<!-- Node1&#45;&gt;Node4 -->
<g id="edge3" class="edge">
<title>Node1&#45;&gt;Node4</title>
<path fill="none" stroke="midnightblue" d="M69.01,-38.41C82.68,-33.73 99.33,-28.03 114.12,-22.97"/>
<polygon fill="midnightblue" stroke="midnightblue" points="115.67,-26.14 124,-19.59 113.4,-19.51 115.67,-26.14"/>
</g>
</g>
</svg>
