<?xml version="1.0" encoding="UTF-8" standalone="no"?>
<!DOCTYPE svg PUBLIC "-//W3C//DTD SVG 1.1//EN"
 "http://www.w3.org/Graphics/SVG/1.1/DTD/svg11.dtd">
<!-- Generated by graphviz version 2.43.0 (0)
 -->
<!-- Title: ReturnStatement.h Pages: 1 -->
<svg width="794pt" height="665pt"
 viewBox="0.00 0.00 794.00 665.00" xmlns="http://www.w3.org/2000/svg" xmlns:xlink="http://www.w3.org/1999/xlink">
<g id="graph0" class="graph" transform="scale(1 1) rotate(0) translate(4 661)">
<title>ReturnStatement.h</title>
<polygon fill="white" stroke="transparent" points="-4,4 -4,-661 790,-661 790,4 -4,4"/>
<!-- Node1 -->
<g id="node1" class="node">
<title>Node1</title>
<g id="a_node1"><a xlink:title=" ">
<polygon fill="#bfbfbf" stroke="black" points="150.5,-637.5 150.5,-656.5 259.5,-656.5 259.5,-637.5 150.5,-637.5"/>
<text text-anchor="middle" x="205" y="-644.5" font-family="Helvetica,sans-Serif" font-size="10.00">ReturnStatement.h</text>
</a>
</g>
</g>
<!-- Node2 -->
<g id="node2" class="node">
<title>Node2</title>
<g id="a_node2"><a xlink:href="DefCollector_8h.html" target="_top" xlink:title=" ">
<polygon fill="white" stroke="black" points="373,-576 373,-595 533,-595 533,-576 373,-576"/>
<text text-anchor="middle" x="453" y="-583" font-family="Helvetica,sans-Serif" font-size="10.00">boomerang/db/DefCollector.h</text>
</a>
</g>
</g>
<!-- Node1&#45;&gt;Node2 -->
<g id="edge1" class="edge">
<title>Node1&#45;&gt;Node2</title>
<path fill="none" stroke="midnightblue" d="M240.53,-637.48C284.55,-626.92 359.59,-608.91 407.7,-597.37"/>
<polygon fill="midnightblue" stroke="midnightblue" points="408.63,-600.75 417.53,-595.01 406.99,-593.94 408.63,-600.75"/>
</g>
<!-- Node10 -->
<g id="node10" class="node">
<title>Node10</title>
<g id="a_node10"><a xlink:href="Statement_8h.html" target="_top" xlink:title=" ">
<polygon fill="white" stroke="black" points="158.5,-235.5 158.5,-265.5 305.5,-265.5 305.5,-235.5 158.5,-235.5"/>
<text text-anchor="start" x="166.5" y="-253.5" font-family="Helvetica,sans-Serif" font-size="10.00">boomerang/ssl/statements</text>
<text text-anchor="middle" x="232" y="-242.5" font-family="Helvetica,sans-Serif" font-size="10.00">/Statement.h</text>
</a>
</g>
</g>
<!-- Node1&#45;&gt;Node10 -->
<g id="edge41" class="edge">
<title>Node1&#45;&gt;Node10</title>
<path fill="none" stroke="midnightblue" d="M177.65,-637.43C133.64,-621.74 52,-583.95 52,-519.5 52,-519.5 52,-519.5 52,-383.5 52,-323.49 117.87,-287.78 169.91,-268.93"/>
<polygon fill="midnightblue" stroke="midnightblue" points="171.16,-272.2 179.45,-265.6 168.86,-265.59 171.16,-272.2"/>
</g>
<!-- Node27 -->
<g id="node27" class="node">
<title>Node27</title>
<g id="a_node27"><a xlink:href="StatementList_8h.html" target="_top" xlink:title=" ">
<polygon fill="white" stroke="black" points="132.5,-570.5 132.5,-600.5 277.5,-600.5 277.5,-570.5 132.5,-570.5"/>
<text text-anchor="start" x="140.5" y="-588.5" font-family="Helvetica,sans-Serif" font-size="10.00">boomerang/util/Statement</text>
<text text-anchor="middle" x="205" y="-577.5" font-family="Helvetica,sans-Serif" font-size="10.00">List.h</text>
</a>
</g>
</g>
<!-- Node1&#45;&gt;Node27 -->
<g id="edge42" class="edge">
<title>Node1&#45;&gt;Node27</title>
<path fill="none" stroke="midnightblue" d="M205,-637.48C205,-630.47 205,-620.19 205,-610.7"/>
<polygon fill="midnightblue" stroke="midnightblue" points="208.5,-610.52 205,-600.52 201.5,-610.52 208.5,-610.52"/>
</g>
<!-- Node3 -->
<g id="node3" class="node">
<title>Node3</title>
<g id="a_node3"><a xlink:href="ExpHelp_8h.html" target="_top" xlink:title=" ">
<polygon fill="white" stroke="black" points="410,-179.5 410,-198.5 572,-198.5 572,-179.5 410,-179.5"/>
<text text-anchor="middle" x="491" y="-186.5" font-family="Helvetica,sans-Serif" font-size="10.00">boomerang/ssl/exp/ExpHelp.h</text>
</a>
</g>
</g>
<!-- Node2&#45;&gt;Node3 -->
<g id="edge2" class="edge">
<title>Node2&#45;&gt;Node3</title>
<path fill="none" stroke="midnightblue" d="M471.74,-575.88C507.07,-558.19 580,-514.19 580,-452.5 580,-452.5 580,-452.5 580,-316.5 580,-268.77 537.09,-226.33 510.86,-204.85"/>
<polygon fill="midnightblue" stroke="midnightblue" points="513.02,-202.09 503,-198.63 508.67,-207.58 513.02,-202.09"/>
</g>
<!-- Node6 -->
<g id="node6" class="node">
<title>Node6</title>
<g id="a_node6"><a xlink:href="StatementSet_8h.html" target="_top" xlink:title=" ">
<polygon fill="white" stroke="black" points="226.5,-503.5 226.5,-533.5 371.5,-533.5 371.5,-503.5 226.5,-503.5"/>
<text text-anchor="start" x="234.5" y="-521.5" font-family="Helvetica,sans-Serif" font-size="10.00">boomerang/util/Statement</text>
<text text-anchor="middle" x="299" y="-510.5" font-family="Helvetica,sans-Serif" font-size="10.00">Set.h</text>
</a>
</g>
</g>
<!-- Node2&#45;&gt;Node6 -->
<g id="edge5" class="edge">
<title>Node2&#45;&gt;Node6</title>
<path fill="none" stroke="midnightblue" d="M432.55,-575.87C409.44,-566.12 371.19,-549.97 341.53,-537.45"/>
<polygon fill="midnightblue" stroke="midnightblue" points="342.81,-534.19 332.24,-533.53 340.09,-540.64 342.81,-534.19"/>
</g>
<!-- Node19 -->
<g id="node19" class="node">
<title>Node19</title>
<g id="a_node19"><a xlink:title=" ">
<polygon fill="white" stroke="#bfbfbf" points="590,-179.5 590,-198.5 628,-198.5 628,-179.5 590,-179.5"/>
<text text-anchor="middle" x="609" y="-186.5" font-family="Helvetica,sans-Serif" font-size="10.00">map</text>
</a>
</g>
</g>
<!-- Node2&#45;&gt;Node19 -->
<g id="edge39" class="edge">
<title>Node2&#45;&gt;Node19</title>
<path fill="none" stroke="midnightblue" d="M498.3,-575.99C558.13,-561.82 656,-527.22 656,-452.5 656,-452.5 656,-452.5 656,-316.5 656,-275.32 633.84,-231.05 619.95,-207.35"/>
<polygon fill="midnightblue" stroke="midnightblue" points="622.94,-205.52 614.76,-198.78 616.95,-209.15 622.94,-205.52"/>
</g>
<!-- Node26 -->
<g id="node26" class="node">
<title>Node26</title>
<g id="a_node26"><a xlink:title=" ">
<polygon fill="white" stroke="#bfbfbf" points="431.5,-509 431.5,-528 474.5,-528 474.5,-509 431.5,-509"/>
<text text-anchor="middle" x="453" y="-516" font-family="Helvetica,sans-Serif" font-size="10.00">stack</text>
</a>
</g>
</g>
<!-- Node2&#45;&gt;Node26 -->
<g id="edge40" class="edge">
<title>Node2&#45;&gt;Node26</title>
<path fill="none" stroke="midnightblue" d="M453,-575.73C453,-566.18 453,-550.62 453,-538.28"/>
<polygon fill="midnightblue" stroke="midnightblue" points="456.5,-538.13 453,-528.13 449.5,-538.13 456.5,-538.13"/>
</g>
<!-- Node4 -->
<g id="node4" class="node">
<title>Node4</title>
<g id="a_node4"><a xlink:href="BoomerangAPI_8h.html" target="_top" xlink:title=" ">
<polygon fill="white" stroke="black" points="310.5,-56.5 310.5,-86.5 465.5,-86.5 465.5,-56.5 310.5,-56.5"/>
<text text-anchor="start" x="318.5" y="-74.5" font-family="Helvetica,sans-Serif" font-size="10.00">boomerang/core/Boomerang</text>
<text text-anchor="middle" x="388" y="-63.5" font-family="Helvetica,sans-Serif" font-size="10.00">API.h</text>
</a>
</g>
</g>
<!-- Node3&#45;&gt;Node4 -->
<g id="edge3" class="edge">
<title>Node3&#45;&gt;Node4</title>
<path fill="none" stroke="midnightblue" d="M483.26,-179.32C467.3,-161.42 430.33,-119.97 407.42,-94.28"/>
<polygon fill="midnightblue" stroke="midnightblue" points="409.79,-91.68 400.53,-86.55 404.57,-96.34 409.79,-91.68"/>
</g>
<!-- Node5 -->
<g id="node5" class="node">
<title>Node5</title>
<g id="a_node5"><a xlink:title=" ">
<polygon fill="white" stroke="#bfbfbf" points="490,-123.5 490,-142.5 548,-142.5 548,-123.5 490,-123.5"/>
<text text-anchor="middle" x="519" y="-130.5" font-family="Helvetica,sans-Serif" font-size="10.00">memory</text>
</a>
</g>
</g>
<!-- Node3&#45;&gt;Node5 -->
<g id="edge4" class="edge">
<title>Node3&#45;&gt;Node5</title>
<path fill="none" stroke="midnightblue" d="M495.62,-179.08C499.46,-171.69 505.02,-160.95 509.76,-151.81"/>
<polygon fill="midnightblue" stroke="midnightblue" points="512.97,-153.24 514.46,-142.75 506.75,-150.02 512.97,-153.24"/>
</g>
<!-- Node6&#45;&gt;Node5 -->
<g id="edge37" class="edge">
<title>Node6&#45;&gt;Node5</title>
<path fill="none" stroke="midnightblue" d="M371.77,-508.04C427.91,-499.49 499.77,-485.42 523,-467 633.04,-379.74 734.99,-293.02 653,-179 631.63,-149.28 589.68,-138.92 558.38,-135.44"/>
<polygon fill="midnightblue" stroke="midnightblue" points="558.5,-131.94 548.22,-134.51 557.86,-138.91 558.5,-131.94"/>
</g>
<!-- Node7 -->
<g id="node7" class="node">
<title>Node7</title>
<g id="a_node7"><a xlink:href="Terminal_8h.html" target="_top" xlink:title=" ">
<polygon fill="white" stroke="black" points="350,-442 350,-461 514,-461 514,-442 350,-442"/>
<text text-anchor="middle" x="432" y="-449" font-family="Helvetica,sans-Serif" font-size="10.00">boomerang/ssl/exp/Terminal.h</text>
</a>
</g>
</g>
<!-- Node6&#45;&gt;Node7 -->
<g id="edge6" class="edge">
<title>Node6&#45;&gt;Node7</title>
<path fill="none" stroke="midnightblue" d="M327.86,-503.4C350.89,-492.14 382.89,-476.5 405.32,-465.54"/>
<polygon fill="midnightblue" stroke="midnightblue" points="407.15,-468.54 414.59,-461.01 404.07,-462.25 407.15,-468.54"/>
</g>
<!-- Node22 -->
<g id="node22" class="node">
<title>Node22</title>
<g id="a_node22"><a xlink:href="Assign_8h.html" target="_top" xlink:title=" ">
<polygon fill="white" stroke="black" points="184.5,-436.5 184.5,-466.5 331.5,-466.5 331.5,-436.5 184.5,-436.5"/>
<text text-anchor="start" x="192.5" y="-454.5" font-family="Helvetica,sans-Serif" font-size="10.00">boomerang/ssl/statements</text>
<text text-anchor="middle" x="258" y="-443.5" font-family="Helvetica,sans-Serif" font-size="10.00">/Assign.h</text>
</a>
</g>
</g>
<!-- Node6&#45;&gt;Node22 -->
<g id="edge33" class="edge">
<title>Node6&#45;&gt;Node22</title>
<path fill="none" stroke="midnightblue" d="M290.1,-503.4C284.89,-495.13 278.19,-484.51 272.26,-475.1"/>
<polygon fill="midnightblue" stroke="midnightblue" points="275.17,-473.17 266.88,-466.58 269.25,-476.9 275.17,-473.17"/>
</g>
<!-- Node25 -->
<g id="node25" class="node">
<title>Node25</title>
<g id="a_node25"><a xlink:title=" ">
<polygon fill="white" stroke="#bfbfbf" points="80,-442 80,-461 166,-461 166,-442 80,-442"/>
<text text-anchor="middle" x="123" y="-449" font-family="Helvetica,sans-Serif" font-size="10.00">unordered_set</text>
</a>
</g>
</g>
<!-- Node6&#45;&gt;Node25 -->
<g id="edge38" class="edge">
<title>Node6&#45;&gt;Node25</title>
<path fill="none" stroke="midnightblue" d="M260.81,-503.4C229.38,-491.79 185.32,-475.51 155.54,-464.52"/>
<polygon fill="midnightblue" stroke="midnightblue" points="156.63,-461.19 146.03,-461.01 154.2,-467.75 156.63,-461.19"/>
</g>
<!-- Node8 -->
<g id="node8" class="node">
<title>Node8</title>
<g id="a_node8"><a xlink:href="Exp_8h.html" target="_top" xlink:title=" ">
<polygon fill="white" stroke="black" points="324,-308 324,-327 464,-327 464,-308 324,-308"/>
<text text-anchor="middle" x="394" y="-315" font-family="Helvetica,sans-Serif" font-size="10.00">boomerang/ssl/exp/Exp.h</text>
</a>
</g>
</g>
<!-- Node7&#45;&gt;Node8 -->
<g id="edge7" class="edge">
<title>Node7&#45;&gt;Node8</title>
<path fill="none" stroke="midnightblue" d="M429.51,-441.84C423.39,-420.58 407.52,-365.46 399.23,-336.65"/>
<polygon fill="midnightblue" stroke="midnightblue" points="402.58,-335.66 396.45,-327.02 395.86,-337.6 402.58,-335.66"/>
</g>
<!-- Node8&#45;&gt;Node3 -->
<g id="edge8" class="edge">
<title>Node8&#45;&gt;Node3</title>
<path fill="none" stroke="midnightblue" d="M398.01,-307.88C405.44,-292.4 422.38,-259.26 442,-235 450.76,-224.16 462.15,-213.55 471.74,-205.35"/>
<polygon fill="midnightblue" stroke="midnightblue" points="474.14,-207.9 479.6,-198.82 469.67,-202.52 474.14,-207.9"/>
</g>
<!-- Node8&#45;&gt;Node5 -->
<g id="edge30" class="edge">
<title>Node8&#45;&gt;Node5</title>
<path fill="none" stroke="midnightblue" d="M419.86,-307.98C477.34,-288.47 612.55,-239.11 637,-199 657.53,-165.33 599.83,-147.82 558.05,-139.78"/>
<polygon fill="midnightblue" stroke="midnightblue" points="558.55,-136.32 548.09,-137.98 557.31,-143.21 558.55,-136.32"/>
</g>
<!-- Node9 -->
<g id="node9" class="node">
<title>Node9</title>
<g id="a_node9"><a xlink:href="Operator_8h.html" target="_top" xlink:title=" ">
<polygon fill="white" stroke="black" points="622,-123.5 622,-142.5 786,-142.5 786,-123.5 622,-123.5"/>
<text text-anchor="middle" x="704" y="-130.5" font-family="Helvetica,sans-Serif" font-size="10.00">boomerang/ssl/exp/Operator.h</text>
</a>
</g>
</g>
<!-- Node8&#45;&gt;Node9 -->
<g id="edge9" class="edge">
<title>Node8&#45;&gt;Node9</title>
<path fill="none" stroke="midnightblue" d="M448.55,-307.94C486.01,-300.53 536,-287.51 576,-266 628.79,-237.61 673,-179.85 692.82,-151.08"/>
<polygon fill="midnightblue" stroke="midnightblue" points="695.9,-152.77 698.58,-142.52 690.1,-148.86 695.9,-152.77"/>
</g>
<!-- Node8&#45;&gt;Node10 -->
<g id="edge11" class="edge">
<title>Node8&#45;&gt;Node10</title>
<path fill="none" stroke="midnightblue" d="M372.49,-307.87C348.07,-298.07 307.59,-281.83 276.34,-269.29"/>
<polygon fill="midnightblue" stroke="midnightblue" points="277.55,-266 266.96,-265.53 274.94,-272.5 277.55,-266"/>
</g>
<!-- Node12 -->
<g id="node12" class="node">
<title>Node12</title>
<g id="a_node12"><a xlink:href="OStream_8h.html" target="_top" xlink:title=" ">
<polygon fill="white" stroke="black" points="138,-123.5 138,-142.5 284,-142.5 284,-123.5 138,-123.5"/>
<text text-anchor="middle" x="211" y="-130.5" font-family="Helvetica,sans-Serif" font-size="10.00">boomerang/util/OStream.h</text>
</a>
</g>
</g>
<!-- Node8&#45;&gt;Node12 -->
<g id="edge26" class="edge">
<title>Node8&#45;&gt;Node12</title>
<path fill="none" stroke="midnightblue" d="M348.01,-308C272.71,-294.04 131.2,-267.65 129,-266 95.82,-241.05 71.55,-213.25 95,-179 106.17,-162.68 124.19,-152.28 142.72,-145.65"/>
<polygon fill="midnightblue" stroke="midnightblue" points="143.99,-148.92 152.43,-142.52 141.84,-142.26 143.99,-148.92"/>
</g>
<!-- Node16 -->
<g id="node16" class="node">
<title>Node16</title>
<g id="a_node16"><a xlink:title=" ">
<polygon fill="white" stroke="#bfbfbf" points="340.5,-123.5 340.5,-142.5 393.5,-142.5 393.5,-123.5 340.5,-123.5"/>
<text text-anchor="middle" x="367" y="-130.5" font-family="Helvetica,sans-Serif" font-size="10.00">QString</text>
</a>
</g>
</g>
<!-- Node8&#45;&gt;Node16 -->
<g id="edge27" class="edge">
<title>Node8&#45;&gt;Node16</title>
<path fill="none" stroke="midnightblue" d="M392.7,-307.7C388.54,-279.57 375.5,-191.46 369.76,-152.66"/>
<polygon fill="midnightblue" stroke="midnightblue" points="373.22,-152.09 368.29,-142.71 366.29,-153.12 373.22,-152.09"/>
</g>
<!-- Node17 -->
<g id="node17" class="node">
<title>Node17</title>
<g id="a_node17"><a xlink:title=" ">
<polygon fill="white" stroke="#bfbfbf" points="104,-179.5 104,-198.5 156,-198.5 156,-179.5 104,-179.5"/>
<text text-anchor="middle" x="130" y="-186.5" font-family="Helvetica,sans-Serif" font-size="10.00">cassert</text>
</a>
</g>
</g>
<!-- Node8&#45;&gt;Node17 -->
<g id="edge28" class="edge">
<title>Node8&#45;&gt;Node17</title>
<path fill="none" stroke="midnightblue" d="M349.79,-307.96C280.46,-294.48 153.64,-269.46 150,-266 134.49,-251.29 130.47,-226.12 129.69,-208.8"/>
<polygon fill="midnightblue" stroke="midnightblue" points="133.19,-208.7 129.56,-198.74 126.19,-208.79 133.19,-208.7"/>
</g>
<!-- Node18 -->
<g id="node18" class="node">
<title>Node18</title>
<g id="a_node18"><a xlink:title=" ">
<polygon fill="white" stroke="#bfbfbf" points="16,-179.5 16,-198.5 48,-198.5 48,-179.5 16,-179.5"/>
<text text-anchor="middle" x="32" y="-186.5" font-family="Helvetica,sans-Serif" font-size="10.00">list</text>
</a>
</g>
</g>
<!-- Node8&#45;&gt;Node18 -->
<g id="edge29" class="edge">
<title>Node8&#45;&gt;Node18</title>
<path fill="none" stroke="midnightblue" d="M349.35,-307.98C338.15,-305.93 326.15,-303.82 315,-302 258.95,-292.87 106.58,-301.18 62,-266 44.38,-252.09 37.08,-226.34 34.07,-208.7"/>
<polygon fill="midnightblue" stroke="midnightblue" points="37.53,-208.13 32.68,-198.71 30.6,-209.1 37.53,-208.13"/>
</g>
<!-- Node20 -->
<g id="node20" class="node">
<title>Node20</title>
<g id="a_node20"><a xlink:title=" ">
<polygon fill="white" stroke="#bfbfbf" points="324,-241 324,-260 356,-260 356,-241 324,-241"/>
<text text-anchor="middle" x="340" y="-248" font-family="Helvetica,sans-Serif" font-size="10.00">set</text>
</a>
</g>
</g>
<!-- Node8&#45;&gt;Node20 -->
<g id="edge31" class="edge">
<title>Node8&#45;&gt;Node20</title>
<path fill="none" stroke="midnightblue" d="M386.72,-307.73C378.3,-297.6 364.25,-280.69 353.75,-268.06"/>
<polygon fill="midnightblue" stroke="midnightblue" points="356.25,-265.58 347.17,-260.13 350.87,-270.06 356.25,-265.58"/>
</g>
<!-- Node21 -->
<g id="node21" class="node">
<title>Node21</title>
<g id="a_node21"><a xlink:title=" ">
<polygon fill="white" stroke="#bfbfbf" points="450.5,-241 450.5,-260 497.5,-260 497.5,-241 450.5,-241"/>
<text text-anchor="middle" x="474" y="-248" font-family="Helvetica,sans-Serif" font-size="10.00">vector</text>
</a>
</g>
</g>
<!-- Node8&#45;&gt;Node21 -->
<g id="edge32" class="edge">
<title>Node8&#45;&gt;Node21</title>
<path fill="none" stroke="midnightblue" d="M404.79,-307.73C417.74,-297.21 439.69,-279.38 455.39,-266.62"/>
<polygon fill="midnightblue" stroke="midnightblue" points="457.83,-269.15 463.38,-260.13 453.41,-263.72 457.83,-269.15"/>
</g>
<!-- Node9&#45;&gt;Node4 -->
<g id="edge10" class="edge">
<title>Node9&#45;&gt;Node4</title>
<path fill="none" stroke="midnightblue" d="M658.72,-123.48C610.33,-114.36 532.49,-99.71 472.67,-88.44"/>
<polygon fill="midnightblue" stroke="midnightblue" points="472.95,-84.93 462.47,-86.52 471.65,-91.81 472.95,-84.93"/>
</g>
<!-- Node10&#45;&gt;Node3 -->
<g id="edge12" class="edge">
<title>Node10&#45;&gt;Node3</title>
<path fill="none" stroke="midnightblue" d="M293.05,-235.47C339.3,-224.85 401.88,-210.47 444.2,-200.75"/>
<polygon fill="midnightblue" stroke="midnightblue" points="445.01,-204.16 453.97,-198.51 443.44,-197.33 445.01,-204.16"/>
</g>
<!-- Node10&#45;&gt;Node5 -->
<g id="edge25" class="edge">
<title>Node10&#45;&gt;Node5</title>
<path fill="none" stroke="midnightblue" d="M264.91,-235.42C298.88,-220.97 353.46,-197.97 401,-179 429.69,-167.55 462.53,-155.07 486.28,-146.17"/>
<polygon fill="midnightblue" stroke="midnightblue" points="487.72,-149.37 495.86,-142.59 485.26,-142.81 487.72,-149.37"/>
</g>
<!-- Node11 -->
<g id="node11" class="node">
<title>Node11</title>
<g id="a_node11"><a xlink:href="Address_8h.html" target="_top" xlink:title=" ">
<polygon fill="white" stroke="black" points="174,-179.5 174,-198.5 316,-198.5 316,-179.5 174,-179.5"/>
<text text-anchor="middle" x="245" y="-186.5" font-family="Helvetica,sans-Serif" font-size="10.00">boomerang/util/Address.h</text>
</a>
</g>
</g>
<!-- Node10&#45;&gt;Node11 -->
<g id="edge13" class="edge">
<title>Node10&#45;&gt;Node11</title>
<path fill="none" stroke="midnightblue" d="M235.08,-235.4C236.83,-227.38 239.05,-217.23 240.94,-208.57"/>
<polygon fill="midnightblue" stroke="midnightblue" points="244.39,-209.17 243.11,-198.66 237.55,-207.68 244.39,-209.17"/>
</g>
<!-- Node10&#45;&gt;Node17 -->
<g id="edge22" class="edge">
<title>Node10&#45;&gt;Node17</title>
<path fill="none" stroke="midnightblue" d="M207.83,-235.4C191.48,-225.86 169.99,-213.32 153.73,-203.84"/>
<polygon fill="midnightblue" stroke="midnightblue" points="155.24,-200.67 144.84,-198.66 151.72,-206.72 155.24,-200.67"/>
</g>
<!-- Node10&#45;&gt;Node18 -->
<g id="edge23" class="edge">
<title>Node10&#45;&gt;Node18</title>
<path fill="none" stroke="midnightblue" d="M184.86,-235.47C145.22,-223.68 90.04,-207.27 57.96,-197.72"/>
<polygon fill="midnightblue" stroke="midnightblue" points="58.61,-194.26 48.03,-194.77 56.61,-200.97 58.61,-194.26"/>
</g>
<!-- Node10&#45;&gt;Node19 -->
<g id="edge24" class="edge">
<title>Node10&#45;&gt;Node19</title>
<path fill="none" stroke="midnightblue" d="M305.74,-236.47C308.87,-235.96 311.96,-235.47 315,-235 429.67,-217.23 462.85,-224.9 579.78,-198.92"/>
<polygon fill="midnightblue" stroke="midnightblue" points="580.86,-202.27 589.84,-196.65 579.32,-195.44 580.86,-202.27"/>
</g>
<!-- Node11&#45;&gt;Node4 -->
<g id="edge14" class="edge">
<title>Node11&#45;&gt;Node4</title>
<path fill="none" stroke="midnightblue" d="M255.75,-179.32C278.29,-161.11 331.02,-118.52 362.67,-92.96"/>
<polygon fill="midnightblue" stroke="midnightblue" points="365.03,-95.55 370.61,-86.55 360.63,-90.11 365.03,-95.55"/>
</g>
<!-- Node11&#45;&gt;Node12 -->
<g id="edge15" class="edge">
<title>Node11&#45;&gt;Node12</title>
<path fill="none" stroke="midnightblue" d="M239.39,-179.08C234.63,-171.53 227.68,-160.49 221.85,-151.23"/>
<polygon fill="midnightblue" stroke="midnightblue" points="224.8,-149.35 216.51,-142.75 218.88,-153.08 224.8,-149.35"/>
</g>
<!-- Node13 -->
<g id="node13" class="node">
<title>Node13</title>
<g id="a_node13"><a xlink:href="Types_8h.html" target="_top" xlink:title=" ">
<polygon fill="white" stroke="black" points="44.5,-62 44.5,-81 175.5,-81 175.5,-62 44.5,-62"/>
<text text-anchor="middle" x="110" y="-69" font-family="Helvetica,sans-Serif" font-size="10.00">boomerang/util/Types.h</text>
</a>
</g>
</g>
<!-- Node11&#45;&gt;Node13 -->
<g id="edge20" class="edge">
<title>Node11&#45;&gt;Node13</title>
<path fill="none" stroke="midnightblue" d="M195.36,-179.48C172.23,-173.1 146.11,-162.04 129,-143 116.18,-128.74 111.88,-106.71 110.5,-91.08"/>
<polygon fill="midnightblue" stroke="midnightblue" points="113.99,-90.82 109.94,-81.03 107,-91.21 113.99,-90.82"/>
</g>
<!-- Node11&#45;&gt;Node16 -->
<g id="edge21" class="edge">
<title>Node11&#45;&gt;Node16</title>
<path fill="none" stroke="midnightblue" d="M264.33,-179.44C284.32,-170.6 315.74,-156.69 338.56,-146.59"/>
<polygon fill="midnightblue" stroke="midnightblue" points="340.03,-149.76 347.76,-142.52 337.2,-143.36 340.03,-149.76"/>
</g>
<!-- Node12&#45;&gt;Node4 -->
<g id="edge16" class="edge">
<title>Node12&#45;&gt;Node4</title>
<path fill="none" stroke="midnightblue" d="M236.36,-123.48C262.46,-114.7 303.85,-100.79 336.8,-89.71"/>
<polygon fill="midnightblue" stroke="midnightblue" points="337.92,-93.03 346.28,-86.52 335.69,-86.39 337.92,-93.03"/>
</g>
<!-- Node12&#45;&gt;Node13 -->
<g id="edge17" class="edge">
<title>Node12&#45;&gt;Node13</title>
<path fill="none" stroke="midnightblue" d="M196.53,-123.48C180.03,-113.75 152.82,-97.73 133.32,-86.24"/>
<polygon fill="midnightblue" stroke="midnightblue" points="134.84,-83.07 124.44,-81.01 131.28,-89.1 134.84,-83.07"/>
</g>
<!-- Node15 -->
<g id="node15" class="node">
<title>Node15</title>
<g id="a_node15"><a xlink:title=" ">
<polygon fill="white" stroke="#bfbfbf" points="194,-62 194,-81 240,-81 240,-62 194,-62"/>
<text text-anchor="middle" x="217" y="-69" font-family="Helvetica,sans-Serif" font-size="10.00">cstdio</text>
</a>
</g>
</g>
<!-- Node12&#45;&gt;Node15 -->
<g id="edge19" class="edge">
<title>Node12&#45;&gt;Node15</title>
<path fill="none" stroke="midnightblue" d="M211.86,-123.48C212.71,-115.08 214.03,-101.98 215.12,-91.16"/>
<polygon fill="midnightblue" stroke="midnightblue" points="218.62,-91.31 216.14,-81.01 211.66,-90.61 218.62,-91.31"/>
</g>
<!-- Node14 -->
<g id="node14" class="node">
<title>Node14</title>
<g id="a_node14"><a xlink:title=" ">
<polygon fill="white" stroke="#bfbfbf" points="85,-0.5 85,-19.5 135,-19.5 135,-0.5 85,-0.5"/>
<text text-anchor="middle" x="110" y="-7.5" font-family="Helvetica,sans-Serif" font-size="10.00">cstdint</text>
</a>
</g>
</g>
<!-- Node13&#45;&gt;Node14 -->
<g id="edge18" class="edge">
<title>Node13&#45;&gt;Node14</title>
<path fill="none" stroke="midnightblue" d="M110,-61.98C110,-53.58 110,-40.48 110,-29.66"/>
<polygon fill="midnightblue" stroke="midnightblue" points="113.5,-29.51 110,-19.51 106.5,-29.51 113.5,-29.51"/>
</g>
<!-- Node23 -->
<g id="node23" class="node">
<title>Node23</title>
<g id="a_node23"><a xlink:href="Assignment_8h.html" target="_top" xlink:title=" ">
<polygon fill="white" stroke="black" points="171.5,-369.5 171.5,-399.5 318.5,-399.5 318.5,-369.5 171.5,-369.5"/>
<text text-anchor="start" x="179.5" y="-387.5" font-family="Helvetica,sans-Serif" font-size="10.00">boomerang/ssl/statements</text>
<text text-anchor="middle" x="245" y="-376.5" font-family="Helvetica,sans-Serif" font-size="10.00">/Assignment.h</text>
</a>
</g>
</g>
<!-- Node22&#45;&gt;Node23 -->
<g id="edge34" class="edge">
<title>Node22&#45;&gt;Node23</title>
<path fill="none" stroke="midnightblue" d="M255.18,-436.4C253.61,-428.56 251.62,-418.6 249.81,-409.57"/>
<polygon fill="midnightblue" stroke="midnightblue" points="253.21,-408.7 247.82,-399.58 246.34,-410.07 253.21,-408.7"/>
</g>
<!-- Node24 -->
<g id="node24" class="node">
<title>Node24</title>
<g id="a_node24"><a xlink:href="TypingStatement_8h.html" target="_top" xlink:title=" ">
<polygon fill="white" stroke="black" points="158.5,-302.5 158.5,-332.5 305.5,-332.5 305.5,-302.5 158.5,-302.5"/>
<text text-anchor="start" x="166.5" y="-320.5" font-family="Helvetica,sans-Serif" font-size="10.00">boomerang/ssl/statements</text>
<text text-anchor="middle" x="232" y="-309.5" font-family="Helvetica,sans-Serif" font-size="10.00">/TypingStatement.h</text>
</a>
</g>
</g>
<!-- Node23&#45;&gt;Node24 -->
<g id="edge35" class="edge">
<title>Node23&#45;&gt;Node24</title>
<path fill="none" stroke="midnightblue" d="M242.18,-369.4C240.61,-361.56 238.62,-351.6 236.81,-342.57"/>
<polygon fill="midnightblue" stroke="midnightblue" points="240.21,-341.7 234.82,-332.58 233.34,-343.07 240.21,-341.7"/>
</g>
<!-- Node24&#45;&gt;Node10 -->
<g id="edge36" class="edge">
<title>Node24&#45;&gt;Node10</title>
<path fill="none" stroke="midnightblue" d="M232,-302.4C232,-294.64 232,-284.81 232,-275.86"/>
<polygon fill="midnightblue" stroke="midnightblue" points="235.5,-275.58 232,-265.58 228.5,-275.58 235.5,-275.58"/>
</g>
<!-- Node27&#45;&gt;Node6 -->
<g id="edge43" class="edge">
<title>Node27&#45;&gt;Node6</title>
<path fill="none" stroke="midnightblue" d="M225.4,-570.4C238.45,-561.37 255.6,-549.51 270.05,-539.52"/>
<polygon fill="midnightblue" stroke="midnightblue" points="272.41,-542.14 278.64,-533.58 268.43,-536.39 272.41,-542.14"/>
</g>
<!-- Node27&#45;&gt;Node18 -->
<g id="edge44" class="edge">
<title>Node27&#45;&gt;Node18</title>
<path fill="none" stroke="midnightblue" d="M137.02,-570.44C77.35,-553.66 0,-519.06 0,-452.5 0,-452.5 0,-452.5 0,-316.5 0,-276.84 14.97,-232.25 24.43,-208.03"/>
<polygon fill="midnightblue" stroke="midnightblue" points="27.7,-209.29 28.2,-198.7 21.21,-206.66 27.7,-209.29"/>
</g>
</g>
</svg>
