<?xml version="1.0" encoding="UTF-8" standalone="no"?>
<!DOCTYPE svg PUBLIC "-//W3C//DTD SVG 1.1//EN"
 "http://www.w3.org/Graphics/SVG/1.1/DTD/svg11.dtd">
<!-- Generated by graphviz version 2.43.0 (0)
 -->
<!-- Title: RTLInstDict.h Pages: 1 -->
<svg width="703pt" height="196pt"
 viewBox="0.00 0.00 702.50 196.00" xmlns="http://www.w3.org/2000/svg" xmlns:xlink="http://www.w3.org/1999/xlink">
<g id="graph0" class="graph" transform="scale(1 1) rotate(0) translate(4 192)">
<title>RTLInstDict.h</title>
<polygon fill="white" stroke="transparent" points="-4,4 -4,-192 698.5,-192 698.5,4 -4,4"/>
<!-- Node1 -->
<g id="node1" class="node">
<title>Node1</title>
<g id="a_node1"><a xlink:title=" ">
<polygon fill="#bfbfbf" stroke="black" points="314,-168.5 314,-187.5 395,-187.5 395,-168.5 314,-168.5"/>
<text text-anchor="middle" x="354.5" y="-175.5" font-family="Helvetica,sans-Serif" font-size="10.00">RTLInstDict.h</text>
</a>
</g>
</g>
<!-- Node2 -->
<g id="node2" class="node">
<title>Node2</title>
<g id="a_node2"><a xlink:href="SSL2Parser_8cpp.html" target="_top" xlink:title=" ">
<polygon fill="white" stroke="black" points="0,-112.5 0,-131.5 91,-131.5 91,-112.5 0,-112.5"/>
<text text-anchor="middle" x="45.5" y="-119.5" font-family="Helvetica,sans-Serif" font-size="10.00">SSL2Parser.cpp</text>
</a>
</g>
</g>
<!-- Node1&#45;&gt;Node2 -->
<g id="edge1" class="edge">
<title>Node1&#45;&gt;Node2</title>
<path fill="none" stroke="midnightblue" d="M303.93,-168.16C244.84,-157.84 147.93,-140.9 91.08,-130.97"/>
<polygon fill="midnightblue" stroke="midnightblue" points="303.33,-171.61 313.79,-169.88 304.54,-164.72 303.33,-171.61"/>
</g>
<!-- Node3 -->
<g id="node3" class="node">
<title>Node3</title>
<g id="a_node3"><a xlink:href="SSL2ParserDriver_8cpp.html" target="_top" xlink:title=" ">
<polygon fill="white" stroke="black" points="109,-112.5 109,-131.5 230,-131.5 230,-112.5 109,-112.5"/>
<text text-anchor="middle" x="169.5" y="-119.5" font-family="Helvetica,sans-Serif" font-size="10.00">SSL2ParserDriver.cpp</text>
</a>
</g>
</g>
<!-- Node1&#45;&gt;Node3 -->
<g id="edge2" class="edge">
<title>Node1&#45;&gt;Node3</title>
<path fill="none" stroke="midnightblue" d="M315.33,-165.57C280.43,-155.38 230.15,-140.7 198.68,-131.52"/>
<polygon fill="midnightblue" stroke="midnightblue" points="314.61,-169 325.19,-168.44 316.57,-162.28 314.61,-169"/>
</g>
<!-- Node4 -->
<g id="node4" class="node">
<title>Node4</title>
<g id="a_node4"><a xlink:href="RTLInstDict_8cpp.html" target="_top" xlink:title=" ">
<polygon fill="white" stroke="black" points="248.5,-112.5 248.5,-131.5 340.5,-131.5 340.5,-112.5 248.5,-112.5"/>
<text text-anchor="middle" x="294.5" y="-119.5" font-family="Helvetica,sans-Serif" font-size="10.00">RTLInstDict.cpp</text>
</a>
</g>
</g>
<!-- Node1&#45;&gt;Node4 -->
<g id="edge3" class="edge">
<title>Node1&#45;&gt;Node4</title>
<path fill="none" stroke="midnightblue" d="M337.32,-161.54C326.62,-151.91 313.24,-139.87 304.32,-131.83"/>
<polygon fill="midnightblue" stroke="midnightblue" points="335.09,-164.24 344.86,-168.32 339.77,-159.03 335.09,-164.24"/>
</g>
<!-- Node5 -->
<g id="node5" class="node">
<title>Node5</title>
<g id="a_node5"><a xlink:href="CapstoneDecoder_8h.html" target="_top" xlink:title=" ">
<polygon fill="white" stroke="black" points="358.5,-112.5 358.5,-131.5 470.5,-131.5 470.5,-112.5 358.5,-112.5"/>
<text text-anchor="middle" x="414.5" y="-119.5" font-family="Helvetica,sans-Serif" font-size="10.00">CapstoneDecoder.h</text>
</a>
</g>
</g>
<!-- Node1&#45;&gt;Node5 -->
<g id="edge4" class="edge">
<title>Node1&#45;&gt;Node5</title>
<path fill="none" stroke="midnightblue" d="M371.68,-161.54C382.38,-151.91 395.76,-139.87 404.68,-131.83"/>
<polygon fill="midnightblue" stroke="midnightblue" points="369.23,-159.03 364.14,-168.32 373.91,-164.24 369.23,-159.03"/>
</g>
<!-- Node11 -->
<g id="node11" class="node">
<title>Node11</title>
<g id="a_node11"><a xlink:href="ST20Decoder_8h.html" target="_top" xlink:title=" ">
<polygon fill="white" stroke="black" points="488.5,-112.5 488.5,-131.5 578.5,-131.5 578.5,-112.5 488.5,-112.5"/>
<text text-anchor="middle" x="533.5" y="-119.5" font-family="Helvetica,sans-Serif" font-size="10.00">ST20Decoder.h</text>
</a>
</g>
</g>
<!-- Node1&#45;&gt;Node11 -->
<g id="edge10" class="edge">
<title>Node1&#45;&gt;Node11</title>
<path fill="none" stroke="midnightblue" d="M392.83,-165.44C426.58,-155.26 474.95,-140.66 505.27,-131.52"/>
<polygon fill="midnightblue" stroke="midnightblue" points="391.43,-162.2 382.86,-168.44 393.45,-168.91 391.43,-162.2"/>
</g>
<!-- Node13 -->
<g id="node13" class="node">
<title>Node13</title>
<g id="a_node13"><a xlink:href="X86FrontEnd_8cpp.html" target="_top" xlink:title=" ">
<polygon fill="white" stroke="black" points="596.5,-112.5 596.5,-131.5 694.5,-131.5 694.5,-112.5 596.5,-112.5"/>
<text text-anchor="middle" x="645.5" y="-119.5" font-family="Helvetica,sans-Serif" font-size="10.00">X86FrontEnd.cpp</text>
</a>
</g>
</g>
<!-- Node1&#45;&gt;Node13 -->
<g id="edge12" class="edge">
<title>Node1&#45;&gt;Node13</title>
<path fill="none" stroke="midnightblue" d="M405.44,-167.55C460.17,-157.39 546.4,-141.39 599.25,-131.58"/>
<polygon fill="midnightblue" stroke="midnightblue" points="404.46,-164.17 395.27,-169.43 405.74,-171.05 404.46,-164.17"/>
</g>
<!-- Node6 -->
<g id="node6" class="node">
<title>Node6</title>
<g id="a_node6"><a xlink:href="CapstoneDecoder_8cpp.html" target="_top" xlink:title=" ">
<polygon fill="white" stroke="black" points="133,-56.5 133,-75.5 256,-75.5 256,-56.5 133,-56.5"/>
<text text-anchor="middle" x="194.5" y="-63.5" font-family="Helvetica,sans-Serif" font-size="10.00">CapstoneDecoder.cpp</text>
</a>
</g>
</g>
<!-- Node5&#45;&gt;Node6 -->
<g id="edge5" class="edge">
<title>Node5&#45;&gt;Node6</title>
<path fill="none" stroke="midnightblue" d="M369.78,-110.02C328.22,-99.82 267.19,-84.84 229.2,-75.52"/>
<polygon fill="midnightblue" stroke="midnightblue" points="369.09,-113.46 379.64,-112.44 370.76,-106.66 369.09,-113.46"/>
</g>
<!-- Node7 -->
<g id="node7" class="node">
<title>Node7</title>
<g id="a_node7"><a xlink:href="CapstoneX86Decoder_8h.html" target="_top" xlink:title=" ">
<polygon fill="white" stroke="black" points="274,-56.5 274,-75.5 405,-75.5 405,-56.5 274,-56.5"/>
<text text-anchor="middle" x="339.5" y="-63.5" font-family="Helvetica,sans-Serif" font-size="10.00">CapstoneX86Decoder.h</text>
</a>
</g>
</g>
<!-- Node5&#45;&gt;Node7 -->
<g id="edge6" class="edge">
<title>Node5&#45;&gt;Node7</title>
<path fill="none" stroke="midnightblue" d="M394.19,-106.38C380.64,-96.62 363.26,-84.11 351.77,-75.83"/>
<polygon fill="midnightblue" stroke="midnightblue" points="392.29,-109.32 402.45,-112.32 396.38,-103.64 392.29,-109.32"/>
</g>
<!-- Node9 -->
<g id="node9" class="node">
<title>Node9</title>
<g id="a_node9"><a xlink:href="CapstonePPCDecoder_8h.html" target="_top" xlink:title=" ">
<polygon fill="white" stroke="black" points="423,-56.5 423,-75.5 554,-75.5 554,-56.5 423,-56.5"/>
<text text-anchor="middle" x="488.5" y="-63.5" font-family="Helvetica,sans-Serif" font-size="10.00">CapstonePPCDecoder.h</text>
</a>
</g>
</g>
<!-- Node5&#45;&gt;Node9 -->
<g id="edge8" class="edge">
<title>Node5&#45;&gt;Node9</title>
<path fill="none" stroke="midnightblue" d="M434.53,-106.38C447.91,-96.62 465.06,-84.11 476.39,-75.83"/>
<polygon fill="midnightblue" stroke="midnightblue" points="432.4,-103.6 426.39,-112.32 436.53,-109.26 432.4,-103.6"/>
</g>
<!-- Node8 -->
<g id="node8" class="node">
<title>Node8</title>
<g id="a_node8"><a xlink:href="CapstoneX86Decoder_8cpp.html" target="_top" xlink:title=" ">
<polygon fill="white" stroke="black" points="263.5,-0.5 263.5,-19.5 405.5,-19.5 405.5,-0.5 263.5,-0.5"/>
<text text-anchor="middle" x="334.5" y="-7.5" font-family="Helvetica,sans-Serif" font-size="10.00">CapstoneX86Decoder.cpp</text>
</a>
</g>
</g>
<!-- Node7&#45;&gt;Node8 -->
<g id="edge7" class="edge">
<title>Node7&#45;&gt;Node8</title>
<path fill="none" stroke="midnightblue" d="M337.75,-46.1C336.92,-37.14 335.97,-26.86 335.31,-19.75"/>
<polygon fill="midnightblue" stroke="midnightblue" points="334.27,-46.45 338.67,-56.08 341.24,-45.8 334.27,-46.45"/>
</g>
<!-- Node10 -->
<g id="node10" class="node">
<title>Node10</title>
<g id="a_node10"><a xlink:href="CapstonePPCDecoder_8cpp.html" target="_top" xlink:title=" ">
<polygon fill="white" stroke="black" points="423.5,-0.5 423.5,-19.5 565.5,-19.5 565.5,-0.5 423.5,-0.5"/>
<text text-anchor="middle" x="494.5" y="-7.5" font-family="Helvetica,sans-Serif" font-size="10.00">CapstonePPCDecoder.cpp</text>
</a>
</g>
</g>
<!-- Node9&#45;&gt;Node10 -->
<g id="edge9" class="edge">
<title>Node9&#45;&gt;Node10</title>
<path fill="none" stroke="midnightblue" d="M490.6,-46.1C491.6,-37.14 492.74,-26.86 493.53,-19.75"/>
<polygon fill="midnightblue" stroke="midnightblue" points="487.12,-45.76 489.49,-56.08 494.07,-46.53 487.12,-45.76"/>
</g>
<!-- Node12 -->
<g id="node12" class="node">
<title>Node12</title>
<g id="a_node12"><a xlink:href="ST20Decoder_8cpp.html" target="_top" xlink:title=" ">
<polygon fill="white" stroke="black" points="572,-56.5 572,-75.5 673,-75.5 673,-56.5 572,-56.5"/>
<text text-anchor="middle" x="622.5" y="-63.5" font-family="Helvetica,sans-Serif" font-size="10.00">ST20Decoder.cpp</text>
</a>
</g>
</g>
<!-- Node11&#45;&gt;Node12 -->
<g id="edge11" class="edge">
<title>Node11&#45;&gt;Node12</title>
<path fill="none" stroke="midnightblue" d="M556.74,-106.9C573.06,-97 594.37,-84.07 608.24,-75.65"/>
<polygon fill="midnightblue" stroke="midnightblue" points="554.53,-104.14 547.8,-112.32 558.16,-110.13 554.53,-104.14"/>
</g>
</g>
</svg>
