<?xml version="1.0" encoding="UTF-8" standalone="no"?>
<!DOCTYPE svg PUBLIC "-//W3C//DTD SVG 1.1//EN"
 "http://www.w3.org/Graphics/SVG/1.1/DTD/svg11.dtd">
<!-- Generated by graphviz version 2.43.0 (0)
 -->
<!-- Title: SeparateLogger.cpp Pages: 1 -->
<!--zoomable 397 -->
<svg id="main" version="1.1" xmlns="http://www.w3.org/2000/svg" xmlns:xlink="http://www.w3.org/1999/xlink" xml:space="preserve" onload="init(evt)">
<style type="text/css"><![CDATA[
.edge:hover path { stroke: red; }
.edge:hover polygon { stroke: red; fill: red; }
]]></style>
<script type="text/javascript"><![CDATA[
var edges = document.getElementsByTagName('g');
if (edges && edges.length) {
  for (var i=0;i<edges.length;i++) {
    if (edges[i].id.substr(0,4)=='edge') {
      edges[i].setAttribute('class','edge');
    }
  }
}
]]></script>
        <defs>
                <circle id="rim" cx="0" cy="0" r="7"/>
                <circle id="rim2" cx="0" cy="0" r="3.5"/>
                <g id="zoomPlus">
                        <use xlink:href="#rim" fill="#404040">
                                <set attributeName="fill" to="#808080" begin="zoomplus.mouseover" end="zoomplus.mouseout"/>
                        </use>
                        <path d="M-4,0h8M0,-4v8" fill="none" stroke="white" stroke-width="1.5" pointer-events="none"/>
                </g>
                <g id="zoomMin">
                        <use xlink:href="#rim" fill="#404040">
                                <set attributeName="fill" to="#808080" begin="zoomminus.mouseover" end="zoomminus.mouseout"/>
                        </use>
                        <path d="M-4,0h8" fill="none" stroke="white" stroke-width="1.5" pointer-events="none"/>
                </g>
                <g id="dirArrow">
                        <path fill="none" stroke="white" stroke-width="1.5" d="M0,-3.0v7 M-2.5,-0.5L0,-3.0L2.5,-0.5"/>
                </g>
               <g id="resetDef">
                       <use xlink:href="#rim2" fill="#404040">
                               <set attributeName="fill" to="#808080" begin="reset.mouseover" end="reset.mouseout"/>
                       </use>
               </g>
        </defs>

<script type="text/javascript">
var viewWidth = 811;
var viewHeight = 397;
var sectionId = 'dynsection-0';
</script>
<script xlink:href="svgpan.js"/>
<svg id="graph" class="graph">
<g id="viewport">
<title>SeparateLogger.cpp</title>
<polygon fill="white" stroke="transparent" points="-4,4 -4,-393 806.5,-393 806.5,4 -4,4"/>
<!-- Node1 -->
<g id="node1" class="node">
<title>Node1</title>
<g id="a_node1"><a xlink:title=" ">
<polygon fill="#bfbfbf" stroke="black" points="507,-369.5 507,-388.5 620,-388.5 620,-369.5 507,-369.5"/>
<text text-anchor="middle" x="563.5" y="-376.5" font-family="Helvetica,sans-Serif" font-size="10.00">SeparateLogger.cpp</text>
</a>
</g>
</g>
<!-- Node2 -->
<g id="node2" class="node">
<title>Node2</title>
<g id="a_node2"><a xlink:href="SeparateLogger_8h.html" target="_top" xlink:title=" ">
<polygon fill="white" stroke="black" points="216.5,-308 216.5,-327 318.5,-327 318.5,-308 216.5,-308"/>
<text text-anchor="middle" x="267.5" y="-315" font-family="Helvetica,sans-Serif" font-size="10.00">SeparateLogger.h</text>
</a>
</g>
</g>
<!-- Node1&#45;&gt;Node2 -->
<g id="edge1" class="edge">
<title>Node1&#45;&gt;Node2</title>
<path fill="none" stroke="midnightblue" d="M521.09,-369.48C468.01,-358.8 377.11,-340.53 319.78,-329.01"/>
<polygon fill="midnightblue" stroke="midnightblue" points="320.32,-325.55 309.83,-327.01 318.95,-332.41 320.32,-325.55"/>
</g>
<!-- Node13 -->
<g id="node13" class="node">
<title>Node13</title>
<g id="a_node13"><a xlink:href="Util_8h.html" target="_top" xlink:title=" ">
<polygon fill="white" stroke="black" points="371.5,-241 371.5,-260 491.5,-260 491.5,-241 371.5,-241"/>
<text text-anchor="middle" x="431.5" y="-248" font-family="Helvetica,sans-Serif" font-size="10.00">boomerang/util/Util.h</text>
</a>
</g>
</g>
<!-- Node1&#45;&gt;Node13 -->
<g id="edge15" class="edge">
<title>Node1&#45;&gt;Node13</title>
<path fill="none" stroke="midnightblue" d="M518.33,-369.43C495.92,-362.98 470.16,-351.87 453.5,-333 438.15,-315.61 433.37,-288.58 431.96,-270.47"/>
<polygon fill="midnightblue" stroke="midnightblue" points="435.45,-270.09 431.45,-260.28 428.46,-270.44 435.45,-270.09"/>
</g>
<!-- Node15 -->
<g id="node15" class="node">
<title>Node15</title>
<g id="a_node15"><a xlink:href="FileLogSink_8h.html" target="_top" xlink:title=" ">
<polygon fill="white" stroke="black" points="463,-302.5 463,-332.5 572,-332.5 572,-302.5 463,-302.5"/>
<text text-anchor="start" x="471" y="-320.5" font-family="Helvetica,sans-Serif" font-size="10.00">boomerang/util/log</text>
<text text-anchor="middle" x="517.5" y="-309.5" font-family="Helvetica,sans-Serif" font-size="10.00">/FileLogSink.h</text>
</a>
</g>
</g>
<!-- Node1&#45;&gt;Node15 -->
<g id="edge20" class="edge">
<title>Node1&#45;&gt;Node15</title>
<path fill="none" stroke="midnightblue" d="M556.91,-369.48C551.09,-361.94 542.34,-350.63 534.56,-340.57"/>
<polygon fill="midnightblue" stroke="midnightblue" points="537.23,-338.29 528.34,-332.52 531.69,-342.58 537.23,-338.29"/>
</g>
<!-- Node18 -->
<g id="node18" class="node">
<title>Node18</title>
<g id="a_node18"><a xlink:title=" ">
<polygon fill="white" stroke="#bfbfbf" points="590.5,-308 590.5,-327 628.5,-327 628.5,-308 590.5,-308"/>
<text text-anchor="middle" x="609.5" y="-315" font-family="Helvetica,sans-Serif" font-size="10.00">QDir</text>
</a>
</g>
</g>
<!-- Node1&#45;&gt;Node18 -->
<g id="edge24" class="edge">
<title>Node1&#45;&gt;Node18</title>
<path fill="none" stroke="midnightblue" d="M570.09,-369.48C576.99,-360.55 588,-346.31 596.63,-335.14"/>
<polygon fill="midnightblue" stroke="midnightblue" points="599.57,-337.06 602.92,-327.01 594.04,-332.78 599.57,-337.06"/>
</g>
<!-- Node19 -->
<g id="node19" class="node">
<title>Node19</title>
<g id="a_node19"><a xlink:title=" ">
<polygon fill="white" stroke="#bfbfbf" points="647,-308 647,-327 692,-327 692,-308 647,-308"/>
<text text-anchor="middle" x="669.5" y="-315" font-family="Helvetica,sans-Serif" font-size="10.00">QMap</text>
</a>
</g>
</g>
<!-- Node1&#45;&gt;Node19 -->
<g id="edge25" class="edge">
<title>Node1&#45;&gt;Node19</title>
<path fill="none" stroke="midnightblue" d="M578.69,-369.48C596.16,-359.67 625.08,-343.43 645.58,-331.92"/>
<polygon fill="midnightblue" stroke="midnightblue" points="647.33,-334.96 654.34,-327.01 643.91,-328.85 647.33,-334.96"/>
</g>
<!-- Node20 -->
<g id="node20" class="node">
<title>Node20</title>
<g id="a_node20"><a xlink:title=" ">
<polygon fill="white" stroke="#bfbfbf" points="710.5,-308 710.5,-327 802.5,-327 802.5,-308 710.5,-308"/>
<text text-anchor="middle" x="756.5" y="-315" font-family="Helvetica,sans-Serif" font-size="10.00">QSharedPointer</text>
</a>
</g>
</g>
<!-- Node1&#45;&gt;Node20 -->
<g id="edge26" class="edge">
<title>Node1&#45;&gt;Node20</title>
<path fill="none" stroke="midnightblue" d="M591.15,-369.48C624.69,-359.14 681.37,-341.66 718.87,-330.1"/>
<polygon fill="midnightblue" stroke="midnightblue" points="720.37,-333.3 728.9,-327.01 718.31,-326.61 720.37,-333.3"/>
</g>
<!-- Node3 -->
<g id="node3" class="node">
<title>Node3</title>
<g id="a_node3"><a xlink:href="Log_8h.html" target="_top" xlink:title=" ">
<polygon fill="white" stroke="black" points="120,-235.5 120,-265.5 229,-265.5 229,-235.5 120,-235.5"/>
<text text-anchor="start" x="128" y="-253.5" font-family="Helvetica,sans-Serif" font-size="10.00">boomerang/util/log</text>
<text text-anchor="middle" x="174.5" y="-242.5" font-family="Helvetica,sans-Serif" font-size="10.00">/Log.h</text>
</a>
</g>
</g>
<!-- Node2&#45;&gt;Node3 -->
<g id="edge2" class="edge">
<title>Node2&#45;&gt;Node3</title>
<path fill="none" stroke="midnightblue" d="M254.96,-307.73C241.78,-298.53 220.62,-283.73 203.3,-271.63"/>
<polygon fill="midnightblue" stroke="midnightblue" points="204.86,-268.45 194.66,-265.59 200.85,-274.19 204.86,-268.45"/>
</g>
<!-- Node4 -->
<g id="node4" class="node">
<title>Node4</title>
<g id="a_node4"><a xlink:href="Address_8h.html" target="_top" xlink:title=" ">
<polygon fill="white" stroke="black" points="103.5,-179.5 103.5,-198.5 245.5,-198.5 245.5,-179.5 103.5,-179.5"/>
<text text-anchor="middle" x="174.5" y="-186.5" font-family="Helvetica,sans-Serif" font-size="10.00">boomerang/util/Address.h</text>
</a>
</g>
</g>
<!-- Node3&#45;&gt;Node4 -->
<g id="edge3" class="edge">
<title>Node3&#45;&gt;Node4</title>
<path fill="none" stroke="midnightblue" d="M174.5,-235.4C174.5,-227.47 174.5,-217.46 174.5,-208.86"/>
<polygon fill="midnightblue" stroke="midnightblue" points="178,-208.66 174.5,-198.66 171,-208.66 178,-208.66"/>
</g>
<!-- Node7 -->
<g id="node7" class="node">
<title>Node7</title>
<g id="a_node7"><a xlink:href="Types_8h.html" target="_top" xlink:title=" ">
<polygon fill="white" stroke="black" points="60,-62 60,-81 191,-81 191,-62 60,-62"/>
<text text-anchor="middle" x="125.5" y="-69" font-family="Helvetica,sans-Serif" font-size="10.00">boomerang/util/Types.h</text>
</a>
</g>
</g>
<!-- Node3&#45;&gt;Node7 -->
<g id="edge12" class="edge">
<title>Node3&#45;&gt;Node7</title>
<path fill="none" stroke="midnightblue" d="M136.73,-235.47C120.69,-227.41 103.62,-215.54 94.5,-199 74.75,-163.18 98.39,-114.82 113.96,-89.53"/>
<polygon fill="midnightblue" stroke="midnightblue" points="116.96,-91.34 119.43,-81.04 111.07,-87.55 116.96,-91.34"/>
</g>
<!-- Node11 -->
<g id="node11" class="node">
<title>Node11</title>
<g id="a_node11"><a xlink:title=" ">
<polygon fill="white" stroke="#bfbfbf" points="263.5,-179.5 263.5,-198.5 321.5,-198.5 321.5,-179.5 263.5,-179.5"/>
<text text-anchor="middle" x="292.5" y="-186.5" font-family="Helvetica,sans-Serif" font-size="10.00">memory</text>
</a>
</g>
</g>
<!-- Node3&#45;&gt;Node11 -->
<g id="edge13" class="edge">
<title>Node3&#45;&gt;Node11</title>
<path fill="none" stroke="midnightblue" d="M202.46,-235.4C221.82,-225.64 247.41,-212.74 266.36,-203.18"/>
<polygon fill="midnightblue" stroke="midnightblue" points="267.98,-206.29 275.33,-198.66 264.83,-200.04 267.98,-206.29"/>
</g>
<!-- Node12 -->
<g id="node12" class="node">
<title>Node12</title>
<g id="a_node12"><a xlink:title=" ">
<polygon fill="white" stroke="#bfbfbf" points="0,-179.5 0,-198.5 47,-198.5 47,-179.5 0,-179.5"/>
<text text-anchor="middle" x="23.5" y="-186.5" font-family="Helvetica,sans-Serif" font-size="10.00">vector</text>
</a>
</g>
</g>
<!-- Node3&#45;&gt;Node12 -->
<g id="edge14" class="edge">
<title>Node3&#45;&gt;Node12</title>
<path fill="none" stroke="midnightblue" d="M138.72,-235.4C113.27,-225.37 79.4,-212.03 54.98,-202.4"/>
<polygon fill="midnightblue" stroke="midnightblue" points="56.06,-199.07 45.47,-198.66 53.49,-205.58 56.06,-199.07"/>
</g>
<!-- Node5 -->
<g id="node5" class="node">
<title>Node5</title>
<g id="a_node5"><a xlink:href="BoomerangAPI_8h.html" target="_top" xlink:title=" ">
<polygon fill="white" stroke="black" points="278,-56.5 278,-86.5 433,-86.5 433,-56.5 278,-56.5"/>
<text text-anchor="start" x="286" y="-74.5" font-family="Helvetica,sans-Serif" font-size="10.00">boomerang/core/Boomerang</text>
<text text-anchor="middle" x="355.5" y="-63.5" font-family="Helvetica,sans-Serif" font-size="10.00">API.h</text>
</a>
</g>
</g>
<!-- Node4&#45;&gt;Node5 -->
<g id="edge4" class="edge">
<title>Node4&#45;&gt;Node5</title>
<path fill="none" stroke="midnightblue" d="M230.36,-179.46C257.68,-173.05 289.7,-161.98 313.5,-143 328.76,-130.83 339.71,-111.5 346.6,-96.15"/>
<polygon fill="midnightblue" stroke="midnightblue" points="349.9,-97.33 350.54,-86.76 343.45,-94.62 349.9,-97.33"/>
</g>
<!-- Node6 -->
<g id="node6" class="node">
<title>Node6</title>
<g id="a_node6"><a xlink:href="OStream_8h.html" target="_top" xlink:title=" ">
<polygon fill="white" stroke="black" points="158.5,-123.5 158.5,-142.5 304.5,-142.5 304.5,-123.5 158.5,-123.5"/>
<text text-anchor="middle" x="231.5" y="-130.5" font-family="Helvetica,sans-Serif" font-size="10.00">boomerang/util/OStream.h</text>
</a>
</g>
</g>
<!-- Node4&#45;&gt;Node6 -->
<g id="edge5" class="edge">
<title>Node4&#45;&gt;Node6</title>
<path fill="none" stroke="midnightblue" d="M183.66,-179.32C192,-171.42 204.53,-159.55 214.68,-149.94"/>
<polygon fill="midnightblue" stroke="midnightblue" points="217.32,-152.25 222.18,-142.83 212.51,-147.17 217.32,-152.25"/>
</g>
<!-- Node4&#45;&gt;Node7 -->
<g id="edge10" class="edge">
<title>Node4&#45;&gt;Node7</title>
<path fill="none" stroke="midnightblue" d="M169.04,-179.28C163.62,-170.38 155.3,-156.07 149.5,-143 141.89,-125.86 135.2,-105.51 130.83,-91.09"/>
<polygon fill="midnightblue" stroke="midnightblue" points="134.15,-89.98 127.96,-81.37 127.44,-91.96 134.15,-89.98"/>
</g>
<!-- Node10 -->
<g id="node10" class="node">
<title>Node10</title>
<g id="a_node10"><a xlink:title=" ">
<polygon fill="white" stroke="#bfbfbf" points="387,-123.5 387,-142.5 440,-142.5 440,-123.5 387,-123.5"/>
<text text-anchor="middle" x="413.5" y="-130.5" font-family="Helvetica,sans-Serif" font-size="10.00">QString</text>
</a>
</g>
</g>
<!-- Node4&#45;&gt;Node10 -->
<g id="edge11" class="edge">
<title>Node4&#45;&gt;Node10</title>
<path fill="none" stroke="midnightblue" d="M212.37,-179.44C257.55,-169.24 332.55,-152.29 377.08,-142.23"/>
<polygon fill="midnightblue" stroke="midnightblue" points="377.92,-145.63 386.91,-140.01 376.38,-138.8 377.92,-145.63"/>
</g>
<!-- Node6&#45;&gt;Node5 -->
<g id="edge6" class="edge">
<title>Node6&#45;&gt;Node5</title>
<path fill="none" stroke="midnightblue" d="M249.27,-123.48C266.92,-115 294.57,-101.74 317.23,-90.86"/>
<polygon fill="midnightblue" stroke="midnightblue" points="318.77,-94 326.28,-86.52 315.75,-87.69 318.77,-94"/>
</g>
<!-- Node6&#45;&gt;Node7 -->
<g id="edge7" class="edge">
<title>Node6&#45;&gt;Node7</title>
<path fill="none" stroke="midnightblue" d="M216.31,-123.48C198.84,-113.67 169.92,-97.43 149.42,-85.92"/>
<polygon fill="midnightblue" stroke="midnightblue" points="151.09,-82.85 140.66,-81.01 147.67,-88.96 151.09,-82.85"/>
</g>
<!-- Node9 -->
<g id="node9" class="node">
<title>Node9</title>
<g id="a_node9"><a xlink:title=" ">
<polygon fill="white" stroke="#bfbfbf" points="209.5,-62 209.5,-81 255.5,-81 255.5,-62 209.5,-62"/>
<text text-anchor="middle" x="232.5" y="-69" font-family="Helvetica,sans-Serif" font-size="10.00">cstdio</text>
</a>
</g>
</g>
<!-- Node6&#45;&gt;Node9 -->
<g id="edge9" class="edge">
<title>Node6&#45;&gt;Node9</title>
<path fill="none" stroke="midnightblue" d="M231.64,-123.48C231.78,-115.08 232,-101.98 232.19,-91.16"/>
<polygon fill="midnightblue" stroke="midnightblue" points="235.69,-91.07 232.36,-81.01 228.69,-90.95 235.69,-91.07"/>
</g>
<!-- Node8 -->
<g id="node8" class="node">
<title>Node8</title>
<g id="a_node8"><a xlink:title=" ">
<polygon fill="white" stroke="#bfbfbf" points="100.5,-0.5 100.5,-19.5 150.5,-19.5 150.5,-0.5 100.5,-0.5"/>
<text text-anchor="middle" x="125.5" y="-7.5" font-family="Helvetica,sans-Serif" font-size="10.00">cstdint</text>
</a>
</g>
</g>
<!-- Node7&#45;&gt;Node8 -->
<g id="edge8" class="edge">
<title>Node7&#45;&gt;Node8</title>
<path fill="none" stroke="midnightblue" d="M125.5,-61.98C125.5,-53.58 125.5,-40.48 125.5,-29.66"/>
<polygon fill="midnightblue" stroke="midnightblue" points="129,-29.51 125.5,-19.51 122,-29.51 129,-29.51"/>
</g>
<!-- Node13&#45;&gt;Node5 -->
<g id="edge16" class="edge">
<title>Node13&#45;&gt;Node5</title>
<path fill="none" stroke="midnightblue" d="M436.18,-240.77C447.09,-219.11 471.61,-161.85 448.5,-123 440.1,-108.88 426.22,-98.46 411.71,-90.88"/>
<polygon fill="midnightblue" stroke="midnightblue" points="413.17,-87.7 402.64,-86.52 410.13,-94.01 413.17,-87.7"/>
</g>
<!-- Node13&#45;&gt;Node10 -->
<g id="edge17" class="edge">
<title>Node13&#45;&gt;Node10</title>
<path fill="none" stroke="midnightblue" d="M430.15,-240.82C427.25,-222.26 420.41,-178.34 416.46,-152.97"/>
<polygon fill="midnightblue" stroke="midnightblue" points="419.87,-152.12 414.87,-142.78 412.95,-153.2 419.87,-152.12"/>
</g>
<!-- Node13&#45;&gt;Node11 -->
<g id="edge18" class="edge">
<title>Node13&#45;&gt;Node11</title>
<path fill="none" stroke="midnightblue" d="M411.58,-240.98C388.05,-230.9 348.69,-214.05 321.71,-202.5"/>
<polygon fill="midnightblue" stroke="midnightblue" points="322.95,-199.23 312.38,-198.51 320.19,-205.66 322.95,-199.23"/>
</g>
<!-- Node14 -->
<g id="node14" class="node">
<title>Node14</title>
<g id="a_node14"><a xlink:title=" ">
<polygon fill="white" stroke="#bfbfbf" points="340,-179.5 340,-198.5 409,-198.5 409,-179.5 340,-179.5"/>
<text text-anchor="middle" x="374.5" y="-186.5" font-family="Helvetica,sans-Serif" font-size="10.00">type_traits</text>
</a>
</g>
</g>
<!-- Node13&#45;&gt;Node14 -->
<g id="edge19" class="edge">
<title>Node13&#45;&gt;Node14</title>
<path fill="none" stroke="midnightblue" d="M423.33,-240.98C414.61,-231.87 400.6,-217.24 389.81,-205.98"/>
<polygon fill="midnightblue" stroke="midnightblue" points="392.1,-203.31 382.65,-198.51 387.04,-208.15 392.1,-203.31"/>
</g>
<!-- Node16 -->
<g id="node16" class="node">
<title>Node16</title>
<g id="a_node16"><a xlink:href="ILogSink_8h.html" target="_top" xlink:title=" ">
<polygon fill="white" stroke="black" points="503.5,-123.5 503.5,-142.5 643.5,-142.5 643.5,-123.5 503.5,-123.5"/>
<text text-anchor="middle" x="573.5" y="-130.5" font-family="Helvetica,sans-Serif" font-size="10.00">boomerang/ifc/ILogSink.h</text>
</a>
</g>
</g>
<!-- Node15&#45;&gt;Node16 -->
<g id="edge21" class="edge">
<title>Node15&#45;&gt;Node16</title>
<path fill="none" stroke="midnightblue" d="M521.05,-302.29C525.2,-285.97 532.4,-258.42 539.5,-235 548.37,-205.73 559.96,-172.15 567.06,-152.03"/>
<polygon fill="midnightblue" stroke="midnightblue" points="570.36,-153.18 570.41,-142.59 563.77,-150.84 570.36,-153.18"/>
</g>
<!-- Node17 -->
<g id="node17" class="node">
<title>Node17</title>
<g id="a_node17"><a xlink:title=" ">
<polygon fill="white" stroke="#bfbfbf" points="548,-241 548,-260 589,-260 589,-241 548,-241"/>
<text text-anchor="middle" x="568.5" y="-248" font-family="Helvetica,sans-Serif" font-size="10.00">QFile</text>
</a>
</g>
</g>
<!-- Node15&#45;&gt;Node17 -->
<g id="edge23" class="edge">
<title>Node15&#45;&gt;Node17</title>
<path fill="none" stroke="midnightblue" d="M528.57,-302.4C536.44,-292.36 547.05,-278.84 555.35,-268.25"/>
<polygon fill="midnightblue" stroke="midnightblue" points="558.26,-270.22 561.68,-260.19 552.75,-265.9 558.26,-270.22"/>
</g>
<!-- Node16&#45;&gt;Node5 -->
<g id="edge22" class="edge">
<title>Node16&#45;&gt;Node5</title>
<path fill="none" stroke="midnightblue" d="M542.27,-123.48C509.64,-114.57 457.61,-100.37 416.74,-89.22"/>
<polygon fill="midnightblue" stroke="midnightblue" points="417.45,-85.78 406.88,-86.52 415.6,-92.53 417.45,-85.78"/>
</g>
</g>
</svg>
        <g id="navigator" transform="translate(0 0)" fill="#404254">
                <rect fill="#f2f5e9" fill-opacity="0.5" stroke="#606060" stroke-width=".5" x="0" y="0" width="60" height="60"/>
                <use id="zoomplus" xlink:href="#zoomPlus" x="17" y="9" onmousedown="handleZoom(evt,'in')"/>
                <use id="zoomminus" xlink:href="#zoomMin" x="42" y="9" onmousedown="handleZoom(evt,'out')"/>
                <use id="reset" xlink:href="#resetDef" x="30" y="36" onmousedown="handleReset()"/>
                <g id="arrowUp" xlink:href="#dirArrow" transform="translate(30 24)" onmousedown="handlePan(0,-1)">
                  <use xlink:href="#rim" fill="#404040">
                        <set attributeName="fill" to="#808080" begin="arrowUp.mouseover" end="arrowUp.mouseout"/>
                  </use>
                  <path fill="none" stroke="white" stroke-width="1.5" d="M0,-3.0v7 M-2.5,-0.5L0,-3.0L2.5,-0.5"/>
                </g>
                <g id="arrowRight" xlink:href="#dirArrow" transform="rotate(90) translate(36 -43)" onmousedown="handlePan(1,0)">
                  <use xlink:href="#rim" fill="#404040">
                        <set attributeName="fill" to="#808080" begin="arrowRight.mouseover" end="arrowRight.mouseout"/>
                  </use>
                  <path fill="none" stroke="white" stroke-width="1.5" d="M0,-3.0v7 M-2.5,-0.5L0,-3.0L2.5,-0.5"/>
                </g>
                <g id="arrowDown" xlink:href="#dirArrow" transform="rotate(180) translate(-30 -48)" onmousedown="handlePan(0,1)">
                  <use xlink:href="#rim" fill="#404040">
                        <set attributeName="fill" to="#808080" begin="arrowDown.mouseover" end="arrowDown.mouseout"/>
                  </use>
                  <path fill="none" stroke="white" stroke-width="1.5" d="M0,-3.0v7 M-2.5,-0.5L0,-3.0L2.5,-0.5"/>
                </g>
                <g id="arrowLeft" xlink:href="#dirArrow" transform="rotate(270) translate(-36 17)" onmousedown="handlePan(-1,0)">
                  <use xlink:href="#rim" fill="#404040">
                        <set attributeName="fill" to="#808080" begin="arrowLeft.mouseover" end="arrowLeft.mouseout"/>
                  </use>
                  <path fill="none" stroke="white" stroke-width="1.5" d="M0,-3.0v7 M-2.5,-0.5L0,-3.0L2.5,-0.5"/>
                </g>
        </g>
        <svg viewBox="0 0 15 15" width="100%" height="30px" preserveAspectRatio="xMaxYMin meet">
         <g id="arrow_out" transform="scale(0.3 0.3)">
          <a xlink:href="SeparateLogger_8cpp__incl_org.svg" target="_base">
           <rect id="button" ry="5" rx="5" y="6" x="6" height="38" width="38"
                fill="#f2f5e9" fill-opacity="0.5" stroke="#606060" stroke-width="1.0"/>
           <path id="arrow"
             d="M 11.500037,31.436501 C 11.940474,20.09759 22.043105,11.32322 32.158766,21.979434 L 37.068811,17.246167 C 37.068811,17.246167 37.088388,32 37.088388,32 L 22.160133,31.978069 C 22.160133,31.978069 26.997745,27.140456 26.997745,27.140456 C 18.528582,18.264221 13.291696,25.230495 11.500037,31.436501 z"
             style="fill:#404040;"/>
          </a>
         </g>
        </svg>
</svg>
