<?xml version="1.0" encoding="UTF-8" standalone="no"?>
<!DOCTYPE svg PUBLIC "-//W3C//DTD SVG 1.1//EN"
 "http://www.w3.org/Graphics/SVG/1.1/DTD/svg11.dtd">
<!-- Generated by graphviz version 2.43.0 (0)
 -->
<!-- Title: Signature.h Pages: 1 -->
<!--zoomable 464 -->
<svg id="main" version="1.1" xmlns="http://www.w3.org/2000/svg" xmlns:xlink="http://www.w3.org/1999/xlink" xml:space="preserve" onload="init(evt)">
<style type="text/css"><![CDATA[
.edge:hover path { stroke: red; }
.edge:hover polygon { stroke: red; fill: red; }
]]></style>
<script type="text/javascript"><![CDATA[
var edges = document.getElementsByTagName('g');
if (edges && edges.length) {
  for (var i=0;i<edges.length;i++) {
    if (edges[i].id.substr(0,4)=='edge') {
      edges[i].setAttribute('class','edge');
    }
  }
}
]]></script>
        <defs>
                <circle id="rim" cx="0" cy="0" r="7"/>
                <circle id="rim2" cx="0" cy="0" r="3.5"/>
                <g id="zoomPlus">
                        <use xlink:href="#rim" fill="#404040">
                                <set attributeName="fill" to="#808080" begin="zoomplus.mouseover" end="zoomplus.mouseout"/>
                        </use>
                        <path d="M-4,0h8M0,-4v8" fill="none" stroke="white" stroke-width="1.5" pointer-events="none"/>
                </g>
                <g id="zoomMin">
                        <use xlink:href="#rim" fill="#404040">
                                <set attributeName="fill" to="#808080" begin="zoomminus.mouseover" end="zoomminus.mouseout"/>
                        </use>
                        <path d="M-4,0h8" fill="none" stroke="white" stroke-width="1.5" pointer-events="none"/>
                </g>
                <g id="dirArrow">
                        <path fill="none" stroke="white" stroke-width="1.5" d="M0,-3.0v7 M-2.5,-0.5L0,-3.0L2.5,-0.5"/>
                </g>
               <g id="resetDef">
                       <use xlink:href="#rim2" fill="#404040">
                               <set attributeName="fill" to="#808080" begin="reset.mouseover" end="reset.mouseout"/>
                       </use>
               </g>
        </defs>

<script type="text/javascript">
var viewWidth = 1071;
var viewHeight = 464;
var sectionId = 'dynsection-0';
</script>
<script xlink:href="svgpan.js"/>
<svg id="graph" class="graph">
<g id="viewport">
<title>Signature.h</title>
<polygon fill="white" stroke="transparent" points="-4,4 -4,-460 1066.5,-460 1066.5,4 -4,4"/>
<!-- Node1 -->
<g id="node1" class="node">
<title>Node1</title>
<g id="a_node1"><a xlink:title=" ">
<polygon fill="#bfbfbf" stroke="black" points="683,-436.5 683,-455.5 755,-455.5 755,-436.5 683,-436.5"/>
<text text-anchor="middle" x="719" y="-443.5" font-family="Helvetica,sans-Serif" font-size="10.00">Signature.h</text>
</a>
</g>
</g>
<!-- Node2 -->
<g id="node2" class="node">
<title>Node2</title>
<g id="a_node2"><a xlink:href="BinaryFile_8h.html" target="_top" xlink:title=" ">
<polygon fill="white" stroke="black" points="109.5,-235.5 109.5,-265.5 230.5,-265.5 230.5,-235.5 109.5,-235.5"/>
<text text-anchor="start" x="117.5" y="-253.5" font-family="Helvetica,sans-Serif" font-size="10.00">boomerang/db/binary</text>
<text text-anchor="middle" x="170" y="-242.5" font-family="Helvetica,sans-Serif" font-size="10.00">/BinaryFile.h</text>
</a>
</g>
</g>
<!-- Node1&#45;&gt;Node2 -->
<g id="edge1" class="edge">
<title>Node1&#45;&gt;Node2</title>
<path fill="none" stroke="midnightblue" d="M682.75,-443.69C598.13,-440.17 390.01,-428.78 327,-400 264.66,-371.53 211.34,-308.07 185.92,-274.06"/>
<polygon fill="midnightblue" stroke="midnightblue" points="188.52,-271.69 179.78,-265.69 182.87,-275.83 188.52,-271.69"/>
</g>
<!-- Node11 -->
<g id="node11" class="node">
<title>Node11</title>
<g id="a_node11"><a xlink:href="Parameter_8h.html" target="_top" xlink:title=" ">
<polygon fill="white" stroke="black" points="651,-369.5 651,-399.5 787,-399.5 787,-369.5 651,-369.5"/>
<text text-anchor="start" x="659" y="-387.5" font-family="Helvetica,sans-Serif" font-size="10.00">boomerang/db/signature</text>
<text text-anchor="middle" x="719" y="-376.5" font-family="Helvetica,sans-Serif" font-size="10.00">/Parameter.h</text>
</a>
</g>
</g>
<!-- Node1&#45;&gt;Node11 -->
<g id="edge12" class="edge">
<title>Node1&#45;&gt;Node11</title>
<path fill="none" stroke="midnightblue" d="M719,-436.48C719,-429.47 719,-419.19 719,-409.7"/>
<polygon fill="midnightblue" stroke="midnightblue" points="722.5,-409.52 719,-399.52 715.5,-409.52 722.5,-409.52"/>
</g>
<!-- Node14 -->
<g id="node14" class="node">
<title>Node14</title>
<g id="a_node14"><a xlink:href="Return_8h.html" target="_top" xlink:title=" ">
<polygon fill="white" stroke="black" points="429,-302.5 429,-332.5 565,-332.5 565,-302.5 429,-302.5"/>
<text text-anchor="start" x="437" y="-320.5" font-family="Helvetica,sans-Serif" font-size="10.00">boomerang/db/signature</text>
<text text-anchor="middle" x="497" y="-309.5" font-family="Helvetica,sans-Serif" font-size="10.00">/Return.h</text>
</a>
</g>
</g>
<!-- Node1&#45;&gt;Node14 -->
<g id="edge19" class="edge">
<title>Node1&#45;&gt;Node14</title>
<path fill="none" stroke="midnightblue" d="M701.05,-436.46C682.91,-427.7 654.19,-413.5 630,-400 594.09,-379.96 553.99,-355.03 527.31,-338.05"/>
<polygon fill="midnightblue" stroke="midnightblue" points="529.11,-335.05 518.79,-332.61 525.34,-340.95 529.11,-335.05"/>
</g>
<!-- Node15 -->
<g id="node15" class="node">
<title>Node15</title>
<g id="a_node15"><a xlink:href="SigEnum_8h.html" target="_top" xlink:title=" ">
<polygon fill="white" stroke="black" points="881,-369.5 881,-399.5 997,-399.5 997,-369.5 881,-369.5"/>
<text text-anchor="start" x="889" y="-387.5" font-family="Helvetica,sans-Serif" font-size="10.00">boomerang/frontend</text>
<text text-anchor="middle" x="939" y="-376.5" font-family="Helvetica,sans-Serif" font-size="10.00">/SigEnum.h</text>
</a>
</g>
</g>
<!-- Node1&#45;&gt;Node15 -->
<g id="edge21" class="edge">
<title>Node1&#45;&gt;Node15</title>
<path fill="none" stroke="midnightblue" d="M750.52,-436.48C783.52,-427.55 836.18,-413.31 877.46,-402.14"/>
<polygon fill="midnightblue" stroke="midnightblue" points="878.41,-405.51 887.15,-399.52 876.58,-398.76 878.41,-405.51"/>
</g>
<!-- Node16 -->
<g id="node16" class="node">
<title>Node16</title>
<g id="a_node16"><a xlink:href="Register_8h.html" target="_top" xlink:title=" ">
<polygon fill="white" stroke="black" points="744.5,-179.5 744.5,-198.5 885.5,-198.5 885.5,-179.5 744.5,-179.5"/>
<text text-anchor="middle" x="815" y="-186.5" font-family="Helvetica,sans-Serif" font-size="10.00">boomerang/ssl/Register.h</text>
</a>
</g>
</g>
<!-- Node1&#45;&gt;Node16 -->
<g id="edge22" class="edge">
<title>Node1&#45;&gt;Node16</title>
<path fill="none" stroke="midnightblue" d="M746.07,-436.47C763.37,-429.53 784.62,-417.9 796,-400 834.6,-339.26 825.12,-247.96 818.64,-208.86"/>
<polygon fill="midnightblue" stroke="midnightblue" points="822.06,-208.12 816.86,-198.89 815.17,-209.35 822.06,-208.12"/>
</g>
<!-- Node19 -->
<g id="node19" class="node">
<title>Node19</title>
<g id="a_node19"><a xlink:href="Operator_8h.html" target="_top" xlink:title=" ">
<polygon fill="white" stroke="black" points="851,-241 851,-260 1015,-260 1015,-241 851,-241"/>
<text text-anchor="middle" x="933" y="-248" font-family="Helvetica,sans-Serif" font-size="10.00">boomerang/ssl/exp/Operator.h</text>
</a>
</g>
</g>
<!-- Node1&#45;&gt;Node19 -->
<g id="edge29" class="edge">
<title>Node1&#45;&gt;Node19</title>
<path fill="none" stroke="midnightblue" d="M753.39,-436.46C776.53,-429.46 806.75,-417.77 829,-400 875.4,-362.93 909.89,-299.84 924.83,-269.22"/>
<polygon fill="midnightblue" stroke="midnightblue" points="928,-270.7 929.14,-260.16 921.68,-267.69 928,-270.7"/>
</g>
<!-- Node20 -->
<g id="node20" class="node">
<title>Node20</title>
<g id="a_node20"><a xlink:href="Assignment_8h.html" target="_top" xlink:title=" ">
<polygon fill="white" stroke="black" points="336.5,-369.5 336.5,-399.5 483.5,-399.5 483.5,-369.5 336.5,-369.5"/>
<text text-anchor="start" x="344.5" y="-387.5" font-family="Helvetica,sans-Serif" font-size="10.00">boomerang/ssl/statements</text>
<text text-anchor="middle" x="410" y="-376.5" font-family="Helvetica,sans-Serif" font-size="10.00">/Assignment.h</text>
</a>
</g>
</g>
<!-- Node1&#45;&gt;Node20 -->
<g id="edge31" class="edge">
<title>Node1&#45;&gt;Node20</title>
<path fill="none" stroke="midnightblue" d="M682.95,-438.06C636.65,-429.14 554.89,-413.4 492.89,-401.46"/>
<polygon fill="midnightblue" stroke="midnightblue" points="493.21,-397.96 482.73,-399.5 491.88,-404.83 493.21,-397.96"/>
</g>
<!-- Node26 -->
<g id="node26" class="node">
<title>Node26</title>
<g id="a_node26"><a xlink:href="VoidType_8h.html" target="_top" xlink:title=" ">
<polygon fill="white" stroke="black" points="583.5,-302.5 583.5,-332.5 696.5,-332.5 696.5,-302.5 583.5,-302.5"/>
<text text-anchor="start" x="591.5" y="-320.5" font-family="Helvetica,sans-Serif" font-size="10.00">boomerang/ssl/type</text>
<text text-anchor="middle" x="640" y="-309.5" font-family="Helvetica,sans-Serif" font-size="10.00">/VoidType.h</text>
</a>
</g>
</g>
<!-- Node1&#45;&gt;Node26 -->
<g id="edge42" class="edge">
<title>Node1&#45;&gt;Node26</title>
<path fill="none" stroke="midnightblue" d="M690.78,-436.41C673.46,-429.53 652.63,-418 642,-400 631.91,-382.9 632.28,-360.07 634.67,-342.93"/>
<polygon fill="midnightblue" stroke="midnightblue" points="638.2,-343.04 636.45,-332.59 631.3,-341.86 638.2,-343.04"/>
</g>
<!-- Node27 -->
<g id="node27" class="node">
<title>Node27</title>
<g id="a_node27"><a xlink:title=" ">
<polygon fill="white" stroke="#bfbfbf" points="1015.5,-375 1015.5,-394 1062.5,-394 1062.5,-375 1015.5,-375"/>
<text text-anchor="middle" x="1039" y="-382" font-family="Helvetica,sans-Serif" font-size="10.00">vector</text>
</a>
</g>
</g>
<!-- Node1&#45;&gt;Node27 -->
<g id="edge44" class="edge">
<title>Node1&#45;&gt;Node27</title>
<path fill="none" stroke="midnightblue" d="M755.45,-442.32C810.6,-437.59 918.15,-425.72 1006,-400 1008.15,-399.37 1010.34,-398.64 1012.52,-397.84"/>
<polygon fill="midnightblue" stroke="midnightblue" points="1013.9,-401.05 1021.85,-394.04 1011.26,-394.57 1013.9,-401.05"/>
</g>
<!-- Node3 -->
<g id="node3" class="node">
<title>Node3</title>
<g id="a_node3"><a xlink:href="Address_8h.html" target="_top" xlink:title=" ">
<polygon fill="white" stroke="black" points="0,-179.5 0,-198.5 142,-198.5 142,-179.5 0,-179.5"/>
<text text-anchor="middle" x="71" y="-186.5" font-family="Helvetica,sans-Serif" font-size="10.00">boomerang/util/Address.h</text>
</a>
</g>
</g>
<!-- Node2&#45;&gt;Node3 -->
<g id="edge2" class="edge">
<title>Node2&#45;&gt;Node3</title>
<path fill="none" stroke="midnightblue" d="M146.54,-235.4C130.67,-225.86 109.81,-213.32 94.03,-203.84"/>
<polygon fill="midnightblue" stroke="midnightblue" points="95.78,-200.81 85.41,-198.66 92.17,-206.81 95.78,-200.81"/>
</g>
<!-- Node10 -->
<g id="node10" class="node">
<title>Node10</title>
<g id="a_node10"><a xlink:title=" ">
<polygon fill="white" stroke="#bfbfbf" points="473,-123.5 473,-142.5 531,-142.5 531,-123.5 473,-123.5"/>
<text text-anchor="middle" x="502" y="-130.5" font-family="Helvetica,sans-Serif" font-size="10.00">memory</text>
</a>
</g>
</g>
<!-- Node2&#45;&gt;Node10 -->
<g id="edge11" class="edge">
<title>Node2&#45;&gt;Node10</title>
<path fill="none" stroke="midnightblue" d="M169.54,-235.24C169.86,-219.07 173.06,-193.12 189,-179 199.17,-169.98 380.97,-147.98 462.73,-138.49"/>
<polygon fill="midnightblue" stroke="midnightblue" points="463.35,-141.94 472.88,-137.31 462.55,-134.98 463.35,-141.94"/>
</g>
<!-- Node4 -->
<g id="node4" class="node">
<title>Node4</title>
<g id="a_node4"><a xlink:href="BoomerangAPI_8h.html" target="_top" xlink:title=" ">
<polygon fill="white" stroke="black" points="608.5,-56.5 608.5,-86.5 763.5,-86.5 763.5,-56.5 608.5,-56.5"/>
<text text-anchor="start" x="616.5" y="-74.5" font-family="Helvetica,sans-Serif" font-size="10.00">boomerang/core/Boomerang</text>
<text text-anchor="middle" x="686" y="-63.5" font-family="Helvetica,sans-Serif" font-size="10.00">API.h</text>
</a>
</g>
</g>
<!-- Node3&#45;&gt;Node4 -->
<g id="edge3" class="edge">
<title>Node3&#45;&gt;Node4</title>
<path fill="none" stroke="midnightblue" d="M142.13,-180.44C221.11,-171.6 343.36,-156.45 388,-143 407.8,-137.03 410.37,-129.5 430,-123 484.62,-104.92 548.05,-92.35 598.11,-84.28"/>
<polygon fill="midnightblue" stroke="midnightblue" points="598.93,-87.69 608.26,-82.67 597.83,-80.78 598.93,-87.69"/>
</g>
<!-- Node5 -->
<g id="node5" class="node">
<title>Node5</title>
<g id="a_node5"><a xlink:href="OStream_8h.html" target="_top" xlink:title=" ">
<polygon fill="white" stroke="black" points="233,-123.5 233,-142.5 379,-142.5 379,-123.5 233,-123.5"/>
<text text-anchor="middle" x="306" y="-130.5" font-family="Helvetica,sans-Serif" font-size="10.00">boomerang/util/OStream.h</text>
</a>
</g>
</g>
<!-- Node3&#45;&gt;Node5 -->
<g id="edge4" class="edge">
<title>Node3&#45;&gt;Node5</title>
<path fill="none" stroke="midnightblue" d="M108.24,-179.44C149.06,-170.06 214.64,-154.99 258.98,-144.8"/>
<polygon fill="midnightblue" stroke="midnightblue" points="259.98,-148.17 268.94,-142.52 258.41,-141.34 259.98,-148.17"/>
</g>
<!-- Node6 -->
<g id="node6" class="node">
<title>Node6</title>
<g id="a_node6"><a xlink:href="Types_8h.html" target="_top" xlink:title=" ">
<polygon fill="white" stroke="black" points="422.5,-62 422.5,-81 553.5,-81 553.5,-62 422.5,-62"/>
<text text-anchor="middle" x="488" y="-69" font-family="Helvetica,sans-Serif" font-size="10.00">boomerang/util/Types.h</text>
</a>
</g>
</g>
<!-- Node3&#45;&gt;Node6 -->
<g id="edge9" class="edge">
<title>Node3&#45;&gt;Node6</title>
<path fill="none" stroke="midnightblue" d="M87.99,-179.36C115.77,-165.57 172.92,-138.54 224,-123 286.39,-104.02 359.33,-90.71 412.71,-82.54"/>
<polygon fill="midnightblue" stroke="midnightblue" points="413.42,-85.97 422.78,-81.02 412.37,-79.05 413.42,-85.97"/>
</g>
<!-- Node9 -->
<g id="node9" class="node">
<title>Node9</title>
<g id="a_node9"><a xlink:title=" ">
<polygon fill="white" stroke="#bfbfbf" points="596.5,-123.5 596.5,-142.5 649.5,-142.5 649.5,-123.5 596.5,-123.5"/>
<text text-anchor="middle" x="623" y="-130.5" font-family="Helvetica,sans-Serif" font-size="10.00">QString</text>
</a>
</g>
</g>
<!-- Node3&#45;&gt;Node9 -->
<g id="edge10" class="edge">
<title>Node3&#45;&gt;Node9</title>
<path fill="none" stroke="midnightblue" d="M142.14,-181.45C234.06,-172.92 399.02,-157.41 540,-143 555.2,-141.45 571.96,-139.65 586.41,-138.07"/>
<polygon fill="midnightblue" stroke="midnightblue" points="586.91,-141.53 596.47,-136.96 586.15,-134.57 586.91,-141.53"/>
</g>
<!-- Node5&#45;&gt;Node4 -->
<g id="edge5" class="edge">
<title>Node5&#45;&gt;Node4</title>
<path fill="none" stroke="midnightblue" d="M360.44,-123.48C422.48,-113.76 524.74,-97.75 598.11,-86.26"/>
<polygon fill="midnightblue" stroke="midnightblue" points="598.92,-89.68 608.26,-84.67 597.84,-82.76 598.92,-89.68"/>
</g>
<!-- Node5&#45;&gt;Node6 -->
<g id="edge6" class="edge">
<title>Node5&#45;&gt;Node6</title>
<path fill="none" stroke="midnightblue" d="M332.08,-123.48C363.57,-113.18 416.7,-95.81 452.06,-84.25"/>
<polygon fill="midnightblue" stroke="midnightblue" points="453.55,-87.44 461.97,-81.01 451.38,-80.79 453.55,-87.44"/>
</g>
<!-- Node8 -->
<g id="node8" class="node">
<title>Node8</title>
<g id="a_node8"><a xlink:title=" ">
<polygon fill="white" stroke="#bfbfbf" points="283,-62 283,-81 329,-81 329,-62 283,-62"/>
<text text-anchor="middle" x="306" y="-69" font-family="Helvetica,sans-Serif" font-size="10.00">cstdio</text>
</a>
</g>
</g>
<!-- Node5&#45;&gt;Node8 -->
<g id="edge8" class="edge">
<title>Node5&#45;&gt;Node8</title>
<path fill="none" stroke="midnightblue" d="M306,-123.48C306,-115.08 306,-101.98 306,-91.16"/>
<polygon fill="midnightblue" stroke="midnightblue" points="309.5,-91.01 306,-81.01 302.5,-91.01 309.5,-91.01"/>
</g>
<!-- Node7 -->
<g id="node7" class="node">
<title>Node7</title>
<g id="a_node7"><a xlink:title=" ">
<polygon fill="white" stroke="#bfbfbf" points="463,-0.5 463,-19.5 513,-19.5 513,-0.5 463,-0.5"/>
<text text-anchor="middle" x="488" y="-7.5" font-family="Helvetica,sans-Serif" font-size="10.00">cstdint</text>
</a>
</g>
</g>
<!-- Node6&#45;&gt;Node7 -->
<g id="edge7" class="edge">
<title>Node6&#45;&gt;Node7</title>
<path fill="none" stroke="midnightblue" d="M488,-61.98C488,-53.58 488,-40.48 488,-29.66"/>
<polygon fill="midnightblue" stroke="midnightblue" points="491.5,-29.51 488,-19.51 484.5,-29.51 491.5,-29.51"/>
</g>
<!-- Node12 -->
<g id="node12" class="node">
<title>Node12</title>
<g id="a_node12"><a xlink:href="Type_8h.html" target="_top" xlink:title=" ">
<polygon fill="white" stroke="black" points="583.5,-235.5 583.5,-265.5 696.5,-265.5 696.5,-235.5 583.5,-235.5"/>
<text text-anchor="start" x="591.5" y="-253.5" font-family="Helvetica,sans-Serif" font-size="10.00">boomerang/ssl/type</text>
<text text-anchor="middle" x="640" y="-242.5" font-family="Helvetica,sans-Serif" font-size="10.00">/Type.h</text>
</a>
</g>
</g>
<!-- Node11&#45;&gt;Node12 -->
<g id="edge13" class="edge">
<title>Node11&#45;&gt;Node12</title>
<path fill="none" stroke="midnightblue" d="M719.57,-369.47C719.63,-352.34 717.63,-323.05 705,-302 697.68,-289.79 686.21,-279.44 674.94,-271.35"/>
<polygon fill="midnightblue" stroke="midnightblue" points="676.67,-268.29 666.43,-265.6 672.76,-274.1 676.67,-268.29"/>
</g>
<!-- Node12&#45;&gt;Node4 -->
<g id="edge14" class="edge">
<title>Node12&#45;&gt;Node4</title>
<path fill="none" stroke="midnightblue" d="M650.63,-235.26C657.31,-225.55 665.49,-212.12 670,-199 681.77,-164.74 685.03,-122.6 685.85,-96.65"/>
<polygon fill="midnightblue" stroke="midnightblue" points="689.35,-96.66 686.07,-86.58 682.35,-96.5 689.35,-96.66"/>
</g>
<!-- Node12&#45;&gt;Node6 -->
<g id="edge15" class="edge">
<title>Node12&#45;&gt;Node6</title>
<path fill="none" stroke="midnightblue" d="M635.3,-235.35C629.93,-220.43 620.14,-196.68 607,-179 578.59,-140.79 534.74,-105.91 508.95,-87.1"/>
<polygon fill="midnightblue" stroke="midnightblue" points="510.8,-84.12 500.64,-81.13 506.72,-89.8 510.8,-84.12"/>
</g>
<!-- Node12&#45;&gt;Node9 -->
<g id="edge16" class="edge">
<title>Node12&#45;&gt;Node9</title>
<path fill="none" stroke="midnightblue" d="M646.93,-235.24C652.98,-220.84 659.93,-198.06 654,-179 650.77,-168.62 644.22,-158.52 637.98,-150.53"/>
<polygon fill="midnightblue" stroke="midnightblue" points="640.58,-148.19 631.48,-142.77 635.21,-152.68 640.58,-148.19"/>
</g>
<!-- Node12&#45;&gt;Node10 -->
<g id="edge18" class="edge">
<title>Node12&#45;&gt;Node10</title>
<path fill="none" stroke="midnightblue" d="M631.05,-235.44C620.81,-220.17 602.88,-195.71 583,-179 567.46,-165.93 547.55,-154.81 531.36,-146.89"/>
<polygon fill="midnightblue" stroke="midnightblue" points="532.85,-143.73 522.32,-142.61 529.86,-150.06 532.85,-143.73"/>
</g>
<!-- Node13 -->
<g id="node13" class="node">
<title>Node13</title>
<g id="a_node13"><a xlink:title=" ">
<polygon fill="white" stroke="#bfbfbf" points="522,-179.5 522,-198.5 574,-198.5 574,-179.5 522,-179.5"/>
<text text-anchor="middle" x="548" y="-186.5" font-family="Helvetica,sans-Serif" font-size="10.00">cassert</text>
</a>
</g>
</g>
<!-- Node12&#45;&gt;Node13 -->
<g id="edge17" class="edge">
<title>Node12&#45;&gt;Node13</title>
<path fill="none" stroke="midnightblue" d="M618.2,-235.4C603.59,-225.95 584.43,-213.56 569.82,-204.11"/>
<polygon fill="midnightblue" stroke="midnightblue" points="571.68,-201.15 561.39,-198.66 567.88,-207.03 571.68,-201.15"/>
</g>
<!-- Node14&#45;&gt;Node12 -->
<g id="edge20" class="edge">
<title>Node14&#45;&gt;Node12</title>
<path fill="none" stroke="midnightblue" d="M528.03,-302.4C549.02,-292.86 576.94,-280.16 599.65,-269.84"/>
<polygon fill="midnightblue" stroke="midnightblue" points="601.38,-272.9 609.03,-265.58 598.48,-266.53 601.38,-272.9"/>
</g>
<!-- Node16&#45;&gt;Node4 -->
<g id="edge23" class="edge">
<title>Node16&#45;&gt;Node4</title>
<path fill="none" stroke="midnightblue" d="M805.3,-179.32C785.06,-161.19 737.81,-118.88 709.22,-93.29"/>
<polygon fill="midnightblue" stroke="midnightblue" points="711.47,-90.61 701.69,-86.55 706.8,-95.82 711.47,-90.61"/>
</g>
<!-- Node16&#45;&gt;Node6 -->
<g id="edge24" class="edge">
<title>Node16&#45;&gt;Node6</title>
<path fill="none" stroke="midnightblue" d="M795.91,-179.34C766.61,-166.22 708.61,-140.94 658,-123 614.95,-107.74 564.7,-93.21 530.06,-83.68"/>
<polygon fill="midnightblue" stroke="midnightblue" points="530.85,-80.27 520.28,-81.01 529,-87.02 530.85,-80.27"/>
</g>
<!-- Node16&#45;&gt;Node9 -->
<g id="edge25" class="edge">
<title>Node16&#45;&gt;Node9</title>
<path fill="none" stroke="midnightblue" d="M784.58,-179.44C750.56,-169.87 695.49,-154.39 659.26,-144.2"/>
<polygon fill="midnightblue" stroke="midnightblue" points="660.14,-140.81 649.57,-141.47 658.25,-147.55 660.14,-140.81"/>
</g>
<!-- Node16&#45;&gt;Node10 -->
<g id="edge26" class="edge">
<title>Node16&#45;&gt;Node10</title>
<path fill="none" stroke="midnightblue" d="M765.4,-179.44C703.25,-168.72 598.01,-150.56 541.19,-140.76"/>
<polygon fill="midnightblue" stroke="midnightblue" points="541.61,-137.28 531.16,-139.03 540.42,-144.18 541.61,-137.28"/>
</g>
<!-- Node17 -->
<g id="node17" class="node">
<title>Node17</title>
<g id="a_node17"><a xlink:title=" ">
<polygon fill="white" stroke="#bfbfbf" points="782,-123.5 782,-142.5 826,-142.5 826,-123.5 782,-123.5"/>
<text text-anchor="middle" x="804" y="-130.5" font-family="Helvetica,sans-Serif" font-size="10.00">string</text>
</a>
</g>
</g>
<!-- Node16&#45;&gt;Node17 -->
<g id="edge27" class="edge">
<title>Node16&#45;&gt;Node17</title>
<path fill="none" stroke="midnightblue" d="M813.18,-179.08C811.73,-171.93 809.63,-161.64 807.81,-152.69"/>
<polygon fill="midnightblue" stroke="midnightblue" points="811.21,-151.85 805.78,-142.75 804.35,-153.25 811.21,-151.85"/>
</g>
<!-- Node18 -->
<g id="node18" class="node">
<title>Node18</title>
<g id="a_node18"><a xlink:title=" ">
<polygon fill="white" stroke="#bfbfbf" points="844.5,-123.5 844.5,-142.5 913.5,-142.5 913.5,-123.5 844.5,-123.5"/>
<text text-anchor="middle" x="879" y="-130.5" font-family="Helvetica,sans-Serif" font-size="10.00">type_traits</text>
</a>
</g>
</g>
<!-- Node16&#45;&gt;Node18 -->
<g id="edge28" class="edge">
<title>Node16&#45;&gt;Node18</title>
<path fill="none" stroke="midnightblue" d="M825.28,-179.32C834.84,-171.26 849.28,-159.08 860.78,-149.37"/>
<polygon fill="midnightblue" stroke="midnightblue" points="863.14,-151.96 868.53,-142.83 858.63,-146.61 863.14,-151.96"/>
</g>
<!-- Node19&#45;&gt;Node4 -->
<g id="edge30" class="edge">
<title>Node19&#45;&gt;Node4</title>
<path fill="none" stroke="midnightblue" d="M935.43,-240.81C941.16,-218.24 952.92,-157.12 923,-123 903.34,-100.57 832.74,-87.5 773.67,-80.29"/>
<polygon fill="midnightblue" stroke="midnightblue" points="773.89,-76.8 763.55,-79.1 773.07,-83.75 773.89,-76.8"/>
</g>
<!-- Node21 -->
<g id="node21" class="node">
<title>Node21</title>
<g id="a_node21"><a xlink:href="TypingStatement_8h.html" target="_top" xlink:title=" ">
<polygon fill="white" stroke="black" points="263.5,-302.5 263.5,-332.5 410.5,-332.5 410.5,-302.5 263.5,-302.5"/>
<text text-anchor="start" x="271.5" y="-320.5" font-family="Helvetica,sans-Serif" font-size="10.00">boomerang/ssl/statements</text>
<text text-anchor="middle" x="337" y="-309.5" font-family="Helvetica,sans-Serif" font-size="10.00">/TypingStatement.h</text>
</a>
</g>
</g>
<!-- Node20&#45;&gt;Node21 -->
<g id="edge32" class="edge">
<title>Node20&#45;&gt;Node21</title>
<path fill="none" stroke="midnightblue" d="M394.16,-369.4C384.31,-360.62 371.46,-349.18 360.44,-339.37"/>
<polygon fill="midnightblue" stroke="midnightblue" points="362.6,-336.61 352.81,-332.58 357.95,-341.84 362.6,-336.61"/>
</g>
<!-- Node22 -->
<g id="node22" class="node">
<title>Node22</title>
<g id="a_node22"><a xlink:href="Statement_8h.html" target="_top" xlink:title=" ">
<polygon fill="white" stroke="black" points="263.5,-235.5 263.5,-265.5 410.5,-265.5 410.5,-235.5 263.5,-235.5"/>
<text text-anchor="start" x="271.5" y="-253.5" font-family="Helvetica,sans-Serif" font-size="10.00">boomerang/ssl/statements</text>
<text text-anchor="middle" x="337" y="-242.5" font-family="Helvetica,sans-Serif" font-size="10.00">/Statement.h</text>
</a>
</g>
</g>
<!-- Node21&#45;&gt;Node22 -->
<g id="edge33" class="edge">
<title>Node21&#45;&gt;Node22</title>
<path fill="none" stroke="midnightblue" d="M337,-302.4C337,-294.64 337,-284.81 337,-275.86"/>
<polygon fill="midnightblue" stroke="midnightblue" points="340.5,-275.58 337,-265.58 333.5,-275.58 340.5,-275.58"/>
</g>
<!-- Node22&#45;&gt;Node3 -->
<g id="edge37" class="edge">
<title>Node22&#45;&gt;Node3</title>
<path fill="none" stroke="midnightblue" d="M274.3,-235.47C226.8,-224.85 162.53,-210.47 119.06,-200.75"/>
<polygon fill="midnightblue" stroke="midnightblue" points="119.55,-197.27 109.03,-198.51 118.02,-204.1 119.55,-197.27"/>
</g>
<!-- Node22&#45;&gt;Node10 -->
<g id="edge41" class="edge">
<title>Node22&#45;&gt;Node10</title>
<path fill="none" stroke="midnightblue" d="M408.83,-235.42C432.24,-227.87 456.85,-216.38 475,-199 487.94,-186.61 494.91,-167.09 498.51,-152.67"/>
<polygon fill="midnightblue" stroke="midnightblue" points="501.94,-153.36 500.65,-142.84 495.1,-151.87 501.94,-153.36"/>
</g>
<!-- Node22&#45;&gt;Node13 -->
<g id="edge38" class="edge">
<title>Node22&#45;&gt;Node13</title>
<path fill="none" stroke="midnightblue" d="M386.74,-235.47C425.22,-224.62 477.58,-209.86 512.07,-200.13"/>
<polygon fill="midnightblue" stroke="midnightblue" points="513.05,-203.49 521.72,-197.41 511.15,-196.76 513.05,-203.49"/>
</g>
<!-- Node23 -->
<g id="node23" class="node">
<title>Node23</title>
<g id="a_node23"><a xlink:href="ExpHelp_8h.html" target="_top" xlink:title=" ">
<polygon fill="white" stroke="black" points="304,-179.5 304,-198.5 466,-198.5 466,-179.5 304,-179.5"/>
<text text-anchor="middle" x="385" y="-186.5" font-family="Helvetica,sans-Serif" font-size="10.00">boomerang/ssl/exp/ExpHelp.h</text>
</a>
</g>
</g>
<!-- Node22&#45;&gt;Node23 -->
<g id="edge34" class="edge">
<title>Node22&#45;&gt;Node23</title>
<path fill="none" stroke="midnightblue" d="M348.38,-235.4C355.35,-226.75 364.31,-215.64 371.63,-206.58"/>
<polygon fill="midnightblue" stroke="midnightblue" points="374.46,-208.64 378.02,-198.66 369.01,-204.24 374.46,-208.64"/>
</g>
<!-- Node24 -->
<g id="node24" class="node">
<title>Node24</title>
<g id="a_node24"><a xlink:title=" ">
<polygon fill="white" stroke="#bfbfbf" points="198,-179.5 198,-198.5 230,-198.5 230,-179.5 198,-179.5"/>
<text text-anchor="middle" x="214" y="-186.5" font-family="Helvetica,sans-Serif" font-size="10.00">list</text>
</a>
</g>
</g>
<!-- Node22&#45;&gt;Node24 -->
<g id="edge39" class="edge">
<title>Node22&#45;&gt;Node24</title>
<path fill="none" stroke="midnightblue" d="M307.85,-235.4C286.97,-225.3 259.14,-211.83 239.21,-202.2"/>
<polygon fill="midnightblue" stroke="midnightblue" points="240.66,-199.01 230.13,-197.8 237.61,-205.31 240.66,-199.01"/>
</g>
<!-- Node25 -->
<g id="node25" class="node">
<title>Node25</title>
<g id="a_node25"><a xlink:title=" ">
<polygon fill="white" stroke="#bfbfbf" points="248,-179.5 248,-198.5 286,-198.5 286,-179.5 248,-179.5"/>
<text text-anchor="middle" x="267" y="-186.5" font-family="Helvetica,sans-Serif" font-size="10.00">map</text>
</a>
</g>
</g>
<!-- Node22&#45;&gt;Node25 -->
<g id="edge40" class="edge">
<title>Node22&#45;&gt;Node25</title>
<path fill="none" stroke="midnightblue" d="M320.41,-235.4C309.71,-226.31 295.81,-214.49 284.87,-205.19"/>
<polygon fill="midnightblue" stroke="midnightblue" points="287.07,-202.47 277.19,-198.66 282.54,-207.8 287.07,-202.47"/>
</g>
<!-- Node23&#45;&gt;Node4 -->
<g id="edge35" class="edge">
<title>Node23&#45;&gt;Node4</title>
<path fill="none" stroke="midnightblue" d="M392.84,-179.34C406.08,-165.27 434.34,-137.55 464,-123 505.8,-102.49 556.15,-90.16 598.31,-82.83"/>
<polygon fill="midnightblue" stroke="midnightblue" points="599,-86.26 608.29,-81.16 597.85,-79.36 599,-86.26"/>
</g>
<!-- Node23&#45;&gt;Node10 -->
<g id="edge36" class="edge">
<title>Node23&#45;&gt;Node10</title>
<path fill="none" stroke="midnightblue" d="M403.54,-179.44C422.62,-170.64 452.57,-156.81 474.44,-146.72"/>
<polygon fill="midnightblue" stroke="midnightblue" points="475.93,-149.88 483.55,-142.52 473,-143.53 475.93,-149.88"/>
</g>
<!-- Node26&#45;&gt;Node12 -->
<g id="edge43" class="edge">
<title>Node26&#45;&gt;Node12</title>
<path fill="none" stroke="midnightblue" d="M640,-302.4C640,-294.64 640,-284.81 640,-275.86"/>
<polygon fill="midnightblue" stroke="midnightblue" points="643.5,-275.58 640,-265.58 636.5,-275.58 643.5,-275.58"/>
</g>
</g>
</svg>
        <g id="navigator" transform="translate(0 0)" fill="#404254">
                <rect fill="#f2f5e9" fill-opacity="0.5" stroke="#606060" stroke-width=".5" x="0" y="0" width="60" height="60"/>
                <use id="zoomplus" xlink:href="#zoomPlus" x="17" y="9" onmousedown="handleZoom(evt,'in')"/>
                <use id="zoomminus" xlink:href="#zoomMin" x="42" y="9" onmousedown="handleZoom(evt,'out')"/>
                <use id="reset" xlink:href="#resetDef" x="30" y="36" onmousedown="handleReset()"/>
                <g id="arrowUp" xlink:href="#dirArrow" transform="translate(30 24)" onmousedown="handlePan(0,-1)">
                  <use xlink:href="#rim" fill="#404040">
                        <set attributeName="fill" to="#808080" begin="arrowUp.mouseover" end="arrowUp.mouseout"/>
                  </use>
                  <path fill="none" stroke="white" stroke-width="1.5" d="M0,-3.0v7 M-2.5,-0.5L0,-3.0L2.5,-0.5"/>
                </g>
                <g id="arrowRight" xlink:href="#dirArrow" transform="rotate(90) translate(36 -43)" onmousedown="handlePan(1,0)">
                  <use xlink:href="#rim" fill="#404040">
                        <set attributeName="fill" to="#808080" begin="arrowRight.mouseover" end="arrowRight.mouseout"/>
                  </use>
                  <path fill="none" stroke="white" stroke-width="1.5" d="M0,-3.0v7 M-2.5,-0.5L0,-3.0L2.5,-0.5"/>
                </g>
                <g id="arrowDown" xlink:href="#dirArrow" transform="rotate(180) translate(-30 -48)" onmousedown="handlePan(0,1)">
                  <use xlink:href="#rim" fill="#404040">
                        <set attributeName="fill" to="#808080" begin="arrowDown.mouseover" end="arrowDown.mouseout"/>
                  </use>
                  <path fill="none" stroke="white" stroke-width="1.5" d="M0,-3.0v7 M-2.5,-0.5L0,-3.0L2.5,-0.5"/>
                </g>
                <g id="arrowLeft" xlink:href="#dirArrow" transform="rotate(270) translate(-36 17)" onmousedown="handlePan(-1,0)">
                  <use xlink:href="#rim" fill="#404040">
                        <set attributeName="fill" to="#808080" begin="arrowLeft.mouseover" end="arrowLeft.mouseout"/>
                  </use>
                  <path fill="none" stroke="white" stroke-width="1.5" d="M0,-3.0v7 M-2.5,-0.5L0,-3.0L2.5,-0.5"/>
                </g>
        </g>
        <svg viewBox="0 0 15 15" width="100%" height="30px" preserveAspectRatio="xMaxYMin meet">
         <g id="arrow_out" transform="scale(0.3 0.3)">
          <a xlink:href="Signature_8h__incl_org.svg" target="_base">
           <rect id="button" ry="5" rx="5" y="6" x="6" height="38" width="38"
                fill="#f2f5e9" fill-opacity="0.5" stroke="#606060" stroke-width="1.0"/>
           <path id="arrow"
             d="M 11.500037,31.436501 C 11.940474,20.09759 22.043105,11.32322 32.158766,21.979434 L 37.068811,17.246167 C 37.068811,17.246167 37.088388,32 37.088388,32 L 22.160133,31.978069 C 22.160133,31.978069 26.997745,27.140456 26.997745,27.140456 C 18.528582,18.264221 13.291696,25.230495 11.500037,31.436501 z"
             style="fill:#404040;"/>
          </a>
         </g>
        </svg>
</svg>
