<?xml version="1.0" encoding="UTF-8" standalone="no"?>
<!DOCTYPE svg PUBLIC "-//W3C//DTD SVG 1.1//EN"
 "http://www.w3.org/Graphics/SVG/1.1/DTD/svg11.dtd">
<!-- Generated by graphviz version 2.43.0 (0)
 -->
<!-- Title: SizeType.h Pages: 1 -->
<!--zoomable 84 -->
<svg id="main" version="1.1" xmlns="http://www.w3.org/2000/svg" xmlns:xlink="http://www.w3.org/1999/xlink" xml:space="preserve" onload="init(evt)">
<style type="text/css"><![CDATA[
.edge:hover path { stroke: red; }
.edge:hover polygon { stroke: red; fill: red; }
]]></style>
<script type="text/javascript"><![CDATA[
var edges = document.getElementsByTagName('g');
if (edges && edges.length) {
  for (var i=0;i<edges.length;i++) {
    if (edges[i].id.substr(0,4)=='edge') {
      edges[i].setAttribute('class','edge');
    }
  }
}
]]></script>
        <defs>
                <circle id="rim" cx="0" cy="0" r="7"/>
                <circle id="rim2" cx="0" cy="0" r="3.5"/>
                <g id="zoomPlus">
                        <use xlink:href="#rim" fill="#404040">
                                <set attributeName="fill" to="#808080" begin="zoomplus.mouseover" end="zoomplus.mouseout"/>
                        </use>
                        <path d="M-4,0h8M0,-4v8" fill="none" stroke="white" stroke-width="1.5" pointer-events="none"/>
                </g>
                <g id="zoomMin">
                        <use xlink:href="#rim" fill="#404040">
                                <set attributeName="fill" to="#808080" begin="zoomminus.mouseover" end="zoomminus.mouseout"/>
                        </use>
                        <path d="M-4,0h8" fill="none" stroke="white" stroke-width="1.5" pointer-events="none"/>
                </g>
                <g id="dirArrow">
                        <path fill="none" stroke="white" stroke-width="1.5" d="M0,-3.0v7 M-2.5,-0.5L0,-3.0L2.5,-0.5"/>
                </g>
               <g id="resetDef">
                       <use xlink:href="#rim2" fill="#404040">
                               <set attributeName="fill" to="#808080" begin="reset.mouseover" end="reset.mouseout"/>
                       </use>
               </g>
        </defs>

<script type="text/javascript">
var viewWidth = 2181;
var viewHeight = 84;
var sectionId = 'dynsection-1';
</script>
<script xlink:href="svgpan.js"/>
<svg id="graph" class="graph">
<g id="viewport">
<title>SizeType.h</title>
<polygon fill="white" stroke="transparent" points="-4,4 -4,-80 2177,-80 2177,4 -4,4"/>
<!-- Node1 -->
<g id="node1" class="node">
<title>Node1</title>
<g id="a_node1"><a xlink:title=" ">
<polygon fill="#bfbfbf" stroke="black" points="1011,-56.5 1011,-75.5 1079,-75.5 1079,-56.5 1011,-56.5"/>
<text text-anchor="middle" x="1045" y="-63.5" font-family="Helvetica,sans-Serif" font-size="10.00">SizeType.h</text>
</a>
</g>
</g>
<!-- Node2 -->
<g id="node2" class="node">
<title>Node2</title>
<g id="a_node2"><a xlink:href="Global_8cpp.html" target="_top" xlink:title=" ">
<polygon fill="white" stroke="black" points="0,-0.5 0,-19.5 68,-19.5 68,-0.5 0,-0.5"/>
<text text-anchor="middle" x="34" y="-7.5" font-family="Helvetica,sans-Serif" font-size="10.00">Global.cpp</text>
</a>
</g>
</g>
<!-- Node1&#45;&gt;Node2 -->
<g id="edge1" class="edge">
<title>Node1&#45;&gt;Node2</title>
<path fill="none" stroke="midnightblue" d="M1000.83,-65.45C863.37,-66.32 431.19,-65.01 77,-20 74.12,-19.63 71.16,-19.18 68.18,-18.67"/>
<polygon fill="midnightblue" stroke="midnightblue" points="1000.99,-68.95 1010.97,-65.38 1000.94,-61.95 1000.99,-68.95"/>
</g>
<!-- Node3 -->
<g id="node3" class="node">
<title>Node3</title>
<g id="a_node3"><a xlink:href="Prog_8cpp.html" target="_top" xlink:title=" ">
<polygon fill="white" stroke="black" points="86.5,-0.5 86.5,-19.5 145.5,-19.5 145.5,-0.5 86.5,-0.5"/>
<text text-anchor="middle" x="116" y="-7.5" font-family="Helvetica,sans-Serif" font-size="10.00">Prog.cpp</text>
</a>
</g>
</g>
<!-- Node1&#45;&gt;Node3 -->
<g id="edge2" class="edge">
<title>Node1&#45;&gt;Node3</title>
<path fill="none" stroke="midnightblue" d="M1000.79,-65.6C870.43,-66.77 476.47,-65.94 154,-20 151.32,-19.62 148.54,-19.13 145.77,-18.59"/>
<polygon fill="midnightblue" stroke="midnightblue" points="1000.83,-69.1 1010.8,-65.5 1000.76,-62.1 1000.83,-69.1"/>
</g>
<!-- Node4 -->
<g id="node4" class="node">
<title>Node4</title>
<g id="a_node4"><a xlink:href="Signature_8cpp.html" target="_top" xlink:title=" ">
<polygon fill="white" stroke="black" points="163.5,-0.5 163.5,-19.5 246.5,-19.5 246.5,-0.5 163.5,-0.5"/>
<text text-anchor="middle" x="205" y="-7.5" font-family="Helvetica,sans-Serif" font-size="10.00">Signature.cpp</text>
</a>
</g>
</g>
<!-- Node1&#45;&gt;Node4 -->
<g id="edge3" class="edge">
<title>Node1&#45;&gt;Node4</title>
<path fill="none" stroke="midnightblue" d="M1000.36,-64.29C879.87,-61.99 538.11,-52.82 256,-20 252.96,-19.65 249.83,-19.23 246.69,-18.77"/>
<polygon fill="midnightblue" stroke="midnightblue" points="1000.59,-67.8 1010.65,-64.48 1000.72,-60.8 1000.59,-67.8"/>
</g>
<!-- Node5 -->
<g id="node5" class="node">
<title>Node5</title>
<g id="a_node5"><a xlink:href="Win32Signature_8cpp.html" target="_top" xlink:title=" ">
<polygon fill="white" stroke="black" points="265,-0.5 265,-19.5 379,-19.5 379,-0.5 265,-0.5"/>
<text text-anchor="middle" x="322" y="-7.5" font-family="Helvetica,sans-Serif" font-size="10.00">Win32Signature.cpp</text>
</a>
</g>
</g>
<!-- Node1&#45;&gt;Node5 -->
<g id="edge4" class="edge">
<title>Node1&#45;&gt;Node5</title>
<path fill="none" stroke="midnightblue" d="M1000.72,-63C894.71,-57.97 618.05,-43.54 388,-20 385.12,-19.71 382.18,-19.38 379.21,-19.04"/>
<polygon fill="midnightblue" stroke="midnightblue" points="1000.58,-66.49 1010.73,-63.47 1000.91,-59.5 1000.58,-66.49"/>
</g>
<!-- Node6 -->
<g id="node6" class="node">
<title>Node6</title>
<g id="a_node6"><a xlink:href="X86Signature_8cpp.html" target="_top" xlink:title=" ">
<polygon fill="white" stroke="black" points="397,-0.5 397,-19.5 499,-19.5 499,-0.5 397,-0.5"/>
<text text-anchor="middle" x="448" y="-7.5" font-family="Helvetica,sans-Serif" font-size="10.00">X86Signature.cpp</text>
</a>
</g>
</g>
<!-- Node1&#45;&gt;Node6 -->
<g id="edge5" class="edge">
<title>Node1&#45;&gt;Node6</title>
<path fill="none" stroke="midnightblue" d="M1000.95,-62.29C909.11,-56.41 690.53,-41.31 508,-20 505.07,-19.66 502.06,-19.28 499.03,-18.89"/>
<polygon fill="midnightblue" stroke="midnightblue" points="1000.79,-65.78 1011,-62.92 1001.24,-58.8 1000.79,-65.78"/>
</g>
<!-- Node7 -->
<g id="node7" class="node">
<title>Node7</title>
<g id="a_node7"><a xlink:href="Binary_8cpp.html" target="_top" xlink:title=" ">
<polygon fill="white" stroke="black" points="517.5,-0.5 517.5,-19.5 584.5,-19.5 584.5,-0.5 517.5,-0.5"/>
<text text-anchor="middle" x="551" y="-7.5" font-family="Helvetica,sans-Serif" font-size="10.00">Binary.cpp</text>
</a>
</g>
</g>
<!-- Node1&#45;&gt;Node7 -->
<g id="edge6" class="edge">
<title>Node1&#45;&gt;Node7</title>
<path fill="none" stroke="midnightblue" d="M1000.46,-62.22C919.15,-56.79 741.38,-43.21 593,-20 590.35,-19.59 587.61,-19.11 584.87,-18.6"/>
<polygon fill="midnightblue" stroke="midnightblue" points="1000.6,-65.74 1010.81,-62.91 1001.07,-58.76 1000.6,-65.74"/>
</g>
<!-- Node8 -->
<g id="node8" class="node">
<title>Node8</title>
<g id="a_node8"><a xlink:href="SSL2Parser_8cpp.html" target="_top" xlink:title=" ">
<polygon fill="white" stroke="black" points="602.5,-0.5 602.5,-19.5 693.5,-19.5 693.5,-0.5 602.5,-0.5"/>
<text text-anchor="middle" x="648" y="-7.5" font-family="Helvetica,sans-Serif" font-size="10.00">SSL2Parser.cpp</text>
</a>
</g>
</g>
<!-- Node1&#45;&gt;Node8 -->
<g id="edge7" class="edge">
<title>Node1&#45;&gt;Node8</title>
<path fill="none" stroke="midnightblue" d="M1000.91,-59.71C935.55,-51.76 809.14,-35.95 702,-20 699.27,-19.59 696.47,-19.16 693.65,-18.72"/>
<polygon fill="midnightblue" stroke="midnightblue" points="1000.52,-63.19 1010.87,-60.92 1001.36,-56.24 1000.52,-63.19"/>
</g>
<!-- Node9 -->
<g id="node9" class="node">
<title>Node9</title>
<g id="a_node9"><a xlink:href="SSL2Scanner_8cpp.html" target="_top" xlink:title=" ">
<polygon fill="white" stroke="black" points="711.5,-0.5 711.5,-19.5 810.5,-19.5 810.5,-0.5 711.5,-0.5"/>
<text text-anchor="middle" x="761" y="-7.5" font-family="Helvetica,sans-Serif" font-size="10.00">SSL2Scanner.cpp</text>
</a>
</g>
</g>
<!-- Node1&#45;&gt;Node9 -->
<g id="edge8" class="edge">
<title>Node1&#45;&gt;Node9</title>
<path fill="none" stroke="midnightblue" d="M1000.63,-56.56C947.64,-46.49 859.48,-29.72 806.14,-19.58"/>
<polygon fill="midnightblue" stroke="midnightblue" points="1000.27,-60.06 1010.74,-58.49 1001.57,-53.18 1000.27,-60.06"/>
</g>
<!-- Node10 -->
<g id="node10" class="node">
<title>Node10</title>
<g id="a_node10"><a xlink:href="Assignment_8cpp.html" target="_top" xlink:title=" ">
<polygon fill="white" stroke="black" points="828.5,-0.5 828.5,-19.5 923.5,-19.5 923.5,-0.5 828.5,-0.5"/>
<text text-anchor="middle" x="876" y="-7.5" font-family="Helvetica,sans-Serif" font-size="10.00">Assignment.cpp</text>
</a>
</g>
</g>
<!-- Node1&#45;&gt;Node10 -->
<g id="edge9" class="edge">
<title>Node1&#45;&gt;Node10</title>
<path fill="none" stroke="midnightblue" d="M1008.4,-53.3C976.55,-43.13 931.16,-28.62 902.65,-19.52"/>
<polygon fill="midnightblue" stroke="midnightblue" points="1007.63,-56.73 1018.22,-56.44 1009.76,-50.07 1007.63,-56.73"/>
</g>
<!-- Node11 -->
<g id="node11" class="node">
<title>Node11</title>
<g id="a_node11"><a xlink:href="BooleanType_8cpp.html" target="_top" xlink:title=" ">
<polygon fill="white" stroke="black" points="941.5,-0.5 941.5,-19.5 1040.5,-19.5 1040.5,-0.5 941.5,-0.5"/>
<text text-anchor="middle" x="991" y="-7.5" font-family="Helvetica,sans-Serif" font-size="10.00">BooleanType.cpp</text>
</a>
</g>
</g>
<!-- Node1&#45;&gt;Node11 -->
<g id="edge10" class="edge">
<title>Node1&#45;&gt;Node11</title>
<path fill="none" stroke="midnightblue" d="M1029,-49C1019.43,-39.43 1007.64,-27.64 999.75,-19.75"/>
<polygon fill="midnightblue" stroke="midnightblue" points="1026.54,-51.49 1036.08,-56.08 1031.49,-46.54 1026.54,-51.49"/>
</g>
<!-- Node12 -->
<g id="node12" class="node">
<title>Node12</title>
<g id="a_node12"><a xlink:href="CharType_8cpp.html" target="_top" xlink:title=" ">
<polygon fill="white" stroke="black" points="1059,-0.5 1059,-19.5 1141,-19.5 1141,-0.5 1059,-0.5"/>
<text text-anchor="middle" x="1100" y="-7.5" font-family="Helvetica,sans-Serif" font-size="10.00">CharType.cpp</text>
</a>
</g>
</g>
<!-- Node1&#45;&gt;Node12 -->
<g id="edge11" class="edge">
<title>Node1&#45;&gt;Node12</title>
<path fill="none" stroke="midnightblue" d="M1061.29,-49C1071.04,-39.43 1083.05,-27.64 1091.09,-19.75"/>
<polygon fill="midnightblue" stroke="midnightblue" points="1058.77,-46.58 1054.08,-56.08 1063.67,-51.57 1058.77,-46.58"/>
</g>
<!-- Node13 -->
<g id="node13" class="node">
<title>Node13</title>
<g id="a_node13"><a xlink:href="CompoundType_8cpp.html" target="_top" xlink:title=" ">
<polygon fill="white" stroke="black" points="1159,-0.5 1159,-19.5 1271,-19.5 1271,-0.5 1159,-0.5"/>
<text text-anchor="middle" x="1215" y="-7.5" font-family="Helvetica,sans-Serif" font-size="10.00">CompoundType.cpp</text>
</a>
</g>
</g>
<!-- Node1&#45;&gt;Node13 -->
<g id="edge12" class="edge">
<title>Node1&#45;&gt;Node13</title>
<path fill="none" stroke="midnightblue" d="M1081.82,-53.3C1113.85,-43.13 1159.52,-28.62 1188.19,-19.52"/>
<polygon fill="midnightblue" stroke="midnightblue" points="1080.41,-50.08 1071.94,-56.44 1082.53,-56.75 1080.41,-50.08"/>
</g>
<!-- Node14 -->
<g id="node14" class="node">
<title>Node14</title>
<g id="a_node14"><a xlink:href="FloatType_8cpp.html" target="_top" xlink:title=" ">
<polygon fill="white" stroke="black" points="1289,-0.5 1289,-19.5 1373,-19.5 1373,-0.5 1289,-0.5"/>
<text text-anchor="middle" x="1331" y="-7.5" font-family="Helvetica,sans-Serif" font-size="10.00">FloatType.cpp</text>
</a>
</g>
</g>
<!-- Node1&#45;&gt;Node14 -->
<g id="edge13" class="edge">
<title>Node1&#45;&gt;Node14</title>
<path fill="none" stroke="midnightblue" d="M1089.25,-56.64C1143.68,-46.37 1235.42,-29.05 1288.86,-18.96"/>
<polygon fill="midnightblue" stroke="midnightblue" points="1088.39,-53.25 1079.21,-58.54 1089.69,-60.12 1088.39,-53.25"/>
</g>
<!-- Node15 -->
<g id="node15" class="node">
<title>Node15</title>
<g id="a_node15"><a xlink:href="FuncType_8cpp.html" target="_top" xlink:title=" ">
<polygon fill="white" stroke="black" points="1391,-0.5 1391,-19.5 1473,-19.5 1473,-0.5 1391,-0.5"/>
<text text-anchor="middle" x="1432" y="-7.5" font-family="Helvetica,sans-Serif" font-size="10.00">FuncType.cpp</text>
</a>
</g>
</g>
<!-- Node1&#45;&gt;Node15 -->
<g id="edge14" class="edge">
<title>Node1&#45;&gt;Node15</title>
<path fill="none" stroke="midnightblue" d="M1089.25,-59.74C1153.75,-51.93 1277.32,-36.4 1382,-20 1384.88,-19.55 1387.84,-19.07 1390.82,-18.56"/>
<polygon fill="midnightblue" stroke="midnightblue" points="1088.54,-56.3 1079.04,-60.97 1089.38,-63.25 1088.54,-56.3"/>
</g>
<!-- Node16 -->
<g id="node16" class="node">
<title>Node16</title>
<g id="a_node16"><a xlink:href="IntegerType_8cpp.html" target="_top" xlink:title=" ">
<polygon fill="white" stroke="black" points="1491,-0.5 1491,-19.5 1585,-19.5 1585,-0.5 1491,-0.5"/>
<text text-anchor="middle" x="1538" y="-7.5" font-family="Helvetica,sans-Serif" font-size="10.00">IntegerType.cpp</text>
</a>
</g>
</g>
<!-- Node1&#45;&gt;Node16 -->
<g id="edge15" class="edge">
<title>Node1&#45;&gt;Node16</title>
<path fill="none" stroke="midnightblue" d="M1089.15,-61.29C1168.12,-54.46 1338.71,-38.88 1482,-20 1484.93,-19.61 1487.94,-19.2 1490.97,-18.76"/>
<polygon fill="midnightblue" stroke="midnightblue" points="1088.74,-57.81 1079.07,-62.15 1089.34,-64.78 1088.74,-57.81"/>
</g>
<!-- Node17 -->
<g id="node17" class="node">
<title>Node17</title>
<g id="a_node17"><a xlink:href="PointerType_8cpp.html" target="_top" xlink:title=" ">
<polygon fill="white" stroke="black" points="1603,-0.5 1603,-19.5 1697,-19.5 1697,-0.5 1603,-0.5"/>
<text text-anchor="middle" x="1650" y="-7.5" font-family="Helvetica,sans-Serif" font-size="10.00">PointerType.cpp</text>
</a>
</g>
</g>
<!-- Node1&#45;&gt;Node17 -->
<g id="edge16" class="edge">
<title>Node1&#45;&gt;Node17</title>
<path fill="none" stroke="midnightblue" d="M1089.36,-62.53C1182.89,-57.08 1407.06,-42.65 1594,-20 1596.93,-19.64 1599.95,-19.25 1602.98,-18.83"/>
<polygon fill="midnightblue" stroke="midnightblue" points="1088.92,-59.05 1079.14,-63.13 1089.33,-66.04 1088.92,-59.05"/>
</g>
<!-- Node18 -->
<g id="node18" class="node">
<title>Node18</title>
<g id="a_node18"><a xlink:href="SizeType_8cpp.html" target="_top" xlink:title=" ">
<polygon fill="white" stroke="black" points="1715,-0.5 1715,-19.5 1795,-19.5 1795,-0.5 1715,-0.5"/>
<text text-anchor="middle" x="1755" y="-7.5" font-family="Helvetica,sans-Serif" font-size="10.00">SizeType.cpp</text>
</a>
</g>
</g>
<!-- Node1&#45;&gt;Node18 -->
<g id="edge17" class="edge">
<title>Node1&#45;&gt;Node18</title>
<path fill="none" stroke="midnightblue" d="M1089.25,-63.72C1195.79,-60.28 1474.88,-49 1706,-20 1708.92,-19.63 1711.92,-19.21 1714.95,-18.74"/>
<polygon fill="midnightblue" stroke="midnightblue" points="1089.07,-60.23 1079.19,-64.04 1089.29,-67.23 1089.07,-60.23"/>
</g>
<!-- Node19 -->
<g id="node19" class="node">
<title>Node19</title>
<g id="a_node19"><a xlink:href="Type_8cpp.html" target="_top" xlink:title=" ">
<polygon fill="white" stroke="black" points="1813.5,-0.5 1813.5,-19.5 1872.5,-19.5 1872.5,-0.5 1813.5,-0.5"/>
<text text-anchor="middle" x="1843" y="-7.5" font-family="Helvetica,sans-Serif" font-size="10.00">Type.cpp</text>
</a>
</g>
</g>
<!-- Node1&#45;&gt;Node19 -->
<g id="edge18" class="edge">
<title>Node1&#45;&gt;Node19</title>
<path fill="none" stroke="midnightblue" d="M1089.28,-64.96C1206.52,-64.29 1534.49,-58.81 1804,-20 1807.03,-19.56 1810.16,-19.01 1813.29,-18.4"/>
<polygon fill="midnightblue" stroke="midnightblue" points="1089.23,-61.46 1079.25,-65.01 1089.26,-68.46 1089.23,-61.46"/>
</g>
<!-- Node20 -->
<g id="node20" class="node">
<title>Node20</title>
<g id="a_node20"><a xlink:href="CapstonePPCDecoder_8cpp.html" target="_top" xlink:title=" ">
<polygon fill="white" stroke="black" points="1891,-0.5 1891,-19.5 2033,-19.5 2033,-0.5 1891,-0.5"/>
<text text-anchor="middle" x="1962" y="-7.5" font-family="Helvetica,sans-Serif" font-size="10.00">CapstonePPCDecoder.cpp</text>
</a>
</g>
</g>
<!-- Node1&#45;&gt;Node20 -->
<g id="edge19" class="edge">
<title>Node1&#45;&gt;Node20</title>
<path fill="none" stroke="midnightblue" d="M1089.66,-63.52C1214.84,-59.16 1579.74,-45.11 1882,-20 1884.92,-19.76 1887.91,-19.49 1890.92,-19.21"/>
<polygon fill="midnightblue" stroke="midnightblue" points="1089.2,-60.03 1079.33,-63.87 1089.45,-67.03 1089.2,-60.03"/>
</g>
<!-- Node21 -->
<g id="node21" class="node">
<title>Node21</title>
<g id="a_node21"><a xlink:href="DFATypeRecovery_8cpp.html" target="_top" xlink:title=" ">
<polygon fill="white" stroke="black" points="2051,-0.5 2051,-19.5 2173,-19.5 2173,-0.5 2051,-0.5"/>
<text text-anchor="middle" x="2112" y="-7.5" font-family="Helvetica,sans-Serif" font-size="10.00">DFATypeRecovery.cpp</text>
</a>
</g>
</g>
<!-- Node1&#45;&gt;Node21 -->
<g id="edge20" class="edge">
<title>Node1&#45;&gt;Node21</title>
<path fill="none" stroke="midnightblue" d="M1089.39,-64.31C1229.5,-61.83 1674.82,-51.84 2042,-20 2044.93,-19.75 2047.93,-19.46 2050.95,-19.15"/>
<polygon fill="midnightblue" stroke="midnightblue" points="1089.01,-60.81 1079.07,-64.48 1089.13,-67.81 1089.01,-60.81"/>
</g>
</g>
</svg>
        <g id="navigator" transform="translate(0 0)" fill="#404254">
                <rect fill="#f2f5e9" fill-opacity="0.5" stroke="#606060" stroke-width=".5" x="0" y="0" width="60" height="60"/>
                <use id="zoomplus" xlink:href="#zoomPlus" x="17" y="9" onmousedown="handleZoom(evt,'in')"/>
                <use id="zoomminus" xlink:href="#zoomMin" x="42" y="9" onmousedown="handleZoom(evt,'out')"/>
                <use id="reset" xlink:href="#resetDef" x="30" y="36" onmousedown="handleReset()"/>
                <g id="arrowUp" xlink:href="#dirArrow" transform="translate(30 24)" onmousedown="handlePan(0,-1)">
                  <use xlink:href="#rim" fill="#404040">
                        <set attributeName="fill" to="#808080" begin="arrowUp.mouseover" end="arrowUp.mouseout"/>
                  </use>
                  <path fill="none" stroke="white" stroke-width="1.5" d="M0,-3.0v7 M-2.5,-0.5L0,-3.0L2.5,-0.5"/>
                </g>
                <g id="arrowRight" xlink:href="#dirArrow" transform="rotate(90) translate(36 -43)" onmousedown="handlePan(1,0)">
                  <use xlink:href="#rim" fill="#404040">
                        <set attributeName="fill" to="#808080" begin="arrowRight.mouseover" end="arrowRight.mouseout"/>
                  </use>
                  <path fill="none" stroke="white" stroke-width="1.5" d="M0,-3.0v7 M-2.5,-0.5L0,-3.0L2.5,-0.5"/>
                </g>
                <g id="arrowDown" xlink:href="#dirArrow" transform="rotate(180) translate(-30 -48)" onmousedown="handlePan(0,1)">
                  <use xlink:href="#rim" fill="#404040">
                        <set attributeName="fill" to="#808080" begin="arrowDown.mouseover" end="arrowDown.mouseout"/>
                  </use>
                  <path fill="none" stroke="white" stroke-width="1.5" d="M0,-3.0v7 M-2.5,-0.5L0,-3.0L2.5,-0.5"/>
                </g>
                <g id="arrowLeft" xlink:href="#dirArrow" transform="rotate(270) translate(-36 17)" onmousedown="handlePan(-1,0)">
                  <use xlink:href="#rim" fill="#404040">
                        <set attributeName="fill" to="#808080" begin="arrowLeft.mouseover" end="arrowLeft.mouseout"/>
                  </use>
                  <path fill="none" stroke="white" stroke-width="1.5" d="M0,-3.0v7 M-2.5,-0.5L0,-3.0L2.5,-0.5"/>
                </g>
        </g>
        <svg viewBox="0 0 15 15" width="100%" height="30px" preserveAspectRatio="xMaxYMin meet">
         <g id="arrow_out" transform="scale(0.3 0.3)">
          <a xlink:href="SizeType_8h__dep__incl_org.svg" target="_base">
           <rect id="button" ry="5" rx="5" y="6" x="6" height="38" width="38"
                fill="#f2f5e9" fill-opacity="0.5" stroke="#606060" stroke-width="1.0"/>
           <path id="arrow"
             d="M 11.500037,31.436501 C 11.940474,20.09759 22.043105,11.32322 32.158766,21.979434 L 37.068811,17.246167 C 37.068811,17.246167 37.088388,32 37.088388,32 L 22.160133,31.978069 C 22.160133,31.978069 26.997745,27.140456 26.997745,27.140456 C 18.528582,18.264221 13.291696,25.230495 11.500037,31.436501 z"
             style="fill:#404040;"/>
          </a>
         </g>
        </svg>
</svg>
