<?xml version="1.0" encoding="UTF-8" standalone="no"?>
<!DOCTYPE svg PUBLIC "-//W3C//DTD SVG 1.1//EN"
 "http://www.w3.org/Graphics/SVG/1.1/DTD/svg11.dtd">
<!-- Generated by graphviz version 2.43.0 (0)
 -->
<!-- Title: ST20FrontEnd.h Pages: 1 -->
<svg width="688pt" height="464pt"
 viewBox="0.00 0.00 687.74 464.00" xmlns="http://www.w3.org/2000/svg" xmlns:xlink="http://www.w3.org/1999/xlink">
<g id="graph0" class="graph" transform="scale(1 1) rotate(0) translate(4 460)">
<title>ST20FrontEnd.h</title>
<polygon fill="white" stroke="transparent" points="-4,4 -4,-460 683.74,-460 683.74,4 -4,4"/>
<!-- Node1 -->
<g id="node1" class="node">
<title>Node1</title>
<g id="a_node1"><a xlink:title=" ">
<polygon fill="#bfbfbf" stroke="black" points="521.74,-436.5 521.74,-455.5 613.74,-455.5 613.74,-436.5 521.74,-436.5"/>
<text text-anchor="middle" x="567.74" y="-443.5" font-family="Helvetica,sans-Serif" font-size="10.00">ST20FrontEnd.h</text>
</a>
</g>
</g>
<!-- Node2 -->
<g id="node2" class="node">
<title>Node2</title>
<g id="a_node2"><a xlink:href="BoomerangAPI_8h.html" target="_top" xlink:title=" ">
<polygon fill="white" stroke="black" points="460.24,-56.5 460.24,-86.5 615.24,-86.5 615.24,-56.5 460.24,-56.5"/>
<text text-anchor="start" x="468.24" y="-74.5" font-family="Helvetica,sans-Serif" font-size="10.00">boomerang/core/Boomerang</text>
<text text-anchor="middle" x="537.74" y="-63.5" font-family="Helvetica,sans-Serif" font-size="10.00">API.h</text>
</a>
</g>
</g>
<!-- Node1&#45;&gt;Node2 -->
<g id="edge1" class="edge">
<title>Node1&#45;&gt;Node2</title>
<path fill="none" stroke="midnightblue" d="M584.27,-436.35C615.42,-418.71 679.74,-375.41 679.74,-318.5 679.74,-318.5 679.74,-318.5 679.74,-188 679.74,-139.94 630.19,-108.36 589.63,-90.56"/>
<polygon fill="midnightblue" stroke="midnightblue" points="590.92,-87.3 580.35,-86.65 588.2,-93.75 590.92,-87.3"/>
</g>
<!-- Node3 -->
<g id="node3" class="node">
<title>Node3</title>
<g id="a_node3"><a xlink:href="DefaultFrontEnd_8h.html" target="_top" xlink:title=" ">
<polygon fill="white" stroke="black" points="400.74,-369.5 400.74,-399.5 516.74,-399.5 516.74,-369.5 400.74,-369.5"/>
<text text-anchor="start" x="408.74" y="-387.5" font-family="Helvetica,sans-Serif" font-size="10.00">boomerang/frontend</text>
<text text-anchor="middle" x="458.74" y="-376.5" font-family="Helvetica,sans-Serif" font-size="10.00">/DefaultFrontEnd.h</text>
</a>
</g>
</g>
<!-- Node1&#45;&gt;Node3 -->
<g id="edge2" class="edge">
<title>Node1&#45;&gt;Node3</title>
<path fill="none" stroke="midnightblue" d="M552.13,-436.48C536.88,-428.15 513.16,-415.21 493.45,-404.45"/>
<polygon fill="midnightblue" stroke="midnightblue" points="494.89,-401.24 484.43,-399.52 491.53,-407.39 494.89,-401.24"/>
</g>
<!-- Node4 -->
<g id="node4" class="node">
<title>Node4</title>
<g id="a_node4"><a xlink:href="TargetQueue_8h.html" target="_top" xlink:title=" ">
<polygon fill="white" stroke="black" points="400.74,-302.5 400.74,-332.5 516.74,-332.5 516.74,-302.5 400.74,-302.5"/>
<text text-anchor="start" x="408.74" y="-320.5" font-family="Helvetica,sans-Serif" font-size="10.00">boomerang/frontend</text>
<text text-anchor="middle" x="458.74" y="-309.5" font-family="Helvetica,sans-Serif" font-size="10.00">/TargetQueue.h</text>
</a>
</g>
</g>
<!-- Node3&#45;&gt;Node4 -->
<g id="edge3" class="edge">
<title>Node3&#45;&gt;Node4</title>
<path fill="none" stroke="midnightblue" d="M458.74,-369.4C458.74,-361.64 458.74,-351.81 458.74,-342.86"/>
<polygon fill="midnightblue" stroke="midnightblue" points="462.24,-342.58 458.74,-332.58 455.24,-342.58 462.24,-342.58"/>
</g>
<!-- Node12 -->
<g id="node12" class="node">
<title>Node12</title>
<g id="a_node12"><a xlink:href="IFrontEnd_8h.html" target="_top" xlink:title=" ">
<polygon fill="white" stroke="black" points="503.24,-241 503.24,-260 648.24,-260 648.24,-241 503.24,-241"/>
<text text-anchor="middle" x="575.74" y="-248" font-family="Helvetica,sans-Serif" font-size="10.00">boomerang/ifc/IFrontEnd.h</text>
</a>
</g>
</g>
<!-- Node3&#45;&gt;Node12 -->
<g id="edge14" class="edge">
<title>Node3&#45;&gt;Node12</title>
<path fill="none" stroke="midnightblue" d="M481.57,-369.45C495.4,-360.21 512.81,-347.23 525.74,-333 543.57,-313.38 558.61,-286.53 567.4,-269.1"/>
<polygon fill="midnightblue" stroke="midnightblue" points="570.58,-270.58 571.83,-260.06 564.29,-267.5 570.58,-270.58"/>
</g>
<!-- Node14 -->
<g id="node14" class="node">
<title>Node14</title>
<g id="a_node14"><a xlink:href="RTL_8h.html" target="_top" xlink:title=" ">
<polygon fill="white" stroke="black" points="96.24,-308 96.24,-327 215.24,-327 215.24,-308 96.24,-308"/>
<text text-anchor="middle" x="155.74" y="-315" font-family="Helvetica,sans-Serif" font-size="10.00">boomerang/ssl/RTL.h</text>
</a>
</g>
</g>
<!-- Node3&#45;&gt;Node14 -->
<g id="edge18" class="edge">
<title>Node3&#45;&gt;Node14</title>
<path fill="none" stroke="midnightblue" d="M400.68,-371.04C344.18,-358.92 259.23,-340.7 205.67,-329.21"/>
<polygon fill="midnightblue" stroke="midnightblue" points="206.24,-325.75 195.73,-327.08 204.77,-332.6 206.24,-325.75"/>
</g>
<!-- Node20 -->
<g id="node20" class="node">
<title>Node20</title>
<g id="a_node20"><a xlink:title=" ">
<polygon fill="white" stroke="#bfbfbf" points="349.74,-179.5 349.74,-198.5 387.74,-198.5 387.74,-179.5 349.74,-179.5"/>
<text text-anchor="middle" x="368.74" y="-186.5" font-family="Helvetica,sans-Serif" font-size="10.00">map</text>
</a>
</g>
</g>
<!-- Node3&#45;&gt;Node20 -->
<g id="edge31" class="edge">
<title>Node3&#45;&gt;Node20</title>
<path fill="none" stroke="midnightblue" d="M431.11,-369.41C417.07,-360.8 401.06,-348.47 391.74,-333 368.14,-293.81 366.47,-238.1 367.48,-209.14"/>
<polygon fill="midnightblue" stroke="midnightblue" points="370.99,-208.97 368,-198.81 364,-208.62 370.99,-208.97"/>
</g>
<!-- Node5 -->
<g id="node5" class="node">
<title>Node5</title>
<g id="a_node5"><a xlink:href="Address_8h.html" target="_top" xlink:title=" ">
<polygon fill="white" stroke="black" points="405.74,-179.5 405.74,-198.5 547.74,-198.5 547.74,-179.5 405.74,-179.5"/>
<text text-anchor="middle" x="476.74" y="-186.5" font-family="Helvetica,sans-Serif" font-size="10.00">boomerang/util/Address.h</text>
</a>
</g>
</g>
<!-- Node4&#45;&gt;Node5 -->
<g id="edge4" class="edge">
<title>Node4&#45;&gt;Node5</title>
<path fill="none" stroke="midnightblue" d="M446.98,-302.47C434.74,-286.08 418.67,-258.24 428.74,-235 434.01,-222.84 444.36,-212.46 454.11,-204.74"/>
<polygon fill="midnightblue" stroke="midnightblue" points="456.39,-207.41 462.37,-198.67 452.24,-201.77 456.39,-207.41"/>
</g>
<!-- Node11 -->
<g id="node11" class="node">
<title>Node11</title>
<g id="a_node11"><a xlink:title=" ">
<polygon fill="white" stroke="#bfbfbf" points="438.24,-241 438.24,-260 485.24,-260 485.24,-241 438.24,-241"/>
<text text-anchor="middle" x="461.74" y="-248" font-family="Helvetica,sans-Serif" font-size="10.00">queue</text>
</a>
</g>
</g>
<!-- Node4&#45;&gt;Node11 -->
<g id="edge13" class="edge">
<title>Node4&#45;&gt;Node11</title>
<path fill="none" stroke="midnightblue" d="M459.39,-302.4C459.83,-292.96 460.41,-280.45 460.88,-270.19"/>
<polygon fill="midnightblue" stroke="midnightblue" points="464.38,-270.35 461.34,-260.19 457.38,-270.02 464.38,-270.35"/>
</g>
<!-- Node5&#45;&gt;Node2 -->
<g id="edge5" class="edge">
<title>Node5&#45;&gt;Node2</title>
<path fill="none" stroke="midnightblue" d="M486.95,-179.36C496.26,-170.97 509.73,-157.41 517.74,-143 525.73,-128.65 530.74,-110.84 533.76,-96.72"/>
<polygon fill="midnightblue" stroke="midnightblue" points="537.22,-97.23 535.69,-86.75 530.35,-95.9 537.22,-97.23"/>
</g>
<!-- Node6 -->
<g id="node6" class="node">
<title>Node6</title>
<g id="a_node6"><a xlink:href="OStream_8h.html" target="_top" xlink:title=" ">
<polygon fill="white" stroke="black" points="253.74,-123.5 253.74,-142.5 399.74,-142.5 399.74,-123.5 253.74,-123.5"/>
<text text-anchor="middle" x="326.74" y="-130.5" font-family="Helvetica,sans-Serif" font-size="10.00">boomerang/util/OStream.h</text>
</a>
</g>
</g>
<!-- Node5&#45;&gt;Node6 -->
<g id="edge6" class="edge">
<title>Node5&#45;&gt;Node6</title>
<path fill="none" stroke="midnightblue" d="M452.97,-179.44C427.85,-170.4 388.03,-156.06 359.84,-145.92"/>
<polygon fill="midnightblue" stroke="midnightblue" points="360.99,-142.61 350.4,-142.52 358.62,-149.2 360.99,-142.61"/>
</g>
<!-- Node7 -->
<g id="node7" class="node">
<title>Node7</title>
<g id="a_node7"><a xlink:href="Types_8h.html" target="_top" xlink:title=" ">
<polygon fill="white" stroke="black" points="160.24,-62 160.24,-81 291.24,-81 291.24,-62 160.24,-62"/>
<text text-anchor="middle" x="225.74" y="-69" font-family="Helvetica,sans-Serif" font-size="10.00">boomerang/util/Types.h</text>
</a>
</g>
</g>
<!-- Node5&#45;&gt;Node7 -->
<g id="edge11" class="edge">
<title>Node5&#45;&gt;Node7</title>
<path fill="none" stroke="midnightblue" d="M415.21,-179.48C350.77,-170.03 257.19,-154.58 244.74,-143 230.71,-129.93 226.62,-107.69 225.63,-91.68"/>
<polygon fill="midnightblue" stroke="midnightblue" points="229.12,-91.25 225.36,-81.34 222.12,-91.43 229.12,-91.25"/>
</g>
<!-- Node10 -->
<g id="node10" class="node">
<title>Node10</title>
<g id="a_node10"><a xlink:title=" ">
<polygon fill="white" stroke="#bfbfbf" points="456.24,-123.5 456.24,-142.5 509.24,-142.5 509.24,-123.5 456.24,-123.5"/>
<text text-anchor="middle" x="482.74" y="-130.5" font-family="Helvetica,sans-Serif" font-size="10.00">QString</text>
</a>
</g>
</g>
<!-- Node5&#45;&gt;Node10 -->
<g id="edge12" class="edge">
<title>Node5&#45;&gt;Node10</title>
<path fill="none" stroke="midnightblue" d="M477.73,-179.08C478.53,-171.93 479.67,-161.64 480.67,-152.69"/>
<polygon fill="midnightblue" stroke="midnightblue" points="484.14,-153.08 481.77,-142.75 477.19,-152.3 484.14,-153.08"/>
</g>
<!-- Node6&#45;&gt;Node2 -->
<g id="edge7" class="edge">
<title>Node6&#45;&gt;Node2</title>
<path fill="none" stroke="midnightblue" d="M356.97,-123.48C388.49,-114.59 438.7,-100.43 478.22,-89.29"/>
<polygon fill="midnightblue" stroke="midnightblue" points="479.34,-92.61 488.01,-86.52 477.44,-85.87 479.34,-92.61"/>
</g>
<!-- Node6&#45;&gt;Node7 -->
<g id="edge8" class="edge">
<title>Node6&#45;&gt;Node7</title>
<path fill="none" stroke="midnightblue" d="M312.27,-123.48C295.77,-113.75 268.56,-97.73 249.06,-86.24"/>
<polygon fill="midnightblue" stroke="midnightblue" points="250.58,-83.07 240.19,-81.01 247.03,-89.1 250.58,-83.07"/>
</g>
<!-- Node9 -->
<g id="node9" class="node">
<title>Node9</title>
<g id="a_node9"><a xlink:title=" ">
<polygon fill="white" stroke="#bfbfbf" points="309.74,-62 309.74,-81 355.74,-81 355.74,-62 309.74,-62"/>
<text text-anchor="middle" x="332.74" y="-69" font-family="Helvetica,sans-Serif" font-size="10.00">cstdio</text>
</a>
</g>
</g>
<!-- Node6&#45;&gt;Node9 -->
<g id="edge10" class="edge">
<title>Node6&#45;&gt;Node9</title>
<path fill="none" stroke="midnightblue" d="M327.6,-123.48C328.45,-115.08 329.77,-101.98 330.86,-91.16"/>
<polygon fill="midnightblue" stroke="midnightblue" points="334.36,-91.31 331.88,-81.01 327.4,-90.61 334.36,-91.31"/>
</g>
<!-- Node8 -->
<g id="node8" class="node">
<title>Node8</title>
<g id="a_node8"><a xlink:title=" ">
<polygon fill="white" stroke="#bfbfbf" points="200.74,-0.5 200.74,-19.5 250.74,-19.5 250.74,-0.5 200.74,-0.5"/>
<text text-anchor="middle" x="225.74" y="-7.5" font-family="Helvetica,sans-Serif" font-size="10.00">cstdint</text>
</a>
</g>
</g>
<!-- Node7&#45;&gt;Node8 -->
<g id="edge9" class="edge">
<title>Node7&#45;&gt;Node8</title>
<path fill="none" stroke="midnightblue" d="M225.74,-61.98C225.74,-53.58 225.74,-40.48 225.74,-29.66"/>
<polygon fill="midnightblue" stroke="midnightblue" points="229.24,-29.51 225.74,-19.51 222.24,-29.51 229.24,-29.51"/>
</g>
<!-- Node12&#45;&gt;Node2 -->
<g id="edge15" class="edge">
<title>Node12&#45;&gt;Node2</title>
<path fill="none" stroke="midnightblue" d="M573.91,-240.96C568.34,-215.03 551.48,-136.5 542.89,-96.49"/>
<polygon fill="midnightblue" stroke="midnightblue" points="546.27,-95.57 540.75,-86.52 539.43,-97.03 546.27,-95.57"/>
</g>
<!-- Node12&#45;&gt;Node5 -->
<g id="edge16" class="edge">
<title>Node12&#45;&gt;Node5</title>
<path fill="none" stroke="midnightblue" d="M561.56,-240.98C545.38,-231.25 518.72,-215.23 499.6,-203.74"/>
<polygon fill="midnightblue" stroke="midnightblue" points="501.27,-200.66 490.9,-198.51 497.67,-206.66 501.27,-200.66"/>
</g>
<!-- Node13 -->
<g id="node13" class="node">
<title>Node13</title>
<g id="a_node13"><a xlink:title=" ">
<polygon fill="white" stroke="#bfbfbf" points="604.24,-179.5 604.24,-198.5 651.24,-198.5 651.24,-179.5 604.24,-179.5"/>
<text text-anchor="middle" x="627.74" y="-186.5" font-family="Helvetica,sans-Serif" font-size="10.00">vector</text>
</a>
</g>
</g>
<!-- Node12&#45;&gt;Node13 -->
<g id="edge17" class="edge">
<title>Node12&#45;&gt;Node13</title>
<path fill="none" stroke="midnightblue" d="M583.19,-240.98C591.07,-231.96 603.69,-217.52 613.49,-206.31"/>
<polygon fill="midnightblue" stroke="midnightblue" points="616.36,-208.34 620.31,-198.51 611.09,-203.74 616.36,-208.34"/>
</g>
<!-- Node14&#45;&gt;Node5 -->
<g id="edge28" class="edge">
<title>Node14&#45;&gt;Node5</title>
<path fill="none" stroke="midnightblue" d="M177.55,-307.9C233.14,-286 380.3,-228.01 445.22,-202.42"/>
<polygon fill="midnightblue" stroke="midnightblue" points="446.88,-205.53 454.9,-198.61 444.31,-199.02 446.88,-205.53"/>
</g>
<!-- Node15 -->
<g id="node15" class="node">
<title>Node15</title>
<g id="a_node15"><a xlink:href="Statement_8h.html" target="_top" xlink:title=" ">
<polygon fill="white" stroke="black" points="82.24,-235.5 82.24,-265.5 229.24,-265.5 229.24,-235.5 82.24,-235.5"/>
<text text-anchor="start" x="90.24" y="-253.5" font-family="Helvetica,sans-Serif" font-size="10.00">boomerang/ssl/statements</text>
<text text-anchor="middle" x="155.74" y="-242.5" font-family="Helvetica,sans-Serif" font-size="10.00">/Statement.h</text>
</a>
</g>
</g>
<!-- Node14&#45;&gt;Node15 -->
<g id="edge19" class="edge">
<title>Node14&#45;&gt;Node15</title>
<path fill="none" stroke="midnightblue" d="M155.74,-307.73C155.74,-299.54 155.74,-286.92 155.74,-275.71"/>
<polygon fill="midnightblue" stroke="midnightblue" points="159.24,-275.59 155.74,-265.59 152.24,-275.59 159.24,-275.59"/>
</g>
<!-- Node17 -->
<g id="node17" class="node">
<title>Node17</title>
<g id="a_node17"><a xlink:title=" ">
<polygon fill="white" stroke="#bfbfbf" points="42.74,-123.5 42.74,-142.5 100.74,-142.5 100.74,-123.5 42.74,-123.5"/>
<text text-anchor="middle" x="71.74" y="-130.5" font-family="Helvetica,sans-Serif" font-size="10.00">memory</text>
</a>
</g>
</g>
<!-- Node14&#45;&gt;Node17 -->
<g id="edge30" class="edge">
<title>Node14&#45;&gt;Node17</title>
<path fill="none" stroke="midnightblue" d="M125.58,-307.85C101.87,-299.9 69.06,-286.26 45.74,-266 19.03,-242.79 12.7,-232.95 2.74,-199 0.24,-190.47 -1.49,-186.82 2.74,-179 10.49,-164.7 24.98,-154.22 38.68,-146.99"/>
<polygon fill="midnightblue" stroke="midnightblue" points="40.48,-150.01 47.95,-142.5 37.43,-143.71 40.48,-150.01"/>
</g>
<!-- Node19 -->
<g id="node19" class="node">
<title>Node19</title>
<g id="a_node19"><a xlink:title=" ">
<polygon fill="white" stroke="#bfbfbf" points="11.74,-179.5 11.74,-198.5 43.74,-198.5 43.74,-179.5 11.74,-179.5"/>
<text text-anchor="middle" x="27.74" y="-186.5" font-family="Helvetica,sans-Serif" font-size="10.00">list</text>
</a>
</g>
</g>
<!-- Node14&#45;&gt;Node19 -->
<g id="edge29" class="edge">
<title>Node14&#45;&gt;Node19</title>
<path fill="none" stroke="midnightblue" d="M136.11,-307.97C118.01,-299.38 91.24,-284.72 72.74,-266 56.12,-249.18 43.2,-225.04 35.54,-208.51"/>
<polygon fill="midnightblue" stroke="midnightblue" points="38.54,-206.63 31.29,-198.9 32.14,-209.46 38.54,-206.63"/>
</g>
<!-- Node15&#45;&gt;Node5 -->
<g id="edge23" class="edge">
<title>Node15&#45;&gt;Node5</title>
<path fill="none" stroke="midnightblue" d="M229.39,-235.85C287.64,-225.05 367.74,-210.2 420.82,-200.37"/>
<polygon fill="midnightblue" stroke="midnightblue" points="421.53,-203.79 430.73,-198.53 420.26,-196.91 421.53,-203.79"/>
</g>
<!-- Node16 -->
<g id="node16" class="node">
<title>Node16</title>
<g id="a_node16"><a xlink:href="ExpHelp_8h.html" target="_top" xlink:title=" ">
<polygon fill="white" stroke="black" points="169.74,-179.5 169.74,-198.5 331.74,-198.5 331.74,-179.5 169.74,-179.5"/>
<text text-anchor="middle" x="250.74" y="-186.5" font-family="Helvetica,sans-Serif" font-size="10.00">boomerang/ssl/exp/ExpHelp.h</text>
</a>
</g>
</g>
<!-- Node15&#45;&gt;Node16 -->
<g id="edge20" class="edge">
<title>Node15&#45;&gt;Node16</title>
<path fill="none" stroke="midnightblue" d="M178.26,-235.4C193.34,-225.95 213.13,-213.56 228.22,-204.11"/>
<polygon fill="midnightblue" stroke="midnightblue" points="230.3,-206.93 236.92,-198.66 226.59,-201 230.3,-206.93"/>
</g>
<!-- Node15&#45;&gt;Node17 -->
<g id="edge27" class="edge">
<title>Node15&#45;&gt;Node17</title>
<path fill="none" stroke="midnightblue" d="M130.64,-235.39C117.03,-226.55 100.95,-214.01 90.74,-199 81.34,-185.18 76.52,-166.66 74.09,-152.92"/>
<polygon fill="midnightblue" stroke="midnightblue" points="77.51,-152.09 72.57,-142.72 70.59,-153.13 77.51,-152.09"/>
</g>
<!-- Node18 -->
<g id="node18" class="node">
<title>Node18</title>
<g id="a_node18"><a xlink:title=" ">
<polygon fill="white" stroke="#bfbfbf" points="99.74,-179.5 99.74,-198.5 151.74,-198.5 151.74,-179.5 99.74,-179.5"/>
<text text-anchor="middle" x="125.74" y="-186.5" font-family="Helvetica,sans-Serif" font-size="10.00">cassert</text>
</a>
</g>
</g>
<!-- Node15&#45;&gt;Node18 -->
<g id="edge24" class="edge">
<title>Node15&#45;&gt;Node18</title>
<path fill="none" stroke="midnightblue" d="M148.63,-235.4C144.45,-227.11 139.13,-216.55 134.67,-207.71"/>
<polygon fill="midnightblue" stroke="midnightblue" points="137.73,-206.01 130.11,-198.66 131.48,-209.16 137.73,-206.01"/>
</g>
<!-- Node15&#45;&gt;Node19 -->
<g id="edge25" class="edge">
<title>Node15&#45;&gt;Node19</title>
<path fill="none" stroke="midnightblue" d="M125.41,-235.4C103.33,-225.13 73.77,-211.4 52.97,-201.73"/>
<polygon fill="midnightblue" stroke="midnightblue" points="54.36,-198.51 43.82,-197.47 51.41,-204.86 54.36,-198.51"/>
</g>
<!-- Node15&#45;&gt;Node20 -->
<g id="edge26" class="edge">
<title>Node15&#45;&gt;Node20</title>
<path fill="none" stroke="midnightblue" d="M209.76,-235.43C244.43,-226.25 290.65,-213.72 339.66,-199.23"/>
<polygon fill="midnightblue" stroke="midnightblue" points="340.91,-202.51 349.5,-196.31 338.91,-195.8 340.91,-202.51"/>
</g>
<!-- Node16&#45;&gt;Node2 -->
<g id="edge21" class="edge">
<title>Node16&#45;&gt;Node2</title>
<path fill="none" stroke="midnightblue" d="M289.87,-179.43C322.35,-171.71 369.42,-159.11 408.74,-143 413.67,-140.98 466.98,-111.64 503.5,-91.46"/>
<polygon fill="midnightblue" stroke="midnightblue" points="505.33,-94.45 512.39,-86.54 501.94,-88.32 505.33,-94.45"/>
</g>
<!-- Node16&#45;&gt;Node17 -->
<g id="edge22" class="edge">
<title>Node16&#45;&gt;Node17</title>
<path fill="none" stroke="midnightblue" d="M222.38,-179.44C192,-170.28 143.63,-155.69 109.93,-145.52"/>
<polygon fill="midnightblue" stroke="midnightblue" points="110.56,-142.05 99.97,-142.52 108.54,-148.76 110.56,-142.05"/>
</g>
</g>
</svg>
