<?xml version="1.0" encoding="UTF-8" standalone="no"?>
<!DOCTYPE svg PUBLIC "-//W3C//DTD SVG 1.1//EN"
 "http://www.w3.org/Graphics/SVG/1.1/DTD/svg11.dtd">
<!-- Generated by graphviz version 2.43.0 (0)
 -->
<!-- Title: StmtConstFinder.cpp Pages: 1 -->
<svg width="414pt" height="229pt"
 viewBox="0.00 0.00 414.00 229.00" xmlns="http://www.w3.org/2000/svg" xmlns:xlink="http://www.w3.org/1999/xlink">
<g id="graph0" class="graph" transform="scale(1 1) rotate(0) translate(4 225)">
<title>StmtConstFinder.cpp</title>
<polygon fill="white" stroke="transparent" points="-4,4 -4,-225 410,-225 410,4 -4,4"/>
<!-- Node1 -->
<g id="node1" class="node">
<title>Node1</title>
<g id="a_node1"><a xlink:title=" ">
<polygon fill="#bfbfbf" stroke="black" points="106.5,-201.5 106.5,-220.5 223.5,-220.5 223.5,-201.5 106.5,-201.5"/>
<text text-anchor="middle" x="165" y="-208.5" font-family="Helvetica,sans-Serif" font-size="10.00">StmtConstFinder.cpp</text>
</a>
</g>
</g>
<!-- Node2 -->
<g id="node2" class="node">
<title>Node2</title>
<g id="a_node2"><a xlink:href="StmtConstFinder_8h.html" target="_top" xlink:title=" ">
<polygon fill="white" stroke="black" points="37,-140 37,-159 143,-159 143,-140 37,-140"/>
<text text-anchor="middle" x="90" y="-147" font-family="Helvetica,sans-Serif" font-size="10.00">StmtConstFinder.h</text>
</a>
</g>
</g>
<!-- Node1&#45;&gt;Node2 -->
<g id="edge1" class="edge">
<title>Node1&#45;&gt;Node2</title>
<path fill="none" stroke="midnightblue" d="M154.25,-201.48C142.45,-192.11 123.26,-176.88 108.92,-165.51"/>
<polygon fill="midnightblue" stroke="midnightblue" points="110.74,-162.48 100.73,-159.01 106.38,-167.97 110.74,-162.48"/>
</g>
<!-- Node6 -->
<g id="node6" class="node">
<title>Node6</title>
<g id="a_node6"><a xlink:href="ConstFinder_8h.html" target="_top" xlink:title=" ">
<polygon fill="white" stroke="black" points="161,-134.5 161,-164.5 319,-164.5 319,-134.5 161,-134.5"/>
<text text-anchor="start" x="169" y="-152.5" font-family="Helvetica,sans-Serif" font-size="10.00">boomerang/visitor/expvisitor</text>
<text text-anchor="middle" x="240" y="-141.5" font-family="Helvetica,sans-Serif" font-size="10.00">/ConstFinder.h</text>
</a>
</g>
</g>
<!-- Node1&#45;&gt;Node6 -->
<g id="edge5" class="edge">
<title>Node1&#45;&gt;Node6</title>
<path fill="none" stroke="midnightblue" d="M175.75,-201.48C185.81,-193.49 201.23,-181.25 214.45,-170.77"/>
<polygon fill="midnightblue" stroke="midnightblue" points="216.67,-173.48 222.32,-164.52 212.31,-168 216.67,-173.48"/>
</g>
<!-- Node3 -->
<g id="node3" class="node">
<title>Node3</title>
<g id="a_node3"><a xlink:href="StmtExpVisitor_8h.html" target="_top" xlink:title=" ">
<polygon fill="white" stroke="black" points="0,-67.5 0,-97.5 180,-97.5 180,-67.5 0,-67.5"/>
<text text-anchor="start" x="8" y="-85.5" font-family="Helvetica,sans-Serif" font-size="10.00">boomerang/visitor/stmtexpvisitor</text>
<text text-anchor="middle" x="90" y="-74.5" font-family="Helvetica,sans-Serif" font-size="10.00">/StmtExpVisitor.h</text>
</a>
</g>
</g>
<!-- Node2&#45;&gt;Node3 -->
<g id="edge2" class="edge">
<title>Node2&#45;&gt;Node3</title>
<path fill="none" stroke="midnightblue" d="M90,-139.73C90,-131.54 90,-118.92 90,-107.71"/>
<polygon fill="midnightblue" stroke="midnightblue" points="93.5,-107.59 90,-97.59 86.5,-107.59 93.5,-107.59"/>
</g>
<!-- Node4 -->
<g id="node4" class="node">
<title>Node4</title>
<g id="a_node4"><a xlink:href="BoomerangAPI_8h.html" target="_top" xlink:title=" ">
<polygon fill="white" stroke="black" points="68.5,-0.5 68.5,-30.5 223.5,-30.5 223.5,-0.5 68.5,-0.5"/>
<text text-anchor="start" x="76.5" y="-18.5" font-family="Helvetica,sans-Serif" font-size="10.00">boomerang/core/Boomerang</text>
<text text-anchor="middle" x="146" y="-7.5" font-family="Helvetica,sans-Serif" font-size="10.00">API.h</text>
</a>
</g>
</g>
<!-- Node3&#45;&gt;Node4 -->
<g id="edge3" class="edge">
<title>Node3&#45;&gt;Node4</title>
<path fill="none" stroke="midnightblue" d="M102.15,-67.4C109.49,-58.88 118.99,-47.85 127.28,-38.23"/>
<polygon fill="midnightblue" stroke="midnightblue" points="130,-40.44 133.87,-30.58 124.69,-35.87 130,-40.44"/>
</g>
<!-- Node5 -->
<g id="node5" class="node">
<title>Node5</title>
<g id="a_node5"><a xlink:title=" ">
<polygon fill="white" stroke="#bfbfbf" points="270,-6 270,-25 328,-25 328,-6 270,-6"/>
<text text-anchor="middle" x="299" y="-13" font-family="Helvetica,sans-Serif" font-size="10.00">memory</text>
</a>
</g>
</g>
<!-- Node3&#45;&gt;Node5 -->
<g id="edge4" class="edge">
<title>Node3&#45;&gt;Node5</title>
<path fill="none" stroke="midnightblue" d="M135.09,-67.48C172.88,-55.72 226.19,-39.14 261.64,-28.12"/>
<polygon fill="midnightblue" stroke="midnightblue" points="263.07,-31.34 271.58,-25.03 260.99,-24.66 263.07,-31.34"/>
</g>
<!-- Node7 -->
<g id="node7" class="node">
<title>Node7</title>
<g id="a_node7"><a xlink:href="ExpVisitor_8h.html" target="_top" xlink:title=" ">
<polygon fill="white" stroke="black" points="248,-67.5 248,-97.5 406,-97.5 406,-67.5 248,-67.5"/>
<text text-anchor="start" x="256" y="-85.5" font-family="Helvetica,sans-Serif" font-size="10.00">boomerang/visitor/expvisitor</text>
<text text-anchor="middle" x="327" y="-74.5" font-family="Helvetica,sans-Serif" font-size="10.00">/ExpVisitor.h</text>
</a>
</g>
</g>
<!-- Node6&#45;&gt;Node7 -->
<g id="edge6" class="edge">
<title>Node6&#45;&gt;Node7</title>
<path fill="none" stroke="midnightblue" d="M258.88,-134.4C270.85,-125.45 286.53,-113.74 299.83,-103.8"/>
<polygon fill="midnightblue" stroke="midnightblue" points="302.24,-106.37 308.16,-97.58 298.05,-100.76 302.24,-106.37"/>
</g>
<!-- Node8 -->
<g id="node8" class="node">
<title>Node8</title>
<g id="a_node8"><a xlink:title=" ">
<polygon fill="white" stroke="#bfbfbf" points="198,-73 198,-92 230,-92 230,-73 198,-73"/>
<text text-anchor="middle" x="214" y="-80" font-family="Helvetica,sans-Serif" font-size="10.00">list</text>
</a>
</g>
</g>
<!-- Node6&#45;&gt;Node8 -->
<g id="edge9" class="edge">
<title>Node6&#45;&gt;Node8</title>
<path fill="none" stroke="midnightblue" d="M234.36,-134.4C230.51,-124.76 225.37,-111.91 221.21,-101.54"/>
<polygon fill="midnightblue" stroke="midnightblue" points="224.44,-100.18 217.48,-92.19 217.94,-102.78 224.44,-100.18"/>
</g>
<!-- Node7&#45;&gt;Node4 -->
<g id="edge7" class="edge">
<title>Node7&#45;&gt;Node4</title>
<path fill="none" stroke="midnightblue" d="M287.73,-67.4C260.45,-57.6 223.92,-44.48 194.77,-34.02"/>
<polygon fill="midnightblue" stroke="midnightblue" points="195.79,-30.66 185.2,-30.58 193.43,-37.25 195.79,-30.66"/>
</g>
<!-- Node7&#45;&gt;Node5 -->
<g id="edge8" class="edge">
<title>Node7&#45;&gt;Node5</title>
<path fill="none" stroke="midnightblue" d="M320.92,-67.4C316.77,-57.76 311.24,-44.91 306.77,-34.54"/>
<polygon fill="midnightblue" stroke="midnightblue" points="309.92,-32.99 302.75,-25.19 303.49,-35.76 309.92,-32.99"/>
</g>
</g>
</svg>
