<?xml version="1.0" encoding="UTF-8" standalone="no"?>
<!DOCTYPE svg PUBLIC "-//W3C//DTD SVG 1.1//EN"
 "http://www.w3.org/Graphics/SVG/1.1/DTD/svg11.dtd">
<!-- Generated by graphviz version 2.43.0 (0)
 -->
<!-- Title: StringInstructionProcessor.h Pages: 1 -->
<svg width="288pt" height="84pt"
 viewBox="0.00 0.00 288.00 84.00" xmlns="http://www.w3.org/2000/svg" xmlns:xlink="http://www.w3.org/1999/xlink">
<g id="graph0" class="graph" transform="scale(1 1) rotate(0) translate(4 80)">
<title>StringInstructionProcessor.h</title>
<polygon fill="white" stroke="transparent" points="-4,4 -4,-80 284,-80 284,4 -4,4"/>
<!-- Node1 -->
<g id="node1" class="node">
<title>Node1</title>
<g id="a_node1"><a xlink:title=" ">
<polygon fill="#bfbfbf" stroke="black" points="79.5,-56.5 79.5,-75.5 232.5,-75.5 232.5,-56.5 79.5,-56.5"/>
<text text-anchor="middle" x="156" y="-63.5" font-family="Helvetica,sans-Serif" font-size="10.00">StringInstructionProcessor.h</text>
</a>
</g>
</g>
<!-- Node2 -->
<g id="node2" class="node">
<title>Node2</title>
<g id="a_node2"><a xlink:href="StringInstructionProcessor_8cpp.html" target="_top" xlink:title=" ">
<polygon fill="white" stroke="black" points="0,-0.5 0,-19.5 164,-19.5 164,-0.5 0,-0.5"/>
<text text-anchor="middle" x="82" y="-7.5" font-family="Helvetica,sans-Serif" font-size="10.00">StringInstructionProcessor.cpp</text>
</a>
</g>
</g>
<!-- Node1&#45;&gt;Node2 -->
<g id="edge1" class="edge">
<title>Node1&#45;&gt;Node2</title>
<path fill="none" stroke="midnightblue" d="M135.97,-50.38C122.59,-40.62 105.44,-28.11 94.11,-19.83"/>
<polygon fill="midnightblue" stroke="midnightblue" points="133.97,-53.26 144.11,-56.32 138.1,-47.6 133.97,-53.26"/>
</g>
<!-- Node3 -->
<g id="node3" class="node">
<title>Node3</title>
<g id="a_node3"><a xlink:href="X86FrontEnd_8cpp.html" target="_top" xlink:title=" ">
<polygon fill="white" stroke="black" points="182,-0.5 182,-19.5 280,-19.5 280,-0.5 182,-0.5"/>
<text text-anchor="middle" x="231" y="-7.5" font-family="Helvetica,sans-Serif" font-size="10.00">X86FrontEnd.cpp</text>
</a>
</g>
</g>
<!-- Node1&#45;&gt;Node3 -->
<g id="edge2" class="edge">
<title>Node1&#45;&gt;Node3</title>
<path fill="none" stroke="midnightblue" d="M176.31,-50.38C189.86,-40.62 207.24,-28.11 218.73,-19.83"/>
<polygon fill="midnightblue" stroke="midnightblue" points="174.12,-47.64 168.05,-56.32 178.21,-53.32 174.12,-47.64"/>
</g>
</g>
</svg>
