<?xml version="1.0" encoding="UTF-8" standalone="no"?>
<!DOCTYPE svg PUBLIC "-//W3C//DTD SVG 1.1//EN"
 "http://www.w3.org/Graphics/SVG/1.1/DTD/svg11.dtd">
<!-- Generated by graphviz version 2.43.0 (0)
 -->
<!-- Title: fvmlib_command Pages: 1 -->
<svg width="110pt" height="162pt"
 viewBox="0.00 0.00 110.00 162.00" xmlns="http://www.w3.org/2000/svg" xmlns:xlink="http://www.w3.org/1999/xlink">
<g id="graph0" class="graph" transform="scale(1 1) rotate(0) translate(4 158)">
<title>fvmlib_command</title>
<polygon fill="white" stroke="transparent" points="-4,4 -4,-158 106,-158 106,4 -4,4"/>
<!-- Node1 -->
<g id="node1" class="node">
<title>Node1</title>
<g id="a_node1"><a xlink:title=" ">
<polygon fill="#bfbfbf" stroke="black" points="0,-0.5 0,-19.5 102,-19.5 102,-0.5 0,-0.5"/>
<text text-anchor="middle" x="51" y="-7.5" font-family="Helvetica,sans-Serif" font-size="10.00">fvmlib_command</text>
</a>
</g>
</g>
<!-- Node2 -->
<g id="node2" class="node">
<title>Node2</title>
<g id="a_node2"><a xlink:href="structfvmlib.html" target="_top" xlink:title=" ">
<polygon fill="white" stroke="black" points="27,-67.5 27,-86.5 75,-86.5 75,-67.5 27,-67.5"/>
<text text-anchor="middle" x="51" y="-74.5" font-family="Helvetica,sans-Serif" font-size="10.00">fvmlib</text>
</a>
</g>
</g>
<!-- Node2&#45;&gt;Node1 -->
<g id="edge1" class="edge">
<title>Node2&#45;&gt;Node1</title>
<path fill="none" stroke="#9a32cd" stroke-dasharray="5,2" d="M51,-57.04C51,-44.67 51,-29.12 51,-19.63"/>
<polygon fill="#9a32cd" stroke="#9a32cd" points="47.5,-57.23 51,-67.23 54.5,-57.23 47.5,-57.23"/>
<text text-anchor="middle" x="68.5" y="-41" font-family="Helvetica,sans-Serif" font-size="10.00"> fvmlib</text>
</g>
<!-- Node3 -->
<g id="node3" class="node">
<title>Node3</title>
<g id="a_node3"><a xlink:href="unionlc__str.html" target="_top" xlink:title=" ">
<polygon fill="white" stroke="black" points="29.5,-134.5 29.5,-153.5 72.5,-153.5 72.5,-134.5 29.5,-134.5"/>
<text text-anchor="middle" x="51" y="-141.5" font-family="Helvetica,sans-Serif" font-size="10.00">lc_str</text>
</a>
</g>
</g>
<!-- Node3&#45;&gt;Node2 -->
<g id="edge2" class="edge">
<title>Node3&#45;&gt;Node2</title>
<path fill="none" stroke="#9a32cd" stroke-dasharray="5,2" d="M51,-124.04C51,-111.67 51,-96.12 51,-86.63"/>
<polygon fill="#9a32cd" stroke="#9a32cd" points="47.5,-124.23 51,-134.23 54.5,-124.23 47.5,-124.23"/>
<text text-anchor="middle" x="66.5" y="-108" font-family="Helvetica,sans-Serif" font-size="10.00"> name</text>
</g>
</g>
</svg>
