<?xml version="1.0" encoding="UTF-8" standalone="no"?>
<!DOCTYPE svg PUBLIC "-//W3C//DTD SVG 1.1//EN"
 "http://www.w3.org/Graphics/SVG/1.1/DTD/svg11.dtd">
<!-- Generated by graphviz version 2.43.0 (0)
 -->
<!-- Title: TableEntry.cpp Pages: 1 -->
<svg width="698pt" height="442pt"
 viewBox="0.00 0.00 698.15 442.00" xmlns="http://www.w3.org/2000/svg" xmlns:xlink="http://www.w3.org/1999/xlink">
<g id="graph0" class="graph" transform="scale(1 1) rotate(0) translate(4 438)">
<title>TableEntry.cpp</title>
<polygon fill="white" stroke="transparent" points="-4,4 -4,-438 694.15,-438 694.15,4 -4,4"/>
<!-- Node1 -->
<g id="node1" class="node">
<title>Node1</title>
<g id="a_node1"><a xlink:title=" ">
<polygon fill="#bfbfbf" stroke="black" points="556.5,-414.5 556.5,-433.5 642.5,-433.5 642.5,-414.5 556.5,-414.5"/>
<text text-anchor="middle" x="599.5" y="-421.5" font-family="Helvetica,sans-Serif" font-size="10.00">TableEntry.cpp</text>
</a>
</g>
</g>
<!-- Node2 -->
<g id="node2" class="node">
<title>Node2</title>
<g id="a_node2"><a xlink:href="TableEntry_8h.html" target="_top" xlink:title=" ">
<polygon fill="white" stroke="black" points="562,-358.5 562,-377.5 637,-377.5 637,-358.5 562,-358.5"/>
<text text-anchor="middle" x="599.5" y="-365.5" font-family="Helvetica,sans-Serif" font-size="10.00">TableEntry.h</text>
</a>
</g>
</g>
<!-- Node1&#45;&gt;Node2 -->
<g id="edge1" class="edge">
<title>Node1&#45;&gt;Node2</title>
<path fill="none" stroke="midnightblue" d="M599.5,-414.08C599.5,-407.01 599.5,-396.86 599.5,-387.99"/>
<polygon fill="midnightblue" stroke="midnightblue" points="603,-387.75 599.5,-377.75 596,-387.75 603,-387.75"/>
</g>
<!-- Node3 -->
<g id="node3" class="node">
<title>Node3</title>
<g id="a_node3"><a xlink:href="RTL_8h.html" target="_top" xlink:title=" ">
<polygon fill="white" stroke="black" points="540,-302.5 540,-321.5 659,-321.5 659,-302.5 540,-302.5"/>
<text text-anchor="middle" x="599.5" y="-309.5" font-family="Helvetica,sans-Serif" font-size="10.00">boomerang/ssl/RTL.h</text>
</a>
</g>
</g>
<!-- Node2&#45;&gt;Node3 -->
<g id="edge2" class="edge">
<title>Node2&#45;&gt;Node3</title>
<path fill="none" stroke="midnightblue" d="M599.5,-358.08C599.5,-351.01 599.5,-340.86 599.5,-331.99"/>
<polygon fill="midnightblue" stroke="midnightblue" points="603,-331.75 599.5,-321.75 596,-331.75 603,-331.75"/>
</g>
<!-- Node4 -->
<g id="node4" class="node">
<title>Node4</title>
<g id="a_node4"><a xlink:href="Statement_8h.html" target="_top" xlink:title=" ">
<polygon fill="white" stroke="black" points="469,-235.5 469,-265.5 616,-265.5 616,-235.5 469,-235.5"/>
<text text-anchor="start" x="477" y="-253.5" font-family="Helvetica,sans-Serif" font-size="10.00">boomerang/ssl/statements</text>
<text text-anchor="middle" x="542.5" y="-242.5" font-family="Helvetica,sans-Serif" font-size="10.00">/Statement.h</text>
</a>
</g>
</g>
<!-- Node3&#45;&gt;Node4 -->
<g id="edge3" class="edge">
<title>Node3&#45;&gt;Node4</title>
<path fill="none" stroke="midnightblue" d="M591.33,-302.48C583.97,-294.79 572.84,-283.17 563.06,-272.96"/>
<polygon fill="midnightblue" stroke="midnightblue" points="565.38,-270.32 555.93,-265.52 560.32,-275.17 565.38,-270.32"/>
</g>
<!-- Node7 -->
<g id="node7" class="node">
<title>Node7</title>
<g id="a_node7"><a xlink:title=" ">
<polygon fill="white" stroke="#bfbfbf" points="513.5,-123.5 513.5,-142.5 571.5,-142.5 571.5,-123.5 513.5,-123.5"/>
<text text-anchor="middle" x="542.5" y="-130.5" font-family="Helvetica,sans-Serif" font-size="10.00">memory</text>
</a>
</g>
</g>
<!-- Node3&#45;&gt;Node7 -->
<g id="edge22" class="edge">
<title>Node3&#45;&gt;Node7</title>
<path fill="none" stroke="midnightblue" d="M612.28,-302.38C642.58,-280.9 713.87,-223.51 681.5,-179 658.88,-147.9 614.31,-137.86 581.72,-134.83"/>
<polygon fill="midnightblue" stroke="midnightblue" points="581.83,-131.33 571.6,-134.08 581.31,-138.31 581.83,-131.33"/>
</g>
<!-- Node8 -->
<g id="node8" class="node">
<title>Node8</title>
<g id="a_node8"><a xlink:href="Address_8h.html" target="_top" xlink:title=" ">
<polygon fill="white" stroke="black" points="136.5,-179.5 136.5,-198.5 278.5,-198.5 278.5,-179.5 136.5,-179.5"/>
<text text-anchor="middle" x="207.5" y="-186.5" font-family="Helvetica,sans-Serif" font-size="10.00">boomerang/util/Address.h</text>
</a>
</g>
</g>
<!-- Node3&#45;&gt;Node8 -->
<g id="edge20" class="edge">
<title>Node3&#45;&gt;Node8</title>
<path fill="none" stroke="midnightblue" d="M571.94,-302.49C503.14,-281.26 323.77,-225.89 245.24,-201.65"/>
<polygon fill="midnightblue" stroke="midnightblue" points="245.88,-198.19 235.3,-198.58 243.82,-204.87 245.88,-198.19"/>
</g>
<!-- Node15 -->
<g id="node15" class="node">
<title>Node15</title>
<g id="a_node15"><a xlink:title=" ">
<polygon fill="white" stroke="#bfbfbf" points="640.5,-179.5 640.5,-198.5 672.5,-198.5 672.5,-179.5 640.5,-179.5"/>
<text text-anchor="middle" x="656.5" y="-186.5" font-family="Helvetica,sans-Serif" font-size="10.00">list</text>
</a>
</g>
</g>
<!-- Node3&#45;&gt;Node15 -->
<g id="edge21" class="edge">
<title>Node3&#45;&gt;Node15</title>
<path fill="none" stroke="midnightblue" d="M604.77,-302.19C610.04,-293.22 618.24,-278.86 624.5,-266 633.97,-246.54 643.41,-223.57 649.55,-208.02"/>
<polygon fill="midnightblue" stroke="midnightblue" points="652.87,-209.16 653.24,-198.57 646.35,-206.61 652.87,-209.16"/>
</g>
<!-- Node5 -->
<g id="node5" class="node">
<title>Node5</title>
<g id="a_node5"><a xlink:href="ExpHelp_8h.html" target="_top" xlink:title=" ">
<polygon fill="white" stroke="black" points="296.5,-179.5 296.5,-198.5 458.5,-198.5 458.5,-179.5 296.5,-179.5"/>
<text text-anchor="middle" x="377.5" y="-186.5" font-family="Helvetica,sans-Serif" font-size="10.00">boomerang/ssl/exp/ExpHelp.h</text>
</a>
</g>
</g>
<!-- Node4&#45;&gt;Node5 -->
<g id="edge4" class="edge">
<title>Node4&#45;&gt;Node5</title>
<path fill="none" stroke="midnightblue" d="M503.4,-235.4C475.34,-225.28 437.93,-211.79 411.19,-202.15"/>
<polygon fill="midnightblue" stroke="midnightblue" points="412.1,-198.76 401.51,-198.66 409.73,-205.34 412.1,-198.76"/>
</g>
<!-- Node4&#45;&gt;Node7 -->
<g id="edge19" class="edge">
<title>Node4&#45;&gt;Node7</title>
<path fill="none" stroke="midnightblue" d="M542.5,-235.34C542.5,-214.62 542.5,-176.02 542.5,-152.9"/>
<polygon fill="midnightblue" stroke="midnightblue" points="546,-152.67 542.5,-142.67 539,-152.67 546,-152.67"/>
</g>
<!-- Node4&#45;&gt;Node8 -->
<g id="edge7" class="edge">
<title>Node4&#45;&gt;Node8</title>
<path fill="none" stroke="midnightblue" d="M468.98,-236.44C407.88,-225.59 322.1,-210.35 265.69,-200.34"/>
<polygon fill="midnightblue" stroke="midnightblue" points="265.97,-196.83 255.51,-198.53 264.75,-203.72 265.97,-196.83"/>
</g>
<!-- Node14 -->
<g id="node14" class="node">
<title>Node14</title>
<g id="a_node14"><a xlink:title=" ">
<polygon fill="white" stroke="#bfbfbf" points="570.5,-179.5 570.5,-198.5 622.5,-198.5 622.5,-179.5 570.5,-179.5"/>
<text text-anchor="middle" x="596.5" y="-186.5" font-family="Helvetica,sans-Serif" font-size="10.00">cassert</text>
</a>
</g>
</g>
<!-- Node4&#45;&gt;Node14 -->
<g id="edge16" class="edge">
<title>Node4&#45;&gt;Node14</title>
<path fill="none" stroke="midnightblue" d="M555.3,-235.4C563.22,-226.66 573.44,-215.41 581.71,-206.3"/>
<polygon fill="midnightblue" stroke="midnightblue" points="584.51,-208.42 588.64,-198.66 579.33,-203.71 584.51,-208.42"/>
</g>
<!-- Node4&#45;&gt;Node15 -->
<g id="edge17" class="edge">
<title>Node4&#45;&gt;Node15</title>
<path fill="none" stroke="midnightblue" d="M569.52,-235.4C588.24,-225.63 613.01,-212.7 631.32,-203.14"/>
<polygon fill="midnightblue" stroke="midnightblue" points="633,-206.21 640.24,-198.48 629.76,-200.01 633,-206.21"/>
</g>
<!-- Node16 -->
<g id="node16" class="node">
<title>Node16</title>
<g id="a_node16"><a xlink:title=" ">
<polygon fill="white" stroke="#bfbfbf" points="476.5,-179.5 476.5,-198.5 514.5,-198.5 514.5,-179.5 476.5,-179.5"/>
<text text-anchor="middle" x="495.5" y="-186.5" font-family="Helvetica,sans-Serif" font-size="10.00">map</text>
</a>
</g>
</g>
<!-- Node4&#45;&gt;Node16 -->
<g id="edge18" class="edge">
<title>Node4&#45;&gt;Node16</title>
<path fill="none" stroke="midnightblue" d="M531.36,-235.4C524.53,-226.75 515.76,-215.64 508.59,-206.58"/>
<polygon fill="midnightblue" stroke="midnightblue" points="511.28,-204.34 502.34,-198.66 505.79,-208.67 511.28,-204.34"/>
</g>
<!-- Node6 -->
<g id="node6" class="node">
<title>Node6</title>
<g id="a_node6"><a xlink:href="BoomerangAPI_8h.html" target="_top" xlink:title=" ">
<polygon fill="white" stroke="black" points="262,-56.5 262,-86.5 417,-86.5 417,-56.5 262,-56.5"/>
<text text-anchor="start" x="270" y="-74.5" font-family="Helvetica,sans-Serif" font-size="10.00">boomerang/core/Boomerang</text>
<text text-anchor="middle" x="339.5" y="-63.5" font-family="Helvetica,sans-Serif" font-size="10.00">API.h</text>
</a>
</g>
</g>
<!-- Node5&#45;&gt;Node6 -->
<g id="edge5" class="edge">
<title>Node5&#45;&gt;Node6</title>
<path fill="none" stroke="midnightblue" d="M374.64,-179.32C368.91,-161.89 355.82,-122.1 347.33,-96.31"/>
<polygon fill="midnightblue" stroke="midnightblue" points="350.57,-94.95 344.12,-86.55 343.92,-97.14 350.57,-94.95"/>
</g>
<!-- Node5&#45;&gt;Node7 -->
<g id="edge6" class="edge">
<title>Node5&#45;&gt;Node7</title>
<path fill="none" stroke="midnightblue" d="M403.64,-179.44C431.52,-170.32 475.85,-155.81 506.9,-145.65"/>
<polygon fill="midnightblue" stroke="midnightblue" points="508.06,-148.95 516.48,-142.52 505.88,-142.3 508.06,-148.95"/>
</g>
<!-- Node8&#45;&gt;Node6 -->
<g id="edge8" class="edge">
<title>Node8&#45;&gt;Node6</title>
<path fill="none" stroke="midnightblue" d="M253.66,-179.46C276.38,-173.03 302.47,-161.93 319.5,-143 330.87,-130.37 335.82,-111.72 337.95,-96.78"/>
<polygon fill="midnightblue" stroke="midnightblue" points="341.45,-97.01 339.06,-86.69 334.49,-96.25 341.45,-97.01"/>
</g>
<!-- Node9 -->
<g id="node9" class="node">
<title>Node9</title>
<g id="a_node9"><a xlink:href="OStream_8h.html" target="_top" xlink:title=" ">
<polygon fill="white" stroke="black" points="93.5,-123.5 93.5,-142.5 239.5,-142.5 239.5,-123.5 93.5,-123.5"/>
<text text-anchor="middle" x="166.5" y="-130.5" font-family="Helvetica,sans-Serif" font-size="10.00">boomerang/util/OStream.h</text>
</a>
</g>
</g>
<!-- Node8&#45;&gt;Node9 -->
<g id="edge9" class="edge">
<title>Node8&#45;&gt;Node9</title>
<path fill="none" stroke="midnightblue" d="M200.73,-179.08C194.94,-171.46 186.44,-160.26 179.36,-150.94"/>
<polygon fill="midnightblue" stroke="midnightblue" points="181.98,-148.6 173.14,-142.75 176.4,-152.83 181.98,-148.6"/>
</g>
<!-- Node10 -->
<g id="node10" class="node">
<title>Node10</title>
<g id="a_node10"><a xlink:href="Types_8h.html" target="_top" xlink:title=" ">
<polygon fill="white" stroke="black" points="0,-62 0,-81 131,-81 131,-62 0,-62"/>
<text text-anchor="middle" x="65.5" y="-69" font-family="Helvetica,sans-Serif" font-size="10.00">boomerang/util/Types.h</text>
</a>
</g>
</g>
<!-- Node8&#45;&gt;Node10 -->
<g id="edge14" class="edge">
<title>Node8&#45;&gt;Node10</title>
<path fill="none" stroke="midnightblue" d="M152.11,-179.47C128.32,-173.13 102.01,-162.11 84.5,-143 71.55,-128.86 67.27,-106.81 65.93,-91.14"/>
<polygon fill="midnightblue" stroke="midnightblue" points="69.42,-90.86 65.4,-81.06 62.43,-91.23 69.42,-90.86"/>
</g>
<!-- Node13 -->
<g id="node13" class="node">
<title>Node13</title>
<g id="a_node13"><a xlink:title=" ">
<polygon fill="white" stroke="#bfbfbf" points="258,-123.5 258,-142.5 311,-142.5 311,-123.5 258,-123.5"/>
<text text-anchor="middle" x="284.5" y="-130.5" font-family="Helvetica,sans-Serif" font-size="10.00">QString</text>
</a>
</g>
</g>
<!-- Node8&#45;&gt;Node13 -->
<g id="edge15" class="edge">
<title>Node8&#45;&gt;Node13</title>
<path fill="none" stroke="midnightblue" d="M219.87,-179.32C231.66,-171.06 249.63,-158.45 263.64,-148.63"/>
<polygon fill="midnightblue" stroke="midnightblue" points="265.98,-151.26 272.16,-142.65 261.96,-145.53 265.98,-151.26"/>
</g>
<!-- Node9&#45;&gt;Node6 -->
<g id="edge10" class="edge">
<title>Node9&#45;&gt;Node6</title>
<path fill="none" stroke="midnightblue" d="M191.29,-123.48C216.69,-114.74 256.9,-100.91 289.04,-89.86"/>
<polygon fill="midnightblue" stroke="midnightblue" points="290.41,-93.09 298.73,-86.52 288.13,-86.47 290.41,-93.09"/>
</g>
<!-- Node9&#45;&gt;Node10 -->
<g id="edge11" class="edge">
<title>Node9&#45;&gt;Node10</title>
<path fill="none" stroke="midnightblue" d="M152.03,-123.48C135.53,-113.75 108.32,-97.73 88.82,-86.24"/>
<polygon fill="midnightblue" stroke="midnightblue" points="90.34,-83.07 79.94,-81.01 86.78,-89.1 90.34,-83.07"/>
</g>
<!-- Node12 -->
<g id="node12" class="node">
<title>Node12</title>
<g id="a_node12"><a xlink:title=" ">
<polygon fill="white" stroke="#bfbfbf" points="149.5,-62 149.5,-81 195.5,-81 195.5,-62 149.5,-62"/>
<text text-anchor="middle" x="172.5" y="-69" font-family="Helvetica,sans-Serif" font-size="10.00">cstdio</text>
</a>
</g>
</g>
<!-- Node9&#45;&gt;Node12 -->
<g id="edge13" class="edge">
<title>Node9&#45;&gt;Node12</title>
<path fill="none" stroke="midnightblue" d="M167.36,-123.48C168.21,-115.08 169.53,-101.98 170.62,-91.16"/>
<polygon fill="midnightblue" stroke="midnightblue" points="174.12,-91.31 171.64,-81.01 167.16,-90.61 174.12,-91.31"/>
</g>
<!-- Node11 -->
<g id="node11" class="node">
<title>Node11</title>
<g id="a_node11"><a xlink:title=" ">
<polygon fill="white" stroke="#bfbfbf" points="40.5,-0.5 40.5,-19.5 90.5,-19.5 90.5,-0.5 40.5,-0.5"/>
<text text-anchor="middle" x="65.5" y="-7.5" font-family="Helvetica,sans-Serif" font-size="10.00">cstdint</text>
</a>
</g>
</g>
<!-- Node10&#45;&gt;Node11 -->
<g id="edge12" class="edge">
<title>Node10&#45;&gt;Node11</title>
<path fill="none" stroke="midnightblue" d="M65.5,-61.98C65.5,-53.58 65.5,-40.48 65.5,-29.66"/>
<polygon fill="midnightblue" stroke="midnightblue" points="69,-29.51 65.5,-19.51 62,-29.51 69,-29.51"/>
</g>
</g>
</svg>
