<?xml version="1.0" encoding="UTF-8" standalone="no"?>
<!DOCTYPE svg PUBLIC "-//W3C//DTD SVG 1.1//EN"
 "http://www.w3.org/Graphics/SVG/1.1/DTD/svg11.dtd">
<!-- Generated by graphviz version 2.43.0 (0)
 -->
<!-- Title: TableEntry.h Pages: 1 -->
<!--zoomable 386 -->
<svg id="main" version="1.1" xmlns="http://www.w3.org/2000/svg" xmlns:xlink="http://www.w3.org/1999/xlink" xml:space="preserve" onload="init(evt)">
<style type="text/css"><![CDATA[
.edge:hover path { stroke: red; }
.edge:hover polygon { stroke: red; fill: red; }
]]></style>
<script type="text/javascript"><![CDATA[
var edges = document.getElementsByTagName('g');
if (edges && edges.length) {
  for (var i=0;i<edges.length;i++) {
    if (edges[i].id.substr(0,4)=='edge') {
      edges[i].setAttribute('class','edge');
    }
  }
}
]]></script>
        <defs>
                <circle id="rim" cx="0" cy="0" r="7"/>
                <circle id="rim2" cx="0" cy="0" r="3.5"/>
                <g id="zoomPlus">
                        <use xlink:href="#rim" fill="#404040">
                                <set attributeName="fill" to="#808080" begin="zoomplus.mouseover" end="zoomplus.mouseout"/>
                        </use>
                        <path d="M-4,0h8M0,-4v8" fill="none" stroke="white" stroke-width="1.5" pointer-events="none"/>
                </g>
                <g id="zoomMin">
                        <use xlink:href="#rim" fill="#404040">
                                <set attributeName="fill" to="#808080" begin="zoomminus.mouseover" end="zoomminus.mouseout"/>
                        </use>
                        <path d="M-4,0h8" fill="none" stroke="white" stroke-width="1.5" pointer-events="none"/>
                </g>
                <g id="dirArrow">
                        <path fill="none" stroke="white" stroke-width="1.5" d="M0,-3.0v7 M-2.5,-0.5L0,-3.0L2.5,-0.5"/>
                </g>
               <g id="resetDef">
                       <use xlink:href="#rim2" fill="#404040">
                               <set attributeName="fill" to="#808080" begin="reset.mouseover" end="reset.mouseout"/>
                       </use>
               </g>
        </defs>

<script type="text/javascript">
var viewWidth = 698;
var viewHeight = 386;
var sectionId = 'dynsection-0';
</script>
<script xlink:href="svgpan.js"/>
<svg id="graph" class="graph">
<g id="viewport">
<title>TableEntry.h</title>
<polygon fill="white" stroke="transparent" points="-4,4 -4,-382 694.15,-382 694.15,4 -4,4"/>
<!-- Node1 -->
<g id="node1" class="node">
<title>Node1</title>
<g id="a_node1"><a xlink:title=" ">
<polygon fill="#bfbfbf" stroke="black" points="562,-358.5 562,-377.5 637,-377.5 637,-358.5 562,-358.5"/>
<text text-anchor="middle" x="599.5" y="-365.5" font-family="Helvetica,sans-Serif" font-size="10.00">TableEntry.h</text>
</a>
</g>
</g>
<!-- Node2 -->
<g id="node2" class="node">
<title>Node2</title>
<g id="a_node2"><a xlink:href="RTL_8h.html" target="_top" xlink:title=" ">
<polygon fill="white" stroke="black" points="540,-302.5 540,-321.5 659,-321.5 659,-302.5 540,-302.5"/>
<text text-anchor="middle" x="599.5" y="-309.5" font-family="Helvetica,sans-Serif" font-size="10.00">boomerang/ssl/RTL.h</text>
</a>
</g>
</g>
<!-- Node1&#45;&gt;Node2 -->
<g id="edge1" class="edge">
<title>Node1&#45;&gt;Node2</title>
<path fill="none" stroke="midnightblue" d="M599.5,-358.08C599.5,-351.01 599.5,-340.86 599.5,-331.99"/>
<polygon fill="midnightblue" stroke="midnightblue" points="603,-331.75 599.5,-321.75 596,-331.75 603,-331.75"/>
</g>
<!-- Node3 -->
<g id="node3" class="node">
<title>Node3</title>
<g id="a_node3"><a xlink:href="Statement_8h.html" target="_top" xlink:title=" ">
<polygon fill="white" stroke="black" points="469,-235.5 469,-265.5 616,-265.5 616,-235.5 469,-235.5"/>
<text text-anchor="start" x="477" y="-253.5" font-family="Helvetica,sans-Serif" font-size="10.00">boomerang/ssl/statements</text>
<text text-anchor="middle" x="542.5" y="-242.5" font-family="Helvetica,sans-Serif" font-size="10.00">/Statement.h</text>
</a>
</g>
</g>
<!-- Node2&#45;&gt;Node3 -->
<g id="edge2" class="edge">
<title>Node2&#45;&gt;Node3</title>
<path fill="none" stroke="midnightblue" d="M591.33,-302.48C583.97,-294.79 572.84,-283.17 563.06,-272.96"/>
<polygon fill="midnightblue" stroke="midnightblue" points="565.38,-270.32 555.93,-265.52 560.32,-275.17 565.38,-270.32"/>
</g>
<!-- Node6 -->
<g id="node6" class="node">
<title>Node6</title>
<g id="a_node6"><a xlink:title=" ">
<polygon fill="white" stroke="#bfbfbf" points="513.5,-123.5 513.5,-142.5 571.5,-142.5 571.5,-123.5 513.5,-123.5"/>
<text text-anchor="middle" x="542.5" y="-130.5" font-family="Helvetica,sans-Serif" font-size="10.00">memory</text>
</a>
</g>
</g>
<!-- Node2&#45;&gt;Node6 -->
<g id="edge21" class="edge">
<title>Node2&#45;&gt;Node6</title>
<path fill="none" stroke="midnightblue" d="M612.28,-302.38C642.58,-280.9 713.87,-223.51 681.5,-179 658.88,-147.9 614.31,-137.86 581.72,-134.83"/>
<polygon fill="midnightblue" stroke="midnightblue" points="581.83,-131.33 571.6,-134.08 581.31,-138.31 581.83,-131.33"/>
</g>
<!-- Node7 -->
<g id="node7" class="node">
<title>Node7</title>
<g id="a_node7"><a xlink:href="Address_8h.html" target="_top" xlink:title=" ">
<polygon fill="white" stroke="black" points="136.5,-179.5 136.5,-198.5 278.5,-198.5 278.5,-179.5 136.5,-179.5"/>
<text text-anchor="middle" x="207.5" y="-186.5" font-family="Helvetica,sans-Serif" font-size="10.00">boomerang/util/Address.h</text>
</a>
</g>
</g>
<!-- Node2&#45;&gt;Node7 -->
<g id="edge19" class="edge">
<title>Node2&#45;&gt;Node7</title>
<path fill="none" stroke="midnightblue" d="M571.94,-302.49C503.14,-281.26 323.77,-225.89 245.24,-201.65"/>
<polygon fill="midnightblue" stroke="midnightblue" points="245.88,-198.19 235.3,-198.58 243.82,-204.87 245.88,-198.19"/>
</g>
<!-- Node14 -->
<g id="node14" class="node">
<title>Node14</title>
<g id="a_node14"><a xlink:title=" ">
<polygon fill="white" stroke="#bfbfbf" points="640.5,-179.5 640.5,-198.5 672.5,-198.5 672.5,-179.5 640.5,-179.5"/>
<text text-anchor="middle" x="656.5" y="-186.5" font-family="Helvetica,sans-Serif" font-size="10.00">list</text>
</a>
</g>
</g>
<!-- Node2&#45;&gt;Node14 -->
<g id="edge20" class="edge">
<title>Node2&#45;&gt;Node14</title>
<path fill="none" stroke="midnightblue" d="M604.77,-302.19C610.04,-293.22 618.24,-278.86 624.5,-266 633.97,-246.54 643.41,-223.57 649.55,-208.02"/>
<polygon fill="midnightblue" stroke="midnightblue" points="652.87,-209.16 653.24,-198.57 646.35,-206.61 652.87,-209.16"/>
</g>
<!-- Node4 -->
<g id="node4" class="node">
<title>Node4</title>
<g id="a_node4"><a xlink:href="ExpHelp_8h.html" target="_top" xlink:title=" ">
<polygon fill="white" stroke="black" points="296.5,-179.5 296.5,-198.5 458.5,-198.5 458.5,-179.5 296.5,-179.5"/>
<text text-anchor="middle" x="377.5" y="-186.5" font-family="Helvetica,sans-Serif" font-size="10.00">boomerang/ssl/exp/ExpHelp.h</text>
</a>
</g>
</g>
<!-- Node3&#45;&gt;Node4 -->
<g id="edge3" class="edge">
<title>Node3&#45;&gt;Node4</title>
<path fill="none" stroke="midnightblue" d="M503.4,-235.4C475.34,-225.28 437.93,-211.79 411.19,-202.15"/>
<polygon fill="midnightblue" stroke="midnightblue" points="412.1,-198.76 401.51,-198.66 409.73,-205.34 412.1,-198.76"/>
</g>
<!-- Node3&#45;&gt;Node6 -->
<g id="edge18" class="edge">
<title>Node3&#45;&gt;Node6</title>
<path fill="none" stroke="midnightblue" d="M542.5,-235.34C542.5,-214.62 542.5,-176.02 542.5,-152.9"/>
<polygon fill="midnightblue" stroke="midnightblue" points="546,-152.67 542.5,-142.67 539,-152.67 546,-152.67"/>
</g>
<!-- Node3&#45;&gt;Node7 -->
<g id="edge6" class="edge">
<title>Node3&#45;&gt;Node7</title>
<path fill="none" stroke="midnightblue" d="M468.98,-236.44C407.88,-225.59 322.1,-210.35 265.69,-200.34"/>
<polygon fill="midnightblue" stroke="midnightblue" points="265.97,-196.83 255.51,-198.53 264.75,-203.72 265.97,-196.83"/>
</g>
<!-- Node13 -->
<g id="node13" class="node">
<title>Node13</title>
<g id="a_node13"><a xlink:title=" ">
<polygon fill="white" stroke="#bfbfbf" points="570.5,-179.5 570.5,-198.5 622.5,-198.5 622.5,-179.5 570.5,-179.5"/>
<text text-anchor="middle" x="596.5" y="-186.5" font-family="Helvetica,sans-Serif" font-size="10.00">cassert</text>
</a>
</g>
</g>
<!-- Node3&#45;&gt;Node13 -->
<g id="edge15" class="edge">
<title>Node3&#45;&gt;Node13</title>
<path fill="none" stroke="midnightblue" d="M555.3,-235.4C563.22,-226.66 573.44,-215.41 581.71,-206.3"/>
<polygon fill="midnightblue" stroke="midnightblue" points="584.51,-208.42 588.64,-198.66 579.33,-203.71 584.51,-208.42"/>
</g>
<!-- Node3&#45;&gt;Node14 -->
<g id="edge16" class="edge">
<title>Node3&#45;&gt;Node14</title>
<path fill="none" stroke="midnightblue" d="M569.52,-235.4C588.24,-225.63 613.01,-212.7 631.32,-203.14"/>
<polygon fill="midnightblue" stroke="midnightblue" points="633,-206.21 640.24,-198.48 629.76,-200.01 633,-206.21"/>
</g>
<!-- Node15 -->
<g id="node15" class="node">
<title>Node15</title>
<g id="a_node15"><a xlink:title=" ">
<polygon fill="white" stroke="#bfbfbf" points="476.5,-179.5 476.5,-198.5 514.5,-198.5 514.5,-179.5 476.5,-179.5"/>
<text text-anchor="middle" x="495.5" y="-186.5" font-family="Helvetica,sans-Serif" font-size="10.00">map</text>
</a>
</g>
</g>
<!-- Node3&#45;&gt;Node15 -->
<g id="edge17" class="edge">
<title>Node3&#45;&gt;Node15</title>
<path fill="none" stroke="midnightblue" d="M531.36,-235.4C524.53,-226.75 515.76,-215.64 508.59,-206.58"/>
<polygon fill="midnightblue" stroke="midnightblue" points="511.28,-204.34 502.34,-198.66 505.79,-208.67 511.28,-204.34"/>
</g>
<!-- Node5 -->
<g id="node5" class="node">
<title>Node5</title>
<g id="a_node5"><a xlink:href="BoomerangAPI_8h.html" target="_top" xlink:title=" ">
<polygon fill="white" stroke="black" points="262,-56.5 262,-86.5 417,-86.5 417,-56.5 262,-56.5"/>
<text text-anchor="start" x="270" y="-74.5" font-family="Helvetica,sans-Serif" font-size="10.00">boomerang/core/Boomerang</text>
<text text-anchor="middle" x="339.5" y="-63.5" font-family="Helvetica,sans-Serif" font-size="10.00">API.h</text>
</a>
</g>
</g>
<!-- Node4&#45;&gt;Node5 -->
<g id="edge4" class="edge">
<title>Node4&#45;&gt;Node5</title>
<path fill="none" stroke="midnightblue" d="M374.64,-179.32C368.91,-161.89 355.82,-122.1 347.33,-96.31"/>
<polygon fill="midnightblue" stroke="midnightblue" points="350.57,-94.95 344.12,-86.55 343.92,-97.14 350.57,-94.95"/>
</g>
<!-- Node4&#45;&gt;Node6 -->
<g id="edge5" class="edge">
<title>Node4&#45;&gt;Node6</title>
<path fill="none" stroke="midnightblue" d="M403.64,-179.44C431.52,-170.32 475.85,-155.81 506.9,-145.65"/>
<polygon fill="midnightblue" stroke="midnightblue" points="508.06,-148.95 516.48,-142.52 505.88,-142.3 508.06,-148.95"/>
</g>
<!-- Node7&#45;&gt;Node5 -->
<g id="edge7" class="edge">
<title>Node7&#45;&gt;Node5</title>
<path fill="none" stroke="midnightblue" d="M253.66,-179.46C276.38,-173.03 302.47,-161.93 319.5,-143 330.87,-130.37 335.82,-111.72 337.95,-96.78"/>
<polygon fill="midnightblue" stroke="midnightblue" points="341.45,-97.01 339.06,-86.69 334.49,-96.25 341.45,-97.01"/>
</g>
<!-- Node8 -->
<g id="node8" class="node">
<title>Node8</title>
<g id="a_node8"><a xlink:href="OStream_8h.html" target="_top" xlink:title=" ">
<polygon fill="white" stroke="black" points="93.5,-123.5 93.5,-142.5 239.5,-142.5 239.5,-123.5 93.5,-123.5"/>
<text text-anchor="middle" x="166.5" y="-130.5" font-family="Helvetica,sans-Serif" font-size="10.00">boomerang/util/OStream.h</text>
</a>
</g>
</g>
<!-- Node7&#45;&gt;Node8 -->
<g id="edge8" class="edge">
<title>Node7&#45;&gt;Node8</title>
<path fill="none" stroke="midnightblue" d="M200.73,-179.08C194.94,-171.46 186.44,-160.26 179.36,-150.94"/>
<polygon fill="midnightblue" stroke="midnightblue" points="181.98,-148.6 173.14,-142.75 176.4,-152.83 181.98,-148.6"/>
</g>
<!-- Node9 -->
<g id="node9" class="node">
<title>Node9</title>
<g id="a_node9"><a xlink:href="Types_8h.html" target="_top" xlink:title=" ">
<polygon fill="white" stroke="black" points="0,-62 0,-81 131,-81 131,-62 0,-62"/>
<text text-anchor="middle" x="65.5" y="-69" font-family="Helvetica,sans-Serif" font-size="10.00">boomerang/util/Types.h</text>
</a>
</g>
</g>
<!-- Node7&#45;&gt;Node9 -->
<g id="edge13" class="edge">
<title>Node7&#45;&gt;Node9</title>
<path fill="none" stroke="midnightblue" d="M152.11,-179.47C128.32,-173.13 102.01,-162.11 84.5,-143 71.55,-128.86 67.27,-106.81 65.93,-91.14"/>
<polygon fill="midnightblue" stroke="midnightblue" points="69.42,-90.86 65.4,-81.06 62.43,-91.23 69.42,-90.86"/>
</g>
<!-- Node12 -->
<g id="node12" class="node">
<title>Node12</title>
<g id="a_node12"><a xlink:title=" ">
<polygon fill="white" stroke="#bfbfbf" points="258,-123.5 258,-142.5 311,-142.5 311,-123.5 258,-123.5"/>
<text text-anchor="middle" x="284.5" y="-130.5" font-family="Helvetica,sans-Serif" font-size="10.00">QString</text>
</a>
</g>
</g>
<!-- Node7&#45;&gt;Node12 -->
<g id="edge14" class="edge">
<title>Node7&#45;&gt;Node12</title>
<path fill="none" stroke="midnightblue" d="M219.87,-179.32C231.66,-171.06 249.63,-158.45 263.64,-148.63"/>
<polygon fill="midnightblue" stroke="midnightblue" points="265.98,-151.26 272.16,-142.65 261.96,-145.53 265.98,-151.26"/>
</g>
<!-- Node8&#45;&gt;Node5 -->
<g id="edge9" class="edge">
<title>Node8&#45;&gt;Node5</title>
<path fill="none" stroke="midnightblue" d="M191.29,-123.48C216.69,-114.74 256.9,-100.91 289.04,-89.86"/>
<polygon fill="midnightblue" stroke="midnightblue" points="290.41,-93.09 298.73,-86.52 288.13,-86.47 290.41,-93.09"/>
</g>
<!-- Node8&#45;&gt;Node9 -->
<g id="edge10" class="edge">
<title>Node8&#45;&gt;Node9</title>
<path fill="none" stroke="midnightblue" d="M152.03,-123.48C135.53,-113.75 108.32,-97.73 88.82,-86.24"/>
<polygon fill="midnightblue" stroke="midnightblue" points="90.34,-83.07 79.94,-81.01 86.78,-89.1 90.34,-83.07"/>
</g>
<!-- Node11 -->
<g id="node11" class="node">
<title>Node11</title>
<g id="a_node11"><a xlink:title=" ">
<polygon fill="white" stroke="#bfbfbf" points="149.5,-62 149.5,-81 195.5,-81 195.5,-62 149.5,-62"/>
<text text-anchor="middle" x="172.5" y="-69" font-family="Helvetica,sans-Serif" font-size="10.00">cstdio</text>
</a>
</g>
</g>
<!-- Node8&#45;&gt;Node11 -->
<g id="edge12" class="edge">
<title>Node8&#45;&gt;Node11</title>
<path fill="none" stroke="midnightblue" d="M167.36,-123.48C168.21,-115.08 169.53,-101.98 170.62,-91.16"/>
<polygon fill="midnightblue" stroke="midnightblue" points="174.12,-91.31 171.64,-81.01 167.16,-90.61 174.12,-91.31"/>
</g>
<!-- Node10 -->
<g id="node10" class="node">
<title>Node10</title>
<g id="a_node10"><a xlink:title=" ">
<polygon fill="white" stroke="#bfbfbf" points="40.5,-0.5 40.5,-19.5 90.5,-19.5 90.5,-0.5 40.5,-0.5"/>
<text text-anchor="middle" x="65.5" y="-7.5" font-family="Helvetica,sans-Serif" font-size="10.00">cstdint</text>
</a>
</g>
</g>
<!-- Node9&#45;&gt;Node10 -->
<g id="edge11" class="edge">
<title>Node9&#45;&gt;Node10</title>
<path fill="none" stroke="midnightblue" d="M65.5,-61.98C65.5,-53.58 65.5,-40.48 65.5,-29.66"/>
<polygon fill="midnightblue" stroke="midnightblue" points="69,-29.51 65.5,-19.51 62,-29.51 69,-29.51"/>
</g>
</g>
</svg>
        <g id="navigator" transform="translate(0 0)" fill="#404254">
                <rect fill="#f2f5e9" fill-opacity="0.5" stroke="#606060" stroke-width=".5" x="0" y="0" width="60" height="60"/>
                <use id="zoomplus" xlink:href="#zoomPlus" x="17" y="9" onmousedown="handleZoom(evt,'in')"/>
                <use id="zoomminus" xlink:href="#zoomMin" x="42" y="9" onmousedown="handleZoom(evt,'out')"/>
                <use id="reset" xlink:href="#resetDef" x="30" y="36" onmousedown="handleReset()"/>
                <g id="arrowUp" xlink:href="#dirArrow" transform="translate(30 24)" onmousedown="handlePan(0,-1)">
                  <use xlink:href="#rim" fill="#404040">
                        <set attributeName="fill" to="#808080" begin="arrowUp.mouseover" end="arrowUp.mouseout"/>
                  </use>
                  <path fill="none" stroke="white" stroke-width="1.5" d="M0,-3.0v7 M-2.5,-0.5L0,-3.0L2.5,-0.5"/>
                </g>
                <g id="arrowRight" xlink:href="#dirArrow" transform="rotate(90) translate(36 -43)" onmousedown="handlePan(1,0)">
                  <use xlink:href="#rim" fill="#404040">
                        <set attributeName="fill" to="#808080" begin="arrowRight.mouseover" end="arrowRight.mouseout"/>
                  </use>
                  <path fill="none" stroke="white" stroke-width="1.5" d="M0,-3.0v7 M-2.5,-0.5L0,-3.0L2.5,-0.5"/>
                </g>
                <g id="arrowDown" xlink:href="#dirArrow" transform="rotate(180) translate(-30 -48)" onmousedown="handlePan(0,1)">
                  <use xlink:href="#rim" fill="#404040">
                        <set attributeName="fill" to="#808080" begin="arrowDown.mouseover" end="arrowDown.mouseout"/>
                  </use>
                  <path fill="none" stroke="white" stroke-width="1.5" d="M0,-3.0v7 M-2.5,-0.5L0,-3.0L2.5,-0.5"/>
                </g>
                <g id="arrowLeft" xlink:href="#dirArrow" transform="rotate(270) translate(-36 17)" onmousedown="handlePan(-1,0)">
                  <use xlink:href="#rim" fill="#404040">
                        <set attributeName="fill" to="#808080" begin="arrowLeft.mouseover" end="arrowLeft.mouseout"/>
                  </use>
                  <path fill="none" stroke="white" stroke-width="1.5" d="M0,-3.0v7 M-2.5,-0.5L0,-3.0L2.5,-0.5"/>
                </g>
        </g>
        <svg viewBox="0 0 15 15" width="100%" height="30px" preserveAspectRatio="xMaxYMin meet">
         <g id="arrow_out" transform="scale(0.3 0.3)">
          <a xlink:href="TableEntry_8h__incl_org.svg" target="_base">
           <rect id="button" ry="5" rx="5" y="6" x="6" height="38" width="38"
                fill="#f2f5e9" fill-opacity="0.5" stroke="#606060" stroke-width="1.0"/>
           <path id="arrow"
             d="M 11.500037,31.436501 C 11.940474,20.09759 22.043105,11.32322 32.158766,21.979434 L 37.068811,17.246167 C 37.068811,17.246167 37.088388,32 37.088388,32 L 22.160133,31.978069 C 22.160133,31.978069 26.997745,27.140456 26.997745,27.140456 C 18.528582,18.264221 13.291696,25.230495 11.500037,31.436501 z"
             style="fill:#404040;"/>
          </a>
         </g>
        </svg>
</svg>
