<?xml version="1.0" encoding="UTF-8" standalone="no"?>
<!DOCTYPE svg PUBLIC "-//W3C//DTD SVG 1.1//EN"
 "http://www.w3.org/Graphics/SVG/1.1/DTD/svg11.dtd">
<!-- Generated by graphviz version 2.43.0 (0)
 -->
<!-- Title: TypedExp.cpp Pages: 1 -->
<!--zoomable 509 -->
<svg id="main" version="1.1" xmlns="http://www.w3.org/2000/svg" xmlns:xlink="http://www.w3.org/1999/xlink" xml:space="preserve" onload="init(evt)">
<style type="text/css"><![CDATA[
.edge:hover path { stroke: red; }
.edge:hover polygon { stroke: red; fill: red; }
]]></style>
<script type="text/javascript"><![CDATA[
var edges = document.getElementsByTagName('g');
if (edges && edges.length) {
  for (var i=0;i<edges.length;i++) {
    if (edges[i].id.substr(0,4)=='edge') {
      edges[i].setAttribute('class','edge');
    }
  }
}
]]></script>
        <defs>
                <circle id="rim" cx="0" cy="0" r="7"/>
                <circle id="rim2" cx="0" cy="0" r="3.5"/>
                <g id="zoomPlus">
                        <use xlink:href="#rim" fill="#404040">
                                <set attributeName="fill" to="#808080" begin="zoomplus.mouseover" end="zoomplus.mouseout"/>
                        </use>
                        <path d="M-4,0h8M0,-4v8" fill="none" stroke="white" stroke-width="1.5" pointer-events="none"/>
                </g>
                <g id="zoomMin">
                        <use xlink:href="#rim" fill="#404040">
                                <set attributeName="fill" to="#808080" begin="zoomminus.mouseover" end="zoomminus.mouseout"/>
                        </use>
                        <path d="M-4,0h8" fill="none" stroke="white" stroke-width="1.5" pointer-events="none"/>
                </g>
                <g id="dirArrow">
                        <path fill="none" stroke="white" stroke-width="1.5" d="M0,-3.0v7 M-2.5,-0.5L0,-3.0L2.5,-0.5"/>
                </g>
               <g id="resetDef">
                       <use xlink:href="#rim2" fill="#404040">
                               <set attributeName="fill" to="#808080" begin="reset.mouseover" end="reset.mouseout"/>
                       </use>
               </g>
        </defs>

<script type="text/javascript">
var viewWidth = 1322;
var viewHeight = 509;
var sectionId = 'dynsection-0';
</script>
<script xlink:href="svgpan.js"/>
<svg id="graph" class="graph">
<g id="viewport">
<title>TypedExp.cpp</title>
<polygon fill="white" stroke="transparent" points="-4,4 -4,-505 1317.5,-505 1317.5,4 -4,4"/>
<!-- Node1 -->
<g id="node1" class="node">
<title>Node1</title>
<g id="a_node1"><a xlink:title=" ">
<polygon fill="#bfbfbf" stroke="black" points="637.5,-481.5 637.5,-500.5 720.5,-500.5 720.5,-481.5 637.5,-481.5"/>
<text text-anchor="middle" x="679" y="-488.5" font-family="Helvetica,sans-Serif" font-size="10.00">TypedExp.cpp</text>
</a>
</g>
</g>
<!-- Node2 -->
<g id="node2" class="node">
<title>Node2</title>
<g id="a_node2"><a xlink:href="TypedExp_8h.html" target="_top" xlink:title=" ">
<polygon fill="white" stroke="black" points="643,-425.5 643,-444.5 715,-444.5 715,-425.5 643,-425.5"/>
<text text-anchor="middle" x="679" y="-432.5" font-family="Helvetica,sans-Serif" font-size="10.00">TypedExp.h</text>
</a>
</g>
</g>
<!-- Node1&#45;&gt;Node2 -->
<g id="edge1" class="edge">
<title>Node1&#45;&gt;Node2</title>
<path fill="none" stroke="midnightblue" d="M679,-481.08C679,-474.01 679,-463.86 679,-454.99"/>
<polygon fill="midnightblue" stroke="midnightblue" points="682.5,-454.75 679,-444.75 675.5,-454.75 682.5,-454.75"/>
</g>
<!-- Node21 -->
<g id="node21" class="node">
<title>Node21</title>
<g id="a_node21"><a xlink:href="Type_8h.html" target="_top" xlink:title=" ">
<polygon fill="white" stroke="black" points="876.5,-179.5 876.5,-209.5 989.5,-209.5 989.5,-179.5 876.5,-179.5"/>
<text text-anchor="start" x="884.5" y="-197.5" font-family="Helvetica,sans-Serif" font-size="10.00">boomerang/ssl/type</text>
<text text-anchor="middle" x="933" y="-186.5" font-family="Helvetica,sans-Serif" font-size="10.00">/Type.h</text>
</a>
</g>
</g>
<!-- Node1&#45;&gt;Node21 -->
<g id="edge31" class="edge">
<title>Node1&#45;&gt;Node21</title>
<path fill="none" stroke="midnightblue" d="M720.65,-488.33C786.93,-483.2 909,-462.55 909,-380 909,-380 909,-380 909,-322 909,-285.82 918.6,-244.81 925.65,-219.55"/>
<polygon fill="midnightblue" stroke="midnightblue" points="929.07,-220.33 928.49,-209.75 922.35,-218.39 929.07,-220.33"/>
</g>
<!-- Node22 -->
<g id="node22" class="node">
<title>Node22</title>
<g id="a_node22"><a xlink:href="Log_8h.html" target="_top" xlink:title=" ">
<polygon fill="white" stroke="black" points="1084.5,-246.5 1084.5,-276.5 1193.5,-276.5 1193.5,-246.5 1084.5,-246.5"/>
<text text-anchor="start" x="1092.5" y="-264.5" font-family="Helvetica,sans-Serif" font-size="10.00">boomerang/util/log</text>
<text text-anchor="middle" x="1139" y="-253.5" font-family="Helvetica,sans-Serif" font-size="10.00">/Log.h</text>
</a>
</g>
</g>
<!-- Node1&#45;&gt;Node22 -->
<g id="edge37" class="edge">
<title>Node1&#45;&gt;Node22</title>
<path fill="none" stroke="midnightblue" d="M720.7,-488.78C770.93,-485.89 856.81,-476.32 923,-445 1007.52,-405.01 1085.83,-323.51 1120.39,-284.4"/>
<polygon fill="midnightblue" stroke="midnightblue" points="1123.15,-286.56 1127.09,-276.73 1117.88,-281.96 1123.15,-286.56"/>
</g>
<!-- Node23 -->
<g id="node23" class="node">
<title>Node23</title>
<g id="a_node23"><a xlink:href="ExpModifier_8h.html" target="_top" xlink:title=" ">
<polygon fill="white" stroke="black" points="0,-179.5 0,-209.5 168,-209.5 168,-179.5 0,-179.5"/>
<text text-anchor="start" x="8" y="-197.5" font-family="Helvetica,sans-Serif" font-size="10.00">boomerang/visitor/expmodifier</text>
<text text-anchor="middle" x="84" y="-186.5" font-family="Helvetica,sans-Serif" font-size="10.00">/ExpModifier.h</text>
</a>
</g>
</g>
<!-- Node1&#45;&gt;Node23 -->
<g id="edge42" class="edge">
<title>Node1&#45;&gt;Node23</title>
<path fill="none" stroke="midnightblue" d="M637.29,-489.94C514.69,-488.67 164,-476.57 164,-380 164,-380 164,-380 164,-322 164,-279.56 131.44,-239.78 107.86,-216.55"/>
<polygon fill="midnightblue" stroke="midnightblue" points="110.23,-213.97 100.58,-209.6 105.4,-219.03 110.23,-213.97"/>
</g>
<!-- Node24 -->
<g id="node24" class="node">
<title>Node24</title>
<g id="a_node24"><a xlink:href="ExpVisitor_8h.html" target="_top" xlink:title=" ">
<polygon fill="white" stroke="black" points="224,-179.5 224,-209.5 382,-209.5 382,-179.5 224,-179.5"/>
<text text-anchor="start" x="232" y="-197.5" font-family="Helvetica,sans-Serif" font-size="10.00">boomerang/visitor/expvisitor</text>
<text text-anchor="middle" x="303" y="-186.5" font-family="Helvetica,sans-Serif" font-size="10.00">/ExpVisitor.h</text>
</a>
</g>
</g>
<!-- Node1&#45;&gt;Node24 -->
<g id="edge45" class="edge">
<title>Node1&#45;&gt;Node24</title>
<path fill="none" stroke="midnightblue" d="M637.26,-487.31C535.34,-479.62 282,-453.13 282,-380 282,-380 282,-380 282,-322 282,-285.96 290.4,-244.92 296.57,-219.61"/>
<polygon fill="midnightblue" stroke="midnightblue" points="300,-220.34 299.05,-209.79 293.21,-218.63 300,-220.34"/>
</g>
<!-- Node3 -->
<g id="node3" class="node">
<title>Node3</title>
<g id="a_node3"><a xlink:href="Unary_8h.html" target="_top" xlink:title=" ">
<polygon fill="white" stroke="black" points="604.5,-369.5 604.5,-388.5 753.5,-388.5 753.5,-369.5 604.5,-369.5"/>
<text text-anchor="middle" x="679" y="-376.5" font-family="Helvetica,sans-Serif" font-size="10.00">boomerang/ssl/exp/Unary.h</text>
</a>
</g>
</g>
<!-- Node2&#45;&gt;Node3 -->
<g id="edge2" class="edge">
<title>Node2&#45;&gt;Node3</title>
<path fill="none" stroke="midnightblue" d="M679,-425.08C679,-418.01 679,-407.86 679,-398.99"/>
<polygon fill="midnightblue" stroke="midnightblue" points="682.5,-398.75 679,-388.75 675.5,-398.75 682.5,-398.75"/>
</g>
<!-- Node4 -->
<g id="node4" class="node">
<title>Node4</title>
<g id="a_node4"><a xlink:href="Exp_8h.html" target="_top" xlink:title=" ">
<polygon fill="white" stroke="black" points="609,-313.5 609,-332.5 749,-332.5 749,-313.5 609,-313.5"/>
<text text-anchor="middle" x="679" y="-320.5" font-family="Helvetica,sans-Serif" font-size="10.00">boomerang/ssl/exp/Exp.h</text>
</a>
</g>
</g>
<!-- Node3&#45;&gt;Node4 -->
<g id="edge3" class="edge">
<title>Node3&#45;&gt;Node4</title>
<path fill="none" stroke="midnightblue" d="M679,-369.08C679,-362.01 679,-351.86 679,-342.99"/>
<polygon fill="midnightblue" stroke="midnightblue" points="682.5,-342.75 679,-332.75 675.5,-342.75 682.5,-342.75"/>
</g>
<!-- Node5 -->
<g id="node5" class="node">
<title>Node5</title>
<g id="a_node5"><a xlink:href="ExpHelp_8h.html" target="_top" xlink:title=" ">
<polygon fill="white" stroke="black" points="400,-185 400,-204 562,-204 562,-185 400,-185"/>
<text text-anchor="middle" x="481" y="-192" font-family="Helvetica,sans-Serif" font-size="10.00">boomerang/ssl/exp/ExpHelp.h</text>
</a>
</g>
</g>
<!-- Node4&#45;&gt;Node5 -->
<g id="edge4" class="edge">
<title>Node4&#45;&gt;Node5</title>
<path fill="none" stroke="midnightblue" d="M653.83,-313.4C632.31,-305.51 600.96,-292.66 576,-277 545.35,-257.77 514.39,-229.08 496.48,-211.37"/>
<polygon fill="midnightblue" stroke="midnightblue" points="498.75,-208.69 489.22,-204.08 493.79,-213.63 498.75,-208.69"/>
</g>
<!-- Node7 -->
<g id="node7" class="node">
<title>Node7</title>
<g id="a_node7"><a xlink:title=" ">
<polygon fill="white" stroke="#bfbfbf" points="561,-123.5 561,-142.5 619,-142.5 619,-123.5 561,-123.5"/>
<text text-anchor="middle" x="590" y="-130.5" font-family="Helvetica,sans-Serif" font-size="10.00">memory</text>
</a>
</g>
</g>
<!-- Node4&#45;&gt;Node7 -->
<g id="edge28" class="edge">
<title>Node4&#45;&gt;Node7</title>
<path fill="none" stroke="midnightblue" d="M668.33,-313.33C658.55,-304.91 644.23,-291.33 635,-277 609.36,-237.19 597.44,-181.74 592.68,-152.99"/>
<polygon fill="midnightblue" stroke="midnightblue" points="596.09,-152.09 591.11,-142.73 589.17,-153.15 596.09,-152.09"/>
</g>
<!-- Node8 -->
<g id="node8" class="node">
<title>Node8</title>
<g id="a_node8"><a xlink:href="Operator_8h.html" target="_top" xlink:title=" ">
<polygon fill="white" stroke="black" points="310,-252 310,-271 474,-271 474,-252 310,-252"/>
<text text-anchor="middle" x="392" y="-259" font-family="Helvetica,sans-Serif" font-size="10.00">boomerang/ssl/exp/Operator.h</text>
</a>
</g>
</g>
<!-- Node4&#45;&gt;Node8 -->
<g id="edge7" class="edge">
<title>Node4&#45;&gt;Node8</title>
<path fill="none" stroke="midnightblue" d="M637.88,-313.48C586.52,-302.83 498.64,-284.61 443.04,-273.08"/>
<polygon fill="midnightblue" stroke="midnightblue" points="443.55,-269.61 433.04,-271.01 442.13,-276.47 443.55,-269.61"/>
</g>
<!-- Node9 -->
<g id="node9" class="node">
<title>Node9</title>
<g id="a_node9"><a xlink:href="Statement_8h.html" target="_top" xlink:title=" ">
<polygon fill="white" stroke="black" points="656.5,-246.5 656.5,-276.5 803.5,-276.5 803.5,-246.5 656.5,-246.5"/>
<text text-anchor="start" x="664.5" y="-264.5" font-family="Helvetica,sans-Serif" font-size="10.00">boomerang/ssl/statements</text>
<text text-anchor="middle" x="730" y="-253.5" font-family="Helvetica,sans-Serif" font-size="10.00">/Statement.h</text>
</a>
</g>
</g>
<!-- Node4&#45;&gt;Node9 -->
<g id="edge9" class="edge">
<title>Node4&#45;&gt;Node9</title>
<path fill="none" stroke="midnightblue" d="M686.31,-313.48C692.83,-305.87 702.66,-294.4 711.34,-284.26"/>
<polygon fill="midnightblue" stroke="midnightblue" points="714.13,-286.39 717.98,-276.52 708.81,-281.84 714.13,-286.39"/>
</g>
<!-- Node11 -->
<g id="node11" class="node">
<title>Node11</title>
<g id="a_node11"><a xlink:href="OStream_8h.html" target="_top" xlink:title=" ">
<polygon fill="white" stroke="black" points="1074,-123.5 1074,-142.5 1220,-142.5 1220,-123.5 1074,-123.5"/>
<text text-anchor="middle" x="1147" y="-130.5" font-family="Helvetica,sans-Serif" font-size="10.00">boomerang/util/OStream.h</text>
</a>
</g>
</g>
<!-- Node4&#45;&gt;Node11 -->
<g id="edge24" class="edge">
<title>Node4&#45;&gt;Node11</title>
<path fill="none" stroke="midnightblue" d="M749.07,-322.3C873.02,-321.8 1125.19,-315.85 1203,-277 1248.69,-254.19 1291.85,-221.14 1263,-179 1251.83,-162.68 1233.81,-152.28 1215.28,-145.65"/>
<polygon fill="midnightblue" stroke="midnightblue" points="1216.16,-142.26 1205.57,-142.52 1214.01,-148.92 1216.16,-142.26"/>
</g>
<!-- Node15 -->
<g id="node15" class="node">
<title>Node15</title>
<g id="a_node15"><a xlink:title=" ">
<polygon fill="white" stroke="#bfbfbf" points="964.5,-123.5 964.5,-142.5 1017.5,-142.5 1017.5,-123.5 964.5,-123.5"/>
<text text-anchor="middle" x="991" y="-130.5" font-family="Helvetica,sans-Serif" font-size="10.00">QString</text>
</a>
</g>
</g>
<!-- Node4&#45;&gt;Node15 -->
<g id="edge25" class="edge">
<title>Node4&#45;&gt;Node15</title>
<path fill="none" stroke="midnightblue" d="M749.33,-320.33C825.85,-314.23 944.52,-291.29 999,-210 1010.39,-193 1005.15,-168.9 999.19,-152.43"/>
<polygon fill="midnightblue" stroke="midnightblue" points="1002.32,-150.82 995.33,-142.85 995.82,-153.44 1002.32,-150.82"/>
</g>
<!-- Node16 -->
<g id="node16" class="node">
<title>Node16</title>
<g id="a_node16"><a xlink:title=" ">
<polygon fill="white" stroke="#bfbfbf" points="818,-123.5 818,-142.5 870,-142.5 870,-123.5 818,-123.5"/>
<text text-anchor="middle" x="844" y="-130.5" font-family="Helvetica,sans-Serif" font-size="10.00">cassert</text>
</a>
</g>
</g>
<!-- Node4&#45;&gt;Node16 -->
<g id="edge26" class="edge">
<title>Node4&#45;&gt;Node16</title>
<path fill="none" stroke="midnightblue" d="M745.03,-313.46C769.19,-307.13 794.81,-296.12 812,-277 843.38,-242.1 846.15,-183.22 845.25,-153.06"/>
<polygon fill="midnightblue" stroke="midnightblue" points="848.73,-152.51 844.76,-142.69 841.74,-152.85 848.73,-152.51"/>
</g>
<!-- Node17 -->
<g id="node17" class="node">
<title>Node17</title>
<g id="a_node17"><a xlink:title=" ">
<polygon fill="white" stroke="#bfbfbf" points="618,-185 618,-204 650,-204 650,-185 618,-185"/>
<text text-anchor="middle" x="634" y="-192" font-family="Helvetica,sans-Serif" font-size="10.00">list</text>
</a>
</g>
</g>
<!-- Node4&#45;&gt;Node17 -->
<g id="edge27" class="edge">
<title>Node4&#45;&gt;Node17</title>
<path fill="none" stroke="midnightblue" d="M671.04,-313.43C663.58,-304.88 652.73,-291.02 647,-277 638.72,-256.74 635.69,-231.64 634.6,-214.69"/>
<polygon fill="midnightblue" stroke="midnightblue" points="638.08,-214.24 634.11,-204.42 631.09,-214.57 638.08,-214.24"/>
</g>
<!-- Node19 -->
<g id="node19" class="node">
<title>Node19</title>
<g id="a_node19"><a xlink:title=" ">
<polygon fill="white" stroke="#bfbfbf" points="492,-252 492,-271 524,-271 524,-252 492,-252"/>
<text text-anchor="middle" x="508" y="-259" font-family="Helvetica,sans-Serif" font-size="10.00">set</text>
</a>
</g>
</g>
<!-- Node4&#45;&gt;Node19 -->
<g id="edge29" class="edge">
<title>Node4&#45;&gt;Node19</title>
<path fill="none" stroke="midnightblue" d="M648.03,-313.48C619.16,-305.23 575.11,-291.81 538,-277 536.41,-276.37 534.79,-275.69 533.16,-274.98"/>
<polygon fill="midnightblue" stroke="midnightblue" points="534.55,-271.76 524,-270.75 531.62,-278.12 534.55,-271.76"/>
</g>
<!-- Node20 -->
<g id="node20" class="node">
<title>Node20</title>
<g id="a_node20"><a xlink:title=" ">
<polygon fill="white" stroke="#bfbfbf" points="1206.5,-185 1206.5,-204 1253.5,-204 1253.5,-185 1206.5,-185"/>
<text text-anchor="middle" x="1230" y="-192" font-family="Helvetica,sans-Serif" font-size="10.00">vector</text>
</a>
</g>
</g>
<!-- Node4&#45;&gt;Node20 -->
<g id="edge30" class="edge">
<title>Node4&#45;&gt;Node20</title>
<path fill="none" stroke="midnightblue" d="M749.03,-317.09C836.82,-310.25 981.89,-296.45 1032,-277 1054.3,-268.34 1054.48,-256.44 1076,-246 1126.49,-221.52 1144.32,-229.32 1197,-210 1198.66,-209.39 1200.35,-208.74 1202.05,-208.07"/>
<polygon fill="midnightblue" stroke="midnightblue" points="1203.79,-211.13 1211.67,-204.04 1201.09,-204.67 1203.79,-211.13"/>
</g>
<!-- Node6 -->
<g id="node6" class="node">
<title>Node6</title>
<g id="a_node6"><a xlink:href="BoomerangAPI_8h.html" target="_top" xlink:title=" ">
<polygon fill="white" stroke="black" points="403.5,-56.5 403.5,-86.5 558.5,-86.5 558.5,-56.5 403.5,-56.5"/>
<text text-anchor="start" x="411.5" y="-74.5" font-family="Helvetica,sans-Serif" font-size="10.00">boomerang/core/Boomerang</text>
<text text-anchor="middle" x="481" y="-63.5" font-family="Helvetica,sans-Serif" font-size="10.00">API.h</text>
</a>
</g>
</g>
<!-- Node5&#45;&gt;Node6 -->
<g id="edge5" class="edge">
<title>Node5&#45;&gt;Node6</title>
<path fill="none" stroke="midnightblue" d="M481,-184.8C481,-166.6 481,-123.98 481,-96.79"/>
<polygon fill="midnightblue" stroke="midnightblue" points="484.5,-96.54 481,-86.54 477.5,-96.54 484.5,-96.54"/>
</g>
<!-- Node5&#45;&gt;Node7 -->
<g id="edge6" class="edge">
<title>Node5&#45;&gt;Node7</title>
<path fill="none" stroke="midnightblue" d="M496.62,-184.98C514.59,-175.17 544.32,-158.93 565.41,-147.42"/>
<polygon fill="midnightblue" stroke="midnightblue" points="567.31,-150.37 574.41,-142.51 563.96,-144.23 567.31,-150.37"/>
</g>
<!-- Node8&#45;&gt;Node6 -->
<g id="edge8" class="edge">
<title>Node8&#45;&gt;Node6</title>
<path fill="none" stroke="midnightblue" d="M312.65,-251.97C253.09,-242.06 186.37,-221.31 215,-179 254.62,-120.46 332.2,-94.1 393.4,-82.22"/>
<polygon fill="midnightblue" stroke="midnightblue" points="394.26,-85.63 403.46,-80.37 392.99,-78.74 394.26,-85.63"/>
</g>
<!-- Node9&#45;&gt;Node5 -->
<g id="edge10" class="edge">
<title>Node9&#45;&gt;Node5</title>
<path fill="none" stroke="midnightblue" d="M676.28,-246.48C630.48,-234.52 565.56,-217.57 523.36,-206.56"/>
<polygon fill="midnightblue" stroke="midnightblue" points="524.23,-203.17 513.67,-204.03 522.46,-209.94 524.23,-203.17"/>
</g>
<!-- Node9&#45;&gt;Node7 -->
<g id="edge23" class="edge">
<title>Node9&#45;&gt;Node7</title>
<path fill="none" stroke="midnightblue" d="M719.72,-246.48C706.75,-229.35 683.21,-200.06 659,-179 645.32,-167.1 628.28,-155.95 614.55,-147.73"/>
<polygon fill="midnightblue" stroke="midnightblue" points="616.05,-144.56 605.66,-142.53 612.52,-150.6 616.05,-144.56"/>
</g>
<!-- Node10 -->
<g id="node10" class="node">
<title>Node10</title>
<g id="a_node10"><a xlink:href="Address_8h.html" target="_top" xlink:title=" ">
<polygon fill="white" stroke="black" points="1046,-185 1046,-204 1188,-204 1188,-185 1046,-185"/>
<text text-anchor="middle" x="1117" y="-192" font-family="Helvetica,sans-Serif" font-size="10.00">boomerang/util/Address.h</text>
</a>
</g>
</g>
<!-- Node9&#45;&gt;Node10 -->
<g id="edge11" class="edge">
<title>Node9&#45;&gt;Node10</title>
<path fill="none" stroke="midnightblue" d="M803.7,-248.12C876.92,-235.82 987.87,-217.19 1056.2,-205.71"/>
<polygon fill="midnightblue" stroke="midnightblue" points="1057.1,-209.11 1066.38,-204 1055.94,-202.21 1057.1,-209.11"/>
</g>
<!-- Node9&#45;&gt;Node16 -->
<g id="edge20" class="edge">
<title>Node9&#45;&gt;Node16</title>
<path fill="none" stroke="midnightblue" d="M742.64,-246.48C763.89,-222.9 806.66,-175.43 829.25,-150.36"/>
<polygon fill="midnightblue" stroke="midnightblue" points="831.99,-152.56 836.08,-142.79 826.79,-147.87 831.99,-152.56"/>
</g>
<!-- Node9&#45;&gt;Node17 -->
<g id="edge21" class="edge">
<title>Node9&#45;&gt;Node17</title>
<path fill="none" stroke="midnightblue" d="M709.17,-246.4C693.22,-235.6 671.3,-220.76 655.25,-209.89"/>
<polygon fill="midnightblue" stroke="midnightblue" points="656.81,-206.72 646.56,-204.01 652.88,-212.51 656.81,-206.72"/>
</g>
<!-- Node18 -->
<g id="node18" class="node">
<title>Node18</title>
<g id="a_node18"><a xlink:title=" ">
<polygon fill="white" stroke="#bfbfbf" points="706,-185 706,-204 744,-204 744,-185 706,-185"/>
<text text-anchor="middle" x="725" y="-192" font-family="Helvetica,sans-Serif" font-size="10.00">map</text>
</a>
</g>
</g>
<!-- Node9&#45;&gt;Node18 -->
<g id="edge22" class="edge">
<title>Node9&#45;&gt;Node18</title>
<path fill="none" stroke="midnightblue" d="M728.92,-246.4C728.19,-236.96 727.23,-224.45 726.44,-214.19"/>
<polygon fill="midnightblue" stroke="midnightblue" points="729.93,-213.9 725.67,-204.19 722.95,-214.43 729.93,-213.9"/>
</g>
<!-- Node10&#45;&gt;Node6 -->
<g id="edge12" class="edge">
<title>Node10&#45;&gt;Node6</title>
<path fill="none" stroke="midnightblue" d="M1109.13,-184.64C1094.65,-169.02 1062.04,-136.93 1027,-123 945.96,-90.78 701.22,-78.81 568.63,-74.61"/>
<polygon fill="midnightblue" stroke="midnightblue" points="568.61,-71.11 558.5,-74.3 568.39,-78.11 568.61,-71.11"/>
</g>
<!-- Node10&#45;&gt;Node11 -->
<g id="edge13" class="edge">
<title>Node10&#45;&gt;Node11</title>
<path fill="none" stroke="midnightblue" d="M1121.3,-184.98C1125.66,-176.32 1132.56,-162.65 1138.1,-151.65"/>
<polygon fill="midnightblue" stroke="midnightblue" points="1141.33,-153.01 1142.71,-142.51 1135.08,-149.86 1141.33,-153.01"/>
</g>
<!-- Node12 -->
<g id="node12" class="node">
<title>Node12</title>
<g id="a_node12"><a xlink:href="Types_8h.html" target="_top" xlink:title=" ">
<polygon fill="white" stroke="black" points="1182.5,-62 1182.5,-81 1313.5,-81 1313.5,-62 1182.5,-62"/>
<text text-anchor="middle" x="1248" y="-69" font-family="Helvetica,sans-Serif" font-size="10.00">boomerang/util/Types.h</text>
</a>
</g>
</g>
<!-- Node10&#45;&gt;Node12 -->
<g id="edge18" class="edge">
<title>Node10&#45;&gt;Node12</title>
<path fill="none" stroke="midnightblue" d="M1156.17,-184.93C1180.43,-177.68 1210.4,-164.85 1229,-143 1241.3,-128.55 1245.71,-106.9 1247.25,-91.41"/>
<polygon fill="midnightblue" stroke="midnightblue" points="1250.75,-91.62 1247.94,-81.4 1243.76,-91.14 1250.75,-91.62"/>
</g>
<!-- Node10&#45;&gt;Node15 -->
<g id="edge19" class="edge">
<title>Node10&#45;&gt;Node15</title>
<path fill="none" stroke="midnightblue" d="M1098.95,-184.98C1077.8,-174.99 1042.56,-158.35 1018.12,-146.81"/>
<polygon fill="midnightblue" stroke="midnightblue" points="1019.56,-143.61 1009.02,-142.51 1016.57,-149.94 1019.56,-143.61"/>
</g>
<!-- Node11&#45;&gt;Node6 -->
<g id="edge14" class="edge">
<title>Node11&#45;&gt;Node6</title>
<path fill="none" stroke="midnightblue" d="M1073.91,-124.35C1069.2,-123.89 1064.53,-123.43 1060,-123 885.95,-106.41 682.26,-89.14 568.79,-79.71"/>
<polygon fill="midnightblue" stroke="midnightblue" points="569.02,-76.22 558.77,-78.88 568.44,-83.2 569.02,-76.22"/>
</g>
<!-- Node11&#45;&gt;Node12 -->
<g id="edge15" class="edge">
<title>Node11&#45;&gt;Node12</title>
<path fill="none" stroke="midnightblue" d="M1161.47,-123.48C1177.97,-113.75 1205.18,-97.73 1224.68,-86.24"/>
<polygon fill="midnightblue" stroke="midnightblue" points="1226.72,-89.1 1233.56,-81.01 1223.16,-83.07 1226.72,-89.1"/>
</g>
<!-- Node14 -->
<g id="node14" class="node">
<title>Node14</title>
<g id="a_node14"><a xlink:title=" ">
<polygon fill="white" stroke="#bfbfbf" points="1118,-62 1118,-81 1164,-81 1164,-62 1118,-62"/>
<text text-anchor="middle" x="1141" y="-69" font-family="Helvetica,sans-Serif" font-size="10.00">cstdio</text>
</a>
</g>
</g>
<!-- Node11&#45;&gt;Node14 -->
<g id="edge17" class="edge">
<title>Node11&#45;&gt;Node14</title>
<path fill="none" stroke="midnightblue" d="M1146.14,-123.48C1145.29,-115.08 1143.97,-101.98 1142.88,-91.16"/>
<polygon fill="midnightblue" stroke="midnightblue" points="1146.34,-90.61 1141.86,-81.01 1139.38,-91.31 1146.34,-90.61"/>
</g>
<!-- Node13 -->
<g id="node13" class="node">
<title>Node13</title>
<g id="a_node13"><a xlink:title=" ">
<polygon fill="white" stroke="#bfbfbf" points="1223,-0.5 1223,-19.5 1273,-19.5 1273,-0.5 1223,-0.5"/>
<text text-anchor="middle" x="1248" y="-7.5" font-family="Helvetica,sans-Serif" font-size="10.00">cstdint</text>
</a>
</g>
</g>
<!-- Node12&#45;&gt;Node13 -->
<g id="edge16" class="edge">
<title>Node12&#45;&gt;Node13</title>
<path fill="none" stroke="midnightblue" d="M1248,-61.98C1248,-53.58 1248,-40.48 1248,-29.66"/>
<polygon fill="midnightblue" stroke="midnightblue" points="1251.5,-29.51 1248,-19.51 1244.5,-29.51 1251.5,-29.51"/>
</g>
<!-- Node21&#45;&gt;Node6 -->
<g id="edge32" class="edge">
<title>Node21&#45;&gt;Node6</title>
<path fill="none" stroke="midnightblue" d="M926.51,-179.4C918.08,-162.86 901.72,-136.06 879,-123 827.77,-93.55 669.61,-80.96 568.77,-75.81"/>
<polygon fill="midnightblue" stroke="midnightblue" points="568.76,-72.3 558.59,-75.3 568.41,-79.3 568.76,-72.3"/>
</g>
<!-- Node21&#45;&gt;Node7 -->
<g id="edge36" class="edge">
<title>Node21&#45;&gt;Node7</title>
<path fill="none" stroke="midnightblue" d="M876.36,-183.67C806.57,-171.57 689.82,-151.31 629.2,-140.8"/>
<polygon fill="midnightblue" stroke="midnightblue" points="629.71,-137.34 619.26,-139.08 628.52,-144.23 629.71,-137.34"/>
</g>
<!-- Node21&#45;&gt;Node12 -->
<g id="edge33" class="edge">
<title>Node21&#45;&gt;Node12</title>
<path fill="none" stroke="midnightblue" d="M933.47,-179.23C934.82,-163.05 939.6,-137.1 956,-123 1030.14,-59.28 1076.78,-104.28 1173,-87 1180.09,-85.73 1187.55,-84.34 1194.9,-82.95"/>
<polygon fill="midnightblue" stroke="midnightblue" points="1195.64,-86.37 1204.81,-81.05 1194.33,-79.49 1195.64,-86.37"/>
</g>
<!-- Node21&#45;&gt;Node15 -->
<g id="edge34" class="edge">
<title>Node21&#45;&gt;Node15</title>
<path fill="none" stroke="midnightblue" d="M946.75,-179.4C955.35,-170.58 966.45,-159.18 975.39,-150.02"/>
<polygon fill="midnightblue" stroke="midnightblue" points="978.09,-152.26 982.56,-142.66 973.07,-147.38 978.09,-152.26"/>
</g>
<!-- Node21&#45;&gt;Node16 -->
<g id="edge35" class="edge">
<title>Node21&#45;&gt;Node16</title>
<path fill="none" stroke="midnightblue" d="M911.91,-179.4C897.91,-170.04 879.59,-157.79 865.51,-148.38"/>
<polygon fill="midnightblue" stroke="midnightblue" points="867.21,-145.31 856.95,-142.66 863.32,-151.13 867.21,-145.31"/>
</g>
<!-- Node22&#45;&gt;Node7 -->
<g id="edge40" class="edge">
<title>Node22&#45;&gt;Node7</title>
<path fill="none" stroke="midnightblue" d="M1084.28,-251.73C1029.15,-242.58 941.78,-227.17 867,-210 861.09,-208.64 704.11,-165.43 629.14,-144.79"/>
<polygon fill="midnightblue" stroke="midnightblue" points="629.7,-141.31 619.13,-142.03 627.84,-148.06 629.7,-141.31"/>
</g>
<!-- Node22&#45;&gt;Node10 -->
<g id="edge38" class="edge">
<title>Node22&#45;&gt;Node10</title>
<path fill="none" stroke="midnightblue" d="M1134.23,-246.4C1131,-236.86 1126.71,-224.18 1123.21,-213.86"/>
<polygon fill="midnightblue" stroke="midnightblue" points="1126.46,-212.54 1119.94,-204.19 1119.83,-214.79 1126.46,-212.54"/>
</g>
<!-- Node22&#45;&gt;Node12 -->
<g id="edge39" class="edge">
<title>Node22&#45;&gt;Node12</title>
<path fill="none" stroke="midnightblue" d="M1193.63,-252.48C1219.22,-245.69 1247.43,-233.15 1263,-210 1287.6,-173.42 1269.21,-118.61 1256.83,-90.52"/>
<polygon fill="midnightblue" stroke="midnightblue" points="1259.87,-88.75 1252.49,-81.15 1253.52,-91.69 1259.87,-88.75"/>
</g>
<!-- Node22&#45;&gt;Node20 -->
<g id="edge41" class="edge">
<title>Node22&#45;&gt;Node20</title>
<path fill="none" stroke="midnightblue" d="M1158.75,-246.4C1173.86,-235.6 1194.64,-220.76 1209.86,-209.89"/>
<polygon fill="midnightblue" stroke="midnightblue" points="1211.99,-212.67 1218.09,-204.01 1207.92,-206.97 1211.99,-212.67"/>
</g>
<!-- Node23&#45;&gt;Node6 -->
<g id="edge43" class="edge">
<title>Node23&#45;&gt;Node6</title>
<path fill="none" stroke="midnightblue" d="M98.94,-179.34C117.07,-163 149.31,-136.65 182,-123 249.65,-94.76 332.17,-82.3 393.37,-76.81"/>
<polygon fill="midnightblue" stroke="midnightblue" points="393.72,-80.29 403.38,-75.95 393.12,-73.32 393.72,-80.29"/>
</g>
<!-- Node23&#45;&gt;Node7 -->
<g id="edge44" class="edge">
<title>Node23&#45;&gt;Node7</title>
<path fill="none" stroke="midnightblue" d="M168.12,-183.61C278.8,-170.59 468.81,-148.25 550.63,-138.63"/>
<polygon fill="midnightblue" stroke="midnightblue" points="551.46,-142.06 560.98,-137.41 550.64,-135.1 551.46,-142.06"/>
</g>
<!-- Node24&#45;&gt;Node6 -->
<g id="edge46" class="edge">
<title>Node24&#45;&gt;Node6</title>
<path fill="none" stroke="midnightblue" d="M323.77,-179.38C355.39,-157.89 415.72,-116.88 451.76,-92.38"/>
<polygon fill="midnightblue" stroke="midnightblue" points="454.06,-95.04 460.37,-86.53 450.13,-89.25 454.06,-95.04"/>
</g>
<!-- Node24&#45;&gt;Node7 -->
<g id="edge47" class="edge">
<title>Node24&#45;&gt;Node7</title>
<path fill="none" stroke="midnightblue" d="M370.65,-179.47C426.73,-167.85 504.5,-151.72 550.79,-142.13"/>
<polygon fill="midnightblue" stroke="midnightblue" points="551.65,-145.52 560.73,-140.07 550.23,-138.67 551.65,-145.52"/>
</g>
</g>
</svg>
        <g id="navigator" transform="translate(0 0)" fill="#404254">
                <rect fill="#f2f5e9" fill-opacity="0.5" stroke="#606060" stroke-width=".5" x="0" y="0" width="60" height="60"/>
                <use id="zoomplus" xlink:href="#zoomPlus" x="17" y="9" onmousedown="handleZoom(evt,'in')"/>
                <use id="zoomminus" xlink:href="#zoomMin" x="42" y="9" onmousedown="handleZoom(evt,'out')"/>
                <use id="reset" xlink:href="#resetDef" x="30" y="36" onmousedown="handleReset()"/>
                <g id="arrowUp" xlink:href="#dirArrow" transform="translate(30 24)" onmousedown="handlePan(0,-1)">
                  <use xlink:href="#rim" fill="#404040">
                        <set attributeName="fill" to="#808080" begin="arrowUp.mouseover" end="arrowUp.mouseout"/>
                  </use>
                  <path fill="none" stroke="white" stroke-width="1.5" d="M0,-3.0v7 M-2.5,-0.5L0,-3.0L2.5,-0.5"/>
                </g>
                <g id="arrowRight" xlink:href="#dirArrow" transform="rotate(90) translate(36 -43)" onmousedown="handlePan(1,0)">
                  <use xlink:href="#rim" fill="#404040">
                        <set attributeName="fill" to="#808080" begin="arrowRight.mouseover" end="arrowRight.mouseout"/>
                  </use>
                  <path fill="none" stroke="white" stroke-width="1.5" d="M0,-3.0v7 M-2.5,-0.5L0,-3.0L2.5,-0.5"/>
                </g>
                <g id="arrowDown" xlink:href="#dirArrow" transform="rotate(180) translate(-30 -48)" onmousedown="handlePan(0,1)">
                  <use xlink:href="#rim" fill="#404040">
                        <set attributeName="fill" to="#808080" begin="arrowDown.mouseover" end="arrowDown.mouseout"/>
                  </use>
                  <path fill="none" stroke="white" stroke-width="1.5" d="M0,-3.0v7 M-2.5,-0.5L0,-3.0L2.5,-0.5"/>
                </g>
                <g id="arrowLeft" xlink:href="#dirArrow" transform="rotate(270) translate(-36 17)" onmousedown="handlePan(-1,0)">
                  <use xlink:href="#rim" fill="#404040">
                        <set attributeName="fill" to="#808080" begin="arrowLeft.mouseover" end="arrowLeft.mouseout"/>
                  </use>
                  <path fill="none" stroke="white" stroke-width="1.5" d="M0,-3.0v7 M-2.5,-0.5L0,-3.0L2.5,-0.5"/>
                </g>
        </g>
        <svg viewBox="0 0 15 15" width="100%" height="30px" preserveAspectRatio="xMaxYMin meet">
         <g id="arrow_out" transform="scale(0.3 0.3)">
          <a xlink:href="TypedExp_8cpp__incl_org.svg" target="_base">
           <rect id="button" ry="5" rx="5" y="6" x="6" height="38" width="38"
                fill="#f2f5e9" fill-opacity="0.5" stroke="#606060" stroke-width="1.0"/>
           <path id="arrow"
             d="M 11.500037,31.436501 C 11.940474,20.09759 22.043105,11.32322 32.158766,21.979434 L 37.068811,17.246167 C 37.068811,17.246167 37.088388,32 37.088388,32 L 22.160133,31.978069 C 22.160133,31.978069 26.997745,27.140456 26.997745,27.140456 C 18.528582,18.264221 13.291696,25.230495 11.500037,31.436501 z"
             style="fill:#404040;"/>
          </a>
         </g>
        </svg>
</svg>
