<?xml version="1.0" encoding="UTF-8" standalone="no"?>
<!DOCTYPE svg PUBLIC "-//W3C//DTD SVG 1.1//EN"
 "http://www.w3.org/Graphics/SVG/1.1/DTD/svg11.dtd">
<!-- Generated by graphviz version 2.43.0 (0)
 -->
<!-- Title: TypingStatement.cpp Pages: 1 -->
<!--zoomable 397 -->
<svg id="main" version="1.1" xmlns="http://www.w3.org/2000/svg" xmlns:xlink="http://www.w3.org/1999/xlink" xml:space="preserve" onload="init(evt)">
<style type="text/css"><![CDATA[
.edge:hover path { stroke: red; }
.edge:hover polygon { stroke: red; fill: red; }
]]></style>
<script type="text/javascript"><![CDATA[
var edges = document.getElementsByTagName('g');
if (edges && edges.length) {
  for (var i=0;i<edges.length;i++) {
    if (edges[i].id.substr(0,4)=='edge') {
      edges[i].setAttribute('class','edge');
    }
  }
}
]]></script>
        <defs>
                <circle id="rim" cx="0" cy="0" r="7"/>
                <circle id="rim2" cx="0" cy="0" r="3.5"/>
                <g id="zoomPlus">
                        <use xlink:href="#rim" fill="#404040">
                                <set attributeName="fill" to="#808080" begin="zoomplus.mouseover" end="zoomplus.mouseout"/>
                        </use>
                        <path d="M-4,0h8M0,-4v8" fill="none" stroke="white" stroke-width="1.5" pointer-events="none"/>
                </g>
                <g id="zoomMin">
                        <use xlink:href="#rim" fill="#404040">
                                <set attributeName="fill" to="#808080" begin="zoomminus.mouseover" end="zoomminus.mouseout"/>
                        </use>
                        <path d="M-4,0h8" fill="none" stroke="white" stroke-width="1.5" pointer-events="none"/>
                </g>
                <g id="dirArrow">
                        <path fill="none" stroke="white" stroke-width="1.5" d="M0,-3.0v7 M-2.5,-0.5L0,-3.0L2.5,-0.5"/>
                </g>
               <g id="resetDef">
                       <use xlink:href="#rim2" fill="#404040">
                               <set attributeName="fill" to="#808080" begin="reset.mouseover" end="reset.mouseout"/>
                       </use>
               </g>
        </defs>

<script type="text/javascript">
var viewWidth = 732;
var viewHeight = 397;
var sectionId = 'dynsection-0';
</script>
<script xlink:href="svgpan.js"/>
<svg id="graph" class="graph">
<g id="viewport">
<title>TypingStatement.cpp</title>
<polygon fill="white" stroke="transparent" points="-4,4 -4,-393 727.94,-393 727.94,4 -4,4"/>
<!-- Node1 -->
<g id="node1" class="node">
<title>Node1</title>
<g id="a_node1"><a xlink:title=" ">
<polygon fill="#bfbfbf" stroke="black" points="297.44,-369.5 297.44,-388.5 416.44,-388.5 416.44,-369.5 297.44,-369.5"/>
<text text-anchor="middle" x="356.94" y="-376.5" font-family="Helvetica,sans-Serif" font-size="10.00">TypingStatement.cpp</text>
</a>
</g>
</g>
<!-- Node2 -->
<g id="node2" class="node">
<title>Node2</title>
<g id="a_node2"><a xlink:href="TypingStatement_8h.html" target="_top" xlink:title=" ">
<polygon fill="white" stroke="black" points="353.94,-313.5 353.94,-332.5 461.94,-332.5 461.94,-313.5 353.94,-313.5"/>
<text text-anchor="middle" x="407.94" y="-320.5" font-family="Helvetica,sans-Serif" font-size="10.00">TypingStatement.h</text>
</a>
</g>
</g>
<!-- Node1&#45;&gt;Node2 -->
<g id="edge1" class="edge">
<title>Node1&#45;&gt;Node2</title>
<path fill="none" stroke="midnightblue" d="M365.37,-369.08C372.79,-361.22 383.8,-349.57 392.76,-340.08"/>
<polygon fill="midnightblue" stroke="midnightblue" points="395.36,-342.42 399.68,-332.75 390.27,-337.62 395.36,-342.42"/>
</g>
<!-- Node16 -->
<g id="node16" class="node">
<title>Node16</title>
<g id="a_node16"><a xlink:href="Type_8h.html" target="_top" xlink:title=" ">
<polygon fill="white" stroke="black" points="248.44,-179.5 248.44,-209.5 361.44,-209.5 361.44,-179.5 248.44,-179.5"/>
<text text-anchor="start" x="256.44" y="-197.5" font-family="Helvetica,sans-Serif" font-size="10.00">boomerang/ssl/type</text>
<text text-anchor="middle" x="304.94" y="-186.5" font-family="Helvetica,sans-Serif" font-size="10.00">/Type.h</text>
</a>
</g>
</g>
<!-- Node1&#45;&gt;Node16 -->
<g id="edge19" class="edge">
<title>Node1&#45;&gt;Node16</title>
<path fill="none" stroke="midnightblue" d="M354.44,-369.2C346.77,-342.28 323.44,-260.4 311.76,-219.41"/>
<polygon fill="midnightblue" stroke="midnightblue" points="315.1,-218.35 308.99,-209.69 308.36,-220.27 315.1,-218.35"/>
</g>
<!-- Node3 -->
<g id="node3" class="node">
<title>Node3</title>
<g id="a_node3"><a xlink:href="Statement_8h.html" target="_top" xlink:title=" ">
<polygon fill="white" stroke="black" points="354.44,-246.5 354.44,-276.5 501.44,-276.5 501.44,-246.5 354.44,-246.5"/>
<text text-anchor="start" x="362.44" y="-264.5" font-family="Helvetica,sans-Serif" font-size="10.00">boomerang/ssl/statements</text>
<text text-anchor="middle" x="427.94" y="-253.5" font-family="Helvetica,sans-Serif" font-size="10.00">/Statement.h</text>
</a>
</g>
</g>
<!-- Node2&#45;&gt;Node3 -->
<g id="edge2" class="edge">
<title>Node2&#45;&gt;Node3</title>
<path fill="none" stroke="midnightblue" d="M410.81,-313.48C413.22,-306.32 416.77,-295.75 420.02,-286.08"/>
<polygon fill="midnightblue" stroke="midnightblue" points="423.36,-287.12 423.23,-276.52 416.73,-284.89 423.36,-287.12"/>
</g>
<!-- Node4 -->
<g id="node4" class="node">
<title>Node4</title>
<g id="a_node4"><a xlink:href="ExpHelp_8h.html" target="_top" xlink:title=" ">
<polygon fill="white" stroke="black" points="561.94,-185 561.94,-204 723.94,-204 723.94,-185 561.94,-185"/>
<text text-anchor="middle" x="642.94" y="-192" font-family="Helvetica,sans-Serif" font-size="10.00">boomerang/ssl/exp/ExpHelp.h</text>
</a>
</g>
</g>
<!-- Node3&#45;&gt;Node4 -->
<g id="edge3" class="edge">
<title>Node3&#45;&gt;Node4</title>
<path fill="none" stroke="midnightblue" d="M474.33,-246.48C513.37,-234.67 568.52,-218 604.98,-206.98"/>
<polygon fill="midnightblue" stroke="midnightblue" points="606.18,-210.27 614.73,-204.03 604.15,-203.57 606.18,-210.27"/>
</g>
<!-- Node6 -->
<g id="node6" class="node">
<title>Node6</title>
<g id="a_node6"><a xlink:title=" ">
<polygon fill="white" stroke="#bfbfbf" points="433.94,-123.5 433.94,-142.5 491.94,-142.5 491.94,-123.5 433.94,-123.5"/>
<text text-anchor="middle" x="462.94" y="-130.5" font-family="Helvetica,sans-Serif" font-size="10.00">memory</text>
</a>
</g>
</g>
<!-- Node3&#45;&gt;Node6 -->
<g id="edge18" class="edge">
<title>Node3&#45;&gt;Node6</title>
<path fill="none" stroke="midnightblue" d="M430.76,-246.24C434.11,-229.87 440.12,-202.28 446.94,-179 449.57,-170.04 452.99,-160.25 455.99,-152.1"/>
<polygon fill="midnightblue" stroke="midnightblue" points="459.34,-153.12 459.59,-142.53 452.79,-150.66 459.34,-153.12"/>
</g>
<!-- Node7 -->
<g id="node7" class="node">
<title>Node7</title>
<g id="a_node7"><a xlink:href="Address_8h.html" target="_top" xlink:title=" ">
<polygon fill="white" stroke="black" points="87.94,-185 87.94,-204 229.94,-204 229.94,-185 87.94,-185"/>
<text text-anchor="middle" x="158.94" y="-192" font-family="Helvetica,sans-Serif" font-size="10.00">boomerang/util/Address.h</text>
</a>
</g>
</g>
<!-- Node3&#45;&gt;Node7 -->
<g id="edge6" class="edge">
<title>Node3&#45;&gt;Node7</title>
<path fill="none" stroke="midnightblue" d="M369.91,-246.48C320.22,-234.47 249.7,-217.43 204.13,-206.42"/>
<polygon fill="midnightblue" stroke="midnightblue" points="204.78,-202.98 194.24,-204.03 203.14,-209.78 204.78,-202.98"/>
</g>
<!-- Node13 -->
<g id="node13" class="node">
<title>Node13</title>
<g id="a_node13"><a xlink:title=" ">
<polygon fill="white" stroke="#bfbfbf" points="363.94,-123.5 363.94,-142.5 415.94,-142.5 415.94,-123.5 363.94,-123.5"/>
<text text-anchor="middle" x="389.94" y="-130.5" font-family="Helvetica,sans-Serif" font-size="10.00">cassert</text>
</a>
</g>
</g>
<!-- Node3&#45;&gt;Node13 -->
<g id="edge15" class="edge">
<title>Node3&#45;&gt;Node13</title>
<path fill="none" stroke="midnightblue" d="M423.73,-246.48C416.83,-223.51 403.13,-177.89 395.46,-152.37"/>
<polygon fill="midnightblue" stroke="midnightblue" points="398.81,-151.36 392.58,-142.79 392.11,-153.37 398.81,-151.36"/>
</g>
<!-- Node14 -->
<g id="node14" class="node">
<title>Node14</title>
<g id="a_node14"><a xlink:title=" ">
<polygon fill="white" stroke="#bfbfbf" points="455.94,-185 455.94,-204 487.94,-204 487.94,-185 455.94,-185"/>
<text text-anchor="middle" x="471.94" y="-192" font-family="Helvetica,sans-Serif" font-size="10.00">list</text>
</a>
</g>
</g>
<!-- Node3&#45;&gt;Node14 -->
<g id="edge16" class="edge">
<title>Node3&#45;&gt;Node14</title>
<path fill="none" stroke="midnightblue" d="M437.49,-246.4C444.22,-236.46 453.26,-223.11 460.39,-212.57"/>
<polygon fill="midnightblue" stroke="midnightblue" points="463.35,-214.44 466.06,-204.19 457.56,-210.51 463.35,-214.44"/>
</g>
<!-- Node15 -->
<g id="node15" class="node">
<title>Node15</title>
<g id="a_node15"><a xlink:title=" ">
<polygon fill="white" stroke="#bfbfbf" points="505.94,-185 505.94,-204 543.94,-204 543.94,-185 505.94,-185"/>
<text text-anchor="middle" x="524.94" y="-192" font-family="Helvetica,sans-Serif" font-size="10.00">map</text>
</a>
</g>
</g>
<!-- Node3&#45;&gt;Node15 -->
<g id="edge17" class="edge">
<title>Node3&#45;&gt;Node15</title>
<path fill="none" stroke="midnightblue" d="M448.99,-246.4C465.26,-235.5 487.67,-220.48 503.93,-209.58"/>
<polygon fill="midnightblue" stroke="midnightblue" points="505.89,-212.48 512.25,-204.01 501.99,-206.67 505.89,-212.48"/>
</g>
<!-- Node5 -->
<g id="node5" class="node">
<title>Node5</title>
<g id="a_node5"><a xlink:href="BoomerangAPI_8h.html" target="_top" xlink:title=" ">
<polygon fill="white" stroke="black" points="251.44,-56.5 251.44,-86.5 406.44,-86.5 406.44,-56.5 251.44,-56.5"/>
<text text-anchor="start" x="259.44" y="-74.5" font-family="Helvetica,sans-Serif" font-size="10.00">boomerang/core/Boomerang</text>
<text text-anchor="middle" x="328.94" y="-63.5" font-family="Helvetica,sans-Serif" font-size="10.00">API.h</text>
</a>
</g>
</g>
<!-- Node4&#45;&gt;Node5 -->
<g id="edge4" class="edge">
<title>Node4&#45;&gt;Node5</title>
<path fill="none" stroke="midnightblue" d="M628,-184.99C602.55,-170.73 548.87,-141.77 500.94,-123 466.93,-109.68 427.96,-97.96 395.72,-89.17"/>
<polygon fill="midnightblue" stroke="midnightblue" points="396.51,-85.76 385.94,-86.54 394.69,-92.52 396.51,-85.76"/>
</g>
<!-- Node4&#45;&gt;Node6 -->
<g id="edge5" class="edge">
<title>Node4&#45;&gt;Node6</title>
<path fill="none" stroke="midnightblue" d="M617.16,-184.98C586.01,-174.68 533.46,-157.31 498.49,-145.75"/>
<polygon fill="midnightblue" stroke="midnightblue" points="499.28,-142.32 488.69,-142.51 497.08,-148.97 499.28,-142.32"/>
</g>
<!-- Node7&#45;&gt;Node5 -->
<g id="edge7" class="edge">
<title>Node7&#45;&gt;Node5</title>
<path fill="none" stroke="midnightblue" d="M192.11,-184.98C217.79,-177.17 253.2,-163.65 278.94,-143 295.03,-130.09 308.26,-110.72 317.06,-95.54"/>
<polygon fill="midnightblue" stroke="midnightblue" points="320.16,-97.18 321.95,-86.73 314.04,-93.78 320.16,-97.18"/>
</g>
<!-- Node8 -->
<g id="node8" class="node">
<title>Node8</title>
<g id="a_node8"><a xlink:href="OStream_8h.html" target="_top" xlink:title=" ">
<polygon fill="white" stroke="black" points="123.94,-123.5 123.94,-142.5 269.94,-142.5 269.94,-123.5 123.94,-123.5"/>
<text text-anchor="middle" x="196.94" y="-130.5" font-family="Helvetica,sans-Serif" font-size="10.00">boomerang/util/OStream.h</text>
</a>
</g>
</g>
<!-- Node7&#45;&gt;Node8 -->
<g id="edge8" class="edge">
<title>Node7&#45;&gt;Node8</title>
<path fill="none" stroke="midnightblue" d="M164.39,-184.98C170.03,-176.14 179.01,-162.09 186.1,-150.98"/>
<polygon fill="midnightblue" stroke="midnightblue" points="189.08,-152.82 191.51,-142.51 183.18,-149.05 189.08,-152.82"/>
</g>
<!-- Node9 -->
<g id="node9" class="node">
<title>Node9</title>
<g id="a_node9"><a xlink:href="Types_8h.html" target="_top" xlink:title=" ">
<polygon fill="white" stroke="black" points="27.44,-62 27.44,-81 158.44,-81 158.44,-62 27.44,-62"/>
<text text-anchor="middle" x="92.94" y="-69" font-family="Helvetica,sans-Serif" font-size="10.00">boomerang/util/Types.h</text>
</a>
</g>
</g>
<!-- Node7&#45;&gt;Node9 -->
<g id="edge13" class="edge">
<title>Node7&#45;&gt;Node9</title>
<path fill="none" stroke="midnightblue" d="M87.93,-188.34C57.22,-182.17 24.01,-169.32 4.94,-143 -13.17,-118 24.42,-97.05 55.97,-84.65"/>
<polygon fill="midnightblue" stroke="midnightblue" points="57.36,-87.86 65.49,-81.08 54.9,-81.31 57.36,-87.86"/>
</g>
<!-- Node12 -->
<g id="node12" class="node">
<title>Node12</title>
<g id="a_node12"><a xlink:title=" ">
<polygon fill="white" stroke="#bfbfbf" points="14.44,-123.5 14.44,-142.5 67.44,-142.5 67.44,-123.5 14.44,-123.5"/>
<text text-anchor="middle" x="40.94" y="-130.5" font-family="Helvetica,sans-Serif" font-size="10.00">QString</text>
</a>
</g>
</g>
<!-- Node7&#45;&gt;Node12 -->
<g id="edge14" class="edge">
<title>Node7&#45;&gt;Node12</title>
<path fill="none" stroke="midnightblue" d="M142.04,-184.98C122.41,-175.08 89.81,-158.64 66.95,-147.12"/>
<polygon fill="midnightblue" stroke="midnightblue" points="68.32,-143.89 57.82,-142.51 65.17,-150.14 68.32,-143.89"/>
</g>
<!-- Node8&#45;&gt;Node5 -->
<g id="edge9" class="edge">
<title>Node8&#45;&gt;Node5</title>
<path fill="none" stroke="midnightblue" d="M215.86,-123.48C234.74,-114.96 264.34,-101.62 288.53,-90.72"/>
<polygon fill="midnightblue" stroke="midnightblue" points="290.16,-93.82 297.84,-86.52 287.28,-87.44 290.16,-93.82"/>
</g>
<!-- Node8&#45;&gt;Node9 -->
<g id="edge10" class="edge">
<title>Node8&#45;&gt;Node9</title>
<path fill="none" stroke="midnightblue" d="M182.04,-123.48C164.98,-113.71 136.78,-97.58 116.68,-86.08"/>
<polygon fill="midnightblue" stroke="midnightblue" points="118.24,-82.94 107.82,-81.01 114.76,-89.01 118.24,-82.94"/>
</g>
<!-- Node11 -->
<g id="node11" class="node">
<title>Node11</title>
<g id="a_node11"><a xlink:title=" ">
<polygon fill="white" stroke="#bfbfbf" points="176.94,-62 176.94,-81 222.94,-81 222.94,-62 176.94,-62"/>
<text text-anchor="middle" x="199.94" y="-69" font-family="Helvetica,sans-Serif" font-size="10.00">cstdio</text>
</a>
</g>
</g>
<!-- Node8&#45;&gt;Node11 -->
<g id="edge12" class="edge">
<title>Node8&#45;&gt;Node11</title>
<path fill="none" stroke="midnightblue" d="M197.37,-123.48C197.8,-115.08 198.46,-101.98 199,-91.16"/>
<polygon fill="midnightblue" stroke="midnightblue" points="202.51,-91.17 199.52,-81.01 195.52,-90.82 202.51,-91.17"/>
</g>
<!-- Node10 -->
<g id="node10" class="node">
<title>Node10</title>
<g id="a_node10"><a xlink:title=" ">
<polygon fill="white" stroke="#bfbfbf" points="67.94,-0.5 67.94,-19.5 117.94,-19.5 117.94,-0.5 67.94,-0.5"/>
<text text-anchor="middle" x="92.94" y="-7.5" font-family="Helvetica,sans-Serif" font-size="10.00">cstdint</text>
</a>
</g>
</g>
<!-- Node9&#45;&gt;Node10 -->
<g id="edge11" class="edge">
<title>Node9&#45;&gt;Node10</title>
<path fill="none" stroke="midnightblue" d="M92.94,-61.98C92.94,-53.58 92.94,-40.48 92.94,-29.66"/>
<polygon fill="midnightblue" stroke="midnightblue" points="96.44,-29.51 92.94,-19.51 89.44,-29.51 96.44,-29.51"/>
</g>
<!-- Node16&#45;&gt;Node5 -->
<g id="edge20" class="edge">
<title>Node16&#45;&gt;Node5</title>
<path fill="none" stroke="midnightblue" d="M307.79,-179.14C311.82,-158.86 319.22,-121.53 324.11,-96.86"/>
<polygon fill="midnightblue" stroke="midnightblue" points="327.59,-97.33 326.1,-86.84 320.72,-95.96 327.59,-97.33"/>
</g>
<!-- Node16&#45;&gt;Node6 -->
<g id="edge24" class="edge">
<title>Node16&#45;&gt;Node6</title>
<path fill="none" stroke="midnightblue" d="M342.39,-179.4C369.14,-169.33 404.77,-155.91 430.34,-146.28"/>
<polygon fill="midnightblue" stroke="midnightblue" points="431.83,-149.46 439.95,-142.66 429.36,-142.91 431.83,-149.46"/>
</g>
<!-- Node16&#45;&gt;Node9 -->
<g id="edge21" class="edge">
<title>Node16&#45;&gt;Node9</title>
<path fill="none" stroke="midnightblue" d="M248.42,-179.89C194.23,-166.62 119.92,-147.77 114.94,-143 100.94,-129.58 95.8,-107.4 93.95,-91.5"/>
<polygon fill="midnightblue" stroke="midnightblue" points="97.41,-90.93 93.09,-81.25 90.43,-91.51 97.41,-90.93"/>
</g>
<!-- Node16&#45;&gt;Node12 -->
<g id="edge22" class="edge">
<title>Node16&#45;&gt;Node12</title>
<path fill="none" stroke="midnightblue" d="M248.31,-180.74C196.69,-169.1 121.95,-152.26 77.72,-142.29"/>
<polygon fill="midnightblue" stroke="midnightblue" points="78.22,-138.81 67.7,-140.03 76.68,-145.64 78.22,-138.81"/>
</g>
<!-- Node16&#45;&gt;Node13 -->
<g id="edge23" class="edge">
<title>Node16&#45;&gt;Node13</title>
<path fill="none" stroke="midnightblue" d="M325.09,-179.4C338.33,-170.13 355.62,-158.03 369.02,-148.65"/>
<polygon fill="midnightblue" stroke="midnightblue" points="371.39,-151.26 377.58,-142.66 367.38,-145.53 371.39,-151.26"/>
</g>
</g>
</svg>
        <g id="navigator" transform="translate(0 0)" fill="#404254">
                <rect fill="#f2f5e9" fill-opacity="0.5" stroke="#606060" stroke-width=".5" x="0" y="0" width="60" height="60"/>
                <use id="zoomplus" xlink:href="#zoomPlus" x="17" y="9" onmousedown="handleZoom(evt,'in')"/>
                <use id="zoomminus" xlink:href="#zoomMin" x="42" y="9" onmousedown="handleZoom(evt,'out')"/>
                <use id="reset" xlink:href="#resetDef" x="30" y="36" onmousedown="handleReset()"/>
                <g id="arrowUp" xlink:href="#dirArrow" transform="translate(30 24)" onmousedown="handlePan(0,-1)">
                  <use xlink:href="#rim" fill="#404040">
                        <set attributeName="fill" to="#808080" begin="arrowUp.mouseover" end="arrowUp.mouseout"/>
                  </use>
                  <path fill="none" stroke="white" stroke-width="1.5" d="M0,-3.0v7 M-2.5,-0.5L0,-3.0L2.5,-0.5"/>
                </g>
                <g id="arrowRight" xlink:href="#dirArrow" transform="rotate(90) translate(36 -43)" onmousedown="handlePan(1,0)">
                  <use xlink:href="#rim" fill="#404040">
                        <set attributeName="fill" to="#808080" begin="arrowRight.mouseover" end="arrowRight.mouseout"/>
                  </use>
                  <path fill="none" stroke="white" stroke-width="1.5" d="M0,-3.0v7 M-2.5,-0.5L0,-3.0L2.5,-0.5"/>
                </g>
                <g id="arrowDown" xlink:href="#dirArrow" transform="rotate(180) translate(-30 -48)" onmousedown="handlePan(0,1)">
                  <use xlink:href="#rim" fill="#404040">
                        <set attributeName="fill" to="#808080" begin="arrowDown.mouseover" end="arrowDown.mouseout"/>
                  </use>
                  <path fill="none" stroke="white" stroke-width="1.5" d="M0,-3.0v7 M-2.5,-0.5L0,-3.0L2.5,-0.5"/>
                </g>
                <g id="arrowLeft" xlink:href="#dirArrow" transform="rotate(270) translate(-36 17)" onmousedown="handlePan(-1,0)">
                  <use xlink:href="#rim" fill="#404040">
                        <set attributeName="fill" to="#808080" begin="arrowLeft.mouseover" end="arrowLeft.mouseout"/>
                  </use>
                  <path fill="none" stroke="white" stroke-width="1.5" d="M0,-3.0v7 M-2.5,-0.5L0,-3.0L2.5,-0.5"/>
                </g>
        </g>
        <svg viewBox="0 0 15 15" width="100%" height="30px" preserveAspectRatio="xMaxYMin meet">
         <g id="arrow_out" transform="scale(0.3 0.3)">
          <a xlink:href="TypingStatement_8cpp__incl_org.svg" target="_base">
           <rect id="button" ry="5" rx="5" y="6" x="6" height="38" width="38"
                fill="#f2f5e9" fill-opacity="0.5" stroke="#606060" stroke-width="1.0"/>
           <path id="arrow"
             d="M 11.500037,31.436501 C 11.940474,20.09759 22.043105,11.32322 32.158766,21.979434 L 37.068811,17.246167 C 37.068811,17.246167 37.088388,32 37.088388,32 L 22.160133,31.978069 C 22.160133,31.978069 26.997745,27.140456 26.997745,27.140456 C 18.528582,18.264221 13.291696,25.230495 11.500037,31.436501 z"
             style="fill:#404040;"/>
          </a>
         </g>
        </svg>
</svg>
