<?xml version="1.0" encoding="UTF-8" standalone="no"?>
<!DOCTYPE svg PUBLIC "-//W3C//DTD SVG 1.1//EN"
 "http://www.w3.org/Graphics/SVG/1.1/DTD/svg11.dtd">
<!-- Generated by graphviz version 2.43.0 (0)
 -->
<!-- Title: __attribute__ Pages: 1 -->
<svg width="198pt" height="66pt"
 viewBox="0.00 0.00 198.00 66.00" xmlns="http://www.w3.org/2000/svg" xmlns:xlink="http://www.w3.org/1999/xlink">
<g id="graph0" class="graph" transform="scale(1 1) rotate(0) translate(4 62)">
<title>__attribute__</title>
<polygon fill="white" stroke="transparent" points="-4,4 -4,-62 194,-62 194,4 -4,4"/>
<!-- Node1 -->
<g id="node1" class="node">
<title>Node1</title>
<g id="a_node1"><a xlink:title="This class collects all uses (live variables) that will be defined by the statement that contains thi...">
<polygon fill="#bfbfbf" stroke="black" points="0,-19.5 0,-38.5 80,-38.5 80,-19.5 0,-19.5"/>
<text text-anchor="middle" x="40" y="-26.5" font-family="Helvetica,sans-Serif" font-size="10.00">__attribute__</text>
</a>
</g>
</g>
<!-- Node2 -->
<g id="node2" class="node">
<title>Node2</title>
<g id="a_node2"><a xlink:href="Register_8h.html#ad970226c2ca8479dffc849b50fe7493a" target="_top" xlink:title=" ">
<polygon fill="white" stroke="black" points="118,-38.5 118,-57.5 188,-57.5 188,-38.5 118,-38.5"/>
<text text-anchor="middle" x="153" y="-45.5" font-family="Helvetica,sans-Serif" font-size="10.00">operator!=</text>
</a>
</g>
</g>
<!-- Node1&#45;&gt;Node2 -->
<g id="edge1" class="edge">
<title>Node1&#45;&gt;Node2</title>
<path fill="none" stroke="midnightblue" d="M80.13,-35.7C89.02,-37.22 98.53,-38.85 107.62,-40.4"/>
<polygon fill="midnightblue" stroke="midnightblue" points="107.2,-43.88 117.65,-42.12 108.38,-36.98 107.2,-43.88"/>
</g>
<!-- Node3 -->
<g id="node3" class="node">
<title>Node3</title>
<g id="a_node3"><a xlink:href="Register_8h.html#ae8cdbd4339e7d43f824913657a70a97e" target="_top" xlink:title=" ">
<polygon fill="white" stroke="black" points="116,-0.5 116,-19.5 190,-19.5 190,-0.5 116,-0.5"/>
<text text-anchor="middle" x="153" y="-7.5" font-family="Helvetica,sans-Serif" font-size="10.00">operator==</text>
</a>
</g>
</g>
<!-- Node1&#45;&gt;Node3 -->
<g id="edge2" class="edge">
<title>Node1&#45;&gt;Node3</title>
<path fill="none" stroke="midnightblue" d="M80.13,-22.3C88.48,-20.87 97.37,-19.35 105.94,-17.88"/>
<polygon fill="midnightblue" stroke="midnightblue" points="106.55,-21.33 115.82,-16.19 105.37,-14.43 106.55,-21.33"/>
</g>
</g>
</svg>
