<?xml version="1.0" encoding="UTF-8" standalone="no"?>
<!DOCTYPE svg PUBLIC "-//W3C//DTD SVG 1.1//EN"
 "http://www.w3.org/Graphics/SVG/1.1/DTD/svg11.dtd">
<!-- Generated by graphviz version 2.43.0 (0)
 -->
<!-- Title: VoidType.h Pages: 1 -->
<svg width="5343pt" height="196pt"
 viewBox="0.00 0.00 5343.00 196.00" xmlns="http://www.w3.org/2000/svg" xmlns:xlink="http://www.w3.org/1999/xlink">
<g id="graph0" class="graph" transform="scale(1 1) rotate(0) translate(4 192)">
<title>VoidType.h</title>
<polygon fill="white" stroke="transparent" points="-4,4 -4,-192 5339,-192 5339,4 -4,4"/>
<!-- Node1 -->
<g id="node1" class="node">
<title>Node1</title>
<g id="a_node1"><a xlink:title=" ">
<polygon fill="#bfbfbf" stroke="black" points="4354.5,-168.5 4354.5,-187.5 4424.5,-187.5 4424.5,-168.5 4354.5,-168.5"/>
<text text-anchor="middle" x="4389.5" y="-175.5" font-family="Helvetica,sans-Serif" font-size="10.00">VoidType.h</text>
</a>
</g>
</g>
<!-- Node2 -->
<g id="node2" class="node">
<title>Node2</title>
<g id="a_node2"><a xlink:href="Signature_8h.html" target="_top" xlink:title=" ">
<polygon fill="white" stroke="black" points="2171.5,-112.5 2171.5,-131.5 2243.5,-131.5 2243.5,-112.5 2171.5,-112.5"/>
<text text-anchor="middle" x="2207.5" y="-119.5" font-family="Helvetica,sans-Serif" font-size="10.00">Signature.h</text>
</a>
</g>
</g>
<!-- Node1&#45;&gt;Node2 -->
<g id="edge1" class="edge">
<title>Node1&#45;&gt;Node2</title>
<path fill="none" stroke="midnightblue" d="M4344.32,-175.88C4058.17,-168.8 2501.51,-130.28 2243.68,-123.9"/>
<polygon fill="midnightblue" stroke="midnightblue" points="4344.26,-179.38 4354.34,-176.13 4344.43,-172.38 4344.26,-179.38"/>
</g>
<!-- Node3 -->
<g id="node3" class="node">
<title>Node3</title>
<g id="a_node3"><a xlink:href="DebugInfo_8cpp.html" target="_top" xlink:title=" ">
<polygon fill="white" stroke="black" points="0,-56.5 0,-75.5 87,-75.5 87,-56.5 0,-56.5"/>
<text text-anchor="middle" x="43.5" y="-63.5" font-family="Helvetica,sans-Serif" font-size="10.00">DebugInfo.cpp</text>
</a>
</g>
</g>
<!-- Node1&#45;&gt;Node3 -->
<g id="edge43" class="edge">
<title>Node1&#45;&gt;Node3</title>
<path fill="none" stroke="midnightblue" d="M4344.2,-176.86C3942.31,-175.51 981.1,-162.66 96.5,-76 93.43,-75.7 90.28,-75.33 87.11,-74.91"/>
<polygon fill="midnightblue" stroke="midnightblue" points="4344.27,-180.36 4354.29,-176.9 4344.3,-173.36 4344.27,-180.36"/>
</g>
<!-- Node14 -->
<g id="node12" class="node">
<title>Node14</title>
<g id="a_node12"><a xlink:href="Signature_8cpp.html" target="_top" xlink:title=" ">
<polygon fill="white" stroke="black" points="2557,-0.5 2557,-19.5 2640,-19.5 2640,-0.5 2557,-0.5"/>
<text text-anchor="middle" x="2598.5" y="-7.5" font-family="Helvetica,sans-Serif" font-size="10.00">Signature.cpp</text>
</a>
</g>
</g>
<!-- Node1&#45;&gt;Node14 -->
<g id="edge44" class="edge">
<title>Node1&#45;&gt;Node14</title>
<path fill="none" stroke="midnightblue" d="M4344.18,-171.14C4296.71,-163.1 4232.41,-145.65 4258.5,-112 4299.56,-59.04 4445.29,-103.98 4398.5,-56 4366.78,-23.48 2907.98,-12.91 2640.42,-11.25"/>
<polygon fill="midnightblue" stroke="midnightblue" points="4343.89,-174.64 4354.31,-172.76 4344.99,-167.73 4343.89,-174.64"/>
</g>
<!-- Node30 -->
<g id="node25" class="node">
<title>Node30</title>
<g id="a_node25"><a xlink:href="Assignment_8cpp.html" target="_top" xlink:title=" ">
<polygon fill="white" stroke="black" points="3676,-56.5 3676,-75.5 3771,-75.5 3771,-56.5 3676,-56.5"/>
<text text-anchor="middle" x="3723.5" y="-63.5" font-family="Helvetica,sans-Serif" font-size="10.00">Assignment.cpp</text>
</a>
</g>
</g>
<!-- Node1&#45;&gt;Node30 -->
<g id="edge53" class="edge">
<title>Node1&#45;&gt;Node30</title>
<path fill="none" stroke="midnightblue" d="M4343.99,-173.66C4270.07,-167.83 4119.49,-154.24 3993.5,-132 3905.42,-116.45 3803.22,-89.31 3753.61,-75.54"/>
<polygon fill="midnightblue" stroke="midnightblue" points="4344.09,-177.18 4354.33,-174.47 4344.63,-170.2 4344.09,-177.18"/>
</g>
<!-- Node31 -->
<g id="node26" class="node">
<title>Node31</title>
<g id="a_node26"><a xlink:href="CallStatement_8cpp.html" target="_top" xlink:title=" ">
<polygon fill="white" stroke="black" points="3789,-56.5 3789,-75.5 3896,-75.5 3896,-56.5 3789,-56.5"/>
<text text-anchor="middle" x="3842.5" y="-63.5" font-family="Helvetica,sans-Serif" font-size="10.00">CallStatement.cpp</text>
</a>
</g>
</g>
<!-- Node1&#45;&gt;Node31 -->
<g id="edge54" class="edge">
<title>Node1&#45;&gt;Node31</title>
<path fill="none" stroke="midnightblue" d="M4343.99,-172.44C4282.28,-165.82 4168.84,-152.11 4073.5,-132 3998.09,-116.09 3911.03,-89.23 3868.55,-75.56"/>
<polygon fill="midnightblue" stroke="midnightblue" points="4343.85,-175.95 4354.16,-173.52 4344.59,-168.98 4343.85,-175.95"/>
</g>
<!-- Node34 -->
<g id="node29" class="node">
<title>Node34</title>
<g id="a_node29"><a xlink:href="Type_8cpp.html" target="_top" xlink:title=" ">
<polygon fill="white" stroke="black" points="3914,-56.5 3914,-75.5 3973,-75.5 3973,-56.5 3914,-56.5"/>
<text text-anchor="middle" x="3943.5" y="-63.5" font-family="Helvetica,sans-Serif" font-size="10.00">Type.cpp</text>
</a>
</g>
</g>
<!-- Node1&#45;&gt;Node34 -->
<g id="edge56" class="edge">
<title>Node1&#45;&gt;Node34</title>
<path fill="none" stroke="midnightblue" d="M4344.05,-170.55C4294.39,-163.06 4212.66,-149.48 4143.5,-132 4078.19,-115.49 4003.14,-89.02 3966.31,-75.52"/>
<polygon fill="midnightblue" stroke="midnightblue" points="4343.74,-174.04 4354.15,-172.05 4344.77,-167.11 4343.74,-174.04"/>
</g>
<!-- Node37 -->
<g id="node32" class="node">
<title>Node37</title>
<g id="a_node32"><a xlink:href="DFALocalMapper_8cpp.html" target="_top" xlink:title=" ">
<polygon fill="white" stroke="black" points="3991,-56.5 3991,-75.5 4110,-75.5 4110,-56.5 3991,-56.5"/>
<text text-anchor="middle" x="4050.5" y="-63.5" font-family="Helvetica,sans-Serif" font-size="10.00">DFALocalMapper.cpp</text>
</a>
</g>
</g>
<!-- Node1&#45;&gt;Node37 -->
<g id="edge59" class="edge">
<title>Node1&#45;&gt;Node37</title>
<path fill="none" stroke="midnightblue" d="M4344.56,-169.03C4305.01,-161.43 4246.16,-148.67 4196.5,-132 4148.1,-115.75 4093.85,-89.28 4067.17,-75.68"/>
<polygon fill="midnightblue" stroke="midnightblue" points="4343.96,-172.48 4354.43,-170.9 4345.26,-165.6 4343.96,-172.48"/>
</g>
<!-- Node43 -->
<g id="node38" class="node">
<title>Node43</title>
<g id="a_node38"><a xlink:href="DFATypeAnalyzer_8cpp.html" target="_top" xlink:title=" ">
<polygon fill="white" stroke="black" points="4128,-56.5 4128,-75.5 4249,-75.5 4249,-56.5 4128,-56.5"/>
<text text-anchor="middle" x="4188.5" y="-63.5" font-family="Helvetica,sans-Serif" font-size="10.00">DFATypeAnalyzer.cpp</text>
</a>
</g>
</g>
<!-- Node1&#45;&gt;Node43 -->
<g id="edge60" class="edge">
<title>Node1&#45;&gt;Node43</title>
<path fill="none" stroke="midnightblue" d="M4343.86,-176.11C4305.42,-173.03 4251.14,-162.95 4215.5,-132 4198.34,-117.1 4191.86,-89.54 4189.6,-75.58"/>
<polygon fill="midnightblue" stroke="midnightblue" points="4344.05,-179.63 4354.26,-176.8 4344.51,-172.64 4344.05,-179.63"/>
</g>
<!-- Node44 -->
<g id="node39" class="node">
<title>Node44</title>
<g id="a_node39"><a xlink:href="DFATypeRecovery_8cpp.html" target="_top" xlink:title=" ">
<polygon fill="white" stroke="black" points="4267.5,-56.5 4267.5,-75.5 4389.5,-75.5 4389.5,-56.5 4267.5,-56.5"/>
<text text-anchor="middle" x="4328.5" y="-63.5" font-family="Helvetica,sans-Serif" font-size="10.00">DFATypeRecovery.cpp</text>
</a>
</g>
</g>
<!-- Node1&#45;&gt;Node44 -->
<g id="edge61" class="edge">
<title>Node1&#45;&gt;Node44</title>
<path fill="none" stroke="midnightblue" d="M4344.16,-170.77C4300.78,-163.76 4239.88,-150.85 4225.5,-132 4204.54,-104.51 4252.36,-85.62 4289.66,-75.56"/>
<polygon fill="midnightblue" stroke="midnightblue" points="4343.8,-174.25 4354.22,-172.34 4344.88,-167.34 4343.8,-174.25"/>
</g>
<!-- Node45 -->
<g id="node40" class="node">
<title>Node45</title>
<g id="a_node40"><a xlink:href="FromSSAFormPass_8cpp.html" target="_top" xlink:title=" ">
<polygon fill="white" stroke="black" points="4267.5,-112.5 4267.5,-131.5 4395.5,-131.5 4395.5,-112.5 4267.5,-112.5"/>
<text text-anchor="middle" x="4331.5" y="-119.5" font-family="Helvetica,sans-Serif" font-size="10.00">FromSSAFormPass.cpp</text>
</a>
</g>
</g>
<!-- Node1&#45;&gt;Node45 -->
<g id="edge45" class="edge">
<title>Node1&#45;&gt;Node45</title>
<path fill="none" stroke="midnightblue" d="M4372.59,-161.25C4362.3,-151.67 4349.53,-139.79 4340.99,-131.83"/>
<polygon fill="midnightblue" stroke="midnightblue" points="4370.48,-164.07 4380.18,-168.32 4375.25,-158.95 4370.48,-164.07"/>
</g>
<!-- Node46 -->
<g id="node41" class="node">
<title>Node46</title>
<g id="a_node41"><a xlink:href="Binary_8cpp.html" target="_top" xlink:title=" ">
<polygon fill="white" stroke="black" points="4414,-112.5 4414,-131.5 4481,-131.5 4481,-112.5 4414,-112.5"/>
<text text-anchor="middle" x="4447.5" y="-119.5" font-family="Helvetica,sans-Serif" font-size="10.00">Binary.cpp</text>
</a>
</g>
</g>
<!-- Node1&#45;&gt;Node46 -->
<g id="edge46" class="edge">
<title>Node1&#45;&gt;Node46</title>
<path fill="none" stroke="midnightblue" d="M4406.41,-161.25C4416.7,-151.67 4429.47,-139.79 4438.01,-131.83"/>
<polygon fill="midnightblue" stroke="midnightblue" points="4403.75,-158.95 4398.82,-168.32 4408.52,-164.07 4403.75,-158.95"/>
</g>
<!-- Node47 -->
<g id="node42" class="node">
<title>Node47</title>
<g id="a_node42"><a xlink:href="Const_8cpp.html" target="_top" xlink:title=" ">
<polygon fill="white" stroke="black" points="4499,-112.5 4499,-131.5 4564,-131.5 4564,-112.5 4499,-112.5"/>
<text text-anchor="middle" x="4531.5" y="-119.5" font-family="Helvetica,sans-Serif" font-size="10.00">Const.cpp</text>
</a>
</g>
</g>
<!-- Node1&#45;&gt;Node47 -->
<g id="edge47" class="edge">
<title>Node1&#45;&gt;Node47</title>
<path fill="none" stroke="midnightblue" d="M4421.66,-164.77C4448.33,-154.63 4485.57,-140.47 4509.1,-131.52"/>
<polygon fill="midnightblue" stroke="midnightblue" points="4420.1,-161.62 4412,-168.44 4422.59,-168.16 4420.1,-161.62"/>
</g>
<!-- Node48 -->
<g id="node43" class="node">
<title>Node48</title>
<g id="a_node43"><a xlink:href="RefExp_8cpp.html" target="_top" xlink:title=" ">
<polygon fill="white" stroke="black" points="4582,-112.5 4582,-131.5 4653,-131.5 4653,-112.5 4582,-112.5"/>
<text text-anchor="middle" x="4617.5" y="-119.5" font-family="Helvetica,sans-Serif" font-size="10.00">RefExp.cpp</text>
</a>
</g>
</g>
<!-- Node1&#45;&gt;Node48 -->
<g id="edge48" class="edge">
<title>Node1&#45;&gt;Node48</title>
<path fill="none" stroke="midnightblue" d="M4434.59,-166.32C4477.83,-156.08 4542.24,-140.83 4581.96,-131.42"/>
<polygon fill="midnightblue" stroke="midnightblue" points="4433.55,-162.97 4424.63,-168.68 4435.16,-169.78 4433.55,-162.97"/>
</g>
<!-- Node49 -->
<g id="node44" class="node">
<title>Node49</title>
<g id="a_node44"><a xlink:href="Terminal_8cpp.html" target="_top" xlink:title=" ">
<polygon fill="white" stroke="black" points="4671,-112.5 4671,-131.5 4750,-131.5 4750,-112.5 4671,-112.5"/>
<text text-anchor="middle" x="4710.5" y="-119.5" font-family="Helvetica,sans-Serif" font-size="10.00">Terminal.cpp</text>
</a>
</g>
</g>
<!-- Node1&#45;&gt;Node49 -->
<g id="edge49" class="edge">
<title>Node1&#45;&gt;Node49</title>
<path fill="none" stroke="midnightblue" d="M4434.86,-169.84C4489.07,-161.2 4582.5,-146.09 4662.5,-132 4665.26,-131.51 4668.1,-131 4670.96,-130.49"/>
<polygon fill="midnightblue" stroke="midnightblue" points="4434.21,-166.4 4424.88,-171.42 4435.31,-173.31 4434.21,-166.4"/>
</g>
<!-- Node50 -->
<g id="node45" class="node">
<title>Node50</title>
<g id="a_node45"><a xlink:href="Ternary_8cpp.html" target="_top" xlink:title=" ">
<polygon fill="white" stroke="black" points="4768,-112.5 4768,-131.5 4839,-131.5 4839,-112.5 4768,-112.5"/>
<text text-anchor="middle" x="4803.5" y="-119.5" font-family="Helvetica,sans-Serif" font-size="10.00">Ternary.cpp</text>
</a>
</g>
</g>
<!-- Node1&#45;&gt;Node50 -->
<g id="edge50" class="edge">
<title>Node1&#45;&gt;Node50</title>
<path fill="none" stroke="midnightblue" d="M4434.79,-172.68C4504.7,-165.75 4643.01,-150.97 4759.5,-132 4762.12,-131.57 4764.81,-131.1 4767.53,-130.6"/>
<polygon fill="midnightblue" stroke="midnightblue" points="4434.19,-169.22 4424.58,-173.69 4434.87,-176.19 4434.19,-169.22"/>
</g>
<!-- Node51 -->
<g id="node46" class="node">
<title>Node51</title>
<g id="a_node46"><a xlink:href="Unary_8cpp.html" target="_top" xlink:title=" ">
<polygon fill="white" stroke="black" points="4857,-112.5 4857,-131.5 4922,-131.5 4922,-112.5 4857,-112.5"/>
<text text-anchor="middle" x="4889.5" y="-119.5" font-family="Helvetica,sans-Serif" font-size="10.00">Unary.cpp</text>
</a>
</g>
</g>
<!-- Node1&#45;&gt;Node51 -->
<g id="edge51" class="edge">
<title>Node1&#45;&gt;Node51</title>
<path fill="none" stroke="midnightblue" d="M4434.55,-174.36C4517.05,-169.13 4697.76,-155.85 4848.5,-132 4851.24,-131.57 4854.06,-131.06 4856.89,-130.52"/>
<polygon fill="midnightblue" stroke="midnightblue" points="4434.28,-170.87 4424.52,-174.99 4434.71,-177.86 4434.28,-170.87"/>
</g>
<!-- Node52 -->
<g id="node47" class="node">
<title>Node52</title>
<g id="a_node47"><a xlink:href="Register_8cpp.html" target="_top" xlink:title=" ">
<polygon fill="white" stroke="black" points="4940,-112.5 4940,-131.5 5017,-131.5 5017,-112.5 4940,-112.5"/>
<text text-anchor="middle" x="4978.5" y="-119.5" font-family="Helvetica,sans-Serif" font-size="10.00">Register.cpp</text>
</a>
</g>
</g>
<!-- Node1&#45;&gt;Node52 -->
<g id="edge52" class="edge">
<title>Node1&#45;&gt;Node52</title>
<path fill="none" stroke="midnightblue" d="M4434.72,-174.87C4527.96,-170.13 4748.19,-157.09 4931.5,-132 4934.22,-131.63 4937.01,-131.2 4939.83,-130.74"/>
<polygon fill="midnightblue" stroke="midnightblue" points="4434.33,-171.39 4424.52,-175.39 4434.68,-178.38 4434.33,-171.39"/>
</g>
<!-- Node53 -->
<g id="node48" class="node">
<title>Node53</title>
<g id="a_node48"><a xlink:href="PointerType_8cpp.html" target="_top" xlink:title=" ">
<polygon fill="white" stroke="black" points="5035.5,-112.5 5035.5,-131.5 5129.5,-131.5 5129.5,-112.5 5035.5,-112.5"/>
<text text-anchor="middle" x="5082.5" y="-119.5" font-family="Helvetica,sans-Serif" font-size="10.00">PointerType.cpp</text>
</a>
</g>
</g>
<!-- Node1&#45;&gt;Node53 -->
<g id="edge55" class="edge">
<title>Node1&#45;&gt;Node53</title>
<path fill="none" stroke="midnightblue" d="M4435.03,-175.17C4539.72,-170.67 4805.56,-157.51 5026.5,-132 5029.43,-131.66 5032.45,-131.28 5035.49,-130.87"/>
<polygon fill="midnightblue" stroke="midnightblue" points="4434.66,-171.69 4424.82,-175.61 4434.96,-178.68 4434.66,-171.69"/>
</g>
<!-- Node54 -->
<g id="node49" class="node">
<title>Node54</title>
<g id="a_node49"><a xlink:href="UnionType_8cpp.html" target="_top" xlink:title=" ">
<polygon fill="white" stroke="black" points="5147.5,-112.5 5147.5,-131.5 5235.5,-131.5 5235.5,-112.5 5147.5,-112.5"/>
<text text-anchor="middle" x="5191.5" y="-119.5" font-family="Helvetica,sans-Serif" font-size="10.00">UnionType.cpp</text>
</a>
</g>
</g>
<!-- Node1&#45;&gt;Node54 -->
<g id="edge57" class="edge">
<title>Node1&#45;&gt;Node54</title>
<path fill="none" stroke="midnightblue" d="M4434.73,-175.99C4551.54,-173 4872.79,-162.45 5138.5,-132 5141.37,-131.67 5144.33,-131.29 5147.3,-130.87"/>
<polygon fill="midnightblue" stroke="midnightblue" points="4434.62,-172.49 4424.71,-176.24 4434.8,-179.49 4434.62,-172.49"/>
</g>
<!-- Node55 -->
<g id="node50" class="node">
<title>Node55</title>
<g id="a_node50"><a xlink:href="VoidType_8cpp.html" target="_top" xlink:title=" ">
<polygon fill="white" stroke="black" points="5254,-112.5 5254,-131.5 5335,-131.5 5335,-112.5 5254,-112.5"/>
<text text-anchor="middle" x="5294.5" y="-119.5" font-family="Helvetica,sans-Serif" font-size="10.00">VoidType.cpp</text>
</a>
</g>
</g>
<!-- Node1&#45;&gt;Node55 -->
<g id="edge58" class="edge">
<title>Node1&#45;&gt;Node55</title>
<path fill="none" stroke="midnightblue" d="M4434.84,-176.61C4562.62,-175.1 4936.44,-167.69 5244.5,-132 5247.57,-131.64 5250.73,-131.22 5253.9,-130.75"/>
<polygon fill="midnightblue" stroke="midnightblue" points="4434.61,-173.12 4424.65,-176.73 4434.69,-180.12 4434.61,-173.12"/>
</g>
<!-- Node2&#45;&gt;Node3 -->
<g id="edge2" class="edge">
<title>Node2&#45;&gt;Node3</title>
<path fill="none" stroke="midnightblue" d="M2160.93,-120.42C1870.03,-116.73 308.17,-96.12 96.5,-76 93.43,-75.71 90.28,-75.34 87.11,-74.93"/>
<polygon fill="midnightblue" stroke="midnightblue" points="2161.08,-123.92 2171.13,-120.55 2161.17,-116.92 2161.08,-123.92"/>
</g>
<!-- Node4 -->
<g id="node4" class="node">
<title>Node4</title>
<g id="a_node4"><a xlink:href="Module_8cpp.html" target="_top" xlink:title=" ">
<polygon fill="white" stroke="black" points="1910,-56.5 1910,-75.5 1983,-75.5 1983,-56.5 1910,-56.5"/>
<text text-anchor="middle" x="1946.5" y="-63.5" font-family="Helvetica,sans-Serif" font-size="10.00">Module.cpp</text>
</a>
</g>
</g>
<!-- Node2&#45;&gt;Node4 -->
<g id="edge3" class="edge">
<title>Node2&#45;&gt;Node4</title>
<path fill="none" stroke="midnightblue" d="M2161.44,-111.47C2110.72,-100.98 2030.16,-84.31 1983.41,-74.64"/>
<polygon fill="midnightblue" stroke="midnightblue" points="2160.98,-114.95 2171.48,-113.55 2162.4,-108.09 2160.98,-114.95"/>
</g>
<!-- Node5 -->
<g id="node5" class="node">
<title>Node5</title>
<g id="a_node5"><a xlink:href="LibProc_8cpp.html" target="_top" xlink:title=" ">
<polygon fill="white" stroke="black" points="2001.5,-56.5 2001.5,-75.5 2073.5,-75.5 2073.5,-56.5 2001.5,-56.5"/>
<text text-anchor="middle" x="2037.5" y="-63.5" font-family="Helvetica,sans-Serif" font-size="10.00">LibProc.cpp</text>
</a>
</g>
</g>
<!-- Node2&#45;&gt;Node5 -->
<g id="edge4" class="edge">
<title>Node2&#45;&gt;Node5</title>
<path fill="none" stroke="midnightblue" d="M2170.68,-109.3C2138.65,-99.13 2092.98,-84.62 2064.31,-75.52"/>
<polygon fill="midnightblue" stroke="midnightblue" points="2169.97,-112.75 2180.56,-112.44 2172.09,-106.08 2169.97,-112.75"/>
</g>
<!-- Node6 -->
<g id="node6" class="node">
<title>Node6</title>
<g id="a_node6"><a xlink:href="Proc_8cpp.html" target="_top" xlink:title=" ">
<polygon fill="white" stroke="black" points="2091.5,-56.5 2091.5,-75.5 2149.5,-75.5 2149.5,-56.5 2091.5,-56.5"/>
<text text-anchor="middle" x="2120.5" y="-63.5" font-family="Helvetica,sans-Serif" font-size="10.00">Proc.cpp</text>
</a>
</g>
</g>
<!-- Node2&#45;&gt;Node6 -->
<g id="edge5" class="edge">
<title>Node2&#45;&gt;Node6</title>
<path fill="none" stroke="midnightblue" d="M2184.78,-106.9C2168.83,-97 2148,-84.07 2134.44,-75.65"/>
<polygon fill="midnightblue" stroke="midnightblue" points="2183.18,-110.02 2193.52,-112.32 2186.87,-104.08 2183.18,-110.02"/>
</g>
<!-- Node7 -->
<g id="node7" class="node">
<title>Node7</title>
<g id="a_node7"><a xlink:href="UserProc_8cpp.html" target="_top" xlink:title=" ">
<polygon fill="white" stroke="black" points="2167.5,-56.5 2167.5,-75.5 2247.5,-75.5 2247.5,-56.5 2167.5,-56.5"/>
<text text-anchor="middle" x="2207.5" y="-63.5" font-family="Helvetica,sans-Serif" font-size="10.00">UserProc.cpp</text>
</a>
</g>
</g>
<!-- Node2&#45;&gt;Node7 -->
<g id="edge6" class="edge">
<title>Node2&#45;&gt;Node7</title>
<path fill="none" stroke="midnightblue" d="M2207.5,-101.8C2207.5,-92.91 2207.5,-82.78 2207.5,-75.75"/>
<polygon fill="midnightblue" stroke="midnightblue" points="2204,-102.08 2207.5,-112.08 2211,-102.08 2204,-102.08"/>
</g>
<!-- Node8 -->
<g id="node8" class="node">
<title>Node8</title>
<g id="a_node8"><a xlink:href="Prog_8cpp.html" target="_top" xlink:title=" ">
<polygon fill="white" stroke="black" points="2266,-56.5 2266,-75.5 2325,-75.5 2325,-56.5 2266,-56.5"/>
<text text-anchor="middle" x="2295.5" y="-63.5" font-family="Helvetica,sans-Serif" font-size="10.00">Prog.cpp</text>
</a>
</g>
</g>
<!-- Node2&#45;&gt;Node8 -->
<g id="edge7" class="edge">
<title>Node2&#45;&gt;Node8</title>
<path fill="none" stroke="midnightblue" d="M2230.48,-106.9C2246.61,-97 2267.68,-84.07 2281.4,-75.65"/>
<polygon fill="midnightblue" stroke="midnightblue" points="2228.33,-104.11 2221.64,-112.32 2231.99,-110.08 2228.33,-104.11"/>
</g>
<!-- Node9 -->
<g id="node9" class="node">
<title>Node9</title>
<g id="a_node9"><a xlink:href="CustomSignature_8h.html" target="_top" xlink:title=" ">
<polygon fill="white" stroke="red" points="105.5,-56.5 105.5,-75.5 215.5,-75.5 215.5,-56.5 105.5,-56.5"/>
<text text-anchor="middle" x="160.5" y="-63.5" font-family="Helvetica,sans-Serif" font-size="10.00">CustomSignature.h</text>
</a>
</g>
</g>
<!-- Node2&#45;&gt;Node9 -->
<g id="edge8" class="edge">
<title>Node2&#45;&gt;Node9</title>
<path fill="none" stroke="midnightblue" d="M2161.04,-120.69C1900.5,-118.81 618.47,-108.06 224.5,-76 221.59,-75.76 218.62,-75.48 215.61,-75.17"/>
<polygon fill="midnightblue" stroke="midnightblue" points="2161.26,-124.19 2171.29,-120.76 2161.31,-117.19 2161.26,-124.19"/>
</g>
<!-- Node12 -->
<g id="node11" class="node">
<title>Node12</title>
<g id="a_node11"><a xlink:href="PPCSignature_8h.html" target="_top" xlink:title=" ">
<polygon fill="white" stroke="red" points="2382,-56.5 2382,-75.5 2473,-75.5 2473,-56.5 2382,-56.5"/>
<text text-anchor="middle" x="2427.5" y="-63.5" font-family="Helvetica,sans-Serif" font-size="10.00">PPCSignature.h</text>
</a>
</g>
</g>
<!-- Node2&#45;&gt;Node12 -->
<g id="edge10" class="edge">
<title>Node2&#45;&gt;Node12</title>
<path fill="none" stroke="midnightblue" d="M2252.22,-110.02C2293.78,-99.82 2354.81,-84.84 2392.8,-75.52"/>
<polygon fill="midnightblue" stroke="midnightblue" points="2251.24,-106.66 2242.36,-112.44 2252.91,-113.46 2251.24,-106.66"/>
</g>
<!-- Node2&#45;&gt;Node14 -->
<g id="edge12" class="edge">
<title>Node2&#45;&gt;Node14</title>
<path fill="none" stroke="midnightblue" d="M2244.54,-109.19C2269.91,-100.76 2304.14,-88.71 2333.5,-76 2351.38,-68.26 2354.1,-62.41 2372.5,-56 2434.84,-34.29 2510.7,-21.87 2556.76,-15.78"/>
<polygon fill="midnightblue" stroke="midnightblue" points="2243.34,-105.9 2234.93,-112.35 2245.53,-112.55 2243.34,-105.9"/>
</g>
<!-- Node15 -->
<g id="node13" class="node">
<title>Node15</title>
<g id="a_node13"><a xlink:href="ST20Signature_8h.html" target="_top" xlink:title=" ">
<polygon fill="white" stroke="red" points="2491.5,-56.5 2491.5,-75.5 2587.5,-75.5 2587.5,-56.5 2491.5,-56.5"/>
<text text-anchor="middle" x="2539.5" y="-63.5" font-family="Helvetica,sans-Serif" font-size="10.00">ST20Signature.h</text>
</a>
</g>
</g>
<!-- Node2&#45;&gt;Node15 -->
<g id="edge13" class="edge">
<title>Node2&#45;&gt;Node15</title>
<path fill="none" stroke="midnightblue" d="M2253.65,-113.49C2316.3,-103.3 2427.7,-85.18 2491.36,-74.83"/>
<polygon fill="midnightblue" stroke="midnightblue" points="2252.97,-110.06 2243.66,-115.12 2254.09,-116.97 2252.97,-110.06"/>
</g>
<!-- Node17 -->
<g id="node14" class="node">
<title>Node17</title>
<g id="a_node14"><a xlink:href="Win32Signature_8h.html" target="_top" xlink:title=" ">
<polygon fill="white" stroke="red" points="2606,-56.5 2606,-75.5 2709,-75.5 2709,-56.5 2606,-56.5"/>
<text text-anchor="middle" x="2657.5" y="-63.5" font-family="Helvetica,sans-Serif" font-size="10.00">Win32Signature.h</text>
</a>
</g>
</g>
<!-- Node2&#45;&gt;Node17 -->
<g id="edge15" class="edge">
<title>Node2&#45;&gt;Node17</title>
<path fill="none" stroke="midnightblue" d="M2253.98,-116.1C2326.99,-108.29 2472.99,-92.25 2596.5,-76 2599.58,-75.6 2602.74,-75.17 2605.93,-74.72"/>
<polygon fill="midnightblue" stroke="midnightblue" points="2253.32,-112.65 2243.75,-117.19 2254.06,-119.61 2253.32,-112.65"/>
</g>
<!-- Node19 -->
<g id="node15" class="node">
<title>Node19</title>
<g id="a_node15"><a xlink:href="X86Signature_8h.html" target="_top" xlink:title=" ">
<polygon fill="white" stroke="red" points="2727,-56.5 2727,-75.5 2818,-75.5 2818,-56.5 2727,-56.5"/>
<text text-anchor="middle" x="2772.5" y="-63.5" font-family="Helvetica,sans-Serif" font-size="10.00">X86Signature.h</text>
</a>
</g>
</g>
<!-- Node2&#45;&gt;Node19 -->
<g id="edge17" class="edge">
<title>Node2&#45;&gt;Node19</title>
<path fill="none" stroke="midnightblue" d="M2253.89,-118.06C2343.63,-112.13 2547.2,-97.42 2717.5,-76 2720.57,-75.61 2723.74,-75.18 2726.92,-74.73"/>
<polygon fill="midnightblue" stroke="midnightblue" points="2253.52,-114.58 2243.77,-118.73 2253.98,-121.57 2253.52,-114.58"/>
</g>
<!-- Node21 -->
<g id="node16" class="node">
<title>Node21</title>
<g id="a_node16"><a xlink:href="UnusedReturnRemover_8cpp.html" target="_top" xlink:title=" ">
<polygon fill="white" stroke="black" points="2836.5,-56.5 2836.5,-75.5 2986.5,-75.5 2986.5,-56.5 2836.5,-56.5"/>
<text text-anchor="middle" x="2911.5" y="-63.5" font-family="Helvetica,sans-Serif" font-size="10.00">UnusedReturnRemover.cpp</text>
</a>
</g>
</g>
<!-- Node2&#45;&gt;Node21 -->
<g id="edge19" class="edge">
<title>Node2&#45;&gt;Node21</title>
<path fill="none" stroke="midnightblue" d="M2253.88,-118.15C2356.94,-111.71 2612.76,-95.08 2826.5,-76 2829.75,-75.71 2833.07,-75.4 2836.43,-75.08"/>
<polygon fill="midnightblue" stroke="midnightblue" points="2253.58,-114.66 2243.81,-118.78 2254.01,-121.65 2253.58,-114.66"/>
</g>
<!-- Node22 -->
<g id="node17" class="node">
<title>Node22</title>
<g id="a_node17"><a xlink:href="DefaultFrontEnd_8cpp.html" target="_top" xlink:title=" ">
<polygon fill="white" stroke="black" points="3004.5,-56.5 3004.5,-75.5 3120.5,-75.5 3120.5,-56.5 3004.5,-56.5"/>
<text text-anchor="middle" x="3062.5" y="-63.5" font-family="Helvetica,sans-Serif" font-size="10.00">DefaultFrontEnd.cpp</text>
</a>
</g>
</g>
<!-- Node2&#45;&gt;Node22 -->
<g id="edge20" class="edge">
<title>Node2&#45;&gt;Node22</title>
<path fill="none" stroke="midnightblue" d="M2253.79,-119.59C2375.5,-115.63 2714.51,-102.86 2995.5,-76 2998.42,-75.72 3001.41,-75.41 3004.43,-75.08"/>
<polygon fill="midnightblue" stroke="midnightblue" points="2253.59,-116.1 2243.7,-119.92 2253.81,-123.09 2253.59,-116.1"/>
</g>
<!-- Node23 -->
<g id="node18" class="node">
<title>Node23</title>
<g id="a_node18"><a xlink:href="CallDefineUpdatePass_8cpp.html" target="_top" xlink:title=" ">
<polygon fill="white" stroke="black" points="3138.5,-56.5 3138.5,-75.5 3284.5,-75.5 3284.5,-56.5 3138.5,-56.5"/>
<text text-anchor="middle" x="3211.5" y="-63.5" font-family="Helvetica,sans-Serif" font-size="10.00">CallDefineUpdatePass.cpp</text>
</a>
</g>
</g>
<!-- Node2&#45;&gt;Node23 -->
<g id="edge21" class="edge">
<title>Node2&#45;&gt;Node23</title>
<path fill="none" stroke="midnightblue" d="M2253.96,-119.73C2389.21,-115.81 2794.3,-102.55 3129.5,-76 3132.36,-75.77 3135.27,-75.53 3138.2,-75.27"/>
<polygon fill="midnightblue" stroke="midnightblue" points="2253.47,-116.24 2243.58,-120.03 2253.67,-123.24 2253.47,-116.24"/>
</g>
<!-- Node24 -->
<g id="node19" class="node">
<title>Node24</title>
<g id="a_node19"><a xlink:href="FinalParameterSearchPass_8cpp.html" target="_top" xlink:title=" ">
<polygon fill="white" stroke="black" points="3302.5,-56.5 3302.5,-75.5 3468.5,-75.5 3468.5,-56.5 3302.5,-56.5"/>
<text text-anchor="middle" x="3385.5" y="-63.5" font-family="Helvetica,sans-Serif" font-size="10.00">FinalParameterSearchPass.cpp</text>
</a>
</g>
</g>
<!-- Node2&#45;&gt;Node24 -->
<g id="edge22" class="edge">
<title>Node2&#45;&gt;Node24</title>
<path fill="none" stroke="midnightblue" d="M2253.86,-120.01C2404.15,-116.6 2891.36,-103.98 3293.5,-76 3296.38,-75.8 3299.31,-75.58 3302.27,-75.35"/>
<polygon fill="midnightblue" stroke="midnightblue" points="2253.55,-116.52 2243.63,-120.24 2253.71,-123.51 2253.55,-116.52"/>
</g>
<!-- Node25 -->
<g id="node20" class="node">
<title>Node25</title>
<g id="a_node20"><a xlink:href="UnusedParamRemovalPass_8cpp.html" target="_top" xlink:title=" ">
<polygon fill="white" stroke="black" points="3487,-56.5 3487,-75.5 3658,-75.5 3658,-56.5 3487,-56.5"/>
<text text-anchor="middle" x="3572.5" y="-63.5" font-family="Helvetica,sans-Serif" font-size="10.00">UnusedParamRemovalPass.cpp</text>
</a>
</g>
</g>
<!-- Node2&#45;&gt;Node25 -->
<g id="edge23" class="edge">
<title>Node2&#45;&gt;Node25</title>
<path fill="none" stroke="midnightblue" d="M2253.99,-120.34C2420.14,-117.79 3000.05,-107.05 3477.5,-76 3480.56,-75.8 3483.67,-75.58 3486.81,-75.35"/>
<polygon fill="midnightblue" stroke="midnightblue" points="2253.6,-116.85 2243.65,-120.5 2253.71,-123.85 2253.6,-116.85"/>
</g>
<!-- Node26 -->
<g id="node21" class="node">
<title>Node26</title>
<g id="a_node21"><a xlink:href="CallAndPhiFixPass_8cpp.html" target="_top" xlink:title=" ">
<polygon fill="white" stroke="black" points="234,-56.5 234,-75.5 359,-75.5 359,-56.5 234,-56.5"/>
<text text-anchor="middle" x="296.5" y="-63.5" font-family="Helvetica,sans-Serif" font-size="10.00">CallAndPhiFixPass.cpp</text>
</a>
</g>
</g>
<!-- Node2&#45;&gt;Node26 -->
<g id="edge24" class="edge">
<title>Node2&#45;&gt;Node26</title>
<path fill="none" stroke="midnightblue" d="M2161.29,-120.5C1912.74,-117.69 732.51,-103.14 368.5,-76 365.49,-75.78 362.4,-75.51 359.29,-75.22"/>
<polygon fill="midnightblue" stroke="midnightblue" points="2161.38,-124 2171.42,-120.61 2161.46,-117 2161.38,-124"/>
</g>
<!-- Node27 -->
<g id="node22" class="node">
<title>Node27</title>
<g id="a_node22"><a xlink:href="ParameterSymbolMapPass_8cpp.html" target="_top" xlink:title=" ">
<polygon fill="white" stroke="black" points="377.5,-56.5 377.5,-75.5 545.5,-75.5 545.5,-56.5 377.5,-56.5"/>
<text text-anchor="middle" x="461.5" y="-63.5" font-family="Helvetica,sans-Serif" font-size="10.00">ParameterSymbolMapPass.cpp</text>
</a>
</g>
</g>
<!-- Node2&#45;&gt;Node27 -->
<g id="edge25" class="edge">
<title>Node2&#45;&gt;Node27</title>
<path fill="none" stroke="midnightblue" d="M2161.21,-120.91C1965.97,-120.3 1190.37,-115.38 554.5,-76 551.59,-75.82 548.62,-75.62 545.63,-75.4"/>
<polygon fill="midnightblue" stroke="midnightblue" points="2161.39,-124.41 2171.4,-120.94 2161.41,-117.41 2161.39,-124.41"/>
</g>
<!-- Node28 -->
<g id="node23" class="node">
<title>Node28</title>
<g id="a_node23"><a xlink:href="SPPreservationPass_8cpp.html" target="_top" xlink:title=" ">
<polygon fill="white" stroke="black" points="564,-56.5 564,-75.5 697,-75.5 697,-56.5 564,-56.5"/>
<text text-anchor="middle" x="630.5" y="-63.5" font-family="Helvetica,sans-Serif" font-size="10.00">SPPreservationPass.cpp</text>
</a>
</g>
</g>
<!-- Node2&#45;&gt;Node28 -->
<g id="edge26" class="edge">
<title>Node2&#45;&gt;Node28</title>
<path fill="none" stroke="midnightblue" d="M2161.27,-121.12C1977.16,-121.28 1278.42,-118.87 705.5,-76 702.75,-75.79 699.95,-75.56 697.13,-75.31"/>
<polygon fill="midnightblue" stroke="midnightblue" points="2161.41,-124.62 2171.4,-121.11 2161.4,-117.62 2161.41,-124.62"/>
</g>
<!-- Node29 -->
<g id="node24" class="node">
<title>Node29</title>
<g id="a_node24"><a xlink:href="Exp_8cpp.html" target="_top" xlink:title=" ">
<polygon fill="white" stroke="black" points="715,-56.5 715,-75.5 770,-75.5 770,-56.5 715,-56.5"/>
<text text-anchor="middle" x="742.5" y="-63.5" font-family="Helvetica,sans-Serif" font-size="10.00">Exp.cpp</text>
</a>
</g>
</g>
<!-- Node2&#45;&gt;Node29 -->
<g id="edge27" class="edge">
<title>Node2&#45;&gt;Node29</title>
<path fill="none" stroke="midnightblue" d="M2161.08,-120.83C1947.23,-119.84 1055.64,-113.52 779.5,-76 776.49,-75.59 773.36,-75.04 770.26,-74.41"/>
<polygon fill="midnightblue" stroke="midnightblue" points="2161.31,-124.33 2171.33,-120.87 2161.34,-117.33 2161.31,-124.33"/>
</g>
<!-- Node2&#45;&gt;Node30 -->
<g id="edge28" class="edge">
<title>Node2&#45;&gt;Node30</title>
<path fill="none" stroke="midnightblue" d="M2253.83,-120.36C2470.19,-117.23 3382.57,-102.69 3666.5,-76 3669.59,-75.71 3672.77,-75.36 3675.97,-74.96"/>
<polygon fill="midnightblue" stroke="midnightblue" points="2253.71,-116.86 2243.77,-120.5 2253.81,-123.86 2253.71,-116.86"/>
</g>
<!-- Node2&#45;&gt;Node31 -->
<g id="edge29" class="edge">
<title>Node2&#45;&gt;Node31</title>
<path fill="none" stroke="midnightblue" d="M2253.69,-120.39C2479.82,-117.27 3471.71,-102.3 3779.5,-76 3782.58,-75.74 3785.74,-75.42 3788.93,-75.07"/>
<polygon fill="midnightblue" stroke="midnightblue" points="2253.45,-116.89 2243.5,-120.52 2253.55,-123.89 2253.45,-116.89"/>
</g>
<!-- Node32 -->
<g id="node27" class="node">
<title>Node32</title>
<g id="a_node27"><a xlink:href="ReturnStatement_8cpp.html" target="_top" xlink:title=" ">
<polygon fill="white" stroke="black" points="788.5,-56.5 788.5,-75.5 908.5,-75.5 908.5,-56.5 788.5,-56.5"/>
<text text-anchor="middle" x="848.5" y="-63.5" font-family="Helvetica,sans-Serif" font-size="10.00">ReturnStatement.cpp</text>
</a>
</g>
</g>
<!-- Node2&#45;&gt;Node32 -->
<g id="edge30" class="edge">
<title>Node2&#45;&gt;Node32</title>
<path fill="none" stroke="midnightblue" d="M2161.05,-120.97C1993.23,-120.52 1402.62,-116.01 917.5,-76 914.61,-75.76 911.66,-75.49 908.67,-75.19"/>
<polygon fill="midnightblue" stroke="midnightblue" points="2161.25,-124.47 2171.26,-120.99 2161.27,-117.47 2161.25,-124.47"/>
</g>
<!-- Node33 -->
<g id="node28" class="node">
<title>Node33</title>
<g id="a_node28"><a xlink:href="FuncType_8cpp.html" target="_top" xlink:title=" ">
<polygon fill="white" stroke="black" points="926.5,-56.5 926.5,-75.5 1008.5,-75.5 1008.5,-56.5 926.5,-56.5"/>
<text text-anchor="middle" x="967.5" y="-63.5" font-family="Helvetica,sans-Serif" font-size="10.00">FuncType.cpp</text>
</a>
</g>
</g>
<!-- Node2&#45;&gt;Node33 -->
<g id="edge31" class="edge">
<title>Node2&#45;&gt;Node33</title>
<path fill="none" stroke="midnightblue" d="M2161.05,-120.12C1970.13,-116.35 1245.2,-100.68 1017.5,-76 1014.61,-75.69 1011.63,-75.3 1008.63,-74.88"/>
<polygon fill="midnightblue" stroke="midnightblue" points="2161.23,-123.62 2171.3,-120.32 2161.37,-116.62 2161.23,-123.62"/>
</g>
<!-- Node2&#45;&gt;Node34 -->
<g id="edge32" class="edge">
<title>Node2&#45;&gt;Node34</title>
<path fill="none" stroke="midnightblue" d="M2253.92,-121.03C2491.41,-120.96 3572.11,-118.32 3904.5,-76 3907.53,-75.61 3910.68,-75.09 3913.8,-74.5"/>
<polygon fill="midnightblue" stroke="midnightblue" points="2253.58,-117.53 2243.58,-121.03 2253.58,-124.53 2253.58,-117.53"/>
</g>
<!-- Node35 -->
<g id="node30" class="node">
<title>Node35</title>
<g id="a_node30"><a xlink:href="DataIntervalMap_8cpp.html" target="_top" xlink:title=" ">
<polygon fill="white" stroke="black" points="1027,-56.5 1027,-75.5 1146,-75.5 1146,-56.5 1027,-56.5"/>
<text text-anchor="middle" x="1086.5" y="-63.5" font-family="Helvetica,sans-Serif" font-size="10.00">DataIntervalMap.cpp</text>
</a>
</g>
</g>
<!-- Node2&#45;&gt;Node35 -->
<g id="edge33" class="edge">
<title>Node2&#45;&gt;Node35</title>
<path fill="none" stroke="midnightblue" d="M2160.99,-120.49C2013.42,-118.54 1542.57,-109.91 1154.5,-76 1151.77,-75.76 1148.98,-75.49 1146.17,-75.2"/>
<polygon fill="midnightblue" stroke="midnightblue" points="2161.01,-123.99 2171.05,-120.61 2161.1,-116.99 2161.01,-123.99"/>
</g>
<!-- Node36 -->
<g id="node31" class="node">
<title>Node36</title>
<g id="a_node31"><a xlink:href="ArgSourceProvider_8cpp.html" target="_top" xlink:title=" ">
<polygon fill="white" stroke="black" points="1164,-56.5 1164,-75.5 1291,-75.5 1291,-56.5 1164,-56.5"/>
<text text-anchor="middle" x="1227.5" y="-63.5" font-family="Helvetica,sans-Serif" font-size="10.00">ArgSourceProvider.cpp</text>
</a>
</g>
</g>
<!-- Node2&#45;&gt;Node36 -->
<g id="edge34" class="edge">
<title>Node2&#45;&gt;Node36</title>
<path fill="none" stroke="midnightblue" d="M2160.79,-119.92C2026.62,-116.55 1628.64,-104.69 1299.5,-76 1296.74,-75.76 1293.92,-75.49 1291.08,-75.21"/>
<polygon fill="midnightblue" stroke="midnightblue" points="2161.02,-123.43 2171.1,-120.17 2161.19,-116.43 2161.02,-123.43"/>
</g>
<!-- Node2&#45;&gt;Node37 -->
<g id="edge35" class="edge">
<title>Node2&#45;&gt;Node37</title>
<path fill="none" stroke="midnightblue" d="M2254,-120.48C2497.88,-117.64 3631.36,-103.2 3981.5,-76 3984.51,-75.77 3987.59,-75.49 3990.7,-75.19"/>
<polygon fill="midnightblue" stroke="midnightblue" points="2253.68,-116.98 2243.72,-120.6 2253.76,-123.98 2253.68,-116.98"/>
</g>
<!-- Node38 -->
<g id="node33" class="node">
<title>Node38</title>
<g id="a_node33"><a xlink:href="Decompiler_8cpp.html" target="_top" xlink:title=" ">
<polygon fill="white" stroke="black" points="1309,-56.5 1309,-75.5 1402,-75.5 1402,-56.5 1309,-56.5"/>
<text text-anchor="middle" x="1355.5" y="-63.5" font-family="Helvetica,sans-Serif" font-size="10.00">Decompiler.cpp</text>
</a>
</g>
</g>
<!-- Node2&#45;&gt;Node38 -->
<g id="edge36" class="edge">
<title>Node2&#45;&gt;Node38</title>
<path fill="none" stroke="midnightblue" d="M2161.07,-120.09C2038.23,-117.33 1694.62,-107.18 1410.5,-76 1407.81,-75.7 1405.05,-75.37 1402.26,-75"/>
<polygon fill="midnightblue" stroke="midnightblue" points="2161.17,-123.6 2171.24,-120.32 2161.32,-116.6 2161.17,-123.6"/>
</g>
<!-- Node39 -->
<g id="node34" class="node">
<title>Node39</title>
<g id="a_node34"><a xlink:href="CCodeGenerator_8cpp.html" target="_top" xlink:title=" ">
<polygon fill="white" stroke="black" points="1420,-56.5 1420,-75.5 1537,-75.5 1537,-56.5 1420,-56.5"/>
<text text-anchor="middle" x="1478.5" y="-63.5" font-family="Helvetica,sans-Serif" font-size="10.00">CCodeGenerator.cpp</text>
</a>
</g>
</g>
<!-- Node2&#45;&gt;Node39 -->
<g id="edge37" class="edge">
<title>Node2&#45;&gt;Node39</title>
<path fill="none" stroke="midnightblue" d="M2161.02,-118.85C2052.99,-113.65 1776.61,-99.04 1546.5,-76 1543.42,-75.69 1540.26,-75.35 1537.08,-74.99"/>
<polygon fill="midnightblue" stroke="midnightblue" points="2161.09,-122.36 2171.25,-119.34 2161.43,-115.37 2161.09,-122.36"/>
</g>
<!-- Node40 -->
<g id="node35" class="node">
<title>Node40</title>
<g id="a_node35"><a xlink:href="PPCFrontEnd_8cpp.html" target="_top" xlink:title=" ">
<polygon fill="white" stroke="black" points="1555.5,-56.5 1555.5,-75.5 1653.5,-75.5 1653.5,-56.5 1555.5,-56.5"/>
<text text-anchor="middle" x="1604.5" y="-63.5" font-family="Helvetica,sans-Serif" font-size="10.00">PPCFrontEnd.cpp</text>
</a>
</g>
</g>
<!-- Node2&#45;&gt;Node40 -->
<g id="edge38" class="edge">
<title>Node2&#45;&gt;Node40</title>
<path fill="none" stroke="midnightblue" d="M2161.34,-118.31C2067.29,-112.57 1846.74,-97.87 1662.5,-76 1659.57,-75.65 1656.55,-75.27 1653.51,-74.86"/>
<polygon fill="midnightblue" stroke="midnightblue" points="2161.19,-121.8 2171.38,-118.91 2161.61,-114.82 2161.19,-121.8"/>
</g>
<!-- Node41 -->
<g id="node36" class="node">
<title>Node41</title>
<g id="a_node36"><a xlink:href="ST20FrontEnd_8cpp.html" target="_top" xlink:title=" ">
<polygon fill="white" stroke="black" points="1671.5,-56.5 1671.5,-75.5 1775.5,-75.5 1775.5,-56.5 1671.5,-56.5"/>
<text text-anchor="middle" x="1723.5" y="-63.5" font-family="Helvetica,sans-Serif" font-size="10.00">ST20FrontEnd.cpp</text>
</a>
</g>
</g>
<!-- Node2&#45;&gt;Node41 -->
<g id="edge39" class="edge">
<title>Node2&#45;&gt;Node41</title>
<path fill="none" stroke="midnightblue" d="M2161.26,-116.7C2083.4,-109.32 1921.23,-93.35 1784.5,-76 1781.63,-75.64 1778.69,-75.25 1775.72,-74.85"/>
<polygon fill="midnightblue" stroke="midnightblue" points="2160.94,-120.18 2171.23,-117.64 2161.6,-113.22 2160.94,-120.18"/>
</g>
<!-- Node42 -->
<g id="node37" class="node">
<title>Node42</title>
<g id="a_node37"><a xlink:href="X86FrontEnd_8cpp.html" target="_top" xlink:title=" ">
<polygon fill="white" stroke="black" points="1793.5,-56.5 1793.5,-75.5 1891.5,-75.5 1891.5,-56.5 1793.5,-56.5"/>
<text text-anchor="middle" x="1842.5" y="-63.5" font-family="Helvetica,sans-Serif" font-size="10.00">X86FrontEnd.cpp</text>
</a>
</g>
</g>
<!-- Node2&#45;&gt;Node42 -->
<g id="edge40" class="edge">
<title>Node2&#45;&gt;Node42</title>
<path fill="none" stroke="midnightblue" d="M2161.16,-114.33C2101.03,-105.65 1992.9,-89.94 1900.5,-76 1897.58,-75.56 1894.57,-75.1 1891.54,-74.64"/>
<polygon fill="midnightblue" stroke="midnightblue" points="2160.7,-117.8 2171.1,-115.76 2161.7,-110.87 2160.7,-117.8"/>
</g>
<!-- Node2&#45;&gt;Node43 -->
<g id="edge41" class="edge">
<title>Node2&#45;&gt;Node43</title>
<path fill="none" stroke="midnightblue" d="M2253.89,-120.57C2508.62,-118.08 3739.48,-104.75 4118.5,-76 4121.55,-75.77 4124.68,-75.5 4127.83,-75.19"/>
<polygon fill="midnightblue" stroke="midnightblue" points="2253.83,-117.07 2243.87,-120.66 2253.9,-124.07 2253.83,-117.07"/>
</g>
<!-- Node2&#45;&gt;Node44 -->
<g id="edge42" class="edge">
<title>Node2&#45;&gt;Node44</title>
<path fill="none" stroke="midnightblue" d="M2253.85,-120.65C2519.39,-118.55 3849.97,-106.66 4258.5,-76 4261.43,-75.78 4264.43,-75.52 4267.46,-75.24"/>
<polygon fill="midnightblue" stroke="midnightblue" points="2253.76,-117.15 2243.79,-120.73 2253.81,-124.15 2253.76,-117.15"/>
</g>
<!-- Node10 -->
<g id="node10" class="node">
<title>Node10</title>
<g id="a_node10"><a xlink:href="CustomSignature_8cpp.html" target="_top" xlink:title=" ">
<polygon fill="white" stroke="black" points="100,-0.5 100,-19.5 221,-19.5 221,-0.5 100,-0.5"/>
<text text-anchor="middle" x="160.5" y="-7.5" font-family="Helvetica,sans-Serif" font-size="10.00">CustomSignature.cpp</text>
</a>
</g>
</g>
<!-- Node9&#45;&gt;Node10 -->
<g id="edge9" class="edge">
<title>Node9&#45;&gt;Node10</title>
<path fill="none" stroke="midnightblue" d="M160.5,-45.8C160.5,-36.91 160.5,-26.78 160.5,-19.75"/>
<polygon fill="midnightblue" stroke="midnightblue" points="157,-46.08 160.5,-56.08 164,-46.08 157,-46.08"/>
</g>
<!-- Node12&#45;&gt;Node14 -->
<g id="edge11" class="edge">
<title>Node12&#45;&gt;Node14</title>
<path fill="none" stroke="midnightblue" d="M2464.54,-53.3C2496.76,-43.13 2542.69,-28.62 2571.53,-19.52"/>
<polygon fill="midnightblue" stroke="midnightblue" points="2463.08,-50.09 2454.6,-56.44 2465.19,-56.77 2463.08,-50.09"/>
</g>
<!-- Node15&#45;&gt;Node14 -->
<g id="edge14" class="edge">
<title>Node15&#45;&gt;Node14</title>
<path fill="none" stroke="midnightblue" d="M2556.39,-49.54C2566.91,-39.91 2580.07,-27.87 2588.85,-19.83"/>
<polygon fill="midnightblue" stroke="midnightblue" points="2553.99,-46.99 2548.98,-56.32 2558.72,-52.15 2553.99,-46.99"/>
</g>
<!-- Node17&#45;&gt;Node14 -->
<g id="edge16" class="edge">
<title>Node17&#45;&gt;Node14</title>
<path fill="none" stroke="midnightblue" d="M2640.61,-49.54C2630.09,-39.91 2616.93,-27.87 2608.15,-19.83"/>
<polygon fill="midnightblue" stroke="midnightblue" points="2638.28,-52.15 2648.02,-56.32 2643.01,-46.99 2638.28,-52.15"/>
</g>
<!-- Node19&#45;&gt;Node14 -->
<g id="edge18" class="edge">
<title>Node19&#45;&gt;Node14</title>
<path fill="none" stroke="midnightblue" d="M2735.24,-53.44C2702.43,-43.26 2655.42,-28.66 2625.94,-19.52"/>
<polygon fill="midnightblue" stroke="midnightblue" points="2734.34,-56.82 2744.93,-56.44 2736.42,-50.14 2734.34,-56.82"/>
</g>
</g>
</svg>
